<?xml version="1.0" encoding="utf-8" standalone="no"?>
<!DOCTYPE svg PUBLIC "-//W3C//DTD SVG 1.1//EN"
  "http://www.w3.org/Graphics/SVG/1.1/DTD/svg11.dtd">
<svg xmlns:xlink="http://www.w3.org/1999/xlink" width="628.578281pt" height="398.444344pt" viewBox="0 0 628.578281 398.444344" xmlns="http://www.w3.org/2000/svg" version="1.1">
 <metadata>
  <rdf:RDF xmlns:dc="http://purl.org/dc/elements/1.1/" xmlns:cc="http://creativecommons.org/ns#" xmlns:rdf="http://www.w3.org/1999/02/22-rdf-syntax-ns#">
   <cc:Work>
    <dc:type rdf:resource="http://purl.org/dc/dcmitype/StillImage"/>
    <dc:format>image/svg+xml</dc:format>
    <dc:creator>
     <cc:Agent>
      <dc:title>Matplotlib v3.10.9, https://matplotlib.org/</dc:title>
     </cc:Agent>
    </dc:creator>
   </cc:Work>
  </rdf:RDF>
 </metadata>
 <defs>
  <style type="text/css">*{stroke-linejoin: round; stroke-linecap: butt}</style>
 </defs>
 <g id="figure_1">
  <g id="patch_1">
   <path d="M 0 398.444344
L 628.578281 398.444344
L 628.578281 0
L 0 0
z
" style="fill: #fcfcfd"/>
  </g>
  <g id="axes_1">
   <g id="patch_2">
    <path d="M 140.048281 368.956
L 621.378281 368.956
L 621.378281 53.568
L 140.048281 53.568
z
" style="fill: #ffffff"/>
   </g>
   <g id="patch_3">
    <path d="M 140.048281 53.568
L 300.491615 53.568
L 300.491615 98.623429
L 140.048281 98.623429
z
" clip-path="url(#p43e04b913c)" style="fill: #c5cad3; opacity: 0.868144; stroke: #ffffff; stroke-width: 2; stroke-linejoin: miter"/>
   </g>
   <g id="patch_4">
    <path d="M 300.491615 53.568
L 460.934948 53.568
L 460.934948 98.623429
L 300.491615 98.623429
z
" clip-path="url(#p43e04b913c)" style="fill: #ffe15b; opacity: 0.08; stroke: #ffffff; stroke-width: 2; stroke-linejoin: miter"/>
   </g>
   <g id="patch_5">
    <path d="M 460.934948 53.568
L 621.378281 53.568
L 621.378281 98.623429
L 460.934948 98.623429
z
" clip-path="url(#p43e04b913c)" style="fill: #a3d576; opacity: 0.691584; stroke: #ffffff; stroke-width: 2; stroke-linejoin: miter"/>
   </g>
   <g id="patch_6">
    <path d="M 140.048281 98.623429
L 300.491615 98.623429
L 300.491615 143.678857
L 140.048281 143.678857
z
" clip-path="url(#p43e04b913c)" style="fill: #c5cad3; opacity: 0.9; stroke: #ffffff; stroke-width: 2; stroke-linejoin: miter"/>
   </g>
   <g id="patch_7">
    <path d="M 300.491615 98.623429
L 460.934948 98.623429
L 460.934948 143.678857
L 300.491615 143.678857
z
" clip-path="url(#p43e04b913c)" style="fill: #ffe15b; opacity: 0.08; stroke: #ffffff; stroke-width: 2; stroke-linejoin: miter"/>
   </g>
   <g id="patch_8">
    <path d="M 460.934948 98.623429
L 621.378281 98.623429
L 621.378281 143.678857
L 460.934948 143.678857
z
" clip-path="url(#p43e04b913c)" style="fill: #a3d576; opacity: 0.409764; stroke: #ffffff; stroke-width: 2; stroke-linejoin: miter"/>
   </g>
   <g id="patch_9">
    <path d="M 140.048281 143.678857
L 300.491615 143.678857
L 300.491615 188.734286
L 140.048281 188.734286
z
" clip-path="url(#p43e04b913c)" style="fill: #c5cad3; opacity: 0.862268; stroke: #ffffff; stroke-width: 2; stroke-linejoin: miter"/>
   </g>
   <g id="patch_10">
    <path d="M 300.491615 143.678857
L 460.934948 143.678857
L 460.934948 188.734286
L 300.491615 188.734286
z
" clip-path="url(#p43e04b913c)" style="fill: #ffe15b; opacity: 0.377908; stroke: #ffffff; stroke-width: 2; stroke-linejoin: miter"/>
   </g>
   <g id="patch_11">
    <path d="M 460.934948 143.678857
L 621.378281 143.678857
L 621.378281 188.734286
L 460.934948 188.734286
z
" clip-path="url(#p43e04b913c)" style="fill: #a3d576; opacity: 0.699302; stroke: #ffffff; stroke-width: 2; stroke-linejoin: miter"/>
   </g>
   <g id="patch_12">
    <path d="M 140.048281 188.734286
L 300.491615 188.734286
L 300.491615 233.789714
L 140.048281 233.789714
z
" clip-path="url(#p43e04b913c)" style="fill: #c5cad3; opacity: 0.861064; stroke: #ffffff; stroke-width: 2; stroke-linejoin: miter"/>
   </g>
   <g id="patch_13">
    <path d="M 300.491615 188.734286
L 460.934948 188.734286
L 460.934948 233.789714
L 300.491615 233.789714
z
" clip-path="url(#p43e04b913c)" style="fill: #ffe15b; opacity: 0.645126; stroke: #ffffff; stroke-width: 2; stroke-linejoin: miter"/>
   </g>
   <g id="patch_14">
    <path d="M 460.934948 188.734286
L 621.378281 188.734286
L 621.378281 233.789714
L 460.934948 233.789714
z
" clip-path="url(#p43e04b913c)" style="fill: #a3d576; opacity: 0.58447; stroke: #ffffff; stroke-width: 2; stroke-linejoin: miter"/>
   </g>
   <g id="patch_15">
    <path d="M 140.048281 233.789714
L 300.491615 233.789714
L 300.491615 278.845143
L 140.048281 278.845143
z
" clip-path="url(#p43e04b913c)" style="fill: #c5cad3; opacity: 0.85614; stroke: #ffffff; stroke-width: 2; stroke-linejoin: miter"/>
   </g>
   <g id="patch_16">
    <path d="M 300.491615 233.789714
L 460.934948 233.789714
L 460.934948 278.845143
L 300.491615 278.845143
z
" clip-path="url(#p43e04b913c)" style="fill: #ffe15b; opacity: 0.71015; stroke: #ffffff; stroke-width: 2; stroke-linejoin: miter"/>
   </g>
   <g id="patch_17">
    <path d="M 460.934948 233.789714
L 621.378281 233.789714
L 621.378281 278.845143
L 460.934948 278.845143
z
" clip-path="url(#p43e04b913c)" style="fill: #a3d576; opacity: 0.435792; stroke: #ffffff; stroke-width: 2; stroke-linejoin: miter"/>
   </g>
   <g id="patch_18">
    <path d="M 140.048281 278.845143
L 300.491615 278.845143
L 300.491615 323.900571
L 140.048281 323.900571
z
" clip-path="url(#p43e04b913c)" style="fill: #c5cad3; opacity: 0.809104; stroke: #ffffff; stroke-width: 2; stroke-linejoin: miter"/>
   </g>
   <g id="patch_19">
    <path d="M 300.491615 278.845143
L 460.934948 278.845143
L 460.934948 323.900571
L 300.491615 323.900571
z
" clip-path="url(#p43e04b913c)" style="fill: #ffe15b; opacity: 0.771474; stroke: #ffffff; stroke-width: 2; stroke-linejoin: miter"/>
   </g>
   <g id="patch_20">
    <path d="M 460.934948 278.845143
L 621.378281 278.845143
L 621.378281 323.900571
L 460.934948 323.900571
z
" clip-path="url(#p43e04b913c)" style="fill: #a3d576; opacity: 0.575815; stroke: #ffffff; stroke-width: 2; stroke-linejoin: miter"/>
   </g>
   <g id="patch_21">
    <path d="M 140.048281 323.900571
L 300.491615 323.900571
L 300.491615 368.956
L 140.048281 368.956
z
" clip-path="url(#p43e04b913c)" style="fill: #c5cad3; opacity: 0.08; stroke: #ffffff; stroke-width: 2; stroke-linejoin: miter"/>
   </g>
   <g id="patch_22">
    <path d="M 300.491615 323.900571
L 460.934948 323.900571
L 460.934948 368.956
L 300.491615 368.956
z
" clip-path="url(#p43e04b913c)" style="fill: #ffe15b; opacity: 0.854882; stroke: #ffffff; stroke-width: 2; stroke-linejoin: miter"/>
   </g>
   <g id="patch_23">
    <path d="M 460.934948 323.900571
L 621.378281 323.900571
L 621.378281 368.956
L 460.934948 368.956
z
" clip-path="url(#p43e04b913c)" style="fill: #a3d576; opacity: 0.729648; stroke: #ffffff; stroke-width: 2; stroke-linejoin: miter"/>
   </g>
   <g id="matplotlib.axis_1">
    <g id="xtick_1">
     <g id="line2d_1"/>
     <g id="text_1">
      <!-- Ineligible -->
      <g style="fill: #6f768a" transform="translate(199.838542 379.294594) scale(0.09 -0.09)">
       <defs>
        <path id="DejaVuSans-49" d="M 628 4666
L 1259 4666
L 1259 0
L 628 0
L 628 4666
z
" transform="scale(0.015625)"/>
        <path id="DejaVuSans-6e" d="M 3513 2113
L 3513 0
L 2938 0
L 2938 2094
Q 2938 2591 2744 2837
Q 2550 3084 2163 3084
Q 1697 3084 1428 2787
Q 1159 2491 1159 1978
L 1159 0
L 581 0
L 581 3500
L 1159 3500
L 1159 2956
Q 1366 3272 1645 3428
Q 1925 3584 2291 3584
Q 2894 3584 3203 3211
Q 3513 2838 3513 2113
z
" transform="scale(0.015625)"/>
        <path id="DejaVuSans-65" d="M 3597 1894
L 3597 1613
L 953 1613
Q 991 1019 1311 708
Q 1631 397 2203 397
Q 2534 397 2845 478
Q 3156 559 3463 722
L 3463 178
Q 3153 47 2828 -22
Q 2503 -91 2169 -91
Q 1331 -91 842 396
Q 353 884 353 1716
Q 353 2575 817 3079
Q 1281 3584 2069 3584
Q 2775 3584 3186 3129
Q 3597 2675 3597 1894
z
M 3022 2063
Q 3016 2534 2758 2815
Q 2500 3097 2075 3097
Q 1594 3097 1305 2825
Q 1016 2553 972 2059
L 3022 2063
z
" transform="scale(0.015625)"/>
        <path id="DejaVuSans-6c" d="M 603 4863
L 1178 4863
L 1178 0
L 603 0
L 603 4863
z
" transform="scale(0.015625)"/>
        <path id="DejaVuSans-69" d="M 603 3500
L 1178 3500
L 1178 0
L 603 0
L 603 3500
z
M 603 4863
L 1178 4863
L 1178 4134
L 603 4134
L 603 4863
z
" transform="scale(0.015625)"/>
        <path id="DejaVuSans-67" d="M 2906 1791
Q 2906 2416 2648 2759
Q 2391 3103 1925 3103
Q 1463 3103 1205 2759
Q 947 2416 947 1791
Q 947 1169 1205 825
Q 1463 481 1925 481
Q 2391 481 2648 825
Q 2906 1169 2906 1791
z
M 3481 434
Q 3481 -459 3084 -895
Q 2688 -1331 1869 -1331
Q 1566 -1331 1297 -1286
Q 1028 -1241 775 -1147
L 775 -588
Q 1028 -725 1275 -790
Q 1522 -856 1778 -856
Q 2344 -856 2625 -561
Q 2906 -266 2906 331
L 2906 616
Q 2728 306 2450 153
Q 2172 0 1784 0
Q 1141 0 747 490
Q 353 981 353 1791
Q 353 2603 747 3093
Q 1141 3584 1784 3584
Q 2172 3584 2450 3431
Q 2728 3278 2906 2969
L 2906 3500
L 3481 3500
L 3481 434
z
" transform="scale(0.015625)"/>
        <path id="DejaVuSans-62" d="M 3116 1747
Q 3116 2381 2855 2742
Q 2594 3103 2138 3103
Q 1681 3103 1420 2742
Q 1159 2381 1159 1747
Q 1159 1113 1420 752
Q 1681 391 2138 391
Q 2594 391 2855 752
Q 3116 1113 3116 1747
z
M 1159 2969
Q 1341 3281 1617 3432
Q 1894 3584 2278 3584
Q 2916 3584 3314 3078
Q 3713 2572 3713 1747
Q 3713 922 3314 415
Q 2916 -91 2278 -91
Q 1894 -91 1617 61
Q 1341 213 1159 525
L 1159 0
L 581 0
L 581 4863
L 1159 4863
L 1159 2969
z
" transform="scale(0.015625)"/>
       </defs>
       <use xlink:href="#DejaVuSans-49"/>
       <use xlink:href="#DejaVuSans-6e" transform="translate(29.492188 0)"/>
       <use xlink:href="#DejaVuSans-65" transform="translate(92.871094 0)"/>
       <use xlink:href="#DejaVuSans-6c" transform="translate(154.394531 0)"/>
       <use xlink:href="#DejaVuSans-69" transform="translate(182.177734 0)"/>
       <use xlink:href="#DejaVuSans-67" transform="translate(209.960938 0)"/>
       <use xlink:href="#DejaVuSans-69" transform="translate(273.4375 0)"/>
       <use xlink:href="#DejaVuSans-62" transform="translate(301.220703 0)"/>
       <use xlink:href="#DejaVuSans-6c" transform="translate(364.697266 0)"/>
       <use xlink:href="#DejaVuSans-65" transform="translate(392.480469 0)"/>
      </g>
     </g>
    </g>
    <g id="xtick_2">
     <g id="line2d_2"/>
     <g id="text_2">
      <!-- Lower -->
      <g style="fill: #6f768a" transform="translate(367.232266 379.294594) scale(0.09 -0.09)">
       <defs>
        <path id="DejaVuSans-4c" d="M 628 4666
L 1259 4666
L 1259 531
L 3531 531
L 3531 0
L 628 0
L 628 4666
z
" transform="scale(0.015625)"/>
        <path id="DejaVuSans-6f" d="M 1959 3097
Q 1497 3097 1228 2736
Q 959 2375 959 1747
Q 959 1119 1226 758
Q 1494 397 1959 397
Q 2419 397 2687 759
Q 2956 1122 2956 1747
Q 2956 2369 2687 2733
Q 2419 3097 1959 3097
z
M 1959 3584
Q 2709 3584 3137 3096
Q 3566 2609 3566 1747
Q 3566 888 3137 398
Q 2709 -91 1959 -91
Q 1206 -91 779 398
Q 353 888 353 1747
Q 353 2609 779 3096
Q 1206 3584 1959 3584
z
" transform="scale(0.015625)"/>
        <path id="DejaVuSans-77" d="M 269 3500
L 844 3500
L 1563 769
L 2278 3500
L 2956 3500
L 3675 769
L 4391 3500
L 4966 3500
L 4050 0
L 3372 0
L 2619 2869
L 1863 0
L 1184 0
L 269 3500
z
" transform="scale(0.015625)"/>
        <path id="DejaVuSans-72" d="M 2631 2963
Q 2534 3019 2420 3045
Q 2306 3072 2169 3072
Q 1681 3072 1420 2755
Q 1159 2438 1159 1844
L 1159 0
L 581 0
L 581 3500
L 1159 3500
L 1159 2956
Q 1341 3275 1631 3429
Q 1922 3584 2338 3584
Q 2397 3584 2469 3576
Q 2541 3569 2628 3553
L 2631 2963
z
" transform="scale(0.015625)"/>
       </defs>
       <use xlink:href="#DejaVuSans-4c"/>
       <use xlink:href="#DejaVuSans-6f" transform="translate(53.962891 0)"/>
       <use xlink:href="#DejaVuSans-77" transform="translate(115.144531 0)"/>
       <use xlink:href="#DejaVuSans-65" transform="translate(196.931641 0)"/>
       <use xlink:href="#DejaVuSans-72" transform="translate(258.455078 0)"/>
      </g>
      <!-- precedence -->
      <g style="fill: #6f768a" transform="translate(354.374922 389.372625) scale(0.09 -0.09)">
       <defs>
        <path id="DejaVuSans-70" d="M 1159 525
L 1159 -1331
L 581 -1331
L 581 3500
L 1159 3500
L 1159 2969
Q 1341 3281 1617 3432
Q 1894 3584 2278 3584
Q 2916 3584 3314 3078
Q 3713 2572 3713 1747
Q 3713 922 3314 415
Q 2916 -91 2278 -91
Q 1894 -91 1617 61
Q 1341 213 1159 525
z
M 3116 1747
Q 3116 2381 2855 2742
Q 2594 3103 2138 3103
Q 1681 3103 1420 2742
Q 1159 2381 1159 1747
Q 1159 1113 1420 752
Q 1681 391 2138 391
Q 2594 391 2855 752
Q 3116 1113 3116 1747
z
" transform="scale(0.015625)"/>
        <path id="DejaVuSans-63" d="M 3122 3366
L 3122 2828
Q 2878 2963 2633 3030
Q 2388 3097 2138 3097
Q 1578 3097 1268 2742
Q 959 2388 959 1747
Q 959 1106 1268 751
Q 1578 397 2138 397
Q 2388 397 2633 464
Q 2878 531 3122 666
L 3122 134
Q 2881 22 2623 -34
Q 2366 -91 2075 -91
Q 1284 -91 818 406
Q 353 903 353 1747
Q 353 2603 823 3093
Q 1294 3584 2113 3584
Q 2378 3584 2631 3529
Q 2884 3475 3122 3366
z
" transform="scale(0.015625)"/>
        <path id="DejaVuSans-64" d="M 2906 2969
L 2906 4863
L 3481 4863
L 3481 0
L 2906 0
L 2906 525
Q 2725 213 2448 61
Q 2172 -91 1784 -91
Q 1150 -91 751 415
Q 353 922 353 1747
Q 353 2572 751 3078
Q 1150 3584 1784 3584
Q 2172 3584 2448 3432
Q 2725 3281 2906 2969
z
M 947 1747
Q 947 1113 1208 752
Q 1469 391 1925 391
Q 2381 391 2643 752
Q 2906 1113 2906 1747
Q 2906 2381 2643 2742
Q 2381 3103 1925 3103
Q 1469 3103 1208 2742
Q 947 2381 947 1747
z
" transform="scale(0.015625)"/>
       </defs>
       <use xlink:href="#DejaVuSans-70"/>
       <use xlink:href="#DejaVuSans-72" transform="translate(63.476562 0)"/>
       <use xlink:href="#DejaVuSans-65" transform="translate(102.339844 0)"/>
       <use xlink:href="#DejaVuSans-63" transform="translate(163.863281 0)"/>
       <use xlink:href="#DejaVuSans-65" transform="translate(218.84375 0)"/>
       <use xlink:href="#DejaVuSans-64" transform="translate(280.367188 0)"/>
       <use xlink:href="#DejaVuSans-65" transform="translate(343.84375 0)"/>
       <use xlink:href="#DejaVuSans-6e" transform="translate(405.367188 0)"/>
       <use xlink:href="#DejaVuSans-63" transform="translate(468.746094 0)"/>
       <use xlink:href="#DejaVuSans-65" transform="translate(523.726562 0)"/>
      </g>
     </g>
    </g>
    <g id="xtick_3">
     <g id="line2d_3"/>
     <g id="text_3">
      <!-- Selected -->
      <g style="fill: #6f768a" transform="translate(521.647708 379.294594) scale(0.09 -0.09)">
       <defs>
        <path id="DejaVuSans-53" d="M 3425 4513
L 3425 3897
Q 3066 4069 2747 4153
Q 2428 4238 2131 4238
Q 1616 4238 1336 4038
Q 1056 3838 1056 3469
Q 1056 3159 1242 3001
Q 1428 2844 1947 2747
L 2328 2669
Q 3034 2534 3370 2195
Q 3706 1856 3706 1288
Q 3706 609 3251 259
Q 2797 -91 1919 -91
Q 1588 -91 1214 -16
Q 841 59 441 206
L 441 856
Q 825 641 1194 531
Q 1563 422 1919 422
Q 2459 422 2753 634
Q 3047 847 3047 1241
Q 3047 1584 2836 1778
Q 2625 1972 2144 2069
L 1759 2144
Q 1053 2284 737 2584
Q 422 2884 422 3419
Q 422 4038 858 4394
Q 1294 4750 2059 4750
Q 2388 4750 2728 4690
Q 3069 4631 3425 4513
z
" transform="scale(0.015625)"/>
        <path id="DejaVuSans-74" d="M 1172 4494
L 1172 3500
L 2356 3500
L 2356 3053
L 1172 3053
L 1172 1153
Q 1172 725 1289 603
Q 1406 481 1766 481
L 2356 481
L 2356 0
L 1766 0
Q 1100 0 847 248
Q 594 497 594 1153
L 594 3053
L 172 3053
L 172 3500
L 594 3500
L 594 4494
L 1172 4494
z
" transform="scale(0.015625)"/>
       </defs>
       <use xlink:href="#DejaVuSans-53"/>
       <use xlink:href="#DejaVuSans-65" transform="translate(63.476562 0)"/>
       <use xlink:href="#DejaVuSans-6c" transform="translate(125 0)"/>
       <use xlink:href="#DejaVuSans-65" transform="translate(152.783203 0)"/>
       <use xlink:href="#DejaVuSans-63" transform="translate(214.306641 0)"/>
       <use xlink:href="#DejaVuSans-74" transform="translate(269.287109 0)"/>
       <use xlink:href="#DejaVuSans-65" transform="translate(308.496094 0)"/>
       <use xlink:href="#DejaVuSans-64" transform="translate(370.019531 0)"/>
      </g>
     </g>
    </g>
   </g>
   <g id="matplotlib.axis_2">
    <g id="ytick_1">
     <g id="line2d_4"/>
     <g id="text_4">
      <!-- Access follow-up -->
      <g style="fill: #6f768a" transform="translate(61.669687 79.515011) scale(0.09 -0.09)">
       <defs>
        <path id="DejaVuSans-41" d="M 2188 4044
L 1331 1722
L 3047 1722
L 2188 4044
z
M 1831 4666
L 2547 4666
L 4325 0
L 3669 0
L 3244 1197
L 1141 1197
L 716 0
L 50 0
L 1831 4666
z
" transform="scale(0.015625)"/>
        <path id="DejaVuSans-73" d="M 2834 3397
L 2834 2853
Q 2591 2978 2328 3040
Q 2066 3103 1784 3103
Q 1356 3103 1142 2972
Q 928 2841 928 2578
Q 928 2378 1081 2264
Q 1234 2150 1697 2047
L 1894 2003
Q 2506 1872 2764 1633
Q 3022 1394 3022 966
Q 3022 478 2636 193
Q 2250 -91 1575 -91
Q 1294 -91 989 -36
Q 684 19 347 128
L 347 722
Q 666 556 975 473
Q 1284 391 1588 391
Q 1994 391 2212 530
Q 2431 669 2431 922
Q 2431 1156 2273 1281
Q 2116 1406 1581 1522
L 1381 1569
Q 847 1681 609 1914
Q 372 2147 372 2553
Q 372 3047 722 3315
Q 1072 3584 1716 3584
Q 2034 3584 2315 3537
Q 2597 3491 2834 3397
z
" transform="scale(0.015625)"/>
        <path id="DejaVuSans-20" transform="scale(0.015625)"/>
        <path id="DejaVuSans-66" d="M 2375 4863
L 2375 4384
L 1825 4384
Q 1516 4384 1395 4259
Q 1275 4134 1275 3809
L 1275 3500
L 2222 3500
L 2222 3053
L 1275 3053
L 1275 0
L 697 0
L 697 3053
L 147 3053
L 147 3500
L 697 3500
L 697 3744
Q 697 4328 969 4595
Q 1241 4863 1831 4863
L 2375 4863
z
" transform="scale(0.015625)"/>
        <path id="DejaVuSans-2d" d="M 313 2009
L 1997 2009
L 1997 1497
L 313 1497
L 313 2009
z
" transform="scale(0.015625)"/>
        <path id="DejaVuSans-75" d="M 544 1381
L 544 3500
L 1119 3500
L 1119 1403
Q 1119 906 1312 657
Q 1506 409 1894 409
Q 2359 409 2629 706
Q 2900 1003 2900 1516
L 2900 3500
L 3475 3500
L 3475 0
L 2900 0
L 2900 538
Q 2691 219 2414 64
Q 2138 -91 1772 -91
Q 1169 -91 856 284
Q 544 659 544 1381
z
M 1991 3584
L 1991 3584
z
" transform="scale(0.015625)"/>
       </defs>
       <use xlink:href="#DejaVuSans-41"/>
       <use xlink:href="#DejaVuSans-63" transform="translate(66.658203 0)"/>
       <use xlink:href="#DejaVuSans-63" transform="translate(121.638672 0)"/>
       <use xlink:href="#DejaVuSans-65" transform="translate(176.619141 0)"/>
       <use xlink:href="#DejaVuSans-73" transform="translate(238.142578 0)"/>
       <use xlink:href="#DejaVuSans-73" transform="translate(290.242188 0)"/>
       <use xlink:href="#DejaVuSans-20" transform="translate(342.341797 0)"/>
       <use xlink:href="#DejaVuSans-66" transform="translate(374.128906 0)"/>
       <use xlink:href="#DejaVuSans-6f" transform="translate(409.333984 0)"/>
       <use xlink:href="#DejaVuSans-6c" transform="translate(470.515625 0)"/>
       <use xlink:href="#DejaVuSans-6c" transform="translate(498.298828 0)"/>
       <use xlink:href="#DejaVuSans-6f" transform="translate(526.082031 0)"/>
       <use xlink:href="#DejaVuSans-77" transform="translate(587.263672 0)"/>
       <use xlink:href="#DejaVuSans-2d" transform="translate(669.050781 0)"/>
       <use xlink:href="#DejaVuSans-75" transform="translate(705.134766 0)"/>
       <use xlink:href="#DejaVuSans-70" transform="translate(768.513672 0)"/>
      </g>
     </g>
    </g>
    <g id="ytick_2">
     <g id="line2d_5"/>
     <g id="text_5">
      <!-- Field conversation -->
      <g style="fill: #6f768a" transform="translate(54.745312 124.57044) scale(0.09 -0.09)">
       <defs>
        <path id="DejaVuSans-46" d="M 628 4666
L 3309 4666
L 3309 4134
L 1259 4134
L 1259 2759
L 3109 2759
L 3109 2228
L 1259 2228
L 1259 0
L 628 0
L 628 4666
z
" transform="scale(0.015625)"/>
        <path id="DejaVuSans-76" d="M 191 3500
L 800 3500
L 1894 563
L 2988 3500
L 3597 3500
L 2284 0
L 1503 0
L 191 3500
z
" transform="scale(0.015625)"/>
        <path id="DejaVuSans-61" d="M 2194 1759
Q 1497 1759 1228 1600
Q 959 1441 959 1056
Q 959 750 1161 570
Q 1363 391 1709 391
Q 2188 391 2477 730
Q 2766 1069 2766 1631
L 2766 1759
L 2194 1759
z
M 3341 1997
L 3341 0
L 2766 0
L 2766 531
Q 2569 213 2275 61
Q 1981 -91 1556 -91
Q 1019 -91 701 211
Q 384 513 384 1019
Q 384 1609 779 1909
Q 1175 2209 1959 2209
L 2766 2209
L 2766 2266
Q 2766 2663 2505 2880
Q 2244 3097 1772 3097
Q 1472 3097 1187 3025
Q 903 2953 641 2809
L 641 3341
Q 956 3463 1253 3523
Q 1550 3584 1831 3584
Q 2591 3584 2966 3190
Q 3341 2797 3341 1997
z
" transform="scale(0.015625)"/>
       </defs>
       <use xlink:href="#DejaVuSans-46"/>
       <use xlink:href="#DejaVuSans-69" transform="translate(50.269531 0)"/>
       <use xlink:href="#DejaVuSans-65" transform="translate(78.052734 0)"/>
       <use xlink:href="#DejaVuSans-6c" transform="translate(139.576172 0)"/>
       <use xlink:href="#DejaVuSans-64" transform="translate(167.359375 0)"/>
       <use xlink:href="#DejaVuSans-20" transform="translate(230.835938 0)"/>
       <use xlink:href="#DejaVuSans-63" transform="translate(262.623047 0)"/>
       <use xlink:href="#DejaVuSans-6f" transform="translate(317.603516 0)"/>
       <use xlink:href="#DejaVuSans-6e" transform="translate(378.785156 0)"/>
       <use xlink:href="#DejaVuSans-76" transform="translate(442.164062 0)"/>
       <use xlink:href="#DejaVuSans-65" transform="translate(501.34375 0)"/>
       <use xlink:href="#DejaVuSans-72" transform="translate(562.867188 0)"/>
       <use xlink:href="#DejaVuSans-73" transform="translate(603.980469 0)"/>
       <use xlink:href="#DejaVuSans-61" transform="translate(656.080078 0)"/>
       <use xlink:href="#DejaVuSans-74" transform="translate(717.359375 0)"/>
       <use xlink:href="#DejaVuSans-69" transform="translate(756.568359 0)"/>
       <use xlink:href="#DejaVuSans-6f" transform="translate(784.351562 0)"/>
       <use xlink:href="#DejaVuSans-6e" transform="translate(845.533203 0)"/>
      </g>
     </g>
    </g>
    <g id="ytick_3">
     <g id="line2d_6"/>
     <g id="text_6">
      <!-- Program invitation -->
      <g style="fill: #6f768a" transform="translate(53.405156 169.625868) scale(0.09 -0.09)">
       <defs>
        <path id="DejaVuSans-50" d="M 1259 4147
L 1259 2394
L 2053 2394
Q 2494 2394 2734 2622
Q 2975 2850 2975 3272
Q 2975 3691 2734 3919
Q 2494 4147 2053 4147
L 1259 4147
z
M 628 4666
L 2053 4666
Q 2838 4666 3239 4311
Q 3641 3956 3641 3272
Q 3641 2581 3239 2228
Q 2838 1875 2053 1875
L 1259 1875
L 1259 0
L 628 0
L 628 4666
z
" transform="scale(0.015625)"/>
        <path id="DejaVuSans-6d" d="M 3328 2828
Q 3544 3216 3844 3400
Q 4144 3584 4550 3584
Q 5097 3584 5394 3201
Q 5691 2819 5691 2113
L 5691 0
L 5113 0
L 5113 2094
Q 5113 2597 4934 2840
Q 4756 3084 4391 3084
Q 3944 3084 3684 2787
Q 3425 2491 3425 1978
L 3425 0
L 2847 0
L 2847 2094
Q 2847 2600 2669 2842
Q 2491 3084 2119 3084
Q 1678 3084 1418 2786
Q 1159 2488 1159 1978
L 1159 0
L 581 0
L 581 3500
L 1159 3500
L 1159 2956
Q 1356 3278 1631 3431
Q 1906 3584 2284 3584
Q 2666 3584 2933 3390
Q 3200 3197 3328 2828
z
" transform="scale(0.015625)"/>
       </defs>
       <use xlink:href="#DejaVuSans-50"/>
       <use xlink:href="#DejaVuSans-72" transform="translate(58.552734 0)"/>
       <use xlink:href="#DejaVuSans-6f" transform="translate(97.416016 0)"/>
       <use xlink:href="#DejaVuSans-67" transform="translate(158.597656 0)"/>
       <use xlink:href="#DejaVuSans-72" transform="translate(222.074219 0)"/>
       <use xlink:href="#DejaVuSans-61" transform="translate(263.1875 0)"/>
       <use xlink:href="#DejaVuSans-6d" transform="translate(324.466797 0)"/>
       <use xlink:href="#DejaVuSans-20" transform="translate(421.878906 0)"/>
       <use xlink:href="#DejaVuSans-69" transform="translate(453.666016 0)"/>
       <use xlink:href="#DejaVuSans-6e" transform="translate(481.449219 0)"/>
       <use xlink:href="#DejaVuSans-76" transform="translate(544.828125 0)"/>
       <use xlink:href="#DejaVuSans-69" transform="translate(604.007812 0)"/>
       <use xlink:href="#DejaVuSans-74" transform="translate(631.791016 0)"/>
       <use xlink:href="#DejaVuSans-61" transform="translate(671 0)"/>
       <use xlink:href="#DejaVuSans-74" transform="translate(732.279297 0)"/>
       <use xlink:href="#DejaVuSans-69" transform="translate(771.488281 0)"/>
       <use xlink:href="#DejaVuSans-6f" transform="translate(799.271484 0)"/>
       <use xlink:href="#DejaVuSans-6e" transform="translate(860.453125 0)"/>
      </g>
     </g>
    </g>
    <g id="ytick_4">
     <g id="line2d_7"/>
     <g id="text_7">
      <!-- Approved email -->
      <g style="fill: #6f768a" transform="translate(65.701406 214.681297) scale(0.09 -0.09)">
       <use xlink:href="#DejaVuSans-41"/>
       <use xlink:href="#DejaVuSans-70" transform="translate(68.408203 0)"/>
       <use xlink:href="#DejaVuSans-70" transform="translate(131.884766 0)"/>
       <use xlink:href="#DejaVuSans-72" transform="translate(195.361328 0)"/>
       <use xlink:href="#DejaVuSans-6f" transform="translate(234.224609 0)"/>
       <use xlink:href="#DejaVuSans-76" transform="translate(295.40625 0)"/>
       <use xlink:href="#DejaVuSans-65" transform="translate(354.585938 0)"/>
       <use xlink:href="#DejaVuSans-64" transform="translate(416.109375 0)"/>
       <use xlink:href="#DejaVuSans-20" transform="translate(479.585938 0)"/>
       <use xlink:href="#DejaVuSans-65" transform="translate(511.373047 0)"/>
       <use xlink:href="#DejaVuSans-6d" transform="translate(572.896484 0)"/>
       <use xlink:href="#DejaVuSans-61" transform="translate(670.308594 0)"/>
       <use xlink:href="#DejaVuSans-69" transform="translate(731.587891 0)"/>
       <use xlink:href="#DejaVuSans-6c" transform="translate(759.371094 0)"/>
      </g>
     </g>
    </g>
    <g id="ytick_5">
     <g id="line2d_8"/>
     <g id="text_8">
      <!-- Continue responsive content -->
      <g style="fill: #6f768a" transform="translate(7.2 259.736725) scale(0.09 -0.09)">
       <defs>
        <path id="DejaVuSans-43" d="M 4122 4306
L 4122 3641
Q 3803 3938 3442 4084
Q 3081 4231 2675 4231
Q 1875 4231 1450 3742
Q 1025 3253 1025 2328
Q 1025 1406 1450 917
Q 1875 428 2675 428
Q 3081 428 3442 575
Q 3803 722 4122 1019
L 4122 359
Q 3791 134 3420 21
Q 3050 -91 2638 -91
Q 1578 -91 968 557
Q 359 1206 359 2328
Q 359 3453 968 4101
Q 1578 4750 2638 4750
Q 3056 4750 3426 4639
Q 3797 4528 4122 4306
z
" transform="scale(0.015625)"/>
       </defs>
       <use xlink:href="#DejaVuSans-43"/>
       <use xlink:href="#DejaVuSans-6f" transform="translate(69.824219 0)"/>
       <use xlink:href="#DejaVuSans-6e" transform="translate(131.005859 0)"/>
       <use xlink:href="#DejaVuSans-74" transform="translate(194.384766 0)"/>
       <use xlink:href="#DejaVuSans-69" transform="translate(233.59375 0)"/>
       <use xlink:href="#DejaVuSans-6e" transform="translate(261.376953 0)"/>
       <use xlink:href="#DejaVuSans-75" transform="translate(324.755859 0)"/>
       <use xlink:href="#DejaVuSans-65" transform="translate(388.134766 0)"/>
       <use xlink:href="#DejaVuSans-20" transform="translate(449.658203 0)"/>
       <use xlink:href="#DejaVuSans-72" transform="translate(481.445312 0)"/>
       <use xlink:href="#DejaVuSans-65" transform="translate(520.308594 0)"/>
       <use xlink:href="#DejaVuSans-73" transform="translate(581.832031 0)"/>
       <use xlink:href="#DejaVuSans-70" transform="translate(633.931641 0)"/>
       <use xlink:href="#DejaVuSans-6f" transform="translate(697.408203 0)"/>
       <use xlink:href="#DejaVuSans-6e" transform="translate(758.589844 0)"/>
       <use xlink:href="#DejaVuSans-73" transform="translate(821.96875 0)"/>
       <use xlink:href="#DejaVuSans-69" transform="translate(874.068359 0)"/>
       <use xlink:href="#DejaVuSans-76" transform="translate(901.851562 0)"/>
       <use xlink:href="#DejaVuSans-65" transform="translate(961.03125 0)"/>
       <use xlink:href="#DejaVuSans-20" transform="translate(1022.554688 0)"/>
       <use xlink:href="#DejaVuSans-63" transform="translate(1054.341797 0)"/>
       <use xlink:href="#DejaVuSans-6f" transform="translate(1109.322266 0)"/>
       <use xlink:href="#DejaVuSans-6e" transform="translate(1170.503906 0)"/>
       <use xlink:href="#DejaVuSans-74" transform="translate(1233.882812 0)"/>
       <use xlink:href="#DejaVuSans-65" transform="translate(1273.091797 0)"/>
       <use xlink:href="#DejaVuSans-6e" transform="translate(1334.615234 0)"/>
       <use xlink:href="#DejaVuSans-74" transform="translate(1397.994141 0)"/>
      </g>
     </g>
    </g>
    <g id="ytick_6">
     <g id="line2d_9"/>
     <g id="text_9">
      <!-- Monitor -->
      <g style="fill: #6f768a" transform="translate(102.337031 304.792154) scale(0.09 -0.09)">
       <defs>
        <path id="DejaVuSans-4d" d="M 628 4666
L 1569 4666
L 2759 1491
L 3956 4666
L 4897 4666
L 4897 0
L 4281 0
L 4281 4097
L 3078 897
L 2444 897
L 1241 4097
L 1241 0
L 628 0
L 628 4666
z
" transform="scale(0.015625)"/>
       </defs>
       <use xlink:href="#DejaVuSans-4d"/>
       <use xlink:href="#DejaVuSans-6f" transform="translate(86.279297 0)"/>
       <use xlink:href="#DejaVuSans-6e" transform="translate(147.460938 0)"/>
       <use xlink:href="#DejaVuSans-69" transform="translate(210.839844 0)"/>
       <use xlink:href="#DejaVuSans-74" transform="translate(238.623047 0)"/>
       <use xlink:href="#DejaVuSans-6f" transform="translate(277.832031 0)"/>
       <use xlink:href="#DejaVuSans-72" transform="translate(339.013672 0)"/>
      </g>
     </g>
    </g>
    <g id="ytick_7">
     <g id="line2d_10"/>
     <g id="text_10">
      <!-- No action -->
      <g style="fill: #6f768a" transform="translate(93.744844 349.847583) scale(0.09 -0.09)">
       <defs>
        <path id="DejaVuSans-4e" d="M 628 4666
L 1478 4666
L 3547 763
L 3547 4666
L 4159 4666
L 4159 0
L 3309 0
L 1241 3903
L 1241 0
L 628 0
L 628 4666
z
" transform="scale(0.015625)"/>
       </defs>
       <use xlink:href="#DejaVuSans-4e"/>
       <use xlink:href="#DejaVuSans-6f" transform="translate(74.804688 0)"/>
       <use xlink:href="#DejaVuSans-20" transform="translate(135.986328 0)"/>
       <use xlink:href="#DejaVuSans-61" transform="translate(167.773438 0)"/>
       <use xlink:href="#DejaVuSans-63" transform="translate(229.052734 0)"/>
       <use xlink:href="#DejaVuSans-74" transform="translate(284.033203 0)"/>
       <use xlink:href="#DejaVuSans-69" transform="translate(323.242188 0)"/>
       <use xlink:href="#DejaVuSans-6f" transform="translate(351.025391 0)"/>
       <use xlink:href="#DejaVuSans-6e" transform="translate(412.207031 0)"/>
      </g>
     </g>
    </g>
   </g>
   <g id="text_11">
    <!-- 123 -->
    <g style="fill: #1f2430" transform="translate(209.833229 78.855089) scale(0.1 -0.1)">
     <defs>
      <path id="DejaVuSans-Bold-31" d="M 750 831
L 1813 831
L 1813 3847
L 722 3622
L 722 4441
L 1806 4666
L 2950 4666
L 2950 831
L 4013 831
L 4013 0
L 750 0
L 750 831
z
" transform="scale(0.015625)"/>
      <path id="DejaVuSans-Bold-32" d="M 1844 884
L 3897 884
L 3897 0
L 506 0
L 506 884
L 2209 2388
Q 2438 2594 2547 2791
Q 2656 2988 2656 3200
Q 2656 3528 2436 3728
Q 2216 3928 1850 3928
Q 1569 3928 1234 3808
Q 900 3688 519 3450
L 519 4475
Q 925 4609 1322 4679
Q 1719 4750 2100 4750
Q 2938 4750 3402 4381
Q 3866 4013 3866 3353
Q 3866 2972 3669 2642
Q 3472 2313 2841 1759
L 1844 884
z
" transform="scale(0.015625)"/>
      <path id="DejaVuSans-Bold-33" d="M 2981 2516
Q 3453 2394 3698 2092
Q 3944 1791 3944 1325
Q 3944 631 3412 270
Q 2881 -91 1863 -91
Q 1503 -91 1142 -33
Q 781 25 428 141
L 428 1069
Q 766 900 1098 814
Q 1431 728 1753 728
Q 2231 728 2486 893
Q 2741 1059 2741 1369
Q 2741 1688 2480 1852
Q 2219 2016 1709 2016
L 1228 2016
L 1228 2791
L 1734 2791
Q 2188 2791 2409 2933
Q 2631 3075 2631 3366
Q 2631 3634 2415 3781
Q 2200 3928 1806 3928
Q 1516 3928 1219 3862
Q 922 3797 628 3669
L 628 4550
Q 984 4650 1334 4700
Q 1684 4750 2022 4750
Q 2931 4750 3382 4451
Q 3834 4153 3834 3553
Q 3834 3144 3618 2883
Q 3403 2622 2981 2516
z
" transform="scale(0.015625)"/>
     </defs>
     <use xlink:href="#DejaVuSans-Bold-31"/>
     <use xlink:href="#DejaVuSans-Bold-32" transform="translate(69.580078 0)"/>
     <use xlink:href="#DejaVuSans-Bold-33" transform="translate(139.160156 0)"/>
    </g>
   </g>
   <g id="text_12">
    <!-- 0 -->
    <g style="fill: #1f2430" transform="translate(377.532031 78.855089) scale(0.1 -0.1)">
     <defs>
      <path id="DejaVuSans-30" d="M 2034 4250
Q 1547 4250 1301 3770
Q 1056 3291 1056 2328
Q 1056 1369 1301 889
Q 1547 409 2034 409
Q 2525 409 2770 889
Q 3016 1369 3016 2328
Q 3016 3291 2770 3770
Q 2525 4250 2034 4250
z
M 2034 4750
Q 2819 4750 3233 4129
Q 3647 3509 3647 2328
Q 3647 1150 3233 529
Q 2819 -91 2034 -91
Q 1250 -91 836 529
Q 422 1150 422 2328
Q 422 3509 836 4129
Q 1250 4750 2034 4750
z
" transform="scale(0.015625)"/>
     </defs>
     <use xlink:href="#DejaVuSans-30"/>
    </g>
   </g>
   <g id="text_13">
    <!-- 35 -->
    <g style="fill: #1f2430" transform="translate(534.198802 78.855089) scale(0.1 -0.1)">
     <defs>
      <path id="DejaVuSans-Bold-35" d="M 678 4666
L 3669 4666
L 3669 3781
L 1638 3781
L 1638 3059
Q 1775 3097 1914 3117
Q 2053 3138 2203 3138
Q 3056 3138 3531 2711
Q 4006 2284 4006 1522
Q 4006 766 3489 337
Q 2972 -91 2053 -91
Q 1656 -91 1267 -14
Q 878 63 494 219
L 494 1166
Q 875 947 1217 837
Q 1559 728 1863 728
Q 2300 728 2551 942
Q 2803 1156 2803 1522
Q 2803 1891 2551 2103
Q 2300 2316 1863 2316
Q 1603 2316 1309 2248
Q 1016 2181 678 2041
L 678 4666
z
" transform="scale(0.015625)"/>
     </defs>
     <use xlink:href="#DejaVuSans-Bold-33"/>
     <use xlink:href="#DejaVuSans-Bold-35" transform="translate(69.580078 0)"/>
    </g>
   </g>
   <g id="text_14">
    <!-- 154 -->
    <g style="fill: #1f2430" transform="translate(209.833229 123.910518) scale(0.1 -0.1)">
     <defs>
      <path id="DejaVuSans-Bold-34" d="M 2356 3675
L 1038 1722
L 2356 1722
L 2356 3675
z
M 2156 4666
L 3494 4666
L 3494 1722
L 4159 1722
L 4159 850
L 3494 850
L 3494 0
L 2356 0
L 2356 850
L 288 850
L 288 1881
L 2156 4666
z
" transform="scale(0.015625)"/>
     </defs>
     <use xlink:href="#DejaVuSans-Bold-31"/>
     <use xlink:href="#DejaVuSans-Bold-35" transform="translate(69.580078 0)"/>
     <use xlink:href="#DejaVuSans-Bold-34" transform="translate(139.160156 0)"/>
    </g>
   </g>
   <g id="text_15">
    <!-- 0 -->
    <g style="fill: #1f2430" transform="translate(377.532031 123.910518) scale(0.1 -0.1)">
     <use xlink:href="#DejaVuSans-30"/>
    </g>
   </g>
   <g id="text_16">
    <!-- 4 -->
    <g style="fill: #1f2430" transform="translate(537.677708 123.910518) scale(0.1 -0.1)">
     <use xlink:href="#DejaVuSans-Bold-34"/>
    </g>
   </g>
   <g id="text_17">
    <!-- 118 -->
    <g style="fill: #1f2430" transform="translate(209.833229 168.965946) scale(0.1 -0.1)">
     <defs>
      <path id="DejaVuSans-Bold-38" d="M 2228 2088
Q 1891 2088 1709 1903
Q 1528 1719 1528 1375
Q 1528 1031 1709 848
Q 1891 666 2228 666
Q 2563 666 2741 848
Q 2919 1031 2919 1375
Q 2919 1722 2741 1905
Q 2563 2088 2228 2088
z
M 1350 2484
Q 925 2613 709 2878
Q 494 3144 494 3541
Q 494 4131 934 4440
Q 1375 4750 2228 4750
Q 3075 4750 3515 4442
Q 3956 4134 3956 3541
Q 3956 3144 3739 2878
Q 3522 2613 3097 2484
Q 3572 2353 3814 2058
Q 4056 1763 4056 1313
Q 4056 619 3595 264
Q 3134 -91 2228 -91
Q 1319 -91 855 264
Q 391 619 391 1313
Q 391 1763 633 2058
Q 875 2353 1350 2484
z
M 1631 3419
Q 1631 3141 1786 2991
Q 1941 2841 2228 2841
Q 2509 2841 2662 2991
Q 2816 3141 2816 3419
Q 2816 3697 2662 3845
Q 2509 3994 2228 3994
Q 1941 3994 1786 3844
Q 1631 3694 1631 3419
z
" transform="scale(0.015625)"/>
     </defs>
     <use xlink:href="#DejaVuSans-Bold-31"/>
     <use xlink:href="#DejaVuSans-Bold-31" transform="translate(69.580078 0)"/>
     <use xlink:href="#DejaVuSans-Bold-38" transform="translate(139.160156 0)"/>
    </g>
   </g>
   <g id="text_18">
    <!-- 3 -->
    <g style="fill: #1f2430" transform="translate(377.234375 168.965946) scale(0.1 -0.1)">
     <use xlink:href="#DejaVuSans-Bold-33"/>
    </g>
   </g>
   <g id="text_19">
    <!-- 37 -->
    <g style="fill: #1f2430" transform="translate(534.198802 168.965946) scale(0.1 -0.1)">
     <defs>
      <path id="DejaVuSans-Bold-37" d="M 428 4666
L 3944 4666
L 3944 3988
L 2125 0
L 953 0
L 2675 3781
L 428 3781
L 428 4666
z
" transform="scale(0.015625)"/>
     </defs>
     <use xlink:href="#DejaVuSans-Bold-33"/>
     <use xlink:href="#DejaVuSans-Bold-37" transform="translate(69.580078 0)"/>
    </g>
   </g>
   <g id="text_20">
    <!-- 117 -->
    <g style="fill: #1f2430" transform="translate(209.833229 214.021375) scale(0.1 -0.1)">
     <use xlink:href="#DejaVuSans-Bold-31"/>
     <use xlink:href="#DejaVuSans-Bold-31" transform="translate(69.580078 0)"/>
     <use xlink:href="#DejaVuSans-Bold-37" transform="translate(139.160156 0)"/>
    </g>
   </g>
   <g id="text_21">
    <!-- 25 -->
    <g style="fill: #1f2430" transform="translate(373.755469 214.021375) scale(0.1 -0.1)">
     <use xlink:href="#DejaVuSans-Bold-32"/>
     <use xlink:href="#DejaVuSans-Bold-35" transform="translate(69.580078 0)"/>
    </g>
   </g>
   <g id="text_22">
    <!-- 16 -->
    <g style="fill: #1f2430" transform="translate(534.198802 214.021375) scale(0.1 -0.1)">
     <defs>
      <path id="DejaVuSans-Bold-36" d="M 2316 2303
Q 2000 2303 1842 2098
Q 1684 1894 1684 1484
Q 1684 1075 1842 870
Q 2000 666 2316 666
Q 2634 666 2792 870
Q 2950 1075 2950 1484
Q 2950 1894 2792 2098
Q 2634 2303 2316 2303
z
M 3803 4544
L 3803 3681
Q 3506 3822 3243 3889
Q 2981 3956 2731 3956
Q 2194 3956 1894 3657
Q 1594 3359 1544 2772
Q 1750 2925 1990 3001
Q 2231 3078 2516 3078
Q 3231 3078 3670 2659
Q 4109 2241 4109 1563
Q 4109 813 3618 361
Q 3128 -91 2303 -91
Q 1394 -91 895 523
Q 397 1138 397 2266
Q 397 3422 980 4083
Q 1563 4744 2578 4744
Q 2900 4744 3203 4694
Q 3506 4644 3803 4544
z
" transform="scale(0.015625)"/>
     </defs>
     <use xlink:href="#DejaVuSans-Bold-31"/>
     <use xlink:href="#DejaVuSans-Bold-36" transform="translate(69.580078 0)"/>
    </g>
   </g>
   <g id="text_23">
    <!-- 113 -->
    <g style="fill: #1f2430" transform="translate(209.833229 259.076804) scale(0.1 -0.1)">
     <use xlink:href="#DejaVuSans-Bold-31"/>
     <use xlink:href="#DejaVuSans-Bold-31" transform="translate(69.580078 0)"/>
     <use xlink:href="#DejaVuSans-Bold-33" transform="translate(139.160156 0)"/>
    </g>
   </g>
   <g id="text_24">
    <!-- 40 -->
    <g style="fill: #1f2430" transform="translate(373.755469 259.076804) scale(0.1 -0.1)">
     <defs>
      <path id="DejaVuSans-Bold-30" d="M 2944 2338
Q 2944 3213 2780 3570
Q 2616 3928 2228 3928
Q 1841 3928 1675 3570
Q 1509 3213 1509 2338
Q 1509 1453 1675 1090
Q 1841 728 2228 728
Q 2613 728 2778 1090
Q 2944 1453 2944 2338
z
M 4147 2328
Q 4147 1169 3647 539
Q 3147 -91 2228 -91
Q 1306 -91 806 539
Q 306 1169 306 2328
Q 306 3491 806 4120
Q 1306 4750 2228 4750
Q 3147 4750 3647 4120
Q 4147 3491 4147 2328
z
" transform="scale(0.015625)"/>
     </defs>
     <use xlink:href="#DejaVuSans-Bold-34"/>
     <use xlink:href="#DejaVuSans-Bold-30" transform="translate(69.580078 0)"/>
    </g>
   </g>
   <g id="text_25">
    <!-- 5 -->
    <g style="fill: #1f2430" transform="translate(537.677708 259.076804) scale(0.1 -0.1)">
     <use xlink:href="#DejaVuSans-Bold-35"/>
    </g>
   </g>
   <g id="text_26">
    <!-- 81 -->
    <g style="fill: #1f2430" transform="translate(213.312135 304.132232) scale(0.1 -0.1)">
     <use xlink:href="#DejaVuSans-Bold-38"/>
     <use xlink:href="#DejaVuSans-Bold-31" transform="translate(69.580078 0)"/>
    </g>
   </g>
   <g id="text_27">
    <!-- 62 -->
    <g style="fill: #1f2430" transform="translate(373.755469 304.132232) scale(0.1 -0.1)">
     <use xlink:href="#DejaVuSans-Bold-36"/>
     <use xlink:href="#DejaVuSans-Bold-32" transform="translate(69.580078 0)"/>
    </g>
   </g>
   <g id="text_28">
    <!-- 15 -->
    <g style="fill: #1f2430" transform="translate(534.198802 304.132232) scale(0.1 -0.1)">
     <use xlink:href="#DejaVuSans-Bold-31"/>
     <use xlink:href="#DejaVuSans-Bold-35" transform="translate(69.580078 0)"/>
    </g>
   </g>
   <g id="text_29">
    <!-- 0 -->
    <g style="fill: #1f2430" transform="translate(217.088698 349.187661) scale(0.1 -0.1)">
     <use xlink:href="#DejaVuSans-30"/>
    </g>
   </g>
   <g id="text_30">
    <!-- 112 -->
    <g style="fill: #1f2430" transform="translate(370.276562 349.187661) scale(0.1 -0.1)">
     <use xlink:href="#DejaVuSans-Bold-31"/>
     <use xlink:href="#DejaVuSans-Bold-31" transform="translate(69.580078 0)"/>
     <use xlink:href="#DejaVuSans-Bold-32" transform="translate(139.160156 0)"/>
    </g>
   </g>
   <g id="text_31">
    <!-- 46 -->
    <g style="fill: #1f2430" transform="translate(534.198802 349.187661) scale(0.1 -0.1)">
     <use xlink:href="#DejaVuSans-Bold-34"/>
     <use xlink:href="#DejaVuSans-Bold-36" transform="translate(69.580078 0)"/>
    </g>
   </g>
  </g>
  <g id="text_32">
   <!-- Candidate Audit Matrix -->
   <g transform="translate(243.700875 15.406312) scale(0.108 -0.108)">
    <defs>
     <path id="DejaVuSans-Bold-43" d="M 4288 256
Q 3956 84 3597 -3
Q 3238 -91 2847 -91
Q 1681 -91 1000 561
Q 319 1213 319 2328
Q 319 3447 1000 4098
Q 1681 4750 2847 4750
Q 3238 4750 3597 4662
Q 3956 4575 4288 4403
L 4288 3438
Q 3953 3666 3628 3772
Q 3303 3878 2944 3878
Q 2300 3878 1931 3465
Q 1563 3053 1563 2328
Q 1563 1606 1931 1193
Q 2300 781 2944 781
Q 3303 781 3628 887
Q 3953 994 4288 1222
L 4288 256
z
" transform="scale(0.015625)"/>
     <path id="DejaVuSans-Bold-61" d="M 2106 1575
Q 1756 1575 1579 1456
Q 1403 1338 1403 1106
Q 1403 894 1545 773
Q 1688 653 1941 653
Q 2256 653 2472 879
Q 2688 1106 2688 1447
L 2688 1575
L 2106 1575
z
M 3816 1997
L 3816 0
L 2688 0
L 2688 519
Q 2463 200 2181 54
Q 1900 -91 1497 -91
Q 953 -91 614 226
Q 275 544 275 1050
Q 275 1666 698 1953
Q 1122 2241 2028 2241
L 2688 2241
L 2688 2328
Q 2688 2594 2478 2717
Q 2269 2841 1825 2841
Q 1466 2841 1156 2769
Q 847 2697 581 2553
L 581 3406
Q 941 3494 1303 3539
Q 1666 3584 2028 3584
Q 2975 3584 3395 3211
Q 3816 2838 3816 1997
z
" transform="scale(0.015625)"/>
     <path id="DejaVuSans-Bold-6e" d="M 4056 2131
L 4056 0
L 2931 0
L 2931 347
L 2931 1631
Q 2931 2084 2911 2256
Q 2891 2428 2841 2509
Q 2775 2619 2662 2680
Q 2550 2741 2406 2741
Q 2056 2741 1856 2470
Q 1656 2200 1656 1722
L 1656 0
L 538 0
L 538 3500
L 1656 3500
L 1656 2988
Q 1909 3294 2193 3439
Q 2478 3584 2822 3584
Q 3428 3584 3742 3212
Q 4056 2841 4056 2131
z
" transform="scale(0.015625)"/>
     <path id="DejaVuSans-Bold-64" d="M 2919 2988
L 2919 4863
L 4044 4863
L 4044 0
L 2919 0
L 2919 506
Q 2688 197 2409 53
Q 2131 -91 1766 -91
Q 1119 -91 703 423
Q 288 938 288 1747
Q 288 2556 703 3070
Q 1119 3584 1766 3584
Q 2128 3584 2408 3439
Q 2688 3294 2919 2988
z
M 2181 722
Q 2541 722 2730 984
Q 2919 1247 2919 1747
Q 2919 2247 2730 2509
Q 2541 2772 2181 2772
Q 1825 2772 1636 2509
Q 1447 2247 1447 1747
Q 1447 1247 1636 984
Q 1825 722 2181 722
z
" transform="scale(0.015625)"/>
     <path id="DejaVuSans-Bold-69" d="M 538 3500
L 1656 3500
L 1656 0
L 538 0
L 538 3500
z
M 538 4863
L 1656 4863
L 1656 3950
L 538 3950
L 538 4863
z
" transform="scale(0.015625)"/>
     <path id="DejaVuSans-Bold-74" d="M 1759 4494
L 1759 3500
L 2913 3500
L 2913 2700
L 1759 2700
L 1759 1216
Q 1759 972 1856 886
Q 1953 800 2241 800
L 2816 800
L 2816 0
L 1856 0
Q 1194 0 917 276
Q 641 553 641 1216
L 641 2700
L 84 2700
L 84 3500
L 641 3500
L 641 4494
L 1759 4494
z
" transform="scale(0.015625)"/>
     <path id="DejaVuSans-Bold-65" d="M 4031 1759
L 4031 1441
L 1416 1441
Q 1456 1047 1700 850
Q 1944 653 2381 653
Q 2734 653 3104 758
Q 3475 863 3866 1075
L 3866 213
Q 3469 63 3072 -14
Q 2675 -91 2278 -91
Q 1328 -91 801 392
Q 275 875 275 1747
Q 275 2603 792 3093
Q 1309 3584 2216 3584
Q 3041 3584 3536 3087
Q 4031 2591 4031 1759
z
M 2881 2131
Q 2881 2450 2695 2645
Q 2509 2841 2209 2841
Q 1884 2841 1681 2658
Q 1478 2475 1428 2131
L 2881 2131
z
" transform="scale(0.015625)"/>
     <path id="DejaVuSans-Bold-20" transform="scale(0.015625)"/>
     <path id="DejaVuSans-Bold-41" d="M 3419 850
L 1538 850
L 1241 0
L 31 0
L 1759 4666
L 3194 4666
L 4922 0
L 3713 0
L 3419 850
z
M 1838 1716
L 3116 1716
L 2478 3572
L 1838 1716
z
" transform="scale(0.015625)"/>
     <path id="DejaVuSans-Bold-75" d="M 500 1363
L 500 3500
L 1625 3500
L 1625 3150
Q 1625 2866 1622 2436
Q 1619 2006 1619 1863
Q 1619 1441 1641 1255
Q 1663 1069 1716 984
Q 1784 875 1895 815
Q 2006 756 2150 756
Q 2500 756 2700 1025
Q 2900 1294 2900 1772
L 2900 3500
L 4019 3500
L 4019 0
L 2900 0
L 2900 506
Q 2647 200 2364 54
Q 2081 -91 1741 -91
Q 1134 -91 817 281
Q 500 653 500 1363
z
" transform="scale(0.015625)"/>
     <path id="DejaVuSans-Bold-4d" d="M 588 4666
L 2119 4666
L 3181 2169
L 4250 4666
L 5778 4666
L 5778 0
L 4641 0
L 4641 3413
L 3566 897
L 2803 897
L 1728 3413
L 1728 0
L 588 0
L 588 4666
z
" transform="scale(0.015625)"/>
     <path id="DejaVuSans-Bold-72" d="M 3138 2547
Q 2991 2616 2845 2648
Q 2700 2681 2553 2681
Q 2122 2681 1889 2404
Q 1656 2128 1656 1613
L 1656 0
L 538 0
L 538 3500
L 1656 3500
L 1656 2925
Q 1872 3269 2151 3426
Q 2431 3584 2822 3584
Q 2878 3584 2943 3579
Q 3009 3575 3134 3559
L 3138 2547
z
" transform="scale(0.015625)"/>
     <path id="DejaVuSans-Bold-78" d="M 1422 1791
L 159 3500
L 1344 3500
L 2059 2463
L 2784 3500
L 3969 3500
L 2706 1797
L 4031 0
L 2847 0
L 2059 1106
L 1281 0
L 97 0
L 1422 1791
z
" transform="scale(0.015625)"/>
    </defs>
    <use xlink:href="#DejaVuSans-Bold-43"/>
    <use xlink:href="#DejaVuSans-Bold-61" transform="translate(73.388672 0)"/>
    <use xlink:href="#DejaVuSans-Bold-6e" transform="translate(140.869141 0)"/>
    <use xlink:href="#DejaVuSans-Bold-64" transform="translate(212.060547 0)"/>
    <use xlink:href="#DejaVuSans-Bold-69" transform="translate(283.642578 0)"/>
    <use xlink:href="#DejaVuSans-Bold-64" transform="translate(317.919922 0)"/>
    <use xlink:href="#DejaVuSans-Bold-61" transform="translate(389.501953 0)"/>
    <use xlink:href="#DejaVuSans-Bold-74" transform="translate(456.982422 0)"/>
    <use xlink:href="#DejaVuSans-Bold-65" transform="translate(504.785156 0)"/>
    <use xlink:href="#DejaVuSans-Bold-20" transform="translate(572.607422 0)"/>
    <use xlink:href="#DejaVuSans-Bold-41" transform="translate(607.421875 0)"/>
    <use xlink:href="#DejaVuSans-Bold-75" transform="translate(684.814453 0)"/>
    <use xlink:href="#DejaVuSans-Bold-64" transform="translate(756.005859 0)"/>
    <use xlink:href="#DejaVuSans-Bold-69" transform="translate(827.587891 0)"/>
    <use xlink:href="#DejaVuSans-Bold-74" transform="translate(861.865234 0)"/>
    <use xlink:href="#DejaVuSans-Bold-20" transform="translate(909.667969 0)"/>
    <use xlink:href="#DejaVuSans-Bold-4d" transform="translate(944.482422 0)"/>
    <use xlink:href="#DejaVuSans-Bold-61" transform="translate(1043.994141 0)"/>
    <use xlink:href="#DejaVuSans-Bold-74" transform="translate(1111.474609 0)"/>
    <use xlink:href="#DejaVuSans-Bold-72" transform="translate(1159.277344 0)"/>
    <use xlink:href="#DejaVuSans-Bold-69" transform="translate(1208.59375 0)"/>
    <use xlink:href="#DejaVuSans-Bold-78" transform="translate(1242.871094 0)"/>
   </g>
  </g>
 </g>
 <defs>
  <clipPath id="p43e04b913c">
   <rect x="140.048281" y="53.568" width="481.33" height="315.388"/>
  </clipPath>
 </defs>
</svg>
