<?xml version="1.0" encoding="utf-8" standalone="no"?>
<!DOCTYPE svg PUBLIC "-//W3C//DTD SVG 1.1//EN"
  "http://www.w3.org/Graphics/SVG/1.1/DTD/svg11.dtd">
<svg xmlns:xlink="http://www.w3.org/1999/xlink" width="711.9pt" height="402.48pt" viewBox="0 0 711.9 402.48" xmlns="http://www.w3.org/2000/svg" version="1.1">
 <metadata>
  <rdf:RDF xmlns:dc="http://purl.org/dc/elements/1.1/" xmlns:cc="http://creativecommons.org/ns#" xmlns:rdf="http://www.w3.org/1999/02/22-rdf-syntax-ns#">
   <cc:Work>
    <dc:type rdf:resource="http://purl.org/dc/dcmitype/StillImage"/>
    <dc:format>image/svg+xml</dc:format>
    <dc:creator>
     <cc:Agent>
      <dc:title>Matplotlib v3.10.9, https://matplotlib.org/</dc:title>
     </cc:Agent>
    </dc:creator>
   </cc:Work>
  </rdf:RDF>
 </metadata>
 <defs>
  <style type="text/css">*{stroke-linejoin: round; stroke-linecap: butt}</style>
 </defs>
 <g id="figure_1">
  <g id="patch_1">
   <path d="M 0 402.48
L 711.9 402.48
L 711.9 -0
L 0 -0
z
" style="fill: #fcfcfd"/>
  </g>
  <g id="axes_1">
   <g id="patch_2">
    <path d="M 51.1425 356.86008
L 480.8025 356.86008
Q 494.7525 356.86008 494.7525 349.09848
L 494.7525 78.9948
Q 494.7525 71.2332 480.8025 71.2332
L 51.1425 71.2332
Q 37.1925 71.2332 37.1925 78.9948
L 37.1925 349.09848
Q 37.1925 356.86008 51.1425 356.86008
z
" clip-path="url(#pf5f1a43235)" style="fill: #e7eaf0; opacity: 0.55"/>
   </g>
   <g id="patch_3">
    <path d="M 529.6275 308.73816
L 670.5225 308.73816
Q 688.6575 308.73816 688.6575 298.64808
L 688.6575 125.17632
Q 688.6575 115.08624 670.5225 115.08624
L 529.6275 115.08624
Q 511.4925 115.08624 511.4925 125.17632
L 511.4925 298.64808
Q 511.4925 308.73816 529.6275 308.73816
z
" clip-path="url(#pf5f1a43235)" style="fill: #e0e7d7; opacity: 0.55"/>
   </g>
   <g id="patch_4">
    <path d="M 46.9575 353.75544
L 476.6175 353.75544
Q 490.5675 353.75544 490.5675 345.99384
L 490.5675 75.89016
Q 490.5675 68.12856 476.6175 68.12856
L 46.9575 68.12856
Q 33.0075 68.12856 33.0075 75.89016
L 33.0075 345.99384
Q 33.0075 353.75544 46.9575 353.75544
z
" clip-path="url(#pf5f1a43235)" style="fill: #ffffff; stroke: #d7dbe7; stroke-width: 0.9; stroke-linejoin: miter"/>
   </g>
   <g id="patch_5">
    <path d="M 46.9575 112.36968
L 476.6175 112.36968
Q 490.5675 112.36968 490.5675 104.60808
L 490.5675 75.89016
Q 490.5675 68.12856 476.6175 68.12856
L 46.9575 68.12856
Q 33.0075 68.12856 33.0075 75.89016
L 33.0075 104.60808
Q 33.0075 112.36968 46.9575 112.36968
z
" clip-path="url(#pf5f1a43235)" style="fill: #f4f5f7"/>
   </g>
   <g id="patch_6">
    <path d="M 55.3275 158.5512
L 468.2475 158.5512
Q 476.6175 158.5512 476.6175 153.89424
L 476.6175 137.59488
Q 476.6175 132.93792 468.2475 132.93792
L 55.3275 132.93792
Q 46.9575 132.93792 46.9575 137.59488
L 46.9575 153.89424
Q 46.9575 158.5512 55.3275 158.5512
z
" clip-path="url(#pf5f1a43235)" style="fill: #ffedde; opacity: 0.92; stroke: #804126; stroke-width: 0.9; stroke-linejoin: miter"/>
   </g>
   <g id="patch_7">
    <path d="M 55.3275 186.49296
L 468.2475 186.49296
Q 476.6175 186.49296 476.6175 181.836
L 476.6175 165.53664
Q 476.6175 160.87968 468.2475 160.87968
L 55.3275 160.87968
Q 46.9575 160.87968 46.9575 165.53664
L 46.9575 181.836
Q 46.9575 186.49296 55.3275 186.49296
z
" clip-path="url(#pf5f1a43235)" style="fill: #ffedde; opacity: 0.92; stroke: #804126; stroke-width: 0.9; stroke-linejoin: miter"/>
   </g>
   <g id="patch_8">
    <path d="M 55.3275 214.43472
L 468.2475 214.43472
Q 476.6175 214.43472 476.6175 209.77776
L 476.6175 193.4784
Q 476.6175 188.82144 468.2475 188.82144
L 55.3275 188.82144
Q 46.9575 188.82144 46.9575 193.4784
L 46.9575 209.77776
Q 46.9575 214.43472 55.3275 214.43472
z
" clip-path="url(#pf5f1a43235)" style="fill: #ffedde; opacity: 0.92; stroke: #804126; stroke-width: 0.9; stroke-linejoin: miter"/>
   </g>
   <g id="patch_9">
    <path d="M 55.3275 242.37648
L 468.2475 242.37648
Q 476.6175 242.37648 476.6175 237.71952
L 476.6175 221.42016
Q 476.6175 216.7632 468.2475 216.7632
L 55.3275 216.7632
Q 46.9575 216.7632 46.9575 221.42016
L 46.9575 237.71952
Q 46.9575 242.37648 55.3275 242.37648
z
" clip-path="url(#pf5f1a43235)" style="fill: #ffedde; opacity: 0.92; stroke: #804126; stroke-width: 0.9; stroke-linejoin: miter"/>
   </g>
   <g id="patch_10">
    <path d="M 55.3275 270.31824
L 468.2475 270.31824
Q 476.6175 270.31824 476.6175 265.66128
L 476.6175 249.36192
Q 476.6175 244.70496 468.2475 244.70496
L 55.3275 244.70496
Q 46.9575 244.70496 46.9575 249.36192
L 46.9575 265.66128
Q 46.9575 270.31824 55.3275 270.31824
z
" clip-path="url(#pf5f1a43235)" style="fill: #d8ecbd; opacity: 0.92; stroke: #386411; stroke-width: 0.9; stroke-linejoin: miter"/>
   </g>
   <g id="patch_11">
    <path d="M 55.3275 298.26
L 468.2475 298.26
Q 476.6175 298.26 476.6175 293.60304
L 476.6175 277.30368
Q 476.6175 272.64672 468.2475 272.64672
L 55.3275 272.64672
Q 46.9575 272.64672 46.9575 277.30368
L 46.9575 293.60304
Q 46.9575 298.26 55.3275 298.26
z
" clip-path="url(#pf5f1a43235)" style="fill: #fff4c2; opacity: 0.92; stroke: #736422; stroke-width: 0.9; stroke-linejoin: miter"/>
   </g>
   <g id="patch_12">
    <path d="M 55.3275 326.20176
L 468.2475 326.20176
Q 476.6175 326.20176 476.6175 321.5448
L 476.6175 305.24544
Q 476.6175 300.58848 468.2475 300.58848
L 55.3275 300.58848
Q 46.9575 300.58848 46.9575 305.24544
L 46.9575 321.5448
Q 46.9575 326.20176 55.3275 326.20176
z
" clip-path="url(#pf5f1a43235)" style="fill: #fff4c2; opacity: 0.92; stroke: #736422; stroke-width: 0.9; stroke-linejoin: miter"/>
   </g>
   <g id="patch_13">
    <path d="M 524.745 304.85736
L 665.64 304.85736
Q 683.775 304.85736 683.775 294.76728
L 683.775 121.29552
Q 683.775 111.20544 665.64 111.20544
L 524.745 111.20544
Q 506.61 111.20544 506.61 121.29552
L 506.61 294.76728
Q 506.61 304.85736 524.745 304.85736
z
" clip-path="url(#pf5f1a43235)" style="fill: #f7fbf0; stroke: #386411; stroke-width: 1.25; stroke-linejoin: miter"/>
   </g>
   <g id="text_1">
    <!-- HCP0280 at ACC089 -->
    <g style="fill: #1f2430" transform="translate(58.1175 89.12416) scale(0.128 -0.128)">
     <defs>
      <path id="DejaVuSans-Bold-48" d="M 588 4666
L 1791 4666
L 1791 2888
L 3566 2888
L 3566 4666
L 4769 4666
L 4769 0
L 3566 0
L 3566 1978
L 1791 1978
L 1791 0
L 588 0
L 588 4666
z
" transform="scale(0.015625)"/>
      <path id="DejaVuSans-Bold-43" d="M 4288 256
Q 3956 84 3597 -3
Q 3238 -91 2847 -91
Q 1681 -91 1000 561
Q 319 1213 319 2328
Q 319 3447 1000 4098
Q 1681 4750 2847 4750
Q 3238 4750 3597 4662
Q 3956 4575 4288 4403
L 4288 3438
Q 3953 3666 3628 3772
Q 3303 3878 2944 3878
Q 2300 3878 1931 3465
Q 1563 3053 1563 2328
Q 1563 1606 1931 1193
Q 2300 781 2944 781
Q 3303 781 3628 887
Q 3953 994 4288 1222
L 4288 256
z
" transform="scale(0.015625)"/>
      <path id="DejaVuSans-Bold-50" d="M 588 4666
L 2584 4666
Q 3475 4666 3951 4270
Q 4428 3875 4428 3144
Q 4428 2409 3951 2014
Q 3475 1619 2584 1619
L 1791 1619
L 1791 0
L 588 0
L 588 4666
z
M 1791 3794
L 1791 2491
L 2456 2491
Q 2806 2491 2997 2661
Q 3188 2831 3188 3144
Q 3188 3456 2997 3625
Q 2806 3794 2456 3794
L 1791 3794
z
" transform="scale(0.015625)"/>
      <path id="DejaVuSans-Bold-30" d="M 2944 2338
Q 2944 3213 2780 3570
Q 2616 3928 2228 3928
Q 1841 3928 1675 3570
Q 1509 3213 1509 2338
Q 1509 1453 1675 1090
Q 1841 728 2228 728
Q 2613 728 2778 1090
Q 2944 1453 2944 2338
z
M 4147 2328
Q 4147 1169 3647 539
Q 3147 -91 2228 -91
Q 1306 -91 806 539
Q 306 1169 306 2328
Q 306 3491 806 4120
Q 1306 4750 2228 4750
Q 3147 4750 3647 4120
Q 4147 3491 4147 2328
z
" transform="scale(0.015625)"/>
      <path id="DejaVuSans-Bold-32" d="M 1844 884
L 3897 884
L 3897 0
L 506 0
L 506 884
L 2209 2388
Q 2438 2594 2547 2791
Q 2656 2988 2656 3200
Q 2656 3528 2436 3728
Q 2216 3928 1850 3928
Q 1569 3928 1234 3808
Q 900 3688 519 3450
L 519 4475
Q 925 4609 1322 4679
Q 1719 4750 2100 4750
Q 2938 4750 3402 4381
Q 3866 4013 3866 3353
Q 3866 2972 3669 2642
Q 3472 2313 2841 1759
L 1844 884
z
" transform="scale(0.015625)"/>
      <path id="DejaVuSans-Bold-38" d="M 2228 2088
Q 1891 2088 1709 1903
Q 1528 1719 1528 1375
Q 1528 1031 1709 848
Q 1891 666 2228 666
Q 2563 666 2741 848
Q 2919 1031 2919 1375
Q 2919 1722 2741 1905
Q 2563 2088 2228 2088
z
M 1350 2484
Q 925 2613 709 2878
Q 494 3144 494 3541
Q 494 4131 934 4440
Q 1375 4750 2228 4750
Q 3075 4750 3515 4442
Q 3956 4134 3956 3541
Q 3956 3144 3739 2878
Q 3522 2613 3097 2484
Q 3572 2353 3814 2058
Q 4056 1763 4056 1313
Q 4056 619 3595 264
Q 3134 -91 2228 -91
Q 1319 -91 855 264
Q 391 619 391 1313
Q 391 1763 633 2058
Q 875 2353 1350 2484
z
M 1631 3419
Q 1631 3141 1786 2991
Q 1941 2841 2228 2841
Q 2509 2841 2662 2991
Q 2816 3141 2816 3419
Q 2816 3697 2662 3845
Q 2509 3994 2228 3994
Q 1941 3994 1786 3844
Q 1631 3694 1631 3419
z
" transform="scale(0.015625)"/>
      <path id="DejaVuSans-Bold-20" transform="scale(0.015625)"/>
      <path id="DejaVuSans-Bold-61" d="M 2106 1575
Q 1756 1575 1579 1456
Q 1403 1338 1403 1106
Q 1403 894 1545 773
Q 1688 653 1941 653
Q 2256 653 2472 879
Q 2688 1106 2688 1447
L 2688 1575
L 2106 1575
z
M 3816 1997
L 3816 0
L 2688 0
L 2688 519
Q 2463 200 2181 54
Q 1900 -91 1497 -91
Q 953 -91 614 226
Q 275 544 275 1050
Q 275 1666 698 1953
Q 1122 2241 2028 2241
L 2688 2241
L 2688 2328
Q 2688 2594 2478 2717
Q 2269 2841 1825 2841
Q 1466 2841 1156 2769
Q 847 2697 581 2553
L 581 3406
Q 941 3494 1303 3539
Q 1666 3584 2028 3584
Q 2975 3584 3395 3211
Q 3816 2838 3816 1997
z
" transform="scale(0.015625)"/>
      <path id="DejaVuSans-Bold-74" d="M 1759 4494
L 1759 3500
L 2913 3500
L 2913 2700
L 1759 2700
L 1759 1216
Q 1759 972 1856 886
Q 1953 800 2241 800
L 2816 800
L 2816 0
L 1856 0
Q 1194 0 917 276
Q 641 553 641 1216
L 641 2700
L 84 2700
L 84 3500
L 641 3500
L 641 4494
L 1759 4494
z
" transform="scale(0.015625)"/>
      <path id="DejaVuSans-Bold-41" d="M 3419 850
L 1538 850
L 1241 0
L 31 0
L 1759 4666
L 3194 4666
L 4922 0
L 3713 0
L 3419 850
z
M 1838 1716
L 3116 1716
L 2478 3572
L 1838 1716
z
" transform="scale(0.015625)"/>
      <path id="DejaVuSans-Bold-39" d="M 641 103
L 641 966
Q 928 831 1190 764
Q 1453 697 1709 697
Q 2247 697 2547 995
Q 2847 1294 2900 1881
Q 2688 1725 2447 1647
Q 2206 1569 1925 1569
Q 1209 1569 770 1986
Q 331 2403 331 3084
Q 331 3838 820 4291
Q 1309 4744 2131 4744
Q 3044 4744 3544 4128
Q 4044 3513 4044 2388
Q 4044 1231 3459 570
Q 2875 -91 1856 -91
Q 1528 -91 1228 -42
Q 928 6 641 103
z
M 2125 2350
Q 2441 2350 2600 2554
Q 2759 2759 2759 3169
Q 2759 3575 2600 3781
Q 2441 3988 2125 3988
Q 1809 3988 1650 3781
Q 1491 3575 1491 3169
Q 1491 2759 1650 2554
Q 1809 2350 2125 2350
z
" transform="scale(0.015625)"/>
     </defs>
     <use xlink:href="#DejaVuSans-Bold-48"/>
     <use xlink:href="#DejaVuSans-Bold-43" transform="translate(83.691406 0)"/>
     <use xlink:href="#DejaVuSans-Bold-50" transform="translate(157.080078 0)"/>
     <use xlink:href="#DejaVuSans-Bold-30" transform="translate(230.371094 0)"/>
     <use xlink:href="#DejaVuSans-Bold-32" transform="translate(299.951172 0)"/>
     <use xlink:href="#DejaVuSans-Bold-38" transform="translate(369.53125 0)"/>
     <use xlink:href="#DejaVuSans-Bold-30" transform="translate(439.111328 0)"/>
     <use xlink:href="#DejaVuSans-Bold-20" transform="translate(508.691406 0)"/>
     <use xlink:href="#DejaVuSans-Bold-61" transform="translate(543.505859 0)"/>
     <use xlink:href="#DejaVuSans-Bold-74" transform="translate(610.986328 0)"/>
     <use xlink:href="#DejaVuSans-Bold-20" transform="translate(658.789062 0)"/>
     <use xlink:href="#DejaVuSans-Bold-41" transform="translate(693.603516 0)"/>
     <use xlink:href="#DejaVuSans-Bold-43" transform="translate(770.996094 0)"/>
     <use xlink:href="#DejaVuSans-Bold-43" transform="translate(844.384766 0)"/>
     <use xlink:href="#DejaVuSans-Bold-30" transform="translate(917.773438 0)"/>
     <use xlink:href="#DejaVuSans-Bold-38" transform="translate(987.353516 0)"/>
     <use xlink:href="#DejaVuSans-Bold-39" transform="translate(1056.933594 0)"/>
    </g>
   </g>
   <g id="text_2">
    <!-- Precedence -->
    <g style="fill: #6f768a" transform="translate(63 128.880952) scale(0.078 -0.078)">
     <defs>
      <path id="DejaVuSans-50" d="M 1259 4147
L 1259 2394
L 2053 2394
Q 2494 2394 2734 2622
Q 2975 2850 2975 3272
Q 2975 3691 2734 3919
Q 2494 4147 2053 4147
L 1259 4147
z
M 628 4666
L 2053 4666
Q 2838 4666 3239 4311
Q 3641 3956 3641 3272
Q 3641 2581 3239 2228
Q 2838 1875 2053 1875
L 1259 1875
L 1259 0
L 628 0
L 628 4666
z
" transform="scale(0.015625)"/>
      <path id="DejaVuSans-72" d="M 2631 2963
Q 2534 3019 2420 3045
Q 2306 3072 2169 3072
Q 1681 3072 1420 2755
Q 1159 2438 1159 1844
L 1159 0
L 581 0
L 581 3500
L 1159 3500
L 1159 2956
Q 1341 3275 1631 3429
Q 1922 3584 2338 3584
Q 2397 3584 2469 3576
Q 2541 3569 2628 3553
L 2631 2963
z
" transform="scale(0.015625)"/>
      <path id="DejaVuSans-65" d="M 3597 1894
L 3597 1613
L 953 1613
Q 991 1019 1311 708
Q 1631 397 2203 397
Q 2534 397 2845 478
Q 3156 559 3463 722
L 3463 178
Q 3153 47 2828 -22
Q 2503 -91 2169 -91
Q 1331 -91 842 396
Q 353 884 353 1716
Q 353 2575 817 3079
Q 1281 3584 2069 3584
Q 2775 3584 3186 3129
Q 3597 2675 3597 1894
z
M 3022 2063
Q 3016 2534 2758 2815
Q 2500 3097 2075 3097
Q 1594 3097 1305 2825
Q 1016 2553 972 2059
L 3022 2063
z
" transform="scale(0.015625)"/>
      <path id="DejaVuSans-63" d="M 3122 3366
L 3122 2828
Q 2878 2963 2633 3030
Q 2388 3097 2138 3097
Q 1578 3097 1268 2742
Q 959 2388 959 1747
Q 959 1106 1268 751
Q 1578 397 2138 397
Q 2388 397 2633 464
Q 2878 531 3122 666
L 3122 134
Q 2881 22 2623 -34
Q 2366 -91 2075 -91
Q 1284 -91 818 406
Q 353 903 353 1747
Q 353 2603 823 3093
Q 1294 3584 2113 3584
Q 2378 3584 2631 3529
Q 2884 3475 3122 3366
z
" transform="scale(0.015625)"/>
      <path id="DejaVuSans-64" d="M 2906 2969
L 2906 4863
L 3481 4863
L 3481 0
L 2906 0
L 2906 525
Q 2725 213 2448 61
Q 2172 -91 1784 -91
Q 1150 -91 751 415
Q 353 922 353 1747
Q 353 2572 751 3078
Q 1150 3584 1784 3584
Q 2172 3584 2448 3432
Q 2725 3281 2906 2969
z
M 947 1747
Q 947 1113 1208 752
Q 1469 391 1925 391
Q 2381 391 2643 752
Q 2906 1113 2906 1747
Q 2906 2381 2643 2742
Q 2381 3103 1925 3103
Q 1469 3103 1208 2742
Q 947 2381 947 1747
z
" transform="scale(0.015625)"/>
      <path id="DejaVuSans-6e" d="M 3513 2113
L 3513 0
L 2938 0
L 2938 2094
Q 2938 2591 2744 2837
Q 2550 3084 2163 3084
Q 1697 3084 1428 2787
Q 1159 2491 1159 1978
L 1159 0
L 581 0
L 581 3500
L 1159 3500
L 1159 2956
Q 1366 3272 1645 3428
Q 1925 3584 2291 3584
Q 2894 3584 3203 3211
Q 3513 2838 3513 2113
z
" transform="scale(0.015625)"/>
     </defs>
     <use xlink:href="#DejaVuSans-50"/>
     <use xlink:href="#DejaVuSans-72" transform="translate(58.552734 0)"/>
     <use xlink:href="#DejaVuSans-65" transform="translate(97.416016 0)"/>
     <use xlink:href="#DejaVuSans-63" transform="translate(158.939453 0)"/>
     <use xlink:href="#DejaVuSans-65" transform="translate(213.919922 0)"/>
     <use xlink:href="#DejaVuSans-64" transform="translate(275.443359 0)"/>
     <use xlink:href="#DejaVuSans-65" transform="translate(338.919922 0)"/>
     <use xlink:href="#DejaVuSans-6e" transform="translate(400.443359 0)"/>
     <use xlink:href="#DejaVuSans-63" transform="translate(463.822266 0)"/>
     <use xlink:href="#DejaVuSans-65" transform="translate(518.802734 0)"/>
    </g>
   </g>
   <g id="text_3">
    <!-- Candidate action -->
    <g style="fill: #6f768a" transform="translate(146.7 128.880952) scale(0.078 -0.078)">
     <defs>
      <path id="DejaVuSans-43" d="M 4122 4306
L 4122 3641
Q 3803 3938 3442 4084
Q 3081 4231 2675 4231
Q 1875 4231 1450 3742
Q 1025 3253 1025 2328
Q 1025 1406 1450 917
Q 1875 428 2675 428
Q 3081 428 3442 575
Q 3803 722 4122 1019
L 4122 359
Q 3791 134 3420 21
Q 3050 -91 2638 -91
Q 1578 -91 968 557
Q 359 1206 359 2328
Q 359 3453 968 4101
Q 1578 4750 2638 4750
Q 3056 4750 3426 4639
Q 3797 4528 4122 4306
z
" transform="scale(0.015625)"/>
      <path id="DejaVuSans-61" d="M 2194 1759
Q 1497 1759 1228 1600
Q 959 1441 959 1056
Q 959 750 1161 570
Q 1363 391 1709 391
Q 2188 391 2477 730
Q 2766 1069 2766 1631
L 2766 1759
L 2194 1759
z
M 3341 1997
L 3341 0
L 2766 0
L 2766 531
Q 2569 213 2275 61
Q 1981 -91 1556 -91
Q 1019 -91 701 211
Q 384 513 384 1019
Q 384 1609 779 1909
Q 1175 2209 1959 2209
L 2766 2209
L 2766 2266
Q 2766 2663 2505 2880
Q 2244 3097 1772 3097
Q 1472 3097 1187 3025
Q 903 2953 641 2809
L 641 3341
Q 956 3463 1253 3523
Q 1550 3584 1831 3584
Q 2591 3584 2966 3190
Q 3341 2797 3341 1997
z
" transform="scale(0.015625)"/>
      <path id="DejaVuSans-69" d="M 603 3500
L 1178 3500
L 1178 0
L 603 0
L 603 3500
z
M 603 4863
L 1178 4863
L 1178 4134
L 603 4134
L 603 4863
z
" transform="scale(0.015625)"/>
      <path id="DejaVuSans-74" d="M 1172 4494
L 1172 3500
L 2356 3500
L 2356 3053
L 1172 3053
L 1172 1153
Q 1172 725 1289 603
Q 1406 481 1766 481
L 2356 481
L 2356 0
L 1766 0
Q 1100 0 847 248
Q 594 497 594 1153
L 594 3053
L 172 3053
L 172 3500
L 594 3500
L 594 4494
L 1172 4494
z
" transform="scale(0.015625)"/>
      <path id="DejaVuSans-20" transform="scale(0.015625)"/>
      <path id="DejaVuSans-6f" d="M 1959 3097
Q 1497 3097 1228 2736
Q 959 2375 959 1747
Q 959 1119 1226 758
Q 1494 397 1959 397
Q 2419 397 2687 759
Q 2956 1122 2956 1747
Q 2956 2369 2687 2733
Q 2419 3097 1959 3097
z
M 1959 3584
Q 2709 3584 3137 3096
Q 3566 2609 3566 1747
Q 3566 888 3137 398
Q 2709 -91 1959 -91
Q 1206 -91 779 398
Q 353 888 353 1747
Q 353 2609 779 3096
Q 1206 3584 1959 3584
z
" transform="scale(0.015625)"/>
     </defs>
     <use xlink:href="#DejaVuSans-43"/>
     <use xlink:href="#DejaVuSans-61" transform="translate(69.824219 0)"/>
     <use xlink:href="#DejaVuSans-6e" transform="translate(131.103516 0)"/>
     <use xlink:href="#DejaVuSans-64" transform="translate(194.482422 0)"/>
     <use xlink:href="#DejaVuSans-69" transform="translate(257.958984 0)"/>
     <use xlink:href="#DejaVuSans-64" transform="translate(285.742188 0)"/>
     <use xlink:href="#DejaVuSans-61" transform="translate(349.21875 0)"/>
     <use xlink:href="#DejaVuSans-74" transform="translate(410.498047 0)"/>
     <use xlink:href="#DejaVuSans-65" transform="translate(449.707031 0)"/>
     <use xlink:href="#DejaVuSans-20" transform="translate(511.230469 0)"/>
     <use xlink:href="#DejaVuSans-61" transform="translate(543.017578 0)"/>
     <use xlink:href="#DejaVuSans-63" transform="translate(604.296875 0)"/>
     <use xlink:href="#DejaVuSans-74" transform="translate(659.277344 0)"/>
     <use xlink:href="#DejaVuSans-69" transform="translate(698.486328 0)"/>
     <use xlink:href="#DejaVuSans-6f" transform="translate(726.269531 0)"/>
     <use xlink:href="#DejaVuSans-6e" transform="translate(787.451172 0)"/>
    </g>
   </g>
   <g id="text_4">
    <!-- Gate status -->
    <g style="fill: #6f768a" transform="translate(335.025 128.880952) scale(0.078 -0.078)">
     <defs>
      <path id="DejaVuSans-47" d="M 3809 666
L 3809 1919
L 2778 1919
L 2778 2438
L 4434 2438
L 4434 434
Q 4069 175 3628 42
Q 3188 -91 2688 -91
Q 1594 -91 976 548
Q 359 1188 359 2328
Q 359 3472 976 4111
Q 1594 4750 2688 4750
Q 3144 4750 3555 4637
Q 3966 4525 4313 4306
L 4313 3634
Q 3963 3931 3569 4081
Q 3175 4231 2741 4231
Q 1884 4231 1454 3753
Q 1025 3275 1025 2328
Q 1025 1384 1454 906
Q 1884 428 2741 428
Q 3075 428 3337 486
Q 3600 544 3809 666
z
" transform="scale(0.015625)"/>
      <path id="DejaVuSans-73" d="M 2834 3397
L 2834 2853
Q 2591 2978 2328 3040
Q 2066 3103 1784 3103
Q 1356 3103 1142 2972
Q 928 2841 928 2578
Q 928 2378 1081 2264
Q 1234 2150 1697 2047
L 1894 2003
Q 2506 1872 2764 1633
Q 3022 1394 3022 966
Q 3022 478 2636 193
Q 2250 -91 1575 -91
Q 1294 -91 989 -36
Q 684 19 347 128
L 347 722
Q 666 556 975 473
Q 1284 391 1588 391
Q 1994 391 2212 530
Q 2431 669 2431 922
Q 2431 1156 2273 1281
Q 2116 1406 1581 1522
L 1381 1569
Q 847 1681 609 1914
Q 372 2147 372 2553
Q 372 3047 722 3315
Q 1072 3584 1716 3584
Q 2034 3584 2315 3537
Q 2597 3491 2834 3397
z
" transform="scale(0.015625)"/>
      <path id="DejaVuSans-75" d="M 544 1381
L 544 3500
L 1119 3500
L 1119 1403
Q 1119 906 1312 657
Q 1506 409 1894 409
Q 2359 409 2629 706
Q 2900 1003 2900 1516
L 2900 3500
L 3475 3500
L 3475 0
L 2900 0
L 2900 538
Q 2691 219 2414 64
Q 2138 -91 1772 -91
Q 1169 -91 856 284
Q 544 659 544 1381
z
M 1991 3584
L 1991 3584
z
" transform="scale(0.015625)"/>
     </defs>
     <use xlink:href="#DejaVuSans-47"/>
     <use xlink:href="#DejaVuSans-61" transform="translate(77.490234 0)"/>
     <use xlink:href="#DejaVuSans-74" transform="translate(138.769531 0)"/>
     <use xlink:href="#DejaVuSans-65" transform="translate(177.978516 0)"/>
     <use xlink:href="#DejaVuSans-20" transform="translate(239.501953 0)"/>
     <use xlink:href="#DejaVuSans-73" transform="translate(271.289062 0)"/>
     <use xlink:href="#DejaVuSans-74" transform="translate(323.388672 0)"/>
     <use xlink:href="#DejaVuSans-61" transform="translate(362.597656 0)"/>
     <use xlink:href="#DejaVuSans-74" transform="translate(423.876953 0)"/>
     <use xlink:href="#DejaVuSans-75" transform="translate(463.085938 0)"/>
     <use xlink:href="#DejaVuSans-73" transform="translate(526.464844 0)"/>
    </g>
   </g>
   <g id="patch_14">
    <path d="M 55.3275 267.98976
L 53.9325 267.98976
Q 58.1175 267.98976 58.1175 265.66128
L 58.1175 249.36192
Q 58.1175 247.03344 53.9325 247.03344
L 55.3275 247.03344
Q 51.1425 247.03344 51.1425 249.36192
L 51.1425 265.66128
Q 51.1425 267.98976 55.3275 267.98976
z
" clip-path="url(#pf5f1a43235)" style="fill: #386411"/>
   </g>
   <g id="text_5">
    <!-- Released recommendation -->
    <g style="fill: #386411" transform="translate(534.51 156.8779) scale(0.08 -0.08)">
     <defs>
      <path id="DejaVuSans-Bold-52" d="M 2297 2597
Q 2675 2597 2839 2737
Q 3003 2878 3003 3200
Q 3003 3519 2839 3656
Q 2675 3794 2297 3794
L 1791 3794
L 1791 2597
L 2297 2597
z
M 1791 1766
L 1791 0
L 588 0
L 588 4666
L 2425 4666
Q 3347 4666 3776 4356
Q 4206 4047 4206 3378
Q 4206 2916 3982 2619
Q 3759 2322 3309 2181
Q 3556 2125 3751 1926
Q 3947 1728 4147 1325
L 4800 0
L 3519 0
L 2950 1159
Q 2778 1509 2601 1637
Q 2425 1766 2131 1766
L 1791 1766
z
" transform="scale(0.015625)"/>
      <path id="DejaVuSans-Bold-65" d="M 4031 1759
L 4031 1441
L 1416 1441
Q 1456 1047 1700 850
Q 1944 653 2381 653
Q 2734 653 3104 758
Q 3475 863 3866 1075
L 3866 213
Q 3469 63 3072 -14
Q 2675 -91 2278 -91
Q 1328 -91 801 392
Q 275 875 275 1747
Q 275 2603 792 3093
Q 1309 3584 2216 3584
Q 3041 3584 3536 3087
Q 4031 2591 4031 1759
z
M 2881 2131
Q 2881 2450 2695 2645
Q 2509 2841 2209 2841
Q 1884 2841 1681 2658
Q 1478 2475 1428 2131
L 2881 2131
z
" transform="scale(0.015625)"/>
      <path id="DejaVuSans-Bold-6c" d="M 538 4863
L 1656 4863
L 1656 0
L 538 0
L 538 4863
z
" transform="scale(0.015625)"/>
      <path id="DejaVuSans-Bold-73" d="M 3272 3391
L 3272 2541
Q 2913 2691 2578 2766
Q 2244 2841 1947 2841
Q 1628 2841 1473 2761
Q 1319 2681 1319 2516
Q 1319 2381 1436 2309
Q 1553 2238 1856 2203
L 2053 2175
Q 2913 2066 3209 1816
Q 3506 1566 3506 1031
Q 3506 472 3093 190
Q 2681 -91 1863 -91
Q 1516 -91 1145 -36
Q 775 19 384 128
L 384 978
Q 719 816 1070 734
Q 1422 653 1784 653
Q 2113 653 2278 743
Q 2444 834 2444 1013
Q 2444 1163 2330 1236
Q 2216 1309 1875 1350
L 1678 1375
Q 931 1469 631 1722
Q 331 1975 331 2491
Q 331 3047 712 3315
Q 1094 3584 1881 3584
Q 2191 3584 2531 3537
Q 2872 3491 3272 3391
z
" transform="scale(0.015625)"/>
      <path id="DejaVuSans-Bold-64" d="M 2919 2988
L 2919 4863
L 4044 4863
L 4044 0
L 2919 0
L 2919 506
Q 2688 197 2409 53
Q 2131 -91 1766 -91
Q 1119 -91 703 423
Q 288 938 288 1747
Q 288 2556 703 3070
Q 1119 3584 1766 3584
Q 2128 3584 2408 3439
Q 2688 3294 2919 2988
z
M 2181 722
Q 2541 722 2730 984
Q 2919 1247 2919 1747
Q 2919 2247 2730 2509
Q 2541 2772 2181 2772
Q 1825 2772 1636 2509
Q 1447 2247 1447 1747
Q 1447 1247 1636 984
Q 1825 722 2181 722
z
" transform="scale(0.015625)"/>
      <path id="DejaVuSans-Bold-72" d="M 3138 2547
Q 2991 2616 2845 2648
Q 2700 2681 2553 2681
Q 2122 2681 1889 2404
Q 1656 2128 1656 1613
L 1656 0
L 538 0
L 538 3500
L 1656 3500
L 1656 2925
Q 1872 3269 2151 3426
Q 2431 3584 2822 3584
Q 2878 3584 2943 3579
Q 3009 3575 3134 3559
L 3138 2547
z
" transform="scale(0.015625)"/>
      <path id="DejaVuSans-Bold-63" d="M 3366 3391
L 3366 2478
Q 3138 2634 2908 2709
Q 2678 2784 2431 2784
Q 1963 2784 1702 2511
Q 1441 2238 1441 1747
Q 1441 1256 1702 982
Q 1963 709 2431 709
Q 2694 709 2930 787
Q 3166 866 3366 1019
L 3366 103
Q 3103 6 2833 -42
Q 2563 -91 2291 -91
Q 1344 -91 809 395
Q 275 881 275 1747
Q 275 2613 809 3098
Q 1344 3584 2291 3584
Q 2566 3584 2833 3536
Q 3100 3488 3366 3391
z
" transform="scale(0.015625)"/>
      <path id="DejaVuSans-Bold-6f" d="M 2203 2784
Q 1831 2784 1636 2517
Q 1441 2250 1441 1747
Q 1441 1244 1636 976
Q 1831 709 2203 709
Q 2569 709 2762 976
Q 2956 1244 2956 1747
Q 2956 2250 2762 2517
Q 2569 2784 2203 2784
z
M 2203 3584
Q 3106 3584 3614 3096
Q 4122 2609 4122 1747
Q 4122 884 3614 396
Q 3106 -91 2203 -91
Q 1297 -91 786 396
Q 275 884 275 1747
Q 275 2609 786 3096
Q 1297 3584 2203 3584
z
" transform="scale(0.015625)"/>
      <path id="DejaVuSans-Bold-6d" d="M 3781 2919
Q 3994 3244 4286 3414
Q 4578 3584 4928 3584
Q 5531 3584 5847 3212
Q 6163 2841 6163 2131
L 6163 0
L 5038 0
L 5038 1825
Q 5041 1866 5042 1909
Q 5044 1953 5044 2034
Q 5044 2406 4934 2573
Q 4825 2741 4581 2741
Q 4263 2741 4089 2478
Q 3916 2216 3909 1719
L 3909 0
L 2784 0
L 2784 1825
Q 2784 2406 2684 2573
Q 2584 2741 2328 2741
Q 2006 2741 1831 2477
Q 1656 2213 1656 1722
L 1656 0
L 531 0
L 531 3500
L 1656 3500
L 1656 2988
Q 1863 3284 2130 3434
Q 2397 3584 2719 3584
Q 3081 3584 3359 3409
Q 3638 3234 3781 2919
z
" transform="scale(0.015625)"/>
      <path id="DejaVuSans-Bold-6e" d="M 4056 2131
L 4056 0
L 2931 0
L 2931 347
L 2931 1631
Q 2931 2084 2911 2256
Q 2891 2428 2841 2509
Q 2775 2619 2662 2680
Q 2550 2741 2406 2741
Q 2056 2741 1856 2470
Q 1656 2200 1656 1722
L 1656 0
L 538 0
L 538 3500
L 1656 3500
L 1656 2988
Q 1909 3294 2193 3439
Q 2478 3584 2822 3584
Q 3428 3584 3742 3212
Q 4056 2841 4056 2131
z
" transform="scale(0.015625)"/>
      <path id="DejaVuSans-Bold-69" d="M 538 3500
L 1656 3500
L 1656 0
L 538 0
L 538 3500
z
M 538 4863
L 1656 4863
L 1656 3950
L 538 3950
L 538 4863
z
" transform="scale(0.015625)"/>
     </defs>
     <use xlink:href="#DejaVuSans-Bold-52"/>
     <use xlink:href="#DejaVuSans-Bold-65" transform="translate(77.001953 0)"/>
     <use xlink:href="#DejaVuSans-Bold-6c" transform="translate(144.824219 0)"/>
     <use xlink:href="#DejaVuSans-Bold-65" transform="translate(179.101562 0)"/>
     <use xlink:href="#DejaVuSans-Bold-61" transform="translate(246.923828 0)"/>
     <use xlink:href="#DejaVuSans-Bold-73" transform="translate(314.404297 0)"/>
     <use xlink:href="#DejaVuSans-Bold-65" transform="translate(373.925781 0)"/>
     <use xlink:href="#DejaVuSans-Bold-64" transform="translate(441.748047 0)"/>
     <use xlink:href="#DejaVuSans-Bold-20" transform="translate(513.330078 0)"/>
     <use xlink:href="#DejaVuSans-Bold-72" transform="translate(548.144531 0)"/>
     <use xlink:href="#DejaVuSans-Bold-65" transform="translate(597.460938 0)"/>
     <use xlink:href="#DejaVuSans-Bold-63" transform="translate(665.283203 0)"/>
     <use xlink:href="#DejaVuSans-Bold-6f" transform="translate(724.560547 0)"/>
     <use xlink:href="#DejaVuSans-Bold-6d" transform="translate(793.261719 0)"/>
     <use xlink:href="#DejaVuSans-Bold-6d" transform="translate(897.460938 0)"/>
     <use xlink:href="#DejaVuSans-Bold-65" transform="translate(1001.660156 0)"/>
     <use xlink:href="#DejaVuSans-Bold-6e" transform="translate(1069.482422 0)"/>
     <use xlink:href="#DejaVuSans-Bold-64" transform="translate(1140.673828 0)"/>
     <use xlink:href="#DejaVuSans-Bold-61" transform="translate(1212.255859 0)"/>
     <use xlink:href="#DejaVuSans-Bold-74" transform="translate(1279.736328 0)"/>
     <use xlink:href="#DejaVuSans-Bold-69" transform="translate(1327.539062 0)"/>
     <use xlink:href="#DejaVuSans-Bold-6f" transform="translate(1361.816406 0)"/>
     <use xlink:href="#DejaVuSans-Bold-6e" transform="translate(1430.517578 0)"/>
    </g>
   </g>
   <g id="text_6">
    <!-- Approved email -->
    <g style="fill: #1f2430" transform="translate(534.51 180.153862) scale(0.15 -0.15)">
     <defs>
      <path id="DejaVuSans-Bold-70" d="M 1656 506
L 1656 -1331
L 538 -1331
L 538 3500
L 1656 3500
L 1656 2988
Q 1888 3294 2169 3439
Q 2450 3584 2816 3584
Q 3463 3584 3878 3070
Q 4294 2556 4294 1747
Q 4294 938 3878 423
Q 3463 -91 2816 -91
Q 2450 -91 2169 54
Q 1888 200 1656 506
z
M 2400 2772
Q 2041 2772 1848 2508
Q 1656 2244 1656 1747
Q 1656 1250 1848 986
Q 2041 722 2400 722
Q 2759 722 2948 984
Q 3138 1247 3138 1747
Q 3138 2247 2948 2509
Q 2759 2772 2400 2772
z
" transform="scale(0.015625)"/>
      <path id="DejaVuSans-Bold-76" d="M 97 3500
L 1216 3500
L 2088 1081
L 2956 3500
L 4078 3500
L 2700 0
L 1472 0
L 97 3500
z
" transform="scale(0.015625)"/>
     </defs>
     <use xlink:href="#DejaVuSans-Bold-41"/>
     <use xlink:href="#DejaVuSans-Bold-70" transform="translate(77.392578 0)"/>
     <use xlink:href="#DejaVuSans-Bold-70" transform="translate(148.974609 0)"/>
     <use xlink:href="#DejaVuSans-Bold-72" transform="translate(220.556641 0)"/>
     <use xlink:href="#DejaVuSans-Bold-6f" transform="translate(269.873047 0)"/>
     <use xlink:href="#DejaVuSans-Bold-76" transform="translate(338.574219 0)"/>
     <use xlink:href="#DejaVuSans-Bold-65" transform="translate(403.759766 0)"/>
     <use xlink:href="#DejaVuSans-Bold-64" transform="translate(471.582031 0)"/>
     <use xlink:href="#DejaVuSans-Bold-20" transform="translate(543.164062 0)"/>
     <use xlink:href="#DejaVuSans-Bold-65" transform="translate(577.978516 0)"/>
     <use xlink:href="#DejaVuSans-Bold-6d" transform="translate(645.800781 0)"/>
     <use xlink:href="#DejaVuSans-Bold-61" transform="translate(750 0)"/>
     <use xlink:href="#DejaVuSans-Bold-69" transform="translate(817.480469 0)"/>
     <use xlink:href="#DejaVuSans-Bold-6c" transform="translate(851.757812 0)"/>
    </g>
   </g>
   <g id="text_7">
    <!-- ID -->
    <g style="fill: #6f768a" transform="translate(534.51 211.098725) scale(0.076 -0.076)">
     <defs>
      <path id="DejaVuSans-49" d="M 628 4666
L 1259 4666
L 1259 0
L 628 0
L 628 4666
z
" transform="scale(0.015625)"/>
      <path id="DejaVuSans-44" d="M 1259 4147
L 1259 519
L 2022 519
Q 2988 519 3436 956
Q 3884 1394 3884 2338
Q 3884 3275 3436 3711
Q 2988 4147 2022 4147
L 1259 4147
z
M 628 4666
L 1925 4666
Q 3281 4666 3915 4102
Q 4550 3538 4550 2338
Q 4550 1131 3912 565
Q 3275 0 1925 0
L 628 0
L 628 4666
z
" transform="scale(0.015625)"/>
     </defs>
     <use xlink:href="#DejaVuSans-49"/>
     <use xlink:href="#DejaVuSans-44" transform="translate(29.492188 0)"/>
    </g>
   </g>
   <g id="text_8">
    <!-- NBA00131 -->
    <g style="fill: #1f2430" transform="translate(581.94 211.402256) scale(0.087 -0.087)">
     <defs>
      <path id="DejaVuSans-4e" d="M 628 4666
L 1478 4666
L 3547 763
L 3547 4666
L 4159 4666
L 4159 0
L 3309 0
L 1241 3903
L 1241 0
L 628 0
L 628 4666
z
" transform="scale(0.015625)"/>
      <path id="DejaVuSans-42" d="M 1259 2228
L 1259 519
L 2272 519
Q 2781 519 3026 730
Q 3272 941 3272 1375
Q 3272 1813 3026 2020
Q 2781 2228 2272 2228
L 1259 2228
z
M 1259 4147
L 1259 2741
L 2194 2741
Q 2656 2741 2882 2914
Q 3109 3088 3109 3444
Q 3109 3797 2882 3972
Q 2656 4147 2194 4147
L 1259 4147
z
M 628 4666
L 2241 4666
Q 2963 4666 3353 4366
Q 3744 4066 3744 3513
Q 3744 3084 3544 2831
Q 3344 2578 2956 2516
Q 3422 2416 3680 2098
Q 3938 1781 3938 1306
Q 3938 681 3513 340
Q 3088 0 2303 0
L 628 0
L 628 4666
z
" transform="scale(0.015625)"/>
      <path id="DejaVuSans-41" d="M 2188 4044
L 1331 1722
L 3047 1722
L 2188 4044
z
M 1831 4666
L 2547 4666
L 4325 0
L 3669 0
L 3244 1197
L 1141 1197
L 716 0
L 50 0
L 1831 4666
z
" transform="scale(0.015625)"/>
      <path id="DejaVuSans-30" d="M 2034 4250
Q 1547 4250 1301 3770
Q 1056 3291 1056 2328
Q 1056 1369 1301 889
Q 1547 409 2034 409
Q 2525 409 2770 889
Q 3016 1369 3016 2328
Q 3016 3291 2770 3770
Q 2525 4250 2034 4250
z
M 2034 4750
Q 2819 4750 3233 4129
Q 3647 3509 3647 2328
Q 3647 1150 3233 529
Q 2819 -91 2034 -91
Q 1250 -91 836 529
Q 422 1150 422 2328
Q 422 3509 836 4129
Q 1250 4750 2034 4750
z
" transform="scale(0.015625)"/>
      <path id="DejaVuSans-31" d="M 794 531
L 1825 531
L 1825 4091
L 703 3866
L 703 4441
L 1819 4666
L 2450 4666
L 2450 531
L 3481 531
L 3481 0
L 794 0
L 794 531
z
" transform="scale(0.015625)"/>
      <path id="DejaVuSans-33" d="M 2597 2516
Q 3050 2419 3304 2112
Q 3559 1806 3559 1356
Q 3559 666 3084 287
Q 2609 -91 1734 -91
Q 1441 -91 1130 -33
Q 819 25 488 141
L 488 750
Q 750 597 1062 519
Q 1375 441 1716 441
Q 2309 441 2620 675
Q 2931 909 2931 1356
Q 2931 1769 2642 2001
Q 2353 2234 1838 2234
L 1294 2234
L 1294 2753
L 1863 2753
Q 2328 2753 2575 2939
Q 2822 3125 2822 3475
Q 2822 3834 2567 4026
Q 2313 4219 1838 4219
Q 1578 4219 1281 4162
Q 984 4106 628 3988
L 628 4550
Q 988 4650 1302 4700
Q 1616 4750 1894 4750
Q 2613 4750 3031 4423
Q 3450 4097 3450 3541
Q 3450 3153 3228 2886
Q 3006 2619 2597 2516
z
" transform="scale(0.015625)"/>
     </defs>
     <use xlink:href="#DejaVuSans-4e"/>
     <use xlink:href="#DejaVuSans-42" transform="translate(74.804688 0)"/>
     <use xlink:href="#DejaVuSans-41" transform="translate(143.408203 0)"/>
     <use xlink:href="#DejaVuSans-30" transform="translate(211.816406 0)"/>
     <use xlink:href="#DejaVuSans-30" transform="translate(275.439453 0)"/>
     <use xlink:href="#DejaVuSans-31" transform="translate(339.0625 0)"/>
     <use xlink:href="#DejaVuSans-33" transform="translate(402.685547 0)"/>
     <use xlink:href="#DejaVuSans-31" transform="translate(466.308594 0)"/>
    </g>
   </g>
   <g id="line2d_1">
    <path d="M 534.51 220.644
L 655.875 220.644
" clip-path="url(#pf5f1a43235)" style="fill: none; stroke: #dce8d2; stroke-width: 0.8; stroke-linecap: square"/>
   </g>
   <g id="text_9">
    <!-- Hook -->
    <g style="fill: #6f768a" transform="translate(534.51 237.100085) scale(0.076 -0.076)">
     <defs>
      <path id="DejaVuSans-48" d="M 628 4666
L 1259 4666
L 1259 2753
L 3553 2753
L 3553 4666
L 4184 4666
L 4184 0
L 3553 0
L 3553 2222
L 1259 2222
L 1259 0
L 628 0
L 628 4666
z
" transform="scale(0.015625)"/>
      <path id="DejaVuSans-6b" d="M 581 4863
L 1159 4863
L 1159 1991
L 2875 3500
L 3609 3500
L 1753 1863
L 3688 0
L 2938 0
L 1159 1709
L 1159 0
L 581 0
L 581 4863
z
" transform="scale(0.015625)"/>
     </defs>
     <use xlink:href="#DejaVuSans-48"/>
     <use xlink:href="#DejaVuSans-6f" transform="translate(75.195312 0)"/>
     <use xlink:href="#DejaVuSans-6f" transform="translate(136.376953 0)"/>
     <use xlink:href="#DejaVuSans-6b" transform="translate(197.558594 0)"/>
    </g>
   </g>
   <g id="text_10">
    <!-- Delivery and click -->
    <g style="fill: #1f2430" transform="translate(581.94 237.403616) scale(0.087 -0.087)">
     <defs>
      <path id="DejaVuSans-6c" d="M 603 4863
L 1178 4863
L 1178 0
L 603 0
L 603 4863
z
" transform="scale(0.015625)"/>
      <path id="DejaVuSans-76" d="M 191 3500
L 800 3500
L 1894 563
L 2988 3500
L 3597 3500
L 2284 0
L 1503 0
L 191 3500
z
" transform="scale(0.015625)"/>
      <path id="DejaVuSans-79" d="M 2059 -325
Q 1816 -950 1584 -1140
Q 1353 -1331 966 -1331
L 506 -1331
L 506 -850
L 844 -850
Q 1081 -850 1212 -737
Q 1344 -625 1503 -206
L 1606 56
L 191 3500
L 800 3500
L 1894 763
L 2988 3500
L 3597 3500
L 2059 -325
z
" transform="scale(0.015625)"/>
     </defs>
     <use xlink:href="#DejaVuSans-44"/>
     <use xlink:href="#DejaVuSans-65" transform="translate(77.001953 0)"/>
     <use xlink:href="#DejaVuSans-6c" transform="translate(138.525391 0)"/>
     <use xlink:href="#DejaVuSans-69" transform="translate(166.308594 0)"/>
     <use xlink:href="#DejaVuSans-76" transform="translate(194.091797 0)"/>
     <use xlink:href="#DejaVuSans-65" transform="translate(253.271484 0)"/>
     <use xlink:href="#DejaVuSans-72" transform="translate(314.794922 0)"/>
     <use xlink:href="#DejaVuSans-79" transform="translate(355.908203 0)"/>
     <use xlink:href="#DejaVuSans-20" transform="translate(415.087891 0)"/>
     <use xlink:href="#DejaVuSans-61" transform="translate(446.875 0)"/>
     <use xlink:href="#DejaVuSans-6e" transform="translate(508.154297 0)"/>
     <use xlink:href="#DejaVuSans-64" transform="translate(571.533203 0)"/>
     <use xlink:href="#DejaVuSans-20" transform="translate(635.009766 0)"/>
     <use xlink:href="#DejaVuSans-63" transform="translate(666.796875 0)"/>
     <use xlink:href="#DejaVuSans-6c" transform="translate(721.777344 0)"/>
     <use xlink:href="#DejaVuSans-69" transform="translate(749.560547 0)"/>
     <use xlink:href="#DejaVuSans-63" transform="translate(777.34375 0)"/>
     <use xlink:href="#DejaVuSans-6b" transform="translate(832.324219 0)"/>
    </g>
   </g>
   <g id="line2d_2">
    <path d="M 534.51 246.64536
L 655.875 246.64536
" clip-path="url(#pf5f1a43235)" style="fill: none; stroke: #dce8d2; stroke-width: 0.8; stroke-linecap: square"/>
   </g>
   <g id="text_11">
    <!-- Expires -->
    <g style="fill: #6f768a" transform="translate(534.51 263.101445) scale(0.076 -0.076)">
     <defs>
      <path id="DejaVuSans-45" d="M 628 4666
L 3578 4666
L 3578 4134
L 1259 4134
L 1259 2753
L 3481 2753
L 3481 2222
L 1259 2222
L 1259 531
L 3634 531
L 3634 0
L 628 0
L 628 4666
z
" transform="scale(0.015625)"/>
      <path id="DejaVuSans-78" d="M 3513 3500
L 2247 1797
L 3578 0
L 2900 0
L 1881 1375
L 863 0
L 184 0
L 1544 1831
L 300 3500
L 978 3500
L 1906 2253
L 2834 3500
L 3513 3500
z
" transform="scale(0.015625)"/>
      <path id="DejaVuSans-70" d="M 1159 525
L 1159 -1331
L 581 -1331
L 581 3500
L 1159 3500
L 1159 2969
Q 1341 3281 1617 3432
Q 1894 3584 2278 3584
Q 2916 3584 3314 3078
Q 3713 2572 3713 1747
Q 3713 922 3314 415
Q 2916 -91 2278 -91
Q 1894 -91 1617 61
Q 1341 213 1159 525
z
M 3116 1747
Q 3116 2381 2855 2742
Q 2594 3103 2138 3103
Q 1681 3103 1420 2742
Q 1159 2381 1159 1747
Q 1159 1113 1420 752
Q 1681 391 2138 391
Q 2594 391 2855 752
Q 3116 1113 3116 1747
z
" transform="scale(0.015625)"/>
     </defs>
     <use xlink:href="#DejaVuSans-45"/>
     <use xlink:href="#DejaVuSans-78" transform="translate(63.183594 0)"/>
     <use xlink:href="#DejaVuSans-70" transform="translate(122.363281 0)"/>
     <use xlink:href="#DejaVuSans-69" transform="translate(185.839844 0)"/>
     <use xlink:href="#DejaVuSans-72" transform="translate(213.623047 0)"/>
     <use xlink:href="#DejaVuSans-65" transform="translate(252.486328 0)"/>
     <use xlink:href="#DejaVuSans-73" transform="translate(314.009766 0)"/>
    </g>
   </g>
   <g id="text_12">
    <!-- 2025-03-14 -->
    <g style="fill: #1f2430" transform="translate(581.94 263.404976) scale(0.087 -0.087)">
     <defs>
      <path id="DejaVuSans-32" d="M 1228 531
L 3431 531
L 3431 0
L 469 0
L 469 531
Q 828 903 1448 1529
Q 2069 2156 2228 2338
Q 2531 2678 2651 2914
Q 2772 3150 2772 3378
Q 2772 3750 2511 3984
Q 2250 4219 1831 4219
Q 1534 4219 1204 4116
Q 875 4013 500 3803
L 500 4441
Q 881 4594 1212 4672
Q 1544 4750 1819 4750
Q 2544 4750 2975 4387
Q 3406 4025 3406 3419
Q 3406 3131 3298 2873
Q 3191 2616 2906 2266
Q 2828 2175 2409 1742
Q 1991 1309 1228 531
z
" transform="scale(0.015625)"/>
      <path id="DejaVuSans-35" d="M 691 4666
L 3169 4666
L 3169 4134
L 1269 4134
L 1269 2991
Q 1406 3038 1543 3061
Q 1681 3084 1819 3084
Q 2600 3084 3056 2656
Q 3513 2228 3513 1497
Q 3513 744 3044 326
Q 2575 -91 1722 -91
Q 1428 -91 1123 -41
Q 819 9 494 109
L 494 744
Q 775 591 1075 516
Q 1375 441 1709 441
Q 2250 441 2565 725
Q 2881 1009 2881 1497
Q 2881 1984 2565 2268
Q 2250 2553 1709 2553
Q 1456 2553 1204 2497
Q 953 2441 691 2322
L 691 4666
z
" transform="scale(0.015625)"/>
      <path id="DejaVuSans-2d" d="M 313 2009
L 1997 2009
L 1997 1497
L 313 1497
L 313 2009
z
" transform="scale(0.015625)"/>
      <path id="DejaVuSans-34" d="M 2419 4116
L 825 1625
L 2419 1625
L 2419 4116
z
M 2253 4666
L 3047 4666
L 3047 1625
L 3713 1625
L 3713 1100
L 3047 1100
L 3047 0
L 2419 0
L 2419 1100
L 313 1100
L 313 1709
L 2253 4666
z
" transform="scale(0.015625)"/>
     </defs>
     <use xlink:href="#DejaVuSans-32"/>
     <use xlink:href="#DejaVuSans-30" transform="translate(63.623047 0)"/>
     <use xlink:href="#DejaVuSans-32" transform="translate(127.246094 0)"/>
     <use xlink:href="#DejaVuSans-35" transform="translate(190.869141 0)"/>
     <use xlink:href="#DejaVuSans-2d" transform="translate(254.492188 0)"/>
     <use xlink:href="#DejaVuSans-30" transform="translate(290.576172 0)"/>
     <use xlink:href="#DejaVuSans-33" transform="translate(354.199219 0)"/>
     <use xlink:href="#DejaVuSans-2d" transform="translate(417.822266 0)"/>
     <use xlink:href="#DejaVuSans-31" transform="translate(453.90625 0)"/>
     <use xlink:href="#DejaVuSans-34" transform="translate(517.529297 0)"/>
    </g>
   </g>
   <g id="text_13">
    <!-- 01 -->
    <g style="fill: #1f2430" transform="translate(74.584 148.671265) scale(0.092 -0.092)">
     <use xlink:href="#DejaVuSans-30"/>
     <use xlink:href="#DejaVuSans-31" transform="translate(63.623047 0)"/>
    </g>
   </g>
   <g id="text_14">
    <!-- No action -->
    <g style="fill: #1f2430" transform="translate(146.7 148.671265) scale(0.092 -0.092)">
     <use xlink:href="#DejaVuSans-4e"/>
     <use xlink:href="#DejaVuSans-6f" transform="translate(74.804688 0)"/>
     <use xlink:href="#DejaVuSans-20" transform="translate(135.986328 0)"/>
     <use xlink:href="#DejaVuSans-61" transform="translate(167.773438 0)"/>
     <use xlink:href="#DejaVuSans-63" transform="translate(229.052734 0)"/>
     <use xlink:href="#DejaVuSans-74" transform="translate(284.033203 0)"/>
     <use xlink:href="#DejaVuSans-69" transform="translate(323.242188 0)"/>
     <use xlink:href="#DejaVuSans-6f" transform="translate(351.025391 0)"/>
     <use xlink:href="#DejaVuSans-6e" transform="translate(412.207031 0)"/>
    </g>
   </g>
   <g id="patch_15">
    <path d="M 344.0925 154.28232
L 454.995 154.28232
Q 466.8525 154.28232 466.8525 147.68496
L 466.8525 144.58032
Q 466.8525 137.98296 454.995 137.98296
L 344.0925 137.98296
Q 332.235 137.98296 332.235 144.58032
L 332.235 147.68496
Q 332.235 154.28232 344.0925 154.28232
z
" clip-path="url(#pf5f1a43235)" style="fill: #fff5ec; stroke: #804126; stroke-width: 0.8; stroke-linejoin: miter"/>
   </g>
   <g id="text_15">
    <!-- 10 -->
    <g style="fill: #1f2430" transform="translate(74.584 176.613025) scale(0.092 -0.092)">
     <use xlink:href="#DejaVuSans-31"/>
     <use xlink:href="#DejaVuSans-30" transform="translate(63.623047 0)"/>
    </g>
   </g>
   <g id="text_16">
    <!-- Access follow-up -->
    <g style="fill: #1f2430" transform="translate(146.7 176.613025) scale(0.092 -0.092)">
     <defs>
      <path id="DejaVuSans-66" d="M 2375 4863
L 2375 4384
L 1825 4384
Q 1516 4384 1395 4259
Q 1275 4134 1275 3809
L 1275 3500
L 2222 3500
L 2222 3053
L 1275 3053
L 1275 0
L 697 0
L 697 3053
L 147 3053
L 147 3500
L 697 3500
L 697 3744
Q 697 4328 969 4595
Q 1241 4863 1831 4863
L 2375 4863
z
" transform="scale(0.015625)"/>
      <path id="DejaVuSans-77" d="M 269 3500
L 844 3500
L 1563 769
L 2278 3500
L 2956 3500
L 3675 769
L 4391 3500
L 4966 3500
L 4050 0
L 3372 0
L 2619 2869
L 1863 0
L 1184 0
L 269 3500
z
" transform="scale(0.015625)"/>
     </defs>
     <use xlink:href="#DejaVuSans-41"/>
     <use xlink:href="#DejaVuSans-63" transform="translate(66.658203 0)"/>
     <use xlink:href="#DejaVuSans-63" transform="translate(121.638672 0)"/>
     <use xlink:href="#DejaVuSans-65" transform="translate(176.619141 0)"/>
     <use xlink:href="#DejaVuSans-73" transform="translate(238.142578 0)"/>
     <use xlink:href="#DejaVuSans-73" transform="translate(290.242188 0)"/>
     <use xlink:href="#DejaVuSans-20" transform="translate(342.341797 0)"/>
     <use xlink:href="#DejaVuSans-66" transform="translate(374.128906 0)"/>
     <use xlink:href="#DejaVuSans-6f" transform="translate(409.333984 0)"/>
     <use xlink:href="#DejaVuSans-6c" transform="translate(470.515625 0)"/>
     <use xlink:href="#DejaVuSans-6c" transform="translate(498.298828 0)"/>
     <use xlink:href="#DejaVuSans-6f" transform="translate(526.082031 0)"/>
     <use xlink:href="#DejaVuSans-77" transform="translate(587.263672 0)"/>
     <use xlink:href="#DejaVuSans-2d" transform="translate(669.050781 0)"/>
     <use xlink:href="#DejaVuSans-75" transform="translate(705.134766 0)"/>
     <use xlink:href="#DejaVuSans-70" transform="translate(768.513672 0)"/>
    </g>
   </g>
   <g id="patch_16">
    <path d="M 344.0925 182.22408
L 454.995 182.22408
Q 466.8525 182.22408 466.8525 175.62672
L 466.8525 172.52208
Q 466.8525 165.92472 454.995 165.92472
L 344.0925 165.92472
Q 332.235 165.92472 332.235 172.52208
L 332.235 175.62672
Q 332.235 182.22408 344.0925 182.22408
z
" clip-path="url(#pf5f1a43235)" style="fill: #fff5ec; stroke: #804126; stroke-width: 0.8; stroke-linejoin: miter"/>
   </g>
   <g id="text_17">
    <!-- 20 -->
    <g style="fill: #1f2430" transform="translate(74.584 204.554785) scale(0.092 -0.092)">
     <use xlink:href="#DejaVuSans-32"/>
     <use xlink:href="#DejaVuSans-30" transform="translate(63.623047 0)"/>
    </g>
   </g>
   <g id="text_18">
    <!-- Field conversation -->
    <g style="fill: #1f2430" transform="translate(146.7 204.554785) scale(0.092 -0.092)">
     <defs>
      <path id="DejaVuSans-46" d="M 628 4666
L 3309 4666
L 3309 4134
L 1259 4134
L 1259 2759
L 3109 2759
L 3109 2228
L 1259 2228
L 1259 0
L 628 0
L 628 4666
z
" transform="scale(0.015625)"/>
     </defs>
     <use xlink:href="#DejaVuSans-46"/>
     <use xlink:href="#DejaVuSans-69" transform="translate(50.269531 0)"/>
     <use xlink:href="#DejaVuSans-65" transform="translate(78.052734 0)"/>
     <use xlink:href="#DejaVuSans-6c" transform="translate(139.576172 0)"/>
     <use xlink:href="#DejaVuSans-64" transform="translate(167.359375 0)"/>
     <use xlink:href="#DejaVuSans-20" transform="translate(230.835938 0)"/>
     <use xlink:href="#DejaVuSans-63" transform="translate(262.623047 0)"/>
     <use xlink:href="#DejaVuSans-6f" transform="translate(317.603516 0)"/>
     <use xlink:href="#DejaVuSans-6e" transform="translate(378.785156 0)"/>
     <use xlink:href="#DejaVuSans-76" transform="translate(442.164062 0)"/>
     <use xlink:href="#DejaVuSans-65" transform="translate(501.34375 0)"/>
     <use xlink:href="#DejaVuSans-72" transform="translate(562.867188 0)"/>
     <use xlink:href="#DejaVuSans-73" transform="translate(603.980469 0)"/>
     <use xlink:href="#DejaVuSans-61" transform="translate(656.080078 0)"/>
     <use xlink:href="#DejaVuSans-74" transform="translate(717.359375 0)"/>
     <use xlink:href="#DejaVuSans-69" transform="translate(756.568359 0)"/>
     <use xlink:href="#DejaVuSans-6f" transform="translate(784.351562 0)"/>
     <use xlink:href="#DejaVuSans-6e" transform="translate(845.533203 0)"/>
    </g>
   </g>
   <g id="patch_17">
    <path d="M 344.0925 210.16584
L 454.995 210.16584
Q 466.8525 210.16584 466.8525 203.56848
L 466.8525 200.46384
Q 466.8525 193.86648 454.995 193.86648
L 344.0925 193.86648
Q 332.235 193.86648 332.235 200.46384
L 332.235 203.56848
Q 332.235 210.16584 344.0925 210.16584
z
" clip-path="url(#pf5f1a43235)" style="fill: #fff5ec; stroke: #804126; stroke-width: 0.8; stroke-linejoin: miter"/>
   </g>
   <g id="text_19">
    <!-- 25 -->
    <g style="fill: #1f2430" transform="translate(74.584 232.496545) scale(0.092 -0.092)">
     <use xlink:href="#DejaVuSans-32"/>
     <use xlink:href="#DejaVuSans-35" transform="translate(63.623047 0)"/>
    </g>
   </g>
   <g id="text_20">
    <!-- Program invitation -->
    <g style="fill: #1f2430" transform="translate(146.7 232.496545) scale(0.092 -0.092)">
     <defs>
      <path id="DejaVuSans-67" d="M 2906 1791
Q 2906 2416 2648 2759
Q 2391 3103 1925 3103
Q 1463 3103 1205 2759
Q 947 2416 947 1791
Q 947 1169 1205 825
Q 1463 481 1925 481
Q 2391 481 2648 825
Q 2906 1169 2906 1791
z
M 3481 434
Q 3481 -459 3084 -895
Q 2688 -1331 1869 -1331
Q 1566 -1331 1297 -1286
Q 1028 -1241 775 -1147
L 775 -588
Q 1028 -725 1275 -790
Q 1522 -856 1778 -856
Q 2344 -856 2625 -561
Q 2906 -266 2906 331
L 2906 616
Q 2728 306 2450 153
Q 2172 0 1784 0
Q 1141 0 747 490
Q 353 981 353 1791
Q 353 2603 747 3093
Q 1141 3584 1784 3584
Q 2172 3584 2450 3431
Q 2728 3278 2906 2969
L 2906 3500
L 3481 3500
L 3481 434
z
" transform="scale(0.015625)"/>
      <path id="DejaVuSans-6d" d="M 3328 2828
Q 3544 3216 3844 3400
Q 4144 3584 4550 3584
Q 5097 3584 5394 3201
Q 5691 2819 5691 2113
L 5691 0
L 5113 0
L 5113 2094
Q 5113 2597 4934 2840
Q 4756 3084 4391 3084
Q 3944 3084 3684 2787
Q 3425 2491 3425 1978
L 3425 0
L 2847 0
L 2847 2094
Q 2847 2600 2669 2842
Q 2491 3084 2119 3084
Q 1678 3084 1418 2786
Q 1159 2488 1159 1978
L 1159 0
L 581 0
L 581 3500
L 1159 3500
L 1159 2956
Q 1356 3278 1631 3431
Q 1906 3584 2284 3584
Q 2666 3584 2933 3390
Q 3200 3197 3328 2828
z
" transform="scale(0.015625)"/>
     </defs>
     <use xlink:href="#DejaVuSans-50"/>
     <use xlink:href="#DejaVuSans-72" transform="translate(58.552734 0)"/>
     <use xlink:href="#DejaVuSans-6f" transform="translate(97.416016 0)"/>
     <use xlink:href="#DejaVuSans-67" transform="translate(158.597656 0)"/>
     <use xlink:href="#DejaVuSans-72" transform="translate(222.074219 0)"/>
     <use xlink:href="#DejaVuSans-61" transform="translate(263.1875 0)"/>
     <use xlink:href="#DejaVuSans-6d" transform="translate(324.466797 0)"/>
     <use xlink:href="#DejaVuSans-20" transform="translate(421.878906 0)"/>
     <use xlink:href="#DejaVuSans-69" transform="translate(453.666016 0)"/>
     <use xlink:href="#DejaVuSans-6e" transform="translate(481.449219 0)"/>
     <use xlink:href="#DejaVuSans-76" transform="translate(544.828125 0)"/>
     <use xlink:href="#DejaVuSans-69" transform="translate(604.007812 0)"/>
     <use xlink:href="#DejaVuSans-74" transform="translate(631.791016 0)"/>
     <use xlink:href="#DejaVuSans-61" transform="translate(671 0)"/>
     <use xlink:href="#DejaVuSans-74" transform="translate(732.279297 0)"/>
     <use xlink:href="#DejaVuSans-69" transform="translate(771.488281 0)"/>
     <use xlink:href="#DejaVuSans-6f" transform="translate(799.271484 0)"/>
     <use xlink:href="#DejaVuSans-6e" transform="translate(860.453125 0)"/>
    </g>
   </g>
   <g id="patch_18">
    <path d="M 344.0925 238.1076
L 454.995 238.1076
Q 466.8525 238.1076 466.8525 231.51024
L 466.8525 228.4056
Q 466.8525 221.80824 454.995 221.80824
L 344.0925 221.80824
Q 332.235 221.80824 332.235 228.4056
L 332.235 231.51024
Q 332.235 238.1076 344.0925 238.1076
z
" clip-path="url(#pf5f1a43235)" style="fill: #fff5ec; stroke: #804126; stroke-width: 0.8; stroke-linejoin: miter"/>
   </g>
   <g id="text_21">
    <!-- 30 -->
    <g style="fill: #1f2430" transform="translate(74.584 260.438305) scale(0.092 -0.092)">
     <use xlink:href="#DejaVuSans-33"/>
     <use xlink:href="#DejaVuSans-30" transform="translate(63.623047 0)"/>
    </g>
   </g>
   <g id="text_22">
    <!-- Approved email -->
    <g style="fill: #1f2430" transform="translate(146.7 260.438305) scale(0.092 -0.092)">
     <use xlink:href="#DejaVuSans-41"/>
     <use xlink:href="#DejaVuSans-70" transform="translate(68.408203 0)"/>
     <use xlink:href="#DejaVuSans-70" transform="translate(131.884766 0)"/>
     <use xlink:href="#DejaVuSans-72" transform="translate(195.361328 0)"/>
     <use xlink:href="#DejaVuSans-6f" transform="translate(234.224609 0)"/>
     <use xlink:href="#DejaVuSans-76" transform="translate(295.40625 0)"/>
     <use xlink:href="#DejaVuSans-65" transform="translate(354.585938 0)"/>
     <use xlink:href="#DejaVuSans-64" transform="translate(416.109375 0)"/>
     <use xlink:href="#DejaVuSans-20" transform="translate(479.585938 0)"/>
     <use xlink:href="#DejaVuSans-65" transform="translate(511.373047 0)"/>
     <use xlink:href="#DejaVuSans-6d" transform="translate(572.896484 0)"/>
     <use xlink:href="#DejaVuSans-61" transform="translate(670.308594 0)"/>
     <use xlink:href="#DejaVuSans-69" transform="translate(731.587891 0)"/>
     <use xlink:href="#DejaVuSans-6c" transform="translate(759.371094 0)"/>
    </g>
   </g>
   <g id="patch_19">
    <path d="M 344.0925 266.04936
L 454.995 266.04936
Q 466.8525 266.04936 466.8525 259.452
L 466.8525 256.34736
Q 466.8525 249.75 454.995 249.75
L 344.0925 249.75
Q 332.235 249.75 332.235 256.34736
L 332.235 259.452
Q 332.235 266.04936 344.0925 266.04936
z
" clip-path="url(#pf5f1a43235)" style="fill: #d8ecbd; stroke: #386411; stroke-width: 0.8; stroke-linejoin: miter"/>
   </g>
   <g id="text_23">
    <!-- 40 -->
    <g style="fill: #1f2430" transform="translate(74.584 288.380065) scale(0.092 -0.092)">
     <use xlink:href="#DejaVuSans-34"/>
     <use xlink:href="#DejaVuSans-30" transform="translate(63.623047 0)"/>
    </g>
   </g>
   <g id="text_24">
    <!-- Continue responsive content -->
    <g style="fill: #1f2430" transform="translate(146.7 288.380065) scale(0.092 -0.092)">
     <use xlink:href="#DejaVuSans-43"/>
     <use xlink:href="#DejaVuSans-6f" transform="translate(69.824219 0)"/>
     <use xlink:href="#DejaVuSans-6e" transform="translate(131.005859 0)"/>
     <use xlink:href="#DejaVuSans-74" transform="translate(194.384766 0)"/>
     <use xlink:href="#DejaVuSans-69" transform="translate(233.59375 0)"/>
     <use xlink:href="#DejaVuSans-6e" transform="translate(261.376953 0)"/>
     <use xlink:href="#DejaVuSans-75" transform="translate(324.755859 0)"/>
     <use xlink:href="#DejaVuSans-65" transform="translate(388.134766 0)"/>
     <use xlink:href="#DejaVuSans-20" transform="translate(449.658203 0)"/>
     <use xlink:href="#DejaVuSans-72" transform="translate(481.445312 0)"/>
     <use xlink:href="#DejaVuSans-65" transform="translate(520.308594 0)"/>
     <use xlink:href="#DejaVuSans-73" transform="translate(581.832031 0)"/>
     <use xlink:href="#DejaVuSans-70" transform="translate(633.931641 0)"/>
     <use xlink:href="#DejaVuSans-6f" transform="translate(697.408203 0)"/>
     <use xlink:href="#DejaVuSans-6e" transform="translate(758.589844 0)"/>
     <use xlink:href="#DejaVuSans-73" transform="translate(821.96875 0)"/>
     <use xlink:href="#DejaVuSans-69" transform="translate(874.068359 0)"/>
     <use xlink:href="#DejaVuSans-76" transform="translate(901.851562 0)"/>
     <use xlink:href="#DejaVuSans-65" transform="translate(961.03125 0)"/>
     <use xlink:href="#DejaVuSans-20" transform="translate(1022.554688 0)"/>
     <use xlink:href="#DejaVuSans-63" transform="translate(1054.341797 0)"/>
     <use xlink:href="#DejaVuSans-6f" transform="translate(1109.322266 0)"/>
     <use xlink:href="#DejaVuSans-6e" transform="translate(1170.503906 0)"/>
     <use xlink:href="#DejaVuSans-74" transform="translate(1233.882812 0)"/>
     <use xlink:href="#DejaVuSans-65" transform="translate(1273.091797 0)"/>
     <use xlink:href="#DejaVuSans-6e" transform="translate(1334.615234 0)"/>
     <use xlink:href="#DejaVuSans-74" transform="translate(1397.994141 0)"/>
    </g>
   </g>
   <g id="patch_20">
    <path d="M 344.0925 293.99112
L 454.995 293.99112
Q 466.8525 293.99112 466.8525 287.39376
L 466.8525 284.28912
Q 466.8525 277.69176 454.995 277.69176
L 344.0925 277.69176
Q 332.235 277.69176 332.235 284.28912
L 332.235 287.39376
Q 332.235 293.99112 344.0925 293.99112
z
" clip-path="url(#pf5f1a43235)" style="fill: #fff9da; stroke: #736422; stroke-width: 0.8; stroke-linejoin: miter"/>
   </g>
   <g id="text_25">
    <!-- 80 -->
    <g style="fill: #1f2430" transform="translate(74.584 316.321825) scale(0.092 -0.092)">
     <defs>
      <path id="DejaVuSans-38" d="M 2034 2216
Q 1584 2216 1326 1975
Q 1069 1734 1069 1313
Q 1069 891 1326 650
Q 1584 409 2034 409
Q 2484 409 2743 651
Q 3003 894 3003 1313
Q 3003 1734 2745 1975
Q 2488 2216 2034 2216
z
M 1403 2484
Q 997 2584 770 2862
Q 544 3141 544 3541
Q 544 4100 942 4425
Q 1341 4750 2034 4750
Q 2731 4750 3128 4425
Q 3525 4100 3525 3541
Q 3525 3141 3298 2862
Q 3072 2584 2669 2484
Q 3125 2378 3379 2068
Q 3634 1759 3634 1313
Q 3634 634 3220 271
Q 2806 -91 2034 -91
Q 1263 -91 848 271
Q 434 634 434 1313
Q 434 1759 690 2068
Q 947 2378 1403 2484
z
M 1172 3481
Q 1172 3119 1398 2916
Q 1625 2713 2034 2713
Q 2441 2713 2670 2916
Q 2900 3119 2900 3481
Q 2900 3844 2670 4047
Q 2441 4250 2034 4250
Q 1625 4250 1398 4047
Q 1172 3844 1172 3481
z
" transform="scale(0.015625)"/>
     </defs>
     <use xlink:href="#DejaVuSans-38"/>
     <use xlink:href="#DejaVuSans-30" transform="translate(63.623047 0)"/>
    </g>
   </g>
   <g id="text_26">
    <!-- Monitor -->
    <g style="fill: #1f2430" transform="translate(146.7 316.321825) scale(0.092 -0.092)">
     <defs>
      <path id="DejaVuSans-4d" d="M 628 4666
L 1569 4666
L 2759 1491
L 3956 4666
L 4897 4666
L 4897 0
L 4281 0
L 4281 4097
L 3078 897
L 2444 897
L 1241 4097
L 1241 0
L 628 0
L 628 4666
z
" transform="scale(0.015625)"/>
     </defs>
     <use xlink:href="#DejaVuSans-4d"/>
     <use xlink:href="#DejaVuSans-6f" transform="translate(86.279297 0)"/>
     <use xlink:href="#DejaVuSans-6e" transform="translate(147.460938 0)"/>
     <use xlink:href="#DejaVuSans-69" transform="translate(210.839844 0)"/>
     <use xlink:href="#DejaVuSans-74" transform="translate(238.623047 0)"/>
     <use xlink:href="#DejaVuSans-6f" transform="translate(277.832031 0)"/>
     <use xlink:href="#DejaVuSans-72" transform="translate(339.013672 0)"/>
    </g>
   </g>
   <g id="patch_21">
    <path d="M 344.0925 321.93288
L 454.995 321.93288
Q 466.8525 321.93288 466.8525 315.33552
L 466.8525 312.23088
Q 466.8525 305.63352 454.995 305.63352
L 344.0925 305.63352
Q 332.235 305.63352 332.235 312.23088
L 332.235 315.33552
Q 332.235 321.93288 344.0925 321.93288
z
" clip-path="url(#pf5f1a43235)" style="fill: #fff9da; stroke: #736422; stroke-width: 0.8; stroke-linejoin: miter"/>
   </g>
   <g id="text_27">
    <!-- Policy gate -->
    <g style="fill: #804126" transform="translate(343.395 148.312546) scale(0.079 -0.079)">
     <use xlink:href="#DejaVuSans-50"/>
     <use xlink:href="#DejaVuSans-6f" transform="translate(56.677734 0)"/>
     <use xlink:href="#DejaVuSans-6c" transform="translate(117.859375 0)"/>
     <use xlink:href="#DejaVuSans-69" transform="translate(145.642578 0)"/>
     <use xlink:href="#DejaVuSans-63" transform="translate(173.425781 0)"/>
     <use xlink:href="#DejaVuSans-79" transform="translate(228.40625 0)"/>
     <use xlink:href="#DejaVuSans-20" transform="translate(287.585938 0)"/>
     <use xlink:href="#DejaVuSans-67" transform="translate(319.373047 0)"/>
     <use xlink:href="#DejaVuSans-61" transform="translate(382.849609 0)"/>
     <use xlink:href="#DejaVuSans-74" transform="translate(444.128906 0)"/>
     <use xlink:href="#DejaVuSans-65" transform="translate(483.337891 0)"/>
    </g>
   </g>
   <g id="text_28">
    <!-- No access route -->
    <g style="fill: #804126" transform="translate(343.395 176.254306) scale(0.079 -0.079)">
     <use xlink:href="#DejaVuSans-4e"/>
     <use xlink:href="#DejaVuSans-6f" transform="translate(74.804688 0)"/>
     <use xlink:href="#DejaVuSans-20" transform="translate(135.986328 0)"/>
     <use xlink:href="#DejaVuSans-61" transform="translate(167.773438 0)"/>
     <use xlink:href="#DejaVuSans-63" transform="translate(229.052734 0)"/>
     <use xlink:href="#DejaVuSans-63" transform="translate(284.033203 0)"/>
     <use xlink:href="#DejaVuSans-65" transform="translate(339.013672 0)"/>
     <use xlink:href="#DejaVuSans-73" transform="translate(400.537109 0)"/>
     <use xlink:href="#DejaVuSans-73" transform="translate(452.636719 0)"/>
     <use xlink:href="#DejaVuSans-20" transform="translate(504.736328 0)"/>
     <use xlink:href="#DejaVuSans-72" transform="translate(536.523438 0)"/>
     <use xlink:href="#DejaVuSans-6f" transform="translate(575.386719 0)"/>
     <use xlink:href="#DejaVuSans-75" transform="translate(636.568359 0)"/>
     <use xlink:href="#DejaVuSans-74" transform="translate(699.947266 0)"/>
     <use xlink:href="#DejaVuSans-65" transform="translate(739.15625 0)"/>
    </g>
   </g>
   <g id="text_29">
    <!-- Not priority -->
    <g style="fill: #804126" transform="translate(343.395 204.196066) scale(0.079 -0.079)">
     <use xlink:href="#DejaVuSans-4e"/>
     <use xlink:href="#DejaVuSans-6f" transform="translate(74.804688 0)"/>
     <use xlink:href="#DejaVuSans-74" transform="translate(135.986328 0)"/>
     <use xlink:href="#DejaVuSans-20" transform="translate(175.195312 0)"/>
     <use xlink:href="#DejaVuSans-70" transform="translate(206.982422 0)"/>
     <use xlink:href="#DejaVuSans-72" transform="translate(270.458984 0)"/>
     <use xlink:href="#DejaVuSans-69" transform="translate(311.572266 0)"/>
     <use xlink:href="#DejaVuSans-6f" transform="translate(339.355469 0)"/>
     <use xlink:href="#DejaVuSans-72" transform="translate(400.537109 0)"/>
     <use xlink:href="#DejaVuSans-69" transform="translate(441.650391 0)"/>
     <use xlink:href="#DejaVuSans-74" transform="translate(469.433594 0)"/>
     <use xlink:href="#DejaVuSans-79" transform="translate(508.642578 0)"/>
    </g>
   </g>
   <g id="text_30">
    <!-- No live-program signal -->
    <g style="fill: #804126" transform="translate(343.395 232.137826) scale(0.079 -0.079)">
     <use xlink:href="#DejaVuSans-4e"/>
     <use xlink:href="#DejaVuSans-6f" transform="translate(74.804688 0)"/>
     <use xlink:href="#DejaVuSans-20" transform="translate(135.986328 0)"/>
     <use xlink:href="#DejaVuSans-6c" transform="translate(167.773438 0)"/>
     <use xlink:href="#DejaVuSans-69" transform="translate(195.556641 0)"/>
     <use xlink:href="#DejaVuSans-76" transform="translate(223.339844 0)"/>
     <use xlink:href="#DejaVuSans-65" transform="translate(282.519531 0)"/>
     <use xlink:href="#DejaVuSans-2d" transform="translate(344.042969 0)"/>
     <use xlink:href="#DejaVuSans-70" transform="translate(380.126953 0)"/>
     <use xlink:href="#DejaVuSans-72" transform="translate(443.603516 0)"/>
     <use xlink:href="#DejaVuSans-6f" transform="translate(482.466797 0)"/>
     <use xlink:href="#DejaVuSans-67" transform="translate(543.648438 0)"/>
     <use xlink:href="#DejaVuSans-72" transform="translate(607.125 0)"/>
     <use xlink:href="#DejaVuSans-61" transform="translate(648.238281 0)"/>
     <use xlink:href="#DejaVuSans-6d" transform="translate(709.517578 0)"/>
     <use xlink:href="#DejaVuSans-20" transform="translate(806.929688 0)"/>
     <use xlink:href="#DejaVuSans-73" transform="translate(838.716797 0)"/>
     <use xlink:href="#DejaVuSans-69" transform="translate(890.816406 0)"/>
     <use xlink:href="#DejaVuSans-67" transform="translate(918.599609 0)"/>
     <use xlink:href="#DejaVuSans-6e" transform="translate(982.076172 0)"/>
     <use xlink:href="#DejaVuSans-61" transform="translate(1045.455078 0)"/>
     <use xlink:href="#DejaVuSans-6c" transform="translate(1106.734375 0)"/>
    </g>
   </g>
   <g id="text_31">
    <!-- Selected -->
    <g style="fill: #386411" transform="translate(343.395 260.079586) scale(0.079 -0.079)">
     <defs>
      <path id="DejaVuSans-53" d="M 3425 4513
L 3425 3897
Q 3066 4069 2747 4153
Q 2428 4238 2131 4238
Q 1616 4238 1336 4038
Q 1056 3838 1056 3469
Q 1056 3159 1242 3001
Q 1428 2844 1947 2747
L 2328 2669
Q 3034 2534 3370 2195
Q 3706 1856 3706 1288
Q 3706 609 3251 259
Q 2797 -91 1919 -91
Q 1588 -91 1214 -16
Q 841 59 441 206
L 441 856
Q 825 641 1194 531
Q 1563 422 1919 422
Q 2459 422 2753 634
Q 3047 847 3047 1241
Q 3047 1584 2836 1778
Q 2625 1972 2144 2069
L 1759 2144
Q 1053 2284 737 2584
Q 422 2884 422 3419
Q 422 4038 858 4394
Q 1294 4750 2059 4750
Q 2388 4750 2728 4690
Q 3069 4631 3425 4513
z
" transform="scale(0.015625)"/>
     </defs>
     <use xlink:href="#DejaVuSans-53"/>
     <use xlink:href="#DejaVuSans-65" transform="translate(63.476562 0)"/>
     <use xlink:href="#DejaVuSans-6c" transform="translate(125 0)"/>
     <use xlink:href="#DejaVuSans-65" transform="translate(152.783203 0)"/>
     <use xlink:href="#DejaVuSans-63" transform="translate(214.306641 0)"/>
     <use xlink:href="#DejaVuSans-74" transform="translate(269.287109 0)"/>
     <use xlink:href="#DejaVuSans-65" transform="translate(308.496094 0)"/>
     <use xlink:href="#DejaVuSans-64" transform="translate(370.019531 0)"/>
    </g>
   </g>
   <g id="text_32">
    <!-- Lower precedence -->
    <g style="fill: #736422" transform="translate(343.395 288.021346) scale(0.079 -0.079)">
     <defs>
      <path id="DejaVuSans-4c" d="M 628 4666
L 1259 4666
L 1259 531
L 3531 531
L 3531 0
L 628 0
L 628 4666
z
" transform="scale(0.015625)"/>
     </defs>
     <use xlink:href="#DejaVuSans-4c"/>
     <use xlink:href="#DejaVuSans-6f" transform="translate(53.962891 0)"/>
     <use xlink:href="#DejaVuSans-77" transform="translate(115.144531 0)"/>
     <use xlink:href="#DejaVuSans-65" transform="translate(196.931641 0)"/>
     <use xlink:href="#DejaVuSans-72" transform="translate(258.455078 0)"/>
     <use xlink:href="#DejaVuSans-20" transform="translate(299.568359 0)"/>
     <use xlink:href="#DejaVuSans-70" transform="translate(331.355469 0)"/>
     <use xlink:href="#DejaVuSans-72" transform="translate(394.832031 0)"/>
     <use xlink:href="#DejaVuSans-65" transform="translate(433.695312 0)"/>
     <use xlink:href="#DejaVuSans-63" transform="translate(495.21875 0)"/>
     <use xlink:href="#DejaVuSans-65" transform="translate(550.199219 0)"/>
     <use xlink:href="#DejaVuSans-64" transform="translate(611.722656 0)"/>
     <use xlink:href="#DejaVuSans-65" transform="translate(675.199219 0)"/>
     <use xlink:href="#DejaVuSans-6e" transform="translate(736.722656 0)"/>
     <use xlink:href="#DejaVuSans-63" transform="translate(800.101562 0)"/>
     <use xlink:href="#DejaVuSans-65" transform="translate(855.082031 0)"/>
    </g>
   </g>
   <g id="text_33">
    <!-- Lower precedence -->
    <g style="fill: #736422" transform="translate(343.395 315.963106) scale(0.079 -0.079)">
     <use xlink:href="#DejaVuSans-4c"/>
     <use xlink:href="#DejaVuSans-6f" transform="translate(53.962891 0)"/>
     <use xlink:href="#DejaVuSans-77" transform="translate(115.144531 0)"/>
     <use xlink:href="#DejaVuSans-65" transform="translate(196.931641 0)"/>
     <use xlink:href="#DejaVuSans-72" transform="translate(258.455078 0)"/>
     <use xlink:href="#DejaVuSans-20" transform="translate(299.568359 0)"/>
     <use xlink:href="#DejaVuSans-70" transform="translate(331.355469 0)"/>
     <use xlink:href="#DejaVuSans-72" transform="translate(394.832031 0)"/>
     <use xlink:href="#DejaVuSans-65" transform="translate(433.695312 0)"/>
     <use xlink:href="#DejaVuSans-63" transform="translate(495.21875 0)"/>
     <use xlink:href="#DejaVuSans-65" transform="translate(550.199219 0)"/>
     <use xlink:href="#DejaVuSans-64" transform="translate(611.722656 0)"/>
     <use xlink:href="#DejaVuSans-65" transform="translate(675.199219 0)"/>
     <use xlink:href="#DejaVuSans-6e" transform="translate(736.722656 0)"/>
     <use xlink:href="#DejaVuSans-63" transform="translate(800.101562 0)"/>
     <use xlink:href="#DejaVuSans-65" transform="translate(855.082031 0)"/>
    </g>
   </g>
  </g>
 </g>
 <defs>
  <clipPath id="pf5f1a43235">
   <rect x="7.2" y="7.2" width="697.5" height="388.08"/>
  </clipPath>
 </defs>
</svg>
