<?xml version="1.0" encoding="utf-8" standalone="no"?>
<!DOCTYPE svg PUBLIC "-//W3C//DTD SVG 1.1//EN"
  "http://www.w3.org/Graphics/SVG/1.1/DTD/svg11.dtd">
<svg xmlns:xlink="http://www.w3.org/1999/xlink" width="656.590781pt" height="440.852625pt" viewBox="0 0 656.590781 440.852625" xmlns="http://www.w3.org/2000/svg" version="1.1">
 <metadata>
  <rdf:RDF xmlns:dc="http://purl.org/dc/elements/1.1/" xmlns:cc="http://creativecommons.org/ns#" xmlns:rdf="http://www.w3.org/1999/02/22-rdf-syntax-ns#">
   <cc:Work>
    <dc:type rdf:resource="http://purl.org/dc/dcmitype/StillImage"/>
    <dc:format>image/svg+xml</dc:format>
    <dc:creator>
     <cc:Agent>
      <dc:title>Matplotlib v3.10.9, https://matplotlib.org/</dc:title>
     </cc:Agent>
    </dc:creator>
   </cc:Work>
  </rdf:RDF>
 </metadata>
 <defs>
  <style type="text/css">*{stroke-linejoin: round; stroke-linecap: butt}</style>
 </defs>
 <g id="figure_1">
  <g id="patch_1">
   <path d="M 0 440.852625
L 656.590781 440.852625
L 656.590781 0
L 0 0
z
" style="fill: #fcfcfd"/>
  </g>
  <g id="axes_1">
   <g id="patch_2">
    <path d="M 55.500781 405.232
L 649.390781 405.232
L 649.390781 50.832
L 55.500781 50.832
z
" style="fill: #ffffff"/>
   </g>
   <g id="patch_3">
    <path d="M 55.500781 279.062238
L 399.956981 279.062238
L 399.956981 66.941091
L 55.500781 66.941091
z
" clip-path="url(#p5a4a5eac32)" style="fill: #d8ecbd; opacity: 0.45"/>
   </g>
   <g id="patch_4">
    <path d="M 441.990311 405.232
L 622.395781 405.232
L 622.395781 277.648
L 441.990311 277.648
z
" clip-path="url(#p5a4a5eac32)" style="fill: #ffedde; opacity: 0.45"/>
   </g>
   <g id="PathCollection_1">
    <defs>
     <path id="mb9068808da" d="M 0 3.162278
C 0.838646 3.162278 1.643056 2.82908 2.236068 2.236068
C 2.82908 1.643056 3.162278 0.838646 3.162278 0
C 3.162278 -0.838646 2.82908 -1.643056 2.236068 -2.236068
C 1.643056 -2.82908 0.838646 -3.162278 0 -3.162278
C -0.838646 -3.162278 -1.643056 -2.82908 -2.236068 -2.236068
C -2.82908 -1.643056 -3.162278 -0.838646 -3.162278 0
C -3.162278 0.838646 -2.82908 1.643056 -2.236068 2.236068
C -1.643056 2.82908 -0.838646 3.162278 0 3.162278
z
" style="stroke: #464c55; stroke-width: 0.6"/>
    </defs>
    <g clip-path="url(#p5a4a5eac32)">
     <use xlink:href="#mb9068808da" x="441.80715" y="349.6923" style="fill: #e2e5ea; stroke: #464c55; stroke-width: 0.6"/>
     <use xlink:href="#mb9068808da" x="434.788611" y="213.064462" style="fill: #e2e5ea; stroke: #464c55; stroke-width: 0.6"/>
     <use xlink:href="#mb9068808da" x="434.124792" y="320.671921" style="fill: #e2e5ea; stroke: #464c55; stroke-width: 0.6"/>
     <use xlink:href="#mb9068808da" x="422.186629" y="245.074306" style="fill: #e2e5ea; stroke: #464c55; stroke-width: 0.6"/>
     <use xlink:href="#mb9068808da" x="421.847336" y="289.488095" style="fill: #e2e5ea; stroke: #464c55; stroke-width: 0.6"/>
     <use xlink:href="#mb9068808da" x="420.355602" y="312.119741" style="fill: #e2e5ea; stroke: #464c55; stroke-width: 0.6"/>
     <use xlink:href="#mb9068808da" x="406.350422" y="261.839301" style="fill: #e2e5ea; stroke: #464c55; stroke-width: 0.6"/>
     <use xlink:href="#mb9068808da" x="389.126661" y="77.668422" style="fill: #e2e5ea; stroke: #464c55; stroke-width: 0.6"/>
     <use xlink:href="#mb9068808da" x="388.653853" y="257.114567" style="fill: #e2e5ea; stroke: #464c55; stroke-width: 0.6"/>
     <use xlink:href="#mb9068808da" x="380.661919" y="353.009718" style="fill: #e2e5ea; stroke: #464c55; stroke-width: 0.6"/>
     <use xlink:href="#mb9068808da" x="379.810747" y="376.100228" style="fill: #e2e5ea; stroke: #464c55; stroke-width: 0.6"/>
     <use xlink:href="#mb9068808da" x="376.087203" y="343.994805" style="fill: #e2e5ea; stroke: #464c55; stroke-width: 0.6"/>
     <use xlink:href="#mb9068808da" x="326.043689" y="281.575604" style="fill: #e2e5ea; stroke: #464c55; stroke-width: 0.6"/>
     <use xlink:href="#mb9068808da" x="323.878269" y="281.842299" style="fill: #e2e5ea; stroke: #464c55; stroke-width: 0.6"/>
     <use xlink:href="#mb9068808da" x="322.390718" y="306.287548" style="fill: #e2e5ea; stroke: #464c55; stroke-width: 0.6"/>
     <use xlink:href="#mb9068808da" x="318.619644" y="283.019082" style="fill: #e2e5ea; stroke: #464c55; stroke-width: 0.6"/>
     <use xlink:href="#mb9068808da" x="302.829926" y="344.922012" style="fill: #e2e5ea; stroke: #464c55; stroke-width: 0.6"/>
     <use xlink:href="#mb9068808da" x="300.70303" y="274.146642" style="fill: #e2e5ea; stroke: #464c55; stroke-width: 0.6"/>
     <use xlink:href="#mb9068808da" x="285.183121" y="298.557103" style="fill: #e2e5ea; stroke: #464c55; stroke-width: 0.6"/>
     <use xlink:href="#mb9068808da" x="278.917294" y="197.372155" style="fill: #e2e5ea; stroke: #464c55; stroke-width: 0.6"/>
     <use xlink:href="#mb9068808da" x="264.875045" y="275.292189" style="fill: #e2e5ea; stroke: #464c55; stroke-width: 0.6"/>
     <use xlink:href="#mb9068808da" x="264.627449" y="256.93615" style="fill: #e2e5ea; stroke: #464c55; stroke-width: 0.6"/>
     <use xlink:href="#mb9068808da" x="261.387438" y="174.616793" style="fill: #e2e5ea; stroke: #464c55; stroke-width: 0.6"/>
     <use xlink:href="#mb9068808da" x="259.337974" y="308.861549" style="fill: #e2e5ea; stroke: #464c55; stroke-width: 0.6"/>
     <use xlink:href="#mb9068808da" x="258.201026" y="304.971127" style="fill: #e2e5ea; stroke: #464c55; stroke-width: 0.6"/>
     <use xlink:href="#mb9068808da" x="237.20374" y="245.21699" style="fill: #e2e5ea; stroke: #464c55; stroke-width: 0.6"/>
     <use xlink:href="#mb9068808da" x="225.484793" y="167.755699" style="fill: #e2e5ea; stroke: #464c55; stroke-width: 0.6"/>
     <use xlink:href="#mb9068808da" x="216.557523" y="273.567755" style="fill: #e2e5ea; stroke: #464c55; stroke-width: 0.6"/>
     <use xlink:href="#mb9068808da" x="210.851933" y="229.009824" style="fill: #e2e5ea; stroke: #464c55; stroke-width: 0.6"/>
     <use xlink:href="#mb9068808da" x="203.269767" y="257.593386" style="fill: #e2e5ea; stroke: #464c55; stroke-width: 0.6"/>
     <use xlink:href="#mb9068808da" x="201.639916" y="322.86857" style="fill: #e2e5ea; stroke: #464c55; stroke-width: 0.6"/>
     <use xlink:href="#mb9068808da" x="171.349971" y="249.400159" style="fill: #e2e5ea; stroke: #464c55; stroke-width: 0.6"/>
     <use xlink:href="#mb9068808da" x="169.835207" y="116.360829" style="fill: #e2e5ea; stroke: #464c55; stroke-width: 0.6"/>
     <use xlink:href="#mb9068808da" x="142.416693" y="300.526453" style="fill: #e2e5ea; stroke: #464c55; stroke-width: 0.6"/>
     <use xlink:href="#mb9068808da" x="139.309942" y="237.447617" style="fill: #e2e5ea; stroke: #464c55; stroke-width: 0.6"/>
     <use xlink:href="#mb9068808da" x="107.407607" y="147.883503" style="fill: #e2e5ea; stroke: #464c55; stroke-width: 0.6"/>
     <use xlink:href="#mb9068808da" x="82.495781" y="250.376596" style="fill: #e2e5ea; stroke: #464c55; stroke-width: 0.6"/>
    </g>
   </g>
   <g id="PathCollection_2">
    <defs>
     <path id="m105478003f" d="M 0 4.1833
C 1.109424 4.1833 2.173559 3.742521 2.95804 2.95804
C 3.742521 2.173559 4.1833 1.109424 4.1833 0
C 4.1833 -1.109424 3.742521 -2.173559 2.95804 -2.95804
C 2.173559 -3.742521 1.109424 -4.1833 0 -4.1833
C -1.109424 -4.1833 -2.173559 -3.742521 -2.95804 -2.95804
C -3.742521 -2.173559 -4.1833 -1.109424 -4.1833 0
C -4.1833 1.109424 -3.742521 2.173559 -2.95804 2.95804
C -2.173559 3.742521 -1.109424 4.1833 0 4.1833
z
" style="stroke: #804126; stroke-width: 0.8"/>
    </defs>
    <g clip-path="url(#p5a4a5eac32)">
     <use xlink:href="#m105478003f" x="605.367865" y="298.063808" style="fill: #f0986e; stroke: #804126; stroke-width: 0.8"/>
     <use xlink:href="#m105478003f" x="601.556805" y="346.285869" style="fill: #f0986e; stroke: #804126; stroke-width: 0.8"/>
     <use xlink:href="#m105478003f" x="574.397037" y="385.32866" style="fill: #f0986e; stroke: #804126; stroke-width: 0.8"/>
     <use xlink:href="#m105478003f" x="573.298012" y="332.719273" style="fill: #f0986e; stroke: #804126; stroke-width: 0.8"/>
     <use xlink:href="#m105478003f" x="560.293315" y="285.885574" style="fill: #f0986e; stroke: #804126; stroke-width: 0.8"/>
     <use xlink:href="#m105478003f" x="552.788299" y="332.214052" style="fill: #f0986e; stroke: #804126; stroke-width: 0.8"/>
     <use xlink:href="#m105478003f" x="549.381757" y="383.275888" style="fill: #f0986e; stroke: #804126; stroke-width: 0.8"/>
     <use xlink:href="#m105478003f" x="540.242458" y="336.952036" style="fill: #f0986e; stroke: #804126; stroke-width: 0.8"/>
     <use xlink:href="#m105478003f" x="527.303879" y="354.850393" style="fill: #f0986e; stroke: #804126; stroke-width: 0.8"/>
     <use xlink:href="#m105478003f" x="520.871032" y="389.122909" style="fill: #f0986e; stroke: #804126; stroke-width: 0.8"/>
     <use xlink:href="#m105478003f" x="509.888039" y="340.215272" style="fill: #f0986e; stroke: #804126; stroke-width: 0.8"/>
     <use xlink:href="#m105478003f" x="509.324737" y="382.171769" style="fill: #f0986e; stroke: #804126; stroke-width: 0.8"/>
     <use xlink:href="#m105478003f" x="489.75053" y="301.587817" style="fill: #f0986e; stroke: #804126; stroke-width: 0.8"/>
     <use xlink:href="#m105478003f" x="476.942135" y="383.853377" style="fill: #f0986e; stroke: #804126; stroke-width: 0.8"/>
     <use xlink:href="#m105478003f" x="473.805436" y="347.796479" style="fill: #f0986e; stroke: #804126; stroke-width: 0.8"/>
     <use xlink:href="#m105478003f" x="462.324817" y="283.077113" style="fill: #f0986e; stroke: #804126; stroke-width: 0.8"/>
     <use xlink:href="#m105478003f" x="457.1418" y="344.747582" style="fill: #f0986e; stroke: #804126; stroke-width: 0.8"/>
     <use xlink:href="#m105478003f" x="453.559732" y="333.069878" style="fill: #f0986e; stroke: #804126; stroke-width: 0.8"/>
     <use xlink:href="#m105478003f" x="447.957492" y="374.311188" style="fill: #f0986e; stroke: #804126; stroke-width: 0.8"/>
     <use xlink:href="#m105478003f" x="442.265052" y="313.420087" style="fill: #f0986e; stroke: #804126; stroke-width: 0.8"/>
    </g>
   </g>
   <g id="PathCollection_3">
    <defs>
     <path id="m1d01c7eee5" d="M 0 4.1833
C 1.109424 4.1833 2.173559 3.742521 2.95804 2.95804
C 3.742521 2.173559 4.1833 1.109424 4.1833 0
C 4.1833 -1.109424 3.742521 -2.173559 2.95804 -2.95804
C 2.173559 -3.742521 1.109424 -4.1833 0 -4.1833
C -1.109424 -4.1833 -2.173559 -3.742521 -2.95804 -2.95804
C -3.742521 -2.173559 -4.1833 -1.109424 -4.1833 0
C -4.1833 1.109424 -3.742521 2.173559 -2.95804 2.95804
C -2.173559 3.742521 -1.109424 4.1833 0 4.1833
z
" style="stroke: #386411; stroke-width: 0.8"/>
    </defs>
    <g clip-path="url(#p5a4a5eac32)">
     <use xlink:href="#m1d01c7eee5" x="434.788611" y="213.064462" style="fill: #a3d576; stroke: #386411; stroke-width: 0.8"/>
     <use xlink:href="#m1d01c7eee5" x="422.186629" y="245.074306" style="fill: #a3d576; stroke: #386411; stroke-width: 0.8"/>
     <use xlink:href="#m1d01c7eee5" x="406.350422" y="261.839301" style="fill: #a3d576; stroke: #386411; stroke-width: 0.8"/>
     <use xlink:href="#m1d01c7eee5" x="389.126661" y="77.668422" style="fill: #a3d576; stroke: #386411; stroke-width: 0.8"/>
     <use xlink:href="#m1d01c7eee5" x="388.653853" y="257.114567" style="fill: #a3d576; stroke: #386411; stroke-width: 0.8"/>
     <use xlink:href="#m1d01c7eee5" x="300.70303" y="274.146642" style="fill: #a3d576; stroke: #386411; stroke-width: 0.8"/>
     <use xlink:href="#m1d01c7eee5" x="278.917294" y="197.372155" style="fill: #a3d576; stroke: #386411; stroke-width: 0.8"/>
     <use xlink:href="#m1d01c7eee5" x="264.875045" y="275.292189" style="fill: #a3d576; stroke: #386411; stroke-width: 0.8"/>
     <use xlink:href="#m1d01c7eee5" x="264.627449" y="256.93615" style="fill: #a3d576; stroke: #386411; stroke-width: 0.8"/>
     <use xlink:href="#m1d01c7eee5" x="261.387438" y="174.616793" style="fill: #a3d576; stroke: #386411; stroke-width: 0.8"/>
     <use xlink:href="#m1d01c7eee5" x="237.20374" y="245.21699" style="fill: #a3d576; stroke: #386411; stroke-width: 0.8"/>
     <use xlink:href="#m1d01c7eee5" x="225.484793" y="167.755699" style="fill: #a3d576; stroke: #386411; stroke-width: 0.8"/>
     <use xlink:href="#m1d01c7eee5" x="216.557523" y="273.567755" style="fill: #a3d576; stroke: #386411; stroke-width: 0.8"/>
     <use xlink:href="#m1d01c7eee5" x="210.851933" y="229.009824" style="fill: #a3d576; stroke: #386411; stroke-width: 0.8"/>
     <use xlink:href="#m1d01c7eee5" x="203.269767" y="257.593386" style="fill: #a3d576; stroke: #386411; stroke-width: 0.8"/>
     <use xlink:href="#m1d01c7eee5" x="171.349971" y="249.400159" style="fill: #a3d576; stroke: #386411; stroke-width: 0.8"/>
     <use xlink:href="#m1d01c7eee5" x="169.835207" y="116.360829" style="fill: #a3d576; stroke: #386411; stroke-width: 0.8"/>
     <use xlink:href="#m1d01c7eee5" x="139.309942" y="237.447617" style="fill: #a3d576; stroke: #386411; stroke-width: 0.8"/>
     <use xlink:href="#m1d01c7eee5" x="107.407607" y="147.883503" style="fill: #a3d576; stroke: #386411; stroke-width: 0.8"/>
     <use xlink:href="#m1d01c7eee5" x="82.495781" y="250.376596" style="fill: #a3d576; stroke: #386411; stroke-width: 0.8"/>
    </g>
   </g>
   <g id="matplotlib.axis_1">
    <g id="xtick_1">
     <g id="line2d_1">
      <path d="M 86.86951 405.232
L 86.86951 50.832
" clip-path="url(#p5a4a5eac32)" style="fill: none; stroke: #e6e8f0; stroke-width: 0.8; stroke-linecap: square"/>
     </g>
     <g id="line2d_2">
      <defs>
       <path id="ma8305c191b" d="M 0 0
L 0 3.5
" style="stroke: #6f768a; stroke-width: 0.8"/>
      </defs>
      <g>
       <use xlink:href="#ma8305c191b" x="86.86951" y="405.232" style="fill: #6f768a; stroke: #6f768a; stroke-width: 0.8"/>
      </g>
     </g>
     <g id="text_1">
      <!-- 30% -->
      <g style="fill: #6f768a" transform="translate(76.867557 419.070594) scale(0.09 -0.09)">
       <defs>
        <path id="DejaVuSans-33" d="M 2597 2516
Q 3050 2419 3304 2112
Q 3559 1806 3559 1356
Q 3559 666 3084 287
Q 2609 -91 1734 -91
Q 1441 -91 1130 -33
Q 819 25 488 141
L 488 750
Q 750 597 1062 519
Q 1375 441 1716 441
Q 2309 441 2620 675
Q 2931 909 2931 1356
Q 2931 1769 2642 2001
Q 2353 2234 1838 2234
L 1294 2234
L 1294 2753
L 1863 2753
Q 2328 2753 2575 2939
Q 2822 3125 2822 3475
Q 2822 3834 2567 4026
Q 2313 4219 1838 4219
Q 1578 4219 1281 4162
Q 984 4106 628 3988
L 628 4550
Q 988 4650 1302 4700
Q 1616 4750 1894 4750
Q 2613 4750 3031 4423
Q 3450 4097 3450 3541
Q 3450 3153 3228 2886
Q 3006 2619 2597 2516
z
" transform="scale(0.015625)"/>
        <path id="DejaVuSans-30" d="M 2034 4250
Q 1547 4250 1301 3770
Q 1056 3291 1056 2328
Q 1056 1369 1301 889
Q 1547 409 2034 409
Q 2525 409 2770 889
Q 3016 1369 3016 2328
Q 3016 3291 2770 3770
Q 2525 4250 2034 4250
z
M 2034 4750
Q 2819 4750 3233 4129
Q 3647 3509 3647 2328
Q 3647 1150 3233 529
Q 2819 -91 2034 -91
Q 1250 -91 836 529
Q 422 1150 422 2328
Q 422 3509 836 4129
Q 1250 4750 2034 4750
z
" transform="scale(0.015625)"/>
        <path id="DejaVuSans-25" d="M 4653 2053
Q 4381 2053 4226 1822
Q 4072 1591 4072 1178
Q 4072 772 4226 539
Q 4381 306 4653 306
Q 4919 306 5073 539
Q 5228 772 5228 1178
Q 5228 1588 5073 1820
Q 4919 2053 4653 2053
z
M 4653 2450
Q 5147 2450 5437 2106
Q 5728 1763 5728 1178
Q 5728 594 5436 251
Q 5144 -91 4653 -91
Q 4153 -91 3862 251
Q 3572 594 3572 1178
Q 3572 1766 3864 2108
Q 4156 2450 4653 2450
z
M 1428 4353
Q 1159 4353 1004 4120
Q 850 3888 850 3481
Q 850 3069 1003 2837
Q 1156 2606 1428 2606
Q 1700 2606 1854 2837
Q 2009 3069 2009 3481
Q 2009 3884 1853 4118
Q 1697 4353 1428 4353
z
M 4250 4750
L 4750 4750
L 1831 -91
L 1331 -91
L 4250 4750
z
M 1428 4750
Q 1922 4750 2215 4408
Q 2509 4066 2509 3481
Q 2509 2891 2217 2550
Q 1925 2209 1428 2209
Q 931 2209 642 2551
Q 353 2894 353 3481
Q 353 4063 643 4406
Q 934 4750 1428 4750
z
" transform="scale(0.015625)"/>
       </defs>
       <use xlink:href="#DejaVuSans-33"/>
       <use xlink:href="#DejaVuSans-30" transform="translate(63.623047 0)"/>
       <use xlink:href="#DejaVuSans-25" transform="translate(127.246094 0)"/>
      </g>
     </g>
    </g>
    <g id="xtick_2">
     <g id="line2d_3">
      <path d="M 172.009093 405.232
L 172.009093 50.832
" clip-path="url(#p5a4a5eac32)" style="fill: none; stroke: #e6e8f0; stroke-width: 0.8; stroke-linecap: square"/>
     </g>
     <g id="line2d_4">
      <g>
       <use xlink:href="#ma8305c191b" x="172.009093" y="405.232" style="fill: #6f768a; stroke: #6f768a; stroke-width: 0.8"/>
      </g>
     </g>
     <g id="text_2">
      <!-- 40% -->
      <g style="fill: #6f768a" transform="translate(162.00714 419.070594) scale(0.09 -0.09)">
       <defs>
        <path id="DejaVuSans-34" d="M 2419 4116
L 825 1625
L 2419 1625
L 2419 4116
z
M 2253 4666
L 3047 4666
L 3047 1625
L 3713 1625
L 3713 1100
L 3047 1100
L 3047 0
L 2419 0
L 2419 1100
L 313 1100
L 313 1709
L 2253 4666
z
" transform="scale(0.015625)"/>
       </defs>
       <use xlink:href="#DejaVuSans-34"/>
       <use xlink:href="#DejaVuSans-30" transform="translate(63.623047 0)"/>
       <use xlink:href="#DejaVuSans-25" transform="translate(127.246094 0)"/>
      </g>
     </g>
    </g>
    <g id="xtick_3">
     <g id="line2d_5">
      <path d="M 257.148676 405.232
L 257.148676 50.832
" clip-path="url(#p5a4a5eac32)" style="fill: none; stroke: #e6e8f0; stroke-width: 0.8; stroke-linecap: square"/>
     </g>
     <g id="line2d_6">
      <g>
       <use xlink:href="#ma8305c191b" x="257.148676" y="405.232" style="fill: #6f768a; stroke: #6f768a; stroke-width: 0.8"/>
      </g>
     </g>
     <g id="text_3">
      <!-- 50% -->
      <g style="fill: #6f768a" transform="translate(247.146723 419.070594) scale(0.09 -0.09)">
       <defs>
        <path id="DejaVuSans-35" d="M 691 4666
L 3169 4666
L 3169 4134
L 1269 4134
L 1269 2991
Q 1406 3038 1543 3061
Q 1681 3084 1819 3084
Q 2600 3084 3056 2656
Q 3513 2228 3513 1497
Q 3513 744 3044 326
Q 2575 -91 1722 -91
Q 1428 -91 1123 -41
Q 819 9 494 109
L 494 744
Q 775 591 1075 516
Q 1375 441 1709 441
Q 2250 441 2565 725
Q 2881 1009 2881 1497
Q 2881 1984 2565 2268
Q 2250 2553 1709 2553
Q 1456 2553 1204 2497
Q 953 2441 691 2322
L 691 4666
z
" transform="scale(0.015625)"/>
       </defs>
       <use xlink:href="#DejaVuSans-35"/>
       <use xlink:href="#DejaVuSans-30" transform="translate(63.623047 0)"/>
       <use xlink:href="#DejaVuSans-25" transform="translate(127.246094 0)"/>
      </g>
     </g>
    </g>
    <g id="xtick_4">
     <g id="line2d_7">
      <path d="M 342.28826 405.232
L 342.28826 50.832
" clip-path="url(#p5a4a5eac32)" style="fill: none; stroke: #e6e8f0; stroke-width: 0.8; stroke-linecap: square"/>
     </g>
     <g id="line2d_8">
      <g>
       <use xlink:href="#ma8305c191b" x="342.28826" y="405.232" style="fill: #6f768a; stroke: #6f768a; stroke-width: 0.8"/>
      </g>
     </g>
     <g id="text_4">
      <!-- 60% -->
      <g style="fill: #6f768a" transform="translate(332.286306 419.070594) scale(0.09 -0.09)">
       <defs>
        <path id="DejaVuSans-36" d="M 2113 2584
Q 1688 2584 1439 2293
Q 1191 2003 1191 1497
Q 1191 994 1439 701
Q 1688 409 2113 409
Q 2538 409 2786 701
Q 3034 994 3034 1497
Q 3034 2003 2786 2293
Q 2538 2584 2113 2584
z
M 3366 4563
L 3366 3988
Q 3128 4100 2886 4159
Q 2644 4219 2406 4219
Q 1781 4219 1451 3797
Q 1122 3375 1075 2522
Q 1259 2794 1537 2939
Q 1816 3084 2150 3084
Q 2853 3084 3261 2657
Q 3669 2231 3669 1497
Q 3669 778 3244 343
Q 2819 -91 2113 -91
Q 1303 -91 875 529
Q 447 1150 447 2328
Q 447 3434 972 4092
Q 1497 4750 2381 4750
Q 2619 4750 2861 4703
Q 3103 4656 3366 4563
z
" transform="scale(0.015625)"/>
       </defs>
       <use xlink:href="#DejaVuSans-36"/>
       <use xlink:href="#DejaVuSans-30" transform="translate(63.623047 0)"/>
       <use xlink:href="#DejaVuSans-25" transform="translate(127.246094 0)"/>
      </g>
     </g>
    </g>
    <g id="xtick_5">
     <g id="line2d_9">
      <path d="M 427.427843 405.232
L 427.427843 50.832
" clip-path="url(#p5a4a5eac32)" style="fill: none; stroke: #e6e8f0; stroke-width: 0.8; stroke-linecap: square"/>
     </g>
     <g id="line2d_10">
      <g>
       <use xlink:href="#ma8305c191b" x="427.427843" y="405.232" style="fill: #6f768a; stroke: #6f768a; stroke-width: 0.8"/>
      </g>
     </g>
     <g id="text_5">
      <!-- 70% -->
      <g style="fill: #6f768a" transform="translate(417.42589 419.070594) scale(0.09 -0.09)">
       <defs>
        <path id="DejaVuSans-37" d="M 525 4666
L 3525 4666
L 3525 4397
L 1831 0
L 1172 0
L 2766 4134
L 525 4134
L 525 4666
z
" transform="scale(0.015625)"/>
       </defs>
       <use xlink:href="#DejaVuSans-37"/>
       <use xlink:href="#DejaVuSans-30" transform="translate(63.623047 0)"/>
       <use xlink:href="#DejaVuSans-25" transform="translate(127.246094 0)"/>
      </g>
     </g>
    </g>
    <g id="xtick_6">
     <g id="line2d_11">
      <path d="M 512.567426 405.232
L 512.567426 50.832
" clip-path="url(#p5a4a5eac32)" style="fill: none; stroke: #e6e8f0; stroke-width: 0.8; stroke-linecap: square"/>
     </g>
     <g id="line2d_12">
      <g>
       <use xlink:href="#ma8305c191b" x="512.567426" y="405.232" style="fill: #6f768a; stroke: #6f768a; stroke-width: 0.8"/>
      </g>
     </g>
     <g id="text_6">
      <!-- 80% -->
      <g style="fill: #6f768a" transform="translate(502.565473 419.070594) scale(0.09 -0.09)">
       <defs>
        <path id="DejaVuSans-38" d="M 2034 2216
Q 1584 2216 1326 1975
Q 1069 1734 1069 1313
Q 1069 891 1326 650
Q 1584 409 2034 409
Q 2484 409 2743 651
Q 3003 894 3003 1313
Q 3003 1734 2745 1975
Q 2488 2216 2034 2216
z
M 1403 2484
Q 997 2584 770 2862
Q 544 3141 544 3541
Q 544 4100 942 4425
Q 1341 4750 2034 4750
Q 2731 4750 3128 4425
Q 3525 4100 3525 3541
Q 3525 3141 3298 2862
Q 3072 2584 2669 2484
Q 3125 2378 3379 2068
Q 3634 1759 3634 1313
Q 3634 634 3220 271
Q 2806 -91 2034 -91
Q 1263 -91 848 271
Q 434 634 434 1313
Q 434 1759 690 2068
Q 947 2378 1403 2484
z
M 1172 3481
Q 1172 3119 1398 2916
Q 1625 2713 2034 2713
Q 2441 2713 2670 2916
Q 2900 3119 2900 3481
Q 2900 3844 2670 4047
Q 2441 4250 2034 4250
Q 1625 4250 1398 4047
Q 1172 3844 1172 3481
z
" transform="scale(0.015625)"/>
       </defs>
       <use xlink:href="#DejaVuSans-38"/>
       <use xlink:href="#DejaVuSans-30" transform="translate(63.623047 0)"/>
       <use xlink:href="#DejaVuSans-25" transform="translate(127.246094 0)"/>
      </g>
     </g>
    </g>
    <g id="xtick_7">
     <g id="line2d_13">
      <path d="M 597.707009 405.232
L 597.707009 50.832
" clip-path="url(#p5a4a5eac32)" style="fill: none; stroke: #e6e8f0; stroke-width: 0.8; stroke-linecap: square"/>
     </g>
     <g id="line2d_14">
      <g>
       <use xlink:href="#ma8305c191b" x="597.707009" y="405.232" style="fill: #6f768a; stroke: #6f768a; stroke-width: 0.8"/>
      </g>
     </g>
     <g id="text_7">
      <!-- 90% -->
      <g style="fill: #6f768a" transform="translate(587.705056 419.070594) scale(0.09 -0.09)">
       <defs>
        <path id="DejaVuSans-39" d="M 703 97
L 703 672
Q 941 559 1184 500
Q 1428 441 1663 441
Q 2288 441 2617 861
Q 2947 1281 2994 2138
Q 2813 1869 2534 1725
Q 2256 1581 1919 1581
Q 1219 1581 811 2004
Q 403 2428 403 3163
Q 403 3881 828 4315
Q 1253 4750 1959 4750
Q 2769 4750 3195 4129
Q 3622 3509 3622 2328
Q 3622 1225 3098 567
Q 2575 -91 1691 -91
Q 1453 -91 1209 -44
Q 966 3 703 97
z
M 1959 2075
Q 2384 2075 2632 2365
Q 2881 2656 2881 3163
Q 2881 3666 2632 3958
Q 2384 4250 1959 4250
Q 1534 4250 1286 3958
Q 1038 3666 1038 3163
Q 1038 2656 1286 2365
Q 1534 2075 1959 2075
z
" transform="scale(0.015625)"/>
       </defs>
       <use xlink:href="#DejaVuSans-39"/>
       <use xlink:href="#DejaVuSans-30" transform="translate(63.623047 0)"/>
       <use xlink:href="#DejaVuSans-25" transform="translate(127.246094 0)"/>
      </g>
     </g>
    </g>
    <g id="text_8">
     <!-- Predicted response -->
     <g style="fill: #1f2430" transform="translate(309.455312 431.780906) scale(0.09 -0.09)">
      <defs>
       <path id="DejaVuSans-50" d="M 1259 4147
L 1259 2394
L 2053 2394
Q 2494 2394 2734 2622
Q 2975 2850 2975 3272
Q 2975 3691 2734 3919
Q 2494 4147 2053 4147
L 1259 4147
z
M 628 4666
L 2053 4666
Q 2838 4666 3239 4311
Q 3641 3956 3641 3272
Q 3641 2581 3239 2228
Q 2838 1875 2053 1875
L 1259 1875
L 1259 0
L 628 0
L 628 4666
z
" transform="scale(0.015625)"/>
       <path id="DejaVuSans-72" d="M 2631 2963
Q 2534 3019 2420 3045
Q 2306 3072 2169 3072
Q 1681 3072 1420 2755
Q 1159 2438 1159 1844
L 1159 0
L 581 0
L 581 3500
L 1159 3500
L 1159 2956
Q 1341 3275 1631 3429
Q 1922 3584 2338 3584
Q 2397 3584 2469 3576
Q 2541 3569 2628 3553
L 2631 2963
z
" transform="scale(0.015625)"/>
       <path id="DejaVuSans-65" d="M 3597 1894
L 3597 1613
L 953 1613
Q 991 1019 1311 708
Q 1631 397 2203 397
Q 2534 397 2845 478
Q 3156 559 3463 722
L 3463 178
Q 3153 47 2828 -22
Q 2503 -91 2169 -91
Q 1331 -91 842 396
Q 353 884 353 1716
Q 353 2575 817 3079
Q 1281 3584 2069 3584
Q 2775 3584 3186 3129
Q 3597 2675 3597 1894
z
M 3022 2063
Q 3016 2534 2758 2815
Q 2500 3097 2075 3097
Q 1594 3097 1305 2825
Q 1016 2553 972 2059
L 3022 2063
z
" transform="scale(0.015625)"/>
       <path id="DejaVuSans-64" d="M 2906 2969
L 2906 4863
L 3481 4863
L 3481 0
L 2906 0
L 2906 525
Q 2725 213 2448 61
Q 2172 -91 1784 -91
Q 1150 -91 751 415
Q 353 922 353 1747
Q 353 2572 751 3078
Q 1150 3584 1784 3584
Q 2172 3584 2448 3432
Q 2725 3281 2906 2969
z
M 947 1747
Q 947 1113 1208 752
Q 1469 391 1925 391
Q 2381 391 2643 752
Q 2906 1113 2906 1747
Q 2906 2381 2643 2742
Q 2381 3103 1925 3103
Q 1469 3103 1208 2742
Q 947 2381 947 1747
z
" transform="scale(0.015625)"/>
       <path id="DejaVuSans-69" d="M 603 3500
L 1178 3500
L 1178 0
L 603 0
L 603 3500
z
M 603 4863
L 1178 4863
L 1178 4134
L 603 4134
L 603 4863
z
" transform="scale(0.015625)"/>
       <path id="DejaVuSans-63" d="M 3122 3366
L 3122 2828
Q 2878 2963 2633 3030
Q 2388 3097 2138 3097
Q 1578 3097 1268 2742
Q 959 2388 959 1747
Q 959 1106 1268 751
Q 1578 397 2138 397
Q 2388 397 2633 464
Q 2878 531 3122 666
L 3122 134
Q 2881 22 2623 -34
Q 2366 -91 2075 -91
Q 1284 -91 818 406
Q 353 903 353 1747
Q 353 2603 823 3093
Q 1294 3584 2113 3584
Q 2378 3584 2631 3529
Q 2884 3475 3122 3366
z
" transform="scale(0.015625)"/>
       <path id="DejaVuSans-74" d="M 1172 4494
L 1172 3500
L 2356 3500
L 2356 3053
L 1172 3053
L 1172 1153
Q 1172 725 1289 603
Q 1406 481 1766 481
L 2356 481
L 2356 0
L 1766 0
Q 1100 0 847 248
Q 594 497 594 1153
L 594 3053
L 172 3053
L 172 3500
L 594 3500
L 594 4494
L 1172 4494
z
" transform="scale(0.015625)"/>
       <path id="DejaVuSans-20" transform="scale(0.015625)"/>
       <path id="DejaVuSans-73" d="M 2834 3397
L 2834 2853
Q 2591 2978 2328 3040
Q 2066 3103 1784 3103
Q 1356 3103 1142 2972
Q 928 2841 928 2578
Q 928 2378 1081 2264
Q 1234 2150 1697 2047
L 1894 2003
Q 2506 1872 2764 1633
Q 3022 1394 3022 966
Q 3022 478 2636 193
Q 2250 -91 1575 -91
Q 1294 -91 989 -36
Q 684 19 347 128
L 347 722
Q 666 556 975 473
Q 1284 391 1588 391
Q 1994 391 2212 530
Q 2431 669 2431 922
Q 2431 1156 2273 1281
Q 2116 1406 1581 1522
L 1381 1569
Q 847 1681 609 1914
Q 372 2147 372 2553
Q 372 3047 722 3315
Q 1072 3584 1716 3584
Q 2034 3584 2315 3537
Q 2597 3491 2834 3397
z
" transform="scale(0.015625)"/>
       <path id="DejaVuSans-70" d="M 1159 525
L 1159 -1331
L 581 -1331
L 581 3500
L 1159 3500
L 1159 2969
Q 1341 3281 1617 3432
Q 1894 3584 2278 3584
Q 2916 3584 3314 3078
Q 3713 2572 3713 1747
Q 3713 922 3314 415
Q 2916 -91 2278 -91
Q 1894 -91 1617 61
Q 1341 213 1159 525
z
M 3116 1747
Q 3116 2381 2855 2742
Q 2594 3103 2138 3103
Q 1681 3103 1420 2742
Q 1159 2381 1159 1747
Q 1159 1113 1420 752
Q 1681 391 2138 391
Q 2594 391 2855 752
Q 3116 1113 3116 1747
z
" transform="scale(0.015625)"/>
       <path id="DejaVuSans-6f" d="M 1959 3097
Q 1497 3097 1228 2736
Q 959 2375 959 1747
Q 959 1119 1226 758
Q 1494 397 1959 397
Q 2419 397 2687 759
Q 2956 1122 2956 1747
Q 2956 2369 2687 2733
Q 2419 3097 1959 3097
z
M 1959 3584
Q 2709 3584 3137 3096
Q 3566 2609 3566 1747
Q 3566 888 3137 398
Q 2709 -91 1959 -91
Q 1206 -91 779 398
Q 353 888 353 1747
Q 353 2609 779 3096
Q 1206 3584 1959 3584
z
" transform="scale(0.015625)"/>
       <path id="DejaVuSans-6e" d="M 3513 2113
L 3513 0
L 2938 0
L 2938 2094
Q 2938 2591 2744 2837
Q 2550 3084 2163 3084
Q 1697 3084 1428 2787
Q 1159 2491 1159 1978
L 1159 0
L 581 0
L 581 3500
L 1159 3500
L 1159 2956
Q 1366 3272 1645 3428
Q 1925 3584 2291 3584
Q 2894 3584 3203 3211
Q 3513 2838 3513 2113
z
" transform="scale(0.015625)"/>
      </defs>
      <use xlink:href="#DejaVuSans-50"/>
      <use xlink:href="#DejaVuSans-72" transform="translate(58.552734 0)"/>
      <use xlink:href="#DejaVuSans-65" transform="translate(97.416016 0)"/>
      <use xlink:href="#DejaVuSans-64" transform="translate(158.939453 0)"/>
      <use xlink:href="#DejaVuSans-69" transform="translate(222.416016 0)"/>
      <use xlink:href="#DejaVuSans-63" transform="translate(250.199219 0)"/>
      <use xlink:href="#DejaVuSans-74" transform="translate(305.179688 0)"/>
      <use xlink:href="#DejaVuSans-65" transform="translate(344.388672 0)"/>
      <use xlink:href="#DejaVuSans-64" transform="translate(405.912109 0)"/>
      <use xlink:href="#DejaVuSans-20" transform="translate(469.388672 0)"/>
      <use xlink:href="#DejaVuSans-72" transform="translate(501.175781 0)"/>
      <use xlink:href="#DejaVuSans-65" transform="translate(540.039062 0)"/>
      <use xlink:href="#DejaVuSans-73" transform="translate(601.5625 0)"/>
      <use xlink:href="#DejaVuSans-70" transform="translate(653.662109 0)"/>
      <use xlink:href="#DejaVuSans-6f" transform="translate(717.138672 0)"/>
      <use xlink:href="#DejaVuSans-6e" transform="translate(778.320312 0)"/>
      <use xlink:href="#DejaVuSans-73" transform="translate(841.699219 0)"/>
      <use xlink:href="#DejaVuSans-65" transform="translate(893.798828 0)"/>
     </g>
    </g>
   </g>
   <g id="matplotlib.axis_2">
    <g id="ytick_1">
     <g id="line2d_15">
      <path d="M 55.500781 352.157114
L 649.390781 352.157114
" clip-path="url(#p5a4a5eac32)" style="fill: none; stroke: #e6e8f0; stroke-width: 0.8; stroke-linecap: square"/>
     </g>
     <g id="line2d_16">
      <defs>
       <path id="md7d674da94" d="M 0 0
L -3.5 0
" style="stroke: #6f768a; stroke-width: 0.8"/>
      </defs>
      <g>
       <use xlink:href="#md7d674da94" x="55.500781" y="352.157114" style="fill: #6f768a; stroke: #6f768a; stroke-width: 0.8"/>
      </g>
     </g>
     <g id="text_9">
      <!-- 0.0% -->
      <g style="fill: #6f768a" transform="translate(25.636563 355.576411) scale(0.09 -0.09)">
       <defs>
        <path id="DejaVuSans-2e" d="M 684 794
L 1344 794
L 1344 0
L 684 0
L 684 794
z
" transform="scale(0.015625)"/>
       </defs>
       <use xlink:href="#DejaVuSans-30"/>
       <use xlink:href="#DejaVuSans-2e" transform="translate(63.623047 0)"/>
       <use xlink:href="#DejaVuSans-30" transform="translate(95.410156 0)"/>
       <use xlink:href="#DejaVuSans-25" transform="translate(159.033203 0)"/>
      </g>
     </g>
    </g>
    <g id="ytick_2">
     <g id="line2d_17">
      <path d="M 55.500781 298.520456
L 649.390781 298.520456
" clip-path="url(#p5a4a5eac32)" style="fill: none; stroke: #e6e8f0; stroke-width: 0.8; stroke-linecap: square"/>
     </g>
     <g id="line2d_18">
      <g>
       <use xlink:href="#md7d674da94" x="55.500781" y="298.520456" style="fill: #6f768a; stroke: #6f768a; stroke-width: 0.8"/>
      </g>
     </g>
     <g id="text_10">
      <!-- 5.0% -->
      <g style="fill: #6f768a" transform="translate(25.636563 301.939753) scale(0.09 -0.09)">
       <use xlink:href="#DejaVuSans-35"/>
       <use xlink:href="#DejaVuSans-2e" transform="translate(63.623047 0)"/>
       <use xlink:href="#DejaVuSans-30" transform="translate(95.410156 0)"/>
       <use xlink:href="#DejaVuSans-25" transform="translate(159.033203 0)"/>
      </g>
     </g>
    </g>
    <g id="ytick_3">
     <g id="line2d_19">
      <path d="M 55.500781 244.883799
L 649.390781 244.883799
" clip-path="url(#p5a4a5eac32)" style="fill: none; stroke: #e6e8f0; stroke-width: 0.8; stroke-linecap: square"/>
     </g>
     <g id="line2d_20">
      <g>
       <use xlink:href="#md7d674da94" x="55.500781" y="244.883799" style="fill: #6f768a; stroke: #6f768a; stroke-width: 0.8"/>
      </g>
     </g>
     <g id="text_11">
      <!-- 10.0% -->
      <g style="fill: #6f768a" transform="translate(19.910313 248.303096) scale(0.09 -0.09)">
       <defs>
        <path id="DejaVuSans-31" d="M 794 531
L 1825 531
L 1825 4091
L 703 3866
L 703 4441
L 1819 4666
L 2450 4666
L 2450 531
L 3481 531
L 3481 0
L 794 0
L 794 531
z
" transform="scale(0.015625)"/>
       </defs>
       <use xlink:href="#DejaVuSans-31"/>
       <use xlink:href="#DejaVuSans-30" transform="translate(63.623047 0)"/>
       <use xlink:href="#DejaVuSans-2e" transform="translate(127.246094 0)"/>
       <use xlink:href="#DejaVuSans-30" transform="translate(159.033203 0)"/>
       <use xlink:href="#DejaVuSans-25" transform="translate(222.65625 0)"/>
      </g>
     </g>
    </g>
    <g id="ytick_4">
     <g id="line2d_21">
      <path d="M 55.500781 191.247142
L 649.390781 191.247142
" clip-path="url(#p5a4a5eac32)" style="fill: none; stroke: #e6e8f0; stroke-width: 0.8; stroke-linecap: square"/>
     </g>
     <g id="line2d_22">
      <g>
       <use xlink:href="#md7d674da94" x="55.500781" y="191.247142" style="fill: #6f768a; stroke: #6f768a; stroke-width: 0.8"/>
      </g>
     </g>
     <g id="text_12">
      <!-- 15.0% -->
      <g style="fill: #6f768a" transform="translate(19.910313 194.666439) scale(0.09 -0.09)">
       <use xlink:href="#DejaVuSans-31"/>
       <use xlink:href="#DejaVuSans-35" transform="translate(63.623047 0)"/>
       <use xlink:href="#DejaVuSans-2e" transform="translate(127.246094 0)"/>
       <use xlink:href="#DejaVuSans-30" transform="translate(159.033203 0)"/>
       <use xlink:href="#DejaVuSans-25" transform="translate(222.65625 0)"/>
      </g>
     </g>
    </g>
    <g id="ytick_5">
     <g id="line2d_23">
      <path d="M 55.500781 137.610485
L 649.390781 137.610485
" clip-path="url(#p5a4a5eac32)" style="fill: none; stroke: #e6e8f0; stroke-width: 0.8; stroke-linecap: square"/>
     </g>
     <g id="line2d_24">
      <g>
       <use xlink:href="#md7d674da94" x="55.500781" y="137.610485" style="fill: #6f768a; stroke: #6f768a; stroke-width: 0.8"/>
      </g>
     </g>
     <g id="text_13">
      <!-- 20.0% -->
      <g style="fill: #6f768a" transform="translate(19.910313 141.029781) scale(0.09 -0.09)">
       <defs>
        <path id="DejaVuSans-32" d="M 1228 531
L 3431 531
L 3431 0
L 469 0
L 469 531
Q 828 903 1448 1529
Q 2069 2156 2228 2338
Q 2531 2678 2651 2914
Q 2772 3150 2772 3378
Q 2772 3750 2511 3984
Q 2250 4219 1831 4219
Q 1534 4219 1204 4116
Q 875 4013 500 3803
L 500 4441
Q 881 4594 1212 4672
Q 1544 4750 1819 4750
Q 2544 4750 2975 4387
Q 3406 4025 3406 3419
Q 3406 3131 3298 2873
Q 3191 2616 2906 2266
Q 2828 2175 2409 1742
Q 1991 1309 1228 531
z
" transform="scale(0.015625)"/>
       </defs>
       <use xlink:href="#DejaVuSans-32"/>
       <use xlink:href="#DejaVuSans-30" transform="translate(63.623047 0)"/>
       <use xlink:href="#DejaVuSans-2e" transform="translate(127.246094 0)"/>
       <use xlink:href="#DejaVuSans-30" transform="translate(159.033203 0)"/>
       <use xlink:href="#DejaVuSans-25" transform="translate(222.65625 0)"/>
      </g>
     </g>
    </g>
    <g id="ytick_6">
     <g id="line2d_25">
      <path d="M 55.500781 83.973827
L 649.390781 83.973827
" clip-path="url(#p5a4a5eac32)" style="fill: none; stroke: #e6e8f0; stroke-width: 0.8; stroke-linecap: square"/>
     </g>
     <g id="line2d_26">
      <g>
       <use xlink:href="#md7d674da94" x="55.500781" y="83.973827" style="fill: #6f768a; stroke: #6f768a; stroke-width: 0.8"/>
      </g>
     </g>
     <g id="text_14">
      <!-- 25.0% -->
      <g style="fill: #6f768a" transform="translate(19.910313 87.393124) scale(0.09 -0.09)">
       <use xlink:href="#DejaVuSans-32"/>
       <use xlink:href="#DejaVuSans-35" transform="translate(63.623047 0)"/>
       <use xlink:href="#DejaVuSans-2e" transform="translate(127.246094 0)"/>
       <use xlink:href="#DejaVuSans-30" transform="translate(159.033203 0)"/>
       <use xlink:href="#DejaVuSans-25" transform="translate(222.65625 0)"/>
      </g>
     </g>
    </g>
    <g id="text_15">
     <!-- Estimated uplift -->
     <g style="fill: #1f2430" transform="translate(14.038594 263.673406) rotate(-90) scale(0.09 -0.09)">
      <defs>
       <path id="DejaVuSans-45" d="M 628 4666
L 3578 4666
L 3578 4134
L 1259 4134
L 1259 2753
L 3481 2753
L 3481 2222
L 1259 2222
L 1259 531
L 3634 531
L 3634 0
L 628 0
L 628 4666
z
" transform="scale(0.015625)"/>
       <path id="DejaVuSans-6d" d="M 3328 2828
Q 3544 3216 3844 3400
Q 4144 3584 4550 3584
Q 5097 3584 5394 3201
Q 5691 2819 5691 2113
L 5691 0
L 5113 0
L 5113 2094
Q 5113 2597 4934 2840
Q 4756 3084 4391 3084
Q 3944 3084 3684 2787
Q 3425 2491 3425 1978
L 3425 0
L 2847 0
L 2847 2094
Q 2847 2600 2669 2842
Q 2491 3084 2119 3084
Q 1678 3084 1418 2786
Q 1159 2488 1159 1978
L 1159 0
L 581 0
L 581 3500
L 1159 3500
L 1159 2956
Q 1356 3278 1631 3431
Q 1906 3584 2284 3584
Q 2666 3584 2933 3390
Q 3200 3197 3328 2828
z
" transform="scale(0.015625)"/>
       <path id="DejaVuSans-61" d="M 2194 1759
Q 1497 1759 1228 1600
Q 959 1441 959 1056
Q 959 750 1161 570
Q 1363 391 1709 391
Q 2188 391 2477 730
Q 2766 1069 2766 1631
L 2766 1759
L 2194 1759
z
M 3341 1997
L 3341 0
L 2766 0
L 2766 531
Q 2569 213 2275 61
Q 1981 -91 1556 -91
Q 1019 -91 701 211
Q 384 513 384 1019
Q 384 1609 779 1909
Q 1175 2209 1959 2209
L 2766 2209
L 2766 2266
Q 2766 2663 2505 2880
Q 2244 3097 1772 3097
Q 1472 3097 1187 3025
Q 903 2953 641 2809
L 641 3341
Q 956 3463 1253 3523
Q 1550 3584 1831 3584
Q 2591 3584 2966 3190
Q 3341 2797 3341 1997
z
" transform="scale(0.015625)"/>
       <path id="DejaVuSans-75" d="M 544 1381
L 544 3500
L 1119 3500
L 1119 1403
Q 1119 906 1312 657
Q 1506 409 1894 409
Q 2359 409 2629 706
Q 2900 1003 2900 1516
L 2900 3500
L 3475 3500
L 3475 0
L 2900 0
L 2900 538
Q 2691 219 2414 64
Q 2138 -91 1772 -91
Q 1169 -91 856 284
Q 544 659 544 1381
z
M 1991 3584
L 1991 3584
z
" transform="scale(0.015625)"/>
       <path id="DejaVuSans-6c" d="M 603 4863
L 1178 4863
L 1178 0
L 603 0
L 603 4863
z
" transform="scale(0.015625)"/>
       <path id="DejaVuSans-66" d="M 2375 4863
L 2375 4384
L 1825 4384
Q 1516 4384 1395 4259
Q 1275 4134 1275 3809
L 1275 3500
L 2222 3500
L 2222 3053
L 1275 3053
L 1275 0
L 697 0
L 697 3053
L 147 3053
L 147 3500
L 697 3500
L 697 3744
Q 697 4328 969 4595
Q 1241 4863 1831 4863
L 2375 4863
z
" transform="scale(0.015625)"/>
      </defs>
      <use xlink:href="#DejaVuSans-45"/>
      <use xlink:href="#DejaVuSans-73" transform="translate(63.183594 0)"/>
      <use xlink:href="#DejaVuSans-74" transform="translate(115.283203 0)"/>
      <use xlink:href="#DejaVuSans-69" transform="translate(154.492188 0)"/>
      <use xlink:href="#DejaVuSans-6d" transform="translate(182.275391 0)"/>
      <use xlink:href="#DejaVuSans-61" transform="translate(279.6875 0)"/>
      <use xlink:href="#DejaVuSans-74" transform="translate(340.966797 0)"/>
      <use xlink:href="#DejaVuSans-65" transform="translate(380.175781 0)"/>
      <use xlink:href="#DejaVuSans-64" transform="translate(441.699219 0)"/>
      <use xlink:href="#DejaVuSans-20" transform="translate(505.175781 0)"/>
      <use xlink:href="#DejaVuSans-75" transform="translate(536.962891 0)"/>
      <use xlink:href="#DejaVuSans-70" transform="translate(600.341797 0)"/>
      <use xlink:href="#DejaVuSans-6c" transform="translate(663.818359 0)"/>
      <use xlink:href="#DejaVuSans-69" transform="translate(691.601562 0)"/>
      <use xlink:href="#DejaVuSans-66" transform="translate(719.384766 0)"/>
      <use xlink:href="#DejaVuSans-74" transform="translate(752.839844 0)"/>
     </g>
    </g>
   </g>
   <g id="line2d_27">
    <path d="M 55.500781 300.526453
L 649.390781 300.526453
" clip-path="url(#p5a4a5eac32)" style="fill: none; stroke-dasharray: 1,1.65; stroke-dashoffset: 0; stroke: #c5cad3"/>
   </g>
   <g id="line2d_28">
    <path d="M 441.990311 405.232
L 441.990311 50.832
" clip-path="url(#p5a4a5eac32)" style="fill: none; stroke-dasharray: 1,1.65; stroke-dashoffset: 0; stroke: #c5cad3"/>
   </g>
   <g id="patch_5">
    <path d="M 55.500781 405.232
L 55.500781 50.832
" style="fill: none; stroke: #d7dbe7; stroke-width: 0.8; stroke-linejoin: miter; stroke-linecap: square"/>
   </g>
   <g id="patch_6">
    <path d="M 55.500781 405.232
L 649.390781 405.232
" style="fill: none; stroke: #d7dbe7; stroke-width: 0.8; stroke-linejoin: miter; stroke-linecap: square"/>
   </g>
   <g id="patch_7">
    <path d="M 522.860321 308.17747
Q 548.072703 345.920761 572.664055 382.734362
" style="fill: none; stroke: #804126; stroke-linecap: round"/>
    <path d="M 572.205854 379.095948
L 572.664055 382.734362
L 569.478404 380.917875
" style="fill: none; stroke: #804126; stroke-linecap: round"/>
   </g>
   <g id="text_16">
    <!-- HCP0505 -->
    <g style="fill: #804126" transform="translate(482.768572 284.446977) scale(0.082 -0.082)">
     <defs>
      <path id="DejaVuSans-48" d="M 628 4666
L 1259 4666
L 1259 2753
L 3553 2753
L 3553 4666
L 4184 4666
L 4184 0
L 3553 0
L 3553 2222
L 1259 2222
L 1259 0
L 628 0
L 628 4666
z
" transform="scale(0.015625)"/>
      <path id="DejaVuSans-43" d="M 4122 4306
L 4122 3641
Q 3803 3938 3442 4084
Q 3081 4231 2675 4231
Q 1875 4231 1450 3742
Q 1025 3253 1025 2328
Q 1025 1406 1450 917
Q 1875 428 2675 428
Q 3081 428 3442 575
Q 3803 722 4122 1019
L 4122 359
Q 3791 134 3420 21
Q 3050 -91 2638 -91
Q 1578 -91 968 557
Q 359 1206 359 2328
Q 359 3453 968 4101
Q 1578 4750 2638 4750
Q 3056 4750 3426 4639
Q 3797 4528 4122 4306
z
" transform="scale(0.015625)"/>
     </defs>
     <use xlink:href="#DejaVuSans-48"/>
     <use xlink:href="#DejaVuSans-43" transform="translate(75.195312 0)"/>
     <use xlink:href="#DejaVuSans-50" transform="translate(145.019531 0)"/>
     <use xlink:href="#DejaVuSans-30" transform="translate(205.322266 0)"/>
     <use xlink:href="#DejaVuSans-35" transform="translate(268.945312 0)"/>
     <use xlink:href="#DejaVuSans-30" transform="translate(332.568359 0)"/>
     <use xlink:href="#DejaVuSans-35" transform="translate(396.191406 0)"/>
    </g>
    <!-- high response -->
    <g style="fill: #804126" transform="translate(482.768572 293.629183) scale(0.082 -0.082)">
     <defs>
      <path id="DejaVuSans-68" d="M 3513 2113
L 3513 0
L 2938 0
L 2938 2094
Q 2938 2591 2744 2837
Q 2550 3084 2163 3084
Q 1697 3084 1428 2787
Q 1159 2491 1159 1978
L 1159 0
L 581 0
L 581 4863
L 1159 4863
L 1159 2956
Q 1366 3272 1645 3428
Q 1925 3584 2291 3584
Q 2894 3584 3203 3211
Q 3513 2838 3513 2113
z
" transform="scale(0.015625)"/>
      <path id="DejaVuSans-67" d="M 2906 1791
Q 2906 2416 2648 2759
Q 2391 3103 1925 3103
Q 1463 3103 1205 2759
Q 947 2416 947 1791
Q 947 1169 1205 825
Q 1463 481 1925 481
Q 2391 481 2648 825
Q 2906 1169 2906 1791
z
M 3481 434
Q 3481 -459 3084 -895
Q 2688 -1331 1869 -1331
Q 1566 -1331 1297 -1286
Q 1028 -1241 775 -1147
L 775 -588
Q 1028 -725 1275 -790
Q 1522 -856 1778 -856
Q 2344 -856 2625 -561
Q 2906 -266 2906 331
L 2906 616
Q 2728 306 2450 153
Q 2172 0 1784 0
Q 1141 0 747 490
Q 353 981 353 1791
Q 353 2603 747 3093
Q 1141 3584 1784 3584
Q 2172 3584 2450 3431
Q 2728 3278 2906 2969
L 2906 3500
L 3481 3500
L 3481 434
z
" transform="scale(0.015625)"/>
     </defs>
     <use xlink:href="#DejaVuSans-68"/>
     <use xlink:href="#DejaVuSans-69" transform="translate(63.378906 0)"/>
     <use xlink:href="#DejaVuSans-67" transform="translate(91.162109 0)"/>
     <use xlink:href="#DejaVuSans-68" transform="translate(154.638672 0)"/>
     <use xlink:href="#DejaVuSans-20" transform="translate(218.017578 0)"/>
     <use xlink:href="#DejaVuSans-72" transform="translate(249.804688 0)"/>
     <use xlink:href="#DejaVuSans-65" transform="translate(288.667969 0)"/>
     <use xlink:href="#DejaVuSans-73" transform="translate(350.191406 0)"/>
     <use xlink:href="#DejaVuSans-70" transform="translate(402.291016 0)"/>
     <use xlink:href="#DejaVuSans-6f" transform="translate(465.767578 0)"/>
     <use xlink:href="#DejaVuSans-6e" transform="translate(526.949219 0)"/>
     <use xlink:href="#DejaVuSans-73" transform="translate(590.328125 0)"/>
     <use xlink:href="#DejaVuSans-65" transform="translate(642.427734 0)"/>
    </g>
    <!-- low uplift -->
    <g style="fill: #804126" transform="translate(482.768572 302.811389) scale(0.082 -0.082)">
     <defs>
      <path id="DejaVuSans-77" d="M 269 3500
L 844 3500
L 1563 769
L 2278 3500
L 2956 3500
L 3675 769
L 4391 3500
L 4966 3500
L 4050 0
L 3372 0
L 2619 2869
L 1863 0
L 1184 0
L 269 3500
z
" transform="scale(0.015625)"/>
     </defs>
     <use xlink:href="#DejaVuSans-6c"/>
     <use xlink:href="#DejaVuSans-6f" transform="translate(27.783203 0)"/>
     <use xlink:href="#DejaVuSans-77" transform="translate(88.964844 0)"/>
     <use xlink:href="#DejaVuSans-20" transform="translate(170.751953 0)"/>
     <use xlink:href="#DejaVuSans-75" transform="translate(202.539062 0)"/>
     <use xlink:href="#DejaVuSans-70" transform="translate(265.917969 0)"/>
     <use xlink:href="#DejaVuSans-6c" transform="translate(329.394531 0)"/>
     <use xlink:href="#DejaVuSans-69" transform="translate(357.177734 0)"/>
     <use xlink:href="#DejaVuSans-66" transform="translate(384.960938 0)"/>
     <use xlink:href="#DejaVuSans-74" transform="translate(418.416016 0)"/>
    </g>
   </g>
   <g id="text_17">
    <!-- Persuadable -->
    <g style="fill: #386411" transform="translate(95.383468 89.986793) scale(0.09 -0.09)">
     <defs>
      <path id="DejaVuSans-62" d="M 3116 1747
Q 3116 2381 2855 2742
Q 2594 3103 2138 3103
Q 1681 3103 1420 2742
Q 1159 2381 1159 1747
Q 1159 1113 1420 752
Q 1681 391 2138 391
Q 2594 391 2855 752
Q 3116 1113 3116 1747
z
M 1159 2969
Q 1341 3281 1617 3432
Q 1894 3584 2278 3584
Q 2916 3584 3314 3078
Q 3713 2572 3713 1747
Q 3713 922 3314 415
Q 2916 -91 2278 -91
Q 1894 -91 1617 61
Q 1341 213 1159 525
L 1159 0
L 581 0
L 581 4863
L 1159 4863
L 1159 2969
z
" transform="scale(0.015625)"/>
     </defs>
     <use xlink:href="#DejaVuSans-50"/>
     <use xlink:href="#DejaVuSans-65" transform="translate(56.677734 0)"/>
     <use xlink:href="#DejaVuSans-72" transform="translate(118.201172 0)"/>
     <use xlink:href="#DejaVuSans-73" transform="translate(159.314453 0)"/>
     <use xlink:href="#DejaVuSans-75" transform="translate(211.414062 0)"/>
     <use xlink:href="#DejaVuSans-61" transform="translate(274.792969 0)"/>
     <use xlink:href="#DejaVuSans-64" transform="translate(336.072266 0)"/>
     <use xlink:href="#DejaVuSans-61" transform="translate(399.548828 0)"/>
     <use xlink:href="#DejaVuSans-62" transform="translate(460.828125 0)"/>
     <use xlink:href="#DejaVuSans-6c" transform="translate(524.304688 0)"/>
     <use xlink:href="#DejaVuSans-65" transform="translate(552.087891 0)"/>
    </g>
    <!-- higher uplift -->
    <g style="fill: #386411" transform="translate(95.383468 100.064825) scale(0.09 -0.09)">
     <use xlink:href="#DejaVuSans-68"/>
     <use xlink:href="#DejaVuSans-69" transform="translate(63.378906 0)"/>
     <use xlink:href="#DejaVuSans-67" transform="translate(91.162109 0)"/>
     <use xlink:href="#DejaVuSans-68" transform="translate(154.638672 0)"/>
     <use xlink:href="#DejaVuSans-65" transform="translate(218.017578 0)"/>
     <use xlink:href="#DejaVuSans-72" transform="translate(279.541016 0)"/>
     <use xlink:href="#DejaVuSans-20" transform="translate(320.654297 0)"/>
     <use xlink:href="#DejaVuSans-75" transform="translate(352.441406 0)"/>
     <use xlink:href="#DejaVuSans-70" transform="translate(415.820312 0)"/>
     <use xlink:href="#DejaVuSans-6c" transform="translate(479.296875 0)"/>
     <use xlink:href="#DejaVuSans-69" transform="translate(507.080078 0)"/>
     <use xlink:href="#DejaVuSans-66" transform="translate(534.863281 0)"/>
     <use xlink:href="#DejaVuSans-74" transform="translate(568.318359 0)"/>
    </g>
   </g>
   <g id="text_18">
    <!-- gray: other eligible -->
    <g style="fill: #464c55" transform="translate(74.098572 384.339108) scale(0.082 -0.082)">
     <defs>
      <path id="DejaVuSans-79" d="M 2059 -325
Q 1816 -950 1584 -1140
Q 1353 -1331 966 -1331
L 506 -1331
L 506 -850
L 844 -850
Q 1081 -850 1212 -737
Q 1344 -625 1503 -206
L 1606 56
L 191 3500
L 800 3500
L 1894 763
L 2988 3500
L 3597 3500
L 2059 -325
z
" transform="scale(0.015625)"/>
      <path id="DejaVuSans-3a" d="M 750 794
L 1409 794
L 1409 0
L 750 0
L 750 794
z
M 750 3309
L 1409 3309
L 1409 2516
L 750 2516
L 750 3309
z
" transform="scale(0.015625)"/>
     </defs>
     <use xlink:href="#DejaVuSans-67"/>
     <use xlink:href="#DejaVuSans-72" transform="translate(63.476562 0)"/>
     <use xlink:href="#DejaVuSans-61" transform="translate(104.589844 0)"/>
     <use xlink:href="#DejaVuSans-79" transform="translate(165.869141 0)"/>
     <use xlink:href="#DejaVuSans-3a" transform="translate(217.798828 0)"/>
     <use xlink:href="#DejaVuSans-20" transform="translate(251.490234 0)"/>
     <use xlink:href="#DejaVuSans-6f" transform="translate(283.277344 0)"/>
     <use xlink:href="#DejaVuSans-74" transform="translate(344.458984 0)"/>
     <use xlink:href="#DejaVuSans-68" transform="translate(383.667969 0)"/>
     <use xlink:href="#DejaVuSans-65" transform="translate(447.046875 0)"/>
     <use xlink:href="#DejaVuSans-72" transform="translate(508.570312 0)"/>
     <use xlink:href="#DejaVuSans-20" transform="translate(549.683594 0)"/>
     <use xlink:href="#DejaVuSans-65" transform="translate(581.470703 0)"/>
     <use xlink:href="#DejaVuSans-6c" transform="translate(642.994141 0)"/>
     <use xlink:href="#DejaVuSans-69" transform="translate(670.777344 0)"/>
     <use xlink:href="#DejaVuSans-67" transform="translate(698.560547 0)"/>
     <use xlink:href="#DejaVuSans-69" transform="translate(762.037109 0)"/>
     <use xlink:href="#DejaVuSans-62" transform="translate(789.820312 0)"/>
     <use xlink:href="#DejaVuSans-6c" transform="translate(853.296875 0)"/>
     <use xlink:href="#DejaVuSans-65" transform="translate(881.080078 0)"/>
    </g>
   </g>
  </g>
  <g id="text_19">
   <!-- Response and Uplift Rank Different Relationships -->
   <g transform="translate(176.9715 15.406313) scale(0.108 -0.108)">
    <defs>
     <path id="DejaVuSans-Bold-52" d="M 2297 2597
Q 2675 2597 2839 2737
Q 3003 2878 3003 3200
Q 3003 3519 2839 3656
Q 2675 3794 2297 3794
L 1791 3794
L 1791 2597
L 2297 2597
z
M 1791 1766
L 1791 0
L 588 0
L 588 4666
L 2425 4666
Q 3347 4666 3776 4356
Q 4206 4047 4206 3378
Q 4206 2916 3982 2619
Q 3759 2322 3309 2181
Q 3556 2125 3751 1926
Q 3947 1728 4147 1325
L 4800 0
L 3519 0
L 2950 1159
Q 2778 1509 2601 1637
Q 2425 1766 2131 1766
L 1791 1766
z
" transform="scale(0.015625)"/>
     <path id="DejaVuSans-Bold-65" d="M 4031 1759
L 4031 1441
L 1416 1441
Q 1456 1047 1700 850
Q 1944 653 2381 653
Q 2734 653 3104 758
Q 3475 863 3866 1075
L 3866 213
Q 3469 63 3072 -14
Q 2675 -91 2278 -91
Q 1328 -91 801 392
Q 275 875 275 1747
Q 275 2603 792 3093
Q 1309 3584 2216 3584
Q 3041 3584 3536 3087
Q 4031 2591 4031 1759
z
M 2881 2131
Q 2881 2450 2695 2645
Q 2509 2841 2209 2841
Q 1884 2841 1681 2658
Q 1478 2475 1428 2131
L 2881 2131
z
" transform="scale(0.015625)"/>
     <path id="DejaVuSans-Bold-73" d="M 3272 3391
L 3272 2541
Q 2913 2691 2578 2766
Q 2244 2841 1947 2841
Q 1628 2841 1473 2761
Q 1319 2681 1319 2516
Q 1319 2381 1436 2309
Q 1553 2238 1856 2203
L 2053 2175
Q 2913 2066 3209 1816
Q 3506 1566 3506 1031
Q 3506 472 3093 190
Q 2681 -91 1863 -91
Q 1516 -91 1145 -36
Q 775 19 384 128
L 384 978
Q 719 816 1070 734
Q 1422 653 1784 653
Q 2113 653 2278 743
Q 2444 834 2444 1013
Q 2444 1163 2330 1236
Q 2216 1309 1875 1350
L 1678 1375
Q 931 1469 631 1722
Q 331 1975 331 2491
Q 331 3047 712 3315
Q 1094 3584 1881 3584
Q 2191 3584 2531 3537
Q 2872 3491 3272 3391
z
" transform="scale(0.015625)"/>
     <path id="DejaVuSans-Bold-70" d="M 1656 506
L 1656 -1331
L 538 -1331
L 538 3500
L 1656 3500
L 1656 2988
Q 1888 3294 2169 3439
Q 2450 3584 2816 3584
Q 3463 3584 3878 3070
Q 4294 2556 4294 1747
Q 4294 938 3878 423
Q 3463 -91 2816 -91
Q 2450 -91 2169 54
Q 1888 200 1656 506
z
M 2400 2772
Q 2041 2772 1848 2508
Q 1656 2244 1656 1747
Q 1656 1250 1848 986
Q 2041 722 2400 722
Q 2759 722 2948 984
Q 3138 1247 3138 1747
Q 3138 2247 2948 2509
Q 2759 2772 2400 2772
z
" transform="scale(0.015625)"/>
     <path id="DejaVuSans-Bold-6f" d="M 2203 2784
Q 1831 2784 1636 2517
Q 1441 2250 1441 1747
Q 1441 1244 1636 976
Q 1831 709 2203 709
Q 2569 709 2762 976
Q 2956 1244 2956 1747
Q 2956 2250 2762 2517
Q 2569 2784 2203 2784
z
M 2203 3584
Q 3106 3584 3614 3096
Q 4122 2609 4122 1747
Q 4122 884 3614 396
Q 3106 -91 2203 -91
Q 1297 -91 786 396
Q 275 884 275 1747
Q 275 2609 786 3096
Q 1297 3584 2203 3584
z
" transform="scale(0.015625)"/>
     <path id="DejaVuSans-Bold-6e" d="M 4056 2131
L 4056 0
L 2931 0
L 2931 347
L 2931 1631
Q 2931 2084 2911 2256
Q 2891 2428 2841 2509
Q 2775 2619 2662 2680
Q 2550 2741 2406 2741
Q 2056 2741 1856 2470
Q 1656 2200 1656 1722
L 1656 0
L 538 0
L 538 3500
L 1656 3500
L 1656 2988
Q 1909 3294 2193 3439
Q 2478 3584 2822 3584
Q 3428 3584 3742 3212
Q 4056 2841 4056 2131
z
" transform="scale(0.015625)"/>
     <path id="DejaVuSans-Bold-20" transform="scale(0.015625)"/>
     <path id="DejaVuSans-Bold-61" d="M 2106 1575
Q 1756 1575 1579 1456
Q 1403 1338 1403 1106
Q 1403 894 1545 773
Q 1688 653 1941 653
Q 2256 653 2472 879
Q 2688 1106 2688 1447
L 2688 1575
L 2106 1575
z
M 3816 1997
L 3816 0
L 2688 0
L 2688 519
Q 2463 200 2181 54
Q 1900 -91 1497 -91
Q 953 -91 614 226
Q 275 544 275 1050
Q 275 1666 698 1953
Q 1122 2241 2028 2241
L 2688 2241
L 2688 2328
Q 2688 2594 2478 2717
Q 2269 2841 1825 2841
Q 1466 2841 1156 2769
Q 847 2697 581 2553
L 581 3406
Q 941 3494 1303 3539
Q 1666 3584 2028 3584
Q 2975 3584 3395 3211
Q 3816 2838 3816 1997
z
" transform="scale(0.015625)"/>
     <path id="DejaVuSans-Bold-64" d="M 2919 2988
L 2919 4863
L 4044 4863
L 4044 0
L 2919 0
L 2919 506
Q 2688 197 2409 53
Q 2131 -91 1766 -91
Q 1119 -91 703 423
Q 288 938 288 1747
Q 288 2556 703 3070
Q 1119 3584 1766 3584
Q 2128 3584 2408 3439
Q 2688 3294 2919 2988
z
M 2181 722
Q 2541 722 2730 984
Q 2919 1247 2919 1747
Q 2919 2247 2730 2509
Q 2541 2772 2181 2772
Q 1825 2772 1636 2509
Q 1447 2247 1447 1747
Q 1447 1247 1636 984
Q 1825 722 2181 722
z
" transform="scale(0.015625)"/>
     <path id="DejaVuSans-Bold-55" d="M 588 4666
L 1791 4666
L 1791 1869
Q 1791 1291 1980 1042
Q 2169 794 2597 794
Q 3028 794 3217 1042
Q 3406 1291 3406 1869
L 3406 4666
L 4609 4666
L 4609 1869
Q 4609 878 4112 393
Q 3616 -91 2597 -91
Q 1581 -91 1084 393
Q 588 878 588 1869
L 588 4666
z
" transform="scale(0.015625)"/>
     <path id="DejaVuSans-Bold-6c" d="M 538 4863
L 1656 4863
L 1656 0
L 538 0
L 538 4863
z
" transform="scale(0.015625)"/>
     <path id="DejaVuSans-Bold-69" d="M 538 3500
L 1656 3500
L 1656 0
L 538 0
L 538 3500
z
M 538 4863
L 1656 4863
L 1656 3950
L 538 3950
L 538 4863
z
" transform="scale(0.015625)"/>
     <path id="DejaVuSans-Bold-66" d="M 2841 4863
L 2841 4128
L 2222 4128
Q 1984 4128 1890 4042
Q 1797 3956 1797 3744
L 1797 3500
L 2753 3500
L 2753 2700
L 1797 2700
L 1797 0
L 678 0
L 678 2700
L 122 2700
L 122 3500
L 678 3500
L 678 3744
Q 678 4316 997 4589
Q 1316 4863 1984 4863
L 2841 4863
z
" transform="scale(0.015625)"/>
     <path id="DejaVuSans-Bold-74" d="M 1759 4494
L 1759 3500
L 2913 3500
L 2913 2700
L 1759 2700
L 1759 1216
Q 1759 972 1856 886
Q 1953 800 2241 800
L 2816 800
L 2816 0
L 1856 0
Q 1194 0 917 276
Q 641 553 641 1216
L 641 2700
L 84 2700
L 84 3500
L 641 3500
L 641 4494
L 1759 4494
z
" transform="scale(0.015625)"/>
     <path id="DejaVuSans-Bold-6b" d="M 538 4863
L 1656 4863
L 1656 2216
L 2944 3500
L 4244 3500
L 2534 1894
L 4378 0
L 3022 0
L 1656 1459
L 1656 0
L 538 0
L 538 4863
z
" transform="scale(0.015625)"/>
     <path id="DejaVuSans-Bold-44" d="M 1791 3756
L 1791 909
L 2222 909
Q 2959 909 3348 1275
Q 3738 1641 3738 2338
Q 3738 3031 3350 3393
Q 2963 3756 2222 3756
L 1791 3756
z
M 588 4666
L 1856 4666
Q 2919 4666 3439 4514
Q 3959 4363 4331 4000
Q 4659 3684 4818 3271
Q 4978 2859 4978 2338
Q 4978 1809 4818 1395
Q 4659 981 4331 666
Q 3956 303 3431 151
Q 2906 0 1856 0
L 588 0
L 588 4666
z
" transform="scale(0.015625)"/>
     <path id="DejaVuSans-Bold-72" d="M 3138 2547
Q 2991 2616 2845 2648
Q 2700 2681 2553 2681
Q 2122 2681 1889 2404
Q 1656 2128 1656 1613
L 1656 0
L 538 0
L 538 3500
L 1656 3500
L 1656 2925
Q 1872 3269 2151 3426
Q 2431 3584 2822 3584
Q 2878 3584 2943 3579
Q 3009 3575 3134 3559
L 3138 2547
z
" transform="scale(0.015625)"/>
     <path id="DejaVuSans-Bold-68" d="M 4056 2131
L 4056 0
L 2931 0
L 2931 347
L 2931 1625
Q 2931 2084 2911 2256
Q 2891 2428 2841 2509
Q 2775 2619 2662 2680
Q 2550 2741 2406 2741
Q 2056 2741 1856 2470
Q 1656 2200 1656 1722
L 1656 0
L 538 0
L 538 4863
L 1656 4863
L 1656 2988
Q 1909 3294 2193 3439
Q 2478 3584 2822 3584
Q 3428 3584 3742 3212
Q 4056 2841 4056 2131
z
" transform="scale(0.015625)"/>
    </defs>
    <use xlink:href="#DejaVuSans-Bold-52"/>
    <use xlink:href="#DejaVuSans-Bold-65" transform="translate(77.001953 0)"/>
    <use xlink:href="#DejaVuSans-Bold-73" transform="translate(144.824219 0)"/>
    <use xlink:href="#DejaVuSans-Bold-70" transform="translate(204.345703 0)"/>
    <use xlink:href="#DejaVuSans-Bold-6f" transform="translate(275.927734 0)"/>
    <use xlink:href="#DejaVuSans-Bold-6e" transform="translate(344.628906 0)"/>
    <use xlink:href="#DejaVuSans-Bold-73" transform="translate(415.820312 0)"/>
    <use xlink:href="#DejaVuSans-Bold-65" transform="translate(475.341797 0)"/>
    <use xlink:href="#DejaVuSans-Bold-20" transform="translate(543.164062 0)"/>
    <use xlink:href="#DejaVuSans-Bold-61" transform="translate(577.978516 0)"/>
    <use xlink:href="#DejaVuSans-Bold-6e" transform="translate(645.458984 0)"/>
    <use xlink:href="#DejaVuSans-Bold-64" transform="translate(716.650391 0)"/>
    <use xlink:href="#DejaVuSans-Bold-20" transform="translate(788.232422 0)"/>
    <use xlink:href="#DejaVuSans-Bold-55" transform="translate(823.046875 0)"/>
    <use xlink:href="#DejaVuSans-Bold-70" transform="translate(904.248047 0)"/>
    <use xlink:href="#DejaVuSans-Bold-6c" transform="translate(975.830078 0)"/>
    <use xlink:href="#DejaVuSans-Bold-69" transform="translate(1010.107422 0)"/>
    <use xlink:href="#DejaVuSans-Bold-66" transform="translate(1044.384766 0)"/>
    <use xlink:href="#DejaVuSans-Bold-74" transform="translate(1087.890625 0)"/>
    <use xlink:href="#DejaVuSans-Bold-20" transform="translate(1135.693359 0)"/>
    <use xlink:href="#DejaVuSans-Bold-52" transform="translate(1170.507812 0)"/>
    <use xlink:href="#DejaVuSans-Bold-61" transform="translate(1247.509766 0)"/>
    <use xlink:href="#DejaVuSans-Bold-6e" transform="translate(1314.990234 0)"/>
    <use xlink:href="#DejaVuSans-Bold-6b" transform="translate(1386.181641 0)"/>
    <use xlink:href="#DejaVuSans-Bold-20" transform="translate(1452.685547 0)"/>
    <use xlink:href="#DejaVuSans-Bold-44" transform="translate(1487.5 0)"/>
    <use xlink:href="#DejaVuSans-Bold-69" transform="translate(1570.507812 0)"/>
    <use xlink:href="#DejaVuSans-Bold-66" transform="translate(1604.785156 0)"/>
    <use xlink:href="#DejaVuSans-Bold-66" transform="translate(1648.291016 0)"/>
    <use xlink:href="#DejaVuSans-Bold-65" transform="translate(1691.796875 0)"/>
    <use xlink:href="#DejaVuSans-Bold-72" transform="translate(1759.619141 0)"/>
    <use xlink:href="#DejaVuSans-Bold-65" transform="translate(1808.935547 0)"/>
    <use xlink:href="#DejaVuSans-Bold-6e" transform="translate(1876.757812 0)"/>
    <use xlink:href="#DejaVuSans-Bold-74" transform="translate(1947.949219 0)"/>
    <use xlink:href="#DejaVuSans-Bold-20" transform="translate(1995.751953 0)"/>
    <use xlink:href="#DejaVuSans-Bold-52" transform="translate(2030.566406 0)"/>
    <use xlink:href="#DejaVuSans-Bold-65" transform="translate(2107.568359 0)"/>
    <use xlink:href="#DejaVuSans-Bold-6c" transform="translate(2175.390625 0)"/>
    <use xlink:href="#DejaVuSans-Bold-61" transform="translate(2209.667969 0)"/>
    <use xlink:href="#DejaVuSans-Bold-74" transform="translate(2277.148438 0)"/>
    <use xlink:href="#DejaVuSans-Bold-69" transform="translate(2324.951172 0)"/>
    <use xlink:href="#DejaVuSans-Bold-6f" transform="translate(2359.228516 0)"/>
    <use xlink:href="#DejaVuSans-Bold-6e" transform="translate(2427.929688 0)"/>
    <use xlink:href="#DejaVuSans-Bold-73" transform="translate(2499.121094 0)"/>
    <use xlink:href="#DejaVuSans-Bold-68" transform="translate(2558.642578 0)"/>
    <use xlink:href="#DejaVuSans-Bold-69" transform="translate(2629.833984 0)"/>
    <use xlink:href="#DejaVuSans-Bold-70" transform="translate(2664.111328 0)"/>
    <use xlink:href="#DejaVuSans-Bold-73" transform="translate(2735.693359 0)"/>
   </g>
  </g>
 </g>
 <defs>
  <clipPath id="p5a4a5eac32">
   <rect x="55.500781" y="50.832" width="593.89" height="354.4"/>
  </clipPath>
 </defs>
</svg>
