<?xml version="1.0" encoding="utf-8" standalone="no"?>
<!DOCTYPE svg PUBLIC "-//W3C//DTD SVG 1.1//EN"
  "http://www.w3.org/Graphics/SVG/1.1/DTD/svg11.dtd">
<svg xmlns:xlink="http://www.w3.org/1999/xlink" width="643.143125pt" height="392.428437pt" viewBox="0 0 643.143125 392.428437" xmlns="http://www.w3.org/2000/svg" version="1.1">
 <metadata>
  <rdf:RDF xmlns:dc="http://purl.org/dc/elements/1.1/" xmlns:cc="http://creativecommons.org/ns#" xmlns:rdf="http://www.w3.org/1999/02/22-rdf-syntax-ns#">
   <cc:Work>
    <dc:type rdf:resource="http://purl.org/dc/dcmitype/StillImage"/>
    <dc:date>2026-06-21T19:57:48.682731</dc:date>
    <dc:format>image/svg+xml</dc:format>
    <dc:creator>
     <cc:Agent>
      <dc:title>Matplotlib v3.10.9, https://matplotlib.org/</dc:title>
     </cc:Agent>
    </dc:creator>
   </cc:Work>
  </rdf:RDF>
 </metadata>
 <defs>
  <style type="text/css">*{stroke-linejoin: round; stroke-linecap: butt}</style>
 </defs>
 <g id="figure_1">
  <g id="patch_1">
   <path d="M 0 392.428437 
L 643.143125 392.428437 
L 643.143125 0 
L 0 0 
z
" style="fill: #ffffff"/>
  </g>
  <g id="axes_1">
   <g id="patch_2">
    <path d="M 45.056875 355.84 
L 630.216875 355.84 
L 630.216875 29.76 
L 45.056875 29.76 
z
" style="fill: #ffffff"/>
   </g>
   <g id="line2d_1">
    <path d="M 45.056875 204.877037 
L 630.216875 204.877037 
" clip-path="url(#pa77d991c6a)" style="fill: none; stroke-dasharray: 3.7,1.6; stroke-dashoffset: 0; stroke: #7c8795"/>
   </g>
   <g id="matplotlib.axis_1">
    <g id="xtick_1">
     <g id="line2d_2">
      <defs>
       <path id="m0b1611b2e9" d="M 0 0 
L 0 3.5 
" style="stroke: #000000; stroke-width: 0.8"/>
      </defs>
      <g>
       <use xlink:href="#m0b1611b2e9" x="45.056875" y="355.84" style="stroke: #000000; stroke-width: 0.8"/>
      </g>
     </g>
     <g id="text_1">
      <!-- 0 -->
      <g transform="translate(42.19375 369.678594) scale(0.09 -0.09)">
       <defs>
        <path id="DejaVuSans-30" d="M 2034 4250 
Q 1547 4250 1301 3770 
Q 1056 3291 1056 2328 
Q 1056 1369 1301 889 
Q 1547 409 2034 409 
Q 2525 409 2770 889 
Q 3016 1369 3016 2328 
Q 3016 3291 2770 3770 
Q 2525 4250 2034 4250 
z
M 2034 4750 
Q 2819 4750 3233 4129 
Q 3647 3509 3647 2328 
Q 3647 1150 3233 529 
Q 2819 -91 2034 -91 
Q 1250 -91 836 529 
Q 422 1150 422 2328 
Q 422 3509 836 4129 
Q 1250 4750 2034 4750 
z
" transform="scale(0.015625)"/>
       </defs>
       <use xlink:href="#DejaVuSans-30"/>
      </g>
     </g>
    </g>
    <g id="xtick_2">
     <g id="line2d_3">
      <g>
       <use xlink:href="#m0b1611b2e9" x="128.651161" y="355.84" style="stroke: #000000; stroke-width: 0.8"/>
      </g>
     </g>
     <g id="text_2">
      <!-- 10 -->
      <g transform="translate(122.924911 369.678594) scale(0.09 -0.09)">
       <defs>
        <path id="DejaVuSans-31" d="M 794 531 
L 1825 531 
L 1825 4091 
L 703 3866 
L 703 4441 
L 1819 4666 
L 2450 4666 
L 2450 531 
L 3481 531 
L 3481 0 
L 794 0 
L 794 531 
z
" transform="scale(0.015625)"/>
       </defs>
       <use xlink:href="#DejaVuSans-31"/>
       <use xlink:href="#DejaVuSans-30" transform="translate(63.623047 0)"/>
      </g>
     </g>
    </g>
    <g id="xtick_3">
     <g id="line2d_4">
      <g>
       <use xlink:href="#m0b1611b2e9" x="212.245446" y="355.84" style="stroke: #000000; stroke-width: 0.8"/>
      </g>
     </g>
     <g id="text_3">
      <!-- 20 -->
      <g transform="translate(206.519196 369.678594) scale(0.09 -0.09)">
       <defs>
        <path id="DejaVuSans-32" d="M 1228 531 
L 3431 531 
L 3431 0 
L 469 0 
L 469 531 
Q 828 903 1448 1529 
Q 2069 2156 2228 2338 
Q 2531 2678 2651 2914 
Q 2772 3150 2772 3378 
Q 2772 3750 2511 3984 
Q 2250 4219 1831 4219 
Q 1534 4219 1204 4116 
Q 875 4013 500 3803 
L 500 4441 
Q 881 4594 1212 4672 
Q 1544 4750 1819 4750 
Q 2544 4750 2975 4387 
Q 3406 4025 3406 3419 
Q 3406 3131 3298 2873 
Q 3191 2616 2906 2266 
Q 2828 2175 2409 1742 
Q 1991 1309 1228 531 
z
" transform="scale(0.015625)"/>
       </defs>
       <use xlink:href="#DejaVuSans-32"/>
       <use xlink:href="#DejaVuSans-30" transform="translate(63.623047 0)"/>
      </g>
     </g>
    </g>
    <g id="xtick_4">
     <g id="line2d_5">
      <g>
       <use xlink:href="#m0b1611b2e9" x="295.839732" y="355.84" style="stroke: #000000; stroke-width: 0.8"/>
      </g>
     </g>
     <g id="text_4">
      <!-- 30 -->
      <g transform="translate(290.113482 369.678594) scale(0.09 -0.09)">
       <defs>
        <path id="DejaVuSans-33" d="M 2597 2516 
Q 3050 2419 3304 2112 
Q 3559 1806 3559 1356 
Q 3559 666 3084 287 
Q 2609 -91 1734 -91 
Q 1441 -91 1130 -33 
Q 819 25 488 141 
L 488 750 
Q 750 597 1062 519 
Q 1375 441 1716 441 
Q 2309 441 2620 675 
Q 2931 909 2931 1356 
Q 2931 1769 2642 2001 
Q 2353 2234 1838 2234 
L 1294 2234 
L 1294 2753 
L 1863 2753 
Q 2328 2753 2575 2939 
Q 2822 3125 2822 3475 
Q 2822 3834 2567 4026 
Q 2313 4219 1838 4219 
Q 1578 4219 1281 4162 
Q 984 4106 628 3988 
L 628 4550 
Q 988 4650 1302 4700 
Q 1616 4750 1894 4750 
Q 2613 4750 3031 4423 
Q 3450 4097 3450 3541 
Q 3450 3153 3228 2886 
Q 3006 2619 2597 2516 
z
" transform="scale(0.015625)"/>
       </defs>
       <use xlink:href="#DejaVuSans-33"/>
       <use xlink:href="#DejaVuSans-30" transform="translate(63.623047 0)"/>
      </g>
     </g>
    </g>
    <g id="xtick_5">
     <g id="line2d_6">
      <g>
       <use xlink:href="#m0b1611b2e9" x="379.434018" y="355.84" style="stroke: #000000; stroke-width: 0.8"/>
      </g>
     </g>
     <g id="text_5">
      <!-- 40 -->
      <g transform="translate(373.707768 369.678594) scale(0.09 -0.09)">
       <defs>
        <path id="DejaVuSans-34" d="M 2419 4116 
L 825 1625 
L 2419 1625 
L 2419 4116 
z
M 2253 4666 
L 3047 4666 
L 3047 1625 
L 3713 1625 
L 3713 1100 
L 3047 1100 
L 3047 0 
L 2419 0 
L 2419 1100 
L 313 1100 
L 313 1709 
L 2253 4666 
z
" transform="scale(0.015625)"/>
       </defs>
       <use xlink:href="#DejaVuSans-34"/>
       <use xlink:href="#DejaVuSans-30" transform="translate(63.623047 0)"/>
      </g>
     </g>
    </g>
    <g id="xtick_6">
     <g id="line2d_7">
      <g>
       <use xlink:href="#m0b1611b2e9" x="463.028304" y="355.84" style="stroke: #000000; stroke-width: 0.8"/>
      </g>
     </g>
     <g id="text_6">
      <!-- 50 -->
      <g transform="translate(457.302054 369.678594) scale(0.09 -0.09)">
       <defs>
        <path id="DejaVuSans-35" d="M 691 4666 
L 3169 4666 
L 3169 4134 
L 1269 4134 
L 1269 2991 
Q 1406 3038 1543 3061 
Q 1681 3084 1819 3084 
Q 2600 3084 3056 2656 
Q 3513 2228 3513 1497 
Q 3513 744 3044 326 
Q 2575 -91 1722 -91 
Q 1428 -91 1123 -41 
Q 819 9 494 109 
L 494 744 
Q 775 591 1075 516 
Q 1375 441 1709 441 
Q 2250 441 2565 725 
Q 2881 1009 2881 1497 
Q 2881 1984 2565 2268 
Q 2250 2553 1709 2553 
Q 1456 2553 1204 2497 
Q 953 2441 691 2322 
L 691 4666 
z
" transform="scale(0.015625)"/>
       </defs>
       <use xlink:href="#DejaVuSans-35"/>
       <use xlink:href="#DejaVuSans-30" transform="translate(63.623047 0)"/>
      </g>
     </g>
    </g>
    <g id="xtick_7">
     <g id="line2d_8">
      <g>
       <use xlink:href="#m0b1611b2e9" x="546.622589" y="355.84" style="stroke: #000000; stroke-width: 0.8"/>
      </g>
     </g>
     <g id="text_7">
      <!-- 60 -->
      <g transform="translate(540.896339 369.678594) scale(0.09 -0.09)">
       <defs>
        <path id="DejaVuSans-36" d="M 2113 2584 
Q 1688 2584 1439 2293 
Q 1191 2003 1191 1497 
Q 1191 994 1439 701 
Q 1688 409 2113 409 
Q 2538 409 2786 701 
Q 3034 994 3034 1497 
Q 3034 2003 2786 2293 
Q 2538 2584 2113 2584 
z
M 3366 4563 
L 3366 3988 
Q 3128 4100 2886 4159 
Q 2644 4219 2406 4219 
Q 1781 4219 1451 3797 
Q 1122 3375 1075 2522 
Q 1259 2794 1537 2939 
Q 1816 3084 2150 3084 
Q 2853 3084 3261 2657 
Q 3669 2231 3669 1497 
Q 3669 778 3244 343 
Q 2819 -91 2113 -91 
Q 1303 -91 875 529 
Q 447 1150 447 2328 
Q 447 3434 972 4092 
Q 1497 4750 2381 4750 
Q 2619 4750 2861 4703 
Q 3103 4656 3366 4563 
z
" transform="scale(0.015625)"/>
       </defs>
       <use xlink:href="#DejaVuSans-36"/>
       <use xlink:href="#DejaVuSans-30" transform="translate(63.623047 0)"/>
      </g>
     </g>
    </g>
    <g id="xtick_8">
     <g id="line2d_9">
      <g>
       <use xlink:href="#m0b1611b2e9" x="630.216875" y="355.84" style="stroke: #000000; stroke-width: 0.8"/>
      </g>
     </g>
     <g id="text_8">
      <!-- 70 -->
      <g transform="translate(624.490625 369.678594) scale(0.09 -0.09)">
       <defs>
        <path id="DejaVuSans-37" d="M 525 4666 
L 3525 4666 
L 3525 4397 
L 1831 0 
L 1172 0 
L 2766 4134 
L 525 4134 
L 525 4666 
z
" transform="scale(0.015625)"/>
       </defs>
       <use xlink:href="#DejaVuSans-37"/>
       <use xlink:href="#DejaVuSans-30" transform="translate(63.623047 0)"/>
      </g>
     </g>
    </g>
    <g id="text_9">
     <!-- Weeks since first fill -->
     <g transform="translate(287.881406 383.14875) scale(0.1 -0.1)">
      <defs>
       <path id="DejaVuSans-57" d="M 213 4666 
L 850 4666 
L 1831 722 
L 2809 4666 
L 3519 4666 
L 4500 722 
L 5478 4666 
L 6119 4666 
L 4947 0 
L 4153 0 
L 3169 4050 
L 2175 0 
L 1381 0 
L 213 4666 
z
" transform="scale(0.015625)"/>
       <path id="DejaVuSans-65" d="M 3597 1894 
L 3597 1613 
L 953 1613 
Q 991 1019 1311 708 
Q 1631 397 2203 397 
Q 2534 397 2845 478 
Q 3156 559 3463 722 
L 3463 178 
Q 3153 47 2828 -22 
Q 2503 -91 2169 -91 
Q 1331 -91 842 396 
Q 353 884 353 1716 
Q 353 2575 817 3079 
Q 1281 3584 2069 3584 
Q 2775 3584 3186 3129 
Q 3597 2675 3597 1894 
z
M 3022 2063 
Q 3016 2534 2758 2815 
Q 2500 3097 2075 3097 
Q 1594 3097 1305 2825 
Q 1016 2553 972 2059 
L 3022 2063 
z
" transform="scale(0.015625)"/>
       <path id="DejaVuSans-6b" d="M 581 4863 
L 1159 4863 
L 1159 1991 
L 2875 3500 
L 3609 3500 
L 1753 1863 
L 3688 0 
L 2938 0 
L 1159 1709 
L 1159 0 
L 581 0 
L 581 4863 
z
" transform="scale(0.015625)"/>
       <path id="DejaVuSans-73" d="M 2834 3397 
L 2834 2853 
Q 2591 2978 2328 3040 
Q 2066 3103 1784 3103 
Q 1356 3103 1142 2972 
Q 928 2841 928 2578 
Q 928 2378 1081 2264 
Q 1234 2150 1697 2047 
L 1894 2003 
Q 2506 1872 2764 1633 
Q 3022 1394 3022 966 
Q 3022 478 2636 193 
Q 2250 -91 1575 -91 
Q 1294 -91 989 -36 
Q 684 19 347 128 
L 347 722 
Q 666 556 975 473 
Q 1284 391 1588 391 
Q 1994 391 2212 530 
Q 2431 669 2431 922 
Q 2431 1156 2273 1281 
Q 2116 1406 1581 1522 
L 1381 1569 
Q 847 1681 609 1914 
Q 372 2147 372 2553 
Q 372 3047 722 3315 
Q 1072 3584 1716 3584 
Q 2034 3584 2315 3537 
Q 2597 3491 2834 3397 
z
" transform="scale(0.015625)"/>
       <path id="DejaVuSans-20" transform="scale(0.015625)"/>
       <path id="DejaVuSans-69" d="M 603 3500 
L 1178 3500 
L 1178 0 
L 603 0 
L 603 3500 
z
M 603 4863 
L 1178 4863 
L 1178 4134 
L 603 4134 
L 603 4863 
z
" transform="scale(0.015625)"/>
       <path id="DejaVuSans-6e" d="M 3513 2113 
L 3513 0 
L 2938 0 
L 2938 2094 
Q 2938 2591 2744 2837 
Q 2550 3084 2163 3084 
Q 1697 3084 1428 2787 
Q 1159 2491 1159 1978 
L 1159 0 
L 581 0 
L 581 3500 
L 1159 3500 
L 1159 2956 
Q 1366 3272 1645 3428 
Q 1925 3584 2291 3584 
Q 2894 3584 3203 3211 
Q 3513 2838 3513 2113 
z
" transform="scale(0.015625)"/>
       <path id="DejaVuSans-63" d="M 3122 3366 
L 3122 2828 
Q 2878 2963 2633 3030 
Q 2388 3097 2138 3097 
Q 1578 3097 1268 2742 
Q 959 2388 959 1747 
Q 959 1106 1268 751 
Q 1578 397 2138 397 
Q 2388 397 2633 464 
Q 2878 531 3122 666 
L 3122 134 
Q 2881 22 2623 -34 
Q 2366 -91 2075 -91 
Q 1284 -91 818 406 
Q 353 903 353 1747 
Q 353 2603 823 3093 
Q 1294 3584 2113 3584 
Q 2378 3584 2631 3529 
Q 2884 3475 3122 3366 
z
" transform="scale(0.015625)"/>
       <path id="DejaVuSans-66" d="M 2375 4863 
L 2375 4384 
L 1825 4384 
Q 1516 4384 1395 4259 
Q 1275 4134 1275 3809 
L 1275 3500 
L 2222 3500 
L 2222 3053 
L 1275 3053 
L 1275 0 
L 697 0 
L 697 3053 
L 147 3053 
L 147 3500 
L 697 3500 
L 697 3744 
Q 697 4328 969 4595 
Q 1241 4863 1831 4863 
L 2375 4863 
z
" transform="scale(0.015625)"/>
       <path id="DejaVuSans-72" d="M 2631 2963 
Q 2534 3019 2420 3045 
Q 2306 3072 2169 3072 
Q 1681 3072 1420 2755 
Q 1159 2438 1159 1844 
L 1159 0 
L 581 0 
L 581 3500 
L 1159 3500 
L 1159 2956 
Q 1341 3275 1631 3429 
Q 1922 3584 2338 3584 
Q 2397 3584 2469 3576 
Q 2541 3569 2628 3553 
L 2631 2963 
z
" transform="scale(0.015625)"/>
       <path id="DejaVuSans-74" d="M 1172 4494 
L 1172 3500 
L 2356 3500 
L 2356 3053 
L 1172 3053 
L 1172 1153 
Q 1172 725 1289 603 
Q 1406 481 1766 481 
L 2356 481 
L 2356 0 
L 1766 0 
Q 1100 0 847 248 
Q 594 497 594 1153 
L 594 3053 
L 172 3053 
L 172 3500 
L 594 3500 
L 594 4494 
L 1172 4494 
z
" transform="scale(0.015625)"/>
       <path id="DejaVuSans-6c" d="M 603 4863 
L 1178 4863 
L 1178 0 
L 603 0 
L 603 4863 
z
" transform="scale(0.015625)"/>
      </defs>
      <use xlink:href="#DejaVuSans-57"/>
      <use xlink:href="#DejaVuSans-65" transform="translate(93.001953 0)"/>
      <use xlink:href="#DejaVuSans-65" transform="translate(154.525391 0)"/>
      <use xlink:href="#DejaVuSans-6b" transform="translate(216.048828 0)"/>
      <use xlink:href="#DejaVuSans-73" transform="translate(273.958984 0)"/>
      <use xlink:href="#DejaVuSans-20" transform="translate(326.058594 0)"/>
      <use xlink:href="#DejaVuSans-73" transform="translate(357.845703 0)"/>
      <use xlink:href="#DejaVuSans-69" transform="translate(409.945312 0)"/>
      <use xlink:href="#DejaVuSans-6e" transform="translate(437.728516 0)"/>
      <use xlink:href="#DejaVuSans-63" transform="translate(501.107422 0)"/>
      <use xlink:href="#DejaVuSans-65" transform="translate(556.087891 0)"/>
      <use xlink:href="#DejaVuSans-20" transform="translate(617.611328 0)"/>
      <use xlink:href="#DejaVuSans-66" transform="translate(649.398438 0)"/>
      <use xlink:href="#DejaVuSans-69" transform="translate(684.603516 0)"/>
      <use xlink:href="#DejaVuSans-72" transform="translate(712.386719 0)"/>
      <use xlink:href="#DejaVuSans-73" transform="translate(753.5 0)"/>
      <use xlink:href="#DejaVuSans-74" transform="translate(805.599609 0)"/>
      <use xlink:href="#DejaVuSans-20" transform="translate(844.808594 0)"/>
      <use xlink:href="#DejaVuSans-66" transform="translate(876.595703 0)"/>
      <use xlink:href="#DejaVuSans-69" transform="translate(911.800781 0)"/>
      <use xlink:href="#DejaVuSans-6c" transform="translate(939.583984 0)"/>
      <use xlink:href="#DejaVuSans-6c" transform="translate(967.367188 0)"/>
     </g>
    </g>
   </g>
   <g id="matplotlib.axis_2">
    <g id="ytick_1">
     <g id="line2d_10">
      <defs>
       <path id="mb6fc626244" d="M 0 0 
L -3.5 0 
" style="stroke: #000000; stroke-width: 0.8"/>
      </defs>
      <g>
       <use xlink:href="#mb6fc626244" x="45.056875" y="355.84" style="stroke: #000000; stroke-width: 0.8"/>
      </g>
     </g>
     <g id="text_10">
      <!-- 0 -->
      <g transform="translate(32.330625 359.259297) scale(0.09 -0.09)">
       <use xlink:href="#DejaVuSans-30"/>
      </g>
     </g>
    </g>
    <g id="ytick_2">
     <g id="line2d_11">
      <g>
       <use xlink:href="#mb6fc626244" x="45.056875" y="295.454815" style="stroke: #000000; stroke-width: 0.8"/>
      </g>
     </g>
     <g id="text_11">
      <!-- 20 -->
      <g transform="translate(26.604375 298.874112) scale(0.09 -0.09)">
       <use xlink:href="#DejaVuSans-32"/>
       <use xlink:href="#DejaVuSans-30" transform="translate(63.623047 0)"/>
      </g>
     </g>
    </g>
    <g id="ytick_3">
     <g id="line2d_12">
      <g>
       <use xlink:href="#mb6fc626244" x="45.056875" y="235.06963" style="stroke: #000000; stroke-width: 0.8"/>
      </g>
     </g>
     <g id="text_12">
      <!-- 40 -->
      <g transform="translate(26.604375 238.488927) scale(0.09 -0.09)">
       <use xlink:href="#DejaVuSans-34"/>
       <use xlink:href="#DejaVuSans-30" transform="translate(63.623047 0)"/>
      </g>
     </g>
    </g>
    <g id="ytick_4">
     <g id="line2d_13">
      <g>
       <use xlink:href="#mb6fc626244" x="45.056875" y="174.684444" style="stroke: #000000; stroke-width: 0.8"/>
      </g>
     </g>
     <g id="text_13">
      <!-- 60 -->
      <g transform="translate(26.604375 178.103741) scale(0.09 -0.09)">
       <use xlink:href="#DejaVuSans-36"/>
       <use xlink:href="#DejaVuSans-30" transform="translate(63.623047 0)"/>
      </g>
     </g>
    </g>
    <g id="ytick_5">
     <g id="line2d_14">
      <g>
       <use xlink:href="#mb6fc626244" x="45.056875" y="114.299259" style="stroke: #000000; stroke-width: 0.8"/>
      </g>
     </g>
     <g id="text_14">
      <!-- 80 -->
      <g transform="translate(26.604375 117.718556) scale(0.09 -0.09)">
       <defs>
        <path id="DejaVuSans-38" d="M 2034 2216 
Q 1584 2216 1326 1975 
Q 1069 1734 1069 1313 
Q 1069 891 1326 650 
Q 1584 409 2034 409 
Q 2484 409 2743 651 
Q 3003 894 3003 1313 
Q 3003 1734 2745 1975 
Q 2488 2216 2034 2216 
z
M 1403 2484 
Q 997 2584 770 2862 
Q 544 3141 544 3541 
Q 544 4100 942 4425 
Q 1341 4750 2034 4750 
Q 2731 4750 3128 4425 
Q 3525 4100 3525 3541 
Q 3525 3141 3298 2862 
Q 3072 2584 2669 2484 
Q 3125 2378 3379 2068 
Q 3634 1759 3634 1313 
Q 3634 634 3220 271 
Q 2806 -91 2034 -91 
Q 1263 -91 848 271 
Q 434 634 434 1313 
Q 434 1759 690 2068 
Q 947 2378 1403 2484 
z
M 1172 3481 
Q 1172 3119 1398 2916 
Q 1625 2713 2034 2713 
Q 2441 2713 2670 2916 
Q 2900 3119 2900 3481 
Q 2900 3844 2670 4047 
Q 2441 4250 2034 4250 
Q 1625 4250 1398 4047 
Q 1172 3844 1172 3481 
z
" transform="scale(0.015625)"/>
       </defs>
       <use xlink:href="#DejaVuSans-38"/>
       <use xlink:href="#DejaVuSans-30" transform="translate(63.623047 0)"/>
      </g>
     </g>
    </g>
    <g id="ytick_6">
     <g id="line2d_15">
      <g>
       <use xlink:href="#mb6fc626244" x="45.056875" y="53.914074" style="stroke: #000000; stroke-width: 0.8"/>
      </g>
     </g>
     <g id="text_15">
      <!-- 100 -->
      <g transform="translate(20.878125 57.333371) scale(0.09 -0.09)">
       <use xlink:href="#DejaVuSans-31"/>
       <use xlink:href="#DejaVuSans-30" transform="translate(63.623047 0)"/>
       <use xlink:href="#DejaVuSans-30" transform="translate(127.246094 0)"/>
      </g>
     </g>
    </g>
    <g id="text_16">
     <!-- Patients still on starting therapy (%) -->
     <g transform="translate(14.798438 283.20625) rotate(-90) scale(0.1 -0.1)">
      <defs>
       <path id="DejaVuSans-50" d="M 1259 4147 
L 1259 2394 
L 2053 2394 
Q 2494 2394 2734 2622 
Q 2975 2850 2975 3272 
Q 2975 3691 2734 3919 
Q 2494 4147 2053 4147 
L 1259 4147 
z
M 628 4666 
L 2053 4666 
Q 2838 4666 3239 4311 
Q 3641 3956 3641 3272 
Q 3641 2581 3239 2228 
Q 2838 1875 2053 1875 
L 1259 1875 
L 1259 0 
L 628 0 
L 628 4666 
z
" transform="scale(0.015625)"/>
       <path id="DejaVuSans-61" d="M 2194 1759 
Q 1497 1759 1228 1600 
Q 959 1441 959 1056 
Q 959 750 1161 570 
Q 1363 391 1709 391 
Q 2188 391 2477 730 
Q 2766 1069 2766 1631 
L 2766 1759 
L 2194 1759 
z
M 3341 1997 
L 3341 0 
L 2766 0 
L 2766 531 
Q 2569 213 2275 61 
Q 1981 -91 1556 -91 
Q 1019 -91 701 211 
Q 384 513 384 1019 
Q 384 1609 779 1909 
Q 1175 2209 1959 2209 
L 2766 2209 
L 2766 2266 
Q 2766 2663 2505 2880 
Q 2244 3097 1772 3097 
Q 1472 3097 1187 3025 
Q 903 2953 641 2809 
L 641 3341 
Q 956 3463 1253 3523 
Q 1550 3584 1831 3584 
Q 2591 3584 2966 3190 
Q 3341 2797 3341 1997 
z
" transform="scale(0.015625)"/>
       <path id="DejaVuSans-6f" d="M 1959 3097 
Q 1497 3097 1228 2736 
Q 959 2375 959 1747 
Q 959 1119 1226 758 
Q 1494 397 1959 397 
Q 2419 397 2687 759 
Q 2956 1122 2956 1747 
Q 2956 2369 2687 2733 
Q 2419 3097 1959 3097 
z
M 1959 3584 
Q 2709 3584 3137 3096 
Q 3566 2609 3566 1747 
Q 3566 888 3137 398 
Q 2709 -91 1959 -91 
Q 1206 -91 779 398 
Q 353 888 353 1747 
Q 353 2609 779 3096 
Q 1206 3584 1959 3584 
z
" transform="scale(0.015625)"/>
       <path id="DejaVuSans-67" d="M 2906 1791 
Q 2906 2416 2648 2759 
Q 2391 3103 1925 3103 
Q 1463 3103 1205 2759 
Q 947 2416 947 1791 
Q 947 1169 1205 825 
Q 1463 481 1925 481 
Q 2391 481 2648 825 
Q 2906 1169 2906 1791 
z
M 3481 434 
Q 3481 -459 3084 -895 
Q 2688 -1331 1869 -1331 
Q 1566 -1331 1297 -1286 
Q 1028 -1241 775 -1147 
L 775 -588 
Q 1028 -725 1275 -790 
Q 1522 -856 1778 -856 
Q 2344 -856 2625 -561 
Q 2906 -266 2906 331 
L 2906 616 
Q 2728 306 2450 153 
Q 2172 0 1784 0 
Q 1141 0 747 490 
Q 353 981 353 1791 
Q 353 2603 747 3093 
Q 1141 3584 1784 3584 
Q 2172 3584 2450 3431 
Q 2728 3278 2906 2969 
L 2906 3500 
L 3481 3500 
L 3481 434 
z
" transform="scale(0.015625)"/>
       <path id="DejaVuSans-68" d="M 3513 2113 
L 3513 0 
L 2938 0 
L 2938 2094 
Q 2938 2591 2744 2837 
Q 2550 3084 2163 3084 
Q 1697 3084 1428 2787 
Q 1159 2491 1159 1978 
L 1159 0 
L 581 0 
L 581 4863 
L 1159 4863 
L 1159 2956 
Q 1366 3272 1645 3428 
Q 1925 3584 2291 3584 
Q 2894 3584 3203 3211 
Q 3513 2838 3513 2113 
z
" transform="scale(0.015625)"/>
       <path id="DejaVuSans-70" d="M 1159 525 
L 1159 -1331 
L 581 -1331 
L 581 3500 
L 1159 3500 
L 1159 2969 
Q 1341 3281 1617 3432 
Q 1894 3584 2278 3584 
Q 2916 3584 3314 3078 
Q 3713 2572 3713 1747 
Q 3713 922 3314 415 
Q 2916 -91 2278 -91 
Q 1894 -91 1617 61 
Q 1341 213 1159 525 
z
M 3116 1747 
Q 3116 2381 2855 2742 
Q 2594 3103 2138 3103 
Q 1681 3103 1420 2742 
Q 1159 2381 1159 1747 
Q 1159 1113 1420 752 
Q 1681 391 2138 391 
Q 2594 391 2855 752 
Q 3116 1113 3116 1747 
z
" transform="scale(0.015625)"/>
       <path id="DejaVuSans-79" d="M 2059 -325 
Q 1816 -950 1584 -1140 
Q 1353 -1331 966 -1331 
L 506 -1331 
L 506 -850 
L 844 -850 
Q 1081 -850 1212 -737 
Q 1344 -625 1503 -206 
L 1606 56 
L 191 3500 
L 800 3500 
L 1894 763 
L 2988 3500 
L 3597 3500 
L 2059 -325 
z
" transform="scale(0.015625)"/>
       <path id="DejaVuSans-28" d="M 1984 4856 
Q 1566 4138 1362 3434 
Q 1159 2731 1159 2009 
Q 1159 1288 1364 580 
Q 1569 -128 1984 -844 
L 1484 -844 
Q 1016 -109 783 600 
Q 550 1309 550 2009 
Q 550 2706 781 3412 
Q 1013 4119 1484 4856 
L 1984 4856 
z
" transform="scale(0.015625)"/>
       <path id="DejaVuSans-25" d="M 4653 2053 
Q 4381 2053 4226 1822 
Q 4072 1591 4072 1178 
Q 4072 772 4226 539 
Q 4381 306 4653 306 
Q 4919 306 5073 539 
Q 5228 772 5228 1178 
Q 5228 1588 5073 1820 
Q 4919 2053 4653 2053 
z
M 4653 2450 
Q 5147 2450 5437 2106 
Q 5728 1763 5728 1178 
Q 5728 594 5436 251 
Q 5144 -91 4653 -91 
Q 4153 -91 3862 251 
Q 3572 594 3572 1178 
Q 3572 1766 3864 2108 
Q 4156 2450 4653 2450 
z
M 1428 4353 
Q 1159 4353 1004 4120 
Q 850 3888 850 3481 
Q 850 3069 1003 2837 
Q 1156 2606 1428 2606 
Q 1700 2606 1854 2837 
Q 2009 3069 2009 3481 
Q 2009 3884 1853 4118 
Q 1697 4353 1428 4353 
z
M 4250 4750 
L 4750 4750 
L 1831 -91 
L 1331 -91 
L 4250 4750 
z
M 1428 4750 
Q 1922 4750 2215 4408 
Q 2509 4066 2509 3481 
Q 2509 2891 2217 2550 
Q 1925 2209 1428 2209 
Q 931 2209 642 2551 
Q 353 2894 353 3481 
Q 353 4063 643 4406 
Q 934 4750 1428 4750 
z
" transform="scale(0.015625)"/>
       <path id="DejaVuSans-29" d="M 513 4856 
L 1013 4856 
Q 1481 4119 1714 3412 
Q 1947 2706 1947 2009 
Q 1947 1309 1714 600 
Q 1481 -109 1013 -844 
L 513 -844 
Q 928 -128 1133 580 
Q 1338 1288 1338 2009 
Q 1338 2731 1133 3434 
Q 928 4138 513 4856 
z
" transform="scale(0.015625)"/>
      </defs>
      <use xlink:href="#DejaVuSans-50"/>
      <use xlink:href="#DejaVuSans-61" transform="translate(55.802734 0)"/>
      <use xlink:href="#DejaVuSans-74" transform="translate(117.082031 0)"/>
      <use xlink:href="#DejaVuSans-69" transform="translate(156.291016 0)"/>
      <use xlink:href="#DejaVuSans-65" transform="translate(184.074219 0)"/>
      <use xlink:href="#DejaVuSans-6e" transform="translate(245.597656 0)"/>
      <use xlink:href="#DejaVuSans-74" transform="translate(308.976562 0)"/>
      <use xlink:href="#DejaVuSans-73" transform="translate(348.185547 0)"/>
      <use xlink:href="#DejaVuSans-20" transform="translate(400.285156 0)"/>
      <use xlink:href="#DejaVuSans-73" transform="translate(432.072266 0)"/>
      <use xlink:href="#DejaVuSans-74" transform="translate(484.171875 0)"/>
      <use xlink:href="#DejaVuSans-69" transform="translate(523.380859 0)"/>
      <use xlink:href="#DejaVuSans-6c" transform="translate(551.164062 0)"/>
      <use xlink:href="#DejaVuSans-6c" transform="translate(578.947266 0)"/>
      <use xlink:href="#DejaVuSans-20" transform="translate(606.730469 0)"/>
      <use xlink:href="#DejaVuSans-6f" transform="translate(638.517578 0)"/>
      <use xlink:href="#DejaVuSans-6e" transform="translate(699.699219 0)"/>
      <use xlink:href="#DejaVuSans-20" transform="translate(763.078125 0)"/>
      <use xlink:href="#DejaVuSans-73" transform="translate(794.865234 0)"/>
      <use xlink:href="#DejaVuSans-74" transform="translate(846.964844 0)"/>
      <use xlink:href="#DejaVuSans-61" transform="translate(886.173828 0)"/>
      <use xlink:href="#DejaVuSans-72" transform="translate(947.453125 0)"/>
      <use xlink:href="#DejaVuSans-74" transform="translate(988.566406 0)"/>
      <use xlink:href="#DejaVuSans-69" transform="translate(1027.775391 0)"/>
      <use xlink:href="#DejaVuSans-6e" transform="translate(1055.558594 0)"/>
      <use xlink:href="#DejaVuSans-67" transform="translate(1118.9375 0)"/>
      <use xlink:href="#DejaVuSans-20" transform="translate(1182.414062 0)"/>
      <use xlink:href="#DejaVuSans-74" transform="translate(1214.201172 0)"/>
      <use xlink:href="#DejaVuSans-68" transform="translate(1253.410156 0)"/>
      <use xlink:href="#DejaVuSans-65" transform="translate(1316.789062 0)"/>
      <use xlink:href="#DejaVuSans-72" transform="translate(1378.3125 0)"/>
      <use xlink:href="#DejaVuSans-61" transform="translate(1419.425781 0)"/>
      <use xlink:href="#DejaVuSans-70" transform="translate(1480.705078 0)"/>
      <use xlink:href="#DejaVuSans-79" transform="translate(1544.181641 0)"/>
      <use xlink:href="#DejaVuSans-20" transform="translate(1603.361328 0)"/>
      <use xlink:href="#DejaVuSans-28" transform="translate(1635.148438 0)"/>
      <use xlink:href="#DejaVuSans-25" transform="translate(1674.162109 0)"/>
      <use xlink:href="#DejaVuSans-29" transform="translate(1769.181641 0)"/>
     </g>
    </g>
   </g>
   <g id="line2d_16">
    <path d="M 332.077997 355.84 
L 332.077997 29.76 
" clip-path="url(#pa77d991c6a)" style="fill: none; stroke-dasharray: 1,1.65; stroke-dashoffset: 0; stroke: #2e8b57"/>
   </g>
   <g id="patch_3">
    <path d="M 45.056875 355.84 
L 45.056875 29.76 
" style="fill: none; stroke: #000000; stroke-width: 0.8; stroke-linejoin: miter; stroke-linecap: square"/>
   </g>
   <g id="patch_4">
    <path d="M 45.056875 355.84 
L 630.216875 355.84 
" style="fill: none; stroke: #000000; stroke-width: 0.8; stroke-linejoin: miter; stroke-linecap: square"/>
   </g>
   <g id="text_17">
    <!-- 50%  (median threshold) -->
    <g style="fill: #7c8795" transform="translate(49.236589 198.684398) scale(0.08 -0.08)">
     <defs>
      <path id="DejaVuSans-6d" d="M 3328 2828 
Q 3544 3216 3844 3400 
Q 4144 3584 4550 3584 
Q 5097 3584 5394 3201 
Q 5691 2819 5691 2113 
L 5691 0 
L 5113 0 
L 5113 2094 
Q 5113 2597 4934 2840 
Q 4756 3084 4391 3084 
Q 3944 3084 3684 2787 
Q 3425 2491 3425 1978 
L 3425 0 
L 2847 0 
L 2847 2094 
Q 2847 2600 2669 2842 
Q 2491 3084 2119 3084 
Q 1678 3084 1418 2786 
Q 1159 2488 1159 1978 
L 1159 0 
L 581 0 
L 581 3500 
L 1159 3500 
L 1159 2956 
Q 1356 3278 1631 3431 
Q 1906 3584 2284 3584 
Q 2666 3584 2933 3390 
Q 3200 3197 3328 2828 
z
" transform="scale(0.015625)"/>
      <path id="DejaVuSans-64" d="M 2906 2969 
L 2906 4863 
L 3481 4863 
L 3481 0 
L 2906 0 
L 2906 525 
Q 2725 213 2448 61 
Q 2172 -91 1784 -91 
Q 1150 -91 751 415 
Q 353 922 353 1747 
Q 353 2572 751 3078 
Q 1150 3584 1784 3584 
Q 2172 3584 2448 3432 
Q 2725 3281 2906 2969 
z
M 947 1747 
Q 947 1113 1208 752 
Q 1469 391 1925 391 
Q 2381 391 2643 752 
Q 2906 1113 2906 1747 
Q 2906 2381 2643 2742 
Q 2381 3103 1925 3103 
Q 1469 3103 1208 2742 
Q 947 2381 947 1747 
z
" transform="scale(0.015625)"/>
     </defs>
     <use xlink:href="#DejaVuSans-35"/>
     <use xlink:href="#DejaVuSans-30" transform="translate(63.623047 0)"/>
     <use xlink:href="#DejaVuSans-25" transform="translate(127.246094 0)"/>
     <use xlink:href="#DejaVuSans-20" transform="translate(222.265625 0)"/>
     <use xlink:href="#DejaVuSans-20" transform="translate(254.052734 0)"/>
     <use xlink:href="#DejaVuSans-28" transform="translate(285.839844 0)"/>
     <use xlink:href="#DejaVuSans-6d" transform="translate(324.853516 0)"/>
     <use xlink:href="#DejaVuSans-65" transform="translate(422.265625 0)"/>
     <use xlink:href="#DejaVuSans-64" transform="translate(483.789062 0)"/>
     <use xlink:href="#DejaVuSans-69" transform="translate(547.265625 0)"/>
     <use xlink:href="#DejaVuSans-61" transform="translate(575.048828 0)"/>
     <use xlink:href="#DejaVuSans-6e" transform="translate(636.328125 0)"/>
     <use xlink:href="#DejaVuSans-20" transform="translate(699.707031 0)"/>
     <use xlink:href="#DejaVuSans-74" transform="translate(731.494141 0)"/>
     <use xlink:href="#DejaVuSans-68" transform="translate(770.703125 0)"/>
     <use xlink:href="#DejaVuSans-72" transform="translate(834.082031 0)"/>
     <use xlink:href="#DejaVuSans-65" transform="translate(872.945312 0)"/>
     <use xlink:href="#DejaVuSans-73" transform="translate(934.46875 0)"/>
     <use xlink:href="#DejaVuSans-68" transform="translate(986.568359 0)"/>
     <use xlink:href="#DejaVuSans-6f" transform="translate(1049.947266 0)"/>
     <use xlink:href="#DejaVuSans-6c" transform="translate(1111.128906 0)"/>
     <use xlink:href="#DejaVuSans-64" transform="translate(1138.912109 0)"/>
     <use xlink:href="#DejaVuSans-29" transform="translate(1202.388672 0)"/>
    </g>
   </g>
   <g id="line2d_17">
    <path d="M 45.056875 53.914074 
L 56.687384 54.009376 
L 65.410266 54.278995 
L 74.133148 54.772312 
L 81.402217 55.378792 
L 88.671285 56.179813 
L 95.940353 57.18862 
L 103.209422 58.416423 
L 110.47849 59.872651 
L 117.747558 61.565105 
L 125.016627 63.50006 
L 132.285695 65.682328 
L 139.554763 68.115306 
L 146.823832 70.801007 
L 154.0929 73.740087 
L 161.361968 76.93187 
L 168.631036 80.374373 
L 175.900105 84.064328 
L 183.169173 87.997216 
L 190.438241 92.167298 
L 197.70731 96.567653 
L 206.430192 102.140621 
L 215.153074 108.017551 
L 223.875956 114.180359 
L 232.598838 120.609011 
L 242.775533 128.41592 
L 252.952229 136.517606 
L 264.582738 146.08648 
L 277.667061 157.171486 
L 293.659012 171.049222 
L 324.189099 197.952694 
L 343.088676 214.453818 
L 357.626813 226.864734 
L 370.711136 237.7259 
L 382.341645 247.075503 
L 392.518341 254.985093 
L 402.695036 262.614574 
L 412.871732 269.941964 
L 421.594614 275.968135 
L 430.317496 281.749407 
L 439.040378 287.27833 
L 447.76326 292.549384 
L 456.486142 297.558927 
L 465.209024 302.305119 
L 473.931906 306.787841 
L 479.747161 309.630625 
L 479.747161 309.630625 
" clip-path="url(#pa77d991c6a)" style="fill: none; stroke: #2e8b57; stroke-width: 2.2; stroke-linecap: square"/>
   </g>
   <g id="line2d_18">
    <path d="M 45.056875 53.914074 
L 81.402217 54.019184 
L 109.024676 54.32207 
L 133.739509 54.806991 
L 157.000527 55.474043 
L 180.261546 56.364566 
L 202.068751 57.416335 
L 223.875956 58.689122 
L 245.683161 60.192021 
L 266.036552 61.808968 
L 286.389943 63.637805 
L 306.743335 65.682328 
L 327.096726 67.94526 
L 347.450117 70.428274 
L 367.803509 73.132014 
L 388.1569 76.056108 
L 408.510291 79.19919 
L 428.863682 82.558913 
L 449.217074 86.131974 
L 471.024279 90.192155 
L 479.747161 91.882045 
L 479.747161 91.882045 
" clip-path="url(#pa77d991c6a)" style="fill: none; stroke: #3f72c8; stroke-width: 2.2; stroke-linecap: square"/>
   </g>
   <g id="text_18">
    <!-- Median ≈ wk 34 -->
    <g style="fill: #2e8b57" transform="translate(338.76554 345.118472) scale(0.08 -0.08)">
     <defs>
      <path id="DejaVuSans-4d" d="M 628 4666 
L 1569 4666 
L 2759 1491 
L 3956 4666 
L 4897 4666 
L 4897 0 
L 4281 0 
L 4281 4097 
L 3078 897 
L 2444 897 
L 1241 4097 
L 1241 0 
L 628 0 
L 628 4666 
z
" transform="scale(0.015625)"/>
      <path id="DejaVuSans-2248" d="M 4684 1947 
L 4684 1388 
Q 4356 1144 4076 1036 
Q 3797 928 3494 928 
Q 3150 928 2694 1113 
Q 2663 1125 2641 1134 
Q 2622 1141 2575 1159 
Q 2091 1350 1797 1350 
Q 1522 1350 1253 1231 
Q 984 1113 678 850 
L 678 1409 
Q 1006 1653 1286 1761 
Q 1566 1869 1869 1869 
Q 2213 1869 2672 1684 
Q 2706 1669 2722 1663 
Q 2741 1656 2788 1638 
Q 3272 1447 3566 1447 
Q 3834 1447 4098 1564 
Q 4363 1681 4684 1947 
z
M 4684 3163 
L 4684 2606 
Q 4356 2359 4076 2251 
Q 3797 2144 3494 2144 
Q 3150 2144 2694 2328 
Q 2663 2341 2641 2350 
Q 2622 2356 2575 2375 
Q 2091 2566 1797 2566 
Q 1522 2566 1253 2447 
Q 984 2328 678 2069 
L 678 2625 
Q 1006 2869 1286 2976 
Q 1566 3084 1869 3084 
Q 2213 3084 2672 2900 
Q 2703 2888 2719 2881 
Q 2741 2872 2788 2853 
Q 3272 2663 3566 2663 
Q 3834 2663 4098 2780 
Q 4363 2897 4684 3163 
z
" transform="scale(0.015625)"/>
      <path id="DejaVuSans-77" d="M 269 3500 
L 844 3500 
L 1563 769 
L 2278 3500 
L 2956 3500 
L 3675 769 
L 4391 3500 
L 4966 3500 
L 4050 0 
L 3372 0 
L 2619 2869 
L 1863 0 
L 1184 0 
L 269 3500 
z
" transform="scale(0.015625)"/>
     </defs>
     <use xlink:href="#DejaVuSans-4d"/>
     <use xlink:href="#DejaVuSans-65" transform="translate(86.279297 0)"/>
     <use xlink:href="#DejaVuSans-64" transform="translate(147.802734 0)"/>
     <use xlink:href="#DejaVuSans-69" transform="translate(211.279297 0)"/>
     <use xlink:href="#DejaVuSans-61" transform="translate(239.0625 0)"/>
     <use xlink:href="#DejaVuSans-6e" transform="translate(300.341797 0)"/>
     <use xlink:href="#DejaVuSans-20" transform="translate(363.720703 0)"/>
     <use xlink:href="#DejaVuSans-2248" transform="translate(395.507812 0)"/>
     <use xlink:href="#DejaVuSans-20" transform="translate(479.296875 0)"/>
     <use xlink:href="#DejaVuSans-77" transform="translate(511.083984 0)"/>
     <use xlink:href="#DejaVuSans-6b" transform="translate(592.871094 0)"/>
     <use xlink:href="#DejaVuSans-20" transform="translate(650.78125 0)"/>
     <use xlink:href="#DejaVuSans-33" transform="translate(682.568359 0)"/>
     <use xlink:href="#DejaVuSans-34" transform="translate(746.191406 0)"/>
    </g>
   </g>
   <g id="text_19">
    <!-- Illustrative cohort -->
    <g style="fill: #2e8b57" transform="translate(492.286304 307.217024) scale(0.085 -0.085)">
     <defs>
      <path id="DejaVuSans-49" d="M 628 4666 
L 1259 4666 
L 1259 0 
L 628 0 
L 628 4666 
z
" transform="scale(0.015625)"/>
      <path id="DejaVuSans-75" d="M 544 1381 
L 544 3500 
L 1119 3500 
L 1119 1403 
Q 1119 906 1312 657 
Q 1506 409 1894 409 
Q 2359 409 2629 706 
Q 2900 1003 2900 1516 
L 2900 3500 
L 3475 3500 
L 3475 0 
L 2900 0 
L 2900 538 
Q 2691 219 2414 64 
Q 2138 -91 1772 -91 
Q 1169 -91 856 284 
Q 544 659 544 1381 
z
M 1991 3584 
L 1991 3584 
z
" transform="scale(0.015625)"/>
      <path id="DejaVuSans-76" d="M 191 3500 
L 800 3500 
L 1894 563 
L 2988 3500 
L 3597 3500 
L 2284 0 
L 1503 0 
L 191 3500 
z
" transform="scale(0.015625)"/>
     </defs>
     <use xlink:href="#DejaVuSans-49"/>
     <use xlink:href="#DejaVuSans-6c" transform="translate(29.492188 0)"/>
     <use xlink:href="#DejaVuSans-6c" transform="translate(57.275391 0)"/>
     <use xlink:href="#DejaVuSans-75" transform="translate(85.058594 0)"/>
     <use xlink:href="#DejaVuSans-73" transform="translate(148.4375 0)"/>
     <use xlink:href="#DejaVuSans-74" transform="translate(200.537109 0)"/>
     <use xlink:href="#DejaVuSans-72" transform="translate(239.746094 0)"/>
     <use xlink:href="#DejaVuSans-61" transform="translate(280.859375 0)"/>
     <use xlink:href="#DejaVuSans-74" transform="translate(342.138672 0)"/>
     <use xlink:href="#DejaVuSans-69" transform="translate(381.347656 0)"/>
     <use xlink:href="#DejaVuSans-76" transform="translate(409.130859 0)"/>
     <use xlink:href="#DejaVuSans-65" transform="translate(468.310547 0)"/>
     <use xlink:href="#DejaVuSans-20" transform="translate(529.833984 0)"/>
     <use xlink:href="#DejaVuSans-63" transform="translate(561.621094 0)"/>
     <use xlink:href="#DejaVuSans-6f" transform="translate(616.601562 0)"/>
     <use xlink:href="#DejaVuSans-68" transform="translate(677.783203 0)"/>
     <use xlink:href="#DejaVuSans-6f" transform="translate(741.162109 0)"/>
     <use xlink:href="#DejaVuSans-72" transform="translate(802.34375 0)"/>
     <use xlink:href="#DejaVuSans-74" transform="translate(843.457031 0)"/>
    </g>
    <!-- (median reached) -->
    <g style="fill: #2e8b57" transform="translate(492.286304 316.735164) scale(0.085 -0.085)">
     <use xlink:href="#DejaVuSans-28"/>
     <use xlink:href="#DejaVuSans-6d" transform="translate(39.013672 0)"/>
     <use xlink:href="#DejaVuSans-65" transform="translate(136.425781 0)"/>
     <use xlink:href="#DejaVuSans-64" transform="translate(197.949219 0)"/>
     <use xlink:href="#DejaVuSans-69" transform="translate(261.425781 0)"/>
     <use xlink:href="#DejaVuSans-61" transform="translate(289.208984 0)"/>
     <use xlink:href="#DejaVuSans-6e" transform="translate(350.488281 0)"/>
     <use xlink:href="#DejaVuSans-20" transform="translate(413.867188 0)"/>
     <use xlink:href="#DejaVuSans-72" transform="translate(445.654297 0)"/>
     <use xlink:href="#DejaVuSans-65" transform="translate(484.517578 0)"/>
     <use xlink:href="#DejaVuSans-61" transform="translate(546.041016 0)"/>
     <use xlink:href="#DejaVuSans-63" transform="translate(607.320312 0)"/>
     <use xlink:href="#DejaVuSans-68" transform="translate(662.300781 0)"/>
     <use xlink:href="#DejaVuSans-65" transform="translate(725.679688 0)"/>
     <use xlink:href="#DejaVuSans-64" transform="translate(787.203125 0)"/>
     <use xlink:href="#DejaVuSans-29" transform="translate(850.679688 0)"/>
    </g>
   </g>
   <g id="text_20">
    <!-- Current cohort -->
    <g style="fill: #3f72c8" transform="translate(492.286304 89.468444) scale(0.085 -0.085)">
     <defs>
      <path id="DejaVuSans-43" d="M 4122 4306 
L 4122 3641 
Q 3803 3938 3442 4084 
Q 3081 4231 2675 4231 
Q 1875 4231 1450 3742 
Q 1025 3253 1025 2328 
Q 1025 1406 1450 917 
Q 1875 428 2675 428 
Q 3081 428 3442 575 
Q 3803 722 4122 1019 
L 4122 359 
Q 3791 134 3420 21 
Q 3050 -91 2638 -91 
Q 1578 -91 968 557 
Q 359 1206 359 2328 
Q 359 3453 968 4101 
Q 1578 4750 2638 4750 
Q 3056 4750 3426 4639 
Q 3797 4528 4122 4306 
z
" transform="scale(0.015625)"/>
     </defs>
     <use xlink:href="#DejaVuSans-43"/>
     <use xlink:href="#DejaVuSans-75" transform="translate(69.824219 0)"/>
     <use xlink:href="#DejaVuSans-72" transform="translate(133.203125 0)"/>
     <use xlink:href="#DejaVuSans-72" transform="translate(172.566406 0)"/>
     <use xlink:href="#DejaVuSans-65" transform="translate(211.429688 0)"/>
     <use xlink:href="#DejaVuSans-6e" transform="translate(272.953125 0)"/>
     <use xlink:href="#DejaVuSans-74" transform="translate(336.332031 0)"/>
     <use xlink:href="#DejaVuSans-20" transform="translate(375.541016 0)"/>
     <use xlink:href="#DejaVuSans-63" transform="translate(407.328125 0)"/>
     <use xlink:href="#DejaVuSans-6f" transform="translate(462.308594 0)"/>
     <use xlink:href="#DejaVuSans-68" transform="translate(523.490234 0)"/>
     <use xlink:href="#DejaVuSans-6f" transform="translate(586.869141 0)"/>
     <use xlink:href="#DejaVuSans-72" transform="translate(648.050781 0)"/>
     <use xlink:href="#DejaVuSans-74" transform="translate(689.164062 0)"/>
    </g>
    <!-- (median not reached) -->
    <g style="fill: #3f72c8" transform="translate(492.286304 98.986585) scale(0.085 -0.085)">
     <use xlink:href="#DejaVuSans-28"/>
     <use xlink:href="#DejaVuSans-6d" transform="translate(39.013672 0)"/>
     <use xlink:href="#DejaVuSans-65" transform="translate(136.425781 0)"/>
     <use xlink:href="#DejaVuSans-64" transform="translate(197.949219 0)"/>
     <use xlink:href="#DejaVuSans-69" transform="translate(261.425781 0)"/>
     <use xlink:href="#DejaVuSans-61" transform="translate(289.208984 0)"/>
     <use xlink:href="#DejaVuSans-6e" transform="translate(350.488281 0)"/>
     <use xlink:href="#DejaVuSans-20" transform="translate(413.867188 0)"/>
     <use xlink:href="#DejaVuSans-6e" transform="translate(445.654297 0)"/>
     <use xlink:href="#DejaVuSans-6f" transform="translate(509.033203 0)"/>
     <use xlink:href="#DejaVuSans-74" transform="translate(570.214844 0)"/>
     <use xlink:href="#DejaVuSans-20" transform="translate(609.423828 0)"/>
     <use xlink:href="#DejaVuSans-72" transform="translate(641.210938 0)"/>
     <use xlink:href="#DejaVuSans-65" transform="translate(680.074219 0)"/>
     <use xlink:href="#DejaVuSans-61" transform="translate(741.597656 0)"/>
     <use xlink:href="#DejaVuSans-63" transform="translate(802.876953 0)"/>
     <use xlink:href="#DejaVuSans-68" transform="translate(857.857422 0)"/>
     <use xlink:href="#DejaVuSans-65" transform="translate(921.236328 0)"/>
     <use xlink:href="#DejaVuSans-64" transform="translate(982.759766 0)"/>
     <use xlink:href="#DejaVuSans-29" transform="translate(1046.236328 0)"/>
    </g>
   </g>
   <g id="text_21">
    <!-- Current cohort: 24 total switch events across all regimens -->
    <g style="fill: #7c8795" transform="translate(56.760075 341.237034) scale(0.075 -0.075)">
     <defs>
      <path id="DejaVuSans-3a" d="M 750 794 
L 1409 794 
L 1409 0 
L 750 0 
L 750 794 
z
M 750 3309 
L 1409 3309 
L 1409 2516 
L 750 2516 
L 750 3309 
z
" transform="scale(0.015625)"/>
     </defs>
     <use xlink:href="#DejaVuSans-43"/>
     <use xlink:href="#DejaVuSans-75" transform="translate(69.824219 0)"/>
     <use xlink:href="#DejaVuSans-72" transform="translate(133.203125 0)"/>
     <use xlink:href="#DejaVuSans-72" transform="translate(172.566406 0)"/>
     <use xlink:href="#DejaVuSans-65" transform="translate(211.429688 0)"/>
     <use xlink:href="#DejaVuSans-6e" transform="translate(272.953125 0)"/>
     <use xlink:href="#DejaVuSans-74" transform="translate(336.332031 0)"/>
     <use xlink:href="#DejaVuSans-20" transform="translate(375.541016 0)"/>
     <use xlink:href="#DejaVuSans-63" transform="translate(407.328125 0)"/>
     <use xlink:href="#DejaVuSans-6f" transform="translate(462.308594 0)"/>
     <use xlink:href="#DejaVuSans-68" transform="translate(523.490234 0)"/>
     <use xlink:href="#DejaVuSans-6f" transform="translate(586.869141 0)"/>
     <use xlink:href="#DejaVuSans-72" transform="translate(648.050781 0)"/>
     <use xlink:href="#DejaVuSans-74" transform="translate(689.164062 0)"/>
     <use xlink:href="#DejaVuSans-3a" transform="translate(728.373047 0)"/>
     <use xlink:href="#DejaVuSans-20" transform="translate(762.064453 0)"/>
     <use xlink:href="#DejaVuSans-32" transform="translate(793.851562 0)"/>
     <use xlink:href="#DejaVuSans-34" transform="translate(857.474609 0)"/>
     <use xlink:href="#DejaVuSans-20" transform="translate(921.097656 0)"/>
     <use xlink:href="#DejaVuSans-74" transform="translate(952.884766 0)"/>
     <use xlink:href="#DejaVuSans-6f" transform="translate(992.09375 0)"/>
     <use xlink:href="#DejaVuSans-74" transform="translate(1053.275391 0)"/>
     <use xlink:href="#DejaVuSans-61" transform="translate(1092.484375 0)"/>
     <use xlink:href="#DejaVuSans-6c" transform="translate(1153.763672 0)"/>
     <use xlink:href="#DejaVuSans-20" transform="translate(1181.546875 0)"/>
     <use xlink:href="#DejaVuSans-73" transform="translate(1213.333984 0)"/>
     <use xlink:href="#DejaVuSans-77" transform="translate(1265.433594 0)"/>
     <use xlink:href="#DejaVuSans-69" transform="translate(1347.220703 0)"/>
     <use xlink:href="#DejaVuSans-74" transform="translate(1375.003906 0)"/>
     <use xlink:href="#DejaVuSans-63" transform="translate(1414.212891 0)"/>
     <use xlink:href="#DejaVuSans-68" transform="translate(1469.193359 0)"/>
     <use xlink:href="#DejaVuSans-20" transform="translate(1532.572266 0)"/>
     <use xlink:href="#DejaVuSans-65" transform="translate(1564.359375 0)"/>
     <use xlink:href="#DejaVuSans-76" transform="translate(1625.882812 0)"/>
     <use xlink:href="#DejaVuSans-65" transform="translate(1685.0625 0)"/>
     <use xlink:href="#DejaVuSans-6e" transform="translate(1746.585938 0)"/>
     <use xlink:href="#DejaVuSans-74" transform="translate(1809.964844 0)"/>
     <use xlink:href="#DejaVuSans-73" transform="translate(1849.173828 0)"/>
     <use xlink:href="#DejaVuSans-20" transform="translate(1901.273438 0)"/>
     <use xlink:href="#DejaVuSans-61" transform="translate(1933.060547 0)"/>
     <use xlink:href="#DejaVuSans-63" transform="translate(1994.339844 0)"/>
     <use xlink:href="#DejaVuSans-72" transform="translate(2049.320312 0)"/>
     <use xlink:href="#DejaVuSans-6f" transform="translate(2088.183594 0)"/>
     <use xlink:href="#DejaVuSans-73" transform="translate(2149.365234 0)"/>
     <use xlink:href="#DejaVuSans-73" transform="translate(2201.464844 0)"/>
     <use xlink:href="#DejaVuSans-20" transform="translate(2253.564453 0)"/>
     <use xlink:href="#DejaVuSans-61" transform="translate(2285.351562 0)"/>
     <use xlink:href="#DejaVuSans-6c" transform="translate(2346.630859 0)"/>
     <use xlink:href="#DejaVuSans-6c" transform="translate(2374.414062 0)"/>
     <use xlink:href="#DejaVuSans-20" transform="translate(2402.197266 0)"/>
     <use xlink:href="#DejaVuSans-72" transform="translate(2433.984375 0)"/>
     <use xlink:href="#DejaVuSans-65" transform="translate(2472.847656 0)"/>
     <use xlink:href="#DejaVuSans-67" transform="translate(2534.371094 0)"/>
     <use xlink:href="#DejaVuSans-69" transform="translate(2597.847656 0)"/>
     <use xlink:href="#DejaVuSans-6d" transform="translate(2625.630859 0)"/>
     <use xlink:href="#DejaVuSans-65" transform="translate(2723.042969 0)"/>
     <use xlink:href="#DejaVuSans-6e" transform="translate(2784.566406 0)"/>
     <use xlink:href="#DejaVuSans-73" transform="translate(2847.945312 0)"/>
    </g>
   </g>
  </g>
  <g id="text_22">
   <!-- Switch-Survival Sufficiency: When the Median Cannot Be Reported -->
   <g transform="translate(118.207906 15.406313) scale(0.108 -0.108)">
    <defs>
     <path id="DejaVuSans-Bold-53" d="M 3834 4519 
L 3834 3531 
Q 3450 3703 3084 3790 
Q 2719 3878 2394 3878 
Q 1963 3878 1756 3759 
Q 1550 3641 1550 3391 
Q 1550 3203 1689 3098 
Q 1828 2994 2194 2919 
L 2706 2816 
Q 3484 2659 3812 2340 
Q 4141 2022 4141 1434 
Q 4141 663 3683 286 
Q 3225 -91 2284 -91 
Q 1841 -91 1394 -6 
Q 947 78 500 244 
L 500 1259 
Q 947 1022 1364 901 
Q 1781 781 2169 781 
Q 2563 781 2772 912 
Q 2981 1044 2981 1288 
Q 2981 1506 2839 1625 
Q 2697 1744 2272 1838 
L 1806 1941 
Q 1106 2091 782 2419 
Q 459 2747 459 3303 
Q 459 4000 909 4375 
Q 1359 4750 2203 4750 
Q 2588 4750 2994 4692 
Q 3400 4634 3834 4519 
z
" transform="scale(0.015625)"/>
     <path id="DejaVuSans-Bold-77" d="M 225 3500 
L 1313 3500 
L 1900 1088 
L 2491 3500 
L 3425 3500 
L 4013 1113 
L 4603 3500 
L 5691 3500 
L 4769 0 
L 3547 0 
L 2956 2406 
L 2369 0 
L 1147 0 
L 225 3500 
z
" transform="scale(0.015625)"/>
     <path id="DejaVuSans-Bold-69" d="M 538 3500 
L 1656 3500 
L 1656 0 
L 538 0 
L 538 3500 
z
M 538 4863 
L 1656 4863 
L 1656 3950 
L 538 3950 
L 538 4863 
z
" transform="scale(0.015625)"/>
     <path id="DejaVuSans-Bold-74" d="M 1759 4494 
L 1759 3500 
L 2913 3500 
L 2913 2700 
L 1759 2700 
L 1759 1216 
Q 1759 972 1856 886 
Q 1953 800 2241 800 
L 2816 800 
L 2816 0 
L 1856 0 
Q 1194 0 917 276 
Q 641 553 641 1216 
L 641 2700 
L 84 2700 
L 84 3500 
L 641 3500 
L 641 4494 
L 1759 4494 
z
" transform="scale(0.015625)"/>
     <path id="DejaVuSans-Bold-63" d="M 3366 3391 
L 3366 2478 
Q 3138 2634 2908 2709 
Q 2678 2784 2431 2784 
Q 1963 2784 1702 2511 
Q 1441 2238 1441 1747 
Q 1441 1256 1702 982 
Q 1963 709 2431 709 
Q 2694 709 2930 787 
Q 3166 866 3366 1019 
L 3366 103 
Q 3103 6 2833 -42 
Q 2563 -91 2291 -91 
Q 1344 -91 809 395 
Q 275 881 275 1747 
Q 275 2613 809 3098 
Q 1344 3584 2291 3584 
Q 2566 3584 2833 3536 
Q 3100 3488 3366 3391 
z
" transform="scale(0.015625)"/>
     <path id="DejaVuSans-Bold-68" d="M 4056 2131 
L 4056 0 
L 2931 0 
L 2931 347 
L 2931 1625 
Q 2931 2084 2911 2256 
Q 2891 2428 2841 2509 
Q 2775 2619 2662 2680 
Q 2550 2741 2406 2741 
Q 2056 2741 1856 2470 
Q 1656 2200 1656 1722 
L 1656 0 
L 538 0 
L 538 4863 
L 1656 4863 
L 1656 2988 
Q 1909 3294 2193 3439 
Q 2478 3584 2822 3584 
Q 3428 3584 3742 3212 
Q 4056 2841 4056 2131 
z
" transform="scale(0.015625)"/>
     <path id="DejaVuSans-Bold-2d" d="M 347 2297 
L 2309 2297 
L 2309 1388 
L 347 1388 
L 347 2297 
z
" transform="scale(0.015625)"/>
     <path id="DejaVuSans-Bold-75" d="M 500 1363 
L 500 3500 
L 1625 3500 
L 1625 3150 
Q 1625 2866 1622 2436 
Q 1619 2006 1619 1863 
Q 1619 1441 1641 1255 
Q 1663 1069 1716 984 
Q 1784 875 1895 815 
Q 2006 756 2150 756 
Q 2500 756 2700 1025 
Q 2900 1294 2900 1772 
L 2900 3500 
L 4019 3500 
L 4019 0 
L 2900 0 
L 2900 506 
Q 2647 200 2364 54 
Q 2081 -91 1741 -91 
Q 1134 -91 817 281 
Q 500 653 500 1363 
z
" transform="scale(0.015625)"/>
     <path id="DejaVuSans-Bold-72" d="M 3138 2547 
Q 2991 2616 2845 2648 
Q 2700 2681 2553 2681 
Q 2122 2681 1889 2404 
Q 1656 2128 1656 1613 
L 1656 0 
L 538 0 
L 538 3500 
L 1656 3500 
L 1656 2925 
Q 1872 3269 2151 3426 
Q 2431 3584 2822 3584 
Q 2878 3584 2943 3579 
Q 3009 3575 3134 3559 
L 3138 2547 
z
" transform="scale(0.015625)"/>
     <path id="DejaVuSans-Bold-76" d="M 97 3500 
L 1216 3500 
L 2088 1081 
L 2956 3500 
L 4078 3500 
L 2700 0 
L 1472 0 
L 97 3500 
z
" transform="scale(0.015625)"/>
     <path id="DejaVuSans-Bold-61" d="M 2106 1575 
Q 1756 1575 1579 1456 
Q 1403 1338 1403 1106 
Q 1403 894 1545 773 
Q 1688 653 1941 653 
Q 2256 653 2472 879 
Q 2688 1106 2688 1447 
L 2688 1575 
L 2106 1575 
z
M 3816 1997 
L 3816 0 
L 2688 0 
L 2688 519 
Q 2463 200 2181 54 
Q 1900 -91 1497 -91 
Q 953 -91 614 226 
Q 275 544 275 1050 
Q 275 1666 698 1953 
Q 1122 2241 2028 2241 
L 2688 2241 
L 2688 2328 
Q 2688 2594 2478 2717 
Q 2269 2841 1825 2841 
Q 1466 2841 1156 2769 
Q 847 2697 581 2553 
L 581 3406 
Q 941 3494 1303 3539 
Q 1666 3584 2028 3584 
Q 2975 3584 3395 3211 
Q 3816 2838 3816 1997 
z
" transform="scale(0.015625)"/>
     <path id="DejaVuSans-Bold-6c" d="M 538 4863 
L 1656 4863 
L 1656 0 
L 538 0 
L 538 4863 
z
" transform="scale(0.015625)"/>
     <path id="DejaVuSans-Bold-20" transform="scale(0.015625)"/>
     <path id="DejaVuSans-Bold-66" d="M 2841 4863 
L 2841 4128 
L 2222 4128 
Q 1984 4128 1890 4042 
Q 1797 3956 1797 3744 
L 1797 3500 
L 2753 3500 
L 2753 2700 
L 1797 2700 
L 1797 0 
L 678 0 
L 678 2700 
L 122 2700 
L 122 3500 
L 678 3500 
L 678 3744 
Q 678 4316 997 4589 
Q 1316 4863 1984 4863 
L 2841 4863 
z
" transform="scale(0.015625)"/>
     <path id="DejaVuSans-Bold-65" d="M 4031 1759 
L 4031 1441 
L 1416 1441 
Q 1456 1047 1700 850 
Q 1944 653 2381 653 
Q 2734 653 3104 758 
Q 3475 863 3866 1075 
L 3866 213 
Q 3469 63 3072 -14 
Q 2675 -91 2278 -91 
Q 1328 -91 801 392 
Q 275 875 275 1747 
Q 275 2603 792 3093 
Q 1309 3584 2216 3584 
Q 3041 3584 3536 3087 
Q 4031 2591 4031 1759 
z
M 2881 2131 
Q 2881 2450 2695 2645 
Q 2509 2841 2209 2841 
Q 1884 2841 1681 2658 
Q 1478 2475 1428 2131 
L 2881 2131 
z
" transform="scale(0.015625)"/>
     <path id="DejaVuSans-Bold-6e" d="M 4056 2131 
L 4056 0 
L 2931 0 
L 2931 347 
L 2931 1631 
Q 2931 2084 2911 2256 
Q 2891 2428 2841 2509 
Q 2775 2619 2662 2680 
Q 2550 2741 2406 2741 
Q 2056 2741 1856 2470 
Q 1656 2200 1656 1722 
L 1656 0 
L 538 0 
L 538 3500 
L 1656 3500 
L 1656 2988 
Q 1909 3294 2193 3439 
Q 2478 3584 2822 3584 
Q 3428 3584 3742 3212 
Q 4056 2841 4056 2131 
z
" transform="scale(0.015625)"/>
     <path id="DejaVuSans-Bold-79" d="M 78 3500 
L 1197 3500 
L 2138 1125 
L 2938 3500 
L 4056 3500 
L 2584 -331 
Q 2363 -916 2067 -1148 
Q 1772 -1381 1288 -1381 
L 641 -1381 
L 641 -647 
L 991 -647 
Q 1275 -647 1404 -556 
Q 1534 -466 1606 -231 
L 1638 -134 
L 78 3500 
z
" transform="scale(0.015625)"/>
     <path id="DejaVuSans-Bold-3a" d="M 716 3500 
L 1844 3500 
L 1844 2291 
L 716 2291 
L 716 3500 
z
M 716 1209 
L 1844 1209 
L 1844 0 
L 716 0 
L 716 1209 
z
" transform="scale(0.015625)"/>
     <path id="DejaVuSans-Bold-57" d="M 191 4666 
L 1344 4666 
L 2150 1275 
L 2950 4666 
L 4109 4666 
L 4909 1275 
L 5716 4666 
L 6859 4666 
L 5759 0 
L 4372 0 
L 3525 3547 
L 2688 0 
L 1300 0 
L 191 4666 
z
" transform="scale(0.015625)"/>
     <path id="DejaVuSans-Bold-4d" d="M 588 4666 
L 2119 4666 
L 3181 2169 
L 4250 4666 
L 5778 4666 
L 5778 0 
L 4641 0 
L 4641 3413 
L 3566 897 
L 2803 897 
L 1728 3413 
L 1728 0 
L 588 0 
L 588 4666 
z
" transform="scale(0.015625)"/>
     <path id="DejaVuSans-Bold-64" d="M 2919 2988 
L 2919 4863 
L 4044 4863 
L 4044 0 
L 2919 0 
L 2919 506 
Q 2688 197 2409 53 
Q 2131 -91 1766 -91 
Q 1119 -91 703 423 
Q 288 938 288 1747 
Q 288 2556 703 3070 
Q 1119 3584 1766 3584 
Q 2128 3584 2408 3439 
Q 2688 3294 2919 2988 
z
M 2181 722 
Q 2541 722 2730 984 
Q 2919 1247 2919 1747 
Q 2919 2247 2730 2509 
Q 2541 2772 2181 2772 
Q 1825 2772 1636 2509 
Q 1447 2247 1447 1747 
Q 1447 1247 1636 984 
Q 1825 722 2181 722 
z
" transform="scale(0.015625)"/>
     <path id="DejaVuSans-Bold-43" d="M 4288 256 
Q 3956 84 3597 -3 
Q 3238 -91 2847 -91 
Q 1681 -91 1000 561 
Q 319 1213 319 2328 
Q 319 3447 1000 4098 
Q 1681 4750 2847 4750 
Q 3238 4750 3597 4662 
Q 3956 4575 4288 4403 
L 4288 3438 
Q 3953 3666 3628 3772 
Q 3303 3878 2944 3878 
Q 2300 3878 1931 3465 
Q 1563 3053 1563 2328 
Q 1563 1606 1931 1193 
Q 2300 781 2944 781 
Q 3303 781 3628 887 
Q 3953 994 4288 1222 
L 4288 256 
z
" transform="scale(0.015625)"/>
     <path id="DejaVuSans-Bold-6f" d="M 2203 2784 
Q 1831 2784 1636 2517 
Q 1441 2250 1441 1747 
Q 1441 1244 1636 976 
Q 1831 709 2203 709 
Q 2569 709 2762 976 
Q 2956 1244 2956 1747 
Q 2956 2250 2762 2517 
Q 2569 2784 2203 2784 
z
M 2203 3584 
Q 3106 3584 3614 3096 
Q 4122 2609 4122 1747 
Q 4122 884 3614 396 
Q 3106 -91 2203 -91 
Q 1297 -91 786 396 
Q 275 884 275 1747 
Q 275 2609 786 3096 
Q 1297 3584 2203 3584 
z
" transform="scale(0.015625)"/>
     <path id="DejaVuSans-Bold-42" d="M 2456 2859 
Q 2741 2859 2887 2984 
Q 3034 3109 3034 3353 
Q 3034 3594 2887 3720 
Q 2741 3847 2456 3847 
L 1791 3847 
L 1791 2859 
L 2456 2859 
z
M 2497 819 
Q 2859 819 3042 972 
Q 3225 1125 3225 1434 
Q 3225 1738 3044 1889 
Q 2863 2041 2497 2041 
L 1791 2041 
L 1791 819 
L 2497 819 
z
M 3616 2497 
Q 4003 2384 4215 2081 
Q 4428 1778 4428 1338 
Q 4428 663 3972 331 
Q 3516 0 2584 0 
L 588 0 
L 588 4666 
L 2394 4666 
Q 3366 4666 3802 4372 
Q 4238 4078 4238 3431 
Q 4238 3091 4078 2852 
Q 3919 2613 3616 2497 
z
" transform="scale(0.015625)"/>
     <path id="DejaVuSans-Bold-52" d="M 2297 2597 
Q 2675 2597 2839 2737 
Q 3003 2878 3003 3200 
Q 3003 3519 2839 3656 
Q 2675 3794 2297 3794 
L 1791 3794 
L 1791 2597 
L 2297 2597 
z
M 1791 1766 
L 1791 0 
L 588 0 
L 588 4666 
L 2425 4666 
Q 3347 4666 3776 4356 
Q 4206 4047 4206 3378 
Q 4206 2916 3982 2619 
Q 3759 2322 3309 2181 
Q 3556 2125 3751 1926 
Q 3947 1728 4147 1325 
L 4800 0 
L 3519 0 
L 2950 1159 
Q 2778 1509 2601 1637 
Q 2425 1766 2131 1766 
L 1791 1766 
z
" transform="scale(0.015625)"/>
     <path id="DejaVuSans-Bold-70" d="M 1656 506 
L 1656 -1331 
L 538 -1331 
L 538 3500 
L 1656 3500 
L 1656 2988 
Q 1888 3294 2169 3439 
Q 2450 3584 2816 3584 
Q 3463 3584 3878 3070 
Q 4294 2556 4294 1747 
Q 4294 938 3878 423 
Q 3463 -91 2816 -91 
Q 2450 -91 2169 54 
Q 1888 200 1656 506 
z
M 2400 2772 
Q 2041 2772 1848 2508 
Q 1656 2244 1656 1747 
Q 1656 1250 1848 986 
Q 2041 722 2400 722 
Q 2759 722 2948 984 
Q 3138 1247 3138 1747 
Q 3138 2247 2948 2509 
Q 2759 2772 2400 2772 
z
" transform="scale(0.015625)"/>
    </defs>
    <use xlink:href="#DejaVuSans-Bold-53"/>
    <use xlink:href="#DejaVuSans-Bold-77" transform="translate(72.021484 0)"/>
    <use xlink:href="#DejaVuSans-Bold-69" transform="translate(164.404297 0)"/>
    <use xlink:href="#DejaVuSans-Bold-74" transform="translate(198.681641 0)"/>
    <use xlink:href="#DejaVuSans-Bold-63" transform="translate(246.484375 0)"/>
    <use xlink:href="#DejaVuSans-Bold-68" transform="translate(305.761719 0)"/>
    <use xlink:href="#DejaVuSans-Bold-2d" transform="translate(376.953125 0)"/>
    <use xlink:href="#DejaVuSans-Bold-53" transform="translate(418.457031 0)"/>
    <use xlink:href="#DejaVuSans-Bold-75" transform="translate(490.478516 0)"/>
    <use xlink:href="#DejaVuSans-Bold-72" transform="translate(561.669922 0)"/>
    <use xlink:href="#DejaVuSans-Bold-76" transform="translate(610.986328 0)"/>
    <use xlink:href="#DejaVuSans-Bold-69" transform="translate(676.171875 0)"/>
    <use xlink:href="#DejaVuSans-Bold-76" transform="translate(710.449219 0)"/>
    <use xlink:href="#DejaVuSans-Bold-61" transform="translate(775.634766 0)"/>
    <use xlink:href="#DejaVuSans-Bold-6c" transform="translate(843.115234 0)"/>
    <use xlink:href="#DejaVuSans-Bold-20" transform="translate(877.392578 0)"/>
    <use xlink:href="#DejaVuSans-Bold-53" transform="translate(912.207031 0)"/>
    <use xlink:href="#DejaVuSans-Bold-75" transform="translate(984.228516 0)"/>
    <use xlink:href="#DejaVuSans-Bold-66" transform="translate(1055.419922 0)"/>
    <use xlink:href="#DejaVuSans-Bold-66" transform="translate(1098.925781 0)"/>
    <use xlink:href="#DejaVuSans-Bold-69" transform="translate(1142.431641 0)"/>
    <use xlink:href="#DejaVuSans-Bold-63" transform="translate(1176.708984 0)"/>
    <use xlink:href="#DejaVuSans-Bold-69" transform="translate(1235.986328 0)"/>
    <use xlink:href="#DejaVuSans-Bold-65" transform="translate(1270.263672 0)"/>
    <use xlink:href="#DejaVuSans-Bold-6e" transform="translate(1338.085938 0)"/>
    <use xlink:href="#DejaVuSans-Bold-63" transform="translate(1409.277344 0)"/>
    <use xlink:href="#DejaVuSans-Bold-79" transform="translate(1468.554688 0)"/>
    <use xlink:href="#DejaVuSans-Bold-3a" transform="translate(1533.740234 0)"/>
    <use xlink:href="#DejaVuSans-Bold-20" transform="translate(1573.730469 0)"/>
    <use xlink:href="#DejaVuSans-Bold-57" transform="translate(1608.544922 0)"/>
    <use xlink:href="#DejaVuSans-Bold-68" transform="translate(1718.847656 0)"/>
    <use xlink:href="#DejaVuSans-Bold-65" transform="translate(1790.039062 0)"/>
    <use xlink:href="#DejaVuSans-Bold-6e" transform="translate(1857.861328 0)"/>
    <use xlink:href="#DejaVuSans-Bold-20" transform="translate(1929.052734 0)"/>
    <use xlink:href="#DejaVuSans-Bold-74" transform="translate(1963.867188 0)"/>
    <use xlink:href="#DejaVuSans-Bold-68" transform="translate(2011.669922 0)"/>
    <use xlink:href="#DejaVuSans-Bold-65" transform="translate(2082.861328 0)"/>
    <use xlink:href="#DejaVuSans-Bold-20" transform="translate(2150.683594 0)"/>
    <use xlink:href="#DejaVuSans-Bold-4d" transform="translate(2185.498047 0)"/>
    <use xlink:href="#DejaVuSans-Bold-65" transform="translate(2285.009766 0)"/>
    <use xlink:href="#DejaVuSans-Bold-64" transform="translate(2352.832031 0)"/>
    <use xlink:href="#DejaVuSans-Bold-69" transform="translate(2424.414062 0)"/>
    <use xlink:href="#DejaVuSans-Bold-61" transform="translate(2458.691406 0)"/>
    <use xlink:href="#DejaVuSans-Bold-6e" transform="translate(2526.171875 0)"/>
    <use xlink:href="#DejaVuSans-Bold-20" transform="translate(2597.363281 0)"/>
    <use xlink:href="#DejaVuSans-Bold-43" transform="translate(2632.177734 0)"/>
    <use xlink:href="#DejaVuSans-Bold-61" transform="translate(2705.566406 0)"/>
    <use xlink:href="#DejaVuSans-Bold-6e" transform="translate(2773.046875 0)"/>
    <use xlink:href="#DejaVuSans-Bold-6e" transform="translate(2844.238281 0)"/>
    <use xlink:href="#DejaVuSans-Bold-6f" transform="translate(2915.429688 0)"/>
    <use xlink:href="#DejaVuSans-Bold-74" transform="translate(2984.130859 0)"/>
    <use xlink:href="#DejaVuSans-Bold-20" transform="translate(3031.933594 0)"/>
    <use xlink:href="#DejaVuSans-Bold-42" transform="translate(3066.748047 0)"/>
    <use xlink:href="#DejaVuSans-Bold-65" transform="translate(3142.96875 0)"/>
    <use xlink:href="#DejaVuSans-Bold-20" transform="translate(3210.791016 0)"/>
    <use xlink:href="#DejaVuSans-Bold-52" transform="translate(3245.605469 0)"/>
    <use xlink:href="#DejaVuSans-Bold-65" transform="translate(3322.607422 0)"/>
    <use xlink:href="#DejaVuSans-Bold-70" transform="translate(3390.429688 0)"/>
    <use xlink:href="#DejaVuSans-Bold-6f" transform="translate(3462.011719 0)"/>
    <use xlink:href="#DejaVuSans-Bold-72" transform="translate(3530.712891 0)"/>
    <use xlink:href="#DejaVuSans-Bold-74" transform="translate(3580.029297 0)"/>
    <use xlink:href="#DejaVuSans-Bold-65" transform="translate(3627.832031 0)"/>
    <use xlink:href="#DejaVuSans-Bold-64" transform="translate(3695.654297 0)"/>
   </g>
  </g>
 </g>
 <defs>
  <clipPath id="pa77d991c6a">
   <rect x="45.056875" y="29.76" width="585.16" height="326.08"/>
  </clipPath>
 </defs>
</svg>
