<?xml version="1.0" encoding="utf-8" standalone="no"?>
<!DOCTYPE svg PUBLIC "-//W3C//DTD SVG 1.1//EN"
  "http://www.w3.org/Graphics/SVG/1.1/DTD/svg11.dtd">
<svg xmlns:xlink="http://www.w3.org/1999/xlink" width="715.122031pt" height="455.932437pt" viewBox="0 0 715.122031 455.932437" xmlns="http://www.w3.org/2000/svg" version="1.1">
 <metadata>
  <rdf:RDF xmlns:dc="http://purl.org/dc/elements/1.1/" xmlns:cc="http://creativecommons.org/ns#" xmlns:rdf="http://www.w3.org/1999/02/22-rdf-syntax-ns#">
   <cc:Work>
    <dc:type rdf:resource="http://purl.org/dc/dcmitype/StillImage"/>
    <dc:date>2026-06-24T21:40:57.095791</dc:date>
    <dc:format>image/svg+xml</dc:format>
    <dc:creator>
     <cc:Agent>
      <dc:title>Matplotlib v3.10.9, https://matplotlib.org/</dc:title>
     </cc:Agent>
    </dc:creator>
   </cc:Work>
  </rdf:RDF>
 </metadata>
 <defs>
  <style type="text/css">*{stroke-linejoin: round; stroke-linecap: butt}</style>
 </defs>
 <g id="figure_1">
  <g id="patch_1">
   <path d="M 0 455.932437 
L 715.122031 455.932437 
L 715.122031 0 
L 0 0 
z
" style="fill: #ffffff"/>
  </g>
  <g id="axes_1">
   <g id="patch_2">
    <path d="M 47.882031 188.775429 
L 707.922031 188.775429 
L 707.922031 28.464 
L 47.882031 28.464 
z
" style="fill: #ffffff"/>
   </g>
   <g id="matplotlib.axis_1">
    <g id="xtick_1">
     <g id="line2d_1">
      <defs>
       <path id="m17ab9709bc" d="M 0 0 
L 0 3.5 
" style="stroke: #000000; stroke-width: 0.8"/>
      </defs>
      <g>
       <use xlink:href="#m17ab9709bc" x="66.118431" y="188.775429" style="stroke: #000000; stroke-width: 0.8"/>
      </g>
     </g>
    </g>
    <g id="xtick_2">
     <g id="line2d_2">
      <g>
       <use xlink:href="#m17ab9709bc" x="183.772619" y="188.775429" style="stroke: #000000; stroke-width: 0.8"/>
      </g>
     </g>
    </g>
    <g id="xtick_3">
     <g id="line2d_3">
      <g>
       <use xlink:href="#m17ab9709bc" x="301.426808" y="188.775429" style="stroke: #000000; stroke-width: 0.8"/>
      </g>
     </g>
    </g>
    <g id="xtick_4">
     <g id="line2d_4">
      <g>
       <use xlink:href="#m17ab9709bc" x="419.080997" y="188.775429" style="stroke: #000000; stroke-width: 0.8"/>
      </g>
     </g>
    </g>
    <g id="xtick_5">
     <g id="line2d_5">
      <g>
       <use xlink:href="#m17ab9709bc" x="536.735186" y="188.775429" style="stroke: #000000; stroke-width: 0.8"/>
      </g>
     </g>
    </g>
    <g id="xtick_6">
     <g id="line2d_6">
      <g>
       <use xlink:href="#m17ab9709bc" x="654.389375" y="188.775429" style="stroke: #000000; stroke-width: 0.8"/>
      </g>
     </g>
    </g>
   </g>
   <g id="matplotlib.axis_2">
    <g id="ytick_1">
     <g id="line2d_7">
      <defs>
       <path id="m3ba378fc0a" d="M 0 0 
L -3.5 0 
" style="stroke: #000000; stroke-width: 0.8"/>
      </defs>
      <g>
       <use xlink:href="#m3ba378fc0a" x="47.882031" y="168.770669" style="stroke: #000000; stroke-width: 0.8"/>
      </g>
     </g>
     <g id="text_1">
      <!-- 20% -->
      <g transform="translate(20.878125 172.189965) scale(0.09 -0.09)">
       <defs>
        <path id="DejaVuSans-32" d="M 1228 531 
L 3431 531 
L 3431 0 
L 469 0 
L 469 531 
Q 828 903 1448 1529 
Q 2069 2156 2228 2338 
Q 2531 2678 2651 2914 
Q 2772 3150 2772 3378 
Q 2772 3750 2511 3984 
Q 2250 4219 1831 4219 
Q 1534 4219 1204 4116 
Q 875 4013 500 3803 
L 500 4441 
Q 881 4594 1212 4672 
Q 1544 4750 1819 4750 
Q 2544 4750 2975 4387 
Q 3406 4025 3406 3419 
Q 3406 3131 3298 2873 
Q 3191 2616 2906 2266 
Q 2828 2175 2409 1742 
Q 1991 1309 1228 531 
z
" transform="scale(0.015625)"/>
        <path id="DejaVuSans-30" d="M 2034 4250 
Q 1547 4250 1301 3770 
Q 1056 3291 1056 2328 
Q 1056 1369 1301 889 
Q 1547 409 2034 409 
Q 2525 409 2770 889 
Q 3016 1369 3016 2328 
Q 3016 3291 2770 3770 
Q 2525 4250 2034 4250 
z
M 2034 4750 
Q 2819 4750 3233 4129 
Q 3647 3509 3647 2328 
Q 3647 1150 3233 529 
Q 2819 -91 2034 -91 
Q 1250 -91 836 529 
Q 422 1150 422 2328 
Q 422 3509 836 4129 
Q 1250 4750 2034 4750 
z
" transform="scale(0.015625)"/>
        <path id="DejaVuSans-25" d="M 4653 2053 
Q 4381 2053 4226 1822 
Q 4072 1591 4072 1178 
Q 4072 772 4226 539 
Q 4381 306 4653 306 
Q 4919 306 5073 539 
Q 5228 772 5228 1178 
Q 5228 1588 5073 1820 
Q 4919 2053 4653 2053 
z
M 4653 2450 
Q 5147 2450 5437 2106 
Q 5728 1763 5728 1178 
Q 5728 594 5436 251 
Q 5144 -91 4653 -91 
Q 4153 -91 3862 251 
Q 3572 594 3572 1178 
Q 3572 1766 3864 2108 
Q 4156 2450 4653 2450 
z
M 1428 4353 
Q 1159 4353 1004 4120 
Q 850 3888 850 3481 
Q 850 3069 1003 2837 
Q 1156 2606 1428 2606 
Q 1700 2606 1854 2837 
Q 2009 3069 2009 3481 
Q 2009 3884 1853 4118 
Q 1697 4353 1428 4353 
z
M 4250 4750 
L 4750 4750 
L 1831 -91 
L 1331 -91 
L 4250 4750 
z
M 1428 4750 
Q 1922 4750 2215 4408 
Q 2509 4066 2509 3481 
Q 2509 2891 2217 2550 
Q 1925 2209 1428 2209 
Q 931 2209 642 2551 
Q 353 2894 353 3481 
Q 353 4063 643 4406 
Q 934 4750 1428 4750 
z
" transform="scale(0.015625)"/>
       </defs>
       <use xlink:href="#DejaVuSans-32"/>
       <use xlink:href="#DejaVuSans-30" transform="translate(63.623047 0)"/>
       <use xlink:href="#DejaVuSans-25" transform="translate(127.246094 0)"/>
      </g>
     </g>
    </g>
    <g id="ytick_2">
     <g id="line2d_8">
      <g>
       <use xlink:href="#m3ba378fc0a" x="47.882031" y="128.828586" style="stroke: #000000; stroke-width: 0.8"/>
      </g>
     </g>
     <g id="text_2">
      <!-- 25% -->
      <g transform="translate(20.878125 132.247883) scale(0.09 -0.09)">
       <defs>
        <path id="DejaVuSans-35" d="M 691 4666 
L 3169 4666 
L 3169 4134 
L 1269 4134 
L 1269 2991 
Q 1406 3038 1543 3061 
Q 1681 3084 1819 3084 
Q 2600 3084 3056 2656 
Q 3513 2228 3513 1497 
Q 3513 744 3044 326 
Q 2575 -91 1722 -91 
Q 1428 -91 1123 -41 
Q 819 9 494 109 
L 494 744 
Q 775 591 1075 516 
Q 1375 441 1709 441 
Q 2250 441 2565 725 
Q 2881 1009 2881 1497 
Q 2881 1984 2565 2268 
Q 2250 2553 1709 2553 
Q 1456 2553 1204 2497 
Q 953 2441 691 2322 
L 691 4666 
z
" transform="scale(0.015625)"/>
       </defs>
       <use xlink:href="#DejaVuSans-32"/>
       <use xlink:href="#DejaVuSans-35" transform="translate(63.623047 0)"/>
       <use xlink:href="#DejaVuSans-25" transform="translate(127.246094 0)"/>
      </g>
     </g>
    </g>
    <g id="ytick_3">
     <g id="line2d_9">
      <g>
       <use xlink:href="#m3ba378fc0a" x="47.882031" y="88.886504" style="stroke: #000000; stroke-width: 0.8"/>
      </g>
     </g>
     <g id="text_3">
      <!-- 30% -->
      <g transform="translate(20.878125 92.305801) scale(0.09 -0.09)">
       <defs>
        <path id="DejaVuSans-33" d="M 2597 2516 
Q 3050 2419 3304 2112 
Q 3559 1806 3559 1356 
Q 3559 666 3084 287 
Q 2609 -91 1734 -91 
Q 1441 -91 1130 -33 
Q 819 25 488 141 
L 488 750 
Q 750 597 1062 519 
Q 1375 441 1716 441 
Q 2309 441 2620 675 
Q 2931 909 2931 1356 
Q 2931 1769 2642 2001 
Q 2353 2234 1838 2234 
L 1294 2234 
L 1294 2753 
L 1863 2753 
Q 2328 2753 2575 2939 
Q 2822 3125 2822 3475 
Q 2822 3834 2567 4026 
Q 2313 4219 1838 4219 
Q 1578 4219 1281 4162 
Q 984 4106 628 3988 
L 628 4550 
Q 988 4650 1302 4700 
Q 1616 4750 1894 4750 
Q 2613 4750 3031 4423 
Q 3450 4097 3450 3541 
Q 3450 3153 3228 2886 
Q 3006 2619 2597 2516 
z
" transform="scale(0.015625)"/>
       </defs>
       <use xlink:href="#DejaVuSans-33"/>
       <use xlink:href="#DejaVuSans-30" transform="translate(63.623047 0)"/>
       <use xlink:href="#DejaVuSans-25" transform="translate(127.246094 0)"/>
      </g>
     </g>
    </g>
    <g id="ytick_4">
     <g id="line2d_10">
      <g>
       <use xlink:href="#m3ba378fc0a" x="47.882031" y="48.944422" style="stroke: #000000; stroke-width: 0.8"/>
      </g>
     </g>
     <g id="text_4">
      <!-- 35% -->
      <g transform="translate(20.878125 52.363718) scale(0.09 -0.09)">
       <use xlink:href="#DejaVuSans-33"/>
       <use xlink:href="#DejaVuSans-35" transform="translate(63.623047 0)"/>
       <use xlink:href="#DejaVuSans-25" transform="translate(127.246094 0)"/>
      </g>
     </g>
    </g>
    <g id="text_5">
     <!-- PAY004 share -->
     <g transform="translate(14.798438 142.392371) rotate(-90) scale(0.1 -0.1)">
      <defs>
       <path id="DejaVuSans-50" d="M 1259 4147 
L 1259 2394 
L 2053 2394 
Q 2494 2394 2734 2622 
Q 2975 2850 2975 3272 
Q 2975 3691 2734 3919 
Q 2494 4147 2053 4147 
L 1259 4147 
z
M 628 4666 
L 2053 4666 
Q 2838 4666 3239 4311 
Q 3641 3956 3641 3272 
Q 3641 2581 3239 2228 
Q 2838 1875 2053 1875 
L 1259 1875 
L 1259 0 
L 628 0 
L 628 4666 
z
" transform="scale(0.015625)"/>
       <path id="DejaVuSans-41" d="M 2188 4044 
L 1331 1722 
L 3047 1722 
L 2188 4044 
z
M 1831 4666 
L 2547 4666 
L 4325 0 
L 3669 0 
L 3244 1197 
L 1141 1197 
L 716 0 
L 50 0 
L 1831 4666 
z
" transform="scale(0.015625)"/>
       <path id="DejaVuSans-59" d="M -13 4666 
L 666 4666 
L 1959 2747 
L 3244 4666 
L 3922 4666 
L 2272 2222 
L 2272 0 
L 1638 0 
L 1638 2222 
L -13 4666 
z
" transform="scale(0.015625)"/>
       <path id="DejaVuSans-34" d="M 2419 4116 
L 825 1625 
L 2419 1625 
L 2419 4116 
z
M 2253 4666 
L 3047 4666 
L 3047 1625 
L 3713 1625 
L 3713 1100 
L 3047 1100 
L 3047 0 
L 2419 0 
L 2419 1100 
L 313 1100 
L 313 1709 
L 2253 4666 
z
" transform="scale(0.015625)"/>
       <path id="DejaVuSans-20" transform="scale(0.015625)"/>
       <path id="DejaVuSans-73" d="M 2834 3397 
L 2834 2853 
Q 2591 2978 2328 3040 
Q 2066 3103 1784 3103 
Q 1356 3103 1142 2972 
Q 928 2841 928 2578 
Q 928 2378 1081 2264 
Q 1234 2150 1697 2047 
L 1894 2003 
Q 2506 1872 2764 1633 
Q 3022 1394 3022 966 
Q 3022 478 2636 193 
Q 2250 -91 1575 -91 
Q 1294 -91 989 -36 
Q 684 19 347 128 
L 347 722 
Q 666 556 975 473 
Q 1284 391 1588 391 
Q 1994 391 2212 530 
Q 2431 669 2431 922 
Q 2431 1156 2273 1281 
Q 2116 1406 1581 1522 
L 1381 1569 
Q 847 1681 609 1914 
Q 372 2147 372 2553 
Q 372 3047 722 3315 
Q 1072 3584 1716 3584 
Q 2034 3584 2315 3537 
Q 2597 3491 2834 3397 
z
" transform="scale(0.015625)"/>
       <path id="DejaVuSans-68" d="M 3513 2113 
L 3513 0 
L 2938 0 
L 2938 2094 
Q 2938 2591 2744 2837 
Q 2550 3084 2163 3084 
Q 1697 3084 1428 2787 
Q 1159 2491 1159 1978 
L 1159 0 
L 581 0 
L 581 4863 
L 1159 4863 
L 1159 2956 
Q 1366 3272 1645 3428 
Q 1925 3584 2291 3584 
Q 2894 3584 3203 3211 
Q 3513 2838 3513 2113 
z
" transform="scale(0.015625)"/>
       <path id="DejaVuSans-61" d="M 2194 1759 
Q 1497 1759 1228 1600 
Q 959 1441 959 1056 
Q 959 750 1161 570 
Q 1363 391 1709 391 
Q 2188 391 2477 730 
Q 2766 1069 2766 1631 
L 2766 1759 
L 2194 1759 
z
M 3341 1997 
L 3341 0 
L 2766 0 
L 2766 531 
Q 2569 213 2275 61 
Q 1981 -91 1556 -91 
Q 1019 -91 701 211 
Q 384 513 384 1019 
Q 384 1609 779 1909 
Q 1175 2209 1959 2209 
L 2766 2209 
L 2766 2266 
Q 2766 2663 2505 2880 
Q 2244 3097 1772 3097 
Q 1472 3097 1187 3025 
Q 903 2953 641 2809 
L 641 3341 
Q 956 3463 1253 3523 
Q 1550 3584 1831 3584 
Q 2591 3584 2966 3190 
Q 3341 2797 3341 1997 
z
" transform="scale(0.015625)"/>
       <path id="DejaVuSans-72" d="M 2631 2963 
Q 2534 3019 2420 3045 
Q 2306 3072 2169 3072 
Q 1681 3072 1420 2755 
Q 1159 2438 1159 1844 
L 1159 0 
L 581 0 
L 581 3500 
L 1159 3500 
L 1159 2956 
Q 1341 3275 1631 3429 
Q 1922 3584 2338 3584 
Q 2397 3584 2469 3576 
Q 2541 3569 2628 3553 
L 2631 2963 
z
" transform="scale(0.015625)"/>
       <path id="DejaVuSans-65" d="M 3597 1894 
L 3597 1613 
L 953 1613 
Q 991 1019 1311 708 
Q 1631 397 2203 397 
Q 2534 397 2845 478 
Q 3156 559 3463 722 
L 3463 178 
Q 3153 47 2828 -22 
Q 2503 -91 2169 -91 
Q 1331 -91 842 396 
Q 353 884 353 1716 
Q 353 2575 817 3079 
Q 1281 3584 2069 3584 
Q 2775 3584 3186 3129 
Q 3597 2675 3597 1894 
z
M 3022 2063 
Q 3016 2534 2758 2815 
Q 2500 3097 2075 3097 
Q 1594 3097 1305 2825 
Q 1016 2553 972 2059 
L 3022 2063 
z
" transform="scale(0.015625)"/>
      </defs>
      <use xlink:href="#DejaVuSans-50"/>
      <use xlink:href="#DejaVuSans-41" transform="translate(53.927734 0)"/>
      <use xlink:href="#DejaVuSans-59" transform="translate(114.585938 0)"/>
      <use xlink:href="#DejaVuSans-30" transform="translate(175.669922 0)"/>
      <use xlink:href="#DejaVuSans-30" transform="translate(239.292969 0)"/>
      <use xlink:href="#DejaVuSans-34" transform="translate(302.916016 0)"/>
      <use xlink:href="#DejaVuSans-20" transform="translate(366.539062 0)"/>
      <use xlink:href="#DejaVuSans-73" transform="translate(398.326172 0)"/>
      <use xlink:href="#DejaVuSans-68" transform="translate(450.425781 0)"/>
      <use xlink:href="#DejaVuSans-61" transform="translate(513.804688 0)"/>
      <use xlink:href="#DejaVuSans-72" transform="translate(575.083984 0)"/>
      <use xlink:href="#DejaVuSans-65" transform="translate(613.947266 0)"/>
     </g>
    </g>
   </g>
   <g id="line2d_11">
    <path d="M 77.883849 135.330786 
L 89.649268 110.188948 
L 101.414687 86.104468 
L 113.180106 163.953533 
L 124.945525 139.218145 
L 136.710944 86.236318 
L 148.476363 154.489701 
L 160.241782 135.18879 
L 172.007201 157.358645 
L 183.772619 154.87777 
L 195.538038 133.821346 
L 207.303457 154.673463 
L 219.068876 100.889824 
L 230.834295 158.836886 
L 242.599714 121.292344 
L 254.365133 181.488545 
L 266.130552 86.309595 
L 277.895971 111.132727 
L 289.66139 83.439856 
L 301.426808 91.845177 
L 313.192227 86.337009 
L 324.957646 98.872024 
L 336.723065 91.439879 
L 348.488484 96.317589 
L 360.253903 105.512142 
L 372.019322 81.415323 
L 383.784741 75.512232 
L 395.55016 166.062731 
L 407.315578 132.252193 
L 419.080997 100.298527 
L 430.846416 92.195315 
L 442.611835 92.261891 
L 454.377254 121.585203 
L 466.142673 130.100627 
L 477.908092 63.596542 
L 489.673511 119.133906 
L 501.43893 126.584649 
L 513.204349 67.95429 
L 524.969767 97.762522 
L 536.735186 94.395757 
L 548.500605 84.989715 
L 560.266024 109.167976 
L 572.031443 88.449978 
L 583.796862 46.93295 
L 595.562281 130.100627 
L 607.3277 113.466247 
L 619.093119 114.836137 
L 630.858537 125.590039 
L 642.623956 60.946722 
L 654.389375 145.825217 
L 666.154794 134.084123 
L 677.920213 35.750883 
" clip-path="url(#p7a0584d011)" style="fill: none; stroke: #3f72c8; stroke-width: 1.8; stroke-linecap: square"/>
   </g>
   <g id="line2d_12">
    <path d="M 47.882031 134.286826 
L 707.922031 134.286826 
" clip-path="url(#p7a0584d011)" style="fill: none; stroke-dasharray: 3.7,1.6; stroke-dashoffset: 0; stroke: #7c8795"/>
   </g>
   <g id="line2d_13">
    <path d="M 266.130552 188.775429 
L 266.130552 28.464 
" clip-path="url(#p7a0584d011)" style="fill: none; stroke-dasharray: 1.4,2.31; stroke-dashoffset: 0; stroke: #c83e2b; stroke-width: 1.4"/>
   </g>
   <g id="line2d_14">
    <path d="M 301.426808 188.775429 
L 301.426808 28.464 
" clip-path="url(#p7a0584d011)" style="fill: none; stroke-dasharray: 1.4,2.31; stroke-dashoffset: 0; stroke: #2e8b57; stroke-width: 1.4"/>
   </g>
   <g id="patch_3">
    <path d="M 47.882031 188.775429 
L 47.882031 28.464 
" style="fill: none; stroke: #000000; stroke-width: 0.8; stroke-linejoin: miter; stroke-linecap: square"/>
   </g>
   <g id="patch_4">
    <path d="M 47.882031 188.775429 
L 707.922031 188.775429 
" style="fill: none; stroke: #000000; stroke-width: 0.8; stroke-linejoin: miter; stroke-linecap: square"/>
   </g>
   <g id="text_6">
    <!-- 12-week baseline -->
    <g style="fill: #7c8795" transform="translate(77.883849 126.29841) scale(0.08 -0.08)">
     <defs>
      <path id="DejaVuSans-31" d="M 794 531 
L 1825 531 
L 1825 4091 
L 703 3866 
L 703 4441 
L 1819 4666 
L 2450 4666 
L 2450 531 
L 3481 531 
L 3481 0 
L 794 0 
L 794 531 
z
" transform="scale(0.015625)"/>
      <path id="DejaVuSans-2d" d="M 313 2009 
L 1997 2009 
L 1997 1497 
L 313 1497 
L 313 2009 
z
" transform="scale(0.015625)"/>
      <path id="DejaVuSans-77" d="M 269 3500 
L 844 3500 
L 1563 769 
L 2278 3500 
L 2956 3500 
L 3675 769 
L 4391 3500 
L 4966 3500 
L 4050 0 
L 3372 0 
L 2619 2869 
L 1863 0 
L 1184 0 
L 269 3500 
z
" transform="scale(0.015625)"/>
      <path id="DejaVuSans-6b" d="M 581 4863 
L 1159 4863 
L 1159 1991 
L 2875 3500 
L 3609 3500 
L 1753 1863 
L 3688 0 
L 2938 0 
L 1159 1709 
L 1159 0 
L 581 0 
L 581 4863 
z
" transform="scale(0.015625)"/>
      <path id="DejaVuSans-62" d="M 3116 1747 
Q 3116 2381 2855 2742 
Q 2594 3103 2138 3103 
Q 1681 3103 1420 2742 
Q 1159 2381 1159 1747 
Q 1159 1113 1420 752 
Q 1681 391 2138 391 
Q 2594 391 2855 752 
Q 3116 1113 3116 1747 
z
M 1159 2969 
Q 1341 3281 1617 3432 
Q 1894 3584 2278 3584 
Q 2916 3584 3314 3078 
Q 3713 2572 3713 1747 
Q 3713 922 3314 415 
Q 2916 -91 2278 -91 
Q 1894 -91 1617 61 
Q 1341 213 1159 525 
L 1159 0 
L 581 0 
L 581 4863 
L 1159 4863 
L 1159 2969 
z
" transform="scale(0.015625)"/>
      <path id="DejaVuSans-6c" d="M 603 4863 
L 1178 4863 
L 1178 0 
L 603 0 
L 603 4863 
z
" transform="scale(0.015625)"/>
      <path id="DejaVuSans-69" d="M 603 3500 
L 1178 3500 
L 1178 0 
L 603 0 
L 603 3500 
z
M 603 4863 
L 1178 4863 
L 1178 4134 
L 603 4134 
L 603 4863 
z
" transform="scale(0.015625)"/>
      <path id="DejaVuSans-6e" d="M 3513 2113 
L 3513 0 
L 2938 0 
L 2938 2094 
Q 2938 2591 2744 2837 
Q 2550 3084 2163 3084 
Q 1697 3084 1428 2787 
Q 1159 2491 1159 1978 
L 1159 0 
L 581 0 
L 581 3500 
L 1159 3500 
L 1159 2956 
Q 1366 3272 1645 3428 
Q 1925 3584 2291 3584 
Q 2894 3584 3203 3211 
Q 3513 2838 3513 2113 
z
" transform="scale(0.015625)"/>
     </defs>
     <use xlink:href="#DejaVuSans-31"/>
     <use xlink:href="#DejaVuSans-32" transform="translate(63.623047 0)"/>
     <use xlink:href="#DejaVuSans-2d" transform="translate(127.246094 0)"/>
     <use xlink:href="#DejaVuSans-77" transform="translate(163.330078 0)"/>
     <use xlink:href="#DejaVuSans-65" transform="translate(245.117188 0)"/>
     <use xlink:href="#DejaVuSans-65" transform="translate(306.640625 0)"/>
     <use xlink:href="#DejaVuSans-6b" transform="translate(368.164062 0)"/>
     <use xlink:href="#DejaVuSans-20" transform="translate(426.074219 0)"/>
     <use xlink:href="#DejaVuSans-62" transform="translate(457.861328 0)"/>
     <use xlink:href="#DejaVuSans-61" transform="translate(521.337891 0)"/>
     <use xlink:href="#DejaVuSans-73" transform="translate(582.617188 0)"/>
     <use xlink:href="#DejaVuSans-65" transform="translate(634.716797 0)"/>
     <use xlink:href="#DejaVuSans-6c" transform="translate(696.240234 0)"/>
     <use xlink:href="#DejaVuSans-69" transform="translate(724.023438 0)"/>
     <use xlink:href="#DejaVuSans-6e" transform="translate(751.806641 0)"/>
     <use xlink:href="#DejaVuSans-65" transform="translate(815.185547 0)"/>
    </g>
   </g>
  </g>
  <g id="axes_2">
   <g id="patch_5">
    <path d="M 47.882031 419.344 
L 707.922031 419.344 
L 707.922031 205.595429 
L 47.882031 205.595429 
z
" style="fill: #ffffff"/>
   </g>
   <g id="matplotlib.axis_3">
    <g id="xtick_7">
     <g id="line2d_15">
      <g>
       <use xlink:href="#m17ab9709bc" x="66.118431" y="419.344" style="stroke: #000000; stroke-width: 0.8"/>
      </g>
     </g>
     <g id="text_7">
      <!-- 0 -->
      <g transform="translate(63.255306 433.182594) scale(0.09 -0.09)">
       <use xlink:href="#DejaVuSans-30"/>
      </g>
     </g>
    </g>
    <g id="xtick_8">
     <g id="line2d_16">
      <g>
       <use xlink:href="#m17ab9709bc" x="183.772619" y="419.344" style="stroke: #000000; stroke-width: 0.8"/>
      </g>
     </g>
     <g id="text_8">
      <!-- 10 -->
      <g transform="translate(178.046369 433.182594) scale(0.09 -0.09)">
       <use xlink:href="#DejaVuSans-31"/>
       <use xlink:href="#DejaVuSans-30" transform="translate(63.623047 0)"/>
      </g>
     </g>
    </g>
    <g id="xtick_9">
     <g id="line2d_17">
      <g>
       <use xlink:href="#m17ab9709bc" x="301.426808" y="419.344" style="stroke: #000000; stroke-width: 0.8"/>
      </g>
     </g>
     <g id="text_9">
      <!-- 20 -->
      <g transform="translate(295.700558 433.182594) scale(0.09 -0.09)">
       <use xlink:href="#DejaVuSans-32"/>
       <use xlink:href="#DejaVuSans-30" transform="translate(63.623047 0)"/>
      </g>
     </g>
    </g>
    <g id="xtick_10">
     <g id="line2d_18">
      <g>
       <use xlink:href="#m17ab9709bc" x="419.080997" y="419.344" style="stroke: #000000; stroke-width: 0.8"/>
      </g>
     </g>
     <g id="text_10">
      <!-- 30 -->
      <g transform="translate(413.354747 433.182594) scale(0.09 -0.09)">
       <use xlink:href="#DejaVuSans-33"/>
       <use xlink:href="#DejaVuSans-30" transform="translate(63.623047 0)"/>
      </g>
     </g>
    </g>
    <g id="xtick_11">
     <g id="line2d_19">
      <g>
       <use xlink:href="#m17ab9709bc" x="536.735186" y="419.344" style="stroke: #000000; stroke-width: 0.8"/>
      </g>
     </g>
     <g id="text_11">
      <!-- 40 -->
      <g transform="translate(531.008936 433.182594) scale(0.09 -0.09)">
       <use xlink:href="#DejaVuSans-34"/>
       <use xlink:href="#DejaVuSans-30" transform="translate(63.623047 0)"/>
      </g>
     </g>
    </g>
    <g id="xtick_12">
     <g id="line2d_20">
      <g>
       <use xlink:href="#m17ab9709bc" x="654.389375" y="419.344" style="stroke: #000000; stroke-width: 0.8"/>
      </g>
     </g>
     <g id="text_12">
      <!-- 50 -->
      <g transform="translate(648.663125 433.182594) scale(0.09 -0.09)">
       <use xlink:href="#DejaVuSans-35"/>
       <use xlink:href="#DejaVuSans-30" transform="translate(63.623047 0)"/>
      </g>
     </g>
    </g>
    <g id="text_13">
     <!-- Week in 2024 -->
     <g transform="translate(343.742656 446.65275) scale(0.1 -0.1)">
      <defs>
       <path id="DejaVuSans-57" d="M 213 4666 
L 850 4666 
L 1831 722 
L 2809 4666 
L 3519 4666 
L 4500 722 
L 5478 4666 
L 6119 4666 
L 4947 0 
L 4153 0 
L 3169 4050 
L 2175 0 
L 1381 0 
L 213 4666 
z
" transform="scale(0.015625)"/>
      </defs>
      <use xlink:href="#DejaVuSans-57"/>
      <use xlink:href="#DejaVuSans-65" transform="translate(93.001953 0)"/>
      <use xlink:href="#DejaVuSans-65" transform="translate(154.525391 0)"/>
      <use xlink:href="#DejaVuSans-6b" transform="translate(216.048828 0)"/>
      <use xlink:href="#DejaVuSans-20" transform="translate(273.958984 0)"/>
      <use xlink:href="#DejaVuSans-69" transform="translate(305.746094 0)"/>
      <use xlink:href="#DejaVuSans-6e" transform="translate(333.529297 0)"/>
      <use xlink:href="#DejaVuSans-20" transform="translate(396.908203 0)"/>
      <use xlink:href="#DejaVuSans-32" transform="translate(428.695312 0)"/>
      <use xlink:href="#DejaVuSans-30" transform="translate(492.318359 0)"/>
      <use xlink:href="#DejaVuSans-32" transform="translate(555.941406 0)"/>
      <use xlink:href="#DejaVuSans-34" transform="translate(619.564453 0)"/>
     </g>
    </g>
   </g>
   <g id="matplotlib.axis_4">
    <g id="ytick_5">
     <g id="line2d_21">
      <g>
       <use xlink:href="#m3ba378fc0a" x="47.882031" y="419.344" style="stroke: #000000; stroke-width: 0.8"/>
      </g>
     </g>
     <g id="text_14">
      <!-- 0 -->
      <g transform="translate(35.155781 422.763297) scale(0.09 -0.09)">
       <use xlink:href="#DejaVuSans-30"/>
      </g>
     </g>
    </g>
    <g id="ytick_6">
     <g id="line2d_22">
      <g>
       <use xlink:href="#m3ba378fc0a" x="47.882031" y="388.80849" style="stroke: #000000; stroke-width: 0.8"/>
      </g>
     </g>
     <g id="text_15">
      <!-- 1 -->
      <g transform="translate(35.155781 392.227787) scale(0.09 -0.09)">
       <use xlink:href="#DejaVuSans-31"/>
      </g>
     </g>
    </g>
    <g id="ytick_7">
     <g id="line2d_23">
      <g>
       <use xlink:href="#m3ba378fc0a" x="47.882031" y="358.27298" style="stroke: #000000; stroke-width: 0.8"/>
      </g>
     </g>
     <g id="text_16">
      <!-- 2 -->
      <g transform="translate(35.155781 361.692276) scale(0.09 -0.09)">
       <use xlink:href="#DejaVuSans-32"/>
      </g>
     </g>
    </g>
    <g id="ytick_8">
     <g id="line2d_24">
      <g>
       <use xlink:href="#m3ba378fc0a" x="47.882031" y="327.737469" style="stroke: #000000; stroke-width: 0.8"/>
      </g>
     </g>
     <g id="text_17">
      <!-- 3 -->
      <g transform="translate(35.155781 331.156766) scale(0.09 -0.09)">
       <use xlink:href="#DejaVuSans-33"/>
      </g>
     </g>
    </g>
    <g id="ytick_9">
     <g id="line2d_25">
      <g>
       <use xlink:href="#m3ba378fc0a" x="47.882031" y="297.201959" style="stroke: #000000; stroke-width: 0.8"/>
      </g>
     </g>
     <g id="text_18">
      <!-- 4 -->
      <g transform="translate(35.155781 300.621256) scale(0.09 -0.09)">
       <use xlink:href="#DejaVuSans-34"/>
      </g>
     </g>
    </g>
    <g id="ytick_10">
     <g id="line2d_26">
      <g>
       <use xlink:href="#m3ba378fc0a" x="47.882031" y="266.666449" style="stroke: #000000; stroke-width: 0.8"/>
      </g>
     </g>
     <g id="text_19">
      <!-- 5 -->
      <g transform="translate(35.155781 270.085746) scale(0.09 -0.09)">
       <use xlink:href="#DejaVuSans-35"/>
      </g>
     </g>
    </g>
    <g id="ytick_11">
     <g id="line2d_27">
      <g>
       <use xlink:href="#m3ba378fc0a" x="47.882031" y="236.130939" style="stroke: #000000; stroke-width: 0.8"/>
      </g>
     </g>
     <g id="text_20">
      <!-- 6 -->
      <g transform="translate(35.155781 239.550236) scale(0.09 -0.09)">
       <defs>
        <path id="DejaVuSans-36" d="M 2113 2584 
Q 1688 2584 1439 2293 
Q 1191 2003 1191 1497 
Q 1191 994 1439 701 
Q 1688 409 2113 409 
Q 2538 409 2786 701 
Q 3034 994 3034 1497 
Q 3034 2003 2786 2293 
Q 2538 2584 2113 2584 
z
M 3366 4563 
L 3366 3988 
Q 3128 4100 2886 4159 
Q 2644 4219 2406 4219 
Q 1781 4219 1451 3797 
Q 1122 3375 1075 2522 
Q 1259 2794 1537 2939 
Q 1816 3084 2150 3084 
Q 2853 3084 3261 2657 
Q 3669 2231 3669 1497 
Q 3669 778 3244 343 
Q 2819 -91 2113 -91 
Q 1303 -91 875 529 
Q 447 1150 447 2328 
Q 447 3434 972 4092 
Q 1497 4750 2381 4750 
Q 2619 4750 2861 4703 
Q 3103 4656 3366 4563 
z
" transform="scale(0.015625)"/>
       </defs>
       <use xlink:href="#DejaVuSans-36"/>
      </g>
     </g>
    </g>
    <g id="ytick_12">
     <g id="line2d_28">
      <g>
       <use xlink:href="#m3ba378fc0a" x="47.882031" y="205.595429" style="stroke: #000000; stroke-width: 0.8"/>
      </g>
     </g>
     <g id="text_21">
      <!-- 7 -->
      <g transform="translate(35.155781 209.014725) scale(0.09 -0.09)">
       <defs>
        <path id="DejaVuSans-37" d="M 525 4666 
L 3525 4666 
L 3525 4397 
L 1831 0 
L 1172 0 
L 2766 4134 
L 525 4134 
L 525 4666 
z
" transform="scale(0.015625)"/>
       </defs>
       <use xlink:href="#DejaVuSans-37"/>
      </g>
     </g>
    </g>
    <g id="text_22">
     <!-- Standardized CUSUM -->
     <g transform="translate(29.076094 365.368933) rotate(-90) scale(0.1 -0.1)">
      <defs>
       <path id="DejaVuSans-53" d="M 3425 4513 
L 3425 3897 
Q 3066 4069 2747 4153 
Q 2428 4238 2131 4238 
Q 1616 4238 1336 4038 
Q 1056 3838 1056 3469 
Q 1056 3159 1242 3001 
Q 1428 2844 1947 2747 
L 2328 2669 
Q 3034 2534 3370 2195 
Q 3706 1856 3706 1288 
Q 3706 609 3251 259 
Q 2797 -91 1919 -91 
Q 1588 -91 1214 -16 
Q 841 59 441 206 
L 441 856 
Q 825 641 1194 531 
Q 1563 422 1919 422 
Q 2459 422 2753 634 
Q 3047 847 3047 1241 
Q 3047 1584 2836 1778 
Q 2625 1972 2144 2069 
L 1759 2144 
Q 1053 2284 737 2584 
Q 422 2884 422 3419 
Q 422 4038 858 4394 
Q 1294 4750 2059 4750 
Q 2388 4750 2728 4690 
Q 3069 4631 3425 4513 
z
" transform="scale(0.015625)"/>
       <path id="DejaVuSans-74" d="M 1172 4494 
L 1172 3500 
L 2356 3500 
L 2356 3053 
L 1172 3053 
L 1172 1153 
Q 1172 725 1289 603 
Q 1406 481 1766 481 
L 2356 481 
L 2356 0 
L 1766 0 
Q 1100 0 847 248 
Q 594 497 594 1153 
L 594 3053 
L 172 3053 
L 172 3500 
L 594 3500 
L 594 4494 
L 1172 4494 
z
" transform="scale(0.015625)"/>
       <path id="DejaVuSans-64" d="M 2906 2969 
L 2906 4863 
L 3481 4863 
L 3481 0 
L 2906 0 
L 2906 525 
Q 2725 213 2448 61 
Q 2172 -91 1784 -91 
Q 1150 -91 751 415 
Q 353 922 353 1747 
Q 353 2572 751 3078 
Q 1150 3584 1784 3584 
Q 2172 3584 2448 3432 
Q 2725 3281 2906 2969 
z
M 947 1747 
Q 947 1113 1208 752 
Q 1469 391 1925 391 
Q 2381 391 2643 752 
Q 2906 1113 2906 1747 
Q 2906 2381 2643 2742 
Q 2381 3103 1925 3103 
Q 1469 3103 1208 2742 
Q 947 2381 947 1747 
z
" transform="scale(0.015625)"/>
       <path id="DejaVuSans-7a" d="M 353 3500 
L 3084 3500 
L 3084 2975 
L 922 459 
L 3084 459 
L 3084 0 
L 275 0 
L 275 525 
L 2438 3041 
L 353 3041 
L 353 3500 
z
" transform="scale(0.015625)"/>
       <path id="DejaVuSans-43" d="M 4122 4306 
L 4122 3641 
Q 3803 3938 3442 4084 
Q 3081 4231 2675 4231 
Q 1875 4231 1450 3742 
Q 1025 3253 1025 2328 
Q 1025 1406 1450 917 
Q 1875 428 2675 428 
Q 3081 428 3442 575 
Q 3803 722 4122 1019 
L 4122 359 
Q 3791 134 3420 21 
Q 3050 -91 2638 -91 
Q 1578 -91 968 557 
Q 359 1206 359 2328 
Q 359 3453 968 4101 
Q 1578 4750 2638 4750 
Q 3056 4750 3426 4639 
Q 3797 4528 4122 4306 
z
" transform="scale(0.015625)"/>
       <path id="DejaVuSans-55" d="M 556 4666 
L 1191 4666 
L 1191 1831 
Q 1191 1081 1462 751 
Q 1734 422 2344 422 
Q 2950 422 3222 751 
Q 3494 1081 3494 1831 
L 3494 4666 
L 4128 4666 
L 4128 1753 
Q 4128 841 3676 375 
Q 3225 -91 2344 -91 
Q 1459 -91 1007 375 
Q 556 841 556 1753 
L 556 4666 
z
" transform="scale(0.015625)"/>
       <path id="DejaVuSans-4d" d="M 628 4666 
L 1569 4666 
L 2759 1491 
L 3956 4666 
L 4897 4666 
L 4897 0 
L 4281 0 
L 4281 4097 
L 3078 897 
L 2444 897 
L 1241 4097 
L 1241 0 
L 628 0 
L 628 4666 
z
" transform="scale(0.015625)"/>
      </defs>
      <use xlink:href="#DejaVuSans-53"/>
      <use xlink:href="#DejaVuSans-74" transform="translate(63.476562 0)"/>
      <use xlink:href="#DejaVuSans-61" transform="translate(102.685547 0)"/>
      <use xlink:href="#DejaVuSans-6e" transform="translate(163.964844 0)"/>
      <use xlink:href="#DejaVuSans-64" transform="translate(227.34375 0)"/>
      <use xlink:href="#DejaVuSans-61" transform="translate(290.820312 0)"/>
      <use xlink:href="#DejaVuSans-72" transform="translate(352.099609 0)"/>
      <use xlink:href="#DejaVuSans-64" transform="translate(391.462891 0)"/>
      <use xlink:href="#DejaVuSans-69" transform="translate(454.939453 0)"/>
      <use xlink:href="#DejaVuSans-7a" transform="translate(482.722656 0)"/>
      <use xlink:href="#DejaVuSans-65" transform="translate(535.212891 0)"/>
      <use xlink:href="#DejaVuSans-64" transform="translate(596.736328 0)"/>
      <use xlink:href="#DejaVuSans-20" transform="translate(660.212891 0)"/>
      <use xlink:href="#DejaVuSans-43" transform="translate(692 0)"/>
      <use xlink:href="#DejaVuSans-55" transform="translate(761.824219 0)"/>
      <use xlink:href="#DejaVuSans-53" transform="translate(835.017578 0)"/>
      <use xlink:href="#DejaVuSans-55" transform="translate(898.494141 0)"/>
      <use xlink:href="#DejaVuSans-4d" transform="translate(971.6875 0)"/>
     </g>
    </g>
   </g>
   <g id="line2d_29">
    <path d="M 77.883849 419.344 
L 89.649268 407.14992 
L 101.414687 367.509276 
L 113.180106 416.585077 
L 124.945525 419.344 
L 136.710944 379.853611 
L 148.476363 418.144471 
L 160.241782 419.344 
L 172.007201 419.344 
L 183.772619 419.344 
L 195.538038 419.344 
L 207.303457 419.344 
L 219.068876 396.55268 
L 230.834295 419.344 
L 242.599714 419.344 
L 254.365133 419.344 
L 266.130552 379.937117 
L 277.895971 368.818564 
L 289.66139 326.141339 
L 301.426808 293.04278 
L 313.192227 379.968358 
L 324.957646 354.877563 
L 336.723065 321.317128 
L 348.488484 293.31531 
L 360.253903 401.820254 
L 372.019322 356.83588 
L 383.784741 305.12437 
L 395.55016 356.603804 
L 407.315578 369.5529 
L 419.080997 346.087742 
L 430.846416 313.388199 
L 442.611835 280.764526 
L 454.377254 419.344 
L 466.142673 419.344 
L 477.908092 354.053423 
L 489.673511 352.052978 
L 501.43893 358.543366 
L 513.204349 298.218859 
L 524.969767 271.86368 
L 536.735186 389.15207 
L 548.500605 348.241058 
L 560.266024 334.883483 
L 572.031443 297.915771 
L 583.796862 213.635439 
L 595.562281 419.344 
L 607.3277 410.884716 
L 619.093119 403.986552 
L 630.858537 409.343488 
L 642.623956 341.033188 
L 654.389375 369.450041 
L 666.154794 384.486797 
L 677.920213 287.463432 
" clip-path="url(#pcb57a44304)" style="fill: none; stroke: #1e3c6e; stroke-width: 2; stroke-linecap: square"/>
   </g>
   <g id="line2d_30">
    <path d="M 47.882031 297.201959 
L 707.922031 297.201959 
" clip-path="url(#pcb57a44304)" style="fill: none; stroke-dasharray: 4.44,1.92; stroke-dashoffset: 0; stroke: #c83e2b; stroke-width: 1.2"/>
   </g>
   <g id="line2d_31">
    <path d="M 266.130552 419.344 
L 266.130552 205.595429 
" clip-path="url(#pcb57a44304)" style="fill: none; stroke-dasharray: 1.4,2.31; stroke-dashoffset: 0; stroke: #c83e2b; stroke-width: 1.4"/>
   </g>
   <g id="patch_6">
    <path d="M 47.882031 419.344 
L 47.882031 205.595429 
" style="fill: none; stroke: #000000; stroke-width: 0.8; stroke-linejoin: miter; stroke-linecap: square"/>
   </g>
   <g id="patch_7">
    <path d="M 47.882031 419.344 
L 707.922031 419.344 
" style="fill: none; stroke: #000000; stroke-width: 0.8; stroke-linejoin: miter; stroke-linecap: square"/>
   </g>
   <g id="patch_8">
    <path d="M 347.352878 245.390688 
Q 325.083612 268.496892 303.590201 290.798082 
" style="fill: none; stroke: #2e8b57; stroke-linecap: round"/>
    <path d="M 307.173664 289.5297 
L 303.590201 290.798082 
L 304.725573 287.170282 
" style="fill: none; stroke: #2e8b57; stroke-linecap: round"/>
   </g>
   <g id="text_23">
    <!-- First alarm -->
    <g style="fill: #2e8b57" transform="translate(336.723065 230.663786) scale(0.085 -0.085)">
     <defs>
      <path id="DejaVuSans-46" d="M 628 4666 
L 3309 4666 
L 3309 4134 
L 1259 4134 
L 1259 2759 
L 3109 2759 
L 3109 2228 
L 1259 2228 
L 1259 0 
L 628 0 
L 628 4666 
z
" transform="scale(0.015625)"/>
      <path id="DejaVuSans-6d" d="M 3328 2828 
Q 3544 3216 3844 3400 
Q 4144 3584 4550 3584 
Q 5097 3584 5394 3201 
Q 5691 2819 5691 2113 
L 5691 0 
L 5113 0 
L 5113 2094 
Q 5113 2597 4934 2840 
Q 4756 3084 4391 3084 
Q 3944 3084 3684 2787 
Q 3425 2491 3425 1978 
L 3425 0 
L 2847 0 
L 2847 2094 
Q 2847 2600 2669 2842 
Q 2491 3084 2119 3084 
Q 1678 3084 1418 2786 
Q 1159 2488 1159 1978 
L 1159 0 
L 581 0 
L 581 3500 
L 1159 3500 
L 1159 2956 
Q 1356 3278 1631 3431 
Q 1906 3584 2284 3584 
Q 2666 3584 2933 3390 
Q 3200 3197 3328 2828 
z
" transform="scale(0.015625)"/>
     </defs>
     <use xlink:href="#DejaVuSans-46"/>
     <use xlink:href="#DejaVuSans-69" transform="translate(50.269531 0)"/>
     <use xlink:href="#DejaVuSans-72" transform="translate(78.052734 0)"/>
     <use xlink:href="#DejaVuSans-73" transform="translate(119.166016 0)"/>
     <use xlink:href="#DejaVuSans-74" transform="translate(171.265625 0)"/>
     <use xlink:href="#DejaVuSans-20" transform="translate(210.474609 0)"/>
     <use xlink:href="#DejaVuSans-61" transform="translate(242.261719 0)"/>
     <use xlink:href="#DejaVuSans-6c" transform="translate(303.541016 0)"/>
     <use xlink:href="#DejaVuSans-61" transform="translate(331.324219 0)"/>
     <use xlink:href="#DejaVuSans-72" transform="translate(392.603516 0)"/>
     <use xlink:href="#DejaVuSans-6d" transform="translate(431.966797 0)"/>
    </g>
    <!-- week 20 -->
    <g style="fill: #2e8b57" transform="translate(336.723065 240.181927) scale(0.085 -0.085)">
     <use xlink:href="#DejaVuSans-77"/>
     <use xlink:href="#DejaVuSans-65" transform="translate(81.787109 0)"/>
     <use xlink:href="#DejaVuSans-65" transform="translate(143.310547 0)"/>
     <use xlink:href="#DejaVuSans-6b" transform="translate(204.833984 0)"/>
     <use xlink:href="#DejaVuSans-20" transform="translate(262.744141 0)"/>
     <use xlink:href="#DejaVuSans-32" transform="translate(294.53125 0)"/>
     <use xlink:href="#DejaVuSans-30" transform="translate(358.154297 0)"/>
    </g>
   </g>
   <g id="text_24">
    <!-- Later crossings stay in the same episode -->
    <g style="fill: #7c8795" transform="translate(520.817872 227.0165) scale(0.085 -0.085)">
     <defs>
      <path id="DejaVuSans-4c" d="M 628 4666 
L 1259 4666 
L 1259 531 
L 3531 531 
L 3531 0 
L 628 0 
L 628 4666 
z
" transform="scale(0.015625)"/>
      <path id="DejaVuSans-63" d="M 3122 3366 
L 3122 2828 
Q 2878 2963 2633 3030 
Q 2388 3097 2138 3097 
Q 1578 3097 1268 2742 
Q 959 2388 959 1747 
Q 959 1106 1268 751 
Q 1578 397 2138 397 
Q 2388 397 2633 464 
Q 2878 531 3122 666 
L 3122 134 
Q 2881 22 2623 -34 
Q 2366 -91 2075 -91 
Q 1284 -91 818 406 
Q 353 903 353 1747 
Q 353 2603 823 3093 
Q 1294 3584 2113 3584 
Q 2378 3584 2631 3529 
Q 2884 3475 3122 3366 
z
" transform="scale(0.015625)"/>
      <path id="DejaVuSans-6f" d="M 1959 3097 
Q 1497 3097 1228 2736 
Q 959 2375 959 1747 
Q 959 1119 1226 758 
Q 1494 397 1959 397 
Q 2419 397 2687 759 
Q 2956 1122 2956 1747 
Q 2956 2369 2687 2733 
Q 2419 3097 1959 3097 
z
M 1959 3584 
Q 2709 3584 3137 3096 
Q 3566 2609 3566 1747 
Q 3566 888 3137 398 
Q 2709 -91 1959 -91 
Q 1206 -91 779 398 
Q 353 888 353 1747 
Q 353 2609 779 3096 
Q 1206 3584 1959 3584 
z
" transform="scale(0.015625)"/>
      <path id="DejaVuSans-67" d="M 2906 1791 
Q 2906 2416 2648 2759 
Q 2391 3103 1925 3103 
Q 1463 3103 1205 2759 
Q 947 2416 947 1791 
Q 947 1169 1205 825 
Q 1463 481 1925 481 
Q 2391 481 2648 825 
Q 2906 1169 2906 1791 
z
M 3481 434 
Q 3481 -459 3084 -895 
Q 2688 -1331 1869 -1331 
Q 1566 -1331 1297 -1286 
Q 1028 -1241 775 -1147 
L 775 -588 
Q 1028 -725 1275 -790 
Q 1522 -856 1778 -856 
Q 2344 -856 2625 -561 
Q 2906 -266 2906 331 
L 2906 616 
Q 2728 306 2450 153 
Q 2172 0 1784 0 
Q 1141 0 747 490 
Q 353 981 353 1791 
Q 353 2603 747 3093 
Q 1141 3584 1784 3584 
Q 2172 3584 2450 3431 
Q 2728 3278 2906 2969 
L 2906 3500 
L 3481 3500 
L 3481 434 
z
" transform="scale(0.015625)"/>
      <path id="DejaVuSans-79" d="M 2059 -325 
Q 1816 -950 1584 -1140 
Q 1353 -1331 966 -1331 
L 506 -1331 
L 506 -850 
L 844 -850 
Q 1081 -850 1212 -737 
Q 1344 -625 1503 -206 
L 1606 56 
L 191 3500 
L 800 3500 
L 1894 763 
L 2988 3500 
L 3597 3500 
L 2059 -325 
z
" transform="scale(0.015625)"/>
      <path id="DejaVuSans-70" d="M 1159 525 
L 1159 -1331 
L 581 -1331 
L 581 3500 
L 1159 3500 
L 1159 2969 
Q 1341 3281 1617 3432 
Q 1894 3584 2278 3584 
Q 2916 3584 3314 3078 
Q 3713 2572 3713 1747 
Q 3713 922 3314 415 
Q 2916 -91 2278 -91 
Q 1894 -91 1617 61 
Q 1341 213 1159 525 
z
M 3116 1747 
Q 3116 2381 2855 2742 
Q 2594 3103 2138 3103 
Q 1681 3103 1420 2742 
Q 1159 2381 1159 1747 
Q 1159 1113 1420 752 
Q 1681 391 2138 391 
Q 2594 391 2855 752 
Q 3116 1113 3116 1747 
z
" transform="scale(0.015625)"/>
     </defs>
     <use xlink:href="#DejaVuSans-4c"/>
     <use xlink:href="#DejaVuSans-61" transform="translate(55.712891 0)"/>
     <use xlink:href="#DejaVuSans-74" transform="translate(116.992188 0)"/>
     <use xlink:href="#DejaVuSans-65" transform="translate(156.201172 0)"/>
     <use xlink:href="#DejaVuSans-72" transform="translate(217.724609 0)"/>
     <use xlink:href="#DejaVuSans-20" transform="translate(258.837891 0)"/>
     <use xlink:href="#DejaVuSans-63" transform="translate(290.625 0)"/>
     <use xlink:href="#DejaVuSans-72" transform="translate(345.605469 0)"/>
     <use xlink:href="#DejaVuSans-6f" transform="translate(384.46875 0)"/>
     <use xlink:href="#DejaVuSans-73" transform="translate(445.650391 0)"/>
     <use xlink:href="#DejaVuSans-73" transform="translate(497.75 0)"/>
     <use xlink:href="#DejaVuSans-69" transform="translate(549.849609 0)"/>
     <use xlink:href="#DejaVuSans-6e" transform="translate(577.632812 0)"/>
     <use xlink:href="#DejaVuSans-67" transform="translate(641.011719 0)"/>
     <use xlink:href="#DejaVuSans-73" transform="translate(704.488281 0)"/>
     <use xlink:href="#DejaVuSans-20" transform="translate(756.587891 0)"/>
     <use xlink:href="#DejaVuSans-73" transform="translate(788.375 0)"/>
     <use xlink:href="#DejaVuSans-74" transform="translate(840.474609 0)"/>
     <use xlink:href="#DejaVuSans-61" transform="translate(879.683594 0)"/>
     <use xlink:href="#DejaVuSans-79" transform="translate(940.962891 0)"/>
     <use xlink:href="#DejaVuSans-20" transform="translate(1000.142578 0)"/>
     <use xlink:href="#DejaVuSans-69" transform="translate(1031.929688 0)"/>
     <use xlink:href="#DejaVuSans-6e" transform="translate(1059.712891 0)"/>
     <use xlink:href="#DejaVuSans-20" transform="translate(1123.091797 0)"/>
     <use xlink:href="#DejaVuSans-74" transform="translate(1154.878906 0)"/>
     <use xlink:href="#DejaVuSans-68" transform="translate(1194.087891 0)"/>
     <use xlink:href="#DejaVuSans-65" transform="translate(1257.466797 0)"/>
     <use xlink:href="#DejaVuSans-20" transform="translate(1318.990234 0)"/>
     <use xlink:href="#DejaVuSans-73" transform="translate(1350.777344 0)"/>
     <use xlink:href="#DejaVuSans-61" transform="translate(1402.876953 0)"/>
     <use xlink:href="#DejaVuSans-6d" transform="translate(1464.15625 0)"/>
     <use xlink:href="#DejaVuSans-65" transform="translate(1561.568359 0)"/>
     <use xlink:href="#DejaVuSans-20" transform="translate(1623.091797 0)"/>
     <use xlink:href="#DejaVuSans-65" transform="translate(1654.878906 0)"/>
     <use xlink:href="#DejaVuSans-70" transform="translate(1716.402344 0)"/>
     <use xlink:href="#DejaVuSans-69" transform="translate(1779.878906 0)"/>
     <use xlink:href="#DejaVuSans-73" transform="translate(1807.662109 0)"/>
     <use xlink:href="#DejaVuSans-6f" transform="translate(1859.761719 0)"/>
     <use xlink:href="#DejaVuSans-64" transform="translate(1920.943359 0)"/>
     <use xlink:href="#DejaVuSans-65" transform="translate(1984.419922 0)"/>
    </g>
   </g>
   <g id="PathCollection_1">
    <defs>
     <path id="m17924ae237" d="M 0 3.464102 
C 0.91869 3.464102 1.799877 3.099102 2.44949 2.44949 
C 3.099102 1.799877 3.464102 0.91869 3.464102 0 
C 3.464102 -0.91869 3.099102 -1.799877 2.44949 -2.44949 
C 1.799877 -3.099102 0.91869 -3.464102 0 -3.464102 
C -0.91869 -3.464102 -1.799877 -3.099102 -2.44949 -2.44949 
C -3.099102 -1.799877 -3.464102 -0.91869 -3.464102 0 
C -3.464102 0.91869 -3.099102 1.799877 -2.44949 2.44949 
C -1.799877 3.099102 -0.91869 3.464102 0 3.464102 
z
" style="stroke: #7c8795; stroke-width: 1.2"/>
    </defs>
    <g clip-path="url(#pcb57a44304)">
     <use xlink:href="#m17924ae237" x="348.488484" y="293.31531" style="fill: #ffffff; stroke: #7c8795; stroke-width: 1.2"/>
     <use xlink:href="#m17924ae237" x="442.611835" y="280.764526" style="fill: #ffffff; stroke: #7c8795; stroke-width: 1.2"/>
     <use xlink:href="#m17924ae237" x="524.969767" y="271.86368" style="fill: #ffffff; stroke: #7c8795; stroke-width: 1.2"/>
     <use xlink:href="#m17924ae237" x="583.796862" y="213.635439" style="fill: #ffffff; stroke: #7c8795; stroke-width: 1.2"/>
     <use xlink:href="#m17924ae237" x="677.920213" y="287.463432" style="fill: #ffffff; stroke: #7c8795; stroke-width: 1.2"/>
    </g>
   </g>
   <g id="PathCollection_2">
    <defs>
     <path id="mf43c3f8802" d="M 0 3.708099 
C 0.983399 3.708099 1.926654 3.317391 2.622022 2.622022 
C 3.317391 1.926654 3.708099 0.983399 3.708099 0 
C 3.708099 -0.983399 3.317391 -1.926654 2.622022 -2.622022 
C 1.926654 -3.317391 0.983399 -3.708099 0 -3.708099 
C -0.983399 -3.708099 -1.926654 -3.317391 -2.622022 -2.622022 
C -3.317391 -1.926654 -3.708099 -0.983399 -3.708099 0 
C -3.708099 0.983399 -3.317391 1.926654 -2.622022 2.622022 
C -1.926654 3.317391 -0.983399 3.708099 0 3.708099 
z
" style="stroke: #ffffff; stroke-width: 0.8"/>
    </defs>
    <g clip-path="url(#pcb57a44304)">
     <use xlink:href="#mf43c3f8802" x="301.426808" y="293.04278" style="fill: #2e8b57; stroke: #ffffff; stroke-width: 0.8"/>
    </g>
   </g>
   <g id="legend_1">
    <g id="line2d_32">
     <path d="M 55.082031 216.074179 
L 63.082031 216.074179 
L 71.082031 216.074179 
" style="fill: none; stroke: #1e3c6e; stroke-width: 2; stroke-linecap: square"/>
    </g>
    <g id="text_25">
     <!-- Positive CUSUM -->
     <g transform="translate(77.482031 218.874179) scale(0.08 -0.08)">
      <defs>
       <path id="DejaVuSans-76" d="M 191 3500 
L 800 3500 
L 1894 563 
L 2988 3500 
L 3597 3500 
L 2284 0 
L 1503 0 
L 191 3500 
z
" transform="scale(0.015625)"/>
      </defs>
      <use xlink:href="#DejaVuSans-50"/>
      <use xlink:href="#DejaVuSans-6f" transform="translate(56.677734 0)"/>
      <use xlink:href="#DejaVuSans-73" transform="translate(117.859375 0)"/>
      <use xlink:href="#DejaVuSans-69" transform="translate(169.958984 0)"/>
      <use xlink:href="#DejaVuSans-74" transform="translate(197.742188 0)"/>
      <use xlink:href="#DejaVuSans-69" transform="translate(236.951172 0)"/>
      <use xlink:href="#DejaVuSans-76" transform="translate(264.734375 0)"/>
      <use xlink:href="#DejaVuSans-65" transform="translate(323.914062 0)"/>
      <use xlink:href="#DejaVuSans-20" transform="translate(385.4375 0)"/>
      <use xlink:href="#DejaVuSans-43" transform="translate(417.224609 0)"/>
      <use xlink:href="#DejaVuSans-55" transform="translate(487.048828 0)"/>
      <use xlink:href="#DejaVuSans-53" transform="translate(560.242188 0)"/>
      <use xlink:href="#DejaVuSans-55" transform="translate(623.71875 0)"/>
      <use xlink:href="#DejaVuSans-4d" transform="translate(696.912109 0)"/>
     </g>
    </g>
    <g id="line2d_33">
     <path d="M 55.082031 227.816679 
L 63.082031 227.816679 
L 71.082031 227.816679 
" style="fill: none; stroke-dasharray: 4.44,1.92; stroke-dashoffset: 0; stroke: #c83e2b; stroke-width: 1.2"/>
    </g>
    <g id="text_26">
     <!-- Alarm threshold -->
     <g transform="translate(77.482031 230.616679) scale(0.08 -0.08)">
      <use xlink:href="#DejaVuSans-41"/>
      <use xlink:href="#DejaVuSans-6c" transform="translate(68.408203 0)"/>
      <use xlink:href="#DejaVuSans-61" transform="translate(96.191406 0)"/>
      <use xlink:href="#DejaVuSans-72" transform="translate(157.470703 0)"/>
      <use xlink:href="#DejaVuSans-6d" transform="translate(196.833984 0)"/>
      <use xlink:href="#DejaVuSans-20" transform="translate(294.246094 0)"/>
      <use xlink:href="#DejaVuSans-74" transform="translate(326.033203 0)"/>
      <use xlink:href="#DejaVuSans-68" transform="translate(365.242188 0)"/>
      <use xlink:href="#DejaVuSans-72" transform="translate(428.621094 0)"/>
      <use xlink:href="#DejaVuSans-65" transform="translate(467.484375 0)"/>
      <use xlink:href="#DejaVuSans-73" transform="translate(529.007812 0)"/>
      <use xlink:href="#DejaVuSans-68" transform="translate(581.107422 0)"/>
      <use xlink:href="#DejaVuSans-6f" transform="translate(644.486328 0)"/>
      <use xlink:href="#DejaVuSans-6c" transform="translate(705.667969 0)"/>
      <use xlink:href="#DejaVuSans-64" transform="translate(733.451172 0)"/>
     </g>
    </g>
    <g id="line2d_34">
     <path d="M 157.234531 216.074179 
L 165.234531 216.074179 
L 173.234531 216.074179 
" style="fill: none; stroke-dasharray: 1.4,2.31; stroke-dashoffset: 0; stroke: #c83e2b; stroke-width: 1.4"/>
    </g>
    <g id="text_27">
     <!-- Formulary event -->
     <g transform="translate(179.634531 218.874179) scale(0.08 -0.08)">
      <defs>
       <path id="DejaVuSans-75" d="M 544 1381 
L 544 3500 
L 1119 3500 
L 1119 1403 
Q 1119 906 1312 657 
Q 1506 409 1894 409 
Q 2359 409 2629 706 
Q 2900 1003 2900 1516 
L 2900 3500 
L 3475 3500 
L 3475 0 
L 2900 0 
L 2900 538 
Q 2691 219 2414 64 
Q 2138 -91 1772 -91 
Q 1169 -91 856 284 
Q 544 659 544 1381 
z
M 1991 3584 
L 1991 3584 
z
" transform="scale(0.015625)"/>
      </defs>
      <use xlink:href="#DejaVuSans-46"/>
      <use xlink:href="#DejaVuSans-6f" transform="translate(53.894531 0)"/>
      <use xlink:href="#DejaVuSans-72" transform="translate(115.076172 0)"/>
      <use xlink:href="#DejaVuSans-6d" transform="translate(154.439453 0)"/>
      <use xlink:href="#DejaVuSans-75" transform="translate(251.851562 0)"/>
      <use xlink:href="#DejaVuSans-6c" transform="translate(315.230469 0)"/>
      <use xlink:href="#DejaVuSans-61" transform="translate(343.013672 0)"/>
      <use xlink:href="#DejaVuSans-72" transform="translate(404.292969 0)"/>
      <use xlink:href="#DejaVuSans-79" transform="translate(445.40625 0)"/>
      <use xlink:href="#DejaVuSans-20" transform="translate(504.585938 0)"/>
      <use xlink:href="#DejaVuSans-65" transform="translate(536.373047 0)"/>
      <use xlink:href="#DejaVuSans-76" transform="translate(597.896484 0)"/>
      <use xlink:href="#DejaVuSans-65" transform="translate(657.076172 0)"/>
      <use xlink:href="#DejaVuSans-6e" transform="translate(718.599609 0)"/>
      <use xlink:href="#DejaVuSans-74" transform="translate(781.978516 0)"/>
     </g>
    </g>
    <g id="PathCollection_3">
     <g>
      <use xlink:href="#mf43c3f8802" x="165.234531" y="228.516679" style="fill: #2e8b57; stroke: #ffffff; stroke-width: 0.8"/>
     </g>
    </g>
    <g id="text_28">
     <!-- Episode opened -->
     <g transform="translate(179.634531 230.616679) scale(0.08 -0.08)">
      <defs>
       <path id="DejaVuSans-45" d="M 628 4666 
L 3578 4666 
L 3578 4134 
L 1259 4134 
L 1259 2753 
L 3481 2753 
L 3481 2222 
L 1259 2222 
L 1259 531 
L 3634 531 
L 3634 0 
L 628 0 
L 628 4666 
z
" transform="scale(0.015625)"/>
      </defs>
      <use xlink:href="#DejaVuSans-45"/>
      <use xlink:href="#DejaVuSans-70" transform="translate(63.183594 0)"/>
      <use xlink:href="#DejaVuSans-69" transform="translate(126.660156 0)"/>
      <use xlink:href="#DejaVuSans-73" transform="translate(154.443359 0)"/>
      <use xlink:href="#DejaVuSans-6f" transform="translate(206.542969 0)"/>
      <use xlink:href="#DejaVuSans-64" transform="translate(267.724609 0)"/>
      <use xlink:href="#DejaVuSans-65" transform="translate(331.201172 0)"/>
      <use xlink:href="#DejaVuSans-20" transform="translate(392.724609 0)"/>
      <use xlink:href="#DejaVuSans-6f" transform="translate(424.511719 0)"/>
      <use xlink:href="#DejaVuSans-70" transform="translate(485.693359 0)"/>
      <use xlink:href="#DejaVuSans-65" transform="translate(549.169922 0)"/>
      <use xlink:href="#DejaVuSans-6e" transform="translate(610.693359 0)"/>
      <use xlink:href="#DejaVuSans-65" transform="translate(674.072266 0)"/>
      <use xlink:href="#DejaVuSans-64" transform="translate(735.595703 0)"/>
     </g>
    </g>
    <g id="PathCollection_4">
     <g>
      <use xlink:href="#m17924ae237" x="269.329531" y="216.774179" style="fill: #ffffff; stroke: #7c8795; stroke-width: 1.2"/>
     </g>
    </g>
    <g id="text_29">
     <!-- Persistence crossing -->
     <g transform="translate(283.729531 218.874179) scale(0.08 -0.08)">
      <use xlink:href="#DejaVuSans-50"/>
      <use xlink:href="#DejaVuSans-65" transform="translate(56.677734 0)"/>
      <use xlink:href="#DejaVuSans-72" transform="translate(118.201172 0)"/>
      <use xlink:href="#DejaVuSans-73" transform="translate(159.314453 0)"/>
      <use xlink:href="#DejaVuSans-69" transform="translate(211.414062 0)"/>
      <use xlink:href="#DejaVuSans-73" transform="translate(239.197266 0)"/>
      <use xlink:href="#DejaVuSans-74" transform="translate(291.296875 0)"/>
      <use xlink:href="#DejaVuSans-65" transform="translate(330.505859 0)"/>
      <use xlink:href="#DejaVuSans-6e" transform="translate(392.029297 0)"/>
      <use xlink:href="#DejaVuSans-63" transform="translate(455.408203 0)"/>
      <use xlink:href="#DejaVuSans-65" transform="translate(510.388672 0)"/>
      <use xlink:href="#DejaVuSans-20" transform="translate(571.912109 0)"/>
      <use xlink:href="#DejaVuSans-63" transform="translate(603.699219 0)"/>
      <use xlink:href="#DejaVuSans-72" transform="translate(658.679688 0)"/>
      <use xlink:href="#DejaVuSans-6f" transform="translate(697.542969 0)"/>
      <use xlink:href="#DejaVuSans-73" transform="translate(758.724609 0)"/>
      <use xlink:href="#DejaVuSans-73" transform="translate(810.824219 0)"/>
      <use xlink:href="#DejaVuSans-69" transform="translate(862.923828 0)"/>
      <use xlink:href="#DejaVuSans-6e" transform="translate(890.707031 0)"/>
      <use xlink:href="#DejaVuSans-67" transform="translate(954.085938 0)"/>
     </g>
    </g>
   </g>
  </g>
  <g id="text_30">
   <!-- Weekly CUSUM Detection for PAY004 Share -->
   <g transform="translate(225.891313 15.406312) scale(0.108 -0.108)">
    <defs>
     <path id="DejaVuSans-Bold-57" d="M 191 4666 
L 1344 4666 
L 2150 1275 
L 2950 4666 
L 4109 4666 
L 4909 1275 
L 5716 4666 
L 6859 4666 
L 5759 0 
L 4372 0 
L 3525 3547 
L 2688 0 
L 1300 0 
L 191 4666 
z
" transform="scale(0.015625)"/>
     <path id="DejaVuSans-Bold-65" d="M 4031 1759 
L 4031 1441 
L 1416 1441 
Q 1456 1047 1700 850 
Q 1944 653 2381 653 
Q 2734 653 3104 758 
Q 3475 863 3866 1075 
L 3866 213 
Q 3469 63 3072 -14 
Q 2675 -91 2278 -91 
Q 1328 -91 801 392 
Q 275 875 275 1747 
Q 275 2603 792 3093 
Q 1309 3584 2216 3584 
Q 3041 3584 3536 3087 
Q 4031 2591 4031 1759 
z
M 2881 2131 
Q 2881 2450 2695 2645 
Q 2509 2841 2209 2841 
Q 1884 2841 1681 2658 
Q 1478 2475 1428 2131 
L 2881 2131 
z
" transform="scale(0.015625)"/>
     <path id="DejaVuSans-Bold-6b" d="M 538 4863 
L 1656 4863 
L 1656 2216 
L 2944 3500 
L 4244 3500 
L 2534 1894 
L 4378 0 
L 3022 0 
L 1656 1459 
L 1656 0 
L 538 0 
L 538 4863 
z
" transform="scale(0.015625)"/>
     <path id="DejaVuSans-Bold-6c" d="M 538 4863 
L 1656 4863 
L 1656 0 
L 538 0 
L 538 4863 
z
" transform="scale(0.015625)"/>
     <path id="DejaVuSans-Bold-79" d="M 78 3500 
L 1197 3500 
L 2138 1125 
L 2938 3500 
L 4056 3500 
L 2584 -331 
Q 2363 -916 2067 -1148 
Q 1772 -1381 1288 -1381 
L 641 -1381 
L 641 -647 
L 991 -647 
Q 1275 -647 1404 -556 
Q 1534 -466 1606 -231 
L 1638 -134 
L 78 3500 
z
" transform="scale(0.015625)"/>
     <path id="DejaVuSans-Bold-20" transform="scale(0.015625)"/>
     <path id="DejaVuSans-Bold-43" d="M 4288 256 
Q 3956 84 3597 -3 
Q 3238 -91 2847 -91 
Q 1681 -91 1000 561 
Q 319 1213 319 2328 
Q 319 3447 1000 4098 
Q 1681 4750 2847 4750 
Q 3238 4750 3597 4662 
Q 3956 4575 4288 4403 
L 4288 3438 
Q 3953 3666 3628 3772 
Q 3303 3878 2944 3878 
Q 2300 3878 1931 3465 
Q 1563 3053 1563 2328 
Q 1563 1606 1931 1193 
Q 2300 781 2944 781 
Q 3303 781 3628 887 
Q 3953 994 4288 1222 
L 4288 256 
z
" transform="scale(0.015625)"/>
     <path id="DejaVuSans-Bold-55" d="M 588 4666 
L 1791 4666 
L 1791 1869 
Q 1791 1291 1980 1042 
Q 2169 794 2597 794 
Q 3028 794 3217 1042 
Q 3406 1291 3406 1869 
L 3406 4666 
L 4609 4666 
L 4609 1869 
Q 4609 878 4112 393 
Q 3616 -91 2597 -91 
Q 1581 -91 1084 393 
Q 588 878 588 1869 
L 588 4666 
z
" transform="scale(0.015625)"/>
     <path id="DejaVuSans-Bold-53" d="M 3834 4519 
L 3834 3531 
Q 3450 3703 3084 3790 
Q 2719 3878 2394 3878 
Q 1963 3878 1756 3759 
Q 1550 3641 1550 3391 
Q 1550 3203 1689 3098 
Q 1828 2994 2194 2919 
L 2706 2816 
Q 3484 2659 3812 2340 
Q 4141 2022 4141 1434 
Q 4141 663 3683 286 
Q 3225 -91 2284 -91 
Q 1841 -91 1394 -6 
Q 947 78 500 244 
L 500 1259 
Q 947 1022 1364 901 
Q 1781 781 2169 781 
Q 2563 781 2772 912 
Q 2981 1044 2981 1288 
Q 2981 1506 2839 1625 
Q 2697 1744 2272 1838 
L 1806 1941 
Q 1106 2091 782 2419 
Q 459 2747 459 3303 
Q 459 4000 909 4375 
Q 1359 4750 2203 4750 
Q 2588 4750 2994 4692 
Q 3400 4634 3834 4519 
z
" transform="scale(0.015625)"/>
     <path id="DejaVuSans-Bold-4d" d="M 588 4666 
L 2119 4666 
L 3181 2169 
L 4250 4666 
L 5778 4666 
L 5778 0 
L 4641 0 
L 4641 3413 
L 3566 897 
L 2803 897 
L 1728 3413 
L 1728 0 
L 588 0 
L 588 4666 
z
" transform="scale(0.015625)"/>
     <path id="DejaVuSans-Bold-44" d="M 1791 3756 
L 1791 909 
L 2222 909 
Q 2959 909 3348 1275 
Q 3738 1641 3738 2338 
Q 3738 3031 3350 3393 
Q 2963 3756 2222 3756 
L 1791 3756 
z
M 588 4666 
L 1856 4666 
Q 2919 4666 3439 4514 
Q 3959 4363 4331 4000 
Q 4659 3684 4818 3271 
Q 4978 2859 4978 2338 
Q 4978 1809 4818 1395 
Q 4659 981 4331 666 
Q 3956 303 3431 151 
Q 2906 0 1856 0 
L 588 0 
L 588 4666 
z
" transform="scale(0.015625)"/>
     <path id="DejaVuSans-Bold-74" d="M 1759 4494 
L 1759 3500 
L 2913 3500 
L 2913 2700 
L 1759 2700 
L 1759 1216 
Q 1759 972 1856 886 
Q 1953 800 2241 800 
L 2816 800 
L 2816 0 
L 1856 0 
Q 1194 0 917 276 
Q 641 553 641 1216 
L 641 2700 
L 84 2700 
L 84 3500 
L 641 3500 
L 641 4494 
L 1759 4494 
z
" transform="scale(0.015625)"/>
     <path id="DejaVuSans-Bold-63" d="M 3366 3391 
L 3366 2478 
Q 3138 2634 2908 2709 
Q 2678 2784 2431 2784 
Q 1963 2784 1702 2511 
Q 1441 2238 1441 1747 
Q 1441 1256 1702 982 
Q 1963 709 2431 709 
Q 2694 709 2930 787 
Q 3166 866 3366 1019 
L 3366 103 
Q 3103 6 2833 -42 
Q 2563 -91 2291 -91 
Q 1344 -91 809 395 
Q 275 881 275 1747 
Q 275 2613 809 3098 
Q 1344 3584 2291 3584 
Q 2566 3584 2833 3536 
Q 3100 3488 3366 3391 
z
" transform="scale(0.015625)"/>
     <path id="DejaVuSans-Bold-69" d="M 538 3500 
L 1656 3500 
L 1656 0 
L 538 0 
L 538 3500 
z
M 538 4863 
L 1656 4863 
L 1656 3950 
L 538 3950 
L 538 4863 
z
" transform="scale(0.015625)"/>
     <path id="DejaVuSans-Bold-6f" d="M 2203 2784 
Q 1831 2784 1636 2517 
Q 1441 2250 1441 1747 
Q 1441 1244 1636 976 
Q 1831 709 2203 709 
Q 2569 709 2762 976 
Q 2956 1244 2956 1747 
Q 2956 2250 2762 2517 
Q 2569 2784 2203 2784 
z
M 2203 3584 
Q 3106 3584 3614 3096 
Q 4122 2609 4122 1747 
Q 4122 884 3614 396 
Q 3106 -91 2203 -91 
Q 1297 -91 786 396 
Q 275 884 275 1747 
Q 275 2609 786 3096 
Q 1297 3584 2203 3584 
z
" transform="scale(0.015625)"/>
     <path id="DejaVuSans-Bold-6e" d="M 4056 2131 
L 4056 0 
L 2931 0 
L 2931 347 
L 2931 1631 
Q 2931 2084 2911 2256 
Q 2891 2428 2841 2509 
Q 2775 2619 2662 2680 
Q 2550 2741 2406 2741 
Q 2056 2741 1856 2470 
Q 1656 2200 1656 1722 
L 1656 0 
L 538 0 
L 538 3500 
L 1656 3500 
L 1656 2988 
Q 1909 3294 2193 3439 
Q 2478 3584 2822 3584 
Q 3428 3584 3742 3212 
Q 4056 2841 4056 2131 
z
" transform="scale(0.015625)"/>
     <path id="DejaVuSans-Bold-66" d="M 2841 4863 
L 2841 4128 
L 2222 4128 
Q 1984 4128 1890 4042 
Q 1797 3956 1797 3744 
L 1797 3500 
L 2753 3500 
L 2753 2700 
L 1797 2700 
L 1797 0 
L 678 0 
L 678 2700 
L 122 2700 
L 122 3500 
L 678 3500 
L 678 3744 
Q 678 4316 997 4589 
Q 1316 4863 1984 4863 
L 2841 4863 
z
" transform="scale(0.015625)"/>
     <path id="DejaVuSans-Bold-72" d="M 3138 2547 
Q 2991 2616 2845 2648 
Q 2700 2681 2553 2681 
Q 2122 2681 1889 2404 
Q 1656 2128 1656 1613 
L 1656 0 
L 538 0 
L 538 3500 
L 1656 3500 
L 1656 2925 
Q 1872 3269 2151 3426 
Q 2431 3584 2822 3584 
Q 2878 3584 2943 3579 
Q 3009 3575 3134 3559 
L 3138 2547 
z
" transform="scale(0.015625)"/>
     <path id="DejaVuSans-Bold-50" d="M 588 4666 
L 2584 4666 
Q 3475 4666 3951 4270 
Q 4428 3875 4428 3144 
Q 4428 2409 3951 2014 
Q 3475 1619 2584 1619 
L 1791 1619 
L 1791 0 
L 588 0 
L 588 4666 
z
M 1791 3794 
L 1791 2491 
L 2456 2491 
Q 2806 2491 2997 2661 
Q 3188 2831 3188 3144 
Q 3188 3456 2997 3625 
Q 2806 3794 2456 3794 
L 1791 3794 
z
" transform="scale(0.015625)"/>
     <path id="DejaVuSans-Bold-41" d="M 3419 850 
L 1538 850 
L 1241 0 
L 31 0 
L 1759 4666 
L 3194 4666 
L 4922 0 
L 3713 0 
L 3419 850 
z
M 1838 1716 
L 3116 1716 
L 2478 3572 
L 1838 1716 
z
" transform="scale(0.015625)"/>
     <path id="DejaVuSans-Bold-59" d="M -63 4666 
L 1253 4666 
L 2316 3003 
L 3378 4666 
L 4697 4666 
L 2919 1966 
L 2919 0 
L 1716 0 
L 1716 1966 
L -63 4666 
z
" transform="scale(0.015625)"/>
     <path id="DejaVuSans-Bold-30" d="M 2944 2338 
Q 2944 3213 2780 3570 
Q 2616 3928 2228 3928 
Q 1841 3928 1675 3570 
Q 1509 3213 1509 2338 
Q 1509 1453 1675 1090 
Q 1841 728 2228 728 
Q 2613 728 2778 1090 
Q 2944 1453 2944 2338 
z
M 4147 2328 
Q 4147 1169 3647 539 
Q 3147 -91 2228 -91 
Q 1306 -91 806 539 
Q 306 1169 306 2328 
Q 306 3491 806 4120 
Q 1306 4750 2228 4750 
Q 3147 4750 3647 4120 
Q 4147 3491 4147 2328 
z
" transform="scale(0.015625)"/>
     <path id="DejaVuSans-Bold-34" d="M 2356 3675 
L 1038 1722 
L 2356 1722 
L 2356 3675 
z
M 2156 4666 
L 3494 4666 
L 3494 1722 
L 4159 1722 
L 4159 850 
L 3494 850 
L 3494 0 
L 2356 0 
L 2356 850 
L 288 850 
L 288 1881 
L 2156 4666 
z
" transform="scale(0.015625)"/>
     <path id="DejaVuSans-Bold-68" d="M 4056 2131 
L 4056 0 
L 2931 0 
L 2931 347 
L 2931 1625 
Q 2931 2084 2911 2256 
Q 2891 2428 2841 2509 
Q 2775 2619 2662 2680 
Q 2550 2741 2406 2741 
Q 2056 2741 1856 2470 
Q 1656 2200 1656 1722 
L 1656 0 
L 538 0 
L 538 4863 
L 1656 4863 
L 1656 2988 
Q 1909 3294 2193 3439 
Q 2478 3584 2822 3584 
Q 3428 3584 3742 3212 
Q 4056 2841 4056 2131 
z
" transform="scale(0.015625)"/>
     <path id="DejaVuSans-Bold-61" d="M 2106 1575 
Q 1756 1575 1579 1456 
Q 1403 1338 1403 1106 
Q 1403 894 1545 773 
Q 1688 653 1941 653 
Q 2256 653 2472 879 
Q 2688 1106 2688 1447 
L 2688 1575 
L 2106 1575 
z
M 3816 1997 
L 3816 0 
L 2688 0 
L 2688 519 
Q 2463 200 2181 54 
Q 1900 -91 1497 -91 
Q 953 -91 614 226 
Q 275 544 275 1050 
Q 275 1666 698 1953 
Q 1122 2241 2028 2241 
L 2688 2241 
L 2688 2328 
Q 2688 2594 2478 2717 
Q 2269 2841 1825 2841 
Q 1466 2841 1156 2769 
Q 847 2697 581 2553 
L 581 3406 
Q 941 3494 1303 3539 
Q 1666 3584 2028 3584 
Q 2975 3584 3395 3211 
Q 3816 2838 3816 1997 
z
" transform="scale(0.015625)"/>
    </defs>
    <use xlink:href="#DejaVuSans-Bold-57"/>
    <use xlink:href="#DejaVuSans-Bold-65" transform="translate(106.677734 0)"/>
    <use xlink:href="#DejaVuSans-Bold-65" transform="translate(174.5 0)"/>
    <use xlink:href="#DejaVuSans-Bold-6b" transform="translate(242.322266 0)"/>
    <use xlink:href="#DejaVuSans-Bold-6c" transform="translate(308.826172 0)"/>
    <use xlink:href="#DejaVuSans-Bold-79" transform="translate(343.103516 0)"/>
    <use xlink:href="#DejaVuSans-Bold-20" transform="translate(408.289062 0)"/>
    <use xlink:href="#DejaVuSans-Bold-43" transform="translate(443.103516 0)"/>
    <use xlink:href="#DejaVuSans-Bold-55" transform="translate(516.492188 0)"/>
    <use xlink:href="#DejaVuSans-Bold-53" transform="translate(597.693359 0)"/>
    <use xlink:href="#DejaVuSans-Bold-55" transform="translate(669.714844 0)"/>
    <use xlink:href="#DejaVuSans-Bold-4d" transform="translate(750.916016 0)"/>
    <use xlink:href="#DejaVuSans-Bold-20" transform="translate(850.427734 0)"/>
    <use xlink:href="#DejaVuSans-Bold-44" transform="translate(885.242188 0)"/>
    <use xlink:href="#DejaVuSans-Bold-65" transform="translate(968.25 0)"/>
    <use xlink:href="#DejaVuSans-Bold-74" transform="translate(1036.072266 0)"/>
    <use xlink:href="#DejaVuSans-Bold-65" transform="translate(1083.875 0)"/>
    <use xlink:href="#DejaVuSans-Bold-63" transform="translate(1151.697266 0)"/>
    <use xlink:href="#DejaVuSans-Bold-74" transform="translate(1210.974609 0)"/>
    <use xlink:href="#DejaVuSans-Bold-69" transform="translate(1258.777344 0)"/>
    <use xlink:href="#DejaVuSans-Bold-6f" transform="translate(1293.054688 0)"/>
    <use xlink:href="#DejaVuSans-Bold-6e" transform="translate(1361.755859 0)"/>
    <use xlink:href="#DejaVuSans-Bold-20" transform="translate(1432.947266 0)"/>
    <use xlink:href="#DejaVuSans-Bold-66" transform="translate(1467.761719 0)"/>
    <use xlink:href="#DejaVuSans-Bold-6f" transform="translate(1511.267578 0)"/>
    <use xlink:href="#DejaVuSans-Bold-72" transform="translate(1579.96875 0)"/>
    <use xlink:href="#DejaVuSans-Bold-20" transform="translate(1629.285156 0)"/>
    <use xlink:href="#DejaVuSans-Bold-50" transform="translate(1664.099609 0)"/>
    <use xlink:href="#DejaVuSans-Bold-41" transform="translate(1728.265625 0)"/>
    <use xlink:href="#DejaVuSans-Bold-59" transform="translate(1796.033203 0)"/>
    <use xlink:href="#DejaVuSans-Bold-30" transform="translate(1868.445312 0)"/>
    <use xlink:href="#DejaVuSans-Bold-30" transform="translate(1938.025391 0)"/>
    <use xlink:href="#DejaVuSans-Bold-34" transform="translate(2007.605469 0)"/>
    <use xlink:href="#DejaVuSans-Bold-20" transform="translate(2077.185547 0)"/>
    <use xlink:href="#DejaVuSans-Bold-53" transform="translate(2112 0)"/>
    <use xlink:href="#DejaVuSans-Bold-68" transform="translate(2184.021484 0)"/>
    <use xlink:href="#DejaVuSans-Bold-61" transform="translate(2255.212891 0)"/>
    <use xlink:href="#DejaVuSans-Bold-72" transform="translate(2322.693359 0)"/>
    <use xlink:href="#DejaVuSans-Bold-65" transform="translate(2372.009766 0)"/>
   </g>
  </g>
 </g>
 <defs>
  <clipPath id="p7a0584d011">
   <rect x="47.882031" y="28.464" width="660.04" height="160.311429"/>
  </clipPath>
  <clipPath id="pcb57a44304">
   <rect x="47.882031" y="205.595429" width="660.04" height="213.748571"/>
  </clipPath>
 </defs>
</svg>
