<?xml version="1.0" encoding="utf-8" standalone="no"?>
<!DOCTYPE svg PUBLIC "-//W3C//DTD SVG 1.1//EN"
  "http://www.w3.org/Graphics/SVG/1.1/DTD/svg11.dtd">
<svg xmlns:xlink="http://www.w3.org/1999/xlink" width="570.950781pt" height="639.388437pt" viewBox="0 0 570.950781 639.388437" xmlns="http://www.w3.org/2000/svg" version="1.1">
 <metadata>
  <rdf:RDF xmlns:dc="http://purl.org/dc/elements/1.1/" xmlns:cc="http://creativecommons.org/ns#" xmlns:rdf="http://www.w3.org/1999/02/22-rdf-syntax-ns#">
   <cc:Work>
    <dc:type rdf:resource="http://purl.org/dc/dcmitype/StillImage"/>
    <dc:date>2026-06-25T14:34:18.361112</dc:date>
    <dc:format>image/svg+xml</dc:format>
    <dc:creator>
     <cc:Agent>
      <dc:title>Matplotlib v3.10.9, https://matplotlib.org/</dc:title>
     </cc:Agent>
    </dc:creator>
   </cc:Work>
  </rdf:RDF>
 </metadata>
 <defs>
  <style type="text/css">*{stroke-linejoin: round; stroke-linecap: butt}</style>
 </defs>
 <g id="figure_1">
  <g id="patch_1">
   <path d="M 0 639.388437 
L 570.950781 639.388437 
L 570.950781 0 
L 0 0 
z
" style="fill: #ffffff"/>
  </g>
  <g id="axes_1">
   <g id="patch_2">
    <path d="M 55.990781 602.8 
L 563.750781 602.8 
L 563.750781 24.72 
L 55.990781 24.72 
z
" style="fill: #ffffff"/>
   </g>
   <g id="line2d_1">
    <path d="M 388.452686 576.523636 
L 366.01715 576.523636 
" clip-path="url(#p609788d40a)" style="fill: none; stroke: #edf0f3; stroke-width: 1.8; stroke-linecap: square"/>
   </g>
   <g id="line2d_2">
    <path d="M 285.840987 559.571144 
L 297.512091 559.571144 
" clip-path="url(#p609788d40a)" style="fill: none; stroke: #edf0f3; stroke-width: 1.8; stroke-linecap: square"/>
   </g>
   <g id="line2d_3">
    <path d="M 352.47196 542.618651 
L 342.366837 542.618651 
" clip-path="url(#p609788d40a)" style="fill: none; stroke: #edf0f3; stroke-width: 1.8; stroke-linecap: square"/>
   </g>
   <g id="line2d_4">
    <path d="M 362.983184 525.666158 
L 350.010437 525.666158 
" clip-path="url(#p609788d40a)" style="fill: none; stroke: #edf0f3; stroke-width: 1.8; stroke-linecap: square"/>
   </g>
   <g id="line2d_5">
    <path d="M 324.646866 508.713666 
L 323.5697 508.713666 
" clip-path="url(#p609788d40a)" style="fill: none; stroke: #edf0f3; stroke-width: 1.8; stroke-linecap: square"/>
   </g>
   <g id="line2d_6">
    <path d="M 313.723487 491.761173 
L 315.989926 491.761173 
" clip-path="url(#p609788d40a)" style="fill: none; stroke: #edf0f3; stroke-width: 1.8; stroke-linecap: square"/>
   </g>
   <g id="line2d_7">
    <path d="M 303.037572 474.80868 
L 308.524998 474.80868 
" clip-path="url(#p609788d40a)" style="fill: none; stroke: #edf0f3; stroke-width: 1.8; stroke-linecap: square"/>
   </g>
   <g id="line2d_8">
    <path d="M 361.41033 457.856188 
L 349.480181 457.856188 
" clip-path="url(#p609788d40a)" style="fill: none; stroke: #edf0f3; stroke-width: 1.8; stroke-linecap: square"/>
   </g>
   <g id="line2d_9">
    <path d="M 287.706654 440.903695 
L 297.541778 440.903695 
" clip-path="url(#p609788d40a)" style="fill: none; stroke: #edf0f3; stroke-width: 1.8; stroke-linecap: square"/>
   </g>
   <g id="line2d_10">
    <path d="M 368.608771 423.951202 
L 354.950441 423.951202 
" clip-path="url(#p609788d40a)" style="fill: none; stroke: #edf0f3; stroke-width: 1.8; stroke-linecap: square"/>
   </g>
   <g id="line2d_11">
    <path d="M 370.3184 406.99871 
L 356.269165 406.99871 
" clip-path="url(#p609788d40a)" style="fill: none; stroke: #edf0f3; stroke-width: 1.8; stroke-linecap: square"/>
   </g>
   <g id="line2d_12">
    <path d="M 358.228876 390.046217 
L 347.633791 390.046217 
" clip-path="url(#p609788d40a)" style="fill: none; stroke: #edf0f3; stroke-width: 1.8; stroke-linecap: square"/>
   </g>
   <g id="line2d_13">
    <path d="M 283.831807 373.093724 
L 294.196882 373.093724 
" clip-path="url(#p609788d40a)" style="fill: none; stroke: #edf0f3; stroke-width: 1.8; stroke-linecap: square"/>
   </g>
   <g id="line2d_14">
    <path d="M 343.836586 356.141232 
L 337.577135 356.141232 
" clip-path="url(#p609788d40a)" style="fill: none; stroke: #edf0f3; stroke-width: 1.8; stroke-linecap: square"/>
   </g>
   <g id="line2d_15">
    <path d="M 263.239761 339.188739 
L 279.213917 339.188739 
" clip-path="url(#p609788d40a)" style="fill: none; stroke: #edf0f3; stroke-width: 1.8; stroke-linecap: square"/>
   </g>
   <g id="line2d_16">
    <path d="M 322.872722 322.236246 
L 322.399668 322.236246 
" clip-path="url(#p609788d40a)" style="fill: none; stroke: #edf0f3; stroke-width: 1.8; stroke-linecap: square"/>
   </g>
   <g id="line2d_17">
    <path d="M 277.251877 305.283754 
L 289.277685 305.283754 
" clip-path="url(#p609788d40a)" style="fill: none; stroke: #edf0f3; stroke-width: 1.8; stroke-linecap: square"/>
   </g>
   <g id="line2d_18">
    <path d="M 311.467511 288.331261 
L 314.119173 288.331261 
" clip-path="url(#p609788d40a)" style="fill: none; stroke: #edf0f3; stroke-width: 1.8; stroke-linecap: square"/>
   </g>
   <g id="line2d_19">
    <path d="M 349.273674 271.378768 
L 341.67162 271.378768 
" clip-path="url(#p609788d40a)" style="fill: none; stroke: #edf0f3; stroke-width: 1.8; stroke-linecap: square"/>
   </g>
   <g id="line2d_20">
    <path d="M 282.109653 254.426276 
L 292.660037 254.426276 
" clip-path="url(#p609788d40a)" style="fill: none; stroke: #edf0f3; stroke-width: 1.8; stroke-linecap: square"/>
   </g>
   <g id="line2d_21">
    <path d="M 362.110834 237.473783 
L 351.113583 237.473783 
" clip-path="url(#p609788d40a)" style="fill: none; stroke: #edf0f3; stroke-width: 1.8; stroke-linecap: square"/>
   </g>
   <g id="line2d_22">
    <path d="M 328.836915 220.52129 
L 326.77226 220.52129 
" clip-path="url(#p609788d40a)" style="fill: none; stroke: #edf0f3; stroke-width: 1.8; stroke-linecap: square"/>
   </g>
   <g id="line2d_23">
    <path d="M 362.110834 203.568798 
L 351.113583 203.568798 
" clip-path="url(#p609788d40a)" style="fill: none; stroke: #edf0f3; stroke-width: 1.8; stroke-linecap: square"/>
   </g>
   <g id="line2d_24">
    <path d="M 312.893162 186.616305 
L 315.064982 186.616305 
" clip-path="url(#p609788d40a)" style="fill: none; stroke: #edf0f3; stroke-width: 1.8; stroke-linecap: square"/>
   </g>
   <g id="line2d_25">
    <path d="M 291.304727 169.663812 
L 299.157714 169.663812 
" clip-path="url(#p609788d40a)" style="fill: none; stroke: #edf0f3; stroke-width: 1.8; stroke-linecap: square"/>
   </g>
   <g id="line2d_26">
    <path d="M 262.947036 152.71132 
L 277.680971 152.71132 
" clip-path="url(#p609788d40a)" style="fill: none; stroke: #edf0f3; stroke-width: 1.8; stroke-linecap: square"/>
   </g>
   <g id="line2d_27">
    <path d="M 321.563927 135.758827 
L 321.460754 135.758827 
" clip-path="url(#p609788d40a)" style="fill: none; stroke: #edf0f3; stroke-width: 1.8; stroke-linecap: square"/>
   </g>
   <g id="line2d_28">
    <path d="M 284.558341 118.806334 
L 293.269706 118.806334 
" clip-path="url(#p609788d40a)" style="fill: none; stroke: #edf0f3; stroke-width: 1.8; stroke-linecap: square"/>
   </g>
   <g id="line2d_29">
    <path d="M 239.676569 101.853842 
L 258.959293 101.853842 
" clip-path="url(#p609788d40a)" style="fill: none; stroke: #edf0f3; stroke-width: 1.8; stroke-linecap: square"/>
   </g>
   <g id="line2d_30">
    <path d="M 352.895263 84.901349 
L 345.679539 84.901349 
" clip-path="url(#p609788d40a)" style="fill: none; stroke: #edf0f3; stroke-width: 1.8; stroke-linecap: square"/>
   </g>
   <g id="line2d_31">
    <path d="M 353.57906 67.948856 
L 346.489883 67.948856 
" clip-path="url(#p609788d40a)" style="fill: none; stroke: #edf0f3; stroke-width: 1.8; stroke-linecap: square"/>
   </g>
   <g id="line2d_32">
    <path d="M 328.216422 50.996364 
L 326.670992 50.996364 
" clip-path="url(#p609788d40a)" style="fill: none; stroke: #edf0f3; stroke-width: 1.8; stroke-linecap: square"/>
   </g>
   <g id="matplotlib.axis_1">
    <g id="xtick_1">
     <g id="line2d_33">
      <defs>
       <path id="m42a257055d" d="M 0 0 
L 0 3.5 
" style="stroke: #000000; stroke-width: 0.8"/>
      </defs>
      <g>
       <use xlink:href="#m42a257055d" x="55.990781" y="602.8" style="stroke: #000000; stroke-width: 0.8"/>
      </g>
     </g>
     <g id="text_1">
      <!-- 60% -->
      <g transform="translate(45.988828 616.638594) scale(0.09 -0.09)">
       <defs>
        <path id="DejaVuSans-36" d="M 2113 2584 
Q 1688 2584 1439 2293 
Q 1191 2003 1191 1497 
Q 1191 994 1439 701 
Q 1688 409 2113 409 
Q 2538 409 2786 701 
Q 3034 994 3034 1497 
Q 3034 2003 2786 2293 
Q 2538 2584 2113 2584 
z
M 3366 4563 
L 3366 3988 
Q 3128 4100 2886 4159 
Q 2644 4219 2406 4219 
Q 1781 4219 1451 3797 
Q 1122 3375 1075 2522 
Q 1259 2794 1537 2939 
Q 1816 3084 2150 3084 
Q 2853 3084 3261 2657 
Q 3669 2231 3669 1497 
Q 3669 778 3244 343 
Q 2819 -91 2113 -91 
Q 1303 -91 875 529 
Q 447 1150 447 2328 
Q 447 3434 972 4092 
Q 1497 4750 2381 4750 
Q 2619 4750 2861 4703 
Q 3103 4656 3366 4563 
z
" transform="scale(0.015625)"/>
        <path id="DejaVuSans-30" d="M 2034 4250 
Q 1547 4250 1301 3770 
Q 1056 3291 1056 2328 
Q 1056 1369 1301 889 
Q 1547 409 2034 409 
Q 2525 409 2770 889 
Q 3016 1369 3016 2328 
Q 3016 3291 2770 3770 
Q 2525 4250 2034 4250 
z
M 2034 4750 
Q 2819 4750 3233 4129 
Q 3647 3509 3647 2328 
Q 3647 1150 3233 529 
Q 2819 -91 2034 -91 
Q 1250 -91 836 529 
Q 422 1150 422 2328 
Q 422 3509 836 4129 
Q 1250 4750 2034 4750 
z
" transform="scale(0.015625)"/>
        <path id="DejaVuSans-25" d="M 4653 2053 
Q 4381 2053 4226 1822 
Q 4072 1591 4072 1178 
Q 4072 772 4226 539 
Q 4381 306 4653 306 
Q 4919 306 5073 539 
Q 5228 772 5228 1178 
Q 5228 1588 5073 1820 
Q 4919 2053 4653 2053 
z
M 4653 2450 
Q 5147 2450 5437 2106 
Q 5728 1763 5728 1178 
Q 5728 594 5436 251 
Q 5144 -91 4653 -91 
Q 4153 -91 3862 251 
Q 3572 594 3572 1178 
Q 3572 1766 3864 2108 
Q 4156 2450 4653 2450 
z
M 1428 4353 
Q 1159 4353 1004 4120 
Q 850 3888 850 3481 
Q 850 3069 1003 2837 
Q 1156 2606 1428 2606 
Q 1700 2606 1854 2837 
Q 2009 3069 2009 3481 
Q 2009 3884 1853 4118 
Q 1697 4353 1428 4353 
z
M 4250 4750 
L 4750 4750 
L 1831 -91 
L 1331 -91 
L 4250 4750 
z
M 1428 4750 
Q 1922 4750 2215 4408 
Q 2509 4066 2509 3481 
Q 2509 2891 2217 2550 
Q 1925 2209 1428 2209 
Q 931 2209 642 2551 
Q 353 2894 353 3481 
Q 353 4063 643 4406 
Q 934 4750 1428 4750 
z
" transform="scale(0.015625)"/>
       </defs>
       <use xlink:href="#DejaVuSans-36"/>
       <use xlink:href="#DejaVuSans-30" transform="translate(63.623047 0)"/>
       <use xlink:href="#DejaVuSans-25" transform="translate(127.246094 0)"/>
      </g>
     </g>
    </g>
    <g id="xtick_2">
     <g id="line2d_34">
      <g>
       <use xlink:href="#m42a257055d" x="116.4384" y="602.8" style="stroke: #000000; stroke-width: 0.8"/>
      </g>
     </g>
     <g id="text_2">
      <!-- 65% -->
      <g transform="translate(106.436447 616.638594) scale(0.09 -0.09)">
       <defs>
        <path id="DejaVuSans-35" d="M 691 4666 
L 3169 4666 
L 3169 4134 
L 1269 4134 
L 1269 2991 
Q 1406 3038 1543 3061 
Q 1681 3084 1819 3084 
Q 2600 3084 3056 2656 
Q 3513 2228 3513 1497 
Q 3513 744 3044 326 
Q 2575 -91 1722 -91 
Q 1428 -91 1123 -41 
Q 819 9 494 109 
L 494 744 
Q 775 591 1075 516 
Q 1375 441 1709 441 
Q 2250 441 2565 725 
Q 2881 1009 2881 1497 
Q 2881 1984 2565 2268 
Q 2250 2553 1709 2553 
Q 1456 2553 1204 2497 
Q 953 2441 691 2322 
L 691 4666 
z
" transform="scale(0.015625)"/>
       </defs>
       <use xlink:href="#DejaVuSans-36"/>
       <use xlink:href="#DejaVuSans-35" transform="translate(63.623047 0)"/>
       <use xlink:href="#DejaVuSans-25" transform="translate(127.246094 0)"/>
      </g>
     </g>
    </g>
    <g id="xtick_3">
     <g id="line2d_35">
      <g>
       <use xlink:href="#m42a257055d" x="176.886019" y="602.8" style="stroke: #000000; stroke-width: 0.8"/>
      </g>
     </g>
     <g id="text_3">
      <!-- 70% -->
      <g transform="translate(166.884066 616.638594) scale(0.09 -0.09)">
       <defs>
        <path id="DejaVuSans-37" d="M 525 4666 
L 3525 4666 
L 3525 4397 
L 1831 0 
L 1172 0 
L 2766 4134 
L 525 4134 
L 525 4666 
z
" transform="scale(0.015625)"/>
       </defs>
       <use xlink:href="#DejaVuSans-37"/>
       <use xlink:href="#DejaVuSans-30" transform="translate(63.623047 0)"/>
       <use xlink:href="#DejaVuSans-25" transform="translate(127.246094 0)"/>
      </g>
     </g>
    </g>
    <g id="xtick_4">
     <g id="line2d_36">
      <g>
       <use xlink:href="#m42a257055d" x="237.333638" y="602.8" style="stroke: #000000; stroke-width: 0.8"/>
      </g>
     </g>
     <g id="text_4">
      <!-- 75% -->
      <g transform="translate(227.331685 616.638594) scale(0.09 -0.09)">
       <use xlink:href="#DejaVuSans-37"/>
       <use xlink:href="#DejaVuSans-35" transform="translate(63.623047 0)"/>
       <use xlink:href="#DejaVuSans-25" transform="translate(127.246094 0)"/>
      </g>
     </g>
    </g>
    <g id="xtick_5">
     <g id="line2d_37">
      <g>
       <use xlink:href="#m42a257055d" x="297.781257" y="602.8" style="stroke: #000000; stroke-width: 0.8"/>
      </g>
     </g>
     <g id="text_5">
      <!-- 80% -->
      <g transform="translate(287.779304 616.638594) scale(0.09 -0.09)">
       <defs>
        <path id="DejaVuSans-38" d="M 2034 2216 
Q 1584 2216 1326 1975 
Q 1069 1734 1069 1313 
Q 1069 891 1326 650 
Q 1584 409 2034 409 
Q 2484 409 2743 651 
Q 3003 894 3003 1313 
Q 3003 1734 2745 1975 
Q 2488 2216 2034 2216 
z
M 1403 2484 
Q 997 2584 770 2862 
Q 544 3141 544 3541 
Q 544 4100 942 4425 
Q 1341 4750 2034 4750 
Q 2731 4750 3128 4425 
Q 3525 4100 3525 3541 
Q 3525 3141 3298 2862 
Q 3072 2584 2669 2484 
Q 3125 2378 3379 2068 
Q 3634 1759 3634 1313 
Q 3634 634 3220 271 
Q 2806 -91 2034 -91 
Q 1263 -91 848 271 
Q 434 634 434 1313 
Q 434 1759 690 2068 
Q 947 2378 1403 2484 
z
M 1172 3481 
Q 1172 3119 1398 2916 
Q 1625 2713 2034 2713 
Q 2441 2713 2670 2916 
Q 2900 3119 2900 3481 
Q 2900 3844 2670 4047 
Q 2441 4250 2034 4250 
Q 1625 4250 1398 4047 
Q 1172 3844 1172 3481 
z
" transform="scale(0.015625)"/>
       </defs>
       <use xlink:href="#DejaVuSans-38"/>
       <use xlink:href="#DejaVuSans-30" transform="translate(63.623047 0)"/>
       <use xlink:href="#DejaVuSans-25" transform="translate(127.246094 0)"/>
      </g>
     </g>
    </g>
    <g id="xtick_6">
     <g id="line2d_38">
      <g>
       <use xlink:href="#m42a257055d" x="358.228876" y="602.8" style="stroke: #000000; stroke-width: 0.8"/>
      </g>
     </g>
     <g id="text_6">
      <!-- 85% -->
      <g transform="translate(348.226923 616.638594) scale(0.09 -0.09)">
       <use xlink:href="#DejaVuSans-38"/>
       <use xlink:href="#DejaVuSans-35" transform="translate(63.623047 0)"/>
       <use xlink:href="#DejaVuSans-25" transform="translate(127.246094 0)"/>
      </g>
     </g>
    </g>
    <g id="xtick_7">
     <g id="line2d_39">
      <g>
       <use xlink:href="#m42a257055d" x="418.676496" y="602.8" style="stroke: #000000; stroke-width: 0.8"/>
      </g>
     </g>
     <g id="text_7">
      <!-- 90% -->
      <g transform="translate(408.674542 616.638594) scale(0.09 -0.09)">
       <defs>
        <path id="DejaVuSans-39" d="M 703 97 
L 703 672 
Q 941 559 1184 500 
Q 1428 441 1663 441 
Q 2288 441 2617 861 
Q 2947 1281 2994 2138 
Q 2813 1869 2534 1725 
Q 2256 1581 1919 1581 
Q 1219 1581 811 2004 
Q 403 2428 403 3163 
Q 403 3881 828 4315 
Q 1253 4750 1959 4750 
Q 2769 4750 3195 4129 
Q 3622 3509 3622 2328 
Q 3622 1225 3098 567 
Q 2575 -91 1691 -91 
Q 1453 -91 1209 -44 
Q 966 3 703 97 
z
M 1959 2075 
Q 2384 2075 2632 2365 
Q 2881 2656 2881 3163 
Q 2881 3666 2632 3958 
Q 2384 4250 1959 4250 
Q 1534 4250 1286 3958 
Q 1038 3666 1038 3163 
Q 1038 2656 1286 2365 
Q 1534 2075 1959 2075 
z
" transform="scale(0.015625)"/>
       </defs>
       <use xlink:href="#DejaVuSans-39"/>
       <use xlink:href="#DejaVuSans-30" transform="translate(63.623047 0)"/>
       <use xlink:href="#DejaVuSans-25" transform="translate(127.246094 0)"/>
      </g>
     </g>
    </g>
    <g id="xtick_8">
     <g id="line2d_40">
      <g>
       <use xlink:href="#m42a257055d" x="479.124115" y="602.8" style="stroke: #000000; stroke-width: 0.8"/>
      </g>
     </g>
     <g id="text_8">
      <!-- 95% -->
      <g transform="translate(469.122161 616.638594) scale(0.09 -0.09)">
       <use xlink:href="#DejaVuSans-39"/>
       <use xlink:href="#DejaVuSans-35" transform="translate(63.623047 0)"/>
       <use xlink:href="#DejaVuSans-25" transform="translate(127.246094 0)"/>
      </g>
     </g>
    </g>
    <g id="xtick_9">
     <g id="line2d_41">
      <g>
       <use xlink:href="#m42a257055d" x="539.571734" y="602.8" style="stroke: #000000; stroke-width: 0.8"/>
      </g>
     </g>
     <g id="text_9">
      <!-- 100% -->
      <g transform="translate(526.706656 616.638594) scale(0.09 -0.09)">
       <defs>
        <path id="DejaVuSans-31" d="M 794 531 
L 1825 531 
L 1825 4091 
L 703 3866 
L 703 4441 
L 1819 4666 
L 2450 4666 
L 2450 531 
L 3481 531 
L 3481 0 
L 794 0 
L 794 531 
z
" transform="scale(0.015625)"/>
       </defs>
       <use xlink:href="#DejaVuSans-31"/>
       <use xlink:href="#DejaVuSans-30" transform="translate(63.623047 0)"/>
       <use xlink:href="#DejaVuSans-30" transform="translate(127.246094 0)"/>
       <use xlink:href="#DejaVuSans-25" transform="translate(190.869141 0)"/>
      </g>
     </g>
    </g>
    <g id="text_10">
     <!-- Roventra share -->
     <g transform="translate(271.831719 630.10875) scale(0.1 -0.1)">
      <defs>
       <path id="DejaVuSans-52" d="M 2841 2188 
Q 3044 2119 3236 1894 
Q 3428 1669 3622 1275 
L 4263 0 
L 3584 0 
L 2988 1197 
Q 2756 1666 2539 1819 
Q 2322 1972 1947 1972 
L 1259 1972 
L 1259 0 
L 628 0 
L 628 4666 
L 2053 4666 
Q 2853 4666 3247 4331 
Q 3641 3997 3641 3322 
Q 3641 2881 3436 2590 
Q 3231 2300 2841 2188 
z
M 1259 4147 
L 1259 2491 
L 2053 2491 
Q 2509 2491 2742 2702 
Q 2975 2913 2975 3322 
Q 2975 3731 2742 3939 
Q 2509 4147 2053 4147 
L 1259 4147 
z
" transform="scale(0.015625)"/>
       <path id="DejaVuSans-6f" d="M 1959 3097 
Q 1497 3097 1228 2736 
Q 959 2375 959 1747 
Q 959 1119 1226 758 
Q 1494 397 1959 397 
Q 2419 397 2687 759 
Q 2956 1122 2956 1747 
Q 2956 2369 2687 2733 
Q 2419 3097 1959 3097 
z
M 1959 3584 
Q 2709 3584 3137 3096 
Q 3566 2609 3566 1747 
Q 3566 888 3137 398 
Q 2709 -91 1959 -91 
Q 1206 -91 779 398 
Q 353 888 353 1747 
Q 353 2609 779 3096 
Q 1206 3584 1959 3584 
z
" transform="scale(0.015625)"/>
       <path id="DejaVuSans-76" d="M 191 3500 
L 800 3500 
L 1894 563 
L 2988 3500 
L 3597 3500 
L 2284 0 
L 1503 0 
L 191 3500 
z
" transform="scale(0.015625)"/>
       <path id="DejaVuSans-65" d="M 3597 1894 
L 3597 1613 
L 953 1613 
Q 991 1019 1311 708 
Q 1631 397 2203 397 
Q 2534 397 2845 478 
Q 3156 559 3463 722 
L 3463 178 
Q 3153 47 2828 -22 
Q 2503 -91 2169 -91 
Q 1331 -91 842 396 
Q 353 884 353 1716 
Q 353 2575 817 3079 
Q 1281 3584 2069 3584 
Q 2775 3584 3186 3129 
Q 3597 2675 3597 1894 
z
M 3022 2063 
Q 3016 2534 2758 2815 
Q 2500 3097 2075 3097 
Q 1594 3097 1305 2825 
Q 1016 2553 972 2059 
L 3022 2063 
z
" transform="scale(0.015625)"/>
       <path id="DejaVuSans-6e" d="M 3513 2113 
L 3513 0 
L 2938 0 
L 2938 2094 
Q 2938 2591 2744 2837 
Q 2550 3084 2163 3084 
Q 1697 3084 1428 2787 
Q 1159 2491 1159 1978 
L 1159 0 
L 581 0 
L 581 3500 
L 1159 3500 
L 1159 2956 
Q 1366 3272 1645 3428 
Q 1925 3584 2291 3584 
Q 2894 3584 3203 3211 
Q 3513 2838 3513 2113 
z
" transform="scale(0.015625)"/>
       <path id="DejaVuSans-74" d="M 1172 4494 
L 1172 3500 
L 2356 3500 
L 2356 3053 
L 1172 3053 
L 1172 1153 
Q 1172 725 1289 603 
Q 1406 481 1766 481 
L 2356 481 
L 2356 0 
L 1766 0 
Q 1100 0 847 248 
Q 594 497 594 1153 
L 594 3053 
L 172 3053 
L 172 3500 
L 594 3500 
L 594 4494 
L 1172 4494 
z
" transform="scale(0.015625)"/>
       <path id="DejaVuSans-72" d="M 2631 2963 
Q 2534 3019 2420 3045 
Q 2306 3072 2169 3072 
Q 1681 3072 1420 2755 
Q 1159 2438 1159 1844 
L 1159 0 
L 581 0 
L 581 3500 
L 1159 3500 
L 1159 2956 
Q 1341 3275 1631 3429 
Q 1922 3584 2338 3584 
Q 2397 3584 2469 3576 
Q 2541 3569 2628 3553 
L 2631 2963 
z
" transform="scale(0.015625)"/>
       <path id="DejaVuSans-61" d="M 2194 1759 
Q 1497 1759 1228 1600 
Q 959 1441 959 1056 
Q 959 750 1161 570 
Q 1363 391 1709 391 
Q 2188 391 2477 730 
Q 2766 1069 2766 1631 
L 2766 1759 
L 2194 1759 
z
M 3341 1997 
L 3341 0 
L 2766 0 
L 2766 531 
Q 2569 213 2275 61 
Q 1981 -91 1556 -91 
Q 1019 -91 701 211 
Q 384 513 384 1019 
Q 384 1609 779 1909 
Q 1175 2209 1959 2209 
L 2766 2209 
L 2766 2266 
Q 2766 2663 2505 2880 
Q 2244 3097 1772 3097 
Q 1472 3097 1187 3025 
Q 903 2953 641 2809 
L 641 3341 
Q 956 3463 1253 3523 
Q 1550 3584 1831 3584 
Q 2591 3584 2966 3190 
Q 3341 2797 3341 1997 
z
" transform="scale(0.015625)"/>
       <path id="DejaVuSans-20" transform="scale(0.015625)"/>
       <path id="DejaVuSans-73" d="M 2834 3397 
L 2834 2853 
Q 2591 2978 2328 3040 
Q 2066 3103 1784 3103 
Q 1356 3103 1142 2972 
Q 928 2841 928 2578 
Q 928 2378 1081 2264 
Q 1234 2150 1697 2047 
L 1894 2003 
Q 2506 1872 2764 1633 
Q 3022 1394 3022 966 
Q 3022 478 2636 193 
Q 2250 -91 1575 -91 
Q 1294 -91 989 -36 
Q 684 19 347 128 
L 347 722 
Q 666 556 975 473 
Q 1284 391 1588 391 
Q 1994 391 2212 530 
Q 2431 669 2431 922 
Q 2431 1156 2273 1281 
Q 2116 1406 1581 1522 
L 1381 1569 
Q 847 1681 609 1914 
Q 372 2147 372 2553 
Q 372 3047 722 3315 
Q 1072 3584 1716 3584 
Q 2034 3584 2315 3537 
Q 2597 3491 2834 3397 
z
" transform="scale(0.015625)"/>
       <path id="DejaVuSans-68" d="M 3513 2113 
L 3513 0 
L 2938 0 
L 2938 2094 
Q 2938 2591 2744 2837 
Q 2550 3084 2163 3084 
Q 1697 3084 1428 2787 
Q 1159 2491 1159 1978 
L 1159 0 
L 581 0 
L 581 4863 
L 1159 4863 
L 1159 2956 
Q 1366 3272 1645 3428 
Q 1925 3584 2291 3584 
Q 2894 3584 3203 3211 
Q 3513 2838 3513 2113 
z
" transform="scale(0.015625)"/>
      </defs>
      <use xlink:href="#DejaVuSans-52"/>
      <use xlink:href="#DejaVuSans-6f" transform="translate(64.982422 0)"/>
      <use xlink:href="#DejaVuSans-76" transform="translate(126.164062 0)"/>
      <use xlink:href="#DejaVuSans-65" transform="translate(185.34375 0)"/>
      <use xlink:href="#DejaVuSans-6e" transform="translate(246.867188 0)"/>
      <use xlink:href="#DejaVuSans-74" transform="translate(310.246094 0)"/>
      <use xlink:href="#DejaVuSans-72" transform="translate(349.455078 0)"/>
      <use xlink:href="#DejaVuSans-61" transform="translate(390.568359 0)"/>
      <use xlink:href="#DejaVuSans-20" transform="translate(451.847656 0)"/>
      <use xlink:href="#DejaVuSans-73" transform="translate(483.634766 0)"/>
      <use xlink:href="#DejaVuSans-68" transform="translate(535.734375 0)"/>
      <use xlink:href="#DejaVuSans-61" transform="translate(599.113281 0)"/>
      <use xlink:href="#DejaVuSans-72" transform="translate(660.392578 0)"/>
      <use xlink:href="#DejaVuSans-65" transform="translate(699.255859 0)"/>
     </g>
    </g>
   </g>
   <g id="matplotlib.axis_2">
    <g id="ytick_1">
     <g id="line2d_42">
      <defs>
       <path id="m70223861c3" d="M 0 0 
L -3.5 0 
" style="stroke: #000000; stroke-width: 0.8"/>
      </defs>
      <g>
       <use xlink:href="#m70223861c3" x="55.990781" y="576.523636" style="stroke: #000000; stroke-width: 0.8"/>
      </g>
     </g>
     <g id="text_11">
      <!-- n = 80 -->
      <g transform="translate(25.331875 579.183089) scale(0.07 -0.07)">
       <defs>
        <path id="DejaVuSans-3d" d="M 678 2906 
L 4684 2906 
L 4684 2381 
L 678 2381 
L 678 2906 
z
M 678 1631 
L 4684 1631 
L 4684 1100 
L 678 1100 
L 678 1631 
z
" transform="scale(0.015625)"/>
       </defs>
       <use xlink:href="#DejaVuSans-6e"/>
       <use xlink:href="#DejaVuSans-20" transform="translate(63.378906 0)"/>
       <use xlink:href="#DejaVuSans-3d" transform="translate(95.166016 0)"/>
       <use xlink:href="#DejaVuSans-20" transform="translate(178.955078 0)"/>
       <use xlink:href="#DejaVuSans-38" transform="translate(210.742188 0)"/>
       <use xlink:href="#DejaVuSans-30" transform="translate(274.365234 0)"/>
      </g>
     </g>
    </g>
    <g id="ytick_2">
     <g id="line2d_43">
      <g>
       <use xlink:href="#m70223861c3" x="55.990781" y="559.571144" style="stroke: #000000; stroke-width: 0.8"/>
      </g>
     </g>
     <g id="text_12">
      <!-- n = 81 -->
      <g transform="translate(25.331875 562.230597) scale(0.07 -0.07)">
       <use xlink:href="#DejaVuSans-6e"/>
       <use xlink:href="#DejaVuSans-20" transform="translate(63.378906 0)"/>
       <use xlink:href="#DejaVuSans-3d" transform="translate(95.166016 0)"/>
       <use xlink:href="#DejaVuSans-20" transform="translate(178.955078 0)"/>
       <use xlink:href="#DejaVuSans-38" transform="translate(210.742188 0)"/>
       <use xlink:href="#DejaVuSans-31" transform="translate(274.365234 0)"/>
      </g>
     </g>
    </g>
    <g id="ytick_3">
     <g id="line2d_44">
      <g>
       <use xlink:href="#m70223861c3" x="55.990781" y="542.618651" style="stroke: #000000; stroke-width: 0.8"/>
      </g>
     </g>
     <g id="text_13">
      <!-- n = 84 -->
      <g transform="translate(25.331875 545.278104) scale(0.07 -0.07)">
       <defs>
        <path id="DejaVuSans-34" d="M 2419 4116 
L 825 1625 
L 2419 1625 
L 2419 4116 
z
M 2253 4666 
L 3047 4666 
L 3047 1625 
L 3713 1625 
L 3713 1100 
L 3047 1100 
L 3047 0 
L 2419 0 
L 2419 1100 
L 313 1100 
L 313 1709 
L 2253 4666 
z
" transform="scale(0.015625)"/>
       </defs>
       <use xlink:href="#DejaVuSans-6e"/>
       <use xlink:href="#DejaVuSans-20" transform="translate(63.378906 0)"/>
       <use xlink:href="#DejaVuSans-3d" transform="translate(95.166016 0)"/>
       <use xlink:href="#DejaVuSans-20" transform="translate(178.955078 0)"/>
       <use xlink:href="#DejaVuSans-38" transform="translate(210.742188 0)"/>
       <use xlink:href="#DejaVuSans-34" transform="translate(274.365234 0)"/>
      </g>
     </g>
    </g>
    <g id="ytick_4">
     <g id="line2d_45">
      <g>
       <use xlink:href="#m70223861c3" x="55.990781" y="525.666158" style="stroke: #000000; stroke-width: 0.8"/>
      </g>
     </g>
     <g id="text_14">
      <!-- n = 89 -->
      <g transform="translate(25.331875 528.325611) scale(0.07 -0.07)">
       <use xlink:href="#DejaVuSans-6e"/>
       <use xlink:href="#DejaVuSans-20" transform="translate(63.378906 0)"/>
       <use xlink:href="#DejaVuSans-3d" transform="translate(95.166016 0)"/>
       <use xlink:href="#DejaVuSans-20" transform="translate(178.955078 0)"/>
       <use xlink:href="#DejaVuSans-38" transform="translate(210.742188 0)"/>
       <use xlink:href="#DejaVuSans-39" transform="translate(274.365234 0)"/>
      </g>
     </g>
    </g>
    <g id="ytick_5">
     <g id="line2d_46">
      <g>
       <use xlink:href="#m70223861c3" x="55.990781" y="508.713666" style="stroke: #000000; stroke-width: 0.8"/>
      </g>
     </g>
     <g id="text_15">
      <!-- n = 90 -->
      <g transform="translate(25.331875 511.373119) scale(0.07 -0.07)">
       <use xlink:href="#DejaVuSans-6e"/>
       <use xlink:href="#DejaVuSans-20" transform="translate(63.378906 0)"/>
       <use xlink:href="#DejaVuSans-3d" transform="translate(95.166016 0)"/>
       <use xlink:href="#DejaVuSans-20" transform="translate(178.955078 0)"/>
       <use xlink:href="#DejaVuSans-39" transform="translate(210.742188 0)"/>
       <use xlink:href="#DejaVuSans-30" transform="translate(274.365234 0)"/>
      </g>
     </g>
    </g>
    <g id="ytick_6">
     <g id="line2d_47">
      <g>
       <use xlink:href="#m70223861c3" x="55.990781" y="491.761173" style="stroke: #000000; stroke-width: 0.8"/>
      </g>
     </g>
     <g id="text_16">
      <!-- n = 91 -->
      <g transform="translate(25.331875 494.420626) scale(0.07 -0.07)">
       <use xlink:href="#DejaVuSans-6e"/>
       <use xlink:href="#DejaVuSans-20" transform="translate(63.378906 0)"/>
       <use xlink:href="#DejaVuSans-3d" transform="translate(95.166016 0)"/>
       <use xlink:href="#DejaVuSans-20" transform="translate(178.955078 0)"/>
       <use xlink:href="#DejaVuSans-39" transform="translate(210.742188 0)"/>
       <use xlink:href="#DejaVuSans-31" transform="translate(274.365234 0)"/>
      </g>
     </g>
    </g>
    <g id="ytick_7">
     <g id="line2d_48">
      <g>
       <use xlink:href="#m70223861c3" x="55.990781" y="474.80868" style="stroke: #000000; stroke-width: 0.8"/>
      </g>
     </g>
     <g id="text_17">
      <!-- n = 92 -->
      <g transform="translate(25.331875 477.468133) scale(0.07 -0.07)">
       <defs>
        <path id="DejaVuSans-32" d="M 1228 531 
L 3431 531 
L 3431 0 
L 469 0 
L 469 531 
Q 828 903 1448 1529 
Q 2069 2156 2228 2338 
Q 2531 2678 2651 2914 
Q 2772 3150 2772 3378 
Q 2772 3750 2511 3984 
Q 2250 4219 1831 4219 
Q 1534 4219 1204 4116 
Q 875 4013 500 3803 
L 500 4441 
Q 881 4594 1212 4672 
Q 1544 4750 1819 4750 
Q 2544 4750 2975 4387 
Q 3406 4025 3406 3419 
Q 3406 3131 3298 2873 
Q 3191 2616 2906 2266 
Q 2828 2175 2409 1742 
Q 1991 1309 1228 531 
z
" transform="scale(0.015625)"/>
       </defs>
       <use xlink:href="#DejaVuSans-6e"/>
       <use xlink:href="#DejaVuSans-20" transform="translate(63.378906 0)"/>
       <use xlink:href="#DejaVuSans-3d" transform="translate(95.166016 0)"/>
       <use xlink:href="#DejaVuSans-20" transform="translate(178.955078 0)"/>
       <use xlink:href="#DejaVuSans-39" transform="translate(210.742188 0)"/>
       <use xlink:href="#DejaVuSans-32" transform="translate(274.365234 0)"/>
      </g>
     </g>
    </g>
    <g id="ytick_8">
     <g id="line2d_49">
      <g>
       <use xlink:href="#m70223861c3" x="55.990781" y="457.856188" style="stroke: #000000; stroke-width: 0.8"/>
      </g>
     </g>
     <g id="text_18">
      <!-- n = 95 -->
      <g transform="translate(25.331875 460.515641) scale(0.07 -0.07)">
       <use xlink:href="#DejaVuSans-6e"/>
       <use xlink:href="#DejaVuSans-20" transform="translate(63.378906 0)"/>
       <use xlink:href="#DejaVuSans-3d" transform="translate(95.166016 0)"/>
       <use xlink:href="#DejaVuSans-20" transform="translate(178.955078 0)"/>
       <use xlink:href="#DejaVuSans-39" transform="translate(210.742188 0)"/>
       <use xlink:href="#DejaVuSans-35" transform="translate(274.365234 0)"/>
      </g>
     </g>
    </g>
    <g id="ytick_9">
     <g id="line2d_50">
      <g>
       <use xlink:href="#m70223861c3" x="55.990781" y="440.903695" style="stroke: #000000; stroke-width: 0.8"/>
      </g>
     </g>
     <g id="text_19">
      <!-- n = 96 -->
      <g transform="translate(25.331875 443.563148) scale(0.07 -0.07)">
       <use xlink:href="#DejaVuSans-6e"/>
       <use xlink:href="#DejaVuSans-20" transform="translate(63.378906 0)"/>
       <use xlink:href="#DejaVuSans-3d" transform="translate(95.166016 0)"/>
       <use xlink:href="#DejaVuSans-20" transform="translate(178.955078 0)"/>
       <use xlink:href="#DejaVuSans-39" transform="translate(210.742188 0)"/>
       <use xlink:href="#DejaVuSans-36" transform="translate(274.365234 0)"/>
      </g>
     </g>
    </g>
    <g id="ytick_10">
     <g id="line2d_51">
      <g>
       <use xlink:href="#m70223861c3" x="55.990781" y="423.951202" style="stroke: #000000; stroke-width: 0.8"/>
      </g>
     </g>
     <g id="text_20">
      <!-- n = 99 -->
      <g transform="translate(25.331875 426.610655) scale(0.07 -0.07)">
       <use xlink:href="#DejaVuSans-6e"/>
       <use xlink:href="#DejaVuSans-20" transform="translate(63.378906 0)"/>
       <use xlink:href="#DejaVuSans-3d" transform="translate(95.166016 0)"/>
       <use xlink:href="#DejaVuSans-20" transform="translate(178.955078 0)"/>
       <use xlink:href="#DejaVuSans-39" transform="translate(210.742188 0)"/>
       <use xlink:href="#DejaVuSans-39" transform="translate(274.365234 0)"/>
      </g>
     </g>
    </g>
    <g id="ytick_11">
     <g id="line2d_52">
      <g>
       <use xlink:href="#m70223861c3" x="55.990781" y="406.99871" style="stroke: #000000; stroke-width: 0.8"/>
      </g>
     </g>
     <g id="text_21">
      <!-- n = 100 -->
      <g transform="translate(20.878125 409.658163) scale(0.07 -0.07)">
       <use xlink:href="#DejaVuSans-6e"/>
       <use xlink:href="#DejaVuSans-20" transform="translate(63.378906 0)"/>
       <use xlink:href="#DejaVuSans-3d" transform="translate(95.166016 0)"/>
       <use xlink:href="#DejaVuSans-20" transform="translate(178.955078 0)"/>
       <use xlink:href="#DejaVuSans-31" transform="translate(210.742188 0)"/>
       <use xlink:href="#DejaVuSans-30" transform="translate(274.365234 0)"/>
       <use xlink:href="#DejaVuSans-30" transform="translate(337.988281 0)"/>
      </g>
     </g>
    </g>
    <g id="ytick_12">
     <g id="line2d_53">
      <g>
       <use xlink:href="#m70223861c3" x="55.990781" y="390.046217" style="stroke: #000000; stroke-width: 0.8"/>
      </g>
     </g>
     <g id="text_22">
      <!-- n = 100 -->
      <g transform="translate(20.878125 392.70567) scale(0.07 -0.07)">
       <use xlink:href="#DejaVuSans-6e"/>
       <use xlink:href="#DejaVuSans-20" transform="translate(63.378906 0)"/>
       <use xlink:href="#DejaVuSans-3d" transform="translate(95.166016 0)"/>
       <use xlink:href="#DejaVuSans-20" transform="translate(178.955078 0)"/>
       <use xlink:href="#DejaVuSans-31" transform="translate(210.742188 0)"/>
       <use xlink:href="#DejaVuSans-30" transform="translate(274.365234 0)"/>
       <use xlink:href="#DejaVuSans-30" transform="translate(337.988281 0)"/>
      </g>
     </g>
    </g>
    <g id="ytick_13">
     <g id="line2d_54">
      <g>
       <use xlink:href="#m70223861c3" x="55.990781" y="373.093724" style="stroke: #000000; stroke-width: 0.8"/>
      </g>
     </g>
     <g id="text_23">
      <!-- n = 104 -->
      <g transform="translate(20.878125 375.753177) scale(0.07 -0.07)">
       <use xlink:href="#DejaVuSans-6e"/>
       <use xlink:href="#DejaVuSans-20" transform="translate(63.378906 0)"/>
       <use xlink:href="#DejaVuSans-3d" transform="translate(95.166016 0)"/>
       <use xlink:href="#DejaVuSans-20" transform="translate(178.955078 0)"/>
       <use xlink:href="#DejaVuSans-31" transform="translate(210.742188 0)"/>
       <use xlink:href="#DejaVuSans-30" transform="translate(274.365234 0)"/>
       <use xlink:href="#DejaVuSans-34" transform="translate(337.988281 0)"/>
      </g>
     </g>
    </g>
    <g id="ytick_14">
     <g id="line2d_55">
      <g>
       <use xlink:href="#m70223861c3" x="55.990781" y="356.141232" style="stroke: #000000; stroke-width: 0.8"/>
      </g>
     </g>
     <g id="text_24">
      <!-- n = 105 -->
      <g transform="translate(20.878125 358.800685) scale(0.07 -0.07)">
       <use xlink:href="#DejaVuSans-6e"/>
       <use xlink:href="#DejaVuSans-20" transform="translate(63.378906 0)"/>
       <use xlink:href="#DejaVuSans-3d" transform="translate(95.166016 0)"/>
       <use xlink:href="#DejaVuSans-20" transform="translate(178.955078 0)"/>
       <use xlink:href="#DejaVuSans-31" transform="translate(210.742188 0)"/>
       <use xlink:href="#DejaVuSans-30" transform="translate(274.365234 0)"/>
       <use xlink:href="#DejaVuSans-35" transform="translate(337.988281 0)"/>
      </g>
     </g>
    </g>
    <g id="ytick_15">
     <g id="line2d_56">
      <g>
       <use xlink:href="#m70223861c3" x="55.990781" y="339.188739" style="stroke: #000000; stroke-width: 0.8"/>
      </g>
     </g>
     <g id="text_25">
      <!-- n = 105 -->
      <g transform="translate(20.878125 341.848192) scale(0.07 -0.07)">
       <use xlink:href="#DejaVuSans-6e"/>
       <use xlink:href="#DejaVuSans-20" transform="translate(63.378906 0)"/>
       <use xlink:href="#DejaVuSans-3d" transform="translate(95.166016 0)"/>
       <use xlink:href="#DejaVuSans-20" transform="translate(178.955078 0)"/>
       <use xlink:href="#DejaVuSans-31" transform="translate(210.742188 0)"/>
       <use xlink:href="#DejaVuSans-30" transform="translate(274.365234 0)"/>
       <use xlink:href="#DejaVuSans-35" transform="translate(337.988281 0)"/>
      </g>
     </g>
    </g>
    <g id="ytick_16">
     <g id="line2d_57">
      <g>
       <use xlink:href="#m70223861c3" x="55.990781" y="322.236246" style="stroke: #000000; stroke-width: 0.8"/>
      </g>
     </g>
     <g id="text_26">
      <!-- n = 106 -->
      <g transform="translate(20.878125 324.895699) scale(0.07 -0.07)">
       <use xlink:href="#DejaVuSans-6e"/>
       <use xlink:href="#DejaVuSans-20" transform="translate(63.378906 0)"/>
       <use xlink:href="#DejaVuSans-3d" transform="translate(95.166016 0)"/>
       <use xlink:href="#DejaVuSans-20" transform="translate(178.955078 0)"/>
       <use xlink:href="#DejaVuSans-31" transform="translate(210.742188 0)"/>
       <use xlink:href="#DejaVuSans-30" transform="translate(274.365234 0)"/>
       <use xlink:href="#DejaVuSans-36" transform="translate(337.988281 0)"/>
      </g>
     </g>
    </g>
    <g id="ytick_17">
     <g id="line2d_58">
      <g>
       <use xlink:href="#m70223861c3" x="55.990781" y="305.283754" style="stroke: #000000; stroke-width: 0.8"/>
      </g>
     </g>
     <g id="text_27">
      <!-- n = 106 -->
      <g transform="translate(20.878125 307.943207) scale(0.07 -0.07)">
       <use xlink:href="#DejaVuSans-6e"/>
       <use xlink:href="#DejaVuSans-20" transform="translate(63.378906 0)"/>
       <use xlink:href="#DejaVuSans-3d" transform="translate(95.166016 0)"/>
       <use xlink:href="#DejaVuSans-20" transform="translate(178.955078 0)"/>
       <use xlink:href="#DejaVuSans-31" transform="translate(210.742188 0)"/>
       <use xlink:href="#DejaVuSans-30" transform="translate(274.365234 0)"/>
       <use xlink:href="#DejaVuSans-36" transform="translate(337.988281 0)"/>
      </g>
     </g>
    </g>
    <g id="ytick_18">
     <g id="line2d_59">
      <g>
       <use xlink:href="#m70223861c3" x="55.990781" y="288.331261" style="stroke: #000000; stroke-width: 0.8"/>
      </g>
     </g>
     <g id="text_28">
      <!-- n = 106 -->
      <g transform="translate(20.878125 290.990714) scale(0.07 -0.07)">
       <use xlink:href="#DejaVuSans-6e"/>
       <use xlink:href="#DejaVuSans-20" transform="translate(63.378906 0)"/>
       <use xlink:href="#DejaVuSans-3d" transform="translate(95.166016 0)"/>
       <use xlink:href="#DejaVuSans-20" transform="translate(178.955078 0)"/>
       <use xlink:href="#DejaVuSans-31" transform="translate(210.742188 0)"/>
       <use xlink:href="#DejaVuSans-30" transform="translate(274.365234 0)"/>
       <use xlink:href="#DejaVuSans-36" transform="translate(337.988281 0)"/>
      </g>
     </g>
    </g>
    <g id="ytick_19">
     <g id="line2d_60">
      <g>
       <use xlink:href="#m70223861c3" x="55.990781" y="271.378768" style="stroke: #000000; stroke-width: 0.8"/>
      </g>
     </g>
     <g id="text_29">
      <!-- n = 108 -->
      <g transform="translate(20.878125 274.038221) scale(0.07 -0.07)">
       <use xlink:href="#DejaVuSans-6e"/>
       <use xlink:href="#DejaVuSans-20" transform="translate(63.378906 0)"/>
       <use xlink:href="#DejaVuSans-3d" transform="translate(95.166016 0)"/>
       <use xlink:href="#DejaVuSans-20" transform="translate(178.955078 0)"/>
       <use xlink:href="#DejaVuSans-31" transform="translate(210.742188 0)"/>
       <use xlink:href="#DejaVuSans-30" transform="translate(274.365234 0)"/>
       <use xlink:href="#DejaVuSans-38" transform="translate(337.988281 0)"/>
      </g>
     </g>
    </g>
    <g id="ytick_20">
     <g id="line2d_61">
      <g>
       <use xlink:href="#m70223861c3" x="55.990781" y="254.426276" style="stroke: #000000; stroke-width: 0.8"/>
      </g>
     </g>
     <g id="text_30">
      <!-- n = 108 -->
      <g transform="translate(20.878125 257.085729) scale(0.07 -0.07)">
       <use xlink:href="#DejaVuSans-6e"/>
       <use xlink:href="#DejaVuSans-20" transform="translate(63.378906 0)"/>
       <use xlink:href="#DejaVuSans-3d" transform="translate(95.166016 0)"/>
       <use xlink:href="#DejaVuSans-20" transform="translate(178.955078 0)"/>
       <use xlink:href="#DejaVuSans-31" transform="translate(210.742188 0)"/>
       <use xlink:href="#DejaVuSans-30" transform="translate(274.365234 0)"/>
       <use xlink:href="#DejaVuSans-38" transform="translate(337.988281 0)"/>
      </g>
     </g>
    </g>
    <g id="ytick_21">
     <g id="line2d_62">
      <g>
       <use xlink:href="#m70223861c3" x="55.990781" y="237.473783" style="stroke: #000000; stroke-width: 0.8"/>
      </g>
     </g>
     <g id="text_31">
      <!-- n = 109 -->
      <g transform="translate(20.878125 240.133236) scale(0.07 -0.07)">
       <use xlink:href="#DejaVuSans-6e"/>
       <use xlink:href="#DejaVuSans-20" transform="translate(63.378906 0)"/>
       <use xlink:href="#DejaVuSans-3d" transform="translate(95.166016 0)"/>
       <use xlink:href="#DejaVuSans-20" transform="translate(178.955078 0)"/>
       <use xlink:href="#DejaVuSans-31" transform="translate(210.742188 0)"/>
       <use xlink:href="#DejaVuSans-30" transform="translate(274.365234 0)"/>
       <use xlink:href="#DejaVuSans-39" transform="translate(337.988281 0)"/>
      </g>
     </g>
    </g>
    <g id="ytick_22">
     <g id="line2d_63">
      <g>
       <use xlink:href="#m70223861c3" x="55.990781" y="220.52129" style="stroke: #000000; stroke-width: 0.8"/>
      </g>
     </g>
     <g id="text_32">
      <!-- n = 109 -->
      <g transform="translate(20.878125 223.180743) scale(0.07 -0.07)">
       <use xlink:href="#DejaVuSans-6e"/>
       <use xlink:href="#DejaVuSans-20" transform="translate(63.378906 0)"/>
       <use xlink:href="#DejaVuSans-3d" transform="translate(95.166016 0)"/>
       <use xlink:href="#DejaVuSans-20" transform="translate(178.955078 0)"/>
       <use xlink:href="#DejaVuSans-31" transform="translate(210.742188 0)"/>
       <use xlink:href="#DejaVuSans-30" transform="translate(274.365234 0)"/>
       <use xlink:href="#DejaVuSans-39" transform="translate(337.988281 0)"/>
      </g>
     </g>
    </g>
    <g id="ytick_23">
     <g id="line2d_64">
      <g>
       <use xlink:href="#m70223861c3" x="55.990781" y="203.568798" style="stroke: #000000; stroke-width: 0.8"/>
      </g>
     </g>
     <g id="text_33">
      <!-- n = 109 -->
      <g transform="translate(20.878125 206.228251) scale(0.07 -0.07)">
       <use xlink:href="#DejaVuSans-6e"/>
       <use xlink:href="#DejaVuSans-20" transform="translate(63.378906 0)"/>
       <use xlink:href="#DejaVuSans-3d" transform="translate(95.166016 0)"/>
       <use xlink:href="#DejaVuSans-20" transform="translate(178.955078 0)"/>
       <use xlink:href="#DejaVuSans-31" transform="translate(210.742188 0)"/>
       <use xlink:href="#DejaVuSans-30" transform="translate(274.365234 0)"/>
       <use xlink:href="#DejaVuSans-39" transform="translate(337.988281 0)"/>
      </g>
     </g>
    </g>
    <g id="ytick_24">
     <g id="line2d_65">
      <g>
       <use xlink:href="#m70223861c3" x="55.990781" y="186.616305" style="stroke: #000000; stroke-width: 0.8"/>
      </g>
     </g>
     <g id="text_34">
      <!-- n = 112 -->
      <g transform="translate(20.878125 189.275758) scale(0.07 -0.07)">
       <use xlink:href="#DejaVuSans-6e"/>
       <use xlink:href="#DejaVuSans-20" transform="translate(63.378906 0)"/>
       <use xlink:href="#DejaVuSans-3d" transform="translate(95.166016 0)"/>
       <use xlink:href="#DejaVuSans-20" transform="translate(178.955078 0)"/>
       <use xlink:href="#DejaVuSans-31" transform="translate(210.742188 0)"/>
       <use xlink:href="#DejaVuSans-31" transform="translate(274.365234 0)"/>
       <use xlink:href="#DejaVuSans-32" transform="translate(337.988281 0)"/>
      </g>
     </g>
    </g>
    <g id="ytick_25">
     <g id="line2d_66">
      <g>
       <use xlink:href="#m70223861c3" x="55.990781" y="169.663812" style="stroke: #000000; stroke-width: 0.8"/>
      </g>
     </g>
     <g id="text_35">
      <!-- n = 112 -->
      <g transform="translate(20.878125 172.323265) scale(0.07 -0.07)">
       <use xlink:href="#DejaVuSans-6e"/>
       <use xlink:href="#DejaVuSans-20" transform="translate(63.378906 0)"/>
       <use xlink:href="#DejaVuSans-3d" transform="translate(95.166016 0)"/>
       <use xlink:href="#DejaVuSans-20" transform="translate(178.955078 0)"/>
       <use xlink:href="#DejaVuSans-31" transform="translate(210.742188 0)"/>
       <use xlink:href="#DejaVuSans-31" transform="translate(274.365234 0)"/>
       <use xlink:href="#DejaVuSans-32" transform="translate(337.988281 0)"/>
      </g>
     </g>
    </g>
    <g id="ytick_26">
     <g id="line2d_67">
      <g>
       <use xlink:href="#m70223861c3" x="55.990781" y="152.71132" style="stroke: #000000; stroke-width: 0.8"/>
      </g>
     </g>
     <g id="text_36">
      <!-- n = 118 -->
      <g transform="translate(20.878125 155.370773) scale(0.07 -0.07)">
       <use xlink:href="#DejaVuSans-6e"/>
       <use xlink:href="#DejaVuSans-20" transform="translate(63.378906 0)"/>
       <use xlink:href="#DejaVuSans-3d" transform="translate(95.166016 0)"/>
       <use xlink:href="#DejaVuSans-20" transform="translate(178.955078 0)"/>
       <use xlink:href="#DejaVuSans-31" transform="translate(210.742188 0)"/>
       <use xlink:href="#DejaVuSans-31" transform="translate(274.365234 0)"/>
       <use xlink:href="#DejaVuSans-38" transform="translate(337.988281 0)"/>
      </g>
     </g>
    </g>
    <g id="ytick_27">
     <g id="line2d_68">
      <g>
       <use xlink:href="#m70223861c3" x="55.990781" y="135.758827" style="stroke: #000000; stroke-width: 0.8"/>
      </g>
     </g>
     <g id="text_37">
      <!-- n = 122 -->
      <g transform="translate(20.878125 138.41828) scale(0.07 -0.07)">
       <use xlink:href="#DejaVuSans-6e"/>
       <use xlink:href="#DejaVuSans-20" transform="translate(63.378906 0)"/>
       <use xlink:href="#DejaVuSans-3d" transform="translate(95.166016 0)"/>
       <use xlink:href="#DejaVuSans-20" transform="translate(178.955078 0)"/>
       <use xlink:href="#DejaVuSans-31" transform="translate(210.742188 0)"/>
       <use xlink:href="#DejaVuSans-32" transform="translate(274.365234 0)"/>
       <use xlink:href="#DejaVuSans-32" transform="translate(337.988281 0)"/>
      </g>
     </g>
    </g>
    <g id="ytick_28">
     <g id="line2d_69">
      <g>
       <use xlink:href="#m70223861c3" x="55.990781" y="118.806334" style="stroke: #000000; stroke-width: 0.8"/>
      </g>
     </g>
     <g id="text_38">
      <!-- n = 128 -->
      <g transform="translate(20.878125 121.465787) scale(0.07 -0.07)">
       <use xlink:href="#DejaVuSans-6e"/>
       <use xlink:href="#DejaVuSans-20" transform="translate(63.378906 0)"/>
       <use xlink:href="#DejaVuSans-3d" transform="translate(95.166016 0)"/>
       <use xlink:href="#DejaVuSans-20" transform="translate(178.955078 0)"/>
       <use xlink:href="#DejaVuSans-31" transform="translate(210.742188 0)"/>
       <use xlink:href="#DejaVuSans-32" transform="translate(274.365234 0)"/>
       <use xlink:href="#DejaVuSans-38" transform="translate(337.988281 0)"/>
      </g>
     </g>
    </g>
    <g id="ytick_29">
     <g id="line2d_70">
      <g>
       <use xlink:href="#m70223861c3" x="55.990781" y="101.853842" style="stroke: #000000; stroke-width: 0.8"/>
      </g>
     </g>
     <g id="text_39">
      <!-- n = 129 -->
      <g transform="translate(20.878125 104.513295) scale(0.07 -0.07)">
       <use xlink:href="#DejaVuSans-6e"/>
       <use xlink:href="#DejaVuSans-20" transform="translate(63.378906 0)"/>
       <use xlink:href="#DejaVuSans-3d" transform="translate(95.166016 0)"/>
       <use xlink:href="#DejaVuSans-20" transform="translate(178.955078 0)"/>
       <use xlink:href="#DejaVuSans-31" transform="translate(210.742188 0)"/>
       <use xlink:href="#DejaVuSans-32" transform="translate(274.365234 0)"/>
       <use xlink:href="#DejaVuSans-39" transform="translate(337.988281 0)"/>
      </g>
     </g>
    </g>
    <g id="ytick_30">
     <g id="line2d_71">
      <g>
       <use xlink:href="#m70223861c3" x="55.990781" y="84.901349" style="stroke: #000000; stroke-width: 0.8"/>
      </g>
     </g>
     <g id="text_40">
      <!-- n = 136 -->
      <g transform="translate(20.878125 87.560802) scale(0.07 -0.07)">
       <defs>
        <path id="DejaVuSans-33" d="M 2597 2516 
Q 3050 2419 3304 2112 
Q 3559 1806 3559 1356 
Q 3559 666 3084 287 
Q 2609 -91 1734 -91 
Q 1441 -91 1130 -33 
Q 819 25 488 141 
L 488 750 
Q 750 597 1062 519 
Q 1375 441 1716 441 
Q 2309 441 2620 675 
Q 2931 909 2931 1356 
Q 2931 1769 2642 2001 
Q 2353 2234 1838 2234 
L 1294 2234 
L 1294 2753 
L 1863 2753 
Q 2328 2753 2575 2939 
Q 2822 3125 2822 3475 
Q 2822 3834 2567 4026 
Q 2313 4219 1838 4219 
Q 1578 4219 1281 4162 
Q 984 4106 628 3988 
L 628 4550 
Q 988 4650 1302 4700 
Q 1616 4750 1894 4750 
Q 2613 4750 3031 4423 
Q 3450 4097 3450 3541 
Q 3450 3153 3228 2886 
Q 3006 2619 2597 2516 
z
" transform="scale(0.015625)"/>
       </defs>
       <use xlink:href="#DejaVuSans-6e"/>
       <use xlink:href="#DejaVuSans-20" transform="translate(63.378906 0)"/>
       <use xlink:href="#DejaVuSans-3d" transform="translate(95.166016 0)"/>
       <use xlink:href="#DejaVuSans-20" transform="translate(178.955078 0)"/>
       <use xlink:href="#DejaVuSans-31" transform="translate(210.742188 0)"/>
       <use xlink:href="#DejaVuSans-33" transform="translate(274.365234 0)"/>
       <use xlink:href="#DejaVuSans-36" transform="translate(337.988281 0)"/>
      </g>
     </g>
    </g>
    <g id="ytick_31">
     <g id="line2d_72">
      <g>
       <use xlink:href="#m70223861c3" x="55.990781" y="67.948856" style="stroke: #000000; stroke-width: 0.8"/>
      </g>
     </g>
     <g id="text_41">
      <!-- n = 143 -->
      <g transform="translate(20.878125 70.608309) scale(0.07 -0.07)">
       <use xlink:href="#DejaVuSans-6e"/>
       <use xlink:href="#DejaVuSans-20" transform="translate(63.378906 0)"/>
       <use xlink:href="#DejaVuSans-3d" transform="translate(95.166016 0)"/>
       <use xlink:href="#DejaVuSans-20" transform="translate(178.955078 0)"/>
       <use xlink:href="#DejaVuSans-31" transform="translate(210.742188 0)"/>
       <use xlink:href="#DejaVuSans-34" transform="translate(274.365234 0)"/>
       <use xlink:href="#DejaVuSans-33" transform="translate(337.988281 0)"/>
      </g>
     </g>
    </g>
    <g id="ytick_32">
     <g id="line2d_73">
      <g>
       <use xlink:href="#m70223861c3" x="55.990781" y="50.996364" style="stroke: #000000; stroke-width: 0.8"/>
      </g>
     </g>
     <g id="text_42">
      <!-- n = 143 -->
      <g transform="translate(20.878125 53.655817) scale(0.07 -0.07)">
       <use xlink:href="#DejaVuSans-6e"/>
       <use xlink:href="#DejaVuSans-20" transform="translate(63.378906 0)"/>
       <use xlink:href="#DejaVuSans-3d" transform="translate(95.166016 0)"/>
       <use xlink:href="#DejaVuSans-20" transform="translate(178.955078 0)"/>
       <use xlink:href="#DejaVuSans-31" transform="translate(210.742188 0)"/>
       <use xlink:href="#DejaVuSans-34" transform="translate(274.365234 0)"/>
       <use xlink:href="#DejaVuSans-33" transform="translate(337.988281 0)"/>
      </g>
     </g>
    </g>
    <g id="text_43">
     <!-- Payer-region cell (sorted by treated patients, smallest at bottom) -->
     <g transform="translate(14.798438 476.59125) rotate(-90) scale(0.1 -0.1)">
      <defs>
       <path id="DejaVuSans-50" d="M 1259 4147 
L 1259 2394 
L 2053 2394 
Q 2494 2394 2734 2622 
Q 2975 2850 2975 3272 
Q 2975 3691 2734 3919 
Q 2494 4147 2053 4147 
L 1259 4147 
z
M 628 4666 
L 2053 4666 
Q 2838 4666 3239 4311 
Q 3641 3956 3641 3272 
Q 3641 2581 3239 2228 
Q 2838 1875 2053 1875 
L 1259 1875 
L 1259 0 
L 628 0 
L 628 4666 
z
" transform="scale(0.015625)"/>
       <path id="DejaVuSans-79" d="M 2059 -325 
Q 1816 -950 1584 -1140 
Q 1353 -1331 966 -1331 
L 506 -1331 
L 506 -850 
L 844 -850 
Q 1081 -850 1212 -737 
Q 1344 -625 1503 -206 
L 1606 56 
L 191 3500 
L 800 3500 
L 1894 763 
L 2988 3500 
L 3597 3500 
L 2059 -325 
z
" transform="scale(0.015625)"/>
       <path id="DejaVuSans-2d" d="M 313 2009 
L 1997 2009 
L 1997 1497 
L 313 1497 
L 313 2009 
z
" transform="scale(0.015625)"/>
       <path id="DejaVuSans-67" d="M 2906 1791 
Q 2906 2416 2648 2759 
Q 2391 3103 1925 3103 
Q 1463 3103 1205 2759 
Q 947 2416 947 1791 
Q 947 1169 1205 825 
Q 1463 481 1925 481 
Q 2391 481 2648 825 
Q 2906 1169 2906 1791 
z
M 3481 434 
Q 3481 -459 3084 -895 
Q 2688 -1331 1869 -1331 
Q 1566 -1331 1297 -1286 
Q 1028 -1241 775 -1147 
L 775 -588 
Q 1028 -725 1275 -790 
Q 1522 -856 1778 -856 
Q 2344 -856 2625 -561 
Q 2906 -266 2906 331 
L 2906 616 
Q 2728 306 2450 153 
Q 2172 0 1784 0 
Q 1141 0 747 490 
Q 353 981 353 1791 
Q 353 2603 747 3093 
Q 1141 3584 1784 3584 
Q 2172 3584 2450 3431 
Q 2728 3278 2906 2969 
L 2906 3500 
L 3481 3500 
L 3481 434 
z
" transform="scale(0.015625)"/>
       <path id="DejaVuSans-69" d="M 603 3500 
L 1178 3500 
L 1178 0 
L 603 0 
L 603 3500 
z
M 603 4863 
L 1178 4863 
L 1178 4134 
L 603 4134 
L 603 4863 
z
" transform="scale(0.015625)"/>
       <path id="DejaVuSans-63" d="M 3122 3366 
L 3122 2828 
Q 2878 2963 2633 3030 
Q 2388 3097 2138 3097 
Q 1578 3097 1268 2742 
Q 959 2388 959 1747 
Q 959 1106 1268 751 
Q 1578 397 2138 397 
Q 2388 397 2633 464 
Q 2878 531 3122 666 
L 3122 134 
Q 2881 22 2623 -34 
Q 2366 -91 2075 -91 
Q 1284 -91 818 406 
Q 353 903 353 1747 
Q 353 2603 823 3093 
Q 1294 3584 2113 3584 
Q 2378 3584 2631 3529 
Q 2884 3475 3122 3366 
z
" transform="scale(0.015625)"/>
       <path id="DejaVuSans-6c" d="M 603 4863 
L 1178 4863 
L 1178 0 
L 603 0 
L 603 4863 
z
" transform="scale(0.015625)"/>
       <path id="DejaVuSans-28" d="M 1984 4856 
Q 1566 4138 1362 3434 
Q 1159 2731 1159 2009 
Q 1159 1288 1364 580 
Q 1569 -128 1984 -844 
L 1484 -844 
Q 1016 -109 783 600 
Q 550 1309 550 2009 
Q 550 2706 781 3412 
Q 1013 4119 1484 4856 
L 1984 4856 
z
" transform="scale(0.015625)"/>
       <path id="DejaVuSans-64" d="M 2906 2969 
L 2906 4863 
L 3481 4863 
L 3481 0 
L 2906 0 
L 2906 525 
Q 2725 213 2448 61 
Q 2172 -91 1784 -91 
Q 1150 -91 751 415 
Q 353 922 353 1747 
Q 353 2572 751 3078 
Q 1150 3584 1784 3584 
Q 2172 3584 2448 3432 
Q 2725 3281 2906 2969 
z
M 947 1747 
Q 947 1113 1208 752 
Q 1469 391 1925 391 
Q 2381 391 2643 752 
Q 2906 1113 2906 1747 
Q 2906 2381 2643 2742 
Q 2381 3103 1925 3103 
Q 1469 3103 1208 2742 
Q 947 2381 947 1747 
z
" transform="scale(0.015625)"/>
       <path id="DejaVuSans-62" d="M 3116 1747 
Q 3116 2381 2855 2742 
Q 2594 3103 2138 3103 
Q 1681 3103 1420 2742 
Q 1159 2381 1159 1747 
Q 1159 1113 1420 752 
Q 1681 391 2138 391 
Q 2594 391 2855 752 
Q 3116 1113 3116 1747 
z
M 1159 2969 
Q 1341 3281 1617 3432 
Q 1894 3584 2278 3584 
Q 2916 3584 3314 3078 
Q 3713 2572 3713 1747 
Q 3713 922 3314 415 
Q 2916 -91 2278 -91 
Q 1894 -91 1617 61 
Q 1341 213 1159 525 
L 1159 0 
L 581 0 
L 581 4863 
L 1159 4863 
L 1159 2969 
z
" transform="scale(0.015625)"/>
       <path id="DejaVuSans-70" d="M 1159 525 
L 1159 -1331 
L 581 -1331 
L 581 3500 
L 1159 3500 
L 1159 2969 
Q 1341 3281 1617 3432 
Q 1894 3584 2278 3584 
Q 2916 3584 3314 3078 
Q 3713 2572 3713 1747 
Q 3713 922 3314 415 
Q 2916 -91 2278 -91 
Q 1894 -91 1617 61 
Q 1341 213 1159 525 
z
M 3116 1747 
Q 3116 2381 2855 2742 
Q 2594 3103 2138 3103 
Q 1681 3103 1420 2742 
Q 1159 2381 1159 1747 
Q 1159 1113 1420 752 
Q 1681 391 2138 391 
Q 2594 391 2855 752 
Q 3116 1113 3116 1747 
z
" transform="scale(0.015625)"/>
       <path id="DejaVuSans-2c" d="M 750 794 
L 1409 794 
L 1409 256 
L 897 -744 
L 494 -744 
L 750 256 
L 750 794 
z
" transform="scale(0.015625)"/>
       <path id="DejaVuSans-6d" d="M 3328 2828 
Q 3544 3216 3844 3400 
Q 4144 3584 4550 3584 
Q 5097 3584 5394 3201 
Q 5691 2819 5691 2113 
L 5691 0 
L 5113 0 
L 5113 2094 
Q 5113 2597 4934 2840 
Q 4756 3084 4391 3084 
Q 3944 3084 3684 2787 
Q 3425 2491 3425 1978 
L 3425 0 
L 2847 0 
L 2847 2094 
Q 2847 2600 2669 2842 
Q 2491 3084 2119 3084 
Q 1678 3084 1418 2786 
Q 1159 2488 1159 1978 
L 1159 0 
L 581 0 
L 581 3500 
L 1159 3500 
L 1159 2956 
Q 1356 3278 1631 3431 
Q 1906 3584 2284 3584 
Q 2666 3584 2933 3390 
Q 3200 3197 3328 2828 
z
" transform="scale(0.015625)"/>
       <path id="DejaVuSans-29" d="M 513 4856 
L 1013 4856 
Q 1481 4119 1714 3412 
Q 1947 2706 1947 2009 
Q 1947 1309 1714 600 
Q 1481 -109 1013 -844 
L 513 -844 
Q 928 -128 1133 580 
Q 1338 1288 1338 2009 
Q 1338 2731 1133 3434 
Q 928 4138 513 4856 
z
" transform="scale(0.015625)"/>
      </defs>
      <use xlink:href="#DejaVuSans-50"/>
      <use xlink:href="#DejaVuSans-61" transform="translate(55.802734 0)"/>
      <use xlink:href="#DejaVuSans-79" transform="translate(117.082031 0)"/>
      <use xlink:href="#DejaVuSans-65" transform="translate(176.261719 0)"/>
      <use xlink:href="#DejaVuSans-72" transform="translate(237.785156 0)"/>
      <use xlink:href="#DejaVuSans-2d" transform="translate(272.523438 0)"/>
      <use xlink:href="#DejaVuSans-72" transform="translate(308.607422 0)"/>
      <use xlink:href="#DejaVuSans-65" transform="translate(347.470703 0)"/>
      <use xlink:href="#DejaVuSans-67" transform="translate(408.994141 0)"/>
      <use xlink:href="#DejaVuSans-69" transform="translate(472.470703 0)"/>
      <use xlink:href="#DejaVuSans-6f" transform="translate(500.253906 0)"/>
      <use xlink:href="#DejaVuSans-6e" transform="translate(561.435547 0)"/>
      <use xlink:href="#DejaVuSans-20" transform="translate(624.814453 0)"/>
      <use xlink:href="#DejaVuSans-63" transform="translate(656.601562 0)"/>
      <use xlink:href="#DejaVuSans-65" transform="translate(711.582031 0)"/>
      <use xlink:href="#DejaVuSans-6c" transform="translate(773.105469 0)"/>
      <use xlink:href="#DejaVuSans-6c" transform="translate(800.888672 0)"/>
      <use xlink:href="#DejaVuSans-20" transform="translate(828.671875 0)"/>
      <use xlink:href="#DejaVuSans-28" transform="translate(860.458984 0)"/>
      <use xlink:href="#DejaVuSans-73" transform="translate(899.472656 0)"/>
      <use xlink:href="#DejaVuSans-6f" transform="translate(951.572266 0)"/>
      <use xlink:href="#DejaVuSans-72" transform="translate(1012.753906 0)"/>
      <use xlink:href="#DejaVuSans-74" transform="translate(1053.867188 0)"/>
      <use xlink:href="#DejaVuSans-65" transform="translate(1093.076172 0)"/>
      <use xlink:href="#DejaVuSans-64" transform="translate(1154.599609 0)"/>
      <use xlink:href="#DejaVuSans-20" transform="translate(1218.076172 0)"/>
      <use xlink:href="#DejaVuSans-62" transform="translate(1249.863281 0)"/>
      <use xlink:href="#DejaVuSans-79" transform="translate(1313.339844 0)"/>
      <use xlink:href="#DejaVuSans-20" transform="translate(1372.519531 0)"/>
      <use xlink:href="#DejaVuSans-74" transform="translate(1404.306641 0)"/>
      <use xlink:href="#DejaVuSans-72" transform="translate(1443.515625 0)"/>
      <use xlink:href="#DejaVuSans-65" transform="translate(1482.378906 0)"/>
      <use xlink:href="#DejaVuSans-61" transform="translate(1543.902344 0)"/>
      <use xlink:href="#DejaVuSans-74" transform="translate(1605.181641 0)"/>
      <use xlink:href="#DejaVuSans-65" transform="translate(1644.390625 0)"/>
      <use xlink:href="#DejaVuSans-64" transform="translate(1705.914062 0)"/>
      <use xlink:href="#DejaVuSans-20" transform="translate(1769.390625 0)"/>
      <use xlink:href="#DejaVuSans-70" transform="translate(1801.177734 0)"/>
      <use xlink:href="#DejaVuSans-61" transform="translate(1864.654297 0)"/>
      <use xlink:href="#DejaVuSans-74" transform="translate(1925.933594 0)"/>
      <use xlink:href="#DejaVuSans-69" transform="translate(1965.142578 0)"/>
      <use xlink:href="#DejaVuSans-65" transform="translate(1992.925781 0)"/>
      <use xlink:href="#DejaVuSans-6e" transform="translate(2054.449219 0)"/>
      <use xlink:href="#DejaVuSans-74" transform="translate(2117.828125 0)"/>
      <use xlink:href="#DejaVuSans-73" transform="translate(2157.037109 0)"/>
      <use xlink:href="#DejaVuSans-2c" transform="translate(2209.136719 0)"/>
      <use xlink:href="#DejaVuSans-20" transform="translate(2240.923828 0)"/>
      <use xlink:href="#DejaVuSans-73" transform="translate(2272.710938 0)"/>
      <use xlink:href="#DejaVuSans-6d" transform="translate(2324.810547 0)"/>
      <use xlink:href="#DejaVuSans-61" transform="translate(2422.222656 0)"/>
      <use xlink:href="#DejaVuSans-6c" transform="translate(2483.501953 0)"/>
      <use xlink:href="#DejaVuSans-6c" transform="translate(2511.285156 0)"/>
      <use xlink:href="#DejaVuSans-65" transform="translate(2539.068359 0)"/>
      <use xlink:href="#DejaVuSans-73" transform="translate(2600.591797 0)"/>
      <use xlink:href="#DejaVuSans-74" transform="translate(2652.691406 0)"/>
      <use xlink:href="#DejaVuSans-20" transform="translate(2691.900391 0)"/>
      <use xlink:href="#DejaVuSans-61" transform="translate(2723.6875 0)"/>
      <use xlink:href="#DejaVuSans-74" transform="translate(2784.966797 0)"/>
      <use xlink:href="#DejaVuSans-20" transform="translate(2824.175781 0)"/>
      <use xlink:href="#DejaVuSans-62" transform="translate(2855.962891 0)"/>
      <use xlink:href="#DejaVuSans-6f" transform="translate(2919.439453 0)"/>
      <use xlink:href="#DejaVuSans-74" transform="translate(2980.621094 0)"/>
      <use xlink:href="#DejaVuSans-74" transform="translate(3019.830078 0)"/>
      <use xlink:href="#DejaVuSans-6f" transform="translate(3059.039062 0)"/>
      <use xlink:href="#DejaVuSans-6d" transform="translate(3120.220703 0)"/>
      <use xlink:href="#DejaVuSans-29" transform="translate(3217.632812 0)"/>
     </g>
    </g>
   </g>
   <g id="line2d_74">
    <path d="M 321.114038 602.8 
L 321.114038 24.72 
" clip-path="url(#p609788d40a)" style="fill: none; stroke-dasharray: 4.44,1.92; stroke-dashoffset: 0; stroke: #7c8795; stroke-width: 1.2"/>
   </g>
   <g id="patch_3">
    <path d="M 55.990781 602.8 
L 55.990781 24.72 
" style="fill: none; stroke: #000000; stroke-width: 0.8; stroke-linejoin: miter; stroke-linecap: square"/>
   </g>
   <g id="patch_4">
    <path d="M 55.990781 602.8 
L 563.750781 602.8 
" style="fill: none; stroke: #000000; stroke-width: 0.8; stroke-linejoin: miter; stroke-linecap: square"/>
   </g>
   <g id="text_44">
    <!-- Longer lines: small n OR raw share far from 82% -->
    <g style="fill: #7c8795" transform="translate(66.145981 595.459434) scale(0.075 -0.075)">
     <defs>
      <path id="DejaVuSans-4c" d="M 628 4666 
L 1259 4666 
L 1259 531 
L 3531 531 
L 3531 0 
L 628 0 
L 628 4666 
z
" transform="scale(0.015625)"/>
      <path id="DejaVuSans-3a" d="M 750 794 
L 1409 794 
L 1409 0 
L 750 0 
L 750 794 
z
M 750 3309 
L 1409 3309 
L 1409 2516 
L 750 2516 
L 750 3309 
z
" transform="scale(0.015625)"/>
      <path id="DejaVuSans-4f" d="M 2522 4238 
Q 1834 4238 1429 3725 
Q 1025 3213 1025 2328 
Q 1025 1447 1429 934 
Q 1834 422 2522 422 
Q 3209 422 3611 934 
Q 4013 1447 4013 2328 
Q 4013 3213 3611 3725 
Q 3209 4238 2522 4238 
z
M 2522 4750 
Q 3503 4750 4090 4092 
Q 4678 3434 4678 2328 
Q 4678 1225 4090 567 
Q 3503 -91 2522 -91 
Q 1538 -91 948 565 
Q 359 1222 359 2328 
Q 359 3434 948 4092 
Q 1538 4750 2522 4750 
z
" transform="scale(0.015625)"/>
      <path id="DejaVuSans-77" d="M 269 3500 
L 844 3500 
L 1563 769 
L 2278 3500 
L 2956 3500 
L 3675 769 
L 4391 3500 
L 4966 3500 
L 4050 0 
L 3372 0 
L 2619 2869 
L 1863 0 
L 1184 0 
L 269 3500 
z
" transform="scale(0.015625)"/>
      <path id="DejaVuSans-66" d="M 2375 4863 
L 2375 4384 
L 1825 4384 
Q 1516 4384 1395 4259 
Q 1275 4134 1275 3809 
L 1275 3500 
L 2222 3500 
L 2222 3053 
L 1275 3053 
L 1275 0 
L 697 0 
L 697 3053 
L 147 3053 
L 147 3500 
L 697 3500 
L 697 3744 
Q 697 4328 969 4595 
Q 1241 4863 1831 4863 
L 2375 4863 
z
" transform="scale(0.015625)"/>
     </defs>
     <use xlink:href="#DejaVuSans-4c"/>
     <use xlink:href="#DejaVuSans-6f" transform="translate(53.962891 0)"/>
     <use xlink:href="#DejaVuSans-6e" transform="translate(115.144531 0)"/>
     <use xlink:href="#DejaVuSans-67" transform="translate(178.523438 0)"/>
     <use xlink:href="#DejaVuSans-65" transform="translate(242 0)"/>
     <use xlink:href="#DejaVuSans-72" transform="translate(303.523438 0)"/>
     <use xlink:href="#DejaVuSans-20" transform="translate(344.636719 0)"/>
     <use xlink:href="#DejaVuSans-6c" transform="translate(376.423828 0)"/>
     <use xlink:href="#DejaVuSans-69" transform="translate(404.207031 0)"/>
     <use xlink:href="#DejaVuSans-6e" transform="translate(431.990234 0)"/>
     <use xlink:href="#DejaVuSans-65" transform="translate(495.369141 0)"/>
     <use xlink:href="#DejaVuSans-73" transform="translate(556.892578 0)"/>
     <use xlink:href="#DejaVuSans-3a" transform="translate(608.992188 0)"/>
     <use xlink:href="#DejaVuSans-20" transform="translate(642.683594 0)"/>
     <use xlink:href="#DejaVuSans-73" transform="translate(674.470703 0)"/>
     <use xlink:href="#DejaVuSans-6d" transform="translate(726.570312 0)"/>
     <use xlink:href="#DejaVuSans-61" transform="translate(823.982422 0)"/>
     <use xlink:href="#DejaVuSans-6c" transform="translate(885.261719 0)"/>
     <use xlink:href="#DejaVuSans-6c" transform="translate(913.044922 0)"/>
     <use xlink:href="#DejaVuSans-20" transform="translate(940.828125 0)"/>
     <use xlink:href="#DejaVuSans-6e" transform="translate(972.615234 0)"/>
     <use xlink:href="#DejaVuSans-20" transform="translate(1035.994141 0)"/>
     <use xlink:href="#DejaVuSans-4f" transform="translate(1067.78125 0)"/>
     <use xlink:href="#DejaVuSans-52" transform="translate(1146.492188 0)"/>
     <use xlink:href="#DejaVuSans-20" transform="translate(1215.974609 0)"/>
     <use xlink:href="#DejaVuSans-72" transform="translate(1247.761719 0)"/>
     <use xlink:href="#DejaVuSans-61" transform="translate(1288.875 0)"/>
     <use xlink:href="#DejaVuSans-77" transform="translate(1350.154297 0)"/>
     <use xlink:href="#DejaVuSans-20" transform="translate(1431.941406 0)"/>
     <use xlink:href="#DejaVuSans-73" transform="translate(1463.728516 0)"/>
     <use xlink:href="#DejaVuSans-68" transform="translate(1515.828125 0)"/>
     <use xlink:href="#DejaVuSans-61" transform="translate(1579.207031 0)"/>
     <use xlink:href="#DejaVuSans-72" transform="translate(1640.486328 0)"/>
     <use xlink:href="#DejaVuSans-65" transform="translate(1679.349609 0)"/>
     <use xlink:href="#DejaVuSans-20" transform="translate(1740.873047 0)"/>
     <use xlink:href="#DejaVuSans-66" transform="translate(1772.660156 0)"/>
     <use xlink:href="#DejaVuSans-61" transform="translate(1807.865234 0)"/>
     <use xlink:href="#DejaVuSans-72" transform="translate(1869.144531 0)"/>
     <use xlink:href="#DejaVuSans-20" transform="translate(1910.257812 0)"/>
     <use xlink:href="#DejaVuSans-66" transform="translate(1942.044922 0)"/>
     <use xlink:href="#DejaVuSans-72" transform="translate(1977.25 0)"/>
     <use xlink:href="#DejaVuSans-6f" transform="translate(2016.113281 0)"/>
     <use xlink:href="#DejaVuSans-6d" transform="translate(2077.294922 0)"/>
     <use xlink:href="#DejaVuSans-20" transform="translate(2174.707031 0)"/>
     <use xlink:href="#DejaVuSans-38" transform="translate(2206.494141 0)"/>
     <use xlink:href="#DejaVuSans-32" transform="translate(2270.117188 0)"/>
     <use xlink:href="#DejaVuSans-25" transform="translate(2333.740234 0)"/>
    </g>
   </g>
   <g id="PathCollection_1">
    <defs>
     <path id="m8909029db0" d="M 0 3.708099 
C 0.983399 3.708099 1.926654 3.317391 2.622022 2.622022 
C 3.317391 1.926654 3.708099 0.983399 3.708099 0 
C 3.708099 -0.983399 3.317391 -1.926654 2.622022 -2.622022 
C 1.926654 -3.317391 0.983399 -3.708099 0 -3.708099 
C -0.983399 -3.708099 -1.926654 -3.317391 -2.622022 -2.622022 
C -3.317391 -1.926654 -3.708099 -0.983399 -3.708099 0 
C -3.708099 0.983399 -3.317391 1.926654 -2.622022 2.622022 
C -1.926654 3.317391 -0.983399 3.708099 0 3.708099 
z
" style="stroke: #7c8795; stroke-width: 1.4"/>
    </defs>
    <g clip-path="url(#p609788d40a)">
     <use xlink:href="#m8909029db0" x="388.452686" y="576.523636" style="fill: #ffffff; stroke: #7c8795; stroke-width: 1.4"/>
     <use xlink:href="#m8909029db0" x="285.840987" y="559.571144" style="fill: #ffffff; stroke: #7c8795; stroke-width: 1.4"/>
     <use xlink:href="#m8909029db0" x="352.47196" y="542.618651" style="fill: #ffffff; stroke: #7c8795; stroke-width: 1.4"/>
     <use xlink:href="#m8909029db0" x="362.983184" y="525.666158" style="fill: #ffffff; stroke: #7c8795; stroke-width: 1.4"/>
     <use xlink:href="#m8909029db0" x="324.646866" y="508.713666" style="fill: #ffffff; stroke: #7c8795; stroke-width: 1.4"/>
     <use xlink:href="#m8909029db0" x="313.723487" y="491.761173" style="fill: #ffffff; stroke: #7c8795; stroke-width: 1.4"/>
     <use xlink:href="#m8909029db0" x="303.037572" y="474.80868" style="fill: #ffffff; stroke: #7c8795; stroke-width: 1.4"/>
     <use xlink:href="#m8909029db0" x="361.41033" y="457.856188" style="fill: #ffffff; stroke: #7c8795; stroke-width: 1.4"/>
     <use xlink:href="#m8909029db0" x="287.706654" y="440.903695" style="fill: #ffffff; stroke: #7c8795; stroke-width: 1.4"/>
     <use xlink:href="#m8909029db0" x="368.608771" y="423.951202" style="fill: #ffffff; stroke: #7c8795; stroke-width: 1.4"/>
     <use xlink:href="#m8909029db0" x="370.3184" y="406.99871" style="fill: #ffffff; stroke: #7c8795; stroke-width: 1.4"/>
     <use xlink:href="#m8909029db0" x="358.228876" y="390.046217" style="fill: #ffffff; stroke: #7c8795; stroke-width: 1.4"/>
     <use xlink:href="#m8909029db0" x="283.831807" y="373.093724" style="fill: #ffffff; stroke: #7c8795; stroke-width: 1.4"/>
     <use xlink:href="#m8909029db0" x="343.836586" y="356.141232" style="fill: #ffffff; stroke: #7c8795; stroke-width: 1.4"/>
     <use xlink:href="#m8909029db0" x="263.239761" y="339.188739" style="fill: #ffffff; stroke: #7c8795; stroke-width: 1.4"/>
     <use xlink:href="#m8909029db0" x="322.872722" y="322.236246" style="fill: #ffffff; stroke: #7c8795; stroke-width: 1.4"/>
     <use xlink:href="#m8909029db0" x="277.251877" y="305.283754" style="fill: #ffffff; stroke: #7c8795; stroke-width: 1.4"/>
     <use xlink:href="#m8909029db0" x="311.467511" y="288.331261" style="fill: #ffffff; stroke: #7c8795; stroke-width: 1.4"/>
     <use xlink:href="#m8909029db0" x="349.273674" y="271.378768" style="fill: #ffffff; stroke: #7c8795; stroke-width: 1.4"/>
     <use xlink:href="#m8909029db0" x="282.109653" y="254.426276" style="fill: #ffffff; stroke: #7c8795; stroke-width: 1.4"/>
     <use xlink:href="#m8909029db0" x="362.110834" y="237.473783" style="fill: #ffffff; stroke: #7c8795; stroke-width: 1.4"/>
     <use xlink:href="#m8909029db0" x="328.836915" y="220.52129" style="fill: #ffffff; stroke: #7c8795; stroke-width: 1.4"/>
     <use xlink:href="#m8909029db0" x="362.110834" y="203.568798" style="fill: #ffffff; stroke: #7c8795; stroke-width: 1.4"/>
     <use xlink:href="#m8909029db0" x="312.893162" y="186.616305" style="fill: #ffffff; stroke: #7c8795; stroke-width: 1.4"/>
     <use xlink:href="#m8909029db0" x="291.304727" y="169.663812" style="fill: #ffffff; stroke: #7c8795; stroke-width: 1.4"/>
     <use xlink:href="#m8909029db0" x="262.947036" y="152.71132" style="fill: #ffffff; stroke: #7c8795; stroke-width: 1.4"/>
     <use xlink:href="#m8909029db0" x="321.563927" y="135.758827" style="fill: #ffffff; stroke: #7c8795; stroke-width: 1.4"/>
     <use xlink:href="#m8909029db0" x="284.558341" y="118.806334" style="fill: #ffffff; stroke: #7c8795; stroke-width: 1.4"/>
     <use xlink:href="#m8909029db0" x="239.676569" y="101.853842" style="fill: #ffffff; stroke: #7c8795; stroke-width: 1.4"/>
     <use xlink:href="#m8909029db0" x="352.895263" y="84.901349" style="fill: #ffffff; stroke: #7c8795; stroke-width: 1.4"/>
     <use xlink:href="#m8909029db0" x="353.57906" y="67.948856" style="fill: #ffffff; stroke: #7c8795; stroke-width: 1.4"/>
     <use xlink:href="#m8909029db0" x="328.216422" y="50.996364" style="fill: #ffffff; stroke: #7c8795; stroke-width: 1.4"/>
    </g>
   </g>
   <g id="PathCollection_2">
    <defs>
     <path id="mc9c5a80509" d="M -0 5.244044 
L 5.244044 0 
L 0 -5.244044 
L -5.244044 -0 
z
" style="stroke: #3f72c8"/>
    </defs>
    <g clip-path="url(#p609788d40a)">
     <use xlink:href="#mc9c5a80509" x="366.01715" y="576.523636" style="fill: #3f72c8; stroke: #3f72c8"/>
     <use xlink:href="#mc9c5a80509" x="297.512091" y="559.571144" style="fill: #3f72c8; stroke: #3f72c8"/>
     <use xlink:href="#mc9c5a80509" x="342.366837" y="542.618651" style="fill: #3f72c8; stroke: #3f72c8"/>
     <use xlink:href="#mc9c5a80509" x="350.010437" y="525.666158" style="fill: #3f72c8; stroke: #3f72c8"/>
     <use xlink:href="#mc9c5a80509" x="323.5697" y="508.713666" style="fill: #3f72c8; stroke: #3f72c8"/>
     <use xlink:href="#mc9c5a80509" x="315.989926" y="491.761173" style="fill: #3f72c8; stroke: #3f72c8"/>
     <use xlink:href="#mc9c5a80509" x="308.524998" y="474.80868" style="fill: #3f72c8; stroke: #3f72c8"/>
     <use xlink:href="#mc9c5a80509" x="349.480181" y="457.856188" style="fill: #3f72c8; stroke: #3f72c8"/>
     <use xlink:href="#mc9c5a80509" x="297.541778" y="440.903695" style="fill: #3f72c8; stroke: #3f72c8"/>
     <use xlink:href="#mc9c5a80509" x="354.950441" y="423.951202" style="fill: #3f72c8; stroke: #3f72c8"/>
     <use xlink:href="#mc9c5a80509" x="356.269165" y="406.99871" style="fill: #3f72c8; stroke: #3f72c8"/>
     <use xlink:href="#mc9c5a80509" x="347.633791" y="390.046217" style="fill: #3f72c8; stroke: #3f72c8"/>
     <use xlink:href="#mc9c5a80509" x="294.196882" y="373.093724" style="fill: #3f72c8; stroke: #3f72c8"/>
     <use xlink:href="#mc9c5a80509" x="337.577135" y="356.141232" style="fill: #3f72c8; stroke: #3f72c8"/>
     <use xlink:href="#mc9c5a80509" x="279.213917" y="339.188739" style="fill: #3f72c8; stroke: #3f72c8"/>
     <use xlink:href="#mc9c5a80509" x="322.399668" y="322.236246" style="fill: #3f72c8; stroke: #3f72c8"/>
     <use xlink:href="#mc9c5a80509" x="289.277685" y="305.283754" style="fill: #3f72c8; stroke: #3f72c8"/>
     <use xlink:href="#mc9c5a80509" x="314.119173" y="288.331261" style="fill: #3f72c8; stroke: #3f72c8"/>
     <use xlink:href="#mc9c5a80509" x="341.67162" y="271.378768" style="fill: #3f72c8; stroke: #3f72c8"/>
     <use xlink:href="#mc9c5a80509" x="292.660037" y="254.426276" style="fill: #3f72c8; stroke: #3f72c8"/>
     <use xlink:href="#mc9c5a80509" x="351.113583" y="237.473783" style="fill: #3f72c8; stroke: #3f72c8"/>
     <use xlink:href="#mc9c5a80509" x="326.77226" y="220.52129" style="fill: #3f72c8; stroke: #3f72c8"/>
     <use xlink:href="#mc9c5a80509" x="351.113583" y="203.568798" style="fill: #3f72c8; stroke: #3f72c8"/>
     <use xlink:href="#mc9c5a80509" x="315.064982" y="186.616305" style="fill: #3f72c8; stroke: #3f72c8"/>
     <use xlink:href="#mc9c5a80509" x="299.157714" y="169.663812" style="fill: #3f72c8; stroke: #3f72c8"/>
     <use xlink:href="#mc9c5a80509" x="277.680971" y="152.71132" style="fill: #3f72c8; stroke: #3f72c8"/>
     <use xlink:href="#mc9c5a80509" x="321.460754" y="135.758827" style="fill: #3f72c8; stroke: #3f72c8"/>
     <use xlink:href="#mc9c5a80509" x="293.269706" y="118.806334" style="fill: #3f72c8; stroke: #3f72c8"/>
     <use xlink:href="#mc9c5a80509" x="258.959293" y="101.853842" style="fill: #3f72c8; stroke: #3f72c8"/>
     <use xlink:href="#mc9c5a80509" x="345.679539" y="84.901349" style="fill: #3f72c8; stroke: #3f72c8"/>
     <use xlink:href="#mc9c5a80509" x="346.489883" y="67.948856" style="fill: #3f72c8; stroke: #3f72c8"/>
     <use xlink:href="#mc9c5a80509" x="326.670992" y="50.996364" style="fill: #3f72c8; stroke: #3f72c8"/>
    </g>
   </g>
   <g id="legend_1">
    <g id="PathCollection_3">
     <g>
      <use xlink:href="#m8909029db0" x="425.975078" y="566.198203" style="fill: #ffffff; stroke: #7c8795; stroke-width: 1.4"/>
     </g>
    </g>
    <g id="text_45">
     <!-- Raw share (before pooling) -->
     <g transform="translate(441.275078 568.429453) scale(0.085 -0.085)">
      <use xlink:href="#DejaVuSans-52"/>
      <use xlink:href="#DejaVuSans-61" transform="translate(67.232422 0)"/>
      <use xlink:href="#DejaVuSans-77" transform="translate(128.511719 0)"/>
      <use xlink:href="#DejaVuSans-20" transform="translate(210.298828 0)"/>
      <use xlink:href="#DejaVuSans-73" transform="translate(242.085938 0)"/>
      <use xlink:href="#DejaVuSans-68" transform="translate(294.185547 0)"/>
      <use xlink:href="#DejaVuSans-61" transform="translate(357.564453 0)"/>
      <use xlink:href="#DejaVuSans-72" transform="translate(418.84375 0)"/>
      <use xlink:href="#DejaVuSans-65" transform="translate(457.707031 0)"/>
      <use xlink:href="#DejaVuSans-20" transform="translate(519.230469 0)"/>
      <use xlink:href="#DejaVuSans-28" transform="translate(551.017578 0)"/>
      <use xlink:href="#DejaVuSans-62" transform="translate(590.03125 0)"/>
      <use xlink:href="#DejaVuSans-65" transform="translate(653.507812 0)"/>
      <use xlink:href="#DejaVuSans-66" transform="translate(715.03125 0)"/>
      <use xlink:href="#DejaVuSans-6f" transform="translate(750.236328 0)"/>
      <use xlink:href="#DejaVuSans-72" transform="translate(811.417969 0)"/>
      <use xlink:href="#DejaVuSans-65" transform="translate(850.28125 0)"/>
      <use xlink:href="#DejaVuSans-20" transform="translate(911.804688 0)"/>
      <use xlink:href="#DejaVuSans-70" transform="translate(943.591797 0)"/>
      <use xlink:href="#DejaVuSans-6f" transform="translate(1007.068359 0)"/>
      <use xlink:href="#DejaVuSans-6f" transform="translate(1068.25 0)"/>
      <use xlink:href="#DejaVuSans-6c" transform="translate(1129.431641 0)"/>
      <use xlink:href="#DejaVuSans-69" transform="translate(1157.214844 0)"/>
      <use xlink:href="#DejaVuSans-6e" transform="translate(1184.998047 0)"/>
      <use xlink:href="#DejaVuSans-67" transform="translate(1248.376953 0)"/>
      <use xlink:href="#DejaVuSans-29" transform="translate(1311.853516 0)"/>
     </g>
    </g>
    <g id="PathCollection_4">
     <g>
      <use xlink:href="#mc9c5a80509" x="425.975078" y="578.674609" style="fill: #3f72c8; stroke: #3f72c8"/>
     </g>
    </g>
    <g id="text_46">
     <!-- Pooled share (posterior) -->
     <g transform="translate(441.275078 580.905859) scale(0.085 -0.085)">
      <use xlink:href="#DejaVuSans-50"/>
      <use xlink:href="#DejaVuSans-6f" transform="translate(56.677734 0)"/>
      <use xlink:href="#DejaVuSans-6f" transform="translate(117.859375 0)"/>
      <use xlink:href="#DejaVuSans-6c" transform="translate(179.041016 0)"/>
      <use xlink:href="#DejaVuSans-65" transform="translate(206.824219 0)"/>
      <use xlink:href="#DejaVuSans-64" transform="translate(268.347656 0)"/>
      <use xlink:href="#DejaVuSans-20" transform="translate(331.824219 0)"/>
      <use xlink:href="#DejaVuSans-73" transform="translate(363.611328 0)"/>
      <use xlink:href="#DejaVuSans-68" transform="translate(415.710938 0)"/>
      <use xlink:href="#DejaVuSans-61" transform="translate(479.089844 0)"/>
      <use xlink:href="#DejaVuSans-72" transform="translate(540.369141 0)"/>
      <use xlink:href="#DejaVuSans-65" transform="translate(579.232422 0)"/>
      <use xlink:href="#DejaVuSans-20" transform="translate(640.755859 0)"/>
      <use xlink:href="#DejaVuSans-28" transform="translate(672.542969 0)"/>
      <use xlink:href="#DejaVuSans-70" transform="translate(711.556641 0)"/>
      <use xlink:href="#DejaVuSans-6f" transform="translate(775.033203 0)"/>
      <use xlink:href="#DejaVuSans-73" transform="translate(836.214844 0)"/>
      <use xlink:href="#DejaVuSans-74" transform="translate(888.314453 0)"/>
      <use xlink:href="#DejaVuSans-65" transform="translate(927.523438 0)"/>
      <use xlink:href="#DejaVuSans-72" transform="translate(989.046875 0)"/>
      <use xlink:href="#DejaVuSans-69" transform="translate(1030.160156 0)"/>
      <use xlink:href="#DejaVuSans-6f" transform="translate(1057.943359 0)"/>
      <use xlink:href="#DejaVuSans-72" transform="translate(1119.125 0)"/>
      <use xlink:href="#DejaVuSans-29" transform="translate(1160.238281 0)"/>
     </g>
    </g>
    <g id="line2d_75">
     <path d="M 417.475078 590.407266 
L 425.975078 590.407266 
L 434.475078 590.407266 
" style="fill: none; stroke-dasharray: 4.44,1.92; stroke-dashoffset: 0; stroke: #7c8795; stroke-width: 1.2"/>
    </g>
    <g id="text_47">
     <!-- National prior (81.9%) -->
     <g transform="translate(441.275078 593.382266) scale(0.085 -0.085)">
      <defs>
       <path id="DejaVuSans-4e" d="M 628 4666 
L 1478 4666 
L 3547 763 
L 3547 4666 
L 4159 4666 
L 4159 0 
L 3309 0 
L 1241 3903 
L 1241 0 
L 628 0 
L 628 4666 
z
" transform="scale(0.015625)"/>
       <path id="DejaVuSans-2e" d="M 684 794 
L 1344 794 
L 1344 0 
L 684 0 
L 684 794 
z
" transform="scale(0.015625)"/>
      </defs>
      <use xlink:href="#DejaVuSans-4e"/>
      <use xlink:href="#DejaVuSans-61" transform="translate(74.804688 0)"/>
      <use xlink:href="#DejaVuSans-74" transform="translate(136.083984 0)"/>
      <use xlink:href="#DejaVuSans-69" transform="translate(175.292969 0)"/>
      <use xlink:href="#DejaVuSans-6f" transform="translate(203.076172 0)"/>
      <use xlink:href="#DejaVuSans-6e" transform="translate(264.257812 0)"/>
      <use xlink:href="#DejaVuSans-61" transform="translate(327.636719 0)"/>
      <use xlink:href="#DejaVuSans-6c" transform="translate(388.916016 0)"/>
      <use xlink:href="#DejaVuSans-20" transform="translate(416.699219 0)"/>
      <use xlink:href="#DejaVuSans-70" transform="translate(448.486328 0)"/>
      <use xlink:href="#DejaVuSans-72" transform="translate(511.962891 0)"/>
      <use xlink:href="#DejaVuSans-69" transform="translate(553.076172 0)"/>
      <use xlink:href="#DejaVuSans-6f" transform="translate(580.859375 0)"/>
      <use xlink:href="#DejaVuSans-72" transform="translate(642.041016 0)"/>
      <use xlink:href="#DejaVuSans-20" transform="translate(683.154297 0)"/>
      <use xlink:href="#DejaVuSans-28" transform="translate(714.941406 0)"/>
      <use xlink:href="#DejaVuSans-38" transform="translate(753.955078 0)"/>
      <use xlink:href="#DejaVuSans-31" transform="translate(817.578125 0)"/>
      <use xlink:href="#DejaVuSans-2e" transform="translate(881.201172 0)"/>
      <use xlink:href="#DejaVuSans-39" transform="translate(912.988281 0)"/>
      <use xlink:href="#DejaVuSans-25" transform="translate(976.611328 0)"/>
      <use xlink:href="#DejaVuSans-29" transform="translate(1071.630859 0)"/>
     </g>
    </g>
   </g>
  </g>
  <g id="text_48">
   <!-- Partial Pooling: Small Cells Shrink More Toward the 81.9% National Prior -->
   <g transform="translate(64.025219 15.406312) scale(0.108 -0.108)">
    <defs>
     <path id="DejaVuSans-Bold-50" d="M 588 4666 
L 2584 4666 
Q 3475 4666 3951 4270 
Q 4428 3875 4428 3144 
Q 4428 2409 3951 2014 
Q 3475 1619 2584 1619 
L 1791 1619 
L 1791 0 
L 588 0 
L 588 4666 
z
M 1791 3794 
L 1791 2491 
L 2456 2491 
Q 2806 2491 2997 2661 
Q 3188 2831 3188 3144 
Q 3188 3456 2997 3625 
Q 2806 3794 2456 3794 
L 1791 3794 
z
" transform="scale(0.015625)"/>
     <path id="DejaVuSans-Bold-61" d="M 2106 1575 
Q 1756 1575 1579 1456 
Q 1403 1338 1403 1106 
Q 1403 894 1545 773 
Q 1688 653 1941 653 
Q 2256 653 2472 879 
Q 2688 1106 2688 1447 
L 2688 1575 
L 2106 1575 
z
M 3816 1997 
L 3816 0 
L 2688 0 
L 2688 519 
Q 2463 200 2181 54 
Q 1900 -91 1497 -91 
Q 953 -91 614 226 
Q 275 544 275 1050 
Q 275 1666 698 1953 
Q 1122 2241 2028 2241 
L 2688 2241 
L 2688 2328 
Q 2688 2594 2478 2717 
Q 2269 2841 1825 2841 
Q 1466 2841 1156 2769 
Q 847 2697 581 2553 
L 581 3406 
Q 941 3494 1303 3539 
Q 1666 3584 2028 3584 
Q 2975 3584 3395 3211 
Q 3816 2838 3816 1997 
z
" transform="scale(0.015625)"/>
     <path id="DejaVuSans-Bold-72" d="M 3138 2547 
Q 2991 2616 2845 2648 
Q 2700 2681 2553 2681 
Q 2122 2681 1889 2404 
Q 1656 2128 1656 1613 
L 1656 0 
L 538 0 
L 538 3500 
L 1656 3500 
L 1656 2925 
Q 1872 3269 2151 3426 
Q 2431 3584 2822 3584 
Q 2878 3584 2943 3579 
Q 3009 3575 3134 3559 
L 3138 2547 
z
" transform="scale(0.015625)"/>
     <path id="DejaVuSans-Bold-74" d="M 1759 4494 
L 1759 3500 
L 2913 3500 
L 2913 2700 
L 1759 2700 
L 1759 1216 
Q 1759 972 1856 886 
Q 1953 800 2241 800 
L 2816 800 
L 2816 0 
L 1856 0 
Q 1194 0 917 276 
Q 641 553 641 1216 
L 641 2700 
L 84 2700 
L 84 3500 
L 641 3500 
L 641 4494 
L 1759 4494 
z
" transform="scale(0.015625)"/>
     <path id="DejaVuSans-Bold-69" d="M 538 3500 
L 1656 3500 
L 1656 0 
L 538 0 
L 538 3500 
z
M 538 4863 
L 1656 4863 
L 1656 3950 
L 538 3950 
L 538 4863 
z
" transform="scale(0.015625)"/>
     <path id="DejaVuSans-Bold-6c" d="M 538 4863 
L 1656 4863 
L 1656 0 
L 538 0 
L 538 4863 
z
" transform="scale(0.015625)"/>
     <path id="DejaVuSans-Bold-20" transform="scale(0.015625)"/>
     <path id="DejaVuSans-Bold-6f" d="M 2203 2784 
Q 1831 2784 1636 2517 
Q 1441 2250 1441 1747 
Q 1441 1244 1636 976 
Q 1831 709 2203 709 
Q 2569 709 2762 976 
Q 2956 1244 2956 1747 
Q 2956 2250 2762 2517 
Q 2569 2784 2203 2784 
z
M 2203 3584 
Q 3106 3584 3614 3096 
Q 4122 2609 4122 1747 
Q 4122 884 3614 396 
Q 3106 -91 2203 -91 
Q 1297 -91 786 396 
Q 275 884 275 1747 
Q 275 2609 786 3096 
Q 1297 3584 2203 3584 
z
" transform="scale(0.015625)"/>
     <path id="DejaVuSans-Bold-6e" d="M 4056 2131 
L 4056 0 
L 2931 0 
L 2931 347 
L 2931 1631 
Q 2931 2084 2911 2256 
Q 2891 2428 2841 2509 
Q 2775 2619 2662 2680 
Q 2550 2741 2406 2741 
Q 2056 2741 1856 2470 
Q 1656 2200 1656 1722 
L 1656 0 
L 538 0 
L 538 3500 
L 1656 3500 
L 1656 2988 
Q 1909 3294 2193 3439 
Q 2478 3584 2822 3584 
Q 3428 3584 3742 3212 
Q 4056 2841 4056 2131 
z
" transform="scale(0.015625)"/>
     <path id="DejaVuSans-Bold-67" d="M 2919 594 
Q 2688 288 2409 144 
Q 2131 0 1766 0 
Q 1125 0 706 504 
Q 288 1009 288 1791 
Q 288 2575 706 3076 
Q 1125 3578 1766 3578 
Q 2131 3578 2409 3434 
Q 2688 3291 2919 2981 
L 2919 3500 
L 4044 3500 
L 4044 353 
Q 4044 -491 3511 -936 
Q 2978 -1381 1966 -1381 
Q 1638 -1381 1331 -1331 
Q 1025 -1281 716 -1178 
L 716 -306 
Q 1009 -475 1290 -558 
Q 1572 -641 1856 -641 
Q 2406 -641 2662 -400 
Q 2919 -159 2919 353 
L 2919 594 
z
M 2181 2772 
Q 1834 2772 1640 2515 
Q 1447 2259 1447 1791 
Q 1447 1309 1634 1061 
Q 1822 813 2181 813 
Q 2531 813 2725 1069 
Q 2919 1325 2919 1791 
Q 2919 2259 2725 2515 
Q 2531 2772 2181 2772 
z
" transform="scale(0.015625)"/>
     <path id="DejaVuSans-Bold-3a" d="M 716 3500 
L 1844 3500 
L 1844 2291 
L 716 2291 
L 716 3500 
z
M 716 1209 
L 1844 1209 
L 1844 0 
L 716 0 
L 716 1209 
z
" transform="scale(0.015625)"/>
     <path id="DejaVuSans-Bold-53" d="M 3834 4519 
L 3834 3531 
Q 3450 3703 3084 3790 
Q 2719 3878 2394 3878 
Q 1963 3878 1756 3759 
Q 1550 3641 1550 3391 
Q 1550 3203 1689 3098 
Q 1828 2994 2194 2919 
L 2706 2816 
Q 3484 2659 3812 2340 
Q 4141 2022 4141 1434 
Q 4141 663 3683 286 
Q 3225 -91 2284 -91 
Q 1841 -91 1394 -6 
Q 947 78 500 244 
L 500 1259 
Q 947 1022 1364 901 
Q 1781 781 2169 781 
Q 2563 781 2772 912 
Q 2981 1044 2981 1288 
Q 2981 1506 2839 1625 
Q 2697 1744 2272 1838 
L 1806 1941 
Q 1106 2091 782 2419 
Q 459 2747 459 3303 
Q 459 4000 909 4375 
Q 1359 4750 2203 4750 
Q 2588 4750 2994 4692 
Q 3400 4634 3834 4519 
z
" transform="scale(0.015625)"/>
     <path id="DejaVuSans-Bold-6d" d="M 3781 2919 
Q 3994 3244 4286 3414 
Q 4578 3584 4928 3584 
Q 5531 3584 5847 3212 
Q 6163 2841 6163 2131 
L 6163 0 
L 5038 0 
L 5038 1825 
Q 5041 1866 5042 1909 
Q 5044 1953 5044 2034 
Q 5044 2406 4934 2573 
Q 4825 2741 4581 2741 
Q 4263 2741 4089 2478 
Q 3916 2216 3909 1719 
L 3909 0 
L 2784 0 
L 2784 1825 
Q 2784 2406 2684 2573 
Q 2584 2741 2328 2741 
Q 2006 2741 1831 2477 
Q 1656 2213 1656 1722 
L 1656 0 
L 531 0 
L 531 3500 
L 1656 3500 
L 1656 2988 
Q 1863 3284 2130 3434 
Q 2397 3584 2719 3584 
Q 3081 3584 3359 3409 
Q 3638 3234 3781 2919 
z
" transform="scale(0.015625)"/>
     <path id="DejaVuSans-Bold-43" d="M 4288 256 
Q 3956 84 3597 -3 
Q 3238 -91 2847 -91 
Q 1681 -91 1000 561 
Q 319 1213 319 2328 
Q 319 3447 1000 4098 
Q 1681 4750 2847 4750 
Q 3238 4750 3597 4662 
Q 3956 4575 4288 4403 
L 4288 3438 
Q 3953 3666 3628 3772 
Q 3303 3878 2944 3878 
Q 2300 3878 1931 3465 
Q 1563 3053 1563 2328 
Q 1563 1606 1931 1193 
Q 2300 781 2944 781 
Q 3303 781 3628 887 
Q 3953 994 4288 1222 
L 4288 256 
z
" transform="scale(0.015625)"/>
     <path id="DejaVuSans-Bold-65" d="M 4031 1759 
L 4031 1441 
L 1416 1441 
Q 1456 1047 1700 850 
Q 1944 653 2381 653 
Q 2734 653 3104 758 
Q 3475 863 3866 1075 
L 3866 213 
Q 3469 63 3072 -14 
Q 2675 -91 2278 -91 
Q 1328 -91 801 392 
Q 275 875 275 1747 
Q 275 2603 792 3093 
Q 1309 3584 2216 3584 
Q 3041 3584 3536 3087 
Q 4031 2591 4031 1759 
z
M 2881 2131 
Q 2881 2450 2695 2645 
Q 2509 2841 2209 2841 
Q 1884 2841 1681 2658 
Q 1478 2475 1428 2131 
L 2881 2131 
z
" transform="scale(0.015625)"/>
     <path id="DejaVuSans-Bold-73" d="M 3272 3391 
L 3272 2541 
Q 2913 2691 2578 2766 
Q 2244 2841 1947 2841 
Q 1628 2841 1473 2761 
Q 1319 2681 1319 2516 
Q 1319 2381 1436 2309 
Q 1553 2238 1856 2203 
L 2053 2175 
Q 2913 2066 3209 1816 
Q 3506 1566 3506 1031 
Q 3506 472 3093 190 
Q 2681 -91 1863 -91 
Q 1516 -91 1145 -36 
Q 775 19 384 128 
L 384 978 
Q 719 816 1070 734 
Q 1422 653 1784 653 
Q 2113 653 2278 743 
Q 2444 834 2444 1013 
Q 2444 1163 2330 1236 
Q 2216 1309 1875 1350 
L 1678 1375 
Q 931 1469 631 1722 
Q 331 1975 331 2491 
Q 331 3047 712 3315 
Q 1094 3584 1881 3584 
Q 2191 3584 2531 3537 
Q 2872 3491 3272 3391 
z
" transform="scale(0.015625)"/>
     <path id="DejaVuSans-Bold-68" d="M 4056 2131 
L 4056 0 
L 2931 0 
L 2931 347 
L 2931 1625 
Q 2931 2084 2911 2256 
Q 2891 2428 2841 2509 
Q 2775 2619 2662 2680 
Q 2550 2741 2406 2741 
Q 2056 2741 1856 2470 
Q 1656 2200 1656 1722 
L 1656 0 
L 538 0 
L 538 4863 
L 1656 4863 
L 1656 2988 
Q 1909 3294 2193 3439 
Q 2478 3584 2822 3584 
Q 3428 3584 3742 3212 
Q 4056 2841 4056 2131 
z
" transform="scale(0.015625)"/>
     <path id="DejaVuSans-Bold-6b" d="M 538 4863 
L 1656 4863 
L 1656 2216 
L 2944 3500 
L 4244 3500 
L 2534 1894 
L 4378 0 
L 3022 0 
L 1656 1459 
L 1656 0 
L 538 0 
L 538 4863 
z
" transform="scale(0.015625)"/>
     <path id="DejaVuSans-Bold-4d" d="M 588 4666 
L 2119 4666 
L 3181 2169 
L 4250 4666 
L 5778 4666 
L 5778 0 
L 4641 0 
L 4641 3413 
L 3566 897 
L 2803 897 
L 1728 3413 
L 1728 0 
L 588 0 
L 588 4666 
z
" transform="scale(0.015625)"/>
     <path id="DejaVuSans-Bold-54" d="M 31 4666 
L 4331 4666 
L 4331 3756 
L 2784 3756 
L 2784 0 
L 1581 0 
L 1581 3756 
L 31 3756 
L 31 4666 
z
" transform="scale(0.015625)"/>
     <path id="DejaVuSans-Bold-77" d="M 225 3500 
L 1313 3500 
L 1900 1088 
L 2491 3500 
L 3425 3500 
L 4013 1113 
L 4603 3500 
L 5691 3500 
L 4769 0 
L 3547 0 
L 2956 2406 
L 2369 0 
L 1147 0 
L 225 3500 
z
" transform="scale(0.015625)"/>
     <path id="DejaVuSans-Bold-64" d="M 2919 2988 
L 2919 4863 
L 4044 4863 
L 4044 0 
L 2919 0 
L 2919 506 
Q 2688 197 2409 53 
Q 2131 -91 1766 -91 
Q 1119 -91 703 423 
Q 288 938 288 1747 
Q 288 2556 703 3070 
Q 1119 3584 1766 3584 
Q 2128 3584 2408 3439 
Q 2688 3294 2919 2988 
z
M 2181 722 
Q 2541 722 2730 984 
Q 2919 1247 2919 1747 
Q 2919 2247 2730 2509 
Q 2541 2772 2181 2772 
Q 1825 2772 1636 2509 
Q 1447 2247 1447 1747 
Q 1447 1247 1636 984 
Q 1825 722 2181 722 
z
" transform="scale(0.015625)"/>
     <path id="DejaVuSans-Bold-38" d="M 2228 2088 
Q 1891 2088 1709 1903 
Q 1528 1719 1528 1375 
Q 1528 1031 1709 848 
Q 1891 666 2228 666 
Q 2563 666 2741 848 
Q 2919 1031 2919 1375 
Q 2919 1722 2741 1905 
Q 2563 2088 2228 2088 
z
M 1350 2484 
Q 925 2613 709 2878 
Q 494 3144 494 3541 
Q 494 4131 934 4440 
Q 1375 4750 2228 4750 
Q 3075 4750 3515 4442 
Q 3956 4134 3956 3541 
Q 3956 3144 3739 2878 
Q 3522 2613 3097 2484 
Q 3572 2353 3814 2058 
Q 4056 1763 4056 1313 
Q 4056 619 3595 264 
Q 3134 -91 2228 -91 
Q 1319 -91 855 264 
Q 391 619 391 1313 
Q 391 1763 633 2058 
Q 875 2353 1350 2484 
z
M 1631 3419 
Q 1631 3141 1786 2991 
Q 1941 2841 2228 2841 
Q 2509 2841 2662 2991 
Q 2816 3141 2816 3419 
Q 2816 3697 2662 3845 
Q 2509 3994 2228 3994 
Q 1941 3994 1786 3844 
Q 1631 3694 1631 3419 
z
" transform="scale(0.015625)"/>
     <path id="DejaVuSans-Bold-31" d="M 750 831 
L 1813 831 
L 1813 3847 
L 722 3622 
L 722 4441 
L 1806 4666 
L 2950 4666 
L 2950 831 
L 4013 831 
L 4013 0 
L 750 0 
L 750 831 
z
" transform="scale(0.015625)"/>
     <path id="DejaVuSans-Bold-2e" d="M 653 1209 
L 1778 1209 
L 1778 0 
L 653 0 
L 653 1209 
z
" transform="scale(0.015625)"/>
     <path id="DejaVuSans-Bold-39" d="M 641 103 
L 641 966 
Q 928 831 1190 764 
Q 1453 697 1709 697 
Q 2247 697 2547 995 
Q 2847 1294 2900 1881 
Q 2688 1725 2447 1647 
Q 2206 1569 1925 1569 
Q 1209 1569 770 1986 
Q 331 2403 331 3084 
Q 331 3838 820 4291 
Q 1309 4744 2131 4744 
Q 3044 4744 3544 4128 
Q 4044 3513 4044 2388 
Q 4044 1231 3459 570 
Q 2875 -91 1856 -91 
Q 1528 -91 1228 -42 
Q 928 6 641 103 
z
M 2125 2350 
Q 2441 2350 2600 2554 
Q 2759 2759 2759 3169 
Q 2759 3575 2600 3781 
Q 2441 3988 2125 3988 
Q 1809 3988 1650 3781 
Q 1491 3575 1491 3169 
Q 1491 2759 1650 2554 
Q 1809 2350 2125 2350 
z
" transform="scale(0.015625)"/>
     <path id="DejaVuSans-Bold-25" d="M 4959 1925 
Q 4738 1925 4616 1733 
Q 4494 1541 4494 1184 
Q 4494 825 4614 633 
Q 4734 441 4959 441 
Q 5184 441 5303 633 
Q 5422 825 5422 1184 
Q 5422 1541 5301 1733 
Q 5181 1925 4959 1925 
z
M 4959 2450 
Q 5541 2450 5875 2112 
Q 6209 1775 6209 1184 
Q 6209 594 5875 251 
Q 5541 -91 4959 -91 
Q 4378 -91 4042 251 
Q 3706 594 3706 1184 
Q 3706 1772 4042 2111 
Q 4378 2450 4959 2450 
z
M 2094 -91 
L 1403 -91 
L 4319 4750 
L 5013 4750 
L 2094 -91 
z
M 1453 4750 
Q 2034 4750 2367 4411 
Q 2700 4072 2700 3481 
Q 2700 2891 2367 2550 
Q 2034 2209 1453 2209 
Q 872 2209 539 2550 
Q 206 2891 206 3481 
Q 206 4072 539 4411 
Q 872 4750 1453 4750 
z
M 1453 4225 
Q 1228 4225 1106 4031 
Q 984 3838 984 3481 
Q 984 3122 1106 2926 
Q 1228 2731 1453 2731 
Q 1678 2731 1798 2926 
Q 1919 3122 1919 3481 
Q 1919 3838 1797 4031 
Q 1675 4225 1453 4225 
z
" transform="scale(0.015625)"/>
     <path id="DejaVuSans-Bold-4e" d="M 588 4666 
L 1931 4666 
L 3628 1466 
L 3628 4666 
L 4769 4666 
L 4769 0 
L 3425 0 
L 1728 3200 
L 1728 0 
L 588 0 
L 588 4666 
z
" transform="scale(0.015625)"/>
    </defs>
    <use xlink:href="#DejaVuSans-Bold-50"/>
    <use xlink:href="#DejaVuSans-Bold-61" transform="translate(70.666016 0)"/>
    <use xlink:href="#DejaVuSans-Bold-72" transform="translate(138.146484 0)"/>
    <use xlink:href="#DejaVuSans-Bold-74" transform="translate(187.462891 0)"/>
    <use xlink:href="#DejaVuSans-Bold-69" transform="translate(235.265625 0)"/>
    <use xlink:href="#DejaVuSans-Bold-61" transform="translate(269.542969 0)"/>
    <use xlink:href="#DejaVuSans-Bold-6c" transform="translate(337.023438 0)"/>
    <use xlink:href="#DejaVuSans-Bold-20" transform="translate(371.300781 0)"/>
    <use xlink:href="#DejaVuSans-Bold-50" transform="translate(406.115234 0)"/>
    <use xlink:href="#DejaVuSans-Bold-6f" transform="translate(479.40625 0)"/>
    <use xlink:href="#DejaVuSans-Bold-6f" transform="translate(548.107422 0)"/>
    <use xlink:href="#DejaVuSans-Bold-6c" transform="translate(616.808594 0)"/>
    <use xlink:href="#DejaVuSans-Bold-69" transform="translate(651.085938 0)"/>
    <use xlink:href="#DejaVuSans-Bold-6e" transform="translate(685.363281 0)"/>
    <use xlink:href="#DejaVuSans-Bold-67" transform="translate(756.554688 0)"/>
    <use xlink:href="#DejaVuSans-Bold-3a" transform="translate(828.136719 0)"/>
    <use xlink:href="#DejaVuSans-Bold-20" transform="translate(868.126953 0)"/>
    <use xlink:href="#DejaVuSans-Bold-53" transform="translate(902.941406 0)"/>
    <use xlink:href="#DejaVuSans-Bold-6d" transform="translate(974.962891 0)"/>
    <use xlink:href="#DejaVuSans-Bold-61" transform="translate(1079.162109 0)"/>
    <use xlink:href="#DejaVuSans-Bold-6c" transform="translate(1146.642578 0)"/>
    <use xlink:href="#DejaVuSans-Bold-6c" transform="translate(1180.919922 0)"/>
    <use xlink:href="#DejaVuSans-Bold-20" transform="translate(1215.197266 0)"/>
    <use xlink:href="#DejaVuSans-Bold-43" transform="translate(1250.011719 0)"/>
    <use xlink:href="#DejaVuSans-Bold-65" transform="translate(1323.400391 0)"/>
    <use xlink:href="#DejaVuSans-Bold-6c" transform="translate(1391.222656 0)"/>
    <use xlink:href="#DejaVuSans-Bold-6c" transform="translate(1425.5 0)"/>
    <use xlink:href="#DejaVuSans-Bold-73" transform="translate(1459.777344 0)"/>
    <use xlink:href="#DejaVuSans-Bold-20" transform="translate(1519.298828 0)"/>
    <use xlink:href="#DejaVuSans-Bold-53" transform="translate(1554.113281 0)"/>
    <use xlink:href="#DejaVuSans-Bold-68" transform="translate(1626.134766 0)"/>
    <use xlink:href="#DejaVuSans-Bold-72" transform="translate(1697.326172 0)"/>
    <use xlink:href="#DejaVuSans-Bold-69" transform="translate(1746.642578 0)"/>
    <use xlink:href="#DejaVuSans-Bold-6e" transform="translate(1780.919922 0)"/>
    <use xlink:href="#DejaVuSans-Bold-6b" transform="translate(1852.111328 0)"/>
    <use xlink:href="#DejaVuSans-Bold-20" transform="translate(1918.615234 0)"/>
    <use xlink:href="#DejaVuSans-Bold-4d" transform="translate(1953.429688 0)"/>
    <use xlink:href="#DejaVuSans-Bold-6f" transform="translate(2052.941406 0)"/>
    <use xlink:href="#DejaVuSans-Bold-72" transform="translate(2121.642578 0)"/>
    <use xlink:href="#DejaVuSans-Bold-65" transform="translate(2170.958984 0)"/>
    <use xlink:href="#DejaVuSans-Bold-20" transform="translate(2238.78125 0)"/>
    <use xlink:href="#DejaVuSans-Bold-54" transform="translate(2273.595703 0)"/>
    <use xlink:href="#DejaVuSans-Bold-6f" transform="translate(2328.558594 0)"/>
    <use xlink:href="#DejaVuSans-Bold-77" transform="translate(2397.259766 0)"/>
    <use xlink:href="#DejaVuSans-Bold-61" transform="translate(2489.642578 0)"/>
    <use xlink:href="#DejaVuSans-Bold-72" transform="translate(2557.123047 0)"/>
    <use xlink:href="#DejaVuSans-Bold-64" transform="translate(2606.439453 0)"/>
    <use xlink:href="#DejaVuSans-Bold-20" transform="translate(2678.021484 0)"/>
    <use xlink:href="#DejaVuSans-Bold-74" transform="translate(2712.835938 0)"/>
    <use xlink:href="#DejaVuSans-Bold-68" transform="translate(2760.638672 0)"/>
    <use xlink:href="#DejaVuSans-Bold-65" transform="translate(2831.830078 0)"/>
    <use xlink:href="#DejaVuSans-Bold-20" transform="translate(2899.652344 0)"/>
    <use xlink:href="#DejaVuSans-Bold-38" transform="translate(2934.466797 0)"/>
    <use xlink:href="#DejaVuSans-Bold-31" transform="translate(3004.046875 0)"/>
    <use xlink:href="#DejaVuSans-Bold-2e" transform="translate(3073.626953 0)"/>
    <use xlink:href="#DejaVuSans-Bold-39" transform="translate(3111.615234 0)"/>
    <use xlink:href="#DejaVuSans-Bold-25" transform="translate(3181.195312 0)"/>
    <use xlink:href="#DejaVuSans-Bold-20" transform="translate(3281.390625 0)"/>
    <use xlink:href="#DejaVuSans-Bold-4e" transform="translate(3316.205078 0)"/>
    <use xlink:href="#DejaVuSans-Bold-61" transform="translate(3399.896484 0)"/>
    <use xlink:href="#DejaVuSans-Bold-74" transform="translate(3467.376953 0)"/>
    <use xlink:href="#DejaVuSans-Bold-69" transform="translate(3515.179688 0)"/>
    <use xlink:href="#DejaVuSans-Bold-6f" transform="translate(3549.457031 0)"/>
    <use xlink:href="#DejaVuSans-Bold-6e" transform="translate(3618.158203 0)"/>
    <use xlink:href="#DejaVuSans-Bold-61" transform="translate(3689.349609 0)"/>
    <use xlink:href="#DejaVuSans-Bold-6c" transform="translate(3756.830078 0)"/>
    <use xlink:href="#DejaVuSans-Bold-20" transform="translate(3791.107422 0)"/>
    <use xlink:href="#DejaVuSans-Bold-50" transform="translate(3825.921875 0)"/>
    <use xlink:href="#DejaVuSans-Bold-72" transform="translate(3899.212891 0)"/>
    <use xlink:href="#DejaVuSans-Bold-69" transform="translate(3948.529297 0)"/>
    <use xlink:href="#DejaVuSans-Bold-6f" transform="translate(3982.806641 0)"/>
    <use xlink:href="#DejaVuSans-Bold-72" transform="translate(4051.507812 0)"/>
   </g>
  </g>
 </g>
 <defs>
  <clipPath id="p609788d40a">
   <rect x="55.990781" y="24.72" width="507.76" height="578.08"/>
  </clipPath>
 </defs>
</svg>
