<svg version="1.1" xmlns="http://www.w3.org/2000/svg" viewBox="0 0 426.2791060111524 652.9098079841483" width="426.2791060111524" height="652.9098079841483">
  <!-- svg-source:excalidraw -->
  
  <defs>
    <style class="style-fonts">
      
    </style>
    
  </defs>
  <g stroke-linecap="round" transform="translate(82.4765625 10) rotate(0 165.51953125 67.19140625)"><path d="M32 0 C97.27 0, 162.55 0, 299.04 0 C320.37 0, 331.04 10.67, 331.04 32 C331.04 55.36, 331.04 78.72, 331.04 102.38 C331.04 123.72, 320.37 134.38, 299.04 134.38 C238.09 134.38, 177.14 134.38, 32 134.38 C10.67 134.38, 0 123.72, 0 102.38 C0 76.32, 0 50.26, 0 32 C0 10.67, 10.67 0, 32 0" stroke="none" stroke-width="0" fill="#D8EAF5"></path><path d="M32 0 C86.61 0, 141.22 0, 299.04 0 M32 0 C88.02 0, 144.05 0, 299.04 0 M299.04 0 C320.37 0, 331.04 10.67, 331.04 32 M299.04 0 C320.37 0, 331.04 10.67, 331.04 32 M331.04 32 C331.04 56.97, 331.04 81.95, 331.04 102.38 M331.04 32 C331.04 52.45, 331.04 72.91, 331.04 102.38 M331.04 102.38 C331.04 123.72, 320.37 134.38, 299.04 134.38 M331.04 102.38 C331.04 123.72, 320.37 134.38, 299.04 134.38 M299.04 134.38 C213.72 134.38, 128.4 134.38, 32 134.38 M299.04 134.38 C227.53 134.38, 156.02 134.38, 32 134.38 M32 134.38 C10.67 134.38, 0 123.72, 0 102.38 M32 134.38 C10.67 134.38, 0 123.72, 0 102.38 M0 102.38 C0 83.4, 0 64.41, 0 32 M0 102.38 C0 85.07, 0 67.77, 0 32 M0 32 C0 10.67, 10.67 0, 32 0 M0 32 C0 10.67, 10.67 0, 32 0" stroke="#4F86A6" stroke-width="2" fill="none"></path></g><g stroke-linecap="round"><g transform="translate(249.03732624402858 149.49948827616777) rotate(0 0.057851196716399045 17.01636030819455)"><path d="M0 0 C0.02 6.96, 0.05 13.92, 0.12 34.03 M0 0 C0.04 12.04, 0.08 24.08, 0.12 34.03" stroke="#344054" stroke-width="2" fill="none"></path></g><g transform="translate(249.03732624402858 149.49948827616777) rotate(0 0.057851196716399045 17.01636030819455)"><path d="M0.12 34.03 L-6.27 20.46 L6.41 20.42 L0.12 34.03" stroke="none" stroke-width="0" fill="#344054" fill-rule="evenodd"></path><path d="M0.12 34.03 C-1.19 31.26, -2.5 28.48, -6.27 20.46 M0.12 34.03 C-2.14 29.23, -4.4 24.43, -6.27 20.46 M-6.27 20.46 C-2.35 20.45, 1.57 20.43, 6.41 20.42 M-6.27 20.46 C-1.73 20.44, 2.81 20.43, 6.41 20.42 M6.41 20.42 C4.39 24.78, 2.38 29.14, 0.12 34.03 M6.41 20.42 C4.43 24.69, 2.46 28.96, 0.12 34.03 M0.12 34.03 C0.12 34.03, 0.12 34.03, 0.12 34.03 M0.12 34.03 C0.12 34.03, 0.12 34.03, 0.12 34.03" stroke="#344054" stroke-width="2" fill="none"></path></g></g><mask></mask><g stroke-linecap="round" transform="translate(80.98046875 190.82421875) rotate(0 167.015625 62.8515625)"><path d="M31.43 0 C113.97 0, 196.52 0, 302.61 0 C323.56 0, 334.03 10.48, 334.03 31.43 C334.03 50.78, 334.03 70.14, 334.03 94.28 C334.03 115.23, 323.56 125.7, 302.61 125.7 C239.01 125.7, 175.42 125.7, 31.43 125.7 C10.48 125.7, 0 115.23, 0 94.28 C0 75.42, 0 56.57, 0 31.43 C0 10.48, 10.48 0, 31.43 0" stroke="none" stroke-width="0" fill="#F8E2A8"></path><path d="M31.43 0 C86.89 0, 142.35 0, 302.61 0 M31.43 0 C92.65 0, 153.88 0, 302.61 0 M302.61 0 C323.56 0, 334.03 10.48, 334.03 31.43 M302.61 0 C323.56 0, 334.03 10.48, 334.03 31.43 M334.03 31.43 C334.03 44.46, 334.03 57.49, 334.03 94.28 M334.03 31.43 C334.03 47.71, 334.03 64, 334.03 94.28 M334.03 94.28 C334.03 115.23, 323.56 125.7, 302.61 125.7 M334.03 94.28 C334.03 115.23, 323.56 125.7, 302.61 125.7 M302.61 125.7 C203.22 125.7, 103.82 125.7, 31.43 125.7 M302.61 125.7 C217.12 125.7, 131.63 125.7, 31.43 125.7 M31.43 125.7 C10.48 125.7, 0 115.23, 0 94.28 M31.43 125.7 C10.48 125.7, 0 115.23, 0 94.28 M0 94.28 C0 73.53, 0 52.77, 0 31.43 M0 94.28 C0 76.98, 0 59.69, 0 31.43 M0 31.43 C0 10.48, 10.48 0, 31.43 0 M0 31.43 C0 10.48, 10.48 0, 31.43 0" stroke="#A66E12" stroke-width="2" fill="none"></path></g><g stroke-linecap="round" transform="translate(80.390625 360.25390625) rotate(0 166.83984375 56.873046875)"><path d="M28.44 0 C129.29 0, 230.14 0, 305.24 0 C324.2 0, 333.68 9.48, 333.68 28.44 C333.68 44.59, 333.68 60.75, 333.68 85.31 C333.68 104.27, 324.2 113.75, 305.24 113.75 C238.59 113.75, 171.95 113.75, 28.44 113.75 C9.48 113.75, 0 104.27, 0 85.31 C0 72.24, 0 59.18, 0 28.44 C0 9.48, 9.48 0, 28.44 0" stroke="none" stroke-width="0" fill="#F6D2CC"></path><path d="M28.44 0 C85.05 0, 141.67 0, 305.24 0 M28.44 0 C95.36 0, 162.28 0, 305.24 0 M305.24 0 C324.2 0, 333.68 9.48, 333.68 28.44 M305.24 0 C324.2 0, 333.68 9.48, 333.68 28.44 M333.68 28.44 C333.68 43.21, 333.68 57.99, 333.68 85.31 M333.68 28.44 C333.68 41.39, 333.68 54.34, 333.68 85.31 M333.68 85.31 C333.68 104.27, 324.2 113.75, 305.24 113.75 M333.68 85.31 C333.68 104.27, 324.2 113.75, 305.24 113.75 M305.24 113.75 C246.14 113.75, 187.03 113.75, 28.44 113.75 M305.24 113.75 C204.84 113.75, 104.44 113.75, 28.44 113.75 M28.44 113.75 C9.48 113.75, 0 104.27, 0 85.31 M28.44 113.75 C9.48 113.75, 0 104.27, 0 85.31 M0 85.31 C0 63.09, 0 40.88, 0 28.44 M0 85.31 C0 68, 0 50.68, 0 28.44 M0 28.44 C0 9.48, 9.48 0, 28.44 0 M0 28.44 C0 9.48, 9.48 0, 28.44 0" stroke="#A44A3F" stroke-width="2" fill="none"></path></g><g stroke-linecap="round" transform="translate(81.13457476115241 524.9371517341483) rotate(0 167.572265625 58.986328125)"><path d="M29.49 0 C91.44 0, 153.38 0, 305.65 0 C325.31 0, 335.14 9.83, 335.14 29.49 C335.14 44.84, 335.14 60.18, 335.14 88.48 C335.14 108.14, 325.31 117.97, 305.65 117.97 C237.43 117.97, 169.21 117.97, 29.49 117.97 C9.83 117.97, 0 108.14, 0 88.48 C0 67.28, 0 46.08, 0 29.49 C0 9.83, 9.83 0, 29.49 0" stroke="none" stroke-width="0" fill="#DCEFD6"></path><path d="M29.49 0 C85.98 0, 142.47 0, 305.65 0 M29.49 0 C100.67 0, 171.85 0, 305.65 0 M305.65 0 C325.31 0, 335.14 9.83, 335.14 29.49 M305.65 0 C325.31 0, 335.14 9.83, 335.14 29.49 M335.14 29.49 C335.14 47.92, 335.14 66.34, 335.14 88.48 M335.14 29.49 C335.14 52.87, 335.14 76.25, 335.14 88.48 M335.14 88.48 C335.14 108.14, 325.31 117.97, 305.65 117.97 M335.14 88.48 C335.14 108.14, 325.31 117.97, 305.65 117.97 M305.65 117.97 C233.7 117.97, 161.75 117.97, 29.49 117.97 M305.65 117.97 C247.61 117.97, 189.57 117.97, 29.49 117.97 M29.49 117.97 C9.83 117.97, 0 108.14, 0 88.48 M29.49 117.97 C9.83 117.97, 0 108.14, 0 88.48 M0 88.48 C0 73.67, 0 58.86, 0 29.49 M0 88.48 C0 68.8, 0 49.12, 0 29.49 M0 29.49 C0 9.83, 9.83 0, 29.49 0 M0 29.49 C0 9.83, 9.83 0, 29.49 0" stroke="#4C7A43" stroke-width="2" fill="none"></path></g><g stroke-linecap="round" transform="translate(10 53.28125) rotate(0 21.92578125 20.5)"><path d="M43.85 20.5 C43.85 21.69, 43.74 22.89, 43.52 24.06 C43.3 25.23, 42.96 26.4, 42.53 27.51 C42.1 28.63, 41.55 29.72, 40.91 30.75 C40.28 31.78, 39.54 32.77, 38.72 33.68 C37.91 34.59, 36.99 35.44, 36.02 36.2 C35.05 36.97, 33.99 37.66, 32.89 38.25 C31.79 38.85, 30.62 39.36, 29.42 39.76 C28.23 40.17, 26.98 40.48, 25.73 40.69 C24.48 40.89, 23.19 41, 21.93 41 C20.66 41, 19.37 40.89, 18.12 40.69 C16.87 40.48, 15.62 40.17, 14.43 39.76 C13.23 39.36, 12.06 38.85, 10.96 38.25 C9.86 37.66, 8.8 36.97, 7.83 36.2 C6.86 35.44, 5.95 34.59, 5.13 33.68 C4.31 32.77, 3.57 31.78, 2.94 30.75 C2.3 29.72, 1.76 28.63, 1.32 27.51 C0.89 26.4, 0.55 25.23, 0.33 24.06 C0.11 22.89, 0 21.69, 0 20.5 C0 19.31, 0.11 18.11, 0.33 16.94 C0.55 15.77, 0.89 14.6, 1.32 13.49 C1.76 12.37, 2.3 11.28, 2.94 10.25 C3.57 9.22, 4.31 8.23, 5.13 7.32 C5.95 6.41, 6.86 5.56, 7.83 4.8 C8.8 4.03, 9.86 3.34, 10.96 2.75 C12.06 2.15, 13.23 1.64, 14.43 1.24 C15.62 0.83, 16.87 0.52, 18.12 0.31 C19.37 0.11, 20.66 0, 21.93 0 C23.19 0, 24.48 0.11, 25.73 0.31 C26.98 0.52, 28.23 0.83, 29.42 1.24 C30.62 1.64, 31.79 2.15, 32.89 2.75 C33.99 3.34, 35.05 4.03, 36.02 4.8 C36.99 5.56, 37.91 6.41, 38.72 7.32 C39.54 8.23, 40.28 9.22, 40.91 10.25 C41.55 11.28, 42.1 12.37, 42.53 13.49 C42.96 14.6, 43.3 15.77, 43.52 16.94 C43.74 18.11, 43.8 19.91, 43.85 20.5 C43.91 21.09, 43.91 19.91, 43.85 20.5" stroke="none" stroke-width="0" fill="#228be6"></path><path d="M43.85 20.5 C43.85 21.69, 43.74 22.89, 43.52 24.06 C43.3 25.23, 42.96 26.4, 42.53 27.51 C42.1 28.63, 41.55 29.72, 40.91 30.75 C40.28 31.78, 39.54 32.77, 38.72 33.68 C37.91 34.59, 36.99 35.44, 36.02 36.2 C35.05 36.97, 33.99 37.66, 32.89 38.25 C31.79 38.85, 30.62 39.36, 29.42 39.76 C28.23 40.17, 26.98 40.48, 25.73 40.69 C24.48 40.89, 23.19 41, 21.93 41 C20.66 41, 19.37 40.89, 18.12 40.69 C16.87 40.48, 15.62 40.17, 14.43 39.76 C13.23 39.36, 12.06 38.85, 10.96 38.25 C9.86 37.66, 8.8 36.97, 7.83 36.2 C6.86 35.44, 5.95 34.59, 5.13 33.68 C4.31 32.77, 3.57 31.78, 2.94 30.75 C2.3 29.72, 1.76 28.63, 1.32 27.51 C0.89 26.4, 0.55 25.23, 0.33 24.06 C0.11 22.89, 0 21.69, 0 20.5 C0 19.31, 0.11 18.11, 0.33 16.94 C0.55 15.77, 0.89 14.6, 1.32 13.49 C1.76 12.37, 2.3 11.28, 2.94 10.25 C3.57 9.22, 4.31 8.23, 5.13 7.32 C5.95 6.41, 6.86 5.56, 7.83 4.8 C8.8 4.03, 9.86 3.34, 10.96 2.75 C12.06 2.15, 13.23 1.64, 14.43 1.24 C15.62 0.83, 16.87 0.52, 18.12 0.31 C19.37 0.11, 20.66 0, 21.93 0 C23.19 0, 24.48 0.11, 25.73 0.31 C26.98 0.52, 28.23 0.83, 29.42 1.24 C30.62 1.64, 31.79 2.15, 32.89 2.75 C33.99 3.34, 35.05 4.03, 36.02 4.8 C36.99 5.56, 37.91 6.41, 38.72 7.32 C39.54 8.23, 40.28 9.22, 40.91 10.25 C41.55 11.28, 42.1 12.37, 42.53 13.49 C42.96 14.6, 43.3 15.77, 43.52 16.94 C43.74 18.11, 43.8 19.91, 43.85 20.5 C43.91 21.09, 43.91 19.91, 43.85 20.5" stroke="#ffffff" stroke-width="1" fill="none"></path></g><g transform="translate(27.472693895312148 64.58556098567578) rotate(0 4.44921875 9.200000000000003)"><svg version="1.1" viewBox="0 0 8.8984375 18.4" width="8.8984375" height="18.4"><g font-family="Helvetica, Segoe UI Emoji" font-size="16px" color="#ffffff"><text style="white-space: pre;" fill="#ffffff" direction="ltr" text-anchor="start" x="0.5" y="13">1</text></g></svg></g><g transform="translate(191.966755606893 69.53573027904656) rotate(0 76.216838143107 28.25631462573881)"><svg version="1.1" viewBox="0 0 116.97936701774597 56.51262925147765" width="116.97936701774597" height="56.51262925147765"><g font-family="Helvetica, Segoe UI Emoji" font-size="16.380472246805116px" color="#1e1e1e"><text style="white-space: pre;" fill="#1e1e1e" direction="ltr" text-anchor="start" x="10.673510015010834" y="15">Patient count</text><text style="white-space: pre;" fill="#1e1e1e" direction="ltr" text-anchor="start" x="7.814208984375" y="33.83754308382588">Random seed</text><text style="white-space: pre;" fill="#1e1e1e" direction="ltr" text-anchor="start" x="0.5" y="52.67508616765176">Output directory</text></g></svg></g><g transform="translate(201.86568921325465 30.24759162426119) rotate(0 46.1304045367454 11.72265625)"><svg version="1.1" viewBox="0 0 88.33292543888092 23.44531250000001" width="88.33292543888092" height="23.44531250000001"><g font-family="Helvetica, Segoe UI Emoji" font-size="20.387228260869577px" color="#4F86A6"><text style="white-space: pre;" fill="#4F86A6" direction="ltr" text-anchor="start" x="0.5" y="18">Configure</text></g></svg></g><g transform="translate(138.689411856893 259.5420515766539) rotate(0 109.306681893107 18.83754308382588)"><svg version="1.1" viewBox="0 0 210.20454394817352 37.67508616765176" width="210.20454394817352" height="37.67508616765176"><g font-family="Helvetica, Segoe UI Emoji" font-size="16.380472246805116px" color="#1e1e1e"><text style="white-space: pre;" fill="#1e1e1e" direction="ltr" text-anchor="start" x="12.337112426757812" y="15">Patients, HCPs, accounts</text><text style="white-space: pre;" fill="#1e1e1e" direction="ltr" text-anchor="start" x="0.5" y="33.83754308382588">Payers, products, references</text></g></svg></g><g transform="translate(150.39693921325443 220.2890691718685) rotate(0 97.59915453674552 11.722656250000005)"><svg version="1.1" viewBox="0 0 184.2050757408142 23.44531250000001" width="184.2050757408142" height="23.44531250000001"><g font-family="Helvetica, Segoe UI Emoji" font-size="20.387228260869577px" color="#f08c00"><text style="white-space: pre;" fill="#f08c00" direction="ltr" text-anchor="start" x="0.5" y="18">Build shared entities</text></g></svg></g><g transform="translate(113.740193106893 412.8514481185668) rotate(0 134.255900643107 18.837543083825878)"><svg version="1.1" viewBox="0 0 254.32968747615814 37.67508616765176" width="254.32968747615814" height="37.67508616765176"><g font-family="Helvetica, Segoe UI Emoji" font-size="16.380472246805116px" color="#1e1e1e"><text style="white-space: pre;" fill="#1e1e1e" direction="ltr" text-anchor="start" x="0.5" y="15">Claims, EHR, access, engagement</text><text style="white-space: pre;" fill="#1e1e1e" direction="ltr" text-anchor="start" x="16.240123331546783" y="33.83754308382588">Lag, duplicates, mapping gaps</text></g></svg></g><g transform="translate(99.78951733825443 377.3289344637814) rotate(0 148.20657641174563 11.72265625)"><svg version="1.1" viewBox="0 0 278.8240076303482 23.44531250000001" width="278.8240076303482" height="23.44531250000001"><g font-family="Helvetica, Segoe UI Emoji" font-size="20.387228260869577px" color="#e8590c"><text style="white-space: pre;" fill="#e8590c" direction="ltr" text-anchor="start" x="0.5" y="18">Generate datasets and defects</text></g></svg></g><g transform="translate(210.5505491180454 600.4702404777152) rotate(0 38.156291268107 9.418771541912946)"><svg version="1.1" viewBox="0 0 67.48746335506439 18.83754308382588" width="67.48746335506439" height="18.83754308382588"><g font-family="Helvetica, Segoe UI Emoji" font-size="16.380472246805116px" color="#1e1e1e"><text style="white-space: pre;" fill="#1e1e1e" direction="ltr" text-anchor="start" x="0.5" y="15">CSV files</text></g></svg></g><g transform="translate(172.24831084940683 547.5141330729298) rotate(0 76.45852953674563 11.72265625)"><svg version="1.1" viewBox="0 0 143.87291264533997 23.44531250000001" width="143.87291264533997" height="23.44531250000001"><g font-family="Helvetica, Segoe UI Emoji" font-size="20.387228260869577px" color="#099268"><text style="white-space: pre;" fill="#099268" direction="ltr" text-anchor="start" x="0.5" y="18">Output datasets</text></g></svg></g><g stroke-linecap="round" transform="translate(10 226.3828125) rotate(0 21.92578125 20.5)"><path d="M43.85 20.5 C43.85 21.69, 43.74 22.89, 43.52 24.06 C43.3 25.23, 42.96 26.4, 42.53 27.51 C42.1 28.63, 41.55 29.72, 40.91 30.75 C40.28 31.78, 39.54 32.77, 38.72 33.68 C37.91 34.59, 36.99 35.44, 36.02 36.2 C35.05 36.97, 33.99 37.66, 32.89 38.25 C31.79 38.85, 30.62 39.36, 29.42 39.76 C28.23 40.17, 26.98 40.48, 25.73 40.69 C24.48 40.89, 23.19 41, 21.93 41 C20.66 41, 19.37 40.89, 18.12 40.69 C16.87 40.48, 15.62 40.17, 14.43 39.76 C13.23 39.36, 12.06 38.85, 10.96 38.25 C9.86 37.66, 8.8 36.97, 7.83 36.2 C6.86 35.44, 5.95 34.59, 5.13 33.68 C4.31 32.77, 3.57 31.78, 2.94 30.75 C2.3 29.72, 1.76 28.63, 1.32 27.51 C0.89 26.4, 0.55 25.23, 0.33 24.06 C0.11 22.89, 0 21.69, 0 20.5 C0 19.31, 0.11 18.11, 0.33 16.94 C0.55 15.77, 0.89 14.6, 1.32 13.49 C1.76 12.37, 2.3 11.28, 2.94 10.25 C3.57 9.22, 4.31 8.23, 5.13 7.32 C5.95 6.41, 6.86 5.56, 7.83 4.8 C8.8 4.03, 9.86 3.34, 10.96 2.75 C12.06 2.15, 13.23 1.64, 14.43 1.24 C15.62 0.83, 16.87 0.52, 18.12 0.31 C19.37 0.11, 20.66 0, 21.93 0 C23.19 0, 24.48 0.11, 25.73 0.31 C26.98 0.52, 28.23 0.83, 29.42 1.24 C30.62 1.64, 31.79 2.15, 32.89 2.75 C33.99 3.34, 35.05 4.03, 36.02 4.8 C36.99 5.56, 37.91 6.41, 38.72 7.32 C39.54 8.23, 40.28 9.22, 40.91 10.25 C41.55 11.28, 42.1 12.37, 42.53 13.49 C42.96 14.6, 43.3 15.77, 43.52 16.94 C43.74 18.11, 43.8 19.91, 43.85 20.5 C43.91 21.09, 43.91 19.91, 43.85 20.5" stroke="none" stroke-width="0" fill="#fab005"></path><path d="M43.85 20.5 C43.85 21.69, 43.74 22.89, 43.52 24.06 C43.3 25.23, 42.96 26.4, 42.53 27.51 C42.1 28.63, 41.55 29.72, 40.91 30.75 C40.28 31.78, 39.54 32.77, 38.72 33.68 C37.91 34.59, 36.99 35.44, 36.02 36.2 C35.05 36.97, 33.99 37.66, 32.89 38.25 C31.79 38.85, 30.62 39.36, 29.42 39.76 C28.23 40.17, 26.98 40.48, 25.73 40.69 C24.48 40.89, 23.19 41, 21.93 41 C20.66 41, 19.37 40.89, 18.12 40.69 C16.87 40.48, 15.62 40.17, 14.43 39.76 C13.23 39.36, 12.06 38.85, 10.96 38.25 C9.86 37.66, 8.8 36.97, 7.83 36.2 C6.86 35.44, 5.95 34.59, 5.13 33.68 C4.31 32.77, 3.57 31.78, 2.94 30.75 C2.3 29.72, 1.76 28.63, 1.32 27.51 C0.89 26.4, 0.55 25.23, 0.33 24.06 C0.11 22.89, 0 21.69, 0 20.5 C0 19.31, 0.11 18.11, 0.33 16.94 C0.55 15.77, 0.89 14.6, 1.32 13.49 C1.76 12.37, 2.3 11.28, 2.94 10.25 C3.57 9.22, 4.31 8.23, 5.13 7.32 C5.95 6.41, 6.86 5.56, 7.83 4.8 C8.8 4.03, 9.86 3.34, 10.96 2.75 C12.06 2.15, 13.23 1.64, 14.43 1.24 C15.62 0.83, 16.87 0.52, 18.12 0.31 C19.37 0.11, 20.66 0, 21.93 0 C23.19 0, 24.48 0.11, 25.73 0.31 C26.98 0.52, 28.23 0.83, 29.42 1.24 C30.62 1.64, 31.79 2.15, 32.89 2.75 C33.99 3.34, 35.05 4.03, 36.02 4.8 C36.99 5.56, 37.91 6.41, 38.72 7.32 C39.54 8.23, 40.28 9.22, 40.91 10.25 C41.55 11.28, 42.1 12.37, 42.53 13.49 C42.96 14.6, 43.3 15.77, 43.52 16.94 C43.74 18.11, 43.8 19.91, 43.85 20.5 C43.91 21.09, 43.91 19.91, 43.85 20.5" stroke="#ffffff" stroke-width="1" fill="none"></path></g><g transform="translate(27.472693895312148 237.68712348567578) rotate(0 4.44921875 9.2)"><svg version="1.1" viewBox="0 0 8.8984375 18.4" width="8.8984375" height="18.4"><g font-family="Helvetica, Segoe UI Emoji" font-size="16px" color="#ffffff"><text style="white-space: pre;" fill="#ffffff" direction="ltr" text-anchor="start" x="0.5" y="13">2</text></g></svg></g><g stroke-linecap="round" transform="translate(10 396.875) rotate(0 21.92578125 20.5)"><path d="M43.85 20.5 C43.85 21.69, 43.74 22.89, 43.52 24.06 C43.3 25.23, 42.96 26.4, 42.53 27.51 C42.1 28.63, 41.55 29.72, 40.91 30.75 C40.28 31.78, 39.54 32.77, 38.72 33.68 C37.91 34.59, 36.99 35.44, 36.02 36.2 C35.05 36.97, 33.99 37.66, 32.89 38.25 C31.79 38.85, 30.62 39.36, 29.42 39.76 C28.23 40.17, 26.98 40.48, 25.73 40.69 C24.48 40.89, 23.19 41, 21.93 41 C20.66 41, 19.37 40.89, 18.12 40.69 C16.87 40.48, 15.62 40.17, 14.43 39.76 C13.23 39.36, 12.06 38.85, 10.96 38.25 C9.86 37.66, 8.8 36.97, 7.83 36.2 C6.86 35.44, 5.95 34.59, 5.13 33.68 C4.31 32.77, 3.57 31.78, 2.94 30.75 C2.3 29.72, 1.76 28.63, 1.32 27.51 C0.89 26.4, 0.55 25.23, 0.33 24.06 C0.11 22.89, 0 21.69, 0 20.5 C0 19.31, 0.11 18.11, 0.33 16.94 C0.55 15.77, 0.89 14.6, 1.32 13.49 C1.76 12.37, 2.3 11.28, 2.94 10.25 C3.57 9.22, 4.31 8.23, 5.13 7.32 C5.95 6.41, 6.86 5.56, 7.83 4.8 C8.8 4.03, 9.86 3.34, 10.96 2.75 C12.06 2.15, 13.23 1.64, 14.43 1.24 C15.62 0.83, 16.87 0.52, 18.12 0.31 C19.37 0.11, 20.66 0, 21.93 0 C23.19 0, 24.48 0.11, 25.73 0.31 C26.98 0.52, 28.23 0.83, 29.42 1.24 C30.62 1.64, 31.79 2.15, 32.89 2.75 C33.99 3.34, 35.05 4.03, 36.02 4.8 C36.99 5.56, 37.91 6.41, 38.72 7.32 C39.54 8.23, 40.28 9.22, 40.91 10.25 C41.55 11.28, 42.1 12.37, 42.53 13.49 C42.96 14.6, 43.3 15.77, 43.52 16.94 C43.74 18.11, 43.8 19.91, 43.85 20.5 C43.91 21.09, 43.91 19.91, 43.85 20.5" stroke="none" stroke-width="0" fill="#e8590c"></path><path d="M43.85 20.5 C43.85 21.69, 43.74 22.89, 43.52 24.06 C43.3 25.23, 42.96 26.4, 42.53 27.51 C42.1 28.63, 41.55 29.72, 40.91 30.75 C40.28 31.78, 39.54 32.77, 38.72 33.68 C37.91 34.59, 36.99 35.44, 36.02 36.2 C35.05 36.97, 33.99 37.66, 32.89 38.25 C31.79 38.85, 30.62 39.36, 29.42 39.76 C28.23 40.17, 26.98 40.48, 25.73 40.69 C24.48 40.89, 23.19 41, 21.93 41 C20.66 41, 19.37 40.89, 18.12 40.69 C16.87 40.48, 15.62 40.17, 14.43 39.76 C13.23 39.36, 12.06 38.85, 10.96 38.25 C9.86 37.66, 8.8 36.97, 7.83 36.2 C6.86 35.44, 5.95 34.59, 5.13 33.68 C4.31 32.77, 3.57 31.78, 2.94 30.75 C2.3 29.72, 1.76 28.63, 1.32 27.51 C0.89 26.4, 0.55 25.23, 0.33 24.06 C0.11 22.89, 0 21.69, 0 20.5 C0 19.31, 0.11 18.11, 0.33 16.94 C0.55 15.77, 0.89 14.6, 1.32 13.49 C1.76 12.37, 2.3 11.28, 2.94 10.25 C3.57 9.22, 4.31 8.23, 5.13 7.32 C5.95 6.41, 6.86 5.56, 7.83 4.8 C8.8 4.03, 9.86 3.34, 10.96 2.75 C12.06 2.15, 13.23 1.64, 14.43 1.24 C15.62 0.83, 16.87 0.52, 18.12 0.31 C19.37 0.11, 20.66 0, 21.93 0 C23.19 0, 24.48 0.11, 25.73 0.31 C26.98 0.52, 28.23 0.83, 29.42 1.24 C30.62 1.64, 31.79 2.15, 32.89 2.75 C33.99 3.34, 35.05 4.03, 36.02 4.8 C36.99 5.56, 37.91 6.41, 38.72 7.32 C39.54 8.23, 40.28 9.22, 40.91 10.25 C41.55 11.28, 42.1 12.37, 42.53 13.49 C42.96 14.6, 43.3 15.77, 43.52 16.94 C43.74 18.11, 43.8 19.91, 43.85 20.5 C43.91 21.09, 43.91 19.91, 43.85 20.5" stroke="#ffffff" stroke-width="1" fill="none"></path></g><g transform="translate(27.472693895312148 408.1793109856758) rotate(0 4.44921875 9.200000000000003)"><svg version="1.1" viewBox="0 0 8.8984375 18.4" width="8.8984375" height="18.4"><g font-family="Helvetica, Segoe UI Emoji" font-size="16px" color="#ffffff"><text style="white-space: pre;" fill="#ffffff" direction="ltr" text-anchor="start" x="0.5" y="13">3</text></g></svg></g><g stroke-linecap="round" transform="translate(10.710746636152408 560.6363704841483) rotate(0 21.92578125 20.5)"><path d="M43.85 20.5 C43.85 21.69, 43.74 22.89, 43.52 24.06 C43.3 25.23, 42.96 26.4, 42.53 27.51 C42.1 28.63, 41.55 29.72, 40.91 30.75 C40.28 31.78, 39.54 32.77, 38.72 33.68 C37.91 34.59, 36.99 35.44, 36.02 36.2 C35.05 36.97, 33.99 37.66, 32.89 38.25 C31.79 38.85, 30.62 39.36, 29.42 39.76 C28.23 40.17, 26.98 40.48, 25.73 40.69 C24.48 40.89, 23.19 41, 21.93 41 C20.66 41, 19.37 40.89, 18.12 40.69 C16.87 40.48, 15.62 40.17, 14.43 39.76 C13.23 39.36, 12.06 38.85, 10.96 38.25 C9.86 37.66, 8.8 36.97, 7.83 36.2 C6.86 35.44, 5.95 34.59, 5.13 33.68 C4.31 32.77, 3.57 31.78, 2.94 30.75 C2.3 29.72, 1.76 28.63, 1.32 27.51 C0.89 26.4, 0.55 25.23, 0.33 24.06 C0.11 22.89, 0 21.69, 0 20.5 C0 19.31, 0.11 18.11, 0.33 16.94 C0.55 15.77, 0.89 14.6, 1.32 13.49 C1.76 12.37, 2.3 11.28, 2.94 10.25 C3.57 9.22, 4.31 8.23, 5.13 7.32 C5.95 6.41, 6.86 5.56, 7.83 4.8 C8.8 4.03, 9.86 3.34, 10.96 2.75 C12.06 2.15, 13.23 1.64, 14.43 1.24 C15.62 0.83, 16.87 0.52, 18.12 0.31 C19.37 0.11, 20.66 0, 21.93 0 C23.19 0, 24.48 0.11, 25.73 0.31 C26.98 0.52, 28.23 0.83, 29.42 1.24 C30.62 1.64, 31.79 2.15, 32.89 2.75 C33.99 3.34, 35.05 4.03, 36.02 4.8 C36.99 5.56, 37.91 6.41, 38.72 7.32 C39.54 8.23, 40.28 9.22, 40.91 10.25 C41.55 11.28, 42.1 12.37, 42.53 13.49 C42.96 14.6, 43.3 15.77, 43.52 16.94 C43.74 18.11, 43.8 19.91, 43.85 20.5 C43.91 21.09, 43.91 19.91, 43.85 20.5" stroke="none" stroke-width="0" fill="#0c8599"></path><path d="M43.85 20.5 C43.85 21.69, 43.74 22.89, 43.52 24.06 C43.3 25.23, 42.96 26.4, 42.53 27.51 C42.1 28.63, 41.55 29.72, 40.91 30.75 C40.28 31.78, 39.54 32.77, 38.72 33.68 C37.91 34.59, 36.99 35.44, 36.02 36.2 C35.05 36.97, 33.99 37.66, 32.89 38.25 C31.79 38.85, 30.62 39.36, 29.42 39.76 C28.23 40.17, 26.98 40.48, 25.73 40.69 C24.48 40.89, 23.19 41, 21.93 41 C20.66 41, 19.37 40.89, 18.12 40.69 C16.87 40.48, 15.62 40.17, 14.43 39.76 C13.23 39.36, 12.06 38.85, 10.96 38.25 C9.86 37.66, 8.8 36.97, 7.83 36.2 C6.86 35.44, 5.95 34.59, 5.13 33.68 C4.31 32.77, 3.57 31.78, 2.94 30.75 C2.3 29.72, 1.76 28.63, 1.32 27.51 C0.89 26.4, 0.55 25.23, 0.33 24.06 C0.11 22.89, 0 21.69, 0 20.5 C0 19.31, 0.11 18.11, 0.33 16.94 C0.55 15.77, 0.89 14.6, 1.32 13.49 C1.76 12.37, 2.3 11.28, 2.94 10.25 C3.57 9.22, 4.31 8.23, 5.13 7.32 C5.95 6.41, 6.86 5.56, 7.83 4.8 C8.8 4.03, 9.86 3.34, 10.96 2.75 C12.06 2.15, 13.23 1.64, 14.43 1.24 C15.62 0.83, 16.87 0.52, 18.12 0.31 C19.37 0.11, 20.66 0, 21.93 0 C23.19 0, 24.48 0.11, 25.73 0.31 C26.98 0.52, 28.23 0.83, 29.42 1.24 C30.62 1.64, 31.79 2.15, 32.89 2.75 C33.99 3.34, 35.05 4.03, 36.02 4.8 C36.99 5.56, 37.91 6.41, 38.72 7.32 C39.54 8.23, 40.28 9.22, 40.91 10.25 C41.55 11.28, 42.1 12.37, 42.53 13.49 C42.96 14.6, 43.3 15.77, 43.52 16.94 C43.74 18.11, 43.8 19.91, 43.85 20.5 C43.91 21.09, 43.91 19.91, 43.85 20.5" stroke="#ffffff" stroke-width="1" fill="none"></path></g><g transform="translate(28.183440531464555 571.9406814698241) rotate(0 4.44921875 9.199999999999989)"><svg version="1.1" viewBox="0 0 8.8984375 18.4" width="8.8984375" height="18.4"><g font-family="Helvetica, Segoe UI Emoji" font-size="16px" color="#ffffff"><text style="white-space: pre;" fill="#ffffff" direction="ltr" text-anchor="start" x="0.5" y="13">4</text></g></svg></g><g stroke-linecap="round"><g transform="translate(249.4548206053879 320.3033362987105) rotate(0 0.057851196716399045 17.01636030819455)"><path d="M0 0 C0.04 12.31, 0.08 24.63, 0.12 34.03 M0 0 C0.03 9.56, 0.07 19.13, 0.12 34.03" stroke="#344054" stroke-width="2" fill="none"></path></g><g transform="translate(249.4548206053879 320.3033362987105) rotate(0 0.057851196716399045 17.01636030819455)"><path d="M0.12 34.03 L-6.27 20.46 L6.41 20.42 L0.12 34.03" stroke="none" stroke-width="0" fill="#344054" fill-rule="evenodd"></path><path d="M0.12 34.03 C-2.19 29.12, -4.5 24.21, -6.27 20.46 M0.12 34.03 C-1.68 30.22, -3.47 26.4, -6.27 20.46 M-6.27 20.46 C-2.78 20.45, 0.7 20.44, 6.41 20.42 M-6.27 20.46 C-2.23 20.45, 1.8 20.43, 6.41 20.42 M6.41 20.42 C3.91 25.82, 1.42 31.22, 0.12 34.03 M6.41 20.42 C3.92 25.8, 1.44 31.18, 0.12 34.03 M0.12 34.03 C0.12 34.03, 0.12 34.03, 0.12 34.03 M0.12 34.03 C0.12 34.03, 0.12 34.03, 0.12 34.03" stroke="#344054" stroke-width="2" fill="none"></path></g></g><mask></mask><g stroke-linecap="round"><g transform="translate(248.96837804072095 481.13476047109225) rotate(0 0.057851196716399045 17.016360308194564)"><path d="M0 0 C0.04 12.32, 0.08 24.65, 0.12 34.03 M0 0 C0.03 8.18, 0.06 16.35, 0.12 34.03" stroke="#344054" stroke-width="2" fill="none"></path></g><g transform="translate(248.96837804072095 481.13476047109225) rotate(0 0.057851196716399045 17.016360308194564)"><path d="M0.12 34.03 L-6.27 20.46 L6.41 20.42 L0.12 34.03" stroke="none" stroke-width="0" fill="#344054" fill-rule="evenodd"></path><path d="M0.12 34.03 C-2.2 29.12, -4.51 24.2, -6.27 20.46 M0.12 34.03 C-1.42 30.77, -2.95 27.51, -6.27 20.46 M-6.27 20.46 C-2 20.45, 2.26 20.43, 6.41 20.42 M-6.27 20.46 C-3.69 20.45, -1.12 20.44, 6.41 20.42 M6.41 20.42 C4.88 23.72, 3.35 27.03, 0.12 34.03 M6.41 20.42 C4.38 24.8, 2.36 29.18, 0.12 34.03 M0.12 34.03 C0.12 34.03, 0.12 34.03, 0.12 34.03 M0.12 34.03 C0.12 34.03, 0.12 34.03, 0.12 34.03" stroke="#344054" stroke-width="2" fill="none"></path></g></g><mask></mask></svg>