<svg xmlns="http://www.w3.org/2000/svg" width="1600" height="270" viewBox="0 0 1600 270" role="img">
<title></title>
<defs>
<marker id="arrow" markerWidth="12" markerHeight="12" refX="10" refY="6" orient="auto"><path d="M0,0 L12,6 L0,12 z" fill="#344054"/></marker>
<filter id="shadow" x="-10%" y="-10%" width="120%" height="130%"><feDropShadow dx="0" dy="3" stdDeviation="4" flood-opacity="0.12"/></filter>
</defs>
<rect width="1600" height="270" fill="#FFFFFF"/>
<text text-anchor="middle" font-family="DejaVu Sans, Arial, sans-serif" font-size="36" font-weight="700" fill="#172033"><tspan x="800.0" y="66.0"></tspan></text>
<rect x="32" y="80" width="185" height="108" rx="10" fill="#F6D2CC" stroke="#A44A3F" stroke-width="2.5" filter="url(#shadow)"/>
<text text-anchor="middle" font-family="DejaVu Sans, Arial, sans-serif" font-size="16" font-weight="700" fill="#172033"><tspan x="124.5" y="115.9">Jul 02</tspan><tspan x="124.5" y="135.9">PENDED</tspan><tspan x="124.5" y="155.9">$0.00</tspan></text>
<rect x="257" y="80" width="185" height="108" rx="10" fill="#DCEFD6" stroke="#4C7A43" stroke-width="2.5" filter="url(#shadow)"/>
<text text-anchor="middle" font-family="DejaVu Sans, Arial, sans-serif" font-size="16" font-weight="700" fill="#172033"><tspan x="349.5" y="115.9">Jul 09</tspan><tspan x="349.5" y="135.9">PAID</tspan><tspan x="349.5" y="155.9">$45.06</tspan></text>
<rect x="482" y="80" width="185" height="108" rx="10" fill="#DCEFD6" stroke="#4C7A43" stroke-width="2.5" filter="url(#shadow)"/>
<text text-anchor="middle" font-family="DejaVu Sans, Arial, sans-serif" font-size="16" font-weight="700" fill="#172033"><tspan x="574.5" y="115.9">Aug 09</tspan><tspan x="574.5" y="135.9">PAID</tspan><tspan x="574.5" y="155.9">$64.88</tspan></text>
<rect x="707" y="80" width="185" height="108" rx="10" fill="#F6D2CC" stroke="#A44A3F" stroke-width="2.5" filter="url(#shadow)"/>
<text text-anchor="middle" font-family="DejaVu Sans, Arial, sans-serif" font-size="16" font-weight="700" fill="#172033"><tspan x="799.5" y="115.9">Aug 10</tspan><tspan x="799.5" y="135.9">REVERSED</tspan><tspan x="799.5" y="155.9">$-64.88</tspan></text>
<rect x="932" y="80" width="185" height="108" rx="10" fill="#DCEFD6" stroke="#4C7A43" stroke-width="2.5" filter="url(#shadow)"/>
<text text-anchor="middle" font-family="DejaVu Sans, Arial, sans-serif" font-size="16" font-weight="700" fill="#172033"><tspan x="1024.5" y="115.9">Aug 15</tspan><tspan x="1024.5" y="135.9">PAID</tspan><tspan x="1024.5" y="155.9">$64.88</tspan></text>
<rect x="1157" y="80" width="185" height="108" rx="10" fill="#DCEFD6" stroke="#4C7A43" stroke-width="2.5" filter="url(#shadow)"/>
<text text-anchor="middle" font-family="DejaVu Sans, Arial, sans-serif" font-size="16" font-weight="700" fill="#172033"><tspan x="1249.5" y="115.9">Sep 09</tspan><tspan x="1249.5" y="135.9">PAID</tspan><tspan x="1249.5" y="155.9">$45.13</tspan></text>
<rect x="1382" y="80" width="185" height="108" rx="10" fill="#DCEFD6" stroke="#4C7A43" stroke-width="2.5" filter="url(#shadow)"/>
<text text-anchor="middle" font-family="DejaVu Sans, Arial, sans-serif" font-size="16" font-weight="700" fill="#172033"><tspan x="1474.5" y="115.9">Oct 09</tspan><tspan x="1474.5" y="135.9">PAID</tspan><tspan x="1474.5" y="155.9">$59.90</tspan></text>
<rect x="20" y="62" width="434" height="144" rx="14" fill="none" stroke="#4F86A6" stroke-width="2.5" stroke-dasharray="9 6"/>
<text x="237.0" y="228.0" text-anchor="middle" font-family="DejaVu Sans, Arial, sans-serif" font-size="16" font-weight="700" fill="#4F86A6">Fill 1</text>
<rect x="470" y="62" width="659" height="144" rx="14" fill="none" stroke="#4F86A6" stroke-width="2.5" stroke-dasharray="9 6"/>
<text x="799.5" y="228.0" text-anchor="middle" font-family="DejaVu Sans, Arial, sans-serif" font-size="16" font-weight="700" fill="#4F86A6">Fill 2</text>
<rect x="1145" y="62" width="209" height="144" rx="14" fill="none" stroke="#4F86A6" stroke-width="2.5" stroke-dasharray="9 6"/>
<text x="1249.5" y="228.0" text-anchor="middle" font-family="DejaVu Sans, Arial, sans-serif" font-size="16" font-weight="700" fill="#4F86A6">Fill 3</text>
<rect x="1370" y="62" width="209" height="144" rx="14" fill="none" stroke="#4F86A6" stroke-width="2.5" stroke-dasharray="9 6"/>
<text x="1474.5" y="228.0" text-anchor="middle" font-family="DejaVu Sans, Arial, sans-serif" font-size="16" font-weight="700" fill="#4F86A6">Fill 4</text>
</svg>