<?xml version="1.0" encoding="utf-8" standalone="no"?>
<!DOCTYPE svg PUBLIC "-//W3C//DTD SVG 1.1//EN"
  "http://www.w3.org/Graphics/SVG/1.1/DTD/svg11.dtd">
<svg xmlns:xlink="http://www.w3.org/1999/xlink" width="628.2pt" height="312.189187pt" viewBox="0 0 628.2 312.189187" xmlns="http://www.w3.org/2000/svg" version="1.1">
 <metadata>
  <rdf:RDF xmlns:dc="http://purl.org/dc/elements/1.1/" xmlns:cc="http://creativecommons.org/ns#" xmlns:rdf="http://www.w3.org/1999/02/22-rdf-syntax-ns#">
   <cc:Work>
    <dc:type rdf:resource="http://purl.org/dc/dcmitype/StillImage"/>
    <dc:date>2026-06-16T18:41:41.310501</dc:date>
    <dc:format>image/svg+xml</dc:format>
    <dc:creator>
     <cc:Agent>
      <dc:title>Matplotlib v3.10.9, https://matplotlib.org/</dc:title>
     </cc:Agent>
    </dc:creator>
   </cc:Work>
  </rdf:RDF>
 </metadata>
 <defs>
  <style type="text/css">*{stroke-linejoin: round; stroke-linecap: butt}</style>
 </defs>
 <g id="figure_1">
  <g id="patch_1">
   <path d="M 0 312.189187
L 628.2 312.189187
L 628.2 0
L 0 0
z
" style="fill: #ffffff"/>
  </g>
  <g id="axes_1">
   <g id="PathCollection_1">
    <defs>
     <path id="ma41a9aa790" d="M 0 5.477226
C 1.452577 5.477226 2.845856 4.900111 3.872983 3.872983
C 4.900111 2.845856 5.477226 1.452577 5.477226 0
C 5.477226 -1.452577 4.900111 -2.845856 3.872983 -3.872983
C 2.845856 -4.900111 1.452577 -5.477226 0 -5.477226
C -1.452577 -5.477226 -2.845856 -4.900111 -3.872983 -3.872983
C -4.900111 -2.845856 -5.477226 -1.452577 -5.477226 0
C -5.477226 1.452577 -4.900111 2.845856 -3.872983 3.872983
C -2.845856 4.900111 -1.452577 5.477226 0 5.477226
z
" style="stroke: #4c7a43; stroke-width: 1.5"/>
    </defs>
    <g clip-path="url(#pb4fe4a1eca)">
     <use xlink:href="#ma41a9aa790" x="111.546" y="262.411267" style="fill: #dcefd6; stroke: #4c7a43; stroke-width: 1.5"/>
    </g>
   </g>
   <g id="PathCollection_2">
    <defs>
     <path id="mc8af3c4d59" d="M -0 7.745967
L 7.745967 0
L 0 -7.745967
L -7.745967 -0
z
" style="stroke: #a66e12; stroke-width: 1.5"/>
    </defs>
    <g clip-path="url(#pb4fe4a1eca)">
     <use xlink:href="#mc8af3c4d59" x="252.72" y="262.411267" style="fill: #f8e2a8; stroke: #a66e12; stroke-width: 1.5"/>
    </g>
   </g>
   <g id="line2d_1">
    <path d="M 80.856 171.933187
L 547.344 171.933187
" clip-path="url(#pb4fe4a1eca)" style="fill: none; stroke: #5f6b7a; stroke-width: 2; stroke-linecap: square"/>
   </g>
   <g id="PathCollection_3">
    <defs>
     <path id="m044ec400a5" d="M 0 11.18034
C 2.965061 11.18034 5.80908 10.002309 7.905694 7.905694
C 10.002309 5.80908 11.18034 2.965061 11.18034 0
C 11.18034 -2.965061 10.002309 -5.80908 7.905694 -7.905694
C 5.80908 -10.002309 2.965061 -11.18034 0 -11.18034
C -2.965061 -11.18034 -5.80908 -10.002309 -7.905694 -7.905694
C -10.002309 -5.80908 -11.18034 -2.965061 -11.18034 0
C -11.18034 2.965061 -10.002309 5.80908 -7.905694 7.905694
C -5.80908 10.002309 -2.965061 11.18034 0 11.18034
z
" style="stroke: #4c7a43; stroke-width: 2"/>
    </defs>
    <g clip-path="url(#pb4fe4a1eca)">
     <use xlink:href="#m044ec400a5" x="117.684" y="171.933187" style="fill: #dcefd6; stroke: #4c7a43; stroke-width: 2"/>
    </g>
   </g>
   <g id="text_1">
    <!-- May 1 claim -->
    <g style="fill: #4c7a43" transform="translate(75.946695 124.033027) scale(0.125 -0.125)">
     <defs>
      <path id="DejaVuSans-Bold-4d" d="M 588 4666
L 2119 4666
L 3181 2169
L 4250 4666
L 5778 4666
L 5778 0
L 4641 0
L 4641 3413
L 3566 897
L 2803 897
L 1728 3413
L 1728 0
L 588 0
L 588 4666
z
" transform="scale(0.015625)"/>
      <path id="DejaVuSans-Bold-61" d="M 2106 1575
Q 1756 1575 1579 1456
Q 1403 1338 1403 1106
Q 1403 894 1545 773
Q 1688 653 1941 653
Q 2256 653 2472 879
Q 2688 1106 2688 1447
L 2688 1575
L 2106 1575
z
M 3816 1997
L 3816 0
L 2688 0
L 2688 519
Q 2463 200 2181 54
Q 1900 -91 1497 -91
Q 953 -91 614 226
Q 275 544 275 1050
Q 275 1666 698 1953
Q 1122 2241 2028 2241
L 2688 2241
L 2688 2328
Q 2688 2594 2478 2717
Q 2269 2841 1825 2841
Q 1466 2841 1156 2769
Q 847 2697 581 2553
L 581 3406
Q 941 3494 1303 3539
Q 1666 3584 2028 3584
Q 2975 3584 3395 3211
Q 3816 2838 3816 1997
z
" transform="scale(0.015625)"/>
      <path id="DejaVuSans-Bold-79" d="M 78 3500
L 1197 3500
L 2138 1125
L 2938 3500
L 4056 3500
L 2584 -331
Q 2363 -916 2067 -1148
Q 1772 -1381 1288 -1381
L 641 -1381
L 641 -647
L 991 -647
Q 1275 -647 1404 -556
Q 1534 -466 1606 -231
L 1638 -134
L 78 3500
z
" transform="scale(0.015625)"/>
      <path id="DejaVuSans-Bold-20" transform="scale(0.015625)"/>
      <path id="DejaVuSans-Bold-31" d="M 750 831
L 1813 831
L 1813 3847
L 722 3622
L 722 4441
L 1806 4666
L 2950 4666
L 2950 831
L 4013 831
L 4013 0
L 750 0
L 750 831
z
" transform="scale(0.015625)"/>
      <path id="DejaVuSans-Bold-63" d="M 3366 3391
L 3366 2478
Q 3138 2634 2908 2709
Q 2678 2784 2431 2784
Q 1963 2784 1702 2511
Q 1441 2238 1441 1747
Q 1441 1256 1702 982
Q 1963 709 2431 709
Q 2694 709 2930 787
Q 3166 866 3366 1019
L 3366 103
Q 3103 6 2833 -42
Q 2563 -91 2291 -91
Q 1344 -91 809 395
Q 275 881 275 1747
Q 275 2613 809 3098
Q 1344 3584 2291 3584
Q 2566 3584 2833 3536
Q 3100 3488 3366 3391
z
" transform="scale(0.015625)"/>
      <path id="DejaVuSans-Bold-6c" d="M 538 4863
L 1656 4863
L 1656 0
L 538 0
L 538 4863
z
" transform="scale(0.015625)"/>
      <path id="DejaVuSans-Bold-69" d="M 538 3500
L 1656 3500
L 1656 0
L 538 0
L 538 3500
z
M 538 4863
L 1656 4863
L 1656 3950
L 538 3950
L 538 4863
z
" transform="scale(0.015625)"/>
      <path id="DejaVuSans-Bold-6d" d="M 3781 2919
Q 3994 3244 4286 3414
Q 4578 3584 4928 3584
Q 5531 3584 5847 3212
Q 6163 2841 6163 2131
L 6163 0
L 5038 0
L 5038 1825
Q 5041 1866 5042 1909
Q 5044 1953 5044 2034
Q 5044 2406 4934 2573
Q 4825 2741 4581 2741
Q 4263 2741 4089 2478
Q 3916 2216 3909 1719
L 3909 0
L 2784 0
L 2784 1825
Q 2784 2406 2684 2573
Q 2584 2741 2328 2741
Q 2006 2741 1831 2477
Q 1656 2213 1656 1722
L 1656 0
L 531 0
L 531 3500
L 1656 3500
L 1656 2988
Q 1863 3284 2130 3434
Q 2397 3584 2719 3584
Q 3081 3584 3359 3409
Q 3638 3234 3781 2919
z
" transform="scale(0.015625)"/>
     </defs>
     <use xlink:href="#DejaVuSans-Bold-4d"/>
     <use xlink:href="#DejaVuSans-Bold-61" transform="translate(99.511719 0)"/>
     <use xlink:href="#DejaVuSans-Bold-79" transform="translate(163.867188 0)"/>
     <use xlink:href="#DejaVuSans-Bold-20" transform="translate(229.052734 0)"/>
     <use xlink:href="#DejaVuSans-Bold-31" transform="translate(263.867188 0)"/>
     <use xlink:href="#DejaVuSans-Bold-20" transform="translate(333.447266 0)"/>
     <use xlink:href="#DejaVuSans-Bold-63" transform="translate(368.261719 0)"/>
     <use xlink:href="#DejaVuSans-Bold-6c" transform="translate(427.539062 0)"/>
     <use xlink:href="#DejaVuSans-Bold-61" transform="translate(461.816406 0)"/>
     <use xlink:href="#DejaVuSans-Bold-69" transform="translate(529.296875 0)"/>
     <use xlink:href="#DejaVuSans-Bold-6d" transform="translate(563.574219 0)"/>
    </g>
   </g>
   <g id="text_2">
    <!-- No quantity limit -->
    <g style="fill: #172033" transform="translate(67.499625 222.494467) scale(0.12 -0.12)">
     <defs>
      <path id="DejaVuSans-4e" d="M 628 4666
L 1478 4666
L 3547 763
L 3547 4666
L 4159 4666
L 4159 0
L 3309 0
L 1241 3903
L 1241 0
L 628 0
L 628 4666
z
" transform="scale(0.015625)"/>
      <path id="DejaVuSans-6f" d="M 1959 3097
Q 1497 3097 1228 2736
Q 959 2375 959 1747
Q 959 1119 1226 758
Q 1494 397 1959 397
Q 2419 397 2687 759
Q 2956 1122 2956 1747
Q 2956 2369 2687 2733
Q 2419 3097 1959 3097
z
M 1959 3584
Q 2709 3584 3137 3096
Q 3566 2609 3566 1747
Q 3566 888 3137 398
Q 2709 -91 1959 -91
Q 1206 -91 779 398
Q 353 888 353 1747
Q 353 2609 779 3096
Q 1206 3584 1959 3584
z
" transform="scale(0.015625)"/>
      <path id="DejaVuSans-20" transform="scale(0.015625)"/>
      <path id="DejaVuSans-71" d="M 947 1747
Q 947 1113 1208 752
Q 1469 391 1925 391
Q 2381 391 2643 752
Q 2906 1113 2906 1747
Q 2906 2381 2643 2742
Q 2381 3103 1925 3103
Q 1469 3103 1208 2742
Q 947 2381 947 1747
z
M 2906 525
Q 2725 213 2448 61
Q 2172 -91 1784 -91
Q 1150 -91 751 415
Q 353 922 353 1747
Q 353 2572 751 3078
Q 1150 3584 1784 3584
Q 2172 3584 2448 3432
Q 2725 3281 2906 2969
L 2906 3500
L 3481 3500
L 3481 -1331
L 2906 -1331
L 2906 525
z
" transform="scale(0.015625)"/>
      <path id="DejaVuSans-75" d="M 544 1381
L 544 3500
L 1119 3500
L 1119 1403
Q 1119 906 1312 657
Q 1506 409 1894 409
Q 2359 409 2629 706
Q 2900 1003 2900 1516
L 2900 3500
L 3475 3500
L 3475 0
L 2900 0
L 2900 538
Q 2691 219 2414 64
Q 2138 -91 1772 -91
Q 1169 -91 856 284
Q 544 659 544 1381
z
M 1991 3584
L 1991 3584
z
" transform="scale(0.015625)"/>
      <path id="DejaVuSans-61" d="M 2194 1759
Q 1497 1759 1228 1600
Q 959 1441 959 1056
Q 959 750 1161 570
Q 1363 391 1709 391
Q 2188 391 2477 730
Q 2766 1069 2766 1631
L 2766 1759
L 2194 1759
z
M 3341 1997
L 3341 0
L 2766 0
L 2766 531
Q 2569 213 2275 61
Q 1981 -91 1556 -91
Q 1019 -91 701 211
Q 384 513 384 1019
Q 384 1609 779 1909
Q 1175 2209 1959 2209
L 2766 2209
L 2766 2266
Q 2766 2663 2505 2880
Q 2244 3097 1772 3097
Q 1472 3097 1187 3025
Q 903 2953 641 2809
L 641 3341
Q 956 3463 1253 3523
Q 1550 3584 1831 3584
Q 2591 3584 2966 3190
Q 3341 2797 3341 1997
z
" transform="scale(0.015625)"/>
      <path id="DejaVuSans-6e" d="M 3513 2113
L 3513 0
L 2938 0
L 2938 2094
Q 2938 2591 2744 2837
Q 2550 3084 2163 3084
Q 1697 3084 1428 2787
Q 1159 2491 1159 1978
L 1159 0
L 581 0
L 581 3500
L 1159 3500
L 1159 2956
Q 1366 3272 1645 3428
Q 1925 3584 2291 3584
Q 2894 3584 3203 3211
Q 3513 2838 3513 2113
z
" transform="scale(0.015625)"/>
      <path id="DejaVuSans-74" d="M 1172 4494
L 1172 3500
L 2356 3500
L 2356 3053
L 1172 3053
L 1172 1153
Q 1172 725 1289 603
Q 1406 481 1766 481
L 2356 481
L 2356 0
L 1766 0
Q 1100 0 847 248
Q 594 497 594 1153
L 594 3053
L 172 3053
L 172 3500
L 594 3500
L 594 4494
L 1172 4494
z
" transform="scale(0.015625)"/>
      <path id="DejaVuSans-69" d="M 603 3500
L 1178 3500
L 1178 0
L 603 0
L 603 3500
z
M 603 4863
L 1178 4863
L 1178 4134
L 603 4134
L 603 4863
z
" transform="scale(0.015625)"/>
      <path id="DejaVuSans-79" d="M 2059 -325
Q 1816 -950 1584 -1140
Q 1353 -1331 966 -1331
L 506 -1331
L 506 -850
L 844 -850
Q 1081 -850 1212 -737
Q 1344 -625 1503 -206
L 1606 56
L 191 3500
L 800 3500
L 1894 763
L 2988 3500
L 3597 3500
L 2059 -325
z
" transform="scale(0.015625)"/>
      <path id="DejaVuSans-6c" d="M 603 4863
L 1178 4863
L 1178 0
L 603 0
L 603 4863
z
" transform="scale(0.015625)"/>
      <path id="DejaVuSans-6d" d="M 3328 2828
Q 3544 3216 3844 3400
Q 4144 3584 4550 3584
Q 5097 3584 5394 3201
Q 5691 2819 5691 2113
L 5691 0
L 5113 0
L 5113 2094
Q 5113 2597 4934 2840
Q 4756 3084 4391 3084
Q 3944 3084 3684 2787
Q 3425 2491 3425 1978
L 3425 0
L 2847 0
L 2847 2094
Q 2847 2600 2669 2842
Q 2491 3084 2119 3084
Q 1678 3084 1418 2786
Q 1159 2488 1159 1978
L 1159 0
L 581 0
L 581 3500
L 1159 3500
L 1159 2956
Q 1356 3278 1631 3431
Q 1906 3584 2284 3584
Q 2666 3584 2933 3390
Q 3200 3197 3328 2828
z
" transform="scale(0.015625)"/>
     </defs>
     <use xlink:href="#DejaVuSans-4e"/>
     <use xlink:href="#DejaVuSans-6f" transform="translate(74.804688 0)"/>
     <use xlink:href="#DejaVuSans-20" transform="translate(135.986328 0)"/>
     <use xlink:href="#DejaVuSans-71" transform="translate(167.773438 0)"/>
     <use xlink:href="#DejaVuSans-75" transform="translate(231.25 0)"/>
     <use xlink:href="#DejaVuSans-61" transform="translate(294.628906 0)"/>
     <use xlink:href="#DejaVuSans-6e" transform="translate(355.908203 0)"/>
     <use xlink:href="#DejaVuSans-74" transform="translate(419.287109 0)"/>
     <use xlink:href="#DejaVuSans-69" transform="translate(458.496094 0)"/>
     <use xlink:href="#DejaVuSans-74" transform="translate(486.279297 0)"/>
     <use xlink:href="#DejaVuSans-79" transform="translate(525.488281 0)"/>
     <use xlink:href="#DejaVuSans-20" transform="translate(584.667969 0)"/>
     <use xlink:href="#DejaVuSans-6c" transform="translate(616.455078 0)"/>
     <use xlink:href="#DejaVuSans-69" transform="translate(644.238281 0)"/>
     <use xlink:href="#DejaVuSans-6d" transform="translate(672.021484 0)"/>
     <use xlink:href="#DejaVuSans-69" transform="translate(769.433594 0)"/>
     <use xlink:href="#DejaVuSans-74" transform="translate(797.216797 0)"/>
    </g>
   </g>
   <g id="PathCollection_4">
    <defs>
     <path id="m6b9a1a9460" d="M -0 15.811388
L 15.811388 0
L 0 -15.811388
L -15.811388 -0
z
" style="stroke: #a66e12; stroke-width: 2"/>
    </defs>
    <g clip-path="url(#pb4fe4a1eca)">
     <use xlink:href="#m6b9a1a9460" x="314.1" y="171.933187" style="fill: #f8e2a8; stroke: #a66e12; stroke-width: 2"/>
    </g>
   </g>
   <g id="text_3">
    <!-- Jul 1 policy change -->
    <g style="fill: #a66e12" transform="translate(247.94082 124.033027) scale(0.125 -0.125)">
     <defs>
      <path id="DejaVuSans-Bold-4a" d="M 588 4666
L 1791 4666
L 1791 453
Q 1791 -419 1317 -850
Q 844 -1281 -116 -1281
L -359 -1281
L -359 -372
L -172 -372
Q 203 -372 395 -162
Q 588 47 588 453
L 588 4666
z
" transform="scale(0.015625)"/>
      <path id="DejaVuSans-Bold-75" d="M 500 1363
L 500 3500
L 1625 3500
L 1625 3150
Q 1625 2866 1622 2436
Q 1619 2006 1619 1863
Q 1619 1441 1641 1255
Q 1663 1069 1716 984
Q 1784 875 1895 815
Q 2006 756 2150 756
Q 2500 756 2700 1025
Q 2900 1294 2900 1772
L 2900 3500
L 4019 3500
L 4019 0
L 2900 0
L 2900 506
Q 2647 200 2364 54
Q 2081 -91 1741 -91
Q 1134 -91 817 281
Q 500 653 500 1363
z
" transform="scale(0.015625)"/>
      <path id="DejaVuSans-Bold-70" d="M 1656 506
L 1656 -1331
L 538 -1331
L 538 3500
L 1656 3500
L 1656 2988
Q 1888 3294 2169 3439
Q 2450 3584 2816 3584
Q 3463 3584 3878 3070
Q 4294 2556 4294 1747
Q 4294 938 3878 423
Q 3463 -91 2816 -91
Q 2450 -91 2169 54
Q 1888 200 1656 506
z
M 2400 2772
Q 2041 2772 1848 2508
Q 1656 2244 1656 1747
Q 1656 1250 1848 986
Q 2041 722 2400 722
Q 2759 722 2948 984
Q 3138 1247 3138 1747
Q 3138 2247 2948 2509
Q 2759 2772 2400 2772
z
" transform="scale(0.015625)"/>
      <path id="DejaVuSans-Bold-6f" d="M 2203 2784
Q 1831 2784 1636 2517
Q 1441 2250 1441 1747
Q 1441 1244 1636 976
Q 1831 709 2203 709
Q 2569 709 2762 976
Q 2956 1244 2956 1747
Q 2956 2250 2762 2517
Q 2569 2784 2203 2784
z
M 2203 3584
Q 3106 3584 3614 3096
Q 4122 2609 4122 1747
Q 4122 884 3614 396
Q 3106 -91 2203 -91
Q 1297 -91 786 396
Q 275 884 275 1747
Q 275 2609 786 3096
Q 1297 3584 2203 3584
z
" transform="scale(0.015625)"/>
      <path id="DejaVuSans-Bold-68" d="M 4056 2131
L 4056 0
L 2931 0
L 2931 347
L 2931 1625
Q 2931 2084 2911 2256
Q 2891 2428 2841 2509
Q 2775 2619 2662 2680
Q 2550 2741 2406 2741
Q 2056 2741 1856 2470
Q 1656 2200 1656 1722
L 1656 0
L 538 0
L 538 4863
L 1656 4863
L 1656 2988
Q 1909 3294 2193 3439
Q 2478 3584 2822 3584
Q 3428 3584 3742 3212
Q 4056 2841 4056 2131
z
" transform="scale(0.015625)"/>
      <path id="DejaVuSans-Bold-6e" d="M 4056 2131
L 4056 0
L 2931 0
L 2931 347
L 2931 1631
Q 2931 2084 2911 2256
Q 2891 2428 2841 2509
Q 2775 2619 2662 2680
Q 2550 2741 2406 2741
Q 2056 2741 1856 2470
Q 1656 2200 1656 1722
L 1656 0
L 538 0
L 538 3500
L 1656 3500
L 1656 2988
Q 1909 3294 2193 3439
Q 2478 3584 2822 3584
Q 3428 3584 3742 3212
Q 4056 2841 4056 2131
z
" transform="scale(0.015625)"/>
      <path id="DejaVuSans-Bold-67" d="M 2919 594
Q 2688 288 2409 144
Q 2131 0 1766 0
Q 1125 0 706 504
Q 288 1009 288 1791
Q 288 2575 706 3076
Q 1125 3578 1766 3578
Q 2131 3578 2409 3434
Q 2688 3291 2919 2981
L 2919 3500
L 4044 3500
L 4044 353
Q 4044 -491 3511 -936
Q 2978 -1381 1966 -1381
Q 1638 -1381 1331 -1331
Q 1025 -1281 716 -1178
L 716 -306
Q 1009 -475 1290 -558
Q 1572 -641 1856 -641
Q 2406 -641 2662 -400
Q 2919 -159 2919 353
L 2919 594
z
M 2181 2772
Q 1834 2772 1640 2515
Q 1447 2259 1447 1791
Q 1447 1309 1634 1061
Q 1822 813 2181 813
Q 2531 813 2725 1069
Q 2919 1325 2919 1791
Q 2919 2259 2725 2515
Q 2531 2772 2181 2772
z
" transform="scale(0.015625)"/>
      <path id="DejaVuSans-Bold-65" d="M 4031 1759
L 4031 1441
L 1416 1441
Q 1456 1047 1700 850
Q 1944 653 2381 653
Q 2734 653 3104 758
Q 3475 863 3866 1075
L 3866 213
Q 3469 63 3072 -14
Q 2675 -91 2278 -91
Q 1328 -91 801 392
Q 275 875 275 1747
Q 275 2603 792 3093
Q 1309 3584 2216 3584
Q 3041 3584 3536 3087
Q 4031 2591 4031 1759
z
M 2881 2131
Q 2881 2450 2695 2645
Q 2509 2841 2209 2841
Q 1884 2841 1681 2658
Q 1478 2475 1428 2131
L 2881 2131
z
" transform="scale(0.015625)"/>
     </defs>
     <use xlink:href="#DejaVuSans-Bold-4a"/>
     <use xlink:href="#DejaVuSans-Bold-75" transform="translate(37.207031 0)"/>
     <use xlink:href="#DejaVuSans-Bold-6c" transform="translate(108.398438 0)"/>
     <use xlink:href="#DejaVuSans-Bold-20" transform="translate(142.675781 0)"/>
     <use xlink:href="#DejaVuSans-Bold-31" transform="translate(177.490234 0)"/>
     <use xlink:href="#DejaVuSans-Bold-20" transform="translate(247.070312 0)"/>
     <use xlink:href="#DejaVuSans-Bold-70" transform="translate(281.884766 0)"/>
     <use xlink:href="#DejaVuSans-Bold-6f" transform="translate(353.466797 0)"/>
     <use xlink:href="#DejaVuSans-Bold-6c" transform="translate(422.167969 0)"/>
     <use xlink:href="#DejaVuSans-Bold-69" transform="translate(456.445312 0)"/>
     <use xlink:href="#DejaVuSans-Bold-63" transform="translate(490.722656 0)"/>
     <use xlink:href="#DejaVuSans-Bold-79" transform="translate(550 0)"/>
     <use xlink:href="#DejaVuSans-Bold-20" transform="translate(615.185547 0)"/>
     <use xlink:href="#DejaVuSans-Bold-63" transform="translate(650 0)"/>
     <use xlink:href="#DejaVuSans-Bold-68" transform="translate(709.277344 0)"/>
     <use xlink:href="#DejaVuSans-Bold-61" transform="translate(780.46875 0)"/>
     <use xlink:href="#DejaVuSans-Bold-6e" transform="translate(847.949219 0)"/>
     <use xlink:href="#DejaVuSans-Bold-67" transform="translate(919.140625 0)"/>
     <use xlink:href="#DejaVuSans-Bold-65" transform="translate(990.722656 0)"/>
    </g>
   </g>
   <g id="text_4">
    <!-- Quantity limit added -->
    <g style="fill: #172033" transform="translate(252.365625 222.494467) scale(0.12 -0.12)">
     <defs>
      <path id="DejaVuSans-51" d="M 2522 4238
Q 1834 4238 1429 3725
Q 1025 3213 1025 2328
Q 1025 1447 1429 934
Q 1834 422 2522 422
Q 3209 422 3611 934
Q 4013 1447 4013 2328
Q 4013 3213 3611 3725
Q 3209 4238 2522 4238
z
M 3406 84
L 4238 -825
L 3475 -825
L 2784 -78
Q 2681 -84 2626 -87
Q 2572 -91 2522 -91
Q 1538 -91 948 567
Q 359 1225 359 2328
Q 359 3434 948 4092
Q 1538 4750 2522 4750
Q 3503 4750 4090 4092
Q 4678 3434 4678 2328
Q 4678 1516 4351 937
Q 4025 359 3406 84
z
" transform="scale(0.015625)"/>
      <path id="DejaVuSans-64" d="M 2906 2969
L 2906 4863
L 3481 4863
L 3481 0
L 2906 0
L 2906 525
Q 2725 213 2448 61
Q 2172 -91 1784 -91
Q 1150 -91 751 415
Q 353 922 353 1747
Q 353 2572 751 3078
Q 1150 3584 1784 3584
Q 2172 3584 2448 3432
Q 2725 3281 2906 2969
z
M 947 1747
Q 947 1113 1208 752
Q 1469 391 1925 391
Q 2381 391 2643 752
Q 2906 1113 2906 1747
Q 2906 2381 2643 2742
Q 2381 3103 1925 3103
Q 1469 3103 1208 2742
Q 947 2381 947 1747
z
" transform="scale(0.015625)"/>
      <path id="DejaVuSans-65" d="M 3597 1894
L 3597 1613
L 953 1613
Q 991 1019 1311 708
Q 1631 397 2203 397
Q 2534 397 2845 478
Q 3156 559 3463 722
L 3463 178
Q 3153 47 2828 -22
Q 2503 -91 2169 -91
Q 1331 -91 842 396
Q 353 884 353 1716
Q 353 2575 817 3079
Q 1281 3584 2069 3584
Q 2775 3584 3186 3129
Q 3597 2675 3597 1894
z
M 3022 2063
Q 3016 2534 2758 2815
Q 2500 3097 2075 3097
Q 1594 3097 1305 2825
Q 1016 2553 972 2059
L 3022 2063
z
" transform="scale(0.015625)"/>
     </defs>
     <use xlink:href="#DejaVuSans-51"/>
     <use xlink:href="#DejaVuSans-75" transform="translate(78.710938 0)"/>
     <use xlink:href="#DejaVuSans-61" transform="translate(142.089844 0)"/>
     <use xlink:href="#DejaVuSans-6e" transform="translate(203.369141 0)"/>
     <use xlink:href="#DejaVuSans-74" transform="translate(266.748047 0)"/>
     <use xlink:href="#DejaVuSans-69" transform="translate(305.957031 0)"/>
     <use xlink:href="#DejaVuSans-74" transform="translate(333.740234 0)"/>
     <use xlink:href="#DejaVuSans-79" transform="translate(372.949219 0)"/>
     <use xlink:href="#DejaVuSans-20" transform="translate(432.128906 0)"/>
     <use xlink:href="#DejaVuSans-6c" transform="translate(463.916016 0)"/>
     <use xlink:href="#DejaVuSans-69" transform="translate(491.699219 0)"/>
     <use xlink:href="#DejaVuSans-6d" transform="translate(519.482422 0)"/>
     <use xlink:href="#DejaVuSans-69" transform="translate(616.894531 0)"/>
     <use xlink:href="#DejaVuSans-74" transform="translate(644.677734 0)"/>
     <use xlink:href="#DejaVuSans-20" transform="translate(683.886719 0)"/>
     <use xlink:href="#DejaVuSans-61" transform="translate(715.673828 0)"/>
     <use xlink:href="#DejaVuSans-64" transform="translate(776.953125 0)"/>
     <use xlink:href="#DejaVuSans-64" transform="translate(840.429688 0)"/>
     <use xlink:href="#DejaVuSans-65" transform="translate(903.90625 0)"/>
     <use xlink:href="#DejaVuSans-64" transform="translate(965.429688 0)"/>
    </g>
   </g>
   <g id="PathCollection_5">
    <defs>
     <path id="ma372176960" d="M 0 11.18034
C 2.965061 11.18034 5.80908 10.002309 7.905694 7.905694
C 10.002309 5.80908 11.18034 2.965061 11.18034 0
C 11.18034 -2.965061 10.002309 -5.80908 7.905694 -7.905694
C 5.80908 -10.002309 2.965061 -11.18034 0 -11.18034
C -2.965061 -11.18034 -5.80908 -10.002309 -7.905694 -7.905694
C -10.002309 -5.80908 -11.18034 -2.965061 -11.18034 0
C -11.18034 2.965061 -10.002309 5.80908 -7.905694 7.905694
C -5.80908 10.002309 -2.965061 11.18034 0 11.18034
z
" style="stroke: #a44a3f; stroke-width: 2"/>
    </defs>
    <g clip-path="url(#pb4fe4a1eca)">
     <use xlink:href="#ma372176960" x="510.516" y="171.933187" style="fill: #f6d2cc; stroke: #a44a3f; stroke-width: 2"/>
    </g>
   </g>
   <g id="text_5">
    <!-- Sep 1 claim -->
    <g style="fill: #a44a3f" transform="translate(469.881234 124.033027) scale(0.125 -0.125)">
     <defs>
      <path id="DejaVuSans-Bold-53" d="M 3834 4519
L 3834 3531
Q 3450 3703 3084 3790
Q 2719 3878 2394 3878
Q 1963 3878 1756 3759
Q 1550 3641 1550 3391
Q 1550 3203 1689 3098
Q 1828 2994 2194 2919
L 2706 2816
Q 3484 2659 3812 2340
Q 4141 2022 4141 1434
Q 4141 663 3683 286
Q 3225 -91 2284 -91
Q 1841 -91 1394 -6
Q 947 78 500 244
L 500 1259
Q 947 1022 1364 901
Q 1781 781 2169 781
Q 2563 781 2772 912
Q 2981 1044 2981 1288
Q 2981 1506 2839 1625
Q 2697 1744 2272 1838
L 1806 1941
Q 1106 2091 782 2419
Q 459 2747 459 3303
Q 459 4000 909 4375
Q 1359 4750 2203 4750
Q 2588 4750 2994 4692
Q 3400 4634 3834 4519
z
" transform="scale(0.015625)"/>
     </defs>
     <use xlink:href="#DejaVuSans-Bold-53"/>
     <use xlink:href="#DejaVuSans-Bold-65" transform="translate(72.021484 0)"/>
     <use xlink:href="#DejaVuSans-Bold-70" transform="translate(139.84375 0)"/>
     <use xlink:href="#DejaVuSans-Bold-20" transform="translate(211.425781 0)"/>
     <use xlink:href="#DejaVuSans-Bold-31" transform="translate(246.240234 0)"/>
     <use xlink:href="#DejaVuSans-Bold-20" transform="translate(315.820312 0)"/>
     <use xlink:href="#DejaVuSans-Bold-63" transform="translate(350.634766 0)"/>
     <use xlink:href="#DejaVuSans-Bold-6c" transform="translate(409.912109 0)"/>
     <use xlink:href="#DejaVuSans-Bold-61" transform="translate(444.189453 0)"/>
     <use xlink:href="#DejaVuSans-Bold-69" transform="translate(511.669922 0)"/>
     <use xlink:href="#DejaVuSans-Bold-6d" transform="translate(545.947266 0)"/>
    </g>
   </g>
   <g id="text_6">
    <!-- Quantity limit applies -->
    <g style="fill: #172033" transform="translate(446.131313 222.494467) scale(0.12 -0.12)">
     <defs>
      <path id="DejaVuSans-70" d="M 1159 525
L 1159 -1331
L 581 -1331
L 581 3500
L 1159 3500
L 1159 2969
Q 1341 3281 1617 3432
Q 1894 3584 2278 3584
Q 2916 3584 3314 3078
Q 3713 2572 3713 1747
Q 3713 922 3314 415
Q 2916 -91 2278 -91
Q 1894 -91 1617 61
Q 1341 213 1159 525
z
M 3116 1747
Q 3116 2381 2855 2742
Q 2594 3103 2138 3103
Q 1681 3103 1420 2742
Q 1159 2381 1159 1747
Q 1159 1113 1420 752
Q 1681 391 2138 391
Q 2594 391 2855 752
Q 3116 1113 3116 1747
z
" transform="scale(0.015625)"/>
      <path id="DejaVuSans-73" d="M 2834 3397
L 2834 2853
Q 2591 2978 2328 3040
Q 2066 3103 1784 3103
Q 1356 3103 1142 2972
Q 928 2841 928 2578
Q 928 2378 1081 2264
Q 1234 2150 1697 2047
L 1894 2003
Q 2506 1872 2764 1633
Q 3022 1394 3022 966
Q 3022 478 2636 193
Q 2250 -91 1575 -91
Q 1294 -91 989 -36
Q 684 19 347 128
L 347 722
Q 666 556 975 473
Q 1284 391 1588 391
Q 1994 391 2212 530
Q 2431 669 2431 922
Q 2431 1156 2273 1281
Q 2116 1406 1581 1522
L 1381 1569
Q 847 1681 609 1914
Q 372 2147 372 2553
Q 372 3047 722 3315
Q 1072 3584 1716 3584
Q 2034 3584 2315 3537
Q 2597 3491 2834 3397
z
" transform="scale(0.015625)"/>
     </defs>
     <use xlink:href="#DejaVuSans-51"/>
     <use xlink:href="#DejaVuSans-75" transform="translate(78.710938 0)"/>
     <use xlink:href="#DejaVuSans-61" transform="translate(142.089844 0)"/>
     <use xlink:href="#DejaVuSans-6e" transform="translate(203.369141 0)"/>
     <use xlink:href="#DejaVuSans-74" transform="translate(266.748047 0)"/>
     <use xlink:href="#DejaVuSans-69" transform="translate(305.957031 0)"/>
     <use xlink:href="#DejaVuSans-74" transform="translate(333.740234 0)"/>
     <use xlink:href="#DejaVuSans-79" transform="translate(372.949219 0)"/>
     <use xlink:href="#DejaVuSans-20" transform="translate(432.128906 0)"/>
     <use xlink:href="#DejaVuSans-6c" transform="translate(463.916016 0)"/>
     <use xlink:href="#DejaVuSans-69" transform="translate(491.699219 0)"/>
     <use xlink:href="#DejaVuSans-6d" transform="translate(519.482422 0)"/>
     <use xlink:href="#DejaVuSans-69" transform="translate(616.894531 0)"/>
     <use xlink:href="#DejaVuSans-74" transform="translate(644.677734 0)"/>
     <use xlink:href="#DejaVuSans-20" transform="translate(683.886719 0)"/>
     <use xlink:href="#DejaVuSans-61" transform="translate(715.673828 0)"/>
     <use xlink:href="#DejaVuSans-70" transform="translate(776.953125 0)"/>
     <use xlink:href="#DejaVuSans-70" transform="translate(840.429688 0)"/>
     <use xlink:href="#DejaVuSans-6c" transform="translate(903.90625 0)"/>
     <use xlink:href="#DejaVuSans-69" transform="translate(931.689453 0)"/>
     <use xlink:href="#DejaVuSans-65" transform="translate(959.472656 0)"/>
     <use xlink:href="#DejaVuSans-73" transform="translate(1020.996094 0)"/>
    </g>
   </g>
   <g id="text_7">
    <!-- Claim event -->
    <g style="fill: #172033" transform="translate(129.96 265.391392) scale(0.108 -0.108)">
     <defs>
      <path id="DejaVuSans-43" d="M 4122 4306
L 4122 3641
Q 3803 3938 3442 4084
Q 3081 4231 2675 4231
Q 1875 4231 1450 3742
Q 1025 3253 1025 2328
Q 1025 1406 1450 917
Q 1875 428 2675 428
Q 3081 428 3442 575
Q 3803 722 4122 1019
L 4122 359
Q 3791 134 3420 21
Q 3050 -91 2638 -91
Q 1578 -91 968 557
Q 359 1206 359 2328
Q 359 3453 968 4101
Q 1578 4750 2638 4750
Q 3056 4750 3426 4639
Q 3797 4528 4122 4306
z
" transform="scale(0.015625)"/>
      <path id="DejaVuSans-76" d="M 191 3500
L 800 3500
L 1894 563
L 2988 3500
L 3597 3500
L 2284 0
L 1503 0
L 191 3500
z
" transform="scale(0.015625)"/>
     </defs>
     <use xlink:href="#DejaVuSans-43"/>
     <use xlink:href="#DejaVuSans-6c" transform="translate(69.824219 0)"/>
     <use xlink:href="#DejaVuSans-61" transform="translate(97.607422 0)"/>
     <use xlink:href="#DejaVuSans-69" transform="translate(158.886719 0)"/>
     <use xlink:href="#DejaVuSans-6d" transform="translate(186.669922 0)"/>
     <use xlink:href="#DejaVuSans-20" transform="translate(284.082031 0)"/>
     <use xlink:href="#DejaVuSans-65" transform="translate(315.869141 0)"/>
     <use xlink:href="#DejaVuSans-76" transform="translate(377.392578 0)"/>
     <use xlink:href="#DejaVuSans-65" transform="translate(436.572266 0)"/>
     <use xlink:href="#DejaVuSans-6e" transform="translate(498.095703 0)"/>
     <use xlink:href="#DejaVuSans-74" transform="translate(561.474609 0)"/>
    </g>
   </g>
   <g id="text_8">
    <!-- Policy change -->
    <g style="fill: #172033" transform="translate(271.134 265.391392) scale(0.108 -0.108)">
     <defs>
      <path id="DejaVuSans-50" d="M 1259 4147
L 1259 2394
L 2053 2394
Q 2494 2394 2734 2622
Q 2975 2850 2975 3272
Q 2975 3691 2734 3919
Q 2494 4147 2053 4147
L 1259 4147
z
M 628 4666
L 2053 4666
Q 2838 4666 3239 4311
Q 3641 3956 3641 3272
Q 3641 2581 3239 2228
Q 2838 1875 2053 1875
L 1259 1875
L 1259 0
L 628 0
L 628 4666
z
" transform="scale(0.015625)"/>
      <path id="DejaVuSans-63" d="M 3122 3366
L 3122 2828
Q 2878 2963 2633 3030
Q 2388 3097 2138 3097
Q 1578 3097 1268 2742
Q 959 2388 959 1747
Q 959 1106 1268 751
Q 1578 397 2138 397
Q 2388 397 2633 464
Q 2878 531 3122 666
L 3122 134
Q 2881 22 2623 -34
Q 2366 -91 2075 -91
Q 1284 -91 818 406
Q 353 903 353 1747
Q 353 2603 823 3093
Q 1294 3584 2113 3584
Q 2378 3584 2631 3529
Q 2884 3475 3122 3366
z
" transform="scale(0.015625)"/>
      <path id="DejaVuSans-68" d="M 3513 2113
L 3513 0
L 2938 0
L 2938 2094
Q 2938 2591 2744 2837
Q 2550 3084 2163 3084
Q 1697 3084 1428 2787
Q 1159 2491 1159 1978
L 1159 0
L 581 0
L 581 4863
L 1159 4863
L 1159 2956
Q 1366 3272 1645 3428
Q 1925 3584 2291 3584
Q 2894 3584 3203 3211
Q 3513 2838 3513 2113
z
" transform="scale(0.015625)"/>
      <path id="DejaVuSans-67" d="M 2906 1791
Q 2906 2416 2648 2759
Q 2391 3103 1925 3103
Q 1463 3103 1205 2759
Q 947 2416 947 1791
Q 947 1169 1205 825
Q 1463 481 1925 481
Q 2391 481 2648 825
Q 2906 1169 2906 1791
z
M 3481 434
Q 3481 -459 3084 -895
Q 2688 -1331 1869 -1331
Q 1566 -1331 1297 -1286
Q 1028 -1241 775 -1147
L 775 -588
Q 1028 -725 1275 -790
Q 1522 -856 1778 -856
Q 2344 -856 2625 -561
Q 2906 -266 2906 331
L 2906 616
Q 2728 306 2450 153
Q 2172 0 1784 0
Q 1141 0 747 490
Q 353 981 353 1791
Q 353 2603 747 3093
Q 1141 3584 1784 3584
Q 2172 3584 2450 3431
Q 2728 3278 2906 2969
L 2906 3500
L 3481 3500
L 3481 434
z
" transform="scale(0.015625)"/>
     </defs>
     <use xlink:href="#DejaVuSans-50"/>
     <use xlink:href="#DejaVuSans-6f" transform="translate(56.677734 0)"/>
     <use xlink:href="#DejaVuSans-6c" transform="translate(117.859375 0)"/>
     <use xlink:href="#DejaVuSans-69" transform="translate(145.642578 0)"/>
     <use xlink:href="#DejaVuSans-63" transform="translate(173.425781 0)"/>
     <use xlink:href="#DejaVuSans-79" transform="translate(228.40625 0)"/>
     <use xlink:href="#DejaVuSans-20" transform="translate(287.585938 0)"/>
     <use xlink:href="#DejaVuSans-63" transform="translate(319.373047 0)"/>
     <use xlink:href="#DejaVuSans-68" transform="translate(374.353516 0)"/>
     <use xlink:href="#DejaVuSans-61" transform="translate(437.732422 0)"/>
     <use xlink:href="#DejaVuSans-6e" transform="translate(499.011719 0)"/>
     <use xlink:href="#DejaVuSans-67" transform="translate(562.390625 0)"/>
     <use xlink:href="#DejaVuSans-65" transform="translate(625.867188 0)"/>
    </g>
   </g>
   <g id="text_9">
    <!-- Access Rules Must Be Joined As Of the Claim Date -->
    <g style="fill: #172033" transform="translate(61.129688 20.877187) scale(0.18 -0.18)">
     <defs>
      <path id="DejaVuSans-Bold-41" d="M 3419 850
L 1538 850
L 1241 0
L 31 0
L 1759 4666
L 3194 4666
L 4922 0
L 3713 0
L 3419 850
z
M 1838 1716
L 3116 1716
L 2478 3572
L 1838 1716
z
" transform="scale(0.015625)"/>
      <path id="DejaVuSans-Bold-73" d="M 3272 3391
L 3272 2541
Q 2913 2691 2578 2766
Q 2244 2841 1947 2841
Q 1628 2841 1473 2761
Q 1319 2681 1319 2516
Q 1319 2381 1436 2309
Q 1553 2238 1856 2203
L 2053 2175
Q 2913 2066 3209 1816
Q 3506 1566 3506 1031
Q 3506 472 3093 190
Q 2681 -91 1863 -91
Q 1516 -91 1145 -36
Q 775 19 384 128
L 384 978
Q 719 816 1070 734
Q 1422 653 1784 653
Q 2113 653 2278 743
Q 2444 834 2444 1013
Q 2444 1163 2330 1236
Q 2216 1309 1875 1350
L 1678 1375
Q 931 1469 631 1722
Q 331 1975 331 2491
Q 331 3047 712 3315
Q 1094 3584 1881 3584
Q 2191 3584 2531 3537
Q 2872 3491 3272 3391
z
" transform="scale(0.015625)"/>
      <path id="DejaVuSans-Bold-52" d="M 2297 2597
Q 2675 2597 2839 2737
Q 3003 2878 3003 3200
Q 3003 3519 2839 3656
Q 2675 3794 2297 3794
L 1791 3794
L 1791 2597
L 2297 2597
z
M 1791 1766
L 1791 0
L 588 0
L 588 4666
L 2425 4666
Q 3347 4666 3776 4356
Q 4206 4047 4206 3378
Q 4206 2916 3982 2619
Q 3759 2322 3309 2181
Q 3556 2125 3751 1926
Q 3947 1728 4147 1325
L 4800 0
L 3519 0
L 2950 1159
Q 2778 1509 2601 1637
Q 2425 1766 2131 1766
L 1791 1766
z
" transform="scale(0.015625)"/>
      <path id="DejaVuSans-Bold-74" d="M 1759 4494
L 1759 3500
L 2913 3500
L 2913 2700
L 1759 2700
L 1759 1216
Q 1759 972 1856 886
Q 1953 800 2241 800
L 2816 800
L 2816 0
L 1856 0
Q 1194 0 917 276
Q 641 553 641 1216
L 641 2700
L 84 2700
L 84 3500
L 641 3500
L 641 4494
L 1759 4494
z
" transform="scale(0.015625)"/>
      <path id="DejaVuSans-Bold-42" d="M 2456 2859
Q 2741 2859 2887 2984
Q 3034 3109 3034 3353
Q 3034 3594 2887 3720
Q 2741 3847 2456 3847
L 1791 3847
L 1791 2859
L 2456 2859
z
M 2497 819
Q 2859 819 3042 972
Q 3225 1125 3225 1434
Q 3225 1738 3044 1889
Q 2863 2041 2497 2041
L 1791 2041
L 1791 819
L 2497 819
z
M 3616 2497
Q 4003 2384 4215 2081
Q 4428 1778 4428 1338
Q 4428 663 3972 331
Q 3516 0 2584 0
L 588 0
L 588 4666
L 2394 4666
Q 3366 4666 3802 4372
Q 4238 4078 4238 3431
Q 4238 3091 4078 2852
Q 3919 2613 3616 2497
z
" transform="scale(0.015625)"/>
      <path id="DejaVuSans-Bold-64" d="M 2919 2988
L 2919 4863
L 4044 4863
L 4044 0
L 2919 0
L 2919 506
Q 2688 197 2409 53
Q 2131 -91 1766 -91
Q 1119 -91 703 423
Q 288 938 288 1747
Q 288 2556 703 3070
Q 1119 3584 1766 3584
Q 2128 3584 2408 3439
Q 2688 3294 2919 2988
z
M 2181 722
Q 2541 722 2730 984
Q 2919 1247 2919 1747
Q 2919 2247 2730 2509
Q 2541 2772 2181 2772
Q 1825 2772 1636 2509
Q 1447 2247 1447 1747
Q 1447 1247 1636 984
Q 1825 722 2181 722
z
" transform="scale(0.015625)"/>
      <path id="DejaVuSans-Bold-4f" d="M 2719 3878
Q 2169 3878 1866 3472
Q 1563 3066 1563 2328
Q 1563 1594 1866 1187
Q 2169 781 2719 781
Q 3272 781 3575 1187
Q 3878 1594 3878 2328
Q 3878 3066 3575 3472
Q 3272 3878 2719 3878
z
M 2719 4750
Q 3844 4750 4481 4106
Q 5119 3463 5119 2328
Q 5119 1197 4481 553
Q 3844 -91 2719 -91
Q 1597 -91 958 553
Q 319 1197 319 2328
Q 319 3463 958 4106
Q 1597 4750 2719 4750
z
" transform="scale(0.015625)"/>
      <path id="DejaVuSans-Bold-66" d="M 2841 4863
L 2841 4128
L 2222 4128
Q 1984 4128 1890 4042
Q 1797 3956 1797 3744
L 1797 3500
L 2753 3500
L 2753 2700
L 1797 2700
L 1797 0
L 678 0
L 678 2700
L 122 2700
L 122 3500
L 678 3500
L 678 3744
Q 678 4316 997 4589
Q 1316 4863 1984 4863
L 2841 4863
z
" transform="scale(0.015625)"/>
      <path id="DejaVuSans-Bold-43" d="M 4288 256
Q 3956 84 3597 -3
Q 3238 -91 2847 -91
Q 1681 -91 1000 561
Q 319 1213 319 2328
Q 319 3447 1000 4098
Q 1681 4750 2847 4750
Q 3238 4750 3597 4662
Q 3956 4575 4288 4403
L 4288 3438
Q 3953 3666 3628 3772
Q 3303 3878 2944 3878
Q 2300 3878 1931 3465
Q 1563 3053 1563 2328
Q 1563 1606 1931 1193
Q 2300 781 2944 781
Q 3303 781 3628 887
Q 3953 994 4288 1222
L 4288 256
z
" transform="scale(0.015625)"/>
      <path id="DejaVuSans-Bold-44" d="M 1791 3756
L 1791 909
L 2222 909
Q 2959 909 3348 1275
Q 3738 1641 3738 2338
Q 3738 3031 3350 3393
Q 2963 3756 2222 3756
L 1791 3756
z
M 588 4666
L 1856 4666
Q 2919 4666 3439 4514
Q 3959 4363 4331 4000
Q 4659 3684 4818 3271
Q 4978 2859 4978 2338
Q 4978 1809 4818 1395
Q 4659 981 4331 666
Q 3956 303 3431 151
Q 2906 0 1856 0
L 588 0
L 588 4666
z
" transform="scale(0.015625)"/>
     </defs>
     <use xlink:href="#DejaVuSans-Bold-41"/>
     <use xlink:href="#DejaVuSans-Bold-63" transform="translate(77.392578 0)"/>
     <use xlink:href="#DejaVuSans-Bold-63" transform="translate(136.669922 0)"/>
     <use xlink:href="#DejaVuSans-Bold-65" transform="translate(195.947266 0)"/>
     <use xlink:href="#DejaVuSans-Bold-73" transform="translate(263.769531 0)"/>
     <use xlink:href="#DejaVuSans-Bold-73" transform="translate(323.291016 0)"/>
     <use xlink:href="#DejaVuSans-Bold-20" transform="translate(382.8125 0)"/>
     <use xlink:href="#DejaVuSans-Bold-52" transform="translate(417.626953 0)"/>
     <use xlink:href="#DejaVuSans-Bold-75" transform="translate(494.628906 0)"/>
     <use xlink:href="#DejaVuSans-Bold-6c" transform="translate(565.820312 0)"/>
     <use xlink:href="#DejaVuSans-Bold-65" transform="translate(600.097656 0)"/>
     <use xlink:href="#DejaVuSans-Bold-73" transform="translate(667.919922 0)"/>
     <use xlink:href="#DejaVuSans-Bold-20" transform="translate(727.441406 0)"/>
     <use xlink:href="#DejaVuSans-Bold-4d" transform="translate(762.255859 0)"/>
     <use xlink:href="#DejaVuSans-Bold-75" transform="translate(861.767578 0)"/>
     <use xlink:href="#DejaVuSans-Bold-73" transform="translate(932.958984 0)"/>
     <use xlink:href="#DejaVuSans-Bold-74" transform="translate(992.480469 0)"/>
     <use xlink:href="#DejaVuSans-Bold-20" transform="translate(1040.283203 0)"/>
     <use xlink:href="#DejaVuSans-Bold-42" transform="translate(1075.097656 0)"/>
     <use xlink:href="#DejaVuSans-Bold-65" transform="translate(1151.318359 0)"/>
     <use xlink:href="#DejaVuSans-Bold-20" transform="translate(1219.140625 0)"/>
     <use xlink:href="#DejaVuSans-Bold-4a" transform="translate(1253.955078 0)"/>
     <use xlink:href="#DejaVuSans-Bold-6f" transform="translate(1291.162109 0)"/>
     <use xlink:href="#DejaVuSans-Bold-69" transform="translate(1359.863281 0)"/>
     <use xlink:href="#DejaVuSans-Bold-6e" transform="translate(1394.140625 0)"/>
     <use xlink:href="#DejaVuSans-Bold-65" transform="translate(1465.332031 0)"/>
     <use xlink:href="#DejaVuSans-Bold-64" transform="translate(1533.154297 0)"/>
     <use xlink:href="#DejaVuSans-Bold-20" transform="translate(1604.736328 0)"/>
     <use xlink:href="#DejaVuSans-Bold-41" transform="translate(1639.550781 0)"/>
     <use xlink:href="#DejaVuSans-Bold-73" transform="translate(1716.943359 0)"/>
     <use xlink:href="#DejaVuSans-Bold-20" transform="translate(1776.464844 0)"/>
     <use xlink:href="#DejaVuSans-Bold-4f" transform="translate(1811.279297 0)"/>
     <use xlink:href="#DejaVuSans-Bold-66" transform="translate(1896.289062 0)"/>
     <use xlink:href="#DejaVuSans-Bold-20" transform="translate(1939.794922 0)"/>
     <use xlink:href="#DejaVuSans-Bold-74" transform="translate(1974.609375 0)"/>
     <use xlink:href="#DejaVuSans-Bold-68" transform="translate(2022.412109 0)"/>
     <use xlink:href="#DejaVuSans-Bold-65" transform="translate(2093.603516 0)"/>
     <use xlink:href="#DejaVuSans-Bold-20" transform="translate(2161.425781 0)"/>
     <use xlink:href="#DejaVuSans-Bold-43" transform="translate(2196.240234 0)"/>
     <use xlink:href="#DejaVuSans-Bold-6c" transform="translate(2269.628906 0)"/>
     <use xlink:href="#DejaVuSans-Bold-61" transform="translate(2303.90625 0)"/>
     <use xlink:href="#DejaVuSans-Bold-69" transform="translate(2371.386719 0)"/>
     <use xlink:href="#DejaVuSans-Bold-6d" transform="translate(2405.664062 0)"/>
     <use xlink:href="#DejaVuSans-Bold-20" transform="translate(2509.863281 0)"/>
     <use xlink:href="#DejaVuSans-Bold-44" transform="translate(2544.677734 0)"/>
     <use xlink:href="#DejaVuSans-Bold-61" transform="translate(2627.685547 0)"/>
     <use xlink:href="#DejaVuSans-Bold-74" transform="translate(2695.166016 0)"/>
     <use xlink:href="#DejaVuSans-Bold-65" transform="translate(2742.96875 0)"/>
    </g>
   </g>
  </g>
 </g>
 <defs>
  <clipPath id="pb4fe4a1eca">
   <rect x="7.2" y="38.877187" width="613.8" height="266.112"/>
  </clipPath>
 </defs>
</svg>
