<?xml version="1.0" encoding="utf-8" standalone="no"?>
<!DOCTYPE svg PUBLIC "-//W3C//DTD SVG 1.1//EN"
  "http://www.w3.org/Graphics/SVG/1.1/DTD/svg11.dtd">
<svg xmlns:xlink="http://www.w3.org/1999/xlink" width="566.031562pt" height="422.481562pt" viewBox="0 0 566.031562 422.481562" xmlns="http://www.w3.org/2000/svg" version="1.1">
 <metadata>
  <rdf:RDF xmlns:dc="http://purl.org/dc/elements/1.1/" xmlns:cc="http://creativecommons.org/ns#" xmlns:rdf="http://www.w3.org/1999/02/22-rdf-syntax-ns#">
   <cc:Work>
    <dc:type rdf:resource="http://purl.org/dc/dcmitype/StillImage"/>
    <dc:date>2026-06-24T19:29:54.898524</dc:date>
    <dc:format>image/svg+xml</dc:format>
    <dc:creator>
     <cc:Agent>
      <dc:title>Matplotlib v3.10.9, https://matplotlib.org/</dc:title>
     </cc:Agent>
    </dc:creator>
   </cc:Work>
  </rdf:RDF>
 </metadata>
 <defs>
  <style type="text/css">*{stroke-linejoin: round; stroke-linecap: butt}</style>
 </defs>
 <g id="figure_1">
  <g id="patch_1">
   <path d="M 0 422.481562
L 566.031562 422.481562
L 566.031562 0
L 0 0
z
" style="fill: #ffffff"/>
  </g>
  <g id="axes_1">
   <g id="patch_2">
    <path d="M 45.371563 383.9575
L 558.831563 383.9575
L 558.831563 25.3575
L 45.371563 25.3575
z
" style="fill: #ffffff"/>
   </g>
   <g id="FillBetweenPolyCollection_1">
    <path d="M 45.371563 32.388873
L 45.371563 32.388873
L 121.039352 32.388873
L 121.039352 91.693425
L 126.444194 91.693425
L 126.444194 101.657508
L 142.65872 101.657508
L 142.65872 101.793781
L 145.361141 101.793781
L 145.361141 101.930042
L 148.063563 101.930042
L 148.063563 101.930042
L 175.087773 101.930042
L 175.087773 102.202664
L 185.897457 102.202664
L 185.897457 102.202664
L 188.599878 102.202664
L 188.599878 105.472286
L 191.302299 105.472286
L 191.302299 108.641772
L 194.00472 108.641772
L 194.00472 112.415831
L 196.707141 112.415831
L 196.707141 114.973717
L 199.409563 114.973717
L 199.409563 118.43746
L 202.111984 118.43746
L 202.111984 122.991509
L 204.814405 122.991509
L 204.814405 125.977971
L 207.516826 125.977971
L 207.516826 133.005324
L 210.219247 133.005324
L 210.219247 137.280453
L 212.921668 137.280453
L 212.921668 141.980379
L 215.624089 141.980379
L 215.624089 145.121459
L 218.32651 145.121459
L 218.32651 148.86148
L 221.028931 148.86148
L 221.028931 149.209979
L 223.731352 149.209979
L 223.731352 149.209979
L 226.433773 149.209979
L 226.433773 149.911489
L 229.136194 149.911489
L 229.136194 150.966486
L 231.838615 150.966486
L 231.838615 151.496188
L 234.541036 151.496188
L 234.541036 152.02697
L 250.755563 152.02697
L 250.755563 152.204139
L 253.457984 152.204139
L 253.457984 152.204139
L 256.160405 152.204139
L 256.160405 152.204139
L 258.862826 152.204139
L 258.862826 152.915385
L 261.565247 152.915385
L 261.565247 153.98511
L 264.267668 153.98511
L 264.267668 155.420601
L 266.970089 155.420601
L 266.970089 155.962066
L 269.67251 155.962066
L 269.67251 157.965293
L 272.374931 157.965293
L 272.374931 159.795135
L 275.077352 159.795135
L 275.077352 161.454227
L 277.779773 161.454227
L 277.779773 163.688453
L 280.482194 163.688453
L 280.482194 165.95486
L 283.184615 165.95486
L 283.184615 168.637836
L 285.887036 168.637836
L 285.887036 170.989234
L 288.589457 170.989234
L 288.589457 177.967472
L 291.291878 177.967472
L 291.291878 180.081613
L 293.994299 180.081613
L 293.994299 185.446249
L 296.69672 185.446249
L 296.69672 190.025803
L 299.399141 190.025803
L 299.399141 194.221835
L 302.101562 194.221835
L 302.101562 198.049105
L 304.803984 198.049105
L 304.803984 199.656022
L 307.506405 199.656022
L 307.506405 200.36007
L 310.208826 200.36007
L 310.208826 202.503525
L 312.911247 202.503525
L 312.911247 204.667325
L 315.613668 204.667325
L 315.613668 205.153047
L 318.316089 205.153047
L 318.316089 206.375107
L 321.01851 206.375107
L 321.01851 207.608252
L 323.720931 207.608252
L 323.720931 208.104058
L 326.423352 208.104058
L 326.423352 209.343018
L 329.125773 209.343018
L 329.125773 209.839788
L 331.828194 209.839788
L 331.828194 210.586832
L 334.530615 210.586832
L 334.530615 211.333591
L 337.233036 211.333591
L 337.233036 211.582806
L 339.935457 211.582806
L 339.935457 212.083306
L 342.637878 212.083306
L 342.637878 213.836596
L 345.340299 213.836596
L 345.340299 214.843689
L 348.04272 214.843689
L 348.04272 215.60318
L 350.745141 215.60318
L 350.745141 216.37043
L 353.447563 216.37043
L 353.447563 217.143256
L 356.149984 217.143256
L 356.149984 219.228264
L 358.852405 219.228264
L 358.852405 219.755813
L 361.554826 219.755813
L 361.554826 221.927053
L 364.257247 221.927053
L 364.257247 224.41212
L 366.959668 224.41212
L 366.959668 227.232311
L 369.662089 227.232311
L 369.662089 230.120234
L 372.36451 230.120234
L 372.36451 233.960224
L 375.066931 233.960224
L 375.066931 237.015567
L 377.769352 237.015567
L 377.769352 240.469461
L 380.471773 240.469461
L 380.471773 243.066817
L 383.174194 243.066817
L 383.174194 245.739068
L 385.876615 245.739068
L 385.876615 248.505825
L 388.579036 248.505825
L 388.579036 249.953149
L 391.281457 249.953149
L 391.281457 252.610075
L 393.983878 252.610075
L 393.983878 253.783953
L 396.686299 253.783953
L 396.686299 255.779345
L 399.38872 255.779345
L 399.38872 256.190708
L 402.091141 256.190708
L 402.091141 257.020913
L 404.793563 257.020913
L 404.793563 258.311015
L 407.495984 258.311015
L 407.495984 260.028529
L 410.198405 260.028529
L 410.198405 260.892113
L 412.900826 260.892113
L 412.900826 262.204349
L 415.603247 262.204349
L 415.603247 262.204349
L 418.305668 262.204349
L 418.305668 263.09405
L 421.008089 263.09405
L 421.008089 263.992768
L 423.71051 263.992768
L 423.71051 264.445171
L 426.412931 264.445171
L 426.412931 265.816512
L 429.115352 265.816512
L 429.115352 267.185835
L 431.817773 267.185835
L 431.817773 268.115624
L 434.520194 268.115624
L 434.520194 269.519706
L 437.222615 269.519706
L 437.222615 270.933081
L 439.925036 270.933081
L 439.925036 272.361956
L 442.627457 272.361956
L 442.627457 273.338041
L 445.329878 273.338041
L 445.329878 276.406783
L 448.032299 276.406783
L 448.032299 278.515477
L 450.73472 278.515477
L 450.73472 280.671711
L 453.437141 280.671711
L 453.437141 281.221162
L 456.139563 281.221162
L 456.139563 284.635262
L 458.841984 284.635262
L 458.841984 287.023413
L 461.544405 287.023413
L 461.544405 291.421133
L 464.246826 291.421133
L 464.246826 294.060869
L 466.949247 294.060869
L 466.949247 296.122008
L 469.651668 296.122008
L 469.651668 300.384348
L 472.354089 300.384348
L 472.354089 306.207641
L 475.05651 306.207641
L 475.05651 309.204467
L 477.758931 309.204467
L 477.758931 309.204467
L 480.461352 309.204467
L 480.461352 311.794677
L 483.163773 311.794677
L 483.163773 314.595957
L 485.866194 314.595957
L 485.866194 317.528432
L 488.568615 317.528432
L 488.568615 318.57501
L 491.271036 318.57501
L 491.271036 320.758927
L 493.973457 320.758927
L 493.973457 320.758927
L 496.675878 320.758927
L 496.675878 321.943542
L 499.378299 321.943542
L 499.378299 323.12289
L 502.08072 323.12289
L 502.08072 324.342595
L 507.485563 324.342595
L 507.485563 324.342595
L 510.187984 324.342595
L 510.187984 324.342595
L 523.700089 324.342595
L 523.700089 324.342595
L 526.40251 324.342595
L 526.40251 325.688569
L 529.104931 325.688569
L 529.104931 327.088254
L 531.807352 327.088254
L 531.807352 327.088254
L 534.509773 327.088254
L 534.509773 327.088254
L 537.212194 327.088254
L 537.212194 328.662733
L 539.914615 328.662733
L 539.914615 332.041554
L 542.617036 332.041554
L 542.617036 333.814098
L 545.319457 333.814098
L 545.319457 335.759562
L 550.724299 335.759562
L 550.724299 335.759562
L 553.42672 335.759562
L 553.42672 335.759562
L 556.129141 335.759562
L 556.129141 335.759562
L 558.831563 335.759562
L 558.831563 339.15715
L 561.533984 339.15715
L 561.533984 339.15715
L 572.343668 339.15715
L 572.343668 339.15715
L 577.74851 339.15715
L 577.74851 339.15715
L 696.655036 339.15715
L 696.655036 339.15715
L 702.059878 339.15715
L 702.059878 339.15715
L 704.762299 339.15715
L 704.762299 344.882426
L 712.869563 344.882426
L 712.869563 344.882426
L 739.893773 344.882426
L 739.893773 344.882426
L 775.025247 344.882426
L 775.025247 344.882426
L 777.727668 344.882426
L 777.727668 344.882426
L 785.834931 344.882426
L 785.834931 344.882426
L 788.537352 344.882426
L 788.537352 344.882426
L 791.239773 344.882426
L 791.239773 344.882426
L 796.644615 344.882426
L 796.644615 344.882426
L 807.454299 344.882426
L 807.454299 344.882426
L 1029.052826 344.882426
L 1029.052826 344.882426
L 1029.052826 316.850024
L 1029.052826 316.850024
L 1029.052826 316.850024
L 807.454299 316.850024
L 807.454299 316.850024
L 796.644615 316.850024
L 796.644615 316.850024
L 791.239773 316.850024
L 791.239773 316.850024
L 788.537352 316.850024
L 788.537352 316.850024
L 785.834931 316.850024
L 785.834931 316.850024
L 777.727668 316.850024
L 777.727668 316.850024
L 775.025247 316.850024
L 775.025247 316.850024
L 739.893773 316.850024
L 739.893773 316.850024
L 712.869563 316.850024
L 712.869563 316.850024
L 704.762299 316.850024
L 704.762299 314.446227
L 702.059878 314.446227
L 702.059878 314.446227
L 696.655036 314.446227
L 696.655036 314.446227
L 577.74851 314.446227
L 577.74851 314.446227
L 572.343668 314.446227
L 572.343668 314.446227
L 561.533984 314.446227
L 561.533984 314.446227
L 558.831563 314.446227
L 558.831563 312.407265
L 556.129141 312.407265
L 556.129141 312.407265
L 553.42672 312.407265
L 553.42672 312.407265
L 550.724299 312.407265
L 550.724299 312.407265
L 545.319457 312.407265
L 545.319457 310.835985
L 542.617036 310.835985
L 542.617036 309.368359
L 539.914615 309.368359
L 539.914615 306.579262
L 537.212194 306.579262
L 537.212194 305.269688
L 534.509773 305.269688
L 534.509773 305.269688
L 531.807352 305.269688
L 531.807352 305.269688
L 529.104931 305.269688
L 529.104931 304.062813
L 526.40251 304.062813
L 526.40251 302.896623
L 523.700089 302.896623
L 523.700089 302.896623
L 510.187984 302.896623
L 510.187984 302.896623
L 507.485563 302.896623
L 507.485563 302.896623
L 502.08072 302.896623
L 502.08072 301.810307
L 499.378299 301.810307
L 499.378299 300.75548
L 496.675878 300.75548
L 496.675878 299.705423
L 493.973457 299.705423
L 493.973457 299.705423
L 491.271036 299.705423
L 491.271036 297.734813
L 488.568615 297.734813
L 488.568615 296.785937
L 485.866194 296.785937
L 485.866194 294.0969
L 483.163773 294.0969
L 483.163773 291.528222
L 480.461352 291.528222
L 480.461352 289.127985
L 477.758931 289.127985
L 477.758931 289.127985
L 475.05651 289.127985
L 475.05651 286.275143
L 472.354089 286.275143
L 472.354089 280.77332
L 469.651668 280.77332
L 469.651668 276.788897
L 466.949247 276.788897
L 466.949247 274.866367
L 464.246826 274.866367
L 464.246826 272.398653
L 461.544405 272.398653
L 461.544405 268.283302
L 458.841984 268.283302
L 458.841984 266.044543
L 456.139563 266.044543
L 456.139563 262.835243
L 453.437141 262.835243
L 453.437141 262.317589
L 450.73472 262.317589
L 450.73472 260.284763
L 448.032299 260.284763
L 448.032299 258.297728
L 445.329878 258.297728
L 445.329878 255.405653
L 442.627457 255.405653
L 442.627457 254.481618
L 439.925036 254.481618
L 439.925036 253.126141
L 437.222615 253.126141
L 437.222615 251.78648
L 434.520194 251.78648
L 434.520194 250.457724
L 431.817773 250.457724
L 431.817773 249.578766
L 429.115352 249.578766
L 429.115352 248.282918
L 426.412931 248.282918
L 426.412931 246.988916
L 423.71051 246.988916
L 423.71051 246.561991
L 421.008089 246.561991
L 421.008089 245.713963
L 418.305668 245.713963
L 418.305668 244.874371
L 415.603247 244.874371
L 415.603247 244.874371
L 412.900826 244.874371
L 412.900826 243.634929
L 410.198405 243.634929
L 410.198405 242.819053
L 407.495984 242.819053
L 407.495984 241.198654
L 404.793563 241.198654
L 404.793563 239.985152
L 402.091141 239.985152
L 402.091141 239.201034
L 399.38872 239.201034
L 399.38872 238.812338
L 396.686299 238.812338
L 396.686299 236.921254
L 393.983878 236.921254
L 393.983878 235.808089
L 391.281457 235.808089
L 391.281457 233.283977
L 388.579036 233.283977
L 388.579036 231.903129
L 385.876615 231.903129
L 385.876615 229.253426
L 383.174194 229.253426
L 383.174194 226.690649
L 380.471773 226.690649
L 380.471773 224.198097
L 377.769352 224.198097
L 377.769352 220.880559
L 375.066931 220.880559
L 375.066931 217.946358
L 372.36451 217.946358
L 372.36451 214.256663
L 369.662089 214.256663
L 369.662089 211.484036
L 366.959668 211.484036
L 366.959668 208.776616
L 364.257247 208.776616
L 364.257247 206.391285
L 361.554826 206.391285
L 361.554826 204.307776
L 358.852405 204.307776
L 358.852405 203.800474
L 356.149984 203.800474
L 356.149984 201.795151
L 353.447563 201.795151
L 353.447563 201.051861
L 350.745141 201.051861
L 350.745141 200.313845
L 348.04272 200.313845
L 348.04272 199.582946
L 345.340299 199.582946
L 345.340299 198.613947
L 342.637878 198.613947
L 342.637878 196.928137
L 339.935457 196.928137
L 339.935457 196.44736
L 337.233036 196.44736
L 337.233036 196.207935
L 334.530615 196.207935
L 334.530615 195.490748
L 331.828194 195.490748
L 331.828194 194.773823
L 329.125773 194.773823
L 329.125773 194.297222
L 326.423352 194.297222
L 326.423352 193.109206
L 323.720931 193.109206
L 323.720931 192.634204
L 321.01851 192.634204
L 321.01851 191.453058
L 318.316089 191.453058
L 318.316089 190.282659
L 315.613668 190.282659
L 315.613668 189.817501
L 312.911247 189.817501
L 312.911247 187.745448
L 310.208826 187.745448
L 310.208826 185.694758
L 307.506405 185.694758
L 307.506405 185.020936
L 304.803984 185.020936
L 304.803984 183.480772
L 302.101562 183.480772
L 302.101562 179.813285
L 299.399141 179.813285
L 299.399141 175.79796
L 296.69672 175.79796
L 296.69672 171.426362
L 293.994299 171.426362
L 293.994299 166.318804
L 291.291878 166.318804
L 291.291878 164.309447
L 288.589457 164.309447
L 288.589457 157.661148
L 285.887036 157.661148
L 285.887036 155.425734
L 283.184615 155.425734
L 283.184615 152.874619
L 280.482194 152.874619
L 280.482194 150.720834
L 277.779773 150.720834
L 277.779773 148.598515
L 275.077352 148.598515
L 275.077352 147.023489
L 272.374931 147.023489
L 272.374931 145.287599
L 269.67251 145.287599
L 269.67251 143.389384
L 266.970089 143.389384
L 266.970089 142.876391
L 264.267668 142.876391
L 264.267668 141.516718
L 261.565247 141.516718
L 261.565247 140.503912
L 258.862826 140.503912
L 258.862826 139.83084
L 256.160405 139.83084
L 256.160405 139.83084
L 253.457984 139.83084
L 253.457984 139.83084
L 250.755563 139.83084
L 250.755563 139.663183
L 234.541036 139.663183
L 234.541036 139.16098
L 231.838615 139.16098
L 231.838615 138.659922
L 229.136194 138.659922
L 229.136194 137.662235
L 226.433773 137.662235
L 226.433773 136.999162
L 223.731352 136.999162
L 223.731352 136.999162
L 221.028931 136.999162
L 221.028931 136.669693
L 218.32651 136.669693
L 218.32651 133.131212
L 215.624089 133.131212
L 215.624089 130.159779
L 212.921668 130.159779
L 212.921668 125.719661
L 210.219247 125.719661
L 210.219247 121.687128
L 207.516826 121.687128
L 207.516826 115.067756
L 204.814405 115.067756
L 204.814405 112.260934
L 202.111984 112.260934
L 202.111984 107.988739
L 199.409563 107.988739
L 199.409563 104.746004
L 196.707141 104.746004
L 196.707141 102.354673
L 194.00472 102.354673
L 194.00472 98.831726
L 191.302299 98.831726
L 191.302299 95.879513
L 188.599878 95.879513
L 188.599878 92.841051
L 185.897457 92.841051
L 185.897457 92.841051
L 175.087773 92.841051
L 175.087773 92.588218
L 148.063563 92.588218
L 148.063563 92.588218
L 145.361141 92.588218
L 145.361141 92.461871
L 142.65872 92.461871
L 142.65872 92.335535
L 126.444194 92.335535
L 126.444194 83.129275
L 121.039352 83.129275
L 121.039352 32.388873
L 45.371563 32.388873
z
" clip-path="url(#pa54bf15ddb)" style="fill: #7fb685; fill-opacity: 0.18; stroke: #7fb685; stroke-opacity: 0.18"/>
   </g>
   <g id="matplotlib.axis_1">
    <g id="xtick_1">
     <g id="line2d_1">
      <defs>
       <path id="mb4901ec873" d="M 0 0
L 0 3.5
" style="stroke: #000000; stroke-width: 0.8"/>
      </defs>
      <g>
       <use xlink:href="#mb4901ec873" x="45.371563" y="383.9575" style="stroke: #000000; stroke-width: 0.8"/>
      </g>
     </g>
     <g id="text_1">
      <!-- 0 -->
      <g transform="translate(41.872188 399.315781) scale(0.11 -0.11)">
       <defs>
        <path id="DejaVuSans-30" d="M 2034 4250
Q 1547 4250 1301 3770
Q 1056 3291 1056 2328
Q 1056 1369 1301 889
Q 1547 409 2034 409
Q 2525 409 2770 889
Q 3016 1369 3016 2328
Q 3016 3291 2770 3770
Q 2525 4250 2034 4250
z
M 2034 4750
Q 2819 4750 3233 4129
Q 3647 3509 3647 2328
Q 3647 1150 3233 529
Q 2819 -91 2034 -91
Q 1250 -91 836 529
Q 422 1150 422 2328
Q 422 3509 836 4129
Q 1250 4750 2034 4750
z
" transform="scale(0.015625)"/>
       </defs>
       <use xlink:href="#DejaVuSans-30"/>
      </g>
     </g>
    </g>
    <g id="xtick_2">
     <g id="line2d_2">
      <g>
       <use xlink:href="#mb4901ec873" x="112.932089" y="383.9575" style="stroke: #000000; stroke-width: 0.8"/>
      </g>
     </g>
     <g id="text_2">
      <!-- 25 -->
      <g transform="translate(105.933339 399.315781) scale(0.11 -0.11)">
       <defs>
        <path id="DejaVuSans-32" d="M 1228 531
L 3431 531
L 3431 0
L 469 0
L 469 531
Q 828 903 1448 1529
Q 2069 2156 2228 2338
Q 2531 2678 2651 2914
Q 2772 3150 2772 3378
Q 2772 3750 2511 3984
Q 2250 4219 1831 4219
Q 1534 4219 1204 4116
Q 875 4013 500 3803
L 500 4441
Q 881 4594 1212 4672
Q 1544 4750 1819 4750
Q 2544 4750 2975 4387
Q 3406 4025 3406 3419
Q 3406 3131 3298 2873
Q 3191 2616 2906 2266
Q 2828 2175 2409 1742
Q 1991 1309 1228 531
z
" transform="scale(0.015625)"/>
        <path id="DejaVuSans-35" d="M 691 4666
L 3169 4666
L 3169 4134
L 1269 4134
L 1269 2991
Q 1406 3038 1543 3061
Q 1681 3084 1819 3084
Q 2600 3084 3056 2656
Q 3513 2228 3513 1497
Q 3513 744 3044 326
Q 2575 -91 1722 -91
Q 1428 -91 1123 -41
Q 819 9 494 109
L 494 744
Q 775 591 1075 516
Q 1375 441 1709 441
Q 2250 441 2565 725
Q 2881 1009 2881 1497
Q 2881 1984 2565 2268
Q 2250 2553 1709 2553
Q 1456 2553 1204 2497
Q 953 2441 691 2322
L 691 4666
z
" transform="scale(0.015625)"/>
       </defs>
       <use xlink:href="#DejaVuSans-32"/>
       <use xlink:href="#DejaVuSans-35" transform="translate(63.623047 0)"/>
      </g>
     </g>
    </g>
    <g id="xtick_3">
     <g id="line2d_3">
      <g>
       <use xlink:href="#mb4901ec873" x="180.492615" y="383.9575" style="stroke: #000000; stroke-width: 0.8"/>
      </g>
     </g>
     <g id="text_3">
      <!-- 50 -->
      <g transform="translate(173.493865 399.315781) scale(0.11 -0.11)">
       <use xlink:href="#DejaVuSans-35"/>
       <use xlink:href="#DejaVuSans-30" transform="translate(63.623047 0)"/>
      </g>
     </g>
    </g>
    <g id="xtick_4">
     <g id="line2d_4">
      <g>
       <use xlink:href="#mb4901ec873" x="248.053141" y="383.9575" style="stroke: #000000; stroke-width: 0.8"/>
      </g>
     </g>
     <g id="text_4">
      <!-- 75 -->
      <g transform="translate(241.054391 399.315781) scale(0.11 -0.11)">
       <defs>
        <path id="DejaVuSans-37" d="M 525 4666
L 3525 4666
L 3525 4397
L 1831 0
L 1172 0
L 2766 4134
L 525 4134
L 525 4666
z
" transform="scale(0.015625)"/>
       </defs>
       <use xlink:href="#DejaVuSans-37"/>
       <use xlink:href="#DejaVuSans-35" transform="translate(63.623047 0)"/>
      </g>
     </g>
    </g>
    <g id="xtick_5">
     <g id="line2d_5">
      <g>
       <use xlink:href="#mb4901ec873" x="315.613668" y="383.9575" style="stroke: #000000; stroke-width: 0.8"/>
      </g>
     </g>
     <g id="text_5">
      <!-- 100 -->
      <g transform="translate(305.115543 399.315781) scale(0.11 -0.11)">
       <defs>
        <path id="DejaVuSans-31" d="M 794 531
L 1825 531
L 1825 4091
L 703 3866
L 703 4441
L 1819 4666
L 2450 4666
L 2450 531
L 3481 531
L 3481 0
L 794 0
L 794 531
z
" transform="scale(0.015625)"/>
       </defs>
       <use xlink:href="#DejaVuSans-31"/>
       <use xlink:href="#DejaVuSans-30" transform="translate(63.623047 0)"/>
       <use xlink:href="#DejaVuSans-30" transform="translate(127.246094 0)"/>
      </g>
     </g>
    </g>
    <g id="xtick_6">
     <g id="line2d_6">
      <g>
       <use xlink:href="#mb4901ec873" x="383.174194" y="383.9575" style="stroke: #000000; stroke-width: 0.8"/>
      </g>
     </g>
     <g id="text_6">
      <!-- 125 -->
      <g transform="translate(372.676069 399.315781) scale(0.11 -0.11)">
       <use xlink:href="#DejaVuSans-31"/>
       <use xlink:href="#DejaVuSans-32" transform="translate(63.623047 0)"/>
       <use xlink:href="#DejaVuSans-35" transform="translate(127.246094 0)"/>
      </g>
     </g>
    </g>
    <g id="xtick_7">
     <g id="line2d_7">
      <g>
       <use xlink:href="#mb4901ec873" x="450.73472" y="383.9575" style="stroke: #000000; stroke-width: 0.8"/>
      </g>
     </g>
     <g id="text_7">
      <!-- 150 -->
      <g transform="translate(440.236595 399.315781) scale(0.11 -0.11)">
       <use xlink:href="#DejaVuSans-31"/>
       <use xlink:href="#DejaVuSans-35" transform="translate(63.623047 0)"/>
       <use xlink:href="#DejaVuSans-30" transform="translate(127.246094 0)"/>
      </g>
     </g>
    </g>
    <g id="xtick_8">
     <g id="line2d_8">
      <g>
       <use xlink:href="#mb4901ec873" x="518.295247" y="383.9575" style="stroke: #000000; stroke-width: 0.8"/>
      </g>
     </g>
     <g id="text_8">
      <!-- 175 -->
      <g transform="translate(507.797122 399.315781) scale(0.11 -0.11)">
       <use xlink:href="#DejaVuSans-31"/>
       <use xlink:href="#DejaVuSans-37" transform="translate(63.623047 0)"/>
       <use xlink:href="#DejaVuSans-35" transform="translate(127.246094 0)"/>
      </g>
     </g>
    </g>
    <g id="text_9">
     <!-- Days from first fill -->
     <g transform="translate(257.526563 413.201875) scale(0.1 -0.1)">
      <defs>
       <path id="DejaVuSans-44" d="M 1259 4147
L 1259 519
L 2022 519
Q 2988 519 3436 956
Q 3884 1394 3884 2338
Q 3884 3275 3436 3711
Q 2988 4147 2022 4147
L 1259 4147
z
M 628 4666
L 1925 4666
Q 3281 4666 3915 4102
Q 4550 3538 4550 2338
Q 4550 1131 3912 565
Q 3275 0 1925 0
L 628 0
L 628 4666
z
" transform="scale(0.015625)"/>
       <path id="DejaVuSans-61" d="M 2194 1759
Q 1497 1759 1228 1600
Q 959 1441 959 1056
Q 959 750 1161 570
Q 1363 391 1709 391
Q 2188 391 2477 730
Q 2766 1069 2766 1631
L 2766 1759
L 2194 1759
z
M 3341 1997
L 3341 0
L 2766 0
L 2766 531
Q 2569 213 2275 61
Q 1981 -91 1556 -91
Q 1019 -91 701 211
Q 384 513 384 1019
Q 384 1609 779 1909
Q 1175 2209 1959 2209
L 2766 2209
L 2766 2266
Q 2766 2663 2505 2880
Q 2244 3097 1772 3097
Q 1472 3097 1187 3025
Q 903 2953 641 2809
L 641 3341
Q 956 3463 1253 3523
Q 1550 3584 1831 3584
Q 2591 3584 2966 3190
Q 3341 2797 3341 1997
z
" transform="scale(0.015625)"/>
       <path id="DejaVuSans-79" d="M 2059 -325
Q 1816 -950 1584 -1140
Q 1353 -1331 966 -1331
L 506 -1331
L 506 -850
L 844 -850
Q 1081 -850 1212 -737
Q 1344 -625 1503 -206
L 1606 56
L 191 3500
L 800 3500
L 1894 763
L 2988 3500
L 3597 3500
L 2059 -325
z
" transform="scale(0.015625)"/>
       <path id="DejaVuSans-73" d="M 2834 3397
L 2834 2853
Q 2591 2978 2328 3040
Q 2066 3103 1784 3103
Q 1356 3103 1142 2972
Q 928 2841 928 2578
Q 928 2378 1081 2264
Q 1234 2150 1697 2047
L 1894 2003
Q 2506 1872 2764 1633
Q 3022 1394 3022 966
Q 3022 478 2636 193
Q 2250 -91 1575 -91
Q 1294 -91 989 -36
Q 684 19 347 128
L 347 722
Q 666 556 975 473
Q 1284 391 1588 391
Q 1994 391 2212 530
Q 2431 669 2431 922
Q 2431 1156 2273 1281
Q 2116 1406 1581 1522
L 1381 1569
Q 847 1681 609 1914
Q 372 2147 372 2553
Q 372 3047 722 3315
Q 1072 3584 1716 3584
Q 2034 3584 2315 3537
Q 2597 3491 2834 3397
z
" transform="scale(0.015625)"/>
       <path id="DejaVuSans-20" transform="scale(0.015625)"/>
       <path id="DejaVuSans-66" d="M 2375 4863
L 2375 4384
L 1825 4384
Q 1516 4384 1395 4259
Q 1275 4134 1275 3809
L 1275 3500
L 2222 3500
L 2222 3053
L 1275 3053
L 1275 0
L 697 0
L 697 3053
L 147 3053
L 147 3500
L 697 3500
L 697 3744
Q 697 4328 969 4595
Q 1241 4863 1831 4863
L 2375 4863
z
" transform="scale(0.015625)"/>
       <path id="DejaVuSans-72" d="M 2631 2963
Q 2534 3019 2420 3045
Q 2306 3072 2169 3072
Q 1681 3072 1420 2755
Q 1159 2438 1159 1844
L 1159 0
L 581 0
L 581 3500
L 1159 3500
L 1159 2956
Q 1341 3275 1631 3429
Q 1922 3584 2338 3584
Q 2397 3584 2469 3576
Q 2541 3569 2628 3553
L 2631 2963
z
" transform="scale(0.015625)"/>
       <path id="DejaVuSans-6f" d="M 1959 3097
Q 1497 3097 1228 2736
Q 959 2375 959 1747
Q 959 1119 1226 758
Q 1494 397 1959 397
Q 2419 397 2687 759
Q 2956 1122 2956 1747
Q 2956 2369 2687 2733
Q 2419 3097 1959 3097
z
M 1959 3584
Q 2709 3584 3137 3096
Q 3566 2609 3566 1747
Q 3566 888 3137 398
Q 2709 -91 1959 -91
Q 1206 -91 779 398
Q 353 888 353 1747
Q 353 2609 779 3096
Q 1206 3584 1959 3584
z
" transform="scale(0.015625)"/>
       <path id="DejaVuSans-6d" d="M 3328 2828
Q 3544 3216 3844 3400
Q 4144 3584 4550 3584
Q 5097 3584 5394 3201
Q 5691 2819 5691 2113
L 5691 0
L 5113 0
L 5113 2094
Q 5113 2597 4934 2840
Q 4756 3084 4391 3084
Q 3944 3084 3684 2787
Q 3425 2491 3425 1978
L 3425 0
L 2847 0
L 2847 2094
Q 2847 2600 2669 2842
Q 2491 3084 2119 3084
Q 1678 3084 1418 2786
Q 1159 2488 1159 1978
L 1159 0
L 581 0
L 581 3500
L 1159 3500
L 1159 2956
Q 1356 3278 1631 3431
Q 1906 3584 2284 3584
Q 2666 3584 2933 3390
Q 3200 3197 3328 2828
z
" transform="scale(0.015625)"/>
       <path id="DejaVuSans-69" d="M 603 3500
L 1178 3500
L 1178 0
L 603 0
L 603 3500
z
M 603 4863
L 1178 4863
L 1178 4134
L 603 4134
L 603 4863
z
" transform="scale(0.015625)"/>
       <path id="DejaVuSans-74" d="M 1172 4494
L 1172 3500
L 2356 3500
L 2356 3053
L 1172 3053
L 1172 1153
Q 1172 725 1289 603
Q 1406 481 1766 481
L 2356 481
L 2356 0
L 1766 0
Q 1100 0 847 248
Q 594 497 594 1153
L 594 3053
L 172 3053
L 172 3500
L 594 3500
L 594 4494
L 1172 4494
z
" transform="scale(0.015625)"/>
       <path id="DejaVuSans-6c" d="M 603 4863
L 1178 4863
L 1178 0
L 603 0
L 603 4863
z
" transform="scale(0.015625)"/>
      </defs>
      <use xlink:href="#DejaVuSans-44"/>
      <use xlink:href="#DejaVuSans-61" transform="translate(77.001953 0)"/>
      <use xlink:href="#DejaVuSans-79" transform="translate(138.28125 0)"/>
      <use xlink:href="#DejaVuSans-73" transform="translate(197.460938 0)"/>
      <use xlink:href="#DejaVuSans-20" transform="translate(249.560547 0)"/>
      <use xlink:href="#DejaVuSans-66" transform="translate(281.347656 0)"/>
      <use xlink:href="#DejaVuSans-72" transform="translate(316.552734 0)"/>
      <use xlink:href="#DejaVuSans-6f" transform="translate(355.416016 0)"/>
      <use xlink:href="#DejaVuSans-6d" transform="translate(416.597656 0)"/>
      <use xlink:href="#DejaVuSans-20" transform="translate(514.009766 0)"/>
      <use xlink:href="#DejaVuSans-66" transform="translate(545.796875 0)"/>
      <use xlink:href="#DejaVuSans-69" transform="translate(581.001953 0)"/>
      <use xlink:href="#DejaVuSans-72" transform="translate(608.785156 0)"/>
      <use xlink:href="#DejaVuSans-73" transform="translate(649.898438 0)"/>
      <use xlink:href="#DejaVuSans-74" transform="translate(701.998047 0)"/>
      <use xlink:href="#DejaVuSans-20" transform="translate(741.207031 0)"/>
      <use xlink:href="#DejaVuSans-66" transform="translate(772.994141 0)"/>
      <use xlink:href="#DejaVuSans-69" transform="translate(808.199219 0)"/>
      <use xlink:href="#DejaVuSans-6c" transform="translate(835.982422 0)"/>
      <use xlink:href="#DejaVuSans-6c" transform="translate(863.765625 0)"/>
     </g>
    </g>
   </g>
   <g id="matplotlib.axis_2">
    <g id="ytick_1">
     <g id="line2d_9">
      <defs>
       <path id="m8e06aae08c" d="M 0 0
L -3.5 0
" style="stroke: #000000; stroke-width: 0.8"/>
      </defs>
      <g>
       <use xlink:href="#m8e06aae08c" x="45.371563" y="383.9575" style="stroke: #000000; stroke-width: 0.8"/>
      </g>
     </g>
     <g id="text_10">
      <!-- 0.0 -->
      <g transform="translate(20.878125 388.136641) scale(0.11 -0.11)">
       <defs>
        <path id="DejaVuSans-2e" d="M 684 794
L 1344 794
L 1344 0
L 684 0
L 684 794
z
" transform="scale(0.015625)"/>
       </defs>
       <use xlink:href="#DejaVuSans-30"/>
       <use xlink:href="#DejaVuSans-2e" transform="translate(63.623047 0)"/>
       <use xlink:href="#DejaVuSans-30" transform="translate(95.410156 0)"/>
      </g>
     </g>
    </g>
    <g id="ytick_2">
     <g id="line2d_10">
      <g>
       <use xlink:href="#m8e06aae08c" x="45.371563" y="313.643775" style="stroke: #000000; stroke-width: 0.8"/>
      </g>
     </g>
     <g id="text_11">
      <!-- 0.2 -->
      <g transform="translate(20.878125 317.822915) scale(0.11 -0.11)">
       <use xlink:href="#DejaVuSans-30"/>
       <use xlink:href="#DejaVuSans-2e" transform="translate(63.623047 0)"/>
       <use xlink:href="#DejaVuSans-32" transform="translate(95.410156 0)"/>
      </g>
     </g>
    </g>
    <g id="ytick_3">
     <g id="line2d_11">
      <g>
       <use xlink:href="#m8e06aae08c" x="45.371563" y="243.330049" style="stroke: #000000; stroke-width: 0.8"/>
      </g>
     </g>
     <g id="text_12">
      <!-- 0.4 -->
      <g transform="translate(20.878125 247.50919) scale(0.11 -0.11)">
       <defs>
        <path id="DejaVuSans-34" d="M 2419 4116
L 825 1625
L 2419 1625
L 2419 4116
z
M 2253 4666
L 3047 4666
L 3047 1625
L 3713 1625
L 3713 1100
L 3047 1100
L 3047 0
L 2419 0
L 2419 1100
L 313 1100
L 313 1709
L 2253 4666
z
" transform="scale(0.015625)"/>
       </defs>
       <use xlink:href="#DejaVuSans-30"/>
       <use xlink:href="#DejaVuSans-2e" transform="translate(63.623047 0)"/>
       <use xlink:href="#DejaVuSans-34" transform="translate(95.410156 0)"/>
      </g>
     </g>
    </g>
    <g id="ytick_4">
     <g id="line2d_12">
      <g>
       <use xlink:href="#m8e06aae08c" x="45.371563" y="173.016324" style="stroke: #000000; stroke-width: 0.8"/>
      </g>
     </g>
     <g id="text_13">
      <!-- 0.6 -->
      <g transform="translate(20.878125 177.195464) scale(0.11 -0.11)">
       <defs>
        <path id="DejaVuSans-36" d="M 2113 2584
Q 1688 2584 1439 2293
Q 1191 2003 1191 1497
Q 1191 994 1439 701
Q 1688 409 2113 409
Q 2538 409 2786 701
Q 3034 994 3034 1497
Q 3034 2003 2786 2293
Q 2538 2584 2113 2584
z
M 3366 4563
L 3366 3988
Q 3128 4100 2886 4159
Q 2644 4219 2406 4219
Q 1781 4219 1451 3797
Q 1122 3375 1075 2522
Q 1259 2794 1537 2939
Q 1816 3084 2150 3084
Q 2853 3084 3261 2657
Q 3669 2231 3669 1497
Q 3669 778 3244 343
Q 2819 -91 2113 -91
Q 1303 -91 875 529
Q 447 1150 447 2328
Q 447 3434 972 4092
Q 1497 4750 2381 4750
Q 2619 4750 2861 4703
Q 3103 4656 3366 4563
z
" transform="scale(0.015625)"/>
       </defs>
       <use xlink:href="#DejaVuSans-30"/>
       <use xlink:href="#DejaVuSans-2e" transform="translate(63.623047 0)"/>
       <use xlink:href="#DejaVuSans-36" transform="translate(95.410156 0)"/>
      </g>
     </g>
    </g>
    <g id="ytick_5">
     <g id="line2d_13">
      <g>
       <use xlink:href="#m8e06aae08c" x="45.371563" y="102.702598" style="stroke: #000000; stroke-width: 0.8"/>
      </g>
     </g>
     <g id="text_14">
      <!-- 0.8 -->
      <g transform="translate(20.878125 106.881739) scale(0.11 -0.11)">
       <defs>
        <path id="DejaVuSans-38" d="M 2034 2216
Q 1584 2216 1326 1975
Q 1069 1734 1069 1313
Q 1069 891 1326 650
Q 1584 409 2034 409
Q 2484 409 2743 651
Q 3003 894 3003 1313
Q 3003 1734 2745 1975
Q 2488 2216 2034 2216
z
M 1403 2484
Q 997 2584 770 2862
Q 544 3141 544 3541
Q 544 4100 942 4425
Q 1341 4750 2034 4750
Q 2731 4750 3128 4425
Q 3525 4100 3525 3541
Q 3525 3141 3298 2862
Q 3072 2584 2669 2484
Q 3125 2378 3379 2068
Q 3634 1759 3634 1313
Q 3634 634 3220 271
Q 2806 -91 2034 -91
Q 1263 -91 848 271
Q 434 634 434 1313
Q 434 1759 690 2068
Q 947 2378 1403 2484
z
M 1172 3481
Q 1172 3119 1398 2916
Q 1625 2713 2034 2713
Q 2441 2713 2670 2916
Q 2900 3119 2900 3481
Q 2900 3844 2670 4047
Q 2441 4250 2034 4250
Q 1625 4250 1398 4047
Q 1172 3844 1172 3481
z
" transform="scale(0.015625)"/>
       </defs>
       <use xlink:href="#DejaVuSans-30"/>
       <use xlink:href="#DejaVuSans-2e" transform="translate(63.623047 0)"/>
       <use xlink:href="#DejaVuSans-38" transform="translate(95.410156 0)"/>
      </g>
     </g>
    </g>
    <g id="ytick_6">
     <g id="line2d_14">
      <g>
       <use xlink:href="#m8e06aae08c" x="45.371563" y="32.388873" style="stroke: #000000; stroke-width: 0.8"/>
      </g>
     </g>
     <g id="text_15">
      <!-- 1.0 -->
      <g transform="translate(20.878125 36.568013) scale(0.11 -0.11)">
       <use xlink:href="#DejaVuSans-31"/>
       <use xlink:href="#DejaVuSans-2e" transform="translate(63.623047 0)"/>
       <use xlink:href="#DejaVuSans-30" transform="translate(95.410156 0)"/>
      </g>
     </g>
    </g>
    <g id="text_16">
     <!-- Probability of remaining on initial regimen -->
     <g transform="translate(14.798438 309.770781) rotate(-90) scale(0.1 -0.1)">
      <defs>
       <path id="DejaVuSans-50" d="M 1259 4147
L 1259 2394
L 2053 2394
Q 2494 2394 2734 2622
Q 2975 2850 2975 3272
Q 2975 3691 2734 3919
Q 2494 4147 2053 4147
L 1259 4147
z
M 628 4666
L 2053 4666
Q 2838 4666 3239 4311
Q 3641 3956 3641 3272
Q 3641 2581 3239 2228
Q 2838 1875 2053 1875
L 1259 1875
L 1259 0
L 628 0
L 628 4666
z
" transform="scale(0.015625)"/>
       <path id="DejaVuSans-62" d="M 3116 1747
Q 3116 2381 2855 2742
Q 2594 3103 2138 3103
Q 1681 3103 1420 2742
Q 1159 2381 1159 1747
Q 1159 1113 1420 752
Q 1681 391 2138 391
Q 2594 391 2855 752
Q 3116 1113 3116 1747
z
M 1159 2969
Q 1341 3281 1617 3432
Q 1894 3584 2278 3584
Q 2916 3584 3314 3078
Q 3713 2572 3713 1747
Q 3713 922 3314 415
Q 2916 -91 2278 -91
Q 1894 -91 1617 61
Q 1341 213 1159 525
L 1159 0
L 581 0
L 581 4863
L 1159 4863
L 1159 2969
z
" transform="scale(0.015625)"/>
       <path id="DejaVuSans-65" d="M 3597 1894
L 3597 1613
L 953 1613
Q 991 1019 1311 708
Q 1631 397 2203 397
Q 2534 397 2845 478
Q 3156 559 3463 722
L 3463 178
Q 3153 47 2828 -22
Q 2503 -91 2169 -91
Q 1331 -91 842 396
Q 353 884 353 1716
Q 353 2575 817 3079
Q 1281 3584 2069 3584
Q 2775 3584 3186 3129
Q 3597 2675 3597 1894
z
M 3022 2063
Q 3016 2534 2758 2815
Q 2500 3097 2075 3097
Q 1594 3097 1305 2825
Q 1016 2553 972 2059
L 3022 2063
z
" transform="scale(0.015625)"/>
       <path id="DejaVuSans-6e" d="M 3513 2113
L 3513 0
L 2938 0
L 2938 2094
Q 2938 2591 2744 2837
Q 2550 3084 2163 3084
Q 1697 3084 1428 2787
Q 1159 2491 1159 1978
L 1159 0
L 581 0
L 581 3500
L 1159 3500
L 1159 2956
Q 1366 3272 1645 3428
Q 1925 3584 2291 3584
Q 2894 3584 3203 3211
Q 3513 2838 3513 2113
z
" transform="scale(0.015625)"/>
       <path id="DejaVuSans-67" d="M 2906 1791
Q 2906 2416 2648 2759
Q 2391 3103 1925 3103
Q 1463 3103 1205 2759
Q 947 2416 947 1791
Q 947 1169 1205 825
Q 1463 481 1925 481
Q 2391 481 2648 825
Q 2906 1169 2906 1791
z
M 3481 434
Q 3481 -459 3084 -895
Q 2688 -1331 1869 -1331
Q 1566 -1331 1297 -1286
Q 1028 -1241 775 -1147
L 775 -588
Q 1028 -725 1275 -790
Q 1522 -856 1778 -856
Q 2344 -856 2625 -561
Q 2906 -266 2906 331
L 2906 616
Q 2728 306 2450 153
Q 2172 0 1784 0
Q 1141 0 747 490
Q 353 981 353 1791
Q 353 2603 747 3093
Q 1141 3584 1784 3584
Q 2172 3584 2450 3431
Q 2728 3278 2906 2969
L 2906 3500
L 3481 3500
L 3481 434
z
" transform="scale(0.015625)"/>
      </defs>
      <use xlink:href="#DejaVuSans-50"/>
      <use xlink:href="#DejaVuSans-72" transform="translate(58.552734 0)"/>
      <use xlink:href="#DejaVuSans-6f" transform="translate(97.416016 0)"/>
      <use xlink:href="#DejaVuSans-62" transform="translate(158.597656 0)"/>
      <use xlink:href="#DejaVuSans-61" transform="translate(222.074219 0)"/>
      <use xlink:href="#DejaVuSans-62" transform="translate(283.353516 0)"/>
      <use xlink:href="#DejaVuSans-69" transform="translate(346.830078 0)"/>
      <use xlink:href="#DejaVuSans-6c" transform="translate(374.613281 0)"/>
      <use xlink:href="#DejaVuSans-69" transform="translate(402.396484 0)"/>
      <use xlink:href="#DejaVuSans-74" transform="translate(430.179688 0)"/>
      <use xlink:href="#DejaVuSans-79" transform="translate(469.388672 0)"/>
      <use xlink:href="#DejaVuSans-20" transform="translate(528.568359 0)"/>
      <use xlink:href="#DejaVuSans-6f" transform="translate(560.355469 0)"/>
      <use xlink:href="#DejaVuSans-66" transform="translate(621.537109 0)"/>
      <use xlink:href="#DejaVuSans-20" transform="translate(656.742188 0)"/>
      <use xlink:href="#DejaVuSans-72" transform="translate(688.529297 0)"/>
      <use xlink:href="#DejaVuSans-65" transform="translate(727.392578 0)"/>
      <use xlink:href="#DejaVuSans-6d" transform="translate(788.916016 0)"/>
      <use xlink:href="#DejaVuSans-61" transform="translate(886.328125 0)"/>
      <use xlink:href="#DejaVuSans-69" transform="translate(947.607422 0)"/>
      <use xlink:href="#DejaVuSans-6e" transform="translate(975.390625 0)"/>
      <use xlink:href="#DejaVuSans-69" transform="translate(1038.769531 0)"/>
      <use xlink:href="#DejaVuSans-6e" transform="translate(1066.552734 0)"/>
      <use xlink:href="#DejaVuSans-67" transform="translate(1129.931641 0)"/>
      <use xlink:href="#DejaVuSans-20" transform="translate(1193.408203 0)"/>
      <use xlink:href="#DejaVuSans-6f" transform="translate(1225.195312 0)"/>
      <use xlink:href="#DejaVuSans-6e" transform="translate(1286.376953 0)"/>
      <use xlink:href="#DejaVuSans-20" transform="translate(1349.755859 0)"/>
      <use xlink:href="#DejaVuSans-69" transform="translate(1381.542969 0)"/>
      <use xlink:href="#DejaVuSans-6e" transform="translate(1409.326172 0)"/>
      <use xlink:href="#DejaVuSans-69" transform="translate(1472.705078 0)"/>
      <use xlink:href="#DejaVuSans-74" transform="translate(1500.488281 0)"/>
      <use xlink:href="#DejaVuSans-69" transform="translate(1539.697266 0)"/>
      <use xlink:href="#DejaVuSans-61" transform="translate(1567.480469 0)"/>
      <use xlink:href="#DejaVuSans-6c" transform="translate(1628.759766 0)"/>
      <use xlink:href="#DejaVuSans-20" transform="translate(1656.542969 0)"/>
      <use xlink:href="#DejaVuSans-72" transform="translate(1688.330078 0)"/>
      <use xlink:href="#DejaVuSans-65" transform="translate(1727.193359 0)"/>
      <use xlink:href="#DejaVuSans-67" transform="translate(1788.716797 0)"/>
      <use xlink:href="#DejaVuSans-69" transform="translate(1852.193359 0)"/>
      <use xlink:href="#DejaVuSans-6d" transform="translate(1879.976562 0)"/>
      <use xlink:href="#DejaVuSans-65" transform="translate(1977.388672 0)"/>
      <use xlink:href="#DejaVuSans-6e" transform="translate(2038.912109 0)"/>
     </g>
    </g>
   </g>
   <g id="line2d_15">
    <path d="M 45.371563 32.388873
L 121.039352 32.388873
L 121.039352 87.260345
L 126.444194 87.260345
L 126.444194 96.847715
L 142.65872 96.847715
L 142.65872 96.979056
L 145.361141 96.979056
L 145.361141 97.110396
L 175.087773 97.110396
L 175.087773 97.373197
L 188.599878 97.373197
L 188.599878 100.528253
L 191.302299 100.528253
L 191.302299 103.590194
L 194.00472 103.590194
L 194.00472 107.240106
L 196.707141 107.240106
L 196.707141 109.715709
L 199.409563 109.715709
L 199.409563 113.070349
L 202.111984 113.070349
L 202.111984 117.485439
L 204.814405 117.485439
L 204.814405 120.38345
L 207.516826 120.38345
L 207.516826 127.210255
L 210.219247 127.210255
L 210.219247 131.366236
L 212.921668 131.366236
L 212.921668 135.938737
L 215.624089 135.938737
L 215.624089 138.996723
L 218.32651 138.996723
L 218.32651 142.638031
L 221.028931 142.638031
L 221.028931 142.977201
L 226.433773 142.977201
L 226.433773 143.659865
L 229.136194 143.659865
L 229.136194 144.686778
L 231.838615 144.686778
L 231.838615 145.202448
L 234.541036 145.202448
L 234.541036 145.719234
L 250.755563 145.719234
L 250.755563 145.891745
L 258.862826 145.891745
L 258.862826 146.5843
L 261.565247 146.5843
L 261.565247 147.626172
L 264.267668 147.626172
L 264.267668 149.024582
L 266.970089 149.024582
L 266.970089 149.552126
L 269.67251 149.552126
L 269.67251 151.504026
L 272.374931 151.504026
L 272.374931 153.288012
L 275.077352 153.288012
L 275.077352 154.906115
L 277.779773 154.906115
L 277.779773 157.085827
L 280.482194 157.085827
L 280.482194 159.297411
L 283.184615 159.297411
L 283.184615 161.916263
L 285.887036 161.916263
L 285.887036 164.211263
L 288.589457 164.211263
L 288.589457 171.02963
L 291.291878 171.02963
L 291.291878 173.092885
L 293.994299 173.092885
L 293.994299 178.333059
L 296.69672 178.333059
L 296.69672 182.81243
L 299.399141 182.81243
L 299.399141 186.921845
L 302.101562 186.921845
L 302.101562 190.672804
L 304.803984 190.672804
L 304.803984 192.247883
L 307.506405 192.247883
L 307.506405 192.937486
L 310.208826 192.937486
L 310.208826 195.036607
L 312.911247 195.036607
L 312.911247 197.156667
L 315.613668 197.156667
L 315.613668 197.632592
L 318.316089 197.632592
L 318.316089 198.830053
L 321.01851 198.830053
L 321.01851 200.038457
L 323.720931 200.038457
L 323.720931 200.524372
L 326.423352 200.524372
L 326.423352 201.739161
L 329.125773 201.739161
L 329.125773 202.226376
L 331.828194 202.226376
L 331.828194 202.959163
L 334.530615 202.959163
L 334.530615 203.69195
L 337.233036 203.69195
L 337.233036 203.936543
L 339.935457 203.936543
L 339.935457 204.427733
L 342.637878 204.427733
L 342.637878 206.149251
L 345.340299 206.149251
L 345.340299 207.138449
L 348.04272 207.138449
L 348.04272 207.884521
L 350.745141 207.884521
L 350.745141 208.638043
L 353.447563 208.638043
L 353.447563 209.397001
L 356.149984 209.397001
L 356.149984 211.444632
L 358.852405 211.444632
L 358.852405 211.962688
L 361.554826 211.962688
L 361.554826 214.092655
L 364.257247 214.092655
L 364.257247 216.530907
L 366.959668 216.530907
L 366.959668 219.298288
L 369.662089 219.298288
L 369.662089 222.132354
L 372.36451 222.132354
L 372.36451 225.902474
L 375.066931 225.902474
L 375.066931 228.90162
L 377.769352 228.90162
L 377.769352 232.292504
L 380.471773 232.292504
L 380.471773 234.841496
L 383.174194 234.841496
L 383.174194 237.463316
L 385.876615 237.463316
L 385.876615 240.176171
L 388.579036 240.176171
L 388.579036 241.592736
L 391.281457 241.592736
L 391.281457 244.187927
L 393.983878 244.187927
L 393.983878 245.333579
L 396.686299 245.333579
L 396.686299 247.280544
L 399.38872 247.280544
L 399.38872 247.681356
L 402.091141 247.681356
L 402.091141 248.490117
L 404.793563 248.490117
L 404.793563 249.744445
L 407.495984 249.744445
L 407.495984 251.416881
L 410.198405 251.416881
L 410.198405 252.258409
L 412.900826 252.258409
L 412.900826 253.537041
L 418.305668 253.537041
L 418.305668 254.403622
L 421.008089 254.403622
L 421.008089 255.278986
L 423.71051 255.278986
L 423.71051 255.719666
L 426.412931 255.719666
L 426.412931 257.055477
L 429.115352 257.055477
L 429.115352 258.391288
L 431.817773 258.391288
L 431.817773 259.297903
L 434.520194 259.297903
L 434.520194 260.667789
L 437.222615 260.667789
L 437.222615 262.047897
L 439.925036 262.047897
L 439.925036 263.443809
L 442.627457 263.443809
L 442.627457 264.396486
L 445.329878 264.396486
L 445.329878 267.385512
L 448.032299 267.385512
L 448.032299 269.439643
L 450.73472 269.439643
L 450.73472 271.540889
L 453.437141 271.540889
L 453.437141 272.076206
L 456.139563 272.076206
L 456.139563 275.399413
L 458.841984 275.399413
L 458.841984 277.721511
L 461.544405 277.721511
L 461.544405 281.995372
L 464.246826 281.995372
L 464.246826 284.560457
L 466.949247 284.560457
L 466.949247 286.56174
L 469.651668 286.56174
L 469.651668 290.70624
L 472.354089 290.70624
L 472.354089 296.400974
L 475.05651 296.400974
L 475.05651 299.34405
L 480.461352 299.34405
L 480.461352 301.857321
L 483.163773 301.857321
L 483.163773 304.56392
L 485.866194 304.56392
L 485.866194 307.399405
L 488.568615 307.399405
L 488.568615 308.406749
L 491.271036 308.406749
L 491.271036 310.505381
L 496.675878 310.505381
L 496.675878 311.635413
L 499.378299 311.635413
L 499.378299 312.765446
L 502.08072 312.765446
L 502.08072 313.932529
L 526.40251 313.932529
L 526.40251 315.20571
L 529.104931 315.20571
L 529.104931 316.52786
L 537.212194 316.52786
L 537.212194 317.993722
L 539.914615 317.993722
L 539.914615 321.134854
L 542.617036 321.134854
L 542.617036 322.788081
L 545.319457 322.788081
L 545.319457 324.587182
L 558.831563 324.587182
L 558.831563 327.41434
L 567.031562 327.41434
L 567.031562 327.41434
" clip-path="url(#pa54bf15ddb)" style="fill: none; stroke: #7fb685; stroke-width: 2.4; stroke-linecap: square"/>
   </g>
   <g id="line2d_16">
    <defs>
     <path id="mac5783789c" d="M 0 2.5
C 0.663008 2.5 1.29895 2.236584 1.767767 1.767767
C 2.236584 1.29895 2.5 0.663008 2.5 0
C 2.5 -0.663008 2.236584 -1.29895 1.767767 -1.767767
C 1.29895 -2.236584 0.663008 -2.5 0 -2.5
C -0.663008 -2.5 -1.29895 -2.236584 -1.767767 -1.767767
C -2.236584 -1.29895 -2.5 -0.663008 -2.5 0
C -2.5 0.663008 -2.236584 1.29895 -1.767767 1.767767
C -1.29895 2.236584 -0.663008 2.5 0 2.5
z
" style="stroke: #7fb685"/>
    </defs>
    <g clip-path="url(#pa54bf15ddb)">
     <use xlink:href="#mac5783789c" x="207.516826" y="127.210255" style="fill: #7fb685; stroke: #7fb685"/>
    </g>
   </g>
   <g id="line2d_17">
    <g clip-path="url(#pa54bf15ddb)">
     <use xlink:href="#mac5783789c" x="288.589457" y="171.02963" style="fill: #7fb685; stroke: #7fb685"/>
    </g>
   </g>
   <g id="line2d_18">
    <g clip-path="url(#pa54bf15ddb)">
     <use xlink:href="#mac5783789c" x="350.745141" y="208.638043" style="fill: #7fb685; stroke: #7fb685"/>
    </g>
   </g>
   <g id="patch_3">
    <path d="M 45.371563 383.9575
L 45.371563 25.3575
" style="fill: none; stroke: #000000; stroke-width: 0.8; stroke-linejoin: miter; stroke-linecap: square"/>
   </g>
   <g id="patch_4">
    <path d="M 45.371563 383.9575
L 558.831563 383.9575
" style="fill: none; stroke: #000000; stroke-width: 0.8; stroke-linejoin: miter; stroke-linecap: square"/>
   </g>
   <g id="patch_5">
    <path d="M 184.433325 89.745168
Q 195.450258 107.62592 206.467191 125.506673
" style="fill: none; stroke: #9a9a9a; stroke-width: 0.8; stroke-linecap: round"/>
   </g>
   <g id="text_17">
    <g id="patch_6">
     <path d="M 140.480742 88.038873
L 209.694804 88.038873
Q 211.674804 88.038873 211.674804 86.058873
L 211.674804 63.095342
Q 211.674804 61.115342 209.694804 61.115342
L 140.480742 61.115342
Q 138.500742 61.115342 138.500742 63.095342
L 138.500742 86.058873
Q 138.500742 88.038873 140.480742 88.038873
z
" style="fill: #ffffff; opacity: 0.92"/>
    </g>
    <!-- 73% -->
    <g transform="translate(162.863164 71.453623) scale(0.11 -0.11)">
     <defs>
      <path id="DejaVuSans-33" d="M 2597 2516
Q 3050 2419 3304 2112
Q 3559 1806 3559 1356
Q 3559 666 3084 287
Q 2609 -91 1734 -91
Q 1441 -91 1130 -33
Q 819 25 488 141
L 488 750
Q 750 597 1062 519
Q 1375 441 1716 441
Q 2309 441 2620 675
Q 2931 909 2931 1356
Q 2931 1769 2642 2001
Q 2353 2234 1838 2234
L 1294 2234
L 1294 2753
L 1863 2753
Q 2328 2753 2575 2939
Q 2822 3125 2822 3475
Q 2822 3834 2567 4026
Q 2313 4219 1838 4219
Q 1578 4219 1281 4162
Q 984 4106 628 3988
L 628 4550
Q 988 4650 1302 4700
Q 1616 4750 1894 4750
Q 2613 4750 3031 4423
Q 3450 4097 3450 3541
Q 3450 3153 3228 2886
Q 3006 2619 2597 2516
z
" transform="scale(0.015625)"/>
      <path id="DejaVuSans-25" d="M 4653 2053
Q 4381 2053 4226 1822
Q 4072 1591 4072 1178
Q 4072 772 4226 539
Q 4381 306 4653 306
Q 4919 306 5073 539
Q 5228 772 5228 1178
Q 5228 1588 5073 1820
Q 4919 2053 4653 2053
z
M 4653 2450
Q 5147 2450 5437 2106
Q 5728 1763 5728 1178
Q 5728 594 5436 251
Q 5144 -91 4653 -91
Q 4153 -91 3862 251
Q 3572 594 3572 1178
Q 3572 1766 3864 2108
Q 4156 2450 4653 2450
z
M 1428 4353
Q 1159 4353 1004 4120
Q 850 3888 850 3481
Q 850 3069 1003 2837
Q 1156 2606 1428 2606
Q 1700 2606 1854 2837
Q 2009 3069 2009 3481
Q 2009 3884 1853 4118
Q 1697 4353 1428 4353
z
M 4250 4750
L 4750 4750
L 1831 -91
L 1331 -91
L 4250 4750
z
M 1428 4750
Q 1922 4750 2215 4408
Q 2509 4066 2509 3481
Q 2509 2891 2217 2550
Q 1925 2209 1428 2209
Q 931 2209 642 2551
Q 353 2894 353 3481
Q 353 4063 643 4406
Q 934 4750 1428 4750
z
" transform="scale(0.015625)"/>
     </defs>
     <use xlink:href="#DejaVuSans-37"/>
     <use xlink:href="#DejaVuSans-33" transform="translate(63.623047 0)"/>
     <use xlink:href="#DejaVuSans-25" transform="translate(127.246094 0)"/>
    </g>
    <!-- 1,776 at risk -->
    <g transform="translate(140.480742 83.771217) scale(0.11 -0.11)">
     <defs>
      <path id="DejaVuSans-2c" d="M 750 794
L 1409 794
L 1409 256
L 897 -744
L 494 -744
L 750 256
L 750 794
z
" transform="scale(0.015625)"/>
      <path id="DejaVuSans-6b" d="M 581 4863
L 1159 4863
L 1159 1991
L 2875 3500
L 3609 3500
L 1753 1863
L 3688 0
L 2938 0
L 1159 1709
L 1159 0
L 581 0
L 581 4863
z
" transform="scale(0.015625)"/>
     </defs>
     <use xlink:href="#DejaVuSans-31"/>
     <use xlink:href="#DejaVuSans-2c" transform="translate(63.623047 0)"/>
     <use xlink:href="#DejaVuSans-37" transform="translate(95.410156 0)"/>
     <use xlink:href="#DejaVuSans-37" transform="translate(159.033203 0)"/>
     <use xlink:href="#DejaVuSans-36" transform="translate(222.65625 0)"/>
     <use xlink:href="#DejaVuSans-20" transform="translate(286.279297 0)"/>
     <use xlink:href="#DejaVuSans-61" transform="translate(318.066406 0)"/>
     <use xlink:href="#DejaVuSans-74" transform="translate(379.345703 0)"/>
     <use xlink:href="#DejaVuSans-20" transform="translate(418.554688 0)"/>
     <use xlink:href="#DejaVuSans-72" transform="translate(450.341797 0)"/>
     <use xlink:href="#DejaVuSans-69" transform="translate(491.455078 0)"/>
     <use xlink:href="#DejaVuSans-73" transform="translate(519.238281 0)"/>
     <use xlink:href="#DejaVuSans-6b" transform="translate(571.337891 0)"/>
    </g>
   </g>
   <g id="patch_7">
    <path d="M 295.260302 146.220559
Q 292.184238 157.660533 289.108174 169.100507
" style="fill: none; stroke: #9a9a9a; stroke-width: 0.8; stroke-linecap: round"/>
   </g>
   <g id="text_18">
    <g id="patch_8">
     <path d="M 264.79211 144.289854
L 334.006173 144.289854
Q 335.986173 144.289854 335.986173 142.309854
L 335.986173 119.346323
Q 335.986173 117.366323 334.006173 117.366323
L 264.79211 117.366323
Q 262.81211 117.366323 262.81211 119.346323
L 262.81211 142.309854
Q 262.81211 144.289854 264.79211 144.289854
z
" style="fill: #ffffff; opacity: 0.92"/>
    </g>
    <!-- 61% -->
    <g transform="translate(287.174532 127.704604) scale(0.11 -0.11)">
     <use xlink:href="#DejaVuSans-36"/>
     <use xlink:href="#DejaVuSans-31" transform="translate(63.623047 0)"/>
     <use xlink:href="#DejaVuSans-25" transform="translate(127.246094 0)"/>
    </g>
    <!-- 1,128 at risk -->
    <g transform="translate(264.79211 140.022198) scale(0.11 -0.11)">
     <use xlink:href="#DejaVuSans-31"/>
     <use xlink:href="#DejaVuSans-2c" transform="translate(63.623047 0)"/>
     <use xlink:href="#DejaVuSans-31" transform="translate(95.410156 0)"/>
     <use xlink:href="#DejaVuSans-32" transform="translate(159.033203 0)"/>
     <use xlink:href="#DejaVuSans-38" transform="translate(222.65625 0)"/>
     <use xlink:href="#DejaVuSans-20" transform="translate(286.279297 0)"/>
     <use xlink:href="#DejaVuSans-61" transform="translate(318.066406 0)"/>
     <use xlink:href="#DejaVuSans-74" transform="translate(379.345703 0)"/>
     <use xlink:href="#DejaVuSans-20" transform="translate(418.554688 0)"/>
     <use xlink:href="#DejaVuSans-72" transform="translate(450.341797 0)"/>
     <use xlink:href="#DejaVuSans-69" transform="translate(491.455078 0)"/>
     <use xlink:href="#DejaVuSans-73" transform="translate(519.238281 0)"/>
     <use xlink:href="#DejaVuSans-6b" transform="translate(571.337891 0)"/>
    </g>
   </g>
   <g id="patch_9">
    <path d="M 366.191278 201.389578
Q 359.375142 204.588211 352.559007 207.786844
" style="fill: none; stroke: #9a9a9a; stroke-width: 0.8; stroke-linecap: round"/>
   </g>
   <g id="text_19">
    <g id="patch_10">
     <path d="M 367.326612 200.540834
L 426.045987 200.540834
Q 428.025987 200.540834 428.025987 198.560834
L 428.025987 175.597303
Q 428.025987 173.617303 426.045987 173.617303
L 367.326612 173.617303
Q 365.346612 173.617303 365.346612 175.597303
L 365.346612 198.560834
Q 365.346612 200.540834 367.326612 200.540834
z
" style="fill: #ffffff; opacity: 0.92"/>
    </g>
    <!-- 50% -->
    <g transform="translate(384.46169 183.955584) scale(0.11 -0.11)">
     <use xlink:href="#DejaVuSans-35"/>
     <use xlink:href="#DejaVuSans-30" transform="translate(63.623047 0)"/>
     <use xlink:href="#DejaVuSans-25" transform="translate(127.246094 0)"/>
    </g>
    <!-- 701 at risk -->
    <g transform="translate(367.326612 196.273178) scale(0.11 -0.11)">
     <use xlink:href="#DejaVuSans-37"/>
     <use xlink:href="#DejaVuSans-30" transform="translate(63.623047 0)"/>
     <use xlink:href="#DejaVuSans-31" transform="translate(127.246094 0)"/>
     <use xlink:href="#DejaVuSans-20" transform="translate(190.869141 0)"/>
     <use xlink:href="#DejaVuSans-61" transform="translate(222.65625 0)"/>
     <use xlink:href="#DejaVuSans-74" transform="translate(283.935547 0)"/>
     <use xlink:href="#DejaVuSans-20" transform="translate(323.144531 0)"/>
     <use xlink:href="#DejaVuSans-72" transform="translate(354.931641 0)"/>
     <use xlink:href="#DejaVuSans-69" transform="translate(396.044922 0)"/>
     <use xlink:href="#DejaVuSans-73" transform="translate(423.828125 0)"/>
     <use xlink:href="#DejaVuSans-6b" transform="translate(475.927734 0)"/>
    </g>
   </g>
   <g id="text_20">
    <!-- Initial-regimen persistence -->
    <g transform="translate(195.121562 19.3575) scale(0.16 -0.16)">
     <defs>
      <path id="DejaVuSans-49" d="M 628 4666
L 1259 4666
L 1259 0
L 628 0
L 628 4666
z
" transform="scale(0.015625)"/>
      <path id="DejaVuSans-2d" d="M 313 2009
L 1997 2009
L 1997 1497
L 313 1497
L 313 2009
z
" transform="scale(0.015625)"/>
      <path id="DejaVuSans-70" d="M 1159 525
L 1159 -1331
L 581 -1331
L 581 3500
L 1159 3500
L 1159 2969
Q 1341 3281 1617 3432
Q 1894 3584 2278 3584
Q 2916 3584 3314 3078
Q 3713 2572 3713 1747
Q 3713 922 3314 415
Q 2916 -91 2278 -91
Q 1894 -91 1617 61
Q 1341 213 1159 525
z
M 3116 1747
Q 3116 2381 2855 2742
Q 2594 3103 2138 3103
Q 1681 3103 1420 2742
Q 1159 2381 1159 1747
Q 1159 1113 1420 752
Q 1681 391 2138 391
Q 2594 391 2855 752
Q 3116 1113 3116 1747
z
" transform="scale(0.015625)"/>
      <path id="DejaVuSans-63" d="M 3122 3366
L 3122 2828
Q 2878 2963 2633 3030
Q 2388 3097 2138 3097
Q 1578 3097 1268 2742
Q 959 2388 959 1747
Q 959 1106 1268 751
Q 1578 397 2138 397
Q 2388 397 2633 464
Q 2878 531 3122 666
L 3122 134
Q 2881 22 2623 -34
Q 2366 -91 2075 -91
Q 1284 -91 818 406
Q 353 903 353 1747
Q 353 2603 823 3093
Q 1294 3584 2113 3584
Q 2378 3584 2631 3529
Q 2884 3475 3122 3366
z
" transform="scale(0.015625)"/>
     </defs>
     <use xlink:href="#DejaVuSans-49"/>
     <use xlink:href="#DejaVuSans-6e" transform="translate(29.492188 0)"/>
     <use xlink:href="#DejaVuSans-69" transform="translate(92.871094 0)"/>
     <use xlink:href="#DejaVuSans-74" transform="translate(120.654297 0)"/>
     <use xlink:href="#DejaVuSans-69" transform="translate(159.863281 0)"/>
     <use xlink:href="#DejaVuSans-61" transform="translate(187.646484 0)"/>
     <use xlink:href="#DejaVuSans-6c" transform="translate(248.925781 0)"/>
     <use xlink:href="#DejaVuSans-2d" transform="translate(276.708984 0)"/>
     <use xlink:href="#DejaVuSans-72" transform="translate(312.792969 0)"/>
     <use xlink:href="#DejaVuSans-65" transform="translate(351.65625 0)"/>
     <use xlink:href="#DejaVuSans-67" transform="translate(413.179688 0)"/>
     <use xlink:href="#DejaVuSans-69" transform="translate(476.65625 0)"/>
     <use xlink:href="#DejaVuSans-6d" transform="translate(504.439453 0)"/>
     <use xlink:href="#DejaVuSans-65" transform="translate(601.851562 0)"/>
     <use xlink:href="#DejaVuSans-6e" transform="translate(663.375 0)"/>
     <use xlink:href="#DejaVuSans-20" transform="translate(726.753906 0)"/>
     <use xlink:href="#DejaVuSans-70" transform="translate(758.541016 0)"/>
     <use xlink:href="#DejaVuSans-65" transform="translate(822.017578 0)"/>
     <use xlink:href="#DejaVuSans-72" transform="translate(883.541016 0)"/>
     <use xlink:href="#DejaVuSans-73" transform="translate(924.654297 0)"/>
     <use xlink:href="#DejaVuSans-69" transform="translate(976.753906 0)"/>
     <use xlink:href="#DejaVuSans-73" transform="translate(1004.537109 0)"/>
     <use xlink:href="#DejaVuSans-74" transform="translate(1056.636719 0)"/>
     <use xlink:href="#DejaVuSans-65" transform="translate(1095.845703 0)"/>
     <use xlink:href="#DejaVuSans-6e" transform="translate(1157.369141 0)"/>
     <use xlink:href="#DejaVuSans-63" transform="translate(1220.748047 0)"/>
     <use xlink:href="#DejaVuSans-65" transform="translate(1275.728516 0)"/>
    </g>
   </g>
  </g>
 </g>
 <defs>
  <clipPath id="pa54bf15ddb">
   <rect x="45.371563" y="25.3575" width="513.46" height="358.6"/>
  </clipPath>
 </defs>
</svg>
