<?xml version="1.0" encoding="utf-8" standalone="no"?>
<!DOCTYPE svg PUBLIC "-//W3C//DTD SVG 1.1//EN"
  "http://www.w3.org/Graphics/SVG/1.1/DTD/svg11.dtd">
<svg xmlns:xlink="http://www.w3.org/1999/xlink" width="856.8pt" height="372.096pt" viewBox="0 0 856.8 372.096" xmlns="http://www.w3.org/2000/svg" version="1.1">
 <metadata>
  <rdf:RDF xmlns:dc="http://purl.org/dc/elements/1.1/" xmlns:cc="http://creativecommons.org/ns#" xmlns:rdf="http://www.w3.org/1999/02/22-rdf-syntax-ns#">
   <cc:Work>
    <dc:type rdf:resource="http://purl.org/dc/dcmitype/StillImage"/>
    <dc:date>2026-06-18T23:09:06.887121</dc:date>
    <dc:format>image/svg+xml</dc:format>
    <dc:creator>
     <cc:Agent>
      <dc:title>Matplotlib v3.10.9, https://matplotlib.org/</dc:title>
     </cc:Agent>
    </dc:creator>
   </cc:Work>
  </rdf:RDF>
 </metadata>
 <defs>
  <style type="text/css">*{stroke-linejoin: round; stroke-linecap: butt}</style>
 </defs>
 <g id="figure_1">
  <g id="patch_1">
   <path d="M 0 372.096
L 856.8 372.096
L 856.8 0
L 0 0
z
" style="fill: #ffffff"/>
  </g>
  <g id="axes_1">
   <g id="patch_2">
    <path d="M 290.188052 271.249515
L 344.16 271.249515
Q 347.077403 271.249515 347.077403 268.599915
L 347.077403 19.1232
Q 347.077403 16.4736 344.16 16.4736
L 290.188052 16.4736
Q 287.270649 16.4736 287.270649 19.1232
L 287.270649 268.599915
Q 287.270649 271.249515 290.188052 271.249515
z
" clip-path="url(#pf1839e5b6b)" style="fill: #7fb685; opacity: 0.92; stroke: #4a4a4a; stroke-width: 0.7; stroke-linejoin: miter"/>
   </g>
   <g id="patch_3">
    <path d="M 290.188052 306.526049
L 344.16 306.526049
Q 347.077403 306.526049 347.077403 303.876449
L 347.077403 279.860715
Q 347.077403 277.211115 344.16 277.211115
L 290.188052 277.211115
Q 287.270649 277.211115 287.270649 279.860715
L 287.270649 303.876449
Q 287.270649 306.526049 290.188052 306.526049
z
" clip-path="url(#pf1839e5b6b)" style="fill: #f0a06b; opacity: 0.92; stroke: #4a4a4a; stroke-width: 0.7; stroke-linejoin: miter"/>
   </g>
   <g id="patch_4">
    <path d="M 290.188052 341.259085
L 344.16 341.259085
Q 347.077403 341.259085 347.077403 338.609485
L 347.077403 315.137249
Q 347.077403 312.487649 344.16 312.487649
L 290.188052 312.487649
Q 287.270649 312.487649 287.270649 315.137249
L 287.270649 338.609485
Q 287.270649 341.259085 290.188052 341.259085
z
" clip-path="url(#pf1839e5b6b)" style="fill: #7ba6d0; opacity: 0.92; stroke: #4a4a4a; stroke-width: 0.7; stroke-linejoin: miter"/>
   </g>
   <g id="patch_5">
    <path d="M 290.188052 348.9984
L 344.16 348.9984
Q 347.077403 348.9984 347.077403 346.3488
L 347.077403 349.870285
Q 347.077403 347.220685 344.16 347.220685
L 290.188052 347.220685
Q 287.270649 347.220685 287.270649 349.870285
L 287.270649 346.3488
Q 287.270649 348.9984 290.188052 348.9984
z
" clip-path="url(#pf1839e5b6b)" style="fill: #e0b663; opacity: 0.92; stroke: #4a4a4a; stroke-width: 0.7; stroke-linejoin: miter"/>
   </g>
   <g id="patch_6">
    <path d="M 523.58026 196.185145
L 577.552208 196.185145
Q 580.46961 196.185145 580.46961 193.535545
L 580.46961 19.1232
Q 580.46961 16.4736 577.552208 16.4736
L 523.58026 16.4736
Q 520.662857 16.4736 520.662857 19.1232
L 520.662857 193.535545
Q 520.662857 196.185145 523.58026 196.185145
z
" clip-path="url(#pf1839e5b6b)" style="fill: #7fb685; opacity: 0.92; stroke: #4a4a4a; stroke-width: 0.7; stroke-linejoin: miter"/>
   </g>
   <g id="patch_7">
    <path d="M 523.58026 339.115935
L 577.552208 339.115935
Q 580.46961 339.115935 580.46961 336.466335
L 580.46961 204.796345
Q 580.46961 202.146745 577.552208 202.146745
L 523.58026 202.146745
Q 520.662857 202.146745 520.662857 204.796345
L 520.662857 336.466335
Q 520.662857 339.115935 523.58026 339.115935
z
" clip-path="url(#pf1839e5b6b)" style="fill: #d97b6c; opacity: 0.92; stroke: #4a4a4a; stroke-width: 0.7; stroke-linejoin: miter"/>
   </g>
   <g id="patch_8">
    <path d="M 523.58026 348.9984
L 577.552208 348.9984
Q 580.46961 348.9984 580.46961 346.3488
L 580.46961 347.727135
Q 580.46961 345.077535 577.552208 345.077535
L 523.58026 345.077535
Q 520.662857 345.077535 520.662857 347.727135
L 520.662857 346.3488
Q 520.662857 348.9984 523.58026 348.9984
z
" clip-path="url(#pf1839e5b6b)" style="fill: #7ba6d0; opacity: 0.92; stroke: #4a4a4a; stroke-width: 0.7; stroke-linejoin: miter"/>
   </g>
   <g id="FillBetweenPolyCollection_1">
    <defs>
     <path id="m9e3aa4472a" d="M 346.348052 -354.96
L 346.348052 -211.567178
L 346.384927 -211.567178
L 346.494722 -211.567178
L 346.67619 -211.567178
L 346.928084 -211.567178
L 347.249159 -211.567178
L 347.638167 -211.567178
L 348.093862 -211.567178
L 348.614997 -211.567178
L 349.200327 -211.567178
L 349.848605 -211.567178
L 350.558583 -211.567178
L 351.329017 -211.567178
L 352.158658 -211.567178
L 353.046261 -211.567178
L 353.990579 -211.567178
L 354.990366 -211.567178
L 356.044375 -211.567178
L 357.15136 -211.567178
L 358.310074 -211.567178
L 359.519271 -211.567178
L 360.777705 -211.567178
L 362.084127 -211.567178
L 363.437294 -211.567178
L 364.835957 -211.567178
L 366.27887 -211.567178
L 367.764787 -211.567178
L 369.292462 -211.567178
L 370.860647 -211.567178
L 372.468097 -211.567178
L 374.113564 -211.567178
L 375.795803 -211.567178
L 377.513567 -211.567178
L 379.265609 -211.567178
L 381.050683 -211.567178
L 382.867543 -211.567178
L 384.714942 -211.567178
L 386.591633 -211.567178
L 388.49637 -211.567178
L 390.427906 -211.567178
L 392.384996 -211.567178
L 394.366392 -211.567178
L 396.370848 -211.567178
L 398.397117 -211.567178
L 400.443954 -211.567178
L 402.510111 -211.567178
L 404.594342 -211.567178
L 406.695401 -211.567178
L 408.812041 -211.567178
L 410.943015 -211.567178
L 413.087078 -211.567178
L 415.242982 -211.567178
L 417.409481 -211.567178
L 419.58533 -211.567178
L 421.76928 -211.567178
L 423.960086 -211.567178
L 426.156501 -211.567178
L 428.357279 -211.567178
L 430.561173 -211.567178
L 432.766936 -211.567178
L 434.973323 -211.567178
L 437.179087 -211.567178
L 439.382981 -211.567178
L 441.583759 -211.567178
L 443.780174 -211.567178
L 445.97098 -211.567178
L 448.15493 -211.567178
L 450.330778 -211.567178
L 452.497278 -211.567178
L 454.653182 -211.567178
L 456.797245 -211.567178
L 458.928219 -211.567178
L 461.044859 -211.567178
L 463.145918 -211.567178
L 465.230149 -211.567178
L 467.296306 -211.567178
L 469.343143 -211.567178
L 471.369412 -211.567178
L 473.373868 -211.567178
L 475.355264 -211.567178
L 477.312354 -211.567178
L 479.24389 -211.567178
L 481.148627 -211.567178
L 483.025318 -211.567178
L 484.872717 -211.567178
L 486.689576 -211.567178
L 488.47465 -211.567178
L 490.226693 -211.567178
L 491.944457 -211.567178
L 493.626696 -211.567178
L 495.272163 -211.567178
L 496.879613 -211.567178
L 498.447798 -211.567178
L 499.975473 -211.567178
L 501.46139 -211.567178
L 502.904303 -211.567178
L 504.302966 -211.567178
L 505.656132 -211.567178
L 506.962555 -211.567178
L 508.220988 -211.567178
L 509.430185 -211.567178
L 510.588899 -211.567178
L 511.695884 -211.567178
L 512.749893 -211.567178
L 513.74968 -211.567178
L 514.693999 -211.567178
L 515.581602 -211.567178
L 516.411243 -211.567178
L 517.181676 -211.567178
L 517.891655 -211.567178
L 518.539932 -211.567178
L 519.125262 -211.567178
L 519.646398 -211.567178
L 520.102093 -211.567178
L 520.491101 -211.567178
L 520.812176 -211.567178
L 521.06407 -211.567178
L 521.245538 -211.567178
L 521.355333 -211.567178
L 521.392208 -211.567178
L 521.392208 -354.96
L 521.392208 -354.96
L 521.355333 -354.96
L 521.245538 -354.96
L 521.06407 -354.96
L 520.812176 -354.96
L 520.491101 -354.96
L 520.102093 -354.96
L 519.646398 -354.96
L 519.125262 -354.96
L 518.539932 -354.96
L 517.891655 -354.96
L 517.181676 -354.96
L 516.411243 -354.96
L 515.581602 -354.96
L 514.693999 -354.96
L 513.74968 -354.96
L 512.749893 -354.96
L 511.695884 -354.96
L 510.588899 -354.96
L 509.430185 -354.96
L 508.220988 -354.96
L 506.962555 -354.96
L 505.656132 -354.96
L 504.302966 -354.96
L 502.904303 -354.96
L 501.46139 -354.96
L 499.975473 -354.96
L 498.447798 -354.96
L 496.879613 -354.96
L 495.272163 -354.96
L 493.626696 -354.96
L 491.944457 -354.96
L 490.226693 -354.96
L 488.47465 -354.96
L 486.689576 -354.96
L 484.872717 -354.96
L 483.025318 -354.96
L 481.148627 -354.96
L 479.24389 -354.96
L 477.312354 -354.96
L 475.355264 -354.96
L 473.373868 -354.96
L 471.369412 -354.96
L 469.343143 -354.96
L 467.296306 -354.96
L 465.230149 -354.96
L 463.145918 -354.96
L 461.044859 -354.96
L 458.928219 -354.96
L 456.797245 -354.96
L 454.653182 -354.96
L 452.497278 -354.96
L 450.330778 -354.96
L 448.15493 -354.96
L 445.97098 -354.96
L 443.780174 -354.96
L 441.583759 -354.96
L 439.382981 -354.96
L 437.179087 -354.96
L 434.973323 -354.96
L 432.766936 -354.96
L 430.561173 -354.96
L 428.357279 -354.96
L 426.156501 -354.96
L 423.960086 -354.96
L 421.76928 -354.96
L 419.58533 -354.96
L 417.409481 -354.96
L 415.242982 -354.96
L 413.087078 -354.96
L 410.943015 -354.96
L 408.812041 -354.96
L 406.695401 -354.96
L 404.594342 -354.96
L 402.510111 -354.96
L 400.443954 -354.96
L 398.397117 -354.96
L 396.370848 -354.96
L 394.366392 -354.96
L 392.384996 -354.96
L 390.427906 -354.96
L 388.49637 -354.96
L 386.591633 -354.96
L 384.714942 -354.96
L 382.867543 -354.96
L 381.050683 -354.96
L 379.265609 -354.96
L 377.513567 -354.96
L 375.795803 -354.96
L 374.113564 -354.96
L 372.468097 -354.96
L 370.860647 -354.96
L 369.292462 -354.96
L 367.764787 -354.96
L 366.27887 -354.96
L 364.835957 -354.96
L 363.437294 -354.96
L 362.084127 -354.96
L 360.777705 -354.96
L 359.519271 -354.96
L 358.310074 -354.96
L 357.15136 -354.96
L 356.044375 -354.96
L 354.990366 -354.96
L 353.990579 -354.96
L 353.046261 -354.96
L 352.158658 -354.96
L 351.329017 -354.96
L 350.558583 -354.96
L 349.848605 -354.96
L 349.200327 -354.96
L 348.614997 -354.96
L 348.093862 -354.96
L 347.638167 -354.96
L 347.249159 -354.96
L 346.928084 -354.96
L 346.67619 -354.96
L 346.494722 -354.96
L 346.384927 -354.96
L 346.348052 -354.96
z
"/>
    </defs>
    <g clip-path="url(#pf1839e5b6b)">
     <use xlink:href="#m9e3aa4472a" x="0" y="372.096" style="fill: #7fb685; fill-opacity: 0.38"/>
    </g>
   </g>
   <g id="FillBetweenPolyCollection_2">
    <defs>
     <path id="mfbe12a58a6" d="M 346.348052 -211.567178
L 346.348052 -101.508885
L 346.384927 -101.499978
L 346.494722 -101.473458
L 346.67619 -101.429626
L 346.928084 -101.368783
L 347.249159 -101.291231
L 347.638167 -101.197269
L 348.093862 -101.0872
L 348.614997 -100.961325
L 349.200327 -100.819944
L 349.848605 -100.663358
L 350.558583 -100.491869
L 351.329017 -100.305778
L 352.158658 -100.105386
L 353.046261 -99.890993
L 353.990579 -99.662902
L 354.990366 -99.421412
L 356.044375 -99.166826
L 357.15136 -98.899444
L 358.310074 -98.619567
L 359.519271 -98.327497
L 360.777705 -98.023534
L 362.084127 -97.707979
L 363.437294 -97.381134
L 364.835957 -97.0433
L 366.27887 -96.694777
L 367.764787 -96.335867
L 369.292462 -95.966871
L 370.860647 -95.588091
L 372.468097 -95.199826
L 374.113564 -94.802378
L 375.795803 -94.396048
L 377.513567 -93.981138
L 379.265609 -93.557948
L 381.050683 -93.12678
L 382.867543 -92.687934
L 384.714942 -92.241712
L 386.591633 -91.788414
L 388.49637 -91.328342
L 390.427906 -90.861797
L 392.384996 -90.38908
L 394.366392 -89.910492
L 396.370848 -89.426334
L 398.397117 -88.936907
L 400.443954 -88.442512
L 402.510111 -87.943451
L 404.594342 -87.440024
L 406.695401 -86.932532
L 408.812041 -86.421277
L 410.943015 -85.906559
L 413.087078 -85.38868
L 415.242982 -84.867941
L 417.409481 -84.344643
L 419.58533 -83.819087
L 421.76928 -83.291574
L 423.960086 -82.762404
L 426.156501 -82.23188
L 428.357279 -81.700302
L 430.561173 -81.167972
L 432.766936 -80.63519
L 434.973323 -80.102257
L 437.179087 -79.569475
L 439.382981 -79.037144
L 441.583759 -78.505566
L 443.780174 -77.975042
L 445.97098 -77.445873
L 448.15493 -76.91836
L 450.330778 -76.392804
L 452.497278 -75.869505
L 454.653182 -75.348766
L 456.797245 -74.830888
L 458.928219 -74.31617
L 461.044859 -73.804915
L 463.145918 -73.297423
L 465.230149 -72.793996
L 467.296306 -72.294935
L 469.343143 -71.80054
L 471.369412 -71.311113
L 473.373868 -70.826955
L 475.355264 -70.348367
L 477.312354 -69.87565
L 479.24389 -69.409105
L 481.148627 -68.949033
L 483.025318 -68.495735
L 484.872717 -68.049513
L 486.689576 -67.610667
L 488.47465 -67.179498
L 490.226693 -66.756309
L 491.944457 -66.341398
L 493.626696 -65.935069
L 495.272163 -65.537621
L 496.879613 -65.149356
L 498.447798 -64.770575
L 499.975473 -64.401579
L 501.46139 -64.04267
L 502.904303 -63.694147
L 504.302966 -63.356313
L 505.656132 -63.029468
L 506.962555 -62.713913
L 508.220988 -62.40995
L 509.430185 -62.11788
L 510.588899 -61.838003
L 511.695884 -61.570621
L 512.749893 -61.316034
L 513.74968 -61.074545
L 514.693999 -60.846453
L 515.581602 -60.632061
L 516.411243 -60.431669
L 517.181676 -60.245578
L 517.891655 -60.074089
L 518.539932 -59.917503
L 519.125262 -59.776122
L 519.646398 -59.650246
L 520.102093 -59.540177
L 520.491101 -59.446216
L 520.812176 -59.368664
L 521.06407 -59.307821
L 521.245538 -59.263989
L 521.355333 -59.237469
L 521.392208 -59.228562
L 521.392208 -169.286855
L 521.392208 -169.286855
L 521.355333 -169.295762
L 521.245538 -169.322282
L 521.06407 -169.366114
L 520.812176 -169.426957
L 520.491101 -169.50451
L 520.102093 -169.598471
L 519.646398 -169.70854
L 519.125262 -169.834415
L 518.539932 -169.975797
L 517.891655 -170.132382
L 517.181676 -170.303871
L 516.411243 -170.489962
L 515.581602 -170.690354
L 514.693999 -170.904747
L 513.74968 -171.132838
L 512.749893 -171.374328
L 511.695884 -171.628914
L 510.588899 -171.896296
L 509.430185 -172.176173
L 508.220988 -172.468244
L 506.962555 -172.772207
L 505.656132 -173.087761
L 504.302966 -173.414606
L 502.904303 -173.752441
L 501.46139 -174.100963
L 499.975473 -174.459873
L 498.447798 -174.828869
L 496.879613 -175.20765
L 495.272163 -175.595914
L 493.626696 -175.993362
L 491.944457 -176.399692
L 490.226693 -176.814602
L 488.47465 -177.237792
L 486.689576 -177.66896
L 484.872717 -178.107806
L 483.025318 -178.554028
L 481.148627 -179.007326
L 479.24389 -179.467398
L 477.312354 -179.933943
L 475.355264 -180.40666
L 473.373868 -180.885248
L 471.369412 -181.369406
L 469.343143 -181.858833
L 467.296306 -182.353228
L 465.230149 -182.85229
L 463.145918 -183.355717
L 461.044859 -183.863208
L 458.928219 -184.374463
L 456.797245 -184.889181
L 454.653182 -185.40706
L 452.497278 -185.927799
L 450.330778 -186.451097
L 448.15493 -186.976653
L 445.97098 -187.504167
L 443.780174 -188.033336
L 441.583759 -188.56386
L 439.382981 -189.095438
L 437.179087 -189.627768
L 434.973323 -190.16055
L 432.766936 -190.693483
L 430.561173 -191.226265
L 428.357279 -191.758596
L 426.156501 -192.290174
L 423.960086 -192.820698
L 421.76928 -193.349867
L 419.58533 -193.87738
L 417.409481 -194.402937
L 415.242982 -194.926235
L 413.087078 -195.446974
L 410.943015 -195.964853
L 408.812041 -196.47957
L 406.695401 -196.990825
L 404.594342 -197.498317
L 402.510111 -198.001744
L 400.443954 -198.500805
L 398.397117 -198.9952
L 396.370848 -199.484627
L 394.366392 -199.968785
L 392.384996 -200.447373
L 390.427906 -200.920091
L 388.49637 -201.386636
L 386.591633 -201.846708
L 384.714942 -202.300005
L 382.867543 -202.746227
L 381.050683 -203.185073
L 379.265609 -203.616242
L 377.513567 -204.039432
L 375.795803 -204.454342
L 374.113564 -204.860671
L 372.468097 -205.258119
L 370.860647 -205.646384
L 369.292462 -206.025165
L 367.764787 -206.394161
L 366.27887 -206.753071
L 364.835957 -207.101593
L 363.437294 -207.439427
L 362.084127 -207.766272
L 360.777705 -208.081827
L 359.519271 -208.38579
L 358.310074 -208.677861
L 357.15136 -208.957737
L 356.044375 -209.22512
L 354.990366 -209.479706
L 353.990579 -209.721195
L 353.046261 -209.949287
L 352.158658 -210.163679
L 351.329017 -210.364072
L 350.558583 -210.550163
L 349.848605 -210.721652
L 349.200327 -210.878237
L 348.614997 -211.019618
L 348.093862 -211.145494
L 347.638167 -211.255563
L 347.249159 -211.349524
L 346.928084 -211.427077
L 346.67619 -211.487919
L 346.494722 -211.531751
L 346.384927 -211.558271
L 346.348052 -211.567178
z
"/>
    </defs>
    <g clip-path="url(#pf1839e5b6b)">
     <use xlink:href="#mfbe12a58a6" x="0" y="372.096" style="fill: #7fb685; fill-opacity: 0.38"/>
    </g>
   </g>
   <g id="FillBetweenPolyCollection_3">
    <defs>
     <path id="m306d62be23" d="M 346.348052 -94.222485
L 346.348052 -79.819795
L 346.384927 -79.844515
L 346.494722 -79.918118
L 346.67619 -80.039769
L 346.928084 -80.208632
L 347.249159 -80.423871
L 347.638167 -80.684651
L 348.093862 -80.990136
L 348.614997 -81.339491
L 349.200327 -81.73188
L 349.848605 -82.166467
L 350.558583 -82.642417
L 351.329017 -83.158894
L 352.158658 -83.715062
L 353.046261 -84.310086
L 353.990579 -84.943131
L 354.990366 -85.61336
L 356.044375 -86.319938
L 357.15136 -87.06203
L 358.310074 -87.838799
L 359.519271 -88.649411
L 360.777705 -89.493029
L 362.084127 -90.368818
L 363.437294 -91.275943
L 364.835957 -92.213567
L 366.27887 -93.180856
L 367.764787 -94.176973
L 369.292462 -95.201083
L 370.860647 -96.252351
L 372.468097 -97.32994
L 374.113564 -98.433015
L 375.795803 -99.560741
L 377.513567 -100.712282
L 379.265609 -101.886802
L 381.050683 -103.083466
L 382.867543 -104.301437
L 384.714942 -105.539881
L 386.591633 -106.797963
L 388.49637 -108.074845
L 390.427906 -109.369693
L 392.384996 -110.681671
L 394.366392 -112.009943
L 396.370848 -113.353674
L 398.397117 -114.712028
L 400.443954 -116.08417
L 402.510111 -117.469264
L 404.594342 -118.866474
L 406.695401 -120.274965
L 408.812041 -121.693901
L 410.943015 -123.122447
L 413.087078 -124.559766
L 415.242982 -126.005024
L 417.409481 -127.457384
L 419.58533 -128.916012
L 421.76928 -130.380071
L 423.960086 -131.848726
L 426.156501 -133.321141
L 428.357279 -134.79648
L 430.561173 -136.273909
L 432.766936 -137.752591
L 434.973323 -139.231691
L 437.179087 -140.710373
L 439.382981 -142.187802
L 441.583759 -143.663142
L 443.780174 -145.135557
L 445.97098 -146.604212
L 448.15493 -148.068271
L 450.330778 -149.526898
L 452.497278 -150.979259
L 454.653182 -152.424517
L 456.797245 -153.861836
L 458.928219 -155.290382
L 461.044859 -156.709318
L 463.145918 -158.117808
L 465.230149 -159.515019
L 467.296306 -160.900112
L 469.343143 -162.272254
L 471.369412 -163.630609
L 473.373868 -164.97434
L 475.355264 -166.302612
L 477.312354 -167.61459
L 479.24389 -168.909438
L 481.148627 -170.18632
L 483.025318 -171.444401
L 484.872717 -172.682845
L 486.689576 -173.900817
L 488.47465 -175.097481
L 490.226693 -176.272001
L 491.944457 -177.423541
L 493.626696 -178.551267
L 495.272163 -179.654342
L 496.879613 -180.731932
L 498.447798 -181.783199
L 499.975473 -182.807309
L 501.46139 -183.803426
L 502.904303 -184.770715
L 504.302966 -185.70834
L 505.656132 -186.615464
L 506.962555 -187.491254
L 508.220988 -188.334872
L 509.430185 -189.145483
L 510.588899 -189.922253
L 511.695884 -190.664345
L 512.749893 -191.370923
L 513.74968 -192.041152
L 514.693999 -192.674196
L 515.581602 -193.269221
L 516.411243 -193.825389
L 517.181676 -194.341866
L 517.891655 -194.817816
L 518.539932 -195.252403
L 519.125262 -195.644791
L 519.646398 -195.994146
L 520.102093 -196.299631
L 520.491101 -196.560411
L 520.812176 -196.775651
L 521.06407 -196.944514
L 521.245538 -197.066164
L 521.355333 -197.139768
L 521.392208 -197.164488
L 521.392208 -211.567178
L 521.392208 -211.567178
L 521.355333 -211.542458
L 521.245538 -211.468855
L 521.06407 -211.347204
L 520.812176 -211.178341
L 520.491101 -210.963102
L 520.102093 -210.702321
L 519.646398 -210.396836
L 519.125262 -210.047482
L 518.539932 -209.655093
L 517.891655 -209.220506
L 517.181676 -208.744556
L 516.411243 -208.228079
L 515.581602 -207.671911
L 514.693999 -207.076887
L 513.74968 -206.443842
L 512.749893 -205.773613
L 511.695884 -205.067035
L 510.588899 -204.324943
L 509.430185 -203.548174
L 508.220988 -202.737562
L 506.962555 -201.893944
L 505.656132 -201.018154
L 504.302966 -200.11103
L 502.904303 -199.173405
L 501.46139 -198.206117
L 499.975473 -197.21
L 498.447798 -196.185889
L 496.879613 -195.134622
L 495.272163 -194.057033
L 493.626696 -192.953957
L 491.944457 -191.826232
L 490.226693 -190.674691
L 488.47465 -189.500171
L 486.689576 -188.303507
L 484.872717 -187.085535
L 483.025318 -185.847091
L 481.148627 -184.58901
L 479.24389 -183.312128
L 477.312354 -182.01728
L 475.355264 -180.705302
L 473.373868 -179.37703
L 471.369412 -178.033299
L 469.343143 -176.674945
L 467.296306 -175.302803
L 465.230149 -173.917709
L 463.145918 -172.520499
L 461.044859 -171.112008
L 458.928219 -169.693072
L 456.797245 -168.264526
L 454.653182 -166.827207
L 452.497278 -165.381949
L 450.330778 -163.929589
L 448.15493 -162.470961
L 445.97098 -161.006902
L 443.780174 -159.538247
L 441.583759 -158.065832
L 439.382981 -156.590492
L 437.179087 -155.113064
L 434.973323 -153.634381
L 432.766936 -152.155282
L 430.561173 -150.676599
L 428.357279 -149.199171
L 426.156501 -147.723831
L 423.960086 -146.251416
L 421.76928 -144.782761
L 419.58533 -143.318702
L 417.409481 -141.860074
L 415.242982 -140.407714
L 413.087078 -138.962456
L 410.943015 -137.525137
L 408.812041 -136.096591
L 406.695401 -134.677655
L 404.594342 -133.269164
L 402.510111 -131.871954
L 400.443954 -130.48686
L 398.397117 -129.114718
L 396.370848 -127.756364
L 394.366392 -126.412633
L 392.384996 -125.084361
L 390.427906 -123.772383
L 388.49637 -122.477535
L 386.591633 -121.200653
L 384.714942 -119.942572
L 382.867543 -118.704128
L 381.050683 -117.486156
L 379.265609 -116.289492
L 377.513567 -115.114972
L 375.795803 -113.963431
L 374.113564 -112.835706
L 372.468097 -111.73263
L 370.860647 -110.655041
L 369.292462 -109.603774
L 367.764787 -108.579663
L 366.27887 -107.583546
L 364.835957 -106.616258
L 363.437294 -105.678633
L 362.084127 -104.771509
L 360.777705 -103.895719
L 359.519271 -103.052101
L 358.310074 -102.241489
L 357.15136 -101.46472
L 356.044375 -100.722628
L 354.990366 -100.01605
L 353.990579 -99.345821
L 353.046261 -98.712776
L 352.158658 -98.117752
L 351.329017 -97.561584
L 350.558583 -97.045107
L 349.848605 -96.569157
L 349.200327 -96.13457
L 348.614997 -95.742182
L 348.093862 -95.392827
L 347.638167 -95.087342
L 347.249159 -94.826561
L 346.928084 -94.611322
L 346.67619 -94.442459
L 346.494722 -94.320808
L 346.384927 -94.247205
L 346.348052 -94.222485
z
"/>
    </defs>
    <g clip-path="url(#pf1839e5b6b)">
     <use xlink:href="#m306d62be23" x="0" y="372.096" style="fill: #f0a06b; fill-opacity: 0.38"/>
    </g>
   </g>
   <g id="FillBetweenPolyCollection_4">
    <defs>
     <path id="m13cbbfef19" d="M 346.348052 -79.819795
L 346.348052 -67.409929
L 346.384927 -67.405592
L 346.494722 -67.392676
L 346.67619 -67.371329
L 346.928084 -67.341698
L 347.249159 -67.303928
L 347.638167 -67.258167
L 348.093862 -67.204562
L 348.614997 -67.143258
L 349.200327 -67.074403
L 349.848605 -66.998144
L 350.558583 -66.914626
L 351.329017 -66.823996
L 352.158658 -66.726402
L 353.046261 -66.621989
L 353.990579 -66.510904
L 354.990366 -66.393295
L 356.044375 -66.269307
L 357.15136 -66.139088
L 358.310074 -66.002783
L 359.519271 -65.860539
L 360.777705 -65.712504
L 362.084127 -65.558824
L 363.437294 -65.399645
L 364.835957 -65.235114
L 366.27887 -65.065377
L 367.764787 -64.890582
L 369.292462 -64.710875
L 370.860647 -64.526402
L 372.468097 -64.337311
L 374.113564 -64.143747
L 375.795803 -63.945858
L 377.513567 -63.743789
L 379.265609 -63.537689
L 381.050683 -63.327703
L 382.867543 -63.113977
L 384.714942 -62.896659
L 386.591633 -62.675896
L 388.49637 -62.451833
L 390.427906 -62.224618
L 392.384996 -61.994396
L 394.366392 -61.761316
L 396.370848 -61.525523
L 398.397117 -61.287163
L 400.443954 -61.046385
L 402.510111 -60.803333
L 404.594342 -60.558156
L 406.695401 -60.310999
L 408.812041 -60.062009
L 410.943015 -59.811333
L 413.087078 -59.559117
L 415.242982 -59.305508
L 417.409481 -59.050653
L 419.58533 -58.794698
L 421.76928 -58.537791
L 423.960086 -58.280076
L 426.156501 -58.021702
L 428.357279 -57.762815
L 430.561173 -57.503561
L 432.766936 -57.244087
L 434.973323 -56.984539
L 437.179087 -56.725066
L 439.382981 -56.465812
L 441.583759 -56.206924
L 443.780174 -55.94855
L 445.97098 -55.690836
L 448.15493 -55.433928
L 450.330778 -55.177973
L 452.497278 -54.923118
L 454.653182 -54.669509
L 456.797245 -54.417293
L 458.928219 -54.166617
L 461.044859 -53.917627
L 463.145918 -53.67047
L 465.230149 -53.425293
L 467.296306 -53.182241
L 469.343143 -52.941463
L 471.369412 -52.703104
L 473.373868 -52.46731
L 475.355264 -52.23423
L 477.312354 -52.004009
L 479.24389 -51.776793
L 481.148627 -51.55273
L 483.025318 -51.331967
L 484.872717 -51.114649
L 486.689576 -50.900924
L 488.47465 -50.690937
L 490.226693 -50.484837
L 491.944457 -50.282768
L 493.626696 -50.084879
L 495.272163 -49.891315
L 496.879613 -49.702224
L 498.447798 -49.517751
L 499.975473 -49.338044
L 501.46139 -49.163249
L 502.904303 -48.993512
L 504.302966 -48.828981
L 505.656132 -48.669802
L 506.962555 -48.516122
L 508.220988 -48.368087
L 509.430185 -48.225843
L 510.588899 -48.089539
L 511.695884 -47.959319
L 512.749893 -47.835331
L 513.74968 -47.717722
L 514.693999 -47.606637
L 515.581602 -47.502225
L 516.411243 -47.40463
L 517.181676 -47.314001
L 517.891655 -47.230483
L 518.539932 -47.154223
L 519.125262 -47.085368
L 519.646398 -47.024064
L 520.102093 -46.970459
L 520.491101 -46.924698
L 520.812176 -46.886929
L 521.06407 -46.857297
L 521.245538 -46.83595
L 521.355333 -46.823035
L 521.392208 -46.818697
L 521.392208 -59.228562
L 521.392208 -59.228562
L 521.355333 -59.2329
L 521.245538 -59.245815
L 521.06407 -59.267162
L 520.812176 -59.296794
L 520.491101 -59.334563
L 520.102093 -59.380324
L 519.646398 -59.433929
L 519.125262 -59.495233
L 518.539932 -59.564088
L 517.891655 -59.640348
L 517.181676 -59.723866
L 516.411243 -59.814495
L 515.581602 -59.91209
L 514.693999 -60.016503
L 513.74968 -60.127587
L 512.749893 -60.245196
L 511.695884 -60.369184
L 510.588899 -60.499404
L 509.430185 -60.635709
L 508.220988 -60.777952
L 506.962555 -60.925987
L 505.656132 -61.079667
L 504.302966 -61.238846
L 502.904303 -61.403378
L 501.46139 -61.573114
L 499.975473 -61.747909
L 498.447798 -61.927616
L 496.879613 -62.112089
L 495.272163 -62.301181
L 493.626696 -62.494744
L 491.944457 -62.692634
L 490.226693 -62.894702
L 488.47465 -63.100803
L 486.689576 -63.310789
L 484.872717 -63.524514
L 483.025318 -63.741832
L 481.148627 -63.962596
L 479.24389 -64.186658
L 477.312354 -64.413874
L 475.355264 -64.644095
L 473.373868 -64.877176
L 471.369412 -65.112969
L 469.343143 -65.351328
L 467.296306 -65.592107
L 465.230149 -65.835158
L 463.145918 -66.080335
L 461.044859 -66.327492
L 458.928219 -66.576482
L 456.797245 -66.827158
L 454.653182 -67.079374
L 452.497278 -67.332983
L 450.330778 -67.587838
L 448.15493 -67.843793
L 445.97098 -68.100701
L 443.780174 -68.358415
L 441.583759 -68.616789
L 439.382981 -68.875677
L 437.179087 -69.134931
L 434.973323 -69.394405
L 432.766936 -69.653952
L 430.561173 -69.913426
L 428.357279 -70.17268
L 426.156501 -70.431567
L 423.960086 -70.689941
L 421.76928 -70.947656
L 419.58533 -71.204564
L 417.409481 -71.460518
L 415.242982 -71.715374
L 413.087078 -71.968982
L 410.943015 -72.221198
L 408.812041 -72.471874
L 406.695401 -72.720864
L 404.594342 -72.968021
L 402.510111 -73.213199
L 400.443954 -73.45625
L 398.397117 -73.697029
L 396.370848 -73.935388
L 394.366392 -74.171181
L 392.384996 -74.404261
L 390.427906 -74.634483
L 388.49637 -74.861698
L 386.591633 -75.085761
L 384.714942 -75.306524
L 382.867543 -75.523842
L 381.050683 -75.737568
L 379.265609 -75.947554
L 377.513567 -76.153655
L 375.795803 -76.355723
L 374.113564 -76.553612
L 372.468097 -76.747176
L 370.860647 -76.936268
L 369.292462 -77.12074
L 367.764787 -77.300448
L 366.27887 -77.475243
L 364.835957 -77.644979
L 363.437294 -77.80951
L 362.084127 -77.968689
L 360.777705 -78.12237
L 359.519271 -78.270405
L 358.310074 -78.412648
L 357.15136 -78.548953
L 356.044375 -78.679172
L 354.990366 -78.80316
L 353.990579 -78.92077
L 353.046261 -79.031854
L 352.158658 -79.136267
L 351.329017 -79.233861
L 350.558583 -79.324491
L 349.848605 -79.408009
L 349.200327 -79.484269
L 348.614997 -79.553124
L 348.093862 -79.614427
L 347.638167 -79.668033
L 347.249159 -79.713793
L 346.928084 -79.751563
L 346.67619 -79.781194
L 346.494722 -79.802541
L 346.384927 -79.815457
L 346.348052 -79.819795
z
"/>
    </defs>
    <g clip-path="url(#pf1839e5b6b)">
     <use xlink:href="#m13cbbfef19" x="0" y="372.096" style="fill: #f0a06b; fill-opacity: 0.38"/>
    </g>
   </g>
   <g id="FillBetweenPolyCollection_5">
    <defs>
     <path id="mf9dc20d1f3" d="M 346.348052 -67.409929
L 346.348052 -66.232351
L 346.384927 -66.223702
L 346.494722 -66.197952
L 346.67619 -66.155391
L 346.928084 -66.096313
L 347.249159 -66.02101
L 347.638167 -65.929775
L 348.093862 -65.822899
L 348.614997 -65.700674
L 349.200327 -65.563394
L 349.848605 -65.411351
L 350.558583 -65.244837
L 351.329017 -65.064144
L 352.158658 -64.869564
L 353.046261 -64.661391
L 353.990579 -64.439916
L 354.990366 -64.205431
L 356.044375 -63.95823
L 357.15136 -63.698604
L 358.310074 -63.426846
L 359.519271 -63.143248
L 360.777705 -62.848102
L 362.084127 -62.541701
L 363.437294 -62.224337
L 364.835957 -61.896303
L 366.27887 -61.55789
L 367.764787 -61.209391
L 369.292462 -60.851099
L 370.860647 -60.483306
L 372.468097 -60.106304
L 374.113564 -59.720385
L 375.795803 -59.325842
L 377.513567 -58.922968
L 379.265609 -58.512054
L 381.050683 -58.093392
L 382.867543 -57.667276
L 384.714942 -57.233998
L 386.591633 -56.79385
L 388.49637 -56.347123
L 390.427906 -55.894112
L 392.384996 -55.435107
L 394.366392 -54.970402
L 396.370848 -54.500288
L 398.397117 -54.025058
L 400.443954 -53.545005
L 402.510111 -53.06042
L 404.594342 -52.571596
L 406.695401 -52.078826
L 408.812041 -51.582401
L 410.943015 -51.082614
L 413.087078 -50.579758
L 415.242982 -50.074124
L 417.409481 -49.566006
L 419.58533 -49.055695
L 421.76928 -48.543483
L 423.960086 -48.029664
L 426.156501 -47.51453
L 428.357279 -46.998372
L 430.561173 -46.481483
L 432.766936 -45.964155
L 434.973323 -45.446682
L 437.179087 -44.929355
L 439.382981 -44.412466
L 441.583759 -43.896308
L 443.780174 -43.381173
L 445.97098 -42.867354
L 448.15493 -42.355143
L 450.330778 -41.844831
L 452.497278 -41.336713
L 454.653182 -40.831079
L 456.797245 -40.328223
L 458.928219 -39.828436
L 461.044859 -39.332012
L 463.145918 -38.839241
L 465.230149 -38.350418
L 467.296306 -37.865833
L 469.343143 -37.385779
L 471.369412 -36.910549
L 473.373868 -36.440436
L 475.355264 -35.97573
L 477.312354 -35.516726
L 479.24389 -35.063714
L 481.148627 -34.616988
L 483.025318 -34.176839
L 484.872717 -33.743561
L 486.689576 -33.317445
L 488.47465 -32.898784
L 490.226693 -32.48787
L 491.944457 -32.084995
L 493.626696 -31.690452
L 495.272163 -31.304534
L 496.879613 -30.927532
L 498.447798 -30.559738
L 499.975473 -30.201446
L 501.46139 -29.852948
L 502.904303 -29.514535
L 504.302966 -29.1865
L 505.656132 -28.869136
L 506.962555 -28.562735
L 508.220988 -28.26759
L 509.430185 -27.983991
L 510.588899 -27.712233
L 511.695884 -27.452607
L 512.749893 -27.205406
L 513.74968 -26.970922
L 514.693999 -26.749446
L 515.581602 -26.541273
L 516.411243 -26.346694
L 517.181676 -26.166001
L 517.891655 -25.999486
L 518.539932 -25.847443
L 519.125262 -25.710163
L 519.646398 -25.587939
L 520.102093 -25.481063
L 520.491101 -25.389827
L 520.812176 -25.314524
L 521.06407 -25.255446
L 521.245538 -25.212886
L 521.355333 -25.187135
L 521.392208 -25.178486
L 521.392208 -26.356065
L 521.392208 -26.356065
L 521.355333 -26.364713
L 521.245538 -26.390464
L 521.06407 -26.433024
L 520.812176 -26.492102
L 520.491101 -26.567405
L 520.102093 -26.658641
L 519.646398 -26.765517
L 519.125262 -26.887741
L 518.539932 -27.025021
L 517.891655 -27.177065
L 517.181676 -27.343579
L 516.411243 -27.524272
L 515.581602 -27.718852
L 514.693999 -27.927025
L 513.74968 -28.1485
L 512.749893 -28.382984
L 511.695884 -28.630186
L 510.588899 -28.889812
L 509.430185 -29.16157
L 508.220988 -29.445168
L 506.962555 -29.740314
L 505.656132 -30.046715
L 504.302966 -30.364079
L 502.904303 -30.692113
L 501.46139 -31.030526
L 499.975473 -31.379025
L 498.447798 -31.737317
L 496.879613 -32.10511
L 495.272163 -32.482112
L 493.626696 -32.868031
L 491.944457 -33.262574
L 490.226693 -33.665448
L 488.47465 -34.076362
L 486.689576 -34.495023
L 484.872717 -34.921139
L 483.025318 -35.354418
L 481.148627 -35.794566
L 479.24389 -36.241292
L 477.312354 -36.694304
L 475.355264 -37.153309
L 473.373868 -37.618014
L 471.369412 -38.088128
L 469.343143 -38.563358
L 467.296306 -39.043411
L 465.230149 -39.527996
L 463.145918 -40.01682
L 461.044859 -40.50959
L 458.928219 -41.006015
L 456.797245 -41.505802
L 454.653182 -42.008658
L 452.497278 -42.514291
L 450.330778 -43.02241
L 448.15493 -43.532721
L 445.97098 -44.044932
L 443.780174 -44.558752
L 441.583759 -45.073886
L 439.382981 -45.590044
L 437.179087 -46.106933
L 434.973323 -46.62426
L 432.766936 -47.141734
L 430.561173 -47.659061
L 428.357279 -48.17595
L 426.156501 -48.692108
L 423.960086 -49.207243
L 421.76928 -49.721062
L 419.58533 -50.233273
L 417.409481 -50.743584
L 415.242982 -51.251703
L 413.087078 -51.757336
L 410.943015 -52.260193
L 408.812041 -52.759979
L 406.695401 -53.256404
L 404.594342 -53.749175
L 402.510111 -54.237998
L 400.443954 -54.722583
L 398.397117 -55.202637
L 396.370848 -55.677866
L 394.366392 -56.14798
L 392.384996 -56.612685
L 390.427906 -57.07169
L 388.49637 -57.524702
L 386.591633 -57.971428
L 384.714942 -58.411576
L 382.867543 -58.844855
L 381.050683 -59.270971
L 379.265609 -59.689632
L 377.513567 -60.100546
L 375.795803 -60.503421
L 374.113564 -60.897963
L 372.468097 -61.283882
L 370.860647 -61.660884
L 369.292462 -62.028678
L 367.764787 -62.38697
L 366.27887 -62.735468
L 364.835957 -63.073881
L 363.437294 -63.401915
L 362.084127 -63.719279
L 360.777705 -64.02568
L 359.519271 -64.320826
L 358.310074 -64.604424
L 357.15136 -64.876183
L 356.044375 -65.135809
L 354.990366 -65.38301
L 353.990579 -65.617494
L 353.046261 -65.838969
L 352.158658 -66.047143
L 351.329017 -66.241722
L 350.558583 -66.422415
L 349.848605 -66.58893
L 349.200327 -66.740973
L 348.614997 -66.878253
L 348.093862 -67.000477
L 347.638167 -67.107353
L 347.249159 -67.198589
L 346.928084 -67.273892
L 346.67619 -67.33297
L 346.494722 -67.37553
L 346.384927 -67.401281
L 346.348052 -67.409929
z
"/>
    </defs>
    <g clip-path="url(#pf1839e5b6b)">
     <use xlink:href="#mf9dc20d1f3" x="0" y="372.096" style="fill: #f0a06b; fill-opacity: 0.38"/>
    </g>
   </g>
   <g id="FillBetweenPolyCollection_6">
    <defs>
     <path id="mf4a4d5cdd2" d="M 346.348052 -58.945951
L 346.348052 -42.641019
L 346.384927 -42.670136
L 346.494722 -42.756832
L 346.67619 -42.900123
L 346.928084 -43.099024
L 347.249159 -43.352551
L 347.638167 -43.65972
L 348.093862 -44.019547
L 348.614997 -44.431046
L 349.200327 -44.893235
L 349.848605 -45.405128
L 350.558583 -45.965742
L 351.329017 -46.574093
L 352.158658 -47.229195
L 353.046261 -47.930065
L 353.990579 -48.675718
L 354.990366 -49.465171
L 356.044375 -50.297439
L 357.15136 -51.171537
L 358.310074 -52.086482
L 359.519271 -53.04129
L 360.777705 -54.034975
L 362.084127 -55.066554
L 363.437294 -56.135042
L 364.835957 -57.239456
L 366.27887 -58.378811
L 367.764787 -59.552122
L 369.292462 -60.758406
L 370.860647 -61.996678
L 372.468097 -63.265954
L 374.113564 -64.565249
L 375.795803 -65.893581
L 377.513567 -67.249963
L 379.265609 -68.633412
L 381.050683 -70.042944
L 382.867543 -71.477575
L 384.714942 -72.936319
L 386.591633 -74.418194
L 388.49637 -75.922214
L 390.427906 -77.447396
L 392.384996 -78.992755
L 394.366392 -80.557307
L 396.370848 -82.140067
L 398.397117 -83.740052
L 400.443954 -85.356277
L 402.510111 -86.987758
L 404.594342 -88.633511
L 406.695401 -90.292551
L 408.812041 -91.963894
L 410.943015 -93.646556
L 413.087078 -95.339553
L 415.242982 -97.0419
L 417.409481 -98.752614
L 419.58533 -100.470709
L 421.76928 -102.195202
L 423.960086 -103.925108
L 426.156501 -105.659444
L 428.357279 -107.397224
L 430.561173 -109.137465
L 432.766936 -110.879182
L 434.973323 -112.621392
L 437.179087 -114.363109
L 439.382981 -116.10335
L 441.583759 -117.84113
L 443.780174 -119.575466
L 445.97098 -121.305372
L 448.15493 -123.029865
L 450.330778 -124.74796
L 452.497278 -126.458674
L 454.653182 -128.161021
L 456.797245 -129.854018
L 458.928219 -131.53668
L 461.044859 -133.208023
L 463.145918 -134.867063
L 465.230149 -136.512816
L 467.296306 -138.144297
L 469.343143 -139.760522
L 471.369412 -141.360507
L 473.373868 -142.943267
L 475.355264 -144.507819
L 477.312354 -146.053178
L 479.24389 -147.57836
L 481.148627 -149.08238
L 483.025318 -150.564255
L 484.872717 -152.022999
L 486.689576 -153.45763
L 488.47465 -154.867162
L 490.226693 -156.250611
L 491.944457 -157.606994
L 493.626696 -158.935325
L 495.272163 -160.23462
L 496.879613 -161.503896
L 498.447798 -162.742168
L 499.975473 -163.948452
L 501.46139 -165.121764
L 502.904303 -166.261118
L 504.302966 -167.365532
L 505.656132 -168.43402
L 506.962555 -169.465599
L 508.220988 -170.459284
L 509.430185 -171.414092
L 510.588899 -172.329037
L 511.695884 -173.203135
L 512.749893 -174.035403
L 513.74968 -174.824856
L 514.693999 -175.570509
L 515.581602 -176.271379
L 516.411243 -176.926481
L 517.181676 -177.534832
L 517.891655 -178.095446
L 518.539932 -178.607339
L 519.125262 -179.069528
L 519.646398 -179.481028
L 520.102093 -179.840854
L 520.491101 -180.148023
L 520.812176 -180.40155
L 521.06407 -180.600451
L 521.245538 -180.743742
L 521.355333 -180.830438
L 521.392208 -180.859556
L 521.392208 -197.164488
L 521.392208 -197.164488
L 521.355333 -197.13537
L 521.245538 -197.048674
L 521.06407 -196.905383
L 520.812176 -196.706482
L 520.491101 -196.452955
L 520.102093 -196.145786
L 519.646398 -195.78596
L 519.125262 -195.37446
L 518.539932 -194.912272
L 517.891655 -194.400378
L 517.181676 -193.839764
L 516.411243 -193.231414
L 515.581602 -192.576312
L 514.693999 -191.875442
L 513.74968 -191.129788
L 512.749893 -190.340335
L 511.695884 -189.508068
L 510.588899 -188.633969
L 509.430185 -187.719024
L 508.220988 -186.764217
L 506.962555 -185.770532
L 505.656132 -184.738953
L 504.302966 -183.670464
L 502.904303 -182.566051
L 501.46139 -181.426696
L 499.975473 -180.253385
L 498.447798 -179.047101
L 496.879613 -177.808829
L 495.272163 -176.539553
L 493.626696 -175.240257
L 491.944457 -173.911926
L 490.226693 -172.555544
L 488.47465 -171.172094
L 486.689576 -169.762562
L 484.872717 -168.327932
L 483.025318 -166.869187
L 481.148627 -165.387313
L 479.24389 -163.883292
L 477.312354 -162.358111
L 475.355264 -160.812752
L 473.373868 -159.2482
L 471.369412 -157.665439
L 469.343143 -156.065454
L 467.296306 -154.449229
L 465.230149 -152.817748
L 463.145918 -151.171996
L 461.044859 -149.512955
L 458.928219 -147.841612
L 456.797245 -146.15895
L 454.653182 -144.465953
L 452.497278 -142.763606
L 450.330778 -141.052893
L 448.15493 -139.334797
L 445.97098 -137.610305
L 443.780174 -135.880398
L 441.583759 -134.146063
L 439.382981 -132.408282
L 437.179087 -130.668042
L 434.973323 -128.926324
L 432.766936 -127.184115
L 430.561173 -125.442397
L 428.357279 -123.702156
L 426.156501 -121.964376
L 423.960086 -120.230041
L 421.76928 -118.500134
L 419.58533 -116.775641
L 417.409481 -115.057546
L 415.242982 -113.346833
L 413.087078 -111.644486
L 410.943015 -109.951489
L 408.812041 -108.268827
L 406.695401 -106.597483
L 404.594342 -104.938443
L 402.510111 -103.292691
L 400.443954 -101.66121
L 398.397117 -100.044984
L 396.370848 -98.445
L 394.366392 -96.862239
L 392.384996 -95.297687
L 390.427906 -93.752328
L 388.49637 -92.227147
L 386.591633 -90.723126
L 384.714942 -89.241252
L 382.867543 -87.782507
L 381.050683 -86.347877
L 379.265609 -84.938345
L 377.513567 -83.554895
L 375.795803 -82.198513
L 374.113564 -80.870182
L 372.468097 -79.570886
L 370.860647 -78.30161
L 369.292462 -77.063338
L 367.764787 -75.857054
L 366.27887 -74.683743
L 364.835957 -73.544388
L 363.437294 -72.439975
L 362.084127 -71.371486
L 360.777705 -70.339907
L 359.519271 -69.346222
L 358.310074 -68.391415
L 357.15136 -67.47647
L 356.044375 -66.602371
L 354.990366 -65.770104
L 353.990579 -64.980651
L 353.046261 -64.234997
L 352.158658 -63.534127
L 351.329017 -62.879025
L 350.558583 -62.270675
L 349.848605 -61.710061
L 349.200327 -61.198167
L 348.614997 -60.735979
L 348.093862 -60.324479
L 347.638167 -59.964653
L 347.249159 -59.657484
L 346.928084 -59.403957
L 346.67619 -59.205055
L 346.494722 -59.061765
L 346.384927 -58.975068
L 346.348052 -58.945951
z
"/>
    </defs>
    <g clip-path="url(#pf1839e5b6b)">
     <use xlink:href="#mf4a4d5cdd2" x="0" y="372.096" style="fill: #7ba6d0; fill-opacity: 0.38"/>
    </g>
   </g>
   <g id="FillBetweenPolyCollection_7">
    <defs>
     <path id="m9c3e392240" d="M 346.348052 -42.641019
L 346.348052 -32.858059
L 346.384927 -32.858939
L 346.494722 -32.86156
L 346.67619 -32.865891
L 346.928084 -32.871902
L 347.249159 -32.879565
L 347.638167 -32.88885
L 348.093862 -32.899725
L 348.614997 -32.912163
L 349.200327 -32.926133
L 349.848605 -32.941605
L 350.558583 -32.958549
L 351.329017 -32.976937
L 352.158658 -32.996738
L 353.046261 -33.017921
L 353.990579 -33.040459
L 354.990366 -33.06432
L 356.044375 -33.089476
L 357.15136 -33.115896
L 358.310074 -33.14355
L 359.519271 -33.172409
L 360.777705 -33.202443
L 362.084127 -33.233623
L 363.437294 -33.265918
L 364.835957 -33.299299
L 366.27887 -33.333737
L 367.764787 -33.3692
L 369.292462 -33.40566
L 370.860647 -33.443087
L 372.468097 -33.481451
L 374.113564 -33.520723
L 375.795803 -33.560872
L 377.513567 -33.601869
L 379.265609 -33.643684
L 381.050683 -33.686287
L 382.867543 -33.729649
L 384.714942 -33.77374
L 386.591633 -33.81853
L 388.49637 -33.863989
L 390.427906 -33.910088
L 392.384996 -33.956796
L 394.366392 -34.004085
L 396.370848 -34.051924
L 398.397117 -34.100284
L 400.443954 -34.149135
L 402.510111 -34.198447
L 404.594342 -34.24819
L 406.695401 -34.298335
L 408.812041 -34.348851
L 410.943015 -34.39971
L 413.087078 -34.450881
L 415.242982 -34.502335
L 417.409481 -34.554041
L 419.58533 -34.605971
L 421.76928 -34.658094
L 423.960086 -34.710381
L 426.156501 -34.762802
L 428.357279 -34.815326
L 430.561173 -34.867925
L 432.766936 -34.920569
L 434.973323 -34.973228
L 437.179087 -35.025871
L 439.382981 -35.07847
L 441.583759 -35.130995
L 443.780174 -35.183416
L 445.97098 -35.235702
L 448.15493 -35.287825
L 450.330778 -35.339755
L 452.497278 -35.391462
L 454.653182 -35.442915
L 456.797245 -35.494087
L 458.928219 -35.544945
L 461.044859 -35.595462
L 463.145918 -35.645607
L 465.230149 -35.69535
L 467.296306 -35.744662
L 469.343143 -35.793512
L 471.369412 -35.841872
L 473.373868 -35.889711
L 475.355264 -35.937
L 477.312354 -35.983709
L 479.24389 -36.029808
L 481.148627 -36.075267
L 483.025318 -36.120057
L 484.872717 -36.164148
L 486.689576 -36.20751
L 488.47465 -36.250113
L 490.226693 -36.291928
L 491.944457 -36.332925
L 493.626696 -36.373074
L 495.272163 -36.412345
L 496.879613 -36.450709
L 498.447798 -36.488136
L 499.975473 -36.524596
L 501.46139 -36.56006
L 502.904303 -36.594497
L 504.302966 -36.627878
L 505.656132 -36.660174
L 506.962555 -36.691353
L 508.220988 -36.721387
L 509.430185 -36.750247
L 510.588899 -36.777901
L 511.695884 -36.804321
L 512.749893 -36.829476
L 513.74968 -36.853338
L 514.693999 -36.875875
L 515.581602 -36.897059
L 516.411243 -36.91686
L 517.181676 -36.935247
L 517.891655 -36.952192
L 518.539932 -36.967664
L 519.125262 -36.981634
L 519.646398 -36.994071
L 520.102093 -37.004947
L 520.491101 -37.014231
L 520.812176 -37.021894
L 521.06407 -37.027906
L 521.245538 -37.032237
L 521.355333 -37.034857
L 521.392208 -37.035737
L 521.392208 -46.818697
L 521.392208 -46.818697
L 521.355333 -46.817817
L 521.245538 -46.815196
L 521.06407 -46.810865
L 520.812176 -46.804854
L 520.491101 -46.797191
L 520.102093 -46.787906
L 519.646398 -46.777031
L 519.125262 -46.764593
L 518.539932 -46.750623
L 517.891655 -46.735151
L 517.181676 -46.718206
L 516.411243 -46.699819
L 515.581602 -46.680018
L 514.693999 -46.658835
L 513.74968 -46.636297
L 512.749893 -46.612436
L 511.695884 -46.58728
L 510.588899 -46.56086
L 509.430185 -46.533206
L 508.220988 -46.504347
L 506.962555 -46.474313
L 505.656132 -46.443133
L 504.302966 -46.410838
L 502.904303 -46.377457
L 501.46139 -46.343019
L 499.975473 -46.307556
L 498.447798 -46.271096
L 496.879613 -46.233669
L 495.272163 -46.195305
L 493.626696 -46.156033
L 491.944457 -46.115884
L 490.226693 -46.074887
L 488.47465 -46.033072
L 486.689576 -45.990469
L 484.872717 -45.947107
L 483.025318 -45.903016
L 481.148627 -45.858226
L 479.24389 -45.812767
L 477.312354 -45.766668
L 475.355264 -45.71996
L 473.373868 -45.672671
L 471.369412 -45.624832
L 469.343143 -45.576472
L 467.296306 -45.527621
L 465.230149 -45.478309
L 463.145918 -45.428566
L 461.044859 -45.378421
L 458.928219 -45.327905
L 456.797245 -45.277046
L 454.653182 -45.225875
L 452.497278 -45.174421
L 450.330778 -45.122715
L 448.15493 -45.070785
L 445.97098 -45.018662
L 443.780174 -44.966375
L 441.583759 -44.913954
L 439.382981 -44.86143
L 437.179087 -44.808831
L 434.973323 -44.756187
L 432.766936 -44.703528
L 430.561173 -44.650885
L 428.357279 -44.598286
L 426.156501 -44.545761
L 423.960086 -44.49334
L 421.76928 -44.441054
L 419.58533 -44.388931
L 417.409481 -44.337001
L 415.242982 -44.285294
L 413.087078 -44.233841
L 410.943015 -44.182669
L 408.812041 -44.131811
L 406.695401 -44.081294
L 404.594342 -44.031149
L 402.510111 -43.981406
L 400.443954 -43.932094
L 398.397117 -43.883244
L 396.370848 -43.834884
L 394.366392 -43.787045
L 392.384996 -43.739756
L 390.427906 -43.693047
L 388.49637 -43.646948
L 386.591633 -43.601489
L 384.714942 -43.556699
L 382.867543 -43.512608
L 381.050683 -43.469246
L 379.265609 -43.426643
L 377.513567 -43.384828
L 375.795803 -43.343831
L 374.113564 -43.303682
L 372.468097 -43.264411
L 370.860647 -43.226047
L 369.292462 -43.18862
L 367.764787 -43.152159
L 366.27887 -43.116696
L 364.835957 -43.082259
L 363.437294 -43.048878
L 362.084127 -43.016582
L 360.777705 -42.985403
L 359.519271 -42.955368
L 358.310074 -42.926509
L 357.15136 -42.898855
L 356.044375 -42.872435
L 354.990366 -42.84728
L 353.990579 -42.823418
L 353.046261 -42.800881
L 352.158658 -42.779697
L 351.329017 -42.759896
L 350.558583 -42.741509
L 349.848605 -42.724564
L 349.200327 -42.709092
L 348.614997 -42.695122
L 348.093862 -42.682685
L 347.638167 -42.671809
L 347.249159 -42.662525
L 346.928084 -42.654862
L 346.67619 -42.64885
L 346.494722 -42.644519
L 346.384927 -42.641899
L 346.348052 -42.641019
z
"/>
    </defs>
    <g clip-path="url(#pf1839e5b6b)">
     <use xlink:href="#m9c3e392240" x="0" y="372.096" style="fill: #7ba6d0; fill-opacity: 0.38"/>
    </g>
   </g>
   <g id="FillBetweenPolyCollection_8">
    <defs>
     <path id="mf1121ab5c8" d="M 346.348052 -32.858059
L 346.348052 -31.499315
L 346.384927 -31.497697
L 346.494722 -31.49288
L 346.67619 -31.484919
L 346.928084 -31.473867
L 347.249159 -31.459781
L 347.638167 -31.442715
L 348.093862 -31.422722
L 348.614997 -31.399859
L 349.200327 -31.374179
L 349.848605 -31.345738
L 350.558583 -31.31459
L 351.329017 -31.280789
L 352.158658 -31.244391
L 353.046261 -31.20545
L 353.990579 -31.16402
L 354.990366 -31.120157
L 356.044375 -31.073916
L 357.15136 -31.02535
L 358.310074 -30.974515
L 359.519271 -30.921464
L 360.777705 -30.866254
L 362.084127 -30.808938
L 363.437294 -30.749572
L 364.835957 -30.68821
L 366.27887 -30.624906
L 367.764787 -30.559715
L 369.292462 -30.492693
L 370.860647 -30.423893
L 372.468097 -30.353371
L 374.113564 -30.281181
L 375.795803 -30.207377
L 377.513567 -30.132015
L 379.265609 -30.055149
L 381.050683 -29.976834
L 382.867543 -29.897124
L 384.714942 -29.816075
L 386.591633 -29.73374
L 388.49637 -29.650175
L 390.427906 -29.565434
L 392.384996 -29.479573
L 394.366392 -29.392644
L 396.370848 -29.304705
L 398.397117 -29.215808
L 400.443954 -29.126008
L 402.510111 -29.035362
L 404.594342 -28.943922
L 406.695401 -28.851744
L 408.812041 -28.758882
L 410.943015 -28.665391
L 413.087078 -28.571327
L 415.242982 -28.476742
L 417.409481 -28.381693
L 419.58533 -28.286234
L 421.76928 -28.190419
L 423.960086 -28.094304
L 426.156501 -27.997942
L 428.357279 -27.901389
L 430.561173 -27.8047
L 432.766936 -27.707928
L 434.973323 -27.611129
L 437.179087 -27.514357
L 439.382981 -27.417668
L 441.583759 -27.321115
L 443.780174 -27.224753
L 445.97098 -27.128637
L 448.15493 -27.032823
L 450.330778 -26.937364
L 452.497278 -26.842314
L 454.653182 -26.74773
L 456.797245 -26.653665
L 458.928219 -26.560175
L 461.044859 -26.467313
L 463.145918 -26.375135
L 465.230149 -26.283695
L 467.296306 -26.193048
L 469.343143 -26.103249
L 471.369412 -26.014352
L 473.373868 -25.926412
L 475.355264 -25.839484
L 477.312354 -25.753622
L 479.24389 -25.668882
L 481.148627 -25.585317
L 483.025318 -25.502982
L 484.872717 -25.421933
L 486.689576 -25.342223
L 488.47465 -25.263908
L 490.226693 -25.187042
L 491.944457 -25.11168
L 493.626696 -25.037876
L 495.272163 -24.965686
L 496.879613 -24.895164
L 498.447798 -24.826364
L 499.975473 -24.759341
L 501.46139 -24.694151
L 502.904303 -24.630847
L 504.302966 -24.569485
L 505.656132 -24.510118
L 506.962555 -24.452803
L 508.220988 -24.397592
L 509.430185 -24.344542
L 510.588899 -24.293707
L 511.695884 -24.245141
L 512.749893 -24.198899
L 513.74968 -24.155037
L 514.693999 -24.113607
L 515.581602 -24.074666
L 516.411243 -24.038268
L 517.181676 -24.004467
L 517.891655 -23.973319
L 518.539932 -23.944878
L 519.125262 -23.919198
L 519.646398 -23.896335
L 520.102093 -23.876342
L 520.491101 -23.859276
L 520.812176 -23.845189
L 521.06407 -23.834138
L 521.245538 -23.826177
L 521.355333 -23.82136
L 521.392208 -23.819742
L 521.392208 -25.178486
L 521.392208 -25.178486
L 521.355333 -25.180104
L 521.245538 -25.184921
L 521.06407 -25.192883
L 520.812176 -25.203934
L 520.491101 -25.21802
L 520.102093 -25.235087
L 519.646398 -25.255079
L 519.125262 -25.277942
L 518.539932 -25.303622
L 517.891655 -25.332063
L 517.181676 -25.363212
L 516.411243 -25.397012
L 515.581602 -25.433411
L 514.693999 -25.472352
L 513.74968 -25.513781
L 512.749893 -25.557644
L 511.695884 -25.603886
L 510.588899 -25.652451
L 509.430185 -25.703287
L 508.220988 -25.756337
L 506.962555 -25.811547
L 505.656132 -25.868863
L 504.302966 -25.928229
L 502.904303 -25.989592
L 501.46139 -26.052895
L 499.975473 -26.118086
L 498.447798 -26.185108
L 496.879613 -26.253908
L 495.272163 -26.32443
L 493.626696 -26.396621
L 491.944457 -26.470424
L 490.226693 -26.545786
L 488.47465 -26.622652
L 486.689576 -26.700967
L 484.872717 -26.780677
L 483.025318 -26.861726
L 481.148627 -26.944061
L 479.24389 -27.027626
L 477.312354 -27.112367
L 475.355264 -27.198229
L 473.373868 -27.285157
L 471.369412 -27.373097
L 469.343143 -27.461994
L 467.296306 -27.551793
L 465.230149 -27.64244
L 463.145918 -27.733879
L 461.044859 -27.826058
L 458.928219 -27.918919
L 456.797245 -28.01241
L 454.653182 -28.106475
L 452.497278 -28.201059
L 450.330778 -28.296108
L 448.15493 -28.391567
L 445.97098 -28.487382
L 443.780174 -28.583497
L 441.583759 -28.679859
L 439.382981 -28.776412
L 437.179087 -28.873102
L 434.973323 -28.969873
L 432.766936 -29.066672
L 430.561173 -29.163444
L 428.357279 -29.260134
L 426.156501 -29.356687
L 423.960086 -29.453048
L 421.76928 -29.549164
L 419.58533 -29.644978
L 417.409481 -29.740438
L 415.242982 -29.835487
L 413.087078 -29.930071
L 410.943015 -30.024136
L 408.812041 -30.117626
L 406.695401 -30.210488
L 404.594342 -30.302666
L 402.510111 -30.394106
L 400.443954 -30.484753
L 398.397117 -30.574552
L 396.370848 -30.663449
L 394.366392 -30.751389
L 392.384996 -30.838317
L 390.427906 -30.924179
L 388.49637 -31.00892
L 386.591633 -31.092485
L 384.714942 -31.174819
L 382.867543 -31.255869
L 381.050683 -31.335578
L 379.265609 -31.413893
L 377.513567 -31.490759
L 375.795803 -31.566121
L 374.113564 -31.639925
L 372.468097 -31.712115
L 370.860647 -31.782638
L 369.292462 -31.851437
L 367.764787 -31.91846
L 366.27887 -31.98365
L 364.835957 -32.046954
L 363.437294 -32.108316
L 362.084127 -32.167683
L 360.777705 -32.224999
L 359.519271 -32.280209
L 358.310074 -32.333259
L 357.15136 -32.384094
L 356.044375 -32.43266
L 354.990366 -32.478902
L 353.990579 -32.522765
L 353.046261 -32.564194
L 352.158658 -32.603135
L 351.329017 -32.639533
L 350.558583 -32.673334
L 349.848605 -32.704482
L 349.200327 -32.732924
L 348.614997 -32.758603
L 348.093862 -32.781467
L 347.638167 -32.801459
L 347.249159 -32.818526
L 346.928084 -32.832612
L 346.67619 -32.843663
L 346.494722 -32.851624
L 346.384927 -32.856441
L 346.348052 -32.858059
z
"/>
    </defs>
    <g clip-path="url(#pf1839e5b6b)">
     <use xlink:href="#mf1121ab5c8" x="0" y="372.096" style="fill: #7ba6d0; fill-opacity: 0.38"/>
    </g>
   </g>
   <g id="FillBetweenPolyCollection_9">
    <defs>
     <path id="m7dee7cb32f" d="M 346.348052 -24.212915
L 346.348052 -24.031749
L 346.384927 -24.064748
L 346.494722 -24.163004
L 346.67619 -24.325399
L 346.928084 -24.550818
L 347.249159 -24.838147
L 347.638167 -25.18627
L 348.093862 -25.59407
L 348.614997 -26.060434
L 349.200327 -26.584244
L 349.848605 -27.164386
L 350.558583 -27.799744
L 351.329017 -28.489203
L 352.158658 -29.231648
L 353.046261 -30.025962
L 353.990579 -30.87103
L 354.990366 -31.765737
L 356.044375 -32.708968
L 357.15136 -33.699606
L 358.310074 -34.736537
L 359.519271 -35.818645
L 360.777705 -36.944814
L 362.084127 -38.113929
L 363.437294 -39.324875
L 364.835957 -40.576535
L 366.27887 -41.867795
L 367.764787 -43.197539
L 369.292462 -44.564652
L 370.860647 -45.968018
L 372.468097 -47.406521
L 374.113564 -48.879046
L 375.795803 -50.384478
L 377.513567 -51.921702
L 379.265609 -53.489601
L 381.050683 -55.08706
L 382.867543 -56.712963
L 384.714942 -58.366196
L 386.591633 -60.045643
L 388.49637 -61.750188
L 390.427906 -63.478716
L 392.384996 -65.230111
L 394.366392 -67.003258
L 396.370848 -68.797042
L 398.397117 -70.610346
L 400.443954 -72.442056
L 402.510111 -74.291055
L 404.594342 -76.156229
L 406.695401 -78.036462
L 408.812041 -79.930639
L 410.943015 -81.837643
L 413.087078 -83.75636
L 415.242982 -85.685675
L 417.409481 -87.62447
L 419.58533 -89.571632
L 421.76928 -91.526044
L 423.960086 -93.486592
L 426.156501 -95.452159
L 428.357279 -97.42163
L 430.561173 -99.393891
L 432.766936 -101.367824
L 434.973323 -103.342315
L 437.179087 -105.316248
L 439.382981 -107.288508
L 441.583759 -109.257979
L 443.780174 -111.223547
L 445.97098 -113.184094
L 448.15493 -115.138507
L 450.330778 -117.085668
L 452.497278 -119.024464
L 454.653182 -120.953778
L 456.797245 -122.872495
L 458.928219 -124.7795
L 461.044859 -126.673676
L 463.145918 -128.553909
L 465.230149 -130.419083
L 467.296306 -132.268083
L 469.343143 -134.099793
L 471.369412 -135.913097
L 473.373868 -137.70688
L 475.355264 -139.480027
L 477.312354 -141.231422
L 479.24389 -142.95995
L 481.148627 -144.664495
L 483.025318 -146.343942
L 484.872717 -147.997175
L 486.689576 -149.623079
L 488.47465 -151.220538
L 490.226693 -152.788437
L 491.944457 -154.32566
L 493.626696 -155.831092
L 495.272163 -157.303618
L 496.879613 -158.742121
L 498.447798 -160.145487
L 499.975473 -161.512599
L 501.46139 -162.842343
L 502.904303 -164.133603
L 504.302966 -165.385264
L 505.656132 -166.596209
L 506.962555 -167.765324
L 508.220988 -168.891494
L 509.430185 -169.973601
L 510.588899 -171.010532
L 511.695884 -172.001171
L 512.749893 -172.944401
L 513.74968 -173.839108
L 514.693999 -174.684177
L 515.581602 -175.478491
L 516.411243 -176.220935
L 517.181676 -176.910394
L 517.891655 -177.545752
L 518.539932 -178.125895
L 519.125262 -178.649705
L 519.646398 -179.116068
L 520.102093 -179.523869
L 520.491101 -179.871991
L 520.812176 -180.15932
L 521.06407 -180.38474
L 521.245538 -180.547135
L 521.355333 -180.64539
L 521.392208 -180.67839
L 521.392208 -180.859556
L 521.392208 -180.859556
L 521.355333 -180.826556
L 521.245538 -180.728301
L 521.06407 -180.565906
L 520.812176 -180.340486
L 520.491101 -180.053157
L 520.102093 -179.705035
L 519.646398 -179.297234
L 519.125262 -178.830871
L 518.539932 -178.30706
L 517.891655 -177.726918
L 517.181676 -177.09156
L 516.411243 -176.402101
L 515.581602 -175.659657
L 514.693999 -174.865343
L 513.74968 -174.020274
L 512.749893 -173.125567
L 511.695884 -172.182336
L 510.588899 -171.191698
L 509.430185 -170.154767
L 508.220988 -169.07266
L 506.962555 -167.94649
L 505.656132 -166.777375
L 504.302966 -165.56643
L 502.904303 -164.314769
L 501.46139 -163.023509
L 499.975473 -161.693765
L 498.447798 -160.326652
L 496.879613 -158.923287
L 495.272163 -157.484783
L 493.626696 -156.012258
L 491.944457 -154.506826
L 490.226693 -152.969603
L 488.47465 -151.401704
L 486.689576 -149.804245
L 484.872717 -148.178341
L 483.025318 -146.525108
L 481.148627 -144.845661
L 479.24389 -143.141116
L 477.312354 -141.412588
L 475.355264 -139.661193
L 473.373868 -137.888046
L 471.369412 -136.094263
L 469.343143 -134.280958
L 467.296306 -132.449249
L 465.230149 -130.600249
L 463.145918 -128.735075
L 461.044859 -126.854842
L 458.928219 -124.960666
L 456.797245 -123.053661
L 454.653182 -121.134944
L 452.497278 -119.20563
L 450.330778 -117.266834
L 448.15493 -115.319672
L 445.97098 -113.36526
L 443.780174 -111.404713
L 441.583759 -109.439145
L 439.382981 -107.469674
L 437.179087 -105.497414
L 434.973323 -103.523481
L 432.766936 -101.54899
L 430.561173 -99.575056
L 428.357279 -97.602796
L 426.156501 -95.633325
L 423.960086 -93.667758
L 421.76928 -91.70721
L 419.58533 -89.752798
L 417.409481 -87.805636
L 415.242982 -85.86684
L 413.087078 -83.937526
L 410.943015 -82.018809
L 408.812041 -80.111805
L 406.695401 -78.217628
L 404.594342 -76.337395
L 402.510111 -74.472221
L 400.443954 -72.623222
L 398.397117 -70.791512
L 396.370848 -68.978208
L 394.366392 -67.184424
L 392.384996 -65.411277
L 390.427906 -63.659882
L 388.49637 -61.931354
L 386.591633 -60.226809
L 384.714942 -58.547362
L 382.867543 -56.894129
L 381.050683 -55.268226
L 379.265609 -53.670766
L 377.513567 -52.102868
L 375.795803 -50.565644
L 374.113564 -49.060212
L 372.468097 -47.587687
L 370.860647 -46.149184
L 369.292462 -44.745818
L 367.764787 -43.378705
L 366.27887 -42.048961
L 364.835957 -40.757701
L 363.437294 -39.506041
L 362.084127 -38.295095
L 360.777705 -37.12598
L 359.519271 -35.999811
L 358.310074 -34.917703
L 357.15136 -33.880772
L 356.044375 -32.890134
L 354.990366 -31.946903
L 353.990579 -31.052196
L 353.046261 -30.207128
L 352.158658 -29.412814
L 351.329017 -28.670369
L 350.558583 -27.98091
L 349.848605 -27.345552
L 349.200327 -26.76541
L 348.614997 -26.241599
L 348.093862 -25.775236
L 347.638167 -25.367436
L 347.249159 -25.019313
L 346.928084 -24.731984
L 346.67619 -24.506565
L 346.494722 -24.344169
L 346.384927 -24.245914
L 346.348052 -24.212915
z
"/>
    </defs>
    <g clip-path="url(#pf1839e5b6b)">
     <use xlink:href="#m7dee7cb32f" x="0" y="372.096" style="fill: #7a4a00; fill-opacity: 0.55"/>
    </g>
   </g>
   <g id="FillBetweenPolyCollection_10">
    <defs>
     <path id="m5e2e0d2ce7" d="M 346.348052 -24.031749
L 346.348052 -23.76
L 346.384927 -23.762739
L 346.494722 -23.770896
L 346.67619 -23.784377
L 346.928084 -23.80309
L 347.249159 -23.826943
L 347.638167 -23.855842
L 348.093862 -23.889696
L 348.614997 -23.928411
L 349.200327 -23.971895
L 349.848605 -24.020055
L 350.558583 -24.072799
L 351.329017 -24.130035
L 352.158658 -24.191669
L 353.046261 -24.257608
L 353.990579 -24.327762
L 354.990366 -24.402035
L 356.044375 -24.480338
L 357.15136 -24.562575
L 358.310074 -24.648656
L 359.519271 -24.738487
L 360.777705 -24.831975
L 362.084127 -24.929029
L 363.437294 -25.029556
L 364.835957 -25.133462
L 366.27887 -25.240656
L 367.764787 -25.351044
L 369.292462 -25.464535
L 370.860647 -25.581035
L 372.468097 -25.700452
L 374.113564 -25.822693
L 375.795803 -25.947666
L 377.513567 -26.075279
L 379.265609 -26.205437
L 381.050683 -26.33805
L 382.867543 -26.473024
L 384.714942 -26.610267
L 386.591633 -26.749686
L 388.49637 -26.891188
L 390.427906 -27.034682
L 392.384996 -27.180074
L 394.366392 -27.327271
L 396.370848 -27.476182
L 398.397117 -27.626713
L 400.443954 -27.778772
L 402.510111 -27.932266
L 404.594342 -28.087103
L 406.695401 -28.24319
L 408.812041 -28.400435
L 410.943015 -28.558744
L 413.087078 -28.718026
L 415.242982 -28.878188
L 417.409481 -29.039137
L 419.58533 -29.20078
L 421.76928 -29.363025
L 423.960086 -29.525779
L 426.156501 -29.688951
L 428.357279 -29.852446
L 430.561173 -30.016173
L 432.766936 -30.180038
L 434.973323 -30.34395
L 437.179087 -30.507816
L 439.382981 -30.671543
L 441.583759 -30.835038
L 443.780174 -30.998209
L 445.97098 -31.160964
L 448.15493 -31.323209
L 450.330778 -31.484852
L 452.497278 -31.645801
L 454.653182 -31.805962
L 456.797245 -31.965244
L 458.928219 -32.123554
L 461.044859 -32.280798
L 463.145918 -32.436886
L 465.230149 -32.591723
L 467.296306 -32.745217
L 469.343143 -32.897276
L 471.369412 -33.047807
L 473.373868 -33.196718
L 475.355264 -33.343915
L 477.312354 -33.489307
L 479.24389 -33.6328
L 481.148627 -33.774303
L 483.025318 -33.913721
L 484.872717 -34.050964
L 486.689576 -34.185938
L 488.47465 -34.318551
L 490.226693 -34.44871
L 491.944457 -34.576322
L 493.626696 -34.701295
L 495.272163 -34.823537
L 496.879613 -34.942954
L 498.447798 -35.059454
L 499.975473 -35.172944
L 501.46139 -35.283333
L 502.904303 -35.390526
L 504.302966 -35.494433
L 505.656132 -35.594959
L 506.962555 -35.692013
L 508.220988 -35.785502
L 509.430185 -35.875333
L 510.588899 -35.961413
L 511.695884 -36.043651
L 512.749893 -36.121953
L 513.74968 -36.196227
L 514.693999 -36.26638
L 515.581602 -36.33232
L 516.411243 -36.393954
L 517.181676 -36.451189
L 517.891655 -36.503933
L 518.539932 -36.552094
L 519.125262 -36.595578
L 519.646398 -36.634293
L 520.102093 -36.668146
L 520.491101 -36.697046
L 520.812176 -36.720898
L 521.06407 -36.739611
L 521.245538 -36.753092
L 521.355333 -36.761249
L 521.392208 -36.763989
L 521.392208 -37.035737
L 521.392208 -37.035737
L 521.355333 -37.032998
L 521.245538 -37.024841
L 521.06407 -37.01136
L 520.812176 -36.992647
L 520.491101 -36.968794
L 520.102093 -36.939895
L 519.646398 -36.906042
L 519.125262 -36.867327
L 518.539932 -36.823843
L 517.891655 -36.775682
L 517.181676 -36.722938
L 516.411243 -36.665703
L 515.581602 -36.604069
L 514.693999 -36.538129
L 513.74968 -36.467976
L 512.749893 -36.393702
L 511.695884 -36.3154
L 510.588899 -36.233162
L 509.430185 -36.147082
L 508.220988 -36.057251
L 506.962555 -35.963762
L 505.656132 -35.866708
L 504.302966 -35.766182
L 502.904303 -35.662275
L 501.46139 -35.555082
L 499.975473 -35.444693
L 498.447798 -35.331203
L 496.879613 -35.214703
L 495.272163 -35.095286
L 493.626696 -34.973044
L 491.944457 -34.848071
L 490.226693 -34.720459
L 488.47465 -34.5903
L 486.689576 -34.457687
L 484.872717 -34.322713
L 483.025318 -34.18547
L 481.148627 -34.046051
L 479.24389 -33.904549
L 477.312354 -33.761056
L 475.355264 -33.615664
L 473.373868 -33.468466
L 471.369412 -33.319556
L 469.343143 -33.169025
L 467.296306 -33.016966
L 465.230149 -32.863471
L 463.145918 -32.708634
L 461.044859 -32.552547
L 458.928219 -32.395303
L 456.797245 -32.236993
L 454.653182 -32.077711
L 452.497278 -31.917549
L 450.330778 -31.756601
L 448.15493 -31.594958
L 445.97098 -31.432712
L 443.780174 -31.269958
L 441.583759 -31.106787
L 439.382981 -30.943292
L 437.179087 -30.779565
L 434.973323 -30.615699
L 432.766936 -30.451787
L 430.561173 -30.287921
L 428.357279 -30.124195
L 426.156501 -29.960699
L 423.960086 -29.797528
L 421.76928 -29.634774
L 419.58533 -29.472529
L 417.409481 -29.310885
L 415.242982 -29.149937
L 413.087078 -28.989775
L 410.943015 -28.830493
L 408.812041 -28.672184
L 406.695401 -28.514939
L 404.594342 -28.358852
L 402.510111 -28.204015
L 400.443954 -28.05052
L 398.397117 -27.898461
L 396.370848 -27.74793
L 394.366392 -27.59902
L 392.384996 -27.451822
L 390.427906 -27.306431
L 388.49637 -27.162937
L 386.591633 -27.021435
L 384.714942 -26.882016
L 382.867543 -26.744773
L 381.050683 -26.609799
L 379.265609 -26.477186
L 377.513567 -26.347028
L 375.795803 -26.219415
L 374.113564 -26.094442
L 372.468097 -25.972201
L 370.860647 -25.852784
L 369.292462 -25.736284
L 367.764787 -25.622793
L 366.27887 -25.512405
L 364.835957 -25.405211
L 363.437294 -25.301305
L 362.084127 -25.200778
L 360.777705 -25.103724
L 359.519271 -25.010236
L 358.310074 -24.920405
L 357.15136 -24.834324
L 356.044375 -24.752086
L 354.990366 -24.673784
L 353.990579 -24.59951
L 353.046261 -24.529357
L 352.158658 -24.463417
L 351.329017 -24.401784
L 350.558583 -24.344548
L 349.848605 -24.291804
L 349.200327 -24.243644
L 348.614997 -24.20016
L 348.093862 -24.161445
L 347.638167 -24.127591
L 347.249159 -24.098692
L 346.928084 -24.074839
L 346.67619 -24.056126
L 346.494722 -24.042645
L 346.384927 -24.034488
L 346.348052 -24.031749
z
"/>
    </defs>
    <g clip-path="url(#pf1839e5b6b)">
     <use xlink:href="#m5e2e0d2ce7" x="0" y="372.096" style="fill: #7a4a00; fill-opacity: 0.55"/>
    </g>
   </g>
   <g id="line2d_1">
    <path d="M 153.07013 87.720975
L 284.353247 143.861558
" clip-path="url(#pf1839e5b6b)" style="fill: none; stroke: #b8bcc6; stroke-width: 0.8; stroke-linecap: square"/>
   </g>
   <g id="line2d_2">
    <path d="M 153.07013 235.728
L 284.353247 291.868582
" clip-path="url(#pf1839e5b6b)" style="fill: none; stroke: #b8bcc6; stroke-width: 0.8; stroke-linecap: square"/>
   </g>
   <g id="line2d_3">
    <path d="M 153.07013 282.096
L 284.353247 326.873367
" clip-path="url(#pf1839e5b6b)" style="fill: none; stroke: #b8bcc6; stroke-width: 0.8; stroke-linecap: square"/>
   </g>
   <g id="line2d_4">
    <path d="M 153.07013 328.464
L 284.353247 348.109543
" clip-path="url(#pf1839e5b6b)" style="fill: none; stroke: #b8bcc6; stroke-width: 0.8; stroke-linecap: square"/>
   </g>
   <g id="line2d_5">
    <path d="M 619.854545 106.329372
L 696.436364 101.003405
" clip-path="url(#pf1839e5b6b)" style="fill: none; stroke: #b8bcc6; stroke-width: 0.8; stroke-linecap: square"/>
   </g>
   <g id="line2d_6">
    <path d="M 619.854545 270.63134
L 696.436364 265.305372
" clip-path="url(#pf1839e5b6b)" style="fill: none; stroke: #b8bcc6; stroke-width: 0.8; stroke-linecap: square"/>
   </g>
   <g id="line2d_7">
    <path d="M 619.854545 347.037968
L 696.436364 341.712
" clip-path="url(#pf1839e5b6b)" style="fill: none; stroke: #b8bcc6; stroke-width: 0.8; stroke-linecap: square"/>
   </g>
   <g id="text_1">
    <!-- Roventra (82%) -->
    <g style="fill: #333333" transform="translate(72.359433 85.193793) scale(0.089 -0.089)">
     <defs>
      <path id="DejaVuSans-52" d="M 2841 2188
Q 3044 2119 3236 1894
Q 3428 1669 3622 1275
L 4263 0
L 3584 0
L 2988 1197
Q 2756 1666 2539 1819
Q 2322 1972 1947 1972
L 1259 1972
L 1259 0
L 628 0
L 628 4666
L 2053 4666
Q 2853 4666 3247 4331
Q 3641 3997 3641 3322
Q 3641 2881 3436 2590
Q 3231 2300 2841 2188
z
M 1259 4147
L 1259 2491
L 2053 2491
Q 2509 2491 2742 2702
Q 2975 2913 2975 3322
Q 2975 3731 2742 3939
Q 2509 4147 2053 4147
L 1259 4147
z
" transform="scale(0.015625)"/>
      <path id="DejaVuSans-6f" d="M 1959 3097
Q 1497 3097 1228 2736
Q 959 2375 959 1747
Q 959 1119 1226 758
Q 1494 397 1959 397
Q 2419 397 2687 759
Q 2956 1122 2956 1747
Q 2956 2369 2687 2733
Q 2419 3097 1959 3097
z
M 1959 3584
Q 2709 3584 3137 3096
Q 3566 2609 3566 1747
Q 3566 888 3137 398
Q 2709 -91 1959 -91
Q 1206 -91 779 398
Q 353 888 353 1747
Q 353 2609 779 3096
Q 1206 3584 1959 3584
z
" transform="scale(0.015625)"/>
      <path id="DejaVuSans-76" d="M 191 3500
L 800 3500
L 1894 563
L 2988 3500
L 3597 3500
L 2284 0
L 1503 0
L 191 3500
z
" transform="scale(0.015625)"/>
      <path id="DejaVuSans-65" d="M 3597 1894
L 3597 1613
L 953 1613
Q 991 1019 1311 708
Q 1631 397 2203 397
Q 2534 397 2845 478
Q 3156 559 3463 722
L 3463 178
Q 3153 47 2828 -22
Q 2503 -91 2169 -91
Q 1331 -91 842 396
Q 353 884 353 1716
Q 353 2575 817 3079
Q 1281 3584 2069 3584
Q 2775 3584 3186 3129
Q 3597 2675 3597 1894
z
M 3022 2063
Q 3016 2534 2758 2815
Q 2500 3097 2075 3097
Q 1594 3097 1305 2825
Q 1016 2553 972 2059
L 3022 2063
z
" transform="scale(0.015625)"/>
      <path id="DejaVuSans-6e" d="M 3513 2113
L 3513 0
L 2938 0
L 2938 2094
Q 2938 2591 2744 2837
Q 2550 3084 2163 3084
Q 1697 3084 1428 2787
Q 1159 2491 1159 1978
L 1159 0
L 581 0
L 581 3500
L 1159 3500
L 1159 2956
Q 1366 3272 1645 3428
Q 1925 3584 2291 3584
Q 2894 3584 3203 3211
Q 3513 2838 3513 2113
z
" transform="scale(0.015625)"/>
      <path id="DejaVuSans-74" d="M 1172 4494
L 1172 3500
L 2356 3500
L 2356 3053
L 1172 3053
L 1172 1153
Q 1172 725 1289 603
Q 1406 481 1766 481
L 2356 481
L 2356 0
L 1766 0
Q 1100 0 847 248
Q 594 497 594 1153
L 594 3053
L 172 3053
L 172 3500
L 594 3500
L 594 4494
L 1172 4494
z
" transform="scale(0.015625)"/>
      <path id="DejaVuSans-72" d="M 2631 2963
Q 2534 3019 2420 3045
Q 2306 3072 2169 3072
Q 1681 3072 1420 2755
Q 1159 2438 1159 1844
L 1159 0
L 581 0
L 581 3500
L 1159 3500
L 1159 2956
Q 1341 3275 1631 3429
Q 1922 3584 2338 3584
Q 2397 3584 2469 3576
Q 2541 3569 2628 3553
L 2631 2963
z
" transform="scale(0.015625)"/>
      <path id="DejaVuSans-61" d="M 2194 1759
Q 1497 1759 1228 1600
Q 959 1441 959 1056
Q 959 750 1161 570
Q 1363 391 1709 391
Q 2188 391 2477 730
Q 2766 1069 2766 1631
L 2766 1759
L 2194 1759
z
M 3341 1997
L 3341 0
L 2766 0
L 2766 531
Q 2569 213 2275 61
Q 1981 -91 1556 -91
Q 1019 -91 701 211
Q 384 513 384 1019
Q 384 1609 779 1909
Q 1175 2209 1959 2209
L 2766 2209
L 2766 2266
Q 2766 2663 2505 2880
Q 2244 3097 1772 3097
Q 1472 3097 1187 3025
Q 903 2953 641 2809
L 641 3341
Q 956 3463 1253 3523
Q 1550 3584 1831 3584
Q 2591 3584 2966 3190
Q 3341 2797 3341 1997
z
" transform="scale(0.015625)"/>
      <path id="DejaVuSans-20" transform="scale(0.015625)"/>
      <path id="DejaVuSans-28" d="M 1984 4856
Q 1566 4138 1362 3434
Q 1159 2731 1159 2009
Q 1159 1288 1364 580
Q 1569 -128 1984 -844
L 1484 -844
Q 1016 -109 783 600
Q 550 1309 550 2009
Q 550 2706 781 3412
Q 1013 4119 1484 4856
L 1984 4856
z
" transform="scale(0.015625)"/>
      <path id="DejaVuSans-38" d="M 2034 2216
Q 1584 2216 1326 1975
Q 1069 1734 1069 1313
Q 1069 891 1326 650
Q 1584 409 2034 409
Q 2484 409 2743 651
Q 3003 894 3003 1313
Q 3003 1734 2745 1975
Q 2488 2216 2034 2216
z
M 1403 2484
Q 997 2584 770 2862
Q 544 3141 544 3541
Q 544 4100 942 4425
Q 1341 4750 2034 4750
Q 2731 4750 3128 4425
Q 3525 4100 3525 3541
Q 3525 3141 3298 2862
Q 3072 2584 2669 2484
Q 3125 2378 3379 2068
Q 3634 1759 3634 1313
Q 3634 634 3220 271
Q 2806 -91 2034 -91
Q 1263 -91 848 271
Q 434 634 434 1313
Q 434 1759 690 2068
Q 947 2378 1403 2484
z
M 1172 3481
Q 1172 3119 1398 2916
Q 1625 2713 2034 2713
Q 2441 2713 2670 2916
Q 2900 3119 2900 3481
Q 2900 3844 2670 4047
Q 2441 4250 2034 4250
Q 1625 4250 1398 4047
Q 1172 3844 1172 3481
z
" transform="scale(0.015625)"/>
      <path id="DejaVuSans-32" d="M 1228 531
L 3431 531
L 3431 0
L 469 0
L 469 531
Q 828 903 1448 1529
Q 2069 2156 2228 2338
Q 2531 2678 2651 2914
Q 2772 3150 2772 3378
Q 2772 3750 2511 3984
Q 2250 4219 1831 4219
Q 1534 4219 1204 4116
Q 875 4013 500 3803
L 500 4441
Q 881 4594 1212 4672
Q 1544 4750 1819 4750
Q 2544 4750 2975 4387
Q 3406 4025 3406 3419
Q 3406 3131 3298 2873
Q 3191 2616 2906 2266
Q 2828 2175 2409 1742
Q 1991 1309 1228 531
z
" transform="scale(0.015625)"/>
      <path id="DejaVuSans-25" d="M 4653 2053
Q 4381 2053 4226 1822
Q 4072 1591 4072 1178
Q 4072 772 4226 539
Q 4381 306 4653 306
Q 4919 306 5073 539
Q 5228 772 5228 1178
Q 5228 1588 5073 1820
Q 4919 2053 4653 2053
z
M 4653 2450
Q 5147 2450 5437 2106
Q 5728 1763 5728 1178
Q 5728 594 5436 251
Q 5144 -91 4653 -91
Q 4153 -91 3862 251
Q 3572 594 3572 1178
Q 3572 1766 3864 2108
Q 4156 2450 4653 2450
z
M 1428 4353
Q 1159 4353 1004 4120
Q 850 3888 850 3481
Q 850 3069 1003 2837
Q 1156 2606 1428 2606
Q 1700 2606 1854 2837
Q 2009 3069 2009 3481
Q 2009 3884 1853 4118
Q 1697 4353 1428 4353
z
M 4250 4750
L 4750 4750
L 1831 -91
L 1331 -91
L 4250 4750
z
M 1428 4750
Q 1922 4750 2215 4408
Q 2509 4066 2509 3481
Q 2509 2891 2217 2550
Q 1925 2209 1428 2209
Q 931 2209 642 2551
Q 353 2894 353 3481
Q 353 4063 643 4406
Q 934 4750 1428 4750
z
" transform="scale(0.015625)"/>
      <path id="DejaVuSans-29" d="M 513 4856
L 1013 4856
Q 1481 4119 1714 3412
Q 1947 2706 1947 2009
Q 1947 1309 1714 600
Q 1481 -109 1013 -844
L 513 -844
Q 928 -128 1133 580
Q 1338 1288 1338 2009
Q 1338 2731 1133 3434
Q 928 4138 513 4856
z
" transform="scale(0.015625)"/>
     </defs>
     <use xlink:href="#DejaVuSans-52"/>
     <use xlink:href="#DejaVuSans-6f" transform="translate(64.982422 0)"/>
     <use xlink:href="#DejaVuSans-76" transform="translate(126.164062 0)"/>
     <use xlink:href="#DejaVuSans-65" transform="translate(185.34375 0)"/>
     <use xlink:href="#DejaVuSans-6e" transform="translate(246.867188 0)"/>
     <use xlink:href="#DejaVuSans-74" transform="translate(310.246094 0)"/>
     <use xlink:href="#DejaVuSans-72" transform="translate(349.455078 0)"/>
     <use xlink:href="#DejaVuSans-61" transform="translate(390.568359 0)"/>
     <use xlink:href="#DejaVuSans-20" transform="translate(451.847656 0)"/>
     <use xlink:href="#DejaVuSans-28" transform="translate(483.634766 0)"/>
     <use xlink:href="#DejaVuSans-38" transform="translate(522.648438 0)"/>
     <use xlink:href="#DejaVuSans-32" transform="translate(586.271484 0)"/>
     <use xlink:href="#DejaVuSans-25" transform="translate(649.894531 0)"/>
     <use xlink:href="#DejaVuSans-29" transform="translate(744.914062 0)"/>
    </g>
    <!-- n = 2,798 -->
    <g style="fill: #333333" transform="translate(97.89548 95.159846) scale(0.089 -0.089)">
     <defs>
      <path id="DejaVuSans-3d" d="M 678 2906
L 4684 2906
L 4684 2381
L 678 2381
L 678 2906
z
M 678 1631
L 4684 1631
L 4684 1100
L 678 1100
L 678 1631
z
" transform="scale(0.015625)"/>
      <path id="DejaVuSans-2c" d="M 750 794
L 1409 794
L 1409 256
L 897 -744
L 494 -744
L 750 256
L 750 794
z
" transform="scale(0.015625)"/>
      <path id="DejaVuSans-37" d="M 525 4666
L 3525 4666
L 3525 4397
L 1831 0
L 1172 0
L 2766 4134
L 525 4134
L 525 4666
z
" transform="scale(0.015625)"/>
      <path id="DejaVuSans-39" d="M 703 97
L 703 672
Q 941 559 1184 500
Q 1428 441 1663 441
Q 2288 441 2617 861
Q 2947 1281 2994 2138
Q 2813 1869 2534 1725
Q 2256 1581 1919 1581
Q 1219 1581 811 2004
Q 403 2428 403 3163
Q 403 3881 828 4315
Q 1253 4750 1959 4750
Q 2769 4750 3195 4129
Q 3622 3509 3622 2328
Q 3622 1225 3098 567
Q 2575 -91 1691 -91
Q 1453 -91 1209 -44
Q 966 3 703 97
z
M 1959 2075
Q 2384 2075 2632 2365
Q 2881 2656 2881 3163
Q 2881 3666 2632 3958
Q 2384 4250 1959 4250
Q 1534 4250 1286 3958
Q 1038 3666 1038 3163
Q 1038 2656 1286 2365
Q 1534 2075 1959 2075
z
" transform="scale(0.015625)"/>
     </defs>
     <use xlink:href="#DejaVuSans-6e"/>
     <use xlink:href="#DejaVuSans-20" transform="translate(63.378906 0)"/>
     <use xlink:href="#DejaVuSans-3d" transform="translate(95.166016 0)"/>
     <use xlink:href="#DejaVuSans-20" transform="translate(178.955078 0)"/>
     <use xlink:href="#DejaVuSans-32" transform="translate(210.742188 0)"/>
     <use xlink:href="#DejaVuSans-2c" transform="translate(274.365234 0)"/>
     <use xlink:href="#DejaVuSans-37" transform="translate(306.152344 0)"/>
     <use xlink:href="#DejaVuSans-39" transform="translate(369.775391 0)"/>
     <use xlink:href="#DejaVuSans-38" transform="translate(433.398438 0)"/>
    </g>
   </g>
   <g id="text_2">
    <!-- Vexpro (9.0%) -->
    <g style="fill: #333333" transform="translate(79.20548 233.200817) scale(0.089 -0.089)">
     <defs>
      <path id="DejaVuSans-56" d="M 1831 0
L 50 4666
L 709 4666
L 2188 738
L 3669 4666
L 4325 4666
L 2547 0
L 1831 0
z
" transform="scale(0.015625)"/>
      <path id="DejaVuSans-78" d="M 3513 3500
L 2247 1797
L 3578 0
L 2900 0
L 1881 1375
L 863 0
L 184 0
L 1544 1831
L 300 3500
L 978 3500
L 1906 2253
L 2834 3500
L 3513 3500
z
" transform="scale(0.015625)"/>
      <path id="DejaVuSans-70" d="M 1159 525
L 1159 -1331
L 581 -1331
L 581 3500
L 1159 3500
L 1159 2969
Q 1341 3281 1617 3432
Q 1894 3584 2278 3584
Q 2916 3584 3314 3078
Q 3713 2572 3713 1747
Q 3713 922 3314 415
Q 2916 -91 2278 -91
Q 1894 -91 1617 61
Q 1341 213 1159 525
z
M 3116 1747
Q 3116 2381 2855 2742
Q 2594 3103 2138 3103
Q 1681 3103 1420 2742
Q 1159 2381 1159 1747
Q 1159 1113 1420 752
Q 1681 391 2138 391
Q 2594 391 2855 752
Q 3116 1113 3116 1747
z
" transform="scale(0.015625)"/>
      <path id="DejaVuSans-2e" d="M 684 794
L 1344 794
L 1344 0
L 684 0
L 684 794
z
" transform="scale(0.015625)"/>
      <path id="DejaVuSans-30" d="M 2034 4250
Q 1547 4250 1301 3770
Q 1056 3291 1056 2328
Q 1056 1369 1301 889
Q 1547 409 2034 409
Q 2525 409 2770 889
Q 3016 1369 3016 2328
Q 3016 3291 2770 3770
Q 2525 4250 2034 4250
z
M 2034 4750
Q 2819 4750 3233 4129
Q 3647 3509 3647 2328
Q 3647 1150 3233 529
Q 2819 -91 2034 -91
Q 1250 -91 836 529
Q 422 1150 422 2328
Q 422 3509 836 4129
Q 1250 4750 2034 4750
z
" transform="scale(0.015625)"/>
     </defs>
     <use xlink:href="#DejaVuSans-56"/>
     <use xlink:href="#DejaVuSans-65" transform="translate(60.658203 0)"/>
     <use xlink:href="#DejaVuSans-78" transform="translate(120.431641 0)"/>
     <use xlink:href="#DejaVuSans-70" transform="translate(179.611328 0)"/>
     <use xlink:href="#DejaVuSans-72" transform="translate(243.087891 0)"/>
     <use xlink:href="#DejaVuSans-6f" transform="translate(281.951172 0)"/>
     <use xlink:href="#DejaVuSans-20" transform="translate(343.132812 0)"/>
     <use xlink:href="#DejaVuSans-28" transform="translate(374.919922 0)"/>
     <use xlink:href="#DejaVuSans-39" transform="translate(413.933594 0)"/>
     <use xlink:href="#DejaVuSans-2e" transform="translate(477.556641 0)"/>
     <use xlink:href="#DejaVuSans-30" transform="translate(509.34375 0)"/>
     <use xlink:href="#DejaVuSans-25" transform="translate(572.966797 0)"/>
     <use xlink:href="#DejaVuSans-29" transform="translate(667.986328 0)"/>
    </g>
    <!-- n = 309 -->
    <g style="fill: #333333" transform="translate(106.386636 243.16687) scale(0.089 -0.089)">
     <defs>
      <path id="DejaVuSans-33" d="M 2597 2516
Q 3050 2419 3304 2112
Q 3559 1806 3559 1356
Q 3559 666 3084 287
Q 2609 -91 1734 -91
Q 1441 -91 1130 -33
Q 819 25 488 141
L 488 750
Q 750 597 1062 519
Q 1375 441 1716 441
Q 2309 441 2620 675
Q 2931 909 2931 1356
Q 2931 1769 2642 2001
Q 2353 2234 1838 2234
L 1294 2234
L 1294 2753
L 1863 2753
Q 2328 2753 2575 2939
Q 2822 3125 2822 3475
Q 2822 3834 2567 4026
Q 2313 4219 1838 4219
Q 1578 4219 1281 4162
Q 984 4106 628 3988
L 628 4550
Q 988 4650 1302 4700
Q 1616 4750 1894 4750
Q 2613 4750 3031 4423
Q 3450 4097 3450 3541
Q 3450 3153 3228 2886
Q 3006 2619 2597 2516
z
" transform="scale(0.015625)"/>
     </defs>
     <use xlink:href="#DejaVuSans-6e"/>
     <use xlink:href="#DejaVuSans-20" transform="translate(63.378906 0)"/>
     <use xlink:href="#DejaVuSans-3d" transform="translate(95.166016 0)"/>
     <use xlink:href="#DejaVuSans-20" transform="translate(178.955078 0)"/>
     <use xlink:href="#DejaVuSans-33" transform="translate(210.742188 0)"/>
     <use xlink:href="#DejaVuSans-30" transform="translate(274.365234 0)"/>
     <use xlink:href="#DejaVuSans-39" transform="translate(337.988281 0)"/>
    </g>
   </g>
   <g id="text_3">
    <!-- Nexoral (8.9%) -->
    <g style="fill: #333333" transform="translate(75.746995 279.568817) scale(0.089 -0.089)">
     <defs>
      <path id="DejaVuSans-4e" d="M 628 4666
L 1478 4666
L 3547 763
L 3547 4666
L 4159 4666
L 4159 0
L 3309 0
L 1241 3903
L 1241 0
L 628 0
L 628 4666
z
" transform="scale(0.015625)"/>
      <path id="DejaVuSans-6c" d="M 603 4863
L 1178 4863
L 1178 0
L 603 0
L 603 4863
z
" transform="scale(0.015625)"/>
     </defs>
     <use xlink:href="#DejaVuSans-4e"/>
     <use xlink:href="#DejaVuSans-65" transform="translate(74.804688 0)"/>
     <use xlink:href="#DejaVuSans-78" transform="translate(134.578125 0)"/>
     <use xlink:href="#DejaVuSans-6f" transform="translate(190.632812 0)"/>
     <use xlink:href="#DejaVuSans-72" transform="translate(251.814453 0)"/>
     <use xlink:href="#DejaVuSans-61" transform="translate(292.927734 0)"/>
     <use xlink:href="#DejaVuSans-6c" transform="translate(354.207031 0)"/>
     <use xlink:href="#DejaVuSans-20" transform="translate(381.990234 0)"/>
     <use xlink:href="#DejaVuSans-28" transform="translate(413.777344 0)"/>
     <use xlink:href="#DejaVuSans-38" transform="translate(452.791016 0)"/>
     <use xlink:href="#DejaVuSans-2e" transform="translate(516.414062 0)"/>
     <use xlink:href="#DejaVuSans-39" transform="translate(548.201172 0)"/>
     <use xlink:href="#DejaVuSans-25" transform="translate(611.824219 0)"/>
     <use xlink:href="#DejaVuSans-29" transform="translate(706.84375 0)"/>
    </g>
    <!-- n = 303 -->
    <g style="fill: #333333" transform="translate(106.386636 289.53487) scale(0.089 -0.089)">
     <use xlink:href="#DejaVuSans-6e"/>
     <use xlink:href="#DejaVuSans-20" transform="translate(63.378906 0)"/>
     <use xlink:href="#DejaVuSans-3d" transform="translate(95.166016 0)"/>
     <use xlink:href="#DejaVuSans-20" transform="translate(178.955078 0)"/>
     <use xlink:href="#DejaVuSans-33" transform="translate(210.742188 0)"/>
     <use xlink:href="#DejaVuSans-30" transform="translate(274.365234 0)"/>
     <use xlink:href="#DejaVuSans-33" transform="translate(337.988281 0)"/>
    </g>
   </g>
   <g id="text_4">
    <!-- Combination (0.1%) -->
    <g style="fill: #333333" transform="translate(53.15212 325.936817) scale(0.089 -0.089)">
     <defs>
      <path id="DejaVuSans-43" d="M 4122 4306
L 4122 3641
Q 3803 3938 3442 4084
Q 3081 4231 2675 4231
Q 1875 4231 1450 3742
Q 1025 3253 1025 2328
Q 1025 1406 1450 917
Q 1875 428 2675 428
Q 3081 428 3442 575
Q 3803 722 4122 1019
L 4122 359
Q 3791 134 3420 21
Q 3050 -91 2638 -91
Q 1578 -91 968 557
Q 359 1206 359 2328
Q 359 3453 968 4101
Q 1578 4750 2638 4750
Q 3056 4750 3426 4639
Q 3797 4528 4122 4306
z
" transform="scale(0.015625)"/>
      <path id="DejaVuSans-6d" d="M 3328 2828
Q 3544 3216 3844 3400
Q 4144 3584 4550 3584
Q 5097 3584 5394 3201
Q 5691 2819 5691 2113
L 5691 0
L 5113 0
L 5113 2094
Q 5113 2597 4934 2840
Q 4756 3084 4391 3084
Q 3944 3084 3684 2787
Q 3425 2491 3425 1978
L 3425 0
L 2847 0
L 2847 2094
Q 2847 2600 2669 2842
Q 2491 3084 2119 3084
Q 1678 3084 1418 2786
Q 1159 2488 1159 1978
L 1159 0
L 581 0
L 581 3500
L 1159 3500
L 1159 2956
Q 1356 3278 1631 3431
Q 1906 3584 2284 3584
Q 2666 3584 2933 3390
Q 3200 3197 3328 2828
z
" transform="scale(0.015625)"/>
      <path id="DejaVuSans-62" d="M 3116 1747
Q 3116 2381 2855 2742
Q 2594 3103 2138 3103
Q 1681 3103 1420 2742
Q 1159 2381 1159 1747
Q 1159 1113 1420 752
Q 1681 391 2138 391
Q 2594 391 2855 752
Q 3116 1113 3116 1747
z
M 1159 2969
Q 1341 3281 1617 3432
Q 1894 3584 2278 3584
Q 2916 3584 3314 3078
Q 3713 2572 3713 1747
Q 3713 922 3314 415
Q 2916 -91 2278 -91
Q 1894 -91 1617 61
Q 1341 213 1159 525
L 1159 0
L 581 0
L 581 4863
L 1159 4863
L 1159 2969
z
" transform="scale(0.015625)"/>
      <path id="DejaVuSans-69" d="M 603 3500
L 1178 3500
L 1178 0
L 603 0
L 603 3500
z
M 603 4863
L 1178 4863
L 1178 4134
L 603 4134
L 603 4863
z
" transform="scale(0.015625)"/>
      <path id="DejaVuSans-31" d="M 794 531
L 1825 531
L 1825 4091
L 703 3866
L 703 4441
L 1819 4666
L 2450 4666
L 2450 531
L 3481 531
L 3481 0
L 794 0
L 794 531
z
" transform="scale(0.015625)"/>
     </defs>
     <use xlink:href="#DejaVuSans-43"/>
     <use xlink:href="#DejaVuSans-6f" transform="translate(69.824219 0)"/>
     <use xlink:href="#DejaVuSans-6d" transform="translate(131.005859 0)"/>
     <use xlink:href="#DejaVuSans-62" transform="translate(228.417969 0)"/>
     <use xlink:href="#DejaVuSans-69" transform="translate(291.894531 0)"/>
     <use xlink:href="#DejaVuSans-6e" transform="translate(319.677734 0)"/>
     <use xlink:href="#DejaVuSans-61" transform="translate(383.056641 0)"/>
     <use xlink:href="#DejaVuSans-74" transform="translate(444.335938 0)"/>
     <use xlink:href="#DejaVuSans-69" transform="translate(483.544922 0)"/>
     <use xlink:href="#DejaVuSans-6f" transform="translate(511.328125 0)"/>
     <use xlink:href="#DejaVuSans-6e" transform="translate(572.509766 0)"/>
     <use xlink:href="#DejaVuSans-20" transform="translate(635.888672 0)"/>
     <use xlink:href="#DejaVuSans-28" transform="translate(667.675781 0)"/>
     <use xlink:href="#DejaVuSans-30" transform="translate(706.689453 0)"/>
     <use xlink:href="#DejaVuSans-2e" transform="translate(770.3125 0)"/>
     <use xlink:href="#DejaVuSans-31" transform="translate(802.099609 0)"/>
     <use xlink:href="#DejaVuSans-25" transform="translate(865.722656 0)"/>
     <use xlink:href="#DejaVuSans-29" transform="translate(960.742188 0)"/>
    </g>
    <!-- n = 5 -->
    <g style="fill: #333333" transform="translate(117.711886 335.90287) scale(0.089 -0.089)">
     <defs>
      <path id="DejaVuSans-35" d="M 691 4666
L 3169 4666
L 3169 4134
L 1269 4134
L 1269 2991
Q 1406 3038 1543 3061
Q 1681 3084 1819 3084
Q 2600 3084 3056 2656
Q 3513 2228 3513 1497
Q 3513 744 3044 326
Q 2575 -91 1722 -91
Q 1428 -91 1123 -41
Q 819 9 494 109
L 494 744
Q 775 591 1075 516
Q 1375 441 1709 441
Q 2250 441 2565 725
Q 2881 1009 2881 1497
Q 2881 1984 2565 2268
Q 2250 2553 1709 2553
Q 1456 2553 1204 2497
Q 953 2441 691 2322
L 691 4666
z
" transform="scale(0.015625)"/>
     </defs>
     <use xlink:href="#DejaVuSans-6e"/>
     <use xlink:href="#DejaVuSans-20" transform="translate(63.378906 0)"/>
     <use xlink:href="#DejaVuSans-3d" transform="translate(95.166016 0)"/>
     <use xlink:href="#DejaVuSans-20" transform="translate(178.955078 0)"/>
     <use xlink:href="#DejaVuSans-35" transform="translate(210.742188 0)"/>
    </g>
   </g>
   <g id="text_5">
    <!-- Still on line 1 (56%) -->
    <g style="fill: #333333" transform="translate(707.376623 98.391036) scale(0.092 -0.092)">
     <defs>
      <path id="DejaVuSans-53" d="M 3425 4513
L 3425 3897
Q 3066 4069 2747 4153
Q 2428 4238 2131 4238
Q 1616 4238 1336 4038
Q 1056 3838 1056 3469
Q 1056 3159 1242 3001
Q 1428 2844 1947 2747
L 2328 2669
Q 3034 2534 3370 2195
Q 3706 1856 3706 1288
Q 3706 609 3251 259
Q 2797 -91 1919 -91
Q 1588 -91 1214 -16
Q 841 59 441 206
L 441 856
Q 825 641 1194 531
Q 1563 422 1919 422
Q 2459 422 2753 634
Q 3047 847 3047 1241
Q 3047 1584 2836 1778
Q 2625 1972 2144 2069
L 1759 2144
Q 1053 2284 737 2584
Q 422 2884 422 3419
Q 422 4038 858 4394
Q 1294 4750 2059 4750
Q 2388 4750 2728 4690
Q 3069 4631 3425 4513
z
" transform="scale(0.015625)"/>
      <path id="DejaVuSans-36" d="M 2113 2584
Q 1688 2584 1439 2293
Q 1191 2003 1191 1497
Q 1191 994 1439 701
Q 1688 409 2113 409
Q 2538 409 2786 701
Q 3034 994 3034 1497
Q 3034 2003 2786 2293
Q 2538 2584 2113 2584
z
M 3366 4563
L 3366 3988
Q 3128 4100 2886 4159
Q 2644 4219 2406 4219
Q 1781 4219 1451 3797
Q 1122 3375 1075 2522
Q 1259 2794 1537 2939
Q 1816 3084 2150 3084
Q 2853 3084 3261 2657
Q 3669 2231 3669 1497
Q 3669 778 3244 343
Q 2819 -91 2113 -91
Q 1303 -91 875 529
Q 447 1150 447 2328
Q 447 3434 972 4092
Q 1497 4750 2381 4750
Q 2619 4750 2861 4703
Q 3103 4656 3366 4563
z
" transform="scale(0.015625)"/>
     </defs>
     <use xlink:href="#DejaVuSans-53"/>
     <use xlink:href="#DejaVuSans-74" transform="translate(63.476562 0)"/>
     <use xlink:href="#DejaVuSans-69" transform="translate(102.685547 0)"/>
     <use xlink:href="#DejaVuSans-6c" transform="translate(130.46875 0)"/>
     <use xlink:href="#DejaVuSans-6c" transform="translate(158.251953 0)"/>
     <use xlink:href="#DejaVuSans-20" transform="translate(186.035156 0)"/>
     <use xlink:href="#DejaVuSans-6f" transform="translate(217.822266 0)"/>
     <use xlink:href="#DejaVuSans-6e" transform="translate(279.003906 0)"/>
     <use xlink:href="#DejaVuSans-20" transform="translate(342.382812 0)"/>
     <use xlink:href="#DejaVuSans-6c" transform="translate(374.169922 0)"/>
     <use xlink:href="#DejaVuSans-69" transform="translate(401.953125 0)"/>
     <use xlink:href="#DejaVuSans-6e" transform="translate(429.736328 0)"/>
     <use xlink:href="#DejaVuSans-65" transform="translate(493.115234 0)"/>
     <use xlink:href="#DejaVuSans-20" transform="translate(554.638672 0)"/>
     <use xlink:href="#DejaVuSans-31" transform="translate(586.425781 0)"/>
     <use xlink:href="#DejaVuSans-20" transform="translate(650.048828 0)"/>
     <use xlink:href="#DejaVuSans-28" transform="translate(681.835938 0)"/>
     <use xlink:href="#DejaVuSans-35" transform="translate(720.849609 0)"/>
     <use xlink:href="#DejaVuSans-36" transform="translate(784.472656 0)"/>
     <use xlink:href="#DejaVuSans-25" transform="translate(848.095703 0)"/>
     <use xlink:href="#DejaVuSans-29" transform="translate(943.115234 0)"/>
    </g>
    <!-- n = 1,924 -->
    <g style="fill: #333333" transform="translate(707.376623 108.693023) scale(0.092 -0.092)">
     <defs>
      <path id="DejaVuSans-34" d="M 2419 4116
L 825 1625
L 2419 1625
L 2419 4116
z
M 2253 4666
L 3047 4666
L 3047 1625
L 3713 1625
L 3713 1100
L 3047 1100
L 3047 0
L 2419 0
L 2419 1100
L 313 1100
L 313 1709
L 2253 4666
z
" transform="scale(0.015625)"/>
     </defs>
     <use xlink:href="#DejaVuSans-6e"/>
     <use xlink:href="#DejaVuSans-20" transform="translate(63.378906 0)"/>
     <use xlink:href="#DejaVuSans-3d" transform="translate(95.166016 0)"/>
     <use xlink:href="#DejaVuSans-20" transform="translate(178.955078 0)"/>
     <use xlink:href="#DejaVuSans-31" transform="translate(210.742188 0)"/>
     <use xlink:href="#DejaVuSans-2c" transform="translate(274.365234 0)"/>
     <use xlink:href="#DejaVuSans-39" transform="translate(306.152344 0)"/>
     <use xlink:href="#DejaVuSans-32" transform="translate(369.775391 0)"/>
     <use xlink:href="#DejaVuSans-34" transform="translate(433.398438 0)"/>
    </g>
   </g>
   <g id="text_6">
    <!-- Discontinued (43%) -->
    <g style="fill: #333333" transform="translate(707.376623 262.693004) scale(0.092 -0.092)">
     <defs>
      <path id="DejaVuSans-44" d="M 1259 4147
L 1259 519
L 2022 519
Q 2988 519 3436 956
Q 3884 1394 3884 2338
Q 3884 3275 3436 3711
Q 2988 4147 2022 4147
L 1259 4147
z
M 628 4666
L 1925 4666
Q 3281 4666 3915 4102
Q 4550 3538 4550 2338
Q 4550 1131 3912 565
Q 3275 0 1925 0
L 628 0
L 628 4666
z
" transform="scale(0.015625)"/>
      <path id="DejaVuSans-73" d="M 2834 3397
L 2834 2853
Q 2591 2978 2328 3040
Q 2066 3103 1784 3103
Q 1356 3103 1142 2972
Q 928 2841 928 2578
Q 928 2378 1081 2264
Q 1234 2150 1697 2047
L 1894 2003
Q 2506 1872 2764 1633
Q 3022 1394 3022 966
Q 3022 478 2636 193
Q 2250 -91 1575 -91
Q 1294 -91 989 -36
Q 684 19 347 128
L 347 722
Q 666 556 975 473
Q 1284 391 1588 391
Q 1994 391 2212 530
Q 2431 669 2431 922
Q 2431 1156 2273 1281
Q 2116 1406 1581 1522
L 1381 1569
Q 847 1681 609 1914
Q 372 2147 372 2553
Q 372 3047 722 3315
Q 1072 3584 1716 3584
Q 2034 3584 2315 3537
Q 2597 3491 2834 3397
z
" transform="scale(0.015625)"/>
      <path id="DejaVuSans-63" d="M 3122 3366
L 3122 2828
Q 2878 2963 2633 3030
Q 2388 3097 2138 3097
Q 1578 3097 1268 2742
Q 959 2388 959 1747
Q 959 1106 1268 751
Q 1578 397 2138 397
Q 2388 397 2633 464
Q 2878 531 3122 666
L 3122 134
Q 2881 22 2623 -34
Q 2366 -91 2075 -91
Q 1284 -91 818 406
Q 353 903 353 1747
Q 353 2603 823 3093
Q 1294 3584 2113 3584
Q 2378 3584 2631 3529
Q 2884 3475 3122 3366
z
" transform="scale(0.015625)"/>
      <path id="DejaVuSans-75" d="M 544 1381
L 544 3500
L 1119 3500
L 1119 1403
Q 1119 906 1312 657
Q 1506 409 1894 409
Q 2359 409 2629 706
Q 2900 1003 2900 1516
L 2900 3500
L 3475 3500
L 3475 0
L 2900 0
L 2900 538
Q 2691 219 2414 64
Q 2138 -91 1772 -91
Q 1169 -91 856 284
Q 544 659 544 1381
z
M 1991 3584
L 1991 3584
z
" transform="scale(0.015625)"/>
      <path id="DejaVuSans-64" d="M 2906 2969
L 2906 4863
L 3481 4863
L 3481 0
L 2906 0
L 2906 525
Q 2725 213 2448 61
Q 2172 -91 1784 -91
Q 1150 -91 751 415
Q 353 922 353 1747
Q 353 2572 751 3078
Q 1150 3584 1784 3584
Q 2172 3584 2448 3432
Q 2725 3281 2906 2969
z
M 947 1747
Q 947 1113 1208 752
Q 1469 391 1925 391
Q 2381 391 2643 752
Q 2906 1113 2906 1747
Q 2906 2381 2643 2742
Q 2381 3103 1925 3103
Q 1469 3103 1208 2742
Q 947 2381 947 1747
z
" transform="scale(0.015625)"/>
     </defs>
     <use xlink:href="#DejaVuSans-44"/>
     <use xlink:href="#DejaVuSans-69" transform="translate(77.001953 0)"/>
     <use xlink:href="#DejaVuSans-73" transform="translate(104.785156 0)"/>
     <use xlink:href="#DejaVuSans-63" transform="translate(156.884766 0)"/>
     <use xlink:href="#DejaVuSans-6f" transform="translate(211.865234 0)"/>
     <use xlink:href="#DejaVuSans-6e" transform="translate(273.046875 0)"/>
     <use xlink:href="#DejaVuSans-74" transform="translate(336.425781 0)"/>
     <use xlink:href="#DejaVuSans-69" transform="translate(375.634766 0)"/>
     <use xlink:href="#DejaVuSans-6e" transform="translate(403.417969 0)"/>
     <use xlink:href="#DejaVuSans-75" transform="translate(466.796875 0)"/>
     <use xlink:href="#DejaVuSans-65" transform="translate(530.175781 0)"/>
     <use xlink:href="#DejaVuSans-64" transform="translate(591.699219 0)"/>
     <use xlink:href="#DejaVuSans-20" transform="translate(655.175781 0)"/>
     <use xlink:href="#DejaVuSans-28" transform="translate(686.962891 0)"/>
     <use xlink:href="#DejaVuSans-34" transform="translate(725.976562 0)"/>
     <use xlink:href="#DejaVuSans-33" transform="translate(789.599609 0)"/>
     <use xlink:href="#DejaVuSans-25" transform="translate(853.222656 0)"/>
     <use xlink:href="#DejaVuSans-29" transform="translate(948.242188 0)"/>
    </g>
    <!-- n = 1,463 -->
    <g style="fill: #333333" transform="translate(707.376623 272.994991) scale(0.092 -0.092)">
     <use xlink:href="#DejaVuSans-6e"/>
     <use xlink:href="#DejaVuSans-20" transform="translate(63.378906 0)"/>
     <use xlink:href="#DejaVuSans-3d" transform="translate(95.166016 0)"/>
     <use xlink:href="#DejaVuSans-20" transform="translate(178.955078 0)"/>
     <use xlink:href="#DejaVuSans-31" transform="translate(210.742188 0)"/>
     <use xlink:href="#DejaVuSans-2c" transform="translate(274.365234 0)"/>
     <use xlink:href="#DejaVuSans-34" transform="translate(306.152344 0)"/>
     <use xlink:href="#DejaVuSans-36" transform="translate(369.775391 0)"/>
     <use xlink:href="#DejaVuSans-33" transform="translate(433.398438 0)"/>
    </g>
   </g>
   <g id="text_7">
    <!-- Advanced to line 2 (0.8%) -->
    <g style="fill: #333333" transform="translate(707.376623 339.099631) scale(0.092 -0.092)">
     <defs>
      <path id="DejaVuSans-41" d="M 2188 4044
L 1331 1722
L 3047 1722
L 2188 4044
z
M 1831 4666
L 2547 4666
L 4325 0
L 3669 0
L 3244 1197
L 1141 1197
L 716 0
L 50 0
L 1831 4666
z
" transform="scale(0.015625)"/>
     </defs>
     <use xlink:href="#DejaVuSans-41"/>
     <use xlink:href="#DejaVuSans-64" transform="translate(66.658203 0)"/>
     <use xlink:href="#DejaVuSans-76" transform="translate(130.134766 0)"/>
     <use xlink:href="#DejaVuSans-61" transform="translate(189.314453 0)"/>
     <use xlink:href="#DejaVuSans-6e" transform="translate(250.59375 0)"/>
     <use xlink:href="#DejaVuSans-63" transform="translate(313.972656 0)"/>
     <use xlink:href="#DejaVuSans-65" transform="translate(368.953125 0)"/>
     <use xlink:href="#DejaVuSans-64" transform="translate(430.476562 0)"/>
     <use xlink:href="#DejaVuSans-20" transform="translate(493.953125 0)"/>
     <use xlink:href="#DejaVuSans-74" transform="translate(525.740234 0)"/>
     <use xlink:href="#DejaVuSans-6f" transform="translate(564.949219 0)"/>
     <use xlink:href="#DejaVuSans-20" transform="translate(626.130859 0)"/>
     <use xlink:href="#DejaVuSans-6c" transform="translate(657.917969 0)"/>
     <use xlink:href="#DejaVuSans-69" transform="translate(685.701172 0)"/>
     <use xlink:href="#DejaVuSans-6e" transform="translate(713.484375 0)"/>
     <use xlink:href="#DejaVuSans-65" transform="translate(776.863281 0)"/>
     <use xlink:href="#DejaVuSans-20" transform="translate(838.386719 0)"/>
     <use xlink:href="#DejaVuSans-32" transform="translate(870.173828 0)"/>
     <use xlink:href="#DejaVuSans-20" transform="translate(933.796875 0)"/>
     <use xlink:href="#DejaVuSans-28" transform="translate(965.583984 0)"/>
     <use xlink:href="#DejaVuSans-30" transform="translate(1004.597656 0)"/>
     <use xlink:href="#DejaVuSans-2e" transform="translate(1068.220703 0)"/>
     <use xlink:href="#DejaVuSans-38" transform="translate(1100.007812 0)"/>
     <use xlink:href="#DejaVuSans-25" transform="translate(1163.630859 0)"/>
     <use xlink:href="#DejaVuSans-29" transform="translate(1258.650391 0)"/>
    </g>
    <!-- n = 28 -->
    <g style="fill: #333333" transform="translate(707.376623 349.401619) scale(0.092 -0.092)">
     <use xlink:href="#DejaVuSans-6e"/>
     <use xlink:href="#DejaVuSans-20" transform="translate(63.378906 0)"/>
     <use xlink:href="#DejaVuSans-3d" transform="translate(95.166016 0)"/>
     <use xlink:href="#DejaVuSans-20" transform="translate(178.955078 0)"/>
     <use xlink:href="#DejaVuSans-32" transform="translate(210.742188 0)"/>
     <use xlink:href="#DejaVuSans-38" transform="translate(274.365234 0)"/>
    </g>
   </g>
  </g>
 </g>
 <defs>
  <clipPath id="pf1839e5b6b">
   <rect x="7.2" y="7.2" width="842.4" height="357.696"/>
  </clipPath>
 </defs>
</svg>
