<?xml version="1.0" encoding="utf-8" standalone="no"?>
<!DOCTYPE svg PUBLIC "-//W3C//DTD SVG 1.1//EN"
  "http://www.w3.org/Graphics/SVG/1.1/DTD/svg11.dtd">
<svg xmlns:xlink="http://www.w3.org/1999/xlink" width="488.437031pt" height="506.88pt" viewBox="0 0 488.437031 506.88" xmlns="http://www.w3.org/2000/svg" version="1.1">
 <metadata>
  <rdf:RDF xmlns:dc="http://purl.org/dc/elements/1.1/" xmlns:cc="http://creativecommons.org/ns#" xmlns:rdf="http://www.w3.org/1999/02/22-rdf-syntax-ns#">
   <cc:Work>
    <dc:type rdf:resource="http://purl.org/dc/dcmitype/StillImage"/>
    <dc:date>2026-06-18T23:09:06.961393</dc:date>
    <dc:format>image/svg+xml</dc:format>
    <dc:creator>
     <cc:Agent>
      <dc:title>Matplotlib v3.10.9, https://matplotlib.org/</dc:title>
     </cc:Agent>
    </dc:creator>
   </cc:Work>
  </rdf:RDF>
 </metadata>
 <defs>
  <style type="text/css">*{stroke-linejoin: round; stroke-linecap: butt}</style>
 </defs>
 <g id="figure_1">
  <g id="patch_1">
   <path d="M 0 506.88 
L 488.437031 506.88 
L 488.437031 0 
L 0 0 
z
" style="fill: #ffffff"/>
  </g>
  <g id="axes_1">
   <g id="patch_2">
    <path d="M 250.698516 128.448 
Q 250.698516 253.44 245.246441 378.313035 
L 128.517481 279.798961 
Q 250.698516 253.44 371.613499 221.776665 
z
" clip-path="url(#p48f10416e4)" style="fill: #7fb685; opacity: 0.34"/>
   </g>
   <g id="patch_3">
    <path d="M 371.613499 221.776665 
Q 250.698516 253.44 127.263163 233.774959 
L 201.592832 138.498137 
Q 250.698516 253.44 341.902484 338.908335 
z
" clip-path="url(#p48f10416e4)" style="fill: #7fb685; opacity: 0.34"/>
   </g>
   <g id="patch_4">
    <path d="M 297.836564 369.202708 
Q 250.698516 253.44 128.517481 279.798961 
L 125.954404 261.308076 
Q 250.698516 253.44 280.06984 374.932079 
z
" clip-path="url(#p48f10416e4)" style="fill: #7ba6d0; opacity: 0.34"/>
   </g>
   <g id="patch_5">
    <path d="M 334.106369 346.532052 
Q 250.698516 253.44 125.954404 261.308076 
L 126.004453 244.814996 
Q 250.698516 253.44 321.123153 356.703597 
z
" clip-path="url(#p48f10416e4)" style="fill: #f0a06b; opacity: 0.34"/>
   </g>
   <g id="patch_6">
    <path d="M 321.123153 356.703597 
Q 250.698516 253.44 201.592832 138.498137 
L 214.960065 133.6662 
Q 250.698516 253.44 308.943947 364.031454 
z
" clip-path="url(#p48f10416e4)" style="fill: #f0a06b; opacity: 0.34"/>
   </g>
   <g id="patch_7">
    <path d="M 280.06984 374.932079 
Q 250.698516 253.44 214.960065 133.6662 
L 225.83233 130.946437 
Q 250.698516 253.44 269.069258 377.074606 
z
" clip-path="url(#p48f10416e4)" style="fill: #7ba6d0; opacity: 0.34"/>
   </g>
   <g id="patch_8">
    <path d="M 269.069258 377.074606 
Q 250.698516 253.44 236.912445 129.210598 
L 238.461064 129.048502 
Q 250.698516 253.44 267.527693 377.293861 
z
" clip-path="url(#p48f10416e4)" style="fill: #7ba6d0; opacity: 0.34"/>
   </g>
   <g id="patch_9">
    <path d="M 308.943947 364.031454 
Q 250.698516 253.44 238.461064 129.048502 
L 239.804745 128.923632 
Q 250.698516 253.44 307.746574 364.653844 
z
" clip-path="url(#p48f10416e4)" style="fill: #f0a06b; opacity: 0.34"/>
   </g>
   <g id="patch_10">
    <path d="M 256.669077 378.289319 
Q 250.698516 253.44 225.83233 130.946437 
L 226.137599 130.884864 
Q 250.698516 253.44 256.357997 378.303807 
z
" clip-path="url(#p48f10416e4)" style="fill: #e0b663; opacity: 0.34"/>
   </g>
   <g id="patch_11">
    <path d="M 256.357997 378.303807 
Q 250.698516 253.44 126.004453 244.814996 
L 126.018951 244.607891 
Q 250.698516 253.44 256.15059 378.313035 
z
" clip-path="url(#p48f10416e4)" style="fill: #e0b663; opacity: 0.34"/>
   </g>
   <g id="line2d_1">
    <path d="M 250.698516 104.64 
L 255.074754 104.704367 
L 259.447206 104.897412 
L 263.812089 105.218968 
L 268.165627 105.668758 
L 272.504053 106.246391 
L 276.823615 106.951368 
L 281.120574 107.78308 
L 285.391214 108.740806 
L 289.631839 109.823718 
L 293.838782 111.03088 
L 298.008401 112.361246 
L 302.137091 113.813667 
L 306.221279 115.386884 
L 310.257431 117.079538 
L 314.242056 118.890164 
L 318.171707 120.817195 
L 322.042984 122.858964 
L 325.852537 125.013705 
L 329.59707 127.279554 
L 333.273345 129.65455 
L 336.878181 132.136639 
L 340.408458 134.723673 
L 343.861123 137.413414 
L 347.233189 140.203535 
L 350.521738 143.091623 
L 353.723925 146.075178 
L 356.83698 149.151619 
L 359.85821 152.318285 
L 362.785 155.572437 
L 365.614819 158.911258 
L 368.345219 162.33186 
L 370.973837 165.831285 
L 373.498399 169.406503 
L 375.916722 173.054423 
L 378.226712 176.771889 
L 380.426371 180.555684 
L 382.513797 184.402534 
L 384.487183 188.309112 
L 386.344822 192.272038 
L 388.085107 196.287883 
L 389.706532 200.353173 
L 391.207696 204.46439 
L 392.587298 208.617979 
L 393.844145 212.810346 
L 394.97715 217.037863 
L 395.985333 221.296874 
L 396.867822 225.583693 
L 397.623853 229.894612 
L 398.252771 234.225901 
L 398.754034 238.573813 
L 399.127207 242.934586 
L 399.371967 247.304448 
L 399.488102 251.679619 
L 399.475513 256.056312 
L 399.33421 260.430742 
L 399.064315 264.799124 
L 398.666061 269.157679 
L 398.139794 273.502635 
L 397.485969 277.830234 
L 396.705151 282.136732 
L 395.798016 286.418404 
L 394.765348 290.671544 
L 393.608041 294.892473 
L 392.327097 299.07754 
L 390.923622 303.223124 
L 389.398833 307.325638 
L 387.754047 311.381533 
L 385.990689 315.3873 
L 384.110282 319.339473 
L 382.114455 323.234634 
L 380.004934 327.069412 
L 377.783543 330.84049 
L 375.452205 334.544605 
L 373.012937 338.178552 
L 370.467849 341.739188 
L 367.819143 345.223433 
L 365.069111 348.628271 
L 362.220131 351.950758 
L 359.274668 355.188018 
" clip-path="url(#p48f10416e4)" style="fill: none; stroke: #7fb685; stroke-width: 14"/>
   </g>
   <g id="line2d_2">
    <path d="M 349.993579 364.263871 
L 349.633054 364.585837 
L 349.271485 364.906631 
L 348.908876 365.226248 
L 348.54523 365.544685 
L 348.180552 365.86194 
L 347.814845 366.178008 
L 347.448114 366.492887 
L 347.080361 366.806573 
L 346.711592 367.119062 
L 346.341809 367.430352 
L 345.971017 367.740439 
L 345.59922 368.04932 
L 345.226421 368.356992 
L 344.852625 368.663451 
L 344.477836 368.968694 
L 344.102057 369.272718 
L 343.725292 369.57552 
L 343.347545 369.877096 
L 342.968821 370.177443 
L 342.589124 370.476559 
L 342.208456 370.77444 
L 341.826823 371.071083 
L 341.444229 371.366484 
L 341.060676 371.660641 
L 340.676171 371.95355 
L 340.290715 372.245209 
L 339.904315 372.535614 
L 339.516973 372.824763 
L 339.128694 373.112652 
L 338.739482 373.399278 
L 338.34934 373.684638 
L 337.958274 373.968729 
L 337.566287 374.251548 
L 337.173384 374.533093 
L 336.779568 374.81336 
L 336.384843 375.092346 
L 335.989215 375.370048 
L 335.592686 375.646464 
L 335.195262 375.92159 
L 334.796945 376.195424 
L 334.397742 376.467962 
L 333.997655 376.739202 
L 333.59669 377.009142 
L 333.194849 377.277777 
L 332.792138 377.545105 
L 332.388561 377.811124 
L 331.984122 378.07583 
L 331.578825 378.339222 
L 331.172674 378.601295 
L 330.765675 378.862048 
L 330.35783 379.121477 
L 329.949145 379.37958 
L 329.539624 379.636354 
L 329.129271 379.891796 
L 328.71809 380.145904 
L 328.306085 380.398675 
L 327.893262 380.650106 
L 327.479625 380.900195 
L 327.065177 381.148939 
L 326.649923 381.396335 
L 326.233868 381.642381 
L 325.817016 381.887075 
L 325.399371 382.130412 
L 324.980938 382.372392 
L 324.56172 382.613012 
L 324.141724 382.852268 
L 323.720953 383.090159 
L 323.299411 383.326682 
L 322.877103 383.561834 
L 322.454033 383.795613 
L 322.030206 384.028016 
L 321.605626 384.259042 
L 321.180299 384.488687 
L 320.754227 384.716949 
L 320.327416 384.943826 
L 319.899871 385.169315 
L 319.471595 385.393414 
L 319.042594 385.616121 
L 318.612871 385.837433 
" clip-path="url(#p48f10416e4)" style="fill: none; stroke: #f0a06b; stroke-width: 14"/>
   </g>
   <g id="line2d_3">
    <path d="M 306.81524 391.252747 
L 306.375976 391.430798 
L 305.936146 391.60745 
L 305.495757 391.782699 
L 305.054811 391.956545 
L 304.613314 392.128985 
L 304.17127 392.300018 
L 303.728683 392.469642 
L 303.285559 392.637855 
L 302.8419 392.804656 
L 302.397713 392.970043 
L 301.953001 393.134015 
L 301.507769 393.296568 
L 301.062022 393.457703 
L 300.615763 393.617418 
L 300.168998 393.775709 
L 299.721731 393.932577 
L 299.273967 394.08802 
L 298.82571 394.242035 
L 298.376964 394.394622 
L 297.927735 394.545779 
L 297.478027 394.695504 
L 297.027843 394.843796 
L 296.57719 394.990652 
L 296.126071 395.136073 
L 295.674492 395.280056 
L 295.222456 395.4226 
L 294.769968 395.563703 
L 294.317033 395.703365 
L 293.863656 395.841582 
L 293.40984 395.978355 
L 292.955592 396.113682 
L 292.500914 396.247561 
L 292.045812 396.379991 
L 291.590291 396.510971 
L 291.134355 396.640499 
L 290.678009 396.768574 
L 290.221257 396.895195 
L 289.764104 397.02036 
L 289.306554 397.144069 
L 288.848613 397.266319 
L 288.390285 397.38711 
L 287.931574 397.506441 
L 287.472486 397.62431 
L 287.013024 397.740715 
L 286.553194 397.855657 
L 286.093 397.969134 
L 285.632447 398.081144 
L 285.17154 398.191686 
L 284.710282 398.30076 
L 284.24868 398.408364 
L 283.786737 398.514497 
L 283.324459 398.619158 
L 282.86185 398.722346 
L 282.398914 398.82406 
L 281.935656 398.924298 
L 281.472082 399.023061 
L 281.008195 399.120346 
L 280.544001 399.216154 
L 280.079504 399.310482 
L 279.614709 399.40333 
L 279.149621 399.494697 
L 278.684243 399.584583 
L 278.218582 399.672985 
L 277.752642 399.759904 
L 277.286427 399.845338 
L 276.819942 399.929287 
L 276.353193 400.011749 
L 275.886183 400.092724 
L 275.418917 400.172211 
L 274.951401 400.250209 
L 274.483638 400.326718 
L 274.015635 400.401736 
L 273.547394 400.475264 
L 273.078922 400.547299 
L 272.610223 400.617842 
L 272.141301 400.686891 
L 271.672162 400.754447 
L 271.20281 400.820507 
L 270.73325 400.885073 
" clip-path="url(#p48f10416e4)" style="fill: none; stroke: #7ba6d0; stroke-width: 14"/>
   </g>
   <g id="line2d_4">
    <path d="M 257.806327 402.070142 
L 257.798515 402.070515 
L 257.790702 402.070888 
L 257.78289 402.071261 
L 257.775077 402.071633 
L 257.767264 402.072005 
L 257.759452 402.072376 
L 257.751639 402.072747 
L 257.743827 402.073117 
L 257.736014 402.073488 
L 257.728201 402.073857 
L 257.720389 402.074227 
L 257.712576 402.074595 
L 257.704763 402.074964 
L 257.69695 402.075332 
L 257.689138 402.0757 
L 257.681325 402.076067 
L 257.673512 402.076434 
L 257.665699 402.0768 
L 257.657886 402.077166 
L 257.650073 402.077532 
L 257.64226 402.077897 
L 257.634448 402.078262 
L 257.626635 402.078626 
L 257.618822 402.07899 
L 257.611009 402.079354 
L 257.603196 402.079717 
L 257.595383 402.080079 
L 257.58757 402.080442 
L 257.579757 402.080804 
L 257.571944 402.081165 
L 257.56413 402.081526 
L 257.556317 402.081887 
L 257.548504 402.082247 
L 257.540691 402.082607 
L 257.532878 402.082967 
L 257.525065 402.083326 
L 257.517252 402.083684 
L 257.509438 402.084042 
L 257.501625 402.0844 
L 257.493812 402.084758 
L 257.485999 402.085115 
L 257.478185 402.085471 
L 257.470372 402.085827 
L 257.462559 402.086183 
L 257.454745 402.086538 
L 257.446932 402.086893 
L 257.439119 402.087248 
L 257.431305 402.087602 
L 257.423492 402.087956 
L 257.415678 402.088309 
L 257.407865 402.088662 
L 257.400051 402.089014 
L 257.392238 402.089366 
L 257.384424 402.089718 
L 257.376611 402.090069 
L 257.368797 402.09042 
L 257.360984 402.09077 
L 257.35317 402.09112 
L 257.345356 402.09147 
L 257.337543 402.091819 
L 257.329729 402.092168 
L 257.321916 402.092516 
L 257.314102 402.092864 
L 257.306288 402.093212 
L 257.298474 402.093559 
L 257.290661 402.093906 
L 257.282847 402.094252 
L 257.275033 402.094598 
L 257.267219 402.094943 
L 257.259406 402.095288 
L 257.251592 402.095633 
L 257.243778 402.095977 
L 257.235964 402.096321 
L 257.22815 402.096664 
L 257.220336 402.097007 
L 257.212522 402.09735 
L 257.204708 402.097692 
L 257.196894 402.098034 
L 257.18908 402.098375 
" clip-path="url(#p48f10416e4)" style="fill: none; stroke: #e0b663; stroke-width: 14"/>
   </g>
   <g id="line2d_5">
    <path d="M 244.207951 402.098375 
L 241.202664 401.936696 
L 238.201261 401.714268 
L 235.204972 401.431182 
L 232.21502 401.087555 
L 229.23263 400.683525 
L 226.259021 400.21926 
L 223.295411 399.694948 
L 220.343011 399.110805 
L 217.403029 398.467068 
L 214.476668 397.764003 
L 211.565125 397.001895 
L 208.669591 396.181057 
L 205.791251 395.301826 
L 202.931282 394.364559 
L 200.090854 393.369642 
L 197.27113 392.31748 
L 194.473262 391.208505 
L 191.698396 390.043169 
L 188.947666 388.82195 
L 186.222197 387.545348 
L 183.523106 386.213884 
L 180.851496 384.828104 
L 178.208459 383.388573 
L 175.595077 381.895882 
L 173.01242 380.35064 
L 170.461544 378.75348 
L 167.943492 377.105056 
L 165.459294 375.406041 
L 163.009967 373.65713 
L 160.596513 371.85904 
L 158.219918 370.012505 
L 155.881156 368.118282 
L 153.581183 366.177145 
L 151.32094 364.189887 
L 149.101352 362.157323 
L 146.923326 360.080283 
L 144.787754 357.959618 
L 142.695509 355.796194 
L 140.647447 353.590898 
L 138.644406 351.34463 
L 136.687206 349.05831 
L 134.776647 346.732874 
L 132.91351 344.369272 
L 131.098559 341.968472 
L 129.332535 339.531456 
L 127.616161 337.05922 
L 125.950139 334.552776 
L 124.33515 332.01315 
L 122.771856 329.44138 
L 121.260895 326.838518 
L 119.802887 324.20563 
L 118.398426 321.543791 
L 117.048089 318.854093 
L 115.752427 316.137633 
L 114.511971 313.395525 
L 113.327227 310.62889 
L 112.198681 307.838858 
L 111.126794 305.026573 
L 110.112005 302.193184 
L 109.154728 299.339851 
L 108.255356 296.46774 
L 107.414257 293.578027 
L 106.631774 290.671893 
L 105.908227 287.750529 
L 105.243913 284.815128 
L 104.639104 281.866892 
L 104.094046 278.907027 
L 103.608963 275.936743 
L 103.184053 272.957256 
L 102.81949 269.969785 
L 102.515423 266.975552 
L 102.271977 263.975781 
L 102.089251 260.9717 
L 101.96732 257.964538 
L 101.906234 254.955525 
L 101.906017 251.945892 
L 101.96667 248.936871 
L 102.088169 245.929691 
L 102.270462 242.925584 
" clip-path="url(#p48f10416e4)" style="fill: none; stroke: #7fb685; stroke-width: 14"/>
   </g>
   <g id="line2d_6">
    <path d="M 103.751667 230.029237 
L 104.129091 227.772048 
L 104.541184 225.52093 
L 104.98785 223.276416 
L 105.468981 221.039037 
L 105.984466 218.809322 
L 106.534181 216.587799 
L 107.117997 214.374993 
L 107.735776 212.171427 
L 108.387371 209.977623 
L 109.072629 207.794099 
L 109.791387 205.621373 
L 110.543475 203.459958 
L 111.328716 201.310365 
L 112.146923 199.173103 
L 112.997903 197.048677 
L 113.881455 194.93759 
L 114.79737 192.840341 
L 115.745431 190.757426 
L 116.725414 188.689339 
L 117.737087 186.636567 
L 118.780211 184.599598 
L 119.854539 182.578912 
L 120.959817 180.574987 
L 122.095783 178.588298 
L 123.262169 176.619315 
L 124.4587 174.668502 
L 125.68509 172.736323 
L 126.941052 170.823233 
L 128.226287 168.929685 
L 129.540492 167.056128 
L 130.883356 165.203003 
L 132.254561 163.370751 
L 133.653783 161.559803 
L 135.080691 159.770589 
L 136.534947 158.003532 
L 138.016207 156.259049 
L 139.524121 154.537553 
L 141.058333 152.839452 
L 142.618479 151.165147 
L 144.20419 149.515034 
L 145.815091 147.889504 
L 147.450802 146.28894 
L 149.110935 144.713722 
L 150.795098 143.164223 
L 152.502891 141.640808 
L 154.233913 140.143838 
L 155.987751 138.673667 
L 157.763993 137.230643 
L 159.562218 135.815108 
L 161.382 134.427395 
L 163.222909 133.067834 
L 165.08451 131.736746 
L 166.966362 130.434446 
L 168.868019 129.161241 
L 170.789034 127.917434 
L 172.72895 126.703317 
L 174.687309 125.519179 
L 176.663647 124.3653 
L 178.657498 123.241952 
L 180.66839 122.149401 
L 182.695846 121.087905 
L 184.739388 120.057717 
L 186.798532 119.059078 
L 188.872791 118.092226 
L 190.961675 117.15739 
L 193.064688 116.25479 
L 195.181334 115.384639 
L 197.311113 114.547145 
L 199.453519 113.742504 
L 201.608047 112.970908 
L 203.774187 112.232538 
L 205.951427 111.527569 
L 208.139251 110.856169 
L 210.337142 110.218495 
L 212.54458 109.614699 
L 214.761043 109.044924 
L 216.986007 108.509304 
L 219.218945 108.007966 
L 221.45933 107.541028 
" clip-path="url(#p48f10416e4)" style="fill: none; stroke: #d97b6c; stroke-width: 14"/>
   </g>
   <g id="line2d_7">
    <path d="M 234.286527 105.547855 
L 234.33006 105.54303 
L 234.373595 105.538218 
L 234.417131 105.53342 
L 234.460669 105.528633 
L 234.504208 105.52386 
L 234.547749 105.5191 
L 234.591291 105.514352 
L 234.634834 105.509617 
L 234.678379 105.504895 
L 234.721925 105.500186 
L 234.765472 105.49549 
L 234.809021 105.490806 
L 234.852571 105.486135 
L 234.896123 105.481477 
L 234.939676 105.476832 
L 234.98323 105.4722 
L 235.026786 105.467581 
L 235.070343 105.462974 
L 235.113901 105.45838 
L 235.157461 105.453799 
L 235.201022 105.449231 
L 235.244585 105.444676 
L 235.288148 105.440133 
L 235.331714 105.435603 
L 235.37528 105.431087 
L 235.418848 105.426583 
L 235.462417 105.422091 
L 235.505987 105.417613 
L 235.549559 105.413147 
L 235.593132 105.408695 
L 235.636707 105.404255 
L 235.680282 105.399828 
L 235.723859 105.395413 
L 235.767437 105.391012 
L 235.811017 105.386623 
L 235.854598 105.382247 
L 235.89818 105.377884 
L 235.941763 105.373534 
L 235.985348 105.369197 
L 236.028934 105.364873 
L 236.072521 105.360561 
L 236.11611 105.356262 
L 236.1597 105.351976 
L 236.203291 105.347703 
L 236.246883 105.343443 
L 236.290476 105.339195 
L 236.334071 105.33496 
L 236.377667 105.330739 
L 236.421265 105.32653 
L 236.464863 105.322333 
L 236.508463 105.31815 
L 236.552064 105.31398 
L 236.595666 105.309822 
L 236.639269 105.305677 
L 236.682874 105.301545 
L 236.72648 105.297426 
L 236.770087 105.29332 
L 236.813695 105.289226 
L 236.857305 105.285146 
L 236.900915 105.281078 
L 236.944527 105.277023 
L 236.98814 105.272981 
L 237.031755 105.268951 
L 237.07537 105.264935 
L 237.118987 105.260931 
L 237.162604 105.256941 
L 237.206223 105.252963 
L 237.249844 105.248998 
L 237.293465 105.245045 
L 237.337087 105.241106 
L 237.380711 105.237179 
L 237.424336 105.233266 
L 237.467962 105.229365 
L 237.511589 105.225477 
L 237.555217 105.221601 
L 237.598846 105.217739 
L 237.642477 105.213889 
L 237.686108 105.210053 
L 237.729741 105.206229 
" clip-path="url(#p48f10416e4)" style="fill: none; stroke: #7ba6d0; stroke-width: 14"/>
   </g>
   <g id="text_1">
    <!-- Roventra -->
    <g style="fill: #333333" transform="translate(392.836989 180.47636) scale(0.09 -0.09)">
     <defs>
      <path id="DejaVuSans-52" d="M 2841 2188 
Q 3044 2119 3236 1894 
Q 3428 1669 3622 1275 
L 4263 0 
L 3584 0 
L 2988 1197 
Q 2756 1666 2539 1819 
Q 2322 1972 1947 1972 
L 1259 1972 
L 1259 0 
L 628 0 
L 628 4666 
L 2053 4666 
Q 2853 4666 3247 4331 
Q 3641 3997 3641 3322 
Q 3641 2881 3436 2590 
Q 3231 2300 2841 2188 
z
M 1259 4147 
L 1259 2491 
L 2053 2491 
Q 2509 2491 2742 2702 
Q 2975 2913 2975 3322 
Q 2975 3731 2742 3939 
Q 2509 4147 2053 4147 
L 1259 4147 
z
" transform="scale(0.015625)"/>
      <path id="DejaVuSans-6f" d="M 1959 3097 
Q 1497 3097 1228 2736 
Q 959 2375 959 1747 
Q 959 1119 1226 758 
Q 1494 397 1959 397 
Q 2419 397 2687 759 
Q 2956 1122 2956 1747 
Q 2956 2369 2687 2733 
Q 2419 3097 1959 3097 
z
M 1959 3584 
Q 2709 3584 3137 3096 
Q 3566 2609 3566 1747 
Q 3566 888 3137 398 
Q 2709 -91 1959 -91 
Q 1206 -91 779 398 
Q 353 888 353 1747 
Q 353 2609 779 3096 
Q 1206 3584 1959 3584 
z
" transform="scale(0.015625)"/>
      <path id="DejaVuSans-76" d="M 191 3500 
L 800 3500 
L 1894 563 
L 2988 3500 
L 3597 3500 
L 2284 0 
L 1503 0 
L 191 3500 
z
" transform="scale(0.015625)"/>
      <path id="DejaVuSans-65" d="M 3597 1894 
L 3597 1613 
L 953 1613 
Q 991 1019 1311 708 
Q 1631 397 2203 397 
Q 2534 397 2845 478 
Q 3156 559 3463 722 
L 3463 178 
Q 3153 47 2828 -22 
Q 2503 -91 2169 -91 
Q 1331 -91 842 396 
Q 353 884 353 1716 
Q 353 2575 817 3079 
Q 1281 3584 2069 3584 
Q 2775 3584 3186 3129 
Q 3597 2675 3597 1894 
z
M 3022 2063 
Q 3016 2534 2758 2815 
Q 2500 3097 2075 3097 
Q 1594 3097 1305 2825 
Q 1016 2553 972 2059 
L 3022 2063 
z
" transform="scale(0.015625)"/>
      <path id="DejaVuSans-6e" d="M 3513 2113 
L 3513 0 
L 2938 0 
L 2938 2094 
Q 2938 2591 2744 2837 
Q 2550 3084 2163 3084 
Q 1697 3084 1428 2787 
Q 1159 2491 1159 1978 
L 1159 0 
L 581 0 
L 581 3500 
L 1159 3500 
L 1159 2956 
Q 1366 3272 1645 3428 
Q 1925 3584 2291 3584 
Q 2894 3584 3203 3211 
Q 3513 2838 3513 2113 
z
" transform="scale(0.015625)"/>
      <path id="DejaVuSans-74" d="M 1172 4494 
L 1172 3500 
L 2356 3500 
L 2356 3053 
L 1172 3053 
L 1172 1153 
Q 1172 725 1289 603 
Q 1406 481 1766 481 
L 2356 481 
L 2356 0 
L 1766 0 
Q 1100 0 847 248 
Q 594 497 594 1153 
L 594 3053 
L 172 3053 
L 172 3500 
L 594 3500 
L 594 4494 
L 1172 4494 
z
" transform="scale(0.015625)"/>
      <path id="DejaVuSans-72" d="M 2631 2963 
Q 2534 3019 2420 3045 
Q 2306 3072 2169 3072 
Q 1681 3072 1420 2755 
Q 1159 2438 1159 1844 
L 1159 0 
L 581 0 
L 581 3500 
L 1159 3500 
L 1159 2956 
Q 1341 3275 1631 3429 
Q 1922 3584 2338 3584 
Q 2397 3584 2469 3576 
Q 2541 3569 2628 3553 
L 2631 2963 
z
" transform="scale(0.015625)"/>
      <path id="DejaVuSans-61" d="M 2194 1759 
Q 1497 1759 1228 1600 
Q 959 1441 959 1056 
Q 959 750 1161 570 
Q 1363 391 1709 391 
Q 2188 391 2477 730 
Q 2766 1069 2766 1631 
L 2766 1759 
L 2194 1759 
z
M 3341 1997 
L 3341 0 
L 2766 0 
L 2766 531 
Q 2569 213 2275 61 
Q 1981 -91 1556 -91 
Q 1019 -91 701 211 
Q 384 513 384 1019 
Q 384 1609 779 1909 
Q 1175 2209 1959 2209 
L 2766 2209 
L 2766 2266 
Q 2766 2663 2505 2880 
Q 2244 3097 1772 3097 
Q 1472 3097 1187 3025 
Q 903 2953 641 2809 
L 641 3341 
Q 956 3463 1253 3523 
Q 1550 3584 1831 3584 
Q 2591 3584 2966 3190 
Q 3341 2797 3341 1997 
z
" transform="scale(0.015625)"/>
     </defs>
     <use xlink:href="#DejaVuSans-52"/>
     <use xlink:href="#DejaVuSans-6f" transform="translate(64.982422 0)"/>
     <use xlink:href="#DejaVuSans-76" transform="translate(126.164062 0)"/>
     <use xlink:href="#DejaVuSans-65" transform="translate(185.34375 0)"/>
     <use xlink:href="#DejaVuSans-6e" transform="translate(246.867188 0)"/>
     <use xlink:href="#DejaVuSans-74" transform="translate(310.246094 0)"/>
     <use xlink:href="#DejaVuSans-72" transform="translate(349.455078 0)"/>
     <use xlink:href="#DejaVuSans-61" transform="translate(390.568359 0)"/>
    </g>
    <!-- 2,798 -->
    <g style="fill: #333333" transform="translate(400.288005 190.554391) scale(0.09 -0.09)">
     <defs>
      <path id="DejaVuSans-32" d="M 1228 531 
L 3431 531 
L 3431 0 
L 469 0 
L 469 531 
Q 828 903 1448 1529 
Q 2069 2156 2228 2338 
Q 2531 2678 2651 2914 
Q 2772 3150 2772 3378 
Q 2772 3750 2511 3984 
Q 2250 4219 1831 4219 
Q 1534 4219 1204 4116 
Q 875 4013 500 3803 
L 500 4441 
Q 881 4594 1212 4672 
Q 1544 4750 1819 4750 
Q 2544 4750 2975 4387 
Q 3406 4025 3406 3419 
Q 3406 3131 3298 2873 
Q 3191 2616 2906 2266 
Q 2828 2175 2409 1742 
Q 1991 1309 1228 531 
z
" transform="scale(0.015625)"/>
      <path id="DejaVuSans-2c" d="M 750 794 
L 1409 794 
L 1409 256 
L 897 -744 
L 494 -744 
L 750 256 
L 750 794 
z
" transform="scale(0.015625)"/>
      <path id="DejaVuSans-37" d="M 525 4666 
L 3525 4666 
L 3525 4397 
L 1831 0 
L 1172 0 
L 2766 4134 
L 525 4134 
L 525 4666 
z
" transform="scale(0.015625)"/>
      <path id="DejaVuSans-39" d="M 703 97 
L 703 672 
Q 941 559 1184 500 
Q 1428 441 1663 441 
Q 2288 441 2617 861 
Q 2947 1281 2994 2138 
Q 2813 1869 2534 1725 
Q 2256 1581 1919 1581 
Q 1219 1581 811 2004 
Q 403 2428 403 3163 
Q 403 3881 828 4315 
Q 1253 4750 1959 4750 
Q 2769 4750 3195 4129 
Q 3622 3509 3622 2328 
Q 3622 1225 3098 567 
Q 2575 -91 1691 -91 
Q 1453 -91 1209 -44 
Q 966 3 703 97 
z
M 1959 2075 
Q 2384 2075 2632 2365 
Q 2881 2656 2881 3163 
Q 2881 3666 2632 3958 
Q 2384 4250 1959 4250 
Q 1534 4250 1286 3958 
Q 1038 3666 1038 3163 
Q 1038 2656 1286 2365 
Q 1534 2075 1959 2075 
z
" transform="scale(0.015625)"/>
      <path id="DejaVuSans-38" d="M 2034 2216 
Q 1584 2216 1326 1975 
Q 1069 1734 1069 1313 
Q 1069 891 1326 650 
Q 1584 409 2034 409 
Q 2484 409 2743 651 
Q 3003 894 3003 1313 
Q 3003 1734 2745 1975 
Q 2488 2216 2034 2216 
z
M 1403 2484 
Q 997 2584 770 2862 
Q 544 3141 544 3541 
Q 544 4100 942 4425 
Q 1341 4750 2034 4750 
Q 2731 4750 3128 4425 
Q 3525 4100 3525 3541 
Q 3525 3141 3298 2862 
Q 3072 2584 2669 2484 
Q 3125 2378 3379 2068 
Q 3634 1759 3634 1313 
Q 3634 634 3220 271 
Q 2806 -91 2034 -91 
Q 1263 -91 848 271 
Q 434 634 434 1313 
Q 434 1759 690 2068 
Q 947 2378 1403 2484 
z
M 1172 3481 
Q 1172 3119 1398 2916 
Q 1625 2713 2034 2713 
Q 2441 2713 2670 2916 
Q 2900 3119 2900 3481 
Q 2900 3844 2670 4047 
Q 2441 4250 2034 4250 
Q 1625 4250 1398 4047 
Q 1172 3844 1172 3481 
z
" transform="scale(0.015625)"/>
     </defs>
     <use xlink:href="#DejaVuSans-32"/>
     <use xlink:href="#DejaVuSans-2c" transform="translate(63.623047 0)"/>
     <use xlink:href="#DejaVuSans-37" transform="translate(95.410156 0)"/>
     <use xlink:href="#DejaVuSans-39" transform="translate(159.033203 0)"/>
     <use xlink:href="#DejaVuSans-38" transform="translate(222.65625 0)"/>
    </g>
   </g>
   <g id="text_2">
    <!-- Vexpro -->
    <g style="fill: #333333" transform="translate(335.570746 396.800638) scale(0.09 -0.09)">
     <defs>
      <path id="DejaVuSans-56" d="M 1831 0 
L 50 4666 
L 709 4666 
L 2188 738 
L 3669 4666 
L 4325 4666 
L 2547 0 
L 1831 0 
z
" transform="scale(0.015625)"/>
      <path id="DejaVuSans-78" d="M 3513 3500 
L 2247 1797 
L 3578 0 
L 2900 0 
L 1881 1375 
L 863 0 
L 184 0 
L 1544 1831 
L 300 3500 
L 978 3500 
L 1906 2253 
L 2834 3500 
L 3513 3500 
z
" transform="scale(0.015625)"/>
      <path id="DejaVuSans-70" d="M 1159 525 
L 1159 -1331 
L 581 -1331 
L 581 3500 
L 1159 3500 
L 1159 2969 
Q 1341 3281 1617 3432 
Q 1894 3584 2278 3584 
Q 2916 3584 3314 3078 
Q 3713 2572 3713 1747 
Q 3713 922 3314 415 
Q 2916 -91 2278 -91 
Q 1894 -91 1617 61 
Q 1341 213 1159 525 
z
M 3116 1747 
Q 3116 2381 2855 2742 
Q 2594 3103 2138 3103 
Q 1681 3103 1420 2742 
Q 1159 2381 1159 1747 
Q 1159 1113 1420 752 
Q 1681 391 2138 391 
Q 2594 391 2855 752 
Q 3116 1113 3116 1747 
z
" transform="scale(0.015625)"/>
     </defs>
     <use xlink:href="#DejaVuSans-56"/>
     <use xlink:href="#DejaVuSans-65" transform="translate(60.658203 0)"/>
     <use xlink:href="#DejaVuSans-78" transform="translate(120.431641 0)"/>
     <use xlink:href="#DejaVuSans-70" transform="translate(179.611328 0)"/>
     <use xlink:href="#DejaVuSans-72" transform="translate(243.087891 0)"/>
     <use xlink:href="#DejaVuSans-6f" transform="translate(281.951172 0)"/>
    </g>
    <!-- 309 -->
    <g style="fill: #333333" transform="translate(342.423403 406.878669) scale(0.09 -0.09)">
     <defs>
      <path id="DejaVuSans-33" d="M 2597 2516 
Q 3050 2419 3304 2112 
Q 3559 1806 3559 1356 
Q 3559 666 3084 287 
Q 2609 -91 1734 -91 
Q 1441 -91 1130 -33 
Q 819 25 488 141 
L 488 750 
Q 750 597 1062 519 
Q 1375 441 1716 441 
Q 2309 441 2620 675 
Q 2931 909 2931 1356 
Q 2931 1769 2642 2001 
Q 2353 2234 1838 2234 
L 1294 2234 
L 1294 2753 
L 1863 2753 
Q 2328 2753 2575 2939 
Q 2822 3125 2822 3475 
Q 2822 3834 2567 4026 
Q 2313 4219 1838 4219 
Q 1578 4219 1281 4162 
Q 984 4106 628 3988 
L 628 4550 
Q 988 4650 1302 4700 
Q 1616 4750 1894 4750 
Q 2613 4750 3031 4423 
Q 3450 4097 3450 3541 
Q 3450 3153 3228 2886 
Q 3006 2619 2597 2516 
z
" transform="scale(0.015625)"/>
      <path id="DejaVuSans-30" d="M 2034 4250 
Q 1547 4250 1301 3770 
Q 1056 3291 1056 2328 
Q 1056 1369 1301 889 
Q 1547 409 2034 409 
Q 2525 409 2770 889 
Q 3016 1369 3016 2328 
Q 3016 3291 2770 3770 
Q 2525 4250 2034 4250 
z
M 2034 4750 
Q 2819 4750 3233 4129 
Q 3647 3509 3647 2328 
Q 3647 1150 3233 529 
Q 2819 -91 2034 -91 
Q 1250 -91 836 529 
Q 422 1150 422 2328 
Q 422 3509 836 4129 
Q 1250 4750 2034 4750 
z
" transform="scale(0.015625)"/>
     </defs>
     <use xlink:href="#DejaVuSans-33"/>
     <use xlink:href="#DejaVuSans-30" transform="translate(63.623047 0)"/>
     <use xlink:href="#DejaVuSans-39" transform="translate(127.246094 0)"/>
    </g>
   </g>
   <g id="text_3">
    <!-- Nexoral -->
    <g style="fill: #333333" transform="translate(279.178961 421.96522) scale(0.09 -0.09)">
     <defs>
      <path id="DejaVuSans-4e" d="M 628 4666 
L 1478 4666 
L 3547 763 
L 3547 4666 
L 4159 4666 
L 4159 0 
L 3309 0 
L 1241 3903 
L 1241 0 
L 628 0 
L 628 4666 
z
" transform="scale(0.015625)"/>
      <path id="DejaVuSans-6c" d="M 603 4863 
L 1178 4863 
L 1178 0 
L 603 0 
L 603 4863 
z
" transform="scale(0.015625)"/>
     </defs>
     <use xlink:href="#DejaVuSans-4e"/>
     <use xlink:href="#DejaVuSans-65" transform="translate(74.804688 0)"/>
     <use xlink:href="#DejaVuSans-78" transform="translate(134.578125 0)"/>
     <use xlink:href="#DejaVuSans-6f" transform="translate(190.632812 0)"/>
     <use xlink:href="#DejaVuSans-72" transform="translate(251.814453 0)"/>
     <use xlink:href="#DejaVuSans-61" transform="translate(292.927734 0)"/>
     <use xlink:href="#DejaVuSans-6c" transform="translate(354.207031 0)"/>
    </g>
    <!-- 303 -->
    <g style="fill: #333333" transform="translate(287.780289 432.043251) scale(0.09 -0.09)">
     <use xlink:href="#DejaVuSans-33"/>
     <use xlink:href="#DejaVuSans-30" transform="translate(63.623047 0)"/>
     <use xlink:href="#DejaVuSans-33" transform="translate(127.246094 0)"/>
    </g>
   </g>
   <g id="text_4">
    <!-- Combination -->
    <g style="fill: #333333" transform="translate(230.174489 427.771471) scale(0.09 -0.09)">
     <defs>
      <path id="DejaVuSans-43" d="M 4122 4306 
L 4122 3641 
Q 3803 3938 3442 4084 
Q 3081 4231 2675 4231 
Q 1875 4231 1450 3742 
Q 1025 3253 1025 2328 
Q 1025 1406 1450 917 
Q 1875 428 2675 428 
Q 3081 428 3442 575 
Q 3803 722 4122 1019 
L 4122 359 
Q 3791 134 3420 21 
Q 3050 -91 2638 -91 
Q 1578 -91 968 557 
Q 359 1206 359 2328 
Q 359 3453 968 4101 
Q 1578 4750 2638 4750 
Q 3056 4750 3426 4639 
Q 3797 4528 4122 4306 
z
" transform="scale(0.015625)"/>
      <path id="DejaVuSans-6d" d="M 3328 2828 
Q 3544 3216 3844 3400 
Q 4144 3584 4550 3584 
Q 5097 3584 5394 3201 
Q 5691 2819 5691 2113 
L 5691 0 
L 5113 0 
L 5113 2094 
Q 5113 2597 4934 2840 
Q 4756 3084 4391 3084 
Q 3944 3084 3684 2787 
Q 3425 2491 3425 1978 
L 3425 0 
L 2847 0 
L 2847 2094 
Q 2847 2600 2669 2842 
Q 2491 3084 2119 3084 
Q 1678 3084 1418 2786 
Q 1159 2488 1159 1978 
L 1159 0 
L 581 0 
L 581 3500 
L 1159 3500 
L 1159 2956 
Q 1356 3278 1631 3431 
Q 1906 3584 2284 3584 
Q 2666 3584 2933 3390 
Q 3200 3197 3328 2828 
z
" transform="scale(0.015625)"/>
      <path id="DejaVuSans-62" d="M 3116 1747 
Q 3116 2381 2855 2742 
Q 2594 3103 2138 3103 
Q 1681 3103 1420 2742 
Q 1159 2381 1159 1747 
Q 1159 1113 1420 752 
Q 1681 391 2138 391 
Q 2594 391 2855 752 
Q 3116 1113 3116 1747 
z
M 1159 2969 
Q 1341 3281 1617 3432 
Q 1894 3584 2278 3584 
Q 2916 3584 3314 3078 
Q 3713 2572 3713 1747 
Q 3713 922 3314 415 
Q 2916 -91 2278 -91 
Q 1894 -91 1617 61 
Q 1341 213 1159 525 
L 1159 0 
L 581 0 
L 581 4863 
L 1159 4863 
L 1159 2969 
z
" transform="scale(0.015625)"/>
      <path id="DejaVuSans-69" d="M 603 3500 
L 1178 3500 
L 1178 0 
L 603 0 
L 603 3500 
z
M 603 4863 
L 1178 4863 
L 1178 4134 
L 603 4134 
L 603 4863 
z
" transform="scale(0.015625)"/>
     </defs>
     <use xlink:href="#DejaVuSans-43"/>
     <use xlink:href="#DejaVuSans-6f" transform="translate(69.824219 0)"/>
     <use xlink:href="#DejaVuSans-6d" transform="translate(131.005859 0)"/>
     <use xlink:href="#DejaVuSans-62" transform="translate(228.417969 0)"/>
     <use xlink:href="#DejaVuSans-69" transform="translate(291.894531 0)"/>
     <use xlink:href="#DejaVuSans-6e" transform="translate(319.677734 0)"/>
     <use xlink:href="#DejaVuSans-61" transform="translate(383.056641 0)"/>
     <use xlink:href="#DejaVuSans-74" transform="translate(444.335938 0)"/>
     <use xlink:href="#DejaVuSans-69" transform="translate(483.544922 0)"/>
     <use xlink:href="#DejaVuSans-6f" transform="translate(511.328125 0)"/>
     <use xlink:href="#DejaVuSans-6e" transform="translate(572.509766 0)"/>
    </g>
    <!-- 5 -->
    <g style="fill: #333333" transform="translate(255.926442 437.849502) scale(0.09 -0.09)">
     <defs>
      <path id="DejaVuSans-35" d="M 691 4666 
L 3169 4666 
L 3169 4134 
L 1269 4134 
L 1269 2991 
Q 1406 3038 1543 3061 
Q 1681 3084 1819 3084 
Q 2600 3084 3056 2656 
Q 3513 2228 3513 1497 
Q 3513 744 3044 326 
Q 2575 -91 1722 -91 
Q 1428 -91 1123 -41 
Q 819 9 494 109 
L 494 744 
Q 775 591 1075 516 
Q 1375 441 1709 441 
Q 2250 441 2565 725 
Q 2881 1009 2881 1497 
Q 2881 1984 2565 2268 
Q 2250 2553 1709 2553 
Q 1456 2553 1204 2497 
Q 953 2441 691 2322 
L 691 4666 
z
" transform="scale(0.015625)"/>
     </defs>
     <use xlink:href="#DejaVuSans-35"/>
    </g>
   </g>
   <g id="text_5">
    <!-- Still on line 1 -->
    <g style="fill: #333333" transform="translate(89.28777 368.733487) scale(0.09 -0.09)">
     <defs>
      <path id="DejaVuSans-53" d="M 3425 4513 
L 3425 3897 
Q 3066 4069 2747 4153 
Q 2428 4238 2131 4238 
Q 1616 4238 1336 4038 
Q 1056 3838 1056 3469 
Q 1056 3159 1242 3001 
Q 1428 2844 1947 2747 
L 2328 2669 
Q 3034 2534 3370 2195 
Q 3706 1856 3706 1288 
Q 3706 609 3251 259 
Q 2797 -91 1919 -91 
Q 1588 -91 1214 -16 
Q 841 59 441 206 
L 441 856 
Q 825 641 1194 531 
Q 1563 422 1919 422 
Q 2459 422 2753 634 
Q 3047 847 3047 1241 
Q 3047 1584 2836 1778 
Q 2625 1972 2144 2069 
L 1759 2144 
Q 1053 2284 737 2584 
Q 422 2884 422 3419 
Q 422 4038 858 4394 
Q 1294 4750 2059 4750 
Q 2388 4750 2728 4690 
Q 3069 4631 3425 4513 
z
" transform="scale(0.015625)"/>
      <path id="DejaVuSans-20" transform="scale(0.015625)"/>
      <path id="DejaVuSans-31" d="M 794 531 
L 1825 531 
L 1825 4091 
L 703 3866 
L 703 4441 
L 1819 4666 
L 2450 4666 
L 2450 531 
L 3481 531 
L 3481 0 
L 794 0 
L 794 531 
z
" transform="scale(0.015625)"/>
     </defs>
     <use xlink:href="#DejaVuSans-53"/>
     <use xlink:href="#DejaVuSans-74" transform="translate(63.476562 0)"/>
     <use xlink:href="#DejaVuSans-69" transform="translate(102.685547 0)"/>
     <use xlink:href="#DejaVuSans-6c" transform="translate(130.46875 0)"/>
     <use xlink:href="#DejaVuSans-6c" transform="translate(158.251953 0)"/>
     <use xlink:href="#DejaVuSans-20" transform="translate(186.035156 0)"/>
     <use xlink:href="#DejaVuSans-6f" transform="translate(217.822266 0)"/>
     <use xlink:href="#DejaVuSans-6e" transform="translate(279.003906 0)"/>
     <use xlink:href="#DejaVuSans-20" transform="translate(342.382812 0)"/>
     <use xlink:href="#DejaVuSans-6c" transform="translate(374.169922 0)"/>
     <use xlink:href="#DejaVuSans-69" transform="translate(401.953125 0)"/>
     <use xlink:href="#DejaVuSans-6e" transform="translate(429.736328 0)"/>
     <use xlink:href="#DejaVuSans-65" transform="translate(493.115234 0)"/>
     <use xlink:href="#DejaVuSans-20" transform="translate(554.638672 0)"/>
     <use xlink:href="#DejaVuSans-31" transform="translate(586.425781 0)"/>
    </g>
    <!-- 1,924 -->
    <g style="fill: #333333" transform="translate(105.65652 378.811519) scale(0.09 -0.09)">
     <defs>
      <path id="DejaVuSans-34" d="M 2419 4116 
L 825 1625 
L 2419 1625 
L 2419 4116 
z
M 2253 4666 
L 3047 4666 
L 3047 1625 
L 3713 1625 
L 3713 1100 
L 3047 1100 
L 3047 0 
L 2419 0 
L 2419 1100 
L 313 1100 
L 313 1709 
L 2253 4666 
z
" transform="scale(0.015625)"/>
     </defs>
     <use xlink:href="#DejaVuSans-31"/>
     <use xlink:href="#DejaVuSans-2c" transform="translate(63.623047 0)"/>
     <use xlink:href="#DejaVuSans-39" transform="translate(95.410156 0)"/>
     <use xlink:href="#DejaVuSans-32" transform="translate(159.033203 0)"/>
     <use xlink:href="#DejaVuSans-34" transform="translate(222.65625 0)"/>
    </g>
   </g>
   <g id="text_6">
    <!-- Discontinued -->
    <g style="fill: #333333" transform="translate(93.54026 128.191902) scale(0.09 -0.09)">
     <defs>
      <path id="DejaVuSans-44" d="M 1259 4147 
L 1259 519 
L 2022 519 
Q 2988 519 3436 956 
Q 3884 1394 3884 2338 
Q 3884 3275 3436 3711 
Q 2988 4147 2022 4147 
L 1259 4147 
z
M 628 4666 
L 1925 4666 
Q 3281 4666 3915 4102 
Q 4550 3538 4550 2338 
Q 4550 1131 3912 565 
Q 3275 0 1925 0 
L 628 0 
L 628 4666 
z
" transform="scale(0.015625)"/>
      <path id="DejaVuSans-73" d="M 2834 3397 
L 2834 2853 
Q 2591 2978 2328 3040 
Q 2066 3103 1784 3103 
Q 1356 3103 1142 2972 
Q 928 2841 928 2578 
Q 928 2378 1081 2264 
Q 1234 2150 1697 2047 
L 1894 2003 
Q 2506 1872 2764 1633 
Q 3022 1394 3022 966 
Q 3022 478 2636 193 
Q 2250 -91 1575 -91 
Q 1294 -91 989 -36 
Q 684 19 347 128 
L 347 722 
Q 666 556 975 473 
Q 1284 391 1588 391 
Q 1994 391 2212 530 
Q 2431 669 2431 922 
Q 2431 1156 2273 1281 
Q 2116 1406 1581 1522 
L 1381 1569 
Q 847 1681 609 1914 
Q 372 2147 372 2553 
Q 372 3047 722 3315 
Q 1072 3584 1716 3584 
Q 2034 3584 2315 3537 
Q 2597 3491 2834 3397 
z
" transform="scale(0.015625)"/>
      <path id="DejaVuSans-63" d="M 3122 3366 
L 3122 2828 
Q 2878 2963 2633 3030 
Q 2388 3097 2138 3097 
Q 1578 3097 1268 2742 
Q 959 2388 959 1747 
Q 959 1106 1268 751 
Q 1578 397 2138 397 
Q 2388 397 2633 464 
Q 2878 531 3122 666 
L 3122 134 
Q 2881 22 2623 -34 
Q 2366 -91 2075 -91 
Q 1284 -91 818 406 
Q 353 903 353 1747 
Q 353 2603 823 3093 
Q 1294 3584 2113 3584 
Q 2378 3584 2631 3529 
Q 2884 3475 3122 3366 
z
" transform="scale(0.015625)"/>
      <path id="DejaVuSans-75" d="M 544 1381 
L 544 3500 
L 1119 3500 
L 1119 1403 
Q 1119 906 1312 657 
Q 1506 409 1894 409 
Q 2359 409 2629 706 
Q 2900 1003 2900 1516 
L 2900 3500 
L 3475 3500 
L 3475 0 
L 2900 0 
L 2900 538 
Q 2691 219 2414 64 
Q 2138 -91 1772 -91 
Q 1169 -91 856 284 
Q 544 659 544 1381 
z
M 1991 3584 
L 1991 3584 
z
" transform="scale(0.015625)"/>
      <path id="DejaVuSans-64" d="M 2906 2969 
L 2906 4863 
L 3481 4863 
L 3481 0 
L 2906 0 
L 2906 525 
Q 2725 213 2448 61 
Q 2172 -91 1784 -91 
Q 1150 -91 751 415 
Q 353 922 353 1747 
Q 353 2572 751 3078 
Q 1150 3584 1784 3584 
Q 2172 3584 2448 3432 
Q 2725 3281 2906 2969 
z
M 947 1747 
Q 947 1113 1208 752 
Q 1469 391 1925 391 
Q 2381 391 2643 752 
Q 2906 1113 2906 1747 
Q 2906 2381 2643 2742 
Q 2381 3103 1925 3103 
Q 1469 3103 1208 2742 
Q 947 2381 947 1747 
z
" transform="scale(0.015625)"/>
     </defs>
     <use xlink:href="#DejaVuSans-44"/>
     <use xlink:href="#DejaVuSans-69" transform="translate(77.001953 0)"/>
     <use xlink:href="#DejaVuSans-73" transform="translate(104.785156 0)"/>
     <use xlink:href="#DejaVuSans-63" transform="translate(156.884766 0)"/>
     <use xlink:href="#DejaVuSans-6f" transform="translate(211.865234 0)"/>
     <use xlink:href="#DejaVuSans-6e" transform="translate(273.046875 0)"/>
     <use xlink:href="#DejaVuSans-74" transform="translate(336.425781 0)"/>
     <use xlink:href="#DejaVuSans-69" transform="translate(375.634766 0)"/>
     <use xlink:href="#DejaVuSans-6e" transform="translate(403.417969 0)"/>
     <use xlink:href="#DejaVuSans-75" transform="translate(466.796875 0)"/>
     <use xlink:href="#DejaVuSans-65" transform="translate(530.175781 0)"/>
     <use xlink:href="#DejaVuSans-64" transform="translate(591.699219 0)"/>
    </g>
    <!-- 1,463 -->
    <g style="fill: #333333" transform="translate(110.140338 138.269933) scale(0.09 -0.09)">
     <defs>
      <path id="DejaVuSans-36" d="M 2113 2584 
Q 1688 2584 1439 2293 
Q 1191 2003 1191 1497 
Q 1191 994 1439 701 
Q 1688 409 2113 409 
Q 2538 409 2786 701 
Q 3034 994 3034 1497 
Q 3034 2003 2786 2293 
Q 2538 2584 2113 2584 
z
M 3366 4563 
L 3366 3988 
Q 3128 4100 2886 4159 
Q 2644 4219 2406 4219 
Q 1781 4219 1451 3797 
Q 1122 3375 1075 2522 
Q 1259 2794 1537 2939 
Q 1816 3084 2150 3084 
Q 2853 3084 3261 2657 
Q 3669 2231 3669 1497 
Q 3669 778 3244 343 
Q 2819 -91 2113 -91 
Q 1303 -91 875 529 
Q 447 1150 447 2328 
Q 447 3434 972 4092 
Q 1497 4750 2381 4750 
Q 2619 4750 2861 4703 
Q 3103 4656 3366 4563 
z
" transform="scale(0.015625)"/>
     </defs>
     <use xlink:href="#DejaVuSans-31"/>
     <use xlink:href="#DejaVuSans-2c" transform="translate(63.623047 0)"/>
     <use xlink:href="#DejaVuSans-34" transform="translate(95.410156 0)"/>
     <use xlink:href="#DejaVuSans-36" transform="translate(159.033203 0)"/>
     <use xlink:href="#DejaVuSans-33" transform="translate(222.65625 0)"/>
    </g>
   </g>
   <g id="text_7">
    <!-- Advanced to line 2 -->
    <g style="fill: #333333" transform="translate(191.194217 74.677591) scale(0.09 -0.09)">
     <defs>
      <path id="DejaVuSans-41" d="M 2188 4044 
L 1331 1722 
L 3047 1722 
L 2188 4044 
z
M 1831 4666 
L 2547 4666 
L 4325 0 
L 3669 0 
L 3244 1197 
L 1141 1197 
L 716 0 
L 50 0 
L 1831 4666 
z
" transform="scale(0.015625)"/>
     </defs>
     <use xlink:href="#DejaVuSans-41"/>
     <use xlink:href="#DejaVuSans-64" transform="translate(66.658203 0)"/>
     <use xlink:href="#DejaVuSans-76" transform="translate(130.134766 0)"/>
     <use xlink:href="#DejaVuSans-61" transform="translate(189.314453 0)"/>
     <use xlink:href="#DejaVuSans-6e" transform="translate(250.59375 0)"/>
     <use xlink:href="#DejaVuSans-63" transform="translate(313.972656 0)"/>
     <use xlink:href="#DejaVuSans-65" transform="translate(368.953125 0)"/>
     <use xlink:href="#DejaVuSans-64" transform="translate(430.476562 0)"/>
     <use xlink:href="#DejaVuSans-20" transform="translate(493.953125 0)"/>
     <use xlink:href="#DejaVuSans-74" transform="translate(525.740234 0)"/>
     <use xlink:href="#DejaVuSans-6f" transform="translate(564.949219 0)"/>
     <use xlink:href="#DejaVuSans-20" transform="translate(626.130859 0)"/>
     <use xlink:href="#DejaVuSans-6c" transform="translate(657.917969 0)"/>
     <use xlink:href="#DejaVuSans-69" transform="translate(685.701172 0)"/>
     <use xlink:href="#DejaVuSans-6e" transform="translate(713.484375 0)"/>
     <use xlink:href="#DejaVuSans-65" transform="translate(776.863281 0)"/>
     <use xlink:href="#DejaVuSans-20" transform="translate(838.386719 0)"/>
     <use xlink:href="#DejaVuSans-32" transform="translate(870.173828 0)"/>
    </g>
    <!-- 28 -->
    <g style="fill: #333333" transform="translate(227.48953 84.755623) scale(0.09 -0.09)">
     <use xlink:href="#DejaVuSans-32"/>
     <use xlink:href="#DejaVuSans-38" transform="translate(63.623047 0)"/>
    </g>
   </g>
  </g>
  <g id="text_8">
   <!-- Line 1 pathways: chord alternative -->
   <g transform="translate(139.912266 16.318125) scale(0.12 -0.12)">
    <defs>
     <path id="DejaVuSans-4c" d="M 628 4666 
L 1259 4666 
L 1259 531 
L 3531 531 
L 3531 0 
L 628 0 
L 628 4666 
z
" transform="scale(0.015625)"/>
     <path id="DejaVuSans-68" d="M 3513 2113 
L 3513 0 
L 2938 0 
L 2938 2094 
Q 2938 2591 2744 2837 
Q 2550 3084 2163 3084 
Q 1697 3084 1428 2787 
Q 1159 2491 1159 1978 
L 1159 0 
L 581 0 
L 581 4863 
L 1159 4863 
L 1159 2956 
Q 1366 3272 1645 3428 
Q 1925 3584 2291 3584 
Q 2894 3584 3203 3211 
Q 3513 2838 3513 2113 
z
" transform="scale(0.015625)"/>
     <path id="DejaVuSans-77" d="M 269 3500 
L 844 3500 
L 1563 769 
L 2278 3500 
L 2956 3500 
L 3675 769 
L 4391 3500 
L 4966 3500 
L 4050 0 
L 3372 0 
L 2619 2869 
L 1863 0 
L 1184 0 
L 269 3500 
z
" transform="scale(0.015625)"/>
     <path id="DejaVuSans-79" d="M 2059 -325 
Q 1816 -950 1584 -1140 
Q 1353 -1331 966 -1331 
L 506 -1331 
L 506 -850 
L 844 -850 
Q 1081 -850 1212 -737 
Q 1344 -625 1503 -206 
L 1606 56 
L 191 3500 
L 800 3500 
L 1894 763 
L 2988 3500 
L 3597 3500 
L 2059 -325 
z
" transform="scale(0.015625)"/>
     <path id="DejaVuSans-3a" d="M 750 794 
L 1409 794 
L 1409 0 
L 750 0 
L 750 794 
z
M 750 3309 
L 1409 3309 
L 1409 2516 
L 750 2516 
L 750 3309 
z
" transform="scale(0.015625)"/>
    </defs>
    <use xlink:href="#DejaVuSans-4c"/>
    <use xlink:href="#DejaVuSans-69" transform="translate(55.712891 0)"/>
    <use xlink:href="#DejaVuSans-6e" transform="translate(83.496094 0)"/>
    <use xlink:href="#DejaVuSans-65" transform="translate(146.875 0)"/>
    <use xlink:href="#DejaVuSans-20" transform="translate(208.398438 0)"/>
    <use xlink:href="#DejaVuSans-31" transform="translate(240.185547 0)"/>
    <use xlink:href="#DejaVuSans-20" transform="translate(303.808594 0)"/>
    <use xlink:href="#DejaVuSans-70" transform="translate(335.595703 0)"/>
    <use xlink:href="#DejaVuSans-61" transform="translate(399.072266 0)"/>
    <use xlink:href="#DejaVuSans-74" transform="translate(460.351562 0)"/>
    <use xlink:href="#DejaVuSans-68" transform="translate(499.560547 0)"/>
    <use xlink:href="#DejaVuSans-77" transform="translate(562.939453 0)"/>
    <use xlink:href="#DejaVuSans-61" transform="translate(644.726562 0)"/>
    <use xlink:href="#DejaVuSans-79" transform="translate(706.005859 0)"/>
    <use xlink:href="#DejaVuSans-73" transform="translate(765.185547 0)"/>
    <use xlink:href="#DejaVuSans-3a" transform="translate(817.285156 0)"/>
    <use xlink:href="#DejaVuSans-20" transform="translate(850.976562 0)"/>
    <use xlink:href="#DejaVuSans-63" transform="translate(882.763672 0)"/>
    <use xlink:href="#DejaVuSans-68" transform="translate(937.744141 0)"/>
    <use xlink:href="#DejaVuSans-6f" transform="translate(1001.123047 0)"/>
    <use xlink:href="#DejaVuSans-72" transform="translate(1062.304688 0)"/>
    <use xlink:href="#DejaVuSans-64" transform="translate(1101.667969 0)"/>
    <use xlink:href="#DejaVuSans-20" transform="translate(1165.144531 0)"/>
    <use xlink:href="#DejaVuSans-61" transform="translate(1196.931641 0)"/>
    <use xlink:href="#DejaVuSans-6c" transform="translate(1258.210938 0)"/>
    <use xlink:href="#DejaVuSans-74" transform="translate(1285.994141 0)"/>
    <use xlink:href="#DejaVuSans-65" transform="translate(1325.203125 0)"/>
    <use xlink:href="#DejaVuSans-72" transform="translate(1386.726562 0)"/>
    <use xlink:href="#DejaVuSans-6e" transform="translate(1426.089844 0)"/>
    <use xlink:href="#DejaVuSans-61" transform="translate(1489.46875 0)"/>
    <use xlink:href="#DejaVuSans-74" transform="translate(1550.748047 0)"/>
    <use xlink:href="#DejaVuSans-69" transform="translate(1589.957031 0)"/>
    <use xlink:href="#DejaVuSans-76" transform="translate(1617.740234 0)"/>
    <use xlink:href="#DejaVuSans-65" transform="translate(1676.919922 0)"/>
   </g>
  </g>
  <g id="text_9">
   <!-- Synthetic data. This is an alternative view. The Sankey remains easier to read for exact pathway volume. -->
   <g style="fill: #555555" transform="translate(7.2 497.808281) scale(0.09 -0.09)">
    <defs>
     <path id="DejaVuSans-2e" d="M 684 794 
L 1344 794 
L 1344 0 
L 684 0 
L 684 794 
z
" transform="scale(0.015625)"/>
     <path id="DejaVuSans-54" d="M -19 4666 
L 3928 4666 
L 3928 4134 
L 2272 4134 
L 2272 0 
L 1638 0 
L 1638 4134 
L -19 4134 
L -19 4666 
z
" transform="scale(0.015625)"/>
     <path id="DejaVuSans-6b" d="M 581 4863 
L 1159 4863 
L 1159 1991 
L 2875 3500 
L 3609 3500 
L 1753 1863 
L 3688 0 
L 2938 0 
L 1159 1709 
L 1159 0 
L 581 0 
L 581 4863 
z
" transform="scale(0.015625)"/>
     <path id="DejaVuSans-66" d="M 2375 4863 
L 2375 4384 
L 1825 4384 
Q 1516 4384 1395 4259 
Q 1275 4134 1275 3809 
L 1275 3500 
L 2222 3500 
L 2222 3053 
L 1275 3053 
L 1275 0 
L 697 0 
L 697 3053 
L 147 3053 
L 147 3500 
L 697 3500 
L 697 3744 
Q 697 4328 969 4595 
Q 1241 4863 1831 4863 
L 2375 4863 
z
" transform="scale(0.015625)"/>
    </defs>
    <use xlink:href="#DejaVuSans-53"/>
    <use xlink:href="#DejaVuSans-79" transform="translate(63.476562 0)"/>
    <use xlink:href="#DejaVuSans-6e" transform="translate(122.65625 0)"/>
    <use xlink:href="#DejaVuSans-74" transform="translate(186.035156 0)"/>
    <use xlink:href="#DejaVuSans-68" transform="translate(225.244141 0)"/>
    <use xlink:href="#DejaVuSans-65" transform="translate(288.623047 0)"/>
    <use xlink:href="#DejaVuSans-74" transform="translate(350.146484 0)"/>
    <use xlink:href="#DejaVuSans-69" transform="translate(389.355469 0)"/>
    <use xlink:href="#DejaVuSans-63" transform="translate(417.138672 0)"/>
    <use xlink:href="#DejaVuSans-20" transform="translate(472.119141 0)"/>
    <use xlink:href="#DejaVuSans-64" transform="translate(503.90625 0)"/>
    <use xlink:href="#DejaVuSans-61" transform="translate(567.382812 0)"/>
    <use xlink:href="#DejaVuSans-74" transform="translate(628.662109 0)"/>
    <use xlink:href="#DejaVuSans-61" transform="translate(667.871094 0)"/>
    <use xlink:href="#DejaVuSans-2e" transform="translate(729.150391 0)"/>
    <use xlink:href="#DejaVuSans-20" transform="translate(760.9375 0)"/>
    <use xlink:href="#DejaVuSans-54" transform="translate(792.724609 0)"/>
    <use xlink:href="#DejaVuSans-68" transform="translate(853.808594 0)"/>
    <use xlink:href="#DejaVuSans-69" transform="translate(917.1875 0)"/>
    <use xlink:href="#DejaVuSans-73" transform="translate(944.970703 0)"/>
    <use xlink:href="#DejaVuSans-20" transform="translate(997.070312 0)"/>
    <use xlink:href="#DejaVuSans-69" transform="translate(1028.857422 0)"/>
    <use xlink:href="#DejaVuSans-73" transform="translate(1056.640625 0)"/>
    <use xlink:href="#DejaVuSans-20" transform="translate(1108.740234 0)"/>
    <use xlink:href="#DejaVuSans-61" transform="translate(1140.527344 0)"/>
    <use xlink:href="#DejaVuSans-6e" transform="translate(1201.806641 0)"/>
    <use xlink:href="#DejaVuSans-20" transform="translate(1265.185547 0)"/>
    <use xlink:href="#DejaVuSans-61" transform="translate(1296.972656 0)"/>
    <use xlink:href="#DejaVuSans-6c" transform="translate(1358.251953 0)"/>
    <use xlink:href="#DejaVuSans-74" transform="translate(1386.035156 0)"/>
    <use xlink:href="#DejaVuSans-65" transform="translate(1425.244141 0)"/>
    <use xlink:href="#DejaVuSans-72" transform="translate(1486.767578 0)"/>
    <use xlink:href="#DejaVuSans-6e" transform="translate(1526.130859 0)"/>
    <use xlink:href="#DejaVuSans-61" transform="translate(1589.509766 0)"/>
    <use xlink:href="#DejaVuSans-74" transform="translate(1650.789062 0)"/>
    <use xlink:href="#DejaVuSans-69" transform="translate(1689.998047 0)"/>
    <use xlink:href="#DejaVuSans-76" transform="translate(1717.78125 0)"/>
    <use xlink:href="#DejaVuSans-65" transform="translate(1776.960938 0)"/>
    <use xlink:href="#DejaVuSans-20" transform="translate(1838.484375 0)"/>
    <use xlink:href="#DejaVuSans-76" transform="translate(1870.271484 0)"/>
    <use xlink:href="#DejaVuSans-69" transform="translate(1929.451172 0)"/>
    <use xlink:href="#DejaVuSans-65" transform="translate(1957.234375 0)"/>
    <use xlink:href="#DejaVuSans-77" transform="translate(2018.757812 0)"/>
    <use xlink:href="#DejaVuSans-2e" transform="translate(2091.419922 0)"/>
    <use xlink:href="#DejaVuSans-20" transform="translate(2123.207031 0)"/>
    <use xlink:href="#DejaVuSans-54" transform="translate(2154.994141 0)"/>
    <use xlink:href="#DejaVuSans-68" transform="translate(2216.078125 0)"/>
    <use xlink:href="#DejaVuSans-65" transform="translate(2279.457031 0)"/>
    <use xlink:href="#DejaVuSans-20" transform="translate(2340.980469 0)"/>
    <use xlink:href="#DejaVuSans-53" transform="translate(2372.767578 0)"/>
    <use xlink:href="#DejaVuSans-61" transform="translate(2436.244141 0)"/>
    <use xlink:href="#DejaVuSans-6e" transform="translate(2497.523438 0)"/>
    <use xlink:href="#DejaVuSans-6b" transform="translate(2560.902344 0)"/>
    <use xlink:href="#DejaVuSans-65" transform="translate(2615.1875 0)"/>
    <use xlink:href="#DejaVuSans-79" transform="translate(2676.710938 0)"/>
    <use xlink:href="#DejaVuSans-20" transform="translate(2735.890625 0)"/>
    <use xlink:href="#DejaVuSans-72" transform="translate(2767.677734 0)"/>
    <use xlink:href="#DejaVuSans-65" transform="translate(2806.541016 0)"/>
    <use xlink:href="#DejaVuSans-6d" transform="translate(2868.064453 0)"/>
    <use xlink:href="#DejaVuSans-61" transform="translate(2965.476562 0)"/>
    <use xlink:href="#DejaVuSans-69" transform="translate(3026.755859 0)"/>
    <use xlink:href="#DejaVuSans-6e" transform="translate(3054.539062 0)"/>
    <use xlink:href="#DejaVuSans-73" transform="translate(3117.917969 0)"/>
    <use xlink:href="#DejaVuSans-20" transform="translate(3170.017578 0)"/>
    <use xlink:href="#DejaVuSans-65" transform="translate(3201.804688 0)"/>
    <use xlink:href="#DejaVuSans-61" transform="translate(3263.328125 0)"/>
    <use xlink:href="#DejaVuSans-73" transform="translate(3324.607422 0)"/>
    <use xlink:href="#DejaVuSans-69" transform="translate(3376.707031 0)"/>
    <use xlink:href="#DejaVuSans-65" transform="translate(3404.490234 0)"/>
    <use xlink:href="#DejaVuSans-72" transform="translate(3466.013672 0)"/>
    <use xlink:href="#DejaVuSans-20" transform="translate(3507.126953 0)"/>
    <use xlink:href="#DejaVuSans-74" transform="translate(3538.914062 0)"/>
    <use xlink:href="#DejaVuSans-6f" transform="translate(3578.123047 0)"/>
    <use xlink:href="#DejaVuSans-20" transform="translate(3639.304688 0)"/>
    <use xlink:href="#DejaVuSans-72" transform="translate(3671.091797 0)"/>
    <use xlink:href="#DejaVuSans-65" transform="translate(3709.955078 0)"/>
    <use xlink:href="#DejaVuSans-61" transform="translate(3771.478516 0)"/>
    <use xlink:href="#DejaVuSans-64" transform="translate(3832.757812 0)"/>
    <use xlink:href="#DejaVuSans-20" transform="translate(3896.234375 0)"/>
    <use xlink:href="#DejaVuSans-66" transform="translate(3928.021484 0)"/>
    <use xlink:href="#DejaVuSans-6f" transform="translate(3963.226562 0)"/>
    <use xlink:href="#DejaVuSans-72" transform="translate(4024.408203 0)"/>
    <use xlink:href="#DejaVuSans-20" transform="translate(4065.521484 0)"/>
    <use xlink:href="#DejaVuSans-65" transform="translate(4097.308594 0)"/>
    <use xlink:href="#DejaVuSans-78" transform="translate(4157.082031 0)"/>
    <use xlink:href="#DejaVuSans-61" transform="translate(4216.261719 0)"/>
    <use xlink:href="#DejaVuSans-63" transform="translate(4277.541016 0)"/>
    <use xlink:href="#DejaVuSans-74" transform="translate(4332.521484 0)"/>
    <use xlink:href="#DejaVuSans-20" transform="translate(4371.730469 0)"/>
    <use xlink:href="#DejaVuSans-70" transform="translate(4403.517578 0)"/>
    <use xlink:href="#DejaVuSans-61" transform="translate(4466.994141 0)"/>
    <use xlink:href="#DejaVuSans-74" transform="translate(4528.273438 0)"/>
    <use xlink:href="#DejaVuSans-68" transform="translate(4567.482422 0)"/>
    <use xlink:href="#DejaVuSans-77" transform="translate(4630.861328 0)"/>
    <use xlink:href="#DejaVuSans-61" transform="translate(4712.648438 0)"/>
    <use xlink:href="#DejaVuSans-79" transform="translate(4773.927734 0)"/>
    <use xlink:href="#DejaVuSans-20" transform="translate(4833.107422 0)"/>
    <use xlink:href="#DejaVuSans-76" transform="translate(4864.894531 0)"/>
    <use xlink:href="#DejaVuSans-6f" transform="translate(4924.074219 0)"/>
    <use xlink:href="#DejaVuSans-6c" transform="translate(4985.255859 0)"/>
    <use xlink:href="#DejaVuSans-75" transform="translate(5013.039062 0)"/>
    <use xlink:href="#DejaVuSans-6d" transform="translate(5076.417969 0)"/>
    <use xlink:href="#DejaVuSans-65" transform="translate(5173.830078 0)"/>
    <use xlink:href="#DejaVuSans-2e" transform="translate(5235.353516 0)"/>
   </g>
  </g>
 </g>
 <defs>
  <clipPath id="p48f10416e4">
   <rect x="49.818516" y="60" width="401.76" height="386.88"/>
  </clipPath>
 </defs>
</svg>
