<?xml version="1.0" encoding="utf-8" standalone="no"?>
<!DOCTYPE svg PUBLIC "-//W3C//DTD SVG 1.1//EN"
  "http://www.w3.org/Graphics/SVG/1.1/DTD/svg11.dtd">
<svg xmlns:xlink="http://www.w3.org/1999/xlink" width="636.053175pt" height="305.958281pt" viewBox="0 0 636.053175 305.958281" xmlns="http://www.w3.org/2000/svg" version="1.1">
 <metadata>
  <rdf:RDF xmlns:dc="http://purl.org/dc/elements/1.1/" xmlns:cc="http://creativecommons.org/ns#" xmlns:rdf="http://www.w3.org/1999/02/22-rdf-syntax-ns#">
   <cc:Work>
    <dc:type rdf:resource="http://purl.org/dc/dcmitype/StillImage"/>
    <dc:date>2026-06-18T15:56:54.698448</dc:date>
    <dc:format>image/svg+xml</dc:format>
    <dc:creator>
     <cc:Agent>
      <dc:title>Matplotlib v3.10.9, https://matplotlib.org/</dc:title>
     </cc:Agent>
    </dc:creator>
   </cc:Work>
  </rdf:RDF>
 </metadata>
 <defs>
  <style type="text/css">*{stroke-linejoin: round; stroke-linecap: butt}</style>
 </defs>
 <g id="figure_1">
  <g id="patch_1">
   <path d="M 0 305.958281
L 636.053175 305.958281
L 636.053175 0
L 0 0
z
" style="fill: #ffffff"/>
  </g>
  <g id="axes_1">
   <g id="patch_2">
    <path d="M 64.157175 120.83456
L 555.197175 120.83456
Q 562.562775 120.83456 562.562775 119.867584
L 562.562775 77.965258
Q 562.562775 76.998281 555.197175 76.998281
L 64.157175 76.998281
Q 56.791575 76.998281 56.791575 77.965258
L 56.791575 119.867584
Q 56.791575 120.83456 64.157175 120.83456
z
" clip-path="url(#p55ed43c5f0)" style="fill: #f8f8f8; stroke: #cccccc; stroke-width: 0.6; stroke-linejoin: miter"/>
   </g>
   <g id="patch_3">
    <path d="M 64.157175 178.853165
L 555.197175 178.853165
Q 562.562775 178.853165 562.562775 177.886188
L 562.562775 135.983863
Q 562.562775 135.016886 555.197175 135.016886
L 64.157175 135.016886
Q 56.791575 135.016886 56.791575 135.983863
L 56.791575 177.886188
Q 56.791575 178.853165 64.157175 178.853165
z
" clip-path="url(#p55ed43c5f0)" style="fill: #f8f8f8; stroke: #cccccc; stroke-width: 0.6; stroke-linejoin: miter"/>
   </g>
   <g id="patch_4">
    <path d="M 64.157175 243.318281
L 555.197175 243.318281
Q 562.562775 243.318281 562.562775 242.351305
L 562.562775 200.448979
Q 562.562775 199.482002 555.197175 199.482002
L 64.157175 199.482002
Q 56.791575 199.482002 56.791575 200.448979
L 56.791575 242.351305
Q 56.791575 243.318281 64.157175 243.318281
z
" clip-path="url(#p55ed43c5f0)" style="fill: #f8f8f8; stroke: #cccccc; stroke-width: 0.6; stroke-linejoin: miter"/>
   </g>
   <g id="line2d_1">
    <path d="M 555.197175 284.898281
L 555.197175 71.454281
" clip-path="url(#p55ed43c5f0)" style="fill: none; stroke-dasharray: 3.7,1.6; stroke-dashoffset: 0; stroke: #444444"/>
   </g>
   <g id="text_1">
    <!-- SOURCE -->
    <g style="fill: #666666" transform="translate(12.649219 96.786772) scale(0.075 -0.075)">
     <defs>
      <path id="DejaVuSans-Bold-53" d="M 3834 4519
L 3834 3531
Q 3450 3703 3084 3790
Q 2719 3878 2394 3878
Q 1963 3878 1756 3759
Q 1550 3641 1550 3391
Q 1550 3203 1689 3098
Q 1828 2994 2194 2919
L 2706 2816
Q 3484 2659 3812 2340
Q 4141 2022 4141 1434
Q 4141 663 3683 286
Q 3225 -91 2284 -91
Q 1841 -91 1394 -6
Q 947 78 500 244
L 500 1259
Q 947 1022 1364 901
Q 1781 781 2169 781
Q 2563 781 2772 912
Q 2981 1044 2981 1288
Q 2981 1506 2839 1625
Q 2697 1744 2272 1838
L 1806 1941
Q 1106 2091 782 2419
Q 459 2747 459 3303
Q 459 4000 909 4375
Q 1359 4750 2203 4750
Q 2588 4750 2994 4692
Q 3400 4634 3834 4519
z
" transform="scale(0.015625)"/>
      <path id="DejaVuSans-Bold-4f" d="M 2719 3878
Q 2169 3878 1866 3472
Q 1563 3066 1563 2328
Q 1563 1594 1866 1187
Q 2169 781 2719 781
Q 3272 781 3575 1187
Q 3878 1594 3878 2328
Q 3878 3066 3575 3472
Q 3272 3878 2719 3878
z
M 2719 4750
Q 3844 4750 4481 4106
Q 5119 3463 5119 2328
Q 5119 1197 4481 553
Q 3844 -91 2719 -91
Q 1597 -91 958 553
Q 319 1197 319 2328
Q 319 3463 958 4106
Q 1597 4750 2719 4750
z
" transform="scale(0.015625)"/>
      <path id="DejaVuSans-Bold-55" d="M 588 4666
L 1791 4666
L 1791 1869
Q 1791 1291 1980 1042
Q 2169 794 2597 794
Q 3028 794 3217 1042
Q 3406 1291 3406 1869
L 3406 4666
L 4609 4666
L 4609 1869
Q 4609 878 4112 393
Q 3616 -91 2597 -91
Q 1581 -91 1084 393
Q 588 878 588 1869
L 588 4666
z
" transform="scale(0.015625)"/>
      <path id="DejaVuSans-Bold-52" d="M 2297 2597
Q 2675 2597 2839 2737
Q 3003 2878 3003 3200
Q 3003 3519 2839 3656
Q 2675 3794 2297 3794
L 1791 3794
L 1791 2597
L 2297 2597
z
M 1791 1766
L 1791 0
L 588 0
L 588 4666
L 2425 4666
Q 3347 4666 3776 4356
Q 4206 4047 4206 3378
Q 4206 2916 3982 2619
Q 3759 2322 3309 2181
Q 3556 2125 3751 1926
Q 3947 1728 4147 1325
L 4800 0
L 3519 0
L 2950 1159
Q 2778 1509 2601 1637
Q 2425 1766 2131 1766
L 1791 1766
z
" transform="scale(0.015625)"/>
      <path id="DejaVuSans-Bold-43" d="M 4288 256
Q 3956 84 3597 -3
Q 3238 -91 2847 -91
Q 1681 -91 1000 561
Q 319 1213 319 2328
Q 319 3447 1000 4098
Q 1681 4750 2847 4750
Q 3238 4750 3597 4662
Q 3956 4575 4288 4403
L 4288 3438
Q 3953 3666 3628 3772
Q 3303 3878 2944 3878
Q 2300 3878 1931 3465
Q 1563 3053 1563 2328
Q 1563 1606 1931 1193
Q 2300 781 2944 781
Q 3303 781 3628 887
Q 3953 994 4288 1222
L 4288 256
z
" transform="scale(0.015625)"/>
      <path id="DejaVuSans-Bold-45" d="M 588 4666
L 3834 4666
L 3834 3756
L 1791 3756
L 1791 2888
L 3713 2888
L 3713 1978
L 1791 1978
L 1791 909
L 3903 909
L 3903 0
L 588 0
L 588 4666
z
" transform="scale(0.015625)"/>
     </defs>
     <use xlink:href="#DejaVuSans-Bold-53"/>
     <use xlink:href="#DejaVuSans-Bold-4f" transform="translate(72.021484 0)"/>
     <use xlink:href="#DejaVuSans-Bold-55" transform="translate(157.03125 0)"/>
     <use xlink:href="#DejaVuSans-Bold-52" transform="translate(238.232422 0)"/>
     <use xlink:href="#DejaVuSans-Bold-43" transform="translate(315.234375 0)"/>
     <use xlink:href="#DejaVuSans-Bold-45" transform="translate(388.623047 0)"/>
    </g>
    <!-- EVENTS -->
    <g style="fill: #666666" transform="translate(13.361719 105.185132) scale(0.075 -0.075)">
     <defs>
      <path id="DejaVuSans-Bold-56" d="M 31 4666
L 1241 4666
L 2478 1222
L 3713 4666
L 4922 4666
L 3194 0
L 1759 0
L 31 4666
z
" transform="scale(0.015625)"/>
      <path id="DejaVuSans-Bold-4e" d="M 588 4666
L 1931 4666
L 3628 1466
L 3628 4666
L 4769 4666
L 4769 0
L 3425 0
L 1728 3200
L 1728 0
L 588 0
L 588 4666
z
" transform="scale(0.015625)"/>
      <path id="DejaVuSans-Bold-54" d="M 31 4666
L 4331 4666
L 4331 3756
L 2784 3756
L 2784 0
L 1581 0
L 1581 3756
L 31 3756
L 31 4666
z
" transform="scale(0.015625)"/>
     </defs>
     <use xlink:href="#DejaVuSans-Bold-45"/>
     <use xlink:href="#DejaVuSans-Bold-56" transform="translate(68.310547 0)"/>
     <use xlink:href="#DejaVuSans-Bold-45" transform="translate(145.703125 0)"/>
     <use xlink:href="#DejaVuSans-Bold-4e" transform="translate(214.013672 0)"/>
     <use xlink:href="#DejaVuSans-Bold-54" transform="translate(297.705078 0)"/>
     <use xlink:href="#DejaVuSans-Bold-53" transform="translate(365.917969 0)"/>
    </g>
   </g>
   <g id="text_2">
    <!-- EXPOSURE -->
    <g style="fill: #666666" transform="translate(7.2 159.004557) scale(0.075 -0.075)">
     <defs>
      <path id="DejaVuSans-Bold-58" d="M 3188 2381
L 4806 0
L 3553 0
L 2463 1594
L 1381 0
L 122 0
L 1741 2381
L 184 4666
L 1441 4666
L 2463 3163
L 3481 4666
L 4744 4666
L 3188 2381
z
" transform="scale(0.015625)"/>
      <path id="DejaVuSans-Bold-50" d="M 588 4666
L 2584 4666
Q 3475 4666 3951 4270
Q 4428 3875 4428 3144
Q 4428 2409 3951 2014
Q 3475 1619 2584 1619
L 1791 1619
L 1791 0
L 588 0
L 588 4666
z
M 1791 3794
L 1791 2491
L 2456 2491
Q 2806 2491 2997 2661
Q 3188 2831 3188 3144
Q 3188 3456 2997 3625
Q 2806 3794 2456 3794
L 1791 3794
z
" transform="scale(0.015625)"/>
     </defs>
     <use xlink:href="#DejaVuSans-Bold-45"/>
     <use xlink:href="#DejaVuSans-Bold-58" transform="translate(68.310547 0)"/>
     <use xlink:href="#DejaVuSans-Bold-50" transform="translate(145.410156 0)"/>
     <use xlink:href="#DejaVuSans-Bold-4f" transform="translate(218.701172 0)"/>
     <use xlink:href="#DejaVuSans-Bold-53" transform="translate(303.710938 0)"/>
     <use xlink:href="#DejaVuSans-Bold-55" transform="translate(375.732422 0)"/>
     <use xlink:href="#DejaVuSans-Bold-52" transform="translate(456.933594 0)"/>
     <use xlink:href="#DejaVuSans-Bold-45" transform="translate(533.935547 0)"/>
    </g>
   </g>
   <g id="text_3">
    <!-- CLASSIFI- -->
    <g style="fill: #666666" transform="translate(9.6 219.270493) scale(0.075 -0.075)">
     <defs>
      <path id="DejaVuSans-Bold-4c" d="M 588 4666
L 1791 4666
L 1791 909
L 3903 909
L 3903 0
L 588 0
L 588 4666
z
" transform="scale(0.015625)"/>
      <path id="DejaVuSans-Bold-41" d="M 3419 850
L 1538 850
L 1241 0
L 31 0
L 1759 4666
L 3194 4666
L 4922 0
L 3713 0
L 3419 850
z
M 1838 1716
L 3116 1716
L 2478 3572
L 1838 1716
z
" transform="scale(0.015625)"/>
      <path id="DejaVuSans-Bold-49" d="M 588 4666
L 1791 4666
L 1791 0
L 588 0
L 588 4666
z
" transform="scale(0.015625)"/>
      <path id="DejaVuSans-Bold-46" d="M 588 4666
L 3834 4666
L 3834 3756
L 1791 3756
L 1791 2888
L 3713 2888
L 3713 1978
L 1791 1978
L 1791 0
L 588 0
L 588 4666
z
" transform="scale(0.015625)"/>
      <path id="DejaVuSans-Bold-2d" d="M 347 2297
L 2309 2297
L 2309 1388
L 347 1388
L 347 2297
z
" transform="scale(0.015625)"/>
     </defs>
     <use xlink:href="#DejaVuSans-Bold-43"/>
     <use xlink:href="#DejaVuSans-Bold-4c" transform="translate(73.388672 0)"/>
     <use xlink:href="#DejaVuSans-Bold-41" transform="translate(137.109375 0)"/>
     <use xlink:href="#DejaVuSans-Bold-53" transform="translate(214.501953 0)"/>
     <use xlink:href="#DejaVuSans-Bold-53" transform="translate(282.023438 0)"/>
     <use xlink:href="#DejaVuSans-Bold-49" transform="translate(354.044922 0)"/>
     <use xlink:href="#DejaVuSans-Bold-46" transform="translate(391.251953 0)"/>
     <use xlink:href="#DejaVuSans-Bold-49" transform="translate(459.5625 0)"/>
     <use xlink:href="#DejaVuSans-Bold-2d" transform="translate(496.769531 0)"/>
    </g>
    <!-- CATION -->
    <g style="fill: #666666" transform="translate(14.141016 227.668853) scale(0.075 -0.075)">
     <use xlink:href="#DejaVuSans-Bold-43"/>
     <use xlink:href="#DejaVuSans-Bold-41" transform="translate(73.388672 0)"/>
     <use xlink:href="#DejaVuSans-Bold-54" transform="translate(143.03125 0)"/>
     <use xlink:href="#DejaVuSans-Bold-49" transform="translate(211.244141 0)"/>
     <use xlink:href="#DejaVuSans-Bold-4f" transform="translate(248.451172 0)"/>
     <use xlink:href="#DejaVuSans-Bold-4e" transform="translate(333.460938 0)"/>
    </g>
   </g>
   <g id="patch_5">
    <path d="M 61.249005 47.344328
Q 317.042744 47.344328 571.494843 47.344328
" style="fill: none; stroke: #444444; stroke-width: 1.2; stroke-linecap: round"/>
    <path d="M 567.494843 45.344328
L 571.494843 47.344328
L 567.494843 49.344328
z
" style="fill: #444444; stroke: #444444; stroke-width: 1.2; stroke-linecap: round"/>
   </g>
   <g id="text_4">
    <!-- Diagnosis -->
    <g style="fill: #444444" transform="translate(44.71405 25.493055) scale(0.08 -0.08)">
     <defs>
      <path id="DejaVuSans-44" d="M 1259 4147
L 1259 519
L 2022 519
Q 2988 519 3436 956
Q 3884 1394 3884 2338
Q 3884 3275 3436 3711
Q 2988 4147 2022 4147
L 1259 4147
z
M 628 4666
L 1925 4666
Q 3281 4666 3915 4102
Q 4550 3538 4550 2338
Q 4550 1131 3912 565
Q 3275 0 1925 0
L 628 0
L 628 4666
z
" transform="scale(0.015625)"/>
      <path id="DejaVuSans-69" d="M 603 3500
L 1178 3500
L 1178 0
L 603 0
L 603 3500
z
M 603 4863
L 1178 4863
L 1178 4134
L 603 4134
L 603 4863
z
" transform="scale(0.015625)"/>
      <path id="DejaVuSans-61" d="M 2194 1759
Q 1497 1759 1228 1600
Q 959 1441 959 1056
Q 959 750 1161 570
Q 1363 391 1709 391
Q 2188 391 2477 730
Q 2766 1069 2766 1631
L 2766 1759
L 2194 1759
z
M 3341 1997
L 3341 0
L 2766 0
L 2766 531
Q 2569 213 2275 61
Q 1981 -91 1556 -91
Q 1019 -91 701 211
Q 384 513 384 1019
Q 384 1609 779 1909
Q 1175 2209 1959 2209
L 2766 2209
L 2766 2266
Q 2766 2663 2505 2880
Q 2244 3097 1772 3097
Q 1472 3097 1187 3025
Q 903 2953 641 2809
L 641 3341
Q 956 3463 1253 3523
Q 1550 3584 1831 3584
Q 2591 3584 2966 3190
Q 3341 2797 3341 1997
z
" transform="scale(0.015625)"/>
      <path id="DejaVuSans-67" d="M 2906 1791
Q 2906 2416 2648 2759
Q 2391 3103 1925 3103
Q 1463 3103 1205 2759
Q 947 2416 947 1791
Q 947 1169 1205 825
Q 1463 481 1925 481
Q 2391 481 2648 825
Q 2906 1169 2906 1791
z
M 3481 434
Q 3481 -459 3084 -895
Q 2688 -1331 1869 -1331
Q 1566 -1331 1297 -1286
Q 1028 -1241 775 -1147
L 775 -588
Q 1028 -725 1275 -790
Q 1522 -856 1778 -856
Q 2344 -856 2625 -561
Q 2906 -266 2906 331
L 2906 616
Q 2728 306 2450 153
Q 2172 0 1784 0
Q 1141 0 747 490
Q 353 981 353 1791
Q 353 2603 747 3093
Q 1141 3584 1784 3584
Q 2172 3584 2450 3431
Q 2728 3278 2906 2969
L 2906 3500
L 3481 3500
L 3481 434
z
" transform="scale(0.015625)"/>
      <path id="DejaVuSans-6e" d="M 3513 2113
L 3513 0
L 2938 0
L 2938 2094
Q 2938 2591 2744 2837
Q 2550 3084 2163 3084
Q 1697 3084 1428 2787
Q 1159 2491 1159 1978
L 1159 0
L 581 0
L 581 3500
L 1159 3500
L 1159 2956
Q 1366 3272 1645 3428
Q 1925 3584 2291 3584
Q 2894 3584 3203 3211
Q 3513 2838 3513 2113
z
" transform="scale(0.015625)"/>
      <path id="DejaVuSans-6f" d="M 1959 3097
Q 1497 3097 1228 2736
Q 959 2375 959 1747
Q 959 1119 1226 758
Q 1494 397 1959 397
Q 2419 397 2687 759
Q 2956 1122 2956 1747
Q 2956 2369 2687 2733
Q 2419 3097 1959 3097
z
M 1959 3584
Q 2709 3584 3137 3096
Q 3566 2609 3566 1747
Q 3566 888 3137 398
Q 2709 -91 1959 -91
Q 1206 -91 779 398
Q 353 888 353 1747
Q 353 2609 779 3096
Q 1206 3584 1959 3584
z
" transform="scale(0.015625)"/>
      <path id="DejaVuSans-73" d="M 2834 3397
L 2834 2853
Q 2591 2978 2328 3040
Q 2066 3103 1784 3103
Q 1356 3103 1142 2972
Q 928 2841 928 2578
Q 928 2378 1081 2264
Q 1234 2150 1697 2047
L 1894 2003
Q 2506 1872 2764 1633
Q 3022 1394 3022 966
Q 3022 478 2636 193
Q 2250 -91 1575 -91
Q 1294 -91 989 -36
Q 684 19 347 128
L 347 722
Q 666 556 975 473
Q 1284 391 1588 391
Q 1994 391 2212 530
Q 2431 669 2431 922
Q 2431 1156 2273 1281
Q 2116 1406 1581 1522
L 1381 1569
Q 847 1681 609 1914
Q 372 2147 372 2553
Q 372 3047 722 3315
Q 1072 3584 1716 3584
Q 2034 3584 2315 3537
Q 2597 3491 2834 3397
z
" transform="scale(0.015625)"/>
     </defs>
     <use xlink:href="#DejaVuSans-44"/>
     <use xlink:href="#DejaVuSans-69" transform="translate(77.001953 0)"/>
     <use xlink:href="#DejaVuSans-61" transform="translate(104.785156 0)"/>
     <use xlink:href="#DejaVuSans-67" transform="translate(166.064453 0)"/>
     <use xlink:href="#DejaVuSans-6e" transform="translate(229.541016 0)"/>
     <use xlink:href="#DejaVuSans-6f" transform="translate(292.919922 0)"/>
     <use xlink:href="#DejaVuSans-73" transform="translate(354.101562 0)"/>
     <use xlink:href="#DejaVuSans-69" transform="translate(406.201172 0)"/>
     <use xlink:href="#DejaVuSans-73" transform="translate(433.984375 0)"/>
    </g>
    <!-- index -->
    <g style="fill: #444444" transform="translate(53.2128 34.451305) scale(0.08 -0.08)">
     <defs>
      <path id="DejaVuSans-64" d="M 2906 2969
L 2906 4863
L 3481 4863
L 3481 0
L 2906 0
L 2906 525
Q 2725 213 2448 61
Q 2172 -91 1784 -91
Q 1150 -91 751 415
Q 353 922 353 1747
Q 353 2572 751 3078
Q 1150 3584 1784 3584
Q 2172 3584 2448 3432
Q 2725 3281 2906 2969
z
M 947 1747
Q 947 1113 1208 752
Q 1469 391 1925 391
Q 2381 391 2643 752
Q 2906 1113 2906 1747
Q 2906 2381 2643 2742
Q 2381 3103 1925 3103
Q 1469 3103 1208 2742
Q 947 2381 947 1747
z
" transform="scale(0.015625)"/>
      <path id="DejaVuSans-65" d="M 3597 1894
L 3597 1613
L 953 1613
Q 991 1019 1311 708
Q 1631 397 2203 397
Q 2534 397 2845 478
Q 3156 559 3463 722
L 3463 178
Q 3153 47 2828 -22
Q 2503 -91 2169 -91
Q 1331 -91 842 396
Q 353 884 353 1716
Q 353 2575 817 3079
Q 1281 3584 2069 3584
Q 2775 3584 3186 3129
Q 3597 2675 3597 1894
z
M 3022 2063
Q 3016 2534 2758 2815
Q 2500 3097 2075 3097
Q 1594 3097 1305 2825
Q 1016 2553 972 2059
L 3022 2063
z
" transform="scale(0.015625)"/>
      <path id="DejaVuSans-78" d="M 3513 3500
L 2247 1797
L 3578 0
L 2900 0
L 1881 1375
L 863 0
L 184 0
L 1544 1831
L 300 3500
L 978 3500
L 1906 2253
L 2834 3500
L 3513 3500
z
" transform="scale(0.015625)"/>
     </defs>
     <use xlink:href="#DejaVuSans-69"/>
     <use xlink:href="#DejaVuSans-6e" transform="translate(27.783203 0)"/>
     <use xlink:href="#DejaVuSans-64" transform="translate(91.162109 0)"/>
     <use xlink:href="#DejaVuSans-65" transform="translate(154.638672 0)"/>
     <use xlink:href="#DejaVuSans-78" transform="translate(214.412109 0)"/>
    </g>
   </g>
   <g id="text_5">
    <!-- Follow-up -->
    <g style="fill: #444444" transform="translate(536.1353 25.493055) scale(0.08 -0.08)">
     <defs>
      <path id="DejaVuSans-46" d="M 628 4666
L 3309 4666
L 3309 4134
L 1259 4134
L 1259 2759
L 3109 2759
L 3109 2228
L 1259 2228
L 1259 0
L 628 0
L 628 4666
z
" transform="scale(0.015625)"/>
      <path id="DejaVuSans-6c" d="M 603 4863
L 1178 4863
L 1178 0
L 603 0
L 603 4863
z
" transform="scale(0.015625)"/>
      <path id="DejaVuSans-77" d="M 269 3500
L 844 3500
L 1563 769
L 2278 3500
L 2956 3500
L 3675 769
L 4391 3500
L 4966 3500
L 4050 0
L 3372 0
L 2619 2869
L 1863 0
L 1184 0
L 269 3500
z
" transform="scale(0.015625)"/>
      <path id="DejaVuSans-2d" d="M 313 2009
L 1997 2009
L 1997 1497
L 313 1497
L 313 2009
z
" transform="scale(0.015625)"/>
      <path id="DejaVuSans-75" d="M 544 1381
L 544 3500
L 1119 3500
L 1119 1403
Q 1119 906 1312 657
Q 1506 409 1894 409
Q 2359 409 2629 706
Q 2900 1003 2900 1516
L 2900 3500
L 3475 3500
L 3475 0
L 2900 0
L 2900 538
Q 2691 219 2414 64
Q 2138 -91 1772 -91
Q 1169 -91 856 284
Q 544 659 544 1381
z
M 1991 3584
L 1991 3584
z
" transform="scale(0.015625)"/>
      <path id="DejaVuSans-70" d="M 1159 525
L 1159 -1331
L 581 -1331
L 581 3500
L 1159 3500
L 1159 2969
Q 1341 3281 1617 3432
Q 1894 3584 2278 3584
Q 2916 3584 3314 3078
Q 3713 2572 3713 1747
Q 3713 922 3314 415
Q 2916 -91 2278 -91
Q 1894 -91 1617 61
Q 1341 213 1159 525
z
M 3116 1747
Q 3116 2381 2855 2742
Q 2594 3103 2138 3103
Q 1681 3103 1420 2742
Q 1159 2381 1159 1747
Q 1159 1113 1420 752
Q 1681 391 2138 391
Q 2594 391 2855 752
Q 3116 1113 3116 1747
z
" transform="scale(0.015625)"/>
     </defs>
     <use xlink:href="#DejaVuSans-46"/>
     <use xlink:href="#DejaVuSans-6f" transform="translate(53.894531 0)"/>
     <use xlink:href="#DejaVuSans-6c" transform="translate(115.076172 0)"/>
     <use xlink:href="#DejaVuSans-6c" transform="translate(142.859375 0)"/>
     <use xlink:href="#DejaVuSans-6f" transform="translate(170.642578 0)"/>
     <use xlink:href="#DejaVuSans-77" transform="translate(231.824219 0)"/>
     <use xlink:href="#DejaVuSans-2d" transform="translate(313.611328 0)"/>
     <use xlink:href="#DejaVuSans-75" transform="translate(349.695312 0)"/>
     <use xlink:href="#DejaVuSans-70" transform="translate(413.074219 0)"/>
    </g>
    <!-- end -->
    <g style="fill: #444444" transform="translate(547.66155 34.451305) scale(0.08 -0.08)">
     <use xlink:href="#DejaVuSans-65"/>
     <use xlink:href="#DejaVuSans-6e" transform="translate(61.523438 0)"/>
     <use xlink:href="#DejaVuSans-64" transform="translate(124.902344 0)"/>
    </g>
   </g>
   <g id="text_6">
    <!-- Paid Nexora -->
    <g style="fill: #7ba6d0" transform="translate(255.698848 82.800142) scale(0.065 -0.065)">
     <defs>
      <path id="DejaVuSans-50" d="M 1259 4147
L 1259 2394
L 2053 2394
Q 2494 2394 2734 2622
Q 2975 2850 2975 3272
Q 2975 3691 2734 3919
Q 2494 4147 2053 4147
L 1259 4147
z
M 628 4666
L 2053 4666
Q 2838 4666 3239 4311
Q 3641 3956 3641 3272
Q 3641 2581 3239 2228
Q 2838 1875 2053 1875
L 1259 1875
L 1259 0
L 628 0
L 628 4666
z
" transform="scale(0.015625)"/>
      <path id="DejaVuSans-20" transform="scale(0.015625)"/>
      <path id="DejaVuSans-4e" d="M 628 4666
L 1478 4666
L 3547 763
L 3547 4666
L 4159 4666
L 4159 0
L 3309 0
L 1241 3903
L 1241 0
L 628 0
L 628 4666
z
" transform="scale(0.015625)"/>
      <path id="DejaVuSans-72" d="M 2631 2963
Q 2534 3019 2420 3045
Q 2306 3072 2169 3072
Q 1681 3072 1420 2755
Q 1159 2438 1159 1844
L 1159 0
L 581 0
L 581 3500
L 1159 3500
L 1159 2956
Q 1341 3275 1631 3429
Q 1922 3584 2338 3584
Q 2397 3584 2469 3576
Q 2541 3569 2628 3553
L 2631 2963
z
" transform="scale(0.015625)"/>
     </defs>
     <use xlink:href="#DejaVuSans-50"/>
     <use xlink:href="#DejaVuSans-61" transform="translate(55.802734 0)"/>
     <use xlink:href="#DejaVuSans-69" transform="translate(117.082031 0)"/>
     <use xlink:href="#DejaVuSans-64" transform="translate(144.865234 0)"/>
     <use xlink:href="#DejaVuSans-20" transform="translate(208.341797 0)"/>
     <use xlink:href="#DejaVuSans-4e" transform="translate(240.128906 0)"/>
     <use xlink:href="#DejaVuSans-65" transform="translate(314.933594 0)"/>
     <use xlink:href="#DejaVuSans-78" transform="translate(374.707031 0)"/>
     <use xlink:href="#DejaVuSans-6f" transform="translate(430.761719 0)"/>
     <use xlink:href="#DejaVuSans-72" transform="translate(491.943359 0)"/>
     <use xlink:href="#DejaVuSans-61" transform="translate(533.056641 0)"/>
    </g>
   </g>
   <g id="text_7">
    <!-- Pended Rx -->
    <g style="fill: #d97b6c" transform="translate(302.662464 118.255956) scale(0.07 -0.07)">
     <defs>
      <path id="DejaVuSans-52" d="M 2841 2188
Q 3044 2119 3236 1894
Q 3428 1669 3622 1275
L 4263 0
L 3584 0
L 2988 1197
Q 2756 1666 2539 1819
Q 2322 1972 1947 1972
L 1259 1972
L 1259 0
L 628 0
L 628 4666
L 2053 4666
Q 2853 4666 3247 4331
Q 3641 3997 3641 3322
Q 3641 2881 3436 2590
Q 3231 2300 2841 2188
z
M 1259 4147
L 1259 2491
L 2053 2491
Q 2509 2491 2742 2702
Q 2975 2913 2975 3322
Q 2975 3731 2742 3939
Q 2509 4147 2053 4147
L 1259 4147
z
" transform="scale(0.015625)"/>
     </defs>
     <use xlink:href="#DejaVuSans-50"/>
     <use xlink:href="#DejaVuSans-65" transform="translate(56.677734 0)"/>
     <use xlink:href="#DejaVuSans-6e" transform="translate(118.201172 0)"/>
     <use xlink:href="#DejaVuSans-64" transform="translate(181.580078 0)"/>
     <use xlink:href="#DejaVuSans-65" transform="translate(245.056641 0)"/>
     <use xlink:href="#DejaVuSans-64" transform="translate(306.580078 0)"/>
     <use xlink:href="#DejaVuSans-20" transform="translate(370.056641 0)"/>
     <use xlink:href="#DejaVuSans-52" transform="translate(401.84375 0)"/>
     <use xlink:href="#DejaVuSans-78" transform="translate(471.326172 0)"/>
    </g>
   </g>
   <g id="text_8">
    <!-- Paid Vexpro -->
    <g style="fill: #7ba6d0" transform="translate(305.162887 82.800142) scale(0.065 -0.065)">
     <defs>
      <path id="DejaVuSans-56" d="M 1831 0
L 50 4666
L 709 4666
L 2188 738
L 3669 4666
L 4325 4666
L 2547 0
L 1831 0
z
" transform="scale(0.015625)"/>
     </defs>
     <use xlink:href="#DejaVuSans-50"/>
     <use xlink:href="#DejaVuSans-61" transform="translate(55.802734 0)"/>
     <use xlink:href="#DejaVuSans-69" transform="translate(117.082031 0)"/>
     <use xlink:href="#DejaVuSans-64" transform="translate(144.865234 0)"/>
     <use xlink:href="#DejaVuSans-20" transform="translate(208.341797 0)"/>
     <use xlink:href="#DejaVuSans-56" transform="translate(240.128906 0)"/>
     <use xlink:href="#DejaVuSans-65" transform="translate(300.787109 0)"/>
     <use xlink:href="#DejaVuSans-78" transform="translate(360.560547 0)"/>
     <use xlink:href="#DejaVuSans-70" transform="translate(419.740234 0)"/>
     <use xlink:href="#DejaVuSans-72" transform="translate(483.216797 0)"/>
     <use xlink:href="#DejaVuSans-6f" transform="translate(522.080078 0)"/>
    </g>
   </g>
   <g id="text_9">
    <!-- Paid Vexpro -->
    <g style="fill: #7ba6d0" transform="translate(345.601476 82.800142) scale(0.065 -0.065)">
     <use xlink:href="#DejaVuSans-50"/>
     <use xlink:href="#DejaVuSans-61" transform="translate(55.802734 0)"/>
     <use xlink:href="#DejaVuSans-69" transform="translate(117.082031 0)"/>
     <use xlink:href="#DejaVuSans-64" transform="translate(144.865234 0)"/>
     <use xlink:href="#DejaVuSans-20" transform="translate(208.341797 0)"/>
     <use xlink:href="#DejaVuSans-56" transform="translate(240.128906 0)"/>
     <use xlink:href="#DejaVuSans-65" transform="translate(300.787109 0)"/>
     <use xlink:href="#DejaVuSans-78" transform="translate(360.560547 0)"/>
     <use xlink:href="#DejaVuSans-70" transform="translate(419.740234 0)"/>
     <use xlink:href="#DejaVuSans-72" transform="translate(483.216797 0)"/>
     <use xlink:href="#DejaVuSans-6f" transform="translate(522.080078 0)"/>
    </g>
   </g>
   <g id="text_10">
    <!-- Observed records in source tables -->
    <g style="fill: #555555" transform="translate(241.09405 64.749909) scale(0.08 -0.08)">
     <defs>
      <path id="DejaVuSans-Oblique-4f" d="M 2919 4238
Q 2400 4238 2003 3986
Q 1606 3734 1313 3219
Q 1125 2891 1026 2522
Q 928 2153 928 1778
Q 928 1128 1239 775
Q 1550 422 2119 422
Q 2631 422 3032 676
Q 3434 931 3719 1434
Q 3909 1772 4009 2142
Q 4109 2513 4109 2881
Q 4109 3528 3796 3883
Q 3484 4238 2919 4238
z
M 2100 -91
Q 1241 -91 748 418
Q 256 928 256 1813
Q 256 2319 448 2847
Q 641 3375 978 3788
Q 1375 4272 1862 4511
Q 2350 4750 2938 4750
Q 3794 4750 4287 4245
Q 4781 3741 4781 2869
Q 4781 2331 4593 1812
Q 4406 1294 4056 872
Q 3656 384 3173 146
Q 2691 -91 2100 -91
z
" transform="scale(0.015625)"/>
      <path id="DejaVuSans-Oblique-62" d="M 3169 2138
Q 3169 2591 2961 2847
Q 2753 3103 2388 3103
Q 2122 3103 1889 2973
Q 1656 2844 1484 2597
Q 1303 2338 1198 1995
Q 1094 1653 1094 1313
Q 1094 881 1298 636
Q 1503 391 1863 391
Q 2134 391 2365 517
Q 2597 644 2772 891
Q 2950 1147 3059 1487
Q 3169 1828 3169 2138
z
M 1381 2969
Q 1594 3256 1914 3420
Q 2234 3584 2584 3584
Q 3122 3584 3439 3221
Q 3756 2859 3756 2241
Q 3756 1734 3570 1259
Q 3384 784 3041 416
Q 2816 172 2522 40
Q 2228 -91 1906 -91
Q 1566 -91 1316 65
Q 1066 222 909 531
L 806 0
L 231 0
L 1178 4863
L 1753 4863
L 1381 2969
z
" transform="scale(0.015625)"/>
      <path id="DejaVuSans-Oblique-73" d="M 3200 3397
L 3091 2853
Q 2863 2978 2609 3040
Q 2356 3103 2088 3103
Q 1634 3103 1373 2948
Q 1113 2794 1113 2528
Q 1113 2219 1719 2053
Q 1766 2041 1788 2034
L 1972 1978
Q 2547 1819 2739 1644
Q 2931 1469 2931 1166
Q 2931 609 2489 259
Q 2047 -91 1331 -91
Q 1053 -91 747 -37
Q 441 16 72 128
L 184 722
Q 500 559 806 475
Q 1113 391 1394 391
Q 1816 391 2080 572
Q 2344 753 2344 1031
Q 2344 1331 1650 1516
L 1591 1531
L 1394 1581
Q 956 1697 753 1886
Q 550 2075 550 2369
Q 550 2928 970 3256
Q 1391 3584 2113 3584
Q 2397 3584 2667 3537
Q 2938 3491 3200 3397
z
" transform="scale(0.015625)"/>
      <path id="DejaVuSans-Oblique-65" d="M 3078 2063
Q 3088 2113 3092 2166
Q 3097 2219 3097 2272
Q 3097 2653 2873 2875
Q 2650 3097 2266 3097
Q 1838 3097 1509 2826
Q 1181 2556 1013 2059
L 3078 2063
z
M 3578 1613
L 903 1613
Q 884 1494 878 1425
Q 872 1356 872 1306
Q 872 872 1139 634
Q 1406 397 1894 397
Q 2269 397 2603 481
Q 2938 566 3225 728
L 3116 159
Q 2806 34 2476 -28
Q 2147 -91 1806 -91
Q 1078 -91 686 257
Q 294 606 294 1247
Q 294 1794 489 2264
Q 684 2734 1063 3103
Q 1306 3334 1642 3459
Q 1978 3584 2356 3584
Q 2950 3584 3301 3228
Q 3653 2872 3653 2272
Q 3653 2128 3634 1964
Q 3616 1800 3578 1613
z
" transform="scale(0.015625)"/>
      <path id="DejaVuSans-Oblique-72" d="M 2853 2969
Q 2766 3016 2653 3041
Q 2541 3066 2413 3066
Q 1953 3066 1609 2717
Q 1266 2369 1153 1784
L 800 0
L 225 0
L 909 3500
L 1484 3500
L 1375 2956
Q 1603 3259 1920 3421
Q 2238 3584 2597 3584
Q 2691 3584 2781 3573
Q 2872 3563 2963 3538
L 2853 2969
z
" transform="scale(0.015625)"/>
      <path id="DejaVuSans-Oblique-76" d="M 459 3500
L 1069 3500
L 1581 525
L 3256 3500
L 3866 3500
L 1875 0
L 1100 0
L 459 3500
z
" transform="scale(0.015625)"/>
      <path id="DejaVuSans-Oblique-64" d="M 2675 525
Q 2444 222 2128 65
Q 1813 -91 1428 -91
Q 903 -91 598 267
Q 294 625 294 1247
Q 294 1766 478 2236
Q 663 2706 1013 3078
Q 1244 3325 1534 3454
Q 1825 3584 2144 3584
Q 2481 3584 2739 3421
Q 2997 3259 3138 2956
L 3513 4863
L 4091 4863
L 3144 0
L 2566 0
L 2675 525
z
M 891 1350
Q 891 897 1095 644
Q 1300 391 1663 391
Q 1931 391 2161 520
Q 2391 650 2566 903
Q 2750 1166 2856 1509
Q 2963 1853 2963 2188
Q 2963 2622 2758 2865
Q 2553 3109 2194 3109
Q 1922 3109 1687 2981
Q 1453 2853 1288 2613
Q 1106 2353 998 2009
Q 891 1666 891 1350
z
" transform="scale(0.015625)"/>
      <path id="DejaVuSans-Oblique-20" transform="scale(0.015625)"/>
      <path id="DejaVuSans-Oblique-63" d="M 3431 3366
L 3316 2797
Q 3109 2947 2876 3022
Q 2644 3097 2394 3097
Q 2119 3097 1870 3000
Q 1622 2903 1453 2725
Q 1184 2453 1037 2087
Q 891 1722 891 1331
Q 891 859 1127 628
Q 1363 397 1844 397
Q 2081 397 2348 469
Q 2616 541 2906 684
L 2797 116
Q 2547 13 2283 -39
Q 2019 -91 1741 -91
Q 1044 -91 669 257
Q 294 606 294 1253
Q 294 1797 489 2255
Q 684 2713 1069 3078
Q 1331 3328 1684 3456
Q 2038 3584 2456 3584
Q 2700 3584 2940 3529
Q 3181 3475 3431 3366
z
" transform="scale(0.015625)"/>
      <path id="DejaVuSans-Oblique-6f" d="M 1625 -91
Q 1009 -91 651 289
Q 294 669 294 1325
Q 294 1706 417 2101
Q 541 2497 738 2766
Q 1047 3184 1428 3384
Q 1809 3584 2291 3584
Q 2888 3584 3255 3212
Q 3622 2841 3622 2241
Q 3622 1825 3500 1412
Q 3378 1000 3181 728
Q 2875 309 2494 109
Q 2113 -91 1625 -91
z
M 891 1344
Q 891 869 1089 633
Q 1288 397 1691 397
Q 2269 397 2648 901
Q 3028 1406 3028 2181
Q 3028 2634 2825 2865
Q 2622 3097 2228 3097
Q 1903 3097 1650 2945
Q 1397 2794 1197 2484
Q 1050 2253 970 1956
Q 891 1659 891 1344
z
" transform="scale(0.015625)"/>
      <path id="DejaVuSans-Oblique-69" d="M 1172 4863
L 1747 4863
L 1606 4134
L 1031 4134
L 1172 4863
z
M 909 3500
L 1484 3500
L 800 0
L 225 0
L 909 3500
z
" transform="scale(0.015625)"/>
      <path id="DejaVuSans-Oblique-6e" d="M 3566 2113
L 3156 0
L 2578 0
L 2988 2091
Q 3016 2238 3031 2350
Q 3047 2463 3047 2528
Q 3047 2791 2881 2937
Q 2716 3084 2419 3084
Q 1956 3084 1622 2776
Q 1288 2469 1184 1941
L 800 0
L 225 0
L 903 3500
L 1478 3500
L 1363 2950
Q 1603 3253 1940 3418
Q 2278 3584 2650 3584
Q 3113 3584 3367 3334
Q 3622 3084 3622 2631
Q 3622 2519 3608 2391
Q 3594 2263 3566 2113
z
" transform="scale(0.015625)"/>
      <path id="DejaVuSans-Oblique-75" d="M 428 1388
L 838 3500
L 1416 3500
L 1006 1409
Q 975 1256 961 1147
Q 947 1038 947 966
Q 947 700 1109 554
Q 1272 409 1569 409
Q 2031 409 2368 721
Q 2706 1034 2809 1563
L 3194 3500
L 3769 3500
L 3091 0
L 2516 0
L 2631 550
Q 2388 244 2052 76
Q 1716 -91 1338 -91
Q 878 -91 622 161
Q 366 413 366 863
Q 366 956 381 1097
Q 397 1238 428 1388
z
" transform="scale(0.015625)"/>
      <path id="DejaVuSans-Oblique-74" d="M 2706 3500
L 2619 3053
L 1472 3053
L 1100 1153
Q 1081 1047 1072 975
Q 1063 903 1063 863
Q 1063 663 1183 572
Q 1303 481 1569 481
L 2150 481
L 2053 0
L 1503 0
Q 991 0 739 200
Q 488 400 488 806
Q 488 878 497 964
Q 506 1050 525 1153
L 897 3053
L 409 3053
L 500 3500
L 978 3500
L 1172 4494
L 1747 4494
L 1556 3500
L 2706 3500
z
" transform="scale(0.015625)"/>
      <path id="DejaVuSans-Oblique-61" d="M 3438 1997
L 3047 0
L 2472 0
L 2578 531
Q 2325 219 2001 64
Q 1678 -91 1281 -91
Q 834 -91 548 182
Q 263 456 263 884
Q 263 1497 752 1853
Q 1241 2209 2100 2209
L 2900 2209
L 2931 2363
Q 2938 2388 2941 2417
Q 2944 2447 2944 2509
Q 2944 2788 2717 2942
Q 2491 3097 2081 3097
Q 1800 3097 1504 3025
Q 1209 2953 897 2809
L 997 3341
Q 1322 3463 1633 3523
Q 1944 3584 2234 3584
Q 2853 3584 3176 3315
Q 3500 3047 3500 2534
Q 3500 2431 3484 2292
Q 3469 2153 3438 1997
z
M 2816 1759
L 2241 1759
Q 1534 1759 1195 1570
Q 856 1381 856 984
Q 856 709 1029 553
Q 1203 397 1509 397
Q 1978 397 2328 733
Q 2678 1069 2791 1631
L 2816 1759
z
" transform="scale(0.015625)"/>
      <path id="DejaVuSans-Oblique-6c" d="M 1172 4863
L 1747 4863
L 800 0
L 225 0
L 1172 4863
z
" transform="scale(0.015625)"/>
     </defs>
     <use xlink:href="#DejaVuSans-Oblique-4f"/>
     <use xlink:href="#DejaVuSans-Oblique-62" transform="translate(78.710938 0)"/>
     <use xlink:href="#DejaVuSans-Oblique-73" transform="translate(142.1875 0)"/>
     <use xlink:href="#DejaVuSans-Oblique-65" transform="translate(194.287109 0)"/>
     <use xlink:href="#DejaVuSans-Oblique-72" transform="translate(255.810547 0)"/>
     <use xlink:href="#DejaVuSans-Oblique-76" transform="translate(296.923828 0)"/>
     <use xlink:href="#DejaVuSans-Oblique-65" transform="translate(356.103516 0)"/>
     <use xlink:href="#DejaVuSans-Oblique-64" transform="translate(417.626953 0)"/>
     <use xlink:href="#DejaVuSans-Oblique-20" transform="translate(481.103516 0)"/>
     <use xlink:href="#DejaVuSans-Oblique-72" transform="translate(512.890625 0)"/>
     <use xlink:href="#DejaVuSans-Oblique-65" transform="translate(554.003906 0)"/>
     <use xlink:href="#DejaVuSans-Oblique-63" transform="translate(615.527344 0)"/>
     <use xlink:href="#DejaVuSans-Oblique-6f" transform="translate(670.507812 0)"/>
     <use xlink:href="#DejaVuSans-Oblique-72" transform="translate(731.689453 0)"/>
     <use xlink:href="#DejaVuSans-Oblique-64" transform="translate(772.802734 0)"/>
     <use xlink:href="#DejaVuSans-Oblique-73" transform="translate(836.279297 0)"/>
     <use xlink:href="#DejaVuSans-Oblique-20" transform="translate(888.378906 0)"/>
     <use xlink:href="#DejaVuSans-Oblique-69" transform="translate(920.166016 0)"/>
     <use xlink:href="#DejaVuSans-Oblique-6e" transform="translate(947.949219 0)"/>
     <use xlink:href="#DejaVuSans-Oblique-20" transform="translate(1011.328125 0)"/>
     <use xlink:href="#DejaVuSans-Oblique-73" transform="translate(1043.115234 0)"/>
     <use xlink:href="#DejaVuSans-Oblique-6f" transform="translate(1095.214844 0)"/>
     <use xlink:href="#DejaVuSans-Oblique-75" transform="translate(1156.396484 0)"/>
     <use xlink:href="#DejaVuSans-Oblique-72" transform="translate(1219.775391 0)"/>
     <use xlink:href="#DejaVuSans-Oblique-63" transform="translate(1260.888672 0)"/>
     <use xlink:href="#DejaVuSans-Oblique-65" transform="translate(1315.869141 0)"/>
     <use xlink:href="#DejaVuSans-Oblique-20" transform="translate(1377.392578 0)"/>
     <use xlink:href="#DejaVuSans-Oblique-74" transform="translate(1409.179688 0)"/>
     <use xlink:href="#DejaVuSans-Oblique-61" transform="translate(1448.388672 0)"/>
     <use xlink:href="#DejaVuSans-Oblique-62" transform="translate(1509.667969 0)"/>
     <use xlink:href="#DejaVuSans-Oblique-6c" transform="translate(1573.144531 0)"/>
     <use xlink:href="#DejaVuSans-Oblique-65" transform="translate(1600.927734 0)"/>
     <use xlink:href="#DejaVuSans-Oblique-73" transform="translate(1662.451172 0)"/>
    </g>
   </g>
   <g id="patch_6">
    <path d="M 275.015528 165.960142
L 316.898351 165.960142
L 316.898351 147.909909
L 275.015528 147.909909
z
" clip-path="url(#p55ed43c5f0)" style="fill: #7ba6d0; stroke: #444444; stroke-width: 0.8; stroke-linejoin: miter"/>
   </g>
   <g id="text_11">
    <!-- Nexoral -->
    <g style="fill: #ffffff" transform="translate(276.34608 159.418463) scale(0.09 -0.09)">
     <defs>
      <path id="DejaVuSans-Bold-65" d="M 4031 1759
L 4031 1441
L 1416 1441
Q 1456 1047 1700 850
Q 1944 653 2381 653
Q 2734 653 3104 758
Q 3475 863 3866 1075
L 3866 213
Q 3469 63 3072 -14
Q 2675 -91 2278 -91
Q 1328 -91 801 392
Q 275 875 275 1747
Q 275 2603 792 3093
Q 1309 3584 2216 3584
Q 3041 3584 3536 3087
Q 4031 2591 4031 1759
z
M 2881 2131
Q 2881 2450 2695 2645
Q 2509 2841 2209 2841
Q 1884 2841 1681 2658
Q 1478 2475 1428 2131
L 2881 2131
z
" transform="scale(0.015625)"/>
      <path id="DejaVuSans-Bold-78" d="M 1422 1791
L 159 3500
L 1344 3500
L 2059 2463
L 2784 3500
L 3969 3500
L 2706 1797
L 4031 0
L 2847 0
L 2059 1106
L 1281 0
L 97 0
L 1422 1791
z
" transform="scale(0.015625)"/>
      <path id="DejaVuSans-Bold-6f" d="M 2203 2784
Q 1831 2784 1636 2517
Q 1441 2250 1441 1747
Q 1441 1244 1636 976
Q 1831 709 2203 709
Q 2569 709 2762 976
Q 2956 1244 2956 1747
Q 2956 2250 2762 2517
Q 2569 2784 2203 2784
z
M 2203 3584
Q 3106 3584 3614 3096
Q 4122 2609 4122 1747
Q 4122 884 3614 396
Q 3106 -91 2203 -91
Q 1297 -91 786 396
Q 275 884 275 1747
Q 275 2609 786 3096
Q 1297 3584 2203 3584
z
" transform="scale(0.015625)"/>
      <path id="DejaVuSans-Bold-72" d="M 3138 2547
Q 2991 2616 2845 2648
Q 2700 2681 2553 2681
Q 2122 2681 1889 2404
Q 1656 2128 1656 1613
L 1656 0
L 538 0
L 538 3500
L 1656 3500
L 1656 2925
Q 1872 3269 2151 3426
Q 2431 3584 2822 3584
Q 2878 3584 2943 3579
Q 3009 3575 3134 3559
L 3138 2547
z
" transform="scale(0.015625)"/>
      <path id="DejaVuSans-Bold-61" d="M 2106 1575
Q 1756 1575 1579 1456
Q 1403 1338 1403 1106
Q 1403 894 1545 773
Q 1688 653 1941 653
Q 2256 653 2472 879
Q 2688 1106 2688 1447
L 2688 1575
L 2106 1575
z
M 3816 1997
L 3816 0
L 2688 0
L 2688 519
Q 2463 200 2181 54
Q 1900 -91 1497 -91
Q 953 -91 614 226
Q 275 544 275 1050
Q 275 1666 698 1953
Q 1122 2241 2028 2241
L 2688 2241
L 2688 2328
Q 2688 2594 2478 2717
Q 2269 2841 1825 2841
Q 1466 2841 1156 2769
Q 847 2697 581 2553
L 581 3406
Q 941 3494 1303 3539
Q 1666 3584 2028 3584
Q 2975 3584 3395 3211
Q 3816 2838 3816 1997
z
" transform="scale(0.015625)"/>
      <path id="DejaVuSans-Bold-6c" d="M 538 4863
L 1656 4863
L 1656 0
L 538 0
L 538 4863
z
" transform="scale(0.015625)"/>
     </defs>
     <use xlink:href="#DejaVuSans-Bold-4e"/>
     <use xlink:href="#DejaVuSans-Bold-65" transform="translate(83.691406 0)"/>
     <use xlink:href="#DejaVuSans-Bold-78" transform="translate(151.513672 0)"/>
     <use xlink:href="#DejaVuSans-Bold-6f" transform="translate(216.015625 0)"/>
     <use xlink:href="#DejaVuSans-Bold-72" transform="translate(284.716797 0)"/>
     <use xlink:href="#DejaVuSans-Bold-61" transform="translate(334.033203 0)"/>
     <use xlink:href="#DejaVuSans-Bold-6c" transform="translate(401.513672 0)"/>
    </g>
   </g>
   <g id="patch_7">
    <path d="M 324.119528 165.960142
L 406.44094 165.960142
L 406.44094 147.909909
L 324.119528 147.909909
z
" clip-path="url(#p55ed43c5f0)" style="fill: #7fb685; stroke: #444444; stroke-width: 0.8; stroke-linejoin: miter"/>
   </g>
   <g id="text_12">
    <!-- Vexpro -->
    <g style="fill: #ffffff" transform="translate(347.558671 159.418463) scale(0.09 -0.09)">
     <defs>
      <path id="DejaVuSans-Bold-70" d="M 1656 506
L 1656 -1331
L 538 -1331
L 538 3500
L 1656 3500
L 1656 2988
Q 1888 3294 2169 3439
Q 2450 3584 2816 3584
Q 3463 3584 3878 3070
Q 4294 2556 4294 1747
Q 4294 938 3878 423
Q 3463 -91 2816 -91
Q 2450 -91 2169 54
Q 1888 200 1656 506
z
M 2400 2772
Q 2041 2772 1848 2508
Q 1656 2244 1656 1747
Q 1656 1250 1848 986
Q 2041 722 2400 722
Q 2759 722 2948 984
Q 3138 1247 3138 1747
Q 3138 2247 2948 2509
Q 2759 2772 2400 2772
z
" transform="scale(0.015625)"/>
     </defs>
     <use xlink:href="#DejaVuSans-Bold-56"/>
     <use xlink:href="#DejaVuSans-Bold-65" transform="translate(71.892578 0)"/>
     <use xlink:href="#DejaVuSans-Bold-78" transform="translate(139.714844 0)"/>
     <use xlink:href="#DejaVuSans-Bold-70" transform="translate(204.216797 0)"/>
     <use xlink:href="#DejaVuSans-Bold-72" transform="translate(275.798828 0)"/>
     <use xlink:href="#DejaVuSans-Bold-6f" transform="translate(325.115234 0)"/>
    </g>
   </g>
   <g id="patch_8">
    <path d="M 324.119528 135.523761
Q 324.119528 139.42906 324.119528 142.328128
" style="fill: none; stroke: #444444; stroke-width: 0.9; stroke-linecap: round"/>
    <path d="M 325.719528 139.128128
L 324.119528 142.328128
L 322.519528 139.128128
z
" style="fill: #444444; stroke: #444444; stroke-width: 0.9; stroke-linecap: round"/>
   </g>
   <g id="text_13">
    <!-- Switch -->
    <g style="fill: #444444" transform="translate(310.895153 129.859677) scale(0.08 -0.08)">
     <defs>
      <path id="DejaVuSans-53" d="M 3425 4513
L 3425 3897
Q 3066 4069 2747 4153
Q 2428 4238 2131 4238
Q 1616 4238 1336 4038
Q 1056 3838 1056 3469
Q 1056 3159 1242 3001
Q 1428 2844 1947 2747
L 2328 2669
Q 3034 2534 3370 2195
Q 3706 1856 3706 1288
Q 3706 609 3251 259
Q 2797 -91 1919 -91
Q 1588 -91 1214 -16
Q 841 59 441 206
L 441 856
Q 825 641 1194 531
Q 1563 422 1919 422
Q 2459 422 2753 634
Q 3047 847 3047 1241
Q 3047 1584 2836 1778
Q 2625 1972 2144 2069
L 1759 2144
Q 1053 2284 737 2584
Q 422 2884 422 3419
Q 422 4038 858 4394
Q 1294 4750 2059 4750
Q 2388 4750 2728 4690
Q 3069 4631 3425 4513
z
" transform="scale(0.015625)"/>
      <path id="DejaVuSans-74" d="M 1172 4494
L 1172 3500
L 2356 3500
L 2356 3053
L 1172 3053
L 1172 1153
Q 1172 725 1289 603
Q 1406 481 1766 481
L 2356 481
L 2356 0
L 1766 0
Q 1100 0 847 248
Q 594 497 594 1153
L 594 3053
L 172 3053
L 172 3500
L 594 3500
L 594 4494
L 1172 4494
z
" transform="scale(0.015625)"/>
      <path id="DejaVuSans-63" d="M 3122 3366
L 3122 2828
Q 2878 2963 2633 3030
Q 2388 3097 2138 3097
Q 1578 3097 1268 2742
Q 959 2388 959 1747
Q 959 1106 1268 751
Q 1578 397 2138 397
Q 2388 397 2633 464
Q 2878 531 3122 666
L 3122 134
Q 2881 22 2623 -34
Q 2366 -91 2075 -91
Q 1284 -91 818 406
Q 353 903 353 1747
Q 353 2603 823 3093
Q 1294 3584 2113 3584
Q 2378 3584 2631 3529
Q 2884 3475 3122 3366
z
" transform="scale(0.015625)"/>
      <path id="DejaVuSans-68" d="M 3513 2113
L 3513 0
L 2938 0
L 2938 2094
Q 2938 2591 2744 2837
Q 2550 3084 2163 3084
Q 1697 3084 1428 2787
Q 1159 2491 1159 1978
L 1159 0
L 581 0
L 581 4863
L 1159 4863
L 1159 2956
Q 1366 3272 1645 3428
Q 1925 3584 2291 3584
Q 2894 3584 3203 3211
Q 3513 2838 3513 2113
z
" transform="scale(0.015625)"/>
     </defs>
     <use xlink:href="#DejaVuSans-53"/>
     <use xlink:href="#DejaVuSans-77" transform="translate(63.476562 0)"/>
     <use xlink:href="#DejaVuSans-69" transform="translate(145.263672 0)"/>
     <use xlink:href="#DejaVuSans-74" transform="translate(173.046875 0)"/>
     <use xlink:href="#DejaVuSans-63" transform="translate(212.255859 0)"/>
     <use xlink:href="#DejaVuSans-68" transform="translate(267.236328 0)"/>
    </g>
   </g>
   <g id="text_14">
    <!-- Analysis-constructed exposure from paid fills only -->
    <g style="fill: #555555" transform="translate(209.752175 120.83456) scale(0.08 -0.08)">
     <defs>
      <path id="DejaVuSans-Oblique-41" d="M 2356 4666
L 3072 4666
L 3938 0
L 3278 0
L 3084 1197
L 984 1197
L 325 0
L -341 0
L 2356 4666
z
M 2584 4044
L 1275 1722
L 2988 1722
L 2584 4044
z
" transform="scale(0.015625)"/>
      <path id="DejaVuSans-Oblique-79" d="M 1588 -325
Q 1188 -997 936 -1164
Q 684 -1331 294 -1331
L -159 -1331
L -63 -850
L 269 -850
Q 509 -850 678 -719
Q 847 -588 1056 -206
L 1234 128
L 459 3500
L 1069 3500
L 1650 819
L 3256 3500
L 3859 3500
L 1588 -325
z
" transform="scale(0.015625)"/>
      <path id="DejaVuSans-Oblique-2d" d="M 391 2009
L 2075 2009
L 1978 1497
L 288 1497
L 391 2009
z
" transform="scale(0.015625)"/>
      <path id="DejaVuSans-Oblique-78" d="M 3841 3500
L 2234 1784
L 3219 0
L 2559 0
L 1819 1388
L 531 0
L -166 0
L 1556 1844
L 641 3500
L 1300 3500
L 1972 2234
L 3144 3500
L 3841 3500
z
" transform="scale(0.015625)"/>
      <path id="DejaVuSans-Oblique-70" d="M 3175 2156
Q 3175 2616 2975 2859
Q 2775 3103 2400 3103
Q 2144 3103 1911 2972
Q 1678 2841 1497 2591
Q 1319 2344 1212 1994
Q 1106 1644 1106 1300
Q 1106 863 1306 627
Q 1506 391 1875 391
Q 2147 391 2380 519
Q 2613 647 2778 891
Q 2956 1147 3065 1494
Q 3175 1841 3175 2156
z
M 1394 2969
Q 1625 3272 1939 3428
Q 2253 3584 2638 3584
Q 3175 3584 3472 3232
Q 3769 2881 3769 2247
Q 3769 1728 3584 1258
Q 3400 788 3053 416
Q 2822 169 2531 39
Q 2241 -91 1919 -91
Q 1547 -91 1294 64
Q 1041 219 916 525
L 556 -1331
L -19 -1331
L 922 3500
L 1497 3500
L 1394 2969
z
" transform="scale(0.015625)"/>
      <path id="DejaVuSans-Oblique-66" d="M 3059 4863
L 2969 4384
L 2419 4384
Q 2106 4384 1964 4261
Q 1822 4138 1753 3809
L 1691 3500
L 2638 3500
L 2553 3053
L 1606 3053
L 1013 0
L 434 0
L 1031 3053
L 481 3053
L 563 3500
L 1113 3500
L 1159 3744
Q 1278 4363 1576 4613
Q 1875 4863 2516 4863
L 3059 4863
z
" transform="scale(0.015625)"/>
      <path id="DejaVuSans-Oblique-6d" d="M 5747 2113
L 5338 0
L 4763 0
L 5166 2094
Q 5191 2228 5203 2325
Q 5216 2422 5216 2491
Q 5216 2772 5059 2928
Q 4903 3084 4622 3084
Q 4203 3084 3875 2770
Q 3547 2456 3450 1953
L 3066 0
L 2491 0
L 2900 2094
Q 2925 2209 2937 2307
Q 2950 2406 2950 2484
Q 2950 2769 2794 2926
Q 2638 3084 2363 3084
Q 1938 3084 1609 2770
Q 1281 2456 1184 1953
L 800 0
L 225 0
L 909 3500
L 1484 3500
L 1375 2956
Q 1609 3263 1923 3423
Q 2238 3584 2597 3584
Q 2978 3584 3223 3384
Q 3469 3184 3519 2828
Q 3781 3197 4126 3390
Q 4472 3584 4856 3584
Q 5306 3584 5551 3325
Q 5797 3066 5797 2591
Q 5797 2488 5784 2364
Q 5772 2241 5747 2113
z
" transform="scale(0.015625)"/>
     </defs>
     <use xlink:href="#DejaVuSans-Oblique-41"/>
     <use xlink:href="#DejaVuSans-Oblique-6e" transform="translate(68.408203 0)"/>
     <use xlink:href="#DejaVuSans-Oblique-61" transform="translate(131.787109 0)"/>
     <use xlink:href="#DejaVuSans-Oblique-6c" transform="translate(193.066406 0)"/>
     <use xlink:href="#DejaVuSans-Oblique-79" transform="translate(220.849609 0)"/>
     <use xlink:href="#DejaVuSans-Oblique-73" transform="translate(280.029297 0)"/>
     <use xlink:href="#DejaVuSans-Oblique-69" transform="translate(332.128906 0)"/>
     <use xlink:href="#DejaVuSans-Oblique-73" transform="translate(359.912109 0)"/>
     <use xlink:href="#DejaVuSans-Oblique-2d" transform="translate(412.011719 0)"/>
     <use xlink:href="#DejaVuSans-Oblique-63" transform="translate(448.095703 0)"/>
     <use xlink:href="#DejaVuSans-Oblique-6f" transform="translate(503.076172 0)"/>
     <use xlink:href="#DejaVuSans-Oblique-6e" transform="translate(564.257812 0)"/>
     <use xlink:href="#DejaVuSans-Oblique-73" transform="translate(627.636719 0)"/>
     <use xlink:href="#DejaVuSans-Oblique-74" transform="translate(679.736328 0)"/>
     <use xlink:href="#DejaVuSans-Oblique-72" transform="translate(718.945312 0)"/>
     <use xlink:href="#DejaVuSans-Oblique-75" transform="translate(760.058594 0)"/>
     <use xlink:href="#DejaVuSans-Oblique-63" transform="translate(823.4375 0)"/>
     <use xlink:href="#DejaVuSans-Oblique-74" transform="translate(878.417969 0)"/>
     <use xlink:href="#DejaVuSans-Oblique-65" transform="translate(917.626953 0)"/>
     <use xlink:href="#DejaVuSans-Oblique-64" transform="translate(979.150391 0)"/>
     <use xlink:href="#DejaVuSans-Oblique-20" transform="translate(1042.626953 0)"/>
     <use xlink:href="#DejaVuSans-Oblique-65" transform="translate(1074.414062 0)"/>
     <use xlink:href="#DejaVuSans-Oblique-78" transform="translate(1135.9375 0)"/>
     <use xlink:href="#DejaVuSans-Oblique-70" transform="translate(1195.117188 0)"/>
     <use xlink:href="#DejaVuSans-Oblique-6f" transform="translate(1258.59375 0)"/>
     <use xlink:href="#DejaVuSans-Oblique-73" transform="translate(1319.775391 0)"/>
     <use xlink:href="#DejaVuSans-Oblique-75" transform="translate(1371.875 0)"/>
     <use xlink:href="#DejaVuSans-Oblique-72" transform="translate(1435.253906 0)"/>
     <use xlink:href="#DejaVuSans-Oblique-65" transform="translate(1476.367188 0)"/>
     <use xlink:href="#DejaVuSans-Oblique-20" transform="translate(1537.890625 0)"/>
     <use xlink:href="#DejaVuSans-Oblique-66" transform="translate(1569.677734 0)"/>
     <use xlink:href="#DejaVuSans-Oblique-72" transform="translate(1604.882812 0)"/>
     <use xlink:href="#DejaVuSans-Oblique-6f" transform="translate(1645.996094 0)"/>
     <use xlink:href="#DejaVuSans-Oblique-6d" transform="translate(1707.177734 0)"/>
     <use xlink:href="#DejaVuSans-Oblique-20" transform="translate(1804.589844 0)"/>
     <use xlink:href="#DejaVuSans-Oblique-70" transform="translate(1836.376953 0)"/>
     <use xlink:href="#DejaVuSans-Oblique-61" transform="translate(1899.853516 0)"/>
     <use xlink:href="#DejaVuSans-Oblique-69" transform="translate(1961.132812 0)"/>
     <use xlink:href="#DejaVuSans-Oblique-64" transform="translate(1988.916016 0)"/>
     <use xlink:href="#DejaVuSans-Oblique-20" transform="translate(2052.392578 0)"/>
     <use xlink:href="#DejaVuSans-Oblique-66" transform="translate(2084.179688 0)"/>
     <use xlink:href="#DejaVuSans-Oblique-69" transform="translate(2119.384766 0)"/>
     <use xlink:href="#DejaVuSans-Oblique-6c" transform="translate(2147.167969 0)"/>
     <use xlink:href="#DejaVuSans-Oblique-6c" transform="translate(2174.951172 0)"/>
     <use xlink:href="#DejaVuSans-Oblique-73" transform="translate(2202.734375 0)"/>
     <use xlink:href="#DejaVuSans-Oblique-20" transform="translate(2254.833984 0)"/>
     <use xlink:href="#DejaVuSans-Oblique-6f" transform="translate(2286.621094 0)"/>
     <use xlink:href="#DejaVuSans-Oblique-6e" transform="translate(2347.802734 0)"/>
     <use xlink:href="#DejaVuSans-Oblique-6c" transform="translate(2411.181641 0)"/>
     <use xlink:href="#DejaVuSans-Oblique-79" transform="translate(2438.964844 0)"/>
    </g>
   </g>
   <g id="text_15">
    <g id="patch_9">
     <path d="M 63.190181 231.882915
L 104.407369 231.882915
Q 107.032369 231.882915 107.032369 229.257915
L 107.032369 213.483775
Q 107.032369 210.858775 104.407369 210.858775
L 63.190181 210.858775
Q 60.565181 210.858775 60.565181 213.483775
L 60.565181 229.257915
Q 60.565181 231.882915 63.190181 231.882915
z
" style="fill: #7777aa; opacity: 0.88; stroke: #444444; stroke-width: 0.8; stroke-linejoin: miter"/>
    </g>
    <!-- Diagnosis -->
    <g style="fill: #ffffff" transform="translate(63.190181 219.241196) scale(0.075 -0.075)">
     <defs>
      <path id="DejaVuSans-Bold-44" d="M 1791 3756
L 1791 909
L 2222 909
Q 2959 909 3348 1275
Q 3738 1641 3738 2338
Q 3738 3031 3350 3393
Q 2963 3756 2222 3756
L 1791 3756
z
M 588 4666
L 1856 4666
Q 2919 4666 3439 4514
Q 3959 4363 4331 4000
Q 4659 3684 4818 3271
Q 4978 2859 4978 2338
Q 4978 1809 4818 1395
Q 4659 981 4331 666
Q 3956 303 3431 151
Q 2906 0 1856 0
L 588 0
L 588 4666
z
" transform="scale(0.015625)"/>
      <path id="DejaVuSans-Bold-69" d="M 538 3500
L 1656 3500
L 1656 0
L 538 0
L 538 3500
z
M 538 4863
L 1656 4863
L 1656 3950
L 538 3950
L 538 4863
z
" transform="scale(0.015625)"/>
      <path id="DejaVuSans-Bold-67" d="M 2919 594
Q 2688 288 2409 144
Q 2131 0 1766 0
Q 1125 0 706 504
Q 288 1009 288 1791
Q 288 2575 706 3076
Q 1125 3578 1766 3578
Q 2131 3578 2409 3434
Q 2688 3291 2919 2981
L 2919 3500
L 4044 3500
L 4044 353
Q 4044 -491 3511 -936
Q 2978 -1381 1966 -1381
Q 1638 -1381 1331 -1331
Q 1025 -1281 716 -1178
L 716 -306
Q 1009 -475 1290 -558
Q 1572 -641 1856 -641
Q 2406 -641 2662 -400
Q 2919 -159 2919 353
L 2919 594
z
M 2181 2772
Q 1834 2772 1640 2515
Q 1447 2259 1447 1791
Q 1447 1309 1634 1061
Q 1822 813 2181 813
Q 2531 813 2725 1069
Q 2919 1325 2919 1791
Q 2919 2259 2725 2515
Q 2531 2772 2181 2772
z
" transform="scale(0.015625)"/>
      <path id="DejaVuSans-Bold-6e" d="M 4056 2131
L 4056 0
L 2931 0
L 2931 347
L 2931 1631
Q 2931 2084 2911 2256
Q 2891 2428 2841 2509
Q 2775 2619 2662 2680
Q 2550 2741 2406 2741
Q 2056 2741 1856 2470
Q 1656 2200 1656 1722
L 1656 0
L 538 0
L 538 3500
L 1656 3500
L 1656 2988
Q 1909 3294 2193 3439
Q 2478 3584 2822 3584
Q 3428 3584 3742 3212
Q 4056 2841 4056 2131
z
" transform="scale(0.015625)"/>
      <path id="DejaVuSans-Bold-73" d="M 3272 3391
L 3272 2541
Q 2913 2691 2578 2766
Q 2244 2841 1947 2841
Q 1628 2841 1473 2761
Q 1319 2681 1319 2516
Q 1319 2381 1436 2309
Q 1553 2238 1856 2203
L 2053 2175
Q 2913 2066 3209 1816
Q 3506 1566 3506 1031
Q 3506 472 3093 190
Q 2681 -91 1863 -91
Q 1516 -91 1145 -36
Q 775 19 384 128
L 384 978
Q 719 816 1070 734
Q 1422 653 1784 653
Q 2113 653 2278 743
Q 2444 834 2444 1013
Q 2444 1163 2330 1236
Q 2216 1309 1875 1350
L 1678 1375
Q 931 1469 631 1722
Q 331 1975 331 2491
Q 331 3047 712 3315
Q 1094 3584 1881 3584
Q 2191 3584 2531 3537
Q 2872 3491 3272 3391
z
" transform="scale(0.015625)"/>
     </defs>
     <use xlink:href="#DejaVuSans-Bold-44"/>
     <use xlink:href="#DejaVuSans-Bold-69" transform="translate(83.007812 0)"/>
     <use xlink:href="#DejaVuSans-Bold-61" transform="translate(117.285156 0)"/>
     <use xlink:href="#DejaVuSans-Bold-67" transform="translate(184.765625 0)"/>
     <use xlink:href="#DejaVuSans-Bold-6e" transform="translate(256.347656 0)"/>
     <use xlink:href="#DejaVuSans-Bold-6f" transform="translate(327.539062 0)"/>
     <use xlink:href="#DejaVuSans-Bold-73" transform="translate(396.240234 0)"/>
     <use xlink:href="#DejaVuSans-Bold-69" transform="translate(455.761719 0)"/>
     <use xlink:href="#DejaVuSans-Bold-73" transform="translate(490.039062 0)"/>
    </g>
    <!-- cohort -->
    <g style="fill: #ffffff" transform="translate(70.111861 227.69815) scale(0.075 -0.075)">
     <defs>
      <path id="DejaVuSans-Bold-63" d="M 3366 3391
L 3366 2478
Q 3138 2634 2908 2709
Q 2678 2784 2431 2784
Q 1963 2784 1702 2511
Q 1441 2238 1441 1747
Q 1441 1256 1702 982
Q 1963 709 2431 709
Q 2694 709 2930 787
Q 3166 866 3366 1019
L 3366 103
Q 3103 6 2833 -42
Q 2563 -91 2291 -91
Q 1344 -91 809 395
Q 275 881 275 1747
Q 275 2613 809 3098
Q 1344 3584 2291 3584
Q 2566 3584 2833 3536
Q 3100 3488 3366 3391
z
" transform="scale(0.015625)"/>
      <path id="DejaVuSans-Bold-68" d="M 4056 2131
L 4056 0
L 2931 0
L 2931 347
L 2931 1625
Q 2931 2084 2911 2256
Q 2891 2428 2841 2509
Q 2775 2619 2662 2680
Q 2550 2741 2406 2741
Q 2056 2741 1856 2470
Q 1656 2200 1656 1722
L 1656 0
L 538 0
L 538 4863
L 1656 4863
L 1656 2988
Q 1909 3294 2193 3439
Q 2478 3584 2822 3584
Q 3428 3584 3742 3212
Q 4056 2841 4056 2131
z
" transform="scale(0.015625)"/>
      <path id="DejaVuSans-Bold-74" d="M 1759 4494
L 1759 3500
L 2913 3500
L 2913 2700
L 1759 2700
L 1759 1216
Q 1759 972 1856 886
Q 1953 800 2241 800
L 2816 800
L 2816 0
L 1856 0
Q 1194 0 917 276
Q 641 553 641 1216
L 641 2700
L 84 2700
L 84 3500
L 641 3500
L 641 4494
L 1759 4494
z
" transform="scale(0.015625)"/>
     </defs>
     <use xlink:href="#DejaVuSans-Bold-63"/>
     <use xlink:href="#DejaVuSans-Bold-6f" transform="translate(59.277344 0)"/>
     <use xlink:href="#DejaVuSans-Bold-68" transform="translate(127.978516 0)"/>
     <use xlink:href="#DejaVuSans-Bold-6f" transform="translate(199.169922 0)"/>
     <use xlink:href="#DejaVuSans-Bold-72" transform="translate(267.871094 0)"/>
     <use xlink:href="#DejaVuSans-Bold-74" transform="translate(317.1875 0)"/>
    </g>
   </g>
   <g id="text_16">
    <g id="patch_10">
     <path d="M 271.811041 227.654439
L 320.102838 227.654439
Q 322.727838 227.654439 322.727838 225.029439
L 322.727838 217.770845
Q 322.727838 215.145845 320.102838 215.145845
L 271.811041 215.145845
Q 269.186041 215.145845 269.186041 217.770845
L 269.186041 225.029439
Q 269.186041 227.654439 271.811041 227.654439
z
" style="fill: #7ba6d0; opacity: 0.88; stroke: #444444; stroke-width: 0.8; stroke-linejoin: miter"/>
    </g>
    <!-- L1: Nexoral -->
    <g style="fill: #ffffff" transform="translate(271.811041 223.469673) scale(0.075 -0.075)">
     <defs>
      <path id="DejaVuSans-Bold-31" d="M 750 831
L 1813 831
L 1813 3847
L 722 3622
L 722 4441
L 1806 4666
L 2950 4666
L 2950 831
L 4013 831
L 4013 0
L 750 0
L 750 831
z
" transform="scale(0.015625)"/>
      <path id="DejaVuSans-Bold-3a" d="M 716 3500
L 1844 3500
L 1844 2291
L 716 2291
L 716 3500
z
M 716 1209
L 1844 1209
L 1844 0
L 716 0
L 716 1209
z
" transform="scale(0.015625)"/>
      <path id="DejaVuSans-Bold-20" transform="scale(0.015625)"/>
     </defs>
     <use xlink:href="#DejaVuSans-Bold-4c"/>
     <use xlink:href="#DejaVuSans-Bold-31" transform="translate(63.720703 0)"/>
     <use xlink:href="#DejaVuSans-Bold-3a" transform="translate(133.300781 0)"/>
     <use xlink:href="#DejaVuSans-Bold-20" transform="translate(173.291016 0)"/>
     <use xlink:href="#DejaVuSans-Bold-4e" transform="translate(208.105469 0)"/>
     <use xlink:href="#DejaVuSans-Bold-65" transform="translate(291.796875 0)"/>
     <use xlink:href="#DejaVuSans-Bold-78" transform="translate(359.619141 0)"/>
     <use xlink:href="#DejaVuSans-Bold-6f" transform="translate(424.121094 0)"/>
     <use xlink:href="#DejaVuSans-Bold-72" transform="translate(492.822266 0)"/>
     <use xlink:href="#DejaVuSans-Bold-61" transform="translate(542.138672 0)"/>
     <use xlink:href="#DejaVuSans-Bold-6c" transform="translate(609.619141 0)"/>
    </g>
   </g>
   <g id="text_17">
    <g id="patch_11">
     <path d="M 309.983786 227.654439
L 338.25527 227.654439
Q 340.88027 227.654439 340.88027 225.029439
L 340.88027 217.770845
Q 340.88027 215.145845 338.25527 215.145845
L 309.983786 215.145845
Q 307.358786 215.145845 307.358786 217.770845
L 307.358786 225.029439
Q 307.358786 227.654439 309.983786 227.654439
z
" style="fill: #e0b663; opacity: 0.88; stroke: #444444; stroke-width: 0.8; stroke-linejoin: miter"/>
    </g>
    <!-- Switch -->
    <g style="fill: #444444" transform="translate(309.983786 223.469673) scale(0.075 -0.075)">
     <defs>
      <path id="DejaVuSans-Bold-77" d="M 225 3500
L 1313 3500
L 1900 1088
L 2491 3500
L 3425 3500
L 4013 1113
L 4603 3500
L 5691 3500
L 4769 0
L 3547 0
L 2956 2406
L 2369 0
L 1147 0
L 225 3500
z
" transform="scale(0.015625)"/>
     </defs>
     <use xlink:href="#DejaVuSans-Bold-53"/>
     <use xlink:href="#DejaVuSans-Bold-77" transform="translate(72.021484 0)"/>
     <use xlink:href="#DejaVuSans-Bold-69" transform="translate(164.404297 0)"/>
     <use xlink:href="#DejaVuSans-Bold-74" transform="translate(198.681641 0)"/>
     <use xlink:href="#DejaVuSans-Bold-63" transform="translate(246.484375 0)"/>
     <use xlink:href="#DejaVuSans-Bold-68" transform="translate(305.761719 0)"/>
    </g>
   </g>
   <g id="text_18">
    <g id="patch_12">
     <path d="M 342.708749 227.654439
L 387.851718 227.654439
Q 390.476718 227.654439 390.476718 225.029439
L 390.476718 217.770845
Q 390.476718 215.145845 387.851718 215.145845
L 342.708749 215.145845
Q 340.083749 215.145845 340.083749 217.770845
L 340.083749 225.029439
Q 340.083749 227.654439 342.708749 227.654439
z
" style="fill: #7fb685; opacity: 0.88; stroke: #444444; stroke-width: 0.8; stroke-linejoin: miter"/>
    </g>
    <!-- L2: Vexpro -->
    <g style="fill: #ffffff" transform="translate(342.708749 223.469673) scale(0.075 -0.075)">
     <defs>
      <path id="DejaVuSans-Bold-32" d="M 1844 884
L 3897 884
L 3897 0
L 506 0
L 506 884
L 2209 2388
Q 2438 2594 2547 2791
Q 2656 2988 2656 3200
Q 2656 3528 2436 3728
Q 2216 3928 1850 3928
Q 1569 3928 1234 3808
Q 900 3688 519 3450
L 519 4475
Q 925 4609 1322 4679
Q 1719 4750 2100 4750
Q 2938 4750 3402 4381
Q 3866 4013 3866 3353
Q 3866 2972 3669 2642
Q 3472 2313 2841 1759
L 1844 884
z
" transform="scale(0.015625)"/>
     </defs>
     <use xlink:href="#DejaVuSans-Bold-4c"/>
     <use xlink:href="#DejaVuSans-Bold-32" transform="translate(63.720703 0)"/>
     <use xlink:href="#DejaVuSans-Bold-3a" transform="translate(133.300781 0)"/>
     <use xlink:href="#DejaVuSans-Bold-20" transform="translate(173.291016 0)"/>
     <use xlink:href="#DejaVuSans-Bold-56" transform="translate(208.105469 0)"/>
     <use xlink:href="#DejaVuSans-Bold-65" transform="translate(279.998047 0)"/>
     <use xlink:href="#DejaVuSans-Bold-78" transform="translate(347.820312 0)"/>
     <use xlink:href="#DejaVuSans-Bold-70" transform="translate(412.322266 0)"/>
     <use xlink:href="#DejaVuSans-Bold-72" transform="translate(483.904297 0)"/>
     <use xlink:href="#DejaVuSans-Bold-6f" transform="translate(533.220703 0)"/>
    </g>
   </g>
   <g id="text_19">
    <g id="patch_13">
     <path d="M 422.890399 227.654439
L 478.37868 227.654439
Q 481.00368 227.654439 481.00368 225.029439
L 481.00368 217.770845
Q 481.00368 215.145845 478.37868 215.145845
L 422.890399 215.145845
Q 420.265399 215.145845 420.265399 217.770845
L 420.265399 225.029439
Q 420.265399 227.654439 422.890399 227.654439
z
" style="fill: #d97b6c; opacity: 0.88; stroke: #444444; stroke-width: 0.8; stroke-linejoin: miter"/>
    </g>
    <!-- Discontinued -->
    <g style="fill: #ffffff" transform="translate(422.890399 223.469673) scale(0.075 -0.075)">
     <defs>
      <path id="DejaVuSans-Bold-75" d="M 500 1363
L 500 3500
L 1625 3500
L 1625 3150
Q 1625 2866 1622 2436
Q 1619 2006 1619 1863
Q 1619 1441 1641 1255
Q 1663 1069 1716 984
Q 1784 875 1895 815
Q 2006 756 2150 756
Q 2500 756 2700 1025
Q 2900 1294 2900 1772
L 2900 3500
L 4019 3500
L 4019 0
L 2900 0
L 2900 506
Q 2647 200 2364 54
Q 2081 -91 1741 -91
Q 1134 -91 817 281
Q 500 653 500 1363
z
" transform="scale(0.015625)"/>
      <path id="DejaVuSans-Bold-64" d="M 2919 2988
L 2919 4863
L 4044 4863
L 4044 0
L 2919 0
L 2919 506
Q 2688 197 2409 53
Q 2131 -91 1766 -91
Q 1119 -91 703 423
Q 288 938 288 1747
Q 288 2556 703 3070
Q 1119 3584 1766 3584
Q 2128 3584 2408 3439
Q 2688 3294 2919 2988
z
M 2181 722
Q 2541 722 2730 984
Q 2919 1247 2919 1747
Q 2919 2247 2730 2509
Q 2541 2772 2181 2772
Q 1825 2772 1636 2509
Q 1447 2247 1447 1747
Q 1447 1247 1636 984
Q 1825 722 2181 722
z
" transform="scale(0.015625)"/>
     </defs>
     <use xlink:href="#DejaVuSans-Bold-44"/>
     <use xlink:href="#DejaVuSans-Bold-69" transform="translate(83.007812 0)"/>
     <use xlink:href="#DejaVuSans-Bold-73" transform="translate(117.285156 0)"/>
     <use xlink:href="#DejaVuSans-Bold-63" transform="translate(176.806641 0)"/>
     <use xlink:href="#DejaVuSans-Bold-6f" transform="translate(236.083984 0)"/>
     <use xlink:href="#DejaVuSans-Bold-6e" transform="translate(304.785156 0)"/>
     <use xlink:href="#DejaVuSans-Bold-74" transform="translate(375.976562 0)"/>
     <use xlink:href="#DejaVuSans-Bold-69" transform="translate(423.779297 0)"/>
     <use xlink:href="#DejaVuSans-Bold-6e" transform="translate(458.056641 0)"/>
     <use xlink:href="#DejaVuSans-Bold-75" transform="translate(529.248047 0)"/>
     <use xlink:href="#DejaVuSans-Bold-65" transform="translate(600.439453 0)"/>
     <use xlink:href="#DejaVuSans-Bold-64" transform="translate(668.261719 0)"/>
    </g>
   </g>
   <g id="patch_14">
    <path d="M 115.25796 221.400142
Q 189.877021 221.400142 263.489852 221.400142
" style="fill: none; stroke: #444444; stroke-width: 0.9; stroke-linecap: round"/>
    <path d="M 260.289852 219.800142
L 263.489852 221.400142
L 260.289852 223.000142
z
" style="fill: #444444; stroke: #444444; stroke-width: 0.9; stroke-linecap: round"/>
   </g>
   <g id="patch_15">
    <path d="M 396.739688 221.400142
Q 407.955293 221.400142 418.164667 221.400142
" style="fill: none; stroke: #444444; stroke-width: 0.9; stroke-linecap: round"/>
    <path d="M 414.964667 219.800142
L 418.164667 221.400142
L 414.964667 223.000142
z
" style="fill: #444444; stroke: #444444; stroke-width: 0.9; stroke-linecap: round"/>
   </g>
   <g id="text_20">
    <!-- Inferred patient state from explicit sequencing rules -->
    <g style="fill: #555555" transform="translate(205.107175 187.23363) scale(0.08 -0.08)">
     <defs>
      <path id="DejaVuSans-Oblique-49" d="M 1081 4666
L 1716 4666
L 806 0
L 172 0
L 1081 4666
z
" transform="scale(0.015625)"/>
      <path id="DejaVuSans-Oblique-71" d="M 2669 525
Q 2438 222 2123 65
Q 1809 -91 1428 -91
Q 897 -91 595 267
Q 294 625 294 1253
Q 294 1759 480 2231
Q 666 2703 1013 3078
Q 1238 3322 1530 3453
Q 1822 3584 2144 3584
Q 2531 3584 2781 3431
Q 3031 3278 3144 2969
L 3244 3494
L 3822 3494
L 2888 -1319
L 2309 -1319
L 2669 525
z
M 891 1338
Q 891 875 1084 633
Q 1278 391 1644 391
Q 2188 391 2572 911
Q 2956 1431 2956 2175
Q 2956 2625 2757 2864
Q 2559 3103 2188 3103
Q 1916 3103 1684 2976
Q 1453 2850 1281 2606
Q 1100 2350 995 2006
Q 891 1663 891 1338
z
" transform="scale(0.015625)"/>
      <path id="DejaVuSans-Oblique-67" d="M 3816 3500
L 3219 434
Q 3047 -456 2561 -893
Q 2075 -1331 1253 -1331
Q 950 -1331 690 -1286
Q 431 -1241 206 -1147
L 313 -588
Q 525 -725 762 -790
Q 1000 -856 1269 -856
Q 1816 -856 2167 -557
Q 2519 -259 2631 300
L 2681 563
Q 2441 288 2122 144
Q 1803 0 1434 0
Q 903 0 598 351
Q 294 703 294 1319
Q 294 1803 478 2267
Q 663 2731 997 3091
Q 1219 3328 1514 3456
Q 1809 3584 2131 3584
Q 2484 3584 2746 3420
Q 3009 3256 3138 2956
L 3238 3500
L 3816 3500
z
M 2950 2216
Q 2950 2641 2750 2872
Q 2550 3103 2181 3103
Q 1953 3103 1747 3012
Q 1541 2922 1394 2759
Q 1156 2491 1023 2127
Q 891 1763 891 1375
Q 891 944 1092 712
Q 1294 481 1672 481
Q 2219 481 2584 976
Q 2950 1472 2950 2216
z
" transform="scale(0.015625)"/>
     </defs>
     <use xlink:href="#DejaVuSans-Oblique-49"/>
     <use xlink:href="#DejaVuSans-Oblique-6e" transform="translate(29.492188 0)"/>
     <use xlink:href="#DejaVuSans-Oblique-66" transform="translate(92.871094 0)"/>
     <use xlink:href="#DejaVuSans-Oblique-65" transform="translate(128.076172 0)"/>
     <use xlink:href="#DejaVuSans-Oblique-72" transform="translate(189.599609 0)"/>
     <use xlink:href="#DejaVuSans-Oblique-72" transform="translate(230.712891 0)"/>
     <use xlink:href="#DejaVuSans-Oblique-65" transform="translate(271.826172 0)"/>
     <use xlink:href="#DejaVuSans-Oblique-64" transform="translate(333.349609 0)"/>
     <use xlink:href="#DejaVuSans-Oblique-20" transform="translate(396.826172 0)"/>
     <use xlink:href="#DejaVuSans-Oblique-70" transform="translate(428.613281 0)"/>
     <use xlink:href="#DejaVuSans-Oblique-61" transform="translate(492.089844 0)"/>
     <use xlink:href="#DejaVuSans-Oblique-74" transform="translate(553.369141 0)"/>
     <use xlink:href="#DejaVuSans-Oblique-69" transform="translate(592.578125 0)"/>
     <use xlink:href="#DejaVuSans-Oblique-65" transform="translate(620.361328 0)"/>
     <use xlink:href="#DejaVuSans-Oblique-6e" transform="translate(681.884766 0)"/>
     <use xlink:href="#DejaVuSans-Oblique-74" transform="translate(745.263672 0)"/>
     <use xlink:href="#DejaVuSans-Oblique-20" transform="translate(784.472656 0)"/>
     <use xlink:href="#DejaVuSans-Oblique-73" transform="translate(816.259766 0)"/>
     <use xlink:href="#DejaVuSans-Oblique-74" transform="translate(868.359375 0)"/>
     <use xlink:href="#DejaVuSans-Oblique-61" transform="translate(907.568359 0)"/>
     <use xlink:href="#DejaVuSans-Oblique-74" transform="translate(968.847656 0)"/>
     <use xlink:href="#DejaVuSans-Oblique-65" transform="translate(1008.056641 0)"/>
     <use xlink:href="#DejaVuSans-Oblique-20" transform="translate(1069.580078 0)"/>
     <use xlink:href="#DejaVuSans-Oblique-66" transform="translate(1101.367188 0)"/>
     <use xlink:href="#DejaVuSans-Oblique-72" transform="translate(1136.572266 0)"/>
     <use xlink:href="#DejaVuSans-Oblique-6f" transform="translate(1177.685547 0)"/>
     <use xlink:href="#DejaVuSans-Oblique-6d" transform="translate(1238.867188 0)"/>
     <use xlink:href="#DejaVuSans-Oblique-20" transform="translate(1336.279297 0)"/>
     <use xlink:href="#DejaVuSans-Oblique-65" transform="translate(1368.066406 0)"/>
     <use xlink:href="#DejaVuSans-Oblique-78" transform="translate(1429.589844 0)"/>
     <use xlink:href="#DejaVuSans-Oblique-70" transform="translate(1488.769531 0)"/>
     <use xlink:href="#DejaVuSans-Oblique-6c" transform="translate(1552.246094 0)"/>
     <use xlink:href="#DejaVuSans-Oblique-69" transform="translate(1580.029297 0)"/>
     <use xlink:href="#DejaVuSans-Oblique-63" transform="translate(1607.8125 0)"/>
     <use xlink:href="#DejaVuSans-Oblique-69" transform="translate(1662.792969 0)"/>
     <use xlink:href="#DejaVuSans-Oblique-74" transform="translate(1690.576172 0)"/>
     <use xlink:href="#DejaVuSans-Oblique-20" transform="translate(1729.785156 0)"/>
     <use xlink:href="#DejaVuSans-Oblique-73" transform="translate(1761.572266 0)"/>
     <use xlink:href="#DejaVuSans-Oblique-65" transform="translate(1813.671875 0)"/>
     <use xlink:href="#DejaVuSans-Oblique-71" transform="translate(1875.195312 0)"/>
     <use xlink:href="#DejaVuSans-Oblique-75" transform="translate(1938.671875 0)"/>
     <use xlink:href="#DejaVuSans-Oblique-65" transform="translate(2002.050781 0)"/>
     <use xlink:href="#DejaVuSans-Oblique-6e" transform="translate(2063.574219 0)"/>
     <use xlink:href="#DejaVuSans-Oblique-63" transform="translate(2126.953125 0)"/>
     <use xlink:href="#DejaVuSans-Oblique-69" transform="translate(2181.933594 0)"/>
     <use xlink:href="#DejaVuSans-Oblique-6e" transform="translate(2209.716797 0)"/>
     <use xlink:href="#DejaVuSans-Oblique-67" transform="translate(2273.095703 0)"/>
     <use xlink:href="#DejaVuSans-Oblique-20" transform="translate(2336.572266 0)"/>
     <use xlink:href="#DejaVuSans-Oblique-72" transform="translate(2368.359375 0)"/>
     <use xlink:href="#DejaVuSans-Oblique-75" transform="translate(2409.472656 0)"/>
     <use xlink:href="#DejaVuSans-Oblique-6c" transform="translate(2472.851562 0)"/>
     <use xlink:href="#DejaVuSans-Oblique-65" transform="translate(2500.634766 0)"/>
     <use xlink:href="#DejaVuSans-Oblique-73" transform="translate(2562.158203 0)"/>
    </g>
   </g>
   <g id="text_21">
    <g id="patch_16">
     <path d="M 133.650925 294.992377
L 485.703425 294.992377
Q 489.703425 294.992377 489.703425 290.992377
L 489.703425 274.291627
Q 489.703425 270.291627 485.703425 270.291627
L 133.650925 270.291627
Q 129.650925 270.291627 129.650925 274.291627
L 129.650925 290.992377
Q 129.650925 294.992377 133.650925 294.992377
z
" style="fill: #fff8e8; stroke: #e0b663; stroke-width: 1.2; stroke-linejoin: miter"/>
    </g>
    <!-- The pended Rx is retained as access evidence, never counted as treatment. -->
    <g style="fill: #5a3800" transform="translate(157.108425 280.370377) scale(0.08 -0.08)">
     <defs>
      <path id="DejaVuSans-54" d="M -19 4666
L 3928 4666
L 3928 4134
L 2272 4134
L 2272 0
L 1638 0
L 1638 4134
L -19 4134
L -19 4666
z
" transform="scale(0.015625)"/>
      <path id="DejaVuSans-76" d="M 191 3500
L 800 3500
L 1894 563
L 2988 3500
L 3597 3500
L 2284 0
L 1503 0
L 191 3500
z
" transform="scale(0.015625)"/>
      <path id="DejaVuSans-2c" d="M 750 794
L 1409 794
L 1409 256
L 897 -744
L 494 -744
L 750 256
L 750 794
z
" transform="scale(0.015625)"/>
      <path id="DejaVuSans-6d" d="M 3328 2828
Q 3544 3216 3844 3400
Q 4144 3584 4550 3584
Q 5097 3584 5394 3201
Q 5691 2819 5691 2113
L 5691 0
L 5113 0
L 5113 2094
Q 5113 2597 4934 2840
Q 4756 3084 4391 3084
Q 3944 3084 3684 2787
Q 3425 2491 3425 1978
L 3425 0
L 2847 0
L 2847 2094
Q 2847 2600 2669 2842
Q 2491 3084 2119 3084
Q 1678 3084 1418 2786
Q 1159 2488 1159 1978
L 1159 0
L 581 0
L 581 3500
L 1159 3500
L 1159 2956
Q 1356 3278 1631 3431
Q 1906 3584 2284 3584
Q 2666 3584 2933 3390
Q 3200 3197 3328 2828
z
" transform="scale(0.015625)"/>
      <path id="DejaVuSans-2e" d="M 684 794
L 1344 794
L 1344 0
L 684 0
L 684 794
z
" transform="scale(0.015625)"/>
     </defs>
     <use xlink:href="#DejaVuSans-54"/>
     <use xlink:href="#DejaVuSans-68" transform="translate(61.083984 0)"/>
     <use xlink:href="#DejaVuSans-65" transform="translate(124.462891 0)"/>
     <use xlink:href="#DejaVuSans-20" transform="translate(185.986328 0)"/>
     <use xlink:href="#DejaVuSans-70" transform="translate(217.773438 0)"/>
     <use xlink:href="#DejaVuSans-65" transform="translate(281.25 0)"/>
     <use xlink:href="#DejaVuSans-6e" transform="translate(342.773438 0)"/>
     <use xlink:href="#DejaVuSans-64" transform="translate(406.152344 0)"/>
     <use xlink:href="#DejaVuSans-65" transform="translate(469.628906 0)"/>
     <use xlink:href="#DejaVuSans-64" transform="translate(531.152344 0)"/>
     <use xlink:href="#DejaVuSans-20" transform="translate(594.628906 0)"/>
     <use xlink:href="#DejaVuSans-52" transform="translate(626.416016 0)"/>
     <use xlink:href="#DejaVuSans-78" transform="translate(695.898438 0)"/>
     <use xlink:href="#DejaVuSans-20" transform="translate(755.078125 0)"/>
     <use xlink:href="#DejaVuSans-69" transform="translate(786.865234 0)"/>
     <use xlink:href="#DejaVuSans-73" transform="translate(814.648438 0)"/>
     <use xlink:href="#DejaVuSans-20" transform="translate(866.748047 0)"/>
     <use xlink:href="#DejaVuSans-72" transform="translate(898.535156 0)"/>
     <use xlink:href="#DejaVuSans-65" transform="translate(937.398438 0)"/>
     <use xlink:href="#DejaVuSans-74" transform="translate(998.921875 0)"/>
     <use xlink:href="#DejaVuSans-61" transform="translate(1038.130859 0)"/>
     <use xlink:href="#DejaVuSans-69" transform="translate(1099.410156 0)"/>
     <use xlink:href="#DejaVuSans-6e" transform="translate(1127.193359 0)"/>
     <use xlink:href="#DejaVuSans-65" transform="translate(1190.572266 0)"/>
     <use xlink:href="#DejaVuSans-64" transform="translate(1252.095703 0)"/>
     <use xlink:href="#DejaVuSans-20" transform="translate(1315.572266 0)"/>
     <use xlink:href="#DejaVuSans-61" transform="translate(1347.359375 0)"/>
     <use xlink:href="#DejaVuSans-73" transform="translate(1408.638672 0)"/>
     <use xlink:href="#DejaVuSans-20" transform="translate(1460.738281 0)"/>
     <use xlink:href="#DejaVuSans-61" transform="translate(1492.525391 0)"/>
     <use xlink:href="#DejaVuSans-63" transform="translate(1553.804688 0)"/>
     <use xlink:href="#DejaVuSans-63" transform="translate(1608.785156 0)"/>
     <use xlink:href="#DejaVuSans-65" transform="translate(1663.765625 0)"/>
     <use xlink:href="#DejaVuSans-73" transform="translate(1725.289062 0)"/>
     <use xlink:href="#DejaVuSans-73" transform="translate(1777.388672 0)"/>
     <use xlink:href="#DejaVuSans-20" transform="translate(1829.488281 0)"/>
     <use xlink:href="#DejaVuSans-65" transform="translate(1861.275391 0)"/>
     <use xlink:href="#DejaVuSans-76" transform="translate(1922.798828 0)"/>
     <use xlink:href="#DejaVuSans-69" transform="translate(1981.978516 0)"/>
     <use xlink:href="#DejaVuSans-64" transform="translate(2009.761719 0)"/>
     <use xlink:href="#DejaVuSans-65" transform="translate(2073.238281 0)"/>
     <use xlink:href="#DejaVuSans-6e" transform="translate(2134.761719 0)"/>
     <use xlink:href="#DejaVuSans-63" transform="translate(2198.140625 0)"/>
     <use xlink:href="#DejaVuSans-65" transform="translate(2253.121094 0)"/>
     <use xlink:href="#DejaVuSans-2c" transform="translate(2314.644531 0)"/>
     <use xlink:href="#DejaVuSans-20" transform="translate(2346.431641 0)"/>
     <use xlink:href="#DejaVuSans-6e" transform="translate(2378.21875 0)"/>
     <use xlink:href="#DejaVuSans-65" transform="translate(2441.597656 0)"/>
     <use xlink:href="#DejaVuSans-76" transform="translate(2503.121094 0)"/>
     <use xlink:href="#DejaVuSans-65" transform="translate(2562.300781 0)"/>
     <use xlink:href="#DejaVuSans-72" transform="translate(2623.824219 0)"/>
     <use xlink:href="#DejaVuSans-20" transform="translate(2664.9375 0)"/>
     <use xlink:href="#DejaVuSans-63" transform="translate(2696.724609 0)"/>
     <use xlink:href="#DejaVuSans-6f" transform="translate(2751.705078 0)"/>
     <use xlink:href="#DejaVuSans-75" transform="translate(2812.886719 0)"/>
     <use xlink:href="#DejaVuSans-6e" transform="translate(2876.265625 0)"/>
     <use xlink:href="#DejaVuSans-74" transform="translate(2939.644531 0)"/>
     <use xlink:href="#DejaVuSans-65" transform="translate(2978.853516 0)"/>
     <use xlink:href="#DejaVuSans-64" transform="translate(3040.376953 0)"/>
     <use xlink:href="#DejaVuSans-20" transform="translate(3103.853516 0)"/>
     <use xlink:href="#DejaVuSans-61" transform="translate(3135.640625 0)"/>
     <use xlink:href="#DejaVuSans-73" transform="translate(3196.919922 0)"/>
     <use xlink:href="#DejaVuSans-20" transform="translate(3249.019531 0)"/>
     <use xlink:href="#DejaVuSans-74" transform="translate(3280.806641 0)"/>
     <use xlink:href="#DejaVuSans-72" transform="translate(3320.015625 0)"/>
     <use xlink:href="#DejaVuSans-65" transform="translate(3358.878906 0)"/>
     <use xlink:href="#DejaVuSans-61" transform="translate(3420.402344 0)"/>
     <use xlink:href="#DejaVuSans-74" transform="translate(3481.681641 0)"/>
     <use xlink:href="#DejaVuSans-6d" transform="translate(3520.890625 0)"/>
     <use xlink:href="#DejaVuSans-65" transform="translate(3618.302734 0)"/>
     <use xlink:href="#DejaVuSans-6e" transform="translate(3679.826172 0)"/>
     <use xlink:href="#DejaVuSans-74" transform="translate(3743.205078 0)"/>
     <use xlink:href="#DejaVuSans-2e" transform="translate(3782.414062 0)"/>
    </g>
    <!-- Line 2 ends as Discontinued: the 60-day gap fires before follow-up ends on 2024-12-31. -->
    <g style="fill: #5a3800" transform="translate(133.650925 289.328627) scale(0.08 -0.08)">
     <defs>
      <path id="DejaVuSans-4c" d="M 628 4666
L 1259 4666
L 1259 531
L 3531 531
L 3531 0
L 628 0
L 628 4666
z
" transform="scale(0.015625)"/>
      <path id="DejaVuSans-32" d="M 1228 531
L 3431 531
L 3431 0
L 469 0
L 469 531
Q 828 903 1448 1529
Q 2069 2156 2228 2338
Q 2531 2678 2651 2914
Q 2772 3150 2772 3378
Q 2772 3750 2511 3984
Q 2250 4219 1831 4219
Q 1534 4219 1204 4116
Q 875 4013 500 3803
L 500 4441
Q 881 4594 1212 4672
Q 1544 4750 1819 4750
Q 2544 4750 2975 4387
Q 3406 4025 3406 3419
Q 3406 3131 3298 2873
Q 3191 2616 2906 2266
Q 2828 2175 2409 1742
Q 1991 1309 1228 531
z
" transform="scale(0.015625)"/>
      <path id="DejaVuSans-3a" d="M 750 794
L 1409 794
L 1409 0
L 750 0
L 750 794
z
M 750 3309
L 1409 3309
L 1409 2516
L 750 2516
L 750 3309
z
" transform="scale(0.015625)"/>
      <path id="DejaVuSans-36" d="M 2113 2584
Q 1688 2584 1439 2293
Q 1191 2003 1191 1497
Q 1191 994 1439 701
Q 1688 409 2113 409
Q 2538 409 2786 701
Q 3034 994 3034 1497
Q 3034 2003 2786 2293
Q 2538 2584 2113 2584
z
M 3366 4563
L 3366 3988
Q 3128 4100 2886 4159
Q 2644 4219 2406 4219
Q 1781 4219 1451 3797
Q 1122 3375 1075 2522
Q 1259 2794 1537 2939
Q 1816 3084 2150 3084
Q 2853 3084 3261 2657
Q 3669 2231 3669 1497
Q 3669 778 3244 343
Q 2819 -91 2113 -91
Q 1303 -91 875 529
Q 447 1150 447 2328
Q 447 3434 972 4092
Q 1497 4750 2381 4750
Q 2619 4750 2861 4703
Q 3103 4656 3366 4563
z
" transform="scale(0.015625)"/>
      <path id="DejaVuSans-30" d="M 2034 4250
Q 1547 4250 1301 3770
Q 1056 3291 1056 2328
Q 1056 1369 1301 889
Q 1547 409 2034 409
Q 2525 409 2770 889
Q 3016 1369 3016 2328
Q 3016 3291 2770 3770
Q 2525 4250 2034 4250
z
M 2034 4750
Q 2819 4750 3233 4129
Q 3647 3509 3647 2328
Q 3647 1150 3233 529
Q 2819 -91 2034 -91
Q 1250 -91 836 529
Q 422 1150 422 2328
Q 422 3509 836 4129
Q 1250 4750 2034 4750
z
" transform="scale(0.015625)"/>
      <path id="DejaVuSans-79" d="M 2059 -325
Q 1816 -950 1584 -1140
Q 1353 -1331 966 -1331
L 506 -1331
L 506 -850
L 844 -850
Q 1081 -850 1212 -737
Q 1344 -625 1503 -206
L 1606 56
L 191 3500
L 800 3500
L 1894 763
L 2988 3500
L 3597 3500
L 2059 -325
z
" transform="scale(0.015625)"/>
      <path id="DejaVuSans-66" d="M 2375 4863
L 2375 4384
L 1825 4384
Q 1516 4384 1395 4259
Q 1275 4134 1275 3809
L 1275 3500
L 2222 3500
L 2222 3053
L 1275 3053
L 1275 0
L 697 0
L 697 3053
L 147 3053
L 147 3500
L 697 3500
L 697 3744
Q 697 4328 969 4595
Q 1241 4863 1831 4863
L 2375 4863
z
" transform="scale(0.015625)"/>
      <path id="DejaVuSans-62" d="M 3116 1747
Q 3116 2381 2855 2742
Q 2594 3103 2138 3103
Q 1681 3103 1420 2742
Q 1159 2381 1159 1747
Q 1159 1113 1420 752
Q 1681 391 2138 391
Q 2594 391 2855 752
Q 3116 1113 3116 1747
z
M 1159 2969
Q 1341 3281 1617 3432
Q 1894 3584 2278 3584
Q 2916 3584 3314 3078
Q 3713 2572 3713 1747
Q 3713 922 3314 415
Q 2916 -91 2278 -91
Q 1894 -91 1617 61
Q 1341 213 1159 525
L 1159 0
L 581 0
L 581 4863
L 1159 4863
L 1159 2969
z
" transform="scale(0.015625)"/>
      <path id="DejaVuSans-34" d="M 2419 4116
L 825 1625
L 2419 1625
L 2419 4116
z
M 2253 4666
L 3047 4666
L 3047 1625
L 3713 1625
L 3713 1100
L 3047 1100
L 3047 0
L 2419 0
L 2419 1100
L 313 1100
L 313 1709
L 2253 4666
z
" transform="scale(0.015625)"/>
      <path id="DejaVuSans-31" d="M 794 531
L 1825 531
L 1825 4091
L 703 3866
L 703 4441
L 1819 4666
L 2450 4666
L 2450 531
L 3481 531
L 3481 0
L 794 0
L 794 531
z
" transform="scale(0.015625)"/>
      <path id="DejaVuSans-33" d="M 2597 2516
Q 3050 2419 3304 2112
Q 3559 1806 3559 1356
Q 3559 666 3084 287
Q 2609 -91 1734 -91
Q 1441 -91 1130 -33
Q 819 25 488 141
L 488 750
Q 750 597 1062 519
Q 1375 441 1716 441
Q 2309 441 2620 675
Q 2931 909 2931 1356
Q 2931 1769 2642 2001
Q 2353 2234 1838 2234
L 1294 2234
L 1294 2753
L 1863 2753
Q 2328 2753 2575 2939
Q 2822 3125 2822 3475
Q 2822 3834 2567 4026
Q 2313 4219 1838 4219
Q 1578 4219 1281 4162
Q 984 4106 628 3988
L 628 4550
Q 988 4650 1302 4700
Q 1616 4750 1894 4750
Q 2613 4750 3031 4423
Q 3450 4097 3450 3541
Q 3450 3153 3228 2886
Q 3006 2619 2597 2516
z
" transform="scale(0.015625)"/>
     </defs>
     <use xlink:href="#DejaVuSans-4c"/>
     <use xlink:href="#DejaVuSans-69" transform="translate(55.712891 0)"/>
     <use xlink:href="#DejaVuSans-6e" transform="translate(83.496094 0)"/>
     <use xlink:href="#DejaVuSans-65" transform="translate(146.875 0)"/>
     <use xlink:href="#DejaVuSans-20" transform="translate(208.398438 0)"/>
     <use xlink:href="#DejaVuSans-32" transform="translate(240.185547 0)"/>
     <use xlink:href="#DejaVuSans-20" transform="translate(303.808594 0)"/>
     <use xlink:href="#DejaVuSans-65" transform="translate(335.595703 0)"/>
     <use xlink:href="#DejaVuSans-6e" transform="translate(397.119141 0)"/>
     <use xlink:href="#DejaVuSans-64" transform="translate(460.498047 0)"/>
     <use xlink:href="#DejaVuSans-73" transform="translate(523.974609 0)"/>
     <use xlink:href="#DejaVuSans-20" transform="translate(576.074219 0)"/>
     <use xlink:href="#DejaVuSans-61" transform="translate(607.861328 0)"/>
     <use xlink:href="#DejaVuSans-73" transform="translate(669.140625 0)"/>
     <use xlink:href="#DejaVuSans-20" transform="translate(721.240234 0)"/>
     <use xlink:href="#DejaVuSans-44" transform="translate(753.027344 0)"/>
     <use xlink:href="#DejaVuSans-69" transform="translate(830.029297 0)"/>
     <use xlink:href="#DejaVuSans-73" transform="translate(857.8125 0)"/>
     <use xlink:href="#DejaVuSans-63" transform="translate(909.912109 0)"/>
     <use xlink:href="#DejaVuSans-6f" transform="translate(964.892578 0)"/>
     <use xlink:href="#DejaVuSans-6e" transform="translate(1026.074219 0)"/>
     <use xlink:href="#DejaVuSans-74" transform="translate(1089.453125 0)"/>
     <use xlink:href="#DejaVuSans-69" transform="translate(1128.662109 0)"/>
     <use xlink:href="#DejaVuSans-6e" transform="translate(1156.445312 0)"/>
     <use xlink:href="#DejaVuSans-75" transform="translate(1219.824219 0)"/>
     <use xlink:href="#DejaVuSans-65" transform="translate(1283.203125 0)"/>
     <use xlink:href="#DejaVuSans-64" transform="translate(1344.726562 0)"/>
     <use xlink:href="#DejaVuSans-3a" transform="translate(1408.203125 0)"/>
     <use xlink:href="#DejaVuSans-20" transform="translate(1441.894531 0)"/>
     <use xlink:href="#DejaVuSans-74" transform="translate(1473.681641 0)"/>
     <use xlink:href="#DejaVuSans-68" transform="translate(1512.890625 0)"/>
     <use xlink:href="#DejaVuSans-65" transform="translate(1576.269531 0)"/>
     <use xlink:href="#DejaVuSans-20" transform="translate(1637.792969 0)"/>
     <use xlink:href="#DejaVuSans-36" transform="translate(1669.580078 0)"/>
     <use xlink:href="#DejaVuSans-30" transform="translate(1733.203125 0)"/>
     <use xlink:href="#DejaVuSans-2d" transform="translate(1796.826172 0)"/>
     <use xlink:href="#DejaVuSans-64" transform="translate(1832.910156 0)"/>
     <use xlink:href="#DejaVuSans-61" transform="translate(1896.386719 0)"/>
     <use xlink:href="#DejaVuSans-79" transform="translate(1957.666016 0)"/>
     <use xlink:href="#DejaVuSans-20" transform="translate(2016.845703 0)"/>
     <use xlink:href="#DejaVuSans-67" transform="translate(2048.632812 0)"/>
     <use xlink:href="#DejaVuSans-61" transform="translate(2112.109375 0)"/>
     <use xlink:href="#DejaVuSans-70" transform="translate(2173.388672 0)"/>
     <use xlink:href="#DejaVuSans-20" transform="translate(2236.865234 0)"/>
     <use xlink:href="#DejaVuSans-66" transform="translate(2268.652344 0)"/>
     <use xlink:href="#DejaVuSans-69" transform="translate(2303.857422 0)"/>
     <use xlink:href="#DejaVuSans-72" transform="translate(2331.640625 0)"/>
     <use xlink:href="#DejaVuSans-65" transform="translate(2370.503906 0)"/>
     <use xlink:href="#DejaVuSans-73" transform="translate(2432.027344 0)"/>
     <use xlink:href="#DejaVuSans-20" transform="translate(2484.126953 0)"/>
     <use xlink:href="#DejaVuSans-62" transform="translate(2515.914062 0)"/>
     <use xlink:href="#DejaVuSans-65" transform="translate(2579.390625 0)"/>
     <use xlink:href="#DejaVuSans-66" transform="translate(2640.914062 0)"/>
     <use xlink:href="#DejaVuSans-6f" transform="translate(2676.119141 0)"/>
     <use xlink:href="#DejaVuSans-72" transform="translate(2737.300781 0)"/>
     <use xlink:href="#DejaVuSans-65" transform="translate(2776.164062 0)"/>
     <use xlink:href="#DejaVuSans-20" transform="translate(2837.6875 0)"/>
     <use xlink:href="#DejaVuSans-66" transform="translate(2869.474609 0)"/>
     <use xlink:href="#DejaVuSans-6f" transform="translate(2904.679688 0)"/>
     <use xlink:href="#DejaVuSans-6c" transform="translate(2965.861328 0)"/>
     <use xlink:href="#DejaVuSans-6c" transform="translate(2993.644531 0)"/>
     <use xlink:href="#DejaVuSans-6f" transform="translate(3021.427734 0)"/>
     <use xlink:href="#DejaVuSans-77" transform="translate(3082.609375 0)"/>
     <use xlink:href="#DejaVuSans-2d" transform="translate(3164.396484 0)"/>
     <use xlink:href="#DejaVuSans-75" transform="translate(3200.480469 0)"/>
     <use xlink:href="#DejaVuSans-70" transform="translate(3263.859375 0)"/>
     <use xlink:href="#DejaVuSans-20" transform="translate(3327.335938 0)"/>
     <use xlink:href="#DejaVuSans-65" transform="translate(3359.123047 0)"/>
     <use xlink:href="#DejaVuSans-6e" transform="translate(3420.646484 0)"/>
     <use xlink:href="#DejaVuSans-64" transform="translate(3484.025391 0)"/>
     <use xlink:href="#DejaVuSans-73" transform="translate(3547.501953 0)"/>
     <use xlink:href="#DejaVuSans-20" transform="translate(3599.601562 0)"/>
     <use xlink:href="#DejaVuSans-6f" transform="translate(3631.388672 0)"/>
     <use xlink:href="#DejaVuSans-6e" transform="translate(3692.570312 0)"/>
     <use xlink:href="#DejaVuSans-20" transform="translate(3755.949219 0)"/>
     <use xlink:href="#DejaVuSans-32" transform="translate(3787.736328 0)"/>
     <use xlink:href="#DejaVuSans-30" transform="translate(3851.359375 0)"/>
     <use xlink:href="#DejaVuSans-32" transform="translate(3914.982422 0)"/>
     <use xlink:href="#DejaVuSans-34" transform="translate(3978.605469 0)"/>
     <use xlink:href="#DejaVuSans-2d" transform="translate(4042.228516 0)"/>
     <use xlink:href="#DejaVuSans-31" transform="translate(4078.3125 0)"/>
     <use xlink:href="#DejaVuSans-32" transform="translate(4141.935547 0)"/>
     <use xlink:href="#DejaVuSans-2d" transform="translate(4205.558594 0)"/>
     <use xlink:href="#DejaVuSans-33" transform="translate(4241.642578 0)"/>
     <use xlink:href="#DejaVuSans-31" transform="translate(4305.265625 0)"/>
     <use xlink:href="#DejaVuSans-2e" transform="translate(4368.888672 0)"/>
    </g>
   </g>
   <g id="text_22">
    <!-- PAT00839: the same journey across 3 analytical layers -->
    <g transform="translate(171.627003 15.558281) scale(0.11 -0.11)">
     <defs>
      <path id="DejaVuSans-41" d="M 2188 4044
L 1331 1722
L 3047 1722
L 2188 4044
z
M 1831 4666
L 2547 4666
L 4325 0
L 3669 0
L 3244 1197
L 1141 1197
L 716 0
L 50 0
L 1831 4666
z
" transform="scale(0.015625)"/>
      <path id="DejaVuSans-38" d="M 2034 2216
Q 1584 2216 1326 1975
Q 1069 1734 1069 1313
Q 1069 891 1326 650
Q 1584 409 2034 409
Q 2484 409 2743 651
Q 3003 894 3003 1313
Q 3003 1734 2745 1975
Q 2488 2216 2034 2216
z
M 1403 2484
Q 997 2584 770 2862
Q 544 3141 544 3541
Q 544 4100 942 4425
Q 1341 4750 2034 4750
Q 2731 4750 3128 4425
Q 3525 4100 3525 3541
Q 3525 3141 3298 2862
Q 3072 2584 2669 2484
Q 3125 2378 3379 2068
Q 3634 1759 3634 1313
Q 3634 634 3220 271
Q 2806 -91 2034 -91
Q 1263 -91 848 271
Q 434 634 434 1313
Q 434 1759 690 2068
Q 947 2378 1403 2484
z
M 1172 3481
Q 1172 3119 1398 2916
Q 1625 2713 2034 2713
Q 2441 2713 2670 2916
Q 2900 3119 2900 3481
Q 2900 3844 2670 4047
Q 2441 4250 2034 4250
Q 1625 4250 1398 4047
Q 1172 3844 1172 3481
z
" transform="scale(0.015625)"/>
      <path id="DejaVuSans-39" d="M 703 97
L 703 672
Q 941 559 1184 500
Q 1428 441 1663 441
Q 2288 441 2617 861
Q 2947 1281 2994 2138
Q 2813 1869 2534 1725
Q 2256 1581 1919 1581
Q 1219 1581 811 2004
Q 403 2428 403 3163
Q 403 3881 828 4315
Q 1253 4750 1959 4750
Q 2769 4750 3195 4129
Q 3622 3509 3622 2328
Q 3622 1225 3098 567
Q 2575 -91 1691 -91
Q 1453 -91 1209 -44
Q 966 3 703 97
z
M 1959 2075
Q 2384 2075 2632 2365
Q 2881 2656 2881 3163
Q 2881 3666 2632 3958
Q 2384 4250 1959 4250
Q 1534 4250 1286 3958
Q 1038 3666 1038 3163
Q 1038 2656 1286 2365
Q 1534 2075 1959 2075
z
" transform="scale(0.015625)"/>
      <path id="DejaVuSans-6a" d="M 603 3500
L 1178 3500
L 1178 -63
Q 1178 -731 923 -1031
Q 669 -1331 103 -1331
L -116 -1331
L -116 -844
L 38 -844
Q 366 -844 484 -692
Q 603 -541 603 -63
L 603 3500
z
M 603 4863
L 1178 4863
L 1178 4134
L 603 4134
L 603 4863
z
" transform="scale(0.015625)"/>
     </defs>
     <use xlink:href="#DejaVuSans-50"/>
     <use xlink:href="#DejaVuSans-41" transform="translate(53.927734 0)"/>
     <use xlink:href="#DejaVuSans-54" transform="translate(114.585938 0)"/>
     <use xlink:href="#DejaVuSans-30" transform="translate(175.669922 0)"/>
     <use xlink:href="#DejaVuSans-30" transform="translate(239.292969 0)"/>
     <use xlink:href="#DejaVuSans-38" transform="translate(302.916016 0)"/>
     <use xlink:href="#DejaVuSans-33" transform="translate(366.539062 0)"/>
     <use xlink:href="#DejaVuSans-39" transform="translate(430.162109 0)"/>
     <use xlink:href="#DejaVuSans-3a" transform="translate(493.785156 0)"/>
     <use xlink:href="#DejaVuSans-20" transform="translate(527.476562 0)"/>
     <use xlink:href="#DejaVuSans-74" transform="translate(559.263672 0)"/>
     <use xlink:href="#DejaVuSans-68" transform="translate(598.472656 0)"/>
     <use xlink:href="#DejaVuSans-65" transform="translate(661.851562 0)"/>
     <use xlink:href="#DejaVuSans-20" transform="translate(723.375 0)"/>
     <use xlink:href="#DejaVuSans-73" transform="translate(755.162109 0)"/>
     <use xlink:href="#DejaVuSans-61" transform="translate(807.261719 0)"/>
     <use xlink:href="#DejaVuSans-6d" transform="translate(868.541016 0)"/>
     <use xlink:href="#DejaVuSans-65" transform="translate(965.953125 0)"/>
     <use xlink:href="#DejaVuSans-20" transform="translate(1027.476562 0)"/>
     <use xlink:href="#DejaVuSans-6a" transform="translate(1059.263672 0)"/>
     <use xlink:href="#DejaVuSans-6f" transform="translate(1087.046875 0)"/>
     <use xlink:href="#DejaVuSans-75" transform="translate(1148.228516 0)"/>
     <use xlink:href="#DejaVuSans-72" transform="translate(1211.607422 0)"/>
     <use xlink:href="#DejaVuSans-6e" transform="translate(1250.970703 0)"/>
     <use xlink:href="#DejaVuSans-65" transform="translate(1314.349609 0)"/>
     <use xlink:href="#DejaVuSans-79" transform="translate(1375.873047 0)"/>
     <use xlink:href="#DejaVuSans-20" transform="translate(1435.052734 0)"/>
     <use xlink:href="#DejaVuSans-61" transform="translate(1466.839844 0)"/>
     <use xlink:href="#DejaVuSans-63" transform="translate(1528.119141 0)"/>
     <use xlink:href="#DejaVuSans-72" transform="translate(1583.099609 0)"/>
     <use xlink:href="#DejaVuSans-6f" transform="translate(1621.962891 0)"/>
     <use xlink:href="#DejaVuSans-73" transform="translate(1683.144531 0)"/>
     <use xlink:href="#DejaVuSans-73" transform="translate(1735.244141 0)"/>
     <use xlink:href="#DejaVuSans-20" transform="translate(1787.34375 0)"/>
     <use xlink:href="#DejaVuSans-33" transform="translate(1819.130859 0)"/>
     <use xlink:href="#DejaVuSans-20" transform="translate(1882.753906 0)"/>
     <use xlink:href="#DejaVuSans-61" transform="translate(1914.541016 0)"/>
     <use xlink:href="#DejaVuSans-6e" transform="translate(1975.820312 0)"/>
     <use xlink:href="#DejaVuSans-61" transform="translate(2039.199219 0)"/>
     <use xlink:href="#DejaVuSans-6c" transform="translate(2100.478516 0)"/>
     <use xlink:href="#DejaVuSans-79" transform="translate(2128.261719 0)"/>
     <use xlink:href="#DejaVuSans-74" transform="translate(2187.441406 0)"/>
     <use xlink:href="#DejaVuSans-69" transform="translate(2226.650391 0)"/>
     <use xlink:href="#DejaVuSans-63" transform="translate(2254.433594 0)"/>
     <use xlink:href="#DejaVuSans-61" transform="translate(2309.414062 0)"/>
     <use xlink:href="#DejaVuSans-6c" transform="translate(2370.693359 0)"/>
     <use xlink:href="#DejaVuSans-20" transform="translate(2398.476562 0)"/>
     <use xlink:href="#DejaVuSans-6c" transform="translate(2430.263672 0)"/>
     <use xlink:href="#DejaVuSans-61" transform="translate(2458.046875 0)"/>
     <use xlink:href="#DejaVuSans-79" transform="translate(2519.326172 0)"/>
     <use xlink:href="#DejaVuSans-65" transform="translate(2578.505859 0)"/>
     <use xlink:href="#DejaVuSans-72" transform="translate(2640.029297 0)"/>
     <use xlink:href="#DejaVuSans-73" transform="translate(2681.142578 0)"/>
    </g>
   </g>
   <g id="line2d_2">
    <path d="M 64.157175 47.344328
" clip-path="url(#p55ed43c5f0)" style="fill: none; stroke: #5555aa; stroke-width: 1.5; stroke-linecap: square"/>
    <defs>
     <path id="mdfa96a6796" d="M 0 4
C 1.060812 4 2.078319 3.578535 2.828427 2.828427
C 3.578535 2.078319 4 1.060812 4 0
C 4 -1.060812 3.578535 -2.078319 2.828427 -2.828427
C 2.078319 -3.578535 1.060812 -4 0 -4
C -1.060812 -4 -2.078319 -3.578535 -2.828427 -2.828427
C -3.578535 -2.078319 -4 -1.060812 -4 0
C -4 1.060812 -3.578535 2.078319 -2.828427 2.828427
C -2.078319 3.578535 -1.060812 4 0 4
z
" style="stroke: #5555aa"/>
    </defs>
    <g clip-path="url(#p55ed43c5f0)">
     <use xlink:href="#mdfa96a6796" x="64.157175" y="47.344328" style="fill: #5555aa; stroke: #5555aa"/>
    </g>
   </g>
   <g id="line2d_3">
    <path d="M 555.197175 47.344328
" clip-path="url(#p55ed43c5f0)" style="fill: none; stroke: #444444; stroke-width: 1.5; stroke-linecap: square"/>
    <defs>
     <path id="md8f5312ca1" d="M 0 4
C 1.060812 4 2.078319 3.578535 2.828427 2.828427
C 3.578535 2.078319 4 1.060812 4 0
C 4 -1.060812 3.578535 -2.078319 2.828427 -2.828427
C 2.078319 -3.578535 1.060812 -4 0 -4
C -1.060812 -4 -2.078319 -3.578535 -2.828427 -2.828427
C -3.578535 -2.078319 -4 -1.060812 -4 0
C -4 1.060812 -3.578535 2.078319 -2.828427 2.828427
C -2.078319 3.578535 -1.060812 4 0 4
z
" style="stroke: #444444"/>
    </defs>
    <g clip-path="url(#p55ed43c5f0)">
     <use xlink:href="#md8f5312ca1" x="555.197175" y="47.344328" style="fill: #444444; stroke: #444444"/>
    </g>
   </g>
   <g id="line2d_4">
    <path d="M 275.015528 98.916421
" clip-path="url(#p55ed43c5f0)" style="fill: none; stroke: #7ba6d0; stroke-width: 1.5; stroke-linecap: square"/>
    <defs>
     <path id="m1fe4d1e0f9" d="M 0 4
C 1.060812 4 2.078319 3.578535 2.828427 2.828427
C 3.578535 2.078319 4 1.060812 4 0
C 4 -1.060812 3.578535 -2.078319 2.828427 -2.828427
C 2.078319 -3.578535 1.060812 -4 0 -4
C -1.060812 -4 -2.078319 -3.578535 -2.828427 -2.828427
C -3.578535 -2.078319 -4 -1.060812 -4 0
C -4 1.060812 -3.578535 2.078319 -2.828427 2.828427
C -2.078319 3.578535 -1.060812 4 0 4
z
" style="stroke: #7ba6d0"/>
    </defs>
    <g clip-path="url(#p55ed43c5f0)">
     <use xlink:href="#m1fe4d1e0f9" x="275.015528" y="98.916421" style="fill: #7ba6d0; stroke: #7ba6d0"/>
    </g>
   </g>
   <g id="line2d_5">
    <path d="M 324.119528 98.916421
" clip-path="url(#p55ed43c5f0)" style="fill: none; stroke: #7ba6d0; stroke-width: 1.5; stroke-linecap: square"/>
    <g clip-path="url(#p55ed43c5f0)">
     <use xlink:href="#m1fe4d1e0f9" x="324.119528" y="98.916421" style="fill: #7ba6d0; stroke: #7ba6d0"/>
    </g>
   </g>
   <g id="line2d_6">
    <path d="M 364.558116 98.916421
" clip-path="url(#p55ed43c5f0)" style="fill: none; stroke: #7ba6d0; stroke-width: 1.5; stroke-linecap: square"/>
    <g clip-path="url(#p55ed43c5f0)">
     <use xlink:href="#m1fe4d1e0f9" x="364.558116" y="98.916421" style="fill: #7ba6d0; stroke: #7ba6d0"/>
    </g>
   </g>
   <g id="line2d_7">
    <path d="M 321.231057 98.916421
" clip-path="url(#p55ed43c5f0)" style="fill: none; stroke: #d97b6c; stroke-width: 1.5; stroke-linecap: square"/>
    <defs>
     <path id="m5d42257a8d" d="M -5 5
L 5 -5
M -5 -5
L 5 5
" style="stroke: #d97b6c; stroke-width: 2.2"/>
    </defs>
    <g clip-path="url(#p55ed43c5f0)">
     <use xlink:href="#m5d42257a8d" x="321.231057" y="98.916421" style="fill: #d97b6c; stroke: #d97b6c; stroke-width: 2.2"/>
    </g>
   </g>
  </g>
 </g>
 <defs>
  <clipPath id="p55ed43c5f0">
   <rect x="15.053175" y="21.558281" width="613.8" height="277.2"/>
  </clipPath>
 </defs>
</svg>
