<?xml version="1.0" encoding="utf-8" standalone="no"?>
<!DOCTYPE svg PUBLIC "-//W3C//DTD SVG 1.1//EN"
  "http://www.w3.org/Graphics/SVG/1.1/DTD/svg11.dtd">
<svg xmlns:xlink="http://www.w3.org/1999/xlink" width="779.907188pt" height="341.4975pt" viewBox="0 0 779.907188 341.4975" xmlns="http://www.w3.org/2000/svg" version="1.1">
 <metadata>
  <rdf:RDF xmlns:dc="http://purl.org/dc/elements/1.1/" xmlns:cc="http://creativecommons.org/ns#" xmlns:rdf="http://www.w3.org/1999/02/22-rdf-syntax-ns#">
   <cc:Work>
    <dc:type rdf:resource="http://purl.org/dc/dcmitype/StillImage"/>
    <dc:date>2026-06-18T23:09:07.372590</dc:date>
    <dc:format>image/svg+xml</dc:format>
    <dc:creator>
     <cc:Agent>
      <dc:title>Matplotlib v3.10.9, https://matplotlib.org/</dc:title>
     </cc:Agent>
    </dc:creator>
   </cc:Work>
  </rdf:RDF>
 </metadata>
 <defs>
  <style type="text/css">*{stroke-linejoin: round; stroke-linecap: butt}</style>
 </defs>
 <g id="figure_1">
  <g id="patch_1">
   <path d="M 0 341.4975 
L 779.907188 341.4975 
L 779.907188 0 
L 0 0 
z
" style="fill: #ffffff"/>
  </g>
  <g id="axes_1">
   <g id="patch_2">
    <path d="M 47.307187 301.037812 
L 772.707187 301.037812 
L 772.707187 23.837812 
L 47.307187 23.837812 
z
" style="fill: #ffffff"/>
   </g>
   <g id="FillBetweenPolyCollection_1">
    <path d="M 47.307187 301.037812 
L 47.307187 301.037812 
L 47.307187 301.037812 
L 47.307187 299.797592 
L 49.574062 299.797592 
L 49.574062 298.791387 
L 51.840937 298.791387 
L 51.840937 297.523642 
L 54.107812 297.523642 
L 54.107812 295.855406 
L 56.374687 295.855406 
L 56.374687 294.160091 
L 58.641562 294.160091 
L 58.641562 292.589513 
L 60.908437 292.589513 
L 60.908437 291.199515 
L 63.175312 291.199515 
L 63.175312 289.703304 
L 65.442187 289.703304 
L 65.442187 288.004372 
L 67.709062 288.004372 
L 67.709062 286.101362 
L 69.975937 286.101362 
L 69.975937 284.386014 
L 72.242812 284.386014 
L 72.242812 283.058436 
L 74.509687 283.058436 
L 74.509687 281.528905 
L 76.776562 281.528905 
L 76.776562 280.143283 
L 79.043437 280.143283 
L 79.043437 278.357697 
L 81.310312 278.357697 
L 81.310312 276.915519 
L 83.577187 276.915519 
L 83.577187 274.672006 
L 85.844062 274.672006 
L 85.844062 273.372546 
L 88.110937 273.372546 
L 88.110937 271.469165 
L 90.377812 271.469165 
L 90.377812 269.710854 
L 92.644687 269.710854 
L 92.644687 267.596121 
L 94.911563 267.596121 
L 94.911563 266.082189 
L 97.178438 266.082189 
L 97.178438 264.768029 
L 99.445312 264.768029 
L 99.445312 262.589306 
L 101.712187 262.589306 
L 101.712187 260.965337 
L 103.979062 260.965337 
L 103.979062 259.134098 
L 106.245937 259.134098 
L 106.245937 257.094854 
L 108.512812 257.094854 
L 108.512812 255.151873 
L 110.779687 255.151873 
L 110.779687 254.076402 
L 113.046562 254.076402 
L 113.046562 252.997848 
L 115.313437 252.997848 
L 115.313437 251.762778 
L 117.580312 251.762778 
L 117.580312 250.422574 
L 119.847187 250.422574 
L 119.847187 249.02718 
L 122.114062 249.02718 
L 122.114062 248.250898 
L 124.380937 248.250898 
L 124.380937 247.525058 
L 126.647812 247.525058 
L 126.647812 246.850499 
L 128.914687 246.850499 
L 128.914687 246.018609 
L 131.181562 246.018609 
L 131.181562 245.34225 
L 133.448437 245.34225 
L 133.448437 244.664681 
L 135.715312 244.664681 
L 135.715312 243.985897 
L 137.982187 243.985897 
L 137.982187 243.253435 
L 140.249062 243.253435 
L 140.249062 242.152887 
L 142.515938 242.152887 
L 142.515938 241.680446 
L 144.782812 241.680446 
L 144.782812 240.892564 
L 147.049688 240.892564 
L 147.049688 240.576979 
L 149.316562 240.576979 
L 149.316562 239.840045 
L 151.583438 239.840045 
L 151.583438 239.207616 
L 153.850312 239.207616 
L 153.850312 238.837974 
L 156.117188 238.837974 
L 156.117188 238.20331 
L 158.384062 238.20331 
L 158.384062 237.462107 
L 160.650937 237.462107 
L 160.650937 236.507719 
L 162.917812 236.507719 
L 162.917812 235.923629 
L 165.184687 235.923629 
L 165.184687 235.179634 
L 167.451562 235.179634 
L 167.451562 234.168 
L 169.718437 234.168 
L 169.718437 233.31533 
L 171.985312 233.31533 
L 171.985312 232.567985 
L 174.252187 232.567985 
L 174.252187 231.444793 
L 176.519062 231.444793 
L 176.519062 230.427405 
L 178.785937 230.427405 
L 178.785937 229.622811 
L 181.052812 229.622811 
L 181.052812 229.03241 
L 183.319687 229.03241 
L 183.319687 228.280052 
L 185.586562 228.280052 
L 185.586562 227.579954 
L 187.853437 227.579954 
L 187.853437 226.663454 
L 190.120312 226.663454 
L 190.120312 226.014984 
L 192.387187 226.014984 
L 192.387187 225.582235 
L 194.654062 225.582235 
L 194.654062 224.606676 
L 196.920937 224.606676 
L 196.920937 223.575521 
L 199.187812 223.575521 
L 199.187812 222.922837 
L 201.454687 222.922837 
L 201.454687 222.214703 
L 203.721562 222.214703 
L 203.721562 221.723622 
L 205.988437 221.723622 
L 205.988437 220.903924 
L 208.255312 220.903924 
L 208.255312 219.918963 
L 210.522187 219.918963 
L 210.522187 219.206333 
L 212.789062 219.206333 
L 212.789062 218.657204 
L 215.055937 218.657204 
L 215.055937 217.831879 
L 217.322812 217.831879 
L 217.322812 216.72943 
L 219.589687 216.72943 
L 219.589687 215.790611 
L 221.856562 215.790611 
L 221.856562 215.127327 
L 224.123437 215.127327 
L 224.123437 214.628876 
L 226.390312 214.628876 
L 226.390312 213.908116 
L 228.657187 213.908116 
L 228.657187 213.408243 
L 230.924062 213.408243 
L 230.924062 212.572844 
L 233.190937 212.572844 
L 233.190937 211.847846 
L 235.457812 211.847846 
L 235.457812 210.954104 
L 237.724687 210.954104 
L 237.724687 210.058476 
L 239.991562 210.058476 
L 239.991562 209.21745 
L 242.258437 209.21745 
L 242.258437 208.430646 
L 244.525312 208.430646 
L 244.525312 207.812044 
L 246.792187 207.812044 
L 246.792187 206.628542 
L 249.059062 206.628542 
L 249.059062 205.723526 
L 251.325937 205.723526 
L 251.325937 205.1571 
L 253.592812 205.1571 
L 253.592812 204.646248 
L 255.859687 204.646248 
L 255.859687 203.907516 
L 258.126562 203.907516 
L 258.126562 202.882669 
L 260.393438 202.882669 
L 260.393438 201.969898 
L 262.660312 201.969898 
L 262.660312 201.626957 
L 264.927187 201.626957 
L 264.927187 200.596416 
L 267.194062 200.596416 
L 267.194062 200.023209 
L 269.460938 200.023209 
L 269.460938 199.104287 
L 271.727812 199.104287 
L 271.727812 198.413912 
L 273.994687 198.413912 
L 273.994687 197.14599 
L 276.261562 197.14599 
L 276.261562 196.683761 
L 278.528437 196.683761 
L 278.528437 195.640584 
L 280.795312 195.640584 
L 280.795312 195.001964 
L 283.062187 195.001964 
L 283.062187 194.246119 
L 285.329062 194.246119 
L 285.329062 193.373142 
L 287.595937 193.373142 
L 287.595937 192.615217 
L 289.862812 192.615217 
L 289.862812 191.972249 
L 292.129687 191.972249 
L 292.129687 191.035351 
L 294.396562 191.035351 
L 294.396562 190.272535 
L 296.663437 190.272535 
L 296.663437 189.388837 
L 298.930312 189.388837 
L 298.930312 188.207065 
L 301.197187 188.207065 
L 301.197187 187.437902 
L 303.464062 187.437902 
L 303.464062 186.370024 
L 305.730937 186.370024 
L 305.730937 185.299199 
L 307.997812 185.299199 
L 307.997812 184.583968 
L 310.264687 184.583968 
L 310.264687 183.866999 
L 312.531562 183.866999 
L 312.531562 183.028479 
L 314.798437 183.028479 
L 314.798437 182.487641 
L 317.065312 182.487641 
L 317.065312 181.945799 
L 319.332187 181.945799 
L 319.332187 181.403896 
L 321.599062 181.403896 
L 321.599062 180.740325 
L 323.865937 180.740325 
L 323.865937 180.317385 
L 326.132812 180.317385 
L 326.132812 179.529973 
L 328.399687 179.529973 
L 328.399687 178.862413 
L 330.666562 178.862413 
L 330.666562 178.254374 
L 332.933437 178.254374 
L 332.933437 177.095422 
L 335.200312 177.095422 
L 335.200312 175.872956 
L 337.467187 175.872956 
L 337.467187 174.953665 
L 339.734062 174.953665 
L 339.734062 174.215392 
L 342.000937 174.215392 
L 342.000937 173.474947 
L 344.267812 173.474947 
L 344.267812 172.548079 
L 346.534687 172.548079 
L 346.534687 171.990303 
L 348.801562 171.990303 
L 348.801562 171.120607 
L 351.068437 171.120607 
L 351.068437 170.373135 
L 353.335312 170.373135 
L 353.335312 169.93636 
L 355.602187 169.93636 
L 355.602187 169.123019 
L 357.869062 169.123019 
L 357.869062 167.992986 
L 360.135937 167.992986 
L 360.135937 167.113029 
L 362.402812 167.113029 
L 362.402812 166.103867 
L 364.669687 166.103867 
L 364.669687 164.966053 
L 366.936562 164.966053 
L 366.936562 164.268269 
L 369.203437 164.268269 
L 369.203437 163.441823 
L 371.470312 163.441823 
L 371.470312 162.486121 
L 373.737187 162.486121 
L 373.737187 161.718554 
L 376.004062 161.718554 
L 376.004062 160.94902 
L 378.270937 160.94902 
L 378.270937 159.856375 
L 380.537812 159.856375 
L 380.537812 159.147511 
L 382.804687 159.147511 
L 382.804687 158.760001 
L 385.071562 158.760001 
L 385.071562 157.788699 
L 387.338437 157.788699 
L 387.338437 157.269487 
L 389.605312 157.269487 
L 389.605312 156.097299 
L 391.872187 156.097299 
L 391.872187 155.24687 
L 394.139062 155.24687 
L 394.139062 154.064811 
L 396.405937 154.064811 
L 396.405937 153.273999 
L 398.672812 153.273999 
L 398.672812 152.613422 
L 400.939687 152.613422 
L 400.939687 151.949544 
L 403.206562 151.949544 
L 403.206562 151.48355 
L 405.473437 151.48355 
L 405.473437 150.68248 
L 407.740312 150.68248 
L 407.740312 149.678279 
L 410.007187 149.678279 
L 410.007187 149.141794 
L 412.274062 149.141794 
L 412.274062 148.266842 
L 414.540937 148.266842 
L 414.540937 147.186394 
L 416.807812 147.186394 
L 416.807812 146.374299 
L 419.074687 146.374299 
L 419.074687 145.423673 
L 421.341562 145.423673 
L 421.341562 144.401669 
L 423.608437 144.401669 
L 423.608437 143.649636 
L 425.875312 143.649636 
L 425.875312 142.96503 
L 428.142187 142.96503 
L 428.142187 142.140343 
L 430.409062 142.140343 
L 430.409062 140.968891 
L 432.675937 140.968891 
L 432.675937 140.484632 
L 434.942812 140.484632 
L 434.942812 139.58138 
L 437.209687 139.58138 
L 437.209687 138.954623 
L 439.476562 138.954623 
L 439.476562 137.83542 
L 441.743437 137.83542 
L 441.743437 137.274508 
L 444.010312 137.274508 
L 444.010312 136.150531 
L 446.277187 136.150531 
L 446.277187 135.374927 
L 448.544062 135.374927 
L 448.544062 134.809025 
L 450.810937 134.809025 
L 450.810937 133.816326 
L 453.077812 133.816326 
L 453.077812 133.246425 
L 455.344687 133.246425 
L 455.344687 132.74522 
L 457.611562 132.74522 
L 457.611562 132.097496 
L 459.878437 132.097496 
L 459.878437 131.519276 
L 462.145312 131.519276 
L 462.145312 130.504392 
L 464.412187 130.504392 
L 464.412187 130.066921 
L 466.679062 130.066921 
L 466.679062 128.969434 
L 468.945937 128.969434 
L 468.945937 128.161356 
L 471.212812 128.161356 
L 471.212812 127.496899 
L 473.479687 127.496899 
L 473.479687 126.534143 
L 475.746562 126.534143 
L 475.746562 125.938949 
L 478.013437 125.938949 
L 478.013437 125.266935 
L 480.280312 125.266935 
L 480.280312 124.068396 
L 482.547187 124.068396 
L 482.547187 123.016742 
L 484.814062 123.016742 
L 484.814062 122.032972 
L 487.080937 122.032972 
L 487.080937 121.272934 
L 489.347812 121.272934 
L 489.347812 120.585561 
L 491.614687 120.585561 
L 491.614687 119.973178 
L 493.881562 119.973178 
L 493.881562 119.279004 
L 496.148437 119.279004 
L 496.148437 118.350764 
L 498.415312 118.350764 
L 498.415312 117.884549 
L 500.682187 117.884549 
L 500.682187 117.261146 
L 502.949062 117.261146 
L 502.949062 116.636957 
L 505.215937 116.636957 
L 505.215937 116.087684 
L 507.482812 116.087684 
L 507.482812 115.458095 
L 509.749687 115.458095 
L 509.749687 114.905881 
L 512.016562 114.905881 
L 512.016562 114.510947 
L 514.283437 114.510947 
L 514.283437 113.87392 
L 516.550313 113.87392 
L 516.550313 112.589967 
L 518.817187 112.589967 
L 518.817187 111.702846 
L 521.084062 111.702846 
L 521.084062 111.297866 
L 523.350937 111.297866 
L 523.350937 110.077575 
L 525.617812 110.077575 
L 525.617812 109.259876 
L 527.884687 109.259876 
L 527.884687 108.685625 
L 530.151562 108.685625 
L 530.151562 108.025987 
L 532.418437 108.025987 
L 532.418437 107.281899 
L 534.685313 107.281899 
L 534.685313 106.784509 
L 536.952187 106.784509 
L 536.952187 105.619254 
L 539.219062 105.619254 
L 539.219062 104.532722 
L 541.485937 104.532722 
L 541.485937 103.692899 
L 543.752812 103.692899 
L 543.752812 103.187586 
L 546.019687 103.187586 
L 546.019687 102.678521 
L 548.286562 102.678521 
L 548.286562 101.825372 
L 550.553437 101.825372 
L 550.553437 100.793669 
L 552.820312 100.793669 
L 552.820312 99.759513 
L 555.087188 99.759513 
L 555.087188 98.978285 
L 557.354062 98.978285 
L 557.354062 98.542356 
L 559.620937 98.542356 
L 559.620937 97.843264 
L 561.887812 97.843264 
L 561.887812 97.227491 
L 564.154687 97.227491 
L 564.154687 96.079456 
L 566.421562 96.079456 
L 566.421562 95.192179 
L 568.688437 95.192179 
L 568.688437 94.479541 
L 570.955312 94.479541 
L 570.955312 93.763535 
L 573.222188 93.763535 
L 573.222188 93.223162 
L 575.489063 93.223162 
L 575.489063 92.31888 
L 577.755937 92.31888 
L 577.755937 91.592455 
L 580.022812 91.592455 
L 580.022812 90.770532 
L 582.289687 90.770532 
L 582.289687 90.034516 
L 584.556562 90.034516 
L 584.556562 89.478827 
L 586.823437 89.478827 
L 586.823437 88.545643 
L 589.090312 88.545643 
L 589.090312 88.07507 
L 591.357188 88.07507 
L 591.357188 87.412826 
L 593.624063 87.412826 
L 593.624063 86.553907 
L 595.890937 86.553907 
L 595.890937 85.498321 
L 598.157812 85.498321 
L 598.157812 84.823434 
L 600.424687 84.823434 
L 600.424687 84.046467 
L 602.691562 84.046467 
L 602.691562 83.459409 
L 604.958437 83.459409 
L 604.958437 82.869555 
L 607.225312 82.869555 
L 607.225312 81.9772 
L 609.492188 81.9772 
L 609.492188 81.27774 
L 611.759063 81.27774 
L 611.759063 80.371325 
L 614.025937 80.371325 
L 614.025937 79.257694 
L 616.292812 79.257694 
L 616.292812 78.440313 
L 618.559687 78.440313 
L 618.559687 78.235316 
L 620.826562 78.235316 
L 620.826562 77.201855 
L 623.093437 77.201855 
L 623.093437 76.268504 
L 625.360312 76.268504 
L 625.360312 75.326087 
L 627.627187 75.326087 
L 627.627187 74.373332 
L 629.894063 74.373332 
L 629.894063 73.947484 
L 632.160938 73.947484 
L 632.160938 73.199635 
L 634.427812 73.199635 
L 634.427812 72.444132 
L 636.694687 72.444132 
L 636.694687 71.360766 
L 638.961562 71.360766 
L 638.961562 70.812715 
L 641.228437 70.812715 
L 641.228437 70.044314 
L 643.495312 70.044314 
L 643.495312 69.267554 
L 645.762187 69.267554 
L 645.762187 68.484966 
L 648.029063 68.484966 
L 648.029063 67.471046 
L 650.295938 67.471046 
L 650.295938 65.769611 
L 652.562812 65.769611 
L 652.562812 65.086042 
L 654.829687 65.086042 
L 654.829687 64.970928 
L 657.096562 64.970928 
L 657.096562 64.272956 
L 659.363437 64.272956 
L 659.363437 63.332107 
L 661.630312 63.332107 
L 661.630312 62.263091 
L 663.897187 62.263091 
L 663.897187 61.904654 
L 666.164062 61.904654 
L 666.164062 61.065701 
L 668.430938 61.065701 
L 668.430938 60.458597 
L 670.697812 60.458597 
L 670.697812 59.728735 
L 672.964687 59.728735 
L 672.964687 59.358914 
L 675.231562 59.358914 
L 675.231562 58.612479 
L 677.498437 58.612479 
L 677.498437 57.856704 
L 679.765312 57.856704 
L 679.765312 56.970451 
L 682.032187 56.970451 
L 682.032187 56.33217 
L 684.299062 56.33217 
L 684.299062 55.303895 
L 686.565938 55.303895 
L 686.565938 54.266598 
L 688.832812 54.266598 
L 688.832812 53.743395 
L 691.099687 53.743395 
L 691.099687 53.083648 
L 693.366562 53.083648 
L 693.366562 52.420227 
L 695.633437 52.420227 
L 695.633437 51.885599 
L 697.900312 51.885599 
L 697.900312 51.345135 
L 700.167187 51.345135 
L 700.167187 50.936029 
L 702.434062 50.936029 
L 702.434062 50.248973 
L 704.700938 50.248973 
L 704.700938 49.832004 
L 706.967813 49.832004 
L 706.967813 49.691945 
L 709.234687 49.691945 
L 709.234687 48.844918 
L 711.501562 48.844918 
L 711.501562 48.13317 
L 713.768437 48.13317 
L 713.768437 47.560122 
L 716.035312 47.560122 
L 716.035312 46.552628 
L 718.302187 46.552628 
L 718.302187 46.116196 
L 720.569062 46.116196 
L 720.569062 45.676907 
L 722.835938 45.676907 
L 722.835938 44.795979 
L 725.102813 44.795979 
L 725.102813 44.499695 
L 727.369687 44.499695 
L 727.369687 43.755462 
L 729.636562 43.755462 
L 729.636562 42.861692 
L 731.903437 42.861692 
L 731.903437 42.260162 
L 734.170312 42.260162 
L 734.170312 41.655589 
L 736.437187 41.655589 
L 736.437187 40.735585 
L 738.704062 40.735585 
L 738.704062 39.501847 
L 740.970937 39.501847 
L 740.970937 38.257656 
L 743.237813 38.257656 
L 743.237813 37.942499 
L 745.504687 37.942499 
L 745.504687 37.467196 
L 747.771562 37.467196 
L 747.771562 36.985568 
L 750.038437 36.985568 
L 750.038437 36.498661 
L 752.305312 36.498661 
L 752.305312 36.498661 
L 754.572187 36.498661 
L 754.572187 35.827882 
L 756.839062 35.827882 
L 756.839062 34.979313 
L 759.105937 34.979313 
L 759.105937 34.120153 
L 761.372813 34.120153 
L 761.372813 32.719157 
L 763.639687 32.719157 
L 763.639687 32.541706 
L 765.906562 32.541706 
L 765.906562 31.469498 
L 768.173437 31.469498 
L 768.173437 30.929389 
L 770.440312 30.929389 
L 770.440312 30.016588 
L 772.707187 30.016588 
L 772.707187 29.648698 
L 774.974062 29.648698 
L 774.974062 28.71875 
L 777.240937 28.71875 
L 777.240937 28.530661 
L 779.507812 28.530661 
L 779.507812 27.764371 
L 781.774688 27.764371 
L 781.774688 27.376673 
L 784.041562 27.376673 
L 784.041562 26.981463 
L 786.308437 26.981463 
L 786.308437 26.184202 
L 788.575312 26.184202 
L 788.575312 26.184202 
L 790.842187 26.184202 
L 790.842187 25.353673 
L 793.109062 25.353673 
L 793.109062 24.708776 
L 795.375937 24.708776 
L 795.375937 24.045943 
L 797.642812 24.045943 
L 797.642812 24.045943 
L 799.909688 24.045943 
L 799.909688 23.591334 
L 802.176562 23.591334 
L 802.176562 23.358458 
L 804.443437 23.358458 
L 804.443437 22.64541 
L 806.710312 22.64541 
L 806.710312 22.147178 
L 808.977187 22.147178 
L 808.977187 21.642955 
L 811.244062 21.642955 
L 811.244062 21.383647 
L 813.510937 21.383647 
L 813.510937 21.383647 
L 815.777812 21.383647 
L 815.777812 20.834092 
L 818.044688 20.834092 
L 818.044688 20.266678 
L 820.311562 20.266678 
L 820.311562 19.091714 
L 822.578437 19.091714 
L 822.578437 19.091714 
L 824.845312 19.091714 
L 824.845312 18.477942 
L 827.112187 18.477942 
L 827.112187 17.840379 
L 829.379062 17.840379 
L 829.379062 17.181609 
L 831.645937 17.181609 
L 831.645937 16.840993 
L 833.912812 16.840993 
L 833.912812 16.840993 
L 836.179688 16.840993 
L 836.179688 16.840993 
L 838.446562 16.840993 
L 838.446562 16.044169 
L 840.713437 16.044169 
L 840.713437 15.62414 
L 842.980312 15.62414 
L 842.980312 15.62414 
L 845.247187 15.62414 
L 845.247187 15.62414 
L 847.514062 15.62414 
L 847.514062 14.596562 
L 849.780937 14.596562 
L 849.780937 13.511876 
L 852.047812 13.511876 
L 852.047812 12.931977 
L 854.314687 12.931977 
L 854.314687 12.931977 
L 856.581563 12.931977 
L 856.581563 12.253501 
L 858.848437 12.253501 
L 858.848437 12.253501 
L 861.115312 12.253501 
L 861.115312 12.253501 
L 863.382187 12.253501 
L 863.382187 11.398624 
L 865.649062 11.398624 
L 865.649062 11.398624 
L 867.915937 11.398624 
L 867.915937 10.429746 
L 870.182812 10.429746 
L 870.182812 10.429746 
L 872.449687 10.429746 
L 872.449687 10.429746 
L 874.716563 10.429746 
L 874.716563 10.429746 
L 874.716563 -2.396083 
L 874.716563 -2.396083 
L 874.716563 -2.396083 
L 872.449687 -2.396083 
L 872.449687 -2.396083 
L 870.182812 -2.396083 
L 870.182812 -2.396083 
L 867.915937 -2.396083 
L 867.915937 0.450458 
L 865.649062 0.450458 
L 865.649062 0.450458 
L 863.382187 0.450458 
L 863.382187 2.157149 
L 861.115312 2.157149 
L 861.115312 2.157149 
L 858.848437 2.157149 
L 858.848437 2.157149 
L 856.581563 2.157149 
L 856.581563 3.12592 
L 854.314687 3.12592 
L 854.314687 3.12592 
L 852.047812 3.12592 
L 852.047812 3.865088 
L 849.780937 3.865088 
L 849.780937 5.227801 
L 847.514062 5.227801 
L 847.514062 6.526257 
L 845.247187 6.526257 
L 845.247187 6.526257 
L 842.980312 6.526257 
L 842.980312 6.526257 
L 840.713437 6.526257 
L 840.713437 7.008003 
L 838.446562 7.008003 
L 838.446562 7.910154 
L 836.179688 7.910154 
L 836.179688 7.910154 
L 833.912812 7.910154 
L 833.912812 7.910154 
L 831.645937 7.910154 
L 831.645937 8.274915 
L 829.379062 8.274915 
L 829.379062 8.97617 
L 827.112187 8.97617 
L 827.112187 9.652255 
L 824.845312 9.652255 
L 824.845312 10.299264 
L 822.578437 10.299264 
L 822.578437 10.299264 
L 820.311562 10.299264 
L 820.311562 11.53149 
L 818.044688 11.53149 
L 818.044688 12.125092 
L 815.777812 12.125092 
L 815.777812 12.697388 
L 813.510937 12.697388 
L 813.510937 12.697388 
L 811.244062 12.697388 
L 811.244062 12.963964 
L 808.977187 12.963964 
L 808.977187 13.479857 
L 806.710312 13.479857 
L 806.710312 13.989775 
L 804.443437 13.989775 
L 804.443437 14.713809 
L 802.176562 14.713809 
L 802.176562 14.949781 
L 799.909688 14.949781 
L 799.909688 15.408715 
L 797.642812 15.408715 
L 797.642812 15.408715 
L 795.375937 15.408715 
L 795.375937 16.075529 
L 793.109062 16.075529 
L 793.109062 16.722506 
L 790.842187 16.722506 
L 790.842187 17.552449 
L 788.575312 17.552449 
L 788.575312 17.552449 
L 786.308437 17.552449 
L 786.308437 18.345342 
L 784.041562 18.345342 
L 784.041562 18.738657 
L 781.774688 18.738657 
L 781.774688 19.123657 
L 779.507812 19.123657 
L 779.507812 19.884541 
L 777.240937 19.884541 
L 777.240937 20.070992 
L 774.974062 20.070992 
L 774.974062 20.99273 
L 772.707187 20.99273 
L 772.707187 21.35745 
L 770.440312 21.35745 
L 770.440312 22.26308 
L 768.173437 22.26308 
L 768.173437 22.798896 
L 765.906562 22.798896 
L 765.906562 23.863905 
L 763.639687 23.863905 
L 763.639687 24.040295 
L 761.372813 24.040295 
L 761.372813 25.433089 
L 759.105937 25.433089 
L 759.105937 26.287353 
L 756.839062 26.287353 
L 756.839062 27.131409 
L 754.572187 27.131409 
L 754.572187 27.798728 
L 752.305312 27.798728 
L 752.305312 27.798728 
L 750.038437 27.798728 
L 750.038437 28.281373 
L 747.771562 28.281373 
L 747.771562 28.758561 
L 745.504687 28.758561 
L 745.504687 29.229087 
L 743.237813 29.229087 
L 743.237813 29.541115 
L 740.970937 29.541115 
L 740.970937 30.77277 
L 738.704062 30.77277 
L 738.704062 31.995993 
L 736.437187 31.995993 
L 736.437187 32.909584 
L 734.170312 32.909584 
L 734.170312 33.509702 
L 731.903437 33.509702 
L 731.903437 34.10714 
L 729.636562 34.10714 
L 729.636562 34.995032 
L 727.369687 34.995032 
L 727.369687 35.735545 
L 725.102813 35.735545 
L 725.102813 36.030471 
L 722.835938 36.030471 
L 722.835938 36.907314 
L 720.569062 36.907314 
L 720.569062 37.344985 
L 718.302187 37.344985 
L 718.302187 37.779799 
L 716.035312 37.779799 
L 716.035312 38.783508 
L 713.768437 38.783508 
L 713.768437 39.354914 
L 711.501562 39.354914 
L 711.501562 40.064881 
L 709.234687 40.064881 
L 709.234687 40.910086 
L 706.967813 40.910086 
L 706.967813 41.049825 
L 704.700938 41.049825 
L 704.700938 41.465637 
L 702.434062 41.465637 
L 702.434062 42.150445 
L 700.167187 42.150445 
L 700.167187 42.558204 
L 697.900312 42.558204 
L 697.900312 43.096695 
L 695.633437 43.096695 
L 695.633437 43.629125 
L 693.366562 43.629125 
L 693.366562 44.289867 
L 691.099687 44.289867 
L 691.099687 44.9472 
L 688.832812 44.9472 
L 688.832812 45.468422 
L 686.565938 45.468422 
L 686.565938 46.501951 
L 684.299062 46.501951 
L 684.299062 47.527034 
L 682.032187 47.527034 
L 682.032187 48.163613 
L 679.765312 48.163613 
L 679.765312 49.04764 
L 677.498437 49.04764 
L 677.498437 49.801967 
L 675.231562 49.801967 
L 675.231562 50.546702 
L 672.964687 50.546702 
L 672.964687 50.915585 
L 670.697812 50.915585 
L 670.697812 51.643043 
L 668.430938 51.643043 
L 668.430938 52.248566 
L 666.164062 52.248566 
L 666.164062 53.084922 
L 663.897187 53.084922 
L 663.897187 53.442404 
L 661.630312 53.442404 
L 661.630312 54.508865 
L 659.363437 54.508865 
L 659.363437 55.447646 
L 657.096562 55.447646 
L 657.096562 56.143972 
L 654.829687 56.143972 
L 654.829687 56.258745 
L 652.562812 56.258745 
L 652.562812 56.93986 
L 650.295938 56.93986 
L 650.295938 58.636758 
L 648.029063 58.636758 
L 648.029063 59.648841 
L 645.762187 59.648841 
L 645.762187 60.430192 
L 643.495312 60.430192 
L 643.495312 61.205807 
L 641.228437 61.205807 
L 641.228437 61.972887 
L 638.961562 61.972887 
L 638.961562 62.520303 
L 636.694687 62.520303 
L 636.694687 63.602093 
L 634.427812 63.602093 
L 634.427812 64.356943 
L 632.160938 64.356943 
L 632.160938 65.103981 
L 629.894063 65.103981 
L 629.894063 65.529476 
L 627.627187 65.529476 
L 627.627187 66.481582 
L 625.360312 66.481582 
L 625.360312 67.423255 
L 623.093437 67.423255 
L 623.093437 68.355863 
L 620.826562 68.355863 
L 620.826562 69.389137 
L 618.559687 69.389137 
L 618.559687 69.594059 
L 616.292812 69.594059 
L 616.292812 70.411291 
L 614.025937 70.411291 
L 614.025937 71.524764 
L 611.759063 71.524764 
L 611.759063 72.431451 
L 609.492188 72.431451 
L 609.492188 73.131124 
L 607.225312 73.131124 
L 607.225312 74.023751 
L 604.958437 74.023751 
L 604.958437 74.613715 
L 602.691562 74.613715 
L 602.691562 75.200931 
L 600.424687 75.200931 
L 600.424687 75.978046 
L 598.157812 75.978046 
L 598.157812 76.653037 
L 595.890937 76.653037 
L 595.890937 77.709107 
L 593.624063 77.709107 
L 593.624063 78.568681 
L 591.357188 78.568681 
L 591.357188 79.231338 
L 589.090312 79.231338 
L 589.090312 79.702207 
L 586.823437 79.702207 
L 586.823437 80.635814 
L 584.556562 80.635814 
L 584.556562 81.191721 
L 582.289687 81.191721 
L 582.289687 81.927976 
L 580.022812 81.927976 
L 580.022812 82.750141 
L 577.755937 82.750141 
L 577.755937 83.476852 
L 575.489063 83.476852 
L 575.489063 84.381723 
L 573.222188 84.381723 
L 573.222188 84.922552 
L 570.955312 84.922552 
L 570.955312 85.639122 
L 568.688437 85.639122 
L 568.688437 86.35241 
L 566.421562 86.35241 
L 566.421562 87.240714 
L 564.154687 87.240714 
L 564.154687 88.39046 
L 561.887812 88.39046 
L 561.887812 89.007338 
L 559.620937 89.007338 
L 559.620937 89.707631 
L 557.354062 89.707631 
L 557.354062 90.144398 
L 555.087188 90.144398 
L 555.087188 90.92718 
L 552.820312 90.92718 
L 552.820312 91.963434 
L 550.553437 91.963434 
L 550.553437 92.997748 
L 548.286562 92.997748 
L 548.286562 93.853074 
L 546.019687 93.853074 
L 546.019687 94.363447 
L 543.752812 94.363447 
L 543.752812 94.869935 
L 541.485937 94.869935 
L 541.485937 95.711889 
L 539.219062 95.711889 
L 539.219062 96.801442 
L 536.952187 96.801442 
L 536.952187 97.970392 
L 534.685313 97.970392 
L 534.685313 98.469466 
L 532.418437 98.469466 
L 532.418437 99.216208 
L 530.151562 99.216208 
L 530.151562 99.878352 
L 527.884687 99.878352 
L 527.884687 100.454782 
L 525.617812 100.454782 
L 525.617812 101.275732 
L 523.350937 101.275732 
L 523.350937 102.501161 
L 521.084062 102.501161 
L 521.084062 102.907913 
L 518.817187 102.907913 
L 518.817187 103.798971 
L 516.550313 103.798971 
L 516.550313 105.088976 
L 514.283437 105.088976 
L 514.283437 105.729004 
L 512.016562 105.729004 
L 512.016562 106.125685 
L 509.749687 106.125685 
L 509.749687 106.68044 
L 507.482812 106.68044 
L 507.482812 107.313029 
L 505.215937 107.313029 
L 505.215937 107.864987 
L 502.949062 107.864987 
L 502.949062 108.492179 
L 500.682187 108.492179 
L 500.682187 109.118742 
L 498.415312 109.118742 
L 498.415312 109.587367 
L 496.148437 109.587367 
L 496.148437 110.520467 
L 493.881562 110.520467 
L 493.881562 111.218443 
L 491.614687 111.218443 
L 491.614687 111.834072 
L 489.347812 111.834072 
L 489.347812 112.52522 
L 487.080937 112.52522 
L 487.080937 113.289471 
L 484.814062 113.289471 
L 484.814062 114.278853 
L 482.547187 114.278853 
L 482.547187 115.336535 
L 480.280312 115.336535 
L 480.280312 116.54242 
L 478.013437 116.54242 
L 478.013437 117.218733 
L 475.746562 117.218733 
L 475.746562 117.817783 
L 473.479687 117.817783 
L 473.479687 118.786861 
L 471.212812 118.786861 
L 471.212812 119.455819 
L 468.945937 119.455819 
L 468.945937 120.269401 
L 466.679062 120.269401 
L 466.679062 121.374594 
L 464.412187 121.374594 
L 464.412187 121.815203 
L 462.145312 121.815203 
L 462.145312 122.837344 
L 459.878437 122.837344 
L 459.878437 123.419812 
L 457.611562 123.419812 
L 457.611562 124.072308 
L 455.344687 124.072308 
L 455.344687 124.577175 
L 453.077812 124.577175 
L 453.077812 125.151197 
L 450.810937 125.151197 
L 450.810937 126.151145 
L 448.544062 126.151145 
L 448.544062 126.721302 
L 446.277187 126.721302 
L 446.277187 127.502822 
L 444.010312 127.502822 
L 444.010312 128.63561 
L 441.743437 128.63561 
L 441.743437 129.201073 
L 439.476562 129.201073 
L 439.476562 130.329633 
L 437.209687 130.329633 
L 437.209687 130.961708 
L 434.942812 130.961708 
L 434.942812 131.872813 
L 432.675937 131.872813 
L 432.675937 132.361306 
L 430.409062 132.361306 
L 430.409062 133.543152 
L 428.142187 133.543152 
L 428.142187 134.375397 
L 425.875312 134.375397 
L 425.875312 135.066347 
L 423.608437 135.066347 
L 423.608437 135.825532 
L 421.341562 135.825532 
L 421.341562 136.85745 
L 419.074687 136.85745 
L 419.074687 137.817523 
L 416.807812 137.817523 
L 416.807812 138.637841 
L 414.540937 138.637841 
L 414.540937 139.729549 
L 412.274062 139.729549 
L 412.274062 140.613826 
L 410.007187 140.613826 
L 410.007187 141.156078 
L 407.740312 141.156078 
L 407.740312 142.171317 
L 405.473437 142.171317 
L 405.473437 142.981375 
L 403.206562 142.981375 
L 403.206562 143.452649 
L 400.939687 143.452649 
L 400.939687 144.124105 
L 398.672812 144.124105 
L 398.672812 144.79221 
L 396.405937 144.79221 
L 396.405937 145.592175 
L 394.139062 145.592175 
L 394.139062 146.788174 
L 391.872187 146.788174 
L 391.872187 147.648813 
L 389.605312 147.648813 
L 389.605312 148.835268 
L 387.338437 148.835268 
L 387.338437 149.360884 
L 385.071562 149.360884 
L 385.071562 150.344349 
L 382.804687 150.344349 
L 382.804687 150.736765 
L 380.537812 150.736765 
L 380.537812 151.454676 
L 378.270937 151.454676 
L 378.270937 152.561522 
L 376.004062 152.561522 
L 376.004062 153.341265 
L 373.737187 153.341265 
L 373.737187 154.119152 
L 371.470312 154.119152 
L 371.470312 155.087834 
L 369.203437 155.087834 
L 369.203437 155.925713 
L 366.936562 155.925713 
L 366.936562 156.633291 
L 364.669687 156.633291 
L 364.669687 157.787283 
L 362.402812 157.787283 
L 362.402812 158.811133 
L 360.135937 158.811133 
L 360.135937 159.704072 
L 357.869062 159.704072 
L 357.869062 160.851192 
L 355.602187 160.851192 
L 355.602187 161.677007 
L 353.335312 161.677007 
L 353.335312 162.120529 
L 351.068437 162.120529 
L 351.068437 162.879661 
L 348.801562 162.879661 
L 348.801562 163.763087 
L 346.534687 163.763087 
L 346.534687 164.329763 
L 344.267812 164.329763 
L 344.267812 165.271554 
L 342.000937 165.271554 
L 342.000937 166.024125 
L 339.734062 166.024125 
L 339.734062 166.774597 
L 337.467187 166.774597 
L 337.467187 167.709193 
L 335.200312 167.709193 
L 335.200312 168.952387 
L 332.933437 168.952387 
L 332.933437 170.131451 
L 330.666562 170.131451 
L 330.666562 170.750159 
L 328.399687 170.750159 
L 328.399687 171.429541 
L 326.132812 171.429541 
L 326.132812 172.231059 
L 323.865937 172.231059 
L 323.865937 172.661625 
L 321.599062 172.661625 
L 321.599062 173.337254 
L 319.332187 173.337254 
L 319.332187 173.889087 
L 317.065312 173.889087 
L 317.065312 174.440983 
L 314.798437 174.440983 
L 314.798437 174.991926 
L 312.531562 174.991926 
L 312.531562 175.846198 
L 310.264687 175.846198 
L 310.264687 176.576776 
L 307.997812 176.576776 
L 307.997812 177.305705 
L 305.730937 177.305705 
L 305.730937 178.397338 
L 303.464062 178.397338 
L 303.464062 179.486298 
L 301.197187 179.486298 
L 301.197187 180.270834 
L 298.930312 180.270834 
L 298.930312 181.476647 
L 296.663437 181.476647 
L 296.663437 182.378573 
L 294.396562 182.378573 
L 294.396562 183.157221 
L 292.129687 183.157221 
L 292.129687 184.113805 
L 289.862812 184.113805 
L 289.862812 184.770442 
L 287.595937 184.770442 
L 287.595937 185.544603 
L 285.329062 185.544603 
L 285.329062 186.436509 
L 283.062187 186.436509 
L 283.062187 187.20898 
L 280.795312 187.20898 
L 280.795312 187.861794 
L 278.528437 187.861794 
L 278.528437 188.928448 
L 276.261562 188.928448 
L 276.261562 189.401155 
L 273.994687 189.401155 
L 273.994687 190.698128 
L 271.727812 190.698128 
L 271.727812 191.404563 
L 269.460938 191.404563 
L 269.460938 192.345108 
L 267.194062 192.345108 
L 267.194062 192.931936 
L 264.927187 192.931936 
L 264.927187 193.987278 
L 262.660312 193.987278 
L 262.660312 194.338549 
L 260.393438 194.338549 
L 260.393438 195.273656 
L 258.126562 195.273656 
L 258.126562 196.323931 
L 255.859687 196.323931 
L 255.859687 197.081218 
L 253.592812 197.081218 
L 253.592812 197.605018 
L 251.325937 197.605018 
L 251.325937 198.185876 
L 249.059062 198.185876 
L 249.059062 199.114197 
L 246.792187 199.114197 
L 246.792187 200.32851 
L 244.525312 200.32851 
L 244.525312 200.963408 
L 242.258437 200.963408 
L 242.258437 201.771179 
L 239.991562 201.771179 
L 239.991562 202.634836 
L 237.724687 202.634836 
L 237.724687 203.554862 
L 235.457812 203.554862 
L 235.457812 204.473235 
L 233.190937 204.473235 
L 233.190937 205.218438 
L 230.924062 205.218438 
L 230.924062 206.077379 
L 228.657187 206.077379 
L 228.657187 206.591425 
L 226.390312 206.591425 
L 226.390312 207.332767 
L 224.123437 207.332767 
L 224.123437 207.845575 
L 221.856562 207.845575 
L 221.856562 208.52808 
L 219.589687 208.52808 
L 219.589687 209.494446 
L 217.322812 209.494446 
L 217.322812 210.629708 
L 215.055937 210.629708 
L 215.055937 211.479925 
L 212.789062 211.479925 
L 212.789062 212.045748 
L 210.522187 212.045748 
L 210.522187 212.780209 
L 208.255312 212.780209 
L 208.255312 213.795685 
L 205.988437 213.795685 
L 205.988437 214.641112 
L 203.721562 214.641112 
L 203.721562 215.147738 
L 201.454687 215.147738 
L 201.454687 215.878447 
L 199.187812 215.878447 
L 199.187812 216.552124 
L 196.920937 216.552124 
L 196.920937 217.616787 
L 194.654062 217.616787 
L 194.654062 218.62452 
L 192.387187 218.62452 
L 192.387187 219.071663 
L 190.120312 219.071663 
L 190.120312 219.741862 
L 187.853437 219.741862 
L 187.853437 220.689349 
L 185.586562 220.689349 
L 185.586562 221.413401 
L 183.319687 221.413401 
L 183.319687 222.191722 
L 181.052812 222.191722 
L 181.052812 222.802686 
L 178.785937 222.802686 
L 178.785937 223.635609 
L 176.519062 223.635609 
L 176.519062 224.689269 
L 174.252187 224.689269 
L 174.252187 225.853164 
L 171.985312 225.853164 
L 171.985312 226.627935 
L 169.718437 226.627935 
L 169.718437 227.512234 
L 167.451562 227.512234 
L 167.451562 228.561941 
L 165.184687 228.561941 
L 165.184687 229.334267 
L 162.917812 229.334267 
L 162.917812 229.940823 
L 160.650937 229.940823 
L 160.650937 230.932317 
L 158.384062 230.932317 
L 158.384062 231.702688 
L 156.117188 231.702688 
L 156.117188 232.362583 
L 153.850312 232.362583 
L 153.850312 232.747008 
L 151.583438 232.747008 
L 151.583438 233.404866 
L 149.316562 233.404866 
L 149.316562 234.171723 
L 147.049688 234.171723 
L 147.049688 234.500224 
L 144.782812 234.500224 
L 144.782812 235.320587 
L 142.515938 235.320587 
L 142.515938 235.8127 
L 140.249062 235.8127 
L 140.249062 236.959584 
L 137.982187 236.959584 
L 137.982187 237.723297 
L 135.715312 237.723297 
L 135.715312 238.431308 
L 133.448437 238.431308 
L 133.448437 239.138317 
L 131.181562 239.138317 
L 131.181562 239.844331 
L 128.914687 239.844331 
L 128.914687 240.713149 
L 126.647812 240.713149 
L 126.647812 241.417958 
L 124.380937 241.417958 
L 124.380937 242.176716 
L 122.114062 242.176716 
L 122.114062 242.98858 
L 119.847187 242.98858 
L 119.847187 244.449061 
L 117.580312 244.449061 
L 117.580312 245.853096 
L 115.313437 245.853096 
L 115.313437 247.148246 
L 113.046562 247.148246 
L 113.046562 248.280244 
L 110.779687 248.280244 
L 110.779687 249.409856 
L 108.512812 249.409856 
L 108.512812 251.453255 
L 106.245937 251.453255 
L 106.245937 253.601546 
L 103.979062 253.601546 
L 103.979062 255.534189 
L 101.712187 255.534189 
L 101.712187 257.250961 
L 99.445312 257.250961 
L 99.445312 259.5589 
L 97.178438 259.5589 
L 97.178438 260.953668 
L 94.911563 260.953668 
L 94.911563 262.563169 
L 92.644687 262.563169 
L 92.644687 264.816541 
L 90.377812 264.816541 
L 90.377812 266.695086 
L 88.110937 266.695086 
L 88.110937 268.73402 
L 85.844062 268.73402 
L 85.844062 270.129574 
L 83.577187 270.129574 
L 83.577187 272.546452 
L 81.310312 272.546452 
L 81.310312 274.105569 
L 79.043437 274.105569 
L 79.043437 276.042532 
L 76.776562 276.042532 
L 76.776562 277.551248 
L 74.509687 277.551248 
L 74.509687 279.222901 
L 72.242812 279.222901 
L 72.242812 280.679689 
L 69.975937 280.679689 
L 69.975937 282.571289 
L 67.709062 282.571289 
L 67.709062 284.684112 
L 65.442187 284.684112 
L 65.442187 286.585563 
L 63.175312 286.585563 
L 63.175312 288.274594 
L 60.908437 288.274594 
L 60.908437 289.858478 
L 58.641562 289.858478 
L 58.641562 291.670322 
L 56.374687 291.670322 
L 56.374687 293.66192 
L 54.107812 293.66192 
L 54.107812 295.676973 
L 51.840937 295.676973 
L 51.840937 297.271105 
L 49.574062 297.271105 
L 49.574062 298.613066 
L 47.307187 298.613066 
L 47.307187 301.037812 
L 47.307187 301.037812 
z
" clip-path="url(#p2fe4a60c95)" style="fill: #7ba6d0; fill-opacity: 0.15; stroke: #7ba6d0; stroke-opacity: 0.15"/>
   </g>
   <g id="matplotlib.axis_1">
    <g id="xtick_1">
     <g id="line2d_1">
      <defs>
       <path id="m15a974fe03" d="M 0 0 
L 0 3.5 
" style="stroke: #000000; stroke-width: 0.8"/>
      </defs>
      <g>
       <use xlink:href="#m15a974fe03" x="47.307187" y="301.037812" style="stroke: #000000; stroke-width: 0.8"/>
      </g>
     </g>
     <g id="text_1">
      <!-- 0 -->
      <g transform="translate(43.807812 316.396094) scale(0.11 -0.11)">
       <defs>
        <path id="DejaVuSans-30" d="M 2034 4250 
Q 1547 4250 1301 3770 
Q 1056 3291 1056 2328 
Q 1056 1369 1301 889 
Q 1547 409 2034 409 
Q 2525 409 2770 889 
Q 3016 1369 3016 2328 
Q 3016 3291 2770 3770 
Q 2525 4250 2034 4250 
z
M 2034 4750 
Q 2819 4750 3233 4129 
Q 3647 3509 3647 2328 
Q 3647 1150 3233 529 
Q 2819 -91 2034 -91 
Q 1250 -91 836 529 
Q 422 1150 422 2328 
Q 422 3509 836 4129 
Q 1250 4750 2034 4750 
z
" transform="scale(0.015625)"/>
       </defs>
       <use xlink:href="#DejaVuSans-30"/>
      </g>
     </g>
    </g>
    <g id="xtick_2">
     <g id="line2d_2">
      <g>
       <use xlink:href="#m15a974fe03" x="160.650937" y="301.037812" style="stroke: #000000; stroke-width: 0.8"/>
      </g>
     </g>
     <g id="text_2">
      <!-- 50 -->
      <g transform="translate(153.652187 316.396094) scale(0.11 -0.11)">
       <defs>
        <path id="DejaVuSans-35" d="M 691 4666 
L 3169 4666 
L 3169 4134 
L 1269 4134 
L 1269 2991 
Q 1406 3038 1543 3061 
Q 1681 3084 1819 3084 
Q 2600 3084 3056 2656 
Q 3513 2228 3513 1497 
Q 3513 744 3044 326 
Q 2575 -91 1722 -91 
Q 1428 -91 1123 -41 
Q 819 9 494 109 
L 494 744 
Q 775 591 1075 516 
Q 1375 441 1709 441 
Q 2250 441 2565 725 
Q 2881 1009 2881 1497 
Q 2881 1984 2565 2268 
Q 2250 2553 1709 2553 
Q 1456 2553 1204 2497 
Q 953 2441 691 2322 
L 691 4666 
z
" transform="scale(0.015625)"/>
       </defs>
       <use xlink:href="#DejaVuSans-35"/>
       <use xlink:href="#DejaVuSans-30" transform="translate(63.623047 0)"/>
      </g>
     </g>
    </g>
    <g id="xtick_3">
     <g id="line2d_3">
      <g>
       <use xlink:href="#m15a974fe03" x="273.994687" y="301.037812" style="stroke: #000000; stroke-width: 0.8"/>
      </g>
     </g>
     <g id="text_3">
      <!-- 100 -->
      <g transform="translate(263.496562 316.396094) scale(0.11 -0.11)">
       <defs>
        <path id="DejaVuSans-31" d="M 794 531 
L 1825 531 
L 1825 4091 
L 703 3866 
L 703 4441 
L 1819 4666 
L 2450 4666 
L 2450 531 
L 3481 531 
L 3481 0 
L 794 0 
L 794 531 
z
" transform="scale(0.015625)"/>
       </defs>
       <use xlink:href="#DejaVuSans-31"/>
       <use xlink:href="#DejaVuSans-30" transform="translate(63.623047 0)"/>
       <use xlink:href="#DejaVuSans-30" transform="translate(127.246094 0)"/>
      </g>
     </g>
    </g>
    <g id="xtick_4">
     <g id="line2d_4">
      <g>
       <use xlink:href="#m15a974fe03" x="387.338437" y="301.037812" style="stroke: #000000; stroke-width: 0.8"/>
      </g>
     </g>
     <g id="text_4">
      <!-- 150 -->
      <g transform="translate(376.840312 316.396094) scale(0.11 -0.11)">
       <use xlink:href="#DejaVuSans-31"/>
       <use xlink:href="#DejaVuSans-35" transform="translate(63.623047 0)"/>
       <use xlink:href="#DejaVuSans-30" transform="translate(127.246094 0)"/>
      </g>
     </g>
    </g>
    <g id="xtick_5">
     <g id="line2d_5">
      <g>
       <use xlink:href="#m15a974fe03" x="500.682187" y="301.037812" style="stroke: #000000; stroke-width: 0.8"/>
      </g>
     </g>
     <g id="text_5">
      <!-- 200 -->
      <g transform="translate(490.184062 316.396094) scale(0.11 -0.11)">
       <defs>
        <path id="DejaVuSans-32" d="M 1228 531 
L 3431 531 
L 3431 0 
L 469 0 
L 469 531 
Q 828 903 1448 1529 
Q 2069 2156 2228 2338 
Q 2531 2678 2651 2914 
Q 2772 3150 2772 3378 
Q 2772 3750 2511 3984 
Q 2250 4219 1831 4219 
Q 1534 4219 1204 4116 
Q 875 4013 500 3803 
L 500 4441 
Q 881 4594 1212 4672 
Q 1544 4750 1819 4750 
Q 2544 4750 2975 4387 
Q 3406 4025 3406 3419 
Q 3406 3131 3298 2873 
Q 3191 2616 2906 2266 
Q 2828 2175 2409 1742 
Q 1991 1309 1228 531 
z
" transform="scale(0.015625)"/>
       </defs>
       <use xlink:href="#DejaVuSans-32"/>
       <use xlink:href="#DejaVuSans-30" transform="translate(63.623047 0)"/>
       <use xlink:href="#DejaVuSans-30" transform="translate(127.246094 0)"/>
      </g>
     </g>
    </g>
    <g id="xtick_6">
     <g id="line2d_6">
      <g>
       <use xlink:href="#m15a974fe03" x="614.025937" y="301.037812" style="stroke: #000000; stroke-width: 0.8"/>
      </g>
     </g>
     <g id="text_6">
      <!-- 250 -->
      <g transform="translate(603.527812 316.396094) scale(0.11 -0.11)">
       <use xlink:href="#DejaVuSans-32"/>
       <use xlink:href="#DejaVuSans-35" transform="translate(63.623047 0)"/>
       <use xlink:href="#DejaVuSans-30" transform="translate(127.246094 0)"/>
      </g>
     </g>
    </g>
    <g id="xtick_7">
     <g id="line2d_7">
      <g>
       <use xlink:href="#m15a974fe03" x="727.369687" y="301.037812" style="stroke: #000000; stroke-width: 0.8"/>
      </g>
     </g>
     <g id="text_7">
      <!-- 300 -->
      <g transform="translate(716.871562 316.396094) scale(0.11 -0.11)">
       <defs>
        <path id="DejaVuSans-33" d="M 2597 2516 
Q 3050 2419 3304 2112 
Q 3559 1806 3559 1356 
Q 3559 666 3084 287 
Q 2609 -91 1734 -91 
Q 1441 -91 1130 -33 
Q 819 25 488 141 
L 488 750 
Q 750 597 1062 519 
Q 1375 441 1716 441 
Q 2309 441 2620 675 
Q 2931 909 2931 1356 
Q 2931 1769 2642 2001 
Q 2353 2234 1838 2234 
L 1294 2234 
L 1294 2753 
L 1863 2753 
Q 2328 2753 2575 2939 
Q 2822 3125 2822 3475 
Q 2822 3834 2567 4026 
Q 2313 4219 1838 4219 
Q 1578 4219 1281 4162 
Q 984 4106 628 3988 
L 628 4550 
Q 988 4650 1302 4700 
Q 1616 4750 1894 4750 
Q 2613 4750 3031 4423 
Q 3450 4097 3450 3541 
Q 3450 3153 3228 2886 
Q 3006 2619 2597 2516 
z
" transform="scale(0.015625)"/>
       </defs>
       <use xlink:href="#DejaVuSans-33"/>
       <use xlink:href="#DejaVuSans-30" transform="translate(63.623047 0)"/>
       <use xlink:href="#DejaVuSans-30" transform="translate(127.246094 0)"/>
      </g>
     </g>
    </g>
    <g id="text_8">
     <!-- Days from diagnosis index -->
     <g transform="translate(330.583125 331.801875) scale(0.12 -0.12)">
      <defs>
       <path id="DejaVuSans-44" d="M 1259 4147 
L 1259 519 
L 2022 519 
Q 2988 519 3436 956 
Q 3884 1394 3884 2338 
Q 3884 3275 3436 3711 
Q 2988 4147 2022 4147 
L 1259 4147 
z
M 628 4666 
L 1925 4666 
Q 3281 4666 3915 4102 
Q 4550 3538 4550 2338 
Q 4550 1131 3912 565 
Q 3275 0 1925 0 
L 628 0 
L 628 4666 
z
" transform="scale(0.015625)"/>
       <path id="DejaVuSans-61" d="M 2194 1759 
Q 1497 1759 1228 1600 
Q 959 1441 959 1056 
Q 959 750 1161 570 
Q 1363 391 1709 391 
Q 2188 391 2477 730 
Q 2766 1069 2766 1631 
L 2766 1759 
L 2194 1759 
z
M 3341 1997 
L 3341 0 
L 2766 0 
L 2766 531 
Q 2569 213 2275 61 
Q 1981 -91 1556 -91 
Q 1019 -91 701 211 
Q 384 513 384 1019 
Q 384 1609 779 1909 
Q 1175 2209 1959 2209 
L 2766 2209 
L 2766 2266 
Q 2766 2663 2505 2880 
Q 2244 3097 1772 3097 
Q 1472 3097 1187 3025 
Q 903 2953 641 2809 
L 641 3341 
Q 956 3463 1253 3523 
Q 1550 3584 1831 3584 
Q 2591 3584 2966 3190 
Q 3341 2797 3341 1997 
z
" transform="scale(0.015625)"/>
       <path id="DejaVuSans-79" d="M 2059 -325 
Q 1816 -950 1584 -1140 
Q 1353 -1331 966 -1331 
L 506 -1331 
L 506 -850 
L 844 -850 
Q 1081 -850 1212 -737 
Q 1344 -625 1503 -206 
L 1606 56 
L 191 3500 
L 800 3500 
L 1894 763 
L 2988 3500 
L 3597 3500 
L 2059 -325 
z
" transform="scale(0.015625)"/>
       <path id="DejaVuSans-73" d="M 2834 3397 
L 2834 2853 
Q 2591 2978 2328 3040 
Q 2066 3103 1784 3103 
Q 1356 3103 1142 2972 
Q 928 2841 928 2578 
Q 928 2378 1081 2264 
Q 1234 2150 1697 2047 
L 1894 2003 
Q 2506 1872 2764 1633 
Q 3022 1394 3022 966 
Q 3022 478 2636 193 
Q 2250 -91 1575 -91 
Q 1294 -91 989 -36 
Q 684 19 347 128 
L 347 722 
Q 666 556 975 473 
Q 1284 391 1588 391 
Q 1994 391 2212 530 
Q 2431 669 2431 922 
Q 2431 1156 2273 1281 
Q 2116 1406 1581 1522 
L 1381 1569 
Q 847 1681 609 1914 
Q 372 2147 372 2553 
Q 372 3047 722 3315 
Q 1072 3584 1716 3584 
Q 2034 3584 2315 3537 
Q 2597 3491 2834 3397 
z
" transform="scale(0.015625)"/>
       <path id="DejaVuSans-20" transform="scale(0.015625)"/>
       <path id="DejaVuSans-66" d="M 2375 4863 
L 2375 4384 
L 1825 4384 
Q 1516 4384 1395 4259 
Q 1275 4134 1275 3809 
L 1275 3500 
L 2222 3500 
L 2222 3053 
L 1275 3053 
L 1275 0 
L 697 0 
L 697 3053 
L 147 3053 
L 147 3500 
L 697 3500 
L 697 3744 
Q 697 4328 969 4595 
Q 1241 4863 1831 4863 
L 2375 4863 
z
" transform="scale(0.015625)"/>
       <path id="DejaVuSans-72" d="M 2631 2963 
Q 2534 3019 2420 3045 
Q 2306 3072 2169 3072 
Q 1681 3072 1420 2755 
Q 1159 2438 1159 1844 
L 1159 0 
L 581 0 
L 581 3500 
L 1159 3500 
L 1159 2956 
Q 1341 3275 1631 3429 
Q 1922 3584 2338 3584 
Q 2397 3584 2469 3576 
Q 2541 3569 2628 3553 
L 2631 2963 
z
" transform="scale(0.015625)"/>
       <path id="DejaVuSans-6f" d="M 1959 3097 
Q 1497 3097 1228 2736 
Q 959 2375 959 1747 
Q 959 1119 1226 758 
Q 1494 397 1959 397 
Q 2419 397 2687 759 
Q 2956 1122 2956 1747 
Q 2956 2369 2687 2733 
Q 2419 3097 1959 3097 
z
M 1959 3584 
Q 2709 3584 3137 3096 
Q 3566 2609 3566 1747 
Q 3566 888 3137 398 
Q 2709 -91 1959 -91 
Q 1206 -91 779 398 
Q 353 888 353 1747 
Q 353 2609 779 3096 
Q 1206 3584 1959 3584 
z
" transform="scale(0.015625)"/>
       <path id="DejaVuSans-6d" d="M 3328 2828 
Q 3544 3216 3844 3400 
Q 4144 3584 4550 3584 
Q 5097 3584 5394 3201 
Q 5691 2819 5691 2113 
L 5691 0 
L 5113 0 
L 5113 2094 
Q 5113 2597 4934 2840 
Q 4756 3084 4391 3084 
Q 3944 3084 3684 2787 
Q 3425 2491 3425 1978 
L 3425 0 
L 2847 0 
L 2847 2094 
Q 2847 2600 2669 2842 
Q 2491 3084 2119 3084 
Q 1678 3084 1418 2786 
Q 1159 2488 1159 1978 
L 1159 0 
L 581 0 
L 581 3500 
L 1159 3500 
L 1159 2956 
Q 1356 3278 1631 3431 
Q 1906 3584 2284 3584 
Q 2666 3584 2933 3390 
Q 3200 3197 3328 2828 
z
" transform="scale(0.015625)"/>
       <path id="DejaVuSans-64" d="M 2906 2969 
L 2906 4863 
L 3481 4863 
L 3481 0 
L 2906 0 
L 2906 525 
Q 2725 213 2448 61 
Q 2172 -91 1784 -91 
Q 1150 -91 751 415 
Q 353 922 353 1747 
Q 353 2572 751 3078 
Q 1150 3584 1784 3584 
Q 2172 3584 2448 3432 
Q 2725 3281 2906 2969 
z
M 947 1747 
Q 947 1113 1208 752 
Q 1469 391 1925 391 
Q 2381 391 2643 752 
Q 2906 1113 2906 1747 
Q 2906 2381 2643 2742 
Q 2381 3103 1925 3103 
Q 1469 3103 1208 2742 
Q 947 2381 947 1747 
z
" transform="scale(0.015625)"/>
       <path id="DejaVuSans-69" d="M 603 3500 
L 1178 3500 
L 1178 0 
L 603 0 
L 603 3500 
z
M 603 4863 
L 1178 4863 
L 1178 4134 
L 603 4134 
L 603 4863 
z
" transform="scale(0.015625)"/>
       <path id="DejaVuSans-67" d="M 2906 1791 
Q 2906 2416 2648 2759 
Q 2391 3103 1925 3103 
Q 1463 3103 1205 2759 
Q 947 2416 947 1791 
Q 947 1169 1205 825 
Q 1463 481 1925 481 
Q 2391 481 2648 825 
Q 2906 1169 2906 1791 
z
M 3481 434 
Q 3481 -459 3084 -895 
Q 2688 -1331 1869 -1331 
Q 1566 -1331 1297 -1286 
Q 1028 -1241 775 -1147 
L 775 -588 
Q 1028 -725 1275 -790 
Q 1522 -856 1778 -856 
Q 2344 -856 2625 -561 
Q 2906 -266 2906 331 
L 2906 616 
Q 2728 306 2450 153 
Q 2172 0 1784 0 
Q 1141 0 747 490 
Q 353 981 353 1791 
Q 353 2603 747 3093 
Q 1141 3584 1784 3584 
Q 2172 3584 2450 3431 
Q 2728 3278 2906 2969 
L 2906 3500 
L 3481 3500 
L 3481 434 
z
" transform="scale(0.015625)"/>
       <path id="DejaVuSans-6e" d="M 3513 2113 
L 3513 0 
L 2938 0 
L 2938 2094 
Q 2938 2591 2744 2837 
Q 2550 3084 2163 3084 
Q 1697 3084 1428 2787 
Q 1159 2491 1159 1978 
L 1159 0 
L 581 0 
L 581 3500 
L 1159 3500 
L 1159 2956 
Q 1366 3272 1645 3428 
Q 1925 3584 2291 3584 
Q 2894 3584 3203 3211 
Q 3513 2838 3513 2113 
z
" transform="scale(0.015625)"/>
       <path id="DejaVuSans-65" d="M 3597 1894 
L 3597 1613 
L 953 1613 
Q 991 1019 1311 708 
Q 1631 397 2203 397 
Q 2534 397 2845 478 
Q 3156 559 3463 722 
L 3463 178 
Q 3153 47 2828 -22 
Q 2503 -91 2169 -91 
Q 1331 -91 842 396 
Q 353 884 353 1716 
Q 353 2575 817 3079 
Q 1281 3584 2069 3584 
Q 2775 3584 3186 3129 
Q 3597 2675 3597 1894 
z
M 3022 2063 
Q 3016 2534 2758 2815 
Q 2500 3097 2075 3097 
Q 1594 3097 1305 2825 
Q 1016 2553 972 2059 
L 3022 2063 
z
" transform="scale(0.015625)"/>
       <path id="DejaVuSans-78" d="M 3513 3500 
L 2247 1797 
L 3578 0 
L 2900 0 
L 1881 1375 
L 863 0 
L 184 0 
L 1544 1831 
L 300 3500 
L 978 3500 
L 1906 2253 
L 2834 3500 
L 3513 3500 
z
" transform="scale(0.015625)"/>
      </defs>
      <use xlink:href="#DejaVuSans-44"/>
      <use xlink:href="#DejaVuSans-61" transform="translate(77.001953 0)"/>
      <use xlink:href="#DejaVuSans-79" transform="translate(138.28125 0)"/>
      <use xlink:href="#DejaVuSans-73" transform="translate(197.460938 0)"/>
      <use xlink:href="#DejaVuSans-20" transform="translate(249.560547 0)"/>
      <use xlink:href="#DejaVuSans-66" transform="translate(281.347656 0)"/>
      <use xlink:href="#DejaVuSans-72" transform="translate(316.552734 0)"/>
      <use xlink:href="#DejaVuSans-6f" transform="translate(355.416016 0)"/>
      <use xlink:href="#DejaVuSans-6d" transform="translate(416.597656 0)"/>
      <use xlink:href="#DejaVuSans-20" transform="translate(514.009766 0)"/>
      <use xlink:href="#DejaVuSans-64" transform="translate(545.796875 0)"/>
      <use xlink:href="#DejaVuSans-69" transform="translate(609.273438 0)"/>
      <use xlink:href="#DejaVuSans-61" transform="translate(637.056641 0)"/>
      <use xlink:href="#DejaVuSans-67" transform="translate(698.335938 0)"/>
      <use xlink:href="#DejaVuSans-6e" transform="translate(761.8125 0)"/>
      <use xlink:href="#DejaVuSans-6f" transform="translate(825.191406 0)"/>
      <use xlink:href="#DejaVuSans-73" transform="translate(886.373047 0)"/>
      <use xlink:href="#DejaVuSans-69" transform="translate(938.472656 0)"/>
      <use xlink:href="#DejaVuSans-73" transform="translate(966.255859 0)"/>
      <use xlink:href="#DejaVuSans-20" transform="translate(1018.355469 0)"/>
      <use xlink:href="#DejaVuSans-69" transform="translate(1050.142578 0)"/>
      <use xlink:href="#DejaVuSans-6e" transform="translate(1077.925781 0)"/>
      <use xlink:href="#DejaVuSans-64" transform="translate(1141.304688 0)"/>
      <use xlink:href="#DejaVuSans-65" transform="translate(1204.78125 0)"/>
      <use xlink:href="#DejaVuSans-78" transform="translate(1264.554688 0)"/>
     </g>
    </g>
   </g>
   <g id="matplotlib.axis_2">
    <g id="ytick_1">
     <g id="line2d_8">
      <defs>
       <path id="m5d02cc86da" d="M 0 0 
L -3.5 0 
" style="stroke: #000000; stroke-width: 0.8"/>
      </defs>
      <g>
       <use xlink:href="#m5d02cc86da" x="47.307187" y="301.037812" style="stroke: #000000; stroke-width: 0.8"/>
      </g>
     </g>
     <g id="text_9">
      <!-- 0.0 -->
      <g transform="translate(22.81375 305.216953) scale(0.11 -0.11)">
       <defs>
        <path id="DejaVuSans-2e" d="M 684 794 
L 1344 794 
L 1344 0 
L 684 0 
L 684 794 
z
" transform="scale(0.015625)"/>
       </defs>
       <use xlink:href="#DejaVuSans-30"/>
       <use xlink:href="#DejaVuSans-2e" transform="translate(63.623047 0)"/>
       <use xlink:href="#DejaVuSans-30" transform="translate(95.410156 0)"/>
      </g>
     </g>
    </g>
    <g id="ytick_2">
     <g id="line2d_9">
      <g>
       <use xlink:href="#m5d02cc86da" x="47.307187" y="268.426048" style="stroke: #000000; stroke-width: 0.8"/>
      </g>
     </g>
     <g id="text_10">
      <!-- 0.1 -->
      <g transform="translate(22.81375 272.605188) scale(0.11 -0.11)">
       <use xlink:href="#DejaVuSans-30"/>
       <use xlink:href="#DejaVuSans-2e" transform="translate(63.623047 0)"/>
       <use xlink:href="#DejaVuSans-31" transform="translate(95.410156 0)"/>
      </g>
     </g>
    </g>
    <g id="ytick_3">
     <g id="line2d_10">
      <g>
       <use xlink:href="#m5d02cc86da" x="47.307187" y="235.814283" style="stroke: #000000; stroke-width: 0.8"/>
      </g>
     </g>
     <g id="text_11">
      <!-- 0.2 -->
      <g transform="translate(22.81375 239.993424) scale(0.11 -0.11)">
       <use xlink:href="#DejaVuSans-30"/>
       <use xlink:href="#DejaVuSans-2e" transform="translate(63.623047 0)"/>
       <use xlink:href="#DejaVuSans-32" transform="translate(95.410156 0)"/>
      </g>
     </g>
    </g>
    <g id="ytick_4">
     <g id="line2d_11">
      <g>
       <use xlink:href="#m5d02cc86da" x="47.307187" y="203.202518" style="stroke: #000000; stroke-width: 0.8"/>
      </g>
     </g>
     <g id="text_12">
      <!-- 0.3 -->
      <g transform="translate(22.81375 207.381659) scale(0.11 -0.11)">
       <use xlink:href="#DejaVuSans-30"/>
       <use xlink:href="#DejaVuSans-2e" transform="translate(63.623047 0)"/>
       <use xlink:href="#DejaVuSans-33" transform="translate(95.410156 0)"/>
      </g>
     </g>
    </g>
    <g id="ytick_5">
     <g id="line2d_12">
      <g>
       <use xlink:href="#m5d02cc86da" x="47.307187" y="170.590754" style="stroke: #000000; stroke-width: 0.8"/>
      </g>
     </g>
     <g id="text_13">
      <!-- 0.4 -->
      <g transform="translate(22.81375 174.769894) scale(0.11 -0.11)">
       <defs>
        <path id="DejaVuSans-34" d="M 2419 4116 
L 825 1625 
L 2419 1625 
L 2419 4116 
z
M 2253 4666 
L 3047 4666 
L 3047 1625 
L 3713 1625 
L 3713 1100 
L 3047 1100 
L 3047 0 
L 2419 0 
L 2419 1100 
L 313 1100 
L 313 1709 
L 2253 4666 
z
" transform="scale(0.015625)"/>
       </defs>
       <use xlink:href="#DejaVuSans-30"/>
       <use xlink:href="#DejaVuSans-2e" transform="translate(63.623047 0)"/>
       <use xlink:href="#DejaVuSans-34" transform="translate(95.410156 0)"/>
      </g>
     </g>
    </g>
    <g id="ytick_6">
     <g id="line2d_13">
      <g>
       <use xlink:href="#m5d02cc86da" x="47.307187" y="137.978989" style="stroke: #000000; stroke-width: 0.8"/>
      </g>
     </g>
     <g id="text_14">
      <!-- 0.5 -->
      <g transform="translate(22.81375 142.15813) scale(0.11 -0.11)">
       <use xlink:href="#DejaVuSans-30"/>
       <use xlink:href="#DejaVuSans-2e" transform="translate(63.623047 0)"/>
       <use xlink:href="#DejaVuSans-35" transform="translate(95.410156 0)"/>
      </g>
     </g>
    </g>
    <g id="ytick_7">
     <g id="line2d_14">
      <g>
       <use xlink:href="#m5d02cc86da" x="47.307187" y="105.367224" style="stroke: #000000; stroke-width: 0.8"/>
      </g>
     </g>
     <g id="text_15">
      <!-- 0.6 -->
      <g transform="translate(22.81375 109.546365) scale(0.11 -0.11)">
       <defs>
        <path id="DejaVuSans-36" d="M 2113 2584 
Q 1688 2584 1439 2293 
Q 1191 2003 1191 1497 
Q 1191 994 1439 701 
Q 1688 409 2113 409 
Q 2538 409 2786 701 
Q 3034 994 3034 1497 
Q 3034 2003 2786 2293 
Q 2538 2584 2113 2584 
z
M 3366 4563 
L 3366 3988 
Q 3128 4100 2886 4159 
Q 2644 4219 2406 4219 
Q 1781 4219 1451 3797 
Q 1122 3375 1075 2522 
Q 1259 2794 1537 2939 
Q 1816 3084 2150 3084 
Q 2853 3084 3261 2657 
Q 3669 2231 3669 1497 
Q 3669 778 3244 343 
Q 2819 -91 2113 -91 
Q 1303 -91 875 529 
Q 447 1150 447 2328 
Q 447 3434 972 4092 
Q 1497 4750 2381 4750 
Q 2619 4750 2861 4703 
Q 3103 4656 3366 4563 
z
" transform="scale(0.015625)"/>
       </defs>
       <use xlink:href="#DejaVuSans-30"/>
       <use xlink:href="#DejaVuSans-2e" transform="translate(63.623047 0)"/>
       <use xlink:href="#DejaVuSans-36" transform="translate(95.410156 0)"/>
      </g>
     </g>
    </g>
    <g id="ytick_8">
     <g id="line2d_15">
      <g>
       <use xlink:href="#m5d02cc86da" x="47.307187" y="72.75546" style="stroke: #000000; stroke-width: 0.8"/>
      </g>
     </g>
     <g id="text_16">
      <!-- 0.7 -->
      <g transform="translate(22.81375 76.9346) scale(0.11 -0.11)">
       <defs>
        <path id="DejaVuSans-37" d="M 525 4666 
L 3525 4666 
L 3525 4397 
L 1831 0 
L 1172 0 
L 2766 4134 
L 525 4134 
L 525 4666 
z
" transform="scale(0.015625)"/>
       </defs>
       <use xlink:href="#DejaVuSans-30"/>
       <use xlink:href="#DejaVuSans-2e" transform="translate(63.623047 0)"/>
       <use xlink:href="#DejaVuSans-37" transform="translate(95.410156 0)"/>
      </g>
     </g>
    </g>
    <g id="ytick_9">
     <g id="line2d_16">
      <g>
       <use xlink:href="#m5d02cc86da" x="47.307187" y="40.143695" style="stroke: #000000; stroke-width: 0.8"/>
      </g>
     </g>
     <g id="text_17">
      <!-- 0.8 -->
      <g transform="translate(22.81375 44.322835) scale(0.11 -0.11)">
       <defs>
        <path id="DejaVuSans-38" d="M 2034 2216 
Q 1584 2216 1326 1975 
Q 1069 1734 1069 1313 
Q 1069 891 1326 650 
Q 1584 409 2034 409 
Q 2484 409 2743 651 
Q 3003 894 3003 1313 
Q 3003 1734 2745 1975 
Q 2488 2216 2034 2216 
z
M 1403 2484 
Q 997 2584 770 2862 
Q 544 3141 544 3541 
Q 544 4100 942 4425 
Q 1341 4750 2034 4750 
Q 2731 4750 3128 4425 
Q 3525 4100 3525 3541 
Q 3525 3141 3298 2862 
Q 3072 2584 2669 2484 
Q 3125 2378 3379 2068 
Q 3634 1759 3634 1313 
Q 3634 634 3220 271 
Q 2806 -91 2034 -91 
Q 1263 -91 848 271 
Q 434 634 434 1313 
Q 434 1759 690 2068 
Q 947 2378 1403 2484 
z
M 1172 3481 
Q 1172 3119 1398 2916 
Q 1625 2713 2034 2713 
Q 2441 2713 2670 2916 
Q 2900 3119 2900 3481 
Q 2900 3844 2670 4047 
Q 2441 4250 2034 4250 
Q 1625 4250 1398 4047 
Q 1172 3844 1172 3481 
z
" transform="scale(0.015625)"/>
       </defs>
       <use xlink:href="#DejaVuSans-30"/>
       <use xlink:href="#DejaVuSans-2e" transform="translate(63.623047 0)"/>
       <use xlink:href="#DejaVuSans-38" transform="translate(95.410156 0)"/>
      </g>
     </g>
    </g>
    <g id="text_18">
     <!-- Cumulative initiation -->
     <g transform="translate(16.318125 224.914687) rotate(-90) scale(0.12 -0.12)">
      <defs>
       <path id="DejaVuSans-43" d="M 4122 4306 
L 4122 3641 
Q 3803 3938 3442 4084 
Q 3081 4231 2675 4231 
Q 1875 4231 1450 3742 
Q 1025 3253 1025 2328 
Q 1025 1406 1450 917 
Q 1875 428 2675 428 
Q 3081 428 3442 575 
Q 3803 722 4122 1019 
L 4122 359 
Q 3791 134 3420 21 
Q 3050 -91 2638 -91 
Q 1578 -91 968 557 
Q 359 1206 359 2328 
Q 359 3453 968 4101 
Q 1578 4750 2638 4750 
Q 3056 4750 3426 4639 
Q 3797 4528 4122 4306 
z
" transform="scale(0.015625)"/>
       <path id="DejaVuSans-75" d="M 544 1381 
L 544 3500 
L 1119 3500 
L 1119 1403 
Q 1119 906 1312 657 
Q 1506 409 1894 409 
Q 2359 409 2629 706 
Q 2900 1003 2900 1516 
L 2900 3500 
L 3475 3500 
L 3475 0 
L 2900 0 
L 2900 538 
Q 2691 219 2414 64 
Q 2138 -91 1772 -91 
Q 1169 -91 856 284 
Q 544 659 544 1381 
z
M 1991 3584 
L 1991 3584 
z
" transform="scale(0.015625)"/>
       <path id="DejaVuSans-6c" d="M 603 4863 
L 1178 4863 
L 1178 0 
L 603 0 
L 603 4863 
z
" transform="scale(0.015625)"/>
       <path id="DejaVuSans-74" d="M 1172 4494 
L 1172 3500 
L 2356 3500 
L 2356 3053 
L 1172 3053 
L 1172 1153 
Q 1172 725 1289 603 
Q 1406 481 1766 481 
L 2356 481 
L 2356 0 
L 1766 0 
Q 1100 0 847 248 
Q 594 497 594 1153 
L 594 3053 
L 172 3053 
L 172 3500 
L 594 3500 
L 594 4494 
L 1172 4494 
z
" transform="scale(0.015625)"/>
       <path id="DejaVuSans-76" d="M 191 3500 
L 800 3500 
L 1894 563 
L 2988 3500 
L 3597 3500 
L 2284 0 
L 1503 0 
L 191 3500 
z
" transform="scale(0.015625)"/>
      </defs>
      <use xlink:href="#DejaVuSans-43"/>
      <use xlink:href="#DejaVuSans-75" transform="translate(69.824219 0)"/>
      <use xlink:href="#DejaVuSans-6d" transform="translate(133.203125 0)"/>
      <use xlink:href="#DejaVuSans-75" transform="translate(230.615234 0)"/>
      <use xlink:href="#DejaVuSans-6c" transform="translate(293.994141 0)"/>
      <use xlink:href="#DejaVuSans-61" transform="translate(321.777344 0)"/>
      <use xlink:href="#DejaVuSans-74" transform="translate(383.056641 0)"/>
      <use xlink:href="#DejaVuSans-69" transform="translate(422.265625 0)"/>
      <use xlink:href="#DejaVuSans-76" transform="translate(450.048828 0)"/>
      <use xlink:href="#DejaVuSans-65" transform="translate(509.228516 0)"/>
      <use xlink:href="#DejaVuSans-20" transform="translate(570.751953 0)"/>
      <use xlink:href="#DejaVuSans-69" transform="translate(602.539062 0)"/>
      <use xlink:href="#DejaVuSans-6e" transform="translate(630.322266 0)"/>
      <use xlink:href="#DejaVuSans-69" transform="translate(693.701172 0)"/>
      <use xlink:href="#DejaVuSans-74" transform="translate(721.484375 0)"/>
      <use xlink:href="#DejaVuSans-69" transform="translate(760.693359 0)"/>
      <use xlink:href="#DejaVuSans-61" transform="translate(788.476562 0)"/>
      <use xlink:href="#DejaVuSans-74" transform="translate(849.755859 0)"/>
      <use xlink:href="#DejaVuSans-69" transform="translate(888.964844 0)"/>
      <use xlink:href="#DejaVuSans-6f" transform="translate(916.748047 0)"/>
      <use xlink:href="#DejaVuSans-6e" transform="translate(977.929688 0)"/>
     </g>
    </g>
   </g>
   <g id="line2d_17">
    <path d="M 47.307187 301.037812 
L 47.307187 299.303416 
L 49.574062 299.303416 
L 49.574062 298.128484 
L 51.840937 298.128484 
L 51.840937 296.696775 
L 54.107812 296.696775 
L 54.107812 294.854249 
L 56.374687 294.854249 
L 56.374687 293.009954 
L 58.641562 293.009954 
L 58.641562 291.317987 
L 60.908437 291.317987 
L 60.908437 289.830384 
L 63.175312 289.830384 
L 63.175312 288.237072 
L 65.442187 288.237072 
L 65.442187 286.436105 
L 67.709062 286.436105 
L 67.709062 284.427322 
L 69.975937 284.427322 
L 69.975937 282.623066 
L 72.242812 282.623066 
L 72.242812 281.230278 
L 74.509687 281.230278 
L 74.509687 279.628994 
L 76.776562 279.628994 
L 76.776562 278.181201 
L 79.043437 278.181201 
L 79.043437 276.319117 
L 81.310312 276.319117 
L 81.310312 274.817817 
L 83.577187 274.817817 
L 83.577187 272.486604 
L 85.844062 272.486604 
L 85.844062 271.138507 
L 88.110937 271.138507 
L 88.110937 269.166486 
L 90.377812 269.166486 
L 90.377812 267.347263 
L 92.644687 267.347263 
L 92.644687 265.162253 
L 94.911563 265.162253 
L 94.911563 263.599852 
L 97.178438 263.599852 
L 97.178438 262.244793 
L 99.445312 262.244793 
L 99.445312 260.000477 
L 101.712187 260.000477 
L 101.712187 258.329371 
L 103.979062 258.329371 
L 103.979062 256.4466 
L 106.245937 256.4466 
L 106.245937 254.35191 
L 108.512812 254.35191 
L 108.512812 252.357843 
L 110.779687 252.357843 
L 110.779687 251.254815 
L 113.046562 251.254815 
L 113.046562 250.149055 
L 115.313437 250.149055 
L 115.313437 248.883393 
L 117.580312 248.883393 
L 117.580312 247.510673 
L 119.847187 247.510673 
L 119.847187 246.082112 
L 122.114062 246.082112 
L 122.114062 245.287693 
L 124.380937 245.287693 
L 124.380937 244.54507 
L 126.647812 244.54507 
L 126.647812 243.855085 
L 128.914687 243.855085 
L 128.914687 243.004362 
L 131.181562 243.004362 
L 131.181562 242.312875 
L 133.448437 242.312875 
L 133.448437 241.620286 
L 135.715312 241.620286 
L 135.715312 240.926588 
L 137.982187 240.926588 
L 137.982187 240.178178 
L 140.249062 240.178178 
L 140.249062 239.053976 
L 142.515938 239.053976 
L 142.515938 238.571491 
L 144.782812 238.571491 
L 144.782812 237.767022 
L 147.049688 237.767022 
L 147.049688 237.44484 
L 149.316562 237.44484 
L 149.316562 236.69262 
L 151.583438 236.69262 
L 151.583438 236.047198 
L 153.850312 236.047198 
L 153.850312 235.670003 
L 156.117188 235.670003 
L 156.117188 235.022445 
L 158.384062 235.022445 
L 158.384062 234.266334 
L 160.650937 234.266334 
L 160.650937 233.292975 
L 162.917812 233.292975 
L 162.917812 232.697396 
L 165.184687 232.697396 
L 165.184687 231.938909 
L 167.451562 231.938909 
L 167.451562 230.907795 
L 169.718437 230.907795 
L 169.718437 230.038936 
L 171.985312 230.038936 
L 171.985312 229.277549 
L 174.252187 229.277549 
L 174.252187 228.133513 
L 176.519062 228.133513 
L 176.519062 227.097541 
L 178.785937 227.097541 
L 178.785937 226.278429 
L 181.052812 226.278429 
L 181.052812 225.677486 
L 183.319687 225.677486 
L 183.319687 224.911814 
L 185.586562 224.911814 
L 185.586562 224.199431 
L 187.853437 224.199431 
L 187.853437 223.267034 
L 190.120312 223.267034 
L 190.120312 222.607414 
L 192.387187 222.607414 
L 192.387187 222.167277 
L 194.654062 222.167277 
L 194.654062 221.175202 
L 196.920937 221.175202 
L 196.920937 220.126838 
L 199.187812 220.126838 
L 199.187812 219.46337 
L 201.454687 219.46337 
L 201.454687 218.743637 
L 203.721562 218.743637 
L 203.721562 218.244567 
L 205.988437 218.244567 
L 205.988437 217.411645 
L 208.255312 217.411645 
L 208.255312 216.410992 
L 210.522187 216.410992 
L 210.522187 215.687132 
L 212.789062 215.687132 
L 212.789062 215.129414 
L 215.055937 215.129414 
L 215.055937 214.29128 
L 217.322812 214.29128 
L 217.322812 213.171938 
L 219.589687 213.171938 
L 219.589687 212.218931 
L 221.856562 212.218931 
L 221.856562 211.545743 
L 224.123437 211.545743 
L 224.123437 211.039893 
L 226.390312 211.039893 
L 226.390312 210.308524 
L 228.657187 210.308524 
L 228.657187 209.801343 
L 230.924062 209.801343 
L 230.924062 208.953804 
L 233.190937 208.953804 
L 233.190937 208.218383 
L 235.457812 208.218383 
L 235.457812 207.311931 
L 237.724687 207.311931 
L 237.724687 206.403707 
L 239.991562 206.403707 
L 239.991562 205.550992 
L 242.258437 205.550992 
L 242.258437 204.753356 
L 244.525312 204.753356 
L 244.525312 204.126331 
L 246.792187 204.126331 
L 246.792187 202.926897 
L 249.059062 202.926897 
L 249.059062 202.009826 
L 251.325937 202.009826 
L 251.325937 201.435932 
L 253.592812 201.435932 
L 253.592812 200.918379 
L 255.859687 200.918379 
L 255.859687 200.170041 
L 258.126562 200.170041 
L 258.126562 199.132023 
L 260.393438 199.132023 
L 260.393438 198.207676 
L 262.660312 198.207676 
L 262.660312 197.860417 
L 264.927187 197.860417 
L 264.927187 196.817015 
L 267.194062 196.817015 
L 267.194062 196.236741 
L 269.460938 196.236741 
L 269.460938 195.306595 
L 271.727812 195.306595 
L 271.727812 194.60788 
L 273.994687 194.60788 
L 273.994687 193.324862 
L 276.261562 193.324862 
L 276.261562 192.857186 
L 278.528437 192.857186 
L 278.528437 191.801801 
L 280.795312 191.801801 
L 280.795312 191.155795 
L 283.062187 191.155795 
L 283.062187 190.391296 
L 285.329062 190.391296 
L 285.329062 189.508459 
L 287.595937 189.508459 
L 287.595937 188.742072 
L 289.862812 188.742072 
L 289.862812 188.091978 
L 292.129687 188.091978 
L 292.129687 187.144811 
L 294.396562 187.144811 
L 294.396562 186.373732 
L 296.663437 186.373732 
L 296.663437 185.480518 
L 298.930312 185.480518 
L 298.930312 184.286188 
L 301.197187 184.286188 
L 301.197187 183.508987 
L 303.464062 183.508987 
L 303.464062 182.430079 
L 305.730937 182.430079 
L 305.730937 181.348359 
L 307.997812 181.348359 
L 307.997812 180.625951 
L 310.264687 180.625951 
L 310.264687 179.901847 
L 312.531562 179.901847 
L 312.531562 179.055065 
L 314.798437 179.055065 
L 314.798437 178.508926 
L 317.065312 178.508926 
L 317.065312 177.961807 
L 319.332187 177.961807 
L 319.332187 177.414689 
L 321.599062 177.414689 
L 321.599062 176.744782 
L 323.865937 176.744782 
L 323.865937 176.317834 
L 326.132812 176.317834 
L 326.132812 175.523004 
L 328.399687 175.523004 
L 328.399687 174.849224 
L 330.666562 174.849224 
L 330.666562 174.235568 
L 332.933437 174.235568 
L 332.933437 173.066021 
L 335.200312 173.066021 
L 335.200312 171.83262 
L 337.467187 171.83262 
L 337.467187 170.905246 
L 339.734062 170.905246 
L 339.734062 170.160527 
L 342.000937 170.160527 
L 342.000937 169.413672 
L 344.267812 169.413672 
L 344.267812 168.478907 
L 346.534687 168.478907 
L 346.534687 167.916418 
L 348.801562 167.916418 
L 348.801562 167.039447 
L 351.068437 167.039447 
L 351.068437 166.285792 
L 353.335312 166.285792 
L 353.335312 165.845437 
L 355.602187 165.845437 
L 355.602187 165.025474 
L 357.869062 165.025474 
L 357.869062 163.886361 
L 360.135937 163.886361 
L 360.135937 162.999493 
L 362.402812 162.999493 
L 362.402812 161.982504 
L 364.669687 161.982504 
L 364.669687 160.836055 
L 366.936562 160.836055 
L 366.936562 160.133038 
L 369.203437 160.133038 
L 369.203437 159.300477 
L 371.470312 159.300477 
L 371.470312 158.337823 
L 373.737187 158.337823 
L 373.737187 157.564724 
L 376.004062 157.564724 
L 376.004062 156.789712 
L 378.270937 156.789712 
L 378.270937 155.689434 
L 380.537812 155.689434 
L 380.537812 154.9757 
L 382.804687 154.9757 
L 382.804687 154.585547 
L 385.071562 154.585547 
L 385.071562 153.607688 
L 387.338437 153.607688 
L 387.338437 153.085019 
L 389.605312 153.085019 
L 389.605312 151.905119 
L 391.872187 151.905119 
L 391.872187 151.049165 
L 394.139062 151.049165 
L 394.139062 149.859551 
L 396.405937 149.859551 
L 396.405937 149.063769 
L 398.672812 149.063769 
L 398.672812 148.399099 
L 400.939687 148.399099 
L 400.939687 147.731101 
L 403.206562 147.731101 
L 403.206562 147.262234 
L 405.473437 147.262234 
L 405.473437 146.45627 
L 407.740312 146.45627 
L 407.740312 145.446045 
L 410.007187 145.446045 
L 410.007187 144.906407 
L 412.274062 144.906407 
L 412.274062 144.02635 
L 414.540937 144.02635 
L 414.540937 142.939724 
L 416.807812 142.939724 
L 416.807812 142.123104 
L 419.074687 142.123104 
L 419.074687 141.167269 
L 421.341562 141.167269 
L 421.341562 140.139784 
L 423.608437 140.139784 
L 423.608437 139.383787 
L 425.875312 139.383787 
L 425.875312 138.695655 
L 428.142187 138.695655 
L 428.142187 137.866761 
L 430.409062 137.866761 
L 430.409062 136.689502 
L 432.675937 136.689502 
L 432.675937 136.202873 
L 434.942812 136.202873 
L 434.942812 135.295221 
L 437.209687 135.295221 
L 437.209687 134.665476 
L 439.476562 134.665476 
L 439.476562 133.541004 
L 441.743437 133.541004 
L 441.743437 132.97752 
L 444.010312 132.97752 
L 444.010312 131.848539 
L 446.277187 131.848539 
L 446.277187 131.069562 
L 448.544062 131.069562 
L 448.544062 130.50123 
L 450.810937 130.50123 
L 450.810937 129.504371 
L 453.077812 129.504371 
L 453.077812 128.932102 
L 455.344687 128.932102 
L 455.344687 128.428795 
L 457.611562 128.428795 
L 457.611562 127.778335 
L 459.878437 127.778335 
L 459.878437 127.197677 
L 462.145312 127.197677 
L 462.145312 126.178612 
L 464.412187 126.178612 
L 464.412187 125.739333 
L 466.679062 125.739333 
L 466.679062 124.63739 
L 468.945937 124.63739 
L 468.945937 123.826115 
L 471.212812 123.826115 
L 471.212812 123.15904 
L 473.479687 123.15904 
L 473.479687 122.192588 
L 475.746562 122.192588 
L 475.746562 121.595134 
L 478.013437 121.595134 
L 478.013437 120.920594 
L 480.280312 120.920594 
L 480.280312 119.717707 
L 482.547187 119.717707 
L 482.547187 118.662441 
L 484.814062 118.662441 
L 484.814062 117.675304 
L 487.080937 117.675304 
L 487.080937 116.912723 
L 489.347812 116.912723 
L 489.347812 116.223067 
L 491.614687 116.223067 
L 491.614687 115.608707 
L 493.881562 115.608707 
L 493.881562 114.912229 
L 496.148437 114.912229 
L 496.148437 113.981018 
L 498.415312 113.981018 
L 498.415312 113.513324 
L 500.682187 113.513324 
L 500.682187 112.887974 
L 502.949062 112.887974 
L 502.949062 112.261915 
L 505.215937 112.261915 
L 505.215937 111.710974 
L 507.482812 111.710974 
L 507.482812 111.07951 
L 509.749687 111.07951 
L 509.749687 110.525695 
L 512.016562 110.525695 
L 512.016562 110.129651 
L 514.283437 110.129651 
L 514.283437 109.49074 
L 516.550313 109.49074 
L 516.550313 108.202984 
L 518.817187 108.202984 
L 518.817187 107.313353 
L 521.084062 107.313353 
L 521.084062 106.907239 
L 523.350937 106.907239 
L 523.350937 105.683626 
L 525.617812 105.683626 
L 525.617812 104.863792 
L 527.884687 104.863792 
L 527.884687 104.288093 
L 530.151562 104.288093 
L 530.151562 103.626787 
L 532.418437 103.626787 
L 532.418437 102.880902 
L 534.685313 102.880902 
L 534.685313 102.382354 
L 536.952187 102.382354 
L 536.952187 101.214506 
L 539.219062 101.214506 
L 539.219062 100.125762 
L 541.485937 100.125762 
L 541.485937 99.284327 
L 543.752812 99.284327 
L 543.752812 98.778095 
L 546.019687 98.778095 
L 546.019687 98.268042 
L 548.286562 98.268042 
L 548.286562 97.41324 
L 550.553437 97.41324 
L 550.553437 96.379544 
L 552.820312 96.379544 
L 552.820312 95.343643 
L 555.087188 95.343643 
L 555.087188 94.561107 
L 557.354062 94.561107 
L 557.354062 94.124462 
L 559.620937 94.124462 
L 559.620937 93.42429 
L 561.887812 93.42429 
L 561.887812 92.80754 
L 564.154687 92.80754 
L 564.154687 91.65785 
L 566.421562 91.65785 
L 566.421562 90.769436 
L 568.688437 90.769436 
L 568.688437 90.055968 
L 570.955312 90.055968 
L 570.955312 89.339169 
L 573.222188 89.339169 
L 573.222188 88.798181 
L 575.489063 88.798181 
L 575.489063 87.892951 
L 577.755937 87.892951 
L 577.755937 87.165853 
L 580.022812 87.165853 
L 580.022812 86.343205 
L 582.289687 86.343205 
L 582.289687 85.606524 
L 584.556562 85.606524 
L 584.556562 85.050311 
L 586.823437 85.050311 
L 586.823437 84.116213 
L 589.090312 84.116213 
L 589.090312 83.645135 
L 591.357188 83.645135 
L 591.357188 82.982178 
L 593.624063 82.982178 
L 593.624063 82.122268 
L 595.890937 82.122268 
L 595.890937 81.065616 
L 598.157812 81.065616 
L 598.157812 80.390145 
L 600.424687 80.390145 
L 600.424687 79.612486 
L 602.691562 79.612486 
L 602.691562 79.024877 
L 604.958437 79.024877 
L 604.958437 78.434491 
L 607.225312 78.434491 
L 607.225312 77.541271 
L 609.492188 77.541271 
L 609.492188 76.841127 
L 611.759063 76.841127 
L 611.759063 75.933819 
L 614.025937 75.933819 
L 614.025937 74.819325 
L 616.292812 74.819325 
L 616.292812 74.001318 
L 618.559687 74.001318 
L 618.559687 73.796181 
L 620.826562 73.796181 
L 620.826562 72.761913 
L 623.093437 72.761913 
L 623.093437 71.82811 
L 625.360312 71.82811 
L 625.360312 70.885222 
L 627.627187 70.885222 
L 627.627187 69.931927 
L 629.894063 69.931927 
L 629.894063 69.505865 
L 632.160938 69.505865 
L 632.160938 68.75773 
L 634.427812 68.75773 
L 634.427812 68.001846 
L 636.694687 68.001846 
L 636.694687 66.918241 
L 638.961562 66.918241 
L 638.961562 66.369981 
L 641.228437 66.369981 
L 641.228437 65.601495 
L 643.495312 65.601495 
L 643.495312 64.824543 
L 645.762187 64.824543 
L 645.762187 64.041794 
L 648.029063 64.041794 
L 648.029063 63.027768 
L 650.295938 63.027768 
L 650.295938 61.326849 
L 652.562812 61.326849 
L 652.562812 60.643792 
L 654.829687 60.643792 
L 654.829687 60.528727 
L 657.096562 60.528727 
L 657.096562 59.830831 
L 659.363437 59.830831 
L 659.363437 58.889992 
L 661.630312 58.889992 
L 661.630312 57.821069 
L 663.897187 57.821069 
L 663.897187 57.462708 
L 666.164062 57.462708 
L 666.164062 56.624105 
L 668.430938 56.624105 
L 668.430938 56.017092 
L 670.697812 56.017092 
L 670.697812 55.287584 
L 672.964687 55.287584 
L 672.964687 54.917795 
L 675.231562 54.917795 
L 675.231562 54.171317 
L 677.498437 54.171317 
L 677.498437 53.415344 
L 679.765312 53.415344 
L 679.765312 52.529108 
L 682.032187 52.529108 
L 682.032187 51.890877 
L 684.299062 51.890877 
L 684.299062 50.862887 
L 686.565938 50.862887 
L 686.565938 49.826127 
L 688.832812 49.826127 
L 688.832812 49.303223 
L 691.099687 49.303223 
L 691.099687 48.643799 
L 693.366562 48.643799 
L 693.366562 47.980816 
L 695.633437 47.980816 
L 695.633437 47.446552 
L 697.900312 47.446552 
L 697.900312 46.906318 
L 700.167187 46.906318 
L 700.167187 46.497306 
L 702.434062 46.497306 
L 702.434062 45.810385 
L 704.700938 45.810385 
L 704.700938 45.393384 
L 706.967813 45.393384 
L 706.967813 45.253278 
L 709.234687 45.253278 
L 709.234687 44.405891 
L 711.501562 44.405891 
L 711.501562 43.693947 
L 713.768437 43.693947 
L 713.768437 43.120832 
L 716.035312 43.120832 
L 716.035312 42.113649 
L 718.302187 42.113649 
L 718.302187 41.677328 
L 720.569062 41.677328 
L 720.569062 41.238136 
L 722.835938 41.238136 
L 722.835938 40.357809 
L 725.102813 40.357809 
L 725.102813 40.061711 
L 727.369687 40.061711 
L 727.369687 39.318086 
L 729.636562 39.318086 
L 729.636562 38.425736 
L 731.903437 38.425736 
L 731.903437 37.825211 
L 734.170312 37.825211 
L 734.170312 37.221805 
L 736.437187 37.221805 
L 736.437187 36.303354 
L 738.704062 36.303354 
L 738.704062 35.072613 
L 740.970937 35.072613 
L 740.970937 33.832356 
L 743.237813 33.832356 
L 743.237813 33.518158 
L 745.504687 33.518158 
L 745.504687 33.04432 
L 747.771562 33.04432 
L 747.771562 32.563955 
L 750.038437 32.563955 
L 750.038437 32.078193 
L 754.572187 32.078193 
L 754.572187 31.407717 
L 756.839062 31.407717 
L 756.839062 30.559556 
L 759.105937 30.559556 
L 759.105937 29.700923 
L 761.372813 29.700923 
L 761.372813 28.300776 
L 763.639687 28.300776 
L 763.639687 28.123432 
L 765.906562 28.123432 
L 765.906562 27.052225 
L 768.173437 27.052225 
L 768.173437 26.512928 
L 770.440312 26.512928 
L 770.440312 25.601395 
L 772.707187 25.601395 
L 772.707187 25.23414 
L 774.974062 25.23414 
L 774.974062 24.305838 
L 777.240937 24.305838 
L 777.240937 24.118059 
L 779.507812 24.118059 
L 779.507812 23.352333 
L 780.907188 23.352333 
L 780.907188 23.352333 
" clip-path="url(#p2fe4a60c95)" style="fill: none; stroke: #7ba6d0; stroke-width: 1.8; stroke-linecap: square"/>
   </g>
   <g id="patch_3">
    <path d="M 47.307187 301.037812 
L 47.307187 23.837812 
" style="fill: none; stroke: #000000; stroke-width: 0.8; stroke-linejoin: miter; stroke-linecap: square"/>
   </g>
   <g id="patch_4">
    <path d="M 47.307187 301.037812 
L 772.707187 301.037812 
" style="fill: none; stroke: #000000; stroke-width: 0.8; stroke-linejoin: miter; stroke-linecap: square"/>
   </g>
   <g id="text_19">
    <!-- 31% -->
    <g transform="translate(237.99 186.760638) scale(0.12 -0.12)">
     <defs>
      <path id="DejaVuSans-25" d="M 4653 2053 
Q 4381 2053 4226 1822 
Q 4072 1591 4072 1178 
Q 4072 772 4226 539 
Q 4381 306 4653 306 
Q 4919 306 5073 539 
Q 5228 772 5228 1178 
Q 5228 1588 5073 1820 
Q 4919 2053 4653 2053 
z
M 4653 2450 
Q 5147 2450 5437 2106 
Q 5728 1763 5728 1178 
Q 5728 594 5436 251 
Q 5144 -91 4653 -91 
Q 4153 -91 3862 251 
Q 3572 594 3572 1178 
Q 3572 1766 3864 2108 
Q 4156 2450 4653 2450 
z
M 1428 4353 
Q 1159 4353 1004 4120 
Q 850 3888 850 3481 
Q 850 3069 1003 2837 
Q 1156 2606 1428 2606 
Q 1700 2606 1854 2837 
Q 2009 3069 2009 3481 
Q 2009 3884 1853 4118 
Q 1697 4353 1428 4353 
z
M 4250 4750 
L 4750 4750 
L 1831 -91 
L 1331 -91 
L 4250 4750 
z
M 1428 4750 
Q 1922 4750 2215 4408 
Q 2509 4066 2509 3481 
Q 2509 2891 2217 2550 
Q 1925 2209 1428 2209 
Q 931 2209 642 2551 
Q 353 2894 353 3481 
Q 353 4063 643 4406 
Q 934 4750 1428 4750 
z
" transform="scale(0.015625)"/>
     </defs>
     <use xlink:href="#DejaVuSans-33"/>
     <use xlink:href="#DejaVuSans-31" transform="translate(63.623047 0)"/>
     <use xlink:href="#DejaVuSans-25" transform="translate(127.246094 0)"/>
    </g>
   </g>
   <g id="text_20">
    <!-- 53% -->
    <g transform="translate(442.00875 113.753501) scale(0.12 -0.12)">
     <use xlink:href="#DejaVuSans-35"/>
     <use xlink:href="#DejaVuSans-33" transform="translate(63.623047 0)"/>
     <use xlink:href="#DejaVuSans-25" transform="translate(127.246094 0)"/>
    </g>
   </g>
   <g id="text_21">
    <!-- 74% -->
    <g transform="translate(646.0275 44.214698) scale(0.12 -0.12)">
     <use xlink:href="#DejaVuSans-37"/>
     <use xlink:href="#DejaVuSans-34" transform="translate(63.623047 0)"/>
     <use xlink:href="#DejaVuSans-25" transform="translate(127.246094 0)"/>
    </g>
   </g>
   <g id="text_22">
    <!-- Treatment initiation keeps accruing through follow-up -->
    <g transform="translate(222.379844 17.837812) scale(0.14 -0.14)">
     <defs>
      <path id="DejaVuSans-54" d="M -19 4666 
L 3928 4666 
L 3928 4134 
L 2272 4134 
L 2272 0 
L 1638 0 
L 1638 4134 
L -19 4134 
L -19 4666 
z
" transform="scale(0.015625)"/>
      <path id="DejaVuSans-6b" d="M 581 4863 
L 1159 4863 
L 1159 1991 
L 2875 3500 
L 3609 3500 
L 1753 1863 
L 3688 0 
L 2938 0 
L 1159 1709 
L 1159 0 
L 581 0 
L 581 4863 
z
" transform="scale(0.015625)"/>
      <path id="DejaVuSans-70" d="M 1159 525 
L 1159 -1331 
L 581 -1331 
L 581 3500 
L 1159 3500 
L 1159 2969 
Q 1341 3281 1617 3432 
Q 1894 3584 2278 3584 
Q 2916 3584 3314 3078 
Q 3713 2572 3713 1747 
Q 3713 922 3314 415 
Q 2916 -91 2278 -91 
Q 1894 -91 1617 61 
Q 1341 213 1159 525 
z
M 3116 1747 
Q 3116 2381 2855 2742 
Q 2594 3103 2138 3103 
Q 1681 3103 1420 2742 
Q 1159 2381 1159 1747 
Q 1159 1113 1420 752 
Q 1681 391 2138 391 
Q 2594 391 2855 752 
Q 3116 1113 3116 1747 
z
" transform="scale(0.015625)"/>
      <path id="DejaVuSans-63" d="M 3122 3366 
L 3122 2828 
Q 2878 2963 2633 3030 
Q 2388 3097 2138 3097 
Q 1578 3097 1268 2742 
Q 959 2388 959 1747 
Q 959 1106 1268 751 
Q 1578 397 2138 397 
Q 2388 397 2633 464 
Q 2878 531 3122 666 
L 3122 134 
Q 2881 22 2623 -34 
Q 2366 -91 2075 -91 
Q 1284 -91 818 406 
Q 353 903 353 1747 
Q 353 2603 823 3093 
Q 1294 3584 2113 3584 
Q 2378 3584 2631 3529 
Q 2884 3475 3122 3366 
z
" transform="scale(0.015625)"/>
      <path id="DejaVuSans-68" d="M 3513 2113 
L 3513 0 
L 2938 0 
L 2938 2094 
Q 2938 2591 2744 2837 
Q 2550 3084 2163 3084 
Q 1697 3084 1428 2787 
Q 1159 2491 1159 1978 
L 1159 0 
L 581 0 
L 581 4863 
L 1159 4863 
L 1159 2956 
Q 1366 3272 1645 3428 
Q 1925 3584 2291 3584 
Q 2894 3584 3203 3211 
Q 3513 2838 3513 2113 
z
" transform="scale(0.015625)"/>
      <path id="DejaVuSans-77" d="M 269 3500 
L 844 3500 
L 1563 769 
L 2278 3500 
L 2956 3500 
L 3675 769 
L 4391 3500 
L 4966 3500 
L 4050 0 
L 3372 0 
L 2619 2869 
L 1863 0 
L 1184 0 
L 269 3500 
z
" transform="scale(0.015625)"/>
      <path id="DejaVuSans-2d" d="M 313 2009 
L 1997 2009 
L 1997 1497 
L 313 1497 
L 313 2009 
z
" transform="scale(0.015625)"/>
     </defs>
     <use xlink:href="#DejaVuSans-54"/>
     <use xlink:href="#DejaVuSans-72" transform="translate(46.333984 0)"/>
     <use xlink:href="#DejaVuSans-65" transform="translate(85.197266 0)"/>
     <use xlink:href="#DejaVuSans-61" transform="translate(146.720703 0)"/>
     <use xlink:href="#DejaVuSans-74" transform="translate(208 0)"/>
     <use xlink:href="#DejaVuSans-6d" transform="translate(247.208984 0)"/>
     <use xlink:href="#DejaVuSans-65" transform="translate(344.621094 0)"/>
     <use xlink:href="#DejaVuSans-6e" transform="translate(406.144531 0)"/>
     <use xlink:href="#DejaVuSans-74" transform="translate(469.523438 0)"/>
     <use xlink:href="#DejaVuSans-20" transform="translate(508.732422 0)"/>
     <use xlink:href="#DejaVuSans-69" transform="translate(540.519531 0)"/>
     <use xlink:href="#DejaVuSans-6e" transform="translate(568.302734 0)"/>
     <use xlink:href="#DejaVuSans-69" transform="translate(631.681641 0)"/>
     <use xlink:href="#DejaVuSans-74" transform="translate(659.464844 0)"/>
     <use xlink:href="#DejaVuSans-69" transform="translate(698.673828 0)"/>
     <use xlink:href="#DejaVuSans-61" transform="translate(726.457031 0)"/>
     <use xlink:href="#DejaVuSans-74" transform="translate(787.736328 0)"/>
     <use xlink:href="#DejaVuSans-69" transform="translate(826.945312 0)"/>
     <use xlink:href="#DejaVuSans-6f" transform="translate(854.728516 0)"/>
     <use xlink:href="#DejaVuSans-6e" transform="translate(915.910156 0)"/>
     <use xlink:href="#DejaVuSans-20" transform="translate(979.289062 0)"/>
     <use xlink:href="#DejaVuSans-6b" transform="translate(1011.076172 0)"/>
     <use xlink:href="#DejaVuSans-65" transform="translate(1065.361328 0)"/>
     <use xlink:href="#DejaVuSans-65" transform="translate(1126.884766 0)"/>
     <use xlink:href="#DejaVuSans-70" transform="translate(1188.408203 0)"/>
     <use xlink:href="#DejaVuSans-73" transform="translate(1251.884766 0)"/>
     <use xlink:href="#DejaVuSans-20" transform="translate(1303.984375 0)"/>
     <use xlink:href="#DejaVuSans-61" transform="translate(1335.771484 0)"/>
     <use xlink:href="#DejaVuSans-63" transform="translate(1397.050781 0)"/>
     <use xlink:href="#DejaVuSans-63" transform="translate(1452.03125 0)"/>
     <use xlink:href="#DejaVuSans-72" transform="translate(1507.011719 0)"/>
     <use xlink:href="#DejaVuSans-75" transform="translate(1548.125 0)"/>
     <use xlink:href="#DejaVuSans-69" transform="translate(1611.503906 0)"/>
     <use xlink:href="#DejaVuSans-6e" transform="translate(1639.287109 0)"/>
     <use xlink:href="#DejaVuSans-67" transform="translate(1702.666016 0)"/>
     <use xlink:href="#DejaVuSans-20" transform="translate(1766.142578 0)"/>
     <use xlink:href="#DejaVuSans-74" transform="translate(1797.929688 0)"/>
     <use xlink:href="#DejaVuSans-68" transform="translate(1837.138672 0)"/>
     <use xlink:href="#DejaVuSans-72" transform="translate(1900.517578 0)"/>
     <use xlink:href="#DejaVuSans-6f" transform="translate(1939.380859 0)"/>
     <use xlink:href="#DejaVuSans-75" transform="translate(2000.5625 0)"/>
     <use xlink:href="#DejaVuSans-67" transform="translate(2063.941406 0)"/>
     <use xlink:href="#DejaVuSans-68" transform="translate(2127.417969 0)"/>
     <use xlink:href="#DejaVuSans-20" transform="translate(2190.796875 0)"/>
     <use xlink:href="#DejaVuSans-66" transform="translate(2222.583984 0)"/>
     <use xlink:href="#DejaVuSans-6f" transform="translate(2257.789062 0)"/>
     <use xlink:href="#DejaVuSans-6c" transform="translate(2318.970703 0)"/>
     <use xlink:href="#DejaVuSans-6c" transform="translate(2346.753906 0)"/>
     <use xlink:href="#DejaVuSans-6f" transform="translate(2374.537109 0)"/>
     <use xlink:href="#DejaVuSans-77" transform="translate(2435.71875 0)"/>
     <use xlink:href="#DejaVuSans-2d" transform="translate(2517.505859 0)"/>
     <use xlink:href="#DejaVuSans-75" transform="translate(2553.589844 0)"/>
     <use xlink:href="#DejaVuSans-70" transform="translate(2616.96875 0)"/>
    </g>
   </g>
   <g id="line2d_18">
    <path d="M 251.325937 201.435932 
" clip-path="url(#p2fe4a60c95)" style="fill: none; stroke: #7fb685; stroke-width: 1.5; stroke-linecap: square"/>
    <defs>
     <path id="m99a80db555" d="M 0 4 
C 1.060812 4 2.078319 3.578535 2.828427 2.828427 
C 3.578535 2.078319 4 1.060812 4 0 
C 4 -1.060812 3.578535 -2.078319 2.828427 -2.828427 
C 2.078319 -3.578535 1.060812 -4 0 -4 
C -1.060812 -4 -2.078319 -3.578535 -2.828427 -2.828427 
C -3.578535 -2.078319 -4 -1.060812 -4 0 
C -4 1.060812 -3.578535 2.078319 -2.828427 2.828427 
C -2.078319 3.578535 -1.060812 4 0 4 
z
" style="stroke: #7fb685"/>
    </defs>
    <g clip-path="url(#p2fe4a60c95)">
     <use xlink:href="#m99a80db555" x="251.325937" y="201.435932" style="fill: #7fb685; stroke: #7fb685"/>
    </g>
   </g>
   <g id="line2d_19">
    <path d="M 455.344687 128.428795 
" clip-path="url(#p2fe4a60c95)" style="fill: none; stroke: #7fb685; stroke-width: 1.5; stroke-linecap: square"/>
    <g clip-path="url(#p2fe4a60c95)">
     <use xlink:href="#m99a80db555" x="455.344687" y="128.428795" style="fill: #7fb685; stroke: #7fb685"/>
    </g>
   </g>
   <g id="line2d_20">
    <path d="M 659.363437 58.889992 
" clip-path="url(#p2fe4a60c95)" style="fill: none; stroke: #7fb685; stroke-width: 1.5; stroke-linecap: square"/>
    <g clip-path="url(#p2fe4a60c95)">
     <use xlink:href="#m99a80db555" x="659.363437" y="58.889992" style="fill: #7fb685; stroke: #7fb685"/>
    </g>
   </g>
  </g>
 </g>
 <defs>
  <clipPath id="p2fe4a60c95">
   <rect x="47.307187" y="23.837812" width="725.4" height="277.2"/>
  </clipPath>
 </defs>
</svg>
