<?xml version="1.0" encoding="utf-8" standalone="no"?>
<!DOCTYPE svg PUBLIC "-//W3C//DTD SVG 1.1//EN"
  "http://www.w3.org/Graphics/SVG/1.1/DTD/svg11.dtd">
<svg xmlns:xlink="http://www.w3.org/1999/xlink" width="788.995312pt" height="328.473875pt" viewBox="0 0 788.995312 328.473875" xmlns="http://www.w3.org/2000/svg" version="1.1">
 <metadata>
  <rdf:RDF xmlns:dc="http://purl.org/dc/elements/1.1/" xmlns:cc="http://creativecommons.org/ns#" xmlns:rdf="http://www.w3.org/1999/02/22-rdf-syntax-ns#">
   <cc:Work>
    <dc:type rdf:resource="http://purl.org/dc/dcmitype/StillImage"/>
    <dc:date>2026-06-18T23:16:11.794782</dc:date>
    <dc:format>image/svg+xml</dc:format>
    <dc:creator>
     <cc:Agent>
      <dc:title>Matplotlib v3.10.9, https://matplotlib.org/</dc:title>
     </cc:Agent>
    </dc:creator>
   </cc:Work>
  </rdf:RDF>
 </metadata>
 <defs>
  <style type="text/css">*{stroke-linejoin: round; stroke-linecap: butt}</style>
 </defs>
 <g id="figure_1">
  <g id="patch_1">
   <path d="M 0 328.473875 
L 788.995312 328.473875 
L 788.995312 0 
L 0 0 
z
" style="fill: #ffffff"/>
  </g>
  <g id="axes_1">
   <g id="patch_2">
    <path d="M 56.395313 289.949812 
L 781.795313 289.949812 
L 781.795313 23.837812 
L 56.395313 23.837812 
z
" style="fill: #ffffff"/>
   </g>
   <g id="matplotlib.axis_1">
    <g id="xtick_1">
     <g id="line2d_1">
      <defs>
       <path id="m3f94518145" d="M 0 0 
L 0 3.5 
" style="stroke: #000000; stroke-width: 0.8"/>
      </defs>
      <g>
       <use xlink:href="#m3f94518145" x="56.395313" y="289.949812" style="stroke: #000000; stroke-width: 0.8"/>
      </g>
     </g>
     <g id="text_1">
      <!-- 0 -->
      <g transform="translate(53.214063 304.54825) scale(0.1 -0.1)">
       <defs>
        <path id="DejaVuSans-30" d="M 2034 4250 
Q 1547 4250 1301 3770 
Q 1056 3291 1056 2328 
Q 1056 1369 1301 889 
Q 1547 409 2034 409 
Q 2525 409 2770 889 
Q 3016 1369 3016 2328 
Q 3016 3291 2770 3770 
Q 2525 4250 2034 4250 
z
M 2034 4750 
Q 2819 4750 3233 4129 
Q 3647 3509 3647 2328 
Q 3647 1150 3233 529 
Q 2819 -91 2034 -91 
Q 1250 -91 836 529 
Q 422 1150 422 2328 
Q 422 3509 836 4129 
Q 1250 4750 2034 4750 
z
" transform="scale(0.015625)"/>
       </defs>
       <use xlink:href="#DejaVuSans-30"/>
      </g>
     </g>
    </g>
    <g id="xtick_2">
     <g id="line2d_2">
      <g>
       <use xlink:href="#m3f94518145" x="161.525747" y="289.949812" style="stroke: #000000; stroke-width: 0.8"/>
      </g>
     </g>
     <g id="text_2">
      <!-- 50 -->
      <g transform="translate(155.163247 304.54825) scale(0.1 -0.1)">
       <defs>
        <path id="DejaVuSans-35" d="M 691 4666 
L 3169 4666 
L 3169 4134 
L 1269 4134 
L 1269 2991 
Q 1406 3038 1543 3061 
Q 1681 3084 1819 3084 
Q 2600 3084 3056 2656 
Q 3513 2228 3513 1497 
Q 3513 744 3044 326 
Q 2575 -91 1722 -91 
Q 1428 -91 1123 -41 
Q 819 9 494 109 
L 494 744 
Q 775 591 1075 516 
Q 1375 441 1709 441 
Q 2250 441 2565 725 
Q 2881 1009 2881 1497 
Q 2881 1984 2565 2268 
Q 2250 2553 1709 2553 
Q 1456 2553 1204 2497 
Q 953 2441 691 2322 
L 691 4666 
z
" transform="scale(0.015625)"/>
       </defs>
       <use xlink:href="#DejaVuSans-35"/>
       <use xlink:href="#DejaVuSans-30" transform="translate(63.623047 0)"/>
      </g>
     </g>
    </g>
    <g id="xtick_3">
     <g id="line2d_3">
      <g>
       <use xlink:href="#m3f94518145" x="266.656182" y="289.949812" style="stroke: #000000; stroke-width: 0.8"/>
      </g>
     </g>
     <g id="text_3">
      <!-- 100 -->
      <g transform="translate(257.112432 304.54825) scale(0.1 -0.1)">
       <defs>
        <path id="DejaVuSans-31" d="M 794 531 
L 1825 531 
L 1825 4091 
L 703 3866 
L 703 4441 
L 1819 4666 
L 2450 4666 
L 2450 531 
L 3481 531 
L 3481 0 
L 794 0 
L 794 531 
z
" transform="scale(0.015625)"/>
       </defs>
       <use xlink:href="#DejaVuSans-31"/>
       <use xlink:href="#DejaVuSans-30" transform="translate(63.623047 0)"/>
       <use xlink:href="#DejaVuSans-30" transform="translate(127.246094 0)"/>
      </g>
     </g>
    </g>
    <g id="xtick_4">
     <g id="line2d_4">
      <g>
       <use xlink:href="#m3f94518145" x="371.786617" y="289.949812" style="stroke: #000000; stroke-width: 0.8"/>
      </g>
     </g>
     <g id="text_4">
      <!-- 150 -->
      <g transform="translate(362.242867 304.54825) scale(0.1 -0.1)">
       <use xlink:href="#DejaVuSans-31"/>
       <use xlink:href="#DejaVuSans-35" transform="translate(63.623047 0)"/>
       <use xlink:href="#DejaVuSans-30" transform="translate(127.246094 0)"/>
      </g>
     </g>
    </g>
    <g id="xtick_5">
     <g id="line2d_5">
      <g>
       <use xlink:href="#m3f94518145" x="476.917052" y="289.949812" style="stroke: #000000; stroke-width: 0.8"/>
      </g>
     </g>
     <g id="text_5">
      <!-- 200 -->
      <g transform="translate(467.373302 304.54825) scale(0.1 -0.1)">
       <defs>
        <path id="DejaVuSans-32" d="M 1228 531 
L 3431 531 
L 3431 0 
L 469 0 
L 469 531 
Q 828 903 1448 1529 
Q 2069 2156 2228 2338 
Q 2531 2678 2651 2914 
Q 2772 3150 2772 3378 
Q 2772 3750 2511 3984 
Q 2250 4219 1831 4219 
Q 1534 4219 1204 4116 
Q 875 4013 500 3803 
L 500 4441 
Q 881 4594 1212 4672 
Q 1544 4750 1819 4750 
Q 2544 4750 2975 4387 
Q 3406 4025 3406 3419 
Q 3406 3131 3298 2873 
Q 3191 2616 2906 2266 
Q 2828 2175 2409 1742 
Q 1991 1309 1228 531 
z
" transform="scale(0.015625)"/>
       </defs>
       <use xlink:href="#DejaVuSans-32"/>
       <use xlink:href="#DejaVuSans-30" transform="translate(63.623047 0)"/>
       <use xlink:href="#DejaVuSans-30" transform="translate(127.246094 0)"/>
      </g>
     </g>
    </g>
    <g id="xtick_6">
     <g id="line2d_6">
      <g>
       <use xlink:href="#m3f94518145" x="582.047486" y="289.949812" style="stroke: #000000; stroke-width: 0.8"/>
      </g>
     </g>
     <g id="text_6">
      <!-- 250 -->
      <g transform="translate(572.503736 304.54825) scale(0.1 -0.1)">
       <use xlink:href="#DejaVuSans-32"/>
       <use xlink:href="#DejaVuSans-35" transform="translate(63.623047 0)"/>
       <use xlink:href="#DejaVuSans-30" transform="translate(127.246094 0)"/>
      </g>
     </g>
    </g>
    <g id="xtick_7">
     <g id="line2d_7">
      <g>
       <use xlink:href="#m3f94518145" x="687.177921" y="289.949812" style="stroke: #000000; stroke-width: 0.8"/>
      </g>
     </g>
     <g id="text_7">
      <!-- 300 -->
      <g transform="translate(677.634171 304.54825) scale(0.1 -0.1)">
       <defs>
        <path id="DejaVuSans-33" d="M 2597 2516 
Q 3050 2419 3304 2112 
Q 3559 1806 3559 1356 
Q 3559 666 3084 287 
Q 2609 -91 1734 -91 
Q 1441 -91 1130 -33 
Q 819 25 488 141 
L 488 750 
Q 750 597 1062 519 
Q 1375 441 1716 441 
Q 2309 441 2620 675 
Q 2931 909 2931 1356 
Q 2931 1769 2642 2001 
Q 2353 2234 1838 2234 
L 1294 2234 
L 1294 2753 
L 1863 2753 
Q 2328 2753 2575 2939 
Q 2822 3125 2822 3475 
Q 2822 3834 2567 4026 
Q 2313 4219 1838 4219 
Q 1578 4219 1281 4162 
Q 984 4106 628 3988 
L 628 4550 
Q 988 4650 1302 4700 
Q 1616 4750 1894 4750 
Q 2613 4750 3031 4423 
Q 3450 4097 3450 3541 
Q 3450 3153 3228 2886 
Q 3006 2619 2597 2516 
z
" transform="scale(0.015625)"/>
       </defs>
       <use xlink:href="#DejaVuSans-33"/>
       <use xlink:href="#DejaVuSans-30" transform="translate(63.623047 0)"/>
       <use xlink:href="#DejaVuSans-30" transform="translate(127.246094 0)"/>
      </g>
     </g>
    </g>
    <g id="text_8">
     <!-- Days from diagnosis index -->
     <g transform="translate(346.289922 318.986219) scale(0.11 -0.11)">
      <defs>
       <path id="DejaVuSans-44" d="M 1259 4147 
L 1259 519 
L 2022 519 
Q 2988 519 3436 956 
Q 3884 1394 3884 2338 
Q 3884 3275 3436 3711 
Q 2988 4147 2022 4147 
L 1259 4147 
z
M 628 4666 
L 1925 4666 
Q 3281 4666 3915 4102 
Q 4550 3538 4550 2338 
Q 4550 1131 3912 565 
Q 3275 0 1925 0 
L 628 0 
L 628 4666 
z
" transform="scale(0.015625)"/>
       <path id="DejaVuSans-61" d="M 2194 1759 
Q 1497 1759 1228 1600 
Q 959 1441 959 1056 
Q 959 750 1161 570 
Q 1363 391 1709 391 
Q 2188 391 2477 730 
Q 2766 1069 2766 1631 
L 2766 1759 
L 2194 1759 
z
M 3341 1997 
L 3341 0 
L 2766 0 
L 2766 531 
Q 2569 213 2275 61 
Q 1981 -91 1556 -91 
Q 1019 -91 701 211 
Q 384 513 384 1019 
Q 384 1609 779 1909 
Q 1175 2209 1959 2209 
L 2766 2209 
L 2766 2266 
Q 2766 2663 2505 2880 
Q 2244 3097 1772 3097 
Q 1472 3097 1187 3025 
Q 903 2953 641 2809 
L 641 3341 
Q 956 3463 1253 3523 
Q 1550 3584 1831 3584 
Q 2591 3584 2966 3190 
Q 3341 2797 3341 1997 
z
" transform="scale(0.015625)"/>
       <path id="DejaVuSans-79" d="M 2059 -325 
Q 1816 -950 1584 -1140 
Q 1353 -1331 966 -1331 
L 506 -1331 
L 506 -850 
L 844 -850 
Q 1081 -850 1212 -737 
Q 1344 -625 1503 -206 
L 1606 56 
L 191 3500 
L 800 3500 
L 1894 763 
L 2988 3500 
L 3597 3500 
L 2059 -325 
z
" transform="scale(0.015625)"/>
       <path id="DejaVuSans-73" d="M 2834 3397 
L 2834 2853 
Q 2591 2978 2328 3040 
Q 2066 3103 1784 3103 
Q 1356 3103 1142 2972 
Q 928 2841 928 2578 
Q 928 2378 1081 2264 
Q 1234 2150 1697 2047 
L 1894 2003 
Q 2506 1872 2764 1633 
Q 3022 1394 3022 966 
Q 3022 478 2636 193 
Q 2250 -91 1575 -91 
Q 1294 -91 989 -36 
Q 684 19 347 128 
L 347 722 
Q 666 556 975 473 
Q 1284 391 1588 391 
Q 1994 391 2212 530 
Q 2431 669 2431 922 
Q 2431 1156 2273 1281 
Q 2116 1406 1581 1522 
L 1381 1569 
Q 847 1681 609 1914 
Q 372 2147 372 2553 
Q 372 3047 722 3315 
Q 1072 3584 1716 3584 
Q 2034 3584 2315 3537 
Q 2597 3491 2834 3397 
z
" transform="scale(0.015625)"/>
       <path id="DejaVuSans-20" transform="scale(0.015625)"/>
       <path id="DejaVuSans-66" d="M 2375 4863 
L 2375 4384 
L 1825 4384 
Q 1516 4384 1395 4259 
Q 1275 4134 1275 3809 
L 1275 3500 
L 2222 3500 
L 2222 3053 
L 1275 3053 
L 1275 0 
L 697 0 
L 697 3053 
L 147 3053 
L 147 3500 
L 697 3500 
L 697 3744 
Q 697 4328 969 4595 
Q 1241 4863 1831 4863 
L 2375 4863 
z
" transform="scale(0.015625)"/>
       <path id="DejaVuSans-72" d="M 2631 2963 
Q 2534 3019 2420 3045 
Q 2306 3072 2169 3072 
Q 1681 3072 1420 2755 
Q 1159 2438 1159 1844 
L 1159 0 
L 581 0 
L 581 3500 
L 1159 3500 
L 1159 2956 
Q 1341 3275 1631 3429 
Q 1922 3584 2338 3584 
Q 2397 3584 2469 3576 
Q 2541 3569 2628 3553 
L 2631 2963 
z
" transform="scale(0.015625)"/>
       <path id="DejaVuSans-6f" d="M 1959 3097 
Q 1497 3097 1228 2736 
Q 959 2375 959 1747 
Q 959 1119 1226 758 
Q 1494 397 1959 397 
Q 2419 397 2687 759 
Q 2956 1122 2956 1747 
Q 2956 2369 2687 2733 
Q 2419 3097 1959 3097 
z
M 1959 3584 
Q 2709 3584 3137 3096 
Q 3566 2609 3566 1747 
Q 3566 888 3137 398 
Q 2709 -91 1959 -91 
Q 1206 -91 779 398 
Q 353 888 353 1747 
Q 353 2609 779 3096 
Q 1206 3584 1959 3584 
z
" transform="scale(0.015625)"/>
       <path id="DejaVuSans-6d" d="M 3328 2828 
Q 3544 3216 3844 3400 
Q 4144 3584 4550 3584 
Q 5097 3584 5394 3201 
Q 5691 2819 5691 2113 
L 5691 0 
L 5113 0 
L 5113 2094 
Q 5113 2597 4934 2840 
Q 4756 3084 4391 3084 
Q 3944 3084 3684 2787 
Q 3425 2491 3425 1978 
L 3425 0 
L 2847 0 
L 2847 2094 
Q 2847 2600 2669 2842 
Q 2491 3084 2119 3084 
Q 1678 3084 1418 2786 
Q 1159 2488 1159 1978 
L 1159 0 
L 581 0 
L 581 3500 
L 1159 3500 
L 1159 2956 
Q 1356 3278 1631 3431 
Q 1906 3584 2284 3584 
Q 2666 3584 2933 3390 
Q 3200 3197 3328 2828 
z
" transform="scale(0.015625)"/>
       <path id="DejaVuSans-64" d="M 2906 2969 
L 2906 4863 
L 3481 4863 
L 3481 0 
L 2906 0 
L 2906 525 
Q 2725 213 2448 61 
Q 2172 -91 1784 -91 
Q 1150 -91 751 415 
Q 353 922 353 1747 
Q 353 2572 751 3078 
Q 1150 3584 1784 3584 
Q 2172 3584 2448 3432 
Q 2725 3281 2906 2969 
z
M 947 1747 
Q 947 1113 1208 752 
Q 1469 391 1925 391 
Q 2381 391 2643 752 
Q 2906 1113 2906 1747 
Q 2906 2381 2643 2742 
Q 2381 3103 1925 3103 
Q 1469 3103 1208 2742 
Q 947 2381 947 1747 
z
" transform="scale(0.015625)"/>
       <path id="DejaVuSans-69" d="M 603 3500 
L 1178 3500 
L 1178 0 
L 603 0 
L 603 3500 
z
M 603 4863 
L 1178 4863 
L 1178 4134 
L 603 4134 
L 603 4863 
z
" transform="scale(0.015625)"/>
       <path id="DejaVuSans-67" d="M 2906 1791 
Q 2906 2416 2648 2759 
Q 2391 3103 1925 3103 
Q 1463 3103 1205 2759 
Q 947 2416 947 1791 
Q 947 1169 1205 825 
Q 1463 481 1925 481 
Q 2391 481 2648 825 
Q 2906 1169 2906 1791 
z
M 3481 434 
Q 3481 -459 3084 -895 
Q 2688 -1331 1869 -1331 
Q 1566 -1331 1297 -1286 
Q 1028 -1241 775 -1147 
L 775 -588 
Q 1028 -725 1275 -790 
Q 1522 -856 1778 -856 
Q 2344 -856 2625 -561 
Q 2906 -266 2906 331 
L 2906 616 
Q 2728 306 2450 153 
Q 2172 0 1784 0 
Q 1141 0 747 490 
Q 353 981 353 1791 
Q 353 2603 747 3093 
Q 1141 3584 1784 3584 
Q 2172 3584 2450 3431 
Q 2728 3278 2906 2969 
L 2906 3500 
L 3481 3500 
L 3481 434 
z
" transform="scale(0.015625)"/>
       <path id="DejaVuSans-6e" d="M 3513 2113 
L 3513 0 
L 2938 0 
L 2938 2094 
Q 2938 2591 2744 2837 
Q 2550 3084 2163 3084 
Q 1697 3084 1428 2787 
Q 1159 2491 1159 1978 
L 1159 0 
L 581 0 
L 581 3500 
L 1159 3500 
L 1159 2956 
Q 1366 3272 1645 3428 
Q 1925 3584 2291 3584 
Q 2894 3584 3203 3211 
Q 3513 2838 3513 2113 
z
" transform="scale(0.015625)"/>
       <path id="DejaVuSans-65" d="M 3597 1894 
L 3597 1613 
L 953 1613 
Q 991 1019 1311 708 
Q 1631 397 2203 397 
Q 2534 397 2845 478 
Q 3156 559 3463 722 
L 3463 178 
Q 3153 47 2828 -22 
Q 2503 -91 2169 -91 
Q 1331 -91 842 396 
Q 353 884 353 1716 
Q 353 2575 817 3079 
Q 1281 3584 2069 3584 
Q 2775 3584 3186 3129 
Q 3597 2675 3597 1894 
z
M 3022 2063 
Q 3016 2534 2758 2815 
Q 2500 3097 2075 3097 
Q 1594 3097 1305 2825 
Q 1016 2553 972 2059 
L 3022 2063 
z
" transform="scale(0.015625)"/>
       <path id="DejaVuSans-78" d="M 3513 3500 
L 2247 1797 
L 3578 0 
L 2900 0 
L 1881 1375 
L 863 0 
L 184 0 
L 1544 1831 
L 300 3500 
L 978 3500 
L 1906 2253 
L 2834 3500 
L 3513 3500 
z
" transform="scale(0.015625)"/>
      </defs>
      <use xlink:href="#DejaVuSans-44"/>
      <use xlink:href="#DejaVuSans-61" transform="translate(77.001953 0)"/>
      <use xlink:href="#DejaVuSans-79" transform="translate(138.28125 0)"/>
      <use xlink:href="#DejaVuSans-73" transform="translate(197.460938 0)"/>
      <use xlink:href="#DejaVuSans-20" transform="translate(249.560547 0)"/>
      <use xlink:href="#DejaVuSans-66" transform="translate(281.347656 0)"/>
      <use xlink:href="#DejaVuSans-72" transform="translate(316.552734 0)"/>
      <use xlink:href="#DejaVuSans-6f" transform="translate(355.416016 0)"/>
      <use xlink:href="#DejaVuSans-6d" transform="translate(416.597656 0)"/>
      <use xlink:href="#DejaVuSans-20" transform="translate(514.009766 0)"/>
      <use xlink:href="#DejaVuSans-64" transform="translate(545.796875 0)"/>
      <use xlink:href="#DejaVuSans-69" transform="translate(609.273438 0)"/>
      <use xlink:href="#DejaVuSans-61" transform="translate(637.056641 0)"/>
      <use xlink:href="#DejaVuSans-67" transform="translate(698.335938 0)"/>
      <use xlink:href="#DejaVuSans-6e" transform="translate(761.8125 0)"/>
      <use xlink:href="#DejaVuSans-6f" transform="translate(825.191406 0)"/>
      <use xlink:href="#DejaVuSans-73" transform="translate(886.373047 0)"/>
      <use xlink:href="#DejaVuSans-69" transform="translate(938.472656 0)"/>
      <use xlink:href="#DejaVuSans-73" transform="translate(966.255859 0)"/>
      <use xlink:href="#DejaVuSans-20" transform="translate(1018.355469 0)"/>
      <use xlink:href="#DejaVuSans-69" transform="translate(1050.142578 0)"/>
      <use xlink:href="#DejaVuSans-6e" transform="translate(1077.925781 0)"/>
      <use xlink:href="#DejaVuSans-64" transform="translate(1141.304688 0)"/>
      <use xlink:href="#DejaVuSans-65" transform="translate(1204.78125 0)"/>
      <use xlink:href="#DejaVuSans-78" transform="translate(1264.554688 0)"/>
     </g>
    </g>
   </g>
   <g id="matplotlib.axis_2">
    <g id="ytick_1">
     <g id="line2d_8"/>
     <g id="text_9">
      <!-- Patient A -->
      <g transform="translate(8.059375 68.336514) scale(0.1 -0.1)">
       <defs>
        <path id="DejaVuSans-50" d="M 1259 4147 
L 1259 2394 
L 2053 2394 
Q 2494 2394 2734 2622 
Q 2975 2850 2975 3272 
Q 2975 3691 2734 3919 
Q 2494 4147 2053 4147 
L 1259 4147 
z
M 628 4666 
L 2053 4666 
Q 2838 4666 3239 4311 
Q 3641 3956 3641 3272 
Q 3641 2581 3239 2228 
Q 2838 1875 2053 1875 
L 1259 1875 
L 1259 0 
L 628 0 
L 628 4666 
z
" transform="scale(0.015625)"/>
        <path id="DejaVuSans-74" d="M 1172 4494 
L 1172 3500 
L 2356 3500 
L 2356 3053 
L 1172 3053 
L 1172 1153 
Q 1172 725 1289 603 
Q 1406 481 1766 481 
L 2356 481 
L 2356 0 
L 1766 0 
Q 1100 0 847 248 
Q 594 497 594 1153 
L 594 3053 
L 172 3053 
L 172 3500 
L 594 3500 
L 594 4494 
L 1172 4494 
z
" transform="scale(0.015625)"/>
        <path id="DejaVuSans-41" d="M 2188 4044 
L 1331 1722 
L 3047 1722 
L 2188 4044 
z
M 1831 4666 
L 2547 4666 
L 4325 0 
L 3669 0 
L 3244 1197 
L 1141 1197 
L 716 0 
L 50 0 
L 1831 4666 
z
" transform="scale(0.015625)"/>
       </defs>
       <use xlink:href="#DejaVuSans-50"/>
       <use xlink:href="#DejaVuSans-61" transform="translate(55.802734 0)"/>
       <use xlink:href="#DejaVuSans-74" transform="translate(117.082031 0)"/>
       <use xlink:href="#DejaVuSans-69" transform="translate(156.291016 0)"/>
       <use xlink:href="#DejaVuSans-65" transform="translate(184.074219 0)"/>
       <use xlink:href="#DejaVuSans-6e" transform="translate(245.597656 0)"/>
       <use xlink:href="#DejaVuSans-74" transform="translate(308.976562 0)"/>
       <use xlink:href="#DejaVuSans-20" transform="translate(348.185547 0)"/>
       <use xlink:href="#DejaVuSans-41" transform="translate(379.972656 0)"/>
      </g>
     </g>
    </g>
    <g id="ytick_2">
     <g id="line2d_9"/>
     <g id="text_10">
      <!-- Patient B -->
      <g transform="translate(8.039062 130.951102) scale(0.1 -0.1)">
       <defs>
        <path id="DejaVuSans-42" d="M 1259 2228 
L 1259 519 
L 2272 519 
Q 2781 519 3026 730 
Q 3272 941 3272 1375 
Q 3272 1813 3026 2020 
Q 2781 2228 2272 2228 
L 1259 2228 
z
M 1259 4147 
L 1259 2741 
L 2194 2741 
Q 2656 2741 2882 2914 
Q 3109 3088 3109 3444 
Q 3109 3797 2882 3972 
Q 2656 4147 2194 4147 
L 1259 4147 
z
M 628 4666 
L 2241 4666 
Q 2963 4666 3353 4366 
Q 3744 4066 3744 3513 
Q 3744 3084 3544 2831 
Q 3344 2578 2956 2516 
Q 3422 2416 3680 2098 
Q 3938 1781 3938 1306 
Q 3938 681 3513 340 
Q 3088 0 2303 0 
L 628 0 
L 628 4666 
z
" transform="scale(0.015625)"/>
       </defs>
       <use xlink:href="#DejaVuSans-50"/>
       <use xlink:href="#DejaVuSans-61" transform="translate(55.802734 0)"/>
       <use xlink:href="#DejaVuSans-74" transform="translate(117.082031 0)"/>
       <use xlink:href="#DejaVuSans-69" transform="translate(156.291016 0)"/>
       <use xlink:href="#DejaVuSans-65" transform="translate(184.074219 0)"/>
       <use xlink:href="#DejaVuSans-6e" transform="translate(245.597656 0)"/>
       <use xlink:href="#DejaVuSans-74" transform="translate(308.976562 0)"/>
       <use xlink:href="#DejaVuSans-20" transform="translate(348.185547 0)"/>
       <use xlink:href="#DejaVuSans-42" transform="translate(379.972656 0)"/>
      </g>
     </g>
    </g>
    <g id="ytick_3">
     <g id="line2d_10"/>
     <g id="text_11">
      <!-- Patient C -->
      <g transform="translate(7.917187 193.56569) scale(0.1 -0.1)">
       <defs>
        <path id="DejaVuSans-43" d="M 4122 4306 
L 4122 3641 
Q 3803 3938 3442 4084 
Q 3081 4231 2675 4231 
Q 1875 4231 1450 3742 
Q 1025 3253 1025 2328 
Q 1025 1406 1450 917 
Q 1875 428 2675 428 
Q 3081 428 3442 575 
Q 3803 722 4122 1019 
L 4122 359 
Q 3791 134 3420 21 
Q 3050 -91 2638 -91 
Q 1578 -91 968 557 
Q 359 1206 359 2328 
Q 359 3453 968 4101 
Q 1578 4750 2638 4750 
Q 3056 4750 3426 4639 
Q 3797 4528 4122 4306 
z
" transform="scale(0.015625)"/>
       </defs>
       <use xlink:href="#DejaVuSans-50"/>
       <use xlink:href="#DejaVuSans-61" transform="translate(55.802734 0)"/>
       <use xlink:href="#DejaVuSans-74" transform="translate(117.082031 0)"/>
       <use xlink:href="#DejaVuSans-69" transform="translate(156.291016 0)"/>
       <use xlink:href="#DejaVuSans-65" transform="translate(184.074219 0)"/>
       <use xlink:href="#DejaVuSans-6e" transform="translate(245.597656 0)"/>
       <use xlink:href="#DejaVuSans-74" transform="translate(308.976562 0)"/>
       <use xlink:href="#DejaVuSans-20" transform="translate(348.185547 0)"/>
       <use xlink:href="#DejaVuSans-43" transform="translate(379.972656 0)"/>
      </g>
     </g>
    </g>
    <g id="ytick_4">
     <g id="line2d_11"/>
     <g id="text_12">
      <!-- Patient D -->
      <g transform="translate(7.2 256.180278) scale(0.1 -0.1)">
       <use xlink:href="#DejaVuSans-50"/>
       <use xlink:href="#DejaVuSans-61" transform="translate(55.802734 0)"/>
       <use xlink:href="#DejaVuSans-74" transform="translate(117.082031 0)"/>
       <use xlink:href="#DejaVuSans-69" transform="translate(156.291016 0)"/>
       <use xlink:href="#DejaVuSans-65" transform="translate(184.074219 0)"/>
       <use xlink:href="#DejaVuSans-6e" transform="translate(245.597656 0)"/>
       <use xlink:href="#DejaVuSans-74" transform="translate(308.976562 0)"/>
       <use xlink:href="#DejaVuSans-20" transform="translate(348.185547 0)"/>
       <use xlink:href="#DejaVuSans-44" transform="translate(379.972656 0)"/>
      </g>
     </g>
    </g>
   </g>
   <g id="LineCollection_1">
    <path d="M 56.395313 64.537295 
L 182.551834 64.537295 
" clip-path="url(#p45e0fd9e9a)" style="fill: none; stroke: #7ba6d0; stroke-opacity: 0.55; stroke-width: 7"/>
   </g>
   <g id="LineCollection_2">
    <path d="M 56.395313 127.151883 
L 151.012704 127.151883 
" clip-path="url(#p45e0fd9e9a)" style="fill: none; stroke: #7ba6d0; stroke-opacity: 0.55; stroke-width: 7"/>
   </g>
   <g id="LineCollection_3">
    <path d="M 56.395313 189.766471 
L 441.172704 189.766471 
" clip-path="url(#p45e0fd9e9a)" style="fill: none; stroke: #7ba6d0; stroke-opacity: 0.55; stroke-width: 7"/>
   </g>
   <g id="LineCollection_4">
    <path d="M 56.395313 252.38106 
L 119.473573 252.38106 
" clip-path="url(#p45e0fd9e9a)" style="fill: none; stroke: #7ba6d0; stroke-opacity: 0.55; stroke-width: 7"/>
   </g>
   <g id="line2d_12">
    <path d="M 245.630095 289.949812 
L 245.630095 23.837812 
" clip-path="url(#p45e0fd9e9a)" style="fill: none; stroke-dasharray: 7.4,3.2; stroke-dashoffset: 0; stroke: #e0b663; stroke-width: 2"/>
   </g>
   <g id="patch_3">
    <path d="M 56.395313 289.949812 
L 781.795312 289.949812 
" style="fill: none; stroke: #000000; stroke-width: 0.8; stroke-linejoin: miter; stroke-linecap: square"/>
   </g>
   <g id="PathCollection_1">
    <defs>
     <path id="m33b0bfd3f7" d="M 0 5 
C 1.326016 5 2.597899 4.473168 3.535534 3.535534 
C 4.473168 2.597899 5 1.326016 5 0 
C 5 -1.326016 4.473168 -2.597899 3.535534 -3.535534 
C 2.597899 -4.473168 1.326016 -5 0 -5 
C -1.326016 -5 -2.597899 -4.473168 -3.535534 -3.535534 
C -4.473168 -2.597899 -5 -1.326016 -5 0 
C -5 1.326016 -4.473168 2.597899 -3.535534 3.535534 
C -2.597899 4.473168 -1.326016 5 0 5 
z
" style="stroke: #ffffff; stroke-width: 0.8"/>
    </defs>
    <g clip-path="url(#p45e0fd9e9a)">
     <use xlink:href="#m33b0bfd3f7" x="182.551834" y="64.537295" style="fill: #7fb685; stroke: #ffffff; stroke-width: 0.8"/>
    </g>
   </g>
   <g id="text_13">
    <!-- Treatment, day 60 -->
    <g style="fill: #444444" transform="translate(136.788553 51.186981) scale(0.1 -0.1)">
     <defs>
      <path id="DejaVuSans-54" d="M -19 4666 
L 3928 4666 
L 3928 4134 
L 2272 4134 
L 2272 0 
L 1638 0 
L 1638 4134 
L -19 4134 
L -19 4666 
z
" transform="scale(0.015625)"/>
      <path id="DejaVuSans-2c" d="M 750 794 
L 1409 794 
L 1409 256 
L 897 -744 
L 494 -744 
L 750 256 
L 750 794 
z
" transform="scale(0.015625)"/>
      <path id="DejaVuSans-36" d="M 2113 2584 
Q 1688 2584 1439 2293 
Q 1191 2003 1191 1497 
Q 1191 994 1439 701 
Q 1688 409 2113 409 
Q 2538 409 2786 701 
Q 3034 994 3034 1497 
Q 3034 2003 2786 2293 
Q 2538 2584 2113 2584 
z
M 3366 4563 
L 3366 3988 
Q 3128 4100 2886 4159 
Q 2644 4219 2406 4219 
Q 1781 4219 1451 3797 
Q 1122 3375 1075 2522 
Q 1259 2794 1537 2939 
Q 1816 3084 2150 3084 
Q 2853 3084 3261 2657 
Q 3669 2231 3669 1497 
Q 3669 778 3244 343 
Q 2819 -91 2113 -91 
Q 1303 -91 875 529 
Q 447 1150 447 2328 
Q 447 3434 972 4092 
Q 1497 4750 2381 4750 
Q 2619 4750 2861 4703 
Q 3103 4656 3366 4563 
z
" transform="scale(0.015625)"/>
     </defs>
     <use xlink:href="#DejaVuSans-54"/>
     <use xlink:href="#DejaVuSans-72" transform="translate(46.333984 0)"/>
     <use xlink:href="#DejaVuSans-65" transform="translate(85.197266 0)"/>
     <use xlink:href="#DejaVuSans-61" transform="translate(146.720703 0)"/>
     <use xlink:href="#DejaVuSans-74" transform="translate(208 0)"/>
     <use xlink:href="#DejaVuSans-6d" transform="translate(247.208984 0)"/>
     <use xlink:href="#DejaVuSans-65" transform="translate(344.621094 0)"/>
     <use xlink:href="#DejaVuSans-6e" transform="translate(406.144531 0)"/>
     <use xlink:href="#DejaVuSans-74" transform="translate(469.523438 0)"/>
     <use xlink:href="#DejaVuSans-2c" transform="translate(508.732422 0)"/>
     <use xlink:href="#DejaVuSans-20" transform="translate(540.519531 0)"/>
     <use xlink:href="#DejaVuSans-64" transform="translate(572.306641 0)"/>
     <use xlink:href="#DejaVuSans-61" transform="translate(635.783203 0)"/>
     <use xlink:href="#DejaVuSans-79" transform="translate(697.0625 0)"/>
     <use xlink:href="#DejaVuSans-20" transform="translate(756.242188 0)"/>
     <use xlink:href="#DejaVuSans-36" transform="translate(788.029297 0)"/>
     <use xlink:href="#DejaVuSans-30" transform="translate(851.652344 0)"/>
    </g>
   </g>
   <g id="text_14">
    <!-- Initiated before day 90 -->
    <g style="fill: #555555" transform="translate(571.534443 67.29667) scale(0.1 -0.1)">
     <defs>
      <path id="DejaVuSans-49" d="M 628 4666 
L 1259 4666 
L 1259 0 
L 628 0 
L 628 4666 
z
" transform="scale(0.015625)"/>
      <path id="DejaVuSans-62" d="M 3116 1747 
Q 3116 2381 2855 2742 
Q 2594 3103 2138 3103 
Q 1681 3103 1420 2742 
Q 1159 2381 1159 1747 
Q 1159 1113 1420 752 
Q 1681 391 2138 391 
Q 2594 391 2855 752 
Q 3116 1113 3116 1747 
z
M 1159 2969 
Q 1341 3281 1617 3432 
Q 1894 3584 2278 3584 
Q 2916 3584 3314 3078 
Q 3713 2572 3713 1747 
Q 3713 922 3314 415 
Q 2916 -91 2278 -91 
Q 1894 -91 1617 61 
Q 1341 213 1159 525 
L 1159 0 
L 581 0 
L 581 4863 
L 1159 4863 
L 1159 2969 
z
" transform="scale(0.015625)"/>
      <path id="DejaVuSans-39" d="M 703 97 
L 703 672 
Q 941 559 1184 500 
Q 1428 441 1663 441 
Q 2288 441 2617 861 
Q 2947 1281 2994 2138 
Q 2813 1869 2534 1725 
Q 2256 1581 1919 1581 
Q 1219 1581 811 2004 
Q 403 2428 403 3163 
Q 403 3881 828 4315 
Q 1253 4750 1959 4750 
Q 2769 4750 3195 4129 
Q 3622 3509 3622 2328 
Q 3622 1225 3098 567 
Q 2575 -91 1691 -91 
Q 1453 -91 1209 -44 
Q 966 3 703 97 
z
M 1959 2075 
Q 2384 2075 2632 2365 
Q 2881 2656 2881 3163 
Q 2881 3666 2632 3958 
Q 2384 4250 1959 4250 
Q 1534 4250 1286 3958 
Q 1038 3666 1038 3163 
Q 1038 2656 1286 2365 
Q 1534 2075 1959 2075 
z
" transform="scale(0.015625)"/>
     </defs>
     <use xlink:href="#DejaVuSans-49"/>
     <use xlink:href="#DejaVuSans-6e" transform="translate(29.492188 0)"/>
     <use xlink:href="#DejaVuSans-69" transform="translate(92.871094 0)"/>
     <use xlink:href="#DejaVuSans-74" transform="translate(120.654297 0)"/>
     <use xlink:href="#DejaVuSans-69" transform="translate(159.863281 0)"/>
     <use xlink:href="#DejaVuSans-61" transform="translate(187.646484 0)"/>
     <use xlink:href="#DejaVuSans-74" transform="translate(248.925781 0)"/>
     <use xlink:href="#DejaVuSans-65" transform="translate(288.134766 0)"/>
     <use xlink:href="#DejaVuSans-64" transform="translate(349.658203 0)"/>
     <use xlink:href="#DejaVuSans-20" transform="translate(413.134766 0)"/>
     <use xlink:href="#DejaVuSans-62" transform="translate(444.921875 0)"/>
     <use xlink:href="#DejaVuSans-65" transform="translate(508.398438 0)"/>
     <use xlink:href="#DejaVuSans-66" transform="translate(569.921875 0)"/>
     <use xlink:href="#DejaVuSans-6f" transform="translate(605.126953 0)"/>
     <use xlink:href="#DejaVuSans-72" transform="translate(666.308594 0)"/>
     <use xlink:href="#DejaVuSans-65" transform="translate(705.171875 0)"/>
     <use xlink:href="#DejaVuSans-20" transform="translate(766.695312 0)"/>
     <use xlink:href="#DejaVuSans-64" transform="translate(798.482422 0)"/>
     <use xlink:href="#DejaVuSans-61" transform="translate(861.958984 0)"/>
     <use xlink:href="#DejaVuSans-79" transform="translate(923.238281 0)"/>
     <use xlink:href="#DejaVuSans-20" transform="translate(982.417969 0)"/>
     <use xlink:href="#DejaVuSans-39" transform="translate(1014.205078 0)"/>
     <use xlink:href="#DejaVuSans-30" transform="translate(1077.828125 0)"/>
    </g>
   </g>
   <g id="PathCollection_2">
    <defs>
     <path id="m66eda131f3" d="M -2.5 5 
L 0 2.5 
L 2.5 5 
L 5 2.5 
L 2.5 0 
L 5 -2.5 
L 2.5 -5 
L 0 -2.5 
L -2.5 -5 
L -5 -2.5 
L -2.5 0 
L -5 2.5 
z
" style="stroke: #ffffff; stroke-width: 0.8"/>
    </defs>
    <g clip-path="url(#p45e0fd9e9a)">
     <use xlink:href="#m66eda131f3" x="151.012704" y="127.151883" style="fill: #9a9a9a; stroke: #ffffff; stroke-width: 0.8"/>
    </g>
   </g>
   <g id="text_15">
    <!-- Censored, day 45 -->
    <g style="fill: #444444" transform="translate(107.090829 113.80157) scale(0.1 -0.1)">
     <defs>
      <path id="DejaVuSans-34" d="M 2419 4116 
L 825 1625 
L 2419 1625 
L 2419 4116 
z
M 2253 4666 
L 3047 4666 
L 3047 1625 
L 3713 1625 
L 3713 1100 
L 3047 1100 
L 3047 0 
L 2419 0 
L 2419 1100 
L 313 1100 
L 313 1709 
L 2253 4666 
z
" transform="scale(0.015625)"/>
     </defs>
     <use xlink:href="#DejaVuSans-43"/>
     <use xlink:href="#DejaVuSans-65" transform="translate(69.824219 0)"/>
     <use xlink:href="#DejaVuSans-6e" transform="translate(131.347656 0)"/>
     <use xlink:href="#DejaVuSans-73" transform="translate(194.726562 0)"/>
     <use xlink:href="#DejaVuSans-6f" transform="translate(246.826172 0)"/>
     <use xlink:href="#DejaVuSans-72" transform="translate(308.007812 0)"/>
     <use xlink:href="#DejaVuSans-65" transform="translate(346.871094 0)"/>
     <use xlink:href="#DejaVuSans-64" transform="translate(408.394531 0)"/>
     <use xlink:href="#DejaVuSans-2c" transform="translate(471.871094 0)"/>
     <use xlink:href="#DejaVuSans-20" transform="translate(503.658203 0)"/>
     <use xlink:href="#DejaVuSans-64" transform="translate(535.445312 0)"/>
     <use xlink:href="#DejaVuSans-61" transform="translate(598.921875 0)"/>
     <use xlink:href="#DejaVuSans-79" transform="translate(660.201172 0)"/>
     <use xlink:href="#DejaVuSans-20" transform="translate(719.380859 0)"/>
     <use xlink:href="#DejaVuSans-34" transform="translate(751.167969 0)"/>
     <use xlink:href="#DejaVuSans-35" transform="translate(814.791016 0)"/>
    </g>
   </g>
   <g id="text_16">
    <!-- Left before day 90 -->
    <g style="fill: #555555" transform="translate(571.534443 129.911258) scale(0.1 -0.1)">
     <defs>
      <path id="DejaVuSans-4c" d="M 628 4666 
L 1259 4666 
L 1259 531 
L 3531 531 
L 3531 0 
L 628 0 
L 628 4666 
z
" transform="scale(0.015625)"/>
     </defs>
     <use xlink:href="#DejaVuSans-4c"/>
     <use xlink:href="#DejaVuSans-65" transform="translate(53.962891 0)"/>
     <use xlink:href="#DejaVuSans-66" transform="translate(115.486328 0)"/>
     <use xlink:href="#DejaVuSans-74" transform="translate(148.941406 0)"/>
     <use xlink:href="#DejaVuSans-20" transform="translate(188.150391 0)"/>
     <use xlink:href="#DejaVuSans-62" transform="translate(219.9375 0)"/>
     <use xlink:href="#DejaVuSans-65" transform="translate(283.414062 0)"/>
     <use xlink:href="#DejaVuSans-66" transform="translate(344.9375 0)"/>
     <use xlink:href="#DejaVuSans-6f" transform="translate(380.142578 0)"/>
     <use xlink:href="#DejaVuSans-72" transform="translate(441.324219 0)"/>
     <use xlink:href="#DejaVuSans-65" transform="translate(480.1875 0)"/>
     <use xlink:href="#DejaVuSans-20" transform="translate(541.710938 0)"/>
     <use xlink:href="#DejaVuSans-64" transform="translate(573.498047 0)"/>
     <use xlink:href="#DejaVuSans-61" transform="translate(636.974609 0)"/>
     <use xlink:href="#DejaVuSans-79" transform="translate(698.253906 0)"/>
     <use xlink:href="#DejaVuSans-20" transform="translate(757.433594 0)"/>
     <use xlink:href="#DejaVuSans-39" transform="translate(789.220703 0)"/>
     <use xlink:href="#DejaVuSans-30" transform="translate(852.84375 0)"/>
    </g>
   </g>
   <g id="PathCollection_3">
    <g clip-path="url(#p45e0fd9e9a)">
     <use xlink:href="#m66eda131f3" x="441.172704" y="189.766471" style="fill: #9a9a9a; stroke: #ffffff; stroke-width: 0.8"/>
    </g>
   </g>
   <g id="text_17">
    <!-- Censored, day 183 -->
    <g style="fill: #444444" transform="translate(449.583139 192.525846) scale(0.1 -0.1)">
     <defs>
      <path id="DejaVuSans-38" d="M 2034 2216 
Q 1584 2216 1326 1975 
Q 1069 1734 1069 1313 
Q 1069 891 1326 650 
Q 1584 409 2034 409 
Q 2484 409 2743 651 
Q 3003 894 3003 1313 
Q 3003 1734 2745 1975 
Q 2488 2216 2034 2216 
z
M 1403 2484 
Q 997 2584 770 2862 
Q 544 3141 544 3541 
Q 544 4100 942 4425 
Q 1341 4750 2034 4750 
Q 2731 4750 3128 4425 
Q 3525 4100 3525 3541 
Q 3525 3141 3298 2862 
Q 3072 2584 2669 2484 
Q 3125 2378 3379 2068 
Q 3634 1759 3634 1313 
Q 3634 634 3220 271 
Q 2806 -91 2034 -91 
Q 1263 -91 848 271 
Q 434 634 434 1313 
Q 434 1759 690 2068 
Q 947 2378 1403 2484 
z
M 1172 3481 
Q 1172 3119 1398 2916 
Q 1625 2713 2034 2713 
Q 2441 2713 2670 2916 
Q 2900 3119 2900 3481 
Q 2900 3844 2670 4047 
Q 2441 4250 2034 4250 
Q 1625 4250 1398 4047 
Q 1172 3844 1172 3481 
z
" transform="scale(0.015625)"/>
     </defs>
     <use xlink:href="#DejaVuSans-43"/>
     <use xlink:href="#DejaVuSans-65" transform="translate(69.824219 0)"/>
     <use xlink:href="#DejaVuSans-6e" transform="translate(131.347656 0)"/>
     <use xlink:href="#DejaVuSans-73" transform="translate(194.726562 0)"/>
     <use xlink:href="#DejaVuSans-6f" transform="translate(246.826172 0)"/>
     <use xlink:href="#DejaVuSans-72" transform="translate(308.007812 0)"/>
     <use xlink:href="#DejaVuSans-65" transform="translate(346.871094 0)"/>
     <use xlink:href="#DejaVuSans-64" transform="translate(408.394531 0)"/>
     <use xlink:href="#DejaVuSans-2c" transform="translate(471.871094 0)"/>
     <use xlink:href="#DejaVuSans-20" transform="translate(503.658203 0)"/>
     <use xlink:href="#DejaVuSans-64" transform="translate(535.445312 0)"/>
     <use xlink:href="#DejaVuSans-61" transform="translate(598.921875 0)"/>
     <use xlink:href="#DejaVuSans-79" transform="translate(660.201172 0)"/>
     <use xlink:href="#DejaVuSans-20" transform="translate(719.380859 0)"/>
     <use xlink:href="#DejaVuSans-31" transform="translate(751.167969 0)"/>
     <use xlink:href="#DejaVuSans-38" transform="translate(814.791016 0)"/>
     <use xlink:href="#DejaVuSans-33" transform="translate(878.414062 0)"/>
    </g>
   </g>
   <g id="text_18">
    <!-- At risk on day 90 -->
    <g style="fill: #7fb685" transform="translate(571.534443 192.486784) scale(0.1 -0.1)">
     <defs>
      <path id="DejaVuSans-Bold-41" d="M 3419 850 
L 1538 850 
L 1241 0 
L 31 0 
L 1759 4666 
L 3194 4666 
L 4922 0 
L 3713 0 
L 3419 850 
z
M 1838 1716 
L 3116 1716 
L 2478 3572 
L 1838 1716 
z
" transform="scale(0.015625)"/>
      <path id="DejaVuSans-Bold-74" d="M 1759 4494 
L 1759 3500 
L 2913 3500 
L 2913 2700 
L 1759 2700 
L 1759 1216 
Q 1759 972 1856 886 
Q 1953 800 2241 800 
L 2816 800 
L 2816 0 
L 1856 0 
Q 1194 0 917 276 
Q 641 553 641 1216 
L 641 2700 
L 84 2700 
L 84 3500 
L 641 3500 
L 641 4494 
L 1759 4494 
z
" transform="scale(0.015625)"/>
      <path id="DejaVuSans-Bold-20" transform="scale(0.015625)"/>
      <path id="DejaVuSans-Bold-72" d="M 3138 2547 
Q 2991 2616 2845 2648 
Q 2700 2681 2553 2681 
Q 2122 2681 1889 2404 
Q 1656 2128 1656 1613 
L 1656 0 
L 538 0 
L 538 3500 
L 1656 3500 
L 1656 2925 
Q 1872 3269 2151 3426 
Q 2431 3584 2822 3584 
Q 2878 3584 2943 3579 
Q 3009 3575 3134 3559 
L 3138 2547 
z
" transform="scale(0.015625)"/>
      <path id="DejaVuSans-Bold-69" d="M 538 3500 
L 1656 3500 
L 1656 0 
L 538 0 
L 538 3500 
z
M 538 4863 
L 1656 4863 
L 1656 3950 
L 538 3950 
L 538 4863 
z
" transform="scale(0.015625)"/>
      <path id="DejaVuSans-Bold-73" d="M 3272 3391 
L 3272 2541 
Q 2913 2691 2578 2766 
Q 2244 2841 1947 2841 
Q 1628 2841 1473 2761 
Q 1319 2681 1319 2516 
Q 1319 2381 1436 2309 
Q 1553 2238 1856 2203 
L 2053 2175 
Q 2913 2066 3209 1816 
Q 3506 1566 3506 1031 
Q 3506 472 3093 190 
Q 2681 -91 1863 -91 
Q 1516 -91 1145 -36 
Q 775 19 384 128 
L 384 978 
Q 719 816 1070 734 
Q 1422 653 1784 653 
Q 2113 653 2278 743 
Q 2444 834 2444 1013 
Q 2444 1163 2330 1236 
Q 2216 1309 1875 1350 
L 1678 1375 
Q 931 1469 631 1722 
Q 331 1975 331 2491 
Q 331 3047 712 3315 
Q 1094 3584 1881 3584 
Q 2191 3584 2531 3537 
Q 2872 3491 3272 3391 
z
" transform="scale(0.015625)"/>
      <path id="DejaVuSans-Bold-6b" d="M 538 4863 
L 1656 4863 
L 1656 2216 
L 2944 3500 
L 4244 3500 
L 2534 1894 
L 4378 0 
L 3022 0 
L 1656 1459 
L 1656 0 
L 538 0 
L 538 4863 
z
" transform="scale(0.015625)"/>
      <path id="DejaVuSans-Bold-6f" d="M 2203 2784 
Q 1831 2784 1636 2517 
Q 1441 2250 1441 1747 
Q 1441 1244 1636 976 
Q 1831 709 2203 709 
Q 2569 709 2762 976 
Q 2956 1244 2956 1747 
Q 2956 2250 2762 2517 
Q 2569 2784 2203 2784 
z
M 2203 3584 
Q 3106 3584 3614 3096 
Q 4122 2609 4122 1747 
Q 4122 884 3614 396 
Q 3106 -91 2203 -91 
Q 1297 -91 786 396 
Q 275 884 275 1747 
Q 275 2609 786 3096 
Q 1297 3584 2203 3584 
z
" transform="scale(0.015625)"/>
      <path id="DejaVuSans-Bold-6e" d="M 4056 2131 
L 4056 0 
L 2931 0 
L 2931 347 
L 2931 1631 
Q 2931 2084 2911 2256 
Q 2891 2428 2841 2509 
Q 2775 2619 2662 2680 
Q 2550 2741 2406 2741 
Q 2056 2741 1856 2470 
Q 1656 2200 1656 1722 
L 1656 0 
L 538 0 
L 538 3500 
L 1656 3500 
L 1656 2988 
Q 1909 3294 2193 3439 
Q 2478 3584 2822 3584 
Q 3428 3584 3742 3212 
Q 4056 2841 4056 2131 
z
" transform="scale(0.015625)"/>
      <path id="DejaVuSans-Bold-64" d="M 2919 2988 
L 2919 4863 
L 4044 4863 
L 4044 0 
L 2919 0 
L 2919 506 
Q 2688 197 2409 53 
Q 2131 -91 1766 -91 
Q 1119 -91 703 423 
Q 288 938 288 1747 
Q 288 2556 703 3070 
Q 1119 3584 1766 3584 
Q 2128 3584 2408 3439 
Q 2688 3294 2919 2988 
z
M 2181 722 
Q 2541 722 2730 984 
Q 2919 1247 2919 1747 
Q 2919 2247 2730 2509 
Q 2541 2772 2181 2772 
Q 1825 2772 1636 2509 
Q 1447 2247 1447 1747 
Q 1447 1247 1636 984 
Q 1825 722 2181 722 
z
" transform="scale(0.015625)"/>
      <path id="DejaVuSans-Bold-61" d="M 2106 1575 
Q 1756 1575 1579 1456 
Q 1403 1338 1403 1106 
Q 1403 894 1545 773 
Q 1688 653 1941 653 
Q 2256 653 2472 879 
Q 2688 1106 2688 1447 
L 2688 1575 
L 2106 1575 
z
M 3816 1997 
L 3816 0 
L 2688 0 
L 2688 519 
Q 2463 200 2181 54 
Q 1900 -91 1497 -91 
Q 953 -91 614 226 
Q 275 544 275 1050 
Q 275 1666 698 1953 
Q 1122 2241 2028 2241 
L 2688 2241 
L 2688 2328 
Q 2688 2594 2478 2717 
Q 2269 2841 1825 2841 
Q 1466 2841 1156 2769 
Q 847 2697 581 2553 
L 581 3406 
Q 941 3494 1303 3539 
Q 1666 3584 2028 3584 
Q 2975 3584 3395 3211 
Q 3816 2838 3816 1997 
z
" transform="scale(0.015625)"/>
      <path id="DejaVuSans-Bold-79" d="M 78 3500 
L 1197 3500 
L 2138 1125 
L 2938 3500 
L 4056 3500 
L 2584 -331 
Q 2363 -916 2067 -1148 
Q 1772 -1381 1288 -1381 
L 641 -1381 
L 641 -647 
L 991 -647 
Q 1275 -647 1404 -556 
Q 1534 -466 1606 -231 
L 1638 -134 
L 78 3500 
z
" transform="scale(0.015625)"/>
      <path id="DejaVuSans-Bold-39" d="M 641 103 
L 641 966 
Q 928 831 1190 764 
Q 1453 697 1709 697 
Q 2247 697 2547 995 
Q 2847 1294 2900 1881 
Q 2688 1725 2447 1647 
Q 2206 1569 1925 1569 
Q 1209 1569 770 1986 
Q 331 2403 331 3084 
Q 331 3838 820 4291 
Q 1309 4744 2131 4744 
Q 3044 4744 3544 4128 
Q 4044 3513 4044 2388 
Q 4044 1231 3459 570 
Q 2875 -91 1856 -91 
Q 1528 -91 1228 -42 
Q 928 6 641 103 
z
M 2125 2350 
Q 2441 2350 2600 2554 
Q 2759 2759 2759 3169 
Q 2759 3575 2600 3781 
Q 2441 3988 2125 3988 
Q 1809 3988 1650 3781 
Q 1491 3575 1491 3169 
Q 1491 2759 1650 2554 
Q 1809 2350 2125 2350 
z
" transform="scale(0.015625)"/>
      <path id="DejaVuSans-Bold-30" d="M 2944 2338 
Q 2944 3213 2780 3570 
Q 2616 3928 2228 3928 
Q 1841 3928 1675 3570 
Q 1509 3213 1509 2338 
Q 1509 1453 1675 1090 
Q 1841 728 2228 728 
Q 2613 728 2778 1090 
Q 2944 1453 2944 2338 
z
M 4147 2328 
Q 4147 1169 3647 539 
Q 3147 -91 2228 -91 
Q 1306 -91 806 539 
Q 306 1169 306 2328 
Q 306 3491 806 4120 
Q 1306 4750 2228 4750 
Q 3147 4750 3647 4120 
Q 4147 3491 4147 2328 
z
" transform="scale(0.015625)"/>
     </defs>
     <use xlink:href="#DejaVuSans-Bold-41"/>
     <use xlink:href="#DejaVuSans-Bold-74" transform="translate(77.392578 0)"/>
     <use xlink:href="#DejaVuSans-Bold-20" transform="translate(125.195312 0)"/>
     <use xlink:href="#DejaVuSans-Bold-72" transform="translate(160.009766 0)"/>
     <use xlink:href="#DejaVuSans-Bold-69" transform="translate(209.326172 0)"/>
     <use xlink:href="#DejaVuSans-Bold-73" transform="translate(243.603516 0)"/>
     <use xlink:href="#DejaVuSans-Bold-6b" transform="translate(303.125 0)"/>
     <use xlink:href="#DejaVuSans-Bold-20" transform="translate(369.628906 0)"/>
     <use xlink:href="#DejaVuSans-Bold-6f" transform="translate(404.443359 0)"/>
     <use xlink:href="#DejaVuSans-Bold-6e" transform="translate(473.144531 0)"/>
     <use xlink:href="#DejaVuSans-Bold-20" transform="translate(544.335938 0)"/>
     <use xlink:href="#DejaVuSans-Bold-64" transform="translate(579.150391 0)"/>
     <use xlink:href="#DejaVuSans-Bold-61" transform="translate(650.732422 0)"/>
     <use xlink:href="#DejaVuSans-Bold-79" transform="translate(715.087891 0)"/>
     <use xlink:href="#DejaVuSans-Bold-20" transform="translate(780.273438 0)"/>
     <use xlink:href="#DejaVuSans-Bold-39" transform="translate(815.087891 0)"/>
     <use xlink:href="#DejaVuSans-Bold-30" transform="translate(884.667969 0)"/>
    </g>
   </g>
   <g id="PathCollection_4">
    <g clip-path="url(#p45e0fd9e9a)">
     <use xlink:href="#m66eda131f3" x="119.473573" y="252.38106" style="fill: #9a9a9a; stroke: #ffffff; stroke-width: 0.8"/>
    </g>
   </g>
   <g id="text_19">
    <!-- Censored, day 30 -->
    <g style="fill: #444444" transform="translate(75.551698 239.030746) scale(0.1 -0.1)">
     <use xlink:href="#DejaVuSans-43"/>
     <use xlink:href="#DejaVuSans-65" transform="translate(69.824219 0)"/>
     <use xlink:href="#DejaVuSans-6e" transform="translate(131.347656 0)"/>
     <use xlink:href="#DejaVuSans-73" transform="translate(194.726562 0)"/>
     <use xlink:href="#DejaVuSans-6f" transform="translate(246.826172 0)"/>
     <use xlink:href="#DejaVuSans-72" transform="translate(308.007812 0)"/>
     <use xlink:href="#DejaVuSans-65" transform="translate(346.871094 0)"/>
     <use xlink:href="#DejaVuSans-64" transform="translate(408.394531 0)"/>
     <use xlink:href="#DejaVuSans-2c" transform="translate(471.871094 0)"/>
     <use xlink:href="#DejaVuSans-20" transform="translate(503.658203 0)"/>
     <use xlink:href="#DejaVuSans-64" transform="translate(535.445312 0)"/>
     <use xlink:href="#DejaVuSans-61" transform="translate(598.921875 0)"/>
     <use xlink:href="#DejaVuSans-79" transform="translate(660.201172 0)"/>
     <use xlink:href="#DejaVuSans-20" transform="translate(719.380859 0)"/>
     <use xlink:href="#DejaVuSans-33" transform="translate(751.167969 0)"/>
     <use xlink:href="#DejaVuSans-30" transform="translate(814.791016 0)"/>
    </g>
   </g>
   <g id="text_20">
    <!-- Left before day 90 -->
    <g style="fill: #555555" transform="translate(571.534443 255.140435) scale(0.1 -0.1)">
     <use xlink:href="#DejaVuSans-4c"/>
     <use xlink:href="#DejaVuSans-65" transform="translate(53.962891 0)"/>
     <use xlink:href="#DejaVuSans-66" transform="translate(115.486328 0)"/>
     <use xlink:href="#DejaVuSans-74" transform="translate(148.941406 0)"/>
     <use xlink:href="#DejaVuSans-20" transform="translate(188.150391 0)"/>
     <use xlink:href="#DejaVuSans-62" transform="translate(219.9375 0)"/>
     <use xlink:href="#DejaVuSans-65" transform="translate(283.414062 0)"/>
     <use xlink:href="#DejaVuSans-66" transform="translate(344.9375 0)"/>
     <use xlink:href="#DejaVuSans-6f" transform="translate(380.142578 0)"/>
     <use xlink:href="#DejaVuSans-72" transform="translate(441.324219 0)"/>
     <use xlink:href="#DejaVuSans-65" transform="translate(480.1875 0)"/>
     <use xlink:href="#DejaVuSans-20" transform="translate(541.710938 0)"/>
     <use xlink:href="#DejaVuSans-64" transform="translate(573.498047 0)"/>
     <use xlink:href="#DejaVuSans-61" transform="translate(636.974609 0)"/>
     <use xlink:href="#DejaVuSans-79" transform="translate(698.253906 0)"/>
     <use xlink:href="#DejaVuSans-20" transform="translate(757.433594 0)"/>
     <use xlink:href="#DejaVuSans-39" transform="translate(789.220703 0)"/>
     <use xlink:href="#DejaVuSans-30" transform="translate(852.84375 0)"/>
    </g>
   </g>
   <g id="text_21">
    <!-- Day 90 -->
    <g style="fill: #7a5a16" transform="translate(226.303533 32.32448) scale(0.1 -0.1)">
     <defs>
      <path id="DejaVuSans-Bold-44" d="M 1791 3756 
L 1791 909 
L 2222 909 
Q 2959 909 3348 1275 
Q 3738 1641 3738 2338 
Q 3738 3031 3350 3393 
Q 2963 3756 2222 3756 
L 1791 3756 
z
M 588 4666 
L 1856 4666 
Q 2919 4666 3439 4514 
Q 3959 4363 4331 4000 
Q 4659 3684 4818 3271 
Q 4978 2859 4978 2338 
Q 4978 1809 4818 1395 
Q 4659 981 4331 666 
Q 3956 303 3431 151 
Q 2906 0 1856 0 
L 588 0 
L 588 4666 
z
" transform="scale(0.015625)"/>
     </defs>
     <use xlink:href="#DejaVuSans-Bold-44"/>
     <use xlink:href="#DejaVuSans-Bold-61" transform="translate(83.007812 0)"/>
     <use xlink:href="#DejaVuSans-Bold-79" transform="translate(147.363281 0)"/>
     <use xlink:href="#DejaVuSans-Bold-20" transform="translate(212.548828 0)"/>
     <use xlink:href="#DejaVuSans-Bold-39" transform="translate(247.363281 0)"/>
     <use xlink:href="#DejaVuSans-Bold-30" transform="translate(316.943359 0)"/>
    </g>
   </g>
   <g id="text_22">
    <!-- Day-90 status -->
    <g style="fill: #333333" transform="translate(571.534443 32.32448) scale(0.1 -0.1)">
     <defs>
      <path id="DejaVuSans-Bold-2d" d="M 347 2297 
L 2309 2297 
L 2309 1388 
L 347 1388 
L 347 2297 
z
" transform="scale(0.015625)"/>
      <path id="DejaVuSans-Bold-75" d="M 500 1363 
L 500 3500 
L 1625 3500 
L 1625 3150 
Q 1625 2866 1622 2436 
Q 1619 2006 1619 1863 
Q 1619 1441 1641 1255 
Q 1663 1069 1716 984 
Q 1784 875 1895 815 
Q 2006 756 2150 756 
Q 2500 756 2700 1025 
Q 2900 1294 2900 1772 
L 2900 3500 
L 4019 3500 
L 4019 0 
L 2900 0 
L 2900 506 
Q 2647 200 2364 54 
Q 2081 -91 1741 -91 
Q 1134 -91 817 281 
Q 500 653 500 1363 
z
" transform="scale(0.015625)"/>
     </defs>
     <use xlink:href="#DejaVuSans-Bold-44"/>
     <use xlink:href="#DejaVuSans-Bold-61" transform="translate(83.007812 0)"/>
     <use xlink:href="#DejaVuSans-Bold-79" transform="translate(147.363281 0)"/>
     <use xlink:href="#DejaVuSans-Bold-2d" transform="translate(212.548828 0)"/>
     <use xlink:href="#DejaVuSans-Bold-39" transform="translate(254.052734 0)"/>
     <use xlink:href="#DejaVuSans-Bold-30" transform="translate(323.632812 0)"/>
     <use xlink:href="#DejaVuSans-Bold-20" transform="translate(393.212891 0)"/>
     <use xlink:href="#DejaVuSans-Bold-73" transform="translate(428.027344 0)"/>
     <use xlink:href="#DejaVuSans-Bold-74" transform="translate(487.548828 0)"/>
     <use xlink:href="#DejaVuSans-Bold-61" transform="translate(535.351562 0)"/>
     <use xlink:href="#DejaVuSans-Bold-74" transform="translate(602.832031 0)"/>
     <use xlink:href="#DejaVuSans-Bold-75" transform="translate(650.634766 0)"/>
     <use xlink:href="#DejaVuSans-Bold-73" transform="translate(721.826172 0)"/>
    </g>
   </g>
   <g id="text_23">
    <!-- Observation windows change the day-90 denominator -->
    <g transform="translate(228.839687 17.837812) scale(0.14 -0.14)">
     <defs>
      <path id="DejaVuSans-4f" d="M 2522 4238 
Q 1834 4238 1429 3725 
Q 1025 3213 1025 2328 
Q 1025 1447 1429 934 
Q 1834 422 2522 422 
Q 3209 422 3611 934 
Q 4013 1447 4013 2328 
Q 4013 3213 3611 3725 
Q 3209 4238 2522 4238 
z
M 2522 4750 
Q 3503 4750 4090 4092 
Q 4678 3434 4678 2328 
Q 4678 1225 4090 567 
Q 3503 -91 2522 -91 
Q 1538 -91 948 565 
Q 359 1222 359 2328 
Q 359 3434 948 4092 
Q 1538 4750 2522 4750 
z
" transform="scale(0.015625)"/>
      <path id="DejaVuSans-76" d="M 191 3500 
L 800 3500 
L 1894 563 
L 2988 3500 
L 3597 3500 
L 2284 0 
L 1503 0 
L 191 3500 
z
" transform="scale(0.015625)"/>
      <path id="DejaVuSans-77" d="M 269 3500 
L 844 3500 
L 1563 769 
L 2278 3500 
L 2956 3500 
L 3675 769 
L 4391 3500 
L 4966 3500 
L 4050 0 
L 3372 0 
L 2619 2869 
L 1863 0 
L 1184 0 
L 269 3500 
z
" transform="scale(0.015625)"/>
      <path id="DejaVuSans-63" d="M 3122 3366 
L 3122 2828 
Q 2878 2963 2633 3030 
Q 2388 3097 2138 3097 
Q 1578 3097 1268 2742 
Q 959 2388 959 1747 
Q 959 1106 1268 751 
Q 1578 397 2138 397 
Q 2388 397 2633 464 
Q 2878 531 3122 666 
L 3122 134 
Q 2881 22 2623 -34 
Q 2366 -91 2075 -91 
Q 1284 -91 818 406 
Q 353 903 353 1747 
Q 353 2603 823 3093 
Q 1294 3584 2113 3584 
Q 2378 3584 2631 3529 
Q 2884 3475 3122 3366 
z
" transform="scale(0.015625)"/>
      <path id="DejaVuSans-68" d="M 3513 2113 
L 3513 0 
L 2938 0 
L 2938 2094 
Q 2938 2591 2744 2837 
Q 2550 3084 2163 3084 
Q 1697 3084 1428 2787 
Q 1159 2491 1159 1978 
L 1159 0 
L 581 0 
L 581 4863 
L 1159 4863 
L 1159 2956 
Q 1366 3272 1645 3428 
Q 1925 3584 2291 3584 
Q 2894 3584 3203 3211 
Q 3513 2838 3513 2113 
z
" transform="scale(0.015625)"/>
      <path id="DejaVuSans-2d" d="M 313 2009 
L 1997 2009 
L 1997 1497 
L 313 1497 
L 313 2009 
z
" transform="scale(0.015625)"/>
     </defs>
     <use xlink:href="#DejaVuSans-4f"/>
     <use xlink:href="#DejaVuSans-62" transform="translate(78.710938 0)"/>
     <use xlink:href="#DejaVuSans-73" transform="translate(142.1875 0)"/>
     <use xlink:href="#DejaVuSans-65" transform="translate(194.287109 0)"/>
     <use xlink:href="#DejaVuSans-72" transform="translate(255.810547 0)"/>
     <use xlink:href="#DejaVuSans-76" transform="translate(296.923828 0)"/>
     <use xlink:href="#DejaVuSans-61" transform="translate(356.103516 0)"/>
     <use xlink:href="#DejaVuSans-74" transform="translate(417.382812 0)"/>
     <use xlink:href="#DejaVuSans-69" transform="translate(456.591797 0)"/>
     <use xlink:href="#DejaVuSans-6f" transform="translate(484.375 0)"/>
     <use xlink:href="#DejaVuSans-6e" transform="translate(545.556641 0)"/>
     <use xlink:href="#DejaVuSans-20" transform="translate(608.935547 0)"/>
     <use xlink:href="#DejaVuSans-77" transform="translate(640.722656 0)"/>
     <use xlink:href="#DejaVuSans-69" transform="translate(722.509766 0)"/>
     <use xlink:href="#DejaVuSans-6e" transform="translate(750.292969 0)"/>
     <use xlink:href="#DejaVuSans-64" transform="translate(813.671875 0)"/>
     <use xlink:href="#DejaVuSans-6f" transform="translate(877.148438 0)"/>
     <use xlink:href="#DejaVuSans-77" transform="translate(938.330078 0)"/>
     <use xlink:href="#DejaVuSans-73" transform="translate(1020.117188 0)"/>
     <use xlink:href="#DejaVuSans-20" transform="translate(1072.216797 0)"/>
     <use xlink:href="#DejaVuSans-63" transform="translate(1104.003906 0)"/>
     <use xlink:href="#DejaVuSans-68" transform="translate(1158.984375 0)"/>
     <use xlink:href="#DejaVuSans-61" transform="translate(1222.363281 0)"/>
     <use xlink:href="#DejaVuSans-6e" transform="translate(1283.642578 0)"/>
     <use xlink:href="#DejaVuSans-67" transform="translate(1347.021484 0)"/>
     <use xlink:href="#DejaVuSans-65" transform="translate(1410.498047 0)"/>
     <use xlink:href="#DejaVuSans-20" transform="translate(1472.021484 0)"/>
     <use xlink:href="#DejaVuSans-74" transform="translate(1503.808594 0)"/>
     <use xlink:href="#DejaVuSans-68" transform="translate(1543.017578 0)"/>
     <use xlink:href="#DejaVuSans-65" transform="translate(1606.396484 0)"/>
     <use xlink:href="#DejaVuSans-20" transform="translate(1667.919922 0)"/>
     <use xlink:href="#DejaVuSans-64" transform="translate(1699.707031 0)"/>
     <use xlink:href="#DejaVuSans-61" transform="translate(1763.183594 0)"/>
     <use xlink:href="#DejaVuSans-79" transform="translate(1824.462891 0)"/>
     <use xlink:href="#DejaVuSans-2d" transform="translate(1881.892578 0)"/>
     <use xlink:href="#DejaVuSans-39" transform="translate(1917.976562 0)"/>
     <use xlink:href="#DejaVuSans-30" transform="translate(1981.599609 0)"/>
     <use xlink:href="#DejaVuSans-20" transform="translate(2045.222656 0)"/>
     <use xlink:href="#DejaVuSans-64" transform="translate(2077.009766 0)"/>
     <use xlink:href="#DejaVuSans-65" transform="translate(2140.486328 0)"/>
     <use xlink:href="#DejaVuSans-6e" transform="translate(2202.009766 0)"/>
     <use xlink:href="#DejaVuSans-6f" transform="translate(2265.388672 0)"/>
     <use xlink:href="#DejaVuSans-6d" transform="translate(2326.570312 0)"/>
     <use xlink:href="#DejaVuSans-69" transform="translate(2423.982422 0)"/>
     <use xlink:href="#DejaVuSans-6e" transform="translate(2451.765625 0)"/>
     <use xlink:href="#DejaVuSans-61" transform="translate(2515.144531 0)"/>
     <use xlink:href="#DejaVuSans-74" transform="translate(2576.423828 0)"/>
     <use xlink:href="#DejaVuSans-6f" transform="translate(2615.632812 0)"/>
     <use xlink:href="#DejaVuSans-72" transform="translate(2676.814453 0)"/>
    </g>
   </g>
  </g>
 </g>
 <defs>
  <clipPath id="p45e0fd9e9a">
   <rect x="56.395313" y="23.837812" width="725.4" height="266.112"/>
  </clipPath>
 </defs>
</svg>
