<?xml version="1.0" encoding="utf-8" standalone="no"?>
<!DOCTYPE svg PUBLIC "-//W3C//DTD SVG 1.1//EN"
  "http://www.w3.org/Graphics/SVG/1.1/DTD/svg11.dtd">
<svg xmlns:xlink="http://www.w3.org/1999/xlink" width="915.875938pt" height="349.226094pt" viewBox="0 0 915.875938 349.226094" xmlns="http://www.w3.org/2000/svg" version="1.1">
 <metadata>
  <rdf:RDF xmlns:dc="http://purl.org/dc/elements/1.1/" xmlns:cc="http://creativecommons.org/ns#" xmlns:rdf="http://www.w3.org/1999/02/22-rdf-syntax-ns#">
   <cc:Work>
    <dc:type rdf:resource="http://purl.org/dc/dcmitype/StillImage"/>
    <dc:date>2026-06-19T12:53:45.140632</dc:date>
    <dc:format>image/svg+xml</dc:format>
    <dc:creator>
     <cc:Agent>
      <dc:title>Matplotlib v3.10.9, https://matplotlib.org/</dc:title>
     </cc:Agent>
    </dc:creator>
   </cc:Work>
  </rdf:RDF>
 </metadata>
 <defs>
  <style type="text/css">*{stroke-linejoin: round; stroke-linecap: butt}</style>
 </defs>
 <g id="figure_1">
  <g id="patch_1">
   <path d="M 0 349.226094
L 915.875938 349.226094
L 915.875938 0
L 0 0
z
" style="fill: #ffffff"/>
  </g>
  <g id="axes_1">
   <g id="patch_2">
    <path d="M 42.190938 312.637656
L 291.562604 312.637656
L 291.562604 24.597656
L 42.190938 24.597656
z
" style="fill: #ffffff"/>
   </g>
   <g id="FillBetweenPolyCollection_1">
    <defs>
     <path id="m14dbc17edd" d="M 42.190938 -318.980594
L 42.190938 -318.980594
L 78.940446 -318.980594
L 78.940446 -271.345114
L 81.565411 -271.345114
L 81.565411 -263.341616
L 89.440306 -263.341616
L 89.440306 -263.232157
L 90.752788 -263.232157
L 90.752788 -263.122707
L 92.065271 -263.122707
L 92.065271 -263.122707
L 105.190095 -263.122707
L 105.190095 -262.903727
L 110.440025 -262.903727
L 110.440025 -262.903727
L 111.752508 -262.903727
L 111.752508 -260.277453
L 113.06499 -260.277453
L 113.06499 -257.731612
L 114.377473 -257.731612
L 114.377473 -254.700156
L 115.689955 -254.700156
L 115.689955 -252.645573
L 117.002438 -252.645573
L 117.002438 -249.863374
L 118.31492 -249.863374
L 118.31492 -246.205403
L 119.627402 -246.205403
L 119.627402 -243.806573
L 120.939885 -243.806573
L 120.939885 -238.161959
L 122.252367 -238.161959
L 122.252367 -234.728027
L 123.56485 -234.728027
L 123.56485 -230.952883
L 124.877332 -230.952883
L 124.877332 -228.429858
L 126.189815 -228.429858
L 126.189815 -225.425742
L 127.502297 -225.425742
L 127.502297 -225.145816
L 128.81478 -225.145816
L 128.81478 -225.145816
L 130.127262 -225.145816
L 130.127262 -224.582339
L 131.439745 -224.582339
L 131.439745 -223.734929
L 132.752227 -223.734929
L 132.752227 -223.309453
L 134.064709 -223.309453
L 134.064709 -222.883111
L 141.939604 -222.883111
L 141.939604 -222.740803
L 143.252087 -222.740803
L 143.252087 -222.740803
L 144.564569 -222.740803
L 144.564569 -222.740803
L 145.877052 -222.740803
L 145.877052 -222.169505
L 147.189534 -222.169505
L 147.189534 -221.310264
L 148.502016 -221.310264
L 148.502016 -220.157228
L 149.814499 -220.157228
L 149.814499 -219.722305
L 151.126981 -219.722305
L 151.126981 -218.113243
L 152.439464 -218.113243
L 152.439464 -216.643451
L 153.751946 -216.643451
L 153.751946 -215.31081
L 155.064429 -215.31081
L 155.064429 -213.516202
L 156.376911 -213.516202
L 156.376911 -211.695745
L 157.689394 -211.695745
L 157.689394 -209.540685
L 159.001876 -209.540685
L 159.001876 -207.65196
L 160.314359 -207.65196
L 160.314359 -202.046797
L 161.626841 -202.046797
L 161.626841 -200.348645
L 162.939323 -200.348645
L 162.939323 -196.039583
L 164.251806 -196.039583
L 164.251806 -192.361126
L 165.564288 -192.361126
L 165.564288 -188.990727
L 166.876771 -188.990727
L 166.876771 -185.91653
L 168.189253 -185.91653
L 168.189253 -184.625799
L 169.501736 -184.625799
L 169.501736 -184.060283
L 170.814218 -184.060283
L 170.814218 -182.338585
L 172.126701 -182.338585
L 172.126701 -180.600546
L 173.439183 -180.600546
L 173.439183 -180.210397
L 174.751666 -180.210397
L 174.751666 -179.228796
L 176.064148 -179.228796
L 176.064148 -178.238291
L 177.37663 -178.238291
L 177.37663 -177.840042
L 178.689113 -177.840042
L 178.689113 -176.844866
L 180.001595 -176.844866
L 180.001595 -176.445843
L 181.314078 -176.445843
L 181.314078 -175.845791
L 182.62656 -175.845791
L 182.62656 -175.245969
L 183.939043 -175.245969
L 183.939043 -175.045791
L 185.251525 -175.045791
L 185.251525 -174.643771
L 186.564008 -174.643771
L 186.564008 -173.235468
L 187.87649 -173.235468
L 187.87649 -172.426536
L 189.188973 -172.426536
L 189.188973 -171.816487
L 190.501455 -171.816487
L 190.501455 -171.200204
L 191.813938 -171.200204
L 191.813938 -170.579444
L 193.12642 -170.579444
L 193.12642 -168.904693
L 194.438902 -168.904693
L 194.438902 -168.480947
L 195.751385 -168.480947
L 195.751385 -166.736931
L 197.063867 -166.736931
L 197.063867 -164.740839
L 198.37635 -164.740839
L 198.37635 -162.475564
L 199.688832 -162.475564
L 199.688832 -160.155883
L 201.001315 -160.155883
L 201.001315 -157.071469
L 202.313797 -157.071469
L 202.313797 -154.617312
L 203.62628 -154.617312
L 203.62628 -151.843024
L 204.938762 -151.843024
L 204.938762 -149.756738
L 206.251245 -149.756738
L 206.251245 -147.610292
L 207.563727 -147.610292
L 207.563727 -145.387937
L 208.876209 -145.387937
L 208.876209 -144.225396
L 210.188692 -144.225396
L 210.188692 -142.091261
L 211.501174 -142.091261
L 211.501174 -141.148361
L 212.813657 -141.148361
L 212.813657 -139.545593
L 214.126139 -139.545593
L 214.126139 -139.215171
L 215.438622 -139.215171
L 215.438622 -138.548322
L 216.751104 -138.548322
L 216.751104 -137.512067
L 218.063587 -137.512067
L 218.063587 -136.1325
L 219.376069 -136.1325
L 219.376069 -135.438839
L 220.688552 -135.438839
L 220.688552 -134.384805
L 222.001034 -134.384805
L 222.001034 -134.384805
L 223.313516 -134.384805
L 223.313516 -133.670167
L 224.625999 -133.670167
L 224.625999 -132.948285
L 225.938481 -132.948285
L 225.938481 -132.584899
L 227.250964 -132.584899
L 227.250964 -131.483391
L 228.563446 -131.483391
L 228.563446 -130.383502
L 229.875929 -130.383502
L 229.875929 -129.636664
L 231.188411 -129.636664
L 231.188411 -128.508856
L 232.500894 -128.508856
L 232.500894 -127.373585
L 233.813376 -127.373585
L 233.813376 -126.225862
L 235.125859 -126.225862
L 235.125859 -125.441837
L 236.438341 -125.441837
L 236.438341 -122.976916
L 237.750823 -122.976916
L 237.750823 -121.28314
L 239.063306 -121.28314
L 239.063306 -119.551178
L 240.375788 -119.551178
L 240.375788 -119.10984
L 241.688271 -119.10984
L 241.688271 -116.367515
L 243.000753 -116.367515
L 243.000753 -114.44927
L 244.313236 -114.44927
L 244.313236 -110.916868
L 245.625718 -110.916868
L 245.625718 -108.79654
L 246.938201 -108.79654
L 246.938201 -107.140961
L 248.250683 -107.140961
L 248.250683 -103.717301
L 249.563166 -103.717301
L 249.563166 -99.03983
L 250.875648 -99.03983
L 250.875648 -96.632675
L 252.18813 -96.632675
L 252.18813 -96.632675
L 253.500613 -96.632675
L 253.500613 -94.552128
L 254.813095 -94.552128
L 254.813095 -92.302043
L 256.125578 -92.302043
L 256.125578 -89.946577
L 257.43806 -89.946577
L 257.43806 -89.105929
L 258.750543 -89.105929
L 258.750543 -87.351731
L 260.063025 -87.351731
L 260.063025 -87.351731
L 261.375508 -87.351731
L 261.375508 -86.400207
L 262.68799 -86.400207
L 262.68799 -85.452913
L 264.000473 -85.452913
L 264.000473 -84.473204
L 266.625438 -84.473204
L 266.625438 -84.473204
L 267.93792 -84.473204
L 267.93792 -84.473204
L 274.500332 -84.473204
L 274.500332 -84.473204
L 275.812815 -84.473204
L 275.812815 -83.392071
L 277.125297 -83.392071
L 277.125297 -82.267795
L 278.43778 -82.267795
L 278.43778 -82.267795
L 279.750262 -82.267795
L 279.750262 -82.267795
L 281.062745 -82.267795
L 281.062745 -81.003118
L 282.375227 -81.003118
L 282.375227 -78.289132
L 283.687709 -78.289132
L 283.687709 -76.865363
L 285.000192 -76.865363
L 285.000192 -75.302699
L 287.625157 -75.302699
L 287.625157 -75.302699
L 288.937639 -75.302699
L 288.937639 -75.302699
L 290.250122 -75.302699
L 290.250122 -75.302699
L 291.562604 -75.302699
L 291.562604 -72.573637
L 292.875087 -72.573637
L 292.875087 -72.573637
L 298.125016 -72.573637
L 298.125016 -72.573637
L 300.749981 -72.573637
L 300.749981 -72.573637
L 358.499209 -72.573637
L 358.499209 -72.573637
L 361.124174 -72.573637
L 361.124174 -72.573637
L 362.436657 -72.573637
L 362.436657 -67.974897
L 366.374104 -67.974897
L 366.374104 -67.974897
L 379.498929 -67.974897
L 379.498929 -67.974897
L 396.561201 -67.974897
L 396.561201 -67.974897
L 397.873683 -67.974897
L 397.873683 -67.974897
L 401.81113 -67.974897
L 401.81113 -67.974897
L 403.123613 -67.974897
L 403.123613 -67.974897
L 404.436095 -67.974897
L 404.436095 -67.974897
L 407.06106 -67.974897
L 407.06106 -67.974897
L 412.31099 -67.974897
L 412.31099 -67.974897
L 519.934552 -67.974897
L 519.934552 -67.974897
L 519.934552 -90.491497
L 519.934552 -90.491497
L 519.934552 -90.491497
L 412.31099 -90.491497
L 412.31099 -90.491497
L 407.06106 -90.491497
L 407.06106 -90.491497
L 404.436095 -90.491497
L 404.436095 -90.491497
L 403.123613 -90.491497
L 403.123613 -90.491497
L 401.81113 -90.491497
L 401.81113 -90.491497
L 397.873683 -90.491497
L 397.873683 -90.491497
L 396.561201 -90.491497
L 396.561201 -90.491497
L 379.498929 -90.491497
L 379.498929 -90.491497
L 366.374104 -90.491497
L 366.374104 -90.491497
L 362.436657 -90.491497
L 362.436657 -92.422311
L 361.124174 -92.422311
L 361.124174 -92.422311
L 358.499209 -92.422311
L 358.499209 -92.422311
L 300.749981 -92.422311
L 300.749981 -92.422311
L 298.125016 -92.422311
L 298.125016 -92.422311
L 292.875087 -92.422311
L 292.875087 -92.422311
L 291.562604 -92.422311
L 291.562604 -94.060076
L 290.250122 -94.060076
L 290.250122 -94.060076
L 288.937639 -94.060076
L 288.937639 -94.060076
L 287.625157 -94.060076
L 287.625157 -94.060076
L 285.000192 -94.060076
L 285.000192 -95.322183
L 283.687709 -95.322183
L 283.687709 -96.501031
L 282.375227 -96.501031
L 282.375227 -98.741331
L 281.062745 -98.741331
L 281.062745 -99.793227
L 279.750262 -99.793227
L 279.750262 -99.793227
L 278.43778 -99.793227
L 278.43778 -99.793227
L 277.125297 -99.793227
L 277.125297 -100.76263
L 275.812815 -100.76263
L 275.812815 -101.699355
L 274.500332 -101.699355
L 274.500332 -101.699355
L 267.93792 -101.699355
L 267.93792 -101.699355
L 266.625438 -101.699355
L 266.625438 -101.699355
L 264.000473 -101.699355
L 264.000473 -102.571922
L 262.68799 -102.571922
L 262.68799 -103.419195
L 261.375508 -103.419195
L 261.375508 -104.262638
L 260.063025 -104.262638
L 260.063025 -104.262638
L 258.750543 -104.262638
L 258.750543 -105.8455
L 257.43806 -105.8455
L 257.43806 -106.607671
L 256.125578 -106.607671
L 256.125578 -108.767599
L 254.813095 -108.767599
L 254.813095 -110.83085
L 253.500613 -110.83085
L 253.500613 -112.758804
L 252.18813 -112.758804
L 252.18813 -112.758804
L 250.875648 -112.758804
L 250.875648 -115.050306
L 249.563166 -115.050306
L 249.563166 -119.469562
L 248.250683 -119.469562
L 248.250683 -122.669989
L 246.938201 -122.669989
L 246.938201 -124.214232
L 245.625718 -124.214232
L 245.625718 -126.196386
L 244.313236 -126.196386
L 244.313236 -129.501979
L 243.000753 -129.501979
L 243.000753 -131.300229
L 241.688271 -131.300229
L 241.688271 -133.87805
L 240.375788 -133.87805
L 240.375788 -134.293847
L 239.063306 -134.293847
L 239.063306 -135.926684
L 237.750823 -135.926684
L 237.750823 -137.52274
L 236.438341 -137.52274
L 236.438341 -139.845755
L 235.125859 -139.845755
L 235.125859 -140.587972
L 233.813376 -140.587972
L 233.813376 -141.676738
L 232.500894 -141.676738
L 232.500894 -142.752801
L 231.188411 -142.752801
L 231.188411 -143.820103
L 229.875929 -143.820103
L 229.875929 -144.526113
L 228.563446 -144.526113
L 228.563446 -145.566983
L 227.250964 -145.566983
L 227.250964 -146.606371
L 225.938481 -146.606371
L 225.938481 -146.949292
L 224.625999 -146.949292
L 224.625999 -147.630458
L 223.313516 -147.630458
L 223.313516 -148.304847
L 222.001034 -148.304847
L 222.001034 -148.304847
L 220.688552 -148.304847
L 220.688552 -149.30041
L 219.376069 -149.30041
L 219.376069 -149.95575
L 218.063587 -149.95575
L 218.063587 -151.257311
L 216.751104 -151.257311
L 216.751104 -152.232038
L 215.438622 -152.232038
L 215.438622 -152.861869
L 214.126139 -152.861869
L 214.126139 -153.174083
L 212.813657 -153.174083
L 212.813657 -154.693067
L 211.501174 -154.693067
L 211.501174 -155.587201
L 210.188692 -155.587201
L 210.188692 -157.614655
L 208.876209 -157.614655
L 208.876209 -158.7238
L 207.563727 -158.7238
L 207.563727 -160.852134
L 206.251245 -160.852134
L 206.251245 -162.910646
L 204.938762 -162.910646
L 204.938762 -164.91275
L 203.62628 -164.91275
L 203.62628 -167.577512
L 202.313797 -167.577512
L 202.313797 -169.934364
L 201.001315 -169.934364
L 201.001315 -172.898056
L 199.688832 -172.898056
L 199.688832 -175.125126
L 198.37635 -175.125126
L 198.37635 -177.29982
L 197.063867 -177.29982
L 197.063867 -179.215801
L 195.751385 -179.215801
L 195.751385 -180.889348
L 194.438902 -180.889348
L 194.438902 -181.296831
L 193.12642 -181.296831
L 193.12642 -182.907576
L 191.813938 -182.907576
L 191.813938 -183.504612
L 190.501455 -183.504612
L 190.501455 -184.097412
L 189.188973 -184.097412
L 189.188973 -184.684496
L 187.87649 -184.684496
L 187.87649 -185.462829
L 186.564008 -185.462829
L 186.564008 -186.816931
L 185.251525 -186.816931
L 185.251525 -187.203108
L 183.939043 -187.203108
L 183.939043 -187.395422
L 182.62656 -187.395422
L 182.62656 -187.971492
L 181.314078 -187.971492
L 181.314078 -188.547351
L 180.001595 -188.547351
L 180.001595 -188.930174
L 178.689113 -188.930174
L 178.689113 -189.884429
L 177.37663 -189.884429
L 177.37663 -190.265968
L 176.064148 -190.265968
L 176.064148 -191.214705
L 174.751666 -191.214705
L 174.751666 -192.15481
L 173.439183 -192.15481
L 173.439183 -192.528441
L 172.126701 -192.528441
L 172.126701 -194.192786
L 170.814218 -194.192786
L 170.814218 -195.839972
L 169.501736 -195.839972
L 169.501736 -196.381209
L 168.189253 -196.381209
L 168.189253 -197.618322
L 166.876771 -197.618322
L 166.876771 -200.564175
L 165.564288 -200.564175
L 165.564288 -203.789425
L 164.251806 -203.789425
L 164.251806 -207.300844
L 162.939323 -207.300844
L 162.939323 -211.403413
L 161.626841 -211.403413
L 161.626841 -213.017398
L 160.314359 -213.017398
L 160.314359 -218.357543
L 159.001876 -218.357543
L 159.001876 -220.153106
L 157.689394 -220.153106
L 157.689394 -222.20225
L 156.376911 -222.20225
L 156.376911 -223.932244
L 155.064429 -223.932244
L 155.064429 -225.636965
L 153.751946 -225.636965
L 153.751946 -226.902081
L 152.439464 -226.902081
L 152.439464 -228.296408
L 151.126981 -228.296408
L 151.126981 -229.821121
L 149.814499 -229.821121
L 149.814499 -230.233174
L 148.502016 -230.233174
L 148.502016 -231.325311
L 147.189534 -231.325311
L 147.189534 -232.138832
L 145.877052 -232.138832
L 145.877052 -232.679467
L 144.564569 -232.679467
L 144.564569 -232.679467
L 143.252087 -232.679467
L 143.252087 -232.679467
L 141.939604 -232.679467
L 141.939604 -232.814135
L 134.064709 -232.814135
L 134.064709 -233.217522
L 132.752227 -233.217522
L 132.752227 -233.619989
L 131.439745 -233.619989
L 131.439745 -234.421366
L 130.127262 -234.421366
L 130.127262 -234.953969
L 128.81478 -234.953969
L 128.81478 -234.953969
L 127.502297 -234.953969
L 127.502297 -235.218611
L 126.189815 -235.218611
L 126.189815 -238.060841
L 124.877332 -238.060841
L 124.877332 -240.4476
L 123.56485 -240.4476
L 123.56485 -244.014057
L 122.252367 -244.014057
L 122.252367 -247.253128
L 120.939885 -247.253128
L 120.939885 -252.570038
L 119.627402 -252.570038
L 119.627402 -254.824575
L 118.31492 -254.824575
L 118.31492 -258.25615
L 117.002438 -258.25615
L 117.002438 -260.860828
L 115.689955 -260.860828
L 115.689955 -262.781628
L 114.377473 -262.781628
L 114.377473 -265.611382
L 113.06499 -265.611382
L 113.06499 -267.982702
L 111.752508 -267.982702
L 111.752508 -270.423301
L 110.440025 -270.423301
L 110.440025 -270.423301
L 105.190095 -270.423301
L 105.190095 -270.626385
L 92.065271 -270.626385
L 92.065271 -270.626385
L 90.752788 -270.626385
L 90.752788 -270.727871
L 89.440306 -270.727871
L 89.440306 -270.829349
L 81.565411 -270.829349
L 81.565411 -278.224137
L 78.940446 -278.224137
L 78.940446 -318.980594
L 42.190938 -318.980594
z
" style="stroke: #7fb685; stroke-opacity: 0.18"/>
    </defs>
    <g clip-path="url(#pdbcbb227c5)">
     <use xlink:href="#m14dbc17edd" x="0" y="349.226094" style="fill: #7fb685; fill-opacity: 0.18; stroke: #7fb685; stroke-opacity: 0.18"/>
    </g>
   </g>
   <g id="matplotlib.axis_1">
    <g id="xtick_1">
     <g id="line2d_1">
      <defs>
       <path id="m97589b7654" d="M 0 0
L 0 3.5
" style="stroke: #000000; stroke-width: 0.8"/>
      </defs>
      <g>
       <use xlink:href="#m97589b7654" x="42.190938" y="312.637656" style="stroke: #000000; stroke-width: 0.8"/>
      </g>
     </g>
     <g id="text_1">
      <!-- 0 -->
      <g transform="translate(39.327813 326.47625) scale(0.09 -0.09)">
       <defs>
        <path id="DejaVuSans-30" d="M 2034 4250
Q 1547 4250 1301 3770
Q 1056 3291 1056 2328
Q 1056 1369 1301 889
Q 1547 409 2034 409
Q 2525 409 2770 889
Q 3016 1369 3016 2328
Q 3016 3291 2770 3770
Q 2525 4250 2034 4250
z
M 2034 4750
Q 2819 4750 3233 4129
Q 3647 3509 3647 2328
Q 3647 1150 3233 529
Q 2819 -91 2034 -91
Q 1250 -91 836 529
Q 422 1150 422 2328
Q 422 3509 836 4129
Q 1250 4750 2034 4750
z
" transform="scale(0.015625)"/>
       </defs>
       <use xlink:href="#DejaVuSans-30"/>
      </g>
     </g>
    </g>
    <g id="xtick_2">
     <g id="line2d_2">
      <g>
       <use xlink:href="#m97589b7654" x="75.002999" y="312.637656" style="stroke: #000000; stroke-width: 0.8"/>
      </g>
     </g>
     <g id="text_2">
      <!-- 25 -->
      <g transform="translate(69.276749 326.47625) scale(0.09 -0.09)">
       <defs>
        <path id="DejaVuSans-32" d="M 1228 531
L 3431 531
L 3431 0
L 469 0
L 469 531
Q 828 903 1448 1529
Q 2069 2156 2228 2338
Q 2531 2678 2651 2914
Q 2772 3150 2772 3378
Q 2772 3750 2511 3984
Q 2250 4219 1831 4219
Q 1534 4219 1204 4116
Q 875 4013 500 3803
L 500 4441
Q 881 4594 1212 4672
Q 1544 4750 1819 4750
Q 2544 4750 2975 4387
Q 3406 4025 3406 3419
Q 3406 3131 3298 2873
Q 3191 2616 2906 2266
Q 2828 2175 2409 1742
Q 1991 1309 1228 531
z
" transform="scale(0.015625)"/>
        <path id="DejaVuSans-35" d="M 691 4666
L 3169 4666
L 3169 4134
L 1269 4134
L 1269 2991
Q 1406 3038 1543 3061
Q 1681 3084 1819 3084
Q 2600 3084 3056 2656
Q 3513 2228 3513 1497
Q 3513 744 3044 326
Q 2575 -91 1722 -91
Q 1428 -91 1123 -41
Q 819 9 494 109
L 494 744
Q 775 591 1075 516
Q 1375 441 1709 441
Q 2250 441 2565 725
Q 2881 1009 2881 1497
Q 2881 1984 2565 2268
Q 2250 2553 1709 2553
Q 1456 2553 1204 2497
Q 953 2441 691 2322
L 691 4666
z
" transform="scale(0.015625)"/>
       </defs>
       <use xlink:href="#DejaVuSans-32"/>
       <use xlink:href="#DejaVuSans-35" transform="translate(63.623047 0)"/>
      </g>
     </g>
    </g>
    <g id="xtick_3">
     <g id="line2d_3">
      <g>
       <use xlink:href="#m97589b7654" x="107.81506" y="312.637656" style="stroke: #000000; stroke-width: 0.8"/>
      </g>
     </g>
     <g id="text_3">
      <!-- 50 -->
      <g transform="translate(102.08881 326.47625) scale(0.09 -0.09)">
       <use xlink:href="#DejaVuSans-35"/>
       <use xlink:href="#DejaVuSans-30" transform="translate(63.623047 0)"/>
      </g>
     </g>
    </g>
    <g id="xtick_4">
     <g id="line2d_4">
      <g>
       <use xlink:href="#m97589b7654" x="140.627122" y="312.637656" style="stroke: #000000; stroke-width: 0.8"/>
      </g>
     </g>
     <g id="text_4">
      <!-- 75 -->
      <g transform="translate(134.900872 326.47625) scale(0.09 -0.09)">
       <defs>
        <path id="DejaVuSans-37" d="M 525 4666
L 3525 4666
L 3525 4397
L 1831 0
L 1172 0
L 2766 4134
L 525 4134
L 525 4666
z
" transform="scale(0.015625)"/>
       </defs>
       <use xlink:href="#DejaVuSans-37"/>
       <use xlink:href="#DejaVuSans-35" transform="translate(63.623047 0)"/>
      </g>
     </g>
    </g>
    <g id="xtick_5">
     <g id="line2d_5">
      <g>
       <use xlink:href="#m97589b7654" x="173.439183" y="312.637656" style="stroke: #000000; stroke-width: 0.8"/>
      </g>
     </g>
     <g id="text_5">
      <!-- 100 -->
      <g transform="translate(164.849808 326.47625) scale(0.09 -0.09)">
       <defs>
        <path id="DejaVuSans-31" d="M 794 531
L 1825 531
L 1825 4091
L 703 3866
L 703 4441
L 1819 4666
L 2450 4666
L 2450 531
L 3481 531
L 3481 0
L 794 0
L 794 531
z
" transform="scale(0.015625)"/>
       </defs>
       <use xlink:href="#DejaVuSans-31"/>
       <use xlink:href="#DejaVuSans-30" transform="translate(63.623047 0)"/>
       <use xlink:href="#DejaVuSans-30" transform="translate(127.246094 0)"/>
      </g>
     </g>
    </g>
    <g id="xtick_6">
     <g id="line2d_6">
      <g>
       <use xlink:href="#m97589b7654" x="206.251245" y="312.637656" style="stroke: #000000; stroke-width: 0.8"/>
      </g>
     </g>
     <g id="text_6">
      <!-- 125 -->
      <g transform="translate(197.66187 326.47625) scale(0.09 -0.09)">
       <use xlink:href="#DejaVuSans-31"/>
       <use xlink:href="#DejaVuSans-32" transform="translate(63.623047 0)"/>
       <use xlink:href="#DejaVuSans-35" transform="translate(127.246094 0)"/>
      </g>
     </g>
    </g>
    <g id="xtick_7">
     <g id="line2d_7">
      <g>
       <use xlink:href="#m97589b7654" x="239.063306" y="312.637656" style="stroke: #000000; stroke-width: 0.8"/>
      </g>
     </g>
     <g id="text_7">
      <!-- 150 -->
      <g transform="translate(230.473931 326.47625) scale(0.09 -0.09)">
       <use xlink:href="#DejaVuSans-31"/>
       <use xlink:href="#DejaVuSans-35" transform="translate(63.623047 0)"/>
       <use xlink:href="#DejaVuSans-30" transform="translate(127.246094 0)"/>
      </g>
     </g>
    </g>
    <g id="xtick_8">
     <g id="line2d_8">
      <g>
       <use xlink:href="#m97589b7654" x="271.875367" y="312.637656" style="stroke: #000000; stroke-width: 0.8"/>
      </g>
     </g>
     <g id="text_8">
      <!-- 175 -->
      <g transform="translate(263.285992 326.47625) scale(0.09 -0.09)">
       <use xlink:href="#DejaVuSans-31"/>
       <use xlink:href="#DejaVuSans-37" transform="translate(63.623047 0)"/>
       <use xlink:href="#DejaVuSans-35" transform="translate(127.246094 0)"/>
      </g>
     </g>
    </g>
    <g id="text_9">
     <!-- Days from first fill -->
     <g transform="translate(122.301771 339.946406) scale(0.1 -0.1)">
      <defs>
       <path id="DejaVuSans-44" d="M 1259 4147
L 1259 519
L 2022 519
Q 2988 519 3436 956
Q 3884 1394 3884 2338
Q 3884 3275 3436 3711
Q 2988 4147 2022 4147
L 1259 4147
z
M 628 4666
L 1925 4666
Q 3281 4666 3915 4102
Q 4550 3538 4550 2338
Q 4550 1131 3912 565
Q 3275 0 1925 0
L 628 0
L 628 4666
z
" transform="scale(0.015625)"/>
       <path id="DejaVuSans-61" d="M 2194 1759
Q 1497 1759 1228 1600
Q 959 1441 959 1056
Q 959 750 1161 570
Q 1363 391 1709 391
Q 2188 391 2477 730
Q 2766 1069 2766 1631
L 2766 1759
L 2194 1759
z
M 3341 1997
L 3341 0
L 2766 0
L 2766 531
Q 2569 213 2275 61
Q 1981 -91 1556 -91
Q 1019 -91 701 211
Q 384 513 384 1019
Q 384 1609 779 1909
Q 1175 2209 1959 2209
L 2766 2209
L 2766 2266
Q 2766 2663 2505 2880
Q 2244 3097 1772 3097
Q 1472 3097 1187 3025
Q 903 2953 641 2809
L 641 3341
Q 956 3463 1253 3523
Q 1550 3584 1831 3584
Q 2591 3584 2966 3190
Q 3341 2797 3341 1997
z
" transform="scale(0.015625)"/>
       <path id="DejaVuSans-79" d="M 2059 -325
Q 1816 -950 1584 -1140
Q 1353 -1331 966 -1331
L 506 -1331
L 506 -850
L 844 -850
Q 1081 -850 1212 -737
Q 1344 -625 1503 -206
L 1606 56
L 191 3500
L 800 3500
L 1894 763
L 2988 3500
L 3597 3500
L 2059 -325
z
" transform="scale(0.015625)"/>
       <path id="DejaVuSans-73" d="M 2834 3397
L 2834 2853
Q 2591 2978 2328 3040
Q 2066 3103 1784 3103
Q 1356 3103 1142 2972
Q 928 2841 928 2578
Q 928 2378 1081 2264
Q 1234 2150 1697 2047
L 1894 2003
Q 2506 1872 2764 1633
Q 3022 1394 3022 966
Q 3022 478 2636 193
Q 2250 -91 1575 -91
Q 1294 -91 989 -36
Q 684 19 347 128
L 347 722
Q 666 556 975 473
Q 1284 391 1588 391
Q 1994 391 2212 530
Q 2431 669 2431 922
Q 2431 1156 2273 1281
Q 2116 1406 1581 1522
L 1381 1569
Q 847 1681 609 1914
Q 372 2147 372 2553
Q 372 3047 722 3315
Q 1072 3584 1716 3584
Q 2034 3584 2315 3537
Q 2597 3491 2834 3397
z
" transform="scale(0.015625)"/>
       <path id="DejaVuSans-20" transform="scale(0.015625)"/>
       <path id="DejaVuSans-66" d="M 2375 4863
L 2375 4384
L 1825 4384
Q 1516 4384 1395 4259
Q 1275 4134 1275 3809
L 1275 3500
L 2222 3500
L 2222 3053
L 1275 3053
L 1275 0
L 697 0
L 697 3053
L 147 3053
L 147 3500
L 697 3500
L 697 3744
Q 697 4328 969 4595
Q 1241 4863 1831 4863
L 2375 4863
z
" transform="scale(0.015625)"/>
       <path id="DejaVuSans-72" d="M 2631 2963
Q 2534 3019 2420 3045
Q 2306 3072 2169 3072
Q 1681 3072 1420 2755
Q 1159 2438 1159 1844
L 1159 0
L 581 0
L 581 3500
L 1159 3500
L 1159 2956
Q 1341 3275 1631 3429
Q 1922 3584 2338 3584
Q 2397 3584 2469 3576
Q 2541 3569 2628 3553
L 2631 2963
z
" transform="scale(0.015625)"/>
       <path id="DejaVuSans-6f" d="M 1959 3097
Q 1497 3097 1228 2736
Q 959 2375 959 1747
Q 959 1119 1226 758
Q 1494 397 1959 397
Q 2419 397 2687 759
Q 2956 1122 2956 1747
Q 2956 2369 2687 2733
Q 2419 3097 1959 3097
z
M 1959 3584
Q 2709 3584 3137 3096
Q 3566 2609 3566 1747
Q 3566 888 3137 398
Q 2709 -91 1959 -91
Q 1206 -91 779 398
Q 353 888 353 1747
Q 353 2609 779 3096
Q 1206 3584 1959 3584
z
" transform="scale(0.015625)"/>
       <path id="DejaVuSans-6d" d="M 3328 2828
Q 3544 3216 3844 3400
Q 4144 3584 4550 3584
Q 5097 3584 5394 3201
Q 5691 2819 5691 2113
L 5691 0
L 5113 0
L 5113 2094
Q 5113 2597 4934 2840
Q 4756 3084 4391 3084
Q 3944 3084 3684 2787
Q 3425 2491 3425 1978
L 3425 0
L 2847 0
L 2847 2094
Q 2847 2600 2669 2842
Q 2491 3084 2119 3084
Q 1678 3084 1418 2786
Q 1159 2488 1159 1978
L 1159 0
L 581 0
L 581 3500
L 1159 3500
L 1159 2956
Q 1356 3278 1631 3431
Q 1906 3584 2284 3584
Q 2666 3584 2933 3390
Q 3200 3197 3328 2828
z
" transform="scale(0.015625)"/>
       <path id="DejaVuSans-69" d="M 603 3500
L 1178 3500
L 1178 0
L 603 0
L 603 3500
z
M 603 4863
L 1178 4863
L 1178 4134
L 603 4134
L 603 4863
z
" transform="scale(0.015625)"/>
       <path id="DejaVuSans-74" d="M 1172 4494
L 1172 3500
L 2356 3500
L 2356 3053
L 1172 3053
L 1172 1153
Q 1172 725 1289 603
Q 1406 481 1766 481
L 2356 481
L 2356 0
L 1766 0
Q 1100 0 847 248
Q 594 497 594 1153
L 594 3053
L 172 3053
L 172 3500
L 594 3500
L 594 4494
L 1172 4494
z
" transform="scale(0.015625)"/>
       <path id="DejaVuSans-6c" d="M 603 4863
L 1178 4863
L 1178 0
L 603 0
L 603 4863
z
" transform="scale(0.015625)"/>
      </defs>
      <use xlink:href="#DejaVuSans-44"/>
      <use xlink:href="#DejaVuSans-61" transform="translate(77.001953 0)"/>
      <use xlink:href="#DejaVuSans-79" transform="translate(138.28125 0)"/>
      <use xlink:href="#DejaVuSans-73" transform="translate(197.460938 0)"/>
      <use xlink:href="#DejaVuSans-20" transform="translate(249.560547 0)"/>
      <use xlink:href="#DejaVuSans-66" transform="translate(281.347656 0)"/>
      <use xlink:href="#DejaVuSans-72" transform="translate(316.552734 0)"/>
      <use xlink:href="#DejaVuSans-6f" transform="translate(355.416016 0)"/>
      <use xlink:href="#DejaVuSans-6d" transform="translate(416.597656 0)"/>
      <use xlink:href="#DejaVuSans-20" transform="translate(514.009766 0)"/>
      <use xlink:href="#DejaVuSans-66" transform="translate(545.796875 0)"/>
      <use xlink:href="#DejaVuSans-69" transform="translate(581.001953 0)"/>
      <use xlink:href="#DejaVuSans-72" transform="translate(608.785156 0)"/>
      <use xlink:href="#DejaVuSans-73" transform="translate(649.898438 0)"/>
      <use xlink:href="#DejaVuSans-74" transform="translate(701.998047 0)"/>
      <use xlink:href="#DejaVuSans-20" transform="translate(741.207031 0)"/>
      <use xlink:href="#DejaVuSans-66" transform="translate(772.994141 0)"/>
      <use xlink:href="#DejaVuSans-69" transform="translate(808.199219 0)"/>
      <use xlink:href="#DejaVuSans-6c" transform="translate(835.982422 0)"/>
      <use xlink:href="#DejaVuSans-6c" transform="translate(863.765625 0)"/>
     </g>
    </g>
   </g>
   <g id="matplotlib.axis_2">
    <g id="ytick_1">
     <g id="line2d_9">
      <defs>
       <path id="m6758934fcf" d="M 0 0
L -3.5 0
" style="stroke: #000000; stroke-width: 0.8"/>
      </defs>
      <g>
       <use xlink:href="#m6758934fcf" x="42.190938" y="312.637656" style="stroke: #000000; stroke-width: 0.8"/>
      </g>
     </g>
     <g id="text_10">
      <!-- 0.0 -->
      <g transform="translate(20.878125 316.056953) scale(0.09 -0.09)">
       <defs>
        <path id="DejaVuSans-2e" d="M 684 794
L 1344 794
L 1344 0
L 684 0
L 684 794
z
" transform="scale(0.015625)"/>
       </defs>
       <use xlink:href="#DejaVuSans-30"/>
       <use xlink:href="#DejaVuSans-2e" transform="translate(63.623047 0)"/>
       <use xlink:href="#DejaVuSans-30" transform="translate(95.410156 0)"/>
      </g>
     </g>
    </g>
    <g id="ytick_2">
     <g id="line2d_10">
      <g>
       <use xlink:href="#m6758934fcf" x="42.190938" y="256.159225" style="stroke: #000000; stroke-width: 0.8"/>
      </g>
     </g>
     <g id="text_11">
      <!-- 0.2 -->
      <g transform="translate(20.878125 259.578522) scale(0.09 -0.09)">
       <use xlink:href="#DejaVuSans-30"/>
       <use xlink:href="#DejaVuSans-2e" transform="translate(63.623047 0)"/>
       <use xlink:href="#DejaVuSans-32" transform="translate(95.410156 0)"/>
      </g>
     </g>
    </g>
    <g id="ytick_3">
     <g id="line2d_11">
      <g>
       <use xlink:href="#m6758934fcf" x="42.190938" y="199.680794" style="stroke: #000000; stroke-width: 0.8"/>
      </g>
     </g>
     <g id="text_12">
      <!-- 0.4 -->
      <g transform="translate(20.878125 203.10009) scale(0.09 -0.09)">
       <defs>
        <path id="DejaVuSans-34" d="M 2419 4116
L 825 1625
L 2419 1625
L 2419 4116
z
M 2253 4666
L 3047 4666
L 3047 1625
L 3713 1625
L 3713 1100
L 3047 1100
L 3047 0
L 2419 0
L 2419 1100
L 313 1100
L 313 1709
L 2253 4666
z
" transform="scale(0.015625)"/>
       </defs>
       <use xlink:href="#DejaVuSans-30"/>
       <use xlink:href="#DejaVuSans-2e" transform="translate(63.623047 0)"/>
       <use xlink:href="#DejaVuSans-34" transform="translate(95.410156 0)"/>
      </g>
     </g>
    </g>
    <g id="ytick_4">
     <g id="line2d_12">
      <g>
       <use xlink:href="#m6758934fcf" x="42.190938" y="143.202362" style="stroke: #000000; stroke-width: 0.8"/>
      </g>
     </g>
     <g id="text_13">
      <!-- 0.6 -->
      <g transform="translate(20.878125 146.621659) scale(0.09 -0.09)">
       <defs>
        <path id="DejaVuSans-36" d="M 2113 2584
Q 1688 2584 1439 2293
Q 1191 2003 1191 1497
Q 1191 994 1439 701
Q 1688 409 2113 409
Q 2538 409 2786 701
Q 3034 994 3034 1497
Q 3034 2003 2786 2293
Q 2538 2584 2113 2584
z
M 3366 4563
L 3366 3988
Q 3128 4100 2886 4159
Q 2644 4219 2406 4219
Q 1781 4219 1451 3797
Q 1122 3375 1075 2522
Q 1259 2794 1537 2939
Q 1816 3084 2150 3084
Q 2853 3084 3261 2657
Q 3669 2231 3669 1497
Q 3669 778 3244 343
Q 2819 -91 2113 -91
Q 1303 -91 875 529
Q 447 1150 447 2328
Q 447 3434 972 4092
Q 1497 4750 2381 4750
Q 2619 4750 2861 4703
Q 3103 4656 3366 4563
z
" transform="scale(0.015625)"/>
       </defs>
       <use xlink:href="#DejaVuSans-30"/>
       <use xlink:href="#DejaVuSans-2e" transform="translate(63.623047 0)"/>
       <use xlink:href="#DejaVuSans-36" transform="translate(95.410156 0)"/>
      </g>
     </g>
    </g>
    <g id="ytick_5">
     <g id="line2d_13">
      <g>
       <use xlink:href="#m6758934fcf" x="42.190938" y="86.723931" style="stroke: #000000; stroke-width: 0.8"/>
      </g>
     </g>
     <g id="text_14">
      <!-- 0.8 -->
      <g transform="translate(20.878125 90.143228) scale(0.09 -0.09)">
       <defs>
        <path id="DejaVuSans-38" d="M 2034 2216
Q 1584 2216 1326 1975
Q 1069 1734 1069 1313
Q 1069 891 1326 650
Q 1584 409 2034 409
Q 2484 409 2743 651
Q 3003 894 3003 1313
Q 3003 1734 2745 1975
Q 2488 2216 2034 2216
z
M 1403 2484
Q 997 2584 770 2862
Q 544 3141 544 3541
Q 544 4100 942 4425
Q 1341 4750 2034 4750
Q 2731 4750 3128 4425
Q 3525 4100 3525 3541
Q 3525 3141 3298 2862
Q 3072 2584 2669 2484
Q 3125 2378 3379 2068
Q 3634 1759 3634 1313
Q 3634 634 3220 271
Q 2806 -91 2034 -91
Q 1263 -91 848 271
Q 434 634 434 1313
Q 434 1759 690 2068
Q 947 2378 1403 2484
z
M 1172 3481
Q 1172 3119 1398 2916
Q 1625 2713 2034 2713
Q 2441 2713 2670 2916
Q 2900 3119 2900 3481
Q 2900 3844 2670 4047
Q 2441 4250 2034 4250
Q 1625 4250 1398 4047
Q 1172 3844 1172 3481
z
" transform="scale(0.015625)"/>
       </defs>
       <use xlink:href="#DejaVuSans-30"/>
       <use xlink:href="#DejaVuSans-2e" transform="translate(63.623047 0)"/>
       <use xlink:href="#DejaVuSans-38" transform="translate(95.410156 0)"/>
      </g>
     </g>
    </g>
    <g id="ytick_6">
     <g id="line2d_14">
      <g>
       <use xlink:href="#m6758934fcf" x="42.190938" y="30.245499" style="stroke: #000000; stroke-width: 0.8"/>
      </g>
     </g>
     <g id="text_15">
      <!-- 1.0 -->
      <g transform="translate(20.878125 33.664796) scale(0.09 -0.09)">
       <use xlink:href="#DejaVuSans-31"/>
       <use xlink:href="#DejaVuSans-2e" transform="translate(63.623047 0)"/>
       <use xlink:href="#DejaVuSans-30" transform="translate(95.410156 0)"/>
      </g>
     </g>
    </g>
    <g id="text_16">
     <!-- Still on initial regimen -->
     <g transform="translate(14.798438 223.362188) rotate(-90) scale(0.1 -0.1)">
      <defs>
       <path id="DejaVuSans-53" d="M 3425 4513
L 3425 3897
Q 3066 4069 2747 4153
Q 2428 4238 2131 4238
Q 1616 4238 1336 4038
Q 1056 3838 1056 3469
Q 1056 3159 1242 3001
Q 1428 2844 1947 2747
L 2328 2669
Q 3034 2534 3370 2195
Q 3706 1856 3706 1288
Q 3706 609 3251 259
Q 2797 -91 1919 -91
Q 1588 -91 1214 -16
Q 841 59 441 206
L 441 856
Q 825 641 1194 531
Q 1563 422 1919 422
Q 2459 422 2753 634
Q 3047 847 3047 1241
Q 3047 1584 2836 1778
Q 2625 1972 2144 2069
L 1759 2144
Q 1053 2284 737 2584
Q 422 2884 422 3419
Q 422 4038 858 4394
Q 1294 4750 2059 4750
Q 2388 4750 2728 4690
Q 3069 4631 3425 4513
z
" transform="scale(0.015625)"/>
       <path id="DejaVuSans-6e" d="M 3513 2113
L 3513 0
L 2938 0
L 2938 2094
Q 2938 2591 2744 2837
Q 2550 3084 2163 3084
Q 1697 3084 1428 2787
Q 1159 2491 1159 1978
L 1159 0
L 581 0
L 581 3500
L 1159 3500
L 1159 2956
Q 1366 3272 1645 3428
Q 1925 3584 2291 3584
Q 2894 3584 3203 3211
Q 3513 2838 3513 2113
z
" transform="scale(0.015625)"/>
       <path id="DejaVuSans-65" d="M 3597 1894
L 3597 1613
L 953 1613
Q 991 1019 1311 708
Q 1631 397 2203 397
Q 2534 397 2845 478
Q 3156 559 3463 722
L 3463 178
Q 3153 47 2828 -22
Q 2503 -91 2169 -91
Q 1331 -91 842 396
Q 353 884 353 1716
Q 353 2575 817 3079
Q 1281 3584 2069 3584
Q 2775 3584 3186 3129
Q 3597 2675 3597 1894
z
M 3022 2063
Q 3016 2534 2758 2815
Q 2500 3097 2075 3097
Q 1594 3097 1305 2825
Q 1016 2553 972 2059
L 3022 2063
z
" transform="scale(0.015625)"/>
       <path id="DejaVuSans-67" d="M 2906 1791
Q 2906 2416 2648 2759
Q 2391 3103 1925 3103
Q 1463 3103 1205 2759
Q 947 2416 947 1791
Q 947 1169 1205 825
Q 1463 481 1925 481
Q 2391 481 2648 825
Q 2906 1169 2906 1791
z
M 3481 434
Q 3481 -459 3084 -895
Q 2688 -1331 1869 -1331
Q 1566 -1331 1297 -1286
Q 1028 -1241 775 -1147
L 775 -588
Q 1028 -725 1275 -790
Q 1522 -856 1778 -856
Q 2344 -856 2625 -561
Q 2906 -266 2906 331
L 2906 616
Q 2728 306 2450 153
Q 2172 0 1784 0
Q 1141 0 747 490
Q 353 981 353 1791
Q 353 2603 747 3093
Q 1141 3584 1784 3584
Q 2172 3584 2450 3431
Q 2728 3278 2906 2969
L 2906 3500
L 3481 3500
L 3481 434
z
" transform="scale(0.015625)"/>
      </defs>
      <use xlink:href="#DejaVuSans-53"/>
      <use xlink:href="#DejaVuSans-74" transform="translate(63.476562 0)"/>
      <use xlink:href="#DejaVuSans-69" transform="translate(102.685547 0)"/>
      <use xlink:href="#DejaVuSans-6c" transform="translate(130.46875 0)"/>
      <use xlink:href="#DejaVuSans-6c" transform="translate(158.251953 0)"/>
      <use xlink:href="#DejaVuSans-20" transform="translate(186.035156 0)"/>
      <use xlink:href="#DejaVuSans-6f" transform="translate(217.822266 0)"/>
      <use xlink:href="#DejaVuSans-6e" transform="translate(279.003906 0)"/>
      <use xlink:href="#DejaVuSans-20" transform="translate(342.382812 0)"/>
      <use xlink:href="#DejaVuSans-69" transform="translate(374.169922 0)"/>
      <use xlink:href="#DejaVuSans-6e" transform="translate(401.953125 0)"/>
      <use xlink:href="#DejaVuSans-69" transform="translate(465.332031 0)"/>
      <use xlink:href="#DejaVuSans-74" transform="translate(493.115234 0)"/>
      <use xlink:href="#DejaVuSans-69" transform="translate(532.324219 0)"/>
      <use xlink:href="#DejaVuSans-61" transform="translate(560.107422 0)"/>
      <use xlink:href="#DejaVuSans-6c" transform="translate(621.386719 0)"/>
      <use xlink:href="#DejaVuSans-20" transform="translate(649.169922 0)"/>
      <use xlink:href="#DejaVuSans-72" transform="translate(680.957031 0)"/>
      <use xlink:href="#DejaVuSans-65" transform="translate(719.820312 0)"/>
      <use xlink:href="#DejaVuSans-67" transform="translate(781.34375 0)"/>
      <use xlink:href="#DejaVuSans-69" transform="translate(844.820312 0)"/>
      <use xlink:href="#DejaVuSans-6d" transform="translate(872.603516 0)"/>
      <use xlink:href="#DejaVuSans-65" transform="translate(970.015625 0)"/>
      <use xlink:href="#DejaVuSans-6e" transform="translate(1031.539062 0)"/>
     </g>
    </g>
   </g>
   <g id="line2d_15">
    <path d="M 42.190938 30.245499
L 78.940446 30.245499
L 78.940446 74.320176
L 81.565411 74.320176
L 81.565411 82.021085
L 90.752788 82.126582
L 90.752788 82.232079
L 105.190095 82.232079
L 105.190095 82.44317
L 111.752508 82.44317
L 111.752508 84.977421
L 113.06499 84.977421
L 113.06499 87.436879
L 114.377473 87.436879
L 114.377473 90.368615
L 115.689955 90.368615
L 115.689955 92.357106
L 117.002438 92.357106
L 117.002438 95.051669
L 118.31492 95.051669
L 118.31492 98.598023
L 119.627402 98.598023
L 119.627402 100.925806
L 120.939885 100.925806
L 120.939885 106.409334
L 122.252367 106.409334
L 122.252367 109.747562
L 123.56485 109.747562
L 123.56485 113.420354
L 124.877332 113.420354
L 124.877332 115.876635
L 126.189815 115.876635
L 126.189815 118.801461
L 127.502297 118.801461
L 127.502297 119.073894
L 130.127262 119.073894
L 130.127262 119.622233
L 131.439745 119.622233
L 131.439745 120.447085
L 132.752227 120.447085
L 132.752227 120.861289
L 134.064709 120.861289
L 134.064709 121.27639
L 141.939604 121.27639
L 141.939604 121.414957
L 145.877052 121.414957
L 145.877052 121.971241
L 147.189534 121.971241
L 147.189534 122.808109
L 148.502016 122.808109
L 148.502016 123.931361
L 149.814499 123.931361
L 149.814499 124.355102
L 151.126981 124.355102
L 151.126981 125.922936
L 152.439464 125.922936
L 152.439464 127.355896
L 153.751946 127.355896
L 153.751946 128.655612
L 155.064429 128.655612
L 155.064429 130.406433
L 156.376911 130.406433
L 156.376911 132.182854
L 157.689394 132.182854
L 157.689394 134.286407
L 159.001876 134.286407
L 159.001876 136.129831
L 160.314359 136.129831
L 160.314359 141.606581
L 161.626841 141.606581
L 161.626841 143.263859
L 162.939323 143.263859
L 162.939323 147.472949
L 164.251806 147.472949
L 164.251806 151.070935
L 165.564288 151.070935
L 165.564288 154.371761
L 166.876771 154.371761
L 166.876771 157.384661
L 168.189253 157.384661
L 168.189253 158.64982
L 169.501736 158.64982
L 169.501736 159.203733
L 170.814218 159.203733
L 170.814218 160.88982
L 172.126701 160.88982
L 172.126701 162.592726
L 173.439183 162.592726
L 173.439183 162.975006
L 174.751666 162.975006
L 174.751666 163.936848
L 176.064148 163.936848
L 176.064148 164.90748
L 177.37663 164.90748
L 177.37663 165.297784
L 178.689113 165.297784
L 178.689113 166.273545
L 180.001595 166.273545
L 180.001595 166.664893
L 181.314078 166.664893
L 181.314078 167.253493
L 182.62656 167.253493
L 182.62656 167.842093
L 183.939043 167.842093
L 183.939043 168.038559
L 185.251525 168.038559
L 185.251525 168.433099
L 186.564008 168.433099
L 186.564008 169.815883
L 187.87649 169.815883
L 187.87649 170.610441
L 189.188973 170.610441
L 189.188973 171.209712
L 190.501455 171.209712
L 190.501455 171.814967
L 191.813938 171.814967
L 191.813938 172.424589
L 193.12642 172.424589
L 193.12642 174.069317
L 194.438902 174.069317
L 194.438902 174.485438
L 195.751385 174.485438
L 195.751385 176.196301
L 197.063867 176.196301
L 197.063867 178.15479
L 198.37635 178.15479
L 198.37635 180.377647
L 199.688832 180.377647
L 199.688832 182.654067
L 201.001315 182.654067
L 201.001315 185.682359
L 202.313797 185.682359
L 202.313797 188.091377
L 203.62628 188.091377
L 203.62628 190.815054
L 204.938762 190.815054
L 204.938762 192.862492
L 206.251245 192.862492
L 206.251245 194.968429
L 207.563727 194.968429
L 207.563727 197.147489
L 208.876209 197.147489
L 208.876209 198.285323
L 210.188692 198.285323
L 210.188692 200.369871
L 211.501174 200.369871
L 211.501174 201.290099
L 212.813657 201.290099
L 212.813657 202.853969
L 214.126139 202.853969
L 214.126139 203.175915
L 215.438622 203.175915
L 215.438622 203.82554
L 216.751104 203.82554
L 216.751104 204.833059
L 218.063587 204.833059
L 218.063587 206.176419
L 219.376069 206.176419
L 219.376069 206.852363
L 220.688552 206.852363
L 220.688552 207.879405
L 223.313516 207.879405
L 223.313516 208.575473
L 224.625999 208.575473
L 224.625999 209.278596
L 225.938481 209.278596
L 225.938481 209.632565
L 227.250964 209.632565
L 227.250964 210.705535
L 228.563446 210.705535
L 228.563446 211.778505
L 229.875929 211.778505
L 229.875929 212.506729
L 231.188411 212.506729
L 231.188411 213.607069
L 232.500894 213.607069
L 232.500894 214.715621
L 233.813376 214.715621
L 233.813376 215.836865
L 235.125859 215.836865
L 235.125859 216.602089
L 236.438341 216.602089
L 236.438341 219.002978
L 237.750823 219.002978
L 237.750823 220.652928
L 239.063306 220.652928
L 239.063306 222.340722
L 240.375788 222.340722
L 240.375788 222.770707
L 241.688271 222.770707
L 241.688271 225.440022
L 243.000753 225.440022
L 243.000753 227.305212
L 244.313236 227.305212
L 244.313236 230.738127
L 245.625718 230.738127
L 245.625718 232.798492
L 246.938201 232.798492
L 246.938201 234.405992
L 248.250683 234.405992
L 248.250683 237.734999
L 249.563166 237.734999
L 249.563166 242.309207
L 250.875648 242.309207
L 250.875648 244.673189
L 253.500613 244.673189
L 253.500613 246.691935
L 254.813095 246.691935
L 254.813095 248.86597
L 256.125578 248.86597
L 256.125578 251.14353
L 257.43806 251.14353
L 257.43806 251.952664
L 258.750543 251.952664
L 258.750543 253.638358
L 261.375508 253.638358
L 261.375508 254.546039
L 262.68799 254.546039
L 262.68799 255.453721
L 264.000473 255.453721
L 264.000473 256.391162
L 275.812815 256.391162
L 275.812815 257.413826
L 277.125297 257.413826
L 277.125297 258.475823
L 281.062745 258.475823
L 281.062745 259.653254
L 282.375227 259.653254
L 282.375227 262.176321
L 283.687709 262.176321
L 283.687709 263.50425
L 285.000192 263.50425
L 285.000192 264.949351
L 291.562604 264.949351
L 291.562604 267.220222
L 362.436657 267.220222
L 362.436657 270.713871
L 519.934552 270.713871
L 519.934552 270.713871
" clip-path="url(#pdbcbb227c5)" style="fill: none; stroke: #7fb685; stroke-width: 1.8; stroke-linecap: square"/>
   </g>
   <g id="line2d_16">
    <defs>
     <path id="m7584d90880" d="M 0 2.5
C 0.663008 2.5 1.29895 2.236584 1.767767 1.767767
C 2.236584 1.29895 2.5 0.663008 2.5 0
C 2.5 -0.663008 2.236584 -1.29895 1.767767 -1.767767
C 1.29895 -2.236584 0.663008 -2.5 0 -2.5
C -0.663008 -2.5 -1.29895 -2.236584 -1.767767 -1.767767
C -2.236584 -1.29895 -2.5 -0.663008 -2.5 0
C -2.5 0.663008 -2.236584 1.29895 -1.767767 1.767767
C -1.29895 2.236584 -0.663008 2.5 0 2.5
z
" style="stroke: #7fb685"/>
    </defs>
    <g clip-path="url(#pdbcbb227c5)">
     <use xlink:href="#m7584d90880" x="120.939885" y="106.409334" style="fill: #7fb685; stroke: #7fb685"/>
    </g>
   </g>
   <g id="line2d_17">
    <g clip-path="url(#pdbcbb227c5)">
     <use xlink:href="#m7584d90880" x="160.314359" y="141.606581" style="fill: #7fb685; stroke: #7fb685"/>
    </g>
   </g>
   <g id="line2d_18">
    <g clip-path="url(#pdbcbb227c5)">
     <use xlink:href="#m7584d90880" x="190.501455" y="171.814967" style="fill: #7fb685; stroke: #7fb685"/>
    </g>
   </g>
   <g id="patch_3">
    <path d="M 42.190938 312.637656
L 42.190938 24.597656
" style="fill: none; stroke: #000000; stroke-width: 0.8; stroke-linejoin: miter; stroke-linecap: square"/>
   </g>
   <g id="patch_4">
    <path d="M 42.190938 312.637656
L 291.562604 312.637656
" style="fill: none; stroke: #000000; stroke-width: 0.8; stroke-linejoin: miter; stroke-linecap: square"/>
   </g>
   <g id="patch_5">
    <path d="M 119.246885 82.785104
Q 120.021982 93.60086 120.797079 104.416616
" style="fill: none; stroke: #9a9a9a; stroke-width: 0.8; stroke-linecap: round"/>
   </g>
   <g id="text_17">
    <g id="patch_6">
     <path d="M 90.000076 80.794573
L 146.629764 80.794573
Q 148.249764 80.794573 148.249764 79.174573
L 148.249764 60.386229
Q 148.249764 58.766229 146.629764 58.766229
L 90.000076 58.766229
Q 88.380076 58.766229 88.380076 60.386229
L 88.380076 79.174573
Q 88.380076 80.794573 90.000076 80.794573
z
" style="fill: #ffffff; opacity: 0.92"/>
    </g>
    <!-- 73% -->
    <g transform="translate(108.312967 67.224823) scale(0.09 -0.09)">
     <defs>
      <path id="DejaVuSans-33" d="M 2597 2516
Q 3050 2419 3304 2112
Q 3559 1806 3559 1356
Q 3559 666 3084 287
Q 2609 -91 1734 -91
Q 1441 -91 1130 -33
Q 819 25 488 141
L 488 750
Q 750 597 1062 519
Q 1375 441 1716 441
Q 2309 441 2620 675
Q 2931 909 2931 1356
Q 2931 1769 2642 2001
Q 2353 2234 1838 2234
L 1294 2234
L 1294 2753
L 1863 2753
Q 2328 2753 2575 2939
Q 2822 3125 2822 3475
Q 2822 3834 2567 4026
Q 2313 4219 1838 4219
Q 1578 4219 1281 4162
Q 984 4106 628 3988
L 628 4550
Q 988 4650 1302 4700
Q 1616 4750 1894 4750
Q 2613 4750 3031 4423
Q 3450 4097 3450 3541
Q 3450 3153 3228 2886
Q 3006 2619 2597 2516
z
" transform="scale(0.015625)"/>
      <path id="DejaVuSans-25" d="M 4653 2053
Q 4381 2053 4226 1822
Q 4072 1591 4072 1178
Q 4072 772 4226 539
Q 4381 306 4653 306
Q 4919 306 5073 539
Q 5228 772 5228 1178
Q 5228 1588 5073 1820
Q 4919 2053 4653 2053
z
M 4653 2450
Q 5147 2450 5437 2106
Q 5728 1763 5728 1178
Q 5728 594 5436 251
Q 5144 -91 4653 -91
Q 4153 -91 3862 251
Q 3572 594 3572 1178
Q 3572 1766 3864 2108
Q 4156 2450 4653 2450
z
M 1428 4353
Q 1159 4353 1004 4120
Q 850 3888 850 3481
Q 850 3069 1003 2837
Q 1156 2606 1428 2606
Q 1700 2606 1854 2837
Q 2009 3069 2009 3481
Q 2009 3884 1853 4118
Q 1697 4353 1428 4353
z
M 4250 4750
L 4750 4750
L 1831 -91
L 1331 -91
L 4250 4750
z
M 1428 4750
Q 1922 4750 2215 4408
Q 2509 4066 2509 3481
Q 2509 2891 2217 2550
Q 1925 2209 1428 2209
Q 931 2209 642 2551
Q 353 2894 353 3481
Q 353 4063 643 4406
Q 934 4750 1428 4750
z
" transform="scale(0.015625)"/>
     </defs>
     <use xlink:href="#DejaVuSans-37"/>
     <use xlink:href="#DejaVuSans-33" transform="translate(63.623047 0)"/>
     <use xlink:href="#DejaVuSans-25" transform="translate(127.246094 0)"/>
    </g>
    <!-- 1,776 at risk -->
    <g transform="translate(90.000076 77.302854) scale(0.09 -0.09)">
     <defs>
      <path id="DejaVuSans-2c" d="M 750 794
L 1409 794
L 1409 256
L 897 -744
L 494 -744
L 750 256
L 750 794
z
" transform="scale(0.015625)"/>
      <path id="DejaVuSans-6b" d="M 581 4863
L 1159 4863
L 1159 1991
L 2875 3500
L 3609 3500
L 1753 1863
L 3688 0
L 2938 0
L 1159 1709
L 1159 0
L 581 0
L 581 4863
z
" transform="scale(0.015625)"/>
     </defs>
     <use xlink:href="#DejaVuSans-31"/>
     <use xlink:href="#DejaVuSans-2c" transform="translate(63.623047 0)"/>
     <use xlink:href="#DejaVuSans-37" transform="translate(95.410156 0)"/>
     <use xlink:href="#DejaVuSans-37" transform="translate(159.033203 0)"/>
     <use xlink:href="#DejaVuSans-36" transform="translate(222.65625 0)"/>
     <use xlink:href="#DejaVuSans-20" transform="translate(286.279297 0)"/>
     <use xlink:href="#DejaVuSans-61" transform="translate(318.066406 0)"/>
     <use xlink:href="#DejaVuSans-74" transform="translate(379.345703 0)"/>
     <use xlink:href="#DejaVuSans-20" transform="translate(418.554688 0)"/>
     <use xlink:href="#DejaVuSans-72" transform="translate(450.341797 0)"/>
     <use xlink:href="#DejaVuSans-69" transform="translate(491.455078 0)"/>
     <use xlink:href="#DejaVuSans-73" transform="translate(519.238281 0)"/>
     <use xlink:href="#DejaVuSans-6b" transform="translate(571.337891 0)"/>
    </g>
   </g>
   <g id="patch_7">
    <path d="M 163.251792 125.119047
Q 161.958418 132.378634 160.665043 139.63822
" style="fill: none; stroke: #9a9a9a; stroke-width: 0.8; stroke-linecap: round"/>
   </g>
   <g id="text_18">
    <g id="patch_8">
     <path d="M 137.249445 123.153397
L 193.879132 123.153397
Q 195.499132 123.153397 195.499132 121.533397
L 195.499132 102.745053
Q 195.499132 101.125053 193.879132 101.125053
L 137.249445 101.125053
Q 135.629445 101.125053 135.629445 102.745053
L 135.629445 121.533397
Q 135.629445 123.153397 137.249445 123.153397
z
" style="fill: #ffffff; opacity: 0.92"/>
    </g>
    <!-- 61% -->
    <g transform="translate(155.562335 109.583647) scale(0.09 -0.09)">
     <use xlink:href="#DejaVuSans-36"/>
     <use xlink:href="#DejaVuSans-31" transform="translate(63.623047 0)"/>
     <use xlink:href="#DejaVuSans-25" transform="translate(127.246094 0)"/>
    </g>
    <!-- 1,128 at risk -->
    <g transform="translate(137.249445 119.661678) scale(0.09 -0.09)">
     <use xlink:href="#DejaVuSans-31"/>
     <use xlink:href="#DejaVuSans-2c" transform="translate(63.623047 0)"/>
     <use xlink:href="#DejaVuSans-31" transform="translate(95.410156 0)"/>
     <use xlink:href="#DejaVuSans-32" transform="translate(159.033203 0)"/>
     <use xlink:href="#DejaVuSans-38" transform="translate(222.65625 0)"/>
     <use xlink:href="#DejaVuSans-20" transform="translate(286.279297 0)"/>
     <use xlink:href="#DejaVuSans-61" transform="translate(318.066406 0)"/>
     <use xlink:href="#DejaVuSans-74" transform="translate(379.345703 0)"/>
     <use xlink:href="#DejaVuSans-20" transform="translate(418.554688 0)"/>
     <use xlink:href="#DejaVuSans-72" transform="translate(450.341797 0)"/>
     <use xlink:href="#DejaVuSans-69" transform="translate(491.455078 0)"/>
     <use xlink:href="#DejaVuSans-73" transform="translate(519.238281 0)"/>
     <use xlink:href="#DejaVuSans-6b" transform="translate(571.337891 0)"/>
    </g>
   </g>
   <g id="patch_9">
    <path d="M 195.734487 161.641257
Q 193.575989 165.837664 191.417491 170.034071
" style="fill: none; stroke: #9a9a9a; stroke-width: 0.8; stroke-linecap: round"/>
   </g>
   <g id="text_19">
    <g id="patch_10">
     <path d="M 178.292235 159.864377
L 226.33536 159.864377
Q 227.95536 159.864377 227.95536 158.244377
L 227.95536 139.456033
Q 227.95536 137.836033 226.33536 137.836033
L 178.292235 137.836033
Q 176.672235 137.836033 176.672235 139.456033
L 176.672235 158.244377
Q 176.672235 159.864377 178.292235 159.864377
z
" style="fill: #ffffff; opacity: 0.92"/>
    </g>
    <!-- 50% -->
    <g transform="translate(192.311844 146.294627) scale(0.09 -0.09)">
     <use xlink:href="#DejaVuSans-35"/>
     <use xlink:href="#DejaVuSans-30" transform="translate(63.623047 0)"/>
     <use xlink:href="#DejaVuSans-25" transform="translate(127.246094 0)"/>
    </g>
    <!-- 701 at risk -->
    <g transform="translate(178.292235 156.372658) scale(0.09 -0.09)">
     <use xlink:href="#DejaVuSans-37"/>
     <use xlink:href="#DejaVuSans-30" transform="translate(63.623047 0)"/>
     <use xlink:href="#DejaVuSans-31" transform="translate(127.246094 0)"/>
     <use xlink:href="#DejaVuSans-20" transform="translate(190.869141 0)"/>
     <use xlink:href="#DejaVuSans-61" transform="translate(222.65625 0)"/>
     <use xlink:href="#DejaVuSans-74" transform="translate(283.935547 0)"/>
     <use xlink:href="#DejaVuSans-20" transform="translate(323.144531 0)"/>
     <use xlink:href="#DejaVuSans-72" transform="translate(354.931641 0)"/>
     <use xlink:href="#DejaVuSans-69" transform="translate(396.044922 0)"/>
     <use xlink:href="#DejaVuSans-73" transform="translate(423.828125 0)"/>
     <use xlink:href="#DejaVuSans-6b" transform="translate(475.927734 0)"/>
    </g>
   </g>
   <g id="text_20">
    <!-- Persistence -->
    <g transform="translate(123.983802 18.597656) scale(0.15 -0.15)">
     <defs>
      <path id="DejaVuSans-50" d="M 1259 4147
L 1259 2394
L 2053 2394
Q 2494 2394 2734 2622
Q 2975 2850 2975 3272
Q 2975 3691 2734 3919
Q 2494 4147 2053 4147
L 1259 4147
z
M 628 4666
L 2053 4666
Q 2838 4666 3239 4311
Q 3641 3956 3641 3272
Q 3641 2581 3239 2228
Q 2838 1875 2053 1875
L 1259 1875
L 1259 0
L 628 0
L 628 4666
z
" transform="scale(0.015625)"/>
      <path id="DejaVuSans-63" d="M 3122 3366
L 3122 2828
Q 2878 2963 2633 3030
Q 2388 3097 2138 3097
Q 1578 3097 1268 2742
Q 959 2388 959 1747
Q 959 1106 1268 751
Q 1578 397 2138 397
Q 2388 397 2633 464
Q 2878 531 3122 666
L 3122 134
Q 2881 22 2623 -34
Q 2366 -91 2075 -91
Q 1284 -91 818 406
Q 353 903 353 1747
Q 353 2603 823 3093
Q 1294 3584 2113 3584
Q 2378 3584 2631 3529
Q 2884 3475 3122 3366
z
" transform="scale(0.015625)"/>
     </defs>
     <use xlink:href="#DejaVuSans-50"/>
     <use xlink:href="#DejaVuSans-65" transform="translate(56.677734 0)"/>
     <use xlink:href="#DejaVuSans-72" transform="translate(118.201172 0)"/>
     <use xlink:href="#DejaVuSans-73" transform="translate(159.314453 0)"/>
     <use xlink:href="#DejaVuSans-69" transform="translate(211.414062 0)"/>
     <use xlink:href="#DejaVuSans-73" transform="translate(239.197266 0)"/>
     <use xlink:href="#DejaVuSans-74" transform="translate(291.296875 0)"/>
     <use xlink:href="#DejaVuSans-65" transform="translate(330.505859 0)"/>
     <use xlink:href="#DejaVuSans-6e" transform="translate(392.029297 0)"/>
     <use xlink:href="#DejaVuSans-63" transform="translate(455.408203 0)"/>
     <use xlink:href="#DejaVuSans-65" transform="translate(510.388672 0)"/>
    </g>
   </g>
  </g>
  <g id="axes_2">
   <g id="patch_11">
    <path d="M 350.747604 312.637656
L 600.119271 312.637656
L 600.119271 24.597656
L 350.747604 24.597656
z
" style="fill: #ffffff"/>
   </g>
   <g id="patch_12">
    <path d="M 350.747604 312.637656
L 375.684771 312.637656
L 375.684771 289.734926
L 350.747604 289.734926
z
" clip-path="url(#p8214af1751)" style="fill: #7ba6d0; stroke: #ffffff; stroke-linejoin: miter"/>
   </g>
   <g id="patch_13">
    <path d="M 375.684771 312.637656
L 400.621938 312.637656
L 400.621938 38.313847
L 375.684771 38.313847
z
" clip-path="url(#p8214af1751)" style="fill: #7ba6d0; stroke: #ffffff; stroke-linejoin: miter"/>
   </g>
   <g id="patch_14">
    <path d="M 400.621938 312.637656
L 425.559104 312.637656
L 425.559104 85.137206
L 400.621938 85.137206
z
" clip-path="url(#p8214af1751)" style="fill: #7ba6d0; stroke: #ffffff; stroke-linejoin: miter"/>
   </g>
   <g id="patch_15">
    <path d="M 425.559104 312.637656
L 450.496271 312.637656
L 450.496271 148.24695
L 425.559104 148.24695
z
" clip-path="url(#p8214af1751)" style="fill: #7ba6d0; stroke: #ffffff; stroke-linejoin: miter"/>
   </g>
   <g id="patch_16">
    <path d="M 450.496271 312.637656
L 475.433438 312.637656
L 475.433438 146.211152
L 450.496271 146.211152
z
" clip-path="url(#p8214af1751)" style="fill: #7ba6d0; stroke: #ffffff; stroke-linejoin: miter"/>
   </g>
   <g id="patch_17">
    <path d="M 475.433437 312.637656
L 500.370604 312.637656
L 500.370604 177.766024
L 475.433437 177.766024
z
" clip-path="url(#p8214af1751)" style="fill: #7ba6d0; stroke: #ffffff; stroke-linejoin: miter"/>
   </g>
   <g id="patch_18">
    <path d="M 500.370604 312.637656
L 525.307771 312.637656
L 525.307771 228.15203
L 500.370604 228.15203
z
" clip-path="url(#p8214af1751)" style="fill: #7ba6d0; stroke: #ffffff; stroke-linejoin: miter"/>
   </g>
   <g id="patch_19">
    <path d="M 525.307771 312.637656
L 550.244937 312.637656
L 550.244937 236.295223
L 525.307771 236.295223
z
" clip-path="url(#p8214af1751)" style="fill: #7ba6d0; stroke: #ffffff; stroke-linejoin: miter"/>
   </g>
   <g id="patch_20">
    <path d="M 550.244937 312.637656
L 575.182104 312.637656
L 575.182104 217.46409
L 550.244937 217.46409
z
" clip-path="url(#p8214af1751)" style="fill: #7ba6d0; stroke: #ffffff; stroke-linejoin: miter"/>
   </g>
   <g id="patch_21">
    <path d="M 575.182104 312.637656
L 600.119271 312.637656
L 600.119271 195.070309
L 575.182104 195.070309
z
" clip-path="url(#p8214af1751)" style="fill: #7ba6d0; stroke: #ffffff; stroke-linejoin: miter"/>
   </g>
   <g id="matplotlib.axis_3">
    <g id="xtick_9">
     <g id="line2d_19">
      <g>
       <use xlink:href="#m97589b7654" x="350.747604" y="312.637656" style="stroke: #000000; stroke-width: 0.8"/>
      </g>
     </g>
     <g id="text_21">
      <!-- 0.0 -->
      <g transform="translate(343.591198 326.47625) scale(0.09 -0.09)">
       <use xlink:href="#DejaVuSans-30"/>
       <use xlink:href="#DejaVuSans-2e" transform="translate(63.623047 0)"/>
       <use xlink:href="#DejaVuSans-30" transform="translate(95.410156 0)"/>
      </g>
     </g>
    </g>
    <g id="xtick_10">
     <g id="line2d_20">
      <g>
       <use xlink:href="#m97589b7654" x="400.621938" y="312.637656" style="stroke: #000000; stroke-width: 0.8"/>
      </g>
     </g>
     <g id="text_22">
      <!-- 0.2 -->
      <g transform="translate(393.465531 326.47625) scale(0.09 -0.09)">
       <use xlink:href="#DejaVuSans-30"/>
       <use xlink:href="#DejaVuSans-2e" transform="translate(63.623047 0)"/>
       <use xlink:href="#DejaVuSans-32" transform="translate(95.410156 0)"/>
      </g>
     </g>
    </g>
    <g id="xtick_11">
     <g id="line2d_21">
      <g>
       <use xlink:href="#m97589b7654" x="450.496271" y="312.637656" style="stroke: #000000; stroke-width: 0.8"/>
      </g>
     </g>
     <g id="text_23">
      <!-- 0.4 -->
      <g transform="translate(443.339865 326.47625) scale(0.09 -0.09)">
       <use xlink:href="#DejaVuSans-30"/>
       <use xlink:href="#DejaVuSans-2e" transform="translate(63.623047 0)"/>
       <use xlink:href="#DejaVuSans-34" transform="translate(95.410156 0)"/>
      </g>
     </g>
    </g>
    <g id="xtick_12">
     <g id="line2d_22">
      <g>
       <use xlink:href="#m97589b7654" x="500.370604" y="312.637656" style="stroke: #000000; stroke-width: 0.8"/>
      </g>
     </g>
     <g id="text_24">
      <!-- 0.6 -->
      <g transform="translate(493.214198 326.47625) scale(0.09 -0.09)">
       <use xlink:href="#DejaVuSans-30"/>
       <use xlink:href="#DejaVuSans-2e" transform="translate(63.623047 0)"/>
       <use xlink:href="#DejaVuSans-36" transform="translate(95.410156 0)"/>
      </g>
     </g>
    </g>
    <g id="xtick_13">
     <g id="line2d_23">
      <g>
       <use xlink:href="#m97589b7654" x="550.244937" y="312.637656" style="stroke: #000000; stroke-width: 0.8"/>
      </g>
     </g>
     <g id="text_25">
      <!-- 0.8 -->
      <g transform="translate(543.088531 326.47625) scale(0.09 -0.09)">
       <use xlink:href="#DejaVuSans-30"/>
       <use xlink:href="#DejaVuSans-2e" transform="translate(63.623047 0)"/>
       <use xlink:href="#DejaVuSans-38" transform="translate(95.410156 0)"/>
      </g>
     </g>
    </g>
    <g id="xtick_14">
     <g id="line2d_24">
      <g>
       <use xlink:href="#m97589b7654" x="600.119271" y="312.637656" style="stroke: #000000; stroke-width: 0.8"/>
      </g>
     </g>
     <g id="text_26">
      <!-- 1.0 -->
      <g transform="translate(592.962865 326.47625) scale(0.09 -0.09)">
       <use xlink:href="#DejaVuSans-31"/>
       <use xlink:href="#DejaVuSans-2e" transform="translate(63.623047 0)"/>
       <use xlink:href="#DejaVuSans-30" transform="translate(95.410156 0)"/>
      </g>
     </g>
    </g>
    <g id="text_27">
     <!-- Index-product PDC -->
     <g transform="translate(428.688906 339.946406) scale(0.1 -0.1)">
      <defs>
       <path id="DejaVuSans-49" d="M 628 4666
L 1259 4666
L 1259 0
L 628 0
L 628 4666
z
" transform="scale(0.015625)"/>
       <path id="DejaVuSans-64" d="M 2906 2969
L 2906 4863
L 3481 4863
L 3481 0
L 2906 0
L 2906 525
Q 2725 213 2448 61
Q 2172 -91 1784 -91
Q 1150 -91 751 415
Q 353 922 353 1747
Q 353 2572 751 3078
Q 1150 3584 1784 3584
Q 2172 3584 2448 3432
Q 2725 3281 2906 2969
z
M 947 1747
Q 947 1113 1208 752
Q 1469 391 1925 391
Q 2381 391 2643 752
Q 2906 1113 2906 1747
Q 2906 2381 2643 2742
Q 2381 3103 1925 3103
Q 1469 3103 1208 2742
Q 947 2381 947 1747
z
" transform="scale(0.015625)"/>
       <path id="DejaVuSans-78" d="M 3513 3500
L 2247 1797
L 3578 0
L 2900 0
L 1881 1375
L 863 0
L 184 0
L 1544 1831
L 300 3500
L 978 3500
L 1906 2253
L 2834 3500
L 3513 3500
z
" transform="scale(0.015625)"/>
       <path id="DejaVuSans-2d" d="M 313 2009
L 1997 2009
L 1997 1497
L 313 1497
L 313 2009
z
" transform="scale(0.015625)"/>
       <path id="DejaVuSans-70" d="M 1159 525
L 1159 -1331
L 581 -1331
L 581 3500
L 1159 3500
L 1159 2969
Q 1341 3281 1617 3432
Q 1894 3584 2278 3584
Q 2916 3584 3314 3078
Q 3713 2572 3713 1747
Q 3713 922 3314 415
Q 2916 -91 2278 -91
Q 1894 -91 1617 61
Q 1341 213 1159 525
z
M 3116 1747
Q 3116 2381 2855 2742
Q 2594 3103 2138 3103
Q 1681 3103 1420 2742
Q 1159 2381 1159 1747
Q 1159 1113 1420 752
Q 1681 391 2138 391
Q 2594 391 2855 752
Q 3116 1113 3116 1747
z
" transform="scale(0.015625)"/>
       <path id="DejaVuSans-75" d="M 544 1381
L 544 3500
L 1119 3500
L 1119 1403
Q 1119 906 1312 657
Q 1506 409 1894 409
Q 2359 409 2629 706
Q 2900 1003 2900 1516
L 2900 3500
L 3475 3500
L 3475 0
L 2900 0
L 2900 538
Q 2691 219 2414 64
Q 2138 -91 1772 -91
Q 1169 -91 856 284
Q 544 659 544 1381
z
M 1991 3584
L 1991 3584
z
" transform="scale(0.015625)"/>
       <path id="DejaVuSans-43" d="M 4122 4306
L 4122 3641
Q 3803 3938 3442 4084
Q 3081 4231 2675 4231
Q 1875 4231 1450 3742
Q 1025 3253 1025 2328
Q 1025 1406 1450 917
Q 1875 428 2675 428
Q 3081 428 3442 575
Q 3803 722 4122 1019
L 4122 359
Q 3791 134 3420 21
Q 3050 -91 2638 -91
Q 1578 -91 968 557
Q 359 1206 359 2328
Q 359 3453 968 4101
Q 1578 4750 2638 4750
Q 3056 4750 3426 4639
Q 3797 4528 4122 4306
z
" transform="scale(0.015625)"/>
      </defs>
      <use xlink:href="#DejaVuSans-49"/>
      <use xlink:href="#DejaVuSans-6e" transform="translate(29.492188 0)"/>
      <use xlink:href="#DejaVuSans-64" transform="translate(92.871094 0)"/>
      <use xlink:href="#DejaVuSans-65" transform="translate(156.347656 0)"/>
      <use xlink:href="#DejaVuSans-78" transform="translate(216.121094 0)"/>
      <use xlink:href="#DejaVuSans-2d" transform="translate(275.300781 0)"/>
      <use xlink:href="#DejaVuSans-70" transform="translate(311.384766 0)"/>
      <use xlink:href="#DejaVuSans-72" transform="translate(374.861328 0)"/>
      <use xlink:href="#DejaVuSans-6f" transform="translate(413.724609 0)"/>
      <use xlink:href="#DejaVuSans-64" transform="translate(474.90625 0)"/>
      <use xlink:href="#DejaVuSans-75" transform="translate(538.382812 0)"/>
      <use xlink:href="#DejaVuSans-63" transform="translate(601.761719 0)"/>
      <use xlink:href="#DejaVuSans-74" transform="translate(656.742188 0)"/>
      <use xlink:href="#DejaVuSans-20" transform="translate(695.951172 0)"/>
      <use xlink:href="#DejaVuSans-50" transform="translate(727.738281 0)"/>
      <use xlink:href="#DejaVuSans-44" transform="translate(788.041016 0)"/>
      <use xlink:href="#DejaVuSans-43" transform="translate(865.042969 0)"/>
     </g>
    </g>
   </g>
   <g id="matplotlib.axis_4">
    <g id="ytick_7">
     <g id="line2d_25">
      <g>
       <use xlink:href="#m6758934fcf" x="350.747604" y="312.637656" style="stroke: #000000; stroke-width: 0.8"/>
      </g>
     </g>
     <g id="text_28">
      <!-- 0 -->
      <g transform="translate(338.021354 316.056953) scale(0.09 -0.09)">
       <use xlink:href="#DejaVuSans-30"/>
      </g>
     </g>
    </g>
    <g id="ytick_8">
     <g id="line2d_26">
      <g>
       <use xlink:href="#m6758934fcf" x="350.747604" y="261.742701" style="stroke: #000000; stroke-width: 0.8"/>
      </g>
     </g>
     <g id="text_29">
      <!-- 100 -->
      <g transform="translate(326.568854 265.161998) scale(0.09 -0.09)">
       <use xlink:href="#DejaVuSans-31"/>
       <use xlink:href="#DejaVuSans-30" transform="translate(63.623047 0)"/>
       <use xlink:href="#DejaVuSans-30" transform="translate(127.246094 0)"/>
      </g>
     </g>
    </g>
    <g id="ytick_9">
     <g id="line2d_27">
      <g>
       <use xlink:href="#m6758934fcf" x="350.747604" y="210.847745" style="stroke: #000000; stroke-width: 0.8"/>
      </g>
     </g>
     <g id="text_30">
      <!-- 200 -->
      <g transform="translate(326.568854 214.267042) scale(0.09 -0.09)">
       <use xlink:href="#DejaVuSans-32"/>
       <use xlink:href="#DejaVuSans-30" transform="translate(63.623047 0)"/>
       <use xlink:href="#DejaVuSans-30" transform="translate(127.246094 0)"/>
      </g>
     </g>
    </g>
    <g id="ytick_10">
     <g id="line2d_28">
      <g>
       <use xlink:href="#m6758934fcf" x="350.747604" y="159.95279" style="stroke: #000000; stroke-width: 0.8"/>
      </g>
     </g>
     <g id="text_31">
      <!-- 300 -->
      <g transform="translate(326.568854 163.372087) scale(0.09 -0.09)">
       <use xlink:href="#DejaVuSans-33"/>
       <use xlink:href="#DejaVuSans-30" transform="translate(63.623047 0)"/>
       <use xlink:href="#DejaVuSans-30" transform="translate(127.246094 0)"/>
      </g>
     </g>
    </g>
    <g id="ytick_11">
     <g id="line2d_29">
      <g>
       <use xlink:href="#m6758934fcf" x="350.747604" y="109.057835" style="stroke: #000000; stroke-width: 0.8"/>
      </g>
     </g>
     <g id="text_32">
      <!-- 400 -->
      <g transform="translate(326.568854 112.477132) scale(0.09 -0.09)">
       <use xlink:href="#DejaVuSans-34"/>
       <use xlink:href="#DejaVuSans-30" transform="translate(63.623047 0)"/>
       <use xlink:href="#DejaVuSans-30" transform="translate(127.246094 0)"/>
      </g>
     </g>
    </g>
    <g id="ytick_12">
     <g id="line2d_30">
      <g>
       <use xlink:href="#m6758934fcf" x="350.747604" y="58.162879" style="stroke: #000000; stroke-width: 0.8"/>
      </g>
     </g>
     <g id="text_33">
      <!-- 500 -->
      <g transform="translate(326.568854 61.582176) scale(0.09 -0.09)">
       <use xlink:href="#DejaVuSans-35"/>
       <use xlink:href="#DejaVuSans-30" transform="translate(63.623047 0)"/>
       <use xlink:href="#DejaVuSans-30" transform="translate(127.246094 0)"/>
      </g>
     </g>
    </g>
    <g id="text_34">
     <!-- Patients -->
     <g transform="translate(320.489167 188.630938) rotate(-90) scale(0.1 -0.1)">
      <use xlink:href="#DejaVuSans-50"/>
      <use xlink:href="#DejaVuSans-61" transform="translate(55.802734 0)"/>
      <use xlink:href="#DejaVuSans-74" transform="translate(117.082031 0)"/>
      <use xlink:href="#DejaVuSans-69" transform="translate(156.291016 0)"/>
      <use xlink:href="#DejaVuSans-65" transform="translate(184.074219 0)"/>
      <use xlink:href="#DejaVuSans-6e" transform="translate(245.597656 0)"/>
      <use xlink:href="#DejaVuSans-74" transform="translate(308.976562 0)"/>
      <use xlink:href="#DejaVuSans-73" transform="translate(348.185547 0)"/>
     </g>
    </g>
   </g>
   <g id="line2d_31">
    <path d="M 550.244937 312.637656
L 550.244937 24.597656
" clip-path="url(#p8214af1751)" style="fill: none; stroke-dasharray: 7.4,3.2; stroke-dashoffset: 0; stroke: #e0b663; stroke-width: 2"/>
   </g>
   <g id="patch_22">
    <path d="M 350.747604 312.637656
L 350.747604 24.597656
" style="fill: none; stroke: #000000; stroke-width: 0.8; stroke-linejoin: miter; stroke-linecap: square"/>
   </g>
   <g id="patch_23">
    <path d="M 350.747604 312.637656
L 600.119271 312.637656
" style="fill: none; stroke: #000000; stroke-width: 0.8; stroke-linejoin: miter; stroke-linecap: square"/>
   </g>
   <g id="text_35">
    <!-- 0.80 threshold -->
    <g style="fill: #7a5a16" transform="translate(479.977973 48.71865) scale(0.09 -0.09)">
     <defs>
      <path id="DejaVuSans-68" d="M 3513 2113
L 3513 0
L 2938 0
L 2938 2094
Q 2938 2591 2744 2837
Q 2550 3084 2163 3084
Q 1697 3084 1428 2787
Q 1159 2491 1159 1978
L 1159 0
L 581 0
L 581 4863
L 1159 4863
L 1159 2956
Q 1366 3272 1645 3428
Q 1925 3584 2291 3584
Q 2894 3584 3203 3211
Q 3513 2838 3513 2113
z
" transform="scale(0.015625)"/>
     </defs>
     <use xlink:href="#DejaVuSans-30"/>
     <use xlink:href="#DejaVuSans-2e" transform="translate(63.623047 0)"/>
     <use xlink:href="#DejaVuSans-38" transform="translate(95.410156 0)"/>
     <use xlink:href="#DejaVuSans-30" transform="translate(159.033203 0)"/>
     <use xlink:href="#DejaVuSans-20" transform="translate(222.65625 0)"/>
     <use xlink:href="#DejaVuSans-74" transform="translate(254.443359 0)"/>
     <use xlink:href="#DejaVuSans-68" transform="translate(293.652344 0)"/>
     <use xlink:href="#DejaVuSans-72" transform="translate(357.03125 0)"/>
     <use xlink:href="#DejaVuSans-65" transform="translate(395.894531 0)"/>
     <use xlink:href="#DejaVuSans-73" transform="translate(457.417969 0)"/>
     <use xlink:href="#DejaVuSans-68" transform="translate(509.517578 0)"/>
     <use xlink:href="#DejaVuSans-6f" transform="translate(572.896484 0)"/>
     <use xlink:href="#DejaVuSans-6c" transform="translate(634.078125 0)"/>
     <use xlink:href="#DejaVuSans-64" transform="translate(661.861328 0)"/>
    </g>
   </g>
   <g id="text_36">
    <!-- PDC -->
    <g transform="translate(459.899062 18.597656) scale(0.15 -0.15)">
     <use xlink:href="#DejaVuSans-50"/>
     <use xlink:href="#DejaVuSans-44" transform="translate(60.302734 0)"/>
     <use xlink:href="#DejaVuSans-43" transform="translate(137.304688 0)"/>
    </g>
   </g>
  </g>
  <g id="axes_3">
   <g id="patch_24">
    <path d="M 659.304271 312.637656
L 908.675938 312.637656
L 908.675938 24.597656
L 659.304271 24.597656
z
" style="fill: #ffffff"/>
   </g>
   <g id="matplotlib.axis_5">
    <g id="xtick_15">
     <g id="line2d_32">
      <g>
       <use xlink:href="#m97589b7654" x="659.304271" y="312.637656" style="stroke: #000000; stroke-width: 0.8"/>
      </g>
     </g>
     <g id="text_37">
      <!-- 8% -->
      <g transform="translate(652.165443 326.47625) scale(0.09 -0.09)">
       <use xlink:href="#DejaVuSans-38"/>
       <use xlink:href="#DejaVuSans-25" transform="translate(63.623047 0)"/>
      </g>
     </g>
    </g>
    <g id="xtick_16">
     <g id="line2d_33">
      <g>
       <use xlink:href="#m97589b7654" x="688.642114" y="312.637656" style="stroke: #000000; stroke-width: 0.8"/>
      </g>
     </g>
     <g id="text_38">
      <!-- 10% -->
      <g transform="translate(678.640161 326.47625) scale(0.09 -0.09)">
       <use xlink:href="#DejaVuSans-31"/>
       <use xlink:href="#DejaVuSans-30" transform="translate(63.623047 0)"/>
       <use xlink:href="#DejaVuSans-25" transform="translate(127.246094 0)"/>
      </g>
     </g>
    </g>
    <g id="xtick_17">
     <g id="line2d_34">
      <g>
       <use xlink:href="#m97589b7654" x="717.979957" y="312.637656" style="stroke: #000000; stroke-width: 0.8"/>
      </g>
     </g>
     <g id="text_39">
      <!-- 12% -->
      <g transform="translate(707.978004 326.47625) scale(0.09 -0.09)">
       <use xlink:href="#DejaVuSans-31"/>
       <use xlink:href="#DejaVuSans-32" transform="translate(63.623047 0)"/>
       <use xlink:href="#DejaVuSans-25" transform="translate(127.246094 0)"/>
      </g>
     </g>
    </g>
    <g id="xtick_18">
     <g id="line2d_35">
      <g>
       <use xlink:href="#m97589b7654" x="747.3178" y="312.637656" style="stroke: #000000; stroke-width: 0.8"/>
      </g>
     </g>
     <g id="text_40">
      <!-- 14% -->
      <g transform="translate(737.315847 326.47625) scale(0.09 -0.09)">
       <use xlink:href="#DejaVuSans-31"/>
       <use xlink:href="#DejaVuSans-34" transform="translate(63.623047 0)"/>
       <use xlink:href="#DejaVuSans-25" transform="translate(127.246094 0)"/>
      </g>
     </g>
    </g>
    <g id="xtick_19">
     <g id="line2d_36">
      <g>
       <use xlink:href="#m97589b7654" x="776.655643" y="312.637656" style="stroke: #000000; stroke-width: 0.8"/>
      </g>
     </g>
     <g id="text_41">
      <!-- 16% -->
      <g transform="translate(766.65369 326.47625) scale(0.09 -0.09)">
       <use xlink:href="#DejaVuSans-31"/>
       <use xlink:href="#DejaVuSans-36" transform="translate(63.623047 0)"/>
       <use xlink:href="#DejaVuSans-25" transform="translate(127.246094 0)"/>
      </g>
     </g>
    </g>
    <g id="xtick_20">
     <g id="line2d_37">
      <g>
       <use xlink:href="#m97589b7654" x="805.993487" y="312.637656" style="stroke: #000000; stroke-width: 0.8"/>
      </g>
     </g>
     <g id="text_42">
      <!-- 18% -->
      <g transform="translate(795.991533 326.47625) scale(0.09 -0.09)">
       <use xlink:href="#DejaVuSans-31"/>
       <use xlink:href="#DejaVuSans-38" transform="translate(63.623047 0)"/>
       <use xlink:href="#DejaVuSans-25" transform="translate(127.246094 0)"/>
      </g>
     </g>
    </g>
    <g id="xtick_21">
     <g id="line2d_38">
      <g>
       <use xlink:href="#m97589b7654" x="835.33133" y="312.637656" style="stroke: #000000; stroke-width: 0.8"/>
      </g>
     </g>
     <g id="text_43">
      <!-- 20% -->
      <g transform="translate(825.329377 326.47625) scale(0.09 -0.09)">
       <use xlink:href="#DejaVuSans-32"/>
       <use xlink:href="#DejaVuSans-30" transform="translate(63.623047 0)"/>
       <use xlink:href="#DejaVuSans-25" transform="translate(127.246094 0)"/>
      </g>
     </g>
    </g>
    <g id="xtick_22">
     <g id="line2d_39">
      <g>
       <use xlink:href="#m97589b7654" x="864.669173" y="312.637656" style="stroke: #000000; stroke-width: 0.8"/>
      </g>
     </g>
     <g id="text_44">
      <!-- 22% -->
      <g transform="translate(854.66722 326.47625) scale(0.09 -0.09)">
       <use xlink:href="#DejaVuSans-32"/>
       <use xlink:href="#DejaVuSans-32" transform="translate(63.623047 0)"/>
       <use xlink:href="#DejaVuSans-25" transform="translate(127.246094 0)"/>
      </g>
     </g>
    </g>
    <g id="xtick_23">
     <g id="line2d_40">
      <g>
       <use xlink:href="#m97589b7654" x="894.007016" y="312.637656" style="stroke: #000000; stroke-width: 0.8"/>
      </g>
     </g>
     <g id="text_45">
      <!-- 24% -->
      <g transform="translate(884.005063 326.47625) scale(0.09 -0.09)">
       <use xlink:href="#DejaVuSans-32"/>
       <use xlink:href="#DejaVuSans-34" transform="translate(63.623047 0)"/>
       <use xlink:href="#DejaVuSans-25" transform="translate(127.246094 0)"/>
      </g>
     </g>
    </g>
    <g id="text_46">
     <!-- PDC at or above 0.80 -->
     <g transform="translate(730.672135 339.946406) scale(0.1 -0.1)">
      <defs>
       <path id="DejaVuSans-62" d="M 3116 1747
Q 3116 2381 2855 2742
Q 2594 3103 2138 3103
Q 1681 3103 1420 2742
Q 1159 2381 1159 1747
Q 1159 1113 1420 752
Q 1681 391 2138 391
Q 2594 391 2855 752
Q 3116 1113 3116 1747
z
M 1159 2969
Q 1341 3281 1617 3432
Q 1894 3584 2278 3584
Q 2916 3584 3314 3078
Q 3713 2572 3713 1747
Q 3713 922 3314 415
Q 2916 -91 2278 -91
Q 1894 -91 1617 61
Q 1341 213 1159 525
L 1159 0
L 581 0
L 581 4863
L 1159 4863
L 1159 2969
z
" transform="scale(0.015625)"/>
       <path id="DejaVuSans-76" d="M 191 3500
L 800 3500
L 1894 563
L 2988 3500
L 3597 3500
L 2284 0
L 1503 0
L 191 3500
z
" transform="scale(0.015625)"/>
      </defs>
      <use xlink:href="#DejaVuSans-50"/>
      <use xlink:href="#DejaVuSans-44" transform="translate(60.302734 0)"/>
      <use xlink:href="#DejaVuSans-43" transform="translate(137.304688 0)"/>
      <use xlink:href="#DejaVuSans-20" transform="translate(207.128906 0)"/>
      <use xlink:href="#DejaVuSans-61" transform="translate(238.916016 0)"/>
      <use xlink:href="#DejaVuSans-74" transform="translate(300.195312 0)"/>
      <use xlink:href="#DejaVuSans-20" transform="translate(339.404297 0)"/>
      <use xlink:href="#DejaVuSans-6f" transform="translate(371.191406 0)"/>
      <use xlink:href="#DejaVuSans-72" transform="translate(432.373047 0)"/>
      <use xlink:href="#DejaVuSans-20" transform="translate(473.486328 0)"/>
      <use xlink:href="#DejaVuSans-61" transform="translate(505.273438 0)"/>
      <use xlink:href="#DejaVuSans-62" transform="translate(566.552734 0)"/>
      <use xlink:href="#DejaVuSans-6f" transform="translate(630.029297 0)"/>
      <use xlink:href="#DejaVuSans-76" transform="translate(691.210938 0)"/>
      <use xlink:href="#DejaVuSans-65" transform="translate(750.390625 0)"/>
      <use xlink:href="#DejaVuSans-20" transform="translate(811.914062 0)"/>
      <use xlink:href="#DejaVuSans-30" transform="translate(843.701172 0)"/>
      <use xlink:href="#DejaVuSans-2e" transform="translate(907.324219 0)"/>
      <use xlink:href="#DejaVuSans-38" transform="translate(939.111328 0)"/>
      <use xlink:href="#DejaVuSans-30" transform="translate(1002.734375 0)"/>
     </g>
    </g>
   </g>
   <g id="matplotlib.axis_6">
    <g id="ytick_13">
     <g id="line2d_41">
      <g>
       <use xlink:href="#m6758934fcf" x="659.304271" y="37.690384" style="stroke: #000000; stroke-width: 0.8"/>
      </g>
     </g>
     <g id="text_47">
      <!-- PAY001 -->
      <g transform="translate(619.316458 41.10968) scale(0.09 -0.09)">
       <defs>
        <path id="DejaVuSans-41" d="M 2188 4044
L 1331 1722
L 3047 1722
L 2188 4044
z
M 1831 4666
L 2547 4666
L 4325 0
L 3669 0
L 3244 1197
L 1141 1197
L 716 0
L 50 0
L 1831 4666
z
" transform="scale(0.015625)"/>
        <path id="DejaVuSans-59" d="M -13 4666
L 666 4666
L 1959 2747
L 3244 4666
L 3922 4666
L 2272 2222
L 2272 0
L 1638 0
L 1638 2222
L -13 4666
z
" transform="scale(0.015625)"/>
       </defs>
       <use xlink:href="#DejaVuSans-50"/>
       <use xlink:href="#DejaVuSans-41" transform="translate(53.927734 0)"/>
       <use xlink:href="#DejaVuSans-59" transform="translate(114.585938 0)"/>
       <use xlink:href="#DejaVuSans-30" transform="translate(175.669922 0)"/>
       <use xlink:href="#DejaVuSans-30" transform="translate(239.292969 0)"/>
       <use xlink:href="#DejaVuSans-31" transform="translate(302.916016 0)"/>
      </g>
     </g>
    </g>
    <g id="ytick_14">
     <g id="line2d_42">
      <g>
       <use xlink:href="#m6758934fcf" x="659.304271" y="75.098176" style="stroke: #000000; stroke-width: 0.8"/>
      </g>
     </g>
     <g id="text_48">
      <!-- PAY002 -->
      <g transform="translate(619.316458 78.517473) scale(0.09 -0.09)">
       <use xlink:href="#DejaVuSans-50"/>
       <use xlink:href="#DejaVuSans-41" transform="translate(53.927734 0)"/>
       <use xlink:href="#DejaVuSans-59" transform="translate(114.585938 0)"/>
       <use xlink:href="#DejaVuSans-30" transform="translate(175.669922 0)"/>
       <use xlink:href="#DejaVuSans-30" transform="translate(239.292969 0)"/>
       <use xlink:href="#DejaVuSans-32" transform="translate(302.916016 0)"/>
      </g>
     </g>
    </g>
    <g id="ytick_15">
     <g id="line2d_43">
      <g>
       <use xlink:href="#m6758934fcf" x="659.304271" y="112.505968" style="stroke: #000000; stroke-width: 0.8"/>
      </g>
     </g>
     <g id="text_49">
      <!-- PAY003 -->
      <g transform="translate(619.316458 115.925265) scale(0.09 -0.09)">
       <use xlink:href="#DejaVuSans-50"/>
       <use xlink:href="#DejaVuSans-41" transform="translate(53.927734 0)"/>
       <use xlink:href="#DejaVuSans-59" transform="translate(114.585938 0)"/>
       <use xlink:href="#DejaVuSans-30" transform="translate(175.669922 0)"/>
       <use xlink:href="#DejaVuSans-30" transform="translate(239.292969 0)"/>
       <use xlink:href="#DejaVuSans-33" transform="translate(302.916016 0)"/>
      </g>
     </g>
    </g>
    <g id="ytick_16">
     <g id="line2d_44">
      <g>
       <use xlink:href="#m6758934fcf" x="659.304271" y="149.91376" style="stroke: #000000; stroke-width: 0.8"/>
      </g>
     </g>
     <g id="text_50">
      <!-- PAY004 -->
      <g transform="translate(619.316458 153.333057) scale(0.09 -0.09)">
       <use xlink:href="#DejaVuSans-50"/>
       <use xlink:href="#DejaVuSans-41" transform="translate(53.927734 0)"/>
       <use xlink:href="#DejaVuSans-59" transform="translate(114.585938 0)"/>
       <use xlink:href="#DejaVuSans-30" transform="translate(175.669922 0)"/>
       <use xlink:href="#DejaVuSans-30" transform="translate(239.292969 0)"/>
       <use xlink:href="#DejaVuSans-34" transform="translate(302.916016 0)"/>
      </g>
     </g>
    </g>
    <g id="ytick_17">
     <g id="line2d_45">
      <g>
       <use xlink:href="#m6758934fcf" x="659.304271" y="187.321552" style="stroke: #000000; stroke-width: 0.8"/>
      </g>
     </g>
     <g id="text_51">
      <!-- PAY005 -->
      <g transform="translate(619.316458 190.740849) scale(0.09 -0.09)">
       <use xlink:href="#DejaVuSans-50"/>
       <use xlink:href="#DejaVuSans-41" transform="translate(53.927734 0)"/>
       <use xlink:href="#DejaVuSans-59" transform="translate(114.585938 0)"/>
       <use xlink:href="#DejaVuSans-30" transform="translate(175.669922 0)"/>
       <use xlink:href="#DejaVuSans-30" transform="translate(239.292969 0)"/>
       <use xlink:href="#DejaVuSans-35" transform="translate(302.916016 0)"/>
      </g>
     </g>
    </g>
    <g id="ytick_18">
     <g id="line2d_46">
      <g>
       <use xlink:href="#m6758934fcf" x="659.304271" y="224.729345" style="stroke: #000000; stroke-width: 0.8"/>
      </g>
     </g>
     <g id="text_52">
      <!-- PAY006 -->
      <g transform="translate(619.316458 228.148641) scale(0.09 -0.09)">
       <use xlink:href="#DejaVuSans-50"/>
       <use xlink:href="#DejaVuSans-41" transform="translate(53.927734 0)"/>
       <use xlink:href="#DejaVuSans-59" transform="translate(114.585938 0)"/>
       <use xlink:href="#DejaVuSans-30" transform="translate(175.669922 0)"/>
       <use xlink:href="#DejaVuSans-30" transform="translate(239.292969 0)"/>
       <use xlink:href="#DejaVuSans-36" transform="translate(302.916016 0)"/>
      </g>
     </g>
    </g>
    <g id="ytick_19">
     <g id="line2d_47">
      <g>
       <use xlink:href="#m6758934fcf" x="659.304271" y="262.137137" style="stroke: #000000; stroke-width: 0.8"/>
      </g>
     </g>
     <g id="text_53">
      <!-- PAY007 -->
      <g transform="translate(619.316458 265.556434) scale(0.09 -0.09)">
       <use xlink:href="#DejaVuSans-50"/>
       <use xlink:href="#DejaVuSans-41" transform="translate(53.927734 0)"/>
       <use xlink:href="#DejaVuSans-59" transform="translate(114.585938 0)"/>
       <use xlink:href="#DejaVuSans-30" transform="translate(175.669922 0)"/>
       <use xlink:href="#DejaVuSans-30" transform="translate(239.292969 0)"/>
       <use xlink:href="#DejaVuSans-37" transform="translate(302.916016 0)"/>
      </g>
     </g>
    </g>
    <g id="ytick_20">
     <g id="line2d_48">
      <g>
       <use xlink:href="#m6758934fcf" x="659.304271" y="299.544929" style="stroke: #000000; stroke-width: 0.8"/>
      </g>
     </g>
     <g id="text_54">
      <!-- PAY008 -->
      <g transform="translate(619.316458 302.964226) scale(0.09 -0.09)">
       <use xlink:href="#DejaVuSans-50"/>
       <use xlink:href="#DejaVuSans-41" transform="translate(53.927734 0)"/>
       <use xlink:href="#DejaVuSans-59" transform="translate(114.585938 0)"/>
       <use xlink:href="#DejaVuSans-30" transform="translate(175.669922 0)"/>
       <use xlink:href="#DejaVuSans-30" transform="translate(239.292969 0)"/>
       <use xlink:href="#DejaVuSans-38" transform="translate(302.916016 0)"/>
      </g>
     </g>
    </g>
   </g>
   <g id="LineCollection_1">
    <path d="M 731.136653 37.690384
L 851.9475 37.690384
" clip-path="url(#p5c627a1a98)" style="fill: none; stroke: #9a9a9a; stroke-width: 1.5"/>
    <path d="M 755.74502 75.098176
L 877.711203 75.098176
" clip-path="url(#p5c627a1a98)" style="fill: none; stroke: #9a9a9a; stroke-width: 1.5"/>
    <path d="M 734.792909 112.505968
L 852.193672 112.505968
" clip-path="url(#p5c627a1a98)" style="fill: none; stroke: #9a9a9a; stroke-width: 1.5"/>
    <path d="M 689.061249 149.91376
L 793.277895 149.91376
" clip-path="url(#p5c627a1a98)" style="fill: none; stroke: #9a9a9a; stroke-width: 1.5"/>
    <path d="M 699.707809 187.321552
L 806.393955 187.321552
" clip-path="url(#p5c627a1a98)" style="fill: none; stroke: #9a9a9a; stroke-width: 1.5"/>
    <path d="M 729.685619 224.729345
L 845.633238 224.729345
" clip-path="url(#p5c627a1a98)" style="fill: none; stroke: #9a9a9a; stroke-width: 1.5"/>
    <path d="M 704.983392 262.137137
L 816.269633 262.137137
" clip-path="url(#p5c627a1a98)" style="fill: none; stroke: #9a9a9a; stroke-width: 1.5"/>
    <path d="M 714.595458 299.544929
L 827.400288 299.544929
" clip-path="url(#p5c627a1a98)" style="fill: none; stroke: #9a9a9a; stroke-width: 1.5"/>
   </g>
   <g id="line2d_49">
    <defs>
     <path id="m3058942371" d="M 0 3
L 0 -3
" style="stroke: #9a9a9a"/>
    </defs>
    <g clip-path="url(#p5c627a1a98)">
     <use xlink:href="#m3058942371" x="731.136653" y="37.690384" style="fill: #7ba6d0; stroke: #9a9a9a"/>
     <use xlink:href="#m3058942371" x="755.74502" y="75.098176" style="fill: #7ba6d0; stroke: #9a9a9a"/>
     <use xlink:href="#m3058942371" x="734.792909" y="112.505968" style="fill: #7ba6d0; stroke: #9a9a9a"/>
     <use xlink:href="#m3058942371" x="689.061249" y="149.91376" style="fill: #7ba6d0; stroke: #9a9a9a"/>
     <use xlink:href="#m3058942371" x="699.707809" y="187.321552" style="fill: #7ba6d0; stroke: #9a9a9a"/>
     <use xlink:href="#m3058942371" x="729.685619" y="224.729345" style="fill: #7ba6d0; stroke: #9a9a9a"/>
     <use xlink:href="#m3058942371" x="704.983392" y="262.137137" style="fill: #7ba6d0; stroke: #9a9a9a"/>
     <use xlink:href="#m3058942371" x="714.595458" y="299.544929" style="fill: #7ba6d0; stroke: #9a9a9a"/>
    </g>
   </g>
   <g id="line2d_50">
    <g clip-path="url(#p5c627a1a98)">
     <use xlink:href="#m3058942371" x="851.9475" y="37.690384" style="fill: #7ba6d0; stroke: #9a9a9a"/>
     <use xlink:href="#m3058942371" x="877.711203" y="75.098176" style="fill: #7ba6d0; stroke: #9a9a9a"/>
     <use xlink:href="#m3058942371" x="852.193672" y="112.505968" style="fill: #7ba6d0; stroke: #9a9a9a"/>
     <use xlink:href="#m3058942371" x="793.277895" y="149.91376" style="fill: #7ba6d0; stroke: #9a9a9a"/>
     <use xlink:href="#m3058942371" x="806.393955" y="187.321552" style="fill: #7ba6d0; stroke: #9a9a9a"/>
     <use xlink:href="#m3058942371" x="845.633238" y="224.729345" style="fill: #7ba6d0; stroke: #9a9a9a"/>
     <use xlink:href="#m3058942371" x="816.269633" y="262.137137" style="fill: #7ba6d0; stroke: #9a9a9a"/>
     <use xlink:href="#m3058942371" x="827.400288" y="299.544929" style="fill: #7ba6d0; stroke: #9a9a9a"/>
    </g>
   </g>
   <g id="line2d_51">
    <path d="M 770.744287 312.637656
L 770.744287 24.597656
" clip-path="url(#p5c627a1a98)" style="fill: none; stroke-dasharray: 5.55,2.4; stroke-dashoffset: 0; stroke: #e0b663; stroke-width: 1.5"/>
   </g>
   <g id="line2d_52">
    <defs>
     <path id="m72e61e4799" d="M 0 3
C 0.795609 3 1.55874 2.683901 2.12132 2.12132
C 2.683901 1.55874 3 0.795609 3 0
C 3 -0.795609 2.683901 -1.55874 2.12132 -2.12132
C 1.55874 -2.683901 0.795609 -3 0 -3
C -0.795609 -3 -1.55874 -2.683901 -2.12132 -2.12132
C -2.683901 -1.55874 -3 -0.795609 -3 0
C -3 0.795609 -2.683901 1.55874 -2.12132 2.12132
C -1.55874 2.683901 -0.795609 3 0 3
z
" style="stroke: #7ba6d0"/>
    </defs>
    <g clip-path="url(#p5c627a1a98)">
     <use xlink:href="#m72e61e4799" x="785.603686" y="37.690384" style="fill: #7ba6d0; stroke: #7ba6d0"/>
     <use xlink:href="#m72e61e4799" x="811.420988" y="75.098176" style="fill: #7ba6d0; stroke: #7ba6d0"/>
     <use xlink:href="#m72e61e4799" x="787.950713" y="112.505968" style="fill: #7ba6d0; stroke: #7ba6d0"/>
     <use xlink:href="#m72e61e4799" x="735.289285" y="149.91376" style="fill: #7ba6d0; stroke: #7ba6d0"/>
     <use xlink:href="#m72e61e4799" x="747.3178" y="187.321552" style="fill: #7ba6d0; stroke: #7ba6d0"/>
     <use xlink:href="#m72e61e4799" x="782.083144" y="224.729345" style="fill: #7ba6d0; stroke: #7ba6d0"/>
     <use xlink:href="#m72e61e4799" x="754.652261" y="262.137137" style="fill: #7ba6d0; stroke: #7ba6d0"/>
     <use xlink:href="#m72e61e4799" x="765.213885" y="299.544929" style="fill: #7ba6d0; stroke: #7ba6d0"/>
    </g>
   </g>
   <g id="patch_25">
    <path d="M 659.304271 312.637656
L 659.304271 24.597656
" style="fill: none; stroke: #000000; stroke-width: 0.8; stroke-linejoin: miter; stroke-linecap: square"/>
   </g>
   <g id="patch_26">
    <path d="M 659.304271 312.637656
L 908.675938 312.637656
" style="fill: none; stroke: #000000; stroke-width: 0.8; stroke-linejoin: miter; stroke-linecap: square"/>
   </g>
   <g id="text_55">
    <!-- Payer -->
    <g transform="translate(763.072135 18.597656) scale(0.15 -0.15)">
     <use xlink:href="#DejaVuSans-50"/>
     <use xlink:href="#DejaVuSans-61" transform="translate(55.802734 0)"/>
     <use xlink:href="#DejaVuSans-79" transform="translate(117.082031 0)"/>
     <use xlink:href="#DejaVuSans-65" transform="translate(176.261719 0)"/>
     <use xlink:href="#DejaVuSans-72" transform="translate(237.785156 0)"/>
    </g>
   </g>
  </g>
 </g>
 <defs>
  <clipPath id="pdbcbb227c5">
   <rect x="42.190938" y="24.597656" width="249.371667" height="288.04"/>
  </clipPath>
  <clipPath id="p8214af1751">
   <rect x="350.747604" y="24.597656" width="249.371667" height="288.04"/>
  </clipPath>
  <clipPath id="p5c627a1a98">
   <rect x="659.304271" y="24.597656" width="249.371667" height="288.04"/>
  </clipPath>
 </defs>
</svg>
