<?xml version="1.0" encoding="utf-8" standalone="no"?>
<!DOCTYPE svg PUBLIC "-//W3C//DTD SVG 1.1//EN"
  "http://www.w3.org/Graphics/SVG/1.1/DTD/svg11.dtd">
<svg xmlns:xlink="http://www.w3.org/1999/xlink" width="748.040625pt" height="332.726444pt" viewBox="0 0 748.040625 332.726444" xmlns="http://www.w3.org/2000/svg" version="1.1">
 <metadata>
  <rdf:RDF xmlns:dc="http://purl.org/dc/elements/1.1/" xmlns:cc="http://creativecommons.org/ns#" xmlns:rdf="http://www.w3.org/1999/02/22-rdf-syntax-ns#">
   <cc:Work>
    <dc:type rdf:resource="http://purl.org/dc/dcmitype/StillImage"/>
    <dc:date>2026-06-19T21:30:15.803914</dc:date>
    <dc:format>image/svg+xml</dc:format>
    <dc:creator>
     <cc:Agent>
      <dc:title>Matplotlib v3.10.9, https://matplotlib.org/</dc:title>
     </cc:Agent>
    </dc:creator>
   </cc:Work>
  </rdf:RDF>
 </metadata>
 <defs>
  <style type="text/css">*{stroke-linejoin: round; stroke-linecap: butt}</style>
 </defs>
 <g id="figure_1">
  <g id="patch_1">
   <path d="M 0 332.726444
L 748.040625 332.726444
L 748.040625 0
L 0 0
z
" style="fill: #ffffff"/>
  </g>
  <g id="axes_1">
   <g id="patch_2">
    <path d="M 120.840625 129.068459
L 259.720625 129.068459
L 259.720625 110.793297
L 120.840625 110.793297
z
" clip-path="url(#pd14102a3c1)" style="fill: #7ba6d0; stroke: #ffffff; stroke-width: 0.8; stroke-linejoin: miter"/>
   </g>
   <g id="patch_3">
    <path d="M 259.720625 129.068459
L 398.600625 129.068459
L 398.600625 110.793297
L 259.720625 110.793297
z
" clip-path="url(#pd14102a3c1)" style="fill: #7ba6d0; stroke: #ffffff; stroke-width: 0.8; stroke-linejoin: miter"/>
   </g>
   <g id="patch_4">
    <path d="M 398.600625 129.068459
L 537.480625 129.068459
L 537.480625 110.793297
L 398.600625 110.793297
z
" clip-path="url(#pd14102a3c1)" style="fill: #7ba6d0; stroke: #ffffff; stroke-width: 0.8; stroke-linejoin: miter"/>
   </g>
   <g id="patch_5">
    <path d="M 572.200625 129.068459
L 592.040625 129.068459
L 592.040625 110.793297
L 572.200625 110.793297
z
" clip-path="url(#pd14102a3c1)" style="fill: #7ba6d0; stroke: #ffffff; stroke-width: 0.8; stroke-linejoin: miter"/>
   </g>
   <g id="patch_6">
    <path d="M 592.040625 129.068459
L 711.080625 129.068459
L 711.080625 110.793297
L 592.040625 110.793297
z
" clip-path="url(#pd14102a3c1)" style="fill: #e0b663; opacity: 0.55; stroke: #ffffff; stroke-width: 0.8; stroke-linejoin: miter"/>
   </g>
   <g id="patch_7">
    <path d="M 537.480625 129.068459
L 572.200625 129.068459
L 572.200625 110.793297
L 537.480625 110.793297
z
" clip-path="url(#pd14102a3c1)" style="fill: #d97b6c; stroke: #ffffff; stroke-width: 0.8; stroke-linejoin: miter"/>
   </g>
   <g id="patch_8">
    <path d="M 120.840625 203.692035
L 592.040625 203.692035
L 592.040625 188.462733
L 120.840625 188.462733
z
" clip-path="url(#pd14102a3c1)" style="fill: #7fb685; stroke: #ffffff; stroke-linejoin: miter"/>
   </g>
   <g id="LineCollection_1">
    <path d="M 120.840625 43.784372
L 592.040625 43.784372
" clip-path="url(#pd14102a3c1)" style="fill: none; stroke: #b8bcc6; stroke-width: 1.2"/>
   </g>
   <g id="LineCollection_2">
    <path d="M 120.840625 119.930878
L 592.040625 119.930878
" clip-path="url(#pd14102a3c1)" style="fill: none; stroke: #b8bcc6; stroke-width: 1.2"/>
   </g>
   <g id="LineCollection_3">
    <path d="M 120.840625 196.077384
L 592.040625 196.077384
" clip-path="url(#pd14102a3c1)" style="fill: none; stroke: #b8bcc6; stroke-width: 1.2"/>
   </g>
   <g id="line2d_1">
    <defs>
     <path id="ma8fbeb3735" d="M 0 4.5
C 1.193414 4.5 2.338109 4.025852 3.181981 3.181981
C 4.025852 2.338109 4.5 1.193414 4.5 0
C 4.5 -1.193414 4.025852 -2.338109 3.181981 -3.181981
C 2.338109 -4.025852 1.193414 -4.5 0 -4.5
C -1.193414 -4.5 -2.338109 -4.025852 -3.181981 -3.181981
C -4.025852 -2.338109 -4.5 -1.193414 -4.5 0
C -4.5 1.193414 -4.025852 2.338109 -3.181981 3.181981
C -2.338109 4.025852 -1.193414 4.5 0 4.5
z
" style="stroke: #7ba6d0"/>
    </defs>
    <g clip-path="url(#pd14102a3c1)">
     <use xlink:href="#ma8fbeb3735" x="120.840625" y="43.784372" style="fill: #7ba6d0; stroke: #7ba6d0"/>
    </g>
   </g>
   <g id="line2d_2">
    <g clip-path="url(#pd14102a3c1)">
     <use xlink:href="#ma8fbeb3735" x="249.800625" y="43.784372" style="fill: #7ba6d0; stroke: #7ba6d0"/>
    </g>
   </g>
   <g id="line2d_3">
    <g clip-path="url(#pd14102a3c1)">
     <use xlink:href="#ma8fbeb3735" x="398.600625" y="43.784372" style="fill: #7ba6d0; stroke: #7ba6d0"/>
    </g>
   </g>
   <g id="line2d_4">
    <g clip-path="url(#pd14102a3c1)">
     <use xlink:href="#ma8fbeb3735" x="572.200625" y="43.784372" style="fill: #7ba6d0; stroke: #7ba6d0"/>
    </g>
   </g>
   <g id="line2d_5">
    <path d="M 592.040625 196.077384
" clip-path="url(#pd14102a3c1)" style="fill: none; stroke: #333333; stroke-width: 1.5; stroke-linecap: square"/>
    <defs>
     <path id="m9b025760bb" d="M 0 8.5
L 0 -8.5
" style="stroke: #333333; stroke-width: 2"/>
    </defs>
    <g clip-path="url(#pd14102a3c1)">
     <use xlink:href="#m9b025760bb" x="592.040625" y="196.077384" style="fill: #333333; stroke: #333333; stroke-width: 2"/>
    </g>
   </g>
   <g id="LineCollection_4">
    <path d="M 120.840625 222.728661
L 120.840625 70.435649
" clip-path="url(#pd14102a3c1)" style="fill: none; stroke-dasharray: 3.33,1.44; stroke-dashoffset: 0; stroke: #9a9a9a; stroke-width: 0.9"/>
   </g>
   <g id="LineCollection_5">
    <path d="M 592.040625 222.728661
L 592.040625 70.435649
" clip-path="url(#pd14102a3c1)" style="fill: none; stroke-dasharray: 3.33,1.44; stroke-dashoffset: 0; stroke: #9a9a9a; stroke-width: 0.9"/>
   </g>
   <g id="text_1">
    <!-- Fills -->
    <g style="fill: #333333" transform="translate(58.44 47.095622) scale(0.12 -0.12)">
     <defs>
      <path id="DejaVuSans-Bold-46" d="M 588 4666
L 3834 4666
L 3834 3756
L 1791 3756
L 1791 2888
L 3713 2888
L 3713 1978
L 1791 1978
L 1791 0
L 588 0
L 588 4666
z
" transform="scale(0.015625)"/>
      <path id="DejaVuSans-Bold-69" d="M 538 3500
L 1656 3500
L 1656 0
L 538 0
L 538 3500
z
M 538 4863
L 1656 4863
L 1656 3950
L 538 3950
L 538 4863
z
" transform="scale(0.015625)"/>
      <path id="DejaVuSans-Bold-6c" d="M 538 4863
L 1656 4863
L 1656 0
L 538 0
L 538 4863
z
" transform="scale(0.015625)"/>
      <path id="DejaVuSans-Bold-73" d="M 3272 3391
L 3272 2541
Q 2913 2691 2578 2766
Q 2244 2841 1947 2841
Q 1628 2841 1473 2761
Q 1319 2681 1319 2516
Q 1319 2381 1436 2309
Q 1553 2238 1856 2203
L 2053 2175
Q 2913 2066 3209 1816
Q 3506 1566 3506 1031
Q 3506 472 3093 190
Q 2681 -91 1863 -91
Q 1516 -91 1145 -36
Q 775 19 384 128
L 384 978
Q 719 816 1070 734
Q 1422 653 1784 653
Q 2113 653 2278 743
Q 2444 834 2444 1013
Q 2444 1163 2330 1236
Q 2216 1309 1875 1350
L 1678 1375
Q 931 1469 631 1722
Q 331 1975 331 2491
Q 331 3047 712 3315
Q 1094 3584 1881 3584
Q 2191 3584 2531 3537
Q 2872 3491 3272 3391
z
" transform="scale(0.015625)"/>
     </defs>
     <use xlink:href="#DejaVuSans-Bold-46"/>
     <use xlink:href="#DejaVuSans-Bold-69" transform="translate(68.310547 0)"/>
     <use xlink:href="#DejaVuSans-Bold-6c" transform="translate(102.587891 0)"/>
     <use xlink:href="#DejaVuSans-Bold-6c" transform="translate(136.865234 0)"/>
     <use xlink:href="#DejaVuSans-Bold-73" transform="translate(171.142578 0)"/>
    </g>
   </g>
   <g id="text_2">
    <!-- Coverage -->
    <g style="fill: #333333" transform="translate(22.363125 123.148378) scale(0.12 -0.12)">
     <defs>
      <path id="DejaVuSans-Bold-43" d="M 4288 256
Q 3956 84 3597 -3
Q 3238 -91 2847 -91
Q 1681 -91 1000 561
Q 319 1213 319 2328
Q 319 3447 1000 4098
Q 1681 4750 2847 4750
Q 3238 4750 3597 4662
Q 3956 4575 4288 4403
L 4288 3438
Q 3953 3666 3628 3772
Q 3303 3878 2944 3878
Q 2300 3878 1931 3465
Q 1563 3053 1563 2328
Q 1563 1606 1931 1193
Q 2300 781 2944 781
Q 3303 781 3628 887
Q 3953 994 4288 1222
L 4288 256
z
" transform="scale(0.015625)"/>
      <path id="DejaVuSans-Bold-6f" d="M 2203 2784
Q 1831 2784 1636 2517
Q 1441 2250 1441 1747
Q 1441 1244 1636 976
Q 1831 709 2203 709
Q 2569 709 2762 976
Q 2956 1244 2956 1747
Q 2956 2250 2762 2517
Q 2569 2784 2203 2784
z
M 2203 3584
Q 3106 3584 3614 3096
Q 4122 2609 4122 1747
Q 4122 884 3614 396
Q 3106 -91 2203 -91
Q 1297 -91 786 396
Q 275 884 275 1747
Q 275 2609 786 3096
Q 1297 3584 2203 3584
z
" transform="scale(0.015625)"/>
      <path id="DejaVuSans-Bold-76" d="M 97 3500
L 1216 3500
L 2088 1081
L 2956 3500
L 4078 3500
L 2700 0
L 1472 0
L 97 3500
z
" transform="scale(0.015625)"/>
      <path id="DejaVuSans-Bold-65" d="M 4031 1759
L 4031 1441
L 1416 1441
Q 1456 1047 1700 850
Q 1944 653 2381 653
Q 2734 653 3104 758
Q 3475 863 3866 1075
L 3866 213
Q 3469 63 3072 -14
Q 2675 -91 2278 -91
Q 1328 -91 801 392
Q 275 875 275 1747
Q 275 2603 792 3093
Q 1309 3584 2216 3584
Q 3041 3584 3536 3087
Q 4031 2591 4031 1759
z
M 2881 2131
Q 2881 2450 2695 2645
Q 2509 2841 2209 2841
Q 1884 2841 1681 2658
Q 1478 2475 1428 2131
L 2881 2131
z
" transform="scale(0.015625)"/>
      <path id="DejaVuSans-Bold-72" d="M 3138 2547
Q 2991 2616 2845 2648
Q 2700 2681 2553 2681
Q 2122 2681 1889 2404
Q 1656 2128 1656 1613
L 1656 0
L 538 0
L 538 3500
L 1656 3500
L 1656 2925
Q 1872 3269 2151 3426
Q 2431 3584 2822 3584
Q 2878 3584 2943 3579
Q 3009 3575 3134 3559
L 3138 2547
z
" transform="scale(0.015625)"/>
      <path id="DejaVuSans-Bold-61" d="M 2106 1575
Q 1756 1575 1579 1456
Q 1403 1338 1403 1106
Q 1403 894 1545 773
Q 1688 653 1941 653
Q 2256 653 2472 879
Q 2688 1106 2688 1447
L 2688 1575
L 2106 1575
z
M 3816 1997
L 3816 0
L 2688 0
L 2688 519
Q 2463 200 2181 54
Q 1900 -91 1497 -91
Q 953 -91 614 226
Q 275 544 275 1050
Q 275 1666 698 1953
Q 1122 2241 2028 2241
L 2688 2241
L 2688 2328
Q 2688 2594 2478 2717
Q 2269 2841 1825 2841
Q 1466 2841 1156 2769
Q 847 2697 581 2553
L 581 3406
Q 941 3494 1303 3539
Q 1666 3584 2028 3584
Q 2975 3584 3395 3211
Q 3816 2838 3816 1997
z
" transform="scale(0.015625)"/>
      <path id="DejaVuSans-Bold-67" d="M 2919 594
Q 2688 288 2409 144
Q 2131 0 1766 0
Q 1125 0 706 504
Q 288 1009 288 1791
Q 288 2575 706 3076
Q 1125 3578 1766 3578
Q 2131 3578 2409 3434
Q 2688 3291 2919 2981
L 2919 3500
L 4044 3500
L 4044 353
Q 4044 -491 3511 -936
Q 2978 -1381 1966 -1381
Q 1638 -1381 1331 -1331
Q 1025 -1281 716 -1178
L 716 -306
Q 1009 -475 1290 -558
Q 1572 -641 1856 -641
Q 2406 -641 2662 -400
Q 2919 -159 2919 353
L 2919 594
z
M 2181 2772
Q 1834 2772 1640 2515
Q 1447 2259 1447 1791
Q 1447 1309 1634 1061
Q 1822 813 2181 813
Q 2531 813 2725 1069
Q 2919 1325 2919 1791
Q 2919 2259 2725 2515
Q 2531 2772 2181 2772
z
" transform="scale(0.015625)"/>
     </defs>
     <use xlink:href="#DejaVuSans-Bold-43"/>
     <use xlink:href="#DejaVuSans-Bold-6f" transform="translate(73.388672 0)"/>
     <use xlink:href="#DejaVuSans-Bold-76" transform="translate(142.089844 0)"/>
     <use xlink:href="#DejaVuSans-Bold-65" transform="translate(207.275391 0)"/>
     <use xlink:href="#DejaVuSans-Bold-72" transform="translate(275.097656 0)"/>
     <use xlink:href="#DejaVuSans-Bold-61" transform="translate(324.414062 0)"/>
     <use xlink:href="#DejaVuSans-Bold-67" transform="translate(391.894531 0)"/>
     <use xlink:href="#DejaVuSans-Bold-65" transform="translate(463.476562 0)"/>
    </g>
   </g>
   <g id="text_3">
    <!-- Persistence -->
    <g style="fill: #333333" transform="translate(7.2 199.388634) scale(0.12 -0.12)">
     <defs>
      <path id="DejaVuSans-Bold-50" d="M 588 4666
L 2584 4666
Q 3475 4666 3951 4270
Q 4428 3875 4428 3144
Q 4428 2409 3951 2014
Q 3475 1619 2584 1619
L 1791 1619
L 1791 0
L 588 0
L 588 4666
z
M 1791 3794
L 1791 2491
L 2456 2491
Q 2806 2491 2997 2661
Q 3188 2831 3188 3144
Q 3188 3456 2997 3625
Q 2806 3794 2456 3794
L 1791 3794
z
" transform="scale(0.015625)"/>
      <path id="DejaVuSans-Bold-74" d="M 1759 4494
L 1759 3500
L 2913 3500
L 2913 2700
L 1759 2700
L 1759 1216
Q 1759 972 1856 886
Q 1953 800 2241 800
L 2816 800
L 2816 0
L 1856 0
Q 1194 0 917 276
Q 641 553 641 1216
L 641 2700
L 84 2700
L 84 3500
L 641 3500
L 641 4494
L 1759 4494
z
" transform="scale(0.015625)"/>
      <path id="DejaVuSans-Bold-6e" d="M 4056 2131
L 4056 0
L 2931 0
L 2931 347
L 2931 1631
Q 2931 2084 2911 2256
Q 2891 2428 2841 2509
Q 2775 2619 2662 2680
Q 2550 2741 2406 2741
Q 2056 2741 1856 2470
Q 1656 2200 1656 1722
L 1656 0
L 538 0
L 538 3500
L 1656 3500
L 1656 2988
Q 1909 3294 2193 3439
Q 2478 3584 2822 3584
Q 3428 3584 3742 3212
Q 4056 2841 4056 2131
z
" transform="scale(0.015625)"/>
      <path id="DejaVuSans-Bold-63" d="M 3366 3391
L 3366 2478
Q 3138 2634 2908 2709
Q 2678 2784 2431 2784
Q 1963 2784 1702 2511
Q 1441 2238 1441 1747
Q 1441 1256 1702 982
Q 1963 709 2431 709
Q 2694 709 2930 787
Q 3166 866 3366 1019
L 3366 103
Q 3103 6 2833 -42
Q 2563 -91 2291 -91
Q 1344 -91 809 395
Q 275 881 275 1747
Q 275 2613 809 3098
Q 1344 3584 2291 3584
Q 2566 3584 2833 3536
Q 3100 3488 3366 3391
z
" transform="scale(0.015625)"/>
     </defs>
     <use xlink:href="#DejaVuSans-Bold-50"/>
     <use xlink:href="#DejaVuSans-Bold-65" transform="translate(73.291016 0)"/>
     <use xlink:href="#DejaVuSans-Bold-72" transform="translate(141.113281 0)"/>
     <use xlink:href="#DejaVuSans-Bold-73" transform="translate(190.429688 0)"/>
     <use xlink:href="#DejaVuSans-Bold-69" transform="translate(249.951172 0)"/>
     <use xlink:href="#DejaVuSans-Bold-73" transform="translate(284.228516 0)"/>
     <use xlink:href="#DejaVuSans-Bold-74" transform="translate(343.75 0)"/>
     <use xlink:href="#DejaVuSans-Bold-65" transform="translate(391.552734 0)"/>
     <use xlink:href="#DejaVuSans-Bold-6e" transform="translate(459.375 0)"/>
     <use xlink:href="#DejaVuSans-Bold-63" transform="translate(530.566406 0)"/>
     <use xlink:href="#DejaVuSans-Bold-65" transform="translate(589.84375 0)"/>
    </g>
   </g>
   <g id="text_4">
    <!-- Fill 1 -->
    <g style="fill: #345f87" transform="translate(109.962383 14.418516) scale(0.095 -0.095)">
     <defs>
      <path id="DejaVuSans-46" d="M 628 4666
L 3309 4666
L 3309 4134
L 1259 4134
L 1259 2759
L 3109 2759
L 3109 2228
L 1259 2228
L 1259 0
L 628 0
L 628 4666
z
" transform="scale(0.015625)"/>
      <path id="DejaVuSans-69" d="M 603 3500
L 1178 3500
L 1178 0
L 603 0
L 603 3500
z
M 603 4863
L 1178 4863
L 1178 4134
L 603 4134
L 603 4863
z
" transform="scale(0.015625)"/>
      <path id="DejaVuSans-6c" d="M 603 4863
L 1178 4863
L 1178 0
L 603 0
L 603 4863
z
" transform="scale(0.015625)"/>
      <path id="DejaVuSans-20" transform="scale(0.015625)"/>
      <path id="DejaVuSans-31" d="M 794 531
L 1825 531
L 1825 4091
L 703 3866
L 703 4441
L 1819 4666
L 2450 4666
L 2450 531
L 3481 531
L 3481 0
L 794 0
L 794 531
z
" transform="scale(0.015625)"/>
     </defs>
     <use xlink:href="#DejaVuSans-46"/>
     <use xlink:href="#DejaVuSans-69" transform="translate(50.269531 0)"/>
     <use xlink:href="#DejaVuSans-6c" transform="translate(78.052734 0)"/>
     <use xlink:href="#DejaVuSans-6c" transform="translate(105.835938 0)"/>
     <use xlink:href="#DejaVuSans-20" transform="translate(133.619141 0)"/>
     <use xlink:href="#DejaVuSans-31" transform="translate(165.40625 0)"/>
    </g>
    <!-- 28 days -->
    <g style="fill: #345f87" transform="translate(102.074414 25.056438) scale(0.095 -0.095)">
     <defs>
      <path id="DejaVuSans-32" d="M 1228 531
L 3431 531
L 3431 0
L 469 0
L 469 531
Q 828 903 1448 1529
Q 2069 2156 2228 2338
Q 2531 2678 2651 2914
Q 2772 3150 2772 3378
Q 2772 3750 2511 3984
Q 2250 4219 1831 4219
Q 1534 4219 1204 4116
Q 875 4013 500 3803
L 500 4441
Q 881 4594 1212 4672
Q 1544 4750 1819 4750
Q 2544 4750 2975 4387
Q 3406 4025 3406 3419
Q 3406 3131 3298 2873
Q 3191 2616 2906 2266
Q 2828 2175 2409 1742
Q 1991 1309 1228 531
z
" transform="scale(0.015625)"/>
      <path id="DejaVuSans-38" d="M 2034 2216
Q 1584 2216 1326 1975
Q 1069 1734 1069 1313
Q 1069 891 1326 650
Q 1584 409 2034 409
Q 2484 409 2743 651
Q 3003 894 3003 1313
Q 3003 1734 2745 1975
Q 2488 2216 2034 2216
z
M 1403 2484
Q 997 2584 770 2862
Q 544 3141 544 3541
Q 544 4100 942 4425
Q 1341 4750 2034 4750
Q 2731 4750 3128 4425
Q 3525 4100 3525 3541
Q 3525 3141 3298 2862
Q 3072 2584 2669 2484
Q 3125 2378 3379 2068
Q 3634 1759 3634 1313
Q 3634 634 3220 271
Q 2806 -91 2034 -91
Q 1263 -91 848 271
Q 434 634 434 1313
Q 434 1759 690 2068
Q 947 2378 1403 2484
z
M 1172 3481
Q 1172 3119 1398 2916
Q 1625 2713 2034 2713
Q 2441 2713 2670 2916
Q 2900 3119 2900 3481
Q 2900 3844 2670 4047
Q 2441 4250 2034 4250
Q 1625 4250 1398 4047
Q 1172 3844 1172 3481
z
" transform="scale(0.015625)"/>
      <path id="DejaVuSans-64" d="M 2906 2969
L 2906 4863
L 3481 4863
L 3481 0
L 2906 0
L 2906 525
Q 2725 213 2448 61
Q 2172 -91 1784 -91
Q 1150 -91 751 415
Q 353 922 353 1747
Q 353 2572 751 3078
Q 1150 3584 1784 3584
Q 2172 3584 2448 3432
Q 2725 3281 2906 2969
z
M 947 1747
Q 947 1113 1208 752
Q 1469 391 1925 391
Q 2381 391 2643 752
Q 2906 1113 2906 1747
Q 2906 2381 2643 2742
Q 2381 3103 1925 3103
Q 1469 3103 1208 2742
Q 947 2381 947 1747
z
" transform="scale(0.015625)"/>
      <path id="DejaVuSans-61" d="M 2194 1759
Q 1497 1759 1228 1600
Q 959 1441 959 1056
Q 959 750 1161 570
Q 1363 391 1709 391
Q 2188 391 2477 730
Q 2766 1069 2766 1631
L 2766 1759
L 2194 1759
z
M 3341 1997
L 3341 0
L 2766 0
L 2766 531
Q 2569 213 2275 61
Q 1981 -91 1556 -91
Q 1019 -91 701 211
Q 384 513 384 1019
Q 384 1609 779 1909
Q 1175 2209 1959 2209
L 2766 2209
L 2766 2266
Q 2766 2663 2505 2880
Q 2244 3097 1772 3097
Q 1472 3097 1187 3025
Q 903 2953 641 2809
L 641 3341
Q 956 3463 1253 3523
Q 1550 3584 1831 3584
Q 2591 3584 2966 3190
Q 3341 2797 3341 1997
z
" transform="scale(0.015625)"/>
      <path id="DejaVuSans-79" d="M 2059 -325
Q 1816 -950 1584 -1140
Q 1353 -1331 966 -1331
L 506 -1331
L 506 -850
L 844 -850
Q 1081 -850 1212 -737
Q 1344 -625 1503 -206
L 1606 56
L 191 3500
L 800 3500
L 1894 763
L 2988 3500
L 3597 3500
L 2059 -325
z
" transform="scale(0.015625)"/>
      <path id="DejaVuSans-73" d="M 2834 3397
L 2834 2853
Q 2591 2978 2328 3040
Q 2066 3103 1784 3103
Q 1356 3103 1142 2972
Q 928 2841 928 2578
Q 928 2378 1081 2264
Q 1234 2150 1697 2047
L 1894 2003
Q 2506 1872 2764 1633
Q 3022 1394 3022 966
Q 3022 478 2636 193
Q 2250 -91 1575 -91
Q 1294 -91 989 -36
Q 684 19 347 128
L 347 722
Q 666 556 975 473
Q 1284 391 1588 391
Q 1994 391 2212 530
Q 2431 669 2431 922
Q 2431 1156 2273 1281
Q 2116 1406 1581 1522
L 1381 1569
Q 847 1681 609 1914
Q 372 2147 372 2553
Q 372 3047 722 3315
Q 1072 3584 1716 3584
Q 2034 3584 2315 3537
Q 2597 3491 2834 3397
z
" transform="scale(0.015625)"/>
     </defs>
     <use xlink:href="#DejaVuSans-32"/>
     <use xlink:href="#DejaVuSans-38" transform="translate(63.623047 0)"/>
     <use xlink:href="#DejaVuSans-20" transform="translate(127.246094 0)"/>
     <use xlink:href="#DejaVuSans-64" transform="translate(159.033203 0)"/>
     <use xlink:href="#DejaVuSans-61" transform="translate(222.509766 0)"/>
     <use xlink:href="#DejaVuSans-79" transform="translate(283.789062 0)"/>
     <use xlink:href="#DejaVuSans-73" transform="translate(342.96875 0)"/>
    </g>
   </g>
   <g id="text_5">
    <!-- Fill 2 -->
    <g style="fill: #345f87" transform="translate(238.922383 14.418516) scale(0.095 -0.095)">
     <use xlink:href="#DejaVuSans-46"/>
     <use xlink:href="#DejaVuSans-69" transform="translate(50.269531 0)"/>
     <use xlink:href="#DejaVuSans-6c" transform="translate(78.052734 0)"/>
     <use xlink:href="#DejaVuSans-6c" transform="translate(105.835938 0)"/>
     <use xlink:href="#DejaVuSans-20" transform="translate(133.619141 0)"/>
     <use xlink:href="#DejaVuSans-32" transform="translate(165.40625 0)"/>
    </g>
    <!-- 28 days -->
    <g style="fill: #345f87" transform="translate(231.034414 25.056438) scale(0.095 -0.095)">
     <use xlink:href="#DejaVuSans-32"/>
     <use xlink:href="#DejaVuSans-38" transform="translate(63.623047 0)"/>
     <use xlink:href="#DejaVuSans-20" transform="translate(127.246094 0)"/>
     <use xlink:href="#DejaVuSans-64" transform="translate(159.033203 0)"/>
     <use xlink:href="#DejaVuSans-61" transform="translate(222.509766 0)"/>
     <use xlink:href="#DejaVuSans-79" transform="translate(283.789062 0)"/>
     <use xlink:href="#DejaVuSans-73" transform="translate(342.96875 0)"/>
    </g>
   </g>
   <g id="text_6">
    <!-- Fill 3 -->
    <g style="fill: #345f87" transform="translate(387.722383 14.418516) scale(0.095 -0.095)">
     <defs>
      <path id="DejaVuSans-33" d="M 2597 2516
Q 3050 2419 3304 2112
Q 3559 1806 3559 1356
Q 3559 666 3084 287
Q 2609 -91 1734 -91
Q 1441 -91 1130 -33
Q 819 25 488 141
L 488 750
Q 750 597 1062 519
Q 1375 441 1716 441
Q 2309 441 2620 675
Q 2931 909 2931 1356
Q 2931 1769 2642 2001
Q 2353 2234 1838 2234
L 1294 2234
L 1294 2753
L 1863 2753
Q 2328 2753 2575 2939
Q 2822 3125 2822 3475
Q 2822 3834 2567 4026
Q 2313 4219 1838 4219
Q 1578 4219 1281 4162
Q 984 4106 628 3988
L 628 4550
Q 988 4650 1302 4700
Q 1616 4750 1894 4750
Q 2613 4750 3031 4423
Q 3450 4097 3450 3541
Q 3450 3153 3228 2886
Q 3006 2619 2597 2516
z
" transform="scale(0.015625)"/>
     </defs>
     <use xlink:href="#DejaVuSans-46"/>
     <use xlink:href="#DejaVuSans-69" transform="translate(50.269531 0)"/>
     <use xlink:href="#DejaVuSans-6c" transform="translate(78.052734 0)"/>
     <use xlink:href="#DejaVuSans-6c" transform="translate(105.835938 0)"/>
     <use xlink:href="#DejaVuSans-20" transform="translate(133.619141 0)"/>
     <use xlink:href="#DejaVuSans-33" transform="translate(165.40625 0)"/>
    </g>
    <!-- 28 days -->
    <g style="fill: #345f87" transform="translate(379.834414 25.056438) scale(0.095 -0.095)">
     <use xlink:href="#DejaVuSans-32"/>
     <use xlink:href="#DejaVuSans-38" transform="translate(63.623047 0)"/>
     <use xlink:href="#DejaVuSans-20" transform="translate(127.246094 0)"/>
     <use xlink:href="#DejaVuSans-64" transform="translate(159.033203 0)"/>
     <use xlink:href="#DejaVuSans-61" transform="translate(222.509766 0)"/>
     <use xlink:href="#DejaVuSans-79" transform="translate(283.789062 0)"/>
     <use xlink:href="#DejaVuSans-73" transform="translate(342.96875 0)"/>
    </g>
   </g>
   <g id="text_7">
    <!-- Fill 4 -->
    <g style="fill: #345f87" transform="translate(561.322383 14.418516) scale(0.095 -0.095)">
     <defs>
      <path id="DejaVuSans-34" d="M 2419 4116
L 825 1625
L 2419 1625
L 2419 4116
z
M 2253 4666
L 3047 4666
L 3047 1625
L 3713 1625
L 3713 1100
L 3047 1100
L 3047 0
L 2419 0
L 2419 1100
L 313 1100
L 313 1709
L 2253 4666
z
" transform="scale(0.015625)"/>
     </defs>
     <use xlink:href="#DejaVuSans-46"/>
     <use xlink:href="#DejaVuSans-69" transform="translate(50.269531 0)"/>
     <use xlink:href="#DejaVuSans-6c" transform="translate(78.052734 0)"/>
     <use xlink:href="#DejaVuSans-6c" transform="translate(105.835938 0)"/>
     <use xlink:href="#DejaVuSans-20" transform="translate(133.619141 0)"/>
     <use xlink:href="#DejaVuSans-34" transform="translate(165.40625 0)"/>
    </g>
    <!-- 28 days -->
    <g style="fill: #345f87" transform="translate(553.434414 25.056438) scale(0.095 -0.095)">
     <use xlink:href="#DejaVuSans-32"/>
     <use xlink:href="#DejaVuSans-38" transform="translate(63.623047 0)"/>
     <use xlink:href="#DejaVuSans-20" transform="translate(127.246094 0)"/>
     <use xlink:href="#DejaVuSans-64" transform="translate(159.033203 0)"/>
     <use xlink:href="#DejaVuSans-61" transform="translate(222.509766 0)"/>
     <use xlink:href="#DejaVuSans-79" transform="translate(283.789062 0)"/>
     <use xlink:href="#DejaVuSans-73" transform="translate(342.96875 0)"/>
    </g>
   </g>
   <g id="text_8">
    <!-- 7 uncovered days -->
    <g style="fill: #9a473c" transform="translate(492.69 146.18602) scale(0.095 -0.095)">
     <defs>
      <path id="DejaVuSans-37" d="M 525 4666
L 3525 4666
L 3525 4397
L 1831 0
L 1172 0
L 2766 4134
L 525 4134
L 525 4666
z
" transform="scale(0.015625)"/>
      <path id="DejaVuSans-75" d="M 544 1381
L 544 3500
L 1119 3500
L 1119 1403
Q 1119 906 1312 657
Q 1506 409 1894 409
Q 2359 409 2629 706
Q 2900 1003 2900 1516
L 2900 3500
L 3475 3500
L 3475 0
L 2900 0
L 2900 538
Q 2691 219 2414 64
Q 2138 -91 1772 -91
Q 1169 -91 856 284
Q 544 659 544 1381
z
M 1991 3584
L 1991 3584
z
" transform="scale(0.015625)"/>
      <path id="DejaVuSans-6e" d="M 3513 2113
L 3513 0
L 2938 0
L 2938 2094
Q 2938 2591 2744 2837
Q 2550 3084 2163 3084
Q 1697 3084 1428 2787
Q 1159 2491 1159 1978
L 1159 0
L 581 0
L 581 3500
L 1159 3500
L 1159 2956
Q 1366 3272 1645 3428
Q 1925 3584 2291 3584
Q 2894 3584 3203 3211
Q 3513 2838 3513 2113
z
" transform="scale(0.015625)"/>
      <path id="DejaVuSans-63" d="M 3122 3366
L 3122 2828
Q 2878 2963 2633 3030
Q 2388 3097 2138 3097
Q 1578 3097 1268 2742
Q 959 2388 959 1747
Q 959 1106 1268 751
Q 1578 397 2138 397
Q 2388 397 2633 464
Q 2878 531 3122 666
L 3122 134
Q 2881 22 2623 -34
Q 2366 -91 2075 -91
Q 1284 -91 818 406
Q 353 903 353 1747
Q 353 2603 823 3093
Q 1294 3584 2113 3584
Q 2378 3584 2631 3529
Q 2884 3475 3122 3366
z
" transform="scale(0.015625)"/>
      <path id="DejaVuSans-6f" d="M 1959 3097
Q 1497 3097 1228 2736
Q 959 2375 959 1747
Q 959 1119 1226 758
Q 1494 397 1959 397
Q 2419 397 2687 759
Q 2956 1122 2956 1747
Q 2956 2369 2687 2733
Q 2419 3097 1959 3097
z
M 1959 3584
Q 2709 3584 3137 3096
Q 3566 2609 3566 1747
Q 3566 888 3137 398
Q 2709 -91 1959 -91
Q 1206 -91 779 398
Q 353 888 353 1747
Q 353 2609 779 3096
Q 1206 3584 1959 3584
z
" transform="scale(0.015625)"/>
      <path id="DejaVuSans-76" d="M 191 3500
L 800 3500
L 1894 563
L 2988 3500
L 3597 3500
L 2284 0
L 1503 0
L 191 3500
z
" transform="scale(0.015625)"/>
      <path id="DejaVuSans-65" d="M 3597 1894
L 3597 1613
L 953 1613
Q 991 1019 1311 708
Q 1631 397 2203 397
Q 2534 397 2845 478
Q 3156 559 3463 722
L 3463 178
Q 3153 47 2828 -22
Q 2503 -91 2169 -91
Q 1331 -91 842 396
Q 353 884 353 1716
Q 353 2575 817 3079
Q 1281 3584 2069 3584
Q 2775 3584 3186 3129
Q 3597 2675 3597 1894
z
M 3022 2063
Q 3016 2534 2758 2815
Q 2500 3097 2075 3097
Q 1594 3097 1305 2825
Q 1016 2553 972 2059
L 3022 2063
z
" transform="scale(0.015625)"/>
      <path id="DejaVuSans-72" d="M 2631 2963
Q 2534 3019 2420 3045
Q 2306 3072 2169 3072
Q 1681 3072 1420 2755
Q 1159 2438 1159 1844
L 1159 0
L 581 0
L 581 3500
L 1159 3500
L 1159 2956
Q 1341 3275 1631 3429
Q 1922 3584 2338 3584
Q 2397 3584 2469 3576
Q 2541 3569 2628 3553
L 2631 2963
z
" transform="scale(0.015625)"/>
     </defs>
     <use xlink:href="#DejaVuSans-37"/>
     <use xlink:href="#DejaVuSans-20" transform="translate(63.623047 0)"/>
     <use xlink:href="#DejaVuSans-75" transform="translate(95.410156 0)"/>
     <use xlink:href="#DejaVuSans-6e" transform="translate(158.789062 0)"/>
     <use xlink:href="#DejaVuSans-63" transform="translate(222.167969 0)"/>
     <use xlink:href="#DejaVuSans-6f" transform="translate(277.148438 0)"/>
     <use xlink:href="#DejaVuSans-76" transform="translate(338.330078 0)"/>
     <use xlink:href="#DejaVuSans-65" transform="translate(397.509766 0)"/>
     <use xlink:href="#DejaVuSans-72" transform="translate(459.033203 0)"/>
     <use xlink:href="#DejaVuSans-65" transform="translate(497.896484 0)"/>
     <use xlink:href="#DejaVuSans-64" transform="translate(559.419922 0)"/>
     <use xlink:href="#DejaVuSans-20" transform="translate(622.896484 0)"/>
     <use xlink:href="#DejaVuSans-64" transform="translate(654.683594 0)"/>
     <use xlink:href="#DejaVuSans-61" transform="translate(718.160156 0)"/>
     <use xlink:href="#DejaVuSans-79" transform="translate(779.439453 0)"/>
     <use xlink:href="#DejaVuSans-73" transform="translate(838.619141 0)"/>
    </g>
   </g>
   <g id="text_9">
    <!-- Supply after cutoff -->
    <g style="fill: #7a5a16" transform="translate(602.421172 146.18602) scale(0.095 -0.095)">
     <defs>
      <path id="DejaVuSans-53" d="M 3425 4513
L 3425 3897
Q 3066 4069 2747 4153
Q 2428 4238 2131 4238
Q 1616 4238 1336 4038
Q 1056 3838 1056 3469
Q 1056 3159 1242 3001
Q 1428 2844 1947 2747
L 2328 2669
Q 3034 2534 3370 2195
Q 3706 1856 3706 1288
Q 3706 609 3251 259
Q 2797 -91 1919 -91
Q 1588 -91 1214 -16
Q 841 59 441 206
L 441 856
Q 825 641 1194 531
Q 1563 422 1919 422
Q 2459 422 2753 634
Q 3047 847 3047 1241
Q 3047 1584 2836 1778
Q 2625 1972 2144 2069
L 1759 2144
Q 1053 2284 737 2584
Q 422 2884 422 3419
Q 422 4038 858 4394
Q 1294 4750 2059 4750
Q 2388 4750 2728 4690
Q 3069 4631 3425 4513
z
" transform="scale(0.015625)"/>
      <path id="DejaVuSans-70" d="M 1159 525
L 1159 -1331
L 581 -1331
L 581 3500
L 1159 3500
L 1159 2969
Q 1341 3281 1617 3432
Q 1894 3584 2278 3584
Q 2916 3584 3314 3078
Q 3713 2572 3713 1747
Q 3713 922 3314 415
Q 2916 -91 2278 -91
Q 1894 -91 1617 61
Q 1341 213 1159 525
z
M 3116 1747
Q 3116 2381 2855 2742
Q 2594 3103 2138 3103
Q 1681 3103 1420 2742
Q 1159 2381 1159 1747
Q 1159 1113 1420 752
Q 1681 391 2138 391
Q 2594 391 2855 752
Q 3116 1113 3116 1747
z
" transform="scale(0.015625)"/>
      <path id="DejaVuSans-66" d="M 2375 4863
L 2375 4384
L 1825 4384
Q 1516 4384 1395 4259
Q 1275 4134 1275 3809
L 1275 3500
L 2222 3500
L 2222 3053
L 1275 3053
L 1275 0
L 697 0
L 697 3053
L 147 3053
L 147 3500
L 697 3500
L 697 3744
Q 697 4328 969 4595
Q 1241 4863 1831 4863
L 2375 4863
z
" transform="scale(0.015625)"/>
      <path id="DejaVuSans-74" d="M 1172 4494
L 1172 3500
L 2356 3500
L 2356 3053
L 1172 3053
L 1172 1153
Q 1172 725 1289 603
Q 1406 481 1766 481
L 2356 481
L 2356 0
L 1766 0
Q 1100 0 847 248
Q 594 497 594 1153
L 594 3053
L 172 3053
L 172 3500
L 594 3500
L 594 4494
L 1172 4494
z
" transform="scale(0.015625)"/>
     </defs>
     <use xlink:href="#DejaVuSans-53"/>
     <use xlink:href="#DejaVuSans-75" transform="translate(63.476562 0)"/>
     <use xlink:href="#DejaVuSans-70" transform="translate(126.855469 0)"/>
     <use xlink:href="#DejaVuSans-70" transform="translate(190.332031 0)"/>
     <use xlink:href="#DejaVuSans-6c" transform="translate(253.808594 0)"/>
     <use xlink:href="#DejaVuSans-79" transform="translate(281.591797 0)"/>
     <use xlink:href="#DejaVuSans-20" transform="translate(340.771484 0)"/>
     <use xlink:href="#DejaVuSans-61" transform="translate(372.558594 0)"/>
     <use xlink:href="#DejaVuSans-66" transform="translate(433.837891 0)"/>
     <use xlink:href="#DejaVuSans-74" transform="translate(467.292969 0)"/>
     <use xlink:href="#DejaVuSans-65" transform="translate(506.501953 0)"/>
     <use xlink:href="#DejaVuSans-72" transform="translate(568.025391 0)"/>
     <use xlink:href="#DejaVuSans-20" transform="translate(609.138672 0)"/>
     <use xlink:href="#DejaVuSans-63" transform="translate(640.925781 0)"/>
     <use xlink:href="#DejaVuSans-75" transform="translate(695.90625 0)"/>
     <use xlink:href="#DejaVuSans-74" transform="translate(759.285156 0)"/>
     <use xlink:href="#DejaVuSans-6f" transform="translate(798.494141 0)"/>
     <use xlink:href="#DejaVuSans-66" transform="translate(859.675781 0)"/>
     <use xlink:href="#DejaVuSans-66" transform="translate(894.880859 0)"/>
    </g>
   </g>
   <g id="patch_9">
    <path d="M 518.614085 175.76587
Q 554.36157 185.654468 589.031489 195.244986
" style="fill: none; stroke: #3d6f45; stroke-linecap: round"/>
    <path d="M 585.875594 192.400636
L 589.031489 195.244986
L 584.862472 196.063092
" style="fill: none; stroke: #3d6f45; stroke-linecap: round"/>
   </g>
   <g id="text_10">
    <!-- Treatment continues through cutoff -->
    <g style="fill: #3d6f45" transform="translate(408.623867 171.257729) scale(0.095 -0.095)">
     <defs>
      <path id="DejaVuSans-54" d="M -19 4666
L 3928 4666
L 3928 4134
L 2272 4134
L 2272 0
L 1638 0
L 1638 4134
L -19 4134
L -19 4666
z
" transform="scale(0.015625)"/>
      <path id="DejaVuSans-6d" d="M 3328 2828
Q 3544 3216 3844 3400
Q 4144 3584 4550 3584
Q 5097 3584 5394 3201
Q 5691 2819 5691 2113
L 5691 0
L 5113 0
L 5113 2094
Q 5113 2597 4934 2840
Q 4756 3084 4391 3084
Q 3944 3084 3684 2787
Q 3425 2491 3425 1978
L 3425 0
L 2847 0
L 2847 2094
Q 2847 2600 2669 2842
Q 2491 3084 2119 3084
Q 1678 3084 1418 2786
Q 1159 2488 1159 1978
L 1159 0
L 581 0
L 581 3500
L 1159 3500
L 1159 2956
Q 1356 3278 1631 3431
Q 1906 3584 2284 3584
Q 2666 3584 2933 3390
Q 3200 3197 3328 2828
z
" transform="scale(0.015625)"/>
      <path id="DejaVuSans-68" d="M 3513 2113
L 3513 0
L 2938 0
L 2938 2094
Q 2938 2591 2744 2837
Q 2550 3084 2163 3084
Q 1697 3084 1428 2787
Q 1159 2491 1159 1978
L 1159 0
L 581 0
L 581 4863
L 1159 4863
L 1159 2956
Q 1366 3272 1645 3428
Q 1925 3584 2291 3584
Q 2894 3584 3203 3211
Q 3513 2838 3513 2113
z
" transform="scale(0.015625)"/>
      <path id="DejaVuSans-67" d="M 2906 1791
Q 2906 2416 2648 2759
Q 2391 3103 1925 3103
Q 1463 3103 1205 2759
Q 947 2416 947 1791
Q 947 1169 1205 825
Q 1463 481 1925 481
Q 2391 481 2648 825
Q 2906 1169 2906 1791
z
M 3481 434
Q 3481 -459 3084 -895
Q 2688 -1331 1869 -1331
Q 1566 -1331 1297 -1286
Q 1028 -1241 775 -1147
L 775 -588
Q 1028 -725 1275 -790
Q 1522 -856 1778 -856
Q 2344 -856 2625 -561
Q 2906 -266 2906 331
L 2906 616
Q 2728 306 2450 153
Q 2172 0 1784 0
Q 1141 0 747 490
Q 353 981 353 1791
Q 353 2603 747 3093
Q 1141 3584 1784 3584
Q 2172 3584 2450 3431
Q 2728 3278 2906 2969
L 2906 3500
L 3481 3500
L 3481 434
z
" transform="scale(0.015625)"/>
     </defs>
     <use xlink:href="#DejaVuSans-54"/>
     <use xlink:href="#DejaVuSans-72" transform="translate(46.333984 0)"/>
     <use xlink:href="#DejaVuSans-65" transform="translate(85.197266 0)"/>
     <use xlink:href="#DejaVuSans-61" transform="translate(146.720703 0)"/>
     <use xlink:href="#DejaVuSans-74" transform="translate(208 0)"/>
     <use xlink:href="#DejaVuSans-6d" transform="translate(247.208984 0)"/>
     <use xlink:href="#DejaVuSans-65" transform="translate(344.621094 0)"/>
     <use xlink:href="#DejaVuSans-6e" transform="translate(406.144531 0)"/>
     <use xlink:href="#DejaVuSans-74" transform="translate(469.523438 0)"/>
     <use xlink:href="#DejaVuSans-20" transform="translate(508.732422 0)"/>
     <use xlink:href="#DejaVuSans-63" transform="translate(540.519531 0)"/>
     <use xlink:href="#DejaVuSans-6f" transform="translate(595.5 0)"/>
     <use xlink:href="#DejaVuSans-6e" transform="translate(656.681641 0)"/>
     <use xlink:href="#DejaVuSans-74" transform="translate(720.060547 0)"/>
     <use xlink:href="#DejaVuSans-69" transform="translate(759.269531 0)"/>
     <use xlink:href="#DejaVuSans-6e" transform="translate(787.052734 0)"/>
     <use xlink:href="#DejaVuSans-75" transform="translate(850.431641 0)"/>
     <use xlink:href="#DejaVuSans-65" transform="translate(913.810547 0)"/>
     <use xlink:href="#DejaVuSans-73" transform="translate(975.333984 0)"/>
     <use xlink:href="#DejaVuSans-20" transform="translate(1027.433594 0)"/>
     <use xlink:href="#DejaVuSans-74" transform="translate(1059.220703 0)"/>
     <use xlink:href="#DejaVuSans-68" transform="translate(1098.429688 0)"/>
     <use xlink:href="#DejaVuSans-72" transform="translate(1161.808594 0)"/>
     <use xlink:href="#DejaVuSans-6f" transform="translate(1200.671875 0)"/>
     <use xlink:href="#DejaVuSans-75" transform="translate(1261.853516 0)"/>
     <use xlink:href="#DejaVuSans-67" transform="translate(1325.232422 0)"/>
     <use xlink:href="#DejaVuSans-68" transform="translate(1388.708984 0)"/>
     <use xlink:href="#DejaVuSans-20" transform="translate(1452.087891 0)"/>
     <use xlink:href="#DejaVuSans-63" transform="translate(1483.875 0)"/>
     <use xlink:href="#DejaVuSans-75" transform="translate(1538.855469 0)"/>
     <use xlink:href="#DejaVuSans-74" transform="translate(1602.234375 0)"/>
     <use xlink:href="#DejaVuSans-6f" transform="translate(1641.443359 0)"/>
     <use xlink:href="#DejaVuSans-66" transform="translate(1702.625 0)"/>
     <use xlink:href="#DejaVuSans-66" transform="translate(1737.830078 0)"/>
    </g>
   </g>
   <g id="text_11">
    <!-- First fill -->
    <g style="fill: #555555" transform="translate(103.703516 239.846223) scale(0.095 -0.095)">
     <use xlink:href="#DejaVuSans-46"/>
     <use xlink:href="#DejaVuSans-69" transform="translate(50.269531 0)"/>
     <use xlink:href="#DejaVuSans-72" transform="translate(78.052734 0)"/>
     <use xlink:href="#DejaVuSans-73" transform="translate(119.166016 0)"/>
     <use xlink:href="#DejaVuSans-74" transform="translate(171.265625 0)"/>
     <use xlink:href="#DejaVuSans-20" transform="translate(210.474609 0)"/>
     <use xlink:href="#DejaVuSans-66" transform="translate(242.261719 0)"/>
     <use xlink:href="#DejaVuSans-69" transform="translate(277.466797 0)"/>
     <use xlink:href="#DejaVuSans-6c" transform="translate(305.25 0)"/>
     <use xlink:href="#DejaVuSans-6c" transform="translate(333.033203 0)"/>
    </g>
   </g>
   <g id="text_12">
    <!-- 95-day cutoff -->
    <g style="fill: #555555" transform="translate(560.300234 239.846223) scale(0.095 -0.095)">
     <defs>
      <path id="DejaVuSans-39" d="M 703 97
L 703 672
Q 941 559 1184 500
Q 1428 441 1663 441
Q 2288 441 2617 861
Q 2947 1281 2994 2138
Q 2813 1869 2534 1725
Q 2256 1581 1919 1581
Q 1219 1581 811 2004
Q 403 2428 403 3163
Q 403 3881 828 4315
Q 1253 4750 1959 4750
Q 2769 4750 3195 4129
Q 3622 3509 3622 2328
Q 3622 1225 3098 567
Q 2575 -91 1691 -91
Q 1453 -91 1209 -44
Q 966 3 703 97
z
M 1959 2075
Q 2384 2075 2632 2365
Q 2881 2656 2881 3163
Q 2881 3666 2632 3958
Q 2384 4250 1959 4250
Q 1534 4250 1286 3958
Q 1038 3666 1038 3163
Q 1038 2656 1286 2365
Q 1534 2075 1959 2075
z
" transform="scale(0.015625)"/>
      <path id="DejaVuSans-35" d="M 691 4666
L 3169 4666
L 3169 4134
L 1269 4134
L 1269 2991
Q 1406 3038 1543 3061
Q 1681 3084 1819 3084
Q 2600 3084 3056 2656
Q 3513 2228 3513 1497
Q 3513 744 3044 326
Q 2575 -91 1722 -91
Q 1428 -91 1123 -41
Q 819 9 494 109
L 494 744
Q 775 591 1075 516
Q 1375 441 1709 441
Q 2250 441 2565 725
Q 2881 1009 2881 1497
Q 2881 1984 2565 2268
Q 2250 2553 1709 2553
Q 1456 2553 1204 2497
Q 953 2441 691 2322
L 691 4666
z
" transform="scale(0.015625)"/>
      <path id="DejaVuSans-2d" d="M 313 2009
L 1997 2009
L 1997 1497
L 313 1497
L 313 2009
z
" transform="scale(0.015625)"/>
     </defs>
     <use xlink:href="#DejaVuSans-39"/>
     <use xlink:href="#DejaVuSans-35" transform="translate(63.623047 0)"/>
     <use xlink:href="#DejaVuSans-2d" transform="translate(127.246094 0)"/>
     <use xlink:href="#DejaVuSans-64" transform="translate(163.330078 0)"/>
     <use xlink:href="#DejaVuSans-61" transform="translate(226.806641 0)"/>
     <use xlink:href="#DejaVuSans-79" transform="translate(288.085938 0)"/>
     <use xlink:href="#DejaVuSans-20" transform="translate(347.265625 0)"/>
     <use xlink:href="#DejaVuSans-63" transform="translate(379.052734 0)"/>
     <use xlink:href="#DejaVuSans-75" transform="translate(434.033203 0)"/>
     <use xlink:href="#DejaVuSans-74" transform="translate(497.412109 0)"/>
     <use xlink:href="#DejaVuSans-6f" transform="translate(536.621094 0)"/>
     <use xlink:href="#DejaVuSans-66" transform="translate(597.802734 0)"/>
     <use xlink:href="#DejaVuSans-66" transform="translate(633.007812 0)"/>
    </g>
   </g>
   <g id="text_13">
    <g id="patch_10">
     <path d="M 105.339531 303.682741
L 205.781719 303.682741
Q 209.781719 303.682741 209.781719 299.682741
L 209.781719 267.608991
Q 209.781719 263.608991 205.781719 263.608991
L 105.339531 263.608991
Q 101.339531 263.608991 101.339531 267.608991
L 101.339531 299.682741
Q 101.339531 303.682741 105.339531 303.682741
z
" style="fill: #ffffff; stroke: #7fb685; stroke-width: 1.5; stroke-linejoin: miter"/>
    </g>
    <!-- Persistence -->
    <g transform="translate(126.965312 275.207428) scale(0.1 -0.1)">
     <defs>
      <path id="DejaVuSans-50" d="M 1259 4147
L 1259 2394
L 2053 2394
Q 2494 2394 2734 2622
Q 2975 2850 2975 3272
Q 2975 3691 2734 3919
Q 2494 4147 2053 4147
L 1259 4147
z
M 628 4666
L 2053 4666
Q 2838 4666 3239 4311
Q 3641 3956 3641 3272
Q 3641 2581 3239 2228
Q 2838 1875 2053 1875
L 1259 1875
L 1259 0
L 628 0
L 628 4666
z
" transform="scale(0.015625)"/>
     </defs>
     <use xlink:href="#DejaVuSans-50"/>
     <use xlink:href="#DejaVuSans-65" transform="translate(56.677734 0)"/>
     <use xlink:href="#DejaVuSans-72" transform="translate(118.201172 0)"/>
     <use xlink:href="#DejaVuSans-73" transform="translate(159.314453 0)"/>
     <use xlink:href="#DejaVuSans-69" transform="translate(211.414062 0)"/>
     <use xlink:href="#DejaVuSans-73" transform="translate(239.197266 0)"/>
     <use xlink:href="#DejaVuSans-74" transform="translate(291.296875 0)"/>
     <use xlink:href="#DejaVuSans-65" transform="translate(330.505859 0)"/>
     <use xlink:href="#DejaVuSans-6e" transform="translate(392.029297 0)"/>
     <use xlink:href="#DejaVuSans-63" transform="translate(455.408203 0)"/>
     <use xlink:href="#DejaVuSans-65" transform="translate(510.388672 0)"/>
    </g>
    <!-- 95 observed days -->
    <g transform="translate(111.037187 286.405241) scale(0.1 -0.1)">
     <defs>
      <path id="DejaVuSans-62" d="M 3116 1747
Q 3116 2381 2855 2742
Q 2594 3103 2138 3103
Q 1681 3103 1420 2742
Q 1159 2381 1159 1747
Q 1159 1113 1420 752
Q 1681 391 2138 391
Q 2594 391 2855 752
Q 3116 1113 3116 1747
z
M 1159 2969
Q 1341 3281 1617 3432
Q 1894 3584 2278 3584
Q 2916 3584 3314 3078
Q 3713 2572 3713 1747
Q 3713 922 3314 415
Q 2916 -91 2278 -91
Q 1894 -91 1617 61
Q 1341 213 1159 525
L 1159 0
L 581 0
L 581 4863
L 1159 4863
L 1159 2969
z
" transform="scale(0.015625)"/>
     </defs>
     <use xlink:href="#DejaVuSans-39"/>
     <use xlink:href="#DejaVuSans-35" transform="translate(63.623047 0)"/>
     <use xlink:href="#DejaVuSans-20" transform="translate(127.246094 0)"/>
     <use xlink:href="#DejaVuSans-6f" transform="translate(159.033203 0)"/>
     <use xlink:href="#DejaVuSans-62" transform="translate(220.214844 0)"/>
     <use xlink:href="#DejaVuSans-73" transform="translate(283.691406 0)"/>
     <use xlink:href="#DejaVuSans-65" transform="translate(335.791016 0)"/>
     <use xlink:href="#DejaVuSans-72" transform="translate(397.314453 0)"/>
     <use xlink:href="#DejaVuSans-76" transform="translate(438.427734 0)"/>
     <use xlink:href="#DejaVuSans-65" transform="translate(497.607422 0)"/>
     <use xlink:href="#DejaVuSans-64" transform="translate(559.130859 0)"/>
     <use xlink:href="#DejaVuSans-20" transform="translate(622.607422 0)"/>
     <use xlink:href="#DejaVuSans-64" transform="translate(654.394531 0)"/>
     <use xlink:href="#DejaVuSans-61" transform="translate(717.871094 0)"/>
     <use xlink:href="#DejaVuSans-79" transform="translate(779.150391 0)"/>
     <use xlink:href="#DejaVuSans-73" transform="translate(838.330078 0)"/>
    </g>
    <!-- remains on regimen -->
    <g transform="translate(105.339531 297.603053) scale(0.1 -0.1)">
     <use xlink:href="#DejaVuSans-72"/>
     <use xlink:href="#DejaVuSans-65" transform="translate(38.863281 0)"/>
     <use xlink:href="#DejaVuSans-6d" transform="translate(100.386719 0)"/>
     <use xlink:href="#DejaVuSans-61" transform="translate(197.798828 0)"/>
     <use xlink:href="#DejaVuSans-69" transform="translate(259.078125 0)"/>
     <use xlink:href="#DejaVuSans-6e" transform="translate(286.861328 0)"/>
     <use xlink:href="#DejaVuSans-73" transform="translate(350.240234 0)"/>
     <use xlink:href="#DejaVuSans-20" transform="translate(402.339844 0)"/>
     <use xlink:href="#DejaVuSans-6f" transform="translate(434.126953 0)"/>
     <use xlink:href="#DejaVuSans-6e" transform="translate(495.308594 0)"/>
     <use xlink:href="#DejaVuSans-20" transform="translate(558.6875 0)"/>
     <use xlink:href="#DejaVuSans-72" transform="translate(590.474609 0)"/>
     <use xlink:href="#DejaVuSans-65" transform="translate(629.337891 0)"/>
     <use xlink:href="#DejaVuSans-67" transform="translate(690.861328 0)"/>
     <use xlink:href="#DejaVuSans-69" transform="translate(754.337891 0)"/>
     <use xlink:href="#DejaVuSans-6d" transform="translate(782.121094 0)"/>
     <use xlink:href="#DejaVuSans-65" transform="translate(879.533203 0)"/>
     <use xlink:href="#DejaVuSans-6e" transform="translate(941.056641 0)"/>
    </g>
   </g>
   <g id="text_14">
    <g id="patch_11">
     <path d="M 257.616094 298.083835
L 351.105156 298.083835
Q 355.105156 298.083835 355.105156 294.083835
L 355.105156 273.207897
Q 355.105156 269.207897 351.105156 269.207897
L 257.616094 269.207897
Q 253.616094 269.207897 253.616094 273.207897
L 253.616094 294.083835
Q 253.616094 298.083835 257.616094 298.083835
z
" style="fill: #ffffff; stroke: #7ba6d0; stroke-width: 1.5; stroke-linejoin: miter"/>
    </g>
    <!-- Index-product PDC -->
    <g transform="translate(257.616094 280.806335) scale(0.1 -0.1)">
     <defs>
      <path id="DejaVuSans-49" d="M 628 4666
L 1259 4666
L 1259 0
L 628 0
L 628 4666
z
" transform="scale(0.015625)"/>
      <path id="DejaVuSans-78" d="M 3513 3500
L 2247 1797
L 3578 0
L 2900 0
L 1881 1375
L 863 0
L 184 0
L 1544 1831
L 300 3500
L 978 3500
L 1906 2253
L 2834 3500
L 3513 3500
z
" transform="scale(0.015625)"/>
      <path id="DejaVuSans-44" d="M 1259 4147
L 1259 519
L 2022 519
Q 2988 519 3436 956
Q 3884 1394 3884 2338
Q 3884 3275 3436 3711
Q 2988 4147 2022 4147
L 1259 4147
z
M 628 4666
L 1925 4666
Q 3281 4666 3915 4102
Q 4550 3538 4550 2338
Q 4550 1131 3912 565
Q 3275 0 1925 0
L 628 0
L 628 4666
z
" transform="scale(0.015625)"/>
      <path id="DejaVuSans-43" d="M 4122 4306
L 4122 3641
Q 3803 3938 3442 4084
Q 3081 4231 2675 4231
Q 1875 4231 1450 3742
Q 1025 3253 1025 2328
Q 1025 1406 1450 917
Q 1875 428 2675 428
Q 3081 428 3442 575
Q 3803 722 4122 1019
L 4122 359
Q 3791 134 3420 21
Q 3050 -91 2638 -91
Q 1578 -91 968 557
Q 359 1206 359 2328
Q 359 3453 968 4101
Q 1578 4750 2638 4750
Q 3056 4750 3426 4639
Q 3797 4528 4122 4306
z
" transform="scale(0.015625)"/>
     </defs>
     <use xlink:href="#DejaVuSans-49"/>
     <use xlink:href="#DejaVuSans-6e" transform="translate(29.492188 0)"/>
     <use xlink:href="#DejaVuSans-64" transform="translate(92.871094 0)"/>
     <use xlink:href="#DejaVuSans-65" transform="translate(156.347656 0)"/>
     <use xlink:href="#DejaVuSans-78" transform="translate(216.121094 0)"/>
     <use xlink:href="#DejaVuSans-2d" transform="translate(275.300781 0)"/>
     <use xlink:href="#DejaVuSans-70" transform="translate(311.384766 0)"/>
     <use xlink:href="#DejaVuSans-72" transform="translate(374.861328 0)"/>
     <use xlink:href="#DejaVuSans-6f" transform="translate(413.724609 0)"/>
     <use xlink:href="#DejaVuSans-64" transform="translate(474.90625 0)"/>
     <use xlink:href="#DejaVuSans-75" transform="translate(538.382812 0)"/>
     <use xlink:href="#DejaVuSans-63" transform="translate(601.761719 0)"/>
     <use xlink:href="#DejaVuSans-74" transform="translate(656.742188 0)"/>
     <use xlink:href="#DejaVuSans-20" transform="translate(695.951172 0)"/>
     <use xlink:href="#DejaVuSans-50" transform="translate(727.738281 0)"/>
     <use xlink:href="#DejaVuSans-44" transform="translate(788.041016 0)"/>
     <use xlink:href="#DejaVuSans-43" transform="translate(865.042969 0)"/>
    </g>
    <!-- 88 / 95 = 92.6% -->
    <g transform="translate(263.521563 292.004147) scale(0.1 -0.1)">
     <defs>
      <path id="DejaVuSans-2f" d="M 1625 4666
L 2156 4666
L 531 -594
L 0 -594
L 1625 4666
z
" transform="scale(0.015625)"/>
      <path id="DejaVuSans-3d" d="M 678 2906
L 4684 2906
L 4684 2381
L 678 2381
L 678 2906
z
M 678 1631
L 4684 1631
L 4684 1100
L 678 1100
L 678 1631
z
" transform="scale(0.015625)"/>
      <path id="DejaVuSans-2e" d="M 684 794
L 1344 794
L 1344 0
L 684 0
L 684 794
z
" transform="scale(0.015625)"/>
      <path id="DejaVuSans-36" d="M 2113 2584
Q 1688 2584 1439 2293
Q 1191 2003 1191 1497
Q 1191 994 1439 701
Q 1688 409 2113 409
Q 2538 409 2786 701
Q 3034 994 3034 1497
Q 3034 2003 2786 2293
Q 2538 2584 2113 2584
z
M 3366 4563
L 3366 3988
Q 3128 4100 2886 4159
Q 2644 4219 2406 4219
Q 1781 4219 1451 3797
Q 1122 3375 1075 2522
Q 1259 2794 1537 2939
Q 1816 3084 2150 3084
Q 2853 3084 3261 2657
Q 3669 2231 3669 1497
Q 3669 778 3244 343
Q 2819 -91 2113 -91
Q 1303 -91 875 529
Q 447 1150 447 2328
Q 447 3434 972 4092
Q 1497 4750 2381 4750
Q 2619 4750 2861 4703
Q 3103 4656 3366 4563
z
" transform="scale(0.015625)"/>
      <path id="DejaVuSans-25" d="M 4653 2053
Q 4381 2053 4226 1822
Q 4072 1591 4072 1178
Q 4072 772 4226 539
Q 4381 306 4653 306
Q 4919 306 5073 539
Q 5228 772 5228 1178
Q 5228 1588 5073 1820
Q 4919 2053 4653 2053
z
M 4653 2450
Q 5147 2450 5437 2106
Q 5728 1763 5728 1178
Q 5728 594 5436 251
Q 5144 -91 4653 -91
Q 4153 -91 3862 251
Q 3572 594 3572 1178
Q 3572 1766 3864 2108
Q 4156 2450 4653 2450
z
M 1428 4353
Q 1159 4353 1004 4120
Q 850 3888 850 3481
Q 850 3069 1003 2837
Q 1156 2606 1428 2606
Q 1700 2606 1854 2837
Q 2009 3069 2009 3481
Q 2009 3884 1853 4118
Q 1697 4353 1428 4353
z
M 4250 4750
L 4750 4750
L 1831 -91
L 1331 -91
L 4250 4750
z
M 1428 4750
Q 1922 4750 2215 4408
Q 2509 4066 2509 3481
Q 2509 2891 2217 2550
Q 1925 2209 1428 2209
Q 931 2209 642 2551
Q 353 2894 353 3481
Q 353 4063 643 4406
Q 934 4750 1428 4750
z
" transform="scale(0.015625)"/>
     </defs>
     <use xlink:href="#DejaVuSans-38"/>
     <use xlink:href="#DejaVuSans-38" transform="translate(63.623047 0)"/>
     <use xlink:href="#DejaVuSans-20" transform="translate(127.246094 0)"/>
     <use xlink:href="#DejaVuSans-2f" transform="translate(159.033203 0)"/>
     <use xlink:href="#DejaVuSans-20" transform="translate(192.724609 0)"/>
     <use xlink:href="#DejaVuSans-39" transform="translate(224.511719 0)"/>
     <use xlink:href="#DejaVuSans-35" transform="translate(288.134766 0)"/>
     <use xlink:href="#DejaVuSans-20" transform="translate(351.757812 0)"/>
     <use xlink:href="#DejaVuSans-3d" transform="translate(383.544922 0)"/>
     <use xlink:href="#DejaVuSans-20" transform="translate(467.333984 0)"/>
     <use xlink:href="#DejaVuSans-39" transform="translate(499.121094 0)"/>
     <use xlink:href="#DejaVuSans-32" transform="translate(562.744141 0)"/>
     <use xlink:href="#DejaVuSans-2e" transform="translate(626.367188 0)"/>
     <use xlink:href="#DejaVuSans-36" transform="translate(658.154297 0)"/>
     <use xlink:href="#DejaVuSans-25" transform="translate(721.777344 0)"/>
    </g>
   </g>
   <g id="text_15">
    <g id="patch_12">
     <path d="M 417.281562 298.083835
L 498.959687 298.083835
Q 502.959687 298.083835 502.959687 294.083835
L 502.959687 273.207897
Q 502.959687 269.207897 498.959687 269.207897
L 417.281562 269.207897
Q 413.281562 269.207897 413.281562 273.207897
L 413.281562 294.083835
Q 413.281562 298.083835 417.281562 298.083835
z
" style="fill: #ffffff; stroke: #7ba6d0; stroke-width: 1.5; stroke-linejoin: miter"/>
    </g>
    <!-- Basket PDC -->
    <g transform="translate(429.325312 280.806335) scale(0.1 -0.1)">
     <defs>
      <path id="DejaVuSans-42" d="M 1259 2228
L 1259 519
L 2272 519
Q 2781 519 3026 730
Q 3272 941 3272 1375
Q 3272 1813 3026 2020
Q 2781 2228 2272 2228
L 1259 2228
z
M 1259 4147
L 1259 2741
L 2194 2741
Q 2656 2741 2882 2914
Q 3109 3088 3109 3444
Q 3109 3797 2882 3972
Q 2656 4147 2194 4147
L 1259 4147
z
M 628 4666
L 2241 4666
Q 2963 4666 3353 4366
Q 3744 4066 3744 3513
Q 3744 3084 3544 2831
Q 3344 2578 2956 2516
Q 3422 2416 3680 2098
Q 3938 1781 3938 1306
Q 3938 681 3513 340
Q 3088 0 2303 0
L 628 0
L 628 4666
z
" transform="scale(0.015625)"/>
      <path id="DejaVuSans-6b" d="M 581 4863
L 1159 4863
L 1159 1991
L 2875 3500
L 3609 3500
L 1753 1863
L 3688 0
L 2938 0
L 1159 1709
L 1159 0
L 581 0
L 581 4863
z
" transform="scale(0.015625)"/>
     </defs>
     <use xlink:href="#DejaVuSans-42"/>
     <use xlink:href="#DejaVuSans-61" transform="translate(68.603516 0)"/>
     <use xlink:href="#DejaVuSans-73" transform="translate(129.882812 0)"/>
     <use xlink:href="#DejaVuSans-6b" transform="translate(181.982422 0)"/>
     <use xlink:href="#DejaVuSans-65" transform="translate(236.267578 0)"/>
     <use xlink:href="#DejaVuSans-74" transform="translate(297.791016 0)"/>
     <use xlink:href="#DejaVuSans-20" transform="translate(337 0)"/>
     <use xlink:href="#DejaVuSans-50" transform="translate(368.787109 0)"/>
     <use xlink:href="#DejaVuSans-44" transform="translate(429.089844 0)"/>
     <use xlink:href="#DejaVuSans-43" transform="translate(506.091797 0)"/>
    </g>
    <!-- 88 / 95 = 92.6% -->
    <g transform="translate(417.281562 292.004147) scale(0.1 -0.1)">
     <use xlink:href="#DejaVuSans-38"/>
     <use xlink:href="#DejaVuSans-38" transform="translate(63.623047 0)"/>
     <use xlink:href="#DejaVuSans-20" transform="translate(127.246094 0)"/>
     <use xlink:href="#DejaVuSans-2f" transform="translate(159.033203 0)"/>
     <use xlink:href="#DejaVuSans-20" transform="translate(192.724609 0)"/>
     <use xlink:href="#DejaVuSans-39" transform="translate(224.511719 0)"/>
     <use xlink:href="#DejaVuSans-35" transform="translate(288.134766 0)"/>
     <use xlink:href="#DejaVuSans-20" transform="translate(351.757812 0)"/>
     <use xlink:href="#DejaVuSans-3d" transform="translate(383.544922 0)"/>
     <use xlink:href="#DejaVuSans-20" transform="translate(467.333984 0)"/>
     <use xlink:href="#DejaVuSans-39" transform="translate(499.121094 0)"/>
     <use xlink:href="#DejaVuSans-32" transform="translate(562.744141 0)"/>
     <use xlink:href="#DejaVuSans-2e" transform="translate(626.367188 0)"/>
     <use xlink:href="#DejaVuSans-36" transform="translate(658.154297 0)"/>
     <use xlink:href="#DejaVuSans-25" transform="translate(721.777344 0)"/>
    </g>
   </g>
   <g id="text_16">
    <g id="patch_13">
     <path d="M 562.271094 298.083835
L 671.410156 298.083835
Q 675.410156 298.083835 675.410156 294.083835
L 675.410156 273.207897
Q 675.410156 269.207897 671.410156 269.207897
L 562.271094 269.207897
Q 558.271094 269.207897 558.271094 273.207897
L 558.271094 294.083835
Q 558.271094 298.083835 562.271094 298.083835
z
" style="fill: #ffffff; stroke: #e0b663; stroke-width: 1.5; stroke-linejoin: miter"/>
    </g>
    <!-- MPR -->
    <g transform="translate(606.0375 280.806335) scale(0.1 -0.1)">
     <defs>
      <path id="DejaVuSans-4d" d="M 628 4666
L 1569 4666
L 2759 1491
L 3956 4666
L 4897 4666
L 4897 0
L 4281 0
L 4281 4097
L 3078 897
L 2444 897
L 1241 4097
L 1241 0
L 628 0
L 628 4666
z
" transform="scale(0.015625)"/>
      <path id="DejaVuSans-52" d="M 2841 2188
Q 3044 2119 3236 1894
Q 3428 1669 3622 1275
L 4263 0
L 3584 0
L 2988 1197
Q 2756 1666 2539 1819
Q 2322 1972 1947 1972
L 1259 1972
L 1259 0
L 628 0
L 628 4666
L 2053 4666
Q 2853 4666 3247 4331
Q 3641 3997 3641 3322
Q 3641 2881 3436 2590
Q 3231 2300 2841 2188
z
M 1259 4147
L 1259 2491
L 2053 2491
Q 2509 2491 2742 2702
Q 2975 2913 2975 3322
Q 2975 3731 2742 3939
Q 2509 4147 2053 4147
L 1259 4147
z
" transform="scale(0.015625)"/>
     </defs>
     <use xlink:href="#DejaVuSans-4d"/>
     <use xlink:href="#DejaVuSans-50" transform="translate(86.279297 0)"/>
     <use xlink:href="#DejaVuSans-52" transform="translate(146.582031 0)"/>
    </g>
    <!-- 28 × 4 / 95 = 117.9% -->
    <g transform="translate(562.271094 292.004147) scale(0.1 -0.1)">
     <defs>
      <path id="DejaVuSans-d7" d="M 4488 3438
L 3059 2003
L 4488 575
L 4116 197
L 2681 1631
L 1247 197
L 878 575
L 2303 2003
L 878 3438
L 1247 3816
L 2681 2381
L 4116 3816
L 4488 3438
z
" transform="scale(0.015625)"/>
     </defs>
     <use xlink:href="#DejaVuSans-32"/>
     <use xlink:href="#DejaVuSans-38" transform="translate(63.623047 0)"/>
     <use xlink:href="#DejaVuSans-20" transform="translate(127.246094 0)"/>
     <use xlink:href="#DejaVuSans-d7" transform="translate(159.033203 0)"/>
     <use xlink:href="#DejaVuSans-20" transform="translate(242.822266 0)"/>
     <use xlink:href="#DejaVuSans-34" transform="translate(274.609375 0)"/>
     <use xlink:href="#DejaVuSans-20" transform="translate(338.232422 0)"/>
     <use xlink:href="#DejaVuSans-2f" transform="translate(370.019531 0)"/>
     <use xlink:href="#DejaVuSans-20" transform="translate(403.710938 0)"/>
     <use xlink:href="#DejaVuSans-39" transform="translate(435.498047 0)"/>
     <use xlink:href="#DejaVuSans-35" transform="translate(499.121094 0)"/>
     <use xlink:href="#DejaVuSans-20" transform="translate(562.744141 0)"/>
     <use xlink:href="#DejaVuSans-3d" transform="translate(594.53125 0)"/>
     <use xlink:href="#DejaVuSans-20" transform="translate(678.320312 0)"/>
     <use xlink:href="#DejaVuSans-31" transform="translate(710.107422 0)"/>
     <use xlink:href="#DejaVuSans-31" transform="translate(773.730469 0)"/>
     <use xlink:href="#DejaVuSans-37" transform="translate(837.353516 0)"/>
     <use xlink:href="#DejaVuSans-2e" transform="translate(900.976562 0)"/>
     <use xlink:href="#DejaVuSans-39" transform="translate(932.763672 0)"/>
     <use xlink:href="#DejaVuSans-25" transform="translate(996.386719 0)"/>
    </g>
   </g>
  </g>
 </g>
 <defs>
  <clipPath id="pd14102a3c1">
   <rect x="71.240625" y="9.518444" width="669.6" height="316.008"/>
  </clipPath>
 </defs>
</svg>
