<?xml version="1.0" encoding="utf-8" standalone="no"?>
<!DOCTYPE svg PUBLIC "-//W3C//DTD SVG 1.1//EN"
  "http://www.w3.org/Graphics/SVG/1.1/DTD/svg11.dtd">
<svg xmlns:xlink="http://www.w3.org/1999/xlink" width="926.070625pt" height="387.672875pt" viewBox="0 0 926.070625 387.672875" xmlns="http://www.w3.org/2000/svg" version="1.1">
 <metadata>
  <rdf:RDF xmlns:dc="http://purl.org/dc/elements/1.1/" xmlns:cc="http://creativecommons.org/ns#" xmlns:rdf="http://www.w3.org/1999/02/22-rdf-syntax-ns#">
   <cc:Work>
    <dc:type rdf:resource="http://purl.org/dc/dcmitype/StillImage"/>
    <dc:date>2026-06-19T11:36:38.479984</dc:date>
    <dc:format>image/svg+xml</dc:format>
    <dc:creator>
     <cc:Agent>
      <dc:title>Matplotlib v3.10.9, https://matplotlib.org/</dc:title>
     </cc:Agent>
    </dc:creator>
   </cc:Work>
  </rdf:RDF>
 </metadata>
 <defs>
  <style type="text/css">*{stroke-linejoin: round; stroke-linecap: butt}</style>
 </defs>
 <g id="figure_1">
  <g id="patch_1">
   <path d="M 0 387.672875 
L 926.070625 387.672875 
L 926.070625 0 
L 0 0 
z
" style="fill: #ffffff"/>
  </g>
  <g id="axes_1">
   <g id="patch_2">
    <path d="M 61.716875 350.509344 
L 892.191875 350.509344 
L 892.191875 26.117344 
L 61.716875 26.117344 
z
" style="fill: #ffffff"/>
   </g>
   <g id="LineCollection_1">
    <path d="M 61.716875 97.785344 
L 892.191875 97.785344 
" clip-path="url(#p1536db858d)" style="fill: none; stroke: #c8c8c8"/>
   </g>
   <g id="LineCollection_2">
    <path d="M 61.716875 165.681344 
L 892.191875 165.681344 
" clip-path="url(#p1536db858d)" style="fill: none; stroke: #c8c8c8"/>
   </g>
   <g id="LineCollection_3">
    <path d="M 61.716875 241.121344 
L 892.191875 241.121344 
" clip-path="url(#p1536db858d)" style="fill: none; stroke: #c8c8c8"/>
   </g>
   <g id="LineCollection_4">
    <path d="M 61.716875 301.473344 
L 892.191875 301.473344 
" clip-path="url(#p1536db858d)" style="fill: none; stroke: #c8c8c8"/>
   </g>
   <g id="matplotlib.axis_1">
    <g id="xtick_1">
     <g id="line2d_1">
      <path d="M 84.785625 350.509344 
L 84.785625 26.117344 
" clip-path="url(#p1536db858d)" style="fill: none; stroke: #e7e7e7; stroke-width: 0.8; stroke-linecap: square"/>
     </g>
     <g id="line2d_2">
      <defs>
       <path id="mb58283179e" d="M 0 0 
L 0 3.5 
" style="stroke: #000000; stroke-width: 0.8"/>
      </defs>
      <g>
       <use xlink:href="#mb58283179e" x="84.785625" y="350.509344" style="stroke: #000000; stroke-width: 0.8"/>
      </g>
     </g>
     <g id="text_1">
      <!-- Jan 26 -->
      <g transform="translate(67.560312 365.867625) scale(0.11 -0.11)">
       <defs>
        <path id="DejaVuSans-4a" d="M 628 4666 
L 1259 4666 
L 1259 325 
Q 1259 -519 939 -900 
Q 619 -1281 -91 -1281 
L -331 -1281 
L -331 -750 
L -134 -750 
Q 284 -750 456 -515 
Q 628 -281 628 325 
L 628 4666 
z
" transform="scale(0.015625)"/>
        <path id="DejaVuSans-61" d="M 2194 1759 
Q 1497 1759 1228 1600 
Q 959 1441 959 1056 
Q 959 750 1161 570 
Q 1363 391 1709 391 
Q 2188 391 2477 730 
Q 2766 1069 2766 1631 
L 2766 1759 
L 2194 1759 
z
M 3341 1997 
L 3341 0 
L 2766 0 
L 2766 531 
Q 2569 213 2275 61 
Q 1981 -91 1556 -91 
Q 1019 -91 701 211 
Q 384 513 384 1019 
Q 384 1609 779 1909 
Q 1175 2209 1959 2209 
L 2766 2209 
L 2766 2266 
Q 2766 2663 2505 2880 
Q 2244 3097 1772 3097 
Q 1472 3097 1187 3025 
Q 903 2953 641 2809 
L 641 3341 
Q 956 3463 1253 3523 
Q 1550 3584 1831 3584 
Q 2591 3584 2966 3190 
Q 3341 2797 3341 1997 
z
" transform="scale(0.015625)"/>
        <path id="DejaVuSans-6e" d="M 3513 2113 
L 3513 0 
L 2938 0 
L 2938 2094 
Q 2938 2591 2744 2837 
Q 2550 3084 2163 3084 
Q 1697 3084 1428 2787 
Q 1159 2491 1159 1978 
L 1159 0 
L 581 0 
L 581 3500 
L 1159 3500 
L 1159 2956 
Q 1366 3272 1645 3428 
Q 1925 3584 2291 3584 
Q 2894 3584 3203 3211 
Q 3513 2838 3513 2113 
z
" transform="scale(0.015625)"/>
        <path id="DejaVuSans-20" transform="scale(0.015625)"/>
        <path id="DejaVuSans-32" d="M 1228 531 
L 3431 531 
L 3431 0 
L 469 0 
L 469 531 
Q 828 903 1448 1529 
Q 2069 2156 2228 2338 
Q 2531 2678 2651 2914 
Q 2772 3150 2772 3378 
Q 2772 3750 2511 3984 
Q 2250 4219 1831 4219 
Q 1534 4219 1204 4116 
Q 875 4013 500 3803 
L 500 4441 
Q 881 4594 1212 4672 
Q 1544 4750 1819 4750 
Q 2544 4750 2975 4387 
Q 3406 4025 3406 3419 
Q 3406 3131 3298 2873 
Q 3191 2616 2906 2266 
Q 2828 2175 2409 1742 
Q 1991 1309 1228 531 
z
" transform="scale(0.015625)"/>
        <path id="DejaVuSans-36" d="M 2113 2584 
Q 1688 2584 1439 2293 
Q 1191 2003 1191 1497 
Q 1191 994 1439 701 
Q 1688 409 2113 409 
Q 2538 409 2786 701 
Q 3034 994 3034 1497 
Q 3034 2003 2786 2293 
Q 2538 2584 2113 2584 
z
M 3366 4563 
L 3366 3988 
Q 3128 4100 2886 4159 
Q 2644 4219 2406 4219 
Q 1781 4219 1451 3797 
Q 1122 3375 1075 2522 
Q 1259 2794 1537 2939 
Q 1816 3084 2150 3084 
Q 2853 3084 3261 2657 
Q 3669 2231 3669 1497 
Q 3669 778 3244 343 
Q 2819 -91 2113 -91 
Q 1303 -91 875 529 
Q 447 1150 447 2328 
Q 447 3434 972 4092 
Q 1497 4750 2381 4750 
Q 2619 4750 2861 4703 
Q 3103 4656 3366 4563 
z
" transform="scale(0.015625)"/>
       </defs>
       <use xlink:href="#DejaVuSans-4a"/>
       <use xlink:href="#DejaVuSans-61" transform="translate(29.492188 0)"/>
       <use xlink:href="#DejaVuSans-6e" transform="translate(90.771484 0)"/>
       <use xlink:href="#DejaVuSans-20" transform="translate(154.150391 0)"/>
       <use xlink:href="#DejaVuSans-32" transform="translate(185.9375 0)"/>
       <use xlink:href="#DejaVuSans-36" transform="translate(249.560547 0)"/>
      </g>
      <!-- 2024 -->
      <g transform="translate(70.788125 378.185219) scale(0.11 -0.11)">
       <defs>
        <path id="DejaVuSans-30" d="M 2034 4250 
Q 1547 4250 1301 3770 
Q 1056 3291 1056 2328 
Q 1056 1369 1301 889 
Q 1547 409 2034 409 
Q 2525 409 2770 889 
Q 3016 1369 3016 2328 
Q 3016 3291 2770 3770 
Q 2525 4250 2034 4250 
z
M 2034 4750 
Q 2819 4750 3233 4129 
Q 3647 3509 3647 2328 
Q 3647 1150 3233 529 
Q 2819 -91 2034 -91 
Q 1250 -91 836 529 
Q 422 1150 422 2328 
Q 422 3509 836 4129 
Q 1250 4750 2034 4750 
z
" transform="scale(0.015625)"/>
        <path id="DejaVuSans-34" d="M 2419 4116 
L 825 1625 
L 2419 1625 
L 2419 4116 
z
M 2253 4666 
L 3047 4666 
L 3047 1625 
L 3713 1625 
L 3713 1100 
L 3047 1100 
L 3047 0 
L 2419 0 
L 2419 1100 
L 313 1100 
L 313 1709 
L 2253 4666 
z
" transform="scale(0.015625)"/>
       </defs>
       <use xlink:href="#DejaVuSans-32"/>
       <use xlink:href="#DejaVuSans-30" transform="translate(63.623047 0)"/>
       <use xlink:href="#DejaVuSans-32" transform="translate(127.246094 0)"/>
       <use xlink:href="#DejaVuSans-34" transform="translate(190.869141 0)"/>
      </g>
     </g>
    </g>
    <g id="xtick_2">
     <g id="line2d_3">
      <path d="M 421.589375 350.509344 
L 421.589375 26.117344 
" clip-path="url(#p1536db858d)" style="fill: none; stroke: #e7e7e7; stroke-width: 0.8; stroke-linecap: square"/>
     </g>
     <g id="line2d_4">
      <g>
       <use xlink:href="#mb58283179e" x="421.589375" y="350.509344" style="stroke: #000000; stroke-width: 0.8"/>
      </g>
     </g>
     <g id="text_2">
      <!-- Jun 20 -->
      <g transform="translate(404.248906 365.867625) scale(0.11 -0.11)">
       <defs>
        <path id="DejaVuSans-75" d="M 544 1381 
L 544 3500 
L 1119 3500 
L 1119 1403 
Q 1119 906 1312 657 
Q 1506 409 1894 409 
Q 2359 409 2629 706 
Q 2900 1003 2900 1516 
L 2900 3500 
L 3475 3500 
L 3475 0 
L 2900 0 
L 2900 538 
Q 2691 219 2414 64 
Q 2138 -91 1772 -91 
Q 1169 -91 856 284 
Q 544 659 544 1381 
z
M 1991 3584 
L 1991 3584 
z
" transform="scale(0.015625)"/>
       </defs>
       <use xlink:href="#DejaVuSans-4a"/>
       <use xlink:href="#DejaVuSans-75" transform="translate(29.492188 0)"/>
       <use xlink:href="#DejaVuSans-6e" transform="translate(92.871094 0)"/>
       <use xlink:href="#DejaVuSans-20" transform="translate(156.25 0)"/>
       <use xlink:href="#DejaVuSans-32" transform="translate(188.037109 0)"/>
       <use xlink:href="#DejaVuSans-30" transform="translate(251.660156 0)"/>
      </g>
      <!-- 2024 -->
      <g transform="translate(407.591875 378.185219) scale(0.11 -0.11)">
       <use xlink:href="#DejaVuSans-32"/>
       <use xlink:href="#DejaVuSans-30" transform="translate(63.623047 0)"/>
       <use xlink:href="#DejaVuSans-32" transform="translate(127.246094 0)"/>
       <use xlink:href="#DejaVuSans-34" transform="translate(190.869141 0)"/>
      </g>
     </g>
    </g>
    <g id="xtick_3">
     <g id="line2d_5">
      <path d="M 500.023125 350.509344 
L 500.023125 26.117344 
" clip-path="url(#p1536db858d)" style="fill: none; stroke: #e7e7e7; stroke-width: 0.8; stroke-linecap: square"/>
     </g>
     <g id="line2d_6">
      <g>
       <use xlink:href="#mb58283179e" x="500.023125" y="350.509344" style="stroke: #000000; stroke-width: 0.8"/>
      </g>
     </g>
     <g id="text_3">
      <!-- Jul 24 -->
      <g transform="translate(484.640312 365.867625) scale(0.11 -0.11)">
       <defs>
        <path id="DejaVuSans-6c" d="M 603 4863 
L 1178 4863 
L 1178 0 
L 603 0 
L 603 4863 
z
" transform="scale(0.015625)"/>
       </defs>
       <use xlink:href="#DejaVuSans-4a"/>
       <use xlink:href="#DejaVuSans-75" transform="translate(29.492188 0)"/>
       <use xlink:href="#DejaVuSans-6c" transform="translate(92.871094 0)"/>
       <use xlink:href="#DejaVuSans-20" transform="translate(120.654297 0)"/>
       <use xlink:href="#DejaVuSans-32" transform="translate(152.441406 0)"/>
       <use xlink:href="#DejaVuSans-34" transform="translate(216.064453 0)"/>
      </g>
      <!-- 2024 -->
      <g transform="translate(486.025625 378.185219) scale(0.11 -0.11)">
       <use xlink:href="#DejaVuSans-32"/>
       <use xlink:href="#DejaVuSans-30" transform="translate(63.623047 0)"/>
       <use xlink:href="#DejaVuSans-32" transform="translate(127.246094 0)"/>
       <use xlink:href="#DejaVuSans-34" transform="translate(190.869141 0)"/>
      </g>
     </g>
    </g>
    <g id="xtick_4">
     <g id="line2d_7">
      <path d="M 769.9275 350.509344 
L 769.9275 26.117344 
" clip-path="url(#p1536db858d)" style="fill: none; stroke: #e7e7e7; stroke-width: 0.8; stroke-linecap: square"/>
     </g>
     <g id="line2d_8">
      <g>
       <use xlink:href="#mb58283179e" x="769.9275" y="350.509344" style="stroke: #000000; stroke-width: 0.8"/>
      </g>
     </g>
     <g id="text_4">
      <!-- Nov 18 -->
      <g transform="translate(750.445469 365.867625) scale(0.11 -0.11)">
       <defs>
        <path id="DejaVuSans-4e" d="M 628 4666 
L 1478 4666 
L 3547 763 
L 3547 4666 
L 4159 4666 
L 4159 0 
L 3309 0 
L 1241 3903 
L 1241 0 
L 628 0 
L 628 4666 
z
" transform="scale(0.015625)"/>
        <path id="DejaVuSans-6f" d="M 1959 3097 
Q 1497 3097 1228 2736 
Q 959 2375 959 1747 
Q 959 1119 1226 758 
Q 1494 397 1959 397 
Q 2419 397 2687 759 
Q 2956 1122 2956 1747 
Q 2956 2369 2687 2733 
Q 2419 3097 1959 3097 
z
M 1959 3584 
Q 2709 3584 3137 3096 
Q 3566 2609 3566 1747 
Q 3566 888 3137 398 
Q 2709 -91 1959 -91 
Q 1206 -91 779 398 
Q 353 888 353 1747 
Q 353 2609 779 3096 
Q 1206 3584 1959 3584 
z
" transform="scale(0.015625)"/>
        <path id="DejaVuSans-76" d="M 191 3500 
L 800 3500 
L 1894 563 
L 2988 3500 
L 3597 3500 
L 2284 0 
L 1503 0 
L 191 3500 
z
" transform="scale(0.015625)"/>
        <path id="DejaVuSans-31" d="M 794 531 
L 1825 531 
L 1825 4091 
L 703 3866 
L 703 4441 
L 1819 4666 
L 2450 4666 
L 2450 531 
L 3481 531 
L 3481 0 
L 794 0 
L 794 531 
z
" transform="scale(0.015625)"/>
        <path id="DejaVuSans-38" d="M 2034 2216 
Q 1584 2216 1326 1975 
Q 1069 1734 1069 1313 
Q 1069 891 1326 650 
Q 1584 409 2034 409 
Q 2484 409 2743 651 
Q 3003 894 3003 1313 
Q 3003 1734 2745 1975 
Q 2488 2216 2034 2216 
z
M 1403 2484 
Q 997 2584 770 2862 
Q 544 3141 544 3541 
Q 544 4100 942 4425 
Q 1341 4750 2034 4750 
Q 2731 4750 3128 4425 
Q 3525 4100 3525 3541 
Q 3525 3141 3298 2862 
Q 3072 2584 2669 2484 
Q 3125 2378 3379 2068 
Q 3634 1759 3634 1313 
Q 3634 634 3220 271 
Q 2806 -91 2034 -91 
Q 1263 -91 848 271 
Q 434 634 434 1313 
Q 434 1759 690 2068 
Q 947 2378 1403 2484 
z
M 1172 3481 
Q 1172 3119 1398 2916 
Q 1625 2713 2034 2713 
Q 2441 2713 2670 2916 
Q 2900 3119 2900 3481 
Q 2900 3844 2670 4047 
Q 2441 4250 2034 4250 
Q 1625 4250 1398 4047 
Q 1172 3844 1172 3481 
z
" transform="scale(0.015625)"/>
       </defs>
       <use xlink:href="#DejaVuSans-4e"/>
       <use xlink:href="#DejaVuSans-6f" transform="translate(74.804688 0)"/>
       <use xlink:href="#DejaVuSans-76" transform="translate(135.986328 0)"/>
       <use xlink:href="#DejaVuSans-20" transform="translate(195.166016 0)"/>
       <use xlink:href="#DejaVuSans-31" transform="translate(226.953125 0)"/>
       <use xlink:href="#DejaVuSans-38" transform="translate(290.576172 0)"/>
      </g>
      <!-- 2024 -->
      <g transform="translate(755.93 378.185219) scale(0.11 -0.11)">
       <use xlink:href="#DejaVuSans-32"/>
       <use xlink:href="#DejaVuSans-30" transform="translate(63.623047 0)"/>
       <use xlink:href="#DejaVuSans-32" transform="translate(127.246094 0)"/>
       <use xlink:href="#DejaVuSans-34" transform="translate(190.869141 0)"/>
      </g>
     </g>
    </g>
    <g id="xtick_5">
     <g id="line2d_9">
      <path d="M 869.123125 350.509344 
L 869.123125 26.117344 
" clip-path="url(#p1536db858d)" style="fill: none; stroke: #e7e7e7; stroke-width: 0.8; stroke-linecap: square"/>
     </g>
     <g id="line2d_10">
      <g>
       <use xlink:href="#mb58283179e" x="869.123125" y="350.509344" style="stroke: #000000; stroke-width: 0.8"/>
      </g>
     </g>
     <g id="text_5">
      <!-- Dec 31 -->
      <g transform="translate(849.733047 365.867625) scale(0.11 -0.11)">
       <defs>
        <path id="DejaVuSans-44" d="M 1259 4147 
L 1259 519 
L 2022 519 
Q 2988 519 3436 956 
Q 3884 1394 3884 2338 
Q 3884 3275 3436 3711 
Q 2988 4147 2022 4147 
L 1259 4147 
z
M 628 4666 
L 1925 4666 
Q 3281 4666 3915 4102 
Q 4550 3538 4550 2338 
Q 4550 1131 3912 565 
Q 3275 0 1925 0 
L 628 0 
L 628 4666 
z
" transform="scale(0.015625)"/>
        <path id="DejaVuSans-65" d="M 3597 1894 
L 3597 1613 
L 953 1613 
Q 991 1019 1311 708 
Q 1631 397 2203 397 
Q 2534 397 2845 478 
Q 3156 559 3463 722 
L 3463 178 
Q 3153 47 2828 -22 
Q 2503 -91 2169 -91 
Q 1331 -91 842 396 
Q 353 884 353 1716 
Q 353 2575 817 3079 
Q 1281 3584 2069 3584 
Q 2775 3584 3186 3129 
Q 3597 2675 3597 1894 
z
M 3022 2063 
Q 3016 2534 2758 2815 
Q 2500 3097 2075 3097 
Q 1594 3097 1305 2825 
Q 1016 2553 972 2059 
L 3022 2063 
z
" transform="scale(0.015625)"/>
        <path id="DejaVuSans-63" d="M 3122 3366 
L 3122 2828 
Q 2878 2963 2633 3030 
Q 2388 3097 2138 3097 
Q 1578 3097 1268 2742 
Q 959 2388 959 1747 
Q 959 1106 1268 751 
Q 1578 397 2138 397 
Q 2388 397 2633 464 
Q 2878 531 3122 666 
L 3122 134 
Q 2881 22 2623 -34 
Q 2366 -91 2075 -91 
Q 1284 -91 818 406 
Q 353 903 353 1747 
Q 353 2603 823 3093 
Q 1294 3584 2113 3584 
Q 2378 3584 2631 3529 
Q 2884 3475 3122 3366 
z
" transform="scale(0.015625)"/>
        <path id="DejaVuSans-33" d="M 2597 2516 
Q 3050 2419 3304 2112 
Q 3559 1806 3559 1356 
Q 3559 666 3084 287 
Q 2609 -91 1734 -91 
Q 1441 -91 1130 -33 
Q 819 25 488 141 
L 488 750 
Q 750 597 1062 519 
Q 1375 441 1716 441 
Q 2309 441 2620 675 
Q 2931 909 2931 1356 
Q 2931 1769 2642 2001 
Q 2353 2234 1838 2234 
L 1294 2234 
L 1294 2753 
L 1863 2753 
Q 2328 2753 2575 2939 
Q 2822 3125 2822 3475 
Q 2822 3834 2567 4026 
Q 2313 4219 1838 4219 
Q 1578 4219 1281 4162 
Q 984 4106 628 3988 
L 628 4550 
Q 988 4650 1302 4700 
Q 1616 4750 1894 4750 
Q 2613 4750 3031 4423 
Q 3450 4097 3450 3541 
Q 3450 3153 3228 2886 
Q 3006 2619 2597 2516 
z
" transform="scale(0.015625)"/>
       </defs>
       <use xlink:href="#DejaVuSans-44"/>
       <use xlink:href="#DejaVuSans-65" transform="translate(77.001953 0)"/>
       <use xlink:href="#DejaVuSans-63" transform="translate(138.525391 0)"/>
       <use xlink:href="#DejaVuSans-20" transform="translate(193.505859 0)"/>
       <use xlink:href="#DejaVuSans-33" transform="translate(225.292969 0)"/>
       <use xlink:href="#DejaVuSans-31" transform="translate(288.916016 0)"/>
      </g>
      <!-- 2024 -->
      <g transform="translate(855.125625 378.185219) scale(0.11 -0.11)">
       <use xlink:href="#DejaVuSans-32"/>
       <use xlink:href="#DejaVuSans-30" transform="translate(63.623047 0)"/>
       <use xlink:href="#DejaVuSans-32" transform="translate(127.246094 0)"/>
       <use xlink:href="#DejaVuSans-34" transform="translate(190.869141 0)"/>
      </g>
     </g>
    </g>
   </g>
   <g id="matplotlib.axis_2">
    <g id="ytick_1">
     <g id="line2d_11"/>
     <g id="text_6">
      <!-- Timeline -->
      <g transform="translate(7.2 102.344406) scale(0.12 -0.12)">
       <defs>
        <path id="DejaVuSans-54" d="M -19 4666 
L 3928 4666 
L 3928 4134 
L 2272 4134 
L 2272 0 
L 1638 0 
L 1638 4134 
L -19 4134 
L -19 4666 
z
" transform="scale(0.015625)"/>
        <path id="DejaVuSans-69" d="M 603 3500 
L 1178 3500 
L 1178 0 
L 603 0 
L 603 3500 
z
M 603 4863 
L 1178 4863 
L 1178 4134 
L 603 4134 
L 603 4863 
z
" transform="scale(0.015625)"/>
        <path id="DejaVuSans-6d" d="M 3328 2828 
Q 3544 3216 3844 3400 
Q 4144 3584 4550 3584 
Q 5097 3584 5394 3201 
Q 5691 2819 5691 2113 
L 5691 0 
L 5113 0 
L 5113 2094 
Q 5113 2597 4934 2840 
Q 4756 3084 4391 3084 
Q 3944 3084 3684 2787 
Q 3425 2491 3425 1978 
L 3425 0 
L 2847 0 
L 2847 2094 
Q 2847 2600 2669 2842 
Q 2491 3084 2119 3084 
Q 1678 3084 1418 2786 
Q 1159 2488 1159 1978 
L 1159 0 
L 581 0 
L 581 3500 
L 1159 3500 
L 1159 2956 
Q 1356 3278 1631 3431 
Q 1906 3584 2284 3584 
Q 2666 3584 2933 3390 
Q 3200 3197 3328 2828 
z
" transform="scale(0.015625)"/>
       </defs>
       <use xlink:href="#DejaVuSans-54"/>
       <use xlink:href="#DejaVuSans-69" transform="translate(57.958984 0)"/>
       <use xlink:href="#DejaVuSans-6d" transform="translate(85.742188 0)"/>
       <use xlink:href="#DejaVuSans-65" transform="translate(183.154297 0)"/>
       <use xlink:href="#DejaVuSans-6c" transform="translate(244.677734 0)"/>
       <use xlink:href="#DejaVuSans-69" transform="translate(272.460938 0)"/>
       <use xlink:href="#DejaVuSans-6e" transform="translate(300.244141 0)"/>
       <use xlink:href="#DejaVuSans-65" transform="translate(363.623047 0)"/>
      </g>
     </g>
    </g>
    <g id="ytick_2">
     <g id="line2d_12"/>
     <g id="text_7">
      <!-- Claims -->
      <g transform="translate(17.87625 170.240406) scale(0.12 -0.12)">
       <defs>
        <path id="DejaVuSans-43" d="M 4122 4306 
L 4122 3641 
Q 3803 3938 3442 4084 
Q 3081 4231 2675 4231 
Q 1875 4231 1450 3742 
Q 1025 3253 1025 2328 
Q 1025 1406 1450 917 
Q 1875 428 2675 428 
Q 3081 428 3442 575 
Q 3803 722 4122 1019 
L 4122 359 
Q 3791 134 3420 21 
Q 3050 -91 2638 -91 
Q 1578 -91 968 557 
Q 359 1206 359 2328 
Q 359 3453 968 4101 
Q 1578 4750 2638 4750 
Q 3056 4750 3426 4639 
Q 3797 4528 4122 4306 
z
" transform="scale(0.015625)"/>
        <path id="DejaVuSans-73" d="M 2834 3397 
L 2834 2853 
Q 2591 2978 2328 3040 
Q 2066 3103 1784 3103 
Q 1356 3103 1142 2972 
Q 928 2841 928 2578 
Q 928 2378 1081 2264 
Q 1234 2150 1697 2047 
L 1894 2003 
Q 2506 1872 2764 1633 
Q 3022 1394 3022 966 
Q 3022 478 2636 193 
Q 2250 -91 1575 -91 
Q 1294 -91 989 -36 
Q 684 19 347 128 
L 347 722 
Q 666 556 975 473 
Q 1284 391 1588 391 
Q 1994 391 2212 530 
Q 2431 669 2431 922 
Q 2431 1156 2273 1281 
Q 2116 1406 1581 1522 
L 1381 1569 
Q 847 1681 609 1914 
Q 372 2147 372 2553 
Q 372 3047 722 3315 
Q 1072 3584 1716 3584 
Q 2034 3584 2315 3537 
Q 2597 3491 2834 3397 
z
" transform="scale(0.015625)"/>
       </defs>
       <use xlink:href="#DejaVuSans-43"/>
       <use xlink:href="#DejaVuSans-6c" transform="translate(69.824219 0)"/>
       <use xlink:href="#DejaVuSans-61" transform="translate(97.607422 0)"/>
       <use xlink:href="#DejaVuSans-69" transform="translate(158.886719 0)"/>
       <use xlink:href="#DejaVuSans-6d" transform="translate(186.669922 0)"/>
       <use xlink:href="#DejaVuSans-73" transform="translate(284.082031 0)"/>
      </g>
     </g>
    </g>
    <g id="ytick_3">
     <g id="line2d_13"/>
     <g id="text_8">
      <!-- Line 1 -->
      <g transform="translate(21.759375 245.680406) scale(0.12 -0.12)">
       <defs>
        <path id="DejaVuSans-4c" d="M 628 4666 
L 1259 4666 
L 1259 531 
L 3531 531 
L 3531 0 
L 628 0 
L 628 4666 
z
" transform="scale(0.015625)"/>
       </defs>
       <use xlink:href="#DejaVuSans-4c"/>
       <use xlink:href="#DejaVuSans-69" transform="translate(55.712891 0)"/>
       <use xlink:href="#DejaVuSans-6e" transform="translate(83.496094 0)"/>
       <use xlink:href="#DejaVuSans-65" transform="translate(146.875 0)"/>
       <use xlink:href="#DejaVuSans-20" transform="translate(208.398438 0)"/>
       <use xlink:href="#DejaVuSans-31" transform="translate(240.185547 0)"/>
      </g>
     </g>
    </g>
    <g id="ytick_4">
     <g id="line2d_14"/>
     <g id="text_9">
      <!-- Line 2 -->
      <g transform="translate(21.759375 306.032406) scale(0.12 -0.12)">
       <use xlink:href="#DejaVuSans-4c"/>
       <use xlink:href="#DejaVuSans-69" transform="translate(55.712891 0)"/>
       <use xlink:href="#DejaVuSans-6e" transform="translate(83.496094 0)"/>
       <use xlink:href="#DejaVuSans-65" transform="translate(146.875 0)"/>
       <use xlink:href="#DejaVuSans-20" transform="translate(208.398438 0)"/>
       <use xlink:href="#DejaVuSans-32" transform="translate(240.185547 0)"/>
      </g>
     </g>
    </g>
   </g>
   <g id="patch_3">
    <path d="M 633.821875 314.298144 
L 769.9275 314.298144 
L 769.9275 300.718944 
L 633.821875 300.718944 
z
" clip-path="url(#p1536db858d)" style="fill: #e0b663; opacity: 0.35"/>
   </g>
   <g id="patch_4">
    <path d="M 61.716875 350.509344 
L 892.191875 350.509344 
" style="fill: none; stroke: #cfcfcf; stroke-width: 0.8; stroke-linejoin: miter; stroke-linecap: square"/>
   </g>
   <g id="patch_5">
    <path d="M 421.589375 253.946144 
L 490.795625 253.946144 
L 490.795625 228.296544 
L 421.589375 228.296544 
z
" clip-path="url(#p1536db858d)" style="fill: #7ba6d0; stroke: #4d4d4d; stroke-linejoin: miter"/>
   </g>
   <g id="patch_6">
    <path d="M 500.023125 314.298144 
L 633.821875 314.298144 
L 633.821875 288.648544 
L 500.023125 288.648544 
z
" clip-path="url(#p1536db858d)" style="fill: #7fb685; stroke: #4d4d4d; stroke-linejoin: miter"/>
   </g>
   <g id="text_10">
    <!-- 60-day allowable gap -->
    <g style="fill: #8a5a00" transform="translate(642.860547 332.421456) scale(0.11 -0.11)">
     <defs>
      <path id="DejaVuSans-2d" d="M 313 2009 
L 1997 2009 
L 1997 1497 
L 313 1497 
L 313 2009 
z
" transform="scale(0.015625)"/>
      <path id="DejaVuSans-64" d="M 2906 2969 
L 2906 4863 
L 3481 4863 
L 3481 0 
L 2906 0 
L 2906 525 
Q 2725 213 2448 61 
Q 2172 -91 1784 -91 
Q 1150 -91 751 415 
Q 353 922 353 1747 
Q 353 2572 751 3078 
Q 1150 3584 1784 3584 
Q 2172 3584 2448 3432 
Q 2725 3281 2906 2969 
z
M 947 1747 
Q 947 1113 1208 752 
Q 1469 391 1925 391 
Q 2381 391 2643 752 
Q 2906 1113 2906 1747 
Q 2906 2381 2643 2742 
Q 2381 3103 1925 3103 
Q 1469 3103 1208 2742 
Q 947 2381 947 1747 
z
" transform="scale(0.015625)"/>
      <path id="DejaVuSans-79" d="M 2059 -325 
Q 1816 -950 1584 -1140 
Q 1353 -1331 966 -1331 
L 506 -1331 
L 506 -850 
L 844 -850 
Q 1081 -850 1212 -737 
Q 1344 -625 1503 -206 
L 1606 56 
L 191 3500 
L 800 3500 
L 1894 763 
L 2988 3500 
L 3597 3500 
L 2059 -325 
z
" transform="scale(0.015625)"/>
      <path id="DejaVuSans-77" d="M 269 3500 
L 844 3500 
L 1563 769 
L 2278 3500 
L 2956 3500 
L 3675 769 
L 4391 3500 
L 4966 3500 
L 4050 0 
L 3372 0 
L 2619 2869 
L 1863 0 
L 1184 0 
L 269 3500 
z
" transform="scale(0.015625)"/>
      <path id="DejaVuSans-62" d="M 3116 1747 
Q 3116 2381 2855 2742 
Q 2594 3103 2138 3103 
Q 1681 3103 1420 2742 
Q 1159 2381 1159 1747 
Q 1159 1113 1420 752 
Q 1681 391 2138 391 
Q 2594 391 2855 752 
Q 3116 1113 3116 1747 
z
M 1159 2969 
Q 1341 3281 1617 3432 
Q 1894 3584 2278 3584 
Q 2916 3584 3314 3078 
Q 3713 2572 3713 1747 
Q 3713 922 3314 415 
Q 2916 -91 2278 -91 
Q 1894 -91 1617 61 
Q 1341 213 1159 525 
L 1159 0 
L 581 0 
L 581 4863 
L 1159 4863 
L 1159 2969 
z
" transform="scale(0.015625)"/>
      <path id="DejaVuSans-67" d="M 2906 1791 
Q 2906 2416 2648 2759 
Q 2391 3103 1925 3103 
Q 1463 3103 1205 2759 
Q 947 2416 947 1791 
Q 947 1169 1205 825 
Q 1463 481 1925 481 
Q 2391 481 2648 825 
Q 2906 1169 2906 1791 
z
M 3481 434 
Q 3481 -459 3084 -895 
Q 2688 -1331 1869 -1331 
Q 1566 -1331 1297 -1286 
Q 1028 -1241 775 -1147 
L 775 -588 
Q 1028 -725 1275 -790 
Q 1522 -856 1778 -856 
Q 2344 -856 2625 -561 
Q 2906 -266 2906 331 
L 2906 616 
Q 2728 306 2450 153 
Q 2172 0 1784 0 
Q 1141 0 747 490 
Q 353 981 353 1791 
Q 353 2603 747 3093 
Q 1141 3584 1784 3584 
Q 2172 3584 2450 3431 
Q 2728 3278 2906 2969 
L 2906 3500 
L 3481 3500 
L 3481 434 
z
" transform="scale(0.015625)"/>
      <path id="DejaVuSans-70" d="M 1159 525 
L 1159 -1331 
L 581 -1331 
L 581 3500 
L 1159 3500 
L 1159 2969 
Q 1341 3281 1617 3432 
Q 1894 3584 2278 3584 
Q 2916 3584 3314 3078 
Q 3713 2572 3713 1747 
Q 3713 922 3314 415 
Q 2916 -91 2278 -91 
Q 1894 -91 1617 61 
Q 1341 213 1159 525 
z
M 3116 1747 
Q 3116 2381 2855 2742 
Q 2594 3103 2138 3103 
Q 1681 3103 1420 2742 
Q 1159 2381 1159 1747 
Q 1159 1113 1420 752 
Q 1681 391 2138 391 
Q 2594 391 2855 752 
Q 3116 1113 3116 1747 
z
" transform="scale(0.015625)"/>
     </defs>
     <use xlink:href="#DejaVuSans-36"/>
     <use xlink:href="#DejaVuSans-30" transform="translate(63.623047 0)"/>
     <use xlink:href="#DejaVuSans-2d" transform="translate(127.246094 0)"/>
     <use xlink:href="#DejaVuSans-64" transform="translate(163.330078 0)"/>
     <use xlink:href="#DejaVuSans-61" transform="translate(226.806641 0)"/>
     <use xlink:href="#DejaVuSans-79" transform="translate(288.085938 0)"/>
     <use xlink:href="#DejaVuSans-20" transform="translate(347.265625 0)"/>
     <use xlink:href="#DejaVuSans-61" transform="translate(379.052734 0)"/>
     <use xlink:href="#DejaVuSans-6c" transform="translate(440.332031 0)"/>
     <use xlink:href="#DejaVuSans-6c" transform="translate(468.115234 0)"/>
     <use xlink:href="#DejaVuSans-6f" transform="translate(495.898438 0)"/>
     <use xlink:href="#DejaVuSans-77" transform="translate(557.080078 0)"/>
     <use xlink:href="#DejaVuSans-61" transform="translate(638.867188 0)"/>
     <use xlink:href="#DejaVuSans-62" transform="translate(700.146484 0)"/>
     <use xlink:href="#DejaVuSans-6c" transform="translate(763.623047 0)"/>
     <use xlink:href="#DejaVuSans-65" transform="translate(791.40625 0)"/>
     <use xlink:href="#DejaVuSans-20" transform="translate(852.929688 0)"/>
     <use xlink:href="#DejaVuSans-67" transform="translate(884.716797 0)"/>
     <use xlink:href="#DejaVuSans-61" transform="translate(948.193359 0)"/>
     <use xlink:href="#DejaVuSans-70" transform="translate(1009.472656 0)"/>
    </g>
   </g>
   <g id="text_11">
    <!-- Diagnosis index -->
    <g style="fill: #444444" transform="translate(37.2975 66.622519) scale(0.12 -0.12)">
     <defs>
      <path id="DejaVuSans-78" d="M 3513 3500 
L 2247 1797 
L 3578 0 
L 2900 0 
L 1881 1375 
L 863 0 
L 184 0 
L 1544 1831 
L 300 3500 
L 978 3500 
L 1906 2253 
L 2834 3500 
L 3513 3500 
z
" transform="scale(0.015625)"/>
     </defs>
     <use xlink:href="#DejaVuSans-44"/>
     <use xlink:href="#DejaVuSans-69" transform="translate(77.001953 0)"/>
     <use xlink:href="#DejaVuSans-61" transform="translate(104.785156 0)"/>
     <use xlink:href="#DejaVuSans-67" transform="translate(166.064453 0)"/>
     <use xlink:href="#DejaVuSans-6e" transform="translate(229.541016 0)"/>
     <use xlink:href="#DejaVuSans-6f" transform="translate(292.919922 0)"/>
     <use xlink:href="#DejaVuSans-73" transform="translate(354.101562 0)"/>
     <use xlink:href="#DejaVuSans-69" transform="translate(406.201172 0)"/>
     <use xlink:href="#DejaVuSans-73" transform="translate(433.984375 0)"/>
     <use xlink:href="#DejaVuSans-20" transform="translate(486.083984 0)"/>
     <use xlink:href="#DejaVuSans-69" transform="translate(517.871094 0)"/>
     <use xlink:href="#DejaVuSans-6e" transform="translate(545.654297 0)"/>
     <use xlink:href="#DejaVuSans-64" transform="translate(609.033203 0)"/>
     <use xlink:href="#DejaVuSans-65" transform="translate(672.509766 0)"/>
     <use xlink:href="#DejaVuSans-78" transform="translate(732.283203 0)"/>
    </g>
   </g>
   <g id="text_12">
    <!-- Therapy index -->
    <g style="fill: #444444" transform="translate(378.603125 66.622519) scale(0.12 -0.12)">
     <defs>
      <path id="DejaVuSans-68" d="M 3513 2113 
L 3513 0 
L 2938 0 
L 2938 2094 
Q 2938 2591 2744 2837 
Q 2550 3084 2163 3084 
Q 1697 3084 1428 2787 
Q 1159 2491 1159 1978 
L 1159 0 
L 581 0 
L 581 4863 
L 1159 4863 
L 1159 2956 
Q 1366 3272 1645 3428 
Q 1925 3584 2291 3584 
Q 2894 3584 3203 3211 
Q 3513 2838 3513 2113 
z
" transform="scale(0.015625)"/>
      <path id="DejaVuSans-72" d="M 2631 2963 
Q 2534 3019 2420 3045 
Q 2306 3072 2169 3072 
Q 1681 3072 1420 2755 
Q 1159 2438 1159 1844 
L 1159 0 
L 581 0 
L 581 3500 
L 1159 3500 
L 1159 2956 
Q 1341 3275 1631 3429 
Q 1922 3584 2338 3584 
Q 2397 3584 2469 3576 
Q 2541 3569 2628 3553 
L 2631 2963 
z
" transform="scale(0.015625)"/>
     </defs>
     <use xlink:href="#DejaVuSans-54"/>
     <use xlink:href="#DejaVuSans-68" transform="translate(61.083984 0)"/>
     <use xlink:href="#DejaVuSans-65" transform="translate(124.462891 0)"/>
     <use xlink:href="#DejaVuSans-72" transform="translate(185.986328 0)"/>
     <use xlink:href="#DejaVuSans-61" transform="translate(227.099609 0)"/>
     <use xlink:href="#DejaVuSans-70" transform="translate(288.378906 0)"/>
     <use xlink:href="#DejaVuSans-79" transform="translate(351.855469 0)"/>
     <use xlink:href="#DejaVuSans-20" transform="translate(411.035156 0)"/>
     <use xlink:href="#DejaVuSans-69" transform="translate(442.822266 0)"/>
     <use xlink:href="#DejaVuSans-6e" transform="translate(470.605469 0)"/>
     <use xlink:href="#DejaVuSans-64" transform="translate(533.984375 0)"/>
     <use xlink:href="#DejaVuSans-65" transform="translate(597.460938 0)"/>
     <use xlink:href="#DejaVuSans-78" transform="translate(657.234375 0)"/>
    </g>
   </g>
   <g id="text_13">
    <!-- Observation end -->
    <g style="fill: #444444" transform="translate(819.375625 66.622519) scale(0.12 -0.12)">
     <defs>
      <path id="DejaVuSans-4f" d="M 2522 4238 
Q 1834 4238 1429 3725 
Q 1025 3213 1025 2328 
Q 1025 1447 1429 934 
Q 1834 422 2522 422 
Q 3209 422 3611 934 
Q 4013 1447 4013 2328 
Q 4013 3213 3611 3725 
Q 3209 4238 2522 4238 
z
M 2522 4750 
Q 3503 4750 4090 4092 
Q 4678 3434 4678 2328 
Q 4678 1225 4090 567 
Q 3503 -91 2522 -91 
Q 1538 -91 948 565 
Q 359 1222 359 2328 
Q 359 3434 948 4092 
Q 1538 4750 2522 4750 
z
" transform="scale(0.015625)"/>
      <path id="DejaVuSans-74" d="M 1172 4494 
L 1172 3500 
L 2356 3500 
L 2356 3053 
L 1172 3053 
L 1172 1153 
Q 1172 725 1289 603 
Q 1406 481 1766 481 
L 2356 481 
L 2356 0 
L 1766 0 
Q 1100 0 847 248 
Q 594 497 594 1153 
L 594 3053 
L 172 3053 
L 172 3500 
L 594 3500 
L 594 4494 
L 1172 4494 
z
" transform="scale(0.015625)"/>
     </defs>
     <use xlink:href="#DejaVuSans-4f"/>
     <use xlink:href="#DejaVuSans-62" transform="translate(78.710938 0)"/>
     <use xlink:href="#DejaVuSans-73" transform="translate(142.1875 0)"/>
     <use xlink:href="#DejaVuSans-65" transform="translate(194.287109 0)"/>
     <use xlink:href="#DejaVuSans-72" transform="translate(255.810547 0)"/>
     <use xlink:href="#DejaVuSans-76" transform="translate(296.923828 0)"/>
     <use xlink:href="#DejaVuSans-61" transform="translate(356.103516 0)"/>
     <use xlink:href="#DejaVuSans-74" transform="translate(417.382812 0)"/>
     <use xlink:href="#DejaVuSans-69" transform="translate(456.591797 0)"/>
     <use xlink:href="#DejaVuSans-6f" transform="translate(484.375 0)"/>
     <use xlink:href="#DejaVuSans-6e" transform="translate(545.556641 0)"/>
     <use xlink:href="#DejaVuSans-20" transform="translate(608.935547 0)"/>
     <use xlink:href="#DejaVuSans-65" transform="translate(640.722656 0)"/>
     <use xlink:href="#DejaVuSans-6e" transform="translate(702.246094 0)"/>
     <use xlink:href="#DejaVuSans-64" transform="translate(765.625 0)"/>
    </g>
   </g>
   <g id="patch_7">
    <path d="M 88.128991 52.521344 
Q 253.18834 52.521344 418.247689 52.521344 
" style="fill: none; stroke: #666666; stroke-width: 1.2; stroke-linecap: round"/>
    <path d="M 92.128991 54.521344 
L 88.128991 52.521344 
L 92.128991 50.521344 
" style="fill: none; stroke: #666666; stroke-width: 1.2; stroke-linecap: round"/>
    <path d="M 414.247689 50.521344 
L 418.247689 52.521344 
L 414.247689 54.521344 
" style="fill: none; stroke: #666666; stroke-width: 1.2; stroke-linecap: round"/>
   </g>
   <g id="text_14">
    <!-- 146 days to first treatment fill -->
    <g style="fill: #555555" transform="translate(163.0825 41.727319) scale(0.12 -0.12)">
     <defs>
      <path id="DejaVuSans-66" d="M 2375 4863 
L 2375 4384 
L 1825 4384 
Q 1516 4384 1395 4259 
Q 1275 4134 1275 3809 
L 1275 3500 
L 2222 3500 
L 2222 3053 
L 1275 3053 
L 1275 0 
L 697 0 
L 697 3053 
L 147 3053 
L 147 3500 
L 697 3500 
L 697 3744 
Q 697 4328 969 4595 
Q 1241 4863 1831 4863 
L 2375 4863 
z
" transform="scale(0.015625)"/>
     </defs>
     <use xlink:href="#DejaVuSans-31"/>
     <use xlink:href="#DejaVuSans-34" transform="translate(63.623047 0)"/>
     <use xlink:href="#DejaVuSans-36" transform="translate(127.246094 0)"/>
     <use xlink:href="#DejaVuSans-20" transform="translate(190.869141 0)"/>
     <use xlink:href="#DejaVuSans-64" transform="translate(222.65625 0)"/>
     <use xlink:href="#DejaVuSans-61" transform="translate(286.132812 0)"/>
     <use xlink:href="#DejaVuSans-79" transform="translate(347.412109 0)"/>
     <use xlink:href="#DejaVuSans-73" transform="translate(406.591797 0)"/>
     <use xlink:href="#DejaVuSans-20" transform="translate(458.691406 0)"/>
     <use xlink:href="#DejaVuSans-74" transform="translate(490.478516 0)"/>
     <use xlink:href="#DejaVuSans-6f" transform="translate(529.6875 0)"/>
     <use xlink:href="#DejaVuSans-20" transform="translate(590.869141 0)"/>
     <use xlink:href="#DejaVuSans-66" transform="translate(622.65625 0)"/>
     <use xlink:href="#DejaVuSans-69" transform="translate(657.861328 0)"/>
     <use xlink:href="#DejaVuSans-72" transform="translate(685.644531 0)"/>
     <use xlink:href="#DejaVuSans-73" transform="translate(726.757812 0)"/>
     <use xlink:href="#DejaVuSans-74" transform="translate(778.857422 0)"/>
     <use xlink:href="#DejaVuSans-20" transform="translate(818.066406 0)"/>
     <use xlink:href="#DejaVuSans-74" transform="translate(849.853516 0)"/>
     <use xlink:href="#DejaVuSans-72" transform="translate(889.0625 0)"/>
     <use xlink:href="#DejaVuSans-65" transform="translate(927.925781 0)"/>
     <use xlink:href="#DejaVuSans-61" transform="translate(989.449219 0)"/>
     <use xlink:href="#DejaVuSans-74" transform="translate(1050.728516 0)"/>
     <use xlink:href="#DejaVuSans-6d" transform="translate(1089.9375 0)"/>
     <use xlink:href="#DejaVuSans-65" transform="translate(1187.349609 0)"/>
     <use xlink:href="#DejaVuSans-6e" transform="translate(1248.873047 0)"/>
     <use xlink:href="#DejaVuSans-74" transform="translate(1312.251953 0)"/>
     <use xlink:href="#DejaVuSans-20" transform="translate(1351.460938 0)"/>
     <use xlink:href="#DejaVuSans-66" transform="translate(1383.248047 0)"/>
     <use xlink:href="#DejaVuSans-69" transform="translate(1418.453125 0)"/>
     <use xlink:href="#DejaVuSans-6c" transform="translate(1446.236328 0)"/>
     <use xlink:href="#DejaVuSans-6c" transform="translate(1474.019531 0)"/>
    </g>
   </g>
   <g id="text_15">
    <!-- Nexoral -->
    <g style="fill: #7ba6d0" transform="translate(395.441562 144.325719) scale(0.12 -0.12)">
     <defs>
      <path id="DejaVuSans-Bold-4e" d="M 588 4666 
L 1931 4666 
L 3628 1466 
L 3628 4666 
L 4769 4666 
L 4769 0 
L 3425 0 
L 1728 3200 
L 1728 0 
L 588 0 
L 588 4666 
z
" transform="scale(0.015625)"/>
      <path id="DejaVuSans-Bold-65" d="M 4031 1759 
L 4031 1441 
L 1416 1441 
Q 1456 1047 1700 850 
Q 1944 653 2381 653 
Q 2734 653 3104 758 
Q 3475 863 3866 1075 
L 3866 213 
Q 3469 63 3072 -14 
Q 2675 -91 2278 -91 
Q 1328 -91 801 392 
Q 275 875 275 1747 
Q 275 2603 792 3093 
Q 1309 3584 2216 3584 
Q 3041 3584 3536 3087 
Q 4031 2591 4031 1759 
z
M 2881 2131 
Q 2881 2450 2695 2645 
Q 2509 2841 2209 2841 
Q 1884 2841 1681 2658 
Q 1478 2475 1428 2131 
L 2881 2131 
z
" transform="scale(0.015625)"/>
      <path id="DejaVuSans-Bold-78" d="M 1422 1791 
L 159 3500 
L 1344 3500 
L 2059 2463 
L 2784 3500 
L 3969 3500 
L 2706 1797 
L 4031 0 
L 2847 0 
L 2059 1106 
L 1281 0 
L 97 0 
L 1422 1791 
z
" transform="scale(0.015625)"/>
      <path id="DejaVuSans-Bold-6f" d="M 2203 2784 
Q 1831 2784 1636 2517 
Q 1441 2250 1441 1747 
Q 1441 1244 1636 976 
Q 1831 709 2203 709 
Q 2569 709 2762 976 
Q 2956 1244 2956 1747 
Q 2956 2250 2762 2517 
Q 2569 2784 2203 2784 
z
M 2203 3584 
Q 3106 3584 3614 3096 
Q 4122 2609 4122 1747 
Q 4122 884 3614 396 
Q 3106 -91 2203 -91 
Q 1297 -91 786 396 
Q 275 884 275 1747 
Q 275 2609 786 3096 
Q 1297 3584 2203 3584 
z
" transform="scale(0.015625)"/>
      <path id="DejaVuSans-Bold-72" d="M 3138 2547 
Q 2991 2616 2845 2648 
Q 2700 2681 2553 2681 
Q 2122 2681 1889 2404 
Q 1656 2128 1656 1613 
L 1656 0 
L 538 0 
L 538 3500 
L 1656 3500 
L 1656 2925 
Q 1872 3269 2151 3426 
Q 2431 3584 2822 3584 
Q 2878 3584 2943 3579 
Q 3009 3575 3134 3559 
L 3138 2547 
z
" transform="scale(0.015625)"/>
      <path id="DejaVuSans-Bold-61" d="M 2106 1575 
Q 1756 1575 1579 1456 
Q 1403 1338 1403 1106 
Q 1403 894 1545 773 
Q 1688 653 1941 653 
Q 2256 653 2472 879 
Q 2688 1106 2688 1447 
L 2688 1575 
L 2106 1575 
z
M 3816 1997 
L 3816 0 
L 2688 0 
L 2688 519 
Q 2463 200 2181 54 
Q 1900 -91 1497 -91 
Q 953 -91 614 226 
Q 275 544 275 1050 
Q 275 1666 698 1953 
Q 1122 2241 2028 2241 
L 2688 2241 
L 2688 2328 
Q 2688 2594 2478 2717 
Q 2269 2841 1825 2841 
Q 1466 2841 1156 2769 
Q 847 2697 581 2553 
L 581 3406 
Q 941 3494 1303 3539 
Q 1666 3584 2028 3584 
Q 2975 3584 3395 3211 
Q 3816 2838 3816 1997 
z
" transform="scale(0.015625)"/>
      <path id="DejaVuSans-Bold-6c" d="M 538 4863 
L 1656 4863 
L 1656 0 
L 538 0 
L 538 4863 
z
" transform="scale(0.015625)"/>
     </defs>
     <use xlink:href="#DejaVuSans-Bold-4e"/>
     <use xlink:href="#DejaVuSans-Bold-65" transform="translate(83.691406 0)"/>
     <use xlink:href="#DejaVuSans-Bold-78" transform="translate(151.513672 0)"/>
     <use xlink:href="#DejaVuSans-Bold-6f" transform="translate(216.015625 0)"/>
     <use xlink:href="#DejaVuSans-Bold-72" transform="translate(284.716797 0)"/>
     <use xlink:href="#DejaVuSans-Bold-61" transform="translate(334.033203 0)"/>
     <use xlink:href="#DejaVuSans-Bold-6c" transform="translate(401.513672 0)"/>
    </g>
   </g>
   <g id="text_16">
    <!-- Vexpro -->
    <g style="fill: #7fb685" transform="translate(476.394375 141.308119) scale(0.12 -0.12)">
     <defs>
      <path id="DejaVuSans-Bold-56" d="M 31 4666 
L 1241 4666 
L 2478 1222 
L 3713 4666 
L 4922 4666 
L 3194 0 
L 1759 0 
L 31 4666 
z
" transform="scale(0.015625)"/>
      <path id="DejaVuSans-Bold-70" d="M 1656 506 
L 1656 -1331 
L 538 -1331 
L 538 3500 
L 1656 3500 
L 1656 2988 
Q 1888 3294 2169 3439 
Q 2450 3584 2816 3584 
Q 3463 3584 3878 3070 
Q 4294 2556 4294 1747 
Q 4294 938 3878 423 
Q 3463 -91 2816 -91 
Q 2450 -91 2169 54 
Q 1888 200 1656 506 
z
M 2400 2772 
Q 2041 2772 1848 2508 
Q 1656 2244 1656 1747 
Q 1656 1250 1848 986 
Q 2041 722 2400 722 
Q 2759 722 2948 984 
Q 3138 1247 3138 1747 
Q 3138 2247 2948 2509 
Q 2759 2772 2400 2772 
z
" transform="scale(0.015625)"/>
     </defs>
     <use xlink:href="#DejaVuSans-Bold-56"/>
     <use xlink:href="#DejaVuSans-Bold-65" transform="translate(71.892578 0)"/>
     <use xlink:href="#DejaVuSans-Bold-78" transform="translate(139.714844 0)"/>
     <use xlink:href="#DejaVuSans-Bold-70" transform="translate(204.216797 0)"/>
     <use xlink:href="#DejaVuSans-Bold-72" transform="translate(275.798828 0)"/>
     <use xlink:href="#DejaVuSans-Bold-6f" transform="translate(325.115234 0)"/>
    </g>
   </g>
   <g id="text_17">
    <!-- Vexpro -->
    <g style="fill: #7fb685" transform="translate(540.986875 141.308119) scale(0.12 -0.12)">
     <use xlink:href="#DejaVuSans-Bold-56"/>
     <use xlink:href="#DejaVuSans-Bold-65" transform="translate(71.892578 0)"/>
     <use xlink:href="#DejaVuSans-Bold-78" transform="translate(139.714844 0)"/>
     <use xlink:href="#DejaVuSans-Bold-70" transform="translate(204.216797 0)"/>
     <use xlink:href="#DejaVuSans-Bold-72" transform="translate(275.798828 0)"/>
     <use xlink:href="#DejaVuSans-Bold-6f" transform="translate(325.115234 0)"/>
    </g>
   </g>
   <g id="patch_8">
    <path d="M 526.754377 234.585728 
Q 513.864347 258.472596 501.611456 281.178764 
" style="fill: none; stroke: #444444; stroke-width: 1.2; stroke-linecap: round"/>
    <path d="M 505.271123 278.608387 
L 501.611456 281.178764 
L 501.750954 276.708805 
z
" style="fill: #444444; stroke: #444444; stroke-width: 1.2; stroke-linecap: round"/>
   </g>
   <g id="text_18">
    <!-- Vexpro arrives after Nexoral supply ends. -->
    <g style="fill: #555555" transform="translate(527.705625 272.069456) scale(0.11 -0.11)">
     <defs>
      <path id="DejaVuSans-56" d="M 1831 0 
L 50 4666 
L 709 4666 
L 2188 738 
L 3669 4666 
L 4325 4666 
L 2547 0 
L 1831 0 
z
" transform="scale(0.015625)"/>
      <path id="DejaVuSans-2e" d="M 684 794 
L 1344 794 
L 1344 0 
L 684 0 
L 684 794 
z
" transform="scale(0.015625)"/>
     </defs>
     <use xlink:href="#DejaVuSans-56"/>
     <use xlink:href="#DejaVuSans-65" transform="translate(60.658203 0)"/>
     <use xlink:href="#DejaVuSans-78" transform="translate(120.431641 0)"/>
     <use xlink:href="#DejaVuSans-70" transform="translate(179.611328 0)"/>
     <use xlink:href="#DejaVuSans-72" transform="translate(243.087891 0)"/>
     <use xlink:href="#DejaVuSans-6f" transform="translate(281.951172 0)"/>
     <use xlink:href="#DejaVuSans-20" transform="translate(343.132812 0)"/>
     <use xlink:href="#DejaVuSans-61" transform="translate(374.919922 0)"/>
     <use xlink:href="#DejaVuSans-72" transform="translate(436.199219 0)"/>
     <use xlink:href="#DejaVuSans-72" transform="translate(475.5625 0)"/>
     <use xlink:href="#DejaVuSans-69" transform="translate(516.675781 0)"/>
     <use xlink:href="#DejaVuSans-76" transform="translate(544.458984 0)"/>
     <use xlink:href="#DejaVuSans-65" transform="translate(603.638672 0)"/>
     <use xlink:href="#DejaVuSans-73" transform="translate(665.162109 0)"/>
     <use xlink:href="#DejaVuSans-20" transform="translate(717.261719 0)"/>
     <use xlink:href="#DejaVuSans-61" transform="translate(749.048828 0)"/>
     <use xlink:href="#DejaVuSans-66" transform="translate(810.328125 0)"/>
     <use xlink:href="#DejaVuSans-74" transform="translate(843.783203 0)"/>
     <use xlink:href="#DejaVuSans-65" transform="translate(882.992188 0)"/>
     <use xlink:href="#DejaVuSans-72" transform="translate(944.515625 0)"/>
     <use xlink:href="#DejaVuSans-20" transform="translate(985.628906 0)"/>
     <use xlink:href="#DejaVuSans-4e" transform="translate(1017.416016 0)"/>
     <use xlink:href="#DejaVuSans-65" transform="translate(1092.220703 0)"/>
     <use xlink:href="#DejaVuSans-78" transform="translate(1151.994141 0)"/>
     <use xlink:href="#DejaVuSans-6f" transform="translate(1208.048828 0)"/>
     <use xlink:href="#DejaVuSans-72" transform="translate(1269.230469 0)"/>
     <use xlink:href="#DejaVuSans-61" transform="translate(1310.34375 0)"/>
     <use xlink:href="#DejaVuSans-6c" transform="translate(1371.623047 0)"/>
     <use xlink:href="#DejaVuSans-20" transform="translate(1399.40625 0)"/>
     <use xlink:href="#DejaVuSans-73" transform="translate(1431.193359 0)"/>
     <use xlink:href="#DejaVuSans-75" transform="translate(1483.292969 0)"/>
     <use xlink:href="#DejaVuSans-70" transform="translate(1546.671875 0)"/>
     <use xlink:href="#DejaVuSans-70" transform="translate(1610.148438 0)"/>
     <use xlink:href="#DejaVuSans-6c" transform="translate(1673.625 0)"/>
     <use xlink:href="#DejaVuSans-79" transform="translate(1701.408203 0)"/>
     <use xlink:href="#DejaVuSans-20" transform="translate(1760.587891 0)"/>
     <use xlink:href="#DejaVuSans-65" transform="translate(1792.375 0)"/>
     <use xlink:href="#DejaVuSans-6e" transform="translate(1853.898438 0)"/>
     <use xlink:href="#DejaVuSans-64" transform="translate(1917.277344 0)"/>
     <use xlink:href="#DejaVuSans-73" transform="translate(1980.753906 0)"/>
     <use xlink:href="#DejaVuSans-2e" transform="translate(2032.853516 0)"/>
    </g>
   </g>
   <g id="text_19">
    <!-- PAT00839 switch example -->
    <g transform="translate(365.858047 20.117344) scale(0.17 -0.17)">
     <defs>
      <path id="DejaVuSans-50" d="M 1259 4147 
L 1259 2394 
L 2053 2394 
Q 2494 2394 2734 2622 
Q 2975 2850 2975 3272 
Q 2975 3691 2734 3919 
Q 2494 4147 2053 4147 
L 1259 4147 
z
M 628 4666 
L 2053 4666 
Q 2838 4666 3239 4311 
Q 3641 3956 3641 3272 
Q 3641 2581 3239 2228 
Q 2838 1875 2053 1875 
L 1259 1875 
L 1259 0 
L 628 0 
L 628 4666 
z
" transform="scale(0.015625)"/>
      <path id="DejaVuSans-41" d="M 2188 4044 
L 1331 1722 
L 3047 1722 
L 2188 4044 
z
M 1831 4666 
L 2547 4666 
L 4325 0 
L 3669 0 
L 3244 1197 
L 1141 1197 
L 716 0 
L 50 0 
L 1831 4666 
z
" transform="scale(0.015625)"/>
      <path id="DejaVuSans-39" d="M 703 97 
L 703 672 
Q 941 559 1184 500 
Q 1428 441 1663 441 
Q 2288 441 2617 861 
Q 2947 1281 2994 2138 
Q 2813 1869 2534 1725 
Q 2256 1581 1919 1581 
Q 1219 1581 811 2004 
Q 403 2428 403 3163 
Q 403 3881 828 4315 
Q 1253 4750 1959 4750 
Q 2769 4750 3195 4129 
Q 3622 3509 3622 2328 
Q 3622 1225 3098 567 
Q 2575 -91 1691 -91 
Q 1453 -91 1209 -44 
Q 966 3 703 97 
z
M 1959 2075 
Q 2384 2075 2632 2365 
Q 2881 2656 2881 3163 
Q 2881 3666 2632 3958 
Q 2384 4250 1959 4250 
Q 1534 4250 1286 3958 
Q 1038 3666 1038 3163 
Q 1038 2656 1286 2365 
Q 1534 2075 1959 2075 
z
" transform="scale(0.015625)"/>
     </defs>
     <use xlink:href="#DejaVuSans-50"/>
     <use xlink:href="#DejaVuSans-41" transform="translate(53.927734 0)"/>
     <use xlink:href="#DejaVuSans-54" transform="translate(114.585938 0)"/>
     <use xlink:href="#DejaVuSans-30" transform="translate(175.669922 0)"/>
     <use xlink:href="#DejaVuSans-30" transform="translate(239.292969 0)"/>
     <use xlink:href="#DejaVuSans-38" transform="translate(302.916016 0)"/>
     <use xlink:href="#DejaVuSans-33" transform="translate(366.539062 0)"/>
     <use xlink:href="#DejaVuSans-39" transform="translate(430.162109 0)"/>
     <use xlink:href="#DejaVuSans-20" transform="translate(493.785156 0)"/>
     <use xlink:href="#DejaVuSans-73" transform="translate(525.572266 0)"/>
     <use xlink:href="#DejaVuSans-77" transform="translate(577.671875 0)"/>
     <use xlink:href="#DejaVuSans-69" transform="translate(659.458984 0)"/>
     <use xlink:href="#DejaVuSans-74" transform="translate(687.242188 0)"/>
     <use xlink:href="#DejaVuSans-63" transform="translate(726.451172 0)"/>
     <use xlink:href="#DejaVuSans-68" transform="translate(781.431641 0)"/>
     <use xlink:href="#DejaVuSans-20" transform="translate(844.810547 0)"/>
     <use xlink:href="#DejaVuSans-65" transform="translate(876.597656 0)"/>
     <use xlink:href="#DejaVuSans-78" transform="translate(936.371094 0)"/>
     <use xlink:href="#DejaVuSans-61" transform="translate(995.550781 0)"/>
     <use xlink:href="#DejaVuSans-6d" transform="translate(1056.830078 0)"/>
     <use xlink:href="#DejaVuSans-70" transform="translate(1154.242188 0)"/>
     <use xlink:href="#DejaVuSans-6c" transform="translate(1217.71875 0)"/>
     <use xlink:href="#DejaVuSans-65" transform="translate(1245.501953 0)"/>
    </g>
   </g>
   <g id="text_20">
    <!-- L1 Nexoral -->
    <g style="fill: #ffffff" transform="translate(421.824219 244.156656) scale(0.11 -0.11)">
     <defs>
      <path id="DejaVuSans-Bold-4c" d="M 588 4666 
L 1791 4666 
L 1791 909 
L 3903 909 
L 3903 0 
L 588 0 
L 588 4666 
z
" transform="scale(0.015625)"/>
      <path id="DejaVuSans-Bold-31" d="M 750 831 
L 1813 831 
L 1813 3847 
L 722 3622 
L 722 4441 
L 1806 4666 
L 2950 4666 
L 2950 831 
L 4013 831 
L 4013 0 
L 750 0 
L 750 831 
z
" transform="scale(0.015625)"/>
      <path id="DejaVuSans-Bold-20" transform="scale(0.015625)"/>
     </defs>
     <use xlink:href="#DejaVuSans-Bold-4c"/>
     <use xlink:href="#DejaVuSans-Bold-31" transform="translate(63.720703 0)"/>
     <use xlink:href="#DejaVuSans-Bold-20" transform="translate(133.300781 0)"/>
     <use xlink:href="#DejaVuSans-Bold-4e" transform="translate(168.115234 0)"/>
     <use xlink:href="#DejaVuSans-Bold-65" transform="translate(251.806641 0)"/>
     <use xlink:href="#DejaVuSans-Bold-78" transform="translate(319.628906 0)"/>
     <use xlink:href="#DejaVuSans-Bold-6f" transform="translate(384.130859 0)"/>
     <use xlink:href="#DejaVuSans-Bold-72" transform="translate(452.832031 0)"/>
     <use xlink:href="#DejaVuSans-Bold-61" transform="translate(502.148438 0)"/>
     <use xlink:href="#DejaVuSans-Bold-6c" transform="translate(569.628906 0)"/>
    </g>
   </g>
   <g id="text_21">
    <!-- L2 Vexpro -->
    <g style="fill: #ffffff" transform="translate(534.863359 304.508656) scale(0.11 -0.11)">
     <defs>
      <path id="DejaVuSans-Bold-32" d="M 1844 884 
L 3897 884 
L 3897 0 
L 506 0 
L 506 884 
L 2209 2388 
Q 2438 2594 2547 2791 
Q 2656 2988 2656 3200 
Q 2656 3528 2436 3728 
Q 2216 3928 1850 3928 
Q 1569 3928 1234 3808 
Q 900 3688 519 3450 
L 519 4475 
Q 925 4609 1322 4679 
Q 1719 4750 2100 4750 
Q 2938 4750 3402 4381 
Q 3866 4013 3866 3353 
Q 3866 2972 3669 2642 
Q 3472 2313 2841 1759 
L 1844 884 
z
" transform="scale(0.015625)"/>
     </defs>
     <use xlink:href="#DejaVuSans-Bold-4c"/>
     <use xlink:href="#DejaVuSans-Bold-32" transform="translate(63.720703 0)"/>
     <use xlink:href="#DejaVuSans-Bold-20" transform="translate(133.300781 0)"/>
     <use xlink:href="#DejaVuSans-Bold-56" transform="translate(168.115234 0)"/>
     <use xlink:href="#DejaVuSans-Bold-65" transform="translate(240.007812 0)"/>
     <use xlink:href="#DejaVuSans-Bold-78" transform="translate(307.830078 0)"/>
     <use xlink:href="#DejaVuSans-Bold-70" transform="translate(372.332031 0)"/>
     <use xlink:href="#DejaVuSans-Bold-72" transform="translate(443.914062 0)"/>
     <use xlink:href="#DejaVuSans-Bold-6f" transform="translate(493.230469 0)"/>
    </g>
   </g>
   <g id="LineCollection_5">
    <path d="M 84.785625 118.908544 
L 84.785625 76.662144 
" clip-path="url(#p1536db858d)" style="fill: none; stroke: #444444; stroke-width: 1.5"/>
   </g>
   <g id="LineCollection_6">
    <path d="M 421.589375 118.908544 
L 421.589375 76.662144 
" clip-path="url(#p1536db858d)" style="fill: none; stroke: #444444; stroke-width: 1.5"/>
   </g>
   <g id="LineCollection_7">
    <path d="M 869.123125 118.908544 
L 869.123125 76.662144 
" clip-path="url(#p1536db858d)" style="fill: none; stroke: #444444; stroke-width: 1.5"/>
   </g>
   <g id="PathCollection_1">
    <defs>
     <path id="m5179291924" d="M 0 6.519202 
C 1.728913 6.519202 3.387246 5.832298 4.609772 4.609772 
C 5.832298 3.387246 6.519202 1.728913 6.519202 0 
C 6.519202 -1.728913 5.832298 -3.387246 4.609772 -4.609772 
C 3.387246 -5.832298 1.728913 -6.519202 0 -6.519202 
C -1.728913 -6.519202 -3.387246 -5.832298 -4.609772 -4.609772 
C -5.832298 -3.387246 -6.519202 -1.728913 -6.519202 0 
C -6.519202 1.728913 -5.832298 3.387246 -4.609772 4.609772 
C -3.387246 5.832298 -1.728913 6.519202 0 6.519202 
z
" style="stroke: #7ba6d0"/>
    </defs>
    <g clip-path="url(#p1536db858d)">
     <use xlink:href="#m5179291924" x="421.589375" y="165.681344" style="fill: #7ba6d0; stroke: #7ba6d0"/>
    </g>
   </g>
   <g id="PathCollection_2">
    <defs>
     <path id="m06e46dbe29" d="M 0 6.519202 
C 1.728913 6.519202 3.387246 5.832298 4.609772 4.609772 
C 5.832298 3.387246 6.519202 1.728913 6.519202 0 
C 6.519202 -1.728913 5.832298 -3.387246 4.609772 -4.609772 
C 3.387246 -5.832298 1.728913 -6.519202 0 -6.519202 
C -1.728913 -6.519202 -3.387246 -5.832298 -4.609772 -4.609772 
C -5.832298 -3.387246 -6.519202 -1.728913 -6.519202 0 
C -6.519202 1.728913 -5.832298 3.387246 -4.609772 4.609772 
C -3.387246 5.832298 -1.728913 6.519202 0 6.519202 
z
" style="stroke: #7fb685"/>
    </defs>
    <g clip-path="url(#p1536db858d)">
     <use xlink:href="#m06e46dbe29" x="500.023125" y="165.681344" style="fill: #7fb685; stroke: #7fb685"/>
    </g>
   </g>
   <g id="PathCollection_3">
    <g clip-path="url(#p1536db858d)">
     <use xlink:href="#m06e46dbe29" x="564.615625" y="165.681344" style="fill: #7fb685; stroke: #7fb685"/>
    </g>
   </g>
   <g id="text_22">
    <g id="patch_9">
     <path d="M 496.56875 217.339231 
L 558.8425 217.339231 
Q 563.7425 217.339231 563.7425 212.439231 
L 563.7425 198.889856 
Q 563.7425 193.989856 558.8425 193.989856 
L 496.56875 193.989856 
Q 491.66875 193.989856 491.66875 198.889856 
L 491.66875 212.439231 
Q 491.66875 217.339231 496.56875 217.339231 
z
" style="fill: #e0b663; stroke: #444444; stroke-width: 1.1; stroke-linejoin: miter"/>
    </g>
    <!-- SWITCH -->
    <g style="fill: #222222" transform="translate(496.56875 209.527669) scale(0.14 -0.14)">
     <defs>
      <path id="DejaVuSans-Bold-53" d="M 3834 4519 
L 3834 3531 
Q 3450 3703 3084 3790 
Q 2719 3878 2394 3878 
Q 1963 3878 1756 3759 
Q 1550 3641 1550 3391 
Q 1550 3203 1689 3098 
Q 1828 2994 2194 2919 
L 2706 2816 
Q 3484 2659 3812 2340 
Q 4141 2022 4141 1434 
Q 4141 663 3683 286 
Q 3225 -91 2284 -91 
Q 1841 -91 1394 -6 
Q 947 78 500 244 
L 500 1259 
Q 947 1022 1364 901 
Q 1781 781 2169 781 
Q 2563 781 2772 912 
Q 2981 1044 2981 1288 
Q 2981 1506 2839 1625 
Q 2697 1744 2272 1838 
L 1806 1941 
Q 1106 2091 782 2419 
Q 459 2747 459 3303 
Q 459 4000 909 4375 
Q 1359 4750 2203 4750 
Q 2588 4750 2994 4692 
Q 3400 4634 3834 4519 
z
" transform="scale(0.015625)"/>
      <path id="DejaVuSans-Bold-57" d="M 191 4666 
L 1344 4666 
L 2150 1275 
L 2950 4666 
L 4109 4666 
L 4909 1275 
L 5716 4666 
L 6859 4666 
L 5759 0 
L 4372 0 
L 3525 3547 
L 2688 0 
L 1300 0 
L 191 4666 
z
" transform="scale(0.015625)"/>
      <path id="DejaVuSans-Bold-49" d="M 588 4666 
L 1791 4666 
L 1791 0 
L 588 0 
L 588 4666 
z
" transform="scale(0.015625)"/>
      <path id="DejaVuSans-Bold-54" d="M 31 4666 
L 4331 4666 
L 4331 3756 
L 2784 3756 
L 2784 0 
L 1581 0 
L 1581 3756 
L 31 3756 
L 31 4666 
z
" transform="scale(0.015625)"/>
      <path id="DejaVuSans-Bold-43" d="M 4288 256 
Q 3956 84 3597 -3 
Q 3238 -91 2847 -91 
Q 1681 -91 1000 561 
Q 319 1213 319 2328 
Q 319 3447 1000 4098 
Q 1681 4750 2847 4750 
Q 3238 4750 3597 4662 
Q 3956 4575 4288 4403 
L 4288 3438 
Q 3953 3666 3628 3772 
Q 3303 3878 2944 3878 
Q 2300 3878 1931 3465 
Q 1563 3053 1563 2328 
Q 1563 1606 1931 1193 
Q 2300 781 2944 781 
Q 3303 781 3628 887 
Q 3953 994 4288 1222 
L 4288 256 
z
" transform="scale(0.015625)"/>
      <path id="DejaVuSans-Bold-48" d="M 588 4666 
L 1791 4666 
L 1791 2888 
L 3566 2888 
L 3566 4666 
L 4769 4666 
L 4769 0 
L 3566 0 
L 3566 1978 
L 1791 1978 
L 1791 0 
L 588 0 
L 588 4666 
z
" transform="scale(0.015625)"/>
     </defs>
     <use xlink:href="#DejaVuSans-Bold-53"/>
     <use xlink:href="#DejaVuSans-Bold-57" transform="translate(72.021484 0)"/>
     <use xlink:href="#DejaVuSans-Bold-49" transform="translate(182.324219 0)"/>
     <use xlink:href="#DejaVuSans-Bold-54" transform="translate(219.53125 0)"/>
     <use xlink:href="#DejaVuSans-Bold-43" transform="translate(287.744141 0)"/>
     <use xlink:href="#DejaVuSans-Bold-48" transform="translate(361.132812 0)"/>
    </g>
   </g>
   <g id="text_23">
    <g id="patch_10">
     <path d="M 783.829687 313.148031 
L 903.665312 313.148031 
Q 908.565312 313.148031 908.565312 308.248031 
L 908.565312 294.698656 
Q 908.565312 289.798656 903.665312 289.798656 
L 783.829687 289.798656 
Q 778.929687 289.798656 778.929687 294.698656 
L 778.929687 308.248031 
Q 778.929687 313.148031 783.829687 313.148031 
z
" style="fill: #d97b6c; stroke: #444444; stroke-width: 1.1; stroke-linejoin: miter"/>
    </g>
    <!-- DISCONTINUED -->
    <g style="fill: #ffffff" transform="translate(783.829687 305.336469) scale(0.14 -0.14)">
     <defs>
      <path id="DejaVuSans-Bold-44" d="M 1791 3756 
L 1791 909 
L 2222 909 
Q 2959 909 3348 1275 
Q 3738 1641 3738 2338 
Q 3738 3031 3350 3393 
Q 2963 3756 2222 3756 
L 1791 3756 
z
M 588 4666 
L 1856 4666 
Q 2919 4666 3439 4514 
Q 3959 4363 4331 4000 
Q 4659 3684 4818 3271 
Q 4978 2859 4978 2338 
Q 4978 1809 4818 1395 
Q 4659 981 4331 666 
Q 3956 303 3431 151 
Q 2906 0 1856 0 
L 588 0 
L 588 4666 
z
" transform="scale(0.015625)"/>
      <path id="DejaVuSans-Bold-4f" d="M 2719 3878 
Q 2169 3878 1866 3472 
Q 1563 3066 1563 2328 
Q 1563 1594 1866 1187 
Q 2169 781 2719 781 
Q 3272 781 3575 1187 
Q 3878 1594 3878 2328 
Q 3878 3066 3575 3472 
Q 3272 3878 2719 3878 
z
M 2719 4750 
Q 3844 4750 4481 4106 
Q 5119 3463 5119 2328 
Q 5119 1197 4481 553 
Q 3844 -91 2719 -91 
Q 1597 -91 958 553 
Q 319 1197 319 2328 
Q 319 3463 958 4106 
Q 1597 4750 2719 4750 
z
" transform="scale(0.015625)"/>
      <path id="DejaVuSans-Bold-55" d="M 588 4666 
L 1791 4666 
L 1791 1869 
Q 1791 1291 1980 1042 
Q 2169 794 2597 794 
Q 3028 794 3217 1042 
Q 3406 1291 3406 1869 
L 3406 4666 
L 4609 4666 
L 4609 1869 
Q 4609 878 4112 393 
Q 3616 -91 2597 -91 
Q 1581 -91 1084 393 
Q 588 878 588 1869 
L 588 4666 
z
" transform="scale(0.015625)"/>
      <path id="DejaVuSans-Bold-45" d="M 588 4666 
L 3834 4666 
L 3834 3756 
L 1791 3756 
L 1791 2888 
L 3713 2888 
L 3713 1978 
L 1791 1978 
L 1791 909 
L 3903 909 
L 3903 0 
L 588 0 
L 588 4666 
z
" transform="scale(0.015625)"/>
     </defs>
     <use xlink:href="#DejaVuSans-Bold-44"/>
     <use xlink:href="#DejaVuSans-Bold-49" transform="translate(83.007812 0)"/>
     <use xlink:href="#DejaVuSans-Bold-53" transform="translate(120.214844 0)"/>
     <use xlink:href="#DejaVuSans-Bold-43" transform="translate(192.236328 0)"/>
     <use xlink:href="#DejaVuSans-Bold-4f" transform="translate(265.625 0)"/>
     <use xlink:href="#DejaVuSans-Bold-4e" transform="translate(350.634766 0)"/>
     <use xlink:href="#DejaVuSans-Bold-54" transform="translate(434.326172 0)"/>
     <use xlink:href="#DejaVuSans-Bold-49" transform="translate(502.539062 0)"/>
     <use xlink:href="#DejaVuSans-Bold-4e" transform="translate(539.746094 0)"/>
     <use xlink:href="#DejaVuSans-Bold-55" transform="translate(623.4375 0)"/>
     <use xlink:href="#DejaVuSans-Bold-45" transform="translate(704.638672 0)"/>
     <use xlink:href="#DejaVuSans-Bold-44" transform="translate(772.949219 0)"/>
    </g>
   </g>
  </g>
 </g>
 <defs>
  <clipPath id="p1536db858d">
   <rect x="61.716875" y="26.117344" width="830.475" height="324.392"/>
  </clipPath>
 </defs>
</svg>
