<?xml version="1.0" encoding="utf-8" standalone="no"?>
<!DOCTYPE svg PUBLIC "-//W3C//DTD SVG 1.1//EN"
  "http://www.w3.org/Graphics/SVG/1.1/DTD/svg11.dtd">
<svg xmlns:xlink="http://www.w3.org/1999/xlink" width="913.955938pt" height="355.348437pt" viewBox="0 0 913.955938 355.348437" xmlns="http://www.w3.org/2000/svg" version="1.1">
 <metadata>
  <rdf:RDF xmlns:dc="http://purl.org/dc/elements/1.1/" xmlns:cc="http://creativecommons.org/ns#" xmlns:rdf="http://www.w3.org/1999/02/22-rdf-syntax-ns#">
   <cc:Work>
    <dc:type rdf:resource="http://purl.org/dc/dcmitype/StillImage"/>
    <dc:date>2026-06-18T23:09:07.514169</dc:date>
    <dc:format>image/svg+xml</dc:format>
    <dc:creator>
     <cc:Agent>
      <dc:title>Matplotlib v3.10.9, https://matplotlib.org/</dc:title>
     </cc:Agent>
    </dc:creator>
   </cc:Work>
  </rdf:RDF>
 </metadata>
 <defs>
  <style type="text/css">*{stroke-linejoin: round; stroke-linecap: butt}</style>
 </defs>
 <g id="figure_1">
  <g id="patch_1">
   <path d="M 0 355.348437 
L 913.955938 355.348437 
L 913.955938 0 
L 0 0 
z
" style="fill: #ffffff"/>
  </g>
  <g id="axes_1">
   <g id="patch_2">
    <path d="M 42.190938 318.76 
L 291.722604 318.76 
L 291.722604 49.92 
L 42.190938 49.92 
z
" style="fill: #ffffff"/>
   </g>
   <g id="FillBetweenPolyCollection_1">
    <defs>
     <path id="mcdba353834" d="M 42.190938 -300.157065 
L 42.190938 -300.157065 
L 78.964025 -300.157065 
L 78.964025 -255.696842 
L 81.590674 -255.696842 
L 81.590674 -248.226837 
L 89.470622 -248.226837 
L 89.470622 -248.124674 
L 90.783946 -248.124674 
L 90.783946 -248.022519 
L 92.097271 -248.022519 
L 92.097271 -248.022519 
L 105.230516 -248.022519 
L 105.230516 -247.818137 
L 110.483815 -247.818137 
L 110.483815 -247.818137 
L 111.797139 -247.818137 
L 111.797139 -245.366923 
L 113.110464 -245.366923 
L 113.110464 -242.990781 
L 114.423788 -242.990781 
L 114.423788 -240.161394 
L 115.737113 -240.161394 
L 115.737113 -238.243764 
L 117.050438 -238.243764 
L 117.050438 -235.647019 
L 118.363762 -235.647019 
L 118.363762 -232.23288 
L 119.677087 -232.23288 
L 119.677087 -229.993949 
L 120.990411 -229.993949 
L 120.990411 -224.72559 
L 122.303736 -224.72559 
L 122.303736 -221.520555 
L 123.61706 -221.520555 
L 123.61706 -217.997052 
L 124.930385 -217.997052 
L 124.930385 -215.642206 
L 126.243709 -215.642206 
L 126.243709 -212.838337 
L 127.557034 -212.838337 
L 127.557034 -212.57707 
L 128.870359 -212.57707 
L 128.870359 -212.57707 
L 130.183683 -212.57707 
L 130.183683 -212.051153 
L 131.497008 -212.051153 
L 131.497008 -211.260229 
L 132.810332 -211.260229 
L 132.810332 -210.863114 
L 134.123657 -210.863114 
L 134.123657 -210.465191 
L 142.003604 -210.465191 
L 142.003604 -210.332368 
L 143.316929 -210.332368 
L 143.316929 -210.332368 
L 144.630253 -210.332368 
L 144.630253 -210.332368 
L 145.943578 -210.332368 
L 145.943578 -209.799152 
L 147.256902 -209.799152 
L 147.256902 -208.997186 
L 148.570227 -208.997186 
L 148.570227 -207.921008 
L 149.883552 -207.921008 
L 149.883552 -207.515076 
L 151.196876 -207.515076 
L 151.196876 -206.01327 
L 152.510201 -206.01327 
L 152.510201 -204.64145 
L 153.823525 -204.64145 
L 153.823525 -203.39764 
L 155.13685 -203.39764 
L 155.13685 -201.722656 
L 156.450174 -201.722656 
L 156.450174 -200.023546 
L 157.763499 -200.023546 
L 157.763499 -198.012136 
L 159.076823 -198.012136 
L 159.076823 -196.249309 
L 160.390148 -196.249309 
L 160.390148 -191.017771 
L 161.703473 -191.017771 
L 161.703473 -189.432814 
L 163.016797 -189.432814 
L 163.016797 -185.410983 
L 164.330122 -185.410983 
L 164.330122 -181.977722 
L 165.643446 -181.977722 
L 165.643446 -178.831985 
L 166.956771 -178.831985 
L 166.956771 -175.962707 
L 168.270095 -175.962707 
L 168.270095 -174.758012 
L 169.58342 -174.758012 
L 169.58342 -174.230192 
L 170.896745 -174.230192 
L 170.896745 -172.623258 
L 172.210069 -172.623258 
L 172.210069 -171.001072 
L 173.523394 -171.001072 
L 173.523394 -170.636929 
L 174.836718 -170.636929 
L 174.836718 -169.720759 
L 176.150043 -169.720759 
L 176.150043 -168.796279 
L 177.463367 -168.796279 
L 177.463367 -168.424576 
L 178.776692 -168.424576 
L 178.776692 -167.495736 
L 180.090016 -167.495736 
L 180.090016 -167.123311 
L 181.403341 -167.123311 
L 181.403341 -166.563257 
L 182.716666 -166.563257 
L 182.716666 -166.003417 
L 184.02999 -166.003417 
L 184.02999 -165.816583 
L 185.343315 -165.816583 
L 185.343315 -165.441361 
L 186.656639 -165.441361 
L 186.656639 -164.126931 
L 187.969964 -164.126931 
L 187.969964 -163.371921 
L 189.283288 -163.371921 
L 189.283288 -162.802535 
L 190.596613 -162.802535 
L 190.596613 -162.227333 
L 191.909938 -162.227333 
L 191.909938 -161.647951 
L 193.223262 -161.647951 
L 193.223262 -160.084834 
L 194.536587 -160.084834 
L 194.536587 -159.689334 
L 195.849911 -159.689334 
L 195.849911 -158.06157 
L 197.163236 -158.06157 
L 197.163236 -156.198532 
L 198.47656 -156.198532 
L 198.47656 -154.084254 
L 199.789885 -154.084254 
L 199.789885 -151.919198 
L 201.103209 -151.919198 
L 201.103209 -149.040383 
L 202.416534 -149.040383 
L 202.416534 -146.749813 
L 203.729859 -146.749813 
L 203.729859 -144.160452 
L 205.043183 -144.160452 
L 205.043183 -142.213232 
L 206.356508 -142.213232 
L 206.356508 -140.209863 
L 207.669832 -140.209863 
L 207.669832 -138.135644 
L 208.983157 -138.135644 
L 208.983157 -137.050595 
L 210.296481 -137.050595 
L 210.296481 -135.058716 
L 211.609806 -135.058716 
L 211.609806 -134.178667 
L 212.92313 -134.178667 
L 212.92313 -132.682735 
L 214.236455 -132.682735 
L 214.236455 -132.374339 
L 215.54978 -132.374339 
L 215.54978 -131.75194 
L 216.863104 -131.75194 
L 216.863104 -130.784759 
L 218.176429 -130.784759 
L 218.176429 -129.497151 
L 219.489753 -129.497151 
L 219.489753 -128.849728 
L 220.803078 -128.849728 
L 220.803078 -127.865953 
L 222.116402 -127.865953 
L 222.116402 -127.865953 
L 223.429727 -127.865953 
L 223.429727 -127.19895 
L 224.743052 -127.19895 
L 224.743052 -126.525187 
L 226.056376 -126.525187 
L 226.056376 -126.186024 
L 227.369701 -126.186024 
L 227.369701 -125.157939 
L 228.683025 -125.157939 
L 228.683025 -124.131366 
L 229.99635 -124.131366 
L 229.99635 -123.43431 
L 231.309674 -123.43431 
L 231.309674 -122.38168 
L 232.622999 -122.38168 
L 232.622999 -121.322082 
L 233.936323 -121.322082 
L 233.936323 -120.250864 
L 235.249648 -120.250864 
L 235.249648 -119.5191 
L 236.562973 -119.5191 
L 236.562973 -117.218484 
L 237.876297 -117.218484 
L 237.876297 -115.63761 
L 239.189622 -115.63761 
L 239.189622 -114.021097 
L 240.502946 -114.021097 
L 240.502946 -113.609177 
L 241.816271 -113.609177 
L 241.816271 -111.049649 
L 243.129595 -111.049649 
L 243.129595 -109.259269 
L 244.44292 -109.259269 
L 244.44292 -105.962328 
L 245.756245 -105.962328 
L 245.756245 -103.983335 
L 247.069569 -103.983335 
L 247.069569 -102.438113 
L 248.382894 -102.438113 
L 248.382894 -99.242665 
L 249.696218 -99.242665 
L 249.696218 -94.876982 
L 251.009543 -94.876982 
L 251.009543 -92.630282 
L 252.322867 -92.630282 
L 252.322867 -92.630282 
L 253.636192 -92.630282 
L 253.636192 -90.688419 
L 254.949516 -90.688419 
L 254.949516 -88.588319 
L 256.262841 -88.588319 
L 256.262841 -86.389862 
L 257.576166 -86.389862 
L 257.576166 -85.605249 
L 258.88949 -85.605249 
L 258.88949 -83.967981 
L 260.202815 -83.967981 
L 260.202815 -83.967981 
L 261.516139 -83.967981 
L 261.516139 -83.079883 
L 262.829464 -83.079883 
L 262.829464 -82.195734 
L 264.142788 -82.195734 
L 264.142788 -81.281329 
L 266.769438 -81.281329 
L 266.769438 -81.281329 
L 268.082762 -81.281329 
L 268.082762 -81.281329 
L 274.649385 -81.281329 
L 274.649385 -81.281329 
L 275.962709 -81.281329 
L 275.962709 -80.272262 
L 277.276034 -80.272262 
L 277.276034 -79.222927 
L 278.589359 -79.222927 
L 278.589359 -79.222927 
L 279.902683 -79.222927 
L 279.902683 -79.222927 
L 281.216008 -79.222927 
L 281.216008 -78.042551 
L 282.529332 -78.042551 
L 282.529332 -75.509472 
L 283.842657 -75.509472 
L 283.842657 -74.180607 
L 285.155981 -74.180607 
L 285.155981 -72.722107 
L 287.78263 -72.722107 
L 287.78263 -72.722107 
L 289.095955 -72.722107 
L 289.095955 -72.722107 
L 290.40928 -72.722107 
L 290.40928 -72.722107 
L 291.722604 -72.722107 
L 291.722604 -70.174957 
L 293.035929 -70.174957 
L 293.035929 -70.174957 
L 298.289227 -70.174957 
L 298.289227 -70.174957 
L 300.915876 -70.174957 
L 300.915876 -70.174957 
L 358.702157 -70.174957 
L 358.702157 -70.174957 
L 361.328806 -70.174957 
L 361.328806 -70.174957 
L 362.64213 -70.174957 
L 362.64213 -65.882757 
L 366.582104 -65.882757 
L 366.582104 -65.882757 
L 379.71535 -65.882757 
L 379.71535 -65.882757 
L 396.788569 -65.882757 
L 396.788569 -65.882757 
L 398.101894 -65.882757 
L 398.101894 -65.882757 
L 402.041867 -65.882757 
L 402.041867 -65.882757 
L 403.355192 -65.882757 
L 403.355192 -65.882757 
L 404.668516 -65.882757 
L 404.668516 -65.882757 
L 407.295166 -65.882757 
L 407.295166 -65.882757 
L 412.548464 -65.882757 
L 412.548464 -65.882757 
L 520.241078 -65.882757 
L 520.241078 -65.882757 
L 520.241078 -86.898459 
L 520.241078 -86.898459 
L 520.241078 -86.898459 
L 412.548464 -86.898459 
L 412.548464 -86.898459 
L 407.295166 -86.898459 
L 407.295166 -86.898459 
L 404.668516 -86.898459 
L 404.668516 -86.898459 
L 403.355192 -86.898459 
L 403.355192 -86.898459 
L 402.041867 -86.898459 
L 402.041867 -86.898459 
L 398.101894 -86.898459 
L 398.101894 -86.898459 
L 396.788569 -86.898459 
L 396.788569 -86.898459 
L 379.71535 -86.898459 
L 379.71535 -86.898459 
L 366.582104 -86.898459 
L 366.582104 -86.898459 
L 362.64213 -86.898459 
L 362.64213 -88.70057 
L 361.328806 -88.70057 
L 361.328806 -88.70057 
L 358.702157 -88.70057 
L 358.702157 -88.70057 
L 300.915876 -88.70057 
L 300.915876 -88.70057 
L 298.289227 -88.70057 
L 298.289227 -88.70057 
L 293.035929 -88.70057 
L 293.035929 -88.70057 
L 291.722604 -88.70057 
L 291.722604 -90.229166 
L 290.40928 -90.229166 
L 290.40928 -90.229166 
L 289.095955 -90.229166 
L 289.095955 -90.229166 
L 287.78263 -90.229166 
L 287.78263 -90.229166 
L 285.155981 -90.229166 
L 285.155981 -91.407143 
L 283.842657 -91.407143 
L 283.842657 -92.507413 
L 282.529332 -92.507413 
L 282.529332 -94.59838 
L 281.216008 -94.59838 
L 281.216008 -95.580159 
L 279.902683 -95.580159 
L 279.902683 -95.580159 
L 278.589359 -95.580159 
L 278.589359 -95.580159 
L 277.276034 -95.580159 
L 277.276034 -96.484945 
L 275.962709 -96.484945 
L 275.962709 -97.35923 
L 274.649385 -97.35923 
L 274.649385 -97.35923 
L 268.082762 -97.35923 
L 268.082762 -97.35923 
L 266.769438 -97.35923 
L 266.769438 -97.35923 
L 264.142788 -97.35923 
L 264.142788 -98.173634 
L 262.829464 -98.173634 
L 262.829464 -98.96443 
L 261.516139 -98.96443 
L 261.516139 -99.751651 
L 260.202815 -99.751651 
L 260.202815 -99.751651 
L 258.88949 -99.751651 
L 258.88949 -101.229004 
L 257.576166 -101.229004 
L 257.576166 -101.94037 
L 256.262841 -101.94037 
L 256.262841 -103.956323 
L 254.949516 -103.956323 
L 254.949516 -105.882044 
L 253.636192 -105.882044 
L 253.636192 -107.681485 
L 252.322867 -107.681485 
L 252.322867 -107.681485 
L 251.009543 -107.681485 
L 251.009543 -109.820241 
L 249.696218 -109.820241 
L 249.696218 -113.944921 
L 248.382894 -113.944921 
L 248.382894 -116.932016 
L 247.069569 -116.932016 
L 247.069569 -118.373324 
L 245.756245 -118.373324 
L 245.756245 -120.223352 
L 244.44292 -120.223352 
L 244.44292 -123.308603 
L 243.129595 -123.308603 
L 243.129595 -124.986986 
L 241.816271 -124.986986 
L 241.816271 -127.392976 
L 240.502946 -127.392976 
L 240.502946 -127.781058 
L 239.189622 -127.781058 
L 239.189622 -129.305054 
L 237.876297 -129.305054 
L 237.876297 -130.794721 
L 236.562973 -130.794721 
L 236.562973 -132.96289 
L 235.249648 -132.96289 
L 235.249648 -133.655632 
L 233.936323 -133.655632 
L 233.936323 -134.671825 
L 232.622999 -134.671825 
L 232.622999 -135.676159 
L 231.309674 -135.676159 
L 231.309674 -136.672318 
L 229.99635 -136.672318 
L 229.99635 -137.331268 
L 228.683025 -137.331268 
L 228.683025 -138.302756 
L 227.369701 -138.302756 
L 227.369701 -139.272861 
L 226.056376 -139.272861 
L 226.056376 -139.592923 
L 224.743052 -139.592923 
L 224.743052 -140.228684 
L 223.429727 -140.228684 
L 223.429727 -140.85812 
L 222.116402 -140.85812 
L 222.116402 -140.85812 
L 220.803078 -140.85812 
L 220.803078 -141.787322 
L 219.489753 -141.787322 
L 219.489753 -142.398978 
L 218.176429 -142.398978 
L 218.176429 -143.613781 
L 216.863104 -143.613781 
L 216.863104 -144.523535 
L 215.54978 -144.523535 
L 215.54978 -145.111383 
L 214.236455 -145.111383 
L 214.236455 -145.402786 
L 212.92313 -145.402786 
L 212.92313 -146.820518 
L 211.609806 -146.820518 
L 211.609806 -147.655051 
L 210.296481 -147.655051 
L 210.296481 -149.547361 
L 208.983157 -149.547361 
L 208.983157 -150.582573 
L 207.669832 -150.582573 
L 207.669832 -152.569038 
L 206.356508 -152.569038 
L 206.356508 -154.490335 
L 205.043183 -154.490335 
L 205.043183 -156.358984 
L 203.729859 -156.358984 
L 203.729859 -158.84612 
L 202.416534 -158.84612 
L 202.416534 -161.04587 
L 201.103209 -161.04587 
L 201.103209 -163.81201 
L 199.789885 -163.81201 
L 199.789885 -165.890629 
L 198.47656 -165.890629 
L 198.47656 -167.920364 
L 197.163236 -167.920364 
L 197.163236 -169.708631 
L 195.849911 -169.708631 
L 195.849911 -171.270623 
L 194.536587 -171.270623 
L 194.536587 -171.650944 
L 193.223262 -171.650944 
L 193.223262 -173.154322 
L 191.909938 -173.154322 
L 191.909938 -173.711561 
L 190.596613 -173.711561 
L 190.596613 -174.264846 
L 189.283288 -174.264846 
L 189.283288 -174.812796 
L 187.969964 -174.812796 
L 187.969964 -175.539248 
L 186.656639 -175.539248 
L 186.656639 -176.803089 
L 185.343315 -176.803089 
L 185.343315 -177.163524 
L 184.02999 -177.163524 
L 184.02999 -177.343019 
L 182.716666 -177.343019 
L 182.716666 -177.88069 
L 181.403341 -177.88069 
L 181.403341 -178.418163 
L 180.090016 -178.418163 
L 180.090016 -178.775468 
L 178.776692 -178.775468 
L 178.776692 -179.666116 
L 177.463367 -179.666116 
L 177.463367 -180.022222 
L 176.150043 -180.022222 
L 176.150043 -180.907718 
L 174.836718 -180.907718 
L 174.836718 -181.785159 
L 173.523394 -181.785159 
L 173.523394 -182.133885 
L 172.210069 -182.133885 
L 172.210069 -183.687289 
L 170.896745 -183.687289 
L 170.896745 -185.224677 
L 169.58342 -185.224677 
L 169.58342 -185.729837 
L 168.270095 -185.729837 
L 168.270095 -186.884487 
L 166.956771 -186.884487 
L 166.956771 -189.633978 
L 165.643446 -189.633978 
L 165.643446 -192.64424 
L 164.330122 -192.64424 
L 164.330122 -195.921597 
L 163.016797 -195.921597 
L 163.016797 -199.750699 
L 161.703473 -199.750699 
L 161.703473 -201.257101 
L 160.390148 -201.257101 
L 160.390148 -206.241285 
L 159.076823 -206.241285 
L 159.076823 -207.91716 
L 157.763499 -207.91716 
L 157.763499 -209.829714 
L 156.450174 -209.829714 
L 156.450174 -211.444392 
L 155.13685 -211.444392 
L 155.13685 -213.03548 
L 153.823525 -213.03548 
L 153.823525 -214.216266 
L 152.510201 -214.216266 
L 152.510201 -215.517651 
L 151.196876 -215.517651 
L 151.196876 -216.940731 
L 149.883552 -216.940731 
L 149.883552 -217.325318 
L 148.570227 -217.325318 
L 148.570227 -218.344656 
L 147.256902 -218.344656 
L 147.256902 -219.10395 
L 145.943578 -219.10395 
L 145.943578 -219.608547 
L 144.630253 -219.608547 
L 144.630253 -219.608547 
L 143.316929 -219.608547 
L 143.316929 -219.608547 
L 142.003604 -219.608547 
L 142.003604 -219.734238 
L 134.123657 -219.734238 
L 134.123657 -220.110737 
L 132.810332 -220.110737 
L 132.810332 -220.486376 
L 131.497008 -220.486376 
L 131.497008 -221.234335 
L 130.183683 -221.234335 
L 130.183683 -221.731437 
L 128.870359 -221.731437 
L 128.870359 -221.731437 
L 127.557034 -221.731437 
L 127.557034 -221.978438 
L 126.243709 -221.978438 
L 126.243709 -224.631213 
L 124.930385 -224.631213 
L 124.930385 -226.858876 
L 123.61706 -226.858876 
L 123.61706 -230.187603 
L 122.303736 -230.187603 
L 122.303736 -233.210766 
L 120.990411 -233.210766 
L 120.990411 -238.173264 
L 119.677087 -238.173264 
L 119.677087 -240.277519 
L 118.363762 -240.277519 
L 118.363762 -243.480355 
L 117.050438 -243.480355 
L 117.050438 -245.911412 
L 115.737113 -245.911412 
L 115.737113 -247.704176 
L 114.423788 -247.704176 
L 114.423788 -250.345306 
L 113.110464 -250.345306 
L 113.110464 -252.55856 
L 111.797139 -252.55856 
L 111.797139 -254.836475 
L 110.483815 -254.836475 
L 110.483815 -254.836475 
L 105.230516 -254.836475 
L 105.230516 -255.026022 
L 92.097271 -255.026022 
L 92.097271 -255.026022 
L 90.783946 -255.026022 
L 90.783946 -255.120743 
L 89.470622 -255.120743 
L 89.470622 -255.215457 
L 81.590674 -255.215457 
L 81.590674 -262.117328 
L 78.964025 -262.117328 
L 78.964025 -300.157065 
L 42.190938 -300.157065 
z
" style="stroke: #7fb685; stroke-opacity: 0.18"/>
    </defs>
    <g clip-path="url(#p1129eeb6ef)">
     <use xlink:href="#mcdba353834" x="0" y="355.348437" style="fill: #7fb685; fill-opacity: 0.18; stroke: #7fb685; stroke-opacity: 0.18"/>
    </g>
   </g>
   <g id="matplotlib.axis_1">
    <g id="xtick_1">
     <g id="line2d_1">
      <defs>
       <path id="mc537f73e35" d="M 0 0 
L 0 3.5 
" style="stroke: #000000; stroke-width: 0.8"/>
      </defs>
      <g>
       <use xlink:href="#mc537f73e35" x="42.190938" y="318.76" style="stroke: #000000; stroke-width: 0.8"/>
      </g>
     </g>
     <g id="text_1">
      <!-- 0 -->
      <g transform="translate(39.327813 332.598594) scale(0.09 -0.09)">
       <defs>
        <path id="DejaVuSans-30" d="M 2034 4250 
Q 1547 4250 1301 3770 
Q 1056 3291 1056 2328 
Q 1056 1369 1301 889 
Q 1547 409 2034 409 
Q 2525 409 2770 889 
Q 3016 1369 3016 2328 
Q 3016 3291 2770 3770 
Q 2525 4250 2034 4250 
z
M 2034 4750 
Q 2819 4750 3233 4129 
Q 3647 3509 3647 2328 
Q 3647 1150 3233 529 
Q 2819 -91 2034 -91 
Q 1250 -91 836 529 
Q 422 1150 422 2328 
Q 422 3509 836 4129 
Q 1250 4750 2034 4750 
z
" transform="scale(0.015625)"/>
       </defs>
       <use xlink:href="#DejaVuSans-30"/>
      </g>
     </g>
    </g>
    <g id="xtick_2">
     <g id="line2d_2">
      <g>
       <use xlink:href="#mc537f73e35" x="75.024052" y="318.76" style="stroke: #000000; stroke-width: 0.8"/>
      </g>
     </g>
     <g id="text_2">
      <!-- 25 -->
      <g transform="translate(69.297802 332.598594) scale(0.09 -0.09)">
       <defs>
        <path id="DejaVuSans-32" d="M 1228 531 
L 3431 531 
L 3431 0 
L 469 0 
L 469 531 
Q 828 903 1448 1529 
Q 2069 2156 2228 2338 
Q 2531 2678 2651 2914 
Q 2772 3150 2772 3378 
Q 2772 3750 2511 3984 
Q 2250 4219 1831 4219 
Q 1534 4219 1204 4116 
Q 875 4013 500 3803 
L 500 4441 
Q 881 4594 1212 4672 
Q 1544 4750 1819 4750 
Q 2544 4750 2975 4387 
Q 3406 4025 3406 3419 
Q 3406 3131 3298 2873 
Q 3191 2616 2906 2266 
Q 2828 2175 2409 1742 
Q 1991 1309 1228 531 
z
" transform="scale(0.015625)"/>
        <path id="DejaVuSans-35" d="M 691 4666 
L 3169 4666 
L 3169 4134 
L 1269 4134 
L 1269 2991 
Q 1406 3038 1543 3061 
Q 1681 3084 1819 3084 
Q 2600 3084 3056 2656 
Q 3513 2228 3513 1497 
Q 3513 744 3044 326 
Q 2575 -91 1722 -91 
Q 1428 -91 1123 -41 
Q 819 9 494 109 
L 494 744 
Q 775 591 1075 516 
Q 1375 441 1709 441 
Q 2250 441 2565 725 
Q 2881 1009 2881 1497 
Q 2881 1984 2565 2268 
Q 2250 2553 1709 2553 
Q 1456 2553 1204 2497 
Q 953 2441 691 2322 
L 691 4666 
z
" transform="scale(0.015625)"/>
       </defs>
       <use xlink:href="#DejaVuSans-32"/>
       <use xlink:href="#DejaVuSans-35" transform="translate(63.623047 0)"/>
      </g>
     </g>
    </g>
    <g id="xtick_3">
     <g id="line2d_3">
      <g>
       <use xlink:href="#mc537f73e35" x="107.857166" y="318.76" style="stroke: #000000; stroke-width: 0.8"/>
      </g>
     </g>
     <g id="text_3">
      <!-- 50 -->
      <g transform="translate(102.130916 332.598594) scale(0.09 -0.09)">
       <use xlink:href="#DejaVuSans-35"/>
       <use xlink:href="#DejaVuSans-30" transform="translate(63.623047 0)"/>
      </g>
     </g>
    </g>
    <g id="xtick_4">
     <g id="line2d_4">
      <g>
       <use xlink:href="#mc537f73e35" x="140.69028" y="318.76" style="stroke: #000000; stroke-width: 0.8"/>
      </g>
     </g>
     <g id="text_4">
      <!-- 75 -->
      <g transform="translate(134.96403 332.598594) scale(0.09 -0.09)">
       <defs>
        <path id="DejaVuSans-37" d="M 525 4666 
L 3525 4666 
L 3525 4397 
L 1831 0 
L 1172 0 
L 2766 4134 
L 525 4134 
L 525 4666 
z
" transform="scale(0.015625)"/>
       </defs>
       <use xlink:href="#DejaVuSans-37"/>
       <use xlink:href="#DejaVuSans-35" transform="translate(63.623047 0)"/>
      </g>
     </g>
    </g>
    <g id="xtick_5">
     <g id="line2d_5">
      <g>
       <use xlink:href="#mc537f73e35" x="173.523394" y="318.76" style="stroke: #000000; stroke-width: 0.8"/>
      </g>
     </g>
     <g id="text_5">
      <!-- 100 -->
      <g transform="translate(164.934019 332.598594) scale(0.09 -0.09)">
       <defs>
        <path id="DejaVuSans-31" d="M 794 531 
L 1825 531 
L 1825 4091 
L 703 3866 
L 703 4441 
L 1819 4666 
L 2450 4666 
L 2450 531 
L 3481 531 
L 3481 0 
L 794 0 
L 794 531 
z
" transform="scale(0.015625)"/>
       </defs>
       <use xlink:href="#DejaVuSans-31"/>
       <use xlink:href="#DejaVuSans-30" transform="translate(63.623047 0)"/>
       <use xlink:href="#DejaVuSans-30" transform="translate(127.246094 0)"/>
      </g>
     </g>
    </g>
    <g id="xtick_6">
     <g id="line2d_6">
      <g>
       <use xlink:href="#mc537f73e35" x="206.356508" y="318.76" style="stroke: #000000; stroke-width: 0.8"/>
      </g>
     </g>
     <g id="text_6">
      <!-- 125 -->
      <g transform="translate(197.767133 332.598594) scale(0.09 -0.09)">
       <use xlink:href="#DejaVuSans-31"/>
       <use xlink:href="#DejaVuSans-32" transform="translate(63.623047 0)"/>
       <use xlink:href="#DejaVuSans-35" transform="translate(127.246094 0)"/>
      </g>
     </g>
    </g>
    <g id="xtick_7">
     <g id="line2d_7">
      <g>
       <use xlink:href="#mc537f73e35" x="239.189622" y="318.76" style="stroke: #000000; stroke-width: 0.8"/>
      </g>
     </g>
     <g id="text_7">
      <!-- 150 -->
      <g transform="translate(230.600247 332.598594) scale(0.09 -0.09)">
       <use xlink:href="#DejaVuSans-31"/>
       <use xlink:href="#DejaVuSans-35" transform="translate(63.623047 0)"/>
       <use xlink:href="#DejaVuSans-30" transform="translate(127.246094 0)"/>
      </g>
     </g>
    </g>
    <g id="xtick_8">
     <g id="line2d_8">
      <g>
       <use xlink:href="#mc537f73e35" x="272.022736" y="318.76" style="stroke: #000000; stroke-width: 0.8"/>
      </g>
     </g>
     <g id="text_8">
      <!-- 175 -->
      <g transform="translate(263.433361 332.598594) scale(0.09 -0.09)">
       <use xlink:href="#DejaVuSans-31"/>
       <use xlink:href="#DejaVuSans-37" transform="translate(63.623047 0)"/>
       <use xlink:href="#DejaVuSans-35" transform="translate(127.246094 0)"/>
      </g>
     </g>
    </g>
    <g id="text_9">
     <!-- Days from first fill -->
     <g transform="translate(122.381771 346.06875) scale(0.1 -0.1)">
      <defs>
       <path id="DejaVuSans-44" d="M 1259 4147 
L 1259 519 
L 2022 519 
Q 2988 519 3436 956 
Q 3884 1394 3884 2338 
Q 3884 3275 3436 3711 
Q 2988 4147 2022 4147 
L 1259 4147 
z
M 628 4666 
L 1925 4666 
Q 3281 4666 3915 4102 
Q 4550 3538 4550 2338 
Q 4550 1131 3912 565 
Q 3275 0 1925 0 
L 628 0 
L 628 4666 
z
" transform="scale(0.015625)"/>
       <path id="DejaVuSans-61" d="M 2194 1759 
Q 1497 1759 1228 1600 
Q 959 1441 959 1056 
Q 959 750 1161 570 
Q 1363 391 1709 391 
Q 2188 391 2477 730 
Q 2766 1069 2766 1631 
L 2766 1759 
L 2194 1759 
z
M 3341 1997 
L 3341 0 
L 2766 0 
L 2766 531 
Q 2569 213 2275 61 
Q 1981 -91 1556 -91 
Q 1019 -91 701 211 
Q 384 513 384 1019 
Q 384 1609 779 1909 
Q 1175 2209 1959 2209 
L 2766 2209 
L 2766 2266 
Q 2766 2663 2505 2880 
Q 2244 3097 1772 3097 
Q 1472 3097 1187 3025 
Q 903 2953 641 2809 
L 641 3341 
Q 956 3463 1253 3523 
Q 1550 3584 1831 3584 
Q 2591 3584 2966 3190 
Q 3341 2797 3341 1997 
z
" transform="scale(0.015625)"/>
       <path id="DejaVuSans-79" d="M 2059 -325 
Q 1816 -950 1584 -1140 
Q 1353 -1331 966 -1331 
L 506 -1331 
L 506 -850 
L 844 -850 
Q 1081 -850 1212 -737 
Q 1344 -625 1503 -206 
L 1606 56 
L 191 3500 
L 800 3500 
L 1894 763 
L 2988 3500 
L 3597 3500 
L 2059 -325 
z
" transform="scale(0.015625)"/>
       <path id="DejaVuSans-73" d="M 2834 3397 
L 2834 2853 
Q 2591 2978 2328 3040 
Q 2066 3103 1784 3103 
Q 1356 3103 1142 2972 
Q 928 2841 928 2578 
Q 928 2378 1081 2264 
Q 1234 2150 1697 2047 
L 1894 2003 
Q 2506 1872 2764 1633 
Q 3022 1394 3022 966 
Q 3022 478 2636 193 
Q 2250 -91 1575 -91 
Q 1294 -91 989 -36 
Q 684 19 347 128 
L 347 722 
Q 666 556 975 473 
Q 1284 391 1588 391 
Q 1994 391 2212 530 
Q 2431 669 2431 922 
Q 2431 1156 2273 1281 
Q 2116 1406 1581 1522 
L 1381 1569 
Q 847 1681 609 1914 
Q 372 2147 372 2553 
Q 372 3047 722 3315 
Q 1072 3584 1716 3584 
Q 2034 3584 2315 3537 
Q 2597 3491 2834 3397 
z
" transform="scale(0.015625)"/>
       <path id="DejaVuSans-20" transform="scale(0.015625)"/>
       <path id="DejaVuSans-66" d="M 2375 4863 
L 2375 4384 
L 1825 4384 
Q 1516 4384 1395 4259 
Q 1275 4134 1275 3809 
L 1275 3500 
L 2222 3500 
L 2222 3053 
L 1275 3053 
L 1275 0 
L 697 0 
L 697 3053 
L 147 3053 
L 147 3500 
L 697 3500 
L 697 3744 
Q 697 4328 969 4595 
Q 1241 4863 1831 4863 
L 2375 4863 
z
" transform="scale(0.015625)"/>
       <path id="DejaVuSans-72" d="M 2631 2963 
Q 2534 3019 2420 3045 
Q 2306 3072 2169 3072 
Q 1681 3072 1420 2755 
Q 1159 2438 1159 1844 
L 1159 0 
L 581 0 
L 581 3500 
L 1159 3500 
L 1159 2956 
Q 1341 3275 1631 3429 
Q 1922 3584 2338 3584 
Q 2397 3584 2469 3576 
Q 2541 3569 2628 3553 
L 2631 2963 
z
" transform="scale(0.015625)"/>
       <path id="DejaVuSans-6f" d="M 1959 3097 
Q 1497 3097 1228 2736 
Q 959 2375 959 1747 
Q 959 1119 1226 758 
Q 1494 397 1959 397 
Q 2419 397 2687 759 
Q 2956 1122 2956 1747 
Q 2956 2369 2687 2733 
Q 2419 3097 1959 3097 
z
M 1959 3584 
Q 2709 3584 3137 3096 
Q 3566 2609 3566 1747 
Q 3566 888 3137 398 
Q 2709 -91 1959 -91 
Q 1206 -91 779 398 
Q 353 888 353 1747 
Q 353 2609 779 3096 
Q 1206 3584 1959 3584 
z
" transform="scale(0.015625)"/>
       <path id="DejaVuSans-6d" d="M 3328 2828 
Q 3544 3216 3844 3400 
Q 4144 3584 4550 3584 
Q 5097 3584 5394 3201 
Q 5691 2819 5691 2113 
L 5691 0 
L 5113 0 
L 5113 2094 
Q 5113 2597 4934 2840 
Q 4756 3084 4391 3084 
Q 3944 3084 3684 2787 
Q 3425 2491 3425 1978 
L 3425 0 
L 2847 0 
L 2847 2094 
Q 2847 2600 2669 2842 
Q 2491 3084 2119 3084 
Q 1678 3084 1418 2786 
Q 1159 2488 1159 1978 
L 1159 0 
L 581 0 
L 581 3500 
L 1159 3500 
L 1159 2956 
Q 1356 3278 1631 3431 
Q 1906 3584 2284 3584 
Q 2666 3584 2933 3390 
Q 3200 3197 3328 2828 
z
" transform="scale(0.015625)"/>
       <path id="DejaVuSans-69" d="M 603 3500 
L 1178 3500 
L 1178 0 
L 603 0 
L 603 3500 
z
M 603 4863 
L 1178 4863 
L 1178 4134 
L 603 4134 
L 603 4863 
z
" transform="scale(0.015625)"/>
       <path id="DejaVuSans-74" d="M 1172 4494 
L 1172 3500 
L 2356 3500 
L 2356 3053 
L 1172 3053 
L 1172 1153 
Q 1172 725 1289 603 
Q 1406 481 1766 481 
L 2356 481 
L 2356 0 
L 1766 0 
Q 1100 0 847 248 
Q 594 497 594 1153 
L 594 3053 
L 172 3053 
L 172 3500 
L 594 3500 
L 594 4494 
L 1172 4494 
z
" transform="scale(0.015625)"/>
       <path id="DejaVuSans-6c" d="M 603 4863 
L 1178 4863 
L 1178 0 
L 603 0 
L 603 4863 
z
" transform="scale(0.015625)"/>
      </defs>
      <use xlink:href="#DejaVuSans-44"/>
      <use xlink:href="#DejaVuSans-61" transform="translate(77.001953 0)"/>
      <use xlink:href="#DejaVuSans-79" transform="translate(138.28125 0)"/>
      <use xlink:href="#DejaVuSans-73" transform="translate(197.460938 0)"/>
      <use xlink:href="#DejaVuSans-20" transform="translate(249.560547 0)"/>
      <use xlink:href="#DejaVuSans-66" transform="translate(281.347656 0)"/>
      <use xlink:href="#DejaVuSans-72" transform="translate(316.552734 0)"/>
      <use xlink:href="#DejaVuSans-6f" transform="translate(355.416016 0)"/>
      <use xlink:href="#DejaVuSans-6d" transform="translate(416.597656 0)"/>
      <use xlink:href="#DejaVuSans-20" transform="translate(514.009766 0)"/>
      <use xlink:href="#DejaVuSans-66" transform="translate(545.796875 0)"/>
      <use xlink:href="#DejaVuSans-69" transform="translate(581.001953 0)"/>
      <use xlink:href="#DejaVuSans-72" transform="translate(608.785156 0)"/>
      <use xlink:href="#DejaVuSans-73" transform="translate(649.898438 0)"/>
      <use xlink:href="#DejaVuSans-74" transform="translate(701.998047 0)"/>
      <use xlink:href="#DejaVuSans-20" transform="translate(741.207031 0)"/>
      <use xlink:href="#DejaVuSans-66" transform="translate(772.994141 0)"/>
      <use xlink:href="#DejaVuSans-69" transform="translate(808.199219 0)"/>
      <use xlink:href="#DejaVuSans-6c" transform="translate(835.982422 0)"/>
      <use xlink:href="#DejaVuSans-6c" transform="translate(863.765625 0)"/>
     </g>
    </g>
   </g>
   <g id="matplotlib.axis_2">
    <g id="ytick_1">
     <g id="line2d_9">
      <defs>
       <path id="m2e28586b60" d="M 0 0 
L -3.5 0 
" style="stroke: #000000; stroke-width: 0.8"/>
      </defs>
      <g>
       <use xlink:href="#m2e28586b60" x="42.190938" y="318.76" style="stroke: #000000; stroke-width: 0.8"/>
      </g>
     </g>
     <g id="text_10">
      <!-- 0.0 -->
      <g transform="translate(20.878125 322.179297) scale(0.09 -0.09)">
       <defs>
        <path id="DejaVuSans-2e" d="M 684 794 
L 1344 794 
L 1344 0 
L 684 0 
L 684 794 
z
" transform="scale(0.015625)"/>
       </defs>
       <use xlink:href="#DejaVuSans-30"/>
       <use xlink:href="#DejaVuSans-2e" transform="translate(63.623047 0)"/>
       <use xlink:href="#DejaVuSans-30" transform="translate(95.410156 0)"/>
      </g>
     </g>
    </g>
    <g id="ytick_2">
     <g id="line2d_10">
      <g>
       <use xlink:href="#m2e28586b60" x="42.190938" y="266.046275" style="stroke: #000000; stroke-width: 0.8"/>
      </g>
     </g>
     <g id="text_11">
      <!-- 0.2 -->
      <g transform="translate(20.878125 269.465571) scale(0.09 -0.09)">
       <use xlink:href="#DejaVuSans-30"/>
       <use xlink:href="#DejaVuSans-2e" transform="translate(63.623047 0)"/>
       <use xlink:href="#DejaVuSans-32" transform="translate(95.410156 0)"/>
      </g>
     </g>
    </g>
    <g id="ytick_3">
     <g id="line2d_11">
      <g>
       <use xlink:href="#m2e28586b60" x="42.190938" y="213.332549" style="stroke: #000000; stroke-width: 0.8"/>
      </g>
     </g>
     <g id="text_12">
      <!-- 0.4 -->
      <g transform="translate(20.878125 216.751846) scale(0.09 -0.09)">
       <defs>
        <path id="DejaVuSans-34" d="M 2419 4116 
L 825 1625 
L 2419 1625 
L 2419 4116 
z
M 2253 4666 
L 3047 4666 
L 3047 1625 
L 3713 1625 
L 3713 1100 
L 3047 1100 
L 3047 0 
L 2419 0 
L 2419 1100 
L 313 1100 
L 313 1709 
L 2253 4666 
z
" transform="scale(0.015625)"/>
       </defs>
       <use xlink:href="#DejaVuSans-30"/>
       <use xlink:href="#DejaVuSans-2e" transform="translate(63.623047 0)"/>
       <use xlink:href="#DejaVuSans-34" transform="translate(95.410156 0)"/>
      </g>
     </g>
    </g>
    <g id="ytick_4">
     <g id="line2d_12">
      <g>
       <use xlink:href="#m2e28586b60" x="42.190938" y="160.618824" style="stroke: #000000; stroke-width: 0.8"/>
      </g>
     </g>
     <g id="text_13">
      <!-- 0.6 -->
      <g transform="translate(20.878125 164.03812) scale(0.09 -0.09)">
       <defs>
        <path id="DejaVuSans-36" d="M 2113 2584 
Q 1688 2584 1439 2293 
Q 1191 2003 1191 1497 
Q 1191 994 1439 701 
Q 1688 409 2113 409 
Q 2538 409 2786 701 
Q 3034 994 3034 1497 
Q 3034 2003 2786 2293 
Q 2538 2584 2113 2584 
z
M 3366 4563 
L 3366 3988 
Q 3128 4100 2886 4159 
Q 2644 4219 2406 4219 
Q 1781 4219 1451 3797 
Q 1122 3375 1075 2522 
Q 1259 2794 1537 2939 
Q 1816 3084 2150 3084 
Q 2853 3084 3261 2657 
Q 3669 2231 3669 1497 
Q 3669 778 3244 343 
Q 2819 -91 2113 -91 
Q 1303 -91 875 529 
Q 447 1150 447 2328 
Q 447 3434 972 4092 
Q 1497 4750 2381 4750 
Q 2619 4750 2861 4703 
Q 3103 4656 3366 4563 
z
" transform="scale(0.015625)"/>
       </defs>
       <use xlink:href="#DejaVuSans-30"/>
       <use xlink:href="#DejaVuSans-2e" transform="translate(63.623047 0)"/>
       <use xlink:href="#DejaVuSans-36" transform="translate(95.410156 0)"/>
      </g>
     </g>
    </g>
    <g id="ytick_5">
     <g id="line2d_13">
      <g>
       <use xlink:href="#m2e28586b60" x="42.190938" y="107.905098" style="stroke: #000000; stroke-width: 0.8"/>
      </g>
     </g>
     <g id="text_14">
      <!-- 0.8 -->
      <g transform="translate(20.878125 111.324395) scale(0.09 -0.09)">
       <defs>
        <path id="DejaVuSans-38" d="M 2034 2216 
Q 1584 2216 1326 1975 
Q 1069 1734 1069 1313 
Q 1069 891 1326 650 
Q 1584 409 2034 409 
Q 2484 409 2743 651 
Q 3003 894 3003 1313 
Q 3003 1734 2745 1975 
Q 2488 2216 2034 2216 
z
M 1403 2484 
Q 997 2584 770 2862 
Q 544 3141 544 3541 
Q 544 4100 942 4425 
Q 1341 4750 2034 4750 
Q 2731 4750 3128 4425 
Q 3525 4100 3525 3541 
Q 3525 3141 3298 2862 
Q 3072 2584 2669 2484 
Q 3125 2378 3379 2068 
Q 3634 1759 3634 1313 
Q 3634 634 3220 271 
Q 2806 -91 2034 -91 
Q 1263 -91 848 271 
Q 434 634 434 1313 
Q 434 1759 690 2068 
Q 947 2378 1403 2484 
z
M 1172 3481 
Q 1172 3119 1398 2916 
Q 1625 2713 2034 2713 
Q 2441 2713 2670 2916 
Q 2900 3119 2900 3481 
Q 2900 3844 2670 4047 
Q 2441 4250 2034 4250 
Q 1625 4250 1398 4047 
Q 1172 3844 1172 3481 
z
" transform="scale(0.015625)"/>
       </defs>
       <use xlink:href="#DejaVuSans-30"/>
       <use xlink:href="#DejaVuSans-2e" transform="translate(63.623047 0)"/>
       <use xlink:href="#DejaVuSans-38" transform="translate(95.410156 0)"/>
      </g>
     </g>
    </g>
    <g id="ytick_6">
     <g id="line2d_14">
      <g>
       <use xlink:href="#m2e28586b60" x="42.190938" y="55.191373" style="stroke: #000000; stroke-width: 0.8"/>
      </g>
     </g>
     <g id="text_15">
      <!-- 1.0 -->
      <g transform="translate(20.878125 58.610669) scale(0.09 -0.09)">
       <use xlink:href="#DejaVuSans-31"/>
       <use xlink:href="#DejaVuSans-2e" transform="translate(63.623047 0)"/>
       <use xlink:href="#DejaVuSans-30" transform="translate(95.410156 0)"/>
      </g>
     </g>
    </g>
    <g id="text_16">
     <!-- Still on initial regimen -->
     <g transform="translate(14.798438 239.084531) rotate(-90) scale(0.1 -0.1)">
      <defs>
       <path id="DejaVuSans-53" d="M 3425 4513 
L 3425 3897 
Q 3066 4069 2747 4153 
Q 2428 4238 2131 4238 
Q 1616 4238 1336 4038 
Q 1056 3838 1056 3469 
Q 1056 3159 1242 3001 
Q 1428 2844 1947 2747 
L 2328 2669 
Q 3034 2534 3370 2195 
Q 3706 1856 3706 1288 
Q 3706 609 3251 259 
Q 2797 -91 1919 -91 
Q 1588 -91 1214 -16 
Q 841 59 441 206 
L 441 856 
Q 825 641 1194 531 
Q 1563 422 1919 422 
Q 2459 422 2753 634 
Q 3047 847 3047 1241 
Q 3047 1584 2836 1778 
Q 2625 1972 2144 2069 
L 1759 2144 
Q 1053 2284 737 2584 
Q 422 2884 422 3419 
Q 422 4038 858 4394 
Q 1294 4750 2059 4750 
Q 2388 4750 2728 4690 
Q 3069 4631 3425 4513 
z
" transform="scale(0.015625)"/>
       <path id="DejaVuSans-6e" d="M 3513 2113 
L 3513 0 
L 2938 0 
L 2938 2094 
Q 2938 2591 2744 2837 
Q 2550 3084 2163 3084 
Q 1697 3084 1428 2787 
Q 1159 2491 1159 1978 
L 1159 0 
L 581 0 
L 581 3500 
L 1159 3500 
L 1159 2956 
Q 1366 3272 1645 3428 
Q 1925 3584 2291 3584 
Q 2894 3584 3203 3211 
Q 3513 2838 3513 2113 
z
" transform="scale(0.015625)"/>
       <path id="DejaVuSans-65" d="M 3597 1894 
L 3597 1613 
L 953 1613 
Q 991 1019 1311 708 
Q 1631 397 2203 397 
Q 2534 397 2845 478 
Q 3156 559 3463 722 
L 3463 178 
Q 3153 47 2828 -22 
Q 2503 -91 2169 -91 
Q 1331 -91 842 396 
Q 353 884 353 1716 
Q 353 2575 817 3079 
Q 1281 3584 2069 3584 
Q 2775 3584 3186 3129 
Q 3597 2675 3597 1894 
z
M 3022 2063 
Q 3016 2534 2758 2815 
Q 2500 3097 2075 3097 
Q 1594 3097 1305 2825 
Q 1016 2553 972 2059 
L 3022 2063 
z
" transform="scale(0.015625)"/>
       <path id="DejaVuSans-67" d="M 2906 1791 
Q 2906 2416 2648 2759 
Q 2391 3103 1925 3103 
Q 1463 3103 1205 2759 
Q 947 2416 947 1791 
Q 947 1169 1205 825 
Q 1463 481 1925 481 
Q 2391 481 2648 825 
Q 2906 1169 2906 1791 
z
M 3481 434 
Q 3481 -459 3084 -895 
Q 2688 -1331 1869 -1331 
Q 1566 -1331 1297 -1286 
Q 1028 -1241 775 -1147 
L 775 -588 
Q 1028 -725 1275 -790 
Q 1522 -856 1778 -856 
Q 2344 -856 2625 -561 
Q 2906 -266 2906 331 
L 2906 616 
Q 2728 306 2450 153 
Q 2172 0 1784 0 
Q 1141 0 747 490 
Q 353 981 353 1791 
Q 353 2603 747 3093 
Q 1141 3584 1784 3584 
Q 2172 3584 2450 3431 
Q 2728 3278 2906 2969 
L 2906 3500 
L 3481 3500 
L 3481 434 
z
" transform="scale(0.015625)"/>
      </defs>
      <use xlink:href="#DejaVuSans-53"/>
      <use xlink:href="#DejaVuSans-74" transform="translate(63.476562 0)"/>
      <use xlink:href="#DejaVuSans-69" transform="translate(102.685547 0)"/>
      <use xlink:href="#DejaVuSans-6c" transform="translate(130.46875 0)"/>
      <use xlink:href="#DejaVuSans-6c" transform="translate(158.251953 0)"/>
      <use xlink:href="#DejaVuSans-20" transform="translate(186.035156 0)"/>
      <use xlink:href="#DejaVuSans-6f" transform="translate(217.822266 0)"/>
      <use xlink:href="#DejaVuSans-6e" transform="translate(279.003906 0)"/>
      <use xlink:href="#DejaVuSans-20" transform="translate(342.382812 0)"/>
      <use xlink:href="#DejaVuSans-69" transform="translate(374.169922 0)"/>
      <use xlink:href="#DejaVuSans-6e" transform="translate(401.953125 0)"/>
      <use xlink:href="#DejaVuSans-69" transform="translate(465.332031 0)"/>
      <use xlink:href="#DejaVuSans-74" transform="translate(493.115234 0)"/>
      <use xlink:href="#DejaVuSans-69" transform="translate(532.324219 0)"/>
      <use xlink:href="#DejaVuSans-61" transform="translate(560.107422 0)"/>
      <use xlink:href="#DejaVuSans-6c" transform="translate(621.386719 0)"/>
      <use xlink:href="#DejaVuSans-20" transform="translate(649.169922 0)"/>
      <use xlink:href="#DejaVuSans-72" transform="translate(680.957031 0)"/>
      <use xlink:href="#DejaVuSans-65" transform="translate(719.820312 0)"/>
      <use xlink:href="#DejaVuSans-67" transform="translate(781.34375 0)"/>
      <use xlink:href="#DejaVuSans-69" transform="translate(844.820312 0)"/>
      <use xlink:href="#DejaVuSans-6d" transform="translate(872.603516 0)"/>
      <use xlink:href="#DejaVuSans-65" transform="translate(970.015625 0)"/>
      <use xlink:href="#DejaVuSans-6e" transform="translate(1031.539062 0)"/>
     </g>
    </g>
   </g>
   <g id="line2d_15">
    <path d="M 42.190938 55.191373 
L 78.964025 55.191373 
L 78.964025 96.328145 
L 81.590674 96.328145 
L 81.590674 103.515732 
L 90.783946 103.614197 
L 90.783946 103.712662 
L 105.230516 103.712662 
L 105.230516 103.909682 
L 111.797139 103.909682 
L 111.797139 106.275006 
L 113.110464 106.275006 
L 113.110464 108.570523 
L 114.423788 108.570523 
L 114.423788 111.306837 
L 115.737113 111.306837 
L 115.737113 113.16278 
L 117.050438 113.16278 
L 117.050438 115.677731 
L 118.363762 115.677731 
L 118.363762 118.987694 
L 119.677087 118.987694 
L 119.677087 121.160313 
L 120.990411 121.160313 
L 120.990411 126.278323 
L 122.303736 126.278323 
L 122.303736 129.394034 
L 123.61706 129.394034 
L 123.61706 132.822007 
L 124.930385 132.822007 
L 124.930385 135.114558 
L 126.243709 135.114558 
L 126.243709 137.844423 
L 127.557034 137.844423 
L 127.557034 138.098696 
L 130.183683 138.098696 
L 130.183683 138.610485 
L 131.497008 138.610485 
L 131.497008 139.380355 
L 132.810332 139.380355 
L 132.810332 139.766949 
L 134.123657 139.766949 
L 134.123657 140.154379 
L 142.003604 140.154379 
L 142.003604 140.28371 
L 145.943578 140.28371 
L 145.943578 140.802914 
L 147.256902 140.802914 
L 147.256902 141.583998 
L 148.570227 141.583998 
L 148.570227 142.632377 
L 149.883552 142.632377 
L 149.883552 143.027873 
L 151.196876 143.027873 
L 151.196876 144.491199 
L 152.510201 144.491199 
L 152.510201 145.828642 
L 153.823525 145.828642 
L 153.823525 147.041722 
L 155.13685 147.041722 
L 155.13685 148.675838 
L 156.450174 148.675838 
L 156.450174 150.333847 
L 157.763499 150.333847 
L 157.763499 152.297183 
L 159.076823 152.297183 
L 159.076823 154.017729 
L 160.390148 154.017729 
L 160.390148 159.129413 
L 161.703473 159.129413 
L 161.703473 160.676221 
L 163.016797 160.676221 
L 163.016797 164.604744 
L 164.330122 164.604744 
L 164.330122 167.962898 
L 165.643446 167.962898 
L 165.643446 171.043699 
L 166.956771 171.043699 
L 166.956771 173.855768 
L 168.270095 173.855768 
L 168.270095 175.036594 
L 169.58342 175.036594 
L 169.58342 175.553584 
L 170.896745 175.553584 
L 170.896745 177.127281 
L 172.210069 177.127281 
L 172.210069 178.716676 
L 173.523394 178.716676 
L 173.523394 179.073474 
L 174.836718 179.073474 
L 174.836718 179.971202 
L 176.150043 179.971202 
L 176.150043 180.877134 
L 177.463367 180.877134 
L 177.463367 181.241422 
L 178.776692 181.241422 
L 178.776692 182.152141 
L 180.090016 182.152141 
L 180.090016 182.517403 
L 181.403341 182.517403 
L 181.403341 183.066768 
L 182.716666 183.066768 
L 182.716666 183.616133 
L 184.02999 183.616133 
L 184.02999 183.799504 
L 185.343315 183.799504 
L 185.343315 184.167745 
L 186.656639 184.167745 
L 186.656639 185.458356 
L 187.969964 185.458356 
L 187.969964 186.19995 
L 189.283288 186.19995 
L 189.283288 186.759276 
L 190.596613 186.759276 
L 190.596613 187.324186 
L 191.909938 187.324186 
L 191.909938 187.893172 
L 193.223262 187.893172 
L 193.223262 189.428267 
L 194.536587 189.428267 
L 194.536587 189.816651 
L 195.849911 189.816651 
L 195.849911 191.413472 
L 197.163236 191.413472 
L 197.163236 193.241413 
L 198.47656 193.241413 
L 198.47656 195.3161 
L 199.789885 195.3161 
L 199.789885 197.44078 
L 201.103209 197.44078 
L 201.103209 200.267213 
L 202.416534 200.267213 
L 202.416534 202.515653 
L 203.729859 202.515653 
L 203.729859 205.057776 
L 205.043183 205.057776 
L 205.043183 206.968738 
L 206.356508 206.968738 
L 206.356508 208.934299 
L 207.669832 208.934299 
L 207.669832 210.968108 
L 208.983157 210.968108 
L 208.983157 212.030097 
L 210.296481 212.030097 
L 210.296481 213.975694 
L 211.609806 213.975694 
L 211.609806 214.834582 
L 212.92313 214.834582 
L 212.92313 216.294209 
L 214.236455 216.294209 
L 214.236455 216.594695 
L 215.54978 216.594695 
L 215.54978 217.201017 
L 216.863104 217.201017 
L 216.863104 218.141378 
L 218.176429 218.141378 
L 218.176429 219.395193 
L 219.489753 219.395193 
L 219.489753 220.02608 
L 220.803078 220.02608 
L 220.803078 220.984662 
L 223.429727 220.984662 
L 223.429727 221.634332 
L 224.743052 221.634332 
L 224.743052 222.290587 
L 226.056376 222.290587 
L 226.056376 222.620961 
L 227.369701 222.620961 
L 227.369701 223.62241 
L 228.683025 223.62241 
L 228.683025 224.623858 
L 229.99635 224.623858 
L 229.99635 225.303541 
L 231.309674 225.303541 
L 231.309674 226.330535 
L 232.622999 226.330535 
L 232.622999 227.365194 
L 233.936323 227.365194 
L 233.936323 228.411699 
L 235.249648 228.411699 
L 235.249648 229.125915 
L 236.562973 229.125915 
L 236.562973 231.366767 
L 237.876297 231.366767 
L 237.876297 232.906736 
L 239.189622 232.906736 
L 239.189622 234.482025 
L 240.502946 234.482025 
L 240.502946 234.883349 
L 241.816271 234.883349 
L 241.816271 237.374734 
L 243.129595 237.374734 
L 243.129595 239.115596 
L 244.44292 239.115596 
L 244.44292 242.319681 
L 245.756245 242.319681 
L 245.756245 244.242708 
L 247.069569 244.242708 
L 247.069569 245.743056 
L 248.382894 245.743056 
L 248.382894 248.85016 
L 249.696218 248.85016 
L 249.696218 253.119463 
L 251.009543 253.119463 
L 251.009543 255.325868 
L 253.636192 255.325868 
L 253.636192 257.21005 
L 254.949516 257.21005 
L 254.949516 259.239169 
L 256.262841 259.239169 
L 256.262841 261.364913 
L 257.576166 261.364913 
L 257.576166 262.120112 
L 258.88949 262.120112 
L 258.88949 263.693442 
L 261.516139 263.693442 
L 261.516139 264.54062 
L 262.829464 264.54062 
L 262.829464 265.387798 
L 264.142788 265.387798 
L 264.142788 266.262752 
L 275.962709 266.262752 
L 275.962709 267.217247 
L 277.276034 267.217247 
L 277.276034 268.208454 
L 281.216008 268.208454 
L 281.216008 269.307401 
L 282.529332 269.307401 
L 282.529332 271.662286 
L 283.842657 271.662286 
L 283.842657 272.9017 
L 285.155981 272.9017 
L 285.155981 274.250473 
L 291.722604 274.250473 
L 291.722604 276.369975 
L 362.64213 276.369975 
L 362.64213 279.630746 
L 520.241078 279.630746 
L 520.241078 279.630746 
" clip-path="url(#p1129eeb6ef)" style="fill: none; stroke: #7fb685; stroke-width: 1.8; stroke-linecap: square"/>
   </g>
   <g id="line2d_16">
    <defs>
     <path id="m6f2d94a0f0" d="M 0 2.5 
C 0.663008 2.5 1.29895 2.236584 1.767767 1.767767 
C 2.236584 1.29895 2.5 0.663008 2.5 0 
C 2.5 -0.663008 2.236584 -1.29895 1.767767 -1.767767 
C 1.29895 -2.236584 0.663008 -2.5 0 -2.5 
C -0.663008 -2.5 -1.29895 -2.236584 -1.767767 -1.767767 
C -2.236584 -1.29895 -2.5 -0.663008 -2.5 0 
C -2.5 0.663008 -2.236584 1.29895 -1.767767 1.767767 
C -1.29895 2.236584 -0.663008 2.5 0 2.5 
z
" style="stroke: #7fb685"/>
    </defs>
    <g clip-path="url(#p1129eeb6ef)">
     <use xlink:href="#m6f2d94a0f0" x="120.990411" y="126.278323" style="fill: #7fb685; stroke: #7fb685"/>
    </g>
   </g>
   <g id="line2d_17">
    <g clip-path="url(#p1129eeb6ef)">
     <use xlink:href="#m6f2d94a0f0" x="160.390148" y="159.129413" style="fill: #7fb685; stroke: #7fb685"/>
    </g>
   </g>
   <g id="line2d_18">
    <g clip-path="url(#p1129eeb6ef)">
     <use xlink:href="#m6f2d94a0f0" x="190.596613" y="187.324186" style="fill: #7fb685; stroke: #7fb685"/>
    </g>
   </g>
   <g id="patch_3">
    <path d="M 42.190938 318.76 
L 42.190938 49.92 
" style="fill: none; stroke: #000000; stroke-width: 0.8; stroke-linejoin: miter; stroke-linecap: square"/>
   </g>
   <g id="patch_4">
    <path d="M 42.190938 318.76 
L 291.722604 318.76 
" style="fill: none; stroke: #000000; stroke-width: 0.8; stroke-linejoin: miter; stroke-linecap: square"/>
   </g>
   <g id="text_17">
    <!-- 73% -->
    <g transform="translate(112.099786 108.320073) scale(0.08 -0.08)">
     <defs>
      <path id="DejaVuSans-33" d="M 2597 2516 
Q 3050 2419 3304 2112 
Q 3559 1806 3559 1356 
Q 3559 666 3084 287 
Q 2609 -91 1734 -91 
Q 1441 -91 1130 -33 
Q 819 25 488 141 
L 488 750 
Q 750 597 1062 519 
Q 1375 441 1716 441 
Q 2309 441 2620 675 
Q 2931 909 2931 1356 
Q 2931 1769 2642 2001 
Q 2353 2234 1838 2234 
L 1294 2234 
L 1294 2753 
L 1863 2753 
Q 2328 2753 2575 2939 
Q 2822 3125 2822 3475 
Q 2822 3834 2567 4026 
Q 2313 4219 1838 4219 
Q 1578 4219 1281 4162 
Q 984 4106 628 3988 
L 628 4550 
Q 988 4650 1302 4700 
Q 1616 4750 1894 4750 
Q 2613 4750 3031 4423 
Q 3450 4097 3450 3541 
Q 3450 3153 3228 2886 
Q 3006 2619 2597 2516 
z
" transform="scale(0.015625)"/>
      <path id="DejaVuSans-25" d="M 4653 2053 
Q 4381 2053 4226 1822 
Q 4072 1591 4072 1178 
Q 4072 772 4226 539 
Q 4381 306 4653 306 
Q 4919 306 5073 539 
Q 5228 772 5228 1178 
Q 5228 1588 5073 1820 
Q 4919 2053 4653 2053 
z
M 4653 2450 
Q 5147 2450 5437 2106 
Q 5728 1763 5728 1178 
Q 5728 594 5436 251 
Q 5144 -91 4653 -91 
Q 4153 -91 3862 251 
Q 3572 594 3572 1178 
Q 3572 1766 3864 2108 
Q 4156 2450 4653 2450 
z
M 1428 4353 
Q 1159 4353 1004 4120 
Q 850 3888 850 3481 
Q 850 3069 1003 2837 
Q 1156 2606 1428 2606 
Q 1700 2606 1854 2837 
Q 2009 3069 2009 3481 
Q 2009 3884 1853 4118 
Q 1697 4353 1428 4353 
z
M 4250 4750 
L 4750 4750 
L 1831 -91 
L 1331 -91 
L 4250 4750 
z
M 1428 4750 
Q 1922 4750 2215 4408 
Q 2509 4066 2509 3481 
Q 2509 2891 2217 2550 
Q 1925 2209 1428 2209 
Q 931 2209 642 2551 
Q 353 2894 353 3481 
Q 353 4063 643 4406 
Q 934 4750 1428 4750 
z
" transform="scale(0.015625)"/>
     </defs>
     <use xlink:href="#DejaVuSans-37"/>
     <use xlink:href="#DejaVuSans-33" transform="translate(63.623047 0)"/>
     <use xlink:href="#DejaVuSans-25" transform="translate(127.246094 0)"/>
    </g>
    <!-- 1,776 at risk -->
    <g transform="translate(95.821661 117.278323) scale(0.08 -0.08)">
     <defs>
      <path id="DejaVuSans-2c" d="M 750 794 
L 1409 794 
L 1409 256 
L 897 -744 
L 494 -744 
L 750 256 
L 750 794 
z
" transform="scale(0.015625)"/>
      <path id="DejaVuSans-6b" d="M 581 4863 
L 1159 4863 
L 1159 1991 
L 2875 3500 
L 3609 3500 
L 1753 1863 
L 3688 0 
L 2938 0 
L 1159 1709 
L 1159 0 
L 581 0 
L 581 4863 
z
" transform="scale(0.015625)"/>
     </defs>
     <use xlink:href="#DejaVuSans-31"/>
     <use xlink:href="#DejaVuSans-2c" transform="translate(63.623047 0)"/>
     <use xlink:href="#DejaVuSans-37" transform="translate(95.410156 0)"/>
     <use xlink:href="#DejaVuSans-37" transform="translate(159.033203 0)"/>
     <use xlink:href="#DejaVuSans-36" transform="translate(222.65625 0)"/>
     <use xlink:href="#DejaVuSans-20" transform="translate(286.279297 0)"/>
     <use xlink:href="#DejaVuSans-61" transform="translate(318.066406 0)"/>
     <use xlink:href="#DejaVuSans-74" transform="translate(379.345703 0)"/>
     <use xlink:href="#DejaVuSans-20" transform="translate(418.554688 0)"/>
     <use xlink:href="#DejaVuSans-72" transform="translate(450.341797 0)"/>
     <use xlink:href="#DejaVuSans-69" transform="translate(491.455078 0)"/>
     <use xlink:href="#DejaVuSans-73" transform="translate(519.238281 0)"/>
     <use xlink:href="#DejaVuSans-6b" transform="translate(571.337891 0)"/>
    </g>
   </g>
   <g id="text_18">
    <!-- 61% -->
    <g transform="translate(151.499523 141.171163) scale(0.08 -0.08)">
     <use xlink:href="#DejaVuSans-36"/>
     <use xlink:href="#DejaVuSans-31" transform="translate(63.623047 0)"/>
     <use xlink:href="#DejaVuSans-25" transform="translate(127.246094 0)"/>
    </g>
    <!-- 1,128 at risk -->
    <g transform="translate(135.221398 150.129413) scale(0.08 -0.08)">
     <use xlink:href="#DejaVuSans-31"/>
     <use xlink:href="#DejaVuSans-2c" transform="translate(63.623047 0)"/>
     <use xlink:href="#DejaVuSans-31" transform="translate(95.410156 0)"/>
     <use xlink:href="#DejaVuSans-32" transform="translate(159.033203 0)"/>
     <use xlink:href="#DejaVuSans-38" transform="translate(222.65625 0)"/>
     <use xlink:href="#DejaVuSans-20" transform="translate(286.279297 0)"/>
     <use xlink:href="#DejaVuSans-61" transform="translate(318.066406 0)"/>
     <use xlink:href="#DejaVuSans-74" transform="translate(379.345703 0)"/>
     <use xlink:href="#DejaVuSans-20" transform="translate(418.554688 0)"/>
     <use xlink:href="#DejaVuSans-72" transform="translate(450.341797 0)"/>
     <use xlink:href="#DejaVuSans-69" transform="translate(491.455078 0)"/>
     <use xlink:href="#DejaVuSans-73" transform="translate(519.238281 0)"/>
     <use xlink:href="#DejaVuSans-6b" transform="translate(571.337891 0)"/>
    </g>
   </g>
   <g id="text_19">
    <!-- 50% -->
    <g transform="translate(181.705988 169.365936) scale(0.08 -0.08)">
     <use xlink:href="#DejaVuSans-35"/>
     <use xlink:href="#DejaVuSans-30" transform="translate(63.623047 0)"/>
     <use xlink:href="#DejaVuSans-25" transform="translate(127.246094 0)"/>
    </g>
    <!-- 701 at risk -->
    <g transform="translate(169.244113 178.324186) scale(0.08 -0.08)">
     <use xlink:href="#DejaVuSans-37"/>
     <use xlink:href="#DejaVuSans-30" transform="translate(63.623047 0)"/>
     <use xlink:href="#DejaVuSans-31" transform="translate(127.246094 0)"/>
     <use xlink:href="#DejaVuSans-20" transform="translate(190.869141 0)"/>
     <use xlink:href="#DejaVuSans-61" transform="translate(222.65625 0)"/>
     <use xlink:href="#DejaVuSans-74" transform="translate(283.935547 0)"/>
     <use xlink:href="#DejaVuSans-20" transform="translate(323.144531 0)"/>
     <use xlink:href="#DejaVuSans-72" transform="translate(354.931641 0)"/>
     <use xlink:href="#DejaVuSans-69" transform="translate(396.044922 0)"/>
     <use xlink:href="#DejaVuSans-73" transform="translate(423.828125 0)"/>
     <use xlink:href="#DejaVuSans-6b" transform="translate(475.927734 0)"/>
    </g>
   </g>
   <g id="text_20">
    <!-- Persistence -->
    <g transform="translate(135.501927 43.92) scale(0.11 -0.11)">
     <defs>
      <path id="DejaVuSans-50" d="M 1259 4147 
L 1259 2394 
L 2053 2394 
Q 2494 2394 2734 2622 
Q 2975 2850 2975 3272 
Q 2975 3691 2734 3919 
Q 2494 4147 2053 4147 
L 1259 4147 
z
M 628 4666 
L 2053 4666 
Q 2838 4666 3239 4311 
Q 3641 3956 3641 3272 
Q 3641 2581 3239 2228 
Q 2838 1875 2053 1875 
L 1259 1875 
L 1259 0 
L 628 0 
L 628 4666 
z
" transform="scale(0.015625)"/>
      <path id="DejaVuSans-63" d="M 3122 3366 
L 3122 2828 
Q 2878 2963 2633 3030 
Q 2388 3097 2138 3097 
Q 1578 3097 1268 2742 
Q 959 2388 959 1747 
Q 959 1106 1268 751 
Q 1578 397 2138 397 
Q 2388 397 2633 464 
Q 2878 531 3122 666 
L 3122 134 
Q 2881 22 2623 -34 
Q 2366 -91 2075 -91 
Q 1284 -91 818 406 
Q 353 903 353 1747 
Q 353 2603 823 3093 
Q 1294 3584 2113 3584 
Q 2378 3584 2631 3529 
Q 2884 3475 3122 3366 
z
" transform="scale(0.015625)"/>
     </defs>
     <use xlink:href="#DejaVuSans-50"/>
     <use xlink:href="#DejaVuSans-65" transform="translate(56.677734 0)"/>
     <use xlink:href="#DejaVuSans-72" transform="translate(118.201172 0)"/>
     <use xlink:href="#DejaVuSans-73" transform="translate(159.314453 0)"/>
     <use xlink:href="#DejaVuSans-69" transform="translate(211.414062 0)"/>
     <use xlink:href="#DejaVuSans-73" transform="translate(239.197266 0)"/>
     <use xlink:href="#DejaVuSans-74" transform="translate(291.296875 0)"/>
     <use xlink:href="#DejaVuSans-65" transform="translate(330.505859 0)"/>
     <use xlink:href="#DejaVuSans-6e" transform="translate(392.029297 0)"/>
     <use xlink:href="#DejaVuSans-63" transform="translate(455.408203 0)"/>
     <use xlink:href="#DejaVuSans-65" transform="translate(510.388672 0)"/>
    </g>
   </g>
  </g>
  <g id="axes_2">
   <g id="patch_5">
    <path d="M 349.707604 318.76 
L 599.239271 318.76 
L 599.239271 49.92 
L 349.707604 49.92 
z
" style="fill: #ffffff"/>
   </g>
   <g id="patch_6">
    <path d="M 349.707604 318.76 
L 374.660771 318.76 
L 374.660771 297.383907 
L 349.707604 297.383907 
z
" clip-path="url(#p2c797b1fa2)" style="fill: #7ba6d0; stroke: #ffffff; stroke-linejoin: miter"/>
   </g>
   <g id="patch_7">
    <path d="M 374.660771 318.76 
L 399.613938 318.76 
L 399.613938 62.721905 
L 374.660771 62.721905 
z
" clip-path="url(#p2c797b1fa2)" style="fill: #7ba6d0; stroke: #ffffff; stroke-linejoin: miter"/>
   </g>
   <g id="patch_8">
    <path d="M 399.613938 318.76 
L 424.567104 318.76 
L 424.567104 106.42414 
L 399.613938 106.42414 
z
" clip-path="url(#p2c797b1fa2)" style="fill: #7ba6d0; stroke: #ffffff; stroke-linejoin: miter"/>
   </g>
   <g id="patch_9">
    <path d="M 424.567104 318.76 
L 449.520271 318.76 
L 449.520271 165.327153 
L 424.567104 165.327153 
z
" clip-path="url(#p2c797b1fa2)" style="fill: #7ba6d0; stroke: #ffffff; stroke-linejoin: miter"/>
   </g>
   <g id="patch_10">
    <path d="M 449.520271 318.76 
L 474.473438 318.76 
L 474.473438 163.427055 
L 449.520271 163.427055 
z
" clip-path="url(#p2c797b1fa2)" style="fill: #7ba6d0; stroke: #ffffff; stroke-linejoin: miter"/>
   </g>
   <g id="patch_11">
    <path d="M 474.473438 318.76 
L 499.426604 318.76 
L 499.426604 192.878562 
L 474.473438 192.878562 
z
" clip-path="url(#p2c797b1fa2)" style="fill: #7ba6d0; stroke: #ffffff; stroke-linejoin: miter"/>
   </g>
   <g id="patch_12">
    <path d="M 499.426604 318.76 
L 524.379771 318.76 
L 524.379771 239.905967 
L 499.426604 239.905967 
z
" clip-path="url(#p2c797b1fa2)" style="fill: #7ba6d0; stroke: #ffffff; stroke-linejoin: miter"/>
   </g>
   <g id="patch_13">
    <path d="M 524.379771 318.76 
L 549.332938 318.76 
L 549.332938 247.506356 
L 524.379771 247.506356 
z
" clip-path="url(#p2c797b1fa2)" style="fill: #7ba6d0; stroke: #ffffff; stroke-linejoin: miter"/>
   </g>
   <g id="patch_14">
    <path d="M 549.332938 318.76 
L 574.286104 318.76 
L 574.286104 229.930457 
L 549.332938 229.930457 
z
" clip-path="url(#p2c797b1fa2)" style="fill: #7ba6d0; stroke: #ffffff; stroke-linejoin: miter"/>
   </g>
   <g id="patch_15">
    <path d="M 574.286104 318.76 
L 599.239271 318.76 
L 599.239271 209.029388 
L 574.286104 209.029388 
z
" clip-path="url(#p2c797b1fa2)" style="fill: #7ba6d0; stroke: #ffffff; stroke-linejoin: miter"/>
   </g>
   <g id="matplotlib.axis_3">
    <g id="xtick_9">
     <g id="line2d_19">
      <g>
       <use xlink:href="#mc537f73e35" x="349.707604" y="318.76" style="stroke: #000000; stroke-width: 0.8"/>
      </g>
     </g>
     <g id="text_21">
      <!-- 0.0 -->
      <g transform="translate(342.551198 332.598594) scale(0.09 -0.09)">
       <use xlink:href="#DejaVuSans-30"/>
       <use xlink:href="#DejaVuSans-2e" transform="translate(63.623047 0)"/>
       <use xlink:href="#DejaVuSans-30" transform="translate(95.410156 0)"/>
      </g>
     </g>
    </g>
    <g id="xtick_10">
     <g id="line2d_20">
      <g>
       <use xlink:href="#mc537f73e35" x="399.613938" y="318.76" style="stroke: #000000; stroke-width: 0.8"/>
      </g>
     </g>
     <g id="text_22">
      <!-- 0.2 -->
      <g transform="translate(392.457531 332.598594) scale(0.09 -0.09)">
       <use xlink:href="#DejaVuSans-30"/>
       <use xlink:href="#DejaVuSans-2e" transform="translate(63.623047 0)"/>
       <use xlink:href="#DejaVuSans-32" transform="translate(95.410156 0)"/>
      </g>
     </g>
    </g>
    <g id="xtick_11">
     <g id="line2d_21">
      <g>
       <use xlink:href="#mc537f73e35" x="449.520271" y="318.76" style="stroke: #000000; stroke-width: 0.8"/>
      </g>
     </g>
     <g id="text_23">
      <!-- 0.4 -->
      <g transform="translate(442.363865 332.598594) scale(0.09 -0.09)">
       <use xlink:href="#DejaVuSans-30"/>
       <use xlink:href="#DejaVuSans-2e" transform="translate(63.623047 0)"/>
       <use xlink:href="#DejaVuSans-34" transform="translate(95.410156 0)"/>
      </g>
     </g>
    </g>
    <g id="xtick_12">
     <g id="line2d_22">
      <g>
       <use xlink:href="#mc537f73e35" x="499.426604" y="318.76" style="stroke: #000000; stroke-width: 0.8"/>
      </g>
     </g>
     <g id="text_24">
      <!-- 0.6 -->
      <g transform="translate(492.270198 332.598594) scale(0.09 -0.09)">
       <use xlink:href="#DejaVuSans-30"/>
       <use xlink:href="#DejaVuSans-2e" transform="translate(63.623047 0)"/>
       <use xlink:href="#DejaVuSans-36" transform="translate(95.410156 0)"/>
      </g>
     </g>
    </g>
    <g id="xtick_13">
     <g id="line2d_23">
      <g>
       <use xlink:href="#mc537f73e35" x="549.332938" y="318.76" style="stroke: #000000; stroke-width: 0.8"/>
      </g>
     </g>
     <g id="text_25">
      <!-- 0.8 -->
      <g transform="translate(542.176531 332.598594) scale(0.09 -0.09)">
       <use xlink:href="#DejaVuSans-30"/>
       <use xlink:href="#DejaVuSans-2e" transform="translate(63.623047 0)"/>
       <use xlink:href="#DejaVuSans-38" transform="translate(95.410156 0)"/>
      </g>
     </g>
    </g>
    <g id="xtick_14">
     <g id="line2d_24">
      <g>
       <use xlink:href="#mc537f73e35" x="599.239271" y="318.76" style="stroke: #000000; stroke-width: 0.8"/>
      </g>
     </g>
     <g id="text_26">
      <!-- 1.0 -->
      <g transform="translate(592.082865 332.598594) scale(0.09 -0.09)">
       <use xlink:href="#DejaVuSans-31"/>
       <use xlink:href="#DejaVuSans-2e" transform="translate(63.623047 0)"/>
       <use xlink:href="#DejaVuSans-30" transform="translate(95.410156 0)"/>
      </g>
     </g>
    </g>
    <g id="text_27">
     <!-- Index-product PDC -->
     <g transform="translate(427.728906 346.06875) scale(0.1 -0.1)">
      <defs>
       <path id="DejaVuSans-49" d="M 628 4666 
L 1259 4666 
L 1259 0 
L 628 0 
L 628 4666 
z
" transform="scale(0.015625)"/>
       <path id="DejaVuSans-64" d="M 2906 2969 
L 2906 4863 
L 3481 4863 
L 3481 0 
L 2906 0 
L 2906 525 
Q 2725 213 2448 61 
Q 2172 -91 1784 -91 
Q 1150 -91 751 415 
Q 353 922 353 1747 
Q 353 2572 751 3078 
Q 1150 3584 1784 3584 
Q 2172 3584 2448 3432 
Q 2725 3281 2906 2969 
z
M 947 1747 
Q 947 1113 1208 752 
Q 1469 391 1925 391 
Q 2381 391 2643 752 
Q 2906 1113 2906 1747 
Q 2906 2381 2643 2742 
Q 2381 3103 1925 3103 
Q 1469 3103 1208 2742 
Q 947 2381 947 1747 
z
" transform="scale(0.015625)"/>
       <path id="DejaVuSans-78" d="M 3513 3500 
L 2247 1797 
L 3578 0 
L 2900 0 
L 1881 1375 
L 863 0 
L 184 0 
L 1544 1831 
L 300 3500 
L 978 3500 
L 1906 2253 
L 2834 3500 
L 3513 3500 
z
" transform="scale(0.015625)"/>
       <path id="DejaVuSans-2d" d="M 313 2009 
L 1997 2009 
L 1997 1497 
L 313 1497 
L 313 2009 
z
" transform="scale(0.015625)"/>
       <path id="DejaVuSans-70" d="M 1159 525 
L 1159 -1331 
L 581 -1331 
L 581 3500 
L 1159 3500 
L 1159 2969 
Q 1341 3281 1617 3432 
Q 1894 3584 2278 3584 
Q 2916 3584 3314 3078 
Q 3713 2572 3713 1747 
Q 3713 922 3314 415 
Q 2916 -91 2278 -91 
Q 1894 -91 1617 61 
Q 1341 213 1159 525 
z
M 3116 1747 
Q 3116 2381 2855 2742 
Q 2594 3103 2138 3103 
Q 1681 3103 1420 2742 
Q 1159 2381 1159 1747 
Q 1159 1113 1420 752 
Q 1681 391 2138 391 
Q 2594 391 2855 752 
Q 3116 1113 3116 1747 
z
" transform="scale(0.015625)"/>
       <path id="DejaVuSans-75" d="M 544 1381 
L 544 3500 
L 1119 3500 
L 1119 1403 
Q 1119 906 1312 657 
Q 1506 409 1894 409 
Q 2359 409 2629 706 
Q 2900 1003 2900 1516 
L 2900 3500 
L 3475 3500 
L 3475 0 
L 2900 0 
L 2900 538 
Q 2691 219 2414 64 
Q 2138 -91 1772 -91 
Q 1169 -91 856 284 
Q 544 659 544 1381 
z
M 1991 3584 
L 1991 3584 
z
" transform="scale(0.015625)"/>
       <path id="DejaVuSans-43" d="M 4122 4306 
L 4122 3641 
Q 3803 3938 3442 4084 
Q 3081 4231 2675 4231 
Q 1875 4231 1450 3742 
Q 1025 3253 1025 2328 
Q 1025 1406 1450 917 
Q 1875 428 2675 428 
Q 3081 428 3442 575 
Q 3803 722 4122 1019 
L 4122 359 
Q 3791 134 3420 21 
Q 3050 -91 2638 -91 
Q 1578 -91 968 557 
Q 359 1206 359 2328 
Q 359 3453 968 4101 
Q 1578 4750 2638 4750 
Q 3056 4750 3426 4639 
Q 3797 4528 4122 4306 
z
" transform="scale(0.015625)"/>
      </defs>
      <use xlink:href="#DejaVuSans-49"/>
      <use xlink:href="#DejaVuSans-6e" transform="translate(29.492188 0)"/>
      <use xlink:href="#DejaVuSans-64" transform="translate(92.871094 0)"/>
      <use xlink:href="#DejaVuSans-65" transform="translate(156.347656 0)"/>
      <use xlink:href="#DejaVuSans-78" transform="translate(216.121094 0)"/>
      <use xlink:href="#DejaVuSans-2d" transform="translate(275.300781 0)"/>
      <use xlink:href="#DejaVuSans-70" transform="translate(311.384766 0)"/>
      <use xlink:href="#DejaVuSans-72" transform="translate(374.861328 0)"/>
      <use xlink:href="#DejaVuSans-6f" transform="translate(413.724609 0)"/>
      <use xlink:href="#DejaVuSans-64" transform="translate(474.90625 0)"/>
      <use xlink:href="#DejaVuSans-75" transform="translate(538.382812 0)"/>
      <use xlink:href="#DejaVuSans-63" transform="translate(601.761719 0)"/>
      <use xlink:href="#DejaVuSans-74" transform="translate(656.742188 0)"/>
      <use xlink:href="#DejaVuSans-20" transform="translate(695.951172 0)"/>
      <use xlink:href="#DejaVuSans-50" transform="translate(727.738281 0)"/>
      <use xlink:href="#DejaVuSans-44" transform="translate(788.041016 0)"/>
      <use xlink:href="#DejaVuSans-43" transform="translate(865.042969 0)"/>
     </g>
    </g>
   </g>
   <g id="matplotlib.axis_4">
    <g id="ytick_7">
     <g id="line2d_25">
      <g>
       <use xlink:href="#m2e28586b60" x="349.707604" y="318.76" style="stroke: #000000; stroke-width: 0.8"/>
      </g>
     </g>
     <g id="text_28">
      <!-- 0 -->
      <g transform="translate(336.981354 322.179297) scale(0.09 -0.09)">
       <use xlink:href="#DejaVuSans-30"/>
      </g>
     </g>
    </g>
    <g id="ytick_8">
     <g id="line2d_26">
      <g>
       <use xlink:href="#m2e28586b60" x="349.707604" y="271.25757" style="stroke: #000000; stroke-width: 0.8"/>
      </g>
     </g>
     <g id="text_29">
      <!-- 100 -->
      <g transform="translate(325.528854 274.676867) scale(0.09 -0.09)">
       <use xlink:href="#DejaVuSans-31"/>
       <use xlink:href="#DejaVuSans-30" transform="translate(63.623047 0)"/>
       <use xlink:href="#DejaVuSans-30" transform="translate(127.246094 0)"/>
      </g>
     </g>
    </g>
    <g id="ytick_9">
     <g id="line2d_27">
      <g>
       <use xlink:href="#m2e28586b60" x="349.707604" y="223.755141" style="stroke: #000000; stroke-width: 0.8"/>
      </g>
     </g>
     <g id="text_30">
      <!-- 200 -->
      <g transform="translate(325.528854 227.174438) scale(0.09 -0.09)">
       <use xlink:href="#DejaVuSans-32"/>
       <use xlink:href="#DejaVuSans-30" transform="translate(63.623047 0)"/>
       <use xlink:href="#DejaVuSans-30" transform="translate(127.246094 0)"/>
      </g>
     </g>
    </g>
    <g id="ytick_10">
     <g id="line2d_28">
      <g>
       <use xlink:href="#m2e28586b60" x="349.707604" y="176.252711" style="stroke: #000000; stroke-width: 0.8"/>
      </g>
     </g>
     <g id="text_31">
      <!-- 300 -->
      <g transform="translate(325.528854 179.672008) scale(0.09 -0.09)">
       <use xlink:href="#DejaVuSans-33"/>
       <use xlink:href="#DejaVuSans-30" transform="translate(63.623047 0)"/>
       <use xlink:href="#DejaVuSans-30" transform="translate(127.246094 0)"/>
      </g>
     </g>
    </g>
    <g id="ytick_11">
     <g id="line2d_29">
      <g>
       <use xlink:href="#m2e28586b60" x="349.707604" y="128.750282" style="stroke: #000000; stroke-width: 0.8"/>
      </g>
     </g>
     <g id="text_32">
      <!-- 400 -->
      <g transform="translate(325.528854 132.169579) scale(0.09 -0.09)">
       <use xlink:href="#DejaVuSans-34"/>
       <use xlink:href="#DejaVuSans-30" transform="translate(63.623047 0)"/>
       <use xlink:href="#DejaVuSans-30" transform="translate(127.246094 0)"/>
      </g>
     </g>
    </g>
    <g id="ytick_12">
     <g id="line2d_30">
      <g>
       <use xlink:href="#m2e28586b60" x="349.707604" y="81.247852" style="stroke: #000000; stroke-width: 0.8"/>
      </g>
     </g>
     <g id="text_33">
      <!-- 500 -->
      <g transform="translate(325.528854 84.667149) scale(0.09 -0.09)">
       <use xlink:href="#DejaVuSans-35"/>
       <use xlink:href="#DejaVuSans-30" transform="translate(63.623047 0)"/>
       <use xlink:href="#DejaVuSans-30" transform="translate(127.246094 0)"/>
      </g>
     </g>
    </g>
    <g id="text_34">
     <!-- Patients -->
     <g transform="translate(319.449167 204.353281) rotate(-90) scale(0.1 -0.1)">
      <use xlink:href="#DejaVuSans-50"/>
      <use xlink:href="#DejaVuSans-61" transform="translate(55.802734 0)"/>
      <use xlink:href="#DejaVuSans-74" transform="translate(117.082031 0)"/>
      <use xlink:href="#DejaVuSans-69" transform="translate(156.291016 0)"/>
      <use xlink:href="#DejaVuSans-65" transform="translate(184.074219 0)"/>
      <use xlink:href="#DejaVuSans-6e" transform="translate(245.597656 0)"/>
      <use xlink:href="#DejaVuSans-74" transform="translate(308.976562 0)"/>
      <use xlink:href="#DejaVuSans-73" transform="translate(348.185547 0)"/>
     </g>
    </g>
   </g>
   <g id="line2d_31">
    <path d="M 549.332938 318.76 
L 549.332938 49.92 
" clip-path="url(#p2c797b1fa2)" style="fill: none; stroke-dasharray: 7.4,3.2; stroke-dashoffset: 0; stroke: #e0b663; stroke-width: 2"/>
   </g>
   <g id="patch_16">
    <path d="M 349.707604 318.76 
L 349.707604 49.92 
" style="fill: none; stroke: #000000; stroke-width: 0.8; stroke-linejoin: miter; stroke-linecap: square"/>
   </g>
   <g id="patch_17">
    <path d="M 349.707604 318.76 
L 599.239271 318.76 
" style="fill: none; stroke: #000000; stroke-width: 0.8; stroke-linejoin: miter; stroke-linecap: square"/>
   </g>
   <g id="text_35">
    <!-- 0.80 threshold -->
    <g style="fill: #7a5a16" transform="translate(479.062773 72.888994) scale(0.09 -0.09)">
     <defs>
      <path id="DejaVuSans-68" d="M 3513 2113 
L 3513 0 
L 2938 0 
L 2938 2094 
Q 2938 2591 2744 2837 
Q 2550 3084 2163 3084 
Q 1697 3084 1428 2787 
Q 1159 2491 1159 1978 
L 1159 0 
L 581 0 
L 581 4863 
L 1159 4863 
L 1159 2956 
Q 1366 3272 1645 3428 
Q 1925 3584 2291 3584 
Q 2894 3584 3203 3211 
Q 3513 2838 3513 2113 
z
" transform="scale(0.015625)"/>
     </defs>
     <use xlink:href="#DejaVuSans-30"/>
     <use xlink:href="#DejaVuSans-2e" transform="translate(63.623047 0)"/>
     <use xlink:href="#DejaVuSans-38" transform="translate(95.410156 0)"/>
     <use xlink:href="#DejaVuSans-30" transform="translate(159.033203 0)"/>
     <use xlink:href="#DejaVuSans-20" transform="translate(222.65625 0)"/>
     <use xlink:href="#DejaVuSans-74" transform="translate(254.443359 0)"/>
     <use xlink:href="#DejaVuSans-68" transform="translate(293.652344 0)"/>
     <use xlink:href="#DejaVuSans-72" transform="translate(357.03125 0)"/>
     <use xlink:href="#DejaVuSans-65" transform="translate(395.894531 0)"/>
     <use xlink:href="#DejaVuSans-73" transform="translate(457.417969 0)"/>
     <use xlink:href="#DejaVuSans-68" transform="translate(509.517578 0)"/>
     <use xlink:href="#DejaVuSans-6f" transform="translate(572.896484 0)"/>
     <use xlink:href="#DejaVuSans-6c" transform="translate(634.078125 0)"/>
     <use xlink:href="#DejaVuSans-64" transform="translate(661.861328 0)"/>
    </g>
   </g>
   <g id="text_36">
    <!-- PDC -->
    <g transform="translate(463.081563 43.92) scale(0.11 -0.11)">
     <use xlink:href="#DejaVuSans-50"/>
     <use xlink:href="#DejaVuSans-44" transform="translate(60.302734 0)"/>
     <use xlink:href="#DejaVuSans-43" transform="translate(137.304688 0)"/>
    </g>
   </g>
  </g>
  <g id="axes_3">
   <g id="patch_18">
    <path d="M 657.224271 318.76 
L 906.755938 318.76 
L 906.755938 49.92 
L 657.224271 49.92 
z
" style="fill: #ffffff"/>
   </g>
   <g id="matplotlib.axis_5">
    <g id="xtick_15">
     <g id="line2d_32">
      <g>
       <use xlink:href="#mc537f73e35" x="657.224271" y="318.76" style="stroke: #000000; stroke-width: 0.8"/>
      </g>
     </g>
     <g id="text_37">
      <!-- 8.0% -->
      <g transform="translate(645.792161 332.598594) scale(0.09 -0.09)">
       <use xlink:href="#DejaVuSans-38"/>
       <use xlink:href="#DejaVuSans-2e" transform="translate(63.623047 0)"/>
       <use xlink:href="#DejaVuSans-30" transform="translate(95.410156 0)"/>
       <use xlink:href="#DejaVuSans-25" transform="translate(159.033203 0)"/>
      </g>
     </g>
    </g>
    <g id="xtick_16">
     <g id="line2d_33">
      <g>
       <use xlink:href="#mc537f73e35" x="686.580938" y="318.76" style="stroke: #000000; stroke-width: 0.8"/>
      </g>
     </g>
     <g id="text_38">
      <!-- 10.0% -->
      <g transform="translate(672.285703 332.598594) scale(0.09 -0.09)">
       <use xlink:href="#DejaVuSans-31"/>
       <use xlink:href="#DejaVuSans-30" transform="translate(63.623047 0)"/>
       <use xlink:href="#DejaVuSans-2e" transform="translate(127.246094 0)"/>
       <use xlink:href="#DejaVuSans-30" transform="translate(159.033203 0)"/>
       <use xlink:href="#DejaVuSans-25" transform="translate(222.65625 0)"/>
      </g>
     </g>
    </g>
    <g id="xtick_17">
     <g id="line2d_34">
      <g>
       <use xlink:href="#mc537f73e35" x="715.937604" y="318.76" style="stroke: #000000; stroke-width: 0.8"/>
      </g>
     </g>
     <g id="text_39">
      <!-- 12.0% -->
      <g transform="translate(701.64237 332.598594) scale(0.09 -0.09)">
       <use xlink:href="#DejaVuSans-31"/>
       <use xlink:href="#DejaVuSans-32" transform="translate(63.623047 0)"/>
       <use xlink:href="#DejaVuSans-2e" transform="translate(127.246094 0)"/>
       <use xlink:href="#DejaVuSans-30" transform="translate(159.033203 0)"/>
       <use xlink:href="#DejaVuSans-25" transform="translate(222.65625 0)"/>
      </g>
     </g>
    </g>
    <g id="xtick_18">
     <g id="line2d_35">
      <g>
       <use xlink:href="#mc537f73e35" x="745.294271" y="318.76" style="stroke: #000000; stroke-width: 0.8"/>
      </g>
     </g>
     <g id="text_40">
      <!-- 14.0% -->
      <g transform="translate(730.999036 332.598594) scale(0.09 -0.09)">
       <use xlink:href="#DejaVuSans-31"/>
       <use xlink:href="#DejaVuSans-34" transform="translate(63.623047 0)"/>
       <use xlink:href="#DejaVuSans-2e" transform="translate(127.246094 0)"/>
       <use xlink:href="#DejaVuSans-30" transform="translate(159.033203 0)"/>
       <use xlink:href="#DejaVuSans-25" transform="translate(222.65625 0)"/>
      </g>
     </g>
    </g>
    <g id="xtick_19">
     <g id="line2d_36">
      <g>
       <use xlink:href="#mc537f73e35" x="774.650938" y="318.76" style="stroke: #000000; stroke-width: 0.8"/>
      </g>
     </g>
     <g id="text_41">
      <!-- 16.0% -->
      <g transform="translate(760.355703 332.598594) scale(0.09 -0.09)">
       <use xlink:href="#DejaVuSans-31"/>
       <use xlink:href="#DejaVuSans-36" transform="translate(63.623047 0)"/>
       <use xlink:href="#DejaVuSans-2e" transform="translate(127.246094 0)"/>
       <use xlink:href="#DejaVuSans-30" transform="translate(159.033203 0)"/>
       <use xlink:href="#DejaVuSans-25" transform="translate(222.65625 0)"/>
      </g>
     </g>
    </g>
    <g id="xtick_20">
     <g id="line2d_37">
      <g>
       <use xlink:href="#mc537f73e35" x="804.007604" y="318.76" style="stroke: #000000; stroke-width: 0.8"/>
      </g>
     </g>
     <g id="text_42">
      <!-- 18.0% -->
      <g transform="translate(789.71237 332.598594) scale(0.09 -0.09)">
       <use xlink:href="#DejaVuSans-31"/>
       <use xlink:href="#DejaVuSans-38" transform="translate(63.623047 0)"/>
       <use xlink:href="#DejaVuSans-2e" transform="translate(127.246094 0)"/>
       <use xlink:href="#DejaVuSans-30" transform="translate(159.033203 0)"/>
       <use xlink:href="#DejaVuSans-25" transform="translate(222.65625 0)"/>
      </g>
     </g>
    </g>
    <g id="xtick_21">
     <g id="line2d_38">
      <g>
       <use xlink:href="#mc537f73e35" x="833.364271" y="318.76" style="stroke: #000000; stroke-width: 0.8"/>
      </g>
     </g>
     <g id="text_43">
      <!-- 20.0% -->
      <g transform="translate(819.069036 332.598594) scale(0.09 -0.09)">
       <use xlink:href="#DejaVuSans-32"/>
       <use xlink:href="#DejaVuSans-30" transform="translate(63.623047 0)"/>
       <use xlink:href="#DejaVuSans-2e" transform="translate(127.246094 0)"/>
       <use xlink:href="#DejaVuSans-30" transform="translate(159.033203 0)"/>
       <use xlink:href="#DejaVuSans-25" transform="translate(222.65625 0)"/>
      </g>
     </g>
    </g>
    <g id="xtick_22">
     <g id="line2d_39">
      <g>
       <use xlink:href="#mc537f73e35" x="862.720938" y="318.76" style="stroke: #000000; stroke-width: 0.8"/>
      </g>
     </g>
     <g id="text_44">
      <!-- 22.0% -->
      <g transform="translate(848.425703 332.598594) scale(0.09 -0.09)">
       <use xlink:href="#DejaVuSans-32"/>
       <use xlink:href="#DejaVuSans-32" transform="translate(63.623047 0)"/>
       <use xlink:href="#DejaVuSans-2e" transform="translate(127.246094 0)"/>
       <use xlink:href="#DejaVuSans-30" transform="translate(159.033203 0)"/>
       <use xlink:href="#DejaVuSans-25" transform="translate(222.65625 0)"/>
      </g>
     </g>
    </g>
    <g id="xtick_23">
     <g id="line2d_40">
      <g>
       <use xlink:href="#mc537f73e35" x="892.077604" y="318.76" style="stroke: #000000; stroke-width: 0.8"/>
      </g>
     </g>
     <g id="text_45">
      <!-- 24.0% -->
      <g transform="translate(877.78237 332.598594) scale(0.09 -0.09)">
       <use xlink:href="#DejaVuSans-32"/>
       <use xlink:href="#DejaVuSans-34" transform="translate(63.623047 0)"/>
       <use xlink:href="#DejaVuSans-2e" transform="translate(127.246094 0)"/>
       <use xlink:href="#DejaVuSans-30" transform="translate(159.033203 0)"/>
       <use xlink:href="#DejaVuSans-25" transform="translate(222.65625 0)"/>
      </g>
     </g>
    </g>
    <g id="text_46">
     <!-- PDC at or above 0.80 -->
     <g transform="translate(728.672135 346.06875) scale(0.1 -0.1)">
      <defs>
       <path id="DejaVuSans-62" d="M 3116 1747 
Q 3116 2381 2855 2742 
Q 2594 3103 2138 3103 
Q 1681 3103 1420 2742 
Q 1159 2381 1159 1747 
Q 1159 1113 1420 752 
Q 1681 391 2138 391 
Q 2594 391 2855 752 
Q 3116 1113 3116 1747 
z
M 1159 2969 
Q 1341 3281 1617 3432 
Q 1894 3584 2278 3584 
Q 2916 3584 3314 3078 
Q 3713 2572 3713 1747 
Q 3713 922 3314 415 
Q 2916 -91 2278 -91 
Q 1894 -91 1617 61 
Q 1341 213 1159 525 
L 1159 0 
L 581 0 
L 581 4863 
L 1159 4863 
L 1159 2969 
z
" transform="scale(0.015625)"/>
       <path id="DejaVuSans-76" d="M 191 3500 
L 800 3500 
L 1894 563 
L 2988 3500 
L 3597 3500 
L 2284 0 
L 1503 0 
L 191 3500 
z
" transform="scale(0.015625)"/>
      </defs>
      <use xlink:href="#DejaVuSans-50"/>
      <use xlink:href="#DejaVuSans-44" transform="translate(60.302734 0)"/>
      <use xlink:href="#DejaVuSans-43" transform="translate(137.304688 0)"/>
      <use xlink:href="#DejaVuSans-20" transform="translate(207.128906 0)"/>
      <use xlink:href="#DejaVuSans-61" transform="translate(238.916016 0)"/>
      <use xlink:href="#DejaVuSans-74" transform="translate(300.195312 0)"/>
      <use xlink:href="#DejaVuSans-20" transform="translate(339.404297 0)"/>
      <use xlink:href="#DejaVuSans-6f" transform="translate(371.191406 0)"/>
      <use xlink:href="#DejaVuSans-72" transform="translate(432.373047 0)"/>
      <use xlink:href="#DejaVuSans-20" transform="translate(473.486328 0)"/>
      <use xlink:href="#DejaVuSans-61" transform="translate(505.273438 0)"/>
      <use xlink:href="#DejaVuSans-62" transform="translate(566.552734 0)"/>
      <use xlink:href="#DejaVuSans-6f" transform="translate(630.029297 0)"/>
      <use xlink:href="#DejaVuSans-76" transform="translate(691.210938 0)"/>
      <use xlink:href="#DejaVuSans-65" transform="translate(750.390625 0)"/>
      <use xlink:href="#DejaVuSans-20" transform="translate(811.914062 0)"/>
      <use xlink:href="#DejaVuSans-30" transform="translate(843.701172 0)"/>
      <use xlink:href="#DejaVuSans-2e" transform="translate(907.324219 0)"/>
      <use xlink:href="#DejaVuSans-38" transform="translate(939.111328 0)"/>
      <use xlink:href="#DejaVuSans-30" transform="translate(1002.734375 0)"/>
     </g>
    </g>
   </g>
   <g id="matplotlib.axis_6">
    <g id="ytick_13">
     <g id="line2d_41">
      <g>
       <use xlink:href="#m2e28586b60" x="657.224271" y="62.14" style="stroke: #000000; stroke-width: 0.8"/>
      </g>
     </g>
     <g id="text_47">
      <!-- PAY001 -->
      <g transform="translate(617.236458 65.559297) scale(0.09 -0.09)">
       <defs>
        <path id="DejaVuSans-41" d="M 2188 4044 
L 1331 1722 
L 3047 1722 
L 2188 4044 
z
M 1831 4666 
L 2547 4666 
L 4325 0 
L 3669 0 
L 3244 1197 
L 1141 1197 
L 716 0 
L 50 0 
L 1831 4666 
z
" transform="scale(0.015625)"/>
        <path id="DejaVuSans-59" d="M -13 4666 
L 666 4666 
L 1959 2747 
L 3244 4666 
L 3922 4666 
L 2272 2222 
L 2272 0 
L 1638 0 
L 1638 2222 
L -13 4666 
z
" transform="scale(0.015625)"/>
       </defs>
       <use xlink:href="#DejaVuSans-50"/>
       <use xlink:href="#DejaVuSans-41" transform="translate(53.927734 0)"/>
       <use xlink:href="#DejaVuSans-59" transform="translate(114.585938 0)"/>
       <use xlink:href="#DejaVuSans-30" transform="translate(175.669922 0)"/>
       <use xlink:href="#DejaVuSans-30" transform="translate(239.292969 0)"/>
       <use xlink:href="#DejaVuSans-31" transform="translate(302.916016 0)"/>
      </g>
     </g>
    </g>
    <g id="ytick_14">
     <g id="line2d_42">
      <g>
       <use xlink:href="#m2e28586b60" x="657.224271" y="97.054286" style="stroke: #000000; stroke-width: 0.8"/>
      </g>
     </g>
     <g id="text_48">
      <!-- PAY002 -->
      <g transform="translate(617.236458 100.473583) scale(0.09 -0.09)">
       <use xlink:href="#DejaVuSans-50"/>
       <use xlink:href="#DejaVuSans-41" transform="translate(53.927734 0)"/>
       <use xlink:href="#DejaVuSans-59" transform="translate(114.585938 0)"/>
       <use xlink:href="#DejaVuSans-30" transform="translate(175.669922 0)"/>
       <use xlink:href="#DejaVuSans-30" transform="translate(239.292969 0)"/>
       <use xlink:href="#DejaVuSans-32" transform="translate(302.916016 0)"/>
      </g>
     </g>
    </g>
    <g id="ytick_15">
     <g id="line2d_43">
      <g>
       <use xlink:href="#m2e28586b60" x="657.224271" y="131.968571" style="stroke: #000000; stroke-width: 0.8"/>
      </g>
     </g>
     <g id="text_49">
      <!-- PAY003 -->
      <g transform="translate(617.236458 135.387868) scale(0.09 -0.09)">
       <use xlink:href="#DejaVuSans-50"/>
       <use xlink:href="#DejaVuSans-41" transform="translate(53.927734 0)"/>
       <use xlink:href="#DejaVuSans-59" transform="translate(114.585938 0)"/>
       <use xlink:href="#DejaVuSans-30" transform="translate(175.669922 0)"/>
       <use xlink:href="#DejaVuSans-30" transform="translate(239.292969 0)"/>
       <use xlink:href="#DejaVuSans-33" transform="translate(302.916016 0)"/>
      </g>
     </g>
    </g>
    <g id="ytick_16">
     <g id="line2d_44">
      <g>
       <use xlink:href="#m2e28586b60" x="657.224271" y="166.882857" style="stroke: #000000; stroke-width: 0.8"/>
      </g>
     </g>
     <g id="text_50">
      <!-- PAY004 -->
      <g transform="translate(617.236458 170.302154) scale(0.09 -0.09)">
       <use xlink:href="#DejaVuSans-50"/>
       <use xlink:href="#DejaVuSans-41" transform="translate(53.927734 0)"/>
       <use xlink:href="#DejaVuSans-59" transform="translate(114.585938 0)"/>
       <use xlink:href="#DejaVuSans-30" transform="translate(175.669922 0)"/>
       <use xlink:href="#DejaVuSans-30" transform="translate(239.292969 0)"/>
       <use xlink:href="#DejaVuSans-34" transform="translate(302.916016 0)"/>
      </g>
     </g>
    </g>
    <g id="ytick_17">
     <g id="line2d_45">
      <g>
       <use xlink:href="#m2e28586b60" x="657.224271" y="201.797143" style="stroke: #000000; stroke-width: 0.8"/>
      </g>
     </g>
     <g id="text_51">
      <!-- PAY005 -->
      <g transform="translate(617.236458 205.21644) scale(0.09 -0.09)">
       <use xlink:href="#DejaVuSans-50"/>
       <use xlink:href="#DejaVuSans-41" transform="translate(53.927734 0)"/>
       <use xlink:href="#DejaVuSans-59" transform="translate(114.585938 0)"/>
       <use xlink:href="#DejaVuSans-30" transform="translate(175.669922 0)"/>
       <use xlink:href="#DejaVuSans-30" transform="translate(239.292969 0)"/>
       <use xlink:href="#DejaVuSans-35" transform="translate(302.916016 0)"/>
      </g>
     </g>
    </g>
    <g id="ytick_18">
     <g id="line2d_46">
      <g>
       <use xlink:href="#m2e28586b60" x="657.224271" y="236.711429" style="stroke: #000000; stroke-width: 0.8"/>
      </g>
     </g>
     <g id="text_52">
      <!-- PAY006 -->
      <g transform="translate(617.236458 240.130725) scale(0.09 -0.09)">
       <use xlink:href="#DejaVuSans-50"/>
       <use xlink:href="#DejaVuSans-41" transform="translate(53.927734 0)"/>
       <use xlink:href="#DejaVuSans-59" transform="translate(114.585938 0)"/>
       <use xlink:href="#DejaVuSans-30" transform="translate(175.669922 0)"/>
       <use xlink:href="#DejaVuSans-30" transform="translate(239.292969 0)"/>
       <use xlink:href="#DejaVuSans-36" transform="translate(302.916016 0)"/>
      </g>
     </g>
    </g>
    <g id="ytick_19">
     <g id="line2d_47">
      <g>
       <use xlink:href="#m2e28586b60" x="657.224271" y="271.625714" style="stroke: #000000; stroke-width: 0.8"/>
      </g>
     </g>
     <g id="text_53">
      <!-- PAY007 -->
      <g transform="translate(617.236458 275.045011) scale(0.09 -0.09)">
       <use xlink:href="#DejaVuSans-50"/>
       <use xlink:href="#DejaVuSans-41" transform="translate(53.927734 0)"/>
       <use xlink:href="#DejaVuSans-59" transform="translate(114.585938 0)"/>
       <use xlink:href="#DejaVuSans-30" transform="translate(175.669922 0)"/>
       <use xlink:href="#DejaVuSans-30" transform="translate(239.292969 0)"/>
       <use xlink:href="#DejaVuSans-37" transform="translate(302.916016 0)"/>
      </g>
     </g>
    </g>
    <g id="ytick_20">
     <g id="line2d_48">
      <g>
       <use xlink:href="#m2e28586b60" x="657.224271" y="306.54" style="stroke: #000000; stroke-width: 0.8"/>
      </g>
     </g>
     <g id="text_54">
      <!-- PAY008 -->
      <g transform="translate(617.236458 309.959297) scale(0.09 -0.09)">
       <use xlink:href="#DejaVuSans-50"/>
       <use xlink:href="#DejaVuSans-41" transform="translate(53.927734 0)"/>
       <use xlink:href="#DejaVuSans-59" transform="translate(114.585938 0)"/>
       <use xlink:href="#DejaVuSans-30" transform="translate(175.669922 0)"/>
       <use xlink:href="#DejaVuSans-30" transform="translate(239.292969 0)"/>
       <use xlink:href="#DejaVuSans-38" transform="translate(302.916016 0)"/>
      </g>
     </g>
    </g>
   </g>
   <g id="LineCollection_1">
    <path d="M 729.102741 62.14 
L 849.991103 62.14 
" clip-path="url(#pe3cc511ac0)" style="fill: none; stroke: #9a9a9a; stroke-width: 1.5"/>
    <path d="M 753.726898 97.054286 
L 875.771336 97.054286 
" clip-path="url(#pe3cc511ac0)" style="fill: none; stroke: #9a9a9a; stroke-width: 1.5"/>
    <path d="M 732.761343 131.968571 
L 850.237432 131.968571 
" clip-path="url(#pe3cc511ac0)" style="fill: none; stroke: #9a9a9a; stroke-width: 1.5"/>
    <path d="M 687.000341 166.882857 
L 791.283854 166.882857 
" clip-path="url(#pe3cc511ac0)" style="fill: none; stroke: #9a9a9a; stroke-width: 1.5"/>
    <path d="M 697.653732 201.797143 
L 804.40833 201.797143 
" clip-path="url(#pe3cc511ac0)" style="fill: none; stroke: #9a9a9a; stroke-width: 1.5"/>
    <path d="M 727.650776 236.711429 
L 843.672789 236.711429 
" clip-path="url(#pe3cc511ac0)" style="fill: none; stroke: #9a9a9a; stroke-width: 1.5"/>
    <path d="M 702.9327 271.625714 
L 814.290344 271.625714 
" clip-path="url(#pe3cc511ac0)" style="fill: none; stroke: #9a9a9a; stroke-width: 1.5"/>
    <path d="M 712.550934 306.54 
L 825.42814 306.54 
" clip-path="url(#pe3cc511ac0)" style="fill: none; stroke: #9a9a9a; stroke-width: 1.5"/>
   </g>
   <g id="line2d_49">
    <defs>
     <path id="m4fa15c1751" d="M 0 3 
L 0 -3 
" style="stroke: #9a9a9a"/>
    </defs>
    <g clip-path="url(#pe3cc511ac0)">
     <use xlink:href="#m4fa15c1751" x="729.102741" y="62.14" style="fill: #7ba6d0; stroke: #9a9a9a"/>
     <use xlink:href="#m4fa15c1751" x="753.726898" y="97.054286" style="fill: #7ba6d0; stroke: #9a9a9a"/>
     <use xlink:href="#m4fa15c1751" x="732.761343" y="131.968571" style="fill: #7ba6d0; stroke: #9a9a9a"/>
     <use xlink:href="#m4fa15c1751" x="687.000341" y="166.882857" style="fill: #7ba6d0; stroke: #9a9a9a"/>
     <use xlink:href="#m4fa15c1751" x="697.653732" y="201.797143" style="fill: #7ba6d0; stroke: #9a9a9a"/>
     <use xlink:href="#m4fa15c1751" x="727.650776" y="236.711429" style="fill: #7ba6d0; stroke: #9a9a9a"/>
     <use xlink:href="#m4fa15c1751" x="702.9327" y="271.625714" style="fill: #7ba6d0; stroke: #9a9a9a"/>
     <use xlink:href="#m4fa15c1751" x="712.550934" y="306.54" style="fill: #7ba6d0; stroke: #9a9a9a"/>
    </g>
   </g>
   <g id="line2d_50">
    <g clip-path="url(#pe3cc511ac0)">
     <use xlink:href="#m4fa15c1751" x="849.991103" y="62.14" style="fill: #7ba6d0; stroke: #9a9a9a"/>
     <use xlink:href="#m4fa15c1751" x="875.771336" y="97.054286" style="fill: #7ba6d0; stroke: #9a9a9a"/>
     <use xlink:href="#m4fa15c1751" x="850.237432" y="131.968571" style="fill: #7ba6d0; stroke: #9a9a9a"/>
     <use xlink:href="#m4fa15c1751" x="791.283854" y="166.882857" style="fill: #7ba6d0; stroke: #9a9a9a"/>
     <use xlink:href="#m4fa15c1751" x="804.40833" y="201.797143" style="fill: #7ba6d0; stroke: #9a9a9a"/>
     <use xlink:href="#m4fa15c1751" x="843.672789" y="236.711429" style="fill: #7ba6d0; stroke: #9a9a9a"/>
     <use xlink:href="#m4fa15c1751" x="814.290344" y="271.625714" style="fill: #7ba6d0; stroke: #9a9a9a"/>
     <use xlink:href="#m4fa15c1751" x="825.42814" y="306.54" style="fill: #7ba6d0; stroke: #9a9a9a"/>
    </g>
   </g>
   <g id="line2d_51">
    <path d="M 768.735788 318.76 
L 768.735788 49.92 
" clip-path="url(#pe3cc511ac0)" style="fill: none; stroke-dasharray: 5.55,2.4; stroke-dashoffset: 0; stroke: #e0b663; stroke-width: 1.5"/>
   </g>
   <g id="line2d_52">
    <defs>
     <path id="m6d1d0b2f6b" d="M 0 3 
C 0.795609 3 1.55874 2.683901 2.12132 2.12132 
C 2.683901 1.55874 3 0.795609 3 0 
C 3 -0.795609 2.683901 -1.55874 2.12132 -2.12132 
C 1.55874 -2.683901 0.795609 -3 0 -3 
C -0.795609 -3 -1.55874 -2.683901 -2.12132 -2.12132 
C -2.683901 -1.55874 -3 -0.795609 -3 0 
C -3 0.795609 -2.683901 1.55874 -2.12132 2.12132 
C -1.55874 2.683901 -0.795609 3 0 3 
z
" style="stroke: #7ba6d0"/>
    </defs>
    <g clip-path="url(#pe3cc511ac0)">
     <use xlink:href="#m6d1d0b2f6b" x="783.604721" y="62.14" style="fill: #7ba6d0; stroke: #7ba6d0"/>
     <use xlink:href="#m6d1d0b2f6b" x="809.438588" y="97.054286" style="fill: #7ba6d0; stroke: #7ba6d0"/>
     <use xlink:href="#m6d1d0b2f6b" x="785.953254" y="131.968571" style="fill: #7ba6d0; stroke: #7ba6d0"/>
     <use xlink:href="#m6d1d0b2f6b" x="733.258038" y="166.882857" style="fill: #7ba6d0; stroke: #7ba6d0"/>
     <use xlink:href="#m6d1d0b2f6b" x="745.294271" y="201.797143" style="fill: #7ba6d0; stroke: #7ba6d0"/>
     <use xlink:href="#m6d1d0b2f6b" x="780.081921" y="236.711429" style="fill: #7ba6d0; stroke: #7ba6d0"/>
     <use xlink:href="#m6d1d0b2f6b" x="752.633438" y="271.625714" style="fill: #7ba6d0; stroke: #7ba6d0"/>
     <use xlink:href="#m6d1d0b2f6b" x="763.201838" y="306.54" style="fill: #7ba6d0; stroke: #7ba6d0"/>
    </g>
   </g>
   <g id="patch_19">
    <path d="M 657.224271 318.76 
L 657.224271 49.92 
" style="fill: none; stroke: #000000; stroke-width: 0.8; stroke-linejoin: miter; stroke-linecap: square"/>
   </g>
   <g id="patch_20">
    <path d="M 657.224271 318.76 
L 906.755938 318.76 
" style="fill: none; stroke: #000000; stroke-width: 0.8; stroke-linejoin: miter; stroke-linecap: square"/>
   </g>
   <g id="text_55">
    <!-- Payer -->
    <g transform="translate(766.65026 43.92) scale(0.11 -0.11)">
     <use xlink:href="#DejaVuSans-50"/>
     <use xlink:href="#DejaVuSans-61" transform="translate(55.802734 0)"/>
     <use xlink:href="#DejaVuSans-79" transform="translate(117.082031 0)"/>
     <use xlink:href="#DejaVuSans-65" transform="translate(176.261719 0)"/>
     <use xlink:href="#DejaVuSans-72" transform="translate(237.785156 0)"/>
    </g>
   </g>
  </g>
  <g id="text_56">
   <!-- Persistence and adherence require different denominators -->
   <g transform="translate(259.264844 17.837812) scale(0.14 -0.14)">
    <defs>
     <path id="DejaVuSans-71" d="M 947 1747 
Q 947 1113 1208 752 
Q 1469 391 1925 391 
Q 2381 391 2643 752 
Q 2906 1113 2906 1747 
Q 2906 2381 2643 2742 
Q 2381 3103 1925 3103 
Q 1469 3103 1208 2742 
Q 947 2381 947 1747 
z
M 2906 525 
Q 2725 213 2448 61 
Q 2172 -91 1784 -91 
Q 1150 -91 751 415 
Q 353 922 353 1747 
Q 353 2572 751 3078 
Q 1150 3584 1784 3584 
Q 2172 3584 2448 3432 
Q 2725 3281 2906 2969 
L 2906 3500 
L 3481 3500 
L 3481 -1331 
L 2906 -1331 
L 2906 525 
z
" transform="scale(0.015625)"/>
    </defs>
    <use xlink:href="#DejaVuSans-50"/>
    <use xlink:href="#DejaVuSans-65" transform="translate(56.677734 0)"/>
    <use xlink:href="#DejaVuSans-72" transform="translate(118.201172 0)"/>
    <use xlink:href="#DejaVuSans-73" transform="translate(159.314453 0)"/>
    <use xlink:href="#DejaVuSans-69" transform="translate(211.414062 0)"/>
    <use xlink:href="#DejaVuSans-73" transform="translate(239.197266 0)"/>
    <use xlink:href="#DejaVuSans-74" transform="translate(291.296875 0)"/>
    <use xlink:href="#DejaVuSans-65" transform="translate(330.505859 0)"/>
    <use xlink:href="#DejaVuSans-6e" transform="translate(392.029297 0)"/>
    <use xlink:href="#DejaVuSans-63" transform="translate(455.408203 0)"/>
    <use xlink:href="#DejaVuSans-65" transform="translate(510.388672 0)"/>
    <use xlink:href="#DejaVuSans-20" transform="translate(571.912109 0)"/>
    <use xlink:href="#DejaVuSans-61" transform="translate(603.699219 0)"/>
    <use xlink:href="#DejaVuSans-6e" transform="translate(664.978516 0)"/>
    <use xlink:href="#DejaVuSans-64" transform="translate(728.357422 0)"/>
    <use xlink:href="#DejaVuSans-20" transform="translate(791.833984 0)"/>
    <use xlink:href="#DejaVuSans-61" transform="translate(823.621094 0)"/>
    <use xlink:href="#DejaVuSans-64" transform="translate(884.900391 0)"/>
    <use xlink:href="#DejaVuSans-68" transform="translate(948.376953 0)"/>
    <use xlink:href="#DejaVuSans-65" transform="translate(1011.755859 0)"/>
    <use xlink:href="#DejaVuSans-72" transform="translate(1073.279297 0)"/>
    <use xlink:href="#DejaVuSans-65" transform="translate(1112.142578 0)"/>
    <use xlink:href="#DejaVuSans-6e" transform="translate(1173.666016 0)"/>
    <use xlink:href="#DejaVuSans-63" transform="translate(1237.044922 0)"/>
    <use xlink:href="#DejaVuSans-65" transform="translate(1292.025391 0)"/>
    <use xlink:href="#DejaVuSans-20" transform="translate(1353.548828 0)"/>
    <use xlink:href="#DejaVuSans-72" transform="translate(1385.335938 0)"/>
    <use xlink:href="#DejaVuSans-65" transform="translate(1424.199219 0)"/>
    <use xlink:href="#DejaVuSans-71" transform="translate(1485.722656 0)"/>
    <use xlink:href="#DejaVuSans-75" transform="translate(1549.199219 0)"/>
    <use xlink:href="#DejaVuSans-69" transform="translate(1612.578125 0)"/>
    <use xlink:href="#DejaVuSans-72" transform="translate(1640.361328 0)"/>
    <use xlink:href="#DejaVuSans-65" transform="translate(1679.224609 0)"/>
    <use xlink:href="#DejaVuSans-20" transform="translate(1740.748047 0)"/>
    <use xlink:href="#DejaVuSans-64" transform="translate(1772.535156 0)"/>
    <use xlink:href="#DejaVuSans-69" transform="translate(1836.011719 0)"/>
    <use xlink:href="#DejaVuSans-66" transform="translate(1863.794922 0)"/>
    <use xlink:href="#DejaVuSans-66" transform="translate(1899 0)"/>
    <use xlink:href="#DejaVuSans-65" transform="translate(1934.205078 0)"/>
    <use xlink:href="#DejaVuSans-72" transform="translate(1995.728516 0)"/>
    <use xlink:href="#DejaVuSans-65" transform="translate(2034.591797 0)"/>
    <use xlink:href="#DejaVuSans-6e" transform="translate(2096.115234 0)"/>
    <use xlink:href="#DejaVuSans-74" transform="translate(2159.494141 0)"/>
    <use xlink:href="#DejaVuSans-20" transform="translate(2198.703125 0)"/>
    <use xlink:href="#DejaVuSans-64" transform="translate(2230.490234 0)"/>
    <use xlink:href="#DejaVuSans-65" transform="translate(2293.966797 0)"/>
    <use xlink:href="#DejaVuSans-6e" transform="translate(2355.490234 0)"/>
    <use xlink:href="#DejaVuSans-6f" transform="translate(2418.869141 0)"/>
    <use xlink:href="#DejaVuSans-6d" transform="translate(2480.050781 0)"/>
    <use xlink:href="#DejaVuSans-69" transform="translate(2577.462891 0)"/>
    <use xlink:href="#DejaVuSans-6e" transform="translate(2605.246094 0)"/>
    <use xlink:href="#DejaVuSans-61" transform="translate(2668.625 0)"/>
    <use xlink:href="#DejaVuSans-74" transform="translate(2729.904297 0)"/>
    <use xlink:href="#DejaVuSans-6f" transform="translate(2769.113281 0)"/>
    <use xlink:href="#DejaVuSans-72" transform="translate(2830.294922 0)"/>
    <use xlink:href="#DejaVuSans-73" transform="translate(2871.408203 0)"/>
   </g>
  </g>
 </g>
 <defs>
  <clipPath id="p1129eeb6ef">
   <rect x="42.190938" y="49.92" width="249.531667" height="268.84"/>
  </clipPath>
  <clipPath id="p2c797b1fa2">
   <rect x="349.707604" y="49.92" width="249.531667" height="268.84"/>
  </clipPath>
  <clipPath id="pe3cc511ac0">
   <rect x="657.224271" y="49.92" width="249.531667" height="268.84"/>
  </clipPath>
 </defs>
</svg>
