<?xml version="1.0" encoding="utf-8" standalone="no"?>
<!DOCTYPE svg PUBLIC "-//W3C//DTD SVG 1.1//EN"
  "http://www.w3.org/Graphics/SVG/1.1/DTD/svg11.dtd">
<svg xmlns:xlink="http://www.w3.org/1999/xlink" width="737.429063pt" height="360.721437pt" viewBox="0 0 737.429063 360.721437" xmlns="http://www.w3.org/2000/svg" version="1.1">
 <metadata>
  <rdf:RDF xmlns:dc="http://purl.org/dc/elements/1.1/" xmlns:cc="http://creativecommons.org/ns#" xmlns:rdf="http://www.w3.org/1999/02/22-rdf-syntax-ns#">
   <cc:Work>
    <dc:type rdf:resource="http://purl.org/dc/dcmitype/StillImage"/>
    <dc:date>2026-06-16T21:46:53.268819</dc:date>
    <dc:format>image/svg+xml</dc:format>
    <dc:creator>
     <cc:Agent>
      <dc:title>Matplotlib v3.10.9, https://matplotlib.org/</dc:title>
     </cc:Agent>
    </dc:creator>
   </cc:Work>
  </rdf:RDF>
 </metadata>
 <defs>
  <style type="text/css">*{stroke-linejoin: round; stroke-linecap: butt}</style>
 </defs>
 <g id="figure_1">
  <g id="patch_1">
   <path d="M 0 360.721437
L 737.429063 360.721437
L 737.429063 0
L 0 0
z
" style="fill: #ffffff"/>
  </g>
  <g id="axes_1">
   <g id="patch_2">
    <path d="M 127.589063 323.165187
L 730.229063 323.165187
L 730.229063 34.877187
L 127.589063 34.877187
z
" style="fill: #ffffff"/>
   </g>
   <g id="matplotlib.axis_1">
    <g id="xtick_1">
     <g id="line2d_1">
      <path d="M 127.589063 323.165187
L 127.589063 34.877187
" clip-path="url(#pbd1b5e477f)" style="fill: none; stroke: #e8ecef; stroke-width: 0.8; stroke-linecap: square"/>
     </g>
     <g id="line2d_2">
      <defs>
       <path id="ma897c151e3" d="M 0 0
L 0 3.5
" style="stroke: #000000; stroke-width: 0.8"/>
      </defs>
      <g>
       <use xlink:href="#ma897c151e3" x="127.589063" y="323.165187" style="stroke: #000000; stroke-width: 0.8"/>
      </g>
     </g>
     <g id="text_1">
      <!-- 0 -->
      <g transform="translate(124.407813 337.763625) scale(0.1 -0.1)">
       <defs>
        <path id="DejaVuSans-30" d="M 2034 4250
Q 1547 4250 1301 3770
Q 1056 3291 1056 2328
Q 1056 1369 1301 889
Q 1547 409 2034 409
Q 2525 409 2770 889
Q 3016 1369 3016 2328
Q 3016 3291 2770 3770
Q 2525 4250 2034 4250
z
M 2034 4750
Q 2819 4750 3233 4129
Q 3647 3509 3647 2328
Q 3647 1150 3233 529
Q 2819 -91 2034 -91
Q 1250 -91 836 529
Q 422 1150 422 2328
Q 422 3509 836 4129
Q 1250 4750 2034 4750
z
" transform="scale(0.015625)"/>
       </defs>
       <use xlink:href="#DejaVuSans-30"/>
      </g>
     </g>
    </g>
    <g id="xtick_2">
     <g id="line2d_3">
      <path d="M 243.203895 323.165187
L 243.203895 34.877187
" clip-path="url(#pbd1b5e477f)" style="fill: none; stroke: #e8ecef; stroke-width: 0.8; stroke-linecap: square"/>
     </g>
     <g id="line2d_4">
      <g>
       <use xlink:href="#ma897c151e3" x="243.203895" y="323.165187" style="stroke: #000000; stroke-width: 0.8"/>
      </g>
     </g>
     <g id="text_2">
      <!-- 2000 -->
      <g transform="translate(230.478895 337.763625) scale(0.1 -0.1)">
       <defs>
        <path id="DejaVuSans-32" d="M 1228 531
L 3431 531
L 3431 0
L 469 0
L 469 531
Q 828 903 1448 1529
Q 2069 2156 2228 2338
Q 2531 2678 2651 2914
Q 2772 3150 2772 3378
Q 2772 3750 2511 3984
Q 2250 4219 1831 4219
Q 1534 4219 1204 4116
Q 875 4013 500 3803
L 500 4441
Q 881 4594 1212 4672
Q 1544 4750 1819 4750
Q 2544 4750 2975 4387
Q 3406 4025 3406 3419
Q 3406 3131 3298 2873
Q 3191 2616 2906 2266
Q 2828 2175 2409 1742
Q 1991 1309 1228 531
z
" transform="scale(0.015625)"/>
       </defs>
       <use xlink:href="#DejaVuSans-32"/>
       <use xlink:href="#DejaVuSans-30" transform="translate(63.623047 0)"/>
       <use xlink:href="#DejaVuSans-30" transform="translate(127.246094 0)"/>
       <use xlink:href="#DejaVuSans-30" transform="translate(190.869141 0)"/>
      </g>
     </g>
    </g>
    <g id="xtick_3">
     <g id="line2d_5">
      <path d="M 358.818727 323.165187
L 358.818727 34.877187
" clip-path="url(#pbd1b5e477f)" style="fill: none; stroke: #e8ecef; stroke-width: 0.8; stroke-linecap: square"/>
     </g>
     <g id="line2d_6">
      <g>
       <use xlink:href="#ma897c151e3" x="358.818727" y="323.165187" style="stroke: #000000; stroke-width: 0.8"/>
      </g>
     </g>
     <g id="text_3">
      <!-- 4000 -->
      <g transform="translate(346.093727 337.763625) scale(0.1 -0.1)">
       <defs>
        <path id="DejaVuSans-34" d="M 2419 4116
L 825 1625
L 2419 1625
L 2419 4116
z
M 2253 4666
L 3047 4666
L 3047 1625
L 3713 1625
L 3713 1100
L 3047 1100
L 3047 0
L 2419 0
L 2419 1100
L 313 1100
L 313 1709
L 2253 4666
z
" transform="scale(0.015625)"/>
       </defs>
       <use xlink:href="#DejaVuSans-34"/>
       <use xlink:href="#DejaVuSans-30" transform="translate(63.623047 0)"/>
       <use xlink:href="#DejaVuSans-30" transform="translate(127.246094 0)"/>
       <use xlink:href="#DejaVuSans-30" transform="translate(190.869141 0)"/>
      </g>
     </g>
    </g>
    <g id="xtick_4">
     <g id="line2d_7">
      <path d="M 474.433559 323.165187
L 474.433559 34.877187
" clip-path="url(#pbd1b5e477f)" style="fill: none; stroke: #e8ecef; stroke-width: 0.8; stroke-linecap: square"/>
     </g>
     <g id="line2d_8">
      <g>
       <use xlink:href="#ma897c151e3" x="474.433559" y="323.165187" style="stroke: #000000; stroke-width: 0.8"/>
      </g>
     </g>
     <g id="text_4">
      <!-- 6000 -->
      <g transform="translate(461.708559 337.763625) scale(0.1 -0.1)">
       <defs>
        <path id="DejaVuSans-36" d="M 2113 2584
Q 1688 2584 1439 2293
Q 1191 2003 1191 1497
Q 1191 994 1439 701
Q 1688 409 2113 409
Q 2538 409 2786 701
Q 3034 994 3034 1497
Q 3034 2003 2786 2293
Q 2538 2584 2113 2584
z
M 3366 4563
L 3366 3988
Q 3128 4100 2886 4159
Q 2644 4219 2406 4219
Q 1781 4219 1451 3797
Q 1122 3375 1075 2522
Q 1259 2794 1537 2939
Q 1816 3084 2150 3084
Q 2853 3084 3261 2657
Q 3669 2231 3669 1497
Q 3669 778 3244 343
Q 2819 -91 2113 -91
Q 1303 -91 875 529
Q 447 1150 447 2328
Q 447 3434 972 4092
Q 1497 4750 2381 4750
Q 2619 4750 2861 4703
Q 3103 4656 3366 4563
z
" transform="scale(0.015625)"/>
       </defs>
       <use xlink:href="#DejaVuSans-36"/>
       <use xlink:href="#DejaVuSans-30" transform="translate(63.623047 0)"/>
       <use xlink:href="#DejaVuSans-30" transform="translate(127.246094 0)"/>
       <use xlink:href="#DejaVuSans-30" transform="translate(190.869141 0)"/>
      </g>
     </g>
    </g>
    <g id="xtick_5">
     <g id="line2d_9">
      <path d="M 590.048391 323.165187
L 590.048391 34.877187
" clip-path="url(#pbd1b5e477f)" style="fill: none; stroke: #e8ecef; stroke-width: 0.8; stroke-linecap: square"/>
     </g>
     <g id="line2d_10">
      <g>
       <use xlink:href="#ma897c151e3" x="590.048391" y="323.165187" style="stroke: #000000; stroke-width: 0.8"/>
      </g>
     </g>
     <g id="text_5">
      <!-- 8000 -->
      <g transform="translate(577.323391 337.763625) scale(0.1 -0.1)">
       <defs>
        <path id="DejaVuSans-38" d="M 2034 2216
Q 1584 2216 1326 1975
Q 1069 1734 1069 1313
Q 1069 891 1326 650
Q 1584 409 2034 409
Q 2484 409 2743 651
Q 3003 894 3003 1313
Q 3003 1734 2745 1975
Q 2488 2216 2034 2216
z
M 1403 2484
Q 997 2584 770 2862
Q 544 3141 544 3541
Q 544 4100 942 4425
Q 1341 4750 2034 4750
Q 2731 4750 3128 4425
Q 3525 4100 3525 3541
Q 3525 3141 3298 2862
Q 3072 2584 2669 2484
Q 3125 2378 3379 2068
Q 3634 1759 3634 1313
Q 3634 634 3220 271
Q 2806 -91 2034 -91
Q 1263 -91 848 271
Q 434 634 434 1313
Q 434 1759 690 2068
Q 947 2378 1403 2484
z
M 1172 3481
Q 1172 3119 1398 2916
Q 1625 2713 2034 2713
Q 2441 2713 2670 2916
Q 2900 3119 2900 3481
Q 2900 3844 2670 4047
Q 2441 4250 2034 4250
Q 1625 4250 1398 4047
Q 1172 3844 1172 3481
z
" transform="scale(0.015625)"/>
       </defs>
       <use xlink:href="#DejaVuSans-38"/>
       <use xlink:href="#DejaVuSans-30" transform="translate(63.623047 0)"/>
       <use xlink:href="#DejaVuSans-30" transform="translate(127.246094 0)"/>
       <use xlink:href="#DejaVuSans-30" transform="translate(190.869141 0)"/>
      </g>
     </g>
    </g>
    <g id="xtick_6">
     <g id="line2d_11">
      <path d="M 705.663223 323.165187
L 705.663223 34.877187
" clip-path="url(#pbd1b5e477f)" style="fill: none; stroke: #e8ecef; stroke-width: 0.8; stroke-linecap: square"/>
     </g>
     <g id="line2d_12">
      <g>
       <use xlink:href="#ma897c151e3" x="705.663223" y="323.165187" style="stroke: #000000; stroke-width: 0.8"/>
      </g>
     </g>
     <g id="text_6">
      <!-- 10000 -->
      <g transform="translate(689.756973 337.763625) scale(0.1 -0.1)">
       <defs>
        <path id="DejaVuSans-31" d="M 794 531
L 1825 531
L 1825 4091
L 703 3866
L 703 4441
L 1819 4666
L 2450 4666
L 2450 531
L 3481 531
L 3481 0
L 794 0
L 794 531
z
" transform="scale(0.015625)"/>
       </defs>
       <use xlink:href="#DejaVuSans-31"/>
       <use xlink:href="#DejaVuSans-30" transform="translate(63.623047 0)"/>
       <use xlink:href="#DejaVuSans-30" transform="translate(127.246094 0)"/>
       <use xlink:href="#DejaVuSans-30" transform="translate(190.869141 0)"/>
       <use xlink:href="#DejaVuSans-30" transform="translate(254.492188 0)"/>
      </g>
     </g>
    </g>
    <g id="text_7">
     <!-- Patients -->
     <g transform="translate(408.895781 351.44175) scale(0.1 -0.1)">
      <defs>
       <path id="DejaVuSans-50" d="M 1259 4147
L 1259 2394
L 2053 2394
Q 2494 2394 2734 2622
Q 2975 2850 2975 3272
Q 2975 3691 2734 3919
Q 2494 4147 2053 4147
L 1259 4147
z
M 628 4666
L 2053 4666
Q 2838 4666 3239 4311
Q 3641 3956 3641 3272
Q 3641 2581 3239 2228
Q 2838 1875 2053 1875
L 1259 1875
L 1259 0
L 628 0
L 628 4666
z
" transform="scale(0.015625)"/>
       <path id="DejaVuSans-61" d="M 2194 1759
Q 1497 1759 1228 1600
Q 959 1441 959 1056
Q 959 750 1161 570
Q 1363 391 1709 391
Q 2188 391 2477 730
Q 2766 1069 2766 1631
L 2766 1759
L 2194 1759
z
M 3341 1997
L 3341 0
L 2766 0
L 2766 531
Q 2569 213 2275 61
Q 1981 -91 1556 -91
Q 1019 -91 701 211
Q 384 513 384 1019
Q 384 1609 779 1909
Q 1175 2209 1959 2209
L 2766 2209
L 2766 2266
Q 2766 2663 2505 2880
Q 2244 3097 1772 3097
Q 1472 3097 1187 3025
Q 903 2953 641 2809
L 641 3341
Q 956 3463 1253 3523
Q 1550 3584 1831 3584
Q 2591 3584 2966 3190
Q 3341 2797 3341 1997
z
" transform="scale(0.015625)"/>
       <path id="DejaVuSans-74" d="M 1172 4494
L 1172 3500
L 2356 3500
L 2356 3053
L 1172 3053
L 1172 1153
Q 1172 725 1289 603
Q 1406 481 1766 481
L 2356 481
L 2356 0
L 1766 0
Q 1100 0 847 248
Q 594 497 594 1153
L 594 3053
L 172 3053
L 172 3500
L 594 3500
L 594 4494
L 1172 4494
z
" transform="scale(0.015625)"/>
       <path id="DejaVuSans-69" d="M 603 3500
L 1178 3500
L 1178 0
L 603 0
L 603 3500
z
M 603 4863
L 1178 4863
L 1178 4134
L 603 4134
L 603 4863
z
" transform="scale(0.015625)"/>
       <path id="DejaVuSans-65" d="M 3597 1894
L 3597 1613
L 953 1613
Q 991 1019 1311 708
Q 1631 397 2203 397
Q 2534 397 2845 478
Q 3156 559 3463 722
L 3463 178
Q 3153 47 2828 -22
Q 2503 -91 2169 -91
Q 1331 -91 842 396
Q 353 884 353 1716
Q 353 2575 817 3079
Q 1281 3584 2069 3584
Q 2775 3584 3186 3129
Q 3597 2675 3597 1894
z
M 3022 2063
Q 3016 2534 2758 2815
Q 2500 3097 2075 3097
Q 1594 3097 1305 2825
Q 1016 2553 972 2059
L 3022 2063
z
" transform="scale(0.015625)"/>
       <path id="DejaVuSans-6e" d="M 3513 2113
L 3513 0
L 2938 0
L 2938 2094
Q 2938 2591 2744 2837
Q 2550 3084 2163 3084
Q 1697 3084 1428 2787
Q 1159 2491 1159 1978
L 1159 0
L 581 0
L 581 3500
L 1159 3500
L 1159 2956
Q 1366 3272 1645 3428
Q 1925 3584 2291 3584
Q 2894 3584 3203 3211
Q 3513 2838 3513 2113
z
" transform="scale(0.015625)"/>
       <path id="DejaVuSans-73" d="M 2834 3397
L 2834 2853
Q 2591 2978 2328 3040
Q 2066 3103 1784 3103
Q 1356 3103 1142 2972
Q 928 2841 928 2578
Q 928 2378 1081 2264
Q 1234 2150 1697 2047
L 1894 2003
Q 2506 1872 2764 1633
Q 3022 1394 3022 966
Q 3022 478 2636 193
Q 2250 -91 1575 -91
Q 1294 -91 989 -36
Q 684 19 347 128
L 347 722
Q 666 556 975 473
Q 1284 391 1588 391
Q 1994 391 2212 530
Q 2431 669 2431 922
Q 2431 1156 2273 1281
Q 2116 1406 1581 1522
L 1381 1569
Q 847 1681 609 1914
Q 372 2147 372 2553
Q 372 3047 722 3315
Q 1072 3584 1716 3584
Q 2034 3584 2315 3537
Q 2597 3491 2834 3397
z
" transform="scale(0.015625)"/>
      </defs>
      <use xlink:href="#DejaVuSans-50"/>
      <use xlink:href="#DejaVuSans-61" transform="translate(55.802734 0)"/>
      <use xlink:href="#DejaVuSans-74" transform="translate(117.082031 0)"/>
      <use xlink:href="#DejaVuSans-69" transform="translate(156.291016 0)"/>
      <use xlink:href="#DejaVuSans-65" transform="translate(184.074219 0)"/>
      <use xlink:href="#DejaVuSans-6e" transform="translate(245.597656 0)"/>
      <use xlink:href="#DejaVuSans-74" transform="translate(308.976562 0)"/>
      <use xlink:href="#DejaVuSans-73" transform="translate(348.185547 0)"/>
     </g>
    </g>
   </g>
   <g id="matplotlib.axis_2">
    <g id="ytick_1">
     <g id="line2d_13">
      <defs>
       <path id="md1ac5b281b" d="M 0 0
L -3.5 0
" style="stroke: #000000; stroke-width: 0.8"/>
      </defs>
      <g>
       <use xlink:href="#md1ac5b281b" x="127.589063" y="85.421187" style="stroke: #000000; stroke-width: 0.8"/>
      </g>
     </g>
     <g id="text_8">
      <!-- True condition -->
      <g transform="translate(49.940625 89.220406) scale(0.1 -0.1)">
       <defs>
        <path id="DejaVuSans-54" d="M -19 4666
L 3928 4666
L 3928 4134
L 2272 4134
L 2272 0
L 1638 0
L 1638 4134
L -19 4134
L -19 4666
z
" transform="scale(0.015625)"/>
        <path id="DejaVuSans-72" d="M 2631 2963
Q 2534 3019 2420 3045
Q 2306 3072 2169 3072
Q 1681 3072 1420 2755
Q 1159 2438 1159 1844
L 1159 0
L 581 0
L 581 3500
L 1159 3500
L 1159 2956
Q 1341 3275 1631 3429
Q 1922 3584 2338 3584
Q 2397 3584 2469 3576
Q 2541 3569 2628 3553
L 2631 2963
z
" transform="scale(0.015625)"/>
        <path id="DejaVuSans-75" d="M 544 1381
L 544 3500
L 1119 3500
L 1119 1403
Q 1119 906 1312 657
Q 1506 409 1894 409
Q 2359 409 2629 706
Q 2900 1003 2900 1516
L 2900 3500
L 3475 3500
L 3475 0
L 2900 0
L 2900 538
Q 2691 219 2414 64
Q 2138 -91 1772 -91
Q 1169 -91 856 284
Q 544 659 544 1381
z
M 1991 3584
L 1991 3584
z
" transform="scale(0.015625)"/>
        <path id="DejaVuSans-20" transform="scale(0.015625)"/>
        <path id="DejaVuSans-63" d="M 3122 3366
L 3122 2828
Q 2878 2963 2633 3030
Q 2388 3097 2138 3097
Q 1578 3097 1268 2742
Q 959 2388 959 1747
Q 959 1106 1268 751
Q 1578 397 2138 397
Q 2388 397 2633 464
Q 2878 531 3122 666
L 3122 134
Q 2881 22 2623 -34
Q 2366 -91 2075 -91
Q 1284 -91 818 406
Q 353 903 353 1747
Q 353 2603 823 3093
Q 1294 3584 2113 3584
Q 2378 3584 2631 3529
Q 2884 3475 3122 3366
z
" transform="scale(0.015625)"/>
        <path id="DejaVuSans-6f" d="M 1959 3097
Q 1497 3097 1228 2736
Q 959 2375 959 1747
Q 959 1119 1226 758
Q 1494 397 1959 397
Q 2419 397 2687 759
Q 2956 1122 2956 1747
Q 2956 2369 2687 2733
Q 2419 3097 1959 3097
z
M 1959 3584
Q 2709 3584 3137 3096
Q 3566 2609 3566 1747
Q 3566 888 3137 398
Q 2709 -91 1959 -91
Q 1206 -91 779 398
Q 353 888 353 1747
Q 353 2609 779 3096
Q 1206 3584 1959 3584
z
" transform="scale(0.015625)"/>
        <path id="DejaVuSans-64" d="M 2906 2969
L 2906 4863
L 3481 4863
L 3481 0
L 2906 0
L 2906 525
Q 2725 213 2448 61
Q 2172 -91 1784 -91
Q 1150 -91 751 415
Q 353 922 353 1747
Q 353 2572 751 3078
Q 1150 3584 1784 3584
Q 2172 3584 2448 3432
Q 2725 3281 2906 2969
z
M 947 1747
Q 947 1113 1208 752
Q 1469 391 1925 391
Q 2381 391 2643 752
Q 2906 1113 2906 1747
Q 2906 2381 2643 2742
Q 2381 3103 1925 3103
Q 1469 3103 1208 2742
Q 947 2381 947 1747
z
" transform="scale(0.015625)"/>
       </defs>
       <use xlink:href="#DejaVuSans-54"/>
       <use xlink:href="#DejaVuSans-72" transform="translate(46.333984 0)"/>
       <use xlink:href="#DejaVuSans-75" transform="translate(87.447266 0)"/>
       <use xlink:href="#DejaVuSans-65" transform="translate(150.826172 0)"/>
       <use xlink:href="#DejaVuSans-20" transform="translate(212.349609 0)"/>
       <use xlink:href="#DejaVuSans-63" transform="translate(244.136719 0)"/>
       <use xlink:href="#DejaVuSans-6f" transform="translate(299.117188 0)"/>
       <use xlink:href="#DejaVuSans-6e" transform="translate(360.298828 0)"/>
       <use xlink:href="#DejaVuSans-64" transform="translate(423.677734 0)"/>
       <use xlink:href="#DejaVuSans-69" transform="translate(487.154297 0)"/>
       <use xlink:href="#DejaVuSans-74" transform="translate(514.9375 0)"/>
       <use xlink:href="#DejaVuSans-69" transform="translate(554.146484 0)"/>
       <use xlink:href="#DejaVuSans-6f" transform="translate(581.929688 0)"/>
       <use xlink:href="#DejaVuSans-6e" transform="translate(643.111328 0)"/>
      </g>
     </g>
    </g>
    <g id="ytick_2">
     <g id="line2d_14">
      <g>
       <use xlink:href="#md1ac5b281b" x="127.589063" y="179.021187" style="stroke: #000000; stroke-width: 0.8"/>
      </g>
     </g>
     <g id="text_9">
      <!-- Coded -->
      <g transform="translate(88.6375 182.820406) scale(0.1 -0.1)">
       <defs>
        <path id="DejaVuSans-43" d="M 4122 4306
L 4122 3641
Q 3803 3938 3442 4084
Q 3081 4231 2675 4231
Q 1875 4231 1450 3742
Q 1025 3253 1025 2328
Q 1025 1406 1450 917
Q 1875 428 2675 428
Q 3081 428 3442 575
Q 3803 722 4122 1019
L 4122 359
Q 3791 134 3420 21
Q 3050 -91 2638 -91
Q 1578 -91 968 557
Q 359 1206 359 2328
Q 359 3453 968 4101
Q 1578 4750 2638 4750
Q 3056 4750 3426 4639
Q 3797 4528 4122 4306
z
" transform="scale(0.015625)"/>
       </defs>
       <use xlink:href="#DejaVuSans-43"/>
       <use xlink:href="#DejaVuSans-6f" transform="translate(69.824219 0)"/>
       <use xlink:href="#DejaVuSans-64" transform="translate(131.005859 0)"/>
       <use xlink:href="#DejaVuSans-65" transform="translate(194.482422 0)"/>
       <use xlink:href="#DejaVuSans-64" transform="translate(256.005859 0)"/>
      </g>
     </g>
    </g>
    <g id="ytick_3">
     <g id="line2d_15">
      <g>
       <use xlink:href="#md1ac5b281b" x="127.589063" y="272.621187" style="stroke: #000000; stroke-width: 0.8"/>
      </g>
     </g>
     <g id="text_10">
      <!-- Paid-claims phenotype -->
      <g transform="translate(7.2 276.420406) scale(0.1 -0.1)">
       <defs>
        <path id="DejaVuSans-2d" d="M 313 2009
L 1997 2009
L 1997 1497
L 313 1497
L 313 2009
z
" transform="scale(0.015625)"/>
        <path id="DejaVuSans-6c" d="M 603 4863
L 1178 4863
L 1178 0
L 603 0
L 603 4863
z
" transform="scale(0.015625)"/>
        <path id="DejaVuSans-6d" d="M 3328 2828
Q 3544 3216 3844 3400
Q 4144 3584 4550 3584
Q 5097 3584 5394 3201
Q 5691 2819 5691 2113
L 5691 0
L 5113 0
L 5113 2094
Q 5113 2597 4934 2840
Q 4756 3084 4391 3084
Q 3944 3084 3684 2787
Q 3425 2491 3425 1978
L 3425 0
L 2847 0
L 2847 2094
Q 2847 2600 2669 2842
Q 2491 3084 2119 3084
Q 1678 3084 1418 2786
Q 1159 2488 1159 1978
L 1159 0
L 581 0
L 581 3500
L 1159 3500
L 1159 2956
Q 1356 3278 1631 3431
Q 1906 3584 2284 3584
Q 2666 3584 2933 3390
Q 3200 3197 3328 2828
z
" transform="scale(0.015625)"/>
        <path id="DejaVuSans-70" d="M 1159 525
L 1159 -1331
L 581 -1331
L 581 3500
L 1159 3500
L 1159 2969
Q 1341 3281 1617 3432
Q 1894 3584 2278 3584
Q 2916 3584 3314 3078
Q 3713 2572 3713 1747
Q 3713 922 3314 415
Q 2916 -91 2278 -91
Q 1894 -91 1617 61
Q 1341 213 1159 525
z
M 3116 1747
Q 3116 2381 2855 2742
Q 2594 3103 2138 3103
Q 1681 3103 1420 2742
Q 1159 2381 1159 1747
Q 1159 1113 1420 752
Q 1681 391 2138 391
Q 2594 391 2855 752
Q 3116 1113 3116 1747
z
" transform="scale(0.015625)"/>
        <path id="DejaVuSans-68" d="M 3513 2113
L 3513 0
L 2938 0
L 2938 2094
Q 2938 2591 2744 2837
Q 2550 3084 2163 3084
Q 1697 3084 1428 2787
Q 1159 2491 1159 1978
L 1159 0
L 581 0
L 581 4863
L 1159 4863
L 1159 2956
Q 1366 3272 1645 3428
Q 1925 3584 2291 3584
Q 2894 3584 3203 3211
Q 3513 2838 3513 2113
z
" transform="scale(0.015625)"/>
        <path id="DejaVuSans-79" d="M 2059 -325
Q 1816 -950 1584 -1140
Q 1353 -1331 966 -1331
L 506 -1331
L 506 -850
L 844 -850
Q 1081 -850 1212 -737
Q 1344 -625 1503 -206
L 1606 56
L 191 3500
L 800 3500
L 1894 763
L 2988 3500
L 3597 3500
L 2059 -325
z
" transform="scale(0.015625)"/>
       </defs>
       <use xlink:href="#DejaVuSans-50"/>
       <use xlink:href="#DejaVuSans-61" transform="translate(55.802734 0)"/>
       <use xlink:href="#DejaVuSans-69" transform="translate(117.082031 0)"/>
       <use xlink:href="#DejaVuSans-64" transform="translate(144.865234 0)"/>
       <use xlink:href="#DejaVuSans-2d" transform="translate(208.341797 0)"/>
       <use xlink:href="#DejaVuSans-63" transform="translate(244.425781 0)"/>
       <use xlink:href="#DejaVuSans-6c" transform="translate(299.40625 0)"/>
       <use xlink:href="#DejaVuSans-61" transform="translate(327.189453 0)"/>
       <use xlink:href="#DejaVuSans-69" transform="translate(388.46875 0)"/>
       <use xlink:href="#DejaVuSans-6d" transform="translate(416.251953 0)"/>
       <use xlink:href="#DejaVuSans-73" transform="translate(513.664062 0)"/>
       <use xlink:href="#DejaVuSans-20" transform="translate(565.763672 0)"/>
       <use xlink:href="#DejaVuSans-70" transform="translate(597.550781 0)"/>
       <use xlink:href="#DejaVuSans-68" transform="translate(661.027344 0)"/>
       <use xlink:href="#DejaVuSans-65" transform="translate(724.40625 0)"/>
       <use xlink:href="#DejaVuSans-6e" transform="translate(785.929688 0)"/>
       <use xlink:href="#DejaVuSans-6f" transform="translate(849.308594 0)"/>
       <use xlink:href="#DejaVuSans-74" transform="translate(910.490234 0)"/>
       <use xlink:href="#DejaVuSans-79" transform="translate(949.699219 0)"/>
       <use xlink:href="#DejaVuSans-70" transform="translate(1008.878906 0)"/>
       <use xlink:href="#DejaVuSans-65" transform="translate(1072.355469 0)"/>
      </g>
     </g>
    </g>
   </g>
   <g id="patch_3">
    <path d="M 593.401221 53.597187
L 665.660491 53.597187
L 665.660491 117.245187
L 593.401221 117.245187
z
" clip-path="url(#pbd1b5e477f)" style="fill: #f4a582; opacity: 0.8; stroke: #c74b50; stroke-width: 0.9; stroke-linejoin: miter"/>
   </g>
   <g id="patch_4">
    <path d="M 593.401221 147.197187
L 593.401221 147.197187
L 593.401221 210.845187
L 593.401221 210.845187
z
" clip-path="url(#pbd1b5e477f)" style="fill: #f4a582; opacity: 0.8; stroke: #c74b50; stroke-width: 0.9; stroke-linejoin: miter"/>
   </g>
   <g id="patch_5">
    <path d="M 127.589063 323.165187
L 730.229063 323.165187
" style="fill: none; stroke: #000000; stroke-width: 0.8; stroke-linejoin: miter; stroke-linecap: square"/>
   </g>
   <g id="patch_6">
    <path d="M 127.589063 47.981187
L 665.660491 47.981187
L 665.660491 122.861187
L 127.589063 122.861187
z
" clip-path="url(#pbd1b5e477f)" style="fill: #2f6690; stroke: #252a2e; stroke-width: 0.9; stroke-linejoin: miter"/>
   </g>
   <g id="patch_7">
    <path d="M 127.589063 141.581187
L 593.401221 141.581187
L 593.401221 216.461187
L 127.589063 216.461187
z
" clip-path="url(#pbd1b5e477f)" style="fill: #4d84ab; stroke: #252a2e; stroke-width: 0.9; stroke-linejoin: miter"/>
   </g>
   <g id="patch_8">
    <path d="M 127.589063 235.181187
L 593.401221 235.181187
L 593.401221 310.061187
L 127.589063 310.061187
z
" clip-path="url(#pbd1b5e477f)" style="fill: #3a7d44; stroke: #252a2e; stroke-width: 0.9; stroke-linejoin: miter"/>
   </g>
   <g id="text_11">
    <!-- 9,308 -->
    <g transform="translate(673.731563 88.732437) scale(0.12 -0.12)">
     <defs>
      <path id="DejaVuSans-Bold-39" d="M 641 103
L 641 966
Q 928 831 1190 764
Q 1453 697 1709 697
Q 2247 697 2547 995
Q 2847 1294 2900 1881
Q 2688 1725 2447 1647
Q 2206 1569 1925 1569
Q 1209 1569 770 1986
Q 331 2403 331 3084
Q 331 3838 820 4291
Q 1309 4744 2131 4744
Q 3044 4744 3544 4128
Q 4044 3513 4044 2388
Q 4044 1231 3459 570
Q 2875 -91 1856 -91
Q 1528 -91 1228 -42
Q 928 6 641 103
z
M 2125 2350
Q 2441 2350 2600 2554
Q 2759 2759 2759 3169
Q 2759 3575 2600 3781
Q 2441 3988 2125 3988
Q 1809 3988 1650 3781
Q 1491 3575 1491 3169
Q 1491 2759 1650 2554
Q 1809 2350 2125 2350
z
" transform="scale(0.015625)"/>
      <path id="DejaVuSans-Bold-2c" d="M 653 1209
L 1778 1209
L 1778 256
L 1006 -909
L 341 -909
L 653 256
L 653 1209
z
" transform="scale(0.015625)"/>
      <path id="DejaVuSans-Bold-33" d="M 2981 2516
Q 3453 2394 3698 2092
Q 3944 1791 3944 1325
Q 3944 631 3412 270
Q 2881 -91 1863 -91
Q 1503 -91 1142 -33
Q 781 25 428 141
L 428 1069
Q 766 900 1098 814
Q 1431 728 1753 728
Q 2231 728 2486 893
Q 2741 1059 2741 1369
Q 2741 1688 2480 1852
Q 2219 2016 1709 2016
L 1228 2016
L 1228 2791
L 1734 2791
Q 2188 2791 2409 2933
Q 2631 3075 2631 3366
Q 2631 3634 2415 3781
Q 2200 3928 1806 3928
Q 1516 3928 1219 3862
Q 922 3797 628 3669
L 628 4550
Q 984 4650 1334 4700
Q 1684 4750 2022 4750
Q 2931 4750 3382 4451
Q 3834 4153 3834 3553
Q 3834 3144 3618 2883
Q 3403 2622 2981 2516
z
" transform="scale(0.015625)"/>
      <path id="DejaVuSans-Bold-30" d="M 2944 2338
Q 2944 3213 2780 3570
Q 2616 3928 2228 3928
Q 1841 3928 1675 3570
Q 1509 3213 1509 2338
Q 1509 1453 1675 1090
Q 1841 728 2228 728
Q 2613 728 2778 1090
Q 2944 1453 2944 2338
z
M 4147 2328
Q 4147 1169 3647 539
Q 3147 -91 2228 -91
Q 1306 -91 806 539
Q 306 1169 306 2328
Q 306 3491 806 4120
Q 1306 4750 2228 4750
Q 3147 4750 3647 4120
Q 4147 3491 4147 2328
z
" transform="scale(0.015625)"/>
      <path id="DejaVuSans-Bold-38" d="M 2228 2088
Q 1891 2088 1709 1903
Q 1528 1719 1528 1375
Q 1528 1031 1709 848
Q 1891 666 2228 666
Q 2563 666 2741 848
Q 2919 1031 2919 1375
Q 2919 1722 2741 1905
Q 2563 2088 2228 2088
z
M 1350 2484
Q 925 2613 709 2878
Q 494 3144 494 3541
Q 494 4131 934 4440
Q 1375 4750 2228 4750
Q 3075 4750 3515 4442
Q 3956 4134 3956 3541
Q 3956 3144 3739 2878
Q 3522 2613 3097 2484
Q 3572 2353 3814 2058
Q 4056 1763 4056 1313
Q 4056 619 3595 264
Q 3134 -91 2228 -91
Q 1319 -91 855 264
Q 391 619 391 1313
Q 391 1763 633 2058
Q 875 2353 1350 2484
z
M 1631 3419
Q 1631 3141 1786 2991
Q 1941 2841 2228 2841
Q 2509 2841 2662 2991
Q 2816 3141 2816 3419
Q 2816 3697 2662 3845
Q 2509 3994 2228 3994
Q 1941 3994 1786 3844
Q 1631 3694 1631 3419
z
" transform="scale(0.015625)"/>
     </defs>
     <use xlink:href="#DejaVuSans-Bold-39"/>
     <use xlink:href="#DejaVuSans-Bold-2c" transform="translate(69.580078 0)"/>
     <use xlink:href="#DejaVuSans-Bold-33" transform="translate(107.568359 0)"/>
     <use xlink:href="#DejaVuSans-Bold-30" transform="translate(177.148438 0)"/>
     <use xlink:href="#DejaVuSans-Bold-38" transform="translate(246.728516 0)"/>
    </g>
   </g>
   <g id="text_12">
    <!-- 8,058 -->
    <g transform="translate(601.472292 182.332437) scale(0.12 -0.12)">
     <defs>
      <path id="DejaVuSans-Bold-35" d="M 678 4666
L 3669 4666
L 3669 3781
L 1638 3781
L 1638 3059
Q 1775 3097 1914 3117
Q 2053 3138 2203 3138
Q 3056 3138 3531 2711
Q 4006 2284 4006 1522
Q 4006 766 3489 337
Q 2972 -91 2053 -91
Q 1656 -91 1267 -14
Q 878 63 494 219
L 494 1166
Q 875 947 1217 837
Q 1559 728 1863 728
Q 2300 728 2551 942
Q 2803 1156 2803 1522
Q 2803 1891 2551 2103
Q 2300 2316 1863 2316
Q 1603 2316 1309 2248
Q 1016 2181 678 2041
L 678 4666
z
" transform="scale(0.015625)"/>
     </defs>
     <use xlink:href="#DejaVuSans-Bold-38"/>
     <use xlink:href="#DejaVuSans-Bold-2c" transform="translate(69.580078 0)"/>
     <use xlink:href="#DejaVuSans-Bold-30" transform="translate(107.568359 0)"/>
     <use xlink:href="#DejaVuSans-Bold-35" transform="translate(177.148438 0)"/>
     <use xlink:href="#DejaVuSans-Bold-38" transform="translate(246.728516 0)"/>
    </g>
   </g>
   <g id="text_13">
    <!-- 8,058 -->
    <g transform="translate(601.472292 275.932437) scale(0.12 -0.12)">
     <use xlink:href="#DejaVuSans-Bold-38"/>
     <use xlink:href="#DejaVuSans-Bold-2c" transform="translate(69.580078 0)"/>
     <use xlink:href="#DejaVuSans-Bold-30" transform="translate(107.568359 0)"/>
     <use xlink:href="#DejaVuSans-Bold-35" transform="translate(177.148438 0)"/>
     <use xlink:href="#DejaVuSans-Bold-38" transform="translate(246.728516 0)"/>
    </g>
   </g>
   <g id="text_14">
    <!-- 1,250 never coded -->
    <g style="fill: #7a3e2c" transform="translate(587.174606 134.704625) scale(0.09 -0.09)">
     <defs>
      <path id="DejaVuSans-2c" d="M 750 794
L 1409 794
L 1409 256
L 897 -744
L 494 -744
L 750 256
L 750 794
z
" transform="scale(0.015625)"/>
      <path id="DejaVuSans-35" d="M 691 4666
L 3169 4666
L 3169 4134
L 1269 4134
L 1269 2991
Q 1406 3038 1543 3061
Q 1681 3084 1819 3084
Q 2600 3084 3056 2656
Q 3513 2228 3513 1497
Q 3513 744 3044 326
Q 2575 -91 1722 -91
Q 1428 -91 1123 -41
Q 819 9 494 109
L 494 744
Q 775 591 1075 516
Q 1375 441 1709 441
Q 2250 441 2565 725
Q 2881 1009 2881 1497
Q 2881 1984 2565 2268
Q 2250 2553 1709 2553
Q 1456 2553 1204 2497
Q 953 2441 691 2322
L 691 4666
z
" transform="scale(0.015625)"/>
      <path id="DejaVuSans-76" d="M 191 3500
L 800 3500
L 1894 563
L 2988 3500
L 3597 3500
L 2284 0
L 1503 0
L 191 3500
z
" transform="scale(0.015625)"/>
     </defs>
     <use xlink:href="#DejaVuSans-31"/>
     <use xlink:href="#DejaVuSans-2c" transform="translate(63.623047 0)"/>
     <use xlink:href="#DejaVuSans-32" transform="translate(95.410156 0)"/>
     <use xlink:href="#DejaVuSans-35" transform="translate(159.033203 0)"/>
     <use xlink:href="#DejaVuSans-30" transform="translate(222.65625 0)"/>
     <use xlink:href="#DejaVuSans-20" transform="translate(286.279297 0)"/>
     <use xlink:href="#DejaVuSans-6e" transform="translate(318.066406 0)"/>
     <use xlink:href="#DejaVuSans-65" transform="translate(381.445312 0)"/>
     <use xlink:href="#DejaVuSans-76" transform="translate(442.96875 0)"/>
     <use xlink:href="#DejaVuSans-65" transform="translate(502.148438 0)"/>
     <use xlink:href="#DejaVuSans-72" transform="translate(563.671875 0)"/>
     <use xlink:href="#DejaVuSans-20" transform="translate(604.785156 0)"/>
     <use xlink:href="#DejaVuSans-63" transform="translate(636.572266 0)"/>
     <use xlink:href="#DejaVuSans-6f" transform="translate(691.552734 0)"/>
     <use xlink:href="#DejaVuSans-64" transform="translate(752.734375 0)"/>
     <use xlink:href="#DejaVuSans-65" transform="translate(816.210938 0)"/>
     <use xlink:href="#DejaVuSans-64" transform="translate(877.734375 0)"/>
    </g>
   </g>
   <g id="text_15">
    <!-- 0 coded, not paid -->
    <g style="fill: #7a3e2c" transform="translate(554.016377 228.304625) scale(0.09 -0.09)">
     <use xlink:href="#DejaVuSans-30"/>
     <use xlink:href="#DejaVuSans-20" transform="translate(63.623047 0)"/>
     <use xlink:href="#DejaVuSans-63" transform="translate(95.410156 0)"/>
     <use xlink:href="#DejaVuSans-6f" transform="translate(150.390625 0)"/>
     <use xlink:href="#DejaVuSans-64" transform="translate(211.572266 0)"/>
     <use xlink:href="#DejaVuSans-65" transform="translate(275.048828 0)"/>
     <use xlink:href="#DejaVuSans-64" transform="translate(336.572266 0)"/>
     <use xlink:href="#DejaVuSans-2c" transform="translate(400.048828 0)"/>
     <use xlink:href="#DejaVuSans-20" transform="translate(431.835938 0)"/>
     <use xlink:href="#DejaVuSans-6e" transform="translate(463.623047 0)"/>
     <use xlink:href="#DejaVuSans-6f" transform="translate(527.001953 0)"/>
     <use xlink:href="#DejaVuSans-74" transform="translate(588.183594 0)"/>
     <use xlink:href="#DejaVuSans-20" transform="translate(627.392578 0)"/>
     <use xlink:href="#DejaVuSans-70" transform="translate(659.179688 0)"/>
     <use xlink:href="#DejaVuSans-61" transform="translate(722.65625 0)"/>
     <use xlink:href="#DejaVuSans-69" transform="translate(783.935547 0)"/>
     <use xlink:href="#DejaVuSans-64" transform="translate(811.71875 0)"/>
    </g>
   </g>
   <g id="text_16">
    <!-- +155 false positives -->
    <g style="fill: #c74b50" transform="translate(593.401221 319.096625) scale(0.09 -0.09)">
     <defs>
      <path id="DejaVuSans-2b" d="M 2944 4013
L 2944 2272
L 4684 2272
L 4684 1741
L 2944 1741
L 2944 0
L 2419 0
L 2419 1741
L 678 1741
L 678 2272
L 2419 2272
L 2419 4013
L 2944 4013
z
" transform="scale(0.015625)"/>
      <path id="DejaVuSans-66" d="M 2375 4863
L 2375 4384
L 1825 4384
Q 1516 4384 1395 4259
Q 1275 4134 1275 3809
L 1275 3500
L 2222 3500
L 2222 3053
L 1275 3053
L 1275 0
L 697 0
L 697 3053
L 147 3053
L 147 3500
L 697 3500
L 697 3744
Q 697 4328 969 4595
Q 1241 4863 1831 4863
L 2375 4863
z
" transform="scale(0.015625)"/>
     </defs>
     <use xlink:href="#DejaVuSans-2b"/>
     <use xlink:href="#DejaVuSans-31" transform="translate(83.789062 0)"/>
     <use xlink:href="#DejaVuSans-35" transform="translate(147.412109 0)"/>
     <use xlink:href="#DejaVuSans-35" transform="translate(211.035156 0)"/>
     <use xlink:href="#DejaVuSans-20" transform="translate(274.658203 0)"/>
     <use xlink:href="#DejaVuSans-66" transform="translate(306.445312 0)"/>
     <use xlink:href="#DejaVuSans-61" transform="translate(341.650391 0)"/>
     <use xlink:href="#DejaVuSans-6c" transform="translate(402.929688 0)"/>
     <use xlink:href="#DejaVuSans-73" transform="translate(430.712891 0)"/>
     <use xlink:href="#DejaVuSans-65" transform="translate(482.8125 0)"/>
     <use xlink:href="#DejaVuSans-20" transform="translate(544.335938 0)"/>
     <use xlink:href="#DejaVuSans-70" transform="translate(576.123047 0)"/>
     <use xlink:href="#DejaVuSans-6f" transform="translate(639.599609 0)"/>
     <use xlink:href="#DejaVuSans-73" transform="translate(700.78125 0)"/>
     <use xlink:href="#DejaVuSans-69" transform="translate(752.880859 0)"/>
     <use xlink:href="#DejaVuSans-74" transform="translate(780.664062 0)"/>
     <use xlink:href="#DejaVuSans-69" transform="translate(819.873047 0)"/>
     <use xlink:href="#DejaVuSans-76" transform="translate(847.65625 0)"/>
     <use xlink:href="#DejaVuSans-65" transform="translate(906.835938 0)"/>
     <use xlink:href="#DejaVuSans-73" transform="translate(968.359375 0)"/>
    </g>
   </g>
   <g id="text_17">
    <!-- Diagnosis visibility gates -->
    <g transform="translate(301.643438 20.877187) scale(0.18 -0.18)">
     <defs>
      <path id="DejaVuSans-Bold-44" d="M 1791 3756
L 1791 909
L 2222 909
Q 2959 909 3348 1275
Q 3738 1641 3738 2338
Q 3738 3031 3350 3393
Q 2963 3756 2222 3756
L 1791 3756
z
M 588 4666
L 1856 4666
Q 2919 4666 3439 4514
Q 3959 4363 4331 4000
Q 4659 3684 4818 3271
Q 4978 2859 4978 2338
Q 4978 1809 4818 1395
Q 4659 981 4331 666
Q 3956 303 3431 151
Q 2906 0 1856 0
L 588 0
L 588 4666
z
" transform="scale(0.015625)"/>
      <path id="DejaVuSans-Bold-69" d="M 538 3500
L 1656 3500
L 1656 0
L 538 0
L 538 3500
z
M 538 4863
L 1656 4863
L 1656 3950
L 538 3950
L 538 4863
z
" transform="scale(0.015625)"/>
      <path id="DejaVuSans-Bold-61" d="M 2106 1575
Q 1756 1575 1579 1456
Q 1403 1338 1403 1106
Q 1403 894 1545 773
Q 1688 653 1941 653
Q 2256 653 2472 879
Q 2688 1106 2688 1447
L 2688 1575
L 2106 1575
z
M 3816 1997
L 3816 0
L 2688 0
L 2688 519
Q 2463 200 2181 54
Q 1900 -91 1497 -91
Q 953 -91 614 226
Q 275 544 275 1050
Q 275 1666 698 1953
Q 1122 2241 2028 2241
L 2688 2241
L 2688 2328
Q 2688 2594 2478 2717
Q 2269 2841 1825 2841
Q 1466 2841 1156 2769
Q 847 2697 581 2553
L 581 3406
Q 941 3494 1303 3539
Q 1666 3584 2028 3584
Q 2975 3584 3395 3211
Q 3816 2838 3816 1997
z
" transform="scale(0.015625)"/>
      <path id="DejaVuSans-Bold-67" d="M 2919 594
Q 2688 288 2409 144
Q 2131 0 1766 0
Q 1125 0 706 504
Q 288 1009 288 1791
Q 288 2575 706 3076
Q 1125 3578 1766 3578
Q 2131 3578 2409 3434
Q 2688 3291 2919 2981
L 2919 3500
L 4044 3500
L 4044 353
Q 4044 -491 3511 -936
Q 2978 -1381 1966 -1381
Q 1638 -1381 1331 -1331
Q 1025 -1281 716 -1178
L 716 -306
Q 1009 -475 1290 -558
Q 1572 -641 1856 -641
Q 2406 -641 2662 -400
Q 2919 -159 2919 353
L 2919 594
z
M 2181 2772
Q 1834 2772 1640 2515
Q 1447 2259 1447 1791
Q 1447 1309 1634 1061
Q 1822 813 2181 813
Q 2531 813 2725 1069
Q 2919 1325 2919 1791
Q 2919 2259 2725 2515
Q 2531 2772 2181 2772
z
" transform="scale(0.015625)"/>
      <path id="DejaVuSans-Bold-6e" d="M 4056 2131
L 4056 0
L 2931 0
L 2931 347
L 2931 1631
Q 2931 2084 2911 2256
Q 2891 2428 2841 2509
Q 2775 2619 2662 2680
Q 2550 2741 2406 2741
Q 2056 2741 1856 2470
Q 1656 2200 1656 1722
L 1656 0
L 538 0
L 538 3500
L 1656 3500
L 1656 2988
Q 1909 3294 2193 3439
Q 2478 3584 2822 3584
Q 3428 3584 3742 3212
Q 4056 2841 4056 2131
z
" transform="scale(0.015625)"/>
      <path id="DejaVuSans-Bold-6f" d="M 2203 2784
Q 1831 2784 1636 2517
Q 1441 2250 1441 1747
Q 1441 1244 1636 976
Q 1831 709 2203 709
Q 2569 709 2762 976
Q 2956 1244 2956 1747
Q 2956 2250 2762 2517
Q 2569 2784 2203 2784
z
M 2203 3584
Q 3106 3584 3614 3096
Q 4122 2609 4122 1747
Q 4122 884 3614 396
Q 3106 -91 2203 -91
Q 1297 -91 786 396
Q 275 884 275 1747
Q 275 2609 786 3096
Q 1297 3584 2203 3584
z
" transform="scale(0.015625)"/>
      <path id="DejaVuSans-Bold-73" d="M 3272 3391
L 3272 2541
Q 2913 2691 2578 2766
Q 2244 2841 1947 2841
Q 1628 2841 1473 2761
Q 1319 2681 1319 2516
Q 1319 2381 1436 2309
Q 1553 2238 1856 2203
L 2053 2175
Q 2913 2066 3209 1816
Q 3506 1566 3506 1031
Q 3506 472 3093 190
Q 2681 -91 1863 -91
Q 1516 -91 1145 -36
Q 775 19 384 128
L 384 978
Q 719 816 1070 734
Q 1422 653 1784 653
Q 2113 653 2278 743
Q 2444 834 2444 1013
Q 2444 1163 2330 1236
Q 2216 1309 1875 1350
L 1678 1375
Q 931 1469 631 1722
Q 331 1975 331 2491
Q 331 3047 712 3315
Q 1094 3584 1881 3584
Q 2191 3584 2531 3537
Q 2872 3491 3272 3391
z
" transform="scale(0.015625)"/>
      <path id="DejaVuSans-Bold-20" transform="scale(0.015625)"/>
      <path id="DejaVuSans-Bold-76" d="M 97 3500
L 1216 3500
L 2088 1081
L 2956 3500
L 4078 3500
L 2700 0
L 1472 0
L 97 3500
z
" transform="scale(0.015625)"/>
      <path id="DejaVuSans-Bold-62" d="M 2400 722
Q 2759 722 2948 984
Q 3138 1247 3138 1747
Q 3138 2247 2948 2509
Q 2759 2772 2400 2772
Q 2041 2772 1848 2508
Q 1656 2244 1656 1747
Q 1656 1250 1848 986
Q 2041 722 2400 722
z
M 1656 2988
Q 1888 3294 2169 3439
Q 2450 3584 2816 3584
Q 3463 3584 3878 3070
Q 4294 2556 4294 1747
Q 4294 938 3878 423
Q 3463 -91 2816 -91
Q 2450 -91 2169 54
Q 1888 200 1656 506
L 1656 0
L 538 0
L 538 4863
L 1656 4863
L 1656 2988
z
" transform="scale(0.015625)"/>
      <path id="DejaVuSans-Bold-6c" d="M 538 4863
L 1656 4863
L 1656 0
L 538 0
L 538 4863
z
" transform="scale(0.015625)"/>
      <path id="DejaVuSans-Bold-74" d="M 1759 4494
L 1759 3500
L 2913 3500
L 2913 2700
L 1759 2700
L 1759 1216
Q 1759 972 1856 886
Q 1953 800 2241 800
L 2816 800
L 2816 0
L 1856 0
Q 1194 0 917 276
Q 641 553 641 1216
L 641 2700
L 84 2700
L 84 3500
L 641 3500
L 641 4494
L 1759 4494
z
" transform="scale(0.015625)"/>
      <path id="DejaVuSans-Bold-79" d="M 78 3500
L 1197 3500
L 2138 1125
L 2938 3500
L 4056 3500
L 2584 -331
Q 2363 -916 2067 -1148
Q 1772 -1381 1288 -1381
L 641 -1381
L 641 -647
L 991 -647
Q 1275 -647 1404 -556
Q 1534 -466 1606 -231
L 1638 -134
L 78 3500
z
" transform="scale(0.015625)"/>
      <path id="DejaVuSans-Bold-65" d="M 4031 1759
L 4031 1441
L 1416 1441
Q 1456 1047 1700 850
Q 1944 653 2381 653
Q 2734 653 3104 758
Q 3475 863 3866 1075
L 3866 213
Q 3469 63 3072 -14
Q 2675 -91 2278 -91
Q 1328 -91 801 392
Q 275 875 275 1747
Q 275 2603 792 3093
Q 1309 3584 2216 3584
Q 3041 3584 3536 3087
Q 4031 2591 4031 1759
z
M 2881 2131
Q 2881 2450 2695 2645
Q 2509 2841 2209 2841
Q 1884 2841 1681 2658
Q 1478 2475 1428 2131
L 2881 2131
z
" transform="scale(0.015625)"/>
     </defs>
     <use xlink:href="#DejaVuSans-Bold-44"/>
     <use xlink:href="#DejaVuSans-Bold-69" transform="translate(83.007812 0)"/>
     <use xlink:href="#DejaVuSans-Bold-61" transform="translate(117.285156 0)"/>
     <use xlink:href="#DejaVuSans-Bold-67" transform="translate(184.765625 0)"/>
     <use xlink:href="#DejaVuSans-Bold-6e" transform="translate(256.347656 0)"/>
     <use xlink:href="#DejaVuSans-Bold-6f" transform="translate(327.539062 0)"/>
     <use xlink:href="#DejaVuSans-Bold-73" transform="translate(396.240234 0)"/>
     <use xlink:href="#DejaVuSans-Bold-69" transform="translate(455.761719 0)"/>
     <use xlink:href="#DejaVuSans-Bold-73" transform="translate(490.039062 0)"/>
     <use xlink:href="#DejaVuSans-Bold-20" transform="translate(549.560547 0)"/>
     <use xlink:href="#DejaVuSans-Bold-76" transform="translate(584.375 0)"/>
     <use xlink:href="#DejaVuSans-Bold-69" transform="translate(649.560547 0)"/>
     <use xlink:href="#DejaVuSans-Bold-73" transform="translate(683.837891 0)"/>
     <use xlink:href="#DejaVuSans-Bold-69" transform="translate(743.359375 0)"/>
     <use xlink:href="#DejaVuSans-Bold-62" transform="translate(777.636719 0)"/>
     <use xlink:href="#DejaVuSans-Bold-69" transform="translate(849.21875 0)"/>
     <use xlink:href="#DejaVuSans-Bold-6c" transform="translate(883.496094 0)"/>
     <use xlink:href="#DejaVuSans-Bold-69" transform="translate(917.773438 0)"/>
     <use xlink:href="#DejaVuSans-Bold-74" transform="translate(952.050781 0)"/>
     <use xlink:href="#DejaVuSans-Bold-79" transform="translate(999.853516 0)"/>
     <use xlink:href="#DejaVuSans-Bold-20" transform="translate(1065.039062 0)"/>
     <use xlink:href="#DejaVuSans-Bold-67" transform="translate(1099.853516 0)"/>
     <use xlink:href="#DejaVuSans-Bold-61" transform="translate(1171.435547 0)"/>
     <use xlink:href="#DejaVuSans-Bold-74" transform="translate(1238.916016 0)"/>
     <use xlink:href="#DejaVuSans-Bold-65" transform="translate(1286.71875 0)"/>
     <use xlink:href="#DejaVuSans-Bold-73" transform="translate(1354.541016 0)"/>
    </g>
   </g>
  </g>
 </g>
 <defs>
  <clipPath id="pbd1b5e477f">
   <rect x="127.589063" y="34.877187" width="602.64" height="288.288"/>
  </clipPath>
 </defs>
</svg>
