<?xml version="1.0" encoding="utf-8" standalone="no"?>
<!DOCTYPE svg PUBLIC "-//W3C//DTD SVG 1.1//EN"
  "http://www.w3.org/Graphics/SVG/1.1/DTD/svg11.dtd">
<svg xmlns:xlink="http://www.w3.org/1999/xlink" width="547.633125pt" height="374.152812pt" viewBox="0 0 547.633125 374.152812" xmlns="http://www.w3.org/2000/svg" version="1.1">
 <metadata>
  <rdf:RDF xmlns:dc="http://purl.org/dc/elements/1.1/" xmlns:cc="http://creativecommons.org/ns#" xmlns:rdf="http://www.w3.org/1999/02/22-rdf-syntax-ns#">
   <cc:Work>
    <dc:type rdf:resource="http://purl.org/dc/dcmitype/StillImage"/>
    <dc:date>2026-06-27T11:50:05.360840</dc:date>
    <dc:format>image/svg+xml</dc:format>
    <dc:creator>
     <cc:Agent>
      <dc:title>Matplotlib v3.10.9, https://matplotlib.org/</dc:title>
     </cc:Agent>
    </dc:creator>
   </cc:Work>
  </rdf:RDF>
 </metadata>
 <defs>
  <style type="text/css">*{stroke-linejoin: round; stroke-linecap: butt}</style>
 </defs>
 <g id="figure_1">
  <g id="patch_1">
   <path d="M 0 374.152812 
L 547.633125 374.152812 
L 547.633125 0 
L 0 0 
z
" style="fill: #ffffff"/>
  </g>
  <g id="axes_1">
   <g id="patch_2">
    <path d="M 50.833125 327.7575 
L 540.433125 327.7575 
L 540.433125 25.3575 
L 50.833125 25.3575 
z
" style="fill: #ffffff"/>
   </g>
   <g id="FillBetweenPolyCollection_1">
    <path d="M 50.833125 327.7575 
L 50.833125 327.7575 
L 50.833125 327.7575 
L 50.833125 326.404533 
L 52.363125 326.404533 
L 52.363125 325.306854 
L 53.893125 325.306854 
L 53.893125 323.923859 
L 55.423125 323.923859 
L 55.423125 322.103965 
L 56.953125 322.103965 
L 56.953125 320.254531 
L 58.483125 320.254531 
L 58.483125 318.541174 
L 60.013125 318.541174 
L 60.013125 317.024812 
L 61.543125 317.024812 
L 61.543125 315.392581 
L 63.073125 315.392581 
L 63.073125 313.539202 
L 64.603125 313.539202 
L 64.603125 311.463191 
L 66.133125 311.463191 
L 66.133125 309.591902 
L 67.663125 309.591902 
L 67.663125 308.143635 
L 69.193125 308.143635 
L 69.193125 306.475055 
L 70.723125 306.475055 
L 70.723125 304.963468 
L 72.253125 304.963468 
L 72.253125 303.015555 
L 73.783125 303.015555 
L 73.783125 301.442271 
L 75.313125 301.442271 
L 75.313125 298.994803 
L 76.843125 298.994803 
L 76.843125 297.577209 
L 78.373125 297.577209 
L 78.373125 295.500794 
L 79.903125 295.500794 
L 79.903125 293.582636 
L 81.433125 293.582636 
L 81.433125 291.275655 
L 82.963125 291.275655 
L 82.963125 289.624092 
L 84.493125 289.624092 
L 84.493125 288.190464 
L 86.023125 288.190464 
L 86.023125 285.813675 
L 87.553125 285.813675 
L 87.553125 284.042072 
L 89.083125 284.042072 
L 89.083125 282.044357 
L 90.613125 282.044357 
L 90.613125 279.819727 
L 92.143125 279.819727 
L 92.143125 277.700111 
L 93.673125 277.700111 
L 93.673125 276.52687 
L 95.203125 276.52687 
L 95.203125 275.350266 
L 96.733125 275.350266 
L 96.733125 274.002917 
L 98.263125 274.002917 
L 98.263125 272.540876 
L 99.793125 272.540876 
L 99.793125 271.018628 
L 101.323125 271.018628 
L 101.323125 270.171775 
L 102.853125 270.171775 
L 102.853125 269.379949 
L 104.383125 269.379949 
L 104.383125 268.644067 
L 105.913125 268.644067 
L 105.913125 267.73655 
L 107.443125 267.73655 
L 107.443125 266.998705 
L 108.973125 266.998705 
L 108.973125 266.259539 
L 110.503125 266.259539 
L 110.503125 265.519047 
L 112.033125 265.519047 
L 112.033125 264.719998 
L 113.563125 264.719998 
L 113.563125 263.519399 
L 115.093125 263.519399 
L 115.093125 263.004009 
L 116.623125 263.004009 
L 116.623125 262.144502 
L 118.153125 262.144502 
L 118.153125 261.800227 
L 119.683125 261.800227 
L 119.683125 260.996299 
L 121.213125 260.996299 
L 121.213125 260.306377 
L 122.743125 260.306377 
L 122.743125 259.903131 
L 124.273125 259.903131 
L 124.273125 259.21077 
L 125.803125 259.21077 
L 125.803125 258.402185 
L 127.333125 258.402185 
L 127.333125 257.361034 
L 128.863125 257.361034 
L 128.863125 256.723846 
L 130.393125 256.723846 
L 130.393125 255.912215 
L 131.923125 255.912215 
L 131.923125 254.808613 
L 133.453125 254.808613 
L 133.453125 253.878428 
L 134.983125 253.878428 
L 134.983125 253.063142 
L 136.513125 253.063142 
L 136.513125 251.837842 
L 138.043125 251.837842 
L 138.043125 250.727964 
L 139.573125 250.727964 
L 139.573125 249.850226 
L 141.103125 249.850226 
L 141.103125 249.206151 
L 142.633125 249.206151 
L 142.633125 248.385397 
L 144.163125 248.385397 
L 144.163125 247.621654 
L 145.693125 247.621654 
L 145.693125 246.621837 
L 147.223125 246.621837 
L 147.223125 245.914415 
L 148.753125 245.914415 
L 148.753125 245.442324 
L 150.283125 245.442324 
L 150.283125 244.378078 
L 151.813125 244.378078 
L 151.813125 243.253182 
L 153.343125 243.253182 
L 153.343125 242.541163 
L 154.873125 242.541163 
L 154.873125 241.768653 
L 156.403125 241.768653 
L 156.403125 241.232928 
L 157.933125 241.232928 
L 157.933125 240.338713 
L 159.463125 240.338713 
L 159.463125 239.26421 
L 160.993125 239.26421 
L 160.993125 238.486795 
L 162.523125 238.486795 
L 162.523125 237.887745 
L 164.053125 237.887745 
L 164.053125 236.987391 
L 165.583125 236.987391 
L 165.583125 235.784719 
L 167.113125 235.784719 
L 167.113125 234.760553 
L 168.643125 234.760553 
L 168.643125 234.036971 
L 170.173125 234.036971 
L 170.173125 233.493205 
L 171.703125 233.493205 
L 171.703125 232.706922 
L 173.233125 232.706922 
L 173.233125 232.161606 
L 174.763125 232.161606 
L 174.763125 231.250262 
L 176.293125 231.250262 
L 176.293125 230.459355 
L 177.823125 230.459355 
L 177.823125 229.484364 
L 179.353125 229.484364 
L 179.353125 228.507314 
L 180.883125 228.507314 
L 180.883125 227.589831 
L 182.413125 227.589831 
L 182.413125 226.731501 
L 183.943125 226.731501 
L 183.943125 226.056662 
L 185.473125 226.056662 
L 185.473125 224.765569 
L 187.003125 224.765569 
L 187.003125 223.778278 
L 188.533125 223.778278 
L 188.533125 223.160359 
L 190.063125 223.160359 
L 190.063125 222.603066 
L 191.593125 222.603066 
L 191.593125 221.797176 
L 193.123125 221.797176 
L 193.123125 220.679162 
L 194.653125 220.679162 
L 194.653125 219.683411 
L 196.183125 219.683411 
L 196.183125 219.309294 
L 197.713125 219.309294 
L 197.713125 218.185068 
L 199.243125 218.185068 
L 199.243125 217.559751 
L 200.773125 217.559751 
L 200.773125 216.557291 
L 202.303125 216.557291 
L 202.303125 215.804153 
L 203.833125 215.804153 
L 203.833125 214.420967 
L 205.363125 214.420967 
L 205.363125 213.916717 
L 206.893125 213.916717 
L 206.893125 212.778706 
L 208.423125 212.778706 
L 208.423125 212.082029 
L 209.953125 212.082029 
L 209.953125 211.257471 
L 211.483125 211.257471 
L 211.483125 210.305132 
L 213.013125 210.305132 
L 213.013125 209.478305 
L 214.543125 209.478305 
L 214.543125 208.776885 
L 216.073125 208.776885 
L 216.073125 207.754814 
L 217.603125 207.754814 
L 217.603125 206.922652 
L 219.133125 206.922652 
L 219.133125 205.958617 
L 220.663125 205.958617 
L 220.663125 204.669412 
L 222.193125 204.669412 
L 222.193125 203.830325 
L 223.723125 203.830325 
L 223.723125 202.665367 
L 225.253125 202.665367 
L 225.253125 201.497195 
L 226.783125 201.497195 
L 226.783125 200.716943 
L 228.313125 200.716943 
L 228.313125 199.934794 
L 229.843125 199.934794 
L 229.843125 199.020046 
L 231.373125 199.020046 
L 231.373125 198.43004 
L 232.903125 198.43004 
L 232.903125 197.83894 
L 234.433125 197.83894 
L 234.433125 197.247773 
L 235.963125 197.247773 
L 235.963125 196.523878 
L 237.493125 196.523878 
L 237.493125 196.062489 
L 239.023125 196.062489 
L 239.023125 195.203493 
L 240.553125 195.203493 
L 240.553125 194.475246 
L 242.083125 194.475246 
L 242.083125 193.811931 
L 243.613125 193.811931 
L 243.613125 192.547619 
L 245.143125 192.547619 
L 245.143125 191.21402 
L 246.673125 191.21402 
L 246.673125 190.211157 
L 248.203125 190.211157 
L 248.203125 189.405768 
L 249.733125 189.405768 
L 249.733125 188.598011 
L 251.263125 188.598011 
L 251.263125 187.586882 
L 252.793125 187.586882 
L 252.793125 186.978398 
L 254.323125 186.978398 
L 254.323125 186.02964 
L 255.853125 186.02964 
L 255.853125 185.214216 
L 257.383125 185.214216 
L 257.383125 184.737734 
L 258.913125 184.737734 
L 258.913125 183.850453 
L 260.443125 183.850453 
L 260.443125 182.61769 
L 261.973125 182.61769 
L 261.973125 181.657737 
L 263.503125 181.657737 
L 263.503125 180.556832 
L 265.033125 180.556832 
L 265.033125 179.315581 
L 266.563125 179.315581 
L 266.563125 178.554361 
L 268.093125 178.554361 
L 268.093125 177.652784 
L 269.623125 177.652784 
L 269.623125 176.6102 
L 271.153125 176.6102 
L 271.153125 175.772855 
L 272.683125 175.772855 
L 272.683125 174.933363 
L 274.213125 174.933363 
L 274.213125 173.741386 
L 275.743125 173.741386 
L 275.743125 172.96808 
L 277.273125 172.96808 
L 277.273125 172.545342 
L 278.803125 172.545342 
L 278.803125 171.48574 
L 280.333125 171.48574 
L 280.333125 170.919327 
L 281.863125 170.919327 
L 281.863125 169.640576 
L 283.393125 169.640576 
L 283.393125 168.712835 
L 284.923125 168.712835 
L 284.923125 167.423317 
L 286.453125 167.423317 
L 286.453125 166.560612 
L 287.983125 166.560612 
L 287.983125 165.839983 
L 289.513125 165.839983 
L 289.513125 165.115753 
L 291.043125 165.115753 
L 291.043125 164.607396 
L 292.573125 164.607396 
L 292.573125 163.733501 
L 294.103125 163.733501 
L 294.103125 162.638009 
L 295.633125 162.638009 
L 295.633125 162.052752 
L 297.163125 162.052752 
L 297.163125 161.098259 
L 298.693125 161.098259 
L 298.693125 159.919588 
L 300.223125 159.919588 
L 300.223125 159.033667 
L 301.753125 159.033667 
L 301.753125 157.99662 
L 303.283125 157.99662 
L 303.283125 156.881708 
L 304.813125 156.881708 
L 304.813125 156.061308 
L 306.343125 156.061308 
L 306.343125 155.314465 
L 307.873125 155.314465 
L 307.873125 154.414806 
L 309.403125 154.414806 
L 309.403125 153.136858 
L 310.933125 153.136858 
L 310.933125 152.608575 
L 312.463125 152.608575 
L 312.463125 151.62321 
L 313.993125 151.62321 
L 313.993125 150.939476 
L 315.523125 150.939476 
L 315.523125 149.718526 
L 317.053125 149.718526 
L 317.053125 149.106623 
L 318.583125 149.106623 
L 318.583125 147.880465 
L 320.113125 147.880465 
L 320.113125 147.034352 
L 321.643125 147.034352 
L 321.643125 146.417005 
L 323.173125 146.417005 
L 323.173125 145.33406 
L 324.703125 145.33406 
L 324.703125 144.71235 
L 326.233125 144.71235 
L 326.233125 144.165581 
L 327.763125 144.165581 
L 327.763125 143.458973 
L 329.293125 143.458973 
L 329.293125 142.828188 
L 330.823125 142.828188 
L 330.823125 141.721041 
L 332.353125 141.721041 
L 332.353125 141.2438 
L 333.883125 141.2438 
L 333.883125 140.046541 
L 335.413125 140.046541 
L 335.413125 139.165002 
L 336.943125 139.165002 
L 336.943125 138.44014 
L 338.473125 138.44014 
L 338.473125 137.389861 
L 340.003125 137.389861 
L 340.003125 136.740559 
L 341.533125 136.740559 
L 341.533125 136.007452 
L 343.063125 136.007452 
L 343.063125 134.699955 
L 344.593125 134.699955 
L 344.593125 133.552695 
L 346.123125 133.552695 
L 346.123125 132.479493 
L 347.653125 132.479493 
L 347.653125 131.650359 
L 349.183125 131.650359 
L 349.183125 130.900499 
L 350.713125 130.900499 
L 350.713125 130.232444 
L 352.243125 130.232444 
L 352.243125 129.475164 
L 353.773125 129.475164 
L 353.773125 128.462538 
L 355.303125 128.462538 
L 355.303125 127.95394 
L 356.833125 127.95394 
L 356.833125 127.273864 
L 358.363125 127.273864 
L 358.363125 126.592931 
L 359.893125 126.592931 
L 359.893125 125.993723 
L 361.423125 125.993723 
L 361.423125 125.306899 
L 362.953125 125.306899 
L 362.953125 124.704484 
L 364.483125 124.704484 
L 364.483125 124.273647 
L 366.013125 124.273647 
L 366.013125 123.578708 
L 367.543125 123.578708 
L 367.543125 122.178032 
L 369.073125 122.178032 
L 369.073125 121.210264 
L 370.603125 121.210264 
L 370.603125 120.768468 
L 372.133125 120.768468 
L 372.133125 119.437241 
L 373.663125 119.437241 
L 373.663125 118.545206 
L 375.193125 118.545206 
L 375.193125 117.91875 
L 376.723125 117.91875 
L 376.723125 117.199145 
L 378.253125 117.199145 
L 378.253125 116.387413 
L 379.783125 116.387413 
L 379.783125 115.844805 
L 381.313125 115.844805 
L 381.313125 114.573618 
L 382.843125 114.573618 
L 382.843125 113.38831 
L 384.373125 113.38831 
L 384.373125 112.47214 
L 385.903125 112.47214 
L 385.903125 111.92089 
L 387.433125 111.92089 
L 387.433125 111.365546 
L 388.963125 111.365546 
L 388.963125 110.434838 
L 390.493125 110.434838 
L 390.493125 109.309343 
L 392.023125 109.309343 
L 392.023125 108.181174 
L 393.553125 108.181174 
L 393.553125 107.328924 
L 395.083125 107.328924 
L 395.083125 106.853365 
L 396.613125 106.853365 
L 396.613125 106.090719 
L 398.143125 106.090719 
L 398.143125 105.418967 
L 399.673125 105.418967 
L 399.673125 104.166566 
L 401.203125 104.166566 
L 401.203125 103.198627 
L 402.733125 103.198627 
L 402.733125 102.421204 
L 404.263125 102.421204 
L 404.263125 101.640106 
L 405.793125 101.640106 
L 405.793125 101.050609 
L 407.323125 101.050609 
L 407.323125 100.064119 
L 408.853125 100.064119 
L 408.853125 99.271655 
L 410.383125 99.271655 
L 410.383125 98.375012 
L 411.913125 98.375012 
L 411.913125 97.572086 
L 413.443125 97.572086 
L 413.443125 96.965879 
L 414.973125 96.965879 
L 414.973125 95.947861 
L 416.503125 95.947861 
L 416.503125 95.434508 
L 418.033125 95.434508 
L 418.033125 94.71206 
L 419.563125 94.71206 
L 419.563125 93.775057 
L 421.093125 93.775057 
L 421.093125 92.623509 
L 422.623125 92.623509 
L 422.623125 91.887269 
L 424.153125 91.887269 
L 424.153125 91.039669 
L 425.683125 91.039669 
L 425.683125 90.399241 
L 427.213125 90.399241 
L 427.213125 89.755764 
L 428.743125 89.755764 
L 428.743125 88.782286 
L 430.273125 88.782286 
L 430.273125 88.019239 
L 431.803125 88.019239 
L 431.803125 87.030423 
L 433.333125 87.030423 
L 433.333125 85.815553 
L 434.863125 85.815553 
L 434.863125 84.923864 
L 436.393125 84.923864 
L 436.393125 84.700231 
L 437.923125 84.700231 
L 437.923125 83.572819 
L 439.453125 83.572819 
L 439.453125 82.554618 
L 440.983125 82.554618 
L 440.983125 81.526527 
L 442.513125 81.526527 
L 442.513125 80.487158 
L 444.043125 80.487158 
L 444.043125 80.022597 
L 445.573125 80.022597 
L 445.573125 79.20676 
L 447.103125 79.20676 
L 447.103125 78.382576 
L 448.633125 78.382576 
L 448.633125 77.200721 
L 450.163125 77.200721 
L 450.163125 76.602848 
L 451.693125 76.602848 
L 451.693125 75.764592 
L 453.223125 75.764592 
L 453.223125 74.917218 
L 454.753125 74.917218 
L 454.753125 74.063486 
L 456.283125 74.063486 
L 456.283125 72.957391 
L 457.813125 72.957391 
L 457.813125 71.10128 
L 459.343125 71.10128 
L 459.343125 70.355569 
L 460.873125 70.355569 
L 460.873125 70.229989 
L 462.403125 70.229989 
L 462.403125 69.468566 
L 463.933125 69.468566 
L 463.933125 68.442185 
L 465.463125 68.442185 
L 465.463125 67.275985 
L 466.993125 67.275985 
L 466.993125 66.884964 
L 468.523125 66.884964 
L 468.523125 65.969742 
L 470.053125 65.969742 
L 470.053125 65.307447 
L 471.583125 65.307447 
L 471.583125 64.511234 
L 473.113125 64.511234 
L 473.113125 64.107792 
L 474.643125 64.107792 
L 474.643125 63.2935 
L 476.173125 63.2935 
L 476.173125 62.469018 
L 477.703125 62.469018 
L 477.703125 61.502196 
L 479.233125 61.502196 
L 479.233125 60.80589 
L 480.763125 60.80589 
L 480.763125 59.684135 
L 482.293125 59.684135 
L 482.293125 58.552539 
L 483.823125 58.552539 
L 483.823125 57.981772 
L 485.353125 57.981772 
L 485.353125 57.262048 
L 486.883125 57.262048 
L 486.883125 56.538315 
L 488.413125 56.538315 
L 488.413125 55.955085 
L 489.943125 55.955085 
L 489.943125 55.365488 
L 491.473125 55.365488 
L 491.473125 54.919191 
L 493.003125 54.919191 
L 493.003125 54.169675 
L 494.533125 54.169675 
L 494.533125 53.714799 
L 496.063125 53.714799 
L 496.063125 53.562009 
L 497.593125 53.562009 
L 497.593125 52.637979 
L 499.123125 52.637979 
L 499.123125 51.861527 
L 500.653125 51.861527 
L 500.653125 51.236383 
L 502.183125 51.236383 
L 502.183125 50.137299 
L 503.713125 50.137299 
L 503.713125 49.661191 
L 505.243125 49.661191 
L 505.243125 49.181967 
L 506.773125 49.181967 
L 506.773125 48.220955 
L 508.303125 48.220955 
L 508.303125 47.897735 
L 509.833125 47.897735 
L 509.833125 47.085845 
L 511.363125 47.085845 
L 511.363125 46.110823 
L 512.893125 46.110823 
L 512.893125 45.454608 
L 514.423125 45.454608 
L 514.423125 44.795075 
L 515.953125 44.795075 
L 515.953125 43.791434 
L 517.483125 43.791434 
L 517.483125 42.445538 
L 519.013125 42.445538 
L 519.013125 41.088238 
L 520.543125 41.088238 
L 520.543125 40.744431 
L 522.073125 40.744431 
L 522.073125 40.225918 
L 523.603125 40.225918 
L 523.603125 39.700506 
L 525.133125 39.700506 
L 525.133125 39.169335 
L 526.663125 39.169335 
L 526.663125 39.169335 
L 528.193125 39.169335 
L 528.193125 38.437576 
L 529.723125 38.437576 
L 529.723125 37.511864 
L 531.253125 37.511864 
L 531.253125 36.574599 
L 532.783125 36.574599 
L 532.783125 35.04624 
L 534.313125 35.04624 
L 534.313125 34.852656 
L 535.843125 34.852656 
L 535.843125 33.682975 
L 537.373125 33.682975 
L 537.373125 33.093765 
L 538.903125 33.093765 
L 538.903125 32.097982 
L 540.433125 32.097982 
L 540.433125 31.696648 
L 541.963125 31.696648 
L 541.963125 30.682159 
L 543.493125 30.682159 
L 543.493125 30.476971 
L 545.023125 30.476971 
L 545.023125 29.641018 
L 546.553125 29.641018 
L 546.553125 29.218075 
L 548.083125 29.218075 
L 548.083125 28.786937 
L 549.613125 28.786937 
L 549.613125 27.917198 
L 551.143125 27.917198 
L 551.143125 27.917198 
L 552.673125 27.917198 
L 552.673125 27.011166 
L 554.203125 27.011166 
L 554.203125 26.307642 
L 555.733125 26.307642 
L 555.733125 25.584551 
L 557.263125 25.584551 
L 557.263125 25.584551 
L 558.793125 25.584551 
L 558.793125 25.088615 
L 560.323125 25.088615 
L 560.323125 24.834568 
L 561.853125 24.834568 
L 561.853125 24.056698 
L 563.383125 24.056698 
L 563.383125 23.513171 
L 564.913125 23.513171 
L 564.913125 22.96311 
L 566.443125 22.96311 
L 566.443125 22.680229 
L 567.973125 22.680229 
L 567.973125 22.680229 
L 569.503125 22.680229 
L 569.503125 22.080714 
L 571.033125 22.080714 
L 571.033125 21.461717 
L 572.563125 21.461717 
L 572.563125 20.179938 
L 574.093125 20.179938 
L 574.093125 20.179938 
L 575.623125 20.179938 
L 575.623125 19.510368 
L 577.153125 19.510368 
L 577.153125 18.814845 
L 578.683125 18.814845 
L 578.683125 18.096188 
L 580.213125 18.096188 
L 580.213125 17.724606 
L 581.743125 17.724606 
L 581.743125 17.724606 
L 583.273125 17.724606 
L 583.273125 17.724606 
L 584.803125 17.724606 
L 584.803125 16.855344 
L 586.333125 16.855344 
L 586.333125 16.39713 
L 587.863125 16.39713 
L 587.863125 16.39713 
L 589.393125 16.39713 
L 589.393125 16.39713 
L 590.923125 16.39713 
L 590.923125 15.276136 
L 592.453125 15.276136 
L 592.453125 14.092842 
L 593.983125 14.092842 
L 593.983125 13.460225 
L 595.513125 13.460225 
L 595.513125 13.460225 
L 597.043125 13.460225 
L 597.043125 12.720069 
L 598.573125 12.720069 
L 598.573125 12.720069 
L 600.103125 12.720069 
L 600.103125 12.720069 
L 601.633125 12.720069 
L 601.633125 11.787477 
L 603.163125 11.787477 
L 603.163125 11.787477 
L 604.693125 11.787477 
L 604.693125 10.730518 
L 606.223125 10.730518 
L 606.223125 10.730518 
L 607.753125 10.730518 
L 607.753125 10.730518 
L 609.283125 10.730518 
L 609.283125 10.730518 
L 609.283125 -3.261295 
L 609.283125 -3.261295 
L 609.283125 -3.261295 
L 607.753125 -3.261295 
L 607.753125 -3.261295 
L 606.223125 -3.261295 
L 606.223125 -3.261295 
L 604.693125 -3.261295 
L 604.693125 -0.155978 
L 603.163125 -0.155978 
L 603.163125 -0.155978 
L 601.633125 -0.155978 
L 601.633125 1.705867 
L 600.103125 1.705867 
L 600.103125 1.705867 
L 598.573125 1.705867 
L 598.573125 1.705867 
L 597.043125 1.705867 
L 597.043125 2.762708 
L 595.513125 2.762708 
L 595.513125 2.762708 
L 593.983125 2.762708 
L 593.983125 3.569074 
L 592.453125 3.569074 
L 592.453125 5.05567 
L 590.923125 5.05567 
L 590.923125 6.472167 
L 589.393125 6.472167 
L 589.393125 6.472167 
L 587.863125 6.472167 
L 587.863125 6.472167 
L 586.333125 6.472167 
L 586.333125 6.997708 
L 584.803125 6.997708 
L 584.803125 7.981873 
L 583.273125 7.981873 
L 583.273125 7.981873 
L 581.743125 7.981873 
L 581.743125 7.981873 
L 580.213125 7.981873 
L 580.213125 8.379793 
L 578.683125 8.379793 
L 578.683125 9.144799 
L 577.153125 9.144799 
L 577.153125 9.882346 
L 575.623125 9.882346 
L 575.623125 10.588174 
L 574.093125 10.588174 
L 574.093125 10.588174 
L 572.563125 10.588174 
L 572.563125 11.93242 
L 571.033125 11.93242 
L 571.033125 12.579987 
L 569.503125 12.579987 
L 569.503125 13.20431 
L 567.973125 13.20431 
L 567.973125 13.20431 
L 566.443125 13.20431 
L 566.443125 13.49512 
L 564.913125 13.49512 
L 564.913125 14.057912 
L 563.383125 14.057912 
L 563.383125 14.614186 
L 561.853125 14.614186 
L 561.853125 15.404042 
L 560.323125 15.404042 
L 560.323125 15.661465 
L 558.793125 15.661465 
L 558.793125 16.162121 
L 557.263125 16.162121 
L 557.263125 16.162121 
L 555.733125 16.162121 
L 555.733125 16.889554 
L 554.203125 16.889554 
L 554.203125 17.595347 
L 552.673125 17.595347 
L 552.673125 18.50074 
L 551.143125 18.50074 
L 551.143125 18.50074 
L 549.613125 18.50074 
L 549.613125 19.365714 
L 548.083125 19.365714 
L 548.083125 19.794784 
L 546.553125 19.794784 
L 546.553125 20.214785 
L 545.023125 20.214785 
L 545.023125 21.04484 
L 543.493125 21.04484 
L 543.493125 21.248241 
L 541.963125 21.248241 
L 541.963125 22.253774 
L 540.433125 22.253774 
L 540.433125 22.65165 
L 538.903125 22.65165 
L 538.903125 23.63961 
L 537.373125 23.63961 
L 537.373125 24.224137 
L 535.843125 24.224137 
L 535.843125 25.385964 
L 534.313125 25.385964 
L 534.313125 25.57839 
L 532.783125 25.57839 
L 532.783125 27.097801 
L 531.253125 27.097801 
L 531.253125 28.029726 
L 529.723125 28.029726 
L 529.723125 28.950515 
L 528.193125 28.950515 
L 528.193125 29.678498 
L 526.663125 29.678498 
L 526.663125 29.678498 
L 525.133125 29.678498 
L 525.133125 30.20502 
L 523.603125 30.20502 
L 523.603125 30.725589 
L 522.073125 30.725589 
L 522.073125 31.23889 
L 520.543125 31.23889 
L 520.543125 31.579285 
L 519.013125 31.579285 
L 519.013125 32.922909 
L 517.483125 32.922909 
L 517.483125 34.257334 
L 515.953125 34.257334 
L 515.953125 35.253978 
L 514.423125 35.253978 
L 514.423125 35.908653 
L 512.893125 35.908653 
L 512.893125 36.560403 
L 511.363125 36.560403 
L 511.363125 37.529013 
L 509.833125 37.529013 
L 509.833125 38.336845 
L 508.303125 38.336845 
L 508.303125 38.658582 
L 506.773125 38.658582 
L 506.773125 39.615138 
L 505.243125 39.615138 
L 505.243125 40.092597 
L 503.713125 40.092597 
L 503.713125 40.566939 
L 502.183125 40.566939 
L 502.183125 41.661895 
L 500.653125 41.661895 
L 500.653125 42.285247 
L 499.123125 42.285247 
L 499.123125 43.059756 
L 497.593125 43.059756 
L 497.593125 43.981798 
L 496.063125 43.981798 
L 496.063125 44.13424 
L 494.533125 44.13424 
L 494.533125 44.587854 
L 493.003125 44.587854 
L 493.003125 45.334918 
L 491.473125 45.334918 
L 491.473125 45.779745 
L 489.943125 45.779745 
L 489.943125 46.36719 
L 488.413125 46.36719 
L 488.413125 46.948023 
L 486.883125 46.948023 
L 486.883125 47.668833 
L 485.353125 47.668833 
L 485.353125 48.385923 
L 483.823125 48.385923 
L 483.823125 48.954529 
L 482.293125 48.954529 
L 482.293125 50.082015 
L 480.763125 50.082015 
L 480.763125 51.200287 
L 479.233125 51.200287 
L 479.233125 51.894737 
L 477.703125 51.894737 
L 477.703125 52.85913 
L 476.173125 52.85913 
L 476.173125 53.682033 
L 474.643125 53.682033 
L 474.643125 54.494471 
L 473.113125 54.494471 
L 473.113125 54.896888 
L 471.583125 54.896888 
L 471.583125 55.690479 
L 470.053125 55.690479 
L 470.053125 56.351049 
L 468.523125 56.351049 
L 468.523125 57.263438 
L 466.993125 57.263438 
L 466.993125 57.653418 
L 465.463125 57.653418 
L 465.463125 58.81683 
L 463.933125 58.81683 
L 463.933125 59.840954 
L 462.403125 59.840954 
L 462.403125 60.600583 
L 460.873125 60.600583 
L 460.873125 60.72579 
L 459.343125 60.72579 
L 459.343125 61.468824 
L 457.813125 61.468824 
L 457.813125 63.319986 
L 456.283125 63.319986 
L 456.283125 64.424076 
L 454.753125 64.424076 
L 454.753125 65.276459 
L 453.223125 65.276459 
L 453.223125 66.122585 
L 451.693125 66.122585 
L 451.693125 66.9594 
L 450.163125 66.9594 
L 450.163125 67.55658 
L 448.633125 67.55658 
L 448.633125 68.736715 
L 447.103125 68.736715 
L 447.103125 69.560187 
L 445.573125 69.560187 
L 445.573125 70.375139 
L 444.043125 70.375139 
L 444.043125 70.839315 
L 442.513125 70.839315 
L 442.513125 71.877975 
L 440.983125 71.877975 
L 440.983125 72.905256 
L 439.453125 72.905256 
L 439.453125 73.922646 
L 437.923125 73.922646 
L 437.923125 75.049854 
L 436.393125 75.049854 
L 436.393125 75.273406 
L 434.863125 75.273406 
L 434.863125 76.164931 
L 433.333125 76.164931 
L 433.333125 77.379629 
L 431.803125 77.379629 
L 431.803125 78.368742 
L 430.273125 78.368742 
L 430.273125 79.132021 
L 428.743125 79.132021 
L 428.743125 80.105797 
L 427.213125 80.105797 
L 427.213125 80.749394 
L 425.683125 80.749394 
L 425.683125 81.389993 
L 424.153125 81.389993 
L 424.153125 82.237755 
L 422.623125 82.237755 
L 422.623125 82.974109 
L 421.093125 82.974109 
L 421.093125 84.126185 
L 419.563125 84.126185 
L 419.563125 85.063902 
L 418.033125 85.063902 
L 418.033125 85.786801 
L 416.503125 85.786801 
L 416.503125 86.300476 
L 414.973125 86.300476 
L 414.973125 87.318957 
L 413.443125 87.318957 
L 413.443125 87.9254 
L 411.913125 87.9254 
L 411.913125 88.728588 
L 410.383125 88.728588 
L 410.383125 89.625495 
L 408.853125 89.625495 
L 408.853125 90.418271 
L 407.323125 90.418271 
L 407.323125 91.405403 
L 405.793125 91.405403 
L 405.793125 91.995397 
L 404.263125 91.995397 
L 404.263125 92.77711 
L 402.733125 92.77711 
L 402.733125 93.555242 
L 401.203125 93.555242 
L 401.203125 94.524302 
L 399.673125 94.524302 
L 399.673125 95.77857 
L 398.143125 95.77857 
L 398.143125 96.451527 
L 396.613125 96.451527 
L 396.613125 97.215483 
L 395.083125 97.215483 
L 395.083125 97.691957 
L 393.553125 97.691957 
L 393.553125 98.545901 
L 392.023125 98.545901 
L 392.023125 99.67636 
L 390.493125 99.67636 
L 390.493125 100.804703 
L 388.963125 100.804703 
L 388.963125 101.737786 
L 387.433125 101.737786 
L 387.433125 102.294555 
L 385.903125 102.294555 
L 385.903125 102.847088 
L 384.373125 102.847088 
L 384.373125 103.765584 
L 382.843125 103.765584 
L 382.843125 104.954187 
L 381.313125 104.954187 
L 381.313125 106.229404 
L 379.783125 106.229404 
L 379.783125 106.773849 
L 378.253125 106.773849 
L 378.253125 107.588477 
L 376.723125 107.588477 
L 376.723125 108.310815 
L 375.193125 108.310815 
L 375.193125 108.939648 
L 373.663125 108.939648 
L 373.663125 109.835231 
L 372.133125 109.835231 
L 372.133125 111.172063 
L 370.603125 111.172063 
L 370.603125 111.615791 
L 369.073125 111.615791 
L 369.073125 112.587854 
L 367.543125 112.587854 
L 367.543125 113.995133 
L 366.013125 113.995133 
L 366.013125 114.693346 
L 364.483125 114.693346 
L 364.483125 115.126088 
L 362.953125 115.126088 
L 362.953125 115.731276 
L 361.423125 115.731276 
L 361.423125 116.421373 
L 359.893125 116.421373 
L 359.893125 117.023508 
L 358.363125 117.023508 
L 358.363125 117.707718 
L 356.833125 117.707718 
L 356.833125 118.391241 
L 355.303125 118.391241 
L 355.303125 118.902469 
L 353.773125 118.902469 
L 353.773125 119.920395 
L 352.243125 119.920395 
L 352.243125 120.681824 
L 350.713125 120.681824 
L 350.713125 121.35342 
L 349.183125 121.35342 
L 349.183125 122.107399 
L 347.653125 122.107399 
L 347.653125 122.941128 
L 346.123125 122.941128 
L 346.123125 124.020453 
L 344.593125 124.020453 
L 344.593125 125.174288 
L 343.063125 125.174288 
L 343.063125 126.489799 
L 341.533125 126.489799 
L 341.533125 127.227595 
L 340.003125 127.227595 
L 340.003125 127.881104 
L 338.473125 127.881104 
L 338.473125 128.93828 
L 336.943125 128.93828 
L 336.943125 129.668052 
L 335.413125 129.668052 
L 335.413125 130.555596 
L 333.883125 130.555596 
L 333.883125 131.761261 
L 332.353125 131.761261 
L 332.353125 132.241926 
L 330.823125 132.241926 
L 330.823125 133.356989 
L 329.293125 133.356989 
L 329.293125 133.992409 
L 327.763125 133.992409 
L 327.763125 134.704222 
L 326.233125 134.704222 
L 326.233125 135.254986 
L 324.703125 135.254986 
L 324.703125 135.881192 
L 323.173125 135.881192 
L 323.173125 136.972045 
L 321.643125 136.972045 
L 321.643125 137.594034 
L 320.113125 137.594034 
L 320.113125 138.446602 
L 318.583125 138.446602 
L 318.583125 139.68237 
L 317.053125 139.68237 
L 317.053125 140.299239 
L 315.523125 140.299239 
L 315.523125 141.530395 
L 313.993125 141.530395 
L 313.993125 142.219931 
L 312.463125 142.219931 
L 312.463125 143.213865 
L 310.933125 143.213865 
L 310.933125 143.746765 
L 309.403125 143.746765 
L 309.403125 145.036052 
L 307.873125 145.036052 
L 307.873125 145.943955 
L 306.343125 145.943955 
L 306.343125 146.697719 
L 304.813125 146.697719 
L 304.813125 147.525922 
L 303.283125 147.525922 
L 303.283125 148.65165 
L 301.753125 148.65165 
L 301.753125 149.699002 
L 300.223125 149.699002 
L 300.223125 150.593895 
L 298.693125 150.593895 
L 298.693125 151.784849 
L 297.163125 151.784849 
L 297.163125 152.749515 
L 295.633125 152.749515 
L 295.633125 153.341062 
L 294.103125 153.341062 
L 294.103125 154.448596 
L 292.573125 154.448596 
L 292.573125 155.332295 
L 291.043125 155.332295 
L 291.043125 155.846413 
L 289.513125 155.846413 
L 289.513125 156.57891 
L 287.983125 156.57891 
L 287.983125 157.307752 
L 286.453125 157.307752 
L 286.453125 158.180441 
L 284.923125 158.180441 
L 284.923125 159.485167 
L 283.393125 159.485167 
L 283.393125 160.424046 
L 281.863125 160.424046 
L 281.863125 161.718361 
L 280.333125 161.718361 
L 280.333125 162.29176 
L 278.803125 162.29176 
L 278.803125 163.364631 
L 277.273125 163.364631 
L 277.273125 163.792721 
L 275.743125 163.792721 
L 275.743125 164.575896 
L 274.213125 164.575896 
L 274.213125 165.783365 
L 272.683125 165.783365 
L 272.683125 166.633994 
L 271.153125 166.633994 
L 271.153125 167.482598 
L 269.623125 167.482598 
L 269.623125 168.539341 
L 268.093125 168.539341 
L 268.093125 169.453392 
L 266.563125 169.453392 
L 266.563125 170.225294 
L 265.033125 170.225294 
L 265.033125 171.484195 
L 263.503125 171.484195 
L 263.503125 172.601122 
L 261.973125 172.601122 
L 261.973125 173.575238 
L 260.443125 173.575238 
L 260.443125 174.826642 
L 258.913125 174.826642 
L 258.913125 175.727531 
L 257.383125 175.727531 
L 257.383125 176.211372 
L 255.853125 176.211372 
L 255.853125 177.039516 
L 254.323125 177.039516 
L 254.323125 178.003254 
L 252.793125 178.003254 
L 252.793125 178.621446 
L 251.263125 178.621446 
L 251.263125 179.648854 
L 249.733125 179.648854 
L 249.733125 180.469841 
L 248.203125 180.469841 
L 248.203125 181.288537 
L 246.673125 181.288537 
L 246.673125 182.308097 
L 245.143125 182.308097 
L 245.143125 183.664309 
L 243.613125 183.664309 
L 243.613125 184.95056 
L 242.083125 184.95056 
L 242.083125 185.625514 
L 240.553125 185.625514 
L 240.553125 186.366659 
L 239.023125 186.366659 
L 239.023125 187.241042 
L 237.493125 187.241042 
L 237.493125 187.71075 
L 235.963125 187.71075 
L 235.963125 188.4478 
L 234.433125 188.4478 
L 234.433125 189.049799 
L 232.903125 189.049799 
L 232.903125 189.651867 
L 231.373125 189.651867 
L 231.373125 190.252896 
L 229.843125 190.252896 
L 229.843125 191.18483 
L 228.313125 191.18483 
L 228.313125 191.981824 
L 226.783125 191.981824 
L 226.783125 192.777019 
L 225.253125 192.777019 
L 225.253125 193.967891 
L 223.723125 193.967891 
L 223.723125 195.155847 
L 222.193125 195.155847 
L 222.193125 196.011705 
L 220.663125 196.011705 
L 220.663125 197.327137 
L 219.133125 197.327137 
L 219.133125 198.311057 
L 217.603125 198.311057 
L 217.603125 199.160491 
L 216.073125 199.160491 
L 216.073125 200.204037 
L 214.543125 200.204037 
L 214.543125 200.920369 
L 213.013125 200.920369 
L 213.013125 201.764908 
L 211.483125 201.764908 
L 211.483125 202.737896 
L 209.953125 202.737896 
L 209.953125 203.580591 
L 208.423125 203.580591 
L 208.423125 204.292753 
L 206.893125 204.292753 
L 206.893125 205.456375 
L 205.363125 205.456375 
L 205.363125 205.972055 
L 203.833125 205.972055 
L 203.833125 207.386935 
L 202.303125 207.386935 
L 202.303125 208.157591 
L 200.773125 208.157591 
L 200.773125 209.183641 
L 199.243125 209.183641 
L 199.243125 209.823816 
L 197.713125 209.823816 
L 197.713125 210.975099 
L 196.183125 210.975099 
L 196.183125 211.358303 
L 194.653125 211.358303 
L 194.653125 212.37842 
L 193.123125 212.37842 
L 193.123125 213.524175 
L 191.593125 213.524175 
L 191.593125 214.350306 
L 190.063125 214.350306 
L 190.063125 214.921724 
L 188.533125 214.921724 
L 188.533125 215.555387 
L 187.003125 215.555387 
L 187.003125 216.568101 
L 185.473125 216.568101 
L 185.473125 217.892806 
L 183.943125 217.892806 
L 183.943125 218.585422 
L 182.413125 218.585422 
L 182.413125 219.466628 
L 180.883125 219.466628 
L 180.883125 220.408799 
L 179.353125 220.408799 
L 179.353125 221.412463 
L 177.823125 221.412463 
L 177.823125 222.414324 
L 176.293125 222.414324 
L 176.293125 223.227273 
L 174.763125 223.227273 
L 174.763125 224.1643 
L 173.233125 224.1643 
L 173.233125 224.725078 
L 171.703125 224.725078 
L 171.703125 225.533813 
L 170.173125 225.533813 
L 170.173125 226.093241 
L 168.643125 226.093241 
L 168.643125 226.837792 
L 167.113125 226.837792 
L 167.113125 227.89201 
L 165.583125 227.89201 
L 165.583125 229.130477 
L 164.053125 229.130477 
L 164.053125 230.057986 
L 162.523125 230.057986 
L 162.523125 230.675248 
L 160.993125 230.675248 
L 160.993125 231.476478 
L 159.463125 231.476478 
L 159.463125 232.58427 
L 157.933125 232.58427 
L 157.933125 233.506554 
L 156.403125 233.506554 
L 156.403125 234.059237 
L 154.873125 234.059237 
L 154.873125 234.856374 
L 153.343125 234.856374 
L 153.343125 235.591294 
L 151.813125 235.591294 
L 151.813125 236.752745 
L 150.283125 236.752745 
L 150.283125 237.85209 
L 148.753125 237.85209 
L 148.753125 238.339883 
L 147.223125 238.339883 
L 147.223125 239.071009 
L 145.693125 239.071009 
L 145.693125 240.104631 
L 144.163125 240.104631 
L 144.163125 240.894506 
L 142.633125 240.894506 
L 142.633125 241.743583 
L 141.103125 241.743583 
L 141.103125 242.41009 
L 139.573125 242.41009 
L 139.573125 243.318733 
L 138.043125 243.318733 
L 138.043125 244.46818 
L 136.513125 244.46818 
L 136.513125 245.737883 
L 134.983125 245.737883 
L 134.983125 246.583088 
L 133.453125 246.583088 
L 133.453125 247.547778 
L 131.923125 247.547778 
L 131.923125 248.692913 
L 130.393125 248.692913 
L 130.393125 249.535451 
L 128.863125 249.535451 
L 128.863125 250.197148 
L 127.333125 250.197148 
L 127.333125 251.278778 
L 125.803125 251.278778 
L 125.803125 252.119183 
L 124.273125 252.119183 
L 124.273125 252.839068 
L 122.743125 252.839068 
L 122.743125 253.258441 
L 121.213125 253.258441 
L 121.213125 253.976104 
L 119.683125 253.976104 
L 119.683125 254.812675 
L 118.153125 254.812675 
L 118.153125 255.17104 
L 116.623125 255.17104 
L 116.623125 256.065981 
L 115.093125 256.065981 
L 115.093125 256.602832 
L 113.563125 256.602832 
L 113.563125 257.853978 
L 112.033125 257.853978 
L 112.033125 258.68712 
L 110.503125 258.68712 
L 110.503125 259.459496 
L 108.973125 259.459496 
L 108.973125 260.230778 
L 107.443125 260.230778 
L 107.443125 261.000975 
L 105.913125 261.000975 
L 105.913125 261.948776 
L 104.383125 261.948776 
L 104.383125 262.717659 
L 102.853125 262.717659 
L 102.853125 263.545395 
L 101.323125 263.545395 
L 101.323125 264.431065 
L 99.793125 264.431065 
L 99.793125 266.024317 
L 98.263125 266.024317 
L 98.263125 267.555992 
L 96.733125 267.555992 
L 96.733125 268.968882 
L 95.203125 268.968882 
L 95.203125 270.203788 
L 93.673125 270.203788 
L 93.673125 271.436093 
L 92.143125 271.436093 
L 92.143125 273.665256 
L 90.613125 273.665256 
L 90.613125 276.008846 
L 89.083125 276.008846 
L 89.083125 278.117184 
L 87.553125 278.117184 
L 87.553125 279.990025 
L 86.023125 279.990025 
L 86.023125 282.507777 
L 84.493125 282.507777 
L 84.493125 284.029343 
L 82.963125 284.029343 
L 82.963125 285.785161 
L 81.433125 285.785161 
L 81.433125 288.243385 
L 79.903125 288.243385 
L 79.903125 290.292708 
L 78.373125 290.292708 
L 78.373125 292.517 
L 76.843125 292.517 
L 76.843125 294.039422 
L 75.313125 294.039422 
L 75.313125 296.676016 
L 73.783125 296.676016 
L 73.783125 298.37687 
L 72.253125 298.37687 
L 72.253125 300.489921 
L 70.723125 300.489921 
L 70.723125 302.135793 
L 69.193125 302.135793 
L 69.193125 303.959414 
L 67.663125 303.959414 
L 67.663125 305.548638 
L 66.133125 305.548638 
L 66.133125 307.612202 
L 64.603125 307.612202 
L 64.603125 309.9171 
L 63.073125 309.9171 
L 63.073125 311.99141 
L 61.543125 311.99141 
L 61.543125 313.833989 
L 60.013125 313.833989 
L 60.013125 315.561862 
L 58.483125 315.561862 
L 58.483125 317.538419 
L 56.953125 317.538419 
L 56.953125 319.711072 
L 55.423125 319.711072 
L 55.423125 321.909311 
L 53.893125 321.909311 
L 53.893125 323.648364 
L 52.363125 323.648364 
L 52.363125 325.112322 
L 50.833125 325.112322 
L 50.833125 327.7575 
L 50.833125 327.7575 
z
" clip-path="url(#p64f6e21317)" style="fill: #7ba6d0; fill-opacity: 0.18; stroke: #7ba6d0; stroke-opacity: 0.18"/>
   </g>
   <g id="matplotlib.axis_1">
    <g id="xtick_1">
     <g id="line2d_1">
      <defs>
       <path id="mdc396115fc" d="M 0 0 
L 0 3.5 
" style="stroke: #000000; stroke-width: 0.8"/>
      </defs>
      <g>
       <use xlink:href="#mdc396115fc" x="50.833125" y="327.7575" style="stroke: #000000; stroke-width: 0.8"/>
      </g>
     </g>
     <g id="text_1">
      <!-- 0 -->
      <g transform="translate(47.015625 343.875625) scale(0.12 -0.12)">
       <defs>
        <path id="DejaVuSans-30" d="M 2034 4250 
Q 1547 4250 1301 3770 
Q 1056 3291 1056 2328 
Q 1056 1369 1301 889 
Q 1547 409 2034 409 
Q 2525 409 2770 889 
Q 3016 1369 3016 2328 
Q 3016 3291 2770 3770 
Q 2525 4250 2034 4250 
z
M 2034 4750 
Q 2819 4750 3233 4129 
Q 3647 3509 3647 2328 
Q 3647 1150 3233 529 
Q 2819 -91 2034 -91 
Q 1250 -91 836 529 
Q 422 1150 422 2328 
Q 422 3509 836 4129 
Q 1250 4750 2034 4750 
z
" transform="scale(0.015625)"/>
       </defs>
       <use xlink:href="#DejaVuSans-30"/>
      </g>
     </g>
    </g>
    <g id="xtick_2">
     <g id="line2d_2">
      <g>
       <use xlink:href="#mdc396115fc" x="188.533125" y="327.7575" style="stroke: #000000; stroke-width: 0.8"/>
      </g>
     </g>
     <g id="text_2">
      <!-- 90 -->
      <g transform="translate(180.898125 343.875625) scale(0.12 -0.12)">
       <defs>
        <path id="DejaVuSans-39" d="M 703 97 
L 703 672 
Q 941 559 1184 500 
Q 1428 441 1663 441 
Q 2288 441 2617 861 
Q 2947 1281 2994 2138 
Q 2813 1869 2534 1725 
Q 2256 1581 1919 1581 
Q 1219 1581 811 2004 
Q 403 2428 403 3163 
Q 403 3881 828 4315 
Q 1253 4750 1959 4750 
Q 2769 4750 3195 4129 
Q 3622 3509 3622 2328 
Q 3622 1225 3098 567 
Q 2575 -91 1691 -91 
Q 1453 -91 1209 -44 
Q 966 3 703 97 
z
M 1959 2075 
Q 2384 2075 2632 2365 
Q 2881 2656 2881 3163 
Q 2881 3666 2632 3958 
Q 2384 4250 1959 4250 
Q 1534 4250 1286 3958 
Q 1038 3666 1038 3163 
Q 1038 2656 1286 2365 
Q 1534 2075 1959 2075 
z
" transform="scale(0.015625)"/>
       </defs>
       <use xlink:href="#DejaVuSans-39"/>
       <use xlink:href="#DejaVuSans-30" transform="translate(63.623047 0)"/>
      </g>
     </g>
    </g>
    <g id="xtick_3">
     <g id="line2d_3">
      <g>
       <use xlink:href="#mdc396115fc" x="326.233125" y="327.7575" style="stroke: #000000; stroke-width: 0.8"/>
      </g>
     </g>
     <g id="text_3">
      <!-- 180 -->
      <g transform="translate(314.780625 343.875625) scale(0.12 -0.12)">
       <defs>
        <path id="DejaVuSans-31" d="M 794 531 
L 1825 531 
L 1825 4091 
L 703 3866 
L 703 4441 
L 1819 4666 
L 2450 4666 
L 2450 531 
L 3481 531 
L 3481 0 
L 794 0 
L 794 531 
z
" transform="scale(0.015625)"/>
        <path id="DejaVuSans-38" d="M 2034 2216 
Q 1584 2216 1326 1975 
Q 1069 1734 1069 1313 
Q 1069 891 1326 650 
Q 1584 409 2034 409 
Q 2484 409 2743 651 
Q 3003 894 3003 1313 
Q 3003 1734 2745 1975 
Q 2488 2216 2034 2216 
z
M 1403 2484 
Q 997 2584 770 2862 
Q 544 3141 544 3541 
Q 544 4100 942 4425 
Q 1341 4750 2034 4750 
Q 2731 4750 3128 4425 
Q 3525 4100 3525 3541 
Q 3525 3141 3298 2862 
Q 3072 2584 2669 2484 
Q 3125 2378 3379 2068 
Q 3634 1759 3634 1313 
Q 3634 634 3220 271 
Q 2806 -91 2034 -91 
Q 1263 -91 848 271 
Q 434 634 434 1313 
Q 434 1759 690 2068 
Q 947 2378 1403 2484 
z
M 1172 3481 
Q 1172 3119 1398 2916 
Q 1625 2713 2034 2713 
Q 2441 2713 2670 2916 
Q 2900 3119 2900 3481 
Q 2900 3844 2670 4047 
Q 2441 4250 2034 4250 
Q 1625 4250 1398 4047 
Q 1172 3844 1172 3481 
z
" transform="scale(0.015625)"/>
       </defs>
       <use xlink:href="#DejaVuSans-31"/>
       <use xlink:href="#DejaVuSans-38" transform="translate(63.623047 0)"/>
       <use xlink:href="#DejaVuSans-30" transform="translate(127.246094 0)"/>
      </g>
     </g>
    </g>
    <g id="xtick_4">
     <g id="line2d_4">
      <g>
       <use xlink:href="#mdc396115fc" x="463.933125" y="327.7575" style="stroke: #000000; stroke-width: 0.8"/>
      </g>
     </g>
     <g id="text_4">
      <!-- 270 -->
      <g transform="translate(452.480625 343.875625) scale(0.12 -0.12)">
       <defs>
        <path id="DejaVuSans-32" d="M 1228 531 
L 3431 531 
L 3431 0 
L 469 0 
L 469 531 
Q 828 903 1448 1529 
Q 2069 2156 2228 2338 
Q 2531 2678 2651 2914 
Q 2772 3150 2772 3378 
Q 2772 3750 2511 3984 
Q 2250 4219 1831 4219 
Q 1534 4219 1204 4116 
Q 875 4013 500 3803 
L 500 4441 
Q 881 4594 1212 4672 
Q 1544 4750 1819 4750 
Q 2544 4750 2975 4387 
Q 3406 4025 3406 3419 
Q 3406 3131 3298 2873 
Q 3191 2616 2906 2266 
Q 2828 2175 2409 1742 
Q 1991 1309 1228 531 
z
" transform="scale(0.015625)"/>
        <path id="DejaVuSans-37" d="M 525 4666 
L 3525 4666 
L 3525 4397 
L 1831 0 
L 1172 0 
L 2766 4134 
L 525 4134 
L 525 4666 
z
" transform="scale(0.015625)"/>
       </defs>
       <use xlink:href="#DejaVuSans-32"/>
       <use xlink:href="#DejaVuSans-37" transform="translate(63.623047 0)"/>
       <use xlink:href="#DejaVuSans-30" transform="translate(127.246094 0)"/>
      </g>
     </g>
    </g>
    <g id="text_5">
     <!-- Days from diagnosis index -->
     <g transform="translate(209.590391 364.249219) scale(0.13 -0.13)">
      <defs>
       <path id="DejaVuSans-44" d="M 1259 4147 
L 1259 519 
L 2022 519 
Q 2988 519 3436 956 
Q 3884 1394 3884 2338 
Q 3884 3275 3436 3711 
Q 2988 4147 2022 4147 
L 1259 4147 
z
M 628 4666 
L 1925 4666 
Q 3281 4666 3915 4102 
Q 4550 3538 4550 2338 
Q 4550 1131 3912 565 
Q 3275 0 1925 0 
L 628 0 
L 628 4666 
z
" transform="scale(0.015625)"/>
       <path id="DejaVuSans-61" d="M 2194 1759 
Q 1497 1759 1228 1600 
Q 959 1441 959 1056 
Q 959 750 1161 570 
Q 1363 391 1709 391 
Q 2188 391 2477 730 
Q 2766 1069 2766 1631 
L 2766 1759 
L 2194 1759 
z
M 3341 1997 
L 3341 0 
L 2766 0 
L 2766 531 
Q 2569 213 2275 61 
Q 1981 -91 1556 -91 
Q 1019 -91 701 211 
Q 384 513 384 1019 
Q 384 1609 779 1909 
Q 1175 2209 1959 2209 
L 2766 2209 
L 2766 2266 
Q 2766 2663 2505 2880 
Q 2244 3097 1772 3097 
Q 1472 3097 1187 3025 
Q 903 2953 641 2809 
L 641 3341 
Q 956 3463 1253 3523 
Q 1550 3584 1831 3584 
Q 2591 3584 2966 3190 
Q 3341 2797 3341 1997 
z
" transform="scale(0.015625)"/>
       <path id="DejaVuSans-79" d="M 2059 -325 
Q 1816 -950 1584 -1140 
Q 1353 -1331 966 -1331 
L 506 -1331 
L 506 -850 
L 844 -850 
Q 1081 -850 1212 -737 
Q 1344 -625 1503 -206 
L 1606 56 
L 191 3500 
L 800 3500 
L 1894 763 
L 2988 3500 
L 3597 3500 
L 2059 -325 
z
" transform="scale(0.015625)"/>
       <path id="DejaVuSans-73" d="M 2834 3397 
L 2834 2853 
Q 2591 2978 2328 3040 
Q 2066 3103 1784 3103 
Q 1356 3103 1142 2972 
Q 928 2841 928 2578 
Q 928 2378 1081 2264 
Q 1234 2150 1697 2047 
L 1894 2003 
Q 2506 1872 2764 1633 
Q 3022 1394 3022 966 
Q 3022 478 2636 193 
Q 2250 -91 1575 -91 
Q 1294 -91 989 -36 
Q 684 19 347 128 
L 347 722 
Q 666 556 975 473 
Q 1284 391 1588 391 
Q 1994 391 2212 530 
Q 2431 669 2431 922 
Q 2431 1156 2273 1281 
Q 2116 1406 1581 1522 
L 1381 1569 
Q 847 1681 609 1914 
Q 372 2147 372 2553 
Q 372 3047 722 3315 
Q 1072 3584 1716 3584 
Q 2034 3584 2315 3537 
Q 2597 3491 2834 3397 
z
" transform="scale(0.015625)"/>
       <path id="DejaVuSans-20" transform="scale(0.015625)"/>
       <path id="DejaVuSans-66" d="M 2375 4863 
L 2375 4384 
L 1825 4384 
Q 1516 4384 1395 4259 
Q 1275 4134 1275 3809 
L 1275 3500 
L 2222 3500 
L 2222 3053 
L 1275 3053 
L 1275 0 
L 697 0 
L 697 3053 
L 147 3053 
L 147 3500 
L 697 3500 
L 697 3744 
Q 697 4328 969 4595 
Q 1241 4863 1831 4863 
L 2375 4863 
z
" transform="scale(0.015625)"/>
       <path id="DejaVuSans-72" d="M 2631 2963 
Q 2534 3019 2420 3045 
Q 2306 3072 2169 3072 
Q 1681 3072 1420 2755 
Q 1159 2438 1159 1844 
L 1159 0 
L 581 0 
L 581 3500 
L 1159 3500 
L 1159 2956 
Q 1341 3275 1631 3429 
Q 1922 3584 2338 3584 
Q 2397 3584 2469 3576 
Q 2541 3569 2628 3553 
L 2631 2963 
z
" transform="scale(0.015625)"/>
       <path id="DejaVuSans-6f" d="M 1959 3097 
Q 1497 3097 1228 2736 
Q 959 2375 959 1747 
Q 959 1119 1226 758 
Q 1494 397 1959 397 
Q 2419 397 2687 759 
Q 2956 1122 2956 1747 
Q 2956 2369 2687 2733 
Q 2419 3097 1959 3097 
z
M 1959 3584 
Q 2709 3584 3137 3096 
Q 3566 2609 3566 1747 
Q 3566 888 3137 398 
Q 2709 -91 1959 -91 
Q 1206 -91 779 398 
Q 353 888 353 1747 
Q 353 2609 779 3096 
Q 1206 3584 1959 3584 
z
" transform="scale(0.015625)"/>
       <path id="DejaVuSans-6d" d="M 3328 2828 
Q 3544 3216 3844 3400 
Q 4144 3584 4550 3584 
Q 5097 3584 5394 3201 
Q 5691 2819 5691 2113 
L 5691 0 
L 5113 0 
L 5113 2094 
Q 5113 2597 4934 2840 
Q 4756 3084 4391 3084 
Q 3944 3084 3684 2787 
Q 3425 2491 3425 1978 
L 3425 0 
L 2847 0 
L 2847 2094 
Q 2847 2600 2669 2842 
Q 2491 3084 2119 3084 
Q 1678 3084 1418 2786 
Q 1159 2488 1159 1978 
L 1159 0 
L 581 0 
L 581 3500 
L 1159 3500 
L 1159 2956 
Q 1356 3278 1631 3431 
Q 1906 3584 2284 3584 
Q 2666 3584 2933 3390 
Q 3200 3197 3328 2828 
z
" transform="scale(0.015625)"/>
       <path id="DejaVuSans-64" d="M 2906 2969 
L 2906 4863 
L 3481 4863 
L 3481 0 
L 2906 0 
L 2906 525 
Q 2725 213 2448 61 
Q 2172 -91 1784 -91 
Q 1150 -91 751 415 
Q 353 922 353 1747 
Q 353 2572 751 3078 
Q 1150 3584 1784 3584 
Q 2172 3584 2448 3432 
Q 2725 3281 2906 2969 
z
M 947 1747 
Q 947 1113 1208 752 
Q 1469 391 1925 391 
Q 2381 391 2643 752 
Q 2906 1113 2906 1747 
Q 2906 2381 2643 2742 
Q 2381 3103 1925 3103 
Q 1469 3103 1208 2742 
Q 947 2381 947 1747 
z
" transform="scale(0.015625)"/>
       <path id="DejaVuSans-69" d="M 603 3500 
L 1178 3500 
L 1178 0 
L 603 0 
L 603 3500 
z
M 603 4863 
L 1178 4863 
L 1178 4134 
L 603 4134 
L 603 4863 
z
" transform="scale(0.015625)"/>
       <path id="DejaVuSans-67" d="M 2906 1791 
Q 2906 2416 2648 2759 
Q 2391 3103 1925 3103 
Q 1463 3103 1205 2759 
Q 947 2416 947 1791 
Q 947 1169 1205 825 
Q 1463 481 1925 481 
Q 2391 481 2648 825 
Q 2906 1169 2906 1791 
z
M 3481 434 
Q 3481 -459 3084 -895 
Q 2688 -1331 1869 -1331 
Q 1566 -1331 1297 -1286 
Q 1028 -1241 775 -1147 
L 775 -588 
Q 1028 -725 1275 -790 
Q 1522 -856 1778 -856 
Q 2344 -856 2625 -561 
Q 2906 -266 2906 331 
L 2906 616 
Q 2728 306 2450 153 
Q 2172 0 1784 0 
Q 1141 0 747 490 
Q 353 981 353 1791 
Q 353 2603 747 3093 
Q 1141 3584 1784 3584 
Q 2172 3584 2450 3431 
Q 2728 3278 2906 2969 
L 2906 3500 
L 3481 3500 
L 3481 434 
z
" transform="scale(0.015625)"/>
       <path id="DejaVuSans-6e" d="M 3513 2113 
L 3513 0 
L 2938 0 
L 2938 2094 
Q 2938 2591 2744 2837 
Q 2550 3084 2163 3084 
Q 1697 3084 1428 2787 
Q 1159 2491 1159 1978 
L 1159 0 
L 581 0 
L 581 3500 
L 1159 3500 
L 1159 2956 
Q 1366 3272 1645 3428 
Q 1925 3584 2291 3584 
Q 2894 3584 3203 3211 
Q 3513 2838 3513 2113 
z
" transform="scale(0.015625)"/>
       <path id="DejaVuSans-65" d="M 3597 1894 
L 3597 1613 
L 953 1613 
Q 991 1019 1311 708 
Q 1631 397 2203 397 
Q 2534 397 2845 478 
Q 3156 559 3463 722 
L 3463 178 
Q 3153 47 2828 -22 
Q 2503 -91 2169 -91 
Q 1331 -91 842 396 
Q 353 884 353 1716 
Q 353 2575 817 3079 
Q 1281 3584 2069 3584 
Q 2775 3584 3186 3129 
Q 3597 2675 3597 1894 
z
M 3022 2063 
Q 3016 2534 2758 2815 
Q 2500 3097 2075 3097 
Q 1594 3097 1305 2825 
Q 1016 2553 972 2059 
L 3022 2063 
z
" transform="scale(0.015625)"/>
       <path id="DejaVuSans-78" d="M 3513 3500 
L 2247 1797 
L 3578 0 
L 2900 0 
L 1881 1375 
L 863 0 
L 184 0 
L 1544 1831 
L 300 3500 
L 978 3500 
L 1906 2253 
L 2834 3500 
L 3513 3500 
z
" transform="scale(0.015625)"/>
      </defs>
      <use xlink:href="#DejaVuSans-44"/>
      <use xlink:href="#DejaVuSans-61" transform="translate(77.001953 0)"/>
      <use xlink:href="#DejaVuSans-79" transform="translate(138.28125 0)"/>
      <use xlink:href="#DejaVuSans-73" transform="translate(197.460938 0)"/>
      <use xlink:href="#DejaVuSans-20" transform="translate(249.560547 0)"/>
      <use xlink:href="#DejaVuSans-66" transform="translate(281.347656 0)"/>
      <use xlink:href="#DejaVuSans-72" transform="translate(316.552734 0)"/>
      <use xlink:href="#DejaVuSans-6f" transform="translate(355.416016 0)"/>
      <use xlink:href="#DejaVuSans-6d" transform="translate(416.597656 0)"/>
      <use xlink:href="#DejaVuSans-20" transform="translate(514.009766 0)"/>
      <use xlink:href="#DejaVuSans-64" transform="translate(545.796875 0)"/>
      <use xlink:href="#DejaVuSans-69" transform="translate(609.273438 0)"/>
      <use xlink:href="#DejaVuSans-61" transform="translate(637.056641 0)"/>
      <use xlink:href="#DejaVuSans-67" transform="translate(698.335938 0)"/>
      <use xlink:href="#DejaVuSans-6e" transform="translate(761.8125 0)"/>
      <use xlink:href="#DejaVuSans-6f" transform="translate(825.191406 0)"/>
      <use xlink:href="#DejaVuSans-73" transform="translate(886.373047 0)"/>
      <use xlink:href="#DejaVuSans-69" transform="translate(938.472656 0)"/>
      <use xlink:href="#DejaVuSans-73" transform="translate(966.255859 0)"/>
      <use xlink:href="#DejaVuSans-20" transform="translate(1018.355469 0)"/>
      <use xlink:href="#DejaVuSans-69" transform="translate(1050.142578 0)"/>
      <use xlink:href="#DejaVuSans-6e" transform="translate(1077.925781 0)"/>
      <use xlink:href="#DejaVuSans-64" transform="translate(1141.304688 0)"/>
      <use xlink:href="#DejaVuSans-65" transform="translate(1204.78125 0)"/>
      <use xlink:href="#DejaVuSans-78" transform="translate(1264.554688 0)"/>
     </g>
    </g>
   </g>
   <g id="matplotlib.axis_2">
    <g id="ytick_1">
     <g id="line2d_5">
      <defs>
       <path id="m8fceb110d6" d="M 0 0 
L -3.5 0 
" style="stroke: #000000; stroke-width: 0.8"/>
      </defs>
      <g>
       <use xlink:href="#m8fceb110d6" x="50.833125" y="327.7575" style="stroke: #000000; stroke-width: 0.8"/>
      </g>
     </g>
     <g id="text_6">
      <!-- 0.0 -->
      <g transform="translate(24.749375 332.316562) scale(0.12 -0.12)">
       <defs>
        <path id="DejaVuSans-2e" d="M 684 794 
L 1344 794 
L 1344 0 
L 684 0 
L 684 794 
z
" transform="scale(0.015625)"/>
       </defs>
       <use xlink:href="#DejaVuSans-30"/>
       <use xlink:href="#DejaVuSans-2e" transform="translate(63.623047 0)"/>
       <use xlink:href="#DejaVuSans-30" transform="translate(95.410156 0)"/>
      </g>
     </g>
    </g>
    <g id="ytick_2">
     <g id="line2d_6">
      <g>
       <use xlink:href="#m8fceb110d6" x="50.833125" y="292.181029" style="stroke: #000000; stroke-width: 0.8"/>
      </g>
     </g>
     <g id="text_7">
      <!-- 0.1 -->
      <g transform="translate(24.749375 296.740092) scale(0.12 -0.12)">
       <use xlink:href="#DejaVuSans-30"/>
       <use xlink:href="#DejaVuSans-2e" transform="translate(63.623047 0)"/>
       <use xlink:href="#DejaVuSans-31" transform="translate(95.410156 0)"/>
      </g>
     </g>
    </g>
    <g id="ytick_3">
     <g id="line2d_7">
      <g>
       <use xlink:href="#m8fceb110d6" x="50.833125" y="256.604559" style="stroke: #000000; stroke-width: 0.8"/>
      </g>
     </g>
     <g id="text_8">
      <!-- 0.2 -->
      <g transform="translate(24.749375 261.163621) scale(0.12 -0.12)">
       <use xlink:href="#DejaVuSans-30"/>
       <use xlink:href="#DejaVuSans-2e" transform="translate(63.623047 0)"/>
       <use xlink:href="#DejaVuSans-32" transform="translate(95.410156 0)"/>
      </g>
     </g>
    </g>
    <g id="ytick_4">
     <g id="line2d_8">
      <g>
       <use xlink:href="#m8fceb110d6" x="50.833125" y="221.028088" style="stroke: #000000; stroke-width: 0.8"/>
      </g>
     </g>
     <g id="text_9">
      <!-- 0.3 -->
      <g transform="translate(24.749375 225.587151) scale(0.12 -0.12)">
       <defs>
        <path id="DejaVuSans-33" d="M 2597 2516 
Q 3050 2419 3304 2112 
Q 3559 1806 3559 1356 
Q 3559 666 3084 287 
Q 2609 -91 1734 -91 
Q 1441 -91 1130 -33 
Q 819 25 488 141 
L 488 750 
Q 750 597 1062 519 
Q 1375 441 1716 441 
Q 2309 441 2620 675 
Q 2931 909 2931 1356 
Q 2931 1769 2642 2001 
Q 2353 2234 1838 2234 
L 1294 2234 
L 1294 2753 
L 1863 2753 
Q 2328 2753 2575 2939 
Q 2822 3125 2822 3475 
Q 2822 3834 2567 4026 
Q 2313 4219 1838 4219 
Q 1578 4219 1281 4162 
Q 984 4106 628 3988 
L 628 4550 
Q 988 4650 1302 4700 
Q 1616 4750 1894 4750 
Q 2613 4750 3031 4423 
Q 3450 4097 3450 3541 
Q 3450 3153 3228 2886 
Q 3006 2619 2597 2516 
z
" transform="scale(0.015625)"/>
       </defs>
       <use xlink:href="#DejaVuSans-30"/>
       <use xlink:href="#DejaVuSans-2e" transform="translate(63.623047 0)"/>
       <use xlink:href="#DejaVuSans-33" transform="translate(95.410156 0)"/>
      </g>
     </g>
    </g>
    <g id="ytick_5">
     <g id="line2d_9">
      <g>
       <use xlink:href="#m8fceb110d6" x="50.833125" y="185.451618" style="stroke: #000000; stroke-width: 0.8"/>
      </g>
     </g>
     <g id="text_10">
      <!-- 0.4 -->
      <g transform="translate(24.749375 190.01068) scale(0.12 -0.12)">
       <defs>
        <path id="DejaVuSans-34" d="M 2419 4116 
L 825 1625 
L 2419 1625 
L 2419 4116 
z
M 2253 4666 
L 3047 4666 
L 3047 1625 
L 3713 1625 
L 3713 1100 
L 3047 1100 
L 3047 0 
L 2419 0 
L 2419 1100 
L 313 1100 
L 313 1709 
L 2253 4666 
z
" transform="scale(0.015625)"/>
       </defs>
       <use xlink:href="#DejaVuSans-30"/>
       <use xlink:href="#DejaVuSans-2e" transform="translate(63.623047 0)"/>
       <use xlink:href="#DejaVuSans-34" transform="translate(95.410156 0)"/>
      </g>
     </g>
    </g>
    <g id="ytick_6">
     <g id="line2d_10">
      <g>
       <use xlink:href="#m8fceb110d6" x="50.833125" y="149.875147" style="stroke: #000000; stroke-width: 0.8"/>
      </g>
     </g>
     <g id="text_11">
      <!-- 0.5 -->
      <g transform="translate(24.749375 154.43421) scale(0.12 -0.12)">
       <defs>
        <path id="DejaVuSans-35" d="M 691 4666 
L 3169 4666 
L 3169 4134 
L 1269 4134 
L 1269 2991 
Q 1406 3038 1543 3061 
Q 1681 3084 1819 3084 
Q 2600 3084 3056 2656 
Q 3513 2228 3513 1497 
Q 3513 744 3044 326 
Q 2575 -91 1722 -91 
Q 1428 -91 1123 -41 
Q 819 9 494 109 
L 494 744 
Q 775 591 1075 516 
Q 1375 441 1709 441 
Q 2250 441 2565 725 
Q 2881 1009 2881 1497 
Q 2881 1984 2565 2268 
Q 2250 2553 1709 2553 
Q 1456 2553 1204 2497 
Q 953 2441 691 2322 
L 691 4666 
z
" transform="scale(0.015625)"/>
       </defs>
       <use xlink:href="#DejaVuSans-30"/>
       <use xlink:href="#DejaVuSans-2e" transform="translate(63.623047 0)"/>
       <use xlink:href="#DejaVuSans-35" transform="translate(95.410156 0)"/>
      </g>
     </g>
    </g>
    <g id="ytick_7">
     <g id="line2d_11">
      <g>
       <use xlink:href="#m8fceb110d6" x="50.833125" y="114.298676" style="stroke: #000000; stroke-width: 0.8"/>
      </g>
     </g>
     <g id="text_12">
      <!-- 0.6 -->
      <g transform="translate(24.749375 118.857739) scale(0.12 -0.12)">
       <defs>
        <path id="DejaVuSans-36" d="M 2113 2584 
Q 1688 2584 1439 2293 
Q 1191 2003 1191 1497 
Q 1191 994 1439 701 
Q 1688 409 2113 409 
Q 2538 409 2786 701 
Q 3034 994 3034 1497 
Q 3034 2003 2786 2293 
Q 2538 2584 2113 2584 
z
M 3366 4563 
L 3366 3988 
Q 3128 4100 2886 4159 
Q 2644 4219 2406 4219 
Q 1781 4219 1451 3797 
Q 1122 3375 1075 2522 
Q 1259 2794 1537 2939 
Q 1816 3084 2150 3084 
Q 2853 3084 3261 2657 
Q 3669 2231 3669 1497 
Q 3669 778 3244 343 
Q 2819 -91 2113 -91 
Q 1303 -91 875 529 
Q 447 1150 447 2328 
Q 447 3434 972 4092 
Q 1497 4750 2381 4750 
Q 2619 4750 2861 4703 
Q 3103 4656 3366 4563 
z
" transform="scale(0.015625)"/>
       </defs>
       <use xlink:href="#DejaVuSans-30"/>
       <use xlink:href="#DejaVuSans-2e" transform="translate(63.623047 0)"/>
       <use xlink:href="#DejaVuSans-36" transform="translate(95.410156 0)"/>
      </g>
     </g>
    </g>
    <g id="ytick_8">
     <g id="line2d_12">
      <g>
       <use xlink:href="#m8fceb110d6" x="50.833125" y="78.722206" style="stroke: #000000; stroke-width: 0.8"/>
      </g>
     </g>
     <g id="text_13">
      <!-- 0.7 -->
      <g transform="translate(24.749375 83.281268) scale(0.12 -0.12)">
       <use xlink:href="#DejaVuSans-30"/>
       <use xlink:href="#DejaVuSans-2e" transform="translate(63.623047 0)"/>
       <use xlink:href="#DejaVuSans-37" transform="translate(95.410156 0)"/>
      </g>
     </g>
    </g>
    <g id="ytick_9">
     <g id="line2d_13">
      <g>
       <use xlink:href="#m8fceb110d6" x="50.833125" y="43.145735" style="stroke: #000000; stroke-width: 0.8"/>
      </g>
     </g>
     <g id="text_14">
      <!-- 0.8 -->
      <g transform="translate(24.749375 47.704798) scale(0.12 -0.12)">
       <use xlink:href="#DejaVuSans-30"/>
       <use xlink:href="#DejaVuSans-2e" transform="translate(63.623047 0)"/>
       <use xlink:href="#DejaVuSans-38" transform="translate(95.410156 0)"/>
      </g>
     </g>
    </g>
    <g id="text_15">
     <!-- Cumulative initiation -->
     <g transform="translate(17.837812 249.447187) rotate(-90) scale(0.14 -0.14)">
      <defs>
       <path id="DejaVuSans-43" d="M 4122 4306 
L 4122 3641 
Q 3803 3938 3442 4084 
Q 3081 4231 2675 4231 
Q 1875 4231 1450 3742 
Q 1025 3253 1025 2328 
Q 1025 1406 1450 917 
Q 1875 428 2675 428 
Q 3081 428 3442 575 
Q 3803 722 4122 1019 
L 4122 359 
Q 3791 134 3420 21 
Q 3050 -91 2638 -91 
Q 1578 -91 968 557 
Q 359 1206 359 2328 
Q 359 3453 968 4101 
Q 1578 4750 2638 4750 
Q 3056 4750 3426 4639 
Q 3797 4528 4122 4306 
z
" transform="scale(0.015625)"/>
       <path id="DejaVuSans-75" d="M 544 1381 
L 544 3500 
L 1119 3500 
L 1119 1403 
Q 1119 906 1312 657 
Q 1506 409 1894 409 
Q 2359 409 2629 706 
Q 2900 1003 2900 1516 
L 2900 3500 
L 3475 3500 
L 3475 0 
L 2900 0 
L 2900 538 
Q 2691 219 2414 64 
Q 2138 -91 1772 -91 
Q 1169 -91 856 284 
Q 544 659 544 1381 
z
M 1991 3584 
L 1991 3584 
z
" transform="scale(0.015625)"/>
       <path id="DejaVuSans-6c" d="M 603 4863 
L 1178 4863 
L 1178 0 
L 603 0 
L 603 4863 
z
" transform="scale(0.015625)"/>
       <path id="DejaVuSans-74" d="M 1172 4494 
L 1172 3500 
L 2356 3500 
L 2356 3053 
L 1172 3053 
L 1172 1153 
Q 1172 725 1289 603 
Q 1406 481 1766 481 
L 2356 481 
L 2356 0 
L 1766 0 
Q 1100 0 847 248 
Q 594 497 594 1153 
L 594 3053 
L 172 3053 
L 172 3500 
L 594 3500 
L 594 4494 
L 1172 4494 
z
" transform="scale(0.015625)"/>
       <path id="DejaVuSans-76" d="M 191 3500 
L 800 3500 
L 1894 563 
L 2988 3500 
L 3597 3500 
L 2284 0 
L 1503 0 
L 191 3500 
z
" transform="scale(0.015625)"/>
      </defs>
      <use xlink:href="#DejaVuSans-43"/>
      <use xlink:href="#DejaVuSans-75" transform="translate(69.824219 0)"/>
      <use xlink:href="#DejaVuSans-6d" transform="translate(133.203125 0)"/>
      <use xlink:href="#DejaVuSans-75" transform="translate(230.615234 0)"/>
      <use xlink:href="#DejaVuSans-6c" transform="translate(293.994141 0)"/>
      <use xlink:href="#DejaVuSans-61" transform="translate(321.777344 0)"/>
      <use xlink:href="#DejaVuSans-74" transform="translate(383.056641 0)"/>
      <use xlink:href="#DejaVuSans-69" transform="translate(422.265625 0)"/>
      <use xlink:href="#DejaVuSans-76" transform="translate(450.048828 0)"/>
      <use xlink:href="#DejaVuSans-65" transform="translate(509.228516 0)"/>
      <use xlink:href="#DejaVuSans-20" transform="translate(570.751953 0)"/>
      <use xlink:href="#DejaVuSans-69" transform="translate(602.539062 0)"/>
      <use xlink:href="#DejaVuSans-6e" transform="translate(630.322266 0)"/>
      <use xlink:href="#DejaVuSans-69" transform="translate(693.701172 0)"/>
      <use xlink:href="#DejaVuSans-74" transform="translate(721.484375 0)"/>
      <use xlink:href="#DejaVuSans-69" transform="translate(760.693359 0)"/>
      <use xlink:href="#DejaVuSans-61" transform="translate(788.476562 0)"/>
      <use xlink:href="#DejaVuSans-74" transform="translate(849.755859 0)"/>
      <use xlink:href="#DejaVuSans-69" transform="translate(888.964844 0)"/>
      <use xlink:href="#DejaVuSans-6f" transform="translate(916.748047 0)"/>
      <use xlink:href="#DejaVuSans-6e" transform="translate(977.929688 0)"/>
     </g>
    </g>
   </g>
   <g id="line2d_14">
    <path d="M 50.833125 327.7575 
L 50.833125 325.865431 
L 52.363125 325.865431 
L 52.363125 324.583687 
L 53.893125 324.583687 
L 53.893125 323.021823 
L 55.423125 323.021823 
L 55.423125 321.011795 
L 56.953125 321.011795 
L 56.953125 318.999836 
L 58.483125 318.999836 
L 58.483125 317.154054 
L 60.013125 317.154054 
L 60.013125 315.531214 
L 61.543125 315.531214 
L 61.543125 313.793056 
L 63.073125 313.793056 
L 63.073125 311.828364 
L 64.603125 311.828364 
L 64.603125 309.636964 
L 66.133125 309.636964 
L 66.133125 307.668686 
L 67.663125 307.668686 
L 67.663125 306.149281 
L 69.193125 306.149281 
L 69.193125 304.402426 
L 70.723125 304.402426 
L 70.723125 302.823015 
L 72.253125 302.823015 
L 72.253125 300.79165 
L 73.783125 300.79165 
L 73.783125 299.153868 
L 75.313125 299.153868 
L 75.313125 296.610727 
L 76.843125 296.610727 
L 76.843125 295.140076 
L 78.373125 295.140076 
L 78.373125 292.98878 
L 79.903125 292.98878 
L 79.903125 291.004173 
L 81.433125 291.004173 
L 81.433125 288.620526 
L 82.963125 288.620526 
L 82.963125 286.916088 
L 84.493125 286.916088 
L 84.493125 285.437842 
L 86.023125 285.437842 
L 86.023125 282.989498 
L 87.553125 282.989498 
L 87.553125 281.166472 
L 89.083125 281.166472 
L 89.083125 279.112541 
L 90.613125 279.112541 
L 90.613125 276.827424 
L 92.143125 276.827424 
L 92.143125 274.652078 
L 93.673125 274.652078 
L 93.673125 273.448776 
L 95.203125 273.448776 
L 95.203125 272.242492 
L 96.733125 272.242492 
L 96.733125 270.861769 
L 98.263125 270.861769 
L 98.263125 269.364257 
L 99.793125 269.364257 
L 99.793125 267.805827 
L 101.323125 267.805827 
L 101.323125 266.939187 
L 102.853125 266.939187 
L 102.853125 266.129054 
L 104.383125 266.129054 
L 104.383125 265.376343 
L 105.913125 265.376343 
L 105.913125 264.448281 
L 107.443125 264.448281 
L 107.443125 263.693932 
L 108.973125 263.693932 
L 108.973125 262.93838 
L 110.503125 262.93838 
L 110.503125 262.181619 
L 112.033125 262.181619 
L 112.033125 261.365171 
L 113.563125 261.365171 
L 113.563125 260.138769 
L 115.093125 260.138769 
L 115.093125 259.612422 
L 116.623125 259.612422 
L 116.623125 258.734819 
L 118.153125 258.734819 
L 118.153125 258.383348 
L 119.683125 258.383348 
L 119.683125 257.562745 
L 121.213125 257.562745 
L 121.213125 256.858648 
L 122.743125 256.858648 
L 122.743125 256.447162 
L 124.273125 256.447162 
L 124.273125 255.740736 
L 125.803125 255.740736 
L 125.803125 254.915887 
L 127.333125 254.915887 
L 127.333125 253.85404 
L 128.863125 253.85404 
L 128.863125 253.204318 
L 130.393125 253.204318 
L 130.393125 252.376878 
L 131.923125 252.376878 
L 131.923125 251.252026 
L 133.453125 251.252026 
L 133.453125 250.30418 
L 134.983125 250.30418 
L 134.983125 249.473577 
L 136.513125 249.473577 
L 136.513125 248.225537 
L 138.043125 248.225537 
L 138.043125 247.095386 
L 139.573125 247.095386 
L 139.573125 246.201809 
L 141.103125 246.201809 
L 141.103125 245.546234 
L 142.633125 245.546234 
L 142.633125 244.710957 
L 144.163125 244.710957 
L 144.163125 243.933811 
L 145.693125 243.933811 
L 145.693125 242.91665 
L 147.223125 242.91665 
L 147.223125 242.197065 
L 148.753125 242.197065 
L 148.753125 241.716915 
L 150.283125 241.716915 
L 150.283125 240.634652 
L 151.813125 240.634652 
L 151.813125 239.490983 
L 153.343125 239.490983 
L 153.343125 238.7672 
L 154.873125 238.7672 
L 154.873125 237.982036 
L 156.403125 237.982036 
L 156.403125 237.437596 
L 157.933125 237.437596 
L 157.933125 236.528953 
L 159.463125 236.528953 
L 159.463125 235.437332 
L 160.993125 235.437332 
L 160.993125 234.647667 
L 162.523125 234.647667 
L 162.523125 234.039247 
L 164.053125 234.039247 
L 164.053125 233.124919 
L 165.583125 233.124919 
L 165.583125 231.903819 
L 167.113125 231.903819 
L 167.113125 230.864175 
L 168.643125 230.864175 
L 168.643125 230.129788 
L 170.173125 230.129788 
L 170.173125 229.577951 
L 171.703125 229.577951 
L 171.703125 228.780094 
L 173.233125 228.780094 
L 173.233125 228.226806 
L 174.763125 228.226806 
L 174.763125 227.302218 
L 176.293125 227.302218 
L 176.293125 226.499941 
L 177.823125 226.499941 
L 177.823125 225.511083 
L 179.353125 225.511083 
L 179.353125 224.520294 
L 180.883125 224.520294 
L 180.883125 223.59006 
L 182.413125 223.59006 
L 182.413125 222.719911 
L 183.943125 222.719911 
L 183.943125 222.035884 
L 185.473125 222.035884 
L 185.473125 220.72741 
L 187.003125 220.72741 
L 187.003125 219.726969 
L 188.533125 219.726969 
L 188.533125 219.100904 
L 190.063125 219.100904 
L 190.063125 218.5363 
L 191.593125 218.5363 
L 191.593125 217.719931 
L 193.123125 217.719931 
L 193.123125 216.587548 
L 194.653125 216.587548 
L 194.653125 215.57917 
L 196.183125 215.57917 
L 196.183125 215.200342 
L 197.713125 215.200342 
L 197.713125 214.062085 
L 199.243125 214.062085 
L 199.243125 213.429058 
L 200.773125 213.429058 
L 200.773125 212.414354 
L 202.303125 212.414354 
L 202.303125 211.652119 
L 203.833125 211.652119 
L 203.833125 210.252463 
L 205.363125 210.252463 
L 205.363125 209.742271 
L 206.893125 209.742271 
L 206.893125 208.590942 
L 208.423125 208.590942 
L 208.423125 207.886208 
L 209.953125 207.886208 
L 209.953125 207.052209 
L 211.483125 207.052209 
L 211.483125 206.089114 
L 213.013125 206.089114 
L 213.013125 205.253056 
L 214.543125 205.253056 
L 214.543125 204.543862 
L 216.073125 204.543862 
L 216.073125 203.510589 
L 217.603125 203.510589 
L 217.603125 202.669412 
L 219.133125 202.669412 
L 219.133125 201.694996 
L 220.663125 201.694996 
L 220.663125 200.392091 
L 222.193125 200.392091 
L 222.193125 199.544235 
L 223.723125 199.544235 
L 223.723125 198.367245 
L 225.253125 198.367245 
L 225.253125 197.187187 
L 226.783125 197.187187 
L 226.783125 196.399105 
L 228.313125 196.399105 
L 228.313125 195.609174 
L 229.843125 195.609174 
L 229.843125 194.685412 
L 231.373125 194.685412 
L 231.373125 194.089623 
L 232.903125 194.089623 
L 232.903125 193.492767 
L 234.433125 193.492767 
L 234.433125 192.895911 
L 235.963125 192.895911 
L 235.963125 192.165104 
L 237.493125 192.165104 
L 237.493125 191.699342 
L 239.023125 191.699342 
L 239.023125 190.832255 
L 240.553125 190.832255 
L 240.553125 190.097221 
L 242.083125 190.097221 
L 242.083125 189.427779 
L 243.613125 189.427779 
L 243.613125 188.151909 
L 245.143125 188.151909 
L 245.143125 186.806381 
L 246.673125 186.806381 
L 246.673125 185.7947 
L 248.203125 185.7947 
L 248.203125 184.98228 
L 249.733125 184.98228 
L 249.733125 184.167529 
L 251.263125 184.167529 
L 251.263125 183.147785 
L 252.793125 183.147785 
L 252.793125 182.53416 
L 254.323125 182.53416 
L 254.323125 181.577465 
L 255.853125 181.577465 
L 255.853125 180.755296 
L 257.383125 180.755296 
L 257.383125 180.274908 
L 258.913125 180.274908 
L 258.913125 179.380403 
L 260.443125 179.380403 
L 260.443125 178.137734 
L 261.973125 178.137734 
L 261.973125 177.170242 
L 263.503125 177.170242 
L 263.503125 176.0608 
L 265.033125 176.0608 
L 265.033125 174.810128 
L 266.563125 174.810128 
L 266.563125 174.043201 
L 268.093125 174.043201 
L 268.093125 173.134952 
L 269.623125 173.134952 
L 269.623125 172.084784 
L 271.153125 172.084784 
L 271.153125 171.241404 
L 272.683125 171.241404 
L 272.683125 170.395936 
L 274.213125 170.395936 
L 274.213125 169.195632 
L 275.743125 169.195632 
L 275.743125 168.417014 
L 277.273125 168.417014 
L 277.273125 167.991393 
L 278.803125 167.991393 
L 278.803125 166.924637 
L 280.333125 166.924637 
L 280.333125 166.354452 
L 281.863125 166.354452 
L 281.863125 165.067289 
L 283.393125 165.067289 
L 283.393125 164.133521 
L 284.923125 164.133521 
L 284.923125 162.83576 
L 286.453125 162.83576 
L 286.453125 161.967634 
L 287.983125 161.967634 
L 287.983125 161.242539 
L 289.513125 161.242539 
L 289.513125 160.513815 
L 291.043125 160.513815 
L 291.043125 160.002324 
L 292.573125 160.002324 
L 292.573125 159.12309 
L 294.103125 159.12309 
L 294.103125 158.021027 
L 295.633125 158.021027 
L 295.633125 157.43233 
L 297.163125 157.43233 
L 297.163125 156.472269 
L 298.693125 156.472269 
L 298.693125 155.286858 
L 300.223125 155.286858 
L 300.223125 154.396 
L 301.753125 154.396 
L 301.753125 153.35327 
L 303.283125 153.35327 
L 303.283125 152.232378 
L 304.813125 152.232378 
L 304.813125 151.407654 
L 306.343125 151.407654 
L 306.343125 150.656964 
L 307.873125 150.656964 
L 307.873125 149.752717 
L 309.403125 149.752717 
L 309.403125 148.468434 
L 310.933125 148.468434 
L 310.933125 147.937566 
L 312.463125 147.937566 
L 312.463125 146.9474 
L 313.993125 146.9474 
L 313.993125 146.260406 
L 315.523125 146.260406 
L 315.523125 145.033709 
L 317.053125 145.033709 
L 317.053125 144.418999 
L 318.583125 144.418999 
L 318.583125 143.187383 
L 320.113125 143.187383 
L 320.113125 142.337591 
L 321.643125 142.337591 
L 321.643125 141.717591 
L 323.173125 141.717591 
L 323.173125 140.63011 
L 324.703125 140.63011 
L 324.703125 140.005816 
L 326.233125 140.005816 
L 326.233125 139.456754 
L 327.763125 139.456754 
L 327.763125 138.747161 
L 329.293125 138.747161 
L 329.293125 138.113716 
L 330.823125 138.113716 
L 330.823125 137.002008 
L 332.353125 137.002008 
L 332.353125 136.522795 
L 333.883125 136.522795 
L 333.883125 135.320676 
L 335.413125 135.320676 
L 335.413125 134.435648 
L 336.943125 134.435648 
L 336.943125 133.70793 
L 338.473125 133.70793 
L 338.473125 132.653618 
L 340.003125 132.653618 
L 340.003125 132.00185 
L 341.533125 132.00185 
L 341.533125 131.265989 
L 343.063125 131.265989 
L 343.063125 129.953748 
L 344.593125 129.953748 
L 344.593125 128.802549 
L 346.123125 128.802549 
L 346.123125 127.725673 
L 347.653125 127.725673 
L 347.653125 126.893766 
L 349.183125 126.893766 
L 349.183125 126.141414 
L 350.713125 126.141414 
L 350.713125 125.471203 
L 352.243125 125.471203 
L 352.243125 124.711409 
L 353.773125 124.711409 
L 353.773125 123.695542 
L 355.303125 123.695542 
L 355.303125 123.185331 
L 356.833125 123.185331 
L 356.833125 122.503131 
L 358.363125 122.503131 
L 358.363125 121.820157 
L 359.893125 121.820157 
L 359.893125 121.219131 
L 361.423125 121.219131 
L 361.423125 120.530261 
L 362.953125 120.530261 
L 362.953125 119.9261 
L 364.483125 119.9261 
L 364.483125 119.494051 
L 366.013125 119.494051 
L 366.013125 118.797058 
L 367.543125 118.797058 
L 367.543125 117.392232 
L 369.073125 117.392232 
L 369.073125 116.421726 
L 370.603125 116.421726 
L 370.603125 115.978693 
L 372.133125 115.978693 
L 372.133125 114.643842 
L 373.663125 114.643842 
L 373.663125 113.749478 
L 375.193125 113.749478 
L 375.193125 113.121442 
L 376.723125 113.121442 
L 376.723125 112.400018 
L 378.253125 112.400018 
L 378.253125 111.586325 
L 379.783125 111.586325 
L 379.783125 111.042454 
L 381.313125 111.042454 
L 381.313125 109.768439 
L 382.843125 109.768439 
L 382.843125 108.580718 
L 384.373125 108.580718 
L 384.373125 107.662788 
L 385.903125 107.662788 
L 385.903125 107.110536 
L 387.433125 107.110536 
L 387.433125 106.554114 
L 388.963125 106.554114 
L 388.963125 105.621603 
L 390.493125 105.621603 
L 390.493125 104.493934 
L 392.023125 104.493934 
L 392.023125 103.36386 
L 393.553125 103.36386 
L 393.553125 102.510185 
L 395.083125 102.510185 
L 395.083125 102.033845 
L 396.613125 102.033845 
L 396.613125 101.270021 
L 398.143125 101.270021 
L 398.143125 100.597202 
L 399.673125 100.597202 
L 399.673125 99.342996 
L 401.203125 99.342996 
L 401.203125 98.373816 
L 402.733125 98.373816 
L 402.733125 97.595488 
L 404.263125 97.595488 
L 404.263125 96.813526 
L 405.793125 96.813526 
L 405.793125 96.223357 
L 407.323125 96.223357 
L 407.323125 95.235832 
L 408.853125 95.235832 
L 408.853125 94.442635 
L 410.383125 94.442635 
L 410.383125 93.545201 
L 411.913125 93.545201 
L 411.913125 92.741549 
L 413.443125 92.741549 
L 413.443125 92.134771 
L 414.973125 92.134771 
L 414.973125 91.115756 
L 416.503125 91.115756 
L 416.503125 90.601851 
L 418.033125 90.601851 
L 418.033125 89.878626 
L 419.563125 89.878626 
L 419.563125 88.940542 
L 421.093125 88.940542 
L 421.093125 87.787831 
L 422.623125 87.787831 
L 422.623125 87.050954 
L 424.153125 87.050954 
L 424.153125 86.202599 
L 425.683125 86.202599 
L 425.683125 85.561571 
L 427.213125 85.561571 
L 427.213125 84.917513 
L 428.743125 84.917513 
L 428.743125 83.943091 
L 430.273125 83.943091 
L 430.273125 83.179298 
L 431.803125 83.179298 
L 431.803125 82.189507 
L 433.333125 82.189507 
L 433.333125 80.973695 
L 434.863125 80.973695 
L 434.863125 80.081324 
L 436.393125 80.081324 
L 436.393125 79.857538 
L 437.923125 79.857538 
L 437.923125 78.729246 
L 439.453125 78.729246 
L 439.453125 77.710552 
L 440.983125 77.710552 
L 440.983125 76.681947 
L 442.513125 76.681947 
L 442.513125 75.641988 
L 444.043125 75.641988 
L 444.043125 75.177194 
L 445.573125 75.177194 
L 445.573125 74.361046 
L 447.103125 74.361046 
L 447.103125 73.536446 
L 448.633125 73.536446 
L 448.633125 72.354331 
L 450.163125 72.354331 
L 450.163125 71.756229 
L 451.693125 71.756229 
L 451.693125 70.917881 
L 453.223125 70.917881 
L 453.223125 70.070297 
L 454.753125 70.070297 
L 454.753125 69.216389 
L 456.283125 69.216389 
L 456.283125 68.110178 
L 457.813125 68.110178 
L 457.813125 66.25463 
L 459.343125 66.25463 
L 459.343125 65.509477 
L 460.873125 65.509477 
L 460.873125 65.383952 
L 462.403125 65.383952 
L 462.403125 64.622611 
L 463.933125 64.622611 
L 463.933125 63.596242 
L 465.463125 63.596242 
L 465.463125 62.430144 
L 466.993125 62.430144 
L 466.993125 62.039204 
L 468.523125 62.039204 
L 468.523125 61.124364 
L 470.053125 61.124364 
L 470.053125 60.462168 
L 471.583125 60.462168 
L 471.583125 59.666342 
L 473.113125 59.666342 
L 473.113125 59.262936 
L 474.643125 59.262936 
L 474.643125 58.448596 
L 476.173125 58.448596 
L 476.173125 57.623898 
L 477.703125 57.623898 
L 477.703125 56.657095 
L 479.233125 56.657095 
L 479.233125 55.960843 
L 480.763125 55.960843 
L 480.763125 54.8394 
L 482.293125 54.8394 
L 482.293125 53.708388 
L 483.823125 53.708388 
L 483.823125 53.137948 
L 485.353125 53.137948 
L 485.353125 52.418576 
L 486.883125 52.418576 
L 486.883125 51.695322 
L 488.413125 51.695322 
L 488.413125 51.112488 
L 489.943125 51.112488 
L 489.943125 50.523142 
L 491.473125 50.523142 
L 491.473125 50.076947 
L 493.003125 50.076947 
L 493.003125 49.327579 
L 494.533125 49.327579 
L 494.533125 48.872669 
L 496.063125 48.872669 
L 496.063125 48.719826 
L 497.593125 48.719826 
L 497.593125 47.795404 
L 499.123125 47.795404 
L 499.123125 47.018738 
L 500.653125 47.018738 
L 500.653125 46.393522 
L 502.183125 46.393522 
L 502.183125 45.294777 
L 503.713125 45.294777 
L 503.713125 44.81879 
L 505.243125 44.81879 
L 505.243125 44.339671 
L 506.773125 44.339671 
L 506.773125 43.379315 
L 508.303125 43.379315 
L 508.303125 43.056299 
L 509.833125 43.056299 
L 509.833125 42.245071 
L 511.363125 42.245071 
L 511.363125 41.271599 
L 512.893125 41.271599 
L 512.893125 40.61648 
L 514.423125 40.61648 
L 514.423125 39.958219 
L 515.953125 39.958219 
L 515.953125 38.956272 
L 517.483125 38.956272 
L 517.483125 37.613646 
L 519.013125 37.613646 
L 519.013125 36.260639 
L 520.543125 36.260639 
L 520.543125 35.917877 
L 522.073125 35.917877 
L 522.073125 35.400962 
L 523.603125 35.400962 
L 523.603125 34.876928 
L 525.133125 34.876928 
L 525.133125 34.347005 
L 528.193125 34.347005 
L 528.193125 33.615578 
L 529.723125 33.615578 
L 529.723125 32.690311 
L 531.253125 32.690311 
L 531.253125 31.753621 
L 532.783125 31.753621 
L 532.783125 30.226187 
L 534.313125 30.226187 
L 534.313125 30.032721 
L 535.843125 30.032721 
L 535.843125 28.864132 
L 537.373125 28.864132 
L 537.373125 28.275808 
L 538.903125 28.275808 
L 538.903125 27.281408 
L 540.433125 27.281408 
L 540.433125 26.880766 
L 541.963125 26.880766 
L 541.963125 25.868073 
L 543.493125 25.868073 
L 543.493125 25.663224 
L 545.023125 25.663224 
L 545.023125 24.827886 
L 546.553125 24.827886 
L 546.553125 24.405206 
L 548.083125 24.405206 
L 548.083125 23.973828 
L 548.633125 23.973828 
L 548.633125 23.973828 
" clip-path="url(#p64f6e21317)" style="fill: none; stroke: #7ba6d0; stroke-width: 2.4; stroke-linecap: square"/>
   </g>
   <g id="patch_3">
    <path d="M 50.833125 327.7575 
L 50.833125 25.3575 
" style="fill: none; stroke: #000000; stroke-width: 0.8; stroke-linejoin: miter; stroke-linecap: square"/>
   </g>
   <g id="patch_4">
    <path d="M 50.833125 327.7575 
L 540.433125 327.7575 
" style="fill: none; stroke: #000000; stroke-width: 0.8; stroke-linejoin: miter; stroke-linecap: square"/>
   </g>
   <g id="text_16">
    <!-- 30.5% -->
    <g transform="translate(167.884453 202.024198) scale(0.13 -0.13)">
     <defs>
      <path id="DejaVuSans-25" d="M 4653 2053 
Q 4381 2053 4226 1822 
Q 4072 1591 4072 1178 
Q 4072 772 4226 539 
Q 4381 306 4653 306 
Q 4919 306 5073 539 
Q 5228 772 5228 1178 
Q 5228 1588 5073 1820 
Q 4919 2053 4653 2053 
z
M 4653 2450 
Q 5147 2450 5437 2106 
Q 5728 1763 5728 1178 
Q 5728 594 5436 251 
Q 5144 -91 4653 -91 
Q 4153 -91 3862 251 
Q 3572 594 3572 1178 
Q 3572 1766 3864 2108 
Q 4156 2450 4653 2450 
z
M 1428 4353 
Q 1159 4353 1004 4120 
Q 850 3888 850 3481 
Q 850 3069 1003 2837 
Q 1156 2606 1428 2606 
Q 1700 2606 1854 2837 
Q 2009 3069 2009 3481 
Q 2009 3884 1853 4118 
Q 1697 4353 1428 4353 
z
M 4250 4750 
L 4750 4750 
L 1831 -91 
L 1331 -91 
L 4250 4750 
z
M 1428 4750 
Q 1922 4750 2215 4408 
Q 2509 4066 2509 3481 
Q 2509 2891 2217 2550 
Q 1925 2209 1428 2209 
Q 931 2209 642 2551 
Q 353 2894 353 3481 
Q 353 4063 643 4406 
Q 934 4750 1428 4750 
z
" transform="scale(0.015625)"/>
     </defs>
     <use xlink:href="#DejaVuSans-33"/>
     <use xlink:href="#DejaVuSans-30" transform="translate(63.623047 0)"/>
     <use xlink:href="#DejaVuSans-2e" transform="translate(127.246094 0)"/>
     <use xlink:href="#DejaVuSans-35" transform="translate(159.033203 0)"/>
     <use xlink:href="#DejaVuSans-25" transform="translate(222.65625 0)"/>
    </g>
   </g>
   <g id="text_17">
    <!-- 52.9% -->
    <g transform="translate(305.584453 122.380048) scale(0.13 -0.13)">
     <use xlink:href="#DejaVuSans-35"/>
     <use xlink:href="#DejaVuSans-32" transform="translate(63.623047 0)"/>
     <use xlink:href="#DejaVuSans-2e" transform="translate(127.246094 0)"/>
     <use xlink:href="#DejaVuSans-39" transform="translate(159.033203 0)"/>
     <use xlink:href="#DejaVuSans-25" transform="translate(222.65625 0)"/>
    </g>
   </g>
   <g id="text_18">
    <!-- 74.3% -->
    <g transform="translate(443.284453 46.519536) scale(0.13 -0.13)">
     <use xlink:href="#DejaVuSans-37"/>
     <use xlink:href="#DejaVuSans-34" transform="translate(63.623047 0)"/>
     <use xlink:href="#DejaVuSans-2e" transform="translate(127.246094 0)"/>
     <use xlink:href="#DejaVuSans-33" transform="translate(159.033203 0)"/>
     <use xlink:href="#DejaVuSans-25" transform="translate(222.65625 0)"/>
    </g>
   </g>
   <g id="patch_5">
    <path d="M 353.467453 201.906744 
Q 331.328435 176.642012 310.220993 152.554501 
" style="fill: none; stroke: #9a9a9a; stroke-width: 1.4; stroke-linecap: round"/>
    <path d="M 311.579398 157.746296 
L 310.220993 152.554501 
L 315.189472 154.582854 
" style="fill: none; stroke: #9a9a9a; stroke-width: 1.4; stroke-linecap: round"/>
   </g>
   <g id="text_19">
    <g id="patch_6">
     <path d="M 340.705625 237.342178 
L 399.040625 237.342178 
L 399.040625 203.915147 
L 340.705625 203.915147 
z
" style="fill: #ffffff; stroke: #9a9a9a; stroke-linejoin: miter"/>
    </g>
    <!-- 50.0% -->
    <g transform="translate(350.812813 216.993272) scale(0.12 -0.12)">
     <use xlink:href="#DejaVuSans-35"/>
     <use xlink:href="#DejaVuSans-30" transform="translate(63.623047 0)"/>
     <use xlink:href="#DejaVuSans-2e" transform="translate(127.246094 0)"/>
     <use xlink:href="#DejaVuSans-30" transform="translate(159.033203 0)"/>
     <use xlink:href="#DejaVuSans-25" transform="translate(222.65625 0)"/>
    </g>
    <!-- Day 168 -->
    <g transform="translate(344.665625 230.886553) scale(0.12 -0.12)">
     <use xlink:href="#DejaVuSans-44"/>
     <use xlink:href="#DejaVuSans-61" transform="translate(77.001953 0)"/>
     <use xlink:href="#DejaVuSans-79" transform="translate(138.28125 0)"/>
     <use xlink:href="#DejaVuSans-20" transform="translate(197.460938 0)"/>
     <use xlink:href="#DejaVuSans-31" transform="translate(229.248047 0)"/>
     <use xlink:href="#DejaVuSans-36" transform="translate(292.871094 0)"/>
     <use xlink:href="#DejaVuSans-38" transform="translate(356.494141 0)"/>
    </g>
   </g>
   <g id="text_20">
    <!-- Accumunative treatment initiation -->
    <g transform="translate(158.269375 19.3575) scale(0.16 -0.16)">
     <defs>
      <path id="DejaVuSans-41" d="M 2188 4044 
L 1331 1722 
L 3047 1722 
L 2188 4044 
z
M 1831 4666 
L 2547 4666 
L 4325 0 
L 3669 0 
L 3244 1197 
L 1141 1197 
L 716 0 
L 50 0 
L 1831 4666 
z
" transform="scale(0.015625)"/>
      <path id="DejaVuSans-63" d="M 3122 3366 
L 3122 2828 
Q 2878 2963 2633 3030 
Q 2388 3097 2138 3097 
Q 1578 3097 1268 2742 
Q 959 2388 959 1747 
Q 959 1106 1268 751 
Q 1578 397 2138 397 
Q 2388 397 2633 464 
Q 2878 531 3122 666 
L 3122 134 
Q 2881 22 2623 -34 
Q 2366 -91 2075 -91 
Q 1284 -91 818 406 
Q 353 903 353 1747 
Q 353 2603 823 3093 
Q 1294 3584 2113 3584 
Q 2378 3584 2631 3529 
Q 2884 3475 3122 3366 
z
" transform="scale(0.015625)"/>
     </defs>
     <use xlink:href="#DejaVuSans-41"/>
     <use xlink:href="#DejaVuSans-63" transform="translate(66.658203 0)"/>
     <use xlink:href="#DejaVuSans-63" transform="translate(121.638672 0)"/>
     <use xlink:href="#DejaVuSans-75" transform="translate(176.619141 0)"/>
     <use xlink:href="#DejaVuSans-6d" transform="translate(239.998047 0)"/>
     <use xlink:href="#DejaVuSans-75" transform="translate(337.410156 0)"/>
     <use xlink:href="#DejaVuSans-6e" transform="translate(400.789062 0)"/>
     <use xlink:href="#DejaVuSans-61" transform="translate(464.167969 0)"/>
     <use xlink:href="#DejaVuSans-74" transform="translate(525.447266 0)"/>
     <use xlink:href="#DejaVuSans-69" transform="translate(564.65625 0)"/>
     <use xlink:href="#DejaVuSans-76" transform="translate(592.439453 0)"/>
     <use xlink:href="#DejaVuSans-65" transform="translate(651.619141 0)"/>
     <use xlink:href="#DejaVuSans-20" transform="translate(713.142578 0)"/>
     <use xlink:href="#DejaVuSans-74" transform="translate(744.929688 0)"/>
     <use xlink:href="#DejaVuSans-72" transform="translate(784.138672 0)"/>
     <use xlink:href="#DejaVuSans-65" transform="translate(823.001953 0)"/>
     <use xlink:href="#DejaVuSans-61" transform="translate(884.525391 0)"/>
     <use xlink:href="#DejaVuSans-74" transform="translate(945.804688 0)"/>
     <use xlink:href="#DejaVuSans-6d" transform="translate(985.013672 0)"/>
     <use xlink:href="#DejaVuSans-65" transform="translate(1082.425781 0)"/>
     <use xlink:href="#DejaVuSans-6e" transform="translate(1143.949219 0)"/>
     <use xlink:href="#DejaVuSans-74" transform="translate(1207.328125 0)"/>
     <use xlink:href="#DejaVuSans-20" transform="translate(1246.537109 0)"/>
     <use xlink:href="#DejaVuSans-69" transform="translate(1278.324219 0)"/>
     <use xlink:href="#DejaVuSans-6e" transform="translate(1306.107422 0)"/>
     <use xlink:href="#DejaVuSans-69" transform="translate(1369.486328 0)"/>
     <use xlink:href="#DejaVuSans-74" transform="translate(1397.269531 0)"/>
     <use xlink:href="#DejaVuSans-69" transform="translate(1436.478516 0)"/>
     <use xlink:href="#DejaVuSans-61" transform="translate(1464.261719 0)"/>
     <use xlink:href="#DejaVuSans-74" transform="translate(1525.541016 0)"/>
     <use xlink:href="#DejaVuSans-69" transform="translate(1564.75 0)"/>
     <use xlink:href="#DejaVuSans-6f" transform="translate(1592.533203 0)"/>
     <use xlink:href="#DejaVuSans-6e" transform="translate(1653.714844 0)"/>
    </g>
   </g>
   <g id="line2d_15">
    <path d="M 188.533125 219.100904 
" clip-path="url(#p64f6e21317)" style="fill: none; stroke: #7fb685; stroke-width: 1.5; stroke-linecap: square"/>
    <defs>
     <path id="mc899693490" d="M 0 5 
C 1.326016 5 2.597899 4.473168 3.535534 3.535534 
C 4.473168 2.597899 5 1.326016 5 0 
C 5 -1.326016 4.473168 -2.597899 3.535534 -3.535534 
C 2.597899 -4.473168 1.326016 -5 0 -5 
C -1.326016 -5 -2.597899 -4.473168 -3.535534 -3.535534 
C -4.473168 -2.597899 -5 -1.326016 -5 0 
C -5 1.326016 -4.473168 2.597899 -3.535534 3.535534 
C -2.597899 4.473168 -1.326016 5 0 5 
z
" style="stroke: #7fb685"/>
    </defs>
    <g clip-path="url(#p64f6e21317)">
     <use xlink:href="#mc899693490" x="188.533125" y="219.100904" style="fill: #7fb685; stroke: #7fb685"/>
    </g>
   </g>
   <g id="line2d_16">
    <path d="M 326.233125 139.456754 
" clip-path="url(#p64f6e21317)" style="fill: none; stroke: #7fb685; stroke-width: 1.5; stroke-linecap: square"/>
    <g clip-path="url(#p64f6e21317)">
     <use xlink:href="#mc899693490" x="326.233125" y="139.456754" style="fill: #7fb685; stroke: #7fb685"/>
    </g>
   </g>
   <g id="line2d_17">
    <path d="M 463.933125 63.596242 
" clip-path="url(#p64f6e21317)" style="fill: none; stroke: #7fb685; stroke-width: 1.5; stroke-linecap: square"/>
    <g clip-path="url(#p64f6e21317)">
     <use xlink:href="#mc899693490" x="463.933125" y="63.596242" style="fill: #7fb685; stroke: #7fb685"/>
    </g>
   </g>
   <g id="line2d_18">
    <path d="M 307.873125 149.875147 
" clip-path="url(#p64f6e21317)" style="fill: none; stroke: #e0b663; stroke-width: 1.5; stroke-linecap: square"/>
    <defs>
     <path id="m0148640eb7" d="M 0 5 
C 1.326016 5 2.597899 4.473168 3.535534 3.535534 
C 4.473168 2.597899 5 1.326016 5 0 
C 5 -1.326016 4.473168 -2.597899 3.535534 -3.535534 
C 2.597899 -4.473168 1.326016 -5 0 -5 
C -1.326016 -5 -2.597899 -4.473168 -3.535534 -3.535534 
C -4.473168 -2.597899 -5 -1.326016 -5 0 
C -5 1.326016 -4.473168 2.597899 -3.535534 3.535534 
C -2.597899 4.473168 -1.326016 5 0 5 
z
" style="stroke: #e0b663"/>
    </defs>
    <g clip-path="url(#p64f6e21317)">
     <use xlink:href="#m0148640eb7" x="307.873125" y="149.875147" style="fill: #e0b663; stroke: #e0b663"/>
    </g>
   </g>
  </g>
 </g>
 <defs>
  <clipPath id="p64f6e21317">
   <rect x="50.833125" y="25.3575" width="489.6" height="302.4"/>
  </clipPath>
 </defs>
</svg>
