<?xml version="1.0" encoding="utf-8" standalone="no"?>
<!DOCTYPE svg PUBLIC "-//W3C//DTD SVG 1.1//EN"
  "http://www.w3.org/Graphics/SVG/1.1/DTD/svg11.dtd">
<svg xmlns:xlink="http://www.w3.org/1999/xlink" width="473.898219pt" height="495.253875pt" viewBox="0 0 473.898219 495.253875" xmlns="http://www.w3.org/2000/svg" version="1.1">
 <metadata>
  <rdf:RDF xmlns:dc="http://purl.org/dc/elements/1.1/" xmlns:cc="http://creativecommons.org/ns#" xmlns:rdf="http://www.w3.org/1999/02/22-rdf-syntax-ns#">
   <cc:Work>
    <dc:type rdf:resource="http://purl.org/dc/dcmitype/StillImage"/>
    <dc:format>image/svg+xml</dc:format>
    <dc:creator>
     <cc:Agent>
      <dc:title>Matplotlib v3.10.9, https://matplotlib.org/</dc:title>
     </cc:Agent>
    </dc:creator>
   </cc:Work>
  </rdf:RDF>
 </metadata>
 <defs>
  <style type="text/css">*{stroke-linejoin: round; stroke-linecap: butt}</style>
 </defs>
 <g id="figure_1">
  <g id="patch_1">
   <path d="M 0 495.253875
L 473.898219 495.253875
L 473.898219 0
L 0 0
z
" style="fill: #fcfcfd"/>
  </g>
  <g id="axes_1">
   <g id="patch_2">
    <path d="M 46.914219 459.63325
L 466.698219 459.63325
L 466.698219 39.84925
L 46.914219 39.84925
z
" style="fill: #ffffff"/>
   </g>
   <g id="patch_3">
    <path d="M 304.008603 459.63325
L 466.698219 459.63325
L 466.698219 39.84925
L 304.008603 39.84925
z
" clip-path="url(#pc88033a2b5)" style="fill: #fff4c2; opacity: 0.35"/>
   </g>
   <g id="FillBetweenPolyCollection_1">
    <defs>
     <path id="mbd547c5151" d="M 46.914219 -455.404625
L 46.914219 -94.034291
L 48.318179 -95.438251
L 49.722138 -96.842211
L 51.126098 -98.24617
L 52.530058 -99.65013
L 53.934018 -101.05409
L 55.337978 -102.45805
L 56.741938 -103.86201
L 58.145898 -105.26597
L 59.549858 -106.66993
L 60.953817 -108.073889
L 62.357777 -109.477849
L 63.761737 -110.881809
L 65.165697 -112.285769
L 66.569657 -113.689729
L 67.973617 -115.093689
L 69.377577 -116.497649
L 70.781536 -117.901609
L 72.185496 -119.305568
L 73.589456 -120.709528
L 74.993416 -122.113488
L 76.397376 -123.517448
L 77.801336 -124.921408
L 79.205296 -126.325368
L 80.609256 -127.729328
L 82.013215 -129.133287
L 83.417175 -130.537247
L 84.821135 -131.941207
L 86.225095 -133.345167
L 87.629055 -134.749127
L 89.033015 -136.153087
L 90.436975 -137.557047
L 91.840934 -138.961007
L 93.244894 -140.364966
L 94.648854 -141.768926
L 96.052814 -143.172886
L 97.456774 -144.576846
L 98.860734 -145.980806
L 100.264694 -147.384766
L 101.668654 -148.788726
L 103.072613 -150.192685
L 104.476573 -151.596645
L 105.880533 -153.000605
L 107.284493 -154.404565
L 108.688453 -155.808525
L 110.092413 -157.212485
L 111.496373 -158.616445
L 112.900332 -160.020405
L 114.304292 -161.424364
L 115.708252 -162.828324
L 117.112212 -164.232284
L 118.516172 -165.636244
L 119.920132 -167.040204
L 121.324092 -168.444164
L 122.728052 -169.848124
L 124.132011 -171.252083
L 125.535971 -172.656043
L 126.939931 -174.060003
L 128.343891 -175.463963
L 129.747851 -176.867923
L 131.151811 -178.271883
L 132.555771 -179.675843
L 133.95973 -181.079803
L 135.36369 -182.483762
L 136.76765 -183.887722
L 138.17161 -185.291682
L 139.57557 -186.695642
L 140.97953 -188.099602
L 142.38349 -189.503562
L 143.78745 -190.907522
L 145.191409 -192.311481
L 146.595369 -193.715441
L 147.999329 -195.119401
L 149.403289 -196.523361
L 150.807249 -197.927321
L 152.211209 -199.331281
L 153.615169 -200.735241
L 155.019128 -202.139201
L 156.423088 -203.54316
L 157.827048 -204.94712
L 159.231008 -206.35108
L 160.634968 -207.75504
L 162.038928 -209.159
L 163.442888 -210.56296
L 164.846848 -211.96692
L 166.250807 -213.370879
L 167.654767 -214.774839
L 169.058727 -216.178799
L 170.462687 -217.582759
L 171.866647 -218.986719
L 173.270607 -220.390679
L 174.674567 -221.794639
L 176.078526 -223.198599
L 177.482486 -224.602558
L 178.886446 -226.006518
L 180.290406 -227.410478
L 181.694366 -228.814438
L 183.098326 -230.218398
L 184.502286 -231.622358
L 185.906246 -233.026318
L 187.310205 -234.430277
L 188.714165 -235.834237
L 190.118125 -237.238197
L 191.522085 -238.642157
L 192.926045 -240.046117
L 194.330005 -241.450077
L 195.733965 -242.854037
L 197.137924 -244.257997
L 198.541884 -245.661956
L 199.945844 -247.065916
L 201.349804 -248.469876
L 202.753764 -249.873836
L 204.157724 -251.277796
L 205.561684 -252.681756
L 206.965643 -254.085716
L 208.369603 -255.489675
L 209.773563 -256.893635
L 211.177523 -258.297595
L 212.581483 -259.701555
L 213.985443 -261.105515
L 215.389403 -262.509475
L 216.793363 -263.913435
L 218.197322 -265.317395
L 219.601282 -266.721354
L 221.005242 -268.125314
L 222.409202 -269.529274
L 223.813162 -270.933234
L 225.217122 -272.337194
L 226.621082 -273.741154
L 228.025041 -275.145114
L 229.429001 -276.549073
L 230.832961 -277.953033
L 232.236921 -279.356993
L 233.640881 -280.760953
L 235.044841 -282.164913
L 236.448801 -283.568873
L 237.852761 -284.972833
L 239.25672 -286.376792
L 240.66068 -287.780752
L 242.06464 -289.184712
L 243.4686 -290.588672
L 244.87256 -291.992632
L 246.27652 -293.396592
L 247.68048 -294.800552
L 249.084439 -296.204512
L 250.488399 -297.608471
L 251.892359 -299.012431
L 253.296319 -300.416391
L 254.700279 -301.820351
L 256.104239 -303.224311
L 257.508199 -304.628271
L 258.912159 -306.032231
L 260.316118 -307.43619
L 261.720078 -308.84015
L 263.124038 -310.24411
L 264.527998 -311.64807
L 265.931958 -313.05203
L 267.335918 -314.45599
L 268.739878 -315.85995
L 270.143837 -317.26391
L 271.547797 -318.667869
L 272.951757 -320.071829
L 274.355717 -321.475789
L 275.759677 -322.879749
L 277.163637 -324.283709
L 278.567597 -325.687669
L 279.971557 -327.091629
L 281.375516 -328.495588
L 282.779476 -329.899548
L 284.183436 -331.303508
L 285.587396 -332.707468
L 286.991356 -334.111428
L 288.395316 -335.515388
L 289.799276 -336.919348
L 291.203235 -338.323308
L 292.607195 -339.727267
L 294.011155 -341.131227
L 295.415115 -342.535187
L 296.819075 -343.939147
L 298.223035 -345.343107
L 299.626995 -346.747067
L 301.030955 -348.151027
L 302.434914 -349.554986
L 303.838874 -350.958946
L 305.242834 -352.362906
L 306.646794 -353.766866
L 308.050754 -355.170826
L 309.454714 -356.574786
L 310.858674 -357.978746
L 312.262633 -359.382706
L 313.666593 -360.786665
L 315.070553 -362.190625
L 316.474513 -363.594585
L 317.878473 -364.998545
L 319.282433 -366.402505
L 320.686393 -367.806465
L 322.090353 -369.210425
L 323.494312 -370.614384
L 324.898272 -372.018344
L 326.302232 -373.422304
L 327.706192 -374.826264
L 329.110152 -376.230224
L 330.514112 -377.634184
L 331.918072 -379.038144
L 333.322031 -380.442104
L 334.725991 -381.846063
L 336.129951 -383.250023
L 337.533911 -384.653983
L 338.937871 -386.057943
L 340.341831 -387.461903
L 341.745791 -388.865863
L 343.149751 -390.269823
L 344.55371 -391.673782
L 345.95767 -393.077742
L 347.36163 -394.481702
L 348.76559 -395.885662
L 350.16955 -397.289622
L 351.57351 -398.693582
L 352.97747 -400.097542
L 354.381429 -401.501502
L 355.785389 -402.905461
L 357.189349 -404.309421
L 358.593309 -405.713381
L 359.997269 -407.117341
L 361.401229 -408.521301
L 362.805189 -409.925261
L 364.209149 -411.329221
L 365.613108 -412.73318
L 367.017068 -414.13714
L 368.421028 -415.5411
L 369.824988 -416.94506
L 371.228948 -418.34902
L 372.632908 -419.75298
L 374.036868 -421.15694
L 375.440827 -422.5609
L 376.844787 -423.964859
L 378.248747 -425.368819
L 379.652707 -426.772779
L 381.056667 -428.176739
L 382.460627 -429.580699
L 383.864587 -430.984659
L 385.268547 -432.388619
L 386.672506 -433.792578
L 388.076466 -435.196538
L 389.480426 -436.600498
L 390.884386 -438.004458
L 392.288346 -439.408418
L 393.692306 -440.812378
L 395.096266 -442.216338
L 396.500225 -443.620298
L 397.904185 -445.024257
L 399.308145 -446.428217
L 400.712105 -447.832177
L 402.116065 -449.236137
L 403.520025 -450.640097
L 404.923985 -452.044057
L 406.327945 -453.448017
L 407.731904 -454.851976
L 407.731904 -455.404625
L 407.731904 -455.404625
L 406.327945 -455.404625
L 404.923985 -455.404625
L 403.520025 -455.404625
L 402.116065 -455.404625
L 400.712105 -455.404625
L 399.308145 -455.404625
L 397.904185 -455.404625
L 396.500225 -455.404625
L 395.096266 -455.404625
L 393.692306 -455.404625
L 392.288346 -455.404625
L 390.884386 -455.404625
L 389.480426 -455.404625
L 388.076466 -455.404625
L 386.672506 -455.404625
L 385.268547 -455.404625
L 383.864587 -455.404625
L 382.460627 -455.404625
L 381.056667 -455.404625
L 379.652707 -455.404625
L 378.248747 -455.404625
L 376.844787 -455.404625
L 375.440827 -455.404625
L 374.036868 -455.404625
L 372.632908 -455.404625
L 371.228948 -455.404625
L 369.824988 -455.404625
L 368.421028 -455.404625
L 367.017068 -455.404625
L 365.613108 -455.404625
L 364.209149 -455.404625
L 362.805189 -455.404625
L 361.401229 -455.404625
L 359.997269 -455.404625
L 358.593309 -455.404625
L 357.189349 -455.404625
L 355.785389 -455.404625
L 354.381429 -455.404625
L 352.97747 -455.404625
L 351.57351 -455.404625
L 350.16955 -455.404625
L 348.76559 -455.404625
L 347.36163 -455.404625
L 345.95767 -455.404625
L 344.55371 -455.404625
L 343.149751 -455.404625
L 341.745791 -455.404625
L 340.341831 -455.404625
L 338.937871 -455.404625
L 337.533911 -455.404625
L 336.129951 -455.404625
L 334.725991 -455.404625
L 333.322031 -455.404625
L 331.918072 -455.404625
L 330.514112 -455.404625
L 329.110152 -455.404625
L 327.706192 -455.404625
L 326.302232 -455.404625
L 324.898272 -455.404625
L 323.494312 -455.404625
L 322.090353 -455.404625
L 320.686393 -455.404625
L 319.282433 -455.404625
L 317.878473 -455.404625
L 316.474513 -455.404625
L 315.070553 -455.404625
L 313.666593 -455.404625
L 312.262633 -455.404625
L 310.858674 -455.404625
L 309.454714 -455.404625
L 308.050754 -455.404625
L 306.646794 -455.404625
L 305.242834 -455.404625
L 303.838874 -455.404625
L 302.434914 -455.404625
L 301.030955 -455.404625
L 299.626995 -455.404625
L 298.223035 -455.404625
L 296.819075 -455.404625
L 295.415115 -455.404625
L 294.011155 -455.404625
L 292.607195 -455.404625
L 291.203235 -455.404625
L 289.799276 -455.404625
L 288.395316 -455.404625
L 286.991356 -455.404625
L 285.587396 -455.404625
L 284.183436 -455.404625
L 282.779476 -455.404625
L 281.375516 -455.404625
L 279.971557 -455.404625
L 278.567597 -455.404625
L 277.163637 -455.404625
L 275.759677 -455.404625
L 274.355717 -455.404625
L 272.951757 -455.404625
L 271.547797 -455.404625
L 270.143837 -455.404625
L 268.739878 -455.404625
L 267.335918 -455.404625
L 265.931958 -455.404625
L 264.527998 -455.404625
L 263.124038 -455.404625
L 261.720078 -455.404625
L 260.316118 -455.404625
L 258.912159 -455.404625
L 257.508199 -455.404625
L 256.104239 -455.404625
L 254.700279 -455.404625
L 253.296319 -455.404625
L 251.892359 -455.404625
L 250.488399 -455.404625
L 249.084439 -455.404625
L 247.68048 -455.404625
L 246.27652 -455.404625
L 244.87256 -455.404625
L 243.4686 -455.404625
L 242.06464 -455.404625
L 240.66068 -455.404625
L 239.25672 -455.404625
L 237.852761 -455.404625
L 236.448801 -455.404625
L 235.044841 -455.404625
L 233.640881 -455.404625
L 232.236921 -455.404625
L 230.832961 -455.404625
L 229.429001 -455.404625
L 228.025041 -455.404625
L 226.621082 -455.404625
L 225.217122 -455.404625
L 223.813162 -455.404625
L 222.409202 -455.404625
L 221.005242 -455.404625
L 219.601282 -455.404625
L 218.197322 -455.404625
L 216.793363 -455.404625
L 215.389403 -455.404625
L 213.985443 -455.404625
L 212.581483 -455.404625
L 211.177523 -455.404625
L 209.773563 -455.404625
L 208.369603 -455.404625
L 206.965643 -455.404625
L 205.561684 -455.404625
L 204.157724 -455.404625
L 202.753764 -455.404625
L 201.349804 -455.404625
L 199.945844 -455.404625
L 198.541884 -455.404625
L 197.137924 -455.404625
L 195.733965 -455.404625
L 194.330005 -455.404625
L 192.926045 -455.404625
L 191.522085 -455.404625
L 190.118125 -455.404625
L 188.714165 -455.404625
L 187.310205 -455.404625
L 185.906246 -455.404625
L 184.502286 -455.404625
L 183.098326 -455.404625
L 181.694366 -455.404625
L 180.290406 -455.404625
L 178.886446 -455.404625
L 177.482486 -455.404625
L 176.078526 -455.404625
L 174.674567 -455.404625
L 173.270607 -455.404625
L 171.866647 -455.404625
L 170.462687 -455.404625
L 169.058727 -455.404625
L 167.654767 -455.404625
L 166.250807 -455.404625
L 164.846848 -455.404625
L 163.442888 -455.404625
L 162.038928 -455.404625
L 160.634968 -455.404625
L 159.231008 -455.404625
L 157.827048 -455.404625
L 156.423088 -455.404625
L 155.019128 -455.404625
L 153.615169 -455.404625
L 152.211209 -455.404625
L 150.807249 -455.404625
L 149.403289 -455.404625
L 147.999329 -455.404625
L 146.595369 -455.404625
L 145.191409 -455.404625
L 143.78745 -455.404625
L 142.38349 -455.404625
L 140.97953 -455.404625
L 139.57557 -455.404625
L 138.17161 -455.404625
L 136.76765 -455.404625
L 135.36369 -455.404625
L 133.95973 -455.404625
L 132.555771 -455.404625
L 131.151811 -455.404625
L 129.747851 -455.404625
L 128.343891 -455.404625
L 126.939931 -455.404625
L 125.535971 -455.404625
L 124.132011 -455.404625
L 122.728052 -455.404625
L 121.324092 -455.404625
L 119.920132 -455.404625
L 118.516172 -455.404625
L 117.112212 -455.404625
L 115.708252 -455.404625
L 114.304292 -455.404625
L 112.900332 -455.404625
L 111.496373 -455.404625
L 110.092413 -455.404625
L 108.688453 -455.404625
L 107.284493 -455.404625
L 105.880533 -455.404625
L 104.476573 -455.404625
L 103.072613 -455.404625
L 101.668654 -455.404625
L 100.264694 -455.404625
L 98.860734 -455.404625
L 97.456774 -455.404625
L 96.052814 -455.404625
L 94.648854 -455.404625
L 93.244894 -455.404625
L 91.840934 -455.404625
L 90.436975 -455.404625
L 89.033015 -455.404625
L 87.629055 -455.404625
L 86.225095 -455.404625
L 84.821135 -455.404625
L 83.417175 -455.404625
L 82.013215 -455.404625
L 80.609256 -455.404625
L 79.205296 -455.404625
L 77.801336 -455.404625
L 76.397376 -455.404625
L 74.993416 -455.404625
L 73.589456 -455.404625
L 72.185496 -455.404625
L 70.781536 -455.404625
L 69.377577 -455.404625
L 67.973617 -455.404625
L 66.569657 -455.404625
L 65.165697 -455.404625
L 63.761737 -455.404625
L 62.357777 -455.404625
L 60.953817 -455.404625
L 59.549858 -455.404625
L 58.145898 -455.404625
L 56.741938 -455.404625
L 55.337978 -455.404625
L 53.934018 -455.404625
L 52.530058 -455.404625
L 51.126098 -455.404625
L 49.722138 -455.404625
L 48.318179 -455.404625
L 46.914219 -455.404625
z
" style="stroke: #d8ecbd; stroke-opacity: 0.42"/>
    </defs>
    <g clip-path="url(#pc88033a2b5)">
     <use xlink:href="#mbd547c5151" x="0" y="495.253875" style="fill: #d8ecbd; fill-opacity: 0.42; stroke: #d8ecbd; stroke-opacity: 0.42"/>
    </g>
   </g>
   <g id="matplotlib.axis_1">
    <g id="xtick_1">
     <g id="line2d_1">
      <path d="M 80.009537 459.63325
L 80.009537 39.84925
" clip-path="url(#pc88033a2b5)" style="fill: none; stroke: #e6e8f0; stroke-width: 0.8; stroke-linecap: square"/>
     </g>
     <g id="line2d_2">
      <defs>
       <path id="ma8305c191b" d="M 0 0
L 0 3.5
" style="stroke: #6f768a; stroke-width: 0.8"/>
      </defs>
      <g>
       <use xlink:href="#ma8305c191b" x="80.009537" y="459.63325" style="fill: #6f768a; stroke: #6f768a; stroke-width: 0.8"/>
      </g>
     </g>
     <g id="text_1">
      <!-- 30% -->
      <g style="fill: #6f768a" transform="translate(70.007584 473.471844) scale(0.09 -0.09)">
       <defs>
        <path id="DejaVuSans-33" d="M 2597 2516
Q 3050 2419 3304 2112
Q 3559 1806 3559 1356
Q 3559 666 3084 287
Q 2609 -91 1734 -91
Q 1441 -91 1130 -33
Q 819 25 488 141
L 488 750
Q 750 597 1062 519
Q 1375 441 1716 441
Q 2309 441 2620 675
Q 2931 909 2931 1356
Q 2931 1769 2642 2001
Q 2353 2234 1838 2234
L 1294 2234
L 1294 2753
L 1863 2753
Q 2328 2753 2575 2939
Q 2822 3125 2822 3475
Q 2822 3834 2567 4026
Q 2313 4219 1838 4219
Q 1578 4219 1281 4162
Q 984 4106 628 3988
L 628 4550
Q 988 4650 1302 4700
Q 1616 4750 1894 4750
Q 2613 4750 3031 4423
Q 3450 4097 3450 3541
Q 3450 3153 3228 2886
Q 3006 2619 2597 2516
z
" transform="scale(0.015625)"/>
        <path id="DejaVuSans-30" d="M 2034 4250
Q 1547 4250 1301 3770
Q 1056 3291 1056 2328
Q 1056 1369 1301 889
Q 1547 409 2034 409
Q 2525 409 2770 889
Q 3016 1369 3016 2328
Q 3016 3291 2770 3770
Q 2525 4250 2034 4250
z
M 2034 4750
Q 2819 4750 3233 4129
Q 3647 3509 3647 2328
Q 3647 1150 3233 529
Q 2819 -91 2034 -91
Q 1250 -91 836 529
Q 422 1150 422 2328
Q 422 3509 836 4129
Q 1250 4750 2034 4750
z
" transform="scale(0.015625)"/>
        <path id="DejaVuSans-25" d="M 4653 2053
Q 4381 2053 4226 1822
Q 4072 1591 4072 1178
Q 4072 772 4226 539
Q 4381 306 4653 306
Q 4919 306 5073 539
Q 5228 772 5228 1178
Q 5228 1588 5073 1820
Q 4919 2053 4653 2053
z
M 4653 2450
Q 5147 2450 5437 2106
Q 5728 1763 5728 1178
Q 5728 594 5436 251
Q 5144 -91 4653 -91
Q 4153 -91 3862 251
Q 3572 594 3572 1178
Q 3572 1766 3864 2108
Q 4156 2450 4653 2450
z
M 1428 4353
Q 1159 4353 1004 4120
Q 850 3888 850 3481
Q 850 3069 1003 2837
Q 1156 2606 1428 2606
Q 1700 2606 1854 2837
Q 2009 3069 2009 3481
Q 2009 3884 1853 4118
Q 1697 4353 1428 4353
z
M 4250 4750
L 4750 4750
L 1831 -91
L 1331 -91
L 4250 4750
z
M 1428 4750
Q 1922 4750 2215 4408
Q 2509 4066 2509 3481
Q 2509 2891 2217 2550
Q 1925 2209 1428 2209
Q 931 2209 642 2551
Q 353 2894 353 3481
Q 353 4063 643 4406
Q 934 4750 1428 4750
z
" transform="scale(0.015625)"/>
       </defs>
       <use xlink:href="#DejaVuSans-33"/>
       <use xlink:href="#DejaVuSans-30" transform="translate(63.623047 0)"/>
       <use xlink:href="#DejaVuSans-25" transform="translate(127.246094 0)"/>
      </g>
     </g>
    </g>
    <g id="xtick_2">
     <g id="line2d_3">
      <path d="M 146.200173 459.63325
L 146.200173 39.84925
" clip-path="url(#pc88033a2b5)" style="fill: none; stroke: #e6e8f0; stroke-width: 0.8; stroke-linecap: square"/>
     </g>
     <g id="line2d_4">
      <g>
       <use xlink:href="#ma8305c191b" x="146.200173" y="459.63325" style="fill: #6f768a; stroke: #6f768a; stroke-width: 0.8"/>
      </g>
     </g>
     <g id="text_2">
      <!-- 40% -->
      <g style="fill: #6f768a" transform="translate(136.19822 473.471844) scale(0.09 -0.09)">
       <defs>
        <path id="DejaVuSans-34" d="M 2419 4116
L 825 1625
L 2419 1625
L 2419 4116
z
M 2253 4666
L 3047 4666
L 3047 1625
L 3713 1625
L 3713 1100
L 3047 1100
L 3047 0
L 2419 0
L 2419 1100
L 313 1100
L 313 1709
L 2253 4666
z
" transform="scale(0.015625)"/>
       </defs>
       <use xlink:href="#DejaVuSans-34"/>
       <use xlink:href="#DejaVuSans-30" transform="translate(63.623047 0)"/>
       <use xlink:href="#DejaVuSans-25" transform="translate(127.246094 0)"/>
      </g>
     </g>
    </g>
    <g id="xtick_3">
     <g id="line2d_5">
      <path d="M 212.39081 459.63325
L 212.39081 39.84925
" clip-path="url(#pc88033a2b5)" style="fill: none; stroke: #e6e8f0; stroke-width: 0.8; stroke-linecap: square"/>
     </g>
     <g id="line2d_6">
      <g>
       <use xlink:href="#ma8305c191b" x="212.39081" y="459.63325" style="fill: #6f768a; stroke: #6f768a; stroke-width: 0.8"/>
      </g>
     </g>
     <g id="text_3">
      <!-- 50% -->
      <g style="fill: #6f768a" transform="translate(202.388857 473.471844) scale(0.09 -0.09)">
       <defs>
        <path id="DejaVuSans-35" d="M 691 4666
L 3169 4666
L 3169 4134
L 1269 4134
L 1269 2991
Q 1406 3038 1543 3061
Q 1681 3084 1819 3084
Q 2600 3084 3056 2656
Q 3513 2228 3513 1497
Q 3513 744 3044 326
Q 2575 -91 1722 -91
Q 1428 -91 1123 -41
Q 819 9 494 109
L 494 744
Q 775 591 1075 516
Q 1375 441 1709 441
Q 2250 441 2565 725
Q 2881 1009 2881 1497
Q 2881 1984 2565 2268
Q 2250 2553 1709 2553
Q 1456 2553 1204 2497
Q 953 2441 691 2322
L 691 4666
z
" transform="scale(0.015625)"/>
       </defs>
       <use xlink:href="#DejaVuSans-35"/>
       <use xlink:href="#DejaVuSans-30" transform="translate(63.623047 0)"/>
       <use xlink:href="#DejaVuSans-25" transform="translate(127.246094 0)"/>
      </g>
     </g>
    </g>
    <g id="xtick_4">
     <g id="line2d_7">
      <path d="M 278.581446 459.63325
L 278.581446 39.84925
" clip-path="url(#pc88033a2b5)" style="fill: none; stroke: #e6e8f0; stroke-width: 0.8; stroke-linecap: square"/>
     </g>
     <g id="line2d_8">
      <g>
       <use xlink:href="#ma8305c191b" x="278.581446" y="459.63325" style="fill: #6f768a; stroke: #6f768a; stroke-width: 0.8"/>
      </g>
     </g>
     <g id="text_4">
      <!-- 60% -->
      <g style="fill: #6f768a" transform="translate(268.579493 473.471844) scale(0.09 -0.09)">
       <defs>
        <path id="DejaVuSans-36" d="M 2113 2584
Q 1688 2584 1439 2293
Q 1191 2003 1191 1497
Q 1191 994 1439 701
Q 1688 409 2113 409
Q 2538 409 2786 701
Q 3034 994 3034 1497
Q 3034 2003 2786 2293
Q 2538 2584 2113 2584
z
M 3366 4563
L 3366 3988
Q 3128 4100 2886 4159
Q 2644 4219 2406 4219
Q 1781 4219 1451 3797
Q 1122 3375 1075 2522
Q 1259 2794 1537 2939
Q 1816 3084 2150 3084
Q 2853 3084 3261 2657
Q 3669 2231 3669 1497
Q 3669 778 3244 343
Q 2819 -91 2113 -91
Q 1303 -91 875 529
Q 447 1150 447 2328
Q 447 3434 972 4092
Q 1497 4750 2381 4750
Q 2619 4750 2861 4703
Q 3103 4656 3366 4563
z
" transform="scale(0.015625)"/>
       </defs>
       <use xlink:href="#DejaVuSans-36"/>
       <use xlink:href="#DejaVuSans-30" transform="translate(63.623047 0)"/>
       <use xlink:href="#DejaVuSans-25" transform="translate(127.246094 0)"/>
      </g>
     </g>
    </g>
    <g id="xtick_5">
     <g id="line2d_9">
      <path d="M 344.772083 459.63325
L 344.772083 39.84925
" clip-path="url(#pc88033a2b5)" style="fill: none; stroke: #e6e8f0; stroke-width: 0.8; stroke-linecap: square"/>
     </g>
     <g id="line2d_10">
      <g>
       <use xlink:href="#ma8305c191b" x="344.772083" y="459.63325" style="fill: #6f768a; stroke: #6f768a; stroke-width: 0.8"/>
      </g>
     </g>
     <g id="text_5">
      <!-- 70% -->
      <g style="fill: #6f768a" transform="translate(334.77013 473.471844) scale(0.09 -0.09)">
       <defs>
        <path id="DejaVuSans-37" d="M 525 4666
L 3525 4666
L 3525 4397
L 1831 0
L 1172 0
L 2766 4134
L 525 4134
L 525 4666
z
" transform="scale(0.015625)"/>
       </defs>
       <use xlink:href="#DejaVuSans-37"/>
       <use xlink:href="#DejaVuSans-30" transform="translate(63.623047 0)"/>
       <use xlink:href="#DejaVuSans-25" transform="translate(127.246094 0)"/>
      </g>
     </g>
    </g>
    <g id="xtick_6">
     <g id="line2d_11">
      <path d="M 410.962719 459.63325
L 410.962719 39.84925
" clip-path="url(#pc88033a2b5)" style="fill: none; stroke: #e6e8f0; stroke-width: 0.8; stroke-linecap: square"/>
     </g>
     <g id="line2d_12">
      <g>
       <use xlink:href="#ma8305c191b" x="410.962719" y="459.63325" style="fill: #6f768a; stroke: #6f768a; stroke-width: 0.8"/>
      </g>
     </g>
     <g id="text_6">
      <!-- 80% -->
      <g style="fill: #6f768a" transform="translate(400.960766 473.471844) scale(0.09 -0.09)">
       <defs>
        <path id="DejaVuSans-38" d="M 2034 2216
Q 1584 2216 1326 1975
Q 1069 1734 1069 1313
Q 1069 891 1326 650
Q 1584 409 2034 409
Q 2484 409 2743 651
Q 3003 894 3003 1313
Q 3003 1734 2745 1975
Q 2488 2216 2034 2216
z
M 1403 2484
Q 997 2584 770 2862
Q 544 3141 544 3541
Q 544 4100 942 4425
Q 1341 4750 2034 4750
Q 2731 4750 3128 4425
Q 3525 4100 3525 3541
Q 3525 3141 3298 2862
Q 3072 2584 2669 2484
Q 3125 2378 3379 2068
Q 3634 1759 3634 1313
Q 3634 634 3220 271
Q 2806 -91 2034 -91
Q 1263 -91 848 271
Q 434 634 434 1313
Q 434 1759 690 2068
Q 947 2378 1403 2484
z
M 1172 3481
Q 1172 3119 1398 2916
Q 1625 2713 2034 2713
Q 2441 2713 2670 2916
Q 2900 3119 2900 3481
Q 2900 3844 2670 4047
Q 2441 4250 2034 4250
Q 1625 4250 1398 4047
Q 1172 3844 1172 3481
z
" transform="scale(0.015625)"/>
       </defs>
       <use xlink:href="#DejaVuSans-38"/>
       <use xlink:href="#DejaVuSans-30" transform="translate(63.623047 0)"/>
       <use xlink:href="#DejaVuSans-25" transform="translate(127.246094 0)"/>
      </g>
     </g>
    </g>
    <g id="text_7">
     <!-- p0: predicted response without capped action -->
     <g style="fill: #1f2430" transform="translate(153.298484 486.182156) scale(0.09 -0.09)">
      <defs>
       <path id="DejaVuSans-70" d="M 1159 525
L 1159 -1331
L 581 -1331
L 581 3500
L 1159 3500
L 1159 2969
Q 1341 3281 1617 3432
Q 1894 3584 2278 3584
Q 2916 3584 3314 3078
Q 3713 2572 3713 1747
Q 3713 922 3314 415
Q 2916 -91 2278 -91
Q 1894 -91 1617 61
Q 1341 213 1159 525
z
M 3116 1747
Q 3116 2381 2855 2742
Q 2594 3103 2138 3103
Q 1681 3103 1420 2742
Q 1159 2381 1159 1747
Q 1159 1113 1420 752
Q 1681 391 2138 391
Q 2594 391 2855 752
Q 3116 1113 3116 1747
z
" transform="scale(0.015625)"/>
       <path id="DejaVuSans-3a" d="M 750 794
L 1409 794
L 1409 0
L 750 0
L 750 794
z
M 750 3309
L 1409 3309
L 1409 2516
L 750 2516
L 750 3309
z
" transform="scale(0.015625)"/>
       <path id="DejaVuSans-20" transform="scale(0.015625)"/>
       <path id="DejaVuSans-72" d="M 2631 2963
Q 2534 3019 2420 3045
Q 2306 3072 2169 3072
Q 1681 3072 1420 2755
Q 1159 2438 1159 1844
L 1159 0
L 581 0
L 581 3500
L 1159 3500
L 1159 2956
Q 1341 3275 1631 3429
Q 1922 3584 2338 3584
Q 2397 3584 2469 3576
Q 2541 3569 2628 3553
L 2631 2963
z
" transform="scale(0.015625)"/>
       <path id="DejaVuSans-65" d="M 3597 1894
L 3597 1613
L 953 1613
Q 991 1019 1311 708
Q 1631 397 2203 397
Q 2534 397 2845 478
Q 3156 559 3463 722
L 3463 178
Q 3153 47 2828 -22
Q 2503 -91 2169 -91
Q 1331 -91 842 396
Q 353 884 353 1716
Q 353 2575 817 3079
Q 1281 3584 2069 3584
Q 2775 3584 3186 3129
Q 3597 2675 3597 1894
z
M 3022 2063
Q 3016 2534 2758 2815
Q 2500 3097 2075 3097
Q 1594 3097 1305 2825
Q 1016 2553 972 2059
L 3022 2063
z
" transform="scale(0.015625)"/>
       <path id="DejaVuSans-64" d="M 2906 2969
L 2906 4863
L 3481 4863
L 3481 0
L 2906 0
L 2906 525
Q 2725 213 2448 61
Q 2172 -91 1784 -91
Q 1150 -91 751 415
Q 353 922 353 1747
Q 353 2572 751 3078
Q 1150 3584 1784 3584
Q 2172 3584 2448 3432
Q 2725 3281 2906 2969
z
M 947 1747
Q 947 1113 1208 752
Q 1469 391 1925 391
Q 2381 391 2643 752
Q 2906 1113 2906 1747
Q 2906 2381 2643 2742
Q 2381 3103 1925 3103
Q 1469 3103 1208 2742
Q 947 2381 947 1747
z
" transform="scale(0.015625)"/>
       <path id="DejaVuSans-69" d="M 603 3500
L 1178 3500
L 1178 0
L 603 0
L 603 3500
z
M 603 4863
L 1178 4863
L 1178 4134
L 603 4134
L 603 4863
z
" transform="scale(0.015625)"/>
       <path id="DejaVuSans-63" d="M 3122 3366
L 3122 2828
Q 2878 2963 2633 3030
Q 2388 3097 2138 3097
Q 1578 3097 1268 2742
Q 959 2388 959 1747
Q 959 1106 1268 751
Q 1578 397 2138 397
Q 2388 397 2633 464
Q 2878 531 3122 666
L 3122 134
Q 2881 22 2623 -34
Q 2366 -91 2075 -91
Q 1284 -91 818 406
Q 353 903 353 1747
Q 353 2603 823 3093
Q 1294 3584 2113 3584
Q 2378 3584 2631 3529
Q 2884 3475 3122 3366
z
" transform="scale(0.015625)"/>
       <path id="DejaVuSans-74" d="M 1172 4494
L 1172 3500
L 2356 3500
L 2356 3053
L 1172 3053
L 1172 1153
Q 1172 725 1289 603
Q 1406 481 1766 481
L 2356 481
L 2356 0
L 1766 0
Q 1100 0 847 248
Q 594 497 594 1153
L 594 3053
L 172 3053
L 172 3500
L 594 3500
L 594 4494
L 1172 4494
z
" transform="scale(0.015625)"/>
       <path id="DejaVuSans-73" d="M 2834 3397
L 2834 2853
Q 2591 2978 2328 3040
Q 2066 3103 1784 3103
Q 1356 3103 1142 2972
Q 928 2841 928 2578
Q 928 2378 1081 2264
Q 1234 2150 1697 2047
L 1894 2003
Q 2506 1872 2764 1633
Q 3022 1394 3022 966
Q 3022 478 2636 193
Q 2250 -91 1575 -91
Q 1294 -91 989 -36
Q 684 19 347 128
L 347 722
Q 666 556 975 473
Q 1284 391 1588 391
Q 1994 391 2212 530
Q 2431 669 2431 922
Q 2431 1156 2273 1281
Q 2116 1406 1581 1522
L 1381 1569
Q 847 1681 609 1914
Q 372 2147 372 2553
Q 372 3047 722 3315
Q 1072 3584 1716 3584
Q 2034 3584 2315 3537
Q 2597 3491 2834 3397
z
" transform="scale(0.015625)"/>
       <path id="DejaVuSans-6f" d="M 1959 3097
Q 1497 3097 1228 2736
Q 959 2375 959 1747
Q 959 1119 1226 758
Q 1494 397 1959 397
Q 2419 397 2687 759
Q 2956 1122 2956 1747
Q 2956 2369 2687 2733
Q 2419 3097 1959 3097
z
M 1959 3584
Q 2709 3584 3137 3096
Q 3566 2609 3566 1747
Q 3566 888 3137 398
Q 2709 -91 1959 -91
Q 1206 -91 779 398
Q 353 888 353 1747
Q 353 2609 779 3096
Q 1206 3584 1959 3584
z
" transform="scale(0.015625)"/>
       <path id="DejaVuSans-6e" d="M 3513 2113
L 3513 0
L 2938 0
L 2938 2094
Q 2938 2591 2744 2837
Q 2550 3084 2163 3084
Q 1697 3084 1428 2787
Q 1159 2491 1159 1978
L 1159 0
L 581 0
L 581 3500
L 1159 3500
L 1159 2956
Q 1366 3272 1645 3428
Q 1925 3584 2291 3584
Q 2894 3584 3203 3211
Q 3513 2838 3513 2113
z
" transform="scale(0.015625)"/>
       <path id="DejaVuSans-77" d="M 269 3500
L 844 3500
L 1563 769
L 2278 3500
L 2956 3500
L 3675 769
L 4391 3500
L 4966 3500
L 4050 0
L 3372 0
L 2619 2869
L 1863 0
L 1184 0
L 269 3500
z
" transform="scale(0.015625)"/>
       <path id="DejaVuSans-68" d="M 3513 2113
L 3513 0
L 2938 0
L 2938 2094
Q 2938 2591 2744 2837
Q 2550 3084 2163 3084
Q 1697 3084 1428 2787
Q 1159 2491 1159 1978
L 1159 0
L 581 0
L 581 4863
L 1159 4863
L 1159 2956
Q 1366 3272 1645 3428
Q 1925 3584 2291 3584
Q 2894 3584 3203 3211
Q 3513 2838 3513 2113
z
" transform="scale(0.015625)"/>
       <path id="DejaVuSans-75" d="M 544 1381
L 544 3500
L 1119 3500
L 1119 1403
Q 1119 906 1312 657
Q 1506 409 1894 409
Q 2359 409 2629 706
Q 2900 1003 2900 1516
L 2900 3500
L 3475 3500
L 3475 0
L 2900 0
L 2900 538
Q 2691 219 2414 64
Q 2138 -91 1772 -91
Q 1169 -91 856 284
Q 544 659 544 1381
z
M 1991 3584
L 1991 3584
z
" transform="scale(0.015625)"/>
       <path id="DejaVuSans-61" d="M 2194 1759
Q 1497 1759 1228 1600
Q 959 1441 959 1056
Q 959 750 1161 570
Q 1363 391 1709 391
Q 2188 391 2477 730
Q 2766 1069 2766 1631
L 2766 1759
L 2194 1759
z
M 3341 1997
L 3341 0
L 2766 0
L 2766 531
Q 2569 213 2275 61
Q 1981 -91 1556 -91
Q 1019 -91 701 211
Q 384 513 384 1019
Q 384 1609 779 1909
Q 1175 2209 1959 2209
L 2766 2209
L 2766 2266
Q 2766 2663 2505 2880
Q 2244 3097 1772 3097
Q 1472 3097 1187 3025
Q 903 2953 641 2809
L 641 3341
Q 956 3463 1253 3523
Q 1550 3584 1831 3584
Q 2591 3584 2966 3190
Q 3341 2797 3341 1997
z
" transform="scale(0.015625)"/>
      </defs>
      <use xlink:href="#DejaVuSans-70"/>
      <use xlink:href="#DejaVuSans-30" transform="translate(63.476562 0)"/>
      <use xlink:href="#DejaVuSans-3a" transform="translate(127.099609 0)"/>
      <use xlink:href="#DejaVuSans-20" transform="translate(160.791016 0)"/>
      <use xlink:href="#DejaVuSans-70" transform="translate(192.578125 0)"/>
      <use xlink:href="#DejaVuSans-72" transform="translate(256.054688 0)"/>
      <use xlink:href="#DejaVuSans-65" transform="translate(294.917969 0)"/>
      <use xlink:href="#DejaVuSans-64" transform="translate(356.441406 0)"/>
      <use xlink:href="#DejaVuSans-69" transform="translate(419.917969 0)"/>
      <use xlink:href="#DejaVuSans-63" transform="translate(447.701172 0)"/>
      <use xlink:href="#DejaVuSans-74" transform="translate(502.681641 0)"/>
      <use xlink:href="#DejaVuSans-65" transform="translate(541.890625 0)"/>
      <use xlink:href="#DejaVuSans-64" transform="translate(603.414062 0)"/>
      <use xlink:href="#DejaVuSans-20" transform="translate(666.890625 0)"/>
      <use xlink:href="#DejaVuSans-72" transform="translate(698.677734 0)"/>
      <use xlink:href="#DejaVuSans-65" transform="translate(737.541016 0)"/>
      <use xlink:href="#DejaVuSans-73" transform="translate(799.064453 0)"/>
      <use xlink:href="#DejaVuSans-70" transform="translate(851.164062 0)"/>
      <use xlink:href="#DejaVuSans-6f" transform="translate(914.640625 0)"/>
      <use xlink:href="#DejaVuSans-6e" transform="translate(975.822266 0)"/>
      <use xlink:href="#DejaVuSans-73" transform="translate(1039.201172 0)"/>
      <use xlink:href="#DejaVuSans-65" transform="translate(1091.300781 0)"/>
      <use xlink:href="#DejaVuSans-20" transform="translate(1152.824219 0)"/>
      <use xlink:href="#DejaVuSans-77" transform="translate(1184.611328 0)"/>
      <use xlink:href="#DejaVuSans-69" transform="translate(1266.398438 0)"/>
      <use xlink:href="#DejaVuSans-74" transform="translate(1294.181641 0)"/>
      <use xlink:href="#DejaVuSans-68" transform="translate(1333.390625 0)"/>
      <use xlink:href="#DejaVuSans-6f" transform="translate(1396.769531 0)"/>
      <use xlink:href="#DejaVuSans-75" transform="translate(1457.951172 0)"/>
      <use xlink:href="#DejaVuSans-74" transform="translate(1521.330078 0)"/>
      <use xlink:href="#DejaVuSans-20" transform="translate(1560.539062 0)"/>
      <use xlink:href="#DejaVuSans-63" transform="translate(1592.326172 0)"/>
      <use xlink:href="#DejaVuSans-61" transform="translate(1647.306641 0)"/>
      <use xlink:href="#DejaVuSans-70" transform="translate(1708.585938 0)"/>
      <use xlink:href="#DejaVuSans-70" transform="translate(1772.0625 0)"/>
      <use xlink:href="#DejaVuSans-65" transform="translate(1835.539062 0)"/>
      <use xlink:href="#DejaVuSans-64" transform="translate(1897.0625 0)"/>
      <use xlink:href="#DejaVuSans-20" transform="translate(1960.539062 0)"/>
      <use xlink:href="#DejaVuSans-61" transform="translate(1992.326172 0)"/>
      <use xlink:href="#DejaVuSans-63" transform="translate(2053.605469 0)"/>
      <use xlink:href="#DejaVuSans-74" transform="translate(2108.585938 0)"/>
      <use xlink:href="#DejaVuSans-69" transform="translate(2147.794922 0)"/>
      <use xlink:href="#DejaVuSans-6f" transform="translate(2175.578125 0)"/>
      <use xlink:href="#DejaVuSans-6e" transform="translate(2236.759766 0)"/>
     </g>
    </g>
   </g>
   <g id="matplotlib.axis_2">
    <g id="ytick_1">
     <g id="line2d_13">
      <path d="M 46.914219 426.537932
L 466.698219 426.537932
" clip-path="url(#pc88033a2b5)" style="fill: none; stroke: #e6e8f0; stroke-width: 0.8; stroke-linecap: square"/>
     </g>
     <g id="line2d_14">
      <defs>
       <path id="md7d674da94" d="M 0 0
L -3.5 0
" style="stroke: #6f768a; stroke-width: 0.8"/>
      </defs>
      <g>
       <use xlink:href="#md7d674da94" x="46.914219" y="426.537932" style="fill: #6f768a; stroke: #6f768a; stroke-width: 0.8"/>
      </g>
     </g>
     <g id="text_8">
      <!-- 30% -->
      <g style="fill: #6f768a" transform="translate(19.910313 429.957229) scale(0.09 -0.09)">
       <use xlink:href="#DejaVuSans-33"/>
       <use xlink:href="#DejaVuSans-30" transform="translate(63.623047 0)"/>
       <use xlink:href="#DejaVuSans-25" transform="translate(127.246094 0)"/>
      </g>
     </g>
    </g>
    <g id="ytick_2">
     <g id="line2d_15">
      <path d="M 46.914219 360.347295
L 466.698219 360.347295
" clip-path="url(#pc88033a2b5)" style="fill: none; stroke: #e6e8f0; stroke-width: 0.8; stroke-linecap: square"/>
     </g>
     <g id="line2d_16">
      <g>
       <use xlink:href="#md7d674da94" x="46.914219" y="360.347295" style="fill: #6f768a; stroke: #6f768a; stroke-width: 0.8"/>
      </g>
     </g>
     <g id="text_9">
      <!-- 40% -->
      <g style="fill: #6f768a" transform="translate(19.910313 363.766592) scale(0.09 -0.09)">
       <use xlink:href="#DejaVuSans-34"/>
       <use xlink:href="#DejaVuSans-30" transform="translate(63.623047 0)"/>
       <use xlink:href="#DejaVuSans-25" transform="translate(127.246094 0)"/>
      </g>
     </g>
    </g>
    <g id="ytick_3">
     <g id="line2d_17">
      <path d="M 46.914219 294.156659
L 466.698219 294.156659
" clip-path="url(#pc88033a2b5)" style="fill: none; stroke: #e6e8f0; stroke-width: 0.8; stroke-linecap: square"/>
     </g>
     <g id="line2d_18">
      <g>
       <use xlink:href="#md7d674da94" x="46.914219" y="294.156659" style="fill: #6f768a; stroke: #6f768a; stroke-width: 0.8"/>
      </g>
     </g>
     <g id="text_10">
      <!-- 50% -->
      <g style="fill: #6f768a" transform="translate(19.910313 297.575956) scale(0.09 -0.09)">
       <use xlink:href="#DejaVuSans-35"/>
       <use xlink:href="#DejaVuSans-30" transform="translate(63.623047 0)"/>
       <use xlink:href="#DejaVuSans-25" transform="translate(127.246094 0)"/>
      </g>
     </g>
    </g>
    <g id="ytick_4">
     <g id="line2d_19">
      <path d="M 46.914219 227.966022
L 466.698219 227.966022
" clip-path="url(#pc88033a2b5)" style="fill: none; stroke: #e6e8f0; stroke-width: 0.8; stroke-linecap: square"/>
     </g>
     <g id="line2d_20">
      <g>
       <use xlink:href="#md7d674da94" x="46.914219" y="227.966022" style="fill: #6f768a; stroke: #6f768a; stroke-width: 0.8"/>
      </g>
     </g>
     <g id="text_11">
      <!-- 60% -->
      <g style="fill: #6f768a" transform="translate(19.910313 231.385319) scale(0.09 -0.09)">
       <use xlink:href="#DejaVuSans-36"/>
       <use xlink:href="#DejaVuSans-30" transform="translate(63.623047 0)"/>
       <use xlink:href="#DejaVuSans-25" transform="translate(127.246094 0)"/>
      </g>
     </g>
    </g>
    <g id="ytick_5">
     <g id="line2d_21">
      <path d="M 46.914219 161.775386
L 466.698219 161.775386
" clip-path="url(#pc88033a2b5)" style="fill: none; stroke: #e6e8f0; stroke-width: 0.8; stroke-linecap: square"/>
     </g>
     <g id="line2d_22">
      <g>
       <use xlink:href="#md7d674da94" x="46.914219" y="161.775386" style="fill: #6f768a; stroke: #6f768a; stroke-width: 0.8"/>
      </g>
     </g>
     <g id="text_12">
      <!-- 70% -->
      <g style="fill: #6f768a" transform="translate(19.910313 165.194683) scale(0.09 -0.09)">
       <use xlink:href="#DejaVuSans-37"/>
       <use xlink:href="#DejaVuSans-30" transform="translate(63.623047 0)"/>
       <use xlink:href="#DejaVuSans-25" transform="translate(127.246094 0)"/>
      </g>
     </g>
    </g>
    <g id="ytick_6">
     <g id="line2d_23">
      <path d="M 46.914219 95.58475
L 466.698219 95.58475
" clip-path="url(#pc88033a2b5)" style="fill: none; stroke: #e6e8f0; stroke-width: 0.8; stroke-linecap: square"/>
     </g>
     <g id="line2d_24">
      <g>
       <use xlink:href="#md7d674da94" x="46.914219" y="95.58475" style="fill: #6f768a; stroke: #6f768a; stroke-width: 0.8"/>
      </g>
     </g>
     <g id="text_13">
      <!-- 80% -->
      <g style="fill: #6f768a" transform="translate(19.910313 99.004046) scale(0.09 -0.09)">
       <use xlink:href="#DejaVuSans-38"/>
       <use xlink:href="#DejaVuSans-30" transform="translate(63.623047 0)"/>
       <use xlink:href="#DejaVuSans-25" transform="translate(127.246094 0)"/>
      </g>
     </g>
    </g>
    <g id="text_14">
     <!-- p1: predicted response with capped action -->
     <g style="fill: #1f2430" transform="translate(14.038594 345.879531) rotate(-90) scale(0.09 -0.09)">
      <defs>
       <path id="DejaVuSans-31" d="M 794 531
L 1825 531
L 1825 4091
L 703 3866
L 703 4441
L 1819 4666
L 2450 4666
L 2450 531
L 3481 531
L 3481 0
L 794 0
L 794 531
z
" transform="scale(0.015625)"/>
      </defs>
      <use xlink:href="#DejaVuSans-70"/>
      <use xlink:href="#DejaVuSans-31" transform="translate(63.476562 0)"/>
      <use xlink:href="#DejaVuSans-3a" transform="translate(127.099609 0)"/>
      <use xlink:href="#DejaVuSans-20" transform="translate(160.791016 0)"/>
      <use xlink:href="#DejaVuSans-70" transform="translate(192.578125 0)"/>
      <use xlink:href="#DejaVuSans-72" transform="translate(256.054688 0)"/>
      <use xlink:href="#DejaVuSans-65" transform="translate(294.917969 0)"/>
      <use xlink:href="#DejaVuSans-64" transform="translate(356.441406 0)"/>
      <use xlink:href="#DejaVuSans-69" transform="translate(419.917969 0)"/>
      <use xlink:href="#DejaVuSans-63" transform="translate(447.701172 0)"/>
      <use xlink:href="#DejaVuSans-74" transform="translate(502.681641 0)"/>
      <use xlink:href="#DejaVuSans-65" transform="translate(541.890625 0)"/>
      <use xlink:href="#DejaVuSans-64" transform="translate(603.414062 0)"/>
      <use xlink:href="#DejaVuSans-20" transform="translate(666.890625 0)"/>
      <use xlink:href="#DejaVuSans-72" transform="translate(698.677734 0)"/>
      <use xlink:href="#DejaVuSans-65" transform="translate(737.541016 0)"/>
      <use xlink:href="#DejaVuSans-73" transform="translate(799.064453 0)"/>
      <use xlink:href="#DejaVuSans-70" transform="translate(851.164062 0)"/>
      <use xlink:href="#DejaVuSans-6f" transform="translate(914.640625 0)"/>
      <use xlink:href="#DejaVuSans-6e" transform="translate(975.822266 0)"/>
      <use xlink:href="#DejaVuSans-73" transform="translate(1039.201172 0)"/>
      <use xlink:href="#DejaVuSans-65" transform="translate(1091.300781 0)"/>
      <use xlink:href="#DejaVuSans-20" transform="translate(1152.824219 0)"/>
      <use xlink:href="#DejaVuSans-77" transform="translate(1184.611328 0)"/>
      <use xlink:href="#DejaVuSans-69" transform="translate(1266.398438 0)"/>
      <use xlink:href="#DejaVuSans-74" transform="translate(1294.181641 0)"/>
      <use xlink:href="#DejaVuSans-68" transform="translate(1333.390625 0)"/>
      <use xlink:href="#DejaVuSans-20" transform="translate(1396.769531 0)"/>
      <use xlink:href="#DejaVuSans-63" transform="translate(1428.556641 0)"/>
      <use xlink:href="#DejaVuSans-61" transform="translate(1483.537109 0)"/>
      <use xlink:href="#DejaVuSans-70" transform="translate(1544.816406 0)"/>
      <use xlink:href="#DejaVuSans-70" transform="translate(1608.292969 0)"/>
      <use xlink:href="#DejaVuSans-65" transform="translate(1671.769531 0)"/>
      <use xlink:href="#DejaVuSans-64" transform="translate(1733.292969 0)"/>
      <use xlink:href="#DejaVuSans-20" transform="translate(1796.769531 0)"/>
      <use xlink:href="#DejaVuSans-61" transform="translate(1828.556641 0)"/>
      <use xlink:href="#DejaVuSans-63" transform="translate(1889.835938 0)"/>
      <use xlink:href="#DejaVuSans-74" transform="translate(1944.816406 0)"/>
      <use xlink:href="#DejaVuSans-69" transform="translate(1984.025391 0)"/>
      <use xlink:href="#DejaVuSans-6f" transform="translate(2011.808594 0)"/>
      <use xlink:href="#DejaVuSans-6e" transform="translate(2072.990234 0)"/>
     </g>
    </g>
   </g>
   <g id="line2d_25">
    <path d="M 46.914219 459.63325
L 466.698219 39.84925
" clip-path="url(#pc88033a2b5)" style="fill: none; stroke-dasharray: 1.2,1.98; stroke-dashoffset: 0; stroke: #464c55; stroke-width: 1.2"/>
   </g>
   <g id="patch_4">
    <path d="M 46.914219 459.63325
L 46.914219 39.84925
" style="fill: none; stroke: #d7dbe7; stroke-width: 0.8; stroke-linejoin: miter; stroke-linecap: square"/>
   </g>
   <g id="patch_5">
    <path d="M 46.914219 459.63325
L 466.698219 459.63325
" style="fill: none; stroke: #d7dbe7; stroke-width: 0.8; stroke-linejoin: miter; stroke-linecap: square"/>
   </g>
   <g id="line2d_26">
    <path d="M 304.008603 459.63325
L 304.008603 39.84925
" clip-path="url(#pc88033a2b5)" style="fill: none; stroke-dasharray: 4.07,1.76; stroke-dashoffset: 0; stroke: #736422; stroke-width: 1.1"/>
   </g>
   <g id="line2d_27">
    <path d="M 46.914219 401.219584
L 407.731904 40.401899
L 407.731904 40.401899
" clip-path="url(#pc88033a2b5)" style="fill: none; stroke-dasharray: 4.07,1.76; stroke-dashoffset: 0; stroke: #386411; stroke-width: 1.1"/>
   </g>
   <g id="text_15">
    <!-- p1 = p0 -->
    <g style="fill: #464c55" transform="translate(93.247664 419.225464) scale(0.08 -0.08)">
     <defs>
      <path id="DejaVuSans-3d" d="M 678 2906
L 4684 2906
L 4684 2381
L 678 2381
L 678 2906
z
M 678 1631
L 4684 1631
L 4684 1100
L 678 1100
L 678 1631
z
" transform="scale(0.015625)"/>
     </defs>
     <use xlink:href="#DejaVuSans-70"/>
     <use xlink:href="#DejaVuSans-31" transform="translate(63.476562 0)"/>
     <use xlink:href="#DejaVuSans-20" transform="translate(127.099609 0)"/>
     <use xlink:href="#DejaVuSans-3d" transform="translate(158.886719 0)"/>
     <use xlink:href="#DejaVuSans-20" transform="translate(242.675781 0)"/>
     <use xlink:href="#DejaVuSans-70" transform="translate(274.462891 0)"/>
     <use xlink:href="#DejaVuSans-30" transform="translate(337.939453 0)"/>
    </g>
    <!-- no lift -->
    <g style="fill: #464c55" transform="translate(93.247664 428.183714) scale(0.08 -0.08)">
     <defs>
      <path id="DejaVuSans-6c" d="M 603 4863
L 1178 4863
L 1178 0
L 603 0
L 603 4863
z
" transform="scale(0.015625)"/>
      <path id="DejaVuSans-66" d="M 2375 4863
L 2375 4384
L 1825 4384
Q 1516 4384 1395 4259
Q 1275 4134 1275 3809
L 1275 3500
L 2222 3500
L 2222 3053
L 1275 3053
L 1275 0
L 697 0
L 697 3053
L 147 3053
L 147 3500
L 697 3500
L 697 3744
Q 697 4328 969 4595
Q 1241 4863 1831 4863
L 2375 4863
z
" transform="scale(0.015625)"/>
     </defs>
     <use xlink:href="#DejaVuSans-6e"/>
     <use xlink:href="#DejaVuSans-6f" transform="translate(63.378906 0)"/>
     <use xlink:href="#DejaVuSans-20" transform="translate(124.560547 0)"/>
     <use xlink:href="#DejaVuSans-6c" transform="translate(156.347656 0)"/>
     <use xlink:href="#DejaVuSans-69" transform="translate(184.130859 0)"/>
     <use xlink:href="#DejaVuSans-66" transform="translate(211.914062 0)"/>
     <use xlink:href="#DejaVuSans-74" transform="translate(245.369141 0)"/>
    </g>
   </g>
   <g id="patch_6">
    <path d="M 417.164836 153.958205
Q 427.848983 115.949256 416.975526 77.800248
" style="fill: none; stroke: #736422; stroke-linecap: round"/>
    <path d="M 416.231261 81.75576
L 416.975526 77.800248
L 419.693376 80.768967
" style="fill: none; stroke: #736422; stroke-linecap: round"/>
   </g>
   <g id="text_16">
    <!-- HCP0204 -->
    <g style="fill: #736422" transform="translate(387.795996 164.715734) scale(0.09 -0.09)">
     <defs>
      <path id="DejaVuSans-Bold-48" d="M 588 4666
L 1791 4666
L 1791 2888
L 3566 2888
L 3566 4666
L 4769 4666
L 4769 0
L 3566 0
L 3566 1978
L 1791 1978
L 1791 0
L 588 0
L 588 4666
z
" transform="scale(0.015625)"/>
      <path id="DejaVuSans-Bold-43" d="M 4288 256
Q 3956 84 3597 -3
Q 3238 -91 2847 -91
Q 1681 -91 1000 561
Q 319 1213 319 2328
Q 319 3447 1000 4098
Q 1681 4750 2847 4750
Q 3238 4750 3597 4662
Q 3956 4575 4288 4403
L 4288 3438
Q 3953 3666 3628 3772
Q 3303 3878 2944 3878
Q 2300 3878 1931 3465
Q 1563 3053 1563 2328
Q 1563 1606 1931 1193
Q 2300 781 2944 781
Q 3303 781 3628 887
Q 3953 994 4288 1222
L 4288 256
z
" transform="scale(0.015625)"/>
      <path id="DejaVuSans-Bold-50" d="M 588 4666
L 2584 4666
Q 3475 4666 3951 4270
Q 4428 3875 4428 3144
Q 4428 2409 3951 2014
Q 3475 1619 2584 1619
L 1791 1619
L 1791 0
L 588 0
L 588 4666
z
M 1791 3794
L 1791 2491
L 2456 2491
Q 2806 2491 2997 2661
Q 3188 2831 3188 3144
Q 3188 3456 2997 3625
Q 2806 3794 2456 3794
L 1791 3794
z
" transform="scale(0.015625)"/>
      <path id="DejaVuSans-Bold-30" d="M 2944 2338
Q 2944 3213 2780 3570
Q 2616 3928 2228 3928
Q 1841 3928 1675 3570
Q 1509 3213 1509 2338
Q 1509 1453 1675 1090
Q 1841 728 2228 728
Q 2613 728 2778 1090
Q 2944 1453 2944 2338
z
M 4147 2328
Q 4147 1169 3647 539
Q 3147 -91 2228 -91
Q 1306 -91 806 539
Q 306 1169 306 2328
Q 306 3491 806 4120
Q 1306 4750 2228 4750
Q 3147 4750 3647 4120
Q 4147 3491 4147 2328
z
" transform="scale(0.015625)"/>
      <path id="DejaVuSans-Bold-32" d="M 1844 884
L 3897 884
L 3897 0
L 506 0
L 506 884
L 2209 2388
Q 2438 2594 2547 2791
Q 2656 2988 2656 3200
Q 2656 3528 2436 3728
Q 2216 3928 1850 3928
Q 1569 3928 1234 3808
Q 900 3688 519 3450
L 519 4475
Q 925 4609 1322 4679
Q 1719 4750 2100 4750
Q 2938 4750 3402 4381
Q 3866 4013 3866 3353
Q 3866 2972 3669 2642
Q 3472 2313 2841 1759
L 1844 884
z
" transform="scale(0.015625)"/>
      <path id="DejaVuSans-Bold-34" d="M 2356 3675
L 1038 1722
L 2356 1722
L 2356 3675
z
M 2156 4666
L 3494 4666
L 3494 1722
L 4159 1722
L 4159 850
L 3494 850
L 3494 0
L 2356 0
L 2356 850
L 288 850
L 288 1881
L 2156 4666
z
" transform="scale(0.015625)"/>
     </defs>
     <use xlink:href="#DejaVuSans-Bold-48"/>
     <use xlink:href="#DejaVuSans-Bold-43" transform="translate(83.691406 0)"/>
     <use xlink:href="#DejaVuSans-Bold-50" transform="translate(157.080078 0)"/>
     <use xlink:href="#DejaVuSans-Bold-30" transform="translate(230.371094 0)"/>
     <use xlink:href="#DejaVuSans-Bold-32" transform="translate(299.951172 0)"/>
     <use xlink:href="#DejaVuSans-Bold-30" transform="translate(369.53125 0)"/>
     <use xlink:href="#DejaVuSans-Bold-34" transform="translate(439.111328 0)"/>
    </g>
    <!-- high p0 -->
    <g style="fill: #736422" transform="translate(387.795996 174.793765) scale(0.09 -0.09)">
     <defs>
      <path id="DejaVuSans-Bold-68" d="M 4056 2131
L 4056 0
L 2931 0
L 2931 347
L 2931 1625
Q 2931 2084 2911 2256
Q 2891 2428 2841 2509
Q 2775 2619 2662 2680
Q 2550 2741 2406 2741
Q 2056 2741 1856 2470
Q 1656 2200 1656 1722
L 1656 0
L 538 0
L 538 4863
L 1656 4863
L 1656 2988
Q 1909 3294 2193 3439
Q 2478 3584 2822 3584
Q 3428 3584 3742 3212
Q 4056 2841 4056 2131
z
" transform="scale(0.015625)"/>
      <path id="DejaVuSans-Bold-69" d="M 538 3500
L 1656 3500
L 1656 0
L 538 0
L 538 3500
z
M 538 4863
L 1656 4863
L 1656 3950
L 538 3950
L 538 4863
z
" transform="scale(0.015625)"/>
      <path id="DejaVuSans-Bold-67" d="M 2919 594
Q 2688 288 2409 144
Q 2131 0 1766 0
Q 1125 0 706 504
Q 288 1009 288 1791
Q 288 2575 706 3076
Q 1125 3578 1766 3578
Q 2131 3578 2409 3434
Q 2688 3291 2919 2981
L 2919 3500
L 4044 3500
L 4044 353
Q 4044 -491 3511 -936
Q 2978 -1381 1966 -1381
Q 1638 -1381 1331 -1331
Q 1025 -1281 716 -1178
L 716 -306
Q 1009 -475 1290 -558
Q 1572 -641 1856 -641
Q 2406 -641 2662 -400
Q 2919 -159 2919 353
L 2919 594
z
M 2181 2772
Q 1834 2772 1640 2515
Q 1447 2259 1447 1791
Q 1447 1309 1634 1061
Q 1822 813 2181 813
Q 2531 813 2725 1069
Q 2919 1325 2919 1791
Q 2919 2259 2725 2515
Q 2531 2772 2181 2772
z
" transform="scale(0.015625)"/>
      <path id="DejaVuSans-Bold-20" transform="scale(0.015625)"/>
      <path id="DejaVuSans-Bold-70" d="M 1656 506
L 1656 -1331
L 538 -1331
L 538 3500
L 1656 3500
L 1656 2988
Q 1888 3294 2169 3439
Q 2450 3584 2816 3584
Q 3463 3584 3878 3070
Q 4294 2556 4294 1747
Q 4294 938 3878 423
Q 3463 -91 2816 -91
Q 2450 -91 2169 54
Q 1888 200 1656 506
z
M 2400 2772
Q 2041 2772 1848 2508
Q 1656 2244 1656 1747
Q 1656 1250 1848 986
Q 2041 722 2400 722
Q 2759 722 2948 984
Q 3138 1247 3138 1747
Q 3138 2247 2948 2509
Q 2759 2772 2400 2772
z
" transform="scale(0.015625)"/>
     </defs>
     <use xlink:href="#DejaVuSans-Bold-68"/>
     <use xlink:href="#DejaVuSans-Bold-69" transform="translate(71.191406 0)"/>
     <use xlink:href="#DejaVuSans-Bold-67" transform="translate(105.46875 0)"/>
     <use xlink:href="#DejaVuSans-Bold-68" transform="translate(177.050781 0)"/>
     <use xlink:href="#DejaVuSans-Bold-20" transform="translate(248.242188 0)"/>
     <use xlink:href="#DejaVuSans-Bold-70" transform="translate(283.056641 0)"/>
     <use xlink:href="#DejaVuSans-Bold-30" transform="translate(354.638672 0)"/>
    </g>
    <!-- low lift -->
    <g style="fill: #736422" transform="translate(387.795996 184.942109) scale(0.09 -0.09)">
     <defs>
      <path id="DejaVuSans-Bold-6c" d="M 538 4863
L 1656 4863
L 1656 0
L 538 0
L 538 4863
z
" transform="scale(0.015625)"/>
      <path id="DejaVuSans-Bold-6f" d="M 2203 2784
Q 1831 2784 1636 2517
Q 1441 2250 1441 1747
Q 1441 1244 1636 976
Q 1831 709 2203 709
Q 2569 709 2762 976
Q 2956 1244 2956 1747
Q 2956 2250 2762 2517
Q 2569 2784 2203 2784
z
M 2203 3584
Q 3106 3584 3614 3096
Q 4122 2609 4122 1747
Q 4122 884 3614 396
Q 3106 -91 2203 -91
Q 1297 -91 786 396
Q 275 884 275 1747
Q 275 2609 786 3096
Q 1297 3584 2203 3584
z
" transform="scale(0.015625)"/>
      <path id="DejaVuSans-Bold-77" d="M 225 3500
L 1313 3500
L 1900 1088
L 2491 3500
L 3425 3500
L 4013 1113
L 4603 3500
L 5691 3500
L 4769 0
L 3547 0
L 2956 2406
L 2369 0
L 1147 0
L 225 3500
z
" transform="scale(0.015625)"/>
      <path id="DejaVuSans-Bold-66" d="M 2841 4863
L 2841 4128
L 2222 4128
Q 1984 4128 1890 4042
Q 1797 3956 1797 3744
L 1797 3500
L 2753 3500
L 2753 2700
L 1797 2700
L 1797 0
L 678 0
L 678 2700
L 122 2700
L 122 3500
L 678 3500
L 678 3744
Q 678 4316 997 4589
Q 1316 4863 1984 4863
L 2841 4863
z
" transform="scale(0.015625)"/>
      <path id="DejaVuSans-Bold-74" d="M 1759 4494
L 1759 3500
L 2913 3500
L 2913 2700
L 1759 2700
L 1759 1216
Q 1759 972 1856 886
Q 1953 800 2241 800
L 2816 800
L 2816 0
L 1856 0
Q 1194 0 917 276
Q 641 553 641 1216
L 641 2700
L 84 2700
L 84 3500
L 641 3500
L 641 4494
L 1759 4494
z
" transform="scale(0.015625)"/>
     </defs>
     <use xlink:href="#DejaVuSans-Bold-6c"/>
     <use xlink:href="#DejaVuSans-Bold-6f" transform="translate(34.277344 0)"/>
     <use xlink:href="#DejaVuSans-Bold-77" transform="translate(102.978516 0)"/>
     <use xlink:href="#DejaVuSans-Bold-20" transform="translate(195.361328 0)"/>
     <use xlink:href="#DejaVuSans-Bold-6c" transform="translate(230.175781 0)"/>
     <use xlink:href="#DejaVuSans-Bold-69" transform="translate(264.453125 0)"/>
     <use xlink:href="#DejaVuSans-Bold-66" transform="translate(298.730469 0)"/>
     <use xlink:href="#DejaVuSans-Bold-74" transform="translate(342.236328 0)"/>
    </g>
   </g>
   <g id="patch_7">
    <path d="M 167.289553 170.960647
Q 165.23111 240.553951 119.889379 294.2699
" style="fill: none; stroke: #386411; stroke-linecap: round"/>
    <path d="M 123.586966 292.679978
L 119.889379 294.2699
L 120.835994 290.357878
" style="fill: none; stroke: #386411; stroke-linecap: round"/>
   </g>
   <g id="text_17">
    <!-- HCP0280 -->
    <g style="fill: #386411" transform="translate(123.033451 144.928855) scale(0.09 -0.09)">
     <defs>
      <path id="DejaVuSans-Bold-38" d="M 2228 2088
Q 1891 2088 1709 1903
Q 1528 1719 1528 1375
Q 1528 1031 1709 848
Q 1891 666 2228 666
Q 2563 666 2741 848
Q 2919 1031 2919 1375
Q 2919 1722 2741 1905
Q 2563 2088 2228 2088
z
M 1350 2484
Q 925 2613 709 2878
Q 494 3144 494 3541
Q 494 4131 934 4440
Q 1375 4750 2228 4750
Q 3075 4750 3515 4442
Q 3956 4134 3956 3541
Q 3956 3144 3739 2878
Q 3522 2613 3097 2484
Q 3572 2353 3814 2058
Q 4056 1763 4056 1313
Q 4056 619 3595 264
Q 3134 -91 2228 -91
Q 1319 -91 855 264
Q 391 619 391 1313
Q 391 1763 633 2058
Q 875 2353 1350 2484
z
M 1631 3419
Q 1631 3141 1786 2991
Q 1941 2841 2228 2841
Q 2509 2841 2662 2991
Q 2816 3141 2816 3419
Q 2816 3697 2662 3845
Q 2509 3994 2228 3994
Q 1941 3994 1786 3844
Q 1631 3694 1631 3419
z
" transform="scale(0.015625)"/>
     </defs>
     <use xlink:href="#DejaVuSans-Bold-48"/>
     <use xlink:href="#DejaVuSans-Bold-43" transform="translate(83.691406 0)"/>
     <use xlink:href="#DejaVuSans-Bold-50" transform="translate(157.080078 0)"/>
     <use xlink:href="#DejaVuSans-Bold-30" transform="translate(230.371094 0)"/>
     <use xlink:href="#DejaVuSans-Bold-32" transform="translate(299.951172 0)"/>
     <use xlink:href="#DejaVuSans-Bold-38" transform="translate(369.53125 0)"/>
     <use xlink:href="#DejaVuSans-Bold-30" transform="translate(439.111328 0)"/>
    </g>
    <!-- top uplift -->
    <g style="fill: #386411" transform="translate(123.033451 155.006887) scale(0.09 -0.09)">
     <defs>
      <path id="DejaVuSans-Bold-75" d="M 500 1363
L 500 3500
L 1625 3500
L 1625 3150
Q 1625 2866 1622 2436
Q 1619 2006 1619 1863
Q 1619 1441 1641 1255
Q 1663 1069 1716 984
Q 1784 875 1895 815
Q 2006 756 2150 756
Q 2500 756 2700 1025
Q 2900 1294 2900 1772
L 2900 3500
L 4019 3500
L 4019 0
L 2900 0
L 2900 506
Q 2647 200 2364 54
Q 2081 -91 1741 -91
Q 1134 -91 817 281
Q 500 653 500 1363
z
" transform="scale(0.015625)"/>
     </defs>
     <use xlink:href="#DejaVuSans-Bold-74"/>
     <use xlink:href="#DejaVuSans-Bold-6f" transform="translate(47.802734 0)"/>
     <use xlink:href="#DejaVuSans-Bold-70" transform="translate(116.503906 0)"/>
     <use xlink:href="#DejaVuSans-Bold-20" transform="translate(188.085938 0)"/>
     <use xlink:href="#DejaVuSans-Bold-75" transform="translate(222.900391 0)"/>
     <use xlink:href="#DejaVuSans-Bold-70" transform="translate(294.091797 0)"/>
     <use xlink:href="#DejaVuSans-Bold-6c" transform="translate(365.673828 0)"/>
     <use xlink:href="#DejaVuSans-Bold-69" transform="translate(399.951172 0)"/>
     <use xlink:href="#DejaVuSans-Bold-66" transform="translate(434.228516 0)"/>
     <use xlink:href="#DejaVuSans-Bold-74" transform="translate(477.734375 0)"/>
    </g>
    <!-- response rank 46 -->
    <g style="fill: #386411" transform="translate(123.033451 165.084918) scale(0.09 -0.09)">
     <defs>
      <path id="DejaVuSans-Bold-72" d="M 3138 2547
Q 2991 2616 2845 2648
Q 2700 2681 2553 2681
Q 2122 2681 1889 2404
Q 1656 2128 1656 1613
L 1656 0
L 538 0
L 538 3500
L 1656 3500
L 1656 2925
Q 1872 3269 2151 3426
Q 2431 3584 2822 3584
Q 2878 3584 2943 3579
Q 3009 3575 3134 3559
L 3138 2547
z
" transform="scale(0.015625)"/>
      <path id="DejaVuSans-Bold-65" d="M 4031 1759
L 4031 1441
L 1416 1441
Q 1456 1047 1700 850
Q 1944 653 2381 653
Q 2734 653 3104 758
Q 3475 863 3866 1075
L 3866 213
Q 3469 63 3072 -14
Q 2675 -91 2278 -91
Q 1328 -91 801 392
Q 275 875 275 1747
Q 275 2603 792 3093
Q 1309 3584 2216 3584
Q 3041 3584 3536 3087
Q 4031 2591 4031 1759
z
M 2881 2131
Q 2881 2450 2695 2645
Q 2509 2841 2209 2841
Q 1884 2841 1681 2658
Q 1478 2475 1428 2131
L 2881 2131
z
" transform="scale(0.015625)"/>
      <path id="DejaVuSans-Bold-73" d="M 3272 3391
L 3272 2541
Q 2913 2691 2578 2766
Q 2244 2841 1947 2841
Q 1628 2841 1473 2761
Q 1319 2681 1319 2516
Q 1319 2381 1436 2309
Q 1553 2238 1856 2203
L 2053 2175
Q 2913 2066 3209 1816
Q 3506 1566 3506 1031
Q 3506 472 3093 190
Q 2681 -91 1863 -91
Q 1516 -91 1145 -36
Q 775 19 384 128
L 384 978
Q 719 816 1070 734
Q 1422 653 1784 653
Q 2113 653 2278 743
Q 2444 834 2444 1013
Q 2444 1163 2330 1236
Q 2216 1309 1875 1350
L 1678 1375
Q 931 1469 631 1722
Q 331 1975 331 2491
Q 331 3047 712 3315
Q 1094 3584 1881 3584
Q 2191 3584 2531 3537
Q 2872 3491 3272 3391
z
" transform="scale(0.015625)"/>
      <path id="DejaVuSans-Bold-6e" d="M 4056 2131
L 4056 0
L 2931 0
L 2931 347
L 2931 1631
Q 2931 2084 2911 2256
Q 2891 2428 2841 2509
Q 2775 2619 2662 2680
Q 2550 2741 2406 2741
Q 2056 2741 1856 2470
Q 1656 2200 1656 1722
L 1656 0
L 538 0
L 538 3500
L 1656 3500
L 1656 2988
Q 1909 3294 2193 3439
Q 2478 3584 2822 3584
Q 3428 3584 3742 3212
Q 4056 2841 4056 2131
z
" transform="scale(0.015625)"/>
      <path id="DejaVuSans-Bold-61" d="M 2106 1575
Q 1756 1575 1579 1456
Q 1403 1338 1403 1106
Q 1403 894 1545 773
Q 1688 653 1941 653
Q 2256 653 2472 879
Q 2688 1106 2688 1447
L 2688 1575
L 2106 1575
z
M 3816 1997
L 3816 0
L 2688 0
L 2688 519
Q 2463 200 2181 54
Q 1900 -91 1497 -91
Q 953 -91 614 226
Q 275 544 275 1050
Q 275 1666 698 1953
Q 1122 2241 2028 2241
L 2688 2241
L 2688 2328
Q 2688 2594 2478 2717
Q 2269 2841 1825 2841
Q 1466 2841 1156 2769
Q 847 2697 581 2553
L 581 3406
Q 941 3494 1303 3539
Q 1666 3584 2028 3584
Q 2975 3584 3395 3211
Q 3816 2838 3816 1997
z
" transform="scale(0.015625)"/>
      <path id="DejaVuSans-Bold-6b" d="M 538 4863
L 1656 4863
L 1656 2216
L 2944 3500
L 4244 3500
L 2534 1894
L 4378 0
L 3022 0
L 1656 1459
L 1656 0
L 538 0
L 538 4863
z
" transform="scale(0.015625)"/>
      <path id="DejaVuSans-Bold-36" d="M 2316 2303
Q 2000 2303 1842 2098
Q 1684 1894 1684 1484
Q 1684 1075 1842 870
Q 2000 666 2316 666
Q 2634 666 2792 870
Q 2950 1075 2950 1484
Q 2950 1894 2792 2098
Q 2634 2303 2316 2303
z
M 3803 4544
L 3803 3681
Q 3506 3822 3243 3889
Q 2981 3956 2731 3956
Q 2194 3956 1894 3657
Q 1594 3359 1544 2772
Q 1750 2925 1990 3001
Q 2231 3078 2516 3078
Q 3231 3078 3670 2659
Q 4109 2241 4109 1563
Q 4109 813 3618 361
Q 3128 -91 2303 -91
Q 1394 -91 895 523
Q 397 1138 397 2266
Q 397 3422 980 4083
Q 1563 4744 2578 4744
Q 2900 4744 3203 4694
Q 3506 4644 3803 4544
z
" transform="scale(0.015625)"/>
     </defs>
     <use xlink:href="#DejaVuSans-Bold-72"/>
     <use xlink:href="#DejaVuSans-Bold-65" transform="translate(49.316406 0)"/>
     <use xlink:href="#DejaVuSans-Bold-73" transform="translate(117.138672 0)"/>
     <use xlink:href="#DejaVuSans-Bold-70" transform="translate(176.660156 0)"/>
     <use xlink:href="#DejaVuSans-Bold-6f" transform="translate(248.242188 0)"/>
     <use xlink:href="#DejaVuSans-Bold-6e" transform="translate(316.943359 0)"/>
     <use xlink:href="#DejaVuSans-Bold-73" transform="translate(388.134766 0)"/>
     <use xlink:href="#DejaVuSans-Bold-65" transform="translate(447.65625 0)"/>
     <use xlink:href="#DejaVuSans-Bold-20" transform="translate(515.478516 0)"/>
     <use xlink:href="#DejaVuSans-Bold-72" transform="translate(550.292969 0)"/>
     <use xlink:href="#DejaVuSans-Bold-61" transform="translate(599.609375 0)"/>
     <use xlink:href="#DejaVuSans-Bold-6e" transform="translate(667.089844 0)"/>
     <use xlink:href="#DejaVuSans-Bold-6b" transform="translate(738.28125 0)"/>
     <use xlink:href="#DejaVuSans-Bold-20" transform="translate(804.785156 0)"/>
     <use xlink:href="#DejaVuSans-Bold-34" transform="translate(839.599609 0)"/>
     <use xlink:href="#DejaVuSans-Bold-36" transform="translate(909.179688 0)"/>
    </g>
   </g>
   <g id="text_18">
    <!-- Response ranking selects likely responders; -->
    <g transform="translate(107.642469 16.318125) scale(0.12 -0.12)">
     <defs>
      <path id="DejaVuSans-Bold-52" d="M 2297 2597
Q 2675 2597 2839 2737
Q 3003 2878 3003 3200
Q 3003 3519 2839 3656
Q 2675 3794 2297 3794
L 1791 3794
L 1791 2597
L 2297 2597
z
M 1791 1766
L 1791 0
L 588 0
L 588 4666
L 2425 4666
Q 3347 4666 3776 4356
Q 4206 4047 4206 3378
Q 4206 2916 3982 2619
Q 3759 2322 3309 2181
Q 3556 2125 3751 1926
Q 3947 1728 4147 1325
L 4800 0
L 3519 0
L 2950 1159
Q 2778 1509 2601 1637
Q 2425 1766 2131 1766
L 1791 1766
z
" transform="scale(0.015625)"/>
      <path id="DejaVuSans-Bold-63" d="M 3366 3391
L 3366 2478
Q 3138 2634 2908 2709
Q 2678 2784 2431 2784
Q 1963 2784 1702 2511
Q 1441 2238 1441 1747
Q 1441 1256 1702 982
Q 1963 709 2431 709
Q 2694 709 2930 787
Q 3166 866 3366 1019
L 3366 103
Q 3103 6 2833 -42
Q 2563 -91 2291 -91
Q 1344 -91 809 395
Q 275 881 275 1747
Q 275 2613 809 3098
Q 1344 3584 2291 3584
Q 2566 3584 2833 3536
Q 3100 3488 3366 3391
z
" transform="scale(0.015625)"/>
      <path id="DejaVuSans-Bold-79" d="M 78 3500
L 1197 3500
L 2138 1125
L 2938 3500
L 4056 3500
L 2584 -331
Q 2363 -916 2067 -1148
Q 1772 -1381 1288 -1381
L 641 -1381
L 641 -647
L 991 -647
Q 1275 -647 1404 -556
Q 1534 -466 1606 -231
L 1638 -134
L 78 3500
z
" transform="scale(0.015625)"/>
      <path id="DejaVuSans-Bold-64" d="M 2919 2988
L 2919 4863
L 4044 4863
L 4044 0
L 2919 0
L 2919 506
Q 2688 197 2409 53
Q 2131 -91 1766 -91
Q 1119 -91 703 423
Q 288 938 288 1747
Q 288 2556 703 3070
Q 1119 3584 1766 3584
Q 2128 3584 2408 3439
Q 2688 3294 2919 2988
z
M 2181 722
Q 2541 722 2730 984
Q 2919 1247 2919 1747
Q 2919 2247 2730 2509
Q 2541 2772 2181 2772
Q 1825 2772 1636 2509
Q 1447 2247 1447 1747
Q 1447 1247 1636 984
Q 1825 722 2181 722
z
" transform="scale(0.015625)"/>
      <path id="DejaVuSans-Bold-3b" d="M 716 1209
L 1844 1209
L 1844 256
L 1069 -909
L 403 -909
L 716 256
L 716 1209
z
M 716 3500
L 1844 3500
L 1844 2291
L 716 2291
L 716 3500
z
" transform="scale(0.015625)"/>
     </defs>
     <use xlink:href="#DejaVuSans-Bold-52"/>
     <use xlink:href="#DejaVuSans-Bold-65" transform="translate(77.001953 0)"/>
     <use xlink:href="#DejaVuSans-Bold-73" transform="translate(144.824219 0)"/>
     <use xlink:href="#DejaVuSans-Bold-70" transform="translate(204.345703 0)"/>
     <use xlink:href="#DejaVuSans-Bold-6f" transform="translate(275.927734 0)"/>
     <use xlink:href="#DejaVuSans-Bold-6e" transform="translate(344.628906 0)"/>
     <use xlink:href="#DejaVuSans-Bold-73" transform="translate(415.820312 0)"/>
     <use xlink:href="#DejaVuSans-Bold-65" transform="translate(475.341797 0)"/>
     <use xlink:href="#DejaVuSans-Bold-20" transform="translate(543.164062 0)"/>
     <use xlink:href="#DejaVuSans-Bold-72" transform="translate(577.978516 0)"/>
     <use xlink:href="#DejaVuSans-Bold-61" transform="translate(627.294922 0)"/>
     <use xlink:href="#DejaVuSans-Bold-6e" transform="translate(694.775391 0)"/>
     <use xlink:href="#DejaVuSans-Bold-6b" transform="translate(765.966797 0)"/>
     <use xlink:href="#DejaVuSans-Bold-69" transform="translate(832.470703 0)"/>
     <use xlink:href="#DejaVuSans-Bold-6e" transform="translate(866.748047 0)"/>
     <use xlink:href="#DejaVuSans-Bold-67" transform="translate(937.939453 0)"/>
     <use xlink:href="#DejaVuSans-Bold-20" transform="translate(1009.521484 0)"/>
     <use xlink:href="#DejaVuSans-Bold-73" transform="translate(1044.335938 0)"/>
     <use xlink:href="#DejaVuSans-Bold-65" transform="translate(1103.857422 0)"/>
     <use xlink:href="#DejaVuSans-Bold-6c" transform="translate(1171.679688 0)"/>
     <use xlink:href="#DejaVuSans-Bold-65" transform="translate(1205.957031 0)"/>
     <use xlink:href="#DejaVuSans-Bold-63" transform="translate(1273.779297 0)"/>
     <use xlink:href="#DejaVuSans-Bold-74" transform="translate(1333.056641 0)"/>
     <use xlink:href="#DejaVuSans-Bold-73" transform="translate(1380.859375 0)"/>
     <use xlink:href="#DejaVuSans-Bold-20" transform="translate(1440.380859 0)"/>
     <use xlink:href="#DejaVuSans-Bold-6c" transform="translate(1475.195312 0)"/>
     <use xlink:href="#DejaVuSans-Bold-69" transform="translate(1509.472656 0)"/>
     <use xlink:href="#DejaVuSans-Bold-6b" transform="translate(1543.75 0)"/>
     <use xlink:href="#DejaVuSans-Bold-65" transform="translate(1607.628906 0)"/>
     <use xlink:href="#DejaVuSans-Bold-6c" transform="translate(1675.451172 0)"/>
     <use xlink:href="#DejaVuSans-Bold-79" transform="translate(1709.728516 0)"/>
     <use xlink:href="#DejaVuSans-Bold-20" transform="translate(1774.914062 0)"/>
     <use xlink:href="#DejaVuSans-Bold-72" transform="translate(1809.728516 0)"/>
     <use xlink:href="#DejaVuSans-Bold-65" transform="translate(1859.044922 0)"/>
     <use xlink:href="#DejaVuSans-Bold-73" transform="translate(1926.867188 0)"/>
     <use xlink:href="#DejaVuSans-Bold-70" transform="translate(1986.388672 0)"/>
     <use xlink:href="#DejaVuSans-Bold-6f" transform="translate(2057.970703 0)"/>
     <use xlink:href="#DejaVuSans-Bold-6e" transform="translate(2126.671875 0)"/>
     <use xlink:href="#DejaVuSans-Bold-64" transform="translate(2197.863281 0)"/>
     <use xlink:href="#DejaVuSans-Bold-65" transform="translate(2269.445312 0)"/>
     <use xlink:href="#DejaVuSans-Bold-72" transform="translate(2337.267578 0)"/>
     <use xlink:href="#DejaVuSans-Bold-73" transform="translate(2386.583984 0)"/>
     <use xlink:href="#DejaVuSans-Bold-3b" transform="translate(2446.105469 0)"/>
    </g>
    <!-- uplift ranking selects persuadables -->
    <g transform="translate(137.177469 29.84925) scale(0.12 -0.12)">
     <defs>
      <path id="DejaVuSans-Bold-62" d="M 2400 722
Q 2759 722 2948 984
Q 3138 1247 3138 1747
Q 3138 2247 2948 2509
Q 2759 2772 2400 2772
Q 2041 2772 1848 2508
Q 1656 2244 1656 1747
Q 1656 1250 1848 986
Q 2041 722 2400 722
z
M 1656 2988
Q 1888 3294 2169 3439
Q 2450 3584 2816 3584
Q 3463 3584 3878 3070
Q 4294 2556 4294 1747
Q 4294 938 3878 423
Q 3463 -91 2816 -91
Q 2450 -91 2169 54
Q 1888 200 1656 506
L 1656 0
L 538 0
L 538 4863
L 1656 4863
L 1656 2988
z
" transform="scale(0.015625)"/>
     </defs>
     <use xlink:href="#DejaVuSans-Bold-75"/>
     <use xlink:href="#DejaVuSans-Bold-70" transform="translate(71.191406 0)"/>
     <use xlink:href="#DejaVuSans-Bold-6c" transform="translate(142.773438 0)"/>
     <use xlink:href="#DejaVuSans-Bold-69" transform="translate(177.050781 0)"/>
     <use xlink:href="#DejaVuSans-Bold-66" transform="translate(211.328125 0)"/>
     <use xlink:href="#DejaVuSans-Bold-74" transform="translate(254.833984 0)"/>
     <use xlink:href="#DejaVuSans-Bold-20" transform="translate(302.636719 0)"/>
     <use xlink:href="#DejaVuSans-Bold-72" transform="translate(337.451172 0)"/>
     <use xlink:href="#DejaVuSans-Bold-61" transform="translate(386.767578 0)"/>
     <use xlink:href="#DejaVuSans-Bold-6e" transform="translate(454.248047 0)"/>
     <use xlink:href="#DejaVuSans-Bold-6b" transform="translate(525.439453 0)"/>
     <use xlink:href="#DejaVuSans-Bold-69" transform="translate(591.943359 0)"/>
     <use xlink:href="#DejaVuSans-Bold-6e" transform="translate(626.220703 0)"/>
     <use xlink:href="#DejaVuSans-Bold-67" transform="translate(697.412109 0)"/>
     <use xlink:href="#DejaVuSans-Bold-20" transform="translate(768.994141 0)"/>
     <use xlink:href="#DejaVuSans-Bold-73" transform="translate(803.808594 0)"/>
     <use xlink:href="#DejaVuSans-Bold-65" transform="translate(863.330078 0)"/>
     <use xlink:href="#DejaVuSans-Bold-6c" transform="translate(931.152344 0)"/>
     <use xlink:href="#DejaVuSans-Bold-65" transform="translate(965.429688 0)"/>
     <use xlink:href="#DejaVuSans-Bold-63" transform="translate(1033.251953 0)"/>
     <use xlink:href="#DejaVuSans-Bold-74" transform="translate(1092.529297 0)"/>
     <use xlink:href="#DejaVuSans-Bold-73" transform="translate(1140.332031 0)"/>
     <use xlink:href="#DejaVuSans-Bold-20" transform="translate(1199.853516 0)"/>
     <use xlink:href="#DejaVuSans-Bold-70" transform="translate(1234.667969 0)"/>
     <use xlink:href="#DejaVuSans-Bold-65" transform="translate(1306.25 0)"/>
     <use xlink:href="#DejaVuSans-Bold-72" transform="translate(1374.072266 0)"/>
     <use xlink:href="#DejaVuSans-Bold-73" transform="translate(1423.388672 0)"/>
     <use xlink:href="#DejaVuSans-Bold-75" transform="translate(1482.910156 0)"/>
     <use xlink:href="#DejaVuSans-Bold-61" transform="translate(1554.101562 0)"/>
     <use xlink:href="#DejaVuSans-Bold-64" transform="translate(1621.582031 0)"/>
     <use xlink:href="#DejaVuSans-Bold-61" transform="translate(1693.164062 0)"/>
     <use xlink:href="#DejaVuSans-Bold-62" transform="translate(1760.644531 0)"/>
     <use xlink:href="#DejaVuSans-Bold-6c" transform="translate(1832.226562 0)"/>
     <use xlink:href="#DejaVuSans-Bold-65" transform="translate(1866.503906 0)"/>
     <use xlink:href="#DejaVuSans-Bold-73" transform="translate(1934.326172 0)"/>
    </g>
   </g>
   <g id="PathCollection_1">
    <defs>
     <path id="m6d435fa282" d="M 0 2.915476
C 0.773193 2.915476 1.514823 2.608283 2.061553 2.061553
C 2.608283 1.514823 2.915476 0.773193 2.915476 0
C 2.915476 -0.773193 2.608283 -1.514823 2.061553 -2.061553
C 1.514823 -2.608283 0.773193 -2.915476 0 -2.915476
C -0.773193 -2.915476 -1.514823 -2.608283 -2.061553 -2.061553
C -2.608283 -1.514823 -2.915476 -0.773193 -2.915476 0
C -2.915476 0.773193 -2.608283 1.514823 -2.061553 2.061553
C -1.514823 2.608283 -0.773193 2.915476 0 2.915476
z
" style="stroke: #464c55; stroke-opacity: 0.95; stroke-width: 0.55"/>
    </defs>
    <g clip-path="url(#pc88033a2b5)">
     <use xlink:href="#m6d435fa282" x="295.931993" y="161.116667" style="fill: #e2e5ea; fill-opacity: 0.95; stroke: #464c55; stroke-opacity: 0.95; stroke-width: 0.55"/>
     <use xlink:href="#m6d435fa282" x="303.961274" y="161.804977" style="fill: #e2e5ea; fill-opacity: 0.95; stroke: #464c55; stroke-opacity: 0.95; stroke-width: 0.55"/>
     <use xlink:href="#m6d435fa282" x="297.931204" y="162.993392" style="fill: #e2e5ea; fill-opacity: 0.95; stroke: #464c55; stroke-opacity: 0.95; stroke-width: 0.55"/>
     <use xlink:href="#m6d435fa282" x="281.69193" y="173.282586" style="fill: #e2e5ea; fill-opacity: 0.95; stroke: #464c55; stroke-opacity: 0.95; stroke-width: 0.55"/>
     <use xlink:href="#m6d435fa282" x="280.905566" y="175.011204" style="fill: #e2e5ea; fill-opacity: 0.95; stroke: #464c55; stroke-opacity: 0.95; stroke-width: 0.55"/>
     <use xlink:href="#m6d435fa282" x="298.722358" y="176.215092" style="fill: #e2e5ea; fill-opacity: 0.95; stroke: #464c55; stroke-opacity: 0.95; stroke-width: 0.55"/>
     <use xlink:href="#m6d435fa282" x="291.289486" y="187.981722" style="fill: #e2e5ea; fill-opacity: 0.95; stroke: #464c55; stroke-opacity: 0.95; stroke-width: 0.55"/>
     <use xlink:href="#m6d435fa282" x="267.224551" y="200.007089" style="fill: #e2e5ea; fill-opacity: 0.95; stroke: #464c55; stroke-opacity: 0.95; stroke-width: 0.55"/>
     <use xlink:href="#m6d435fa282" x="249.412316" y="209.755537" style="fill: #e2e5ea; fill-opacity: 0.95; stroke: #464c55; stroke-opacity: 0.95; stroke-width: 0.55"/>
     <use xlink:href="#m6d435fa282" x="234.04753" y="217.467329" style="fill: #e2e5ea; fill-opacity: 0.95; stroke: #464c55; stroke-opacity: 0.95; stroke-width: 0.55"/>
     <use xlink:href="#m6d435fa282" x="224.591905" y="223.733229" style="fill: #e2e5ea; fill-opacity: 0.95; stroke: #464c55; stroke-opacity: 0.95; stroke-width: 0.55"/>
    </g>
   </g>
   <g id="PathCollection_2">
    <defs>
     <path id="m217b5c4226" d="M 0 3.937004
C 1.044106 3.937004 2.045588 3.522176 2.783882 2.783882
C 3.522176 2.045588 3.937004 1.044106 3.937004 0
C 3.937004 -1.044106 3.522176 -2.045588 2.783882 -2.783882
C 2.045588 -3.522176 1.044106 -3.937004 0 -3.937004
C -1.044106 -3.937004 -2.045588 -3.522176 -2.783882 -2.783882
C -3.522176 -2.045588 -3.937004 -1.044106 -3.937004 0
C -3.937004 1.044106 -3.522176 2.045588 -2.783882 2.783882
C -2.045588 3.522176 -1.044106 3.937004 0 3.937004
z
" style="stroke: #736422; stroke-width: 0.8"/>
    </defs>
    <g clip-path="url(#pc88033a2b5)">
     <use xlink:href="#m217b5c4226" x="414.249503" y="66.325505" style="fill: #ffe15b; stroke: #736422; stroke-width: 0.8"/>
     <use xlink:href="#m217b5c4226" x="409.21413" y="69.866356" style="fill: #ffe15b; stroke: #736422; stroke-width: 0.8"/>
     <use xlink:href="#m217b5c4226" x="416.108586" y="74.803873" style="fill: #ffe15b; stroke: #736422; stroke-width: 0.8"/>
     <use xlink:href="#m217b5c4226" x="405.391825" y="77.044299" style="fill: #ffe15b; stroke: #736422; stroke-width: 0.8"/>
     <use xlink:href="#m217b5c4226" x="378.244167" y="93.851222" style="fill: #ffe15b; stroke: #736422; stroke-width: 0.8"/>
     <use xlink:href="#m217b5c4226" x="375.430424" y="94.010927" style="fill: #ffe15b; stroke: #736422; stroke-width: 0.8"/>
     <use xlink:href="#m217b5c4226" x="353.998178" y="96.400941" style="fill: #ffe15b; stroke: #736422; stroke-width: 0.8"/>
     <use xlink:href="#m217b5c4226" x="391.389147" y="102.938556" style="fill: #ffe15b; stroke: #736422; stroke-width: 0.8"/>
     <use xlink:href="#m217b5c4226" x="350.737492" y="112.724975" style="fill: #ffe15b; stroke: #736422; stroke-width: 0.8"/>
     <use xlink:href="#m217b5c4226" x="358.885218" y="114.983341" style="fill: #ffe15b; stroke: #736422; stroke-width: 0.8"/>
     <use xlink:href="#m217b5c4226" x="353.177844" y="134.36564" style="fill: #ffe15b; stroke: #736422; stroke-width: 0.8"/>
     <use xlink:href="#m217b5c4226" x="327.626133" y="144.716868" style="fill: #ffe15b; stroke: #736422; stroke-width: 0.8"/>
     <use xlink:href="#m217b5c4226" x="304.465927" y="147.181029" style="fill: #ffe15b; stroke: #736422; stroke-width: 0.8"/>
     <use xlink:href="#m217b5c4226" x="333.398017" y="148.893641" style="fill: #ffe15b; stroke: #736422; stroke-width: 0.8"/>
     <use xlink:href="#m217b5c4226" x="313.925383" y="151.092448" style="fill: #ffe15b; stroke: #736422; stroke-width: 0.8"/>
     <use xlink:href="#m217b5c4226" x="304.008603" y="153.160901" style="fill: #ffe15b; stroke: #736422; stroke-width: 0.8"/>
     <use xlink:href="#m217b5c4226" x="304.288036" y="153.296362" style="fill: #ffe15b; stroke: #736422; stroke-width: 0.8"/>
     <use xlink:href="#m217b5c4226" x="323.191176" y="154.456809" style="fill: #ffe15b; stroke: #736422; stroke-width: 0.8"/>
     <use xlink:href="#m217b5c4226" x="305.74682" y="169.28749" style="fill: #ffe15b; stroke: #736422; stroke-width: 0.8"/>
     <use xlink:href="#m217b5c4226" x="307.120737" y="174.201978" style="fill: #ffe15b; stroke: #736422; stroke-width: 0.8"/>
    </g>
   </g>
   <g id="PathCollection_3">
    <defs>
     <path id="m8576484b37" d="M 0 3.937004
C 1.044106 3.937004 2.045588 3.522176 2.783882 2.783882
C 3.522176 2.045588 3.937004 1.044106 3.937004 0
C 3.937004 -1.044106 3.522176 -2.045588 2.783882 -2.783882
C 2.045588 -3.522176 1.044106 -3.937004 0 -3.937004
C -1.044106 -3.937004 -2.045588 -3.522176 -2.783882 -2.783882
C -3.522176 -2.045588 -3.937004 -1.044106 -3.937004 0
C -3.937004 1.044106 -3.522176 2.045588 -2.783882 2.783882
C -2.045588 3.522176 -1.044106 3.937004 0 3.937004
z
" style="stroke: #386411; stroke-width: 0.8"/>
    </defs>
    <g clip-path="url(#pc88033a2b5)">
     <use xlink:href="#m8576484b37" x="270.240486" y="160.823024" style="fill: #a3d576; stroke: #386411; stroke-width: 0.8"/>
     <use xlink:href="#m8576484b37" x="249.501981" y="185.118263" style="fill: #a3d576; stroke: #386411; stroke-width: 0.8"/>
     <use xlink:href="#m8576484b37" x="236.968609" y="193.219767" style="fill: #a3d576; stroke: #386411; stroke-width: 0.8"/>
     <use xlink:href="#m8576484b37" x="236.962067" y="208.342583" style="fill: #a3d576; stroke: #386411; stroke-width: 0.8"/>
     <use xlink:href="#m8576484b37" x="209.995309" y="217.949494" style="fill: #a3d576; stroke: #386411; stroke-width: 0.8"/>
     <use xlink:href="#m8576484b37" x="212.313901" y="223.091133" style="fill: #a3d576; stroke: #386411; stroke-width: 0.8"/>
     <use xlink:href="#m8576484b37" x="183.864089" y="232.733423" style="fill: #a3d576; stroke: #386411; stroke-width: 0.8"/>
     <use xlink:href="#m8576484b37" x="181.282768" y="239.564607" style="fill: #a3d576; stroke: #386411; stroke-width: 0.8"/>
     <use xlink:href="#m8576484b37" x="197.261335" y="250.872468" style="fill: #a3d576; stroke: #386411; stroke-width: 0.8"/>
     <use xlink:href="#m8576484b37" x="172.097005" y="252.335956" style="fill: #a3d576; stroke: #386411; stroke-width: 0.8"/>
     <use xlink:href="#m8576484b37" x="183.930911" y="253.506355" style="fill: #a3d576; stroke: #386411; stroke-width: 0.8"/>
     <use xlink:href="#m8576484b37" x="175.206869" y="269.85342" style="fill: #a3d576; stroke: #386411; stroke-width: 0.8"/>
     <use xlink:href="#m8576484b37" x="164.001113" y="274.668678" style="fill: #a3d576; stroke: #386411; stroke-width: 0.8"/>
     <use xlink:href="#m8576484b37" x="126.676706" y="295.899969" style="fill: #a3d576; stroke: #386411; stroke-width: 0.8"/>
     <use xlink:href="#m8576484b37" x="117.873984" y="296.644442" style="fill: #a3d576; stroke: #386411; stroke-width: 0.8"/>
     <use xlink:href="#m8576484b37" x="110.054958" y="306.90654" style="fill: #a3d576; stroke: #386411; stroke-width: 0.8"/>
     <use xlink:href="#m8576484b37" x="119.07371" y="309.169957" style="fill: #a3d576; stroke: #386411; stroke-width: 0.8"/>
     <use xlink:href="#m8576484b37" x="112.855861" y="312.094696" style="fill: #a3d576; stroke: #386411; stroke-width: 0.8"/>
     <use xlink:href="#m8576484b37" x="69.181378" y="364.260733" style="fill: #a3d576; stroke: #386411; stroke-width: 0.8"/>
     <use xlink:href="#m8576484b37" x="70.972848" y="364.692912" style="fill: #a3d576; stroke: #386411; stroke-width: 0.8"/>
    </g>
   </g>
   <g id="PathCollection_4"/>
   <g id="patch_8">
    <path d="M 378.592912 139.920991
C 396.529974 123.770388 411.914785 106.257771 421.359019 91.240091
C 430.803253 76.222412 433.53583 64.925796 428.954932 59.838193
C 424.374033 54.75059 412.85367 56.28738 396.931067 64.110102
C 381.008465 71.932825 361.983633 85.402789 344.046571 101.553392
C 326.109509 117.703995 310.724698 135.216612 301.280464 150.234292
C 291.836231 165.251971 289.103654 176.548587 293.684552 181.63619
C 298.26545 186.723793 309.785814 185.187003 325.708416 177.364281
C 341.631019 169.541558 360.65585 156.071594 378.592912 139.920991
L 378.592912 139.920991
z
" clip-path="url(#pc88033a2b5)" style="fill: none; stroke: #736422; stroke-width: 1.8; stroke-linejoin: miter"/>
   </g>
   <g id="patch_9">
    <path d="M 180.882343 277.160072
C 213.495183 247.795339 243.563336 218.281805 264.46464 195.119484
C 285.365944 171.957164 295.393901 157.037156 292.339969 153.645421
C 289.286036 150.253685 273.399555 158.667142 248.179339 177.032825
C 222.959122 195.398508 190.464289 222.21694 157.851449 251.581673
C 125.238609 280.946406 95.170456 310.45994 74.269152 333.622261
C 53.367848 356.784582 43.339892 371.704589 46.393824 375.096324
C 49.447756 378.48806 65.334237 370.074603 90.554453 351.70892
C 115.77467 333.343237 148.269503 306.524805 180.882343 277.160072
L 180.882343 277.160072
z
" clip-path="url(#pc88033a2b5)" style="fill: none; stroke: #386411; stroke-width: 1.8; stroke-linejoin: miter"/>
   </g>
   <g id="text_19">
    <g id="patch_10">
     <path d="M 356.036841 411.769571
L 426.174216 411.769571
Q 429.114216 411.769571 429.114216 408.829571
L 429.114216 391.293783
Q 429.114216 388.353783 426.174216 388.353783
L 356.036841 388.353783
Q 353.096841 388.353783 353.096841 391.293783
L 353.096841 408.829571
Q 353.096841 411.769571 356.036841 411.769571
z
" style="fill: #fff4c2; opacity: 0.96; stroke-dasharray: 4.07,1.76; stroke-dashoffset: 0; stroke: #736422; stroke-width: 1.1; stroke-linejoin: miter"/>
    </g>
    <!-- Response top 20 -->
    <g style="fill: #736422" transform="translate(356.036841 397.676471) scale(0.084 -0.084)">
     <defs>
      <path id="DejaVuSans-52" d="M 2841 2188
Q 3044 2119 3236 1894
Q 3428 1669 3622 1275
L 4263 0
L 3584 0
L 2988 1197
Q 2756 1666 2539 1819
Q 2322 1972 1947 1972
L 1259 1972
L 1259 0
L 628 0
L 628 4666
L 2053 4666
Q 2853 4666 3247 4331
Q 3641 3997 3641 3322
Q 3641 2881 3436 2590
Q 3231 2300 2841 2188
z
M 1259 4147
L 1259 2491
L 2053 2491
Q 2509 2491 2742 2702
Q 2975 2913 2975 3322
Q 2975 3731 2742 3939
Q 2509 4147 2053 4147
L 1259 4147
z
" transform="scale(0.015625)"/>
      <path id="DejaVuSans-32" d="M 1228 531
L 3431 531
L 3431 0
L 469 0
L 469 531
Q 828 903 1448 1529
Q 2069 2156 2228 2338
Q 2531 2678 2651 2914
Q 2772 3150 2772 3378
Q 2772 3750 2511 3984
Q 2250 4219 1831 4219
Q 1534 4219 1204 4116
Q 875 4013 500 3803
L 500 4441
Q 881 4594 1212 4672
Q 1544 4750 1819 4750
Q 2544 4750 2975 4387
Q 3406 4025 3406 3419
Q 3406 3131 3298 2873
Q 3191 2616 2906 2266
Q 2828 2175 2409 1742
Q 1991 1309 1228 531
z
" transform="scale(0.015625)"/>
     </defs>
     <use xlink:href="#DejaVuSans-52"/>
     <use xlink:href="#DejaVuSans-65" transform="translate(64.982422 0)"/>
     <use xlink:href="#DejaVuSans-73" transform="translate(126.505859 0)"/>
     <use xlink:href="#DejaVuSans-70" transform="translate(178.605469 0)"/>
     <use xlink:href="#DejaVuSans-6f" transform="translate(242.082031 0)"/>
     <use xlink:href="#DejaVuSans-6e" transform="translate(303.263672 0)"/>
     <use xlink:href="#DejaVuSans-73" transform="translate(366.642578 0)"/>
     <use xlink:href="#DejaVuSans-65" transform="translate(418.742188 0)"/>
     <use xlink:href="#DejaVuSans-20" transform="translate(480.265625 0)"/>
     <use xlink:href="#DejaVuSans-74" transform="translate(512.052734 0)"/>
     <use xlink:href="#DejaVuSans-6f" transform="translate(551.261719 0)"/>
     <use xlink:href="#DejaVuSans-70" transform="translate(612.443359 0)"/>
     <use xlink:href="#DejaVuSans-20" transform="translate(675.919922 0)"/>
     <use xlink:href="#DejaVuSans-32" transform="translate(707.707031 0)"/>
     <use xlink:href="#DejaVuSans-30" transform="translate(771.330078 0)"/>
    </g>
    <!-- p0 ≥ 64% -->
    <g style="fill: #736422" transform="translate(370.242684 407.082633) scale(0.084 -0.084)">
     <defs>
      <path id="DejaVuSans-2265" d="M 678 3175
L 678 3725
L 4684 2578
L 4684 2047
L 678 897
L 678 1453
L 3681 2309
L 678 3175
z
M 4684 531
L 4684 0
L 678 0
L 678 531
L 4684 531
z
" transform="scale(0.015625)"/>
     </defs>
     <use xlink:href="#DejaVuSans-70"/>
     <use xlink:href="#DejaVuSans-30" transform="translate(63.476562 0)"/>
     <use xlink:href="#DejaVuSans-20" transform="translate(127.099609 0)"/>
     <use xlink:href="#DejaVuSans-2265" transform="translate(158.886719 0)"/>
     <use xlink:href="#DejaVuSans-20" transform="translate(242.675781 0)"/>
     <use xlink:href="#DejaVuSans-36" transform="translate(274.462891 0)"/>
     <use xlink:href="#DejaVuSans-34" transform="translate(338.085938 0)"/>
     <use xlink:href="#DejaVuSans-25" transform="translate(401.708984 0)"/>
    </g>
   </g>
   <g id="text_20">
    <g id="patch_11">
     <path d="M 88.700293 84.125921
L 144.128481 84.125921
Q 147.068481 84.125921 147.068481 81.185921
L 147.068481 63.650133
Q 147.068481 60.710133 144.128481 60.710133
L 88.700293 60.710133
Q 85.760293 60.710133 85.760293 63.650133
L 85.760293 81.185921
Q 85.760293 84.125921 88.700293 84.125921
z
" style="fill: #d8ecbd; opacity: 0.96; stroke-dasharray: 4.07,1.76; stroke-dashoffset: 0; stroke: #386411; stroke-width: 1.1; stroke-linejoin: miter"/>
    </g>
    <!-- Uplift top 20 -->
    <g style="fill: #386411" transform="translate(90.392106 70.032821) scale(0.084 -0.084)">
     <defs>
      <path id="DejaVuSans-55" d="M 556 4666
L 1191 4666
L 1191 1831
Q 1191 1081 1462 751
Q 1734 422 2344 422
Q 2950 422 3222 751
Q 3494 1081 3494 1831
L 3494 4666
L 4128 4666
L 4128 1753
Q 4128 841 3676 375
Q 3225 -91 2344 -91
Q 1459 -91 1007 375
Q 556 841 556 1753
L 556 4666
z
" transform="scale(0.015625)"/>
     </defs>
     <use xlink:href="#DejaVuSans-55"/>
     <use xlink:href="#DejaVuSans-70" transform="translate(73.193359 0)"/>
     <use xlink:href="#DejaVuSans-6c" transform="translate(136.669922 0)"/>
     <use xlink:href="#DejaVuSans-69" transform="translate(164.453125 0)"/>
     <use xlink:href="#DejaVuSans-66" transform="translate(192.236328 0)"/>
     <use xlink:href="#DejaVuSans-74" transform="translate(225.691406 0)"/>
     <use xlink:href="#DejaVuSans-20" transform="translate(264.900391 0)"/>
     <use xlink:href="#DejaVuSans-74" transform="translate(296.6875 0)"/>
     <use xlink:href="#DejaVuSans-6f" transform="translate(335.896484 0)"/>
     <use xlink:href="#DejaVuSans-70" transform="translate(397.078125 0)"/>
     <use xlink:href="#DejaVuSans-20" transform="translate(460.554688 0)"/>
     <use xlink:href="#DejaVuSans-32" transform="translate(492.341797 0)"/>
     <use xlink:href="#DejaVuSans-30" transform="translate(555.964844 0)"/>
    </g>
    <!-- p1 - p0 ≥ 9% -->
    <g style="fill: #386411" transform="translate(88.700293 79.438983) scale(0.084 -0.084)">
     <defs>
      <path id="DejaVuSans-2d" d="M 313 2009
L 1997 2009
L 1997 1497
L 313 1497
L 313 2009
z
" transform="scale(0.015625)"/>
      <path id="DejaVuSans-39" d="M 703 97
L 703 672
Q 941 559 1184 500
Q 1428 441 1663 441
Q 2288 441 2617 861
Q 2947 1281 2994 2138
Q 2813 1869 2534 1725
Q 2256 1581 1919 1581
Q 1219 1581 811 2004
Q 403 2428 403 3163
Q 403 3881 828 4315
Q 1253 4750 1959 4750
Q 2769 4750 3195 4129
Q 3622 3509 3622 2328
Q 3622 1225 3098 567
Q 2575 -91 1691 -91
Q 1453 -91 1209 -44
Q 966 3 703 97
z
M 1959 2075
Q 2384 2075 2632 2365
Q 2881 2656 2881 3163
Q 2881 3666 2632 3958
Q 2384 4250 1959 4250
Q 1534 4250 1286 3958
Q 1038 3666 1038 3163
Q 1038 2656 1286 2365
Q 1534 2075 1959 2075
z
" transform="scale(0.015625)"/>
     </defs>
     <use xlink:href="#DejaVuSans-70"/>
     <use xlink:href="#DejaVuSans-31" transform="translate(63.476562 0)"/>
     <use xlink:href="#DejaVuSans-20" transform="translate(127.099609 0)"/>
     <use xlink:href="#DejaVuSans-2d" transform="translate(158.886719 0)"/>
     <use xlink:href="#DejaVuSans-20" transform="translate(194.970703 0)"/>
     <use xlink:href="#DejaVuSans-70" transform="translate(226.757812 0)"/>
     <use xlink:href="#DejaVuSans-30" transform="translate(290.234375 0)"/>
     <use xlink:href="#DejaVuSans-20" transform="translate(353.857422 0)"/>
     <use xlink:href="#DejaVuSans-2265" transform="translate(385.644531 0)"/>
     <use xlink:href="#DejaVuSans-20" transform="translate(469.433594 0)"/>
     <use xlink:href="#DejaVuSans-39" transform="translate(501.220703 0)"/>
     <use xlink:href="#DejaVuSans-25" transform="translate(564.84375 0)"/>
    </g>
   </g>
  </g>
 </g>
 <defs>
  <clipPath id="pc88033a2b5">
   <rect x="46.914219" y="39.84925" width="419.784" height="419.784"/>
  </clipPath>
 </defs>
</svg>
