<?xml version="1.0" encoding="utf-8" standalone="no"?>
<!DOCTYPE svg PUBLIC "-//W3C//DTD SVG 1.1//EN"
  "http://www.w3.org/Graphics/SVG/1.1/DTD/svg11.dtd">
<svg xmlns:xlink="http://www.w3.org/1999/xlink" width="715.10375pt" height="498.268437pt" viewBox="0 0 715.10375 498.268437" xmlns="http://www.w3.org/2000/svg" version="1.1">
 <metadata>
  <rdf:RDF xmlns:dc="http://purl.org/dc/elements/1.1/" xmlns:cc="http://creativecommons.org/ns#" xmlns:rdf="http://www.w3.org/1999/02/22-rdf-syntax-ns#">
   <cc:Work>
    <dc:type rdf:resource="http://purl.org/dc/dcmitype/StillImage"/>
    <dc:date>2026-06-21T12:04:23.493172</dc:date>
    <dc:format>image/svg+xml</dc:format>
    <dc:creator>
     <cc:Agent>
      <dc:title>Matplotlib v3.10.9, https://matplotlib.org/</dc:title>
     </cc:Agent>
    </dc:creator>
   </cc:Work>
  </rdf:RDF>
 </metadata>
 <defs>
  <style type="text/css">*{stroke-linejoin: round; stroke-linecap: butt}</style>
 </defs>
 <g id="figure_1">
  <g id="patch_1">
   <path d="M 0 498.268437 
L 715.10375 498.268437 
L 715.10375 0 
L 0 0 
z
" style="fill: #ffffff"/>
  </g>
  <g id="axes_1">
   <g id="patch_2">
    <path d="M 55.42375 316.94125 
L 707.90375 316.94125 
L 707.90375 27.6 
L 55.42375 27.6 
z
" style="fill: #ffffff"/>
   </g>
   <g id="matplotlib.axis_1">
    <g id="xtick_1">
     <g id="line2d_1">
      <defs>
       <path id="mff4ecc0651" d="M 0 0 
L 0 3.5 
" style="stroke: #000000; stroke-width: 0.8"/>
      </defs>
      <g>
       <use xlink:href="#mff4ecc0651" x="73.451272" y="316.94125" style="stroke: #000000; stroke-width: 0.8"/>
      </g>
     </g>
    </g>
    <g id="xtick_2">
     <g id="line2d_2">
      <g>
       <use xlink:href="#mff4ecc0651" x="189.757868" y="316.94125" style="stroke: #000000; stroke-width: 0.8"/>
      </g>
     </g>
    </g>
    <g id="xtick_3">
     <g id="line2d_3">
      <g>
       <use xlink:href="#mff4ecc0651" x="306.064463" y="316.94125" style="stroke: #000000; stroke-width: 0.8"/>
      </g>
     </g>
    </g>
    <g id="xtick_4">
     <g id="line2d_4">
      <g>
       <use xlink:href="#mff4ecc0651" x="422.371058" y="316.94125" style="stroke: #000000; stroke-width: 0.8"/>
      </g>
     </g>
    </g>
    <g id="xtick_5">
     <g id="line2d_5">
      <g>
       <use xlink:href="#mff4ecc0651" x="538.677654" y="316.94125" style="stroke: #000000; stroke-width: 0.8"/>
      </g>
     </g>
    </g>
    <g id="xtick_6">
     <g id="line2d_6">
      <g>
       <use xlink:href="#mff4ecc0651" x="654.984249" y="316.94125" style="stroke: #000000; stroke-width: 0.8"/>
      </g>
     </g>
    </g>
   </g>
   <g id="matplotlib.axis_2">
    <g id="ytick_1">
     <g id="line2d_7">
      <defs>
       <path id="m40665978e2" d="M 0 0 
L -3.5 0 
" style="stroke: #000000; stroke-width: 0.8"/>
      </defs>
      <g>
       <use xlink:href="#m40665978e2" x="55.42375" y="276.136208" style="stroke: #000000; stroke-width: 0.8"/>
      </g>
     </g>
     <g id="text_1">
      <!-- 15% -->
      <g transform="translate(28.419844 279.555505) scale(0.09 -0.09)">
       <defs>
        <path id="DejaVuSans-31" d="M 794 531 
L 1825 531 
L 1825 4091 
L 703 3866 
L 703 4441 
L 1819 4666 
L 2450 4666 
L 2450 531 
L 3481 531 
L 3481 0 
L 794 0 
L 794 531 
z
" transform="scale(0.015625)"/>
        <path id="DejaVuSans-35" d="M 691 4666 
L 3169 4666 
L 3169 4134 
L 1269 4134 
L 1269 2991 
Q 1406 3038 1543 3061 
Q 1681 3084 1819 3084 
Q 2600 3084 3056 2656 
Q 3513 2228 3513 1497 
Q 3513 744 3044 326 
Q 2575 -91 1722 -91 
Q 1428 -91 1123 -41 
Q 819 9 494 109 
L 494 744 
Q 775 591 1075 516 
Q 1375 441 1709 441 
Q 2250 441 2565 725 
Q 2881 1009 2881 1497 
Q 2881 1984 2565 2268 
Q 2250 2553 1709 2553 
Q 1456 2553 1204 2497 
Q 953 2441 691 2322 
L 691 4666 
z
" transform="scale(0.015625)"/>
        <path id="DejaVuSans-25" d="M 4653 2053 
Q 4381 2053 4226 1822 
Q 4072 1591 4072 1178 
Q 4072 772 4226 539 
Q 4381 306 4653 306 
Q 4919 306 5073 539 
Q 5228 772 5228 1178 
Q 5228 1588 5073 1820 
Q 4919 2053 4653 2053 
z
M 4653 2450 
Q 5147 2450 5437 2106 
Q 5728 1763 5728 1178 
Q 5728 594 5436 251 
Q 5144 -91 4653 -91 
Q 4153 -91 3862 251 
Q 3572 594 3572 1178 
Q 3572 1766 3864 2108 
Q 4156 2450 4653 2450 
z
M 1428 4353 
Q 1159 4353 1004 4120 
Q 850 3888 850 3481 
Q 850 3069 1003 2837 
Q 1156 2606 1428 2606 
Q 1700 2606 1854 2837 
Q 2009 3069 2009 3481 
Q 2009 3884 1853 4118 
Q 1697 4353 1428 4353 
z
M 4250 4750 
L 4750 4750 
L 1831 -91 
L 1331 -91 
L 4250 4750 
z
M 1428 4750 
Q 1922 4750 2215 4408 
Q 2509 4066 2509 3481 
Q 2509 2891 2217 2550 
Q 1925 2209 1428 2209 
Q 931 2209 642 2551 
Q 353 2894 353 3481 
Q 353 4063 643 4406 
Q 934 4750 1428 4750 
z
" transform="scale(0.015625)"/>
       </defs>
       <use xlink:href="#DejaVuSans-31"/>
       <use xlink:href="#DejaVuSans-35" transform="translate(63.623047 0)"/>
       <use xlink:href="#DejaVuSans-25" transform="translate(127.246094 0)"/>
      </g>
     </g>
    </g>
    <g id="ytick_2">
     <g id="line2d_8">
      <g>
       <use xlink:href="#m40665978e2" x="55.42375" y="221.778907" style="stroke: #000000; stroke-width: 0.8"/>
      </g>
     </g>
     <g id="text_2">
      <!-- 20% -->
      <g transform="translate(28.419844 225.198203) scale(0.09 -0.09)">
       <defs>
        <path id="DejaVuSans-32" d="M 1228 531 
L 3431 531 
L 3431 0 
L 469 0 
L 469 531 
Q 828 903 1448 1529 
Q 2069 2156 2228 2338 
Q 2531 2678 2651 2914 
Q 2772 3150 2772 3378 
Q 2772 3750 2511 3984 
Q 2250 4219 1831 4219 
Q 1534 4219 1204 4116 
Q 875 4013 500 3803 
L 500 4441 
Q 881 4594 1212 4672 
Q 1544 4750 1819 4750 
Q 2544 4750 2975 4387 
Q 3406 4025 3406 3419 
Q 3406 3131 3298 2873 
Q 3191 2616 2906 2266 
Q 2828 2175 2409 1742 
Q 1991 1309 1228 531 
z
" transform="scale(0.015625)"/>
        <path id="DejaVuSans-30" d="M 2034 4250 
Q 1547 4250 1301 3770 
Q 1056 3291 1056 2328 
Q 1056 1369 1301 889 
Q 1547 409 2034 409 
Q 2525 409 2770 889 
Q 3016 1369 3016 2328 
Q 3016 3291 2770 3770 
Q 2525 4250 2034 4250 
z
M 2034 4750 
Q 2819 4750 3233 4129 
Q 3647 3509 3647 2328 
Q 3647 1150 3233 529 
Q 2819 -91 2034 -91 
Q 1250 -91 836 529 
Q 422 1150 422 2328 
Q 422 3509 836 4129 
Q 1250 4750 2034 4750 
z
" transform="scale(0.015625)"/>
       </defs>
       <use xlink:href="#DejaVuSans-32"/>
       <use xlink:href="#DejaVuSans-30" transform="translate(63.623047 0)"/>
       <use xlink:href="#DejaVuSans-25" transform="translate(127.246094 0)"/>
      </g>
     </g>
    </g>
    <g id="ytick_3">
     <g id="line2d_9">
      <g>
       <use xlink:href="#m40665978e2" x="55.42375" y="167.421605" style="stroke: #000000; stroke-width: 0.8"/>
      </g>
     </g>
     <g id="text_3">
      <!-- 25% -->
      <g transform="translate(28.419844 170.840902) scale(0.09 -0.09)">
       <use xlink:href="#DejaVuSans-32"/>
       <use xlink:href="#DejaVuSans-35" transform="translate(63.623047 0)"/>
       <use xlink:href="#DejaVuSans-25" transform="translate(127.246094 0)"/>
      </g>
     </g>
    </g>
    <g id="ytick_4">
     <g id="line2d_10">
      <g>
       <use xlink:href="#m40665978e2" x="55.42375" y="113.064303" style="stroke: #000000; stroke-width: 0.8"/>
      </g>
     </g>
     <g id="text_4">
      <!-- 30% -->
      <g transform="translate(28.419844 116.4836) scale(0.09 -0.09)">
       <defs>
        <path id="DejaVuSans-33" d="M 2597 2516 
Q 3050 2419 3304 2112 
Q 3559 1806 3559 1356 
Q 3559 666 3084 287 
Q 2609 -91 1734 -91 
Q 1441 -91 1130 -33 
Q 819 25 488 141 
L 488 750 
Q 750 597 1062 519 
Q 1375 441 1716 441 
Q 2309 441 2620 675 
Q 2931 909 2931 1356 
Q 2931 1769 2642 2001 
Q 2353 2234 1838 2234 
L 1294 2234 
L 1294 2753 
L 1863 2753 
Q 2328 2753 2575 2939 
Q 2822 3125 2822 3475 
Q 2822 3834 2567 4026 
Q 2313 4219 1838 4219 
Q 1578 4219 1281 4162 
Q 984 4106 628 3988 
L 628 4550 
Q 988 4650 1302 4700 
Q 1616 4750 1894 4750 
Q 2613 4750 3031 4423 
Q 3450 4097 3450 3541 
Q 3450 3153 3228 2886 
Q 3006 2619 2597 2516 
z
" transform="scale(0.015625)"/>
       </defs>
       <use xlink:href="#DejaVuSans-33"/>
       <use xlink:href="#DejaVuSans-30" transform="translate(63.623047 0)"/>
       <use xlink:href="#DejaVuSans-25" transform="translate(127.246094 0)"/>
      </g>
     </g>
    </g>
    <g id="ytick_5">
     <g id="line2d_11">
      <g>
       <use xlink:href="#m40665978e2" x="55.42375" y="58.707002" style="stroke: #000000; stroke-width: 0.8"/>
      </g>
     </g>
     <g id="text_5">
      <!-- 35% -->
      <g transform="translate(28.419844 62.126299) scale(0.09 -0.09)">
       <use xlink:href="#DejaVuSans-33"/>
       <use xlink:href="#DejaVuSans-35" transform="translate(63.623047 0)"/>
       <use xlink:href="#DejaVuSans-25" transform="translate(127.246094 0)"/>
      </g>
     </g>
    </g>
    <g id="text_6">
     <!-- Roventra share -->
     <g transform="translate(22.340156 210.309687) rotate(-90) scale(0.1 -0.1)">
      <defs>
       <path id="DejaVuSans-52" d="M 2841 2188 
Q 3044 2119 3236 1894 
Q 3428 1669 3622 1275 
L 4263 0 
L 3584 0 
L 2988 1197 
Q 2756 1666 2539 1819 
Q 2322 1972 1947 1972 
L 1259 1972 
L 1259 0 
L 628 0 
L 628 4666 
L 2053 4666 
Q 2853 4666 3247 4331 
Q 3641 3997 3641 3322 
Q 3641 2881 3436 2590 
Q 3231 2300 2841 2188 
z
M 1259 4147 
L 1259 2491 
L 2053 2491 
Q 2509 2491 2742 2702 
Q 2975 2913 2975 3322 
Q 2975 3731 2742 3939 
Q 2509 4147 2053 4147 
L 1259 4147 
z
" transform="scale(0.015625)"/>
       <path id="DejaVuSans-6f" d="M 1959 3097 
Q 1497 3097 1228 2736 
Q 959 2375 959 1747 
Q 959 1119 1226 758 
Q 1494 397 1959 397 
Q 2419 397 2687 759 
Q 2956 1122 2956 1747 
Q 2956 2369 2687 2733 
Q 2419 3097 1959 3097 
z
M 1959 3584 
Q 2709 3584 3137 3096 
Q 3566 2609 3566 1747 
Q 3566 888 3137 398 
Q 2709 -91 1959 -91 
Q 1206 -91 779 398 
Q 353 888 353 1747 
Q 353 2609 779 3096 
Q 1206 3584 1959 3584 
z
" transform="scale(0.015625)"/>
       <path id="DejaVuSans-76" d="M 191 3500 
L 800 3500 
L 1894 563 
L 2988 3500 
L 3597 3500 
L 2284 0 
L 1503 0 
L 191 3500 
z
" transform="scale(0.015625)"/>
       <path id="DejaVuSans-65" d="M 3597 1894 
L 3597 1613 
L 953 1613 
Q 991 1019 1311 708 
Q 1631 397 2203 397 
Q 2534 397 2845 478 
Q 3156 559 3463 722 
L 3463 178 
Q 3153 47 2828 -22 
Q 2503 -91 2169 -91 
Q 1331 -91 842 396 
Q 353 884 353 1716 
Q 353 2575 817 3079 
Q 1281 3584 2069 3584 
Q 2775 3584 3186 3129 
Q 3597 2675 3597 1894 
z
M 3022 2063 
Q 3016 2534 2758 2815 
Q 2500 3097 2075 3097 
Q 1594 3097 1305 2825 
Q 1016 2553 972 2059 
L 3022 2063 
z
" transform="scale(0.015625)"/>
       <path id="DejaVuSans-6e" d="M 3513 2113 
L 3513 0 
L 2938 0 
L 2938 2094 
Q 2938 2591 2744 2837 
Q 2550 3084 2163 3084 
Q 1697 3084 1428 2787 
Q 1159 2491 1159 1978 
L 1159 0 
L 581 0 
L 581 3500 
L 1159 3500 
L 1159 2956 
Q 1366 3272 1645 3428 
Q 1925 3584 2291 3584 
Q 2894 3584 3203 3211 
Q 3513 2838 3513 2113 
z
" transform="scale(0.015625)"/>
       <path id="DejaVuSans-74" d="M 1172 4494 
L 1172 3500 
L 2356 3500 
L 2356 3053 
L 1172 3053 
L 1172 1153 
Q 1172 725 1289 603 
Q 1406 481 1766 481 
L 2356 481 
L 2356 0 
L 1766 0 
Q 1100 0 847 248 
Q 594 497 594 1153 
L 594 3053 
L 172 3053 
L 172 3500 
L 594 3500 
L 594 4494 
L 1172 4494 
z
" transform="scale(0.015625)"/>
       <path id="DejaVuSans-72" d="M 2631 2963 
Q 2534 3019 2420 3045 
Q 2306 3072 2169 3072 
Q 1681 3072 1420 2755 
Q 1159 2438 1159 1844 
L 1159 0 
L 581 0 
L 581 3500 
L 1159 3500 
L 1159 2956 
Q 1341 3275 1631 3429 
Q 1922 3584 2338 3584 
Q 2397 3584 2469 3576 
Q 2541 3569 2628 3553 
L 2631 2963 
z
" transform="scale(0.015625)"/>
       <path id="DejaVuSans-61" d="M 2194 1759 
Q 1497 1759 1228 1600 
Q 959 1441 959 1056 
Q 959 750 1161 570 
Q 1363 391 1709 391 
Q 2188 391 2477 730 
Q 2766 1069 2766 1631 
L 2766 1759 
L 2194 1759 
z
M 3341 1997 
L 3341 0 
L 2766 0 
L 2766 531 
Q 2569 213 2275 61 
Q 1981 -91 1556 -91 
Q 1019 -91 701 211 
Q 384 513 384 1019 
Q 384 1609 779 1909 
Q 1175 2209 1959 2209 
L 2766 2209 
L 2766 2266 
Q 2766 2663 2505 2880 
Q 2244 3097 1772 3097 
Q 1472 3097 1187 3025 
Q 903 2953 641 2809 
L 641 3341 
Q 956 3463 1253 3523 
Q 1550 3584 1831 3584 
Q 2591 3584 2966 3190 
Q 3341 2797 3341 1997 
z
" transform="scale(0.015625)"/>
       <path id="DejaVuSans-20" transform="scale(0.015625)"/>
       <path id="DejaVuSans-73" d="M 2834 3397 
L 2834 2853 
Q 2591 2978 2328 3040 
Q 2066 3103 1784 3103 
Q 1356 3103 1142 2972 
Q 928 2841 928 2578 
Q 928 2378 1081 2264 
Q 1234 2150 1697 2047 
L 1894 2003 
Q 2506 1872 2764 1633 
Q 3022 1394 3022 966 
Q 3022 478 2636 193 
Q 2250 -91 1575 -91 
Q 1294 -91 989 -36 
Q 684 19 347 128 
L 347 722 
Q 666 556 975 473 
Q 1284 391 1588 391 
Q 1994 391 2212 530 
Q 2431 669 2431 922 
Q 2431 1156 2273 1281 
Q 2116 1406 1581 1522 
L 1381 1569 
Q 847 1681 609 1914 
Q 372 2147 372 2553 
Q 372 3047 722 3315 
Q 1072 3584 1716 3584 
Q 2034 3584 2315 3537 
Q 2597 3491 2834 3397 
z
" transform="scale(0.015625)"/>
       <path id="DejaVuSans-68" d="M 3513 2113 
L 3513 0 
L 2938 0 
L 2938 2094 
Q 2938 2591 2744 2837 
Q 2550 3084 2163 3084 
Q 1697 3084 1428 2787 
Q 1159 2491 1159 1978 
L 1159 0 
L 581 0 
L 581 4863 
L 1159 4863 
L 1159 2956 
Q 1366 3272 1645 3428 
Q 1925 3584 2291 3584 
Q 2894 3584 3203 3211 
Q 3513 2838 3513 2113 
z
" transform="scale(0.015625)"/>
      </defs>
      <use xlink:href="#DejaVuSans-52"/>
      <use xlink:href="#DejaVuSans-6f" transform="translate(64.982422 0)"/>
      <use xlink:href="#DejaVuSans-76" transform="translate(126.164062 0)"/>
      <use xlink:href="#DejaVuSans-65" transform="translate(185.34375 0)"/>
      <use xlink:href="#DejaVuSans-6e" transform="translate(246.867188 0)"/>
      <use xlink:href="#DejaVuSans-74" transform="translate(310.246094 0)"/>
      <use xlink:href="#DejaVuSans-72" transform="translate(349.455078 0)"/>
      <use xlink:href="#DejaVuSans-61" transform="translate(390.568359 0)"/>
      <use xlink:href="#DejaVuSans-20" transform="translate(451.847656 0)"/>
      <use xlink:href="#DejaVuSans-73" transform="translate(483.634766 0)"/>
      <use xlink:href="#DejaVuSans-68" transform="translate(535.734375 0)"/>
      <use xlink:href="#DejaVuSans-61" transform="translate(599.113281 0)"/>
      <use xlink:href="#DejaVuSans-72" transform="translate(660.392578 0)"/>
      <use xlink:href="#DejaVuSans-65" transform="translate(699.255859 0)"/>
     </g>
    </g>
   </g>
   <g id="line2d_12">
    <path d="M 85.081932 176.270468 
L 96.712591 142.054864 
L 108.343251 109.278223 
L 119.97391 215.223252 
L 131.60457 181.560788 
L 143.23523 109.457658 
L 154.865889 202.343894 
L 166.496549 176.077226 
L 178.127208 206.248249 
L 189.757868 202.872019 
L 201.388527 174.216268 
L 213.019187 202.593977 
L 224.649846 129.399658 
L 236.280506 208.259992 
L 247.911165 157.16551 
L 259.541825 239.086704 
L 271.172484 109.557381 
L 282.803144 143.339256 
L 294.433803 105.651944 
L 306.064463 117.09077 
L 317.695123 109.594688 
L 329.325782 126.653629 
L 340.956442 116.539199 
L 352.587101 123.17729 
L 364.217761 135.690185 
L 375.84842 102.896751 
L 387.47908 94.863216 
L 399.109739 218.093666 
L 410.740399 172.080802 
L 422.371058 128.594961 
L 434.001718 117.567275 
L 445.632377 117.657878 
L 457.263037 157.564063 
L 468.893697 169.152729 
L 480.524356 78.647117 
L 492.155016 154.228085 
L 503.785675 164.367824 
L 515.416335 84.577589 
L 527.046994 125.143704 
L 538.677654 120.561862 
L 550.308313 107.761152 
L 561.938973 140.66542 
L 573.569632 112.470235 
L 585.200292 55.969584 
L 596.830951 169.152729 
L 608.461611 146.514951 
L 620.09227 148.379238 
L 631.72293 163.014256 
L 643.35359 75.040969 
L 654.984249 190.552372 
L 666.614909 174.573882 
L 678.245568 40.751875 
" clip-path="url(#p582cf50138)" style="fill: none; stroke: #3f72c8; stroke-width: 1.2; stroke-linecap: square"/>
   </g>
   <g id="line2d_13">
    <path d="M 85.081932 147.851924 
L 96.712591 159.811163 
L 108.343251 167.749086 
L 119.97391 178.079373 
L 131.60457 159.073493 
L 143.23523 156.897433 
L 154.865889 154.111275 
L 166.496549 195.023497 
L 178.127208 183.245463 
L 189.757868 191.616067 
L 201.388527 181.96038 
L 213.019187 177.915102 
L 224.649846 195.24055 
L 236.280506 197.358285 
L 247.911165 188.777585 
L 259.541825 197.398073 
L 271.172484 114.773516 
L 282.803144 126.45265 
L 294.433803 123.075788 
L 306.064463 110.794594 
L 317.695123 131.871043 
L 329.325782 133.739698 
L 340.956442 137.823443 
L 352.587101 119.997184 
L 364.217761 123.016845 
L 375.84842 126.647276 
L 387.47908 130.590809 
L 399.109739 135.462989 
L 410.740399 138.21154 
L 422.371058 127.485187 
L 434.001718 126.454555 
L 445.632377 127.703296 
L 457.263037 130.654691 
L 468.893697 131.312989 
L 480.524356 131.139923 
L 492.155016 132.970255 
L 503.785675 136.055656 
L 515.416335 130.905807 
L 527.046994 132.910317 
L 538.677654 119.354111 
L 550.308313 129.15736 
L 561.938973 120.988913 
L 573.569632 125.436847 
L 585.200292 121.391441 
L 596.830951 142.802753 
L 608.461611 139.677137 
L 620.09227 121.129709 
L 631.72293 126.959886 
L 643.35359 123.637844 
L 654.984249 128.813322 
L 666.614909 126.492359 
L 678.245568 132.246795 
" clip-path="url(#p582cf50138)" style="fill: none; stroke: #3f72c8; stroke-width: 2.2; stroke-linecap: square"/>
   </g>
   <g id="line2d_14">
    <path d="M 85.081932 147.851924 
L 96.712591 159.811163 
L 108.343251 167.749086 
L 119.97391 178.079373 
L 131.60457 159.073493 
L 143.23523 156.897433 
L 154.865889 154.111275 
L 166.496549 195.023497 
L 178.127208 183.245463 
L 189.757868 191.616067 
L 201.388527 181.96038 
L 213.019187 177.915102 
L 224.649846 195.24055 
L 236.280506 197.358285 
L 247.911165 188.777585 
L 259.541825 197.398073 
L 271.172484 195.350338 
L 282.803144 209.628493 
L 294.433803 208.850653 
L 306.064463 199.16848 
L 317.695123 222.843951 
L 329.325782 227.311628 
L 340.956442 233.994395 
L 352.587101 218.767157 
L 364.217761 224.38584 
L 375.84842 230.615293 
L 387.47908 237.157847 
L 399.109739 244.629049 
L 410.740399 249.976622 
L 422.371058 241.849291 
L 434.001718 243.41768 
L 445.632377 247.265443 
L 457.263037 252.815859 
L 468.893697 256.073179 
L 480.524356 258.499135 
L 492.155016 262.928488 
L 503.785675 268.612911 
L 515.416335 266.062083 
L 527.046994 270.665616 
L 538.677654 259.708431 
L 550.308313 272.110702 
L 561.938973 266.541276 
L 573.569632 273.588232 
L 585.200292 272.141847 
L 596.830951 296.152181 
L 608.461611 295.625588 
L 620.09227 279.67718 
L 631.72293 288.10638 
L 643.35359 287.383359 
L 654.984249 295.157859 
L 666.614909 295.435918 
L 678.245568 303.789375 
" clip-path="url(#p582cf50138)" style="fill: none; stroke-dasharray: 6.66,2.88; stroke-dashoffset: 0; stroke: #7c8795; stroke-width: 1.8"/>
   </g>
   <g id="line2d_15">
    <path d="M 271.172484 316.94125 
L 271.172484 27.6 
" clip-path="url(#p582cf50138)" style="fill: none; stroke-dasharray: 1.5,2.475; stroke-dashoffset: 0; stroke: #c83e2b; stroke-width: 1.5"/>
   </g>
   <g id="patch_3">
    <path d="M 55.42375 316.94125 
L 55.42375 27.6 
" style="fill: none; stroke: #000000; stroke-width: 0.8; stroke-linejoin: miter; stroke-linecap: square"/>
   </g>
   <g id="patch_4">
    <path d="M 55.42375 316.94125 
L 707.90375 316.94125 
" style="fill: none; stroke: #000000; stroke-width: 0.8; stroke-linejoin: miter; stroke-linecap: square"/>
   </g>
   <g id="legend_1">
    <g id="line2d_16">
     <path d="M 63.52375 39.388594 
L 72.52375 39.388594 
L 81.52375 39.388594 
" style="fill: none; stroke: #3f72c8; stroke-width: 1.2; stroke-linecap: square"/>
    </g>
    <g id="text_7">
     <!-- Observed -->
     <g transform="translate(88.72375 42.538594) scale(0.09 -0.09)">
      <defs>
       <path id="DejaVuSans-4f" d="M 2522 4238 
Q 1834 4238 1429 3725 
Q 1025 3213 1025 2328 
Q 1025 1447 1429 934 
Q 1834 422 2522 422 
Q 3209 422 3611 934 
Q 4013 1447 4013 2328 
Q 4013 3213 3611 3725 
Q 3209 4238 2522 4238 
z
M 2522 4750 
Q 3503 4750 4090 4092 
Q 4678 3434 4678 2328 
Q 4678 1225 4090 567 
Q 3503 -91 2522 -91 
Q 1538 -91 948 565 
Q 359 1222 359 2328 
Q 359 3434 948 4092 
Q 1538 4750 2522 4750 
z
" transform="scale(0.015625)"/>
       <path id="DejaVuSans-62" d="M 3116 1747 
Q 3116 2381 2855 2742 
Q 2594 3103 2138 3103 
Q 1681 3103 1420 2742 
Q 1159 2381 1159 1747 
Q 1159 1113 1420 752 
Q 1681 391 2138 391 
Q 2594 391 2855 752 
Q 3116 1113 3116 1747 
z
M 1159 2969 
Q 1341 3281 1617 3432 
Q 1894 3584 2278 3584 
Q 2916 3584 3314 3078 
Q 3713 2572 3713 1747 
Q 3713 922 3314 415 
Q 2916 -91 2278 -91 
Q 1894 -91 1617 61 
Q 1341 213 1159 525 
L 1159 0 
L 581 0 
L 581 4863 
L 1159 4863 
L 1159 2969 
z
" transform="scale(0.015625)"/>
       <path id="DejaVuSans-64" d="M 2906 2969 
L 2906 4863 
L 3481 4863 
L 3481 0 
L 2906 0 
L 2906 525 
Q 2725 213 2448 61 
Q 2172 -91 1784 -91 
Q 1150 -91 751 415 
Q 353 922 353 1747 
Q 353 2572 751 3078 
Q 1150 3584 1784 3584 
Q 2172 3584 2448 3432 
Q 2725 3281 2906 2969 
z
M 947 1747 
Q 947 1113 1208 752 
Q 1469 391 1925 391 
Q 2381 391 2643 752 
Q 2906 1113 2906 1747 
Q 2906 2381 2643 2742 
Q 2381 3103 1925 3103 
Q 1469 3103 1208 2742 
Q 947 2381 947 1747 
z
" transform="scale(0.015625)"/>
      </defs>
      <use xlink:href="#DejaVuSans-4f"/>
      <use xlink:href="#DejaVuSans-62" transform="translate(78.710938 0)"/>
      <use xlink:href="#DejaVuSans-73" transform="translate(142.1875 0)"/>
      <use xlink:href="#DejaVuSans-65" transform="translate(194.287109 0)"/>
      <use xlink:href="#DejaVuSans-72" transform="translate(255.810547 0)"/>
      <use xlink:href="#DejaVuSans-76" transform="translate(296.923828 0)"/>
      <use xlink:href="#DejaVuSans-65" transform="translate(356.103516 0)"/>
      <use xlink:href="#DejaVuSans-64" transform="translate(417.626953 0)"/>
     </g>
    </g>
    <g id="line2d_17">
     <path d="M 150.026406 39.388594 
L 159.026406 39.388594 
L 168.026406 39.388594 
" style="fill: none; stroke: #3f72c8; stroke-width: 2.2; stroke-linecap: square"/>
    </g>
    <g id="text_8">
     <!-- Controlled ITS -->
     <g transform="translate(175.226406 42.538594) scale(0.09 -0.09)">
      <defs>
       <path id="DejaVuSans-43" d="M 4122 4306 
L 4122 3641 
Q 3803 3938 3442 4084 
Q 3081 4231 2675 4231 
Q 1875 4231 1450 3742 
Q 1025 3253 1025 2328 
Q 1025 1406 1450 917 
Q 1875 428 2675 428 
Q 3081 428 3442 575 
Q 3803 722 4122 1019 
L 4122 359 
Q 3791 134 3420 21 
Q 3050 -91 2638 -91 
Q 1578 -91 968 557 
Q 359 1206 359 2328 
Q 359 3453 968 4101 
Q 1578 4750 2638 4750 
Q 3056 4750 3426 4639 
Q 3797 4528 4122 4306 
z
" transform="scale(0.015625)"/>
       <path id="DejaVuSans-6c" d="M 603 4863 
L 1178 4863 
L 1178 0 
L 603 0 
L 603 4863 
z
" transform="scale(0.015625)"/>
       <path id="DejaVuSans-49" d="M 628 4666 
L 1259 4666 
L 1259 0 
L 628 0 
L 628 4666 
z
" transform="scale(0.015625)"/>
       <path id="DejaVuSans-54" d="M -19 4666 
L 3928 4666 
L 3928 4134 
L 2272 4134 
L 2272 0 
L 1638 0 
L 1638 4134 
L -19 4134 
L -19 4666 
z
" transform="scale(0.015625)"/>
       <path id="DejaVuSans-53" d="M 3425 4513 
L 3425 3897 
Q 3066 4069 2747 4153 
Q 2428 4238 2131 4238 
Q 1616 4238 1336 4038 
Q 1056 3838 1056 3469 
Q 1056 3159 1242 3001 
Q 1428 2844 1947 2747 
L 2328 2669 
Q 3034 2534 3370 2195 
Q 3706 1856 3706 1288 
Q 3706 609 3251 259 
Q 2797 -91 1919 -91 
Q 1588 -91 1214 -16 
Q 841 59 441 206 
L 441 856 
Q 825 641 1194 531 
Q 1563 422 1919 422 
Q 2459 422 2753 634 
Q 3047 847 3047 1241 
Q 3047 1584 2836 1778 
Q 2625 1972 2144 2069 
L 1759 2144 
Q 1053 2284 737 2584 
Q 422 2884 422 3419 
Q 422 4038 858 4394 
Q 1294 4750 2059 4750 
Q 2388 4750 2728 4690 
Q 3069 4631 3425 4513 
z
" transform="scale(0.015625)"/>
      </defs>
      <use xlink:href="#DejaVuSans-43"/>
      <use xlink:href="#DejaVuSans-6f" transform="translate(69.824219 0)"/>
      <use xlink:href="#DejaVuSans-6e" transform="translate(131.005859 0)"/>
      <use xlink:href="#DejaVuSans-74" transform="translate(194.384766 0)"/>
      <use xlink:href="#DejaVuSans-72" transform="translate(233.59375 0)"/>
      <use xlink:href="#DejaVuSans-6f" transform="translate(272.457031 0)"/>
      <use xlink:href="#DejaVuSans-6c" transform="translate(333.638672 0)"/>
      <use xlink:href="#DejaVuSans-6c" transform="translate(361.421875 0)"/>
      <use xlink:href="#DejaVuSans-65" transform="translate(389.205078 0)"/>
      <use xlink:href="#DejaVuSans-64" transform="translate(450.728516 0)"/>
      <use xlink:href="#DejaVuSans-20" transform="translate(514.205078 0)"/>
      <use xlink:href="#DejaVuSans-49" transform="translate(545.992188 0)"/>
      <use xlink:href="#DejaVuSans-54" transform="translate(575.484375 0)"/>
      <use xlink:href="#DejaVuSans-53" transform="translate(636.568359 0)"/>
     </g>
    </g>
    <g id="line2d_18">
     <path d="M 256.232031 39.388594 
L 265.232031 39.388594 
L 274.232031 39.388594 
" style="fill: none; stroke-dasharray: 6.66,2.88; stroke-dashoffset: 0; stroke: #7c8795; stroke-width: 1.8"/>
    </g>
    <g id="text_9">
     <!-- Counterfactual -->
     <g transform="translate(281.432031 42.538594) scale(0.09 -0.09)">
      <defs>
       <path id="DejaVuSans-75" d="M 544 1381 
L 544 3500 
L 1119 3500 
L 1119 1403 
Q 1119 906 1312 657 
Q 1506 409 1894 409 
Q 2359 409 2629 706 
Q 2900 1003 2900 1516 
L 2900 3500 
L 3475 3500 
L 3475 0 
L 2900 0 
L 2900 538 
Q 2691 219 2414 64 
Q 2138 -91 1772 -91 
Q 1169 -91 856 284 
Q 544 659 544 1381 
z
M 1991 3584 
L 1991 3584 
z
" transform="scale(0.015625)"/>
       <path id="DejaVuSans-66" d="M 2375 4863 
L 2375 4384 
L 1825 4384 
Q 1516 4384 1395 4259 
Q 1275 4134 1275 3809 
L 1275 3500 
L 2222 3500 
L 2222 3053 
L 1275 3053 
L 1275 0 
L 697 0 
L 697 3053 
L 147 3053 
L 147 3500 
L 697 3500 
L 697 3744 
Q 697 4328 969 4595 
Q 1241 4863 1831 4863 
L 2375 4863 
z
" transform="scale(0.015625)"/>
       <path id="DejaVuSans-63" d="M 3122 3366 
L 3122 2828 
Q 2878 2963 2633 3030 
Q 2388 3097 2138 3097 
Q 1578 3097 1268 2742 
Q 959 2388 959 1747 
Q 959 1106 1268 751 
Q 1578 397 2138 397 
Q 2388 397 2633 464 
Q 2878 531 3122 666 
L 3122 134 
Q 2881 22 2623 -34 
Q 2366 -91 2075 -91 
Q 1284 -91 818 406 
Q 353 903 353 1747 
Q 353 2603 823 3093 
Q 1294 3584 2113 3584 
Q 2378 3584 2631 3529 
Q 2884 3475 3122 3366 
z
" transform="scale(0.015625)"/>
      </defs>
      <use xlink:href="#DejaVuSans-43"/>
      <use xlink:href="#DejaVuSans-6f" transform="translate(69.824219 0)"/>
      <use xlink:href="#DejaVuSans-75" transform="translate(131.005859 0)"/>
      <use xlink:href="#DejaVuSans-6e" transform="translate(194.384766 0)"/>
      <use xlink:href="#DejaVuSans-74" transform="translate(257.763672 0)"/>
      <use xlink:href="#DejaVuSans-65" transform="translate(296.972656 0)"/>
      <use xlink:href="#DejaVuSans-72" transform="translate(358.496094 0)"/>
      <use xlink:href="#DejaVuSans-66" transform="translate(399.609375 0)"/>
      <use xlink:href="#DejaVuSans-61" transform="translate(434.814453 0)"/>
      <use xlink:href="#DejaVuSans-63" transform="translate(496.09375 0)"/>
      <use xlink:href="#DejaVuSans-74" transform="translate(551.074219 0)"/>
      <use xlink:href="#DejaVuSans-75" transform="translate(590.283203 0)"/>
      <use xlink:href="#DejaVuSans-61" transform="translate(653.662109 0)"/>
      <use xlink:href="#DejaVuSans-6c" transform="translate(714.941406 0)"/>
     </g>
    </g>
   </g>
  </g>
  <g id="axes_2">
   <g id="patch_5">
    <path d="M 55.42375 461.68 
L 707.90375 461.68 
L 707.90375 330.16125 
L 55.42375 330.16125 
z
" style="fill: #ffffff"/>
   </g>
   <g id="matplotlib.axis_3">
    <g id="xtick_7">
     <g id="line2d_19">
      <g>
       <use xlink:href="#mff4ecc0651" x="73.451272" y="461.68" style="stroke: #000000; stroke-width: 0.8"/>
      </g>
     </g>
     <g id="text_10">
      <!-- 0 -->
      <g transform="translate(70.588147 475.518594) scale(0.09 -0.09)">
       <use xlink:href="#DejaVuSans-30"/>
      </g>
     </g>
    </g>
    <g id="xtick_8">
     <g id="line2d_20">
      <g>
       <use xlink:href="#mff4ecc0651" x="189.757868" y="461.68" style="stroke: #000000; stroke-width: 0.8"/>
      </g>
     </g>
     <g id="text_11">
      <!-- 10 -->
      <g transform="translate(184.031618 475.518594) scale(0.09 -0.09)">
       <use xlink:href="#DejaVuSans-31"/>
       <use xlink:href="#DejaVuSans-30" transform="translate(63.623047 0)"/>
      </g>
     </g>
    </g>
    <g id="xtick_9">
     <g id="line2d_21">
      <g>
       <use xlink:href="#mff4ecc0651" x="306.064463" y="461.68" style="stroke: #000000; stroke-width: 0.8"/>
      </g>
     </g>
     <g id="text_12">
      <!-- 20 -->
      <g transform="translate(300.338213 475.518594) scale(0.09 -0.09)">
       <use xlink:href="#DejaVuSans-32"/>
       <use xlink:href="#DejaVuSans-30" transform="translate(63.623047 0)"/>
      </g>
     </g>
    </g>
    <g id="xtick_10">
     <g id="line2d_22">
      <g>
       <use xlink:href="#mff4ecc0651" x="422.371058" y="461.68" style="stroke: #000000; stroke-width: 0.8"/>
      </g>
     </g>
     <g id="text_13">
      <!-- 30 -->
      <g transform="translate(416.644808 475.518594) scale(0.09 -0.09)">
       <use xlink:href="#DejaVuSans-33"/>
       <use xlink:href="#DejaVuSans-30" transform="translate(63.623047 0)"/>
      </g>
     </g>
    </g>
    <g id="xtick_11">
     <g id="line2d_23">
      <g>
       <use xlink:href="#mff4ecc0651" x="538.677654" y="461.68" style="stroke: #000000; stroke-width: 0.8"/>
      </g>
     </g>
     <g id="text_14">
      <!-- 40 -->
      <g transform="translate(532.951404 475.518594) scale(0.09 -0.09)">
       <defs>
        <path id="DejaVuSans-34" d="M 2419 4116 
L 825 1625 
L 2419 1625 
L 2419 4116 
z
M 2253 4666 
L 3047 4666 
L 3047 1625 
L 3713 1625 
L 3713 1100 
L 3047 1100 
L 3047 0 
L 2419 0 
L 2419 1100 
L 313 1100 
L 313 1709 
L 2253 4666 
z
" transform="scale(0.015625)"/>
       </defs>
       <use xlink:href="#DejaVuSans-34"/>
       <use xlink:href="#DejaVuSans-30" transform="translate(63.623047 0)"/>
      </g>
     </g>
    </g>
    <g id="xtick_12">
     <g id="line2d_24">
      <g>
       <use xlink:href="#mff4ecc0651" x="654.984249" y="461.68" style="stroke: #000000; stroke-width: 0.8"/>
      </g>
     </g>
     <g id="text_15">
      <!-- 50 -->
      <g transform="translate(649.257999 475.518594) scale(0.09 -0.09)">
       <use xlink:href="#DejaVuSans-35"/>
       <use xlink:href="#DejaVuSans-30" transform="translate(63.623047 0)"/>
      </g>
     </g>
    </g>
    <g id="text_16">
     <!-- Week in 2024 -->
     <g transform="translate(347.504375 488.98875) scale(0.1 -0.1)">
      <defs>
       <path id="DejaVuSans-57" d="M 213 4666 
L 850 4666 
L 1831 722 
L 2809 4666 
L 3519 4666 
L 4500 722 
L 5478 4666 
L 6119 4666 
L 4947 0 
L 4153 0 
L 3169 4050 
L 2175 0 
L 1381 0 
L 213 4666 
z
" transform="scale(0.015625)"/>
       <path id="DejaVuSans-6b" d="M 581 4863 
L 1159 4863 
L 1159 1991 
L 2875 3500 
L 3609 3500 
L 1753 1863 
L 3688 0 
L 2938 0 
L 1159 1709 
L 1159 0 
L 581 0 
L 581 4863 
z
" transform="scale(0.015625)"/>
       <path id="DejaVuSans-69" d="M 603 3500 
L 1178 3500 
L 1178 0 
L 603 0 
L 603 3500 
z
M 603 4863 
L 1178 4863 
L 1178 4134 
L 603 4134 
L 603 4863 
z
" transform="scale(0.015625)"/>
      </defs>
      <use xlink:href="#DejaVuSans-57"/>
      <use xlink:href="#DejaVuSans-65" transform="translate(93.001953 0)"/>
      <use xlink:href="#DejaVuSans-65" transform="translate(154.525391 0)"/>
      <use xlink:href="#DejaVuSans-6b" transform="translate(216.048828 0)"/>
      <use xlink:href="#DejaVuSans-20" transform="translate(273.958984 0)"/>
      <use xlink:href="#DejaVuSans-69" transform="translate(305.746094 0)"/>
      <use xlink:href="#DejaVuSans-6e" transform="translate(333.529297 0)"/>
      <use xlink:href="#DejaVuSans-20" transform="translate(396.908203 0)"/>
      <use xlink:href="#DejaVuSans-32" transform="translate(428.695312 0)"/>
      <use xlink:href="#DejaVuSans-30" transform="translate(492.318359 0)"/>
      <use xlink:href="#DejaVuSans-32" transform="translate(555.941406 0)"/>
      <use xlink:href="#DejaVuSans-34" transform="translate(619.564453 0)"/>
     </g>
    </g>
   </g>
   <g id="matplotlib.axis_4">
    <g id="ytick_6">
     <g id="line2d_25">
      <g>
       <use xlink:href="#m40665978e2" x="55.42375" y="455.701875" style="stroke: #000000; stroke-width: 0.8"/>
      </g>
     </g>
     <g id="text_17">
      <!-- +0% -->
      <g transform="translate(26.604375 459.121172) scale(0.09 -0.09)">
       <defs>
        <path id="DejaVuSans-2b" d="M 2944 4013 
L 2944 2272 
L 4684 2272 
L 4684 1741 
L 2944 1741 
L 2944 0 
L 2419 0 
L 2419 1741 
L 678 1741 
L 678 2272 
L 2419 2272 
L 2419 4013 
L 2944 4013 
z
" transform="scale(0.015625)"/>
       </defs>
       <use xlink:href="#DejaVuSans-2b"/>
       <use xlink:href="#DejaVuSans-30" transform="translate(83.789062 0)"/>
       <use xlink:href="#DejaVuSans-25" transform="translate(147.412109 0)"/>
      </g>
     </g>
    </g>
    <g id="ytick_7">
     <g id="line2d_26">
      <g>
       <use xlink:href="#m40665978e2" x="55.42375" y="436.75878" style="stroke: #000000; stroke-width: 0.8"/>
      </g>
     </g>
     <g id="text_18">
      <!-- +2% -->
      <g transform="translate(26.604375 440.178077) scale(0.09 -0.09)">
       <use xlink:href="#DejaVuSans-2b"/>
       <use xlink:href="#DejaVuSans-32" transform="translate(83.789062 0)"/>
       <use xlink:href="#DejaVuSans-25" transform="translate(147.412109 0)"/>
      </g>
     </g>
    </g>
    <g id="ytick_8">
     <g id="line2d_27">
      <g>
       <use xlink:href="#m40665978e2" x="55.42375" y="417.815685" style="stroke: #000000; stroke-width: 0.8"/>
      </g>
     </g>
     <g id="text_19">
      <!-- +5% -->
      <g transform="translate(26.604375 421.234981) scale(0.09 -0.09)">
       <use xlink:href="#DejaVuSans-2b"/>
       <use xlink:href="#DejaVuSans-35" transform="translate(83.789062 0)"/>
       <use xlink:href="#DejaVuSans-25" transform="translate(147.412109 0)"/>
      </g>
     </g>
    </g>
    <g id="ytick_9">
     <g id="line2d_28">
      <g>
       <use xlink:href="#m40665978e2" x="55.42375" y="398.872589" style="stroke: #000000; stroke-width: 0.8"/>
      </g>
     </g>
     <g id="text_20">
      <!-- +8% -->
      <g transform="translate(26.604375 402.291886) scale(0.09 -0.09)">
       <defs>
        <path id="DejaVuSans-38" d="M 2034 2216 
Q 1584 2216 1326 1975 
Q 1069 1734 1069 1313 
Q 1069 891 1326 650 
Q 1584 409 2034 409 
Q 2484 409 2743 651 
Q 3003 894 3003 1313 
Q 3003 1734 2745 1975 
Q 2488 2216 2034 2216 
z
M 1403 2484 
Q 997 2584 770 2862 
Q 544 3141 544 3541 
Q 544 4100 942 4425 
Q 1341 4750 2034 4750 
Q 2731 4750 3128 4425 
Q 3525 4100 3525 3541 
Q 3525 3141 3298 2862 
Q 3072 2584 2669 2484 
Q 3125 2378 3379 2068 
Q 3634 1759 3634 1313 
Q 3634 634 3220 271 
Q 2806 -91 2034 -91 
Q 1263 -91 848 271 
Q 434 634 434 1313 
Q 434 1759 690 2068 
Q 947 2378 1403 2484 
z
M 1172 3481 
Q 1172 3119 1398 2916 
Q 1625 2713 2034 2713 
Q 2441 2713 2670 2916 
Q 2900 3119 2900 3481 
Q 2900 3844 2670 4047 
Q 2441 4250 2034 4250 
Q 1625 4250 1398 4047 
Q 1172 3844 1172 3481 
z
" transform="scale(0.015625)"/>
       </defs>
       <use xlink:href="#DejaVuSans-2b"/>
       <use xlink:href="#DejaVuSans-38" transform="translate(83.789062 0)"/>
       <use xlink:href="#DejaVuSans-25" transform="translate(147.412109 0)"/>
      </g>
     </g>
    </g>
    <g id="ytick_10">
     <g id="line2d_29">
      <g>
       <use xlink:href="#m40665978e2" x="55.42375" y="379.929494" style="stroke: #000000; stroke-width: 0.8"/>
      </g>
     </g>
     <g id="text_21">
      <!-- +10% -->
      <g transform="translate(20.878125 383.348791) scale(0.09 -0.09)">
       <use xlink:href="#DejaVuSans-2b"/>
       <use xlink:href="#DejaVuSans-31" transform="translate(83.789062 0)"/>
       <use xlink:href="#DejaVuSans-30" transform="translate(147.412109 0)"/>
       <use xlink:href="#DejaVuSans-25" transform="translate(211.035156 0)"/>
      </g>
     </g>
    </g>
    <g id="ytick_11">
     <g id="line2d_30">
      <g>
       <use xlink:href="#m40665978e2" x="55.42375" y="360.986399" style="stroke: #000000; stroke-width: 0.8"/>
      </g>
     </g>
     <g id="text_22">
      <!-- +13% -->
      <g transform="translate(20.878125 364.405696) scale(0.09 -0.09)">
       <use xlink:href="#DejaVuSans-2b"/>
       <use xlink:href="#DejaVuSans-31" transform="translate(83.789062 0)"/>
       <use xlink:href="#DejaVuSans-33" transform="translate(147.412109 0)"/>
       <use xlink:href="#DejaVuSans-25" transform="translate(211.035156 0)"/>
      </g>
     </g>
    </g>
    <g id="ytick_12">
     <g id="line2d_31">
      <g>
       <use xlink:href="#m40665978e2" x="55.42375" y="342.043304" style="stroke: #000000; stroke-width: 0.8"/>
      </g>
     </g>
     <g id="text_23">
      <!-- +15% -->
      <g transform="translate(20.878125 345.4626) scale(0.09 -0.09)">
       <use xlink:href="#DejaVuSans-2b"/>
       <use xlink:href="#DejaVuSans-31" transform="translate(83.789062 0)"/>
       <use xlink:href="#DejaVuSans-35" transform="translate(147.412109 0)"/>
       <use xlink:href="#DejaVuSans-25" transform="translate(211.035156 0)"/>
      </g>
     </g>
    </g>
    <g id="text_24">
     <!-- Estimated effect -->
     <g transform="translate(14.798438 437.151094) rotate(-90) scale(0.1 -0.1)">
      <defs>
       <path id="DejaVuSans-45" d="M 628 4666 
L 3578 4666 
L 3578 4134 
L 1259 4134 
L 1259 2753 
L 3481 2753 
L 3481 2222 
L 1259 2222 
L 1259 531 
L 3634 531 
L 3634 0 
L 628 0 
L 628 4666 
z
" transform="scale(0.015625)"/>
       <path id="DejaVuSans-6d" d="M 3328 2828 
Q 3544 3216 3844 3400 
Q 4144 3584 4550 3584 
Q 5097 3584 5394 3201 
Q 5691 2819 5691 2113 
L 5691 0 
L 5113 0 
L 5113 2094 
Q 5113 2597 4934 2840 
Q 4756 3084 4391 3084 
Q 3944 3084 3684 2787 
Q 3425 2491 3425 1978 
L 3425 0 
L 2847 0 
L 2847 2094 
Q 2847 2600 2669 2842 
Q 2491 3084 2119 3084 
Q 1678 3084 1418 2786 
Q 1159 2488 1159 1978 
L 1159 0 
L 581 0 
L 581 3500 
L 1159 3500 
L 1159 2956 
Q 1356 3278 1631 3431 
Q 1906 3584 2284 3584 
Q 2666 3584 2933 3390 
Q 3200 3197 3328 2828 
z
" transform="scale(0.015625)"/>
      </defs>
      <use xlink:href="#DejaVuSans-45"/>
      <use xlink:href="#DejaVuSans-73" transform="translate(63.183594 0)"/>
      <use xlink:href="#DejaVuSans-74" transform="translate(115.283203 0)"/>
      <use xlink:href="#DejaVuSans-69" transform="translate(154.492188 0)"/>
      <use xlink:href="#DejaVuSans-6d" transform="translate(182.275391 0)"/>
      <use xlink:href="#DejaVuSans-61" transform="translate(279.6875 0)"/>
      <use xlink:href="#DejaVuSans-74" transform="translate(340.966797 0)"/>
      <use xlink:href="#DejaVuSans-65" transform="translate(380.175781 0)"/>
      <use xlink:href="#DejaVuSans-64" transform="translate(441.699219 0)"/>
      <use xlink:href="#DejaVuSans-20" transform="translate(505.175781 0)"/>
      <use xlink:href="#DejaVuSans-65" transform="translate(536.962891 0)"/>
      <use xlink:href="#DejaVuSans-66" transform="translate(598.486328 0)"/>
      <use xlink:href="#DejaVuSans-66" transform="translate(633.691406 0)"/>
      <use xlink:href="#DejaVuSans-65" transform="translate(668.896484 0)"/>
      <use xlink:href="#DejaVuSans-63" transform="translate(730.419922 0)"/>
      <use xlink:href="#DejaVuSans-74" transform="translate(785.400391 0)"/>
     </g>
    </g>
   </g>
   <g id="line2d_32">
    <path d="M 85.081932 455.701875 
L 96.712591 455.701875 
L 108.343251 455.701875 
L 119.97391 455.701875 
L 131.60457 455.701875 
L 143.23523 455.701875 
L 154.865889 455.701875 
L 166.496549 455.701875 
L 178.127208 455.701875 
L 189.757868 455.701875 
L 201.388527 455.701875 
L 213.019187 455.701875 
L 224.649846 455.701875 
L 236.280506 455.701875 
L 247.911165 455.701875 
L 259.541825 455.701875 
L 271.172484 399.541089 
L 282.803144 397.729611 
L 294.433803 395.918134 
L 306.064463 394.106656 
L 317.695123 392.295179 
L 329.325782 390.483701 
L 340.956442 388.672223 
L 352.587101 386.860746 
L 364.217761 385.049268 
L 375.84842 383.237791 
L 387.47908 381.426313 
L 399.109739 379.614836 
L 410.740399 377.803358 
L 422.371058 375.991881 
L 434.001718 374.180403 
L 445.632377 372.368926 
L 457.263037 370.557448 
L 468.893697 368.745971 
L 480.524356 366.934493 
L 492.155016 365.123016 
L 503.785675 363.311538 
L 515.416335 361.50006 
L 527.046994 359.688583 
L 538.677654 357.877105 
L 550.308313 356.065628 
L 561.938973 354.25415 
L 573.569632 352.442673 
L 585.200292 350.631195 
L 596.830951 348.819718 
L 608.461611 347.00824 
L 620.09227 345.196763 
L 631.72293 343.385285 
L 643.35359 341.573808 
L 654.984249 339.76233 
L 666.614909 337.950853 
L 678.245568 336.139375 
" clip-path="url(#pc2d76184df)" style="fill: none; stroke: #2e8b57; stroke-width: 2; stroke-linecap: square"/>
   </g>
   <g id="line2d_33">
    <path d="M 55.42375 455.701875 
L 707.90375 455.701875 
" clip-path="url(#pc2d76184df)" style="fill: none; stroke: #7c8795; stroke-width: 0.8; stroke-linecap: square"/>
   </g>
   <g id="line2d_34">
    <path d="M 271.172484 461.68 
L 271.172484 330.16125 
" clip-path="url(#pc2d76184df)" style="fill: none; stroke-dasharray: 1.5,2.475; stroke-dashoffset: 0; stroke: #c83e2b; stroke-width: 1.5"/>
   </g>
   <g id="LineCollection_1">
    <path d="M 399.109739 409.341811 
L 399.109739 349.88786 
" clip-path="url(#pc2d76184df)" style="fill: none; stroke: #2e8b57; stroke-width: 1.5"/>
   </g>
   <g id="line2d_35">
    <defs>
     <path id="mb0c77e7133" d="M 4 0 
L -4 -0 
" style="stroke: #2e8b57"/>
    </defs>
    <g clip-path="url(#pc2d76184df)">
     <use xlink:href="#mb0c77e7133" x="399.109739" y="409.341811" style="fill: #2e8b57; stroke: #2e8b57"/>
    </g>
   </g>
   <g id="line2d_36">
    <g clip-path="url(#pc2d76184df)">
     <use xlink:href="#mb0c77e7133" x="399.109739" y="349.88786" style="fill: #2e8b57; stroke: #2e8b57"/>
    </g>
   </g>
   <g id="line2d_37">
    <defs>
     <path id="m0b33bd3941" d="M 0 3 
C 0.795609 3 1.55874 2.683901 2.12132 2.12132 
C 2.683901 1.55874 3 0.795609 3 0 
C 3 -0.795609 2.683901 -1.55874 2.12132 -2.12132 
C 1.55874 -2.683901 0.795609 -3 0 -3 
C -0.795609 -3 -1.55874 -2.683901 -2.12132 -2.12132 
C -2.683901 -1.55874 -3 -0.795609 -3 0 
C -3 0.795609 -2.683901 1.55874 -2.12132 2.12132 
C -1.55874 2.683901 -0.795609 3 0 3 
z
" style="stroke: #2e8b57"/>
    </defs>
    <g clip-path="url(#pc2d76184df)">
     <use xlink:href="#m0b33bd3941" x="399.109739" y="379.614836" style="fill: #2e8b57; stroke: #2e8b57"/>
    </g>
   </g>
   <g id="patch_6">
    <path d="M 55.42375 461.68 
L 55.42375 330.16125 
" style="fill: none; stroke: #000000; stroke-width: 0.8; stroke-linejoin: miter; stroke-linecap: square"/>
   </g>
   <g id="patch_7">
    <path d="M 55.42375 461.68 
L 707.90375 461.68 
" style="fill: none; stroke: #000000; stroke-width: 0.8; stroke-linejoin: miter; stroke-linecap: square"/>
   </g>
  </g>
  <g id="text_25">
   <!-- PAY004 Formulary Improvement: Controlled Interrupted Time Series -->
   <g transform="translate(149.403125 15.406312) scale(0.108 -0.108)">
    <defs>
     <path id="DejaVuSans-Bold-50" d="M 588 4666 
L 2584 4666 
Q 3475 4666 3951 4270 
Q 4428 3875 4428 3144 
Q 4428 2409 3951 2014 
Q 3475 1619 2584 1619 
L 1791 1619 
L 1791 0 
L 588 0 
L 588 4666 
z
M 1791 3794 
L 1791 2491 
L 2456 2491 
Q 2806 2491 2997 2661 
Q 3188 2831 3188 3144 
Q 3188 3456 2997 3625 
Q 2806 3794 2456 3794 
L 1791 3794 
z
" transform="scale(0.015625)"/>
     <path id="DejaVuSans-Bold-41" d="M 3419 850 
L 1538 850 
L 1241 0 
L 31 0 
L 1759 4666 
L 3194 4666 
L 4922 0 
L 3713 0 
L 3419 850 
z
M 1838 1716 
L 3116 1716 
L 2478 3572 
L 1838 1716 
z
" transform="scale(0.015625)"/>
     <path id="DejaVuSans-Bold-59" d="M -63 4666 
L 1253 4666 
L 2316 3003 
L 3378 4666 
L 4697 4666 
L 2919 1966 
L 2919 0 
L 1716 0 
L 1716 1966 
L -63 4666 
z
" transform="scale(0.015625)"/>
     <path id="DejaVuSans-Bold-30" d="M 2944 2338 
Q 2944 3213 2780 3570 
Q 2616 3928 2228 3928 
Q 1841 3928 1675 3570 
Q 1509 3213 1509 2338 
Q 1509 1453 1675 1090 
Q 1841 728 2228 728 
Q 2613 728 2778 1090 
Q 2944 1453 2944 2338 
z
M 4147 2328 
Q 4147 1169 3647 539 
Q 3147 -91 2228 -91 
Q 1306 -91 806 539 
Q 306 1169 306 2328 
Q 306 3491 806 4120 
Q 1306 4750 2228 4750 
Q 3147 4750 3647 4120 
Q 4147 3491 4147 2328 
z
" transform="scale(0.015625)"/>
     <path id="DejaVuSans-Bold-34" d="M 2356 3675 
L 1038 1722 
L 2356 1722 
L 2356 3675 
z
M 2156 4666 
L 3494 4666 
L 3494 1722 
L 4159 1722 
L 4159 850 
L 3494 850 
L 3494 0 
L 2356 0 
L 2356 850 
L 288 850 
L 288 1881 
L 2156 4666 
z
" transform="scale(0.015625)"/>
     <path id="DejaVuSans-Bold-20" transform="scale(0.015625)"/>
     <path id="DejaVuSans-Bold-46" d="M 588 4666 
L 3834 4666 
L 3834 3756 
L 1791 3756 
L 1791 2888 
L 3713 2888 
L 3713 1978 
L 1791 1978 
L 1791 0 
L 588 0 
L 588 4666 
z
" transform="scale(0.015625)"/>
     <path id="DejaVuSans-Bold-6f" d="M 2203 2784 
Q 1831 2784 1636 2517 
Q 1441 2250 1441 1747 
Q 1441 1244 1636 976 
Q 1831 709 2203 709 
Q 2569 709 2762 976 
Q 2956 1244 2956 1747 
Q 2956 2250 2762 2517 
Q 2569 2784 2203 2784 
z
M 2203 3584 
Q 3106 3584 3614 3096 
Q 4122 2609 4122 1747 
Q 4122 884 3614 396 
Q 3106 -91 2203 -91 
Q 1297 -91 786 396 
Q 275 884 275 1747 
Q 275 2609 786 3096 
Q 1297 3584 2203 3584 
z
" transform="scale(0.015625)"/>
     <path id="DejaVuSans-Bold-72" d="M 3138 2547 
Q 2991 2616 2845 2648 
Q 2700 2681 2553 2681 
Q 2122 2681 1889 2404 
Q 1656 2128 1656 1613 
L 1656 0 
L 538 0 
L 538 3500 
L 1656 3500 
L 1656 2925 
Q 1872 3269 2151 3426 
Q 2431 3584 2822 3584 
Q 2878 3584 2943 3579 
Q 3009 3575 3134 3559 
L 3138 2547 
z
" transform="scale(0.015625)"/>
     <path id="DejaVuSans-Bold-6d" d="M 3781 2919 
Q 3994 3244 4286 3414 
Q 4578 3584 4928 3584 
Q 5531 3584 5847 3212 
Q 6163 2841 6163 2131 
L 6163 0 
L 5038 0 
L 5038 1825 
Q 5041 1866 5042 1909 
Q 5044 1953 5044 2034 
Q 5044 2406 4934 2573 
Q 4825 2741 4581 2741 
Q 4263 2741 4089 2478 
Q 3916 2216 3909 1719 
L 3909 0 
L 2784 0 
L 2784 1825 
Q 2784 2406 2684 2573 
Q 2584 2741 2328 2741 
Q 2006 2741 1831 2477 
Q 1656 2213 1656 1722 
L 1656 0 
L 531 0 
L 531 3500 
L 1656 3500 
L 1656 2988 
Q 1863 3284 2130 3434 
Q 2397 3584 2719 3584 
Q 3081 3584 3359 3409 
Q 3638 3234 3781 2919 
z
" transform="scale(0.015625)"/>
     <path id="DejaVuSans-Bold-75" d="M 500 1363 
L 500 3500 
L 1625 3500 
L 1625 3150 
Q 1625 2866 1622 2436 
Q 1619 2006 1619 1863 
Q 1619 1441 1641 1255 
Q 1663 1069 1716 984 
Q 1784 875 1895 815 
Q 2006 756 2150 756 
Q 2500 756 2700 1025 
Q 2900 1294 2900 1772 
L 2900 3500 
L 4019 3500 
L 4019 0 
L 2900 0 
L 2900 506 
Q 2647 200 2364 54 
Q 2081 -91 1741 -91 
Q 1134 -91 817 281 
Q 500 653 500 1363 
z
" transform="scale(0.015625)"/>
     <path id="DejaVuSans-Bold-6c" d="M 538 4863 
L 1656 4863 
L 1656 0 
L 538 0 
L 538 4863 
z
" transform="scale(0.015625)"/>
     <path id="DejaVuSans-Bold-61" d="M 2106 1575 
Q 1756 1575 1579 1456 
Q 1403 1338 1403 1106 
Q 1403 894 1545 773 
Q 1688 653 1941 653 
Q 2256 653 2472 879 
Q 2688 1106 2688 1447 
L 2688 1575 
L 2106 1575 
z
M 3816 1997 
L 3816 0 
L 2688 0 
L 2688 519 
Q 2463 200 2181 54 
Q 1900 -91 1497 -91 
Q 953 -91 614 226 
Q 275 544 275 1050 
Q 275 1666 698 1953 
Q 1122 2241 2028 2241 
L 2688 2241 
L 2688 2328 
Q 2688 2594 2478 2717 
Q 2269 2841 1825 2841 
Q 1466 2841 1156 2769 
Q 847 2697 581 2553 
L 581 3406 
Q 941 3494 1303 3539 
Q 1666 3584 2028 3584 
Q 2975 3584 3395 3211 
Q 3816 2838 3816 1997 
z
" transform="scale(0.015625)"/>
     <path id="DejaVuSans-Bold-79" d="M 78 3500 
L 1197 3500 
L 2138 1125 
L 2938 3500 
L 4056 3500 
L 2584 -331 
Q 2363 -916 2067 -1148 
Q 1772 -1381 1288 -1381 
L 641 -1381 
L 641 -647 
L 991 -647 
Q 1275 -647 1404 -556 
Q 1534 -466 1606 -231 
L 1638 -134 
L 78 3500 
z
" transform="scale(0.015625)"/>
     <path id="DejaVuSans-Bold-49" d="M 588 4666 
L 1791 4666 
L 1791 0 
L 588 0 
L 588 4666 
z
" transform="scale(0.015625)"/>
     <path id="DejaVuSans-Bold-70" d="M 1656 506 
L 1656 -1331 
L 538 -1331 
L 538 3500 
L 1656 3500 
L 1656 2988 
Q 1888 3294 2169 3439 
Q 2450 3584 2816 3584 
Q 3463 3584 3878 3070 
Q 4294 2556 4294 1747 
Q 4294 938 3878 423 
Q 3463 -91 2816 -91 
Q 2450 -91 2169 54 
Q 1888 200 1656 506 
z
M 2400 2772 
Q 2041 2772 1848 2508 
Q 1656 2244 1656 1747 
Q 1656 1250 1848 986 
Q 2041 722 2400 722 
Q 2759 722 2948 984 
Q 3138 1247 3138 1747 
Q 3138 2247 2948 2509 
Q 2759 2772 2400 2772 
z
" transform="scale(0.015625)"/>
     <path id="DejaVuSans-Bold-76" d="M 97 3500 
L 1216 3500 
L 2088 1081 
L 2956 3500 
L 4078 3500 
L 2700 0 
L 1472 0 
L 97 3500 
z
" transform="scale(0.015625)"/>
     <path id="DejaVuSans-Bold-65" d="M 4031 1759 
L 4031 1441 
L 1416 1441 
Q 1456 1047 1700 850 
Q 1944 653 2381 653 
Q 2734 653 3104 758 
Q 3475 863 3866 1075 
L 3866 213 
Q 3469 63 3072 -14 
Q 2675 -91 2278 -91 
Q 1328 -91 801 392 
Q 275 875 275 1747 
Q 275 2603 792 3093 
Q 1309 3584 2216 3584 
Q 3041 3584 3536 3087 
Q 4031 2591 4031 1759 
z
M 2881 2131 
Q 2881 2450 2695 2645 
Q 2509 2841 2209 2841 
Q 1884 2841 1681 2658 
Q 1478 2475 1428 2131 
L 2881 2131 
z
" transform="scale(0.015625)"/>
     <path id="DejaVuSans-Bold-6e" d="M 4056 2131 
L 4056 0 
L 2931 0 
L 2931 347 
L 2931 1631 
Q 2931 2084 2911 2256 
Q 2891 2428 2841 2509 
Q 2775 2619 2662 2680 
Q 2550 2741 2406 2741 
Q 2056 2741 1856 2470 
Q 1656 2200 1656 1722 
L 1656 0 
L 538 0 
L 538 3500 
L 1656 3500 
L 1656 2988 
Q 1909 3294 2193 3439 
Q 2478 3584 2822 3584 
Q 3428 3584 3742 3212 
Q 4056 2841 4056 2131 
z
" transform="scale(0.015625)"/>
     <path id="DejaVuSans-Bold-74" d="M 1759 4494 
L 1759 3500 
L 2913 3500 
L 2913 2700 
L 1759 2700 
L 1759 1216 
Q 1759 972 1856 886 
Q 1953 800 2241 800 
L 2816 800 
L 2816 0 
L 1856 0 
Q 1194 0 917 276 
Q 641 553 641 1216 
L 641 2700 
L 84 2700 
L 84 3500 
L 641 3500 
L 641 4494 
L 1759 4494 
z
" transform="scale(0.015625)"/>
     <path id="DejaVuSans-Bold-3a" d="M 716 3500 
L 1844 3500 
L 1844 2291 
L 716 2291 
L 716 3500 
z
M 716 1209 
L 1844 1209 
L 1844 0 
L 716 0 
L 716 1209 
z
" transform="scale(0.015625)"/>
     <path id="DejaVuSans-Bold-43" d="M 4288 256 
Q 3956 84 3597 -3 
Q 3238 -91 2847 -91 
Q 1681 -91 1000 561 
Q 319 1213 319 2328 
Q 319 3447 1000 4098 
Q 1681 4750 2847 4750 
Q 3238 4750 3597 4662 
Q 3956 4575 4288 4403 
L 4288 3438 
Q 3953 3666 3628 3772 
Q 3303 3878 2944 3878 
Q 2300 3878 1931 3465 
Q 1563 3053 1563 2328 
Q 1563 1606 1931 1193 
Q 2300 781 2944 781 
Q 3303 781 3628 887 
Q 3953 994 4288 1222 
L 4288 256 
z
" transform="scale(0.015625)"/>
     <path id="DejaVuSans-Bold-64" d="M 2919 2988 
L 2919 4863 
L 4044 4863 
L 4044 0 
L 2919 0 
L 2919 506 
Q 2688 197 2409 53 
Q 2131 -91 1766 -91 
Q 1119 -91 703 423 
Q 288 938 288 1747 
Q 288 2556 703 3070 
Q 1119 3584 1766 3584 
Q 2128 3584 2408 3439 
Q 2688 3294 2919 2988 
z
M 2181 722 
Q 2541 722 2730 984 
Q 2919 1247 2919 1747 
Q 2919 2247 2730 2509 
Q 2541 2772 2181 2772 
Q 1825 2772 1636 2509 
Q 1447 2247 1447 1747 
Q 1447 1247 1636 984 
Q 1825 722 2181 722 
z
" transform="scale(0.015625)"/>
     <path id="DejaVuSans-Bold-54" d="M 31 4666 
L 4331 4666 
L 4331 3756 
L 2784 3756 
L 2784 0 
L 1581 0 
L 1581 3756 
L 31 3756 
L 31 4666 
z
" transform="scale(0.015625)"/>
     <path id="DejaVuSans-Bold-69" d="M 538 3500 
L 1656 3500 
L 1656 0 
L 538 0 
L 538 3500 
z
M 538 4863 
L 1656 4863 
L 1656 3950 
L 538 3950 
L 538 4863 
z
" transform="scale(0.015625)"/>
     <path id="DejaVuSans-Bold-53" d="M 3834 4519 
L 3834 3531 
Q 3450 3703 3084 3790 
Q 2719 3878 2394 3878 
Q 1963 3878 1756 3759 
Q 1550 3641 1550 3391 
Q 1550 3203 1689 3098 
Q 1828 2994 2194 2919 
L 2706 2816 
Q 3484 2659 3812 2340 
Q 4141 2022 4141 1434 
Q 4141 663 3683 286 
Q 3225 -91 2284 -91 
Q 1841 -91 1394 -6 
Q 947 78 500 244 
L 500 1259 
Q 947 1022 1364 901 
Q 1781 781 2169 781 
Q 2563 781 2772 912 
Q 2981 1044 2981 1288 
Q 2981 1506 2839 1625 
Q 2697 1744 2272 1838 
L 1806 1941 
Q 1106 2091 782 2419 
Q 459 2747 459 3303 
Q 459 4000 909 4375 
Q 1359 4750 2203 4750 
Q 2588 4750 2994 4692 
Q 3400 4634 3834 4519 
z
" transform="scale(0.015625)"/>
     <path id="DejaVuSans-Bold-73" d="M 3272 3391 
L 3272 2541 
Q 2913 2691 2578 2766 
Q 2244 2841 1947 2841 
Q 1628 2841 1473 2761 
Q 1319 2681 1319 2516 
Q 1319 2381 1436 2309 
Q 1553 2238 1856 2203 
L 2053 2175 
Q 2913 2066 3209 1816 
Q 3506 1566 3506 1031 
Q 3506 472 3093 190 
Q 2681 -91 1863 -91 
Q 1516 -91 1145 -36 
Q 775 19 384 128 
L 384 978 
Q 719 816 1070 734 
Q 1422 653 1784 653 
Q 2113 653 2278 743 
Q 2444 834 2444 1013 
Q 2444 1163 2330 1236 
Q 2216 1309 1875 1350 
L 1678 1375 
Q 931 1469 631 1722 
Q 331 1975 331 2491 
Q 331 3047 712 3315 
Q 1094 3584 1881 3584 
Q 2191 3584 2531 3537 
Q 2872 3491 3272 3391 
z
" transform="scale(0.015625)"/>
    </defs>
    <use xlink:href="#DejaVuSans-Bold-50"/>
    <use xlink:href="#DejaVuSans-Bold-41" transform="translate(64.166016 0)"/>
    <use xlink:href="#DejaVuSans-Bold-59" transform="translate(131.933594 0)"/>
    <use xlink:href="#DejaVuSans-Bold-30" transform="translate(204.345703 0)"/>
    <use xlink:href="#DejaVuSans-Bold-30" transform="translate(273.925781 0)"/>
    <use xlink:href="#DejaVuSans-Bold-34" transform="translate(343.505859 0)"/>
    <use xlink:href="#DejaVuSans-Bold-20" transform="translate(413.085938 0)"/>
    <use xlink:href="#DejaVuSans-Bold-46" transform="translate(447.900391 0)"/>
    <use xlink:href="#DejaVuSans-Bold-6f" transform="translate(512.210938 0)"/>
    <use xlink:href="#DejaVuSans-Bold-72" transform="translate(580.912109 0)"/>
    <use xlink:href="#DejaVuSans-Bold-6d" transform="translate(630.228516 0)"/>
    <use xlink:href="#DejaVuSans-Bold-75" transform="translate(734.427734 0)"/>
    <use xlink:href="#DejaVuSans-Bold-6c" transform="translate(805.619141 0)"/>
    <use xlink:href="#DejaVuSans-Bold-61" transform="translate(839.896484 0)"/>
    <use xlink:href="#DejaVuSans-Bold-72" transform="translate(907.376953 0)"/>
    <use xlink:href="#DejaVuSans-Bold-79" transform="translate(956.693359 0)"/>
    <use xlink:href="#DejaVuSans-Bold-20" transform="translate(1021.878906 0)"/>
    <use xlink:href="#DejaVuSans-Bold-49" transform="translate(1056.693359 0)"/>
    <use xlink:href="#DejaVuSans-Bold-6d" transform="translate(1093.900391 0)"/>
    <use xlink:href="#DejaVuSans-Bold-70" transform="translate(1198.099609 0)"/>
    <use xlink:href="#DejaVuSans-Bold-72" transform="translate(1269.681641 0)"/>
    <use xlink:href="#DejaVuSans-Bold-6f" transform="translate(1318.998047 0)"/>
    <use xlink:href="#DejaVuSans-Bold-76" transform="translate(1387.699219 0)"/>
    <use xlink:href="#DejaVuSans-Bold-65" transform="translate(1452.884766 0)"/>
    <use xlink:href="#DejaVuSans-Bold-6d" transform="translate(1520.707031 0)"/>
    <use xlink:href="#DejaVuSans-Bold-65" transform="translate(1624.90625 0)"/>
    <use xlink:href="#DejaVuSans-Bold-6e" transform="translate(1692.728516 0)"/>
    <use xlink:href="#DejaVuSans-Bold-74" transform="translate(1763.919922 0)"/>
    <use xlink:href="#DejaVuSans-Bold-3a" transform="translate(1811.722656 0)"/>
    <use xlink:href="#DejaVuSans-Bold-20" transform="translate(1851.712891 0)"/>
    <use xlink:href="#DejaVuSans-Bold-43" transform="translate(1886.527344 0)"/>
    <use xlink:href="#DejaVuSans-Bold-6f" transform="translate(1959.916016 0)"/>
    <use xlink:href="#DejaVuSans-Bold-6e" transform="translate(2028.617188 0)"/>
    <use xlink:href="#DejaVuSans-Bold-74" transform="translate(2099.808594 0)"/>
    <use xlink:href="#DejaVuSans-Bold-72" transform="translate(2147.611328 0)"/>
    <use xlink:href="#DejaVuSans-Bold-6f" transform="translate(2196.927734 0)"/>
    <use xlink:href="#DejaVuSans-Bold-6c" transform="translate(2265.628906 0)"/>
    <use xlink:href="#DejaVuSans-Bold-6c" transform="translate(2299.90625 0)"/>
    <use xlink:href="#DejaVuSans-Bold-65" transform="translate(2334.183594 0)"/>
    <use xlink:href="#DejaVuSans-Bold-64" transform="translate(2402.005859 0)"/>
    <use xlink:href="#DejaVuSans-Bold-20" transform="translate(2473.587891 0)"/>
    <use xlink:href="#DejaVuSans-Bold-49" transform="translate(2508.402344 0)"/>
    <use xlink:href="#DejaVuSans-Bold-6e" transform="translate(2545.609375 0)"/>
    <use xlink:href="#DejaVuSans-Bold-74" transform="translate(2616.800781 0)"/>
    <use xlink:href="#DejaVuSans-Bold-65" transform="translate(2664.603516 0)"/>
    <use xlink:href="#DejaVuSans-Bold-72" transform="translate(2732.425781 0)"/>
    <use xlink:href="#DejaVuSans-Bold-72" transform="translate(2781.742188 0)"/>
    <use xlink:href="#DejaVuSans-Bold-75" transform="translate(2831.058594 0)"/>
    <use xlink:href="#DejaVuSans-Bold-70" transform="translate(2902.25 0)"/>
    <use xlink:href="#DejaVuSans-Bold-74" transform="translate(2973.832031 0)"/>
    <use xlink:href="#DejaVuSans-Bold-65" transform="translate(3021.634766 0)"/>
    <use xlink:href="#DejaVuSans-Bold-64" transform="translate(3089.457031 0)"/>
    <use xlink:href="#DejaVuSans-Bold-20" transform="translate(3161.039062 0)"/>
    <use xlink:href="#DejaVuSans-Bold-54" transform="translate(3195.853516 0)"/>
    <use xlink:href="#DejaVuSans-Bold-69" transform="translate(3264.066406 0)"/>
    <use xlink:href="#DejaVuSans-Bold-6d" transform="translate(3298.34375 0)"/>
    <use xlink:href="#DejaVuSans-Bold-65" transform="translate(3402.542969 0)"/>
    <use xlink:href="#DejaVuSans-Bold-20" transform="translate(3470.365234 0)"/>
    <use xlink:href="#DejaVuSans-Bold-53" transform="translate(3505.179688 0)"/>
    <use xlink:href="#DejaVuSans-Bold-65" transform="translate(3577.201172 0)"/>
    <use xlink:href="#DejaVuSans-Bold-72" transform="translate(3645.023438 0)"/>
    <use xlink:href="#DejaVuSans-Bold-69" transform="translate(3694.339844 0)"/>
    <use xlink:href="#DejaVuSans-Bold-65" transform="translate(3728.617188 0)"/>
    <use xlink:href="#DejaVuSans-Bold-73" transform="translate(3796.439453 0)"/>
   </g>
  </g>
 </g>
 <defs>
  <clipPath id="p582cf50138">
   <rect x="55.42375" y="27.6" width="652.48" height="289.34125"/>
  </clipPath>
  <clipPath id="pc2d76184df">
   <rect x="55.42375" y="330.16125" width="652.48" height="131.51875"/>
  </clipPath>
 </defs>
</svg>
