<?xml version="1.0" encoding="utf-8" standalone="no"?>
<!DOCTYPE svg PUBLIC "-//W3C//DTD SVG 1.1//EN"
  "http://www.w3.org/Graphics/SVG/1.1/DTD/svg11.dtd">
<svg xmlns:xlink="http://www.w3.org/1999/xlink" width="643.062031pt" height="426.626562pt" viewBox="0 0 643.062031 426.626562" xmlns="http://www.w3.org/2000/svg" version="1.1">
 <metadata>
  <rdf:RDF xmlns:dc="http://purl.org/dc/elements/1.1/" xmlns:cc="http://creativecommons.org/ns#" xmlns:rdf="http://www.w3.org/1999/02/22-rdf-syntax-ns#">
   <cc:Work>
    <dc:type rdf:resource="http://purl.org/dc/dcmitype/StillImage"/>
    <dc:date>2026-06-21T01:03:41.071242</dc:date>
    <dc:format>image/svg+xml</dc:format>
    <dc:creator>
     <cc:Agent>
      <dc:title>Matplotlib v3.10.9, https://matplotlib.org/</dc:title>
     </cc:Agent>
    </dc:creator>
   </cc:Work>
  </rdf:RDF>
 </metadata>
 <defs>
  <style type="text/css">*{stroke-linejoin: round; stroke-linecap: butt}</style>
 </defs>
 <g id="figure_1">
  <g id="patch_1">
   <path d="M 0 426.626562
L 643.062031 426.626562
L 643.062031 0
L 0 0
z
" style="fill: #ffffff"/>
  </g>
  <g id="axes_1">
   <g id="patch_2">
    <path d="M 47.882031 390.038125
L 635.862031 390.038125
L 635.862031 22.318125
L 47.882031 22.318125
z
" style="fill: #ffffff"/>
   </g>
   <g id="PathCollection_1">
    <path d="M 75.889345 140.943653
L 59.460839 173.800665
L 92.317851 173.800665
z
" clip-path="url(#pda9708dec8)" style="fill: #c83e2b; fill-opacity: 0.78; stroke: #ffffff; stroke-opacity: 0.78; stroke-width: 0.6"/>
    <path d="M 77.888581 205.033358
L 61.837616 237.135287
L 93.939545 237.135287
z
" clip-path="url(#pda9708dec8)" style="fill: #c83e2b; fill-opacity: 0.78; stroke: #ffffff; stroke-opacity: 0.78; stroke-width: 0.6"/>
    <path d="M 326.030364 137.073428
L 310.249699 168.634757
L 341.811028 168.634757
z
" clip-path="url(#pda9708dec8)" style="fill: #c83e2b; fill-opacity: 0.78; stroke: #ffffff; stroke-opacity: 0.78; stroke-width: 0.6"/>
    <path d="M 321.887934 138.338141
L 306.363951 169.386106
L 337.411916 169.386106
z
" clip-path="url(#pda9708dec8)" style="fill: #c83e2b; fill-opacity: 0.78; stroke: #ffffff; stroke-opacity: 0.78; stroke-width: 0.6"/>
    <path d="M 72.825795 237.1406
L 57.368014 268.056162
L 88.283576 268.056162
z
" clip-path="url(#pda9708dec8)" style="fill: #c83e2b; fill-opacity: 0.78; stroke: #ffffff; stroke-opacity: 0.78; stroke-width: 0.6"/>
    <path d="M 433.20506 107.220786
L 418.000931 137.629043
L 448.409188 137.629043
z
" clip-path="url(#pda9708dec8)" style="fill: #c83e2b; fill-opacity: 0.78; stroke: #ffffff; stroke-opacity: 0.78; stroke-width: 0.6"/>
    <path d="M 328.276659 152.220818
L 313.1127 182.548735
L 343.440617 182.548735
z
" clip-path="url(#pda9708dec8)" style="fill: #c83e2b; fill-opacity: 0.78; stroke: #ffffff; stroke-opacity: 0.78; stroke-width: 0.6"/>
    <path d="M 448.874638 237.551719
L 433.771539 267.757916
L 463.977737 267.757916
z
" clip-path="url(#pda9708dec8)" style="fill: #c83e2b; fill-opacity: 0.78; stroke: #ffffff; stroke-opacity: 0.78; stroke-width: 0.6"/>
    <path d="M 436.561183 253.225989
L 421.478535 283.391285
L 451.64383 283.391285
z
" clip-path="url(#pda9708dec8)" style="fill: #c83e2b; fill-opacity: 0.78; stroke: #ffffff; stroke-opacity: 0.78; stroke-width: 0.6"/>
    <path d="M 71.711629 146.076837
L 56.701224 176.097649
L 86.722035 176.097649
z
" clip-path="url(#pda9708dec8)" style="fill: #c83e2b; fill-opacity: 0.78; stroke: #ffffff; stroke-opacity: 0.78; stroke-width: 0.6"/>
    <path d="M 331.164134 245.867711
L 316.312144 275.571691
L 346.016124 275.571691
z
" clip-path="url(#pda9708dec8)" style="fill: #c83e2b; fill-opacity: 0.78; stroke: #ffffff; stroke-opacity: 0.78; stroke-width: 0.6"/>
    <path d="M 442.266897 204.631373
L 427.611955 233.941256
L 456.921839 233.941256
z
" clip-path="url(#pda9708dec8)" style="fill: #c83e2b; fill-opacity: 0.78; stroke: #ffffff; stroke-opacity: 0.78; stroke-width: 0.6"/>
    <path d="M 440.577058 192.678176
L 426.12745 221.577392
L 455.026665 221.577392
z
" clip-path="url(#pda9708dec8)" style="fill: #c83e2b; fill-opacity: 0.78; stroke: #ffffff; stroke-opacity: 0.78; stroke-width: 0.6"/>
    <path d="M 433.616165 183.036863
L 419.430041 211.409111
L 447.802289 211.409111
z
" clip-path="url(#pda9708dec8)" style="fill: #c83e2b; fill-opacity: 0.78; stroke: #ffffff; stroke-opacity: 0.78; stroke-width: 0.6"/>
    <path d="M 439.672132 191.488381
L 425.817629 219.197387
L 453.526636 219.197387
z
" clip-path="url(#pda9708dec8)" style="fill: #c83e2b; fill-opacity: 0.78; stroke: #ffffff; stroke-opacity: 0.78; stroke-width: 0.6"/>
    <path d="M 444.540976 203.890011
L 430.903017 231.165931
L 458.178936 231.165931
z
" clip-path="url(#pda9708dec8)" style="fill: #c83e2b; fill-opacity: 0.78; stroke: #ffffff; stroke-opacity: 0.78; stroke-width: 0.6"/>
    <path d="M 66.848264 163.167872
L 53.526013 189.812375
L 80.170516 189.812375
z
" clip-path="url(#pda9708dec8)" style="fill: #c83e2b; fill-opacity: 0.78; stroke: #ffffff; stroke-opacity: 0.78; stroke-width: 0.6"/>
    <path d="M 72.806006 218.411636
L 59.498647 245.026353
L 86.113364 245.026353
z
" clip-path="url(#pda9708dec8)" style="fill: #c83e2b; fill-opacity: 0.78; stroke: #ffffff; stroke-opacity: 0.78; stroke-width: 0.6"/>
    <path d="M 63.105297 128.038485
L 50.187694 153.873691
L 76.0229 153.873691
z
" clip-path="url(#pda9708dec8)" style="fill: #c83e2b; fill-opacity: 0.78; stroke: #ffffff; stroke-opacity: 0.78; stroke-width: 0.6"/>
   </g>
   <g id="PathCollection_2">
    <path d="M 431.203299 310.90352
L 451.752524 290.354295
L 431.203299 269.80507
L 410.654074 290.354295
z
" clip-path="url(#pda9708dec8)" style="fill: #d97706; fill-opacity: 0.78; stroke: #ffffff; stroke-opacity: 0.78; stroke-width: 0.6"/>
    <path d="M 427.492659 309.642608
L 449.695144 287.440124
L 427.492659 265.237639
L 405.290175 287.440124
z
" clip-path="url(#pda9708dec8)" style="fill: #d97706; fill-opacity: 0.78; stroke: #ffffff; stroke-opacity: 0.78; stroke-width: 0.6"/>
   </g>
   <g id="PathCollection_3">
    <path d="M 438.288939 173.492888
C 441.987496 173.492888 445.535068 172.023435 448.150342 169.408161
C 450.765617 166.792886 452.235069 163.245315 452.235069 159.546758
C 452.235069 155.848201 450.765617 152.300629 448.150342 149.685355
C 445.535068 147.07008 441.987496 145.600628 438.288939 145.600628
C 434.590382 145.600628 431.042811 147.07008 428.427536 149.685355
C 425.812262 152.300629 424.342809 155.848201 424.342809 159.546758
C 424.342809 163.245315 425.812262 166.792886 428.427536 169.408161
C 431.042811 172.023435 434.590382 173.492888 438.288939 173.492888
z
" clip-path="url(#pda9708dec8)" style="fill: #2e8b57; fill-opacity: 0.78; stroke: #ffffff; stroke-opacity: 0.78; stroke-width: 0.6"/>
    <path d="M 431.351747 264.557599
C 435.338056 264.557599 439.161632 262.973822 441.980377 260.155076
C 444.799123 257.33633 446.3829 253.512754 446.3829 249.526446
C 446.3829 245.540138 444.799123 241.716562 441.980377 238.897816
C 439.161632 236.07907 435.338056 234.495293 431.351747 234.495293
C 427.365439 234.495293 423.541863 236.07907 420.723117 238.897816
C 417.904372 241.716562 416.320594 245.540138 416.320594 249.526446
C 416.320594 253.512754 417.904372 257.33633 420.723117 260.155076
C 423.541863 262.973822 427.365439 264.557599 431.351747 264.557599
z
" clip-path="url(#pda9708dec8)" style="fill: #2e8b57; fill-opacity: 0.78; stroke: #ffffff; stroke-opacity: 0.78; stroke-width: 0.6"/>
    <path d="M 441.691532 165.264506
C 445.538973 165.264506 449.229349 163.735902 451.9499 161.015351
C 454.670451 158.2948 456.199056 154.604423 456.199056 150.756983
C 456.199056 146.909543 454.670451 143.219166 451.9499 140.498615
C 449.229349 137.778064 445.538973 136.249459 441.691532 136.249459
C 437.844092 136.249459 434.153715 137.778064 431.433164 140.498615
C 428.712613 143.219166 427.184009 146.909543 427.184009 150.756983
C 427.184009 154.604423 428.712613 158.2948 431.433164 161.015351
C 434.153715 163.735902 437.844092 165.264506 441.691532 165.264506
z
" clip-path="url(#pda9708dec8)" style="fill: #2e8b57; fill-opacity: 0.78; stroke: #ffffff; stroke-opacity: 0.78; stroke-width: 0.6"/>
    <path d="M 440.922029 211.42146
C 444.738564 211.42146 448.399297 209.905135 451.097994 207.206437
C 453.796692 204.50774 455.313017 200.847007 455.313017 197.030473
C 455.313017 193.213938 453.796692 189.553205 451.097994 186.854508
C 448.399297 184.15581 444.738564 182.639485 440.922029 182.639485
C 437.105495 182.639485 433.444762 184.15581 430.746065 186.854508
C 428.047367 189.553205 426.531042 193.213938 426.531042 197.030473
C 426.531042 200.847007 428.047367 204.50774 430.746065 207.206437
C 433.444762 209.905135 437.105495 211.42146 440.922029 211.42146
z
" clip-path="url(#pda9708dec8)" style="fill: #2e8b57; fill-opacity: 0.78; stroke: #ffffff; stroke-opacity: 0.78; stroke-width: 0.6"/>
    <path d="M 438.612565 165.252978
C 442.456948 165.252978 446.144392 163.725589 448.862781 161.007199
C 451.581171 158.28881 453.10856 154.601366 453.10856 150.756983
C 453.10856 146.9126 451.581171 143.225155 448.862781 140.506766
C 446.144392 137.788377 442.456948 136.260987 438.612565 136.260987
C 434.768182 136.260987 431.080737 137.788377 428.362348 140.506766
C 425.643959 143.225155 424.116569 146.9126 424.116569 150.756983
C 424.116569 154.601366 425.643959 158.28881 428.362348 161.007199
C 431.080737 163.725589 434.768182 165.252978 438.612565 165.252978
z
" clip-path="url(#pda9708dec8)" style="fill: #2e8b57; fill-opacity: 0.78; stroke: #ffffff; stroke-opacity: 0.78; stroke-width: 0.6"/>
    <path d="M 422.956648 277.211226
C 427.022882 277.211226 430.923121 275.595694 433.798383 272.720433
C 436.673644 269.845171 438.289176 265.944932 438.289176 261.878698
C 438.289176 257.812464 436.673644 253.912225 433.798383 251.036963
C 430.923121 248.161702 427.022882 246.54617 422.956648 246.54617
C 418.890414 246.54617 414.990175 248.161702 412.114913 251.036963
C 409.239652 253.912225 407.62412 257.812464 407.62412 261.878698
C 407.62412 265.944932 409.239652 269.845171 412.114913 272.720433
C 414.990175 275.595694 418.890414 277.211226 422.956648 277.211226
z
" clip-path="url(#pda9708dec8)" style="fill: #2e8b57; fill-opacity: 0.78; stroke: #ffffff; stroke-opacity: 0.78; stroke-width: 0.6"/>
    <path d="M 436.248805 183.35016
C 440.132375 183.35016 443.857407 181.807201 446.603506 179.061102
C 449.349605 176.315003 450.892564 172.589971 450.892564 168.706401
C 450.892564 164.82283 449.349605 161.097798 446.603506 158.351699
C 443.857407 155.6056 440.132375 154.062642 436.248805 154.062642
C 432.365235 154.062642 428.640202 155.6056 425.894104 158.351699
C 423.148005 161.097798 421.605046 164.82283 421.605046 168.706401
C 421.605046 172.589971 423.148005 176.315003 425.894104 179.061102
C 428.640202 181.807201 432.365235 183.35016 436.248805 183.35016
z
" clip-path="url(#pda9708dec8)" style="fill: #2e8b57; fill-opacity: 0.78; stroke: #ffffff; stroke-opacity: 0.78; stroke-width: 0.6"/>
    <path d="M 439.542783 274.931014
C 443.77911 274.931014 447.842498 273.247903 450.838034 270.252368
C 453.833569 267.256832 455.51668 263.193444 455.51668 258.957117
C 455.51668 254.72079 453.833569 250.657401 450.838034 247.661866
C 447.842498 244.66633 443.77911 242.98322 439.542783 242.98322
C 435.306456 242.98322 431.243067 244.66633 428.247532 247.661866
C 425.251996 250.657401 423.568886 254.72079 423.568886 258.957117
C 423.568886 263.193444 425.251996 267.256832 428.247532 270.252368
C 431.243067 273.247903 435.306456 274.931014 439.542783 274.931014
z
" clip-path="url(#pda9708dec8)" style="fill: #2e8b57; fill-opacity: 0.78; stroke: #ffffff; stroke-opacity: 0.78; stroke-width: 0.6"/>
    <path d="M 440.630108 159.51398
C 444.886874 159.51398 448.969866 157.822749 451.979854 154.812761
C 454.989842 151.802774 456.681073 147.719781 456.681073 143.463016
C 456.681073 139.20625 454.989842 135.123258 451.979854 132.11327
C 448.969866 129.103282 444.886874 127.412051 440.630108 127.412051
C 436.373343 127.412051 432.29035 129.103282 429.280363 132.11327
C 426.270375 135.123258 424.579144 139.20625 424.579144 143.463016
C 424.579144 147.719781 426.270375 151.802774 429.280363 154.812761
C 432.29035 157.822749 436.373343 159.51398 440.630108 159.51398
z
" clip-path="url(#pda9708dec8)" style="fill: #2e8b57; fill-opacity: 0.78; stroke: #ffffff; stroke-opacity: 0.78; stroke-width: 0.6"/>
    <path d="M 429.586535 216.320299
C 433.087661 216.320299 436.44586 214.929288 438.92153 212.453618
C 441.397199 209.977949 442.788211 206.619749 442.788211 203.118623
C 442.788211 199.617498 441.397199 196.259298 438.92153 193.783629
C 436.44586 191.307959 433.087661 189.916947 429.586535 189.916947
C 426.08541 189.916947 422.72721 191.307959 420.251541 193.783629
C 417.775871 196.259298 416.384859 199.617498 416.384859 203.118623
C 416.384859 206.619749 417.775871 209.977949 420.251541 212.453618
C 422.72721 214.929288 426.08541 216.320299 429.586535 216.320299
z
" clip-path="url(#pda9708dec8)" style="fill: #2e8b57; fill-opacity: 0.78; stroke: #ffffff; stroke-opacity: 0.78; stroke-width: 0.6"/>
   </g>
   <g id="PathCollection_4">
    <defs>
     <path id="m7565e220e3" d="M -6.554513 13.109027
L 0 6.554513
L 6.554513 13.109027
L 13.109027 6.554513
L 6.554513 0
L 13.109027 -6.554513
L 6.554513 -13.109027
L 0 -6.554513
L -6.554513 -13.109027
L -13.109027 -6.554513
L -6.554513 0
L -13.109027 6.554513
z
" style="stroke: #ffffff; stroke-opacity: 0.78; stroke-width: 0.6"/>
    </defs>
    <g clip-path="url(#pda9708dec8)">
     <use xlink:href="#m7565e220e3" x="72.670686" y="325.944692" style="fill: #7a5aa6; fill-opacity: 0.78; stroke: #ffffff; stroke-opacity: 0.78; stroke-width: 0.6"/>
    </g>
   </g>
   <g id="matplotlib.axis_1">
    <g id="xtick_1">
     <g id="line2d_1">
      <defs>
       <path id="mff295833e1" d="M 0 0
L 0 3.5
" style="stroke: #000000; stroke-width: 0.8"/>
      </defs>
      <g>
       <use xlink:href="#mff295833e1" x="47.882031" y="390.038125" style="stroke: #000000; stroke-width: 0.8"/>
      </g>
     </g>
     <g id="text_1">
      <!-- 0.0 -->
      <g transform="translate(40.725625 403.876719) scale(0.09 -0.09)">
       <defs>
        <path id="DejaVuSans-30" d="M 2034 4250
Q 1547 4250 1301 3770
Q 1056 3291 1056 2328
Q 1056 1369 1301 889
Q 1547 409 2034 409
Q 2525 409 2770 889
Q 3016 1369 3016 2328
Q 3016 3291 2770 3770
Q 2525 4250 2034 4250
z
M 2034 4750
Q 2819 4750 3233 4129
Q 3647 3509 3647 2328
Q 3647 1150 3233 529
Q 2819 -91 2034 -91
Q 1250 -91 836 529
Q 422 1150 422 2328
Q 422 3509 836 4129
Q 1250 4750 2034 4750
z
" transform="scale(0.015625)"/>
        <path id="DejaVuSans-2e" d="M 684 794
L 1344 794
L 1344 0
L 684 0
L 684 794
z
" transform="scale(0.015625)"/>
       </defs>
       <use xlink:href="#DejaVuSans-30"/>
       <use xlink:href="#DejaVuSans-2e" transform="translate(63.623047 0)"/>
       <use xlink:href="#DejaVuSans-30" transform="translate(95.410156 0)"/>
      </g>
     </g>
    </g>
    <g id="xtick_2">
     <g id="line2d_2">
      <g>
       <use xlink:href="#mff295833e1" x="159.878222" y="390.038125" style="stroke: #000000; stroke-width: 0.8"/>
      </g>
     </g>
     <g id="text_2">
      <!-- 0.2 -->
      <g transform="translate(152.721815 403.876719) scale(0.09 -0.09)">
       <defs>
        <path id="DejaVuSans-32" d="M 1228 531
L 3431 531
L 3431 0
L 469 0
L 469 531
Q 828 903 1448 1529
Q 2069 2156 2228 2338
Q 2531 2678 2651 2914
Q 2772 3150 2772 3378
Q 2772 3750 2511 3984
Q 2250 4219 1831 4219
Q 1534 4219 1204 4116
Q 875 4013 500 3803
L 500 4441
Q 881 4594 1212 4672
Q 1544 4750 1819 4750
Q 2544 4750 2975 4387
Q 3406 4025 3406 3419
Q 3406 3131 3298 2873
Q 3191 2616 2906 2266
Q 2828 2175 2409 1742
Q 1991 1309 1228 531
z
" transform="scale(0.015625)"/>
       </defs>
       <use xlink:href="#DejaVuSans-30"/>
       <use xlink:href="#DejaVuSans-2e" transform="translate(63.623047 0)"/>
       <use xlink:href="#DejaVuSans-32" transform="translate(95.410156 0)"/>
      </g>
     </g>
    </g>
    <g id="xtick_3">
     <g id="line2d_3">
      <g>
       <use xlink:href="#mff295833e1" x="271.874412" y="390.038125" style="stroke: #000000; stroke-width: 0.8"/>
      </g>
     </g>
     <g id="text_3">
      <!-- 0.4 -->
      <g transform="translate(264.718006 403.876719) scale(0.09 -0.09)">
       <defs>
        <path id="DejaVuSans-34" d="M 2419 4116
L 825 1625
L 2419 1625
L 2419 4116
z
M 2253 4666
L 3047 4666
L 3047 1625
L 3713 1625
L 3713 1100
L 3047 1100
L 3047 0
L 2419 0
L 2419 1100
L 313 1100
L 313 1709
L 2253 4666
z
" transform="scale(0.015625)"/>
       </defs>
       <use xlink:href="#DejaVuSans-30"/>
       <use xlink:href="#DejaVuSans-2e" transform="translate(63.623047 0)"/>
       <use xlink:href="#DejaVuSans-34" transform="translate(95.410156 0)"/>
      </g>
     </g>
    </g>
    <g id="xtick_4">
     <g id="line2d_4">
      <g>
       <use xlink:href="#mff295833e1" x="383.870603" y="390.038125" style="stroke: #000000; stroke-width: 0.8"/>
      </g>
     </g>
     <g id="text_4">
      <!-- 0.6 -->
      <g transform="translate(376.714196 403.876719) scale(0.09 -0.09)">
       <defs>
        <path id="DejaVuSans-36" d="M 2113 2584
Q 1688 2584 1439 2293
Q 1191 2003 1191 1497
Q 1191 994 1439 701
Q 1688 409 2113 409
Q 2538 409 2786 701
Q 3034 994 3034 1497
Q 3034 2003 2786 2293
Q 2538 2584 2113 2584
z
M 3366 4563
L 3366 3988
Q 3128 4100 2886 4159
Q 2644 4219 2406 4219
Q 1781 4219 1451 3797
Q 1122 3375 1075 2522
Q 1259 2794 1537 2939
Q 1816 3084 2150 3084
Q 2853 3084 3261 2657
Q 3669 2231 3669 1497
Q 3669 778 3244 343
Q 2819 -91 2113 -91
Q 1303 -91 875 529
Q 447 1150 447 2328
Q 447 3434 972 4092
Q 1497 4750 2381 4750
Q 2619 4750 2861 4703
Q 3103 4656 3366 4563
z
" transform="scale(0.015625)"/>
       </defs>
       <use xlink:href="#DejaVuSans-30"/>
       <use xlink:href="#DejaVuSans-2e" transform="translate(63.623047 0)"/>
       <use xlink:href="#DejaVuSans-36" transform="translate(95.410156 0)"/>
      </g>
     </g>
    </g>
    <g id="xtick_5">
     <g id="line2d_5">
      <g>
       <use xlink:href="#mff295833e1" x="495.866793" y="390.038125" style="stroke: #000000; stroke-width: 0.8"/>
      </g>
     </g>
     <g id="text_5">
      <!-- 0.8 -->
      <g transform="translate(488.710387 403.876719) scale(0.09 -0.09)">
       <defs>
        <path id="DejaVuSans-38" d="M 2034 2216
Q 1584 2216 1326 1975
Q 1069 1734 1069 1313
Q 1069 891 1326 650
Q 1584 409 2034 409
Q 2484 409 2743 651
Q 3003 894 3003 1313
Q 3003 1734 2745 1975
Q 2488 2216 2034 2216
z
M 1403 2484
Q 997 2584 770 2862
Q 544 3141 544 3541
Q 544 4100 942 4425
Q 1341 4750 2034 4750
Q 2731 4750 3128 4425
Q 3525 4100 3525 3541
Q 3525 3141 3298 2862
Q 3072 2584 2669 2484
Q 3125 2378 3379 2068
Q 3634 1759 3634 1313
Q 3634 634 3220 271
Q 2806 -91 2034 -91
Q 1263 -91 848 271
Q 434 634 434 1313
Q 434 1759 690 2068
Q 947 2378 1403 2484
z
M 1172 3481
Q 1172 3119 1398 2916
Q 1625 2713 2034 2713
Q 2441 2713 2670 2916
Q 2900 3119 2900 3481
Q 2900 3844 2670 4047
Q 2441 4250 2034 4250
Q 1625 4250 1398 4047
Q 1172 3844 1172 3481
z
" transform="scale(0.015625)"/>
       </defs>
       <use xlink:href="#DejaVuSans-30"/>
       <use xlink:href="#DejaVuSans-2e" transform="translate(63.623047 0)"/>
       <use xlink:href="#DejaVuSans-38" transform="translate(95.410156 0)"/>
      </g>
     </g>
    </g>
    <g id="xtick_6">
     <g id="line2d_6">
      <g>
       <use xlink:href="#mff295833e1" x="607.862984" y="390.038125" style="stroke: #000000; stroke-width: 0.8"/>
      </g>
     </g>
     <g id="text_6">
      <!-- 1.0 -->
      <g transform="translate(600.706577 403.876719) scale(0.09 -0.09)">
       <defs>
        <path id="DejaVuSans-31" d="M 794 531
L 1825 531
L 1825 4091
L 703 3866
L 703 4441
L 1819 4666
L 2450 4666
L 2450 531
L 3481 531
L 3481 0
L 794 0
L 794 531
z
" transform="scale(0.015625)"/>
       </defs>
       <use xlink:href="#DejaVuSans-31"/>
       <use xlink:href="#DejaVuSans-2e" transform="translate(63.623047 0)"/>
       <use xlink:href="#DejaVuSans-30" transform="translate(95.410156 0)"/>
      </g>
     </g>
    </g>
    <g id="text_7">
     <!-- Access-quality score (scenario weighted) -->
     <g transform="translate(239.468906 417.346875) scale(0.1 -0.1)">
      <defs>
       <path id="DejaVuSans-41" d="M 2188 4044
L 1331 1722
L 3047 1722
L 2188 4044
z
M 1831 4666
L 2547 4666
L 4325 0
L 3669 0
L 3244 1197
L 1141 1197
L 716 0
L 50 0
L 1831 4666
z
" transform="scale(0.015625)"/>
       <path id="DejaVuSans-63" d="M 3122 3366
L 3122 2828
Q 2878 2963 2633 3030
Q 2388 3097 2138 3097
Q 1578 3097 1268 2742
Q 959 2388 959 1747
Q 959 1106 1268 751
Q 1578 397 2138 397
Q 2388 397 2633 464
Q 2878 531 3122 666
L 3122 134
Q 2881 22 2623 -34
Q 2366 -91 2075 -91
Q 1284 -91 818 406
Q 353 903 353 1747
Q 353 2603 823 3093
Q 1294 3584 2113 3584
Q 2378 3584 2631 3529
Q 2884 3475 3122 3366
z
" transform="scale(0.015625)"/>
       <path id="DejaVuSans-65" d="M 3597 1894
L 3597 1613
L 953 1613
Q 991 1019 1311 708
Q 1631 397 2203 397
Q 2534 397 2845 478
Q 3156 559 3463 722
L 3463 178
Q 3153 47 2828 -22
Q 2503 -91 2169 -91
Q 1331 -91 842 396
Q 353 884 353 1716
Q 353 2575 817 3079
Q 1281 3584 2069 3584
Q 2775 3584 3186 3129
Q 3597 2675 3597 1894
z
M 3022 2063
Q 3016 2534 2758 2815
Q 2500 3097 2075 3097
Q 1594 3097 1305 2825
Q 1016 2553 972 2059
L 3022 2063
z
" transform="scale(0.015625)"/>
       <path id="DejaVuSans-73" d="M 2834 3397
L 2834 2853
Q 2591 2978 2328 3040
Q 2066 3103 1784 3103
Q 1356 3103 1142 2972
Q 928 2841 928 2578
Q 928 2378 1081 2264
Q 1234 2150 1697 2047
L 1894 2003
Q 2506 1872 2764 1633
Q 3022 1394 3022 966
Q 3022 478 2636 193
Q 2250 -91 1575 -91
Q 1294 -91 989 -36
Q 684 19 347 128
L 347 722
Q 666 556 975 473
Q 1284 391 1588 391
Q 1994 391 2212 530
Q 2431 669 2431 922
Q 2431 1156 2273 1281
Q 2116 1406 1581 1522
L 1381 1569
Q 847 1681 609 1914
Q 372 2147 372 2553
Q 372 3047 722 3315
Q 1072 3584 1716 3584
Q 2034 3584 2315 3537
Q 2597 3491 2834 3397
z
" transform="scale(0.015625)"/>
       <path id="DejaVuSans-2d" d="M 313 2009
L 1997 2009
L 1997 1497
L 313 1497
L 313 2009
z
" transform="scale(0.015625)"/>
       <path id="DejaVuSans-71" d="M 947 1747
Q 947 1113 1208 752
Q 1469 391 1925 391
Q 2381 391 2643 752
Q 2906 1113 2906 1747
Q 2906 2381 2643 2742
Q 2381 3103 1925 3103
Q 1469 3103 1208 2742
Q 947 2381 947 1747
z
M 2906 525
Q 2725 213 2448 61
Q 2172 -91 1784 -91
Q 1150 -91 751 415
Q 353 922 353 1747
Q 353 2572 751 3078
Q 1150 3584 1784 3584
Q 2172 3584 2448 3432
Q 2725 3281 2906 2969
L 2906 3500
L 3481 3500
L 3481 -1331
L 2906 -1331
L 2906 525
z
" transform="scale(0.015625)"/>
       <path id="DejaVuSans-75" d="M 544 1381
L 544 3500
L 1119 3500
L 1119 1403
Q 1119 906 1312 657
Q 1506 409 1894 409
Q 2359 409 2629 706
Q 2900 1003 2900 1516
L 2900 3500
L 3475 3500
L 3475 0
L 2900 0
L 2900 538
Q 2691 219 2414 64
Q 2138 -91 1772 -91
Q 1169 -91 856 284
Q 544 659 544 1381
z
M 1991 3584
L 1991 3584
z
" transform="scale(0.015625)"/>
       <path id="DejaVuSans-61" d="M 2194 1759
Q 1497 1759 1228 1600
Q 959 1441 959 1056
Q 959 750 1161 570
Q 1363 391 1709 391
Q 2188 391 2477 730
Q 2766 1069 2766 1631
L 2766 1759
L 2194 1759
z
M 3341 1997
L 3341 0
L 2766 0
L 2766 531
Q 2569 213 2275 61
Q 1981 -91 1556 -91
Q 1019 -91 701 211
Q 384 513 384 1019
Q 384 1609 779 1909
Q 1175 2209 1959 2209
L 2766 2209
L 2766 2266
Q 2766 2663 2505 2880
Q 2244 3097 1772 3097
Q 1472 3097 1187 3025
Q 903 2953 641 2809
L 641 3341
Q 956 3463 1253 3523
Q 1550 3584 1831 3584
Q 2591 3584 2966 3190
Q 3341 2797 3341 1997
z
" transform="scale(0.015625)"/>
       <path id="DejaVuSans-6c" d="M 603 4863
L 1178 4863
L 1178 0
L 603 0
L 603 4863
z
" transform="scale(0.015625)"/>
       <path id="DejaVuSans-69" d="M 603 3500
L 1178 3500
L 1178 0
L 603 0
L 603 3500
z
M 603 4863
L 1178 4863
L 1178 4134
L 603 4134
L 603 4863
z
" transform="scale(0.015625)"/>
       <path id="DejaVuSans-74" d="M 1172 4494
L 1172 3500
L 2356 3500
L 2356 3053
L 1172 3053
L 1172 1153
Q 1172 725 1289 603
Q 1406 481 1766 481
L 2356 481
L 2356 0
L 1766 0
Q 1100 0 847 248
Q 594 497 594 1153
L 594 3053
L 172 3053
L 172 3500
L 594 3500
L 594 4494
L 1172 4494
z
" transform="scale(0.015625)"/>
       <path id="DejaVuSans-79" d="M 2059 -325
Q 1816 -950 1584 -1140
Q 1353 -1331 966 -1331
L 506 -1331
L 506 -850
L 844 -850
Q 1081 -850 1212 -737
Q 1344 -625 1503 -206
L 1606 56
L 191 3500
L 800 3500
L 1894 763
L 2988 3500
L 3597 3500
L 2059 -325
z
" transform="scale(0.015625)"/>
       <path id="DejaVuSans-20" transform="scale(0.015625)"/>
       <path id="DejaVuSans-6f" d="M 1959 3097
Q 1497 3097 1228 2736
Q 959 2375 959 1747
Q 959 1119 1226 758
Q 1494 397 1959 397
Q 2419 397 2687 759
Q 2956 1122 2956 1747
Q 2956 2369 2687 2733
Q 2419 3097 1959 3097
z
M 1959 3584
Q 2709 3584 3137 3096
Q 3566 2609 3566 1747
Q 3566 888 3137 398
Q 2709 -91 1959 -91
Q 1206 -91 779 398
Q 353 888 353 1747
Q 353 2609 779 3096
Q 1206 3584 1959 3584
z
" transform="scale(0.015625)"/>
       <path id="DejaVuSans-72" d="M 2631 2963
Q 2534 3019 2420 3045
Q 2306 3072 2169 3072
Q 1681 3072 1420 2755
Q 1159 2438 1159 1844
L 1159 0
L 581 0
L 581 3500
L 1159 3500
L 1159 2956
Q 1341 3275 1631 3429
Q 1922 3584 2338 3584
Q 2397 3584 2469 3576
Q 2541 3569 2628 3553
L 2631 2963
z
" transform="scale(0.015625)"/>
       <path id="DejaVuSans-28" d="M 1984 4856
Q 1566 4138 1362 3434
Q 1159 2731 1159 2009
Q 1159 1288 1364 580
Q 1569 -128 1984 -844
L 1484 -844
Q 1016 -109 783 600
Q 550 1309 550 2009
Q 550 2706 781 3412
Q 1013 4119 1484 4856
L 1984 4856
z
" transform="scale(0.015625)"/>
       <path id="DejaVuSans-6e" d="M 3513 2113
L 3513 0
L 2938 0
L 2938 2094
Q 2938 2591 2744 2837
Q 2550 3084 2163 3084
Q 1697 3084 1428 2787
Q 1159 2491 1159 1978
L 1159 0
L 581 0
L 581 3500
L 1159 3500
L 1159 2956
Q 1366 3272 1645 3428
Q 1925 3584 2291 3584
Q 2894 3584 3203 3211
Q 3513 2838 3513 2113
z
" transform="scale(0.015625)"/>
       <path id="DejaVuSans-77" d="M 269 3500
L 844 3500
L 1563 769
L 2278 3500
L 2956 3500
L 3675 769
L 4391 3500
L 4966 3500
L 4050 0
L 3372 0
L 2619 2869
L 1863 0
L 1184 0
L 269 3500
z
" transform="scale(0.015625)"/>
       <path id="DejaVuSans-67" d="M 2906 1791
Q 2906 2416 2648 2759
Q 2391 3103 1925 3103
Q 1463 3103 1205 2759
Q 947 2416 947 1791
Q 947 1169 1205 825
Q 1463 481 1925 481
Q 2391 481 2648 825
Q 2906 1169 2906 1791
z
M 3481 434
Q 3481 -459 3084 -895
Q 2688 -1331 1869 -1331
Q 1566 -1331 1297 -1286
Q 1028 -1241 775 -1147
L 775 -588
Q 1028 -725 1275 -790
Q 1522 -856 1778 -856
Q 2344 -856 2625 -561
Q 2906 -266 2906 331
L 2906 616
Q 2728 306 2450 153
Q 2172 0 1784 0
Q 1141 0 747 490
Q 353 981 353 1791
Q 353 2603 747 3093
Q 1141 3584 1784 3584
Q 2172 3584 2450 3431
Q 2728 3278 2906 2969
L 2906 3500
L 3481 3500
L 3481 434
z
" transform="scale(0.015625)"/>
       <path id="DejaVuSans-68" d="M 3513 2113
L 3513 0
L 2938 0
L 2938 2094
Q 2938 2591 2744 2837
Q 2550 3084 2163 3084
Q 1697 3084 1428 2787
Q 1159 2491 1159 1978
L 1159 0
L 581 0
L 581 4863
L 1159 4863
L 1159 2956
Q 1366 3272 1645 3428
Q 1925 3584 2291 3584
Q 2894 3584 3203 3211
Q 3513 2838 3513 2113
z
" transform="scale(0.015625)"/>
       <path id="DejaVuSans-64" d="M 2906 2969
L 2906 4863
L 3481 4863
L 3481 0
L 2906 0
L 2906 525
Q 2725 213 2448 61
Q 2172 -91 1784 -91
Q 1150 -91 751 415
Q 353 922 353 1747
Q 353 2572 751 3078
Q 1150 3584 1784 3584
Q 2172 3584 2448 3432
Q 2725 3281 2906 2969
z
M 947 1747
Q 947 1113 1208 752
Q 1469 391 1925 391
Q 2381 391 2643 752
Q 2906 1113 2906 1747
Q 2906 2381 2643 2742
Q 2381 3103 1925 3103
Q 1469 3103 1208 2742
Q 947 2381 947 1747
z
" transform="scale(0.015625)"/>
       <path id="DejaVuSans-29" d="M 513 4856
L 1013 4856
Q 1481 4119 1714 3412
Q 1947 2706 1947 2009
Q 1947 1309 1714 600
Q 1481 -109 1013 -844
L 513 -844
Q 928 -128 1133 580
Q 1338 1288 1338 2009
Q 1338 2731 1133 3434
Q 928 4138 513 4856
z
" transform="scale(0.015625)"/>
      </defs>
      <use xlink:href="#DejaVuSans-41"/>
      <use xlink:href="#DejaVuSans-63" transform="translate(66.658203 0)"/>
      <use xlink:href="#DejaVuSans-63" transform="translate(121.638672 0)"/>
      <use xlink:href="#DejaVuSans-65" transform="translate(176.619141 0)"/>
      <use xlink:href="#DejaVuSans-73" transform="translate(238.142578 0)"/>
      <use xlink:href="#DejaVuSans-73" transform="translate(290.242188 0)"/>
      <use xlink:href="#DejaVuSans-2d" transform="translate(342.341797 0)"/>
      <use xlink:href="#DejaVuSans-71" transform="translate(378.425781 0)"/>
      <use xlink:href="#DejaVuSans-75" transform="translate(441.902344 0)"/>
      <use xlink:href="#DejaVuSans-61" transform="translate(505.28125 0)"/>
      <use xlink:href="#DejaVuSans-6c" transform="translate(566.560547 0)"/>
      <use xlink:href="#DejaVuSans-69" transform="translate(594.34375 0)"/>
      <use xlink:href="#DejaVuSans-74" transform="translate(622.126953 0)"/>
      <use xlink:href="#DejaVuSans-79" transform="translate(661.335938 0)"/>
      <use xlink:href="#DejaVuSans-20" transform="translate(720.515625 0)"/>
      <use xlink:href="#DejaVuSans-73" transform="translate(752.302734 0)"/>
      <use xlink:href="#DejaVuSans-63" transform="translate(804.402344 0)"/>
      <use xlink:href="#DejaVuSans-6f" transform="translate(859.382812 0)"/>
      <use xlink:href="#DejaVuSans-72" transform="translate(920.564453 0)"/>
      <use xlink:href="#DejaVuSans-65" transform="translate(959.427734 0)"/>
      <use xlink:href="#DejaVuSans-20" transform="translate(1020.951172 0)"/>
      <use xlink:href="#DejaVuSans-28" transform="translate(1052.738281 0)"/>
      <use xlink:href="#DejaVuSans-73" transform="translate(1091.751953 0)"/>
      <use xlink:href="#DejaVuSans-63" transform="translate(1143.851562 0)"/>
      <use xlink:href="#DejaVuSans-65" transform="translate(1198.832031 0)"/>
      <use xlink:href="#DejaVuSans-6e" transform="translate(1260.355469 0)"/>
      <use xlink:href="#DejaVuSans-61" transform="translate(1323.734375 0)"/>
      <use xlink:href="#DejaVuSans-72" transform="translate(1385.013672 0)"/>
      <use xlink:href="#DejaVuSans-69" transform="translate(1426.126953 0)"/>
      <use xlink:href="#DejaVuSans-6f" transform="translate(1453.910156 0)"/>
      <use xlink:href="#DejaVuSans-20" transform="translate(1515.091797 0)"/>
      <use xlink:href="#DejaVuSans-77" transform="translate(1546.878906 0)"/>
      <use xlink:href="#DejaVuSans-65" transform="translate(1628.666016 0)"/>
      <use xlink:href="#DejaVuSans-69" transform="translate(1690.189453 0)"/>
      <use xlink:href="#DejaVuSans-67" transform="translate(1717.972656 0)"/>
      <use xlink:href="#DejaVuSans-68" transform="translate(1781.449219 0)"/>
      <use xlink:href="#DejaVuSans-74" transform="translate(1844.828125 0)"/>
      <use xlink:href="#DejaVuSans-65" transform="translate(1884.037109 0)"/>
      <use xlink:href="#DejaVuSans-64" transform="translate(1945.560547 0)"/>
      <use xlink:href="#DejaVuSans-29" transform="translate(2009.037109 0)"/>
     </g>
    </g>
   </g>
   <g id="matplotlib.axis_2">
    <g id="ytick_1">
     <g id="line2d_7">
      <defs>
       <path id="me03461cf0e" d="M 0 0
L -3.5 0
" style="stroke: #000000; stroke-width: 0.8"/>
      </defs>
      <g>
       <use xlink:href="#me03461cf0e" x="47.882031" y="390.038125" style="stroke: #000000; stroke-width: 0.8"/>
      </g>
     </g>
     <g id="text_8">
      <!-- 74% -->
      <g transform="translate(20.878125 393.457422) scale(0.09 -0.09)">
       <defs>
        <path id="DejaVuSans-37" d="M 525 4666
L 3525 4666
L 3525 4397
L 1831 0
L 1172 0
L 2766 4134
L 525 4134
L 525 4666
z
" transform="scale(0.015625)"/>
        <path id="DejaVuSans-25" d="M 4653 2053
Q 4381 2053 4226 1822
Q 4072 1591 4072 1178
Q 4072 772 4226 539
Q 4381 306 4653 306
Q 4919 306 5073 539
Q 5228 772 5228 1178
Q 5228 1588 5073 1820
Q 4919 2053 4653 2053
z
M 4653 2450
Q 5147 2450 5437 2106
Q 5728 1763 5728 1178
Q 5728 594 5436 251
Q 5144 -91 4653 -91
Q 4153 -91 3862 251
Q 3572 594 3572 1178
Q 3572 1766 3864 2108
Q 4156 2450 4653 2450
z
M 1428 4353
Q 1159 4353 1004 4120
Q 850 3888 850 3481
Q 850 3069 1003 2837
Q 1156 2606 1428 2606
Q 1700 2606 1854 2837
Q 2009 3069 2009 3481
Q 2009 3884 1853 4118
Q 1697 4353 1428 4353
z
M 4250 4750
L 4750 4750
L 1831 -91
L 1331 -91
L 4250 4750
z
M 1428 4750
Q 1922 4750 2215 4408
Q 2509 4066 2509 3481
Q 2509 2891 2217 2550
Q 1925 2209 1428 2209
Q 931 2209 642 2551
Q 353 2894 353 3481
Q 353 4063 643 4406
Q 934 4750 1428 4750
z
" transform="scale(0.015625)"/>
       </defs>
       <use xlink:href="#DejaVuSans-37"/>
       <use xlink:href="#DejaVuSans-34" transform="translate(63.623047 0)"/>
       <use xlink:href="#DejaVuSans-25" transform="translate(127.246094 0)"/>
      </g>
     </g>
    </g>
    <g id="ytick_2">
     <g id="line2d_8">
      <g>
       <use xlink:href="#me03461cf0e" x="47.882031" y="344.073125" style="stroke: #000000; stroke-width: 0.8"/>
      </g>
     </g>
     <g id="text_9">
      <!-- 76% -->
      <g transform="translate(20.878125 347.492422) scale(0.09 -0.09)">
       <use xlink:href="#DejaVuSans-37"/>
       <use xlink:href="#DejaVuSans-36" transform="translate(63.623047 0)"/>
       <use xlink:href="#DejaVuSans-25" transform="translate(127.246094 0)"/>
      </g>
     </g>
    </g>
    <g id="ytick_3">
     <g id="line2d_9">
      <g>
       <use xlink:href="#me03461cf0e" x="47.882031" y="298.108125" style="stroke: #000000; stroke-width: 0.8"/>
      </g>
     </g>
     <g id="text_10">
      <!-- 78% -->
      <g transform="translate(20.878125 301.527422) scale(0.09 -0.09)">
       <use xlink:href="#DejaVuSans-37"/>
       <use xlink:href="#DejaVuSans-38" transform="translate(63.623047 0)"/>
       <use xlink:href="#DejaVuSans-25" transform="translate(127.246094 0)"/>
      </g>
     </g>
    </g>
    <g id="ytick_4">
     <g id="line2d_10">
      <g>
       <use xlink:href="#me03461cf0e" x="47.882031" y="252.143125" style="stroke: #000000; stroke-width: 0.8"/>
      </g>
     </g>
     <g id="text_11">
      <!-- 80% -->
      <g transform="translate(20.878125 255.562422) scale(0.09 -0.09)">
       <use xlink:href="#DejaVuSans-38"/>
       <use xlink:href="#DejaVuSans-30" transform="translate(63.623047 0)"/>
       <use xlink:href="#DejaVuSans-25" transform="translate(127.246094 0)"/>
      </g>
     </g>
    </g>
    <g id="ytick_5">
     <g id="line2d_11">
      <g>
       <use xlink:href="#me03461cf0e" x="47.882031" y="206.178125" style="stroke: #000000; stroke-width: 0.8"/>
      </g>
     </g>
     <g id="text_12">
      <!-- 82% -->
      <g transform="translate(20.878125 209.597422) scale(0.09 -0.09)">
       <use xlink:href="#DejaVuSans-38"/>
       <use xlink:href="#DejaVuSans-32" transform="translate(63.623047 0)"/>
       <use xlink:href="#DejaVuSans-25" transform="translate(127.246094 0)"/>
      </g>
     </g>
    </g>
    <g id="ytick_6">
     <g id="line2d_12">
      <g>
       <use xlink:href="#me03461cf0e" x="47.882031" y="160.213125" style="stroke: #000000; stroke-width: 0.8"/>
      </g>
     </g>
     <g id="text_13">
      <!-- 84% -->
      <g transform="translate(20.878125 163.632422) scale(0.09 -0.09)">
       <use xlink:href="#DejaVuSans-38"/>
       <use xlink:href="#DejaVuSans-34" transform="translate(63.623047 0)"/>
       <use xlink:href="#DejaVuSans-25" transform="translate(127.246094 0)"/>
      </g>
     </g>
    </g>
    <g id="ytick_7">
     <g id="line2d_13">
      <g>
       <use xlink:href="#me03461cf0e" x="47.882031" y="114.248125" style="stroke: #000000; stroke-width: 0.8"/>
      </g>
     </g>
     <g id="text_14">
      <!-- 86% -->
      <g transform="translate(20.878125 117.667422) scale(0.09 -0.09)">
       <use xlink:href="#DejaVuSans-38"/>
       <use xlink:href="#DejaVuSans-36" transform="translate(63.623047 0)"/>
       <use xlink:href="#DejaVuSans-25" transform="translate(127.246094 0)"/>
      </g>
     </g>
    </g>
    <g id="ytick_8">
     <g id="line2d_14">
      <g>
       <use xlink:href="#me03461cf0e" x="47.882031" y="68.283125" style="stroke: #000000; stroke-width: 0.8"/>
      </g>
     </g>
     <g id="text_15">
      <!-- 88% -->
      <g transform="translate(20.878125 71.702422) scale(0.09 -0.09)">
       <use xlink:href="#DejaVuSans-38"/>
       <use xlink:href="#DejaVuSans-38" transform="translate(63.623047 0)"/>
       <use xlink:href="#DejaVuSans-25" transform="translate(127.246094 0)"/>
      </g>
     </g>
    </g>
    <g id="ytick_9">
     <g id="line2d_15">
      <g>
       <use xlink:href="#me03461cf0e" x="47.882031" y="22.318125" style="stroke: #000000; stroke-width: 0.8"/>
      </g>
     </g>
     <g id="text_16">
      <!-- 90% -->
      <g transform="translate(20.878125 25.737422) scale(0.09 -0.09)">
       <defs>
        <path id="DejaVuSans-39" d="M 703 97
L 703 672
Q 941 559 1184 500
Q 1428 441 1663 441
Q 2288 441 2617 861
Q 2947 1281 2994 2138
Q 2813 1869 2534 1725
Q 2256 1581 1919 1581
Q 1219 1581 811 2004
Q 403 2428 403 3163
Q 403 3881 828 4315
Q 1253 4750 1959 4750
Q 2769 4750 3195 4129
Q 3622 3509 3622 2328
Q 3622 1225 3098 567
Q 2575 -91 1691 -91
Q 1453 -91 1209 -44
Q 966 3 703 97
z
M 1959 2075
Q 2384 2075 2632 2365
Q 2881 2656 2881 3163
Q 2881 3666 2632 3958
Q 2384 4250 1959 4250
Q 1534 4250 1286 3958
Q 1038 3666 1038 3163
Q 1038 2656 1286 2365
Q 1534 2075 1959 2075
z
" transform="scale(0.015625)"/>
       </defs>
       <use xlink:href="#DejaVuSans-39"/>
       <use xlink:href="#DejaVuSans-30" transform="translate(63.623047 0)"/>
       <use xlink:href="#DejaVuSans-25" transform="translate(127.246094 0)"/>
      </g>
     </g>
    </g>
    <g id="text_17">
     <!-- Partially pooled Roventra share -->
     <g transform="translate(14.798438 284.388281) rotate(-90) scale(0.1 -0.1)">
      <defs>
       <path id="DejaVuSans-50" d="M 1259 4147
L 1259 2394
L 2053 2394
Q 2494 2394 2734 2622
Q 2975 2850 2975 3272
Q 2975 3691 2734 3919
Q 2494 4147 2053 4147
L 1259 4147
z
M 628 4666
L 2053 4666
Q 2838 4666 3239 4311
Q 3641 3956 3641 3272
Q 3641 2581 3239 2228
Q 2838 1875 2053 1875
L 1259 1875
L 1259 0
L 628 0
L 628 4666
z
" transform="scale(0.015625)"/>
       <path id="DejaVuSans-70" d="M 1159 525
L 1159 -1331
L 581 -1331
L 581 3500
L 1159 3500
L 1159 2969
Q 1341 3281 1617 3432
Q 1894 3584 2278 3584
Q 2916 3584 3314 3078
Q 3713 2572 3713 1747
Q 3713 922 3314 415
Q 2916 -91 2278 -91
Q 1894 -91 1617 61
Q 1341 213 1159 525
z
M 3116 1747
Q 3116 2381 2855 2742
Q 2594 3103 2138 3103
Q 1681 3103 1420 2742
Q 1159 2381 1159 1747
Q 1159 1113 1420 752
Q 1681 391 2138 391
Q 2594 391 2855 752
Q 3116 1113 3116 1747
z
" transform="scale(0.015625)"/>
       <path id="DejaVuSans-52" d="M 2841 2188
Q 3044 2119 3236 1894
Q 3428 1669 3622 1275
L 4263 0
L 3584 0
L 2988 1197
Q 2756 1666 2539 1819
Q 2322 1972 1947 1972
L 1259 1972
L 1259 0
L 628 0
L 628 4666
L 2053 4666
Q 2853 4666 3247 4331
Q 3641 3997 3641 3322
Q 3641 2881 3436 2590
Q 3231 2300 2841 2188
z
M 1259 4147
L 1259 2491
L 2053 2491
Q 2509 2491 2742 2702
Q 2975 2913 2975 3322
Q 2975 3731 2742 3939
Q 2509 4147 2053 4147
L 1259 4147
z
" transform="scale(0.015625)"/>
       <path id="DejaVuSans-76" d="M 191 3500
L 800 3500
L 1894 563
L 2988 3500
L 3597 3500
L 2284 0
L 1503 0
L 191 3500
z
" transform="scale(0.015625)"/>
      </defs>
      <use xlink:href="#DejaVuSans-50"/>
      <use xlink:href="#DejaVuSans-61" transform="translate(55.802734 0)"/>
      <use xlink:href="#DejaVuSans-72" transform="translate(117.082031 0)"/>
      <use xlink:href="#DejaVuSans-74" transform="translate(158.195312 0)"/>
      <use xlink:href="#DejaVuSans-69" transform="translate(197.404297 0)"/>
      <use xlink:href="#DejaVuSans-61" transform="translate(225.1875 0)"/>
      <use xlink:href="#DejaVuSans-6c" transform="translate(286.466797 0)"/>
      <use xlink:href="#DejaVuSans-6c" transform="translate(314.25 0)"/>
      <use xlink:href="#DejaVuSans-79" transform="translate(342.033203 0)"/>
      <use xlink:href="#DejaVuSans-20" transform="translate(401.212891 0)"/>
      <use xlink:href="#DejaVuSans-70" transform="translate(433 0)"/>
      <use xlink:href="#DejaVuSans-6f" transform="translate(496.476562 0)"/>
      <use xlink:href="#DejaVuSans-6f" transform="translate(557.658203 0)"/>
      <use xlink:href="#DejaVuSans-6c" transform="translate(618.839844 0)"/>
      <use xlink:href="#DejaVuSans-65" transform="translate(646.623047 0)"/>
      <use xlink:href="#DejaVuSans-64" transform="translate(708.146484 0)"/>
      <use xlink:href="#DejaVuSans-20" transform="translate(771.623047 0)"/>
      <use xlink:href="#DejaVuSans-52" transform="translate(803.410156 0)"/>
      <use xlink:href="#DejaVuSans-6f" transform="translate(868.392578 0)"/>
      <use xlink:href="#DejaVuSans-76" transform="translate(929.574219 0)"/>
      <use xlink:href="#DejaVuSans-65" transform="translate(988.753906 0)"/>
      <use xlink:href="#DejaVuSans-6e" transform="translate(1050.277344 0)"/>
      <use xlink:href="#DejaVuSans-74" transform="translate(1113.65625 0)"/>
      <use xlink:href="#DejaVuSans-72" transform="translate(1152.865234 0)"/>
      <use xlink:href="#DejaVuSans-61" transform="translate(1193.978516 0)"/>
      <use xlink:href="#DejaVuSans-20" transform="translate(1255.257812 0)"/>
      <use xlink:href="#DejaVuSans-73" transform="translate(1287.044922 0)"/>
      <use xlink:href="#DejaVuSans-68" transform="translate(1339.144531 0)"/>
      <use xlink:href="#DejaVuSans-61" transform="translate(1402.523438 0)"/>
      <use xlink:href="#DejaVuSans-72" transform="translate(1463.802734 0)"/>
      <use xlink:href="#DejaVuSans-65" transform="translate(1502.666016 0)"/>
     </g>
    </g>
   </g>
   <g id="line2d_16">
    <path d="M 47.882031 206.178125
L 635.862031 206.178125
" clip-path="url(#pda9708dec8)" style="fill: none; stroke-dasharray: 3.7,1.6; stroke-dashoffset: 0; stroke: #7c8795"/>
   </g>
   <g id="patch_3">
    <path d="M 47.882031 390.038125
L 47.882031 22.318125
" style="fill: none; stroke: #000000; stroke-width: 0.8; stroke-linejoin: miter; stroke-linecap: square"/>
   </g>
   <g id="patch_4">
    <path d="M 47.882031 390.038125
L 635.862031 390.038125
" style="fill: none; stroke: #000000; stroke-width: 0.8; stroke-linejoin: miter; stroke-linecap: square"/>
   </g>
   <g id="text_18">
    <!-- PAY002 NO -->
    <g transform="translate(80.889345 152.372159) scale(0.07 -0.07)">
     <defs>
      <path id="DejaVuSans-59" d="M -13 4666
L 666 4666
L 1959 2747
L 3244 4666
L 3922 4666
L 2272 2222
L 2272 0
L 1638 0
L 1638 2222
L -13 4666
z
" transform="scale(0.015625)"/>
      <path id="DejaVuSans-4e" d="M 628 4666
L 1478 4666
L 3547 763
L 3547 4666
L 4159 4666
L 4159 0
L 3309 0
L 1241 3903
L 1241 0
L 628 0
L 628 4666
z
" transform="scale(0.015625)"/>
      <path id="DejaVuSans-4f" d="M 2522 4238
Q 1834 4238 1429 3725
Q 1025 3213 1025 2328
Q 1025 1447 1429 934
Q 1834 422 2522 422
Q 3209 422 3611 934
Q 4013 1447 4013 2328
Q 4013 3213 3611 3725
Q 3209 4238 2522 4238
z
M 2522 4750
Q 3503 4750 4090 4092
Q 4678 3434 4678 2328
Q 4678 1225 4090 567
Q 3503 -91 2522 -91
Q 1538 -91 948 565
Q 359 1222 359 2328
Q 359 3434 948 4092
Q 1538 4750 2522 4750
z
" transform="scale(0.015625)"/>
     </defs>
     <use xlink:href="#DejaVuSans-50"/>
     <use xlink:href="#DejaVuSans-41" transform="translate(53.927734 0)"/>
     <use xlink:href="#DejaVuSans-59" transform="translate(114.585938 0)"/>
     <use xlink:href="#DejaVuSans-30" transform="translate(175.669922 0)"/>
     <use xlink:href="#DejaVuSans-30" transform="translate(239.292969 0)"/>
     <use xlink:href="#DejaVuSans-32" transform="translate(302.916016 0)"/>
     <use xlink:href="#DejaVuSans-20" transform="translate(366.539062 0)"/>
     <use xlink:href="#DejaVuSans-4e" transform="translate(398.326172 0)"/>
     <use xlink:href="#DejaVuSans-4f" transform="translate(473.130859 0)"/>
    </g>
   </g>
   <g id="text_19">
    <!-- PAY002 MI -->
    <g transform="translate(82.888581 216.084322) scale(0.07 -0.07)">
     <defs>
      <path id="DejaVuSans-4d" d="M 628 4666
L 1569 4666
L 2759 1491
L 3956 4666
L 4897 4666
L 4897 0
L 4281 0
L 4281 4097
L 3078 897
L 2444 897
L 1241 4097
L 1241 0
L 628 0
L 628 4666
z
" transform="scale(0.015625)"/>
      <path id="DejaVuSans-49" d="M 628 4666
L 1259 4666
L 1259 0
L 628 0
L 628 4666
z
" transform="scale(0.015625)"/>
     </defs>
     <use xlink:href="#DejaVuSans-50"/>
     <use xlink:href="#DejaVuSans-41" transform="translate(53.927734 0)"/>
     <use xlink:href="#DejaVuSans-59" transform="translate(114.585938 0)"/>
     <use xlink:href="#DejaVuSans-30" transform="translate(175.669922 0)"/>
     <use xlink:href="#DejaVuSans-30" transform="translate(239.292969 0)"/>
     <use xlink:href="#DejaVuSans-32" transform="translate(302.916016 0)"/>
     <use xlink:href="#DejaVuSans-20" transform="translate(366.539062 0)"/>
     <use xlink:href="#DejaVuSans-4d" transform="translate(398.326172 0)"/>
     <use xlink:href="#DejaVuSans-49" transform="translate(484.605469 0)"/>
    </g>
   </g>
   <g id="text_20">
    <!-- PAY001 NO -->
    <g transform="translate(331.030364 147.854092) scale(0.07 -0.07)">
     <use xlink:href="#DejaVuSans-50"/>
     <use xlink:href="#DejaVuSans-41" transform="translate(53.927734 0)"/>
     <use xlink:href="#DejaVuSans-59" transform="translate(114.585938 0)"/>
     <use xlink:href="#DejaVuSans-30" transform="translate(175.669922 0)"/>
     <use xlink:href="#DejaVuSans-30" transform="translate(239.292969 0)"/>
     <use xlink:href="#DejaVuSans-31" transform="translate(302.916016 0)"/>
     <use xlink:href="#DejaVuSans-20" transform="translate(366.539062 0)"/>
     <use xlink:href="#DejaVuSans-4e" transform="translate(398.326172 0)"/>
     <use xlink:href="#DejaVuSans-4f" transform="translate(473.130859 0)"/>
    </g>
   </g>
   <g id="text_21">
    <!-- Access and Adoption Evidence Produce Different Actions -->
    <g transform="translate(149.497969 16.318125) scale(0.12 -0.12)">
     <defs>
      <path id="DejaVuSans-Bold-41" d="M 3419 850
L 1538 850
L 1241 0
L 31 0
L 1759 4666
L 3194 4666
L 4922 0
L 3713 0
L 3419 850
z
M 1838 1716
L 3116 1716
L 2478 3572
L 1838 1716
z
" transform="scale(0.015625)"/>
      <path id="DejaVuSans-Bold-63" d="M 3366 3391
L 3366 2478
Q 3138 2634 2908 2709
Q 2678 2784 2431 2784
Q 1963 2784 1702 2511
Q 1441 2238 1441 1747
Q 1441 1256 1702 982
Q 1963 709 2431 709
Q 2694 709 2930 787
Q 3166 866 3366 1019
L 3366 103
Q 3103 6 2833 -42
Q 2563 -91 2291 -91
Q 1344 -91 809 395
Q 275 881 275 1747
Q 275 2613 809 3098
Q 1344 3584 2291 3584
Q 2566 3584 2833 3536
Q 3100 3488 3366 3391
z
" transform="scale(0.015625)"/>
      <path id="DejaVuSans-Bold-65" d="M 4031 1759
L 4031 1441
L 1416 1441
Q 1456 1047 1700 850
Q 1944 653 2381 653
Q 2734 653 3104 758
Q 3475 863 3866 1075
L 3866 213
Q 3469 63 3072 -14
Q 2675 -91 2278 -91
Q 1328 -91 801 392
Q 275 875 275 1747
Q 275 2603 792 3093
Q 1309 3584 2216 3584
Q 3041 3584 3536 3087
Q 4031 2591 4031 1759
z
M 2881 2131
Q 2881 2450 2695 2645
Q 2509 2841 2209 2841
Q 1884 2841 1681 2658
Q 1478 2475 1428 2131
L 2881 2131
z
" transform="scale(0.015625)"/>
      <path id="DejaVuSans-Bold-73" d="M 3272 3391
L 3272 2541
Q 2913 2691 2578 2766
Q 2244 2841 1947 2841
Q 1628 2841 1473 2761
Q 1319 2681 1319 2516
Q 1319 2381 1436 2309
Q 1553 2238 1856 2203
L 2053 2175
Q 2913 2066 3209 1816
Q 3506 1566 3506 1031
Q 3506 472 3093 190
Q 2681 -91 1863 -91
Q 1516 -91 1145 -36
Q 775 19 384 128
L 384 978
Q 719 816 1070 734
Q 1422 653 1784 653
Q 2113 653 2278 743
Q 2444 834 2444 1013
Q 2444 1163 2330 1236
Q 2216 1309 1875 1350
L 1678 1375
Q 931 1469 631 1722
Q 331 1975 331 2491
Q 331 3047 712 3315
Q 1094 3584 1881 3584
Q 2191 3584 2531 3537
Q 2872 3491 3272 3391
z
" transform="scale(0.015625)"/>
      <path id="DejaVuSans-Bold-20" transform="scale(0.015625)"/>
      <path id="DejaVuSans-Bold-61" d="M 2106 1575
Q 1756 1575 1579 1456
Q 1403 1338 1403 1106
Q 1403 894 1545 773
Q 1688 653 1941 653
Q 2256 653 2472 879
Q 2688 1106 2688 1447
L 2688 1575
L 2106 1575
z
M 3816 1997
L 3816 0
L 2688 0
L 2688 519
Q 2463 200 2181 54
Q 1900 -91 1497 -91
Q 953 -91 614 226
Q 275 544 275 1050
Q 275 1666 698 1953
Q 1122 2241 2028 2241
L 2688 2241
L 2688 2328
Q 2688 2594 2478 2717
Q 2269 2841 1825 2841
Q 1466 2841 1156 2769
Q 847 2697 581 2553
L 581 3406
Q 941 3494 1303 3539
Q 1666 3584 2028 3584
Q 2975 3584 3395 3211
Q 3816 2838 3816 1997
z
" transform="scale(0.015625)"/>
      <path id="DejaVuSans-Bold-6e" d="M 4056 2131
L 4056 0
L 2931 0
L 2931 347
L 2931 1631
Q 2931 2084 2911 2256
Q 2891 2428 2841 2509
Q 2775 2619 2662 2680
Q 2550 2741 2406 2741
Q 2056 2741 1856 2470
Q 1656 2200 1656 1722
L 1656 0
L 538 0
L 538 3500
L 1656 3500
L 1656 2988
Q 1909 3294 2193 3439
Q 2478 3584 2822 3584
Q 3428 3584 3742 3212
Q 4056 2841 4056 2131
z
" transform="scale(0.015625)"/>
      <path id="DejaVuSans-Bold-64" d="M 2919 2988
L 2919 4863
L 4044 4863
L 4044 0
L 2919 0
L 2919 506
Q 2688 197 2409 53
Q 2131 -91 1766 -91
Q 1119 -91 703 423
Q 288 938 288 1747
Q 288 2556 703 3070
Q 1119 3584 1766 3584
Q 2128 3584 2408 3439
Q 2688 3294 2919 2988
z
M 2181 722
Q 2541 722 2730 984
Q 2919 1247 2919 1747
Q 2919 2247 2730 2509
Q 2541 2772 2181 2772
Q 1825 2772 1636 2509
Q 1447 2247 1447 1747
Q 1447 1247 1636 984
Q 1825 722 2181 722
z
" transform="scale(0.015625)"/>
      <path id="DejaVuSans-Bold-6f" d="M 2203 2784
Q 1831 2784 1636 2517
Q 1441 2250 1441 1747
Q 1441 1244 1636 976
Q 1831 709 2203 709
Q 2569 709 2762 976
Q 2956 1244 2956 1747
Q 2956 2250 2762 2517
Q 2569 2784 2203 2784
z
M 2203 3584
Q 3106 3584 3614 3096
Q 4122 2609 4122 1747
Q 4122 884 3614 396
Q 3106 -91 2203 -91
Q 1297 -91 786 396
Q 275 884 275 1747
Q 275 2609 786 3096
Q 1297 3584 2203 3584
z
" transform="scale(0.015625)"/>
      <path id="DejaVuSans-Bold-70" d="M 1656 506
L 1656 -1331
L 538 -1331
L 538 3500
L 1656 3500
L 1656 2988
Q 1888 3294 2169 3439
Q 2450 3584 2816 3584
Q 3463 3584 3878 3070
Q 4294 2556 4294 1747
Q 4294 938 3878 423
Q 3463 -91 2816 -91
Q 2450 -91 2169 54
Q 1888 200 1656 506
z
M 2400 2772
Q 2041 2772 1848 2508
Q 1656 2244 1656 1747
Q 1656 1250 1848 986
Q 2041 722 2400 722
Q 2759 722 2948 984
Q 3138 1247 3138 1747
Q 3138 2247 2948 2509
Q 2759 2772 2400 2772
z
" transform="scale(0.015625)"/>
      <path id="DejaVuSans-Bold-74" d="M 1759 4494
L 1759 3500
L 2913 3500
L 2913 2700
L 1759 2700
L 1759 1216
Q 1759 972 1856 886
Q 1953 800 2241 800
L 2816 800
L 2816 0
L 1856 0
Q 1194 0 917 276
Q 641 553 641 1216
L 641 2700
L 84 2700
L 84 3500
L 641 3500
L 641 4494
L 1759 4494
z
" transform="scale(0.015625)"/>
      <path id="DejaVuSans-Bold-69" d="M 538 3500
L 1656 3500
L 1656 0
L 538 0
L 538 3500
z
M 538 4863
L 1656 4863
L 1656 3950
L 538 3950
L 538 4863
z
" transform="scale(0.015625)"/>
      <path id="DejaVuSans-Bold-45" d="M 588 4666
L 3834 4666
L 3834 3756
L 1791 3756
L 1791 2888
L 3713 2888
L 3713 1978
L 1791 1978
L 1791 909
L 3903 909
L 3903 0
L 588 0
L 588 4666
z
" transform="scale(0.015625)"/>
      <path id="DejaVuSans-Bold-76" d="M 97 3500
L 1216 3500
L 2088 1081
L 2956 3500
L 4078 3500
L 2700 0
L 1472 0
L 97 3500
z
" transform="scale(0.015625)"/>
      <path id="DejaVuSans-Bold-50" d="M 588 4666
L 2584 4666
Q 3475 4666 3951 4270
Q 4428 3875 4428 3144
Q 4428 2409 3951 2014
Q 3475 1619 2584 1619
L 1791 1619
L 1791 0
L 588 0
L 588 4666
z
M 1791 3794
L 1791 2491
L 2456 2491
Q 2806 2491 2997 2661
Q 3188 2831 3188 3144
Q 3188 3456 2997 3625
Q 2806 3794 2456 3794
L 1791 3794
z
" transform="scale(0.015625)"/>
      <path id="DejaVuSans-Bold-72" d="M 3138 2547
Q 2991 2616 2845 2648
Q 2700 2681 2553 2681
Q 2122 2681 1889 2404
Q 1656 2128 1656 1613
L 1656 0
L 538 0
L 538 3500
L 1656 3500
L 1656 2925
Q 1872 3269 2151 3426
Q 2431 3584 2822 3584
Q 2878 3584 2943 3579
Q 3009 3575 3134 3559
L 3138 2547
z
" transform="scale(0.015625)"/>
      <path id="DejaVuSans-Bold-75" d="M 500 1363
L 500 3500
L 1625 3500
L 1625 3150
Q 1625 2866 1622 2436
Q 1619 2006 1619 1863
Q 1619 1441 1641 1255
Q 1663 1069 1716 984
Q 1784 875 1895 815
Q 2006 756 2150 756
Q 2500 756 2700 1025
Q 2900 1294 2900 1772
L 2900 3500
L 4019 3500
L 4019 0
L 2900 0
L 2900 506
Q 2647 200 2364 54
Q 2081 -91 1741 -91
Q 1134 -91 817 281
Q 500 653 500 1363
z
" transform="scale(0.015625)"/>
      <path id="DejaVuSans-Bold-44" d="M 1791 3756
L 1791 909
L 2222 909
Q 2959 909 3348 1275
Q 3738 1641 3738 2338
Q 3738 3031 3350 3393
Q 2963 3756 2222 3756
L 1791 3756
z
M 588 4666
L 1856 4666
Q 2919 4666 3439 4514
Q 3959 4363 4331 4000
Q 4659 3684 4818 3271
Q 4978 2859 4978 2338
Q 4978 1809 4818 1395
Q 4659 981 4331 666
Q 3956 303 3431 151
Q 2906 0 1856 0
L 588 0
L 588 4666
z
" transform="scale(0.015625)"/>
      <path id="DejaVuSans-Bold-66" d="M 2841 4863
L 2841 4128
L 2222 4128
Q 1984 4128 1890 4042
Q 1797 3956 1797 3744
L 1797 3500
L 2753 3500
L 2753 2700
L 1797 2700
L 1797 0
L 678 0
L 678 2700
L 122 2700
L 122 3500
L 678 3500
L 678 3744
Q 678 4316 997 4589
Q 1316 4863 1984 4863
L 2841 4863
z
" transform="scale(0.015625)"/>
     </defs>
     <use xlink:href="#DejaVuSans-Bold-41"/>
     <use xlink:href="#DejaVuSans-Bold-63" transform="translate(77.392578 0)"/>
     <use xlink:href="#DejaVuSans-Bold-63" transform="translate(136.669922 0)"/>
     <use xlink:href="#DejaVuSans-Bold-65" transform="translate(195.947266 0)"/>
     <use xlink:href="#DejaVuSans-Bold-73" transform="translate(263.769531 0)"/>
     <use xlink:href="#DejaVuSans-Bold-73" transform="translate(323.291016 0)"/>
     <use xlink:href="#DejaVuSans-Bold-20" transform="translate(382.8125 0)"/>
     <use xlink:href="#DejaVuSans-Bold-61" transform="translate(417.626953 0)"/>
     <use xlink:href="#DejaVuSans-Bold-6e" transform="translate(485.107422 0)"/>
     <use xlink:href="#DejaVuSans-Bold-64" transform="translate(556.298828 0)"/>
     <use xlink:href="#DejaVuSans-Bold-20" transform="translate(627.880859 0)"/>
     <use xlink:href="#DejaVuSans-Bold-41" transform="translate(662.695312 0)"/>
     <use xlink:href="#DejaVuSans-Bold-64" transform="translate(740.087891 0)"/>
     <use xlink:href="#DejaVuSans-Bold-6f" transform="translate(811.669922 0)"/>
     <use xlink:href="#DejaVuSans-Bold-70" transform="translate(880.371094 0)"/>
     <use xlink:href="#DejaVuSans-Bold-74" transform="translate(951.953125 0)"/>
     <use xlink:href="#DejaVuSans-Bold-69" transform="translate(999.755859 0)"/>
     <use xlink:href="#DejaVuSans-Bold-6f" transform="translate(1034.033203 0)"/>
     <use xlink:href="#DejaVuSans-Bold-6e" transform="translate(1102.734375 0)"/>
     <use xlink:href="#DejaVuSans-Bold-20" transform="translate(1173.925781 0)"/>
     <use xlink:href="#DejaVuSans-Bold-45" transform="translate(1208.740234 0)"/>
     <use xlink:href="#DejaVuSans-Bold-76" transform="translate(1277.050781 0)"/>
     <use xlink:href="#DejaVuSans-Bold-69" transform="translate(1342.236328 0)"/>
     <use xlink:href="#DejaVuSans-Bold-64" transform="translate(1376.513672 0)"/>
     <use xlink:href="#DejaVuSans-Bold-65" transform="translate(1448.095703 0)"/>
     <use xlink:href="#DejaVuSans-Bold-6e" transform="translate(1515.917969 0)"/>
     <use xlink:href="#DejaVuSans-Bold-63" transform="translate(1587.109375 0)"/>
     <use xlink:href="#DejaVuSans-Bold-65" transform="translate(1646.386719 0)"/>
     <use xlink:href="#DejaVuSans-Bold-20" transform="translate(1714.208984 0)"/>
     <use xlink:href="#DejaVuSans-Bold-50" transform="translate(1749.023438 0)"/>
     <use xlink:href="#DejaVuSans-Bold-72" transform="translate(1822.314453 0)"/>
     <use xlink:href="#DejaVuSans-Bold-6f" transform="translate(1871.630859 0)"/>
     <use xlink:href="#DejaVuSans-Bold-64" transform="translate(1940.332031 0)"/>
     <use xlink:href="#DejaVuSans-Bold-75" transform="translate(2011.914062 0)"/>
     <use xlink:href="#DejaVuSans-Bold-63" transform="translate(2083.105469 0)"/>
     <use xlink:href="#DejaVuSans-Bold-65" transform="translate(2142.382812 0)"/>
     <use xlink:href="#DejaVuSans-Bold-20" transform="translate(2210.205078 0)"/>
     <use xlink:href="#DejaVuSans-Bold-44" transform="translate(2245.019531 0)"/>
     <use xlink:href="#DejaVuSans-Bold-69" transform="translate(2328.027344 0)"/>
     <use xlink:href="#DejaVuSans-Bold-66" transform="translate(2362.304688 0)"/>
     <use xlink:href="#DejaVuSans-Bold-66" transform="translate(2405.810547 0)"/>
     <use xlink:href="#DejaVuSans-Bold-65" transform="translate(2449.316406 0)"/>
     <use xlink:href="#DejaVuSans-Bold-72" transform="translate(2517.138672 0)"/>
     <use xlink:href="#DejaVuSans-Bold-65" transform="translate(2566.455078 0)"/>
     <use xlink:href="#DejaVuSans-Bold-6e" transform="translate(2634.277344 0)"/>
     <use xlink:href="#DejaVuSans-Bold-74" transform="translate(2705.46875 0)"/>
     <use xlink:href="#DejaVuSans-Bold-20" transform="translate(2753.271484 0)"/>
     <use xlink:href="#DejaVuSans-Bold-41" transform="translate(2788.085938 0)"/>
     <use xlink:href="#DejaVuSans-Bold-63" transform="translate(2865.478516 0)"/>
     <use xlink:href="#DejaVuSans-Bold-74" transform="translate(2924.755859 0)"/>
     <use xlink:href="#DejaVuSans-Bold-69" transform="translate(2972.558594 0)"/>
     <use xlink:href="#DejaVuSans-Bold-6f" transform="translate(3006.835938 0)"/>
     <use xlink:href="#DejaVuSans-Bold-6e" transform="translate(3075.537109 0)"/>
     <use xlink:href="#DejaVuSans-Bold-73" transform="translate(3146.728516 0)"/>
    </g>
   </g>
   <g id="legend_1">
    <g id="PathCollection_5">
     <defs>
      <path id="m1edeed03ee" d="M 0 -4.137753
L -4.137753 4.137753
L 4.137753 4.137753
z
" style="stroke: #ffffff; stroke-opacity: 0.78; stroke-width: 0.6"/>
     </defs>
     <g>
      <use xlink:href="#m1edeed03ee" x="441.784531" y="33.496875" style="fill: #c83e2b; fill-opacity: 0.78; stroke: #ffffff; stroke-opacity: 0.78; stroke-width: 0.6"/>
     </g>
    </g>
    <g id="text_22">
     <!-- Access work -->
     <g transform="translate(456.184531 35.596875) scale(0.08 -0.08)">
      <defs>
       <path id="DejaVuSans-6b" d="M 581 4863
L 1159 4863
L 1159 1991
L 2875 3500
L 3609 3500
L 1753 1863
L 3688 0
L 2938 0
L 1159 1709
L 1159 0
L 581 0
L 581 4863
z
" transform="scale(0.015625)"/>
      </defs>
      <use xlink:href="#DejaVuSans-41"/>
      <use xlink:href="#DejaVuSans-63" transform="translate(66.658203 0)"/>
      <use xlink:href="#DejaVuSans-63" transform="translate(121.638672 0)"/>
      <use xlink:href="#DejaVuSans-65" transform="translate(176.619141 0)"/>
      <use xlink:href="#DejaVuSans-73" transform="translate(238.142578 0)"/>
      <use xlink:href="#DejaVuSans-73" transform="translate(290.242188 0)"/>
      <use xlink:href="#DejaVuSans-20" transform="translate(342.341797 0)"/>
      <use xlink:href="#DejaVuSans-77" transform="translate(374.128906 0)"/>
      <use xlink:href="#DejaVuSans-6f" transform="translate(455.916016 0)"/>
      <use xlink:href="#DejaVuSans-72" transform="translate(517.097656 0)"/>
      <use xlink:href="#DejaVuSans-6b" transform="translate(558.210938 0)"/>
     </g>
    </g>
    <g id="PathCollection_6">
     <defs>
      <path id="mf07742fd06" d="M -0 5.989713
L 5.989713 0
L 0 -5.989713
L -5.989713 -0
z
" style="stroke: #ffffff; stroke-opacity: 0.78; stroke-width: 0.6"/>
     </defs>
     <g>
      <use xlink:href="#mf07742fd06" x="441.784531" y="45.239375" style="fill: #d97706; fill-opacity: 0.78; stroke: #ffffff; stroke-opacity: 0.78; stroke-width: 0.6"/>
     </g>
    </g>
    <g id="text_23">
     <!-- Adoption review -->
     <g transform="translate(456.184531 47.339375) scale(0.08 -0.08)">
      <use xlink:href="#DejaVuSans-41"/>
      <use xlink:href="#DejaVuSans-64" transform="translate(66.658203 0)"/>
      <use xlink:href="#DejaVuSans-6f" transform="translate(130.134766 0)"/>
      <use xlink:href="#DejaVuSans-70" transform="translate(191.316406 0)"/>
      <use xlink:href="#DejaVuSans-74" transform="translate(254.792969 0)"/>
      <use xlink:href="#DejaVuSans-69" transform="translate(294.001953 0)"/>
      <use xlink:href="#DejaVuSans-6f" transform="translate(321.785156 0)"/>
      <use xlink:href="#DejaVuSans-6e" transform="translate(382.966797 0)"/>
      <use xlink:href="#DejaVuSans-20" transform="translate(446.345703 0)"/>
      <use xlink:href="#DejaVuSans-72" transform="translate(478.132812 0)"/>
      <use xlink:href="#DejaVuSans-65" transform="translate(516.996094 0)"/>
      <use xlink:href="#DejaVuSans-76" transform="translate(578.519531 0)"/>
      <use xlink:href="#DejaVuSans-69" transform="translate(637.699219 0)"/>
      <use xlink:href="#DejaVuSans-65" transform="translate(665.482422 0)"/>
      <use xlink:href="#DejaVuSans-77" transform="translate(727.005859 0)"/>
     </g>
    </g>
    <g id="PathCollection_7">
     <defs>
      <path id="m7f992e319b" d="M 0 4.114751
C 1.091245 4.114751 2.137942 3.681195 2.909568 2.909568
C 3.681195 2.137942 4.114751 1.091245 4.114751 0
C 4.114751 -1.091245 3.681195 -2.137942 2.909568 -2.909568
C 2.137942 -3.681195 1.091245 -4.114751 0 -4.114751
C -1.091245 -4.114751 -2.137942 -3.681195 -2.909568 -2.909568
C -3.681195 -2.137942 -4.114751 -1.091245 -4.114751 0
C -4.114751 1.091245 -3.681195 2.137942 -2.909568 2.909568
C -2.137942 3.681195 -1.091245 4.114751 0 4.114751
z
" style="stroke: #ffffff; stroke-opacity: 0.78; stroke-width: 0.6"/>
     </defs>
     <g>
      <use xlink:href="#m7f992e319b" x="544.889531" y="33.496875" style="fill: #2e8b57; fill-opacity: 0.78; stroke: #ffffff; stroke-opacity: 0.78; stroke-width: 0.6"/>
     </g>
    </g>
    <g id="text_24">
     <!-- Defend and learn -->
     <g transform="translate(559.289531 35.596875) scale(0.08 -0.08)">
      <defs>
       <path id="DejaVuSans-44" d="M 1259 4147
L 1259 519
L 2022 519
Q 2988 519 3436 956
Q 3884 1394 3884 2338
Q 3884 3275 3436 3711
Q 2988 4147 2022 4147
L 1259 4147
z
M 628 4666
L 1925 4666
Q 3281 4666 3915 4102
Q 4550 3538 4550 2338
Q 4550 1131 3912 565
Q 3275 0 1925 0
L 628 0
L 628 4666
z
" transform="scale(0.015625)"/>
       <path id="DejaVuSans-66" d="M 2375 4863
L 2375 4384
L 1825 4384
Q 1516 4384 1395 4259
Q 1275 4134 1275 3809
L 1275 3500
L 2222 3500
L 2222 3053
L 1275 3053
L 1275 0
L 697 0
L 697 3053
L 147 3053
L 147 3500
L 697 3500
L 697 3744
Q 697 4328 969 4595
Q 1241 4863 1831 4863
L 2375 4863
z
" transform="scale(0.015625)"/>
      </defs>
      <use xlink:href="#DejaVuSans-44"/>
      <use xlink:href="#DejaVuSans-65" transform="translate(77.001953 0)"/>
      <use xlink:href="#DejaVuSans-66" transform="translate(138.525391 0)"/>
      <use xlink:href="#DejaVuSans-65" transform="translate(173.730469 0)"/>
      <use xlink:href="#DejaVuSans-6e" transform="translate(235.253906 0)"/>
      <use xlink:href="#DejaVuSans-64" transform="translate(298.632812 0)"/>
      <use xlink:href="#DejaVuSans-20" transform="translate(362.109375 0)"/>
      <use xlink:href="#DejaVuSans-61" transform="translate(393.896484 0)"/>
      <use xlink:href="#DejaVuSans-6e" transform="translate(455.175781 0)"/>
      <use xlink:href="#DejaVuSans-64" transform="translate(518.554688 0)"/>
      <use xlink:href="#DejaVuSans-20" transform="translate(582.03125 0)"/>
      <use xlink:href="#DejaVuSans-6c" transform="translate(613.818359 0)"/>
      <use xlink:href="#DejaVuSans-65" transform="translate(641.601562 0)"/>
      <use xlink:href="#DejaVuSans-61" transform="translate(703.125 0)"/>
      <use xlink:href="#DejaVuSans-72" transform="translate(764.404297 0)"/>
      <use xlink:href="#DejaVuSans-6e" transform="translate(803.767578 0)"/>
     </g>
    </g>
    <g id="PathCollection_8">
     <defs>
      <path id="m4d6f3b90f5" d="M -1.835264 3.670528
L 0 1.835264
L 1.835264 3.670528
L 3.670528 1.835264
L 1.835264 0
L 3.670528 -1.835264
L 1.835264 -3.670528
L 0 -1.835264
L -1.835264 -3.670528
L -3.670528 -1.835264
L -1.835264 0
L -3.670528 1.835264
z
" style="stroke: #ffffff; stroke-opacity: 0.78; stroke-width: 0.6"/>
     </defs>
     <g>
      <use xlink:href="#m4d6f3b90f5" x="544.889531" y="45.239375" style="fill: #7a5aa6; fill-opacity: 0.78; stroke: #ffffff; stroke-opacity: 0.78; stroke-width: 0.6"/>
     </g>
    </g>
    <g id="text_25">
     <!-- Dual workstream -->
     <g transform="translate(559.289531 47.339375) scale(0.08 -0.08)">
      <defs>
       <path id="DejaVuSans-6d" d="M 3328 2828
Q 3544 3216 3844 3400
Q 4144 3584 4550 3584
Q 5097 3584 5394 3201
Q 5691 2819 5691 2113
L 5691 0
L 5113 0
L 5113 2094
Q 5113 2597 4934 2840
Q 4756 3084 4391 3084
Q 3944 3084 3684 2787
Q 3425 2491 3425 1978
L 3425 0
L 2847 0
L 2847 2094
Q 2847 2600 2669 2842
Q 2491 3084 2119 3084
Q 1678 3084 1418 2786
Q 1159 2488 1159 1978
L 1159 0
L 581 0
L 581 3500
L 1159 3500
L 1159 2956
Q 1356 3278 1631 3431
Q 1906 3584 2284 3584
Q 2666 3584 2933 3390
Q 3200 3197 3328 2828
z
" transform="scale(0.015625)"/>
      </defs>
      <use xlink:href="#DejaVuSans-44"/>
      <use xlink:href="#DejaVuSans-75" transform="translate(77.001953 0)"/>
      <use xlink:href="#DejaVuSans-61" transform="translate(140.380859 0)"/>
      <use xlink:href="#DejaVuSans-6c" transform="translate(201.660156 0)"/>
      <use xlink:href="#DejaVuSans-20" transform="translate(229.443359 0)"/>
      <use xlink:href="#DejaVuSans-77" transform="translate(261.230469 0)"/>
      <use xlink:href="#DejaVuSans-6f" transform="translate(343.017578 0)"/>
      <use xlink:href="#DejaVuSans-72" transform="translate(404.199219 0)"/>
      <use xlink:href="#DejaVuSans-6b" transform="translate(445.3125 0)"/>
      <use xlink:href="#DejaVuSans-73" transform="translate(503.222656 0)"/>
      <use xlink:href="#DejaVuSans-74" transform="translate(555.322266 0)"/>
      <use xlink:href="#DejaVuSans-72" transform="translate(594.53125 0)"/>
      <use xlink:href="#DejaVuSans-65" transform="translate(633.394531 0)"/>
      <use xlink:href="#DejaVuSans-61" transform="translate(694.917969 0)"/>
      <use xlink:href="#DejaVuSans-6d" transform="translate(756.197266 0)"/>
     </g>
    </g>
   </g>
  </g>
 </g>
 <defs>
  <clipPath id="pda9708dec8">
   <rect x="47.882031" y="22.318125" width="587.98" height="367.72"/>
  </clipPath>
 </defs>
</svg>
