<?xml version="1.0" encoding="utf-8" standalone="no"?>
<!DOCTYPE svg PUBLIC "-//W3C//DTD SVG 1.1//EN"
  "http://www.w3.org/Graphics/SVG/1.1/DTD/svg11.dtd">
<svg xmlns:xlink="http://www.w3.org/1999/xlink" width="707.07311pt" height="340.423481pt" viewBox="0 0 707.07311 340.423481" xmlns="http://www.w3.org/2000/svg" version="1.1">
 <metadata>
  <rdf:RDF xmlns:dc="http://purl.org/dc/elements/1.1/" xmlns:cc="http://creativecommons.org/ns#" xmlns:rdf="http://www.w3.org/1999/02/22-rdf-syntax-ns#">
   <cc:Work>
    <dc:type rdf:resource="http://purl.org/dc/dcmitype/StillImage"/>
    <dc:date>2026-06-21T01:03:40.976615</dc:date>
    <dc:format>image/svg+xml</dc:format>
    <dc:creator>
     <cc:Agent>
      <dc:title>Matplotlib v3.10.9, https://matplotlib.org/</dc:title>
     </cc:Agent>
    </dc:creator>
   </cc:Work>
  </rdf:RDF>
 </metadata>
 <defs>
  <style type="text/css">*{stroke-linejoin: round; stroke-linecap: butt}</style>
 </defs>
 <g id="figure_1">
  <g id="patch_1">
   <path d="M 0 340.423481
L 707.07311 340.423481
L 707.07311 0
L 0 0
z
" style="fill: #ffffff"/>
  </g>
  <g id="axes_1">
   <g id="patch_2">
    <path d="M 33.031647 278.849973
L 689.744311 278.849973
L 689.744311 22.318125
L 33.031647 22.318125
z
" style="fill: #ffffff"/>
   </g>
   <g id="matplotlib.axis_1">
    <g id="xtick_1">
     <g id="line2d_1">
      <defs>
       <path id="m52b0f64ff7" d="M 0 0
L 0 3.5
" style="stroke: #000000; stroke-width: 0.8"/>
      </defs>
      <g>
       <use xlink:href="#m52b0f64ff7" x="56.851803" y="278.849973" style="stroke: #000000; stroke-width: 0.8"/>
      </g>
     </g>
     <g id="text_1">
      <!-- 2024-07-01 -->
      <g transform="translate(10.619297 317.9244) rotate(-30) scale(0.09 -0.09)">
       <defs>
        <path id="DejaVuSans-32" d="M 1228 531
L 3431 531
L 3431 0
L 469 0
L 469 531
Q 828 903 1448 1529
Q 2069 2156 2228 2338
Q 2531 2678 2651 2914
Q 2772 3150 2772 3378
Q 2772 3750 2511 3984
Q 2250 4219 1831 4219
Q 1534 4219 1204 4116
Q 875 4013 500 3803
L 500 4441
Q 881 4594 1212 4672
Q 1544 4750 1819 4750
Q 2544 4750 2975 4387
Q 3406 4025 3406 3419
Q 3406 3131 3298 2873
Q 3191 2616 2906 2266
Q 2828 2175 2409 1742
Q 1991 1309 1228 531
z
" transform="scale(0.015625)"/>
        <path id="DejaVuSans-30" d="M 2034 4250
Q 1547 4250 1301 3770
Q 1056 3291 1056 2328
Q 1056 1369 1301 889
Q 1547 409 2034 409
Q 2525 409 2770 889
Q 3016 1369 3016 2328
Q 3016 3291 2770 3770
Q 2525 4250 2034 4250
z
M 2034 4750
Q 2819 4750 3233 4129
Q 3647 3509 3647 2328
Q 3647 1150 3233 529
Q 2819 -91 2034 -91
Q 1250 -91 836 529
Q 422 1150 422 2328
Q 422 3509 836 4129
Q 1250 4750 2034 4750
z
" transform="scale(0.015625)"/>
        <path id="DejaVuSans-34" d="M 2419 4116
L 825 1625
L 2419 1625
L 2419 4116
z
M 2253 4666
L 3047 4666
L 3047 1625
L 3713 1625
L 3713 1100
L 3047 1100
L 3047 0
L 2419 0
L 2419 1100
L 313 1100
L 313 1709
L 2253 4666
z
" transform="scale(0.015625)"/>
        <path id="DejaVuSans-2d" d="M 313 2009
L 1997 2009
L 1997 1497
L 313 1497
L 313 2009
z
" transform="scale(0.015625)"/>
        <path id="DejaVuSans-37" d="M 525 4666
L 3525 4666
L 3525 4397
L 1831 0
L 1172 0
L 2766 4134
L 525 4134
L 525 4666
z
" transform="scale(0.015625)"/>
        <path id="DejaVuSans-31" d="M 794 531
L 1825 531
L 1825 4091
L 703 3866
L 703 4441
L 1819 4666
L 2450 4666
L 2450 531
L 3481 531
L 3481 0
L 794 0
L 794 531
z
" transform="scale(0.015625)"/>
       </defs>
       <use xlink:href="#DejaVuSans-32"/>
       <use xlink:href="#DejaVuSans-30" transform="translate(63.623047 0)"/>
       <use xlink:href="#DejaVuSans-32" transform="translate(127.246094 0)"/>
       <use xlink:href="#DejaVuSans-34" transform="translate(190.869141 0)"/>
       <use xlink:href="#DejaVuSans-2d" transform="translate(254.492188 0)"/>
       <use xlink:href="#DejaVuSans-30" transform="translate(290.576172 0)"/>
       <use xlink:href="#DejaVuSans-37" transform="translate(354.199219 0)"/>
       <use xlink:href="#DejaVuSans-2d" transform="translate(417.822266 0)"/>
       <use xlink:href="#DejaVuSans-30" transform="translate(453.90625 0)"/>
       <use xlink:href="#DejaVuSans-31" transform="translate(517.529297 0)"/>
      </g>
     </g>
    </g>
    <g id="xtick_2">
     <g id="line2d_2">
      <g>
       <use xlink:href="#m52b0f64ff7" x="141.277674" y="278.849973" style="stroke: #000000; stroke-width: 0.8"/>
      </g>
     </g>
     <g id="text_2">
      <!-- 2024-07-15 -->
      <g transform="translate(95.045167 317.9244) rotate(-30) scale(0.09 -0.09)">
       <defs>
        <path id="DejaVuSans-35" d="M 691 4666
L 3169 4666
L 3169 4134
L 1269 4134
L 1269 2991
Q 1406 3038 1543 3061
Q 1681 3084 1819 3084
Q 2600 3084 3056 2656
Q 3513 2228 3513 1497
Q 3513 744 3044 326
Q 2575 -91 1722 -91
Q 1428 -91 1123 -41
Q 819 9 494 109
L 494 744
Q 775 591 1075 516
Q 1375 441 1709 441
Q 2250 441 2565 725
Q 2881 1009 2881 1497
Q 2881 1984 2565 2268
Q 2250 2553 1709 2553
Q 1456 2553 1204 2497
Q 953 2441 691 2322
L 691 4666
z
" transform="scale(0.015625)"/>
       </defs>
       <use xlink:href="#DejaVuSans-32"/>
       <use xlink:href="#DejaVuSans-30" transform="translate(63.623047 0)"/>
       <use xlink:href="#DejaVuSans-32" transform="translate(127.246094 0)"/>
       <use xlink:href="#DejaVuSans-34" transform="translate(190.869141 0)"/>
       <use xlink:href="#DejaVuSans-2d" transform="translate(254.492188 0)"/>
       <use xlink:href="#DejaVuSans-30" transform="translate(290.576172 0)"/>
       <use xlink:href="#DejaVuSans-37" transform="translate(354.199219 0)"/>
       <use xlink:href="#DejaVuSans-2d" transform="translate(417.822266 0)"/>
       <use xlink:href="#DejaVuSans-31" transform="translate(453.90625 0)"/>
       <use xlink:href="#DejaVuSans-35" transform="translate(517.529297 0)"/>
      </g>
     </g>
    </g>
    <g id="xtick_3">
     <g id="line2d_3">
      <g>
       <use xlink:href="#m52b0f64ff7" x="243.794802" y="278.849973" style="stroke: #000000; stroke-width: 0.8"/>
      </g>
     </g>
     <g id="text_3">
      <!-- 2024-08-01 -->
      <g transform="translate(197.562296 317.9244) rotate(-30) scale(0.09 -0.09)">
       <defs>
        <path id="DejaVuSans-38" d="M 2034 2216
Q 1584 2216 1326 1975
Q 1069 1734 1069 1313
Q 1069 891 1326 650
Q 1584 409 2034 409
Q 2484 409 2743 651
Q 3003 894 3003 1313
Q 3003 1734 2745 1975
Q 2488 2216 2034 2216
z
M 1403 2484
Q 997 2584 770 2862
Q 544 3141 544 3541
Q 544 4100 942 4425
Q 1341 4750 2034 4750
Q 2731 4750 3128 4425
Q 3525 4100 3525 3541
Q 3525 3141 3298 2862
Q 3072 2584 2669 2484
Q 3125 2378 3379 2068
Q 3634 1759 3634 1313
Q 3634 634 3220 271
Q 2806 -91 2034 -91
Q 1263 -91 848 271
Q 434 634 434 1313
Q 434 1759 690 2068
Q 947 2378 1403 2484
z
M 1172 3481
Q 1172 3119 1398 2916
Q 1625 2713 2034 2713
Q 2441 2713 2670 2916
Q 2900 3119 2900 3481
Q 2900 3844 2670 4047
Q 2441 4250 2034 4250
Q 1625 4250 1398 4047
Q 1172 3844 1172 3481
z
" transform="scale(0.015625)"/>
       </defs>
       <use xlink:href="#DejaVuSans-32"/>
       <use xlink:href="#DejaVuSans-30" transform="translate(63.623047 0)"/>
       <use xlink:href="#DejaVuSans-32" transform="translate(127.246094 0)"/>
       <use xlink:href="#DejaVuSans-34" transform="translate(190.869141 0)"/>
       <use xlink:href="#DejaVuSans-2d" transform="translate(254.492188 0)"/>
       <use xlink:href="#DejaVuSans-30" transform="translate(290.576172 0)"/>
       <use xlink:href="#DejaVuSans-38" transform="translate(354.199219 0)"/>
       <use xlink:href="#DejaVuSans-2d" transform="translate(417.822266 0)"/>
       <use xlink:href="#DejaVuSans-30" transform="translate(453.90625 0)"/>
       <use xlink:href="#DejaVuSans-31" transform="translate(517.529297 0)"/>
      </g>
     </g>
    </g>
    <g id="xtick_4">
     <g id="line2d_4">
      <g>
       <use xlink:href="#m52b0f64ff7" x="328.220673" y="278.849973" style="stroke: #000000; stroke-width: 0.8"/>
      </g>
     </g>
     <g id="text_4">
      <!-- 2024-08-15 -->
      <g transform="translate(281.988166 317.9244) rotate(-30) scale(0.09 -0.09)">
       <use xlink:href="#DejaVuSans-32"/>
       <use xlink:href="#DejaVuSans-30" transform="translate(63.623047 0)"/>
       <use xlink:href="#DejaVuSans-32" transform="translate(127.246094 0)"/>
       <use xlink:href="#DejaVuSans-34" transform="translate(190.869141 0)"/>
       <use xlink:href="#DejaVuSans-2d" transform="translate(254.492188 0)"/>
       <use xlink:href="#DejaVuSans-30" transform="translate(290.576172 0)"/>
       <use xlink:href="#DejaVuSans-38" transform="translate(354.199219 0)"/>
       <use xlink:href="#DejaVuSans-2d" transform="translate(417.822266 0)"/>
       <use xlink:href="#DejaVuSans-31" transform="translate(453.90625 0)"/>
       <use xlink:href="#DejaVuSans-35" transform="translate(517.529297 0)"/>
      </g>
     </g>
    </g>
    <g id="xtick_5">
     <g id="line2d_5">
      <g>
       <use xlink:href="#m52b0f64ff7" x="430.737801" y="278.849973" style="stroke: #000000; stroke-width: 0.8"/>
      </g>
     </g>
     <g id="text_5">
      <!-- 2024-09-01 -->
      <g transform="translate(384.505295 317.9244) rotate(-30) scale(0.09 -0.09)">
       <defs>
        <path id="DejaVuSans-39" d="M 703 97
L 703 672
Q 941 559 1184 500
Q 1428 441 1663 441
Q 2288 441 2617 861
Q 2947 1281 2994 2138
Q 2813 1869 2534 1725
Q 2256 1581 1919 1581
Q 1219 1581 811 2004
Q 403 2428 403 3163
Q 403 3881 828 4315
Q 1253 4750 1959 4750
Q 2769 4750 3195 4129
Q 3622 3509 3622 2328
Q 3622 1225 3098 567
Q 2575 -91 1691 -91
Q 1453 -91 1209 -44
Q 966 3 703 97
z
M 1959 2075
Q 2384 2075 2632 2365
Q 2881 2656 2881 3163
Q 2881 3666 2632 3958
Q 2384 4250 1959 4250
Q 1534 4250 1286 3958
Q 1038 3666 1038 3163
Q 1038 2656 1286 2365
Q 1534 2075 1959 2075
z
" transform="scale(0.015625)"/>
       </defs>
       <use xlink:href="#DejaVuSans-32"/>
       <use xlink:href="#DejaVuSans-30" transform="translate(63.623047 0)"/>
       <use xlink:href="#DejaVuSans-32" transform="translate(127.246094 0)"/>
       <use xlink:href="#DejaVuSans-34" transform="translate(190.869141 0)"/>
       <use xlink:href="#DejaVuSans-2d" transform="translate(254.492188 0)"/>
       <use xlink:href="#DejaVuSans-30" transform="translate(290.576172 0)"/>
       <use xlink:href="#DejaVuSans-39" transform="translate(354.199219 0)"/>
       <use xlink:href="#DejaVuSans-2d" transform="translate(417.822266 0)"/>
       <use xlink:href="#DejaVuSans-30" transform="translate(453.90625 0)"/>
       <use xlink:href="#DejaVuSans-31" transform="translate(517.529297 0)"/>
      </g>
     </g>
    </g>
    <g id="xtick_6">
     <g id="line2d_6">
      <g>
       <use xlink:href="#m52b0f64ff7" x="515.163672" y="278.849973" style="stroke: #000000; stroke-width: 0.8"/>
      </g>
     </g>
     <g id="text_6">
      <!-- 2024-09-15 -->
      <g transform="translate(468.931165 317.9244) rotate(-30) scale(0.09 -0.09)">
       <use xlink:href="#DejaVuSans-32"/>
       <use xlink:href="#DejaVuSans-30" transform="translate(63.623047 0)"/>
       <use xlink:href="#DejaVuSans-32" transform="translate(127.246094 0)"/>
       <use xlink:href="#DejaVuSans-34" transform="translate(190.869141 0)"/>
       <use xlink:href="#DejaVuSans-2d" transform="translate(254.492188 0)"/>
       <use xlink:href="#DejaVuSans-30" transform="translate(290.576172 0)"/>
       <use xlink:href="#DejaVuSans-39" transform="translate(354.199219 0)"/>
       <use xlink:href="#DejaVuSans-2d" transform="translate(417.822266 0)"/>
       <use xlink:href="#DejaVuSans-31" transform="translate(453.90625 0)"/>
       <use xlink:href="#DejaVuSans-35" transform="translate(517.529297 0)"/>
      </g>
     </g>
    </g>
    <g id="xtick_7">
     <g id="line2d_7">
      <g>
       <use xlink:href="#m52b0f64ff7" x="611.650381" y="278.849973" style="stroke: #000000; stroke-width: 0.8"/>
      </g>
     </g>
     <g id="text_7">
      <!-- 2024-10-01 -->
      <g transform="translate(565.417875 317.9244) rotate(-30) scale(0.09 -0.09)">
       <use xlink:href="#DejaVuSans-32"/>
       <use xlink:href="#DejaVuSans-30" transform="translate(63.623047 0)"/>
       <use xlink:href="#DejaVuSans-32" transform="translate(127.246094 0)"/>
       <use xlink:href="#DejaVuSans-34" transform="translate(190.869141 0)"/>
       <use xlink:href="#DejaVuSans-2d" transform="translate(254.492188 0)"/>
       <use xlink:href="#DejaVuSans-31" transform="translate(290.576172 0)"/>
       <use xlink:href="#DejaVuSans-30" transform="translate(354.199219 0)"/>
       <use xlink:href="#DejaVuSans-2d" transform="translate(417.822266 0)"/>
       <use xlink:href="#DejaVuSans-30" transform="translate(453.90625 0)"/>
       <use xlink:href="#DejaVuSans-31" transform="translate(517.529297 0)"/>
      </g>
     </g>
    </g>
    <g id="text_8">
     <!-- 2024 service date -->
     <g transform="translate(316.298916 331.143794) scale(0.1 -0.1)">
      <defs>
       <path id="DejaVuSans-20" transform="scale(0.015625)"/>
       <path id="DejaVuSans-73" d="M 2834 3397
L 2834 2853
Q 2591 2978 2328 3040
Q 2066 3103 1784 3103
Q 1356 3103 1142 2972
Q 928 2841 928 2578
Q 928 2378 1081 2264
Q 1234 2150 1697 2047
L 1894 2003
Q 2506 1872 2764 1633
Q 3022 1394 3022 966
Q 3022 478 2636 193
Q 2250 -91 1575 -91
Q 1294 -91 989 -36
Q 684 19 347 128
L 347 722
Q 666 556 975 473
Q 1284 391 1588 391
Q 1994 391 2212 530
Q 2431 669 2431 922
Q 2431 1156 2273 1281
Q 2116 1406 1581 1522
L 1381 1569
Q 847 1681 609 1914
Q 372 2147 372 2553
Q 372 3047 722 3315
Q 1072 3584 1716 3584
Q 2034 3584 2315 3537
Q 2597 3491 2834 3397
z
" transform="scale(0.015625)"/>
       <path id="DejaVuSans-65" d="M 3597 1894
L 3597 1613
L 953 1613
Q 991 1019 1311 708
Q 1631 397 2203 397
Q 2534 397 2845 478
Q 3156 559 3463 722
L 3463 178
Q 3153 47 2828 -22
Q 2503 -91 2169 -91
Q 1331 -91 842 396
Q 353 884 353 1716
Q 353 2575 817 3079
Q 1281 3584 2069 3584
Q 2775 3584 3186 3129
Q 3597 2675 3597 1894
z
M 3022 2063
Q 3016 2534 2758 2815
Q 2500 3097 2075 3097
Q 1594 3097 1305 2825
Q 1016 2553 972 2059
L 3022 2063
z
" transform="scale(0.015625)"/>
       <path id="DejaVuSans-72" d="M 2631 2963
Q 2534 3019 2420 3045
Q 2306 3072 2169 3072
Q 1681 3072 1420 2755
Q 1159 2438 1159 1844
L 1159 0
L 581 0
L 581 3500
L 1159 3500
L 1159 2956
Q 1341 3275 1631 3429
Q 1922 3584 2338 3584
Q 2397 3584 2469 3576
Q 2541 3569 2628 3553
L 2631 2963
z
" transform="scale(0.015625)"/>
       <path id="DejaVuSans-76" d="M 191 3500
L 800 3500
L 1894 563
L 2988 3500
L 3597 3500
L 2284 0
L 1503 0
L 191 3500
z
" transform="scale(0.015625)"/>
       <path id="DejaVuSans-69" d="M 603 3500
L 1178 3500
L 1178 0
L 603 0
L 603 3500
z
M 603 4863
L 1178 4863
L 1178 4134
L 603 4134
L 603 4863
z
" transform="scale(0.015625)"/>
       <path id="DejaVuSans-63" d="M 3122 3366
L 3122 2828
Q 2878 2963 2633 3030
Q 2388 3097 2138 3097
Q 1578 3097 1268 2742
Q 959 2388 959 1747
Q 959 1106 1268 751
Q 1578 397 2138 397
Q 2388 397 2633 464
Q 2878 531 3122 666
L 3122 134
Q 2881 22 2623 -34
Q 2366 -91 2075 -91
Q 1284 -91 818 406
Q 353 903 353 1747
Q 353 2603 823 3093
Q 1294 3584 2113 3584
Q 2378 3584 2631 3529
Q 2884 3475 3122 3366
z
" transform="scale(0.015625)"/>
       <path id="DejaVuSans-64" d="M 2906 2969
L 2906 4863
L 3481 4863
L 3481 0
L 2906 0
L 2906 525
Q 2725 213 2448 61
Q 2172 -91 1784 -91
Q 1150 -91 751 415
Q 353 922 353 1747
Q 353 2572 751 3078
Q 1150 3584 1784 3584
Q 2172 3584 2448 3432
Q 2725 3281 2906 2969
z
M 947 1747
Q 947 1113 1208 752
Q 1469 391 1925 391
Q 2381 391 2643 752
Q 2906 1113 2906 1747
Q 2906 2381 2643 2742
Q 2381 3103 1925 3103
Q 1469 3103 1208 2742
Q 947 2381 947 1747
z
" transform="scale(0.015625)"/>
       <path id="DejaVuSans-61" d="M 2194 1759
Q 1497 1759 1228 1600
Q 959 1441 959 1056
Q 959 750 1161 570
Q 1363 391 1709 391
Q 2188 391 2477 730
Q 2766 1069 2766 1631
L 2766 1759
L 2194 1759
z
M 3341 1997
L 3341 0
L 2766 0
L 2766 531
Q 2569 213 2275 61
Q 1981 -91 1556 -91
Q 1019 -91 701 211
Q 384 513 384 1019
Q 384 1609 779 1909
Q 1175 2209 1959 2209
L 2766 2209
L 2766 2266
Q 2766 2663 2505 2880
Q 2244 3097 1772 3097
Q 1472 3097 1187 3025
Q 903 2953 641 2809
L 641 3341
Q 956 3463 1253 3523
Q 1550 3584 1831 3584
Q 2591 3584 2966 3190
Q 3341 2797 3341 1997
z
" transform="scale(0.015625)"/>
       <path id="DejaVuSans-74" d="M 1172 4494
L 1172 3500
L 2356 3500
L 2356 3053
L 1172 3053
L 1172 1153
Q 1172 725 1289 603
Q 1406 481 1766 481
L 2356 481
L 2356 0
L 1766 0
Q 1100 0 847 248
Q 594 497 594 1153
L 594 3053
L 172 3053
L 172 3500
L 594 3500
L 594 4494
L 1172 4494
z
" transform="scale(0.015625)"/>
      </defs>
      <use xlink:href="#DejaVuSans-32"/>
      <use xlink:href="#DejaVuSans-30" transform="translate(63.623047 0)"/>
      <use xlink:href="#DejaVuSans-32" transform="translate(127.246094 0)"/>
      <use xlink:href="#DejaVuSans-34" transform="translate(190.869141 0)"/>
      <use xlink:href="#DejaVuSans-20" transform="translate(254.492188 0)"/>
      <use xlink:href="#DejaVuSans-73" transform="translate(286.279297 0)"/>
      <use xlink:href="#DejaVuSans-65" transform="translate(338.378906 0)"/>
      <use xlink:href="#DejaVuSans-72" transform="translate(399.902344 0)"/>
      <use xlink:href="#DejaVuSans-76" transform="translate(441.015625 0)"/>
      <use xlink:href="#DejaVuSans-69" transform="translate(500.195312 0)"/>
      <use xlink:href="#DejaVuSans-63" transform="translate(527.978516 0)"/>
      <use xlink:href="#DejaVuSans-65" transform="translate(582.958984 0)"/>
      <use xlink:href="#DejaVuSans-20" transform="translate(644.482422 0)"/>
      <use xlink:href="#DejaVuSans-64" transform="translate(676.269531 0)"/>
      <use xlink:href="#DejaVuSans-61" transform="translate(739.746094 0)"/>
      <use xlink:href="#DejaVuSans-74" transform="translate(801.025391 0)"/>
      <use xlink:href="#DejaVuSans-65" transform="translate(840.234375 0)"/>
     </g>
    </g>
   </g>
   <g id="matplotlib.axis_2">
    <g id="ytick_1">
     <g id="line2d_8"/>
     <g id="text_9">
      <!-- Fill 3 -->
      <g transform="translate(8.920241 248.675814) scale(0.09 -0.09)">
       <defs>
        <path id="DejaVuSans-46" d="M 628 4666
L 3309 4666
L 3309 4134
L 1259 4134
L 1259 2759
L 3109 2759
L 3109 2228
L 1259 2228
L 1259 0
L 628 0
L 628 4666
z
" transform="scale(0.015625)"/>
        <path id="DejaVuSans-6c" d="M 603 4863
L 1178 4863
L 1178 0
L 603 0
L 603 4863
z
" transform="scale(0.015625)"/>
        <path id="DejaVuSans-33" d="M 2597 2516
Q 3050 2419 3304 2112
Q 3559 1806 3559 1356
Q 3559 666 3084 287
Q 2609 -91 1734 -91
Q 1441 -91 1130 -33
Q 819 25 488 141
L 488 750
Q 750 597 1062 519
Q 1375 441 1716 441
Q 2309 441 2620 675
Q 2931 909 2931 1356
Q 2931 1769 2642 2001
Q 2353 2234 1838 2234
L 1294 2234
L 1294 2753
L 1863 2753
Q 2328 2753 2575 2939
Q 2822 3125 2822 3475
Q 2822 3834 2567 4026
Q 2313 4219 1838 4219
Q 1578 4219 1281 4162
Q 984 4106 628 3988
L 628 4550
Q 988 4650 1302 4700
Q 1616 4750 1894 4750
Q 2613 4750 3031 4423
Q 3450 4097 3450 3541
Q 3450 3153 3228 2886
Q 3006 2619 2597 2516
z
" transform="scale(0.015625)"/>
       </defs>
       <use xlink:href="#DejaVuSans-46"/>
       <use xlink:href="#DejaVuSans-69" transform="translate(50.269531 0)"/>
       <use xlink:href="#DejaVuSans-6c" transform="translate(78.052734 0)"/>
       <use xlink:href="#DejaVuSans-6c" transform="translate(105.835938 0)"/>
       <use xlink:href="#DejaVuSans-20" transform="translate(133.619141 0)"/>
       <use xlink:href="#DejaVuSans-33" transform="translate(165.40625 0)"/>
      </g>
     </g>
    </g>
    <g id="ytick_2">
     <g id="line2d_9"/>
     <g id="text_10">
      <!-- Fill 2 -->
      <g transform="translate(8.920241 187.596802) scale(0.09 -0.09)">
       <use xlink:href="#DejaVuSans-46"/>
       <use xlink:href="#DejaVuSans-69" transform="translate(50.269531 0)"/>
       <use xlink:href="#DejaVuSans-6c" transform="translate(78.052734 0)"/>
       <use xlink:href="#DejaVuSans-6c" transform="translate(105.835938 0)"/>
       <use xlink:href="#DejaVuSans-20" transform="translate(133.619141 0)"/>
       <use xlink:href="#DejaVuSans-32" transform="translate(165.40625 0)"/>
      </g>
     </g>
    </g>
    <g id="ytick_3">
     <g id="line2d_10"/>
     <g id="text_11">
      <!-- Fill 1 -->
      <g transform="translate(8.920241 126.517791) scale(0.09 -0.09)">
       <use xlink:href="#DejaVuSans-46"/>
       <use xlink:href="#DejaVuSans-69" transform="translate(50.269531 0)"/>
       <use xlink:href="#DejaVuSans-6c" transform="translate(78.052734 0)"/>
       <use xlink:href="#DejaVuSans-6c" transform="translate(105.835938 0)"/>
       <use xlink:href="#DejaVuSans-20" transform="translate(133.619141 0)"/>
       <use xlink:href="#DejaVuSans-31" transform="translate(165.40625 0)"/>
      </g>
     </g>
    </g>
    <g id="ytick_4">
     <g id="line2d_11"/>
     <g id="text_12">
      <!-- Fill 0 -->
      <g transform="translate(8.920241 65.438779) scale(0.09 -0.09)">
       <use xlink:href="#DejaVuSans-46"/>
       <use xlink:href="#DejaVuSans-69" transform="translate(50.269531 0)"/>
       <use xlink:href="#DejaVuSans-6c" transform="translate(78.052734 0)"/>
       <use xlink:href="#DejaVuSans-6c" transform="translate(105.835938 0)"/>
       <use xlink:href="#DejaVuSans-20" transform="translate(133.619141 0)"/>
       <use xlink:href="#DejaVuSans-30" transform="translate(165.40625 0)"/>
      </g>
     </g>
    </g>
   </g>
   <g id="line2d_12">
    <path d="M 62.882222 62.019482
L 105.095158 62.019482
" clip-path="url(#pb72e8599ec)" style="fill: none; stroke: #3f72c8; stroke-width: 3; stroke-linecap: square"/>
   </g>
   <g id="line2d_13">
    <path d="M 292.038157 123.098494
L 328.220673 123.098494
" clip-path="url(#pb72e8599ec)" style="fill: none; stroke: #3f72c8; stroke-width: 3; stroke-linecap: square"/>
   </g>
   <g id="line2d_14">
    <path d="M 478.981156 184.177505
L 478.981156 184.177505
" clip-path="url(#pb72e8599ec)" style="fill: none; stroke: #3f72c8; stroke-width: 3; stroke-linecap: square"/>
   </g>
   <g id="line2d_15">
    <path d="M 659.893735 245.256517
L 659.893735 245.256517
" clip-path="url(#pb72e8599ec)" style="fill: none; stroke: #3f72c8; stroke-width: 3; stroke-linecap: square"/>
   </g>
   <g id="patch_3">
    <path d="M 33.031647 278.849973
L 689.744311 278.849973
" style="fill: none; stroke: #000000; stroke-width: 0.8; stroke-linejoin: miter; stroke-linecap: square"/>
   </g>
   <g id="PathCollection_1">
    <defs>
     <path id="m1442969330" d="M 0 3.708099
C 0.983399 3.708099 1.926654 3.317391 2.622022 2.622022
C 3.317391 1.926654 3.708099 0.983399 3.708099 0
C 3.708099 -0.983399 3.317391 -1.926654 2.622022 -2.622022
C 1.926654 -3.317391 0.983399 -3.708099 0 -3.708099
C -0.983399 -3.708099 -1.926654 -3.317391 -2.622022 -2.622022
C -3.317391 -1.926654 -3.708099 -0.983399 -3.708099 0
C -3.708099 0.983399 -3.317391 1.926654 -2.622022 2.622022
C -1.926654 3.317391 -0.983399 3.708099 0 3.708099
z
" style="stroke: #c83e2b"/>
    </defs>
    <g clip-path="url(#pb72e8599ec)">
     <use xlink:href="#m1442969330" x="62.882222" y="62.019482" style="fill: #c83e2b; stroke: #c83e2b"/>
    </g>
   </g>
   <g id="PathCollection_2">
    <defs>
     <path id="m9ac58a690f" d="M -3.708099 3.708099
L 3.708099 3.708099
L 3.708099 -3.708099
L -3.708099 -3.708099
z
" style="stroke: #2e8b57"/>
    </defs>
    <g clip-path="url(#pb72e8599ec)">
     <use xlink:href="#m9ac58a690f" x="105.095158" y="62.019482" style="fill: #2e8b57; stroke: #2e8b57"/>
    </g>
   </g>
   <g id="text_13">
    <!-- PENDED to PAID -->
    <g transform="translate(51.658065 47.36052) scale(0.08 -0.08)">
     <defs>
      <path id="DejaVuSans-50" d="M 1259 4147
L 1259 2394
L 2053 2394
Q 2494 2394 2734 2622
Q 2975 2850 2975 3272
Q 2975 3691 2734 3919
Q 2494 4147 2053 4147
L 1259 4147
z
M 628 4666
L 2053 4666
Q 2838 4666 3239 4311
Q 3641 3956 3641 3272
Q 3641 2581 3239 2228
Q 2838 1875 2053 1875
L 1259 1875
L 1259 0
L 628 0
L 628 4666
z
" transform="scale(0.015625)"/>
      <path id="DejaVuSans-45" d="M 628 4666
L 3578 4666
L 3578 4134
L 1259 4134
L 1259 2753
L 3481 2753
L 3481 2222
L 1259 2222
L 1259 531
L 3634 531
L 3634 0
L 628 0
L 628 4666
z
" transform="scale(0.015625)"/>
      <path id="DejaVuSans-4e" d="M 628 4666
L 1478 4666
L 3547 763
L 3547 4666
L 4159 4666
L 4159 0
L 3309 0
L 1241 3903
L 1241 0
L 628 0
L 628 4666
z
" transform="scale(0.015625)"/>
      <path id="DejaVuSans-44" d="M 1259 4147
L 1259 519
L 2022 519
Q 2988 519 3436 956
Q 3884 1394 3884 2338
Q 3884 3275 3436 3711
Q 2988 4147 2022 4147
L 1259 4147
z
M 628 4666
L 1925 4666
Q 3281 4666 3915 4102
Q 4550 3538 4550 2338
Q 4550 1131 3912 565
Q 3275 0 1925 0
L 628 0
L 628 4666
z
" transform="scale(0.015625)"/>
      <path id="DejaVuSans-6f" d="M 1959 3097
Q 1497 3097 1228 2736
Q 959 2375 959 1747
Q 959 1119 1226 758
Q 1494 397 1959 397
Q 2419 397 2687 759
Q 2956 1122 2956 1747
Q 2956 2369 2687 2733
Q 2419 3097 1959 3097
z
M 1959 3584
Q 2709 3584 3137 3096
Q 3566 2609 3566 1747
Q 3566 888 3137 398
Q 2709 -91 1959 -91
Q 1206 -91 779 398
Q 353 888 353 1747
Q 353 2609 779 3096
Q 1206 3584 1959 3584
z
" transform="scale(0.015625)"/>
      <path id="DejaVuSans-41" d="M 2188 4044
L 1331 1722
L 3047 1722
L 2188 4044
z
M 1831 4666
L 2547 4666
L 4325 0
L 3669 0
L 3244 1197
L 1141 1197
L 716 0
L 50 0
L 1831 4666
z
" transform="scale(0.015625)"/>
      <path id="DejaVuSans-49" d="M 628 4666
L 1259 4666
L 1259 0
L 628 0
L 628 4666
z
" transform="scale(0.015625)"/>
     </defs>
     <use xlink:href="#DejaVuSans-50"/>
     <use xlink:href="#DejaVuSans-45" transform="translate(60.302734 0)"/>
     <use xlink:href="#DejaVuSans-4e" transform="translate(123.486328 0)"/>
     <use xlink:href="#DejaVuSans-44" transform="translate(198.291016 0)"/>
     <use xlink:href="#DejaVuSans-45" transform="translate(275.292969 0)"/>
     <use xlink:href="#DejaVuSans-44" transform="translate(338.476562 0)"/>
     <use xlink:href="#DejaVuSans-20" transform="translate(415.478516 0)"/>
     <use xlink:href="#DejaVuSans-74" transform="translate(447.265625 0)"/>
     <use xlink:href="#DejaVuSans-6f" transform="translate(486.474609 0)"/>
     <use xlink:href="#DejaVuSans-20" transform="translate(547.65625 0)"/>
     <use xlink:href="#DejaVuSans-50" transform="translate(579.443359 0)"/>
     <use xlink:href="#DejaVuSans-41" transform="translate(633.371094 0)"/>
     <use xlink:href="#DejaVuSans-49" transform="translate(701.779297 0)"/>
     <use xlink:href="#DejaVuSans-44" transform="translate(731.271484 0)"/>
    </g>
   </g>
   <g id="text_14">
    <!-- 2 transaction rows -->
    <g style="fill: #7c8795" transform="translate(46.949315 79.121606) scale(0.08 -0.08)">
     <defs>
      <path id="DejaVuSans-6e" d="M 3513 2113
L 3513 0
L 2938 0
L 2938 2094
Q 2938 2591 2744 2837
Q 2550 3084 2163 3084
Q 1697 3084 1428 2787
Q 1159 2491 1159 1978
L 1159 0
L 581 0
L 581 3500
L 1159 3500
L 1159 2956
Q 1366 3272 1645 3428
Q 1925 3584 2291 3584
Q 2894 3584 3203 3211
Q 3513 2838 3513 2113
z
" transform="scale(0.015625)"/>
      <path id="DejaVuSans-77" d="M 269 3500
L 844 3500
L 1563 769
L 2278 3500
L 2956 3500
L 3675 769
L 4391 3500
L 4966 3500
L 4050 0
L 3372 0
L 2619 2869
L 1863 0
L 1184 0
L 269 3500
z
" transform="scale(0.015625)"/>
     </defs>
     <use xlink:href="#DejaVuSans-32"/>
     <use xlink:href="#DejaVuSans-20" transform="translate(63.623047 0)"/>
     <use xlink:href="#DejaVuSans-74" transform="translate(95.410156 0)"/>
     <use xlink:href="#DejaVuSans-72" transform="translate(134.619141 0)"/>
     <use xlink:href="#DejaVuSans-61" transform="translate(175.732422 0)"/>
     <use xlink:href="#DejaVuSans-6e" transform="translate(237.011719 0)"/>
     <use xlink:href="#DejaVuSans-73" transform="translate(300.390625 0)"/>
     <use xlink:href="#DejaVuSans-61" transform="translate(352.490234 0)"/>
     <use xlink:href="#DejaVuSans-63" transform="translate(413.769531 0)"/>
     <use xlink:href="#DejaVuSans-74" transform="translate(468.75 0)"/>
     <use xlink:href="#DejaVuSans-69" transform="translate(507.958984 0)"/>
     <use xlink:href="#DejaVuSans-6f" transform="translate(535.742188 0)"/>
     <use xlink:href="#DejaVuSans-6e" transform="translate(596.923828 0)"/>
     <use xlink:href="#DejaVuSans-20" transform="translate(660.302734 0)"/>
     <use xlink:href="#DejaVuSans-72" transform="translate(692.089844 0)"/>
     <use xlink:href="#DejaVuSans-6f" transform="translate(730.953125 0)"/>
     <use xlink:href="#DejaVuSans-77" transform="translate(792.134766 0)"/>
     <use xlink:href="#DejaVuSans-73" transform="translate(873.921875 0)"/>
    </g>
   </g>
   <g id="PathCollection_3">
    <defs>
     <path id="m9fe71856f5" d="M 0 3.708099
C 0.983399 3.708099 1.926654 3.317391 2.622022 2.622022
C 3.317391 1.926654 3.708099 0.983399 3.708099 0
C 3.708099 -0.983399 3.317391 -1.926654 2.622022 -2.622022
C 1.926654 -3.317391 0.983399 -3.708099 0 -3.708099
C -0.983399 -3.708099 -1.926654 -3.317391 -2.622022 -2.622022
C -3.317391 -1.926654 -3.708099 -0.983399 -3.708099 0
C -3.708099 0.983399 -3.317391 1.926654 -2.622022 2.622022
C -1.926654 3.317391 -0.983399 3.708099 0 3.708099
z
" style="stroke: #3f72c8"/>
    </defs>
    <g clip-path="url(#pb72e8599ec)">
     <use xlink:href="#m9fe71856f5" x="292.038157" y="123.098494" style="fill: #3f72c8; stroke: #3f72c8"/>
    </g>
   </g>
   <g id="PathCollection_4">
    <g clip-path="url(#pb72e8599ec)">
     <use xlink:href="#m9ac58a690f" x="328.220673" y="123.098494" style="fill: #2e8b57; stroke: #2e8b57"/>
    </g>
   </g>
   <g id="text_15">
    <!-- PAID, REVERSED, PAID -->
    <g transform="translate(265.24129 108.439531) scale(0.08 -0.08)">
     <defs>
      <path id="DejaVuSans-2c" d="M 750 794
L 1409 794
L 1409 256
L 897 -744
L 494 -744
L 750 256
L 750 794
z
" transform="scale(0.015625)"/>
      <path id="DejaVuSans-52" d="M 2841 2188
Q 3044 2119 3236 1894
Q 3428 1669 3622 1275
L 4263 0
L 3584 0
L 2988 1197
Q 2756 1666 2539 1819
Q 2322 1972 1947 1972
L 1259 1972
L 1259 0
L 628 0
L 628 4666
L 2053 4666
Q 2853 4666 3247 4331
Q 3641 3997 3641 3322
Q 3641 2881 3436 2590
Q 3231 2300 2841 2188
z
M 1259 4147
L 1259 2491
L 2053 2491
Q 2509 2491 2742 2702
Q 2975 2913 2975 3322
Q 2975 3731 2742 3939
Q 2509 4147 2053 4147
L 1259 4147
z
" transform="scale(0.015625)"/>
      <path id="DejaVuSans-56" d="M 1831 0
L 50 4666
L 709 4666
L 2188 738
L 3669 4666
L 4325 4666
L 2547 0
L 1831 0
z
" transform="scale(0.015625)"/>
      <path id="DejaVuSans-53" d="M 3425 4513
L 3425 3897
Q 3066 4069 2747 4153
Q 2428 4238 2131 4238
Q 1616 4238 1336 4038
Q 1056 3838 1056 3469
Q 1056 3159 1242 3001
Q 1428 2844 1947 2747
L 2328 2669
Q 3034 2534 3370 2195
Q 3706 1856 3706 1288
Q 3706 609 3251 259
Q 2797 -91 1919 -91
Q 1588 -91 1214 -16
Q 841 59 441 206
L 441 856
Q 825 641 1194 531
Q 1563 422 1919 422
Q 2459 422 2753 634
Q 3047 847 3047 1241
Q 3047 1584 2836 1778
Q 2625 1972 2144 2069
L 1759 2144
Q 1053 2284 737 2584
Q 422 2884 422 3419
Q 422 4038 858 4394
Q 1294 4750 2059 4750
Q 2388 4750 2728 4690
Q 3069 4631 3425 4513
z
" transform="scale(0.015625)"/>
     </defs>
     <use xlink:href="#DejaVuSans-50"/>
     <use xlink:href="#DejaVuSans-41" transform="translate(53.927734 0)"/>
     <use xlink:href="#DejaVuSans-49" transform="translate(122.335938 0)"/>
     <use xlink:href="#DejaVuSans-44" transform="translate(151.828125 0)"/>
     <use xlink:href="#DejaVuSans-2c" transform="translate(228.830078 0)"/>
     <use xlink:href="#DejaVuSans-20" transform="translate(260.617188 0)"/>
     <use xlink:href="#DejaVuSans-52" transform="translate(292.404297 0)"/>
     <use xlink:href="#DejaVuSans-45" transform="translate(361.886719 0)"/>
     <use xlink:href="#DejaVuSans-56" transform="translate(425.070312 0)"/>
     <use xlink:href="#DejaVuSans-45" transform="translate(493.478516 0)"/>
     <use xlink:href="#DejaVuSans-52" transform="translate(556.662109 0)"/>
     <use xlink:href="#DejaVuSans-53" transform="translate(626.144531 0)"/>
     <use xlink:href="#DejaVuSans-45" transform="translate(689.621094 0)"/>
     <use xlink:href="#DejaVuSans-44" transform="translate(752.804688 0)"/>
     <use xlink:href="#DejaVuSans-2c" transform="translate(829.806641 0)"/>
     <use xlink:href="#DejaVuSans-20" transform="translate(861.59375 0)"/>
     <use xlink:href="#DejaVuSans-50" transform="translate(893.380859 0)"/>
     <use xlink:href="#DejaVuSans-41" transform="translate(947.308594 0)"/>
     <use xlink:href="#DejaVuSans-49" transform="translate(1015.716797 0)"/>
     <use xlink:href="#DejaVuSans-44" transform="translate(1045.208984 0)"/>
    </g>
   </g>
   <g id="text_16">
    <!-- 3 transaction rows -->
    <g style="fill: #7c8795" transform="translate(273.09004 140.200617) scale(0.08 -0.08)">
     <use xlink:href="#DejaVuSans-33"/>
     <use xlink:href="#DejaVuSans-20" transform="translate(63.623047 0)"/>
     <use xlink:href="#DejaVuSans-74" transform="translate(95.410156 0)"/>
     <use xlink:href="#DejaVuSans-72" transform="translate(134.619141 0)"/>
     <use xlink:href="#DejaVuSans-61" transform="translate(175.732422 0)"/>
     <use xlink:href="#DejaVuSans-6e" transform="translate(237.011719 0)"/>
     <use xlink:href="#DejaVuSans-73" transform="translate(300.390625 0)"/>
     <use xlink:href="#DejaVuSans-61" transform="translate(352.490234 0)"/>
     <use xlink:href="#DejaVuSans-63" transform="translate(413.769531 0)"/>
     <use xlink:href="#DejaVuSans-74" transform="translate(468.75 0)"/>
     <use xlink:href="#DejaVuSans-69" transform="translate(507.958984 0)"/>
     <use xlink:href="#DejaVuSans-6f" transform="translate(535.742188 0)"/>
     <use xlink:href="#DejaVuSans-6e" transform="translate(596.923828 0)"/>
     <use xlink:href="#DejaVuSans-20" transform="translate(660.302734 0)"/>
     <use xlink:href="#DejaVuSans-72" transform="translate(692.089844 0)"/>
     <use xlink:href="#DejaVuSans-6f" transform="translate(730.953125 0)"/>
     <use xlink:href="#DejaVuSans-77" transform="translate(792.134766 0)"/>
     <use xlink:href="#DejaVuSans-73" transform="translate(873.921875 0)"/>
    </g>
   </g>
   <g id="PathCollection_5">
    <g clip-path="url(#pb72e8599ec)">
     <use xlink:href="#m9fe71856f5" x="478.981156" y="184.177505" style="fill: #3f72c8; stroke: #3f72c8"/>
    </g>
   </g>
   <g id="PathCollection_6">
    <g clip-path="url(#pb72e8599ec)">
     <use xlink:href="#m9ac58a690f" x="478.981156" y="184.177505" style="fill: #2e8b57; stroke: #2e8b57"/>
    </g>
   </g>
   <g id="text_17">
    <!-- Submitted and PAID -->
    <g transform="translate(439.001781 169.518543) scale(0.08 -0.08)">
     <defs>
      <path id="DejaVuSans-75" d="M 544 1381
L 544 3500
L 1119 3500
L 1119 1403
Q 1119 906 1312 657
Q 1506 409 1894 409
Q 2359 409 2629 706
Q 2900 1003 2900 1516
L 2900 3500
L 3475 3500
L 3475 0
L 2900 0
L 2900 538
Q 2691 219 2414 64
Q 2138 -91 1772 -91
Q 1169 -91 856 284
Q 544 659 544 1381
z
M 1991 3584
L 1991 3584
z
" transform="scale(0.015625)"/>
      <path id="DejaVuSans-62" d="M 3116 1747
Q 3116 2381 2855 2742
Q 2594 3103 2138 3103
Q 1681 3103 1420 2742
Q 1159 2381 1159 1747
Q 1159 1113 1420 752
Q 1681 391 2138 391
Q 2594 391 2855 752
Q 3116 1113 3116 1747
z
M 1159 2969
Q 1341 3281 1617 3432
Q 1894 3584 2278 3584
Q 2916 3584 3314 3078
Q 3713 2572 3713 1747
Q 3713 922 3314 415
Q 2916 -91 2278 -91
Q 1894 -91 1617 61
Q 1341 213 1159 525
L 1159 0
L 581 0
L 581 4863
L 1159 4863
L 1159 2969
z
" transform="scale(0.015625)"/>
      <path id="DejaVuSans-6d" d="M 3328 2828
Q 3544 3216 3844 3400
Q 4144 3584 4550 3584
Q 5097 3584 5394 3201
Q 5691 2819 5691 2113
L 5691 0
L 5113 0
L 5113 2094
Q 5113 2597 4934 2840
Q 4756 3084 4391 3084
Q 3944 3084 3684 2787
Q 3425 2491 3425 1978
L 3425 0
L 2847 0
L 2847 2094
Q 2847 2600 2669 2842
Q 2491 3084 2119 3084
Q 1678 3084 1418 2786
Q 1159 2488 1159 1978
L 1159 0
L 581 0
L 581 3500
L 1159 3500
L 1159 2956
Q 1356 3278 1631 3431
Q 1906 3584 2284 3584
Q 2666 3584 2933 3390
Q 3200 3197 3328 2828
z
" transform="scale(0.015625)"/>
     </defs>
     <use xlink:href="#DejaVuSans-53"/>
     <use xlink:href="#DejaVuSans-75" transform="translate(63.476562 0)"/>
     <use xlink:href="#DejaVuSans-62" transform="translate(126.855469 0)"/>
     <use xlink:href="#DejaVuSans-6d" transform="translate(190.332031 0)"/>
     <use xlink:href="#DejaVuSans-69" transform="translate(287.744141 0)"/>
     <use xlink:href="#DejaVuSans-74" transform="translate(315.527344 0)"/>
     <use xlink:href="#DejaVuSans-74" transform="translate(354.736328 0)"/>
     <use xlink:href="#DejaVuSans-65" transform="translate(393.945312 0)"/>
     <use xlink:href="#DejaVuSans-64" transform="translate(455.46875 0)"/>
     <use xlink:href="#DejaVuSans-20" transform="translate(518.945312 0)"/>
     <use xlink:href="#DejaVuSans-61" transform="translate(550.732422 0)"/>
     <use xlink:href="#DejaVuSans-6e" transform="translate(612.011719 0)"/>
     <use xlink:href="#DejaVuSans-64" transform="translate(675.390625 0)"/>
     <use xlink:href="#DejaVuSans-20" transform="translate(738.867188 0)"/>
     <use xlink:href="#DejaVuSans-50" transform="translate(770.654297 0)"/>
     <use xlink:href="#DejaVuSans-41" transform="translate(824.582031 0)"/>
     <use xlink:href="#DejaVuSans-49" transform="translate(892.990234 0)"/>
     <use xlink:href="#DejaVuSans-44" transform="translate(922.482422 0)"/>
    </g>
   </g>
   <g id="text_18">
    <!-- 1 transaction rows -->
    <g style="fill: #7c8795" transform="translate(441.941781 201.279629) scale(0.08 -0.08)">
     <use xlink:href="#DejaVuSans-31"/>
     <use xlink:href="#DejaVuSans-20" transform="translate(63.623047 0)"/>
     <use xlink:href="#DejaVuSans-74" transform="translate(95.410156 0)"/>
     <use xlink:href="#DejaVuSans-72" transform="translate(134.619141 0)"/>
     <use xlink:href="#DejaVuSans-61" transform="translate(175.732422 0)"/>
     <use xlink:href="#DejaVuSans-6e" transform="translate(237.011719 0)"/>
     <use xlink:href="#DejaVuSans-73" transform="translate(300.390625 0)"/>
     <use xlink:href="#DejaVuSans-61" transform="translate(352.490234 0)"/>
     <use xlink:href="#DejaVuSans-63" transform="translate(413.769531 0)"/>
     <use xlink:href="#DejaVuSans-74" transform="translate(468.75 0)"/>
     <use xlink:href="#DejaVuSans-69" transform="translate(507.958984 0)"/>
     <use xlink:href="#DejaVuSans-6f" transform="translate(535.742188 0)"/>
     <use xlink:href="#DejaVuSans-6e" transform="translate(596.923828 0)"/>
     <use xlink:href="#DejaVuSans-20" transform="translate(660.302734 0)"/>
     <use xlink:href="#DejaVuSans-72" transform="translate(692.089844 0)"/>
     <use xlink:href="#DejaVuSans-6f" transform="translate(730.953125 0)"/>
     <use xlink:href="#DejaVuSans-77" transform="translate(792.134766 0)"/>
     <use xlink:href="#DejaVuSans-73" transform="translate(873.921875 0)"/>
    </g>
   </g>
   <g id="PathCollection_7">
    <g clip-path="url(#pb72e8599ec)">
     <use xlink:href="#m9fe71856f5" x="659.893735" y="245.256517" style="fill: #3f72c8; stroke: #3f72c8"/>
    </g>
   </g>
   <g id="PathCollection_8">
    <g clip-path="url(#pb72e8599ec)">
     <use xlink:href="#m9ac58a690f" x="659.893735" y="245.256517" style="fill: #2e8b57; stroke: #2e8b57"/>
    </g>
   </g>
   <g id="text_19">
    <!-- Submitted and PAID -->
    <g transform="translate(619.91436 230.597554) scale(0.08 -0.08)">
     <use xlink:href="#DejaVuSans-53"/>
     <use xlink:href="#DejaVuSans-75" transform="translate(63.476562 0)"/>
     <use xlink:href="#DejaVuSans-62" transform="translate(126.855469 0)"/>
     <use xlink:href="#DejaVuSans-6d" transform="translate(190.332031 0)"/>
     <use xlink:href="#DejaVuSans-69" transform="translate(287.744141 0)"/>
     <use xlink:href="#DejaVuSans-74" transform="translate(315.527344 0)"/>
     <use xlink:href="#DejaVuSans-74" transform="translate(354.736328 0)"/>
     <use xlink:href="#DejaVuSans-65" transform="translate(393.945312 0)"/>
     <use xlink:href="#DejaVuSans-64" transform="translate(455.46875 0)"/>
     <use xlink:href="#DejaVuSans-20" transform="translate(518.945312 0)"/>
     <use xlink:href="#DejaVuSans-61" transform="translate(550.732422 0)"/>
     <use xlink:href="#DejaVuSans-6e" transform="translate(612.011719 0)"/>
     <use xlink:href="#DejaVuSans-64" transform="translate(675.390625 0)"/>
     <use xlink:href="#DejaVuSans-20" transform="translate(738.867188 0)"/>
     <use xlink:href="#DejaVuSans-50" transform="translate(770.654297 0)"/>
     <use xlink:href="#DejaVuSans-41" transform="translate(824.582031 0)"/>
     <use xlink:href="#DejaVuSans-49" transform="translate(892.990234 0)"/>
     <use xlink:href="#DejaVuSans-44" transform="translate(922.482422 0)"/>
    </g>
   </g>
   <g id="text_20">
    <!-- 1 transaction rows -->
    <g style="fill: #7c8795" transform="translate(622.85436 262.35864) scale(0.08 -0.08)">
     <use xlink:href="#DejaVuSans-31"/>
     <use xlink:href="#DejaVuSans-20" transform="translate(63.623047 0)"/>
     <use xlink:href="#DejaVuSans-74" transform="translate(95.410156 0)"/>
     <use xlink:href="#DejaVuSans-72" transform="translate(134.619141 0)"/>
     <use xlink:href="#DejaVuSans-61" transform="translate(175.732422 0)"/>
     <use xlink:href="#DejaVuSans-6e" transform="translate(237.011719 0)"/>
     <use xlink:href="#DejaVuSans-73" transform="translate(300.390625 0)"/>
     <use xlink:href="#DejaVuSans-61" transform="translate(352.490234 0)"/>
     <use xlink:href="#DejaVuSans-63" transform="translate(413.769531 0)"/>
     <use xlink:href="#DejaVuSans-74" transform="translate(468.75 0)"/>
     <use xlink:href="#DejaVuSans-69" transform="translate(507.958984 0)"/>
     <use xlink:href="#DejaVuSans-6f" transform="translate(535.742188 0)"/>
     <use xlink:href="#DejaVuSans-6e" transform="translate(596.923828 0)"/>
     <use xlink:href="#DejaVuSans-20" transform="translate(660.302734 0)"/>
     <use xlink:href="#DejaVuSans-72" transform="translate(692.089844 0)"/>
     <use xlink:href="#DejaVuSans-6f" transform="translate(730.953125 0)"/>
     <use xlink:href="#DejaVuSans-77" transform="translate(792.134766 0)"/>
     <use xlink:href="#DejaVuSans-73" transform="translate(873.921875 0)"/>
    </g>
   </g>
   <g id="text_21">
    <!-- PAT02034: Transactions Collapse into 4 Completed Attempts -->
    <g transform="translate(156.700791 16.318125) scale(0.12 -0.12)">
     <defs>
      <path id="DejaVuSans-Bold-50" d="M 588 4666
L 2584 4666
Q 3475 4666 3951 4270
Q 4428 3875 4428 3144
Q 4428 2409 3951 2014
Q 3475 1619 2584 1619
L 1791 1619
L 1791 0
L 588 0
L 588 4666
z
M 1791 3794
L 1791 2491
L 2456 2491
Q 2806 2491 2997 2661
Q 3188 2831 3188 3144
Q 3188 3456 2997 3625
Q 2806 3794 2456 3794
L 1791 3794
z
" transform="scale(0.015625)"/>
      <path id="DejaVuSans-Bold-41" d="M 3419 850
L 1538 850
L 1241 0
L 31 0
L 1759 4666
L 3194 4666
L 4922 0
L 3713 0
L 3419 850
z
M 1838 1716
L 3116 1716
L 2478 3572
L 1838 1716
z
" transform="scale(0.015625)"/>
      <path id="DejaVuSans-Bold-54" d="M 31 4666
L 4331 4666
L 4331 3756
L 2784 3756
L 2784 0
L 1581 0
L 1581 3756
L 31 3756
L 31 4666
z
" transform="scale(0.015625)"/>
      <path id="DejaVuSans-Bold-30" d="M 2944 2338
Q 2944 3213 2780 3570
Q 2616 3928 2228 3928
Q 1841 3928 1675 3570
Q 1509 3213 1509 2338
Q 1509 1453 1675 1090
Q 1841 728 2228 728
Q 2613 728 2778 1090
Q 2944 1453 2944 2338
z
M 4147 2328
Q 4147 1169 3647 539
Q 3147 -91 2228 -91
Q 1306 -91 806 539
Q 306 1169 306 2328
Q 306 3491 806 4120
Q 1306 4750 2228 4750
Q 3147 4750 3647 4120
Q 4147 3491 4147 2328
z
" transform="scale(0.015625)"/>
      <path id="DejaVuSans-Bold-32" d="M 1844 884
L 3897 884
L 3897 0
L 506 0
L 506 884
L 2209 2388
Q 2438 2594 2547 2791
Q 2656 2988 2656 3200
Q 2656 3528 2436 3728
Q 2216 3928 1850 3928
Q 1569 3928 1234 3808
Q 900 3688 519 3450
L 519 4475
Q 925 4609 1322 4679
Q 1719 4750 2100 4750
Q 2938 4750 3402 4381
Q 3866 4013 3866 3353
Q 3866 2972 3669 2642
Q 3472 2313 2841 1759
L 1844 884
z
" transform="scale(0.015625)"/>
      <path id="DejaVuSans-Bold-33" d="M 2981 2516
Q 3453 2394 3698 2092
Q 3944 1791 3944 1325
Q 3944 631 3412 270
Q 2881 -91 1863 -91
Q 1503 -91 1142 -33
Q 781 25 428 141
L 428 1069
Q 766 900 1098 814
Q 1431 728 1753 728
Q 2231 728 2486 893
Q 2741 1059 2741 1369
Q 2741 1688 2480 1852
Q 2219 2016 1709 2016
L 1228 2016
L 1228 2791
L 1734 2791
Q 2188 2791 2409 2933
Q 2631 3075 2631 3366
Q 2631 3634 2415 3781
Q 2200 3928 1806 3928
Q 1516 3928 1219 3862
Q 922 3797 628 3669
L 628 4550
Q 984 4650 1334 4700
Q 1684 4750 2022 4750
Q 2931 4750 3382 4451
Q 3834 4153 3834 3553
Q 3834 3144 3618 2883
Q 3403 2622 2981 2516
z
" transform="scale(0.015625)"/>
      <path id="DejaVuSans-Bold-34" d="M 2356 3675
L 1038 1722
L 2356 1722
L 2356 3675
z
M 2156 4666
L 3494 4666
L 3494 1722
L 4159 1722
L 4159 850
L 3494 850
L 3494 0
L 2356 0
L 2356 850
L 288 850
L 288 1881
L 2156 4666
z
" transform="scale(0.015625)"/>
      <path id="DejaVuSans-Bold-3a" d="M 716 3500
L 1844 3500
L 1844 2291
L 716 2291
L 716 3500
z
M 716 1209
L 1844 1209
L 1844 0
L 716 0
L 716 1209
z
" transform="scale(0.015625)"/>
      <path id="DejaVuSans-Bold-20" transform="scale(0.015625)"/>
      <path id="DejaVuSans-Bold-72" d="M 3138 2547
Q 2991 2616 2845 2648
Q 2700 2681 2553 2681
Q 2122 2681 1889 2404
Q 1656 2128 1656 1613
L 1656 0
L 538 0
L 538 3500
L 1656 3500
L 1656 2925
Q 1872 3269 2151 3426
Q 2431 3584 2822 3584
Q 2878 3584 2943 3579
Q 3009 3575 3134 3559
L 3138 2547
z
" transform="scale(0.015625)"/>
      <path id="DejaVuSans-Bold-61" d="M 2106 1575
Q 1756 1575 1579 1456
Q 1403 1338 1403 1106
Q 1403 894 1545 773
Q 1688 653 1941 653
Q 2256 653 2472 879
Q 2688 1106 2688 1447
L 2688 1575
L 2106 1575
z
M 3816 1997
L 3816 0
L 2688 0
L 2688 519
Q 2463 200 2181 54
Q 1900 -91 1497 -91
Q 953 -91 614 226
Q 275 544 275 1050
Q 275 1666 698 1953
Q 1122 2241 2028 2241
L 2688 2241
L 2688 2328
Q 2688 2594 2478 2717
Q 2269 2841 1825 2841
Q 1466 2841 1156 2769
Q 847 2697 581 2553
L 581 3406
Q 941 3494 1303 3539
Q 1666 3584 2028 3584
Q 2975 3584 3395 3211
Q 3816 2838 3816 1997
z
" transform="scale(0.015625)"/>
      <path id="DejaVuSans-Bold-6e" d="M 4056 2131
L 4056 0
L 2931 0
L 2931 347
L 2931 1631
Q 2931 2084 2911 2256
Q 2891 2428 2841 2509
Q 2775 2619 2662 2680
Q 2550 2741 2406 2741
Q 2056 2741 1856 2470
Q 1656 2200 1656 1722
L 1656 0
L 538 0
L 538 3500
L 1656 3500
L 1656 2988
Q 1909 3294 2193 3439
Q 2478 3584 2822 3584
Q 3428 3584 3742 3212
Q 4056 2841 4056 2131
z
" transform="scale(0.015625)"/>
      <path id="DejaVuSans-Bold-73" d="M 3272 3391
L 3272 2541
Q 2913 2691 2578 2766
Q 2244 2841 1947 2841
Q 1628 2841 1473 2761
Q 1319 2681 1319 2516
Q 1319 2381 1436 2309
Q 1553 2238 1856 2203
L 2053 2175
Q 2913 2066 3209 1816
Q 3506 1566 3506 1031
Q 3506 472 3093 190
Q 2681 -91 1863 -91
Q 1516 -91 1145 -36
Q 775 19 384 128
L 384 978
Q 719 816 1070 734
Q 1422 653 1784 653
Q 2113 653 2278 743
Q 2444 834 2444 1013
Q 2444 1163 2330 1236
Q 2216 1309 1875 1350
L 1678 1375
Q 931 1469 631 1722
Q 331 1975 331 2491
Q 331 3047 712 3315
Q 1094 3584 1881 3584
Q 2191 3584 2531 3537
Q 2872 3491 3272 3391
z
" transform="scale(0.015625)"/>
      <path id="DejaVuSans-Bold-63" d="M 3366 3391
L 3366 2478
Q 3138 2634 2908 2709
Q 2678 2784 2431 2784
Q 1963 2784 1702 2511
Q 1441 2238 1441 1747
Q 1441 1256 1702 982
Q 1963 709 2431 709
Q 2694 709 2930 787
Q 3166 866 3366 1019
L 3366 103
Q 3103 6 2833 -42
Q 2563 -91 2291 -91
Q 1344 -91 809 395
Q 275 881 275 1747
Q 275 2613 809 3098
Q 1344 3584 2291 3584
Q 2566 3584 2833 3536
Q 3100 3488 3366 3391
z
" transform="scale(0.015625)"/>
      <path id="DejaVuSans-Bold-74" d="M 1759 4494
L 1759 3500
L 2913 3500
L 2913 2700
L 1759 2700
L 1759 1216
Q 1759 972 1856 886
Q 1953 800 2241 800
L 2816 800
L 2816 0
L 1856 0
Q 1194 0 917 276
Q 641 553 641 1216
L 641 2700
L 84 2700
L 84 3500
L 641 3500
L 641 4494
L 1759 4494
z
" transform="scale(0.015625)"/>
      <path id="DejaVuSans-Bold-69" d="M 538 3500
L 1656 3500
L 1656 0
L 538 0
L 538 3500
z
M 538 4863
L 1656 4863
L 1656 3950
L 538 3950
L 538 4863
z
" transform="scale(0.015625)"/>
      <path id="DejaVuSans-Bold-6f" d="M 2203 2784
Q 1831 2784 1636 2517
Q 1441 2250 1441 1747
Q 1441 1244 1636 976
Q 1831 709 2203 709
Q 2569 709 2762 976
Q 2956 1244 2956 1747
Q 2956 2250 2762 2517
Q 2569 2784 2203 2784
z
M 2203 3584
Q 3106 3584 3614 3096
Q 4122 2609 4122 1747
Q 4122 884 3614 396
Q 3106 -91 2203 -91
Q 1297 -91 786 396
Q 275 884 275 1747
Q 275 2609 786 3096
Q 1297 3584 2203 3584
z
" transform="scale(0.015625)"/>
      <path id="DejaVuSans-Bold-43" d="M 4288 256
Q 3956 84 3597 -3
Q 3238 -91 2847 -91
Q 1681 -91 1000 561
Q 319 1213 319 2328
Q 319 3447 1000 4098
Q 1681 4750 2847 4750
Q 3238 4750 3597 4662
Q 3956 4575 4288 4403
L 4288 3438
Q 3953 3666 3628 3772
Q 3303 3878 2944 3878
Q 2300 3878 1931 3465
Q 1563 3053 1563 2328
Q 1563 1606 1931 1193
Q 2300 781 2944 781
Q 3303 781 3628 887
Q 3953 994 4288 1222
L 4288 256
z
" transform="scale(0.015625)"/>
      <path id="DejaVuSans-Bold-6c" d="M 538 4863
L 1656 4863
L 1656 0
L 538 0
L 538 4863
z
" transform="scale(0.015625)"/>
      <path id="DejaVuSans-Bold-70" d="M 1656 506
L 1656 -1331
L 538 -1331
L 538 3500
L 1656 3500
L 1656 2988
Q 1888 3294 2169 3439
Q 2450 3584 2816 3584
Q 3463 3584 3878 3070
Q 4294 2556 4294 1747
Q 4294 938 3878 423
Q 3463 -91 2816 -91
Q 2450 -91 2169 54
Q 1888 200 1656 506
z
M 2400 2772
Q 2041 2772 1848 2508
Q 1656 2244 1656 1747
Q 1656 1250 1848 986
Q 2041 722 2400 722
Q 2759 722 2948 984
Q 3138 1247 3138 1747
Q 3138 2247 2948 2509
Q 2759 2772 2400 2772
z
" transform="scale(0.015625)"/>
      <path id="DejaVuSans-Bold-65" d="M 4031 1759
L 4031 1441
L 1416 1441
Q 1456 1047 1700 850
Q 1944 653 2381 653
Q 2734 653 3104 758
Q 3475 863 3866 1075
L 3866 213
Q 3469 63 3072 -14
Q 2675 -91 2278 -91
Q 1328 -91 801 392
Q 275 875 275 1747
Q 275 2603 792 3093
Q 1309 3584 2216 3584
Q 3041 3584 3536 3087
Q 4031 2591 4031 1759
z
M 2881 2131
Q 2881 2450 2695 2645
Q 2509 2841 2209 2841
Q 1884 2841 1681 2658
Q 1478 2475 1428 2131
L 2881 2131
z
" transform="scale(0.015625)"/>
      <path id="DejaVuSans-Bold-6d" d="M 3781 2919
Q 3994 3244 4286 3414
Q 4578 3584 4928 3584
Q 5531 3584 5847 3212
Q 6163 2841 6163 2131
L 6163 0
L 5038 0
L 5038 1825
Q 5041 1866 5042 1909
Q 5044 1953 5044 2034
Q 5044 2406 4934 2573
Q 4825 2741 4581 2741
Q 4263 2741 4089 2478
Q 3916 2216 3909 1719
L 3909 0
L 2784 0
L 2784 1825
Q 2784 2406 2684 2573
Q 2584 2741 2328 2741
Q 2006 2741 1831 2477
Q 1656 2213 1656 1722
L 1656 0
L 531 0
L 531 3500
L 1656 3500
L 1656 2988
Q 1863 3284 2130 3434
Q 2397 3584 2719 3584
Q 3081 3584 3359 3409
Q 3638 3234 3781 2919
z
" transform="scale(0.015625)"/>
      <path id="DejaVuSans-Bold-64" d="M 2919 2988
L 2919 4863
L 4044 4863
L 4044 0
L 2919 0
L 2919 506
Q 2688 197 2409 53
Q 2131 -91 1766 -91
Q 1119 -91 703 423
Q 288 938 288 1747
Q 288 2556 703 3070
Q 1119 3584 1766 3584
Q 2128 3584 2408 3439
Q 2688 3294 2919 2988
z
M 2181 722
Q 2541 722 2730 984
Q 2919 1247 2919 1747
Q 2919 2247 2730 2509
Q 2541 2772 2181 2772
Q 1825 2772 1636 2509
Q 1447 2247 1447 1747
Q 1447 1247 1636 984
Q 1825 722 2181 722
z
" transform="scale(0.015625)"/>
     </defs>
     <use xlink:href="#DejaVuSans-Bold-50"/>
     <use xlink:href="#DejaVuSans-Bold-41" transform="translate(64.166016 0)"/>
     <use xlink:href="#DejaVuSans-Bold-54" transform="translate(133.808594 0)"/>
     <use xlink:href="#DejaVuSans-Bold-30" transform="translate(202.021484 0)"/>
     <use xlink:href="#DejaVuSans-Bold-32" transform="translate(271.601562 0)"/>
     <use xlink:href="#DejaVuSans-Bold-30" transform="translate(341.181641 0)"/>
     <use xlink:href="#DejaVuSans-Bold-33" transform="translate(410.761719 0)"/>
     <use xlink:href="#DejaVuSans-Bold-34" transform="translate(480.341797 0)"/>
     <use xlink:href="#DejaVuSans-Bold-3a" transform="translate(549.921875 0)"/>
     <use xlink:href="#DejaVuSans-Bold-20" transform="translate(589.912109 0)"/>
     <use xlink:href="#DejaVuSans-Bold-54" transform="translate(624.726562 0)"/>
     <use xlink:href="#DejaVuSans-Bold-72" transform="translate(681.939453 0)"/>
     <use xlink:href="#DejaVuSans-Bold-61" transform="translate(731.255859 0)"/>
     <use xlink:href="#DejaVuSans-Bold-6e" transform="translate(798.736328 0)"/>
     <use xlink:href="#DejaVuSans-Bold-73" transform="translate(869.927734 0)"/>
     <use xlink:href="#DejaVuSans-Bold-61" transform="translate(929.449219 0)"/>
     <use xlink:href="#DejaVuSans-Bold-63" transform="translate(996.929688 0)"/>
     <use xlink:href="#DejaVuSans-Bold-74" transform="translate(1056.207031 0)"/>
     <use xlink:href="#DejaVuSans-Bold-69" transform="translate(1104.009766 0)"/>
     <use xlink:href="#DejaVuSans-Bold-6f" transform="translate(1138.287109 0)"/>
     <use xlink:href="#DejaVuSans-Bold-6e" transform="translate(1206.988281 0)"/>
     <use xlink:href="#DejaVuSans-Bold-73" transform="translate(1278.179688 0)"/>
     <use xlink:href="#DejaVuSans-Bold-20" transform="translate(1337.701172 0)"/>
     <use xlink:href="#DejaVuSans-Bold-43" transform="translate(1372.515625 0)"/>
     <use xlink:href="#DejaVuSans-Bold-6f" transform="translate(1445.904297 0)"/>
     <use xlink:href="#DejaVuSans-Bold-6c" transform="translate(1514.605469 0)"/>
     <use xlink:href="#DejaVuSans-Bold-6c" transform="translate(1548.882812 0)"/>
     <use xlink:href="#DejaVuSans-Bold-61" transform="translate(1583.160156 0)"/>
     <use xlink:href="#DejaVuSans-Bold-70" transform="translate(1650.640625 0)"/>
     <use xlink:href="#DejaVuSans-Bold-73" transform="translate(1722.222656 0)"/>
     <use xlink:href="#DejaVuSans-Bold-65" transform="translate(1781.744141 0)"/>
     <use xlink:href="#DejaVuSans-Bold-20" transform="translate(1849.566406 0)"/>
     <use xlink:href="#DejaVuSans-Bold-69" transform="translate(1884.380859 0)"/>
     <use xlink:href="#DejaVuSans-Bold-6e" transform="translate(1918.658203 0)"/>
     <use xlink:href="#DejaVuSans-Bold-74" transform="translate(1989.849609 0)"/>
     <use xlink:href="#DejaVuSans-Bold-6f" transform="translate(2037.652344 0)"/>
     <use xlink:href="#DejaVuSans-Bold-20" transform="translate(2106.353516 0)"/>
     <use xlink:href="#DejaVuSans-Bold-34" transform="translate(2141.167969 0)"/>
     <use xlink:href="#DejaVuSans-Bold-20" transform="translate(2210.748047 0)"/>
     <use xlink:href="#DejaVuSans-Bold-43" transform="translate(2245.5625 0)"/>
     <use xlink:href="#DejaVuSans-Bold-6f" transform="translate(2318.951172 0)"/>
     <use xlink:href="#DejaVuSans-Bold-6d" transform="translate(2387.652344 0)"/>
     <use xlink:href="#DejaVuSans-Bold-70" transform="translate(2491.851562 0)"/>
     <use xlink:href="#DejaVuSans-Bold-6c" transform="translate(2563.433594 0)"/>
     <use xlink:href="#DejaVuSans-Bold-65" transform="translate(2597.710938 0)"/>
     <use xlink:href="#DejaVuSans-Bold-74" transform="translate(2665.533203 0)"/>
     <use xlink:href="#DejaVuSans-Bold-65" transform="translate(2713.335938 0)"/>
     <use xlink:href="#DejaVuSans-Bold-64" transform="translate(2781.158203 0)"/>
     <use xlink:href="#DejaVuSans-Bold-20" transform="translate(2852.740234 0)"/>
     <use xlink:href="#DejaVuSans-Bold-41" transform="translate(2887.554688 0)"/>
     <use xlink:href="#DejaVuSans-Bold-74" transform="translate(2964.947266 0)"/>
     <use xlink:href="#DejaVuSans-Bold-74" transform="translate(3012.75 0)"/>
     <use xlink:href="#DejaVuSans-Bold-65" transform="translate(3060.552734 0)"/>
     <use xlink:href="#DejaVuSans-Bold-6d" transform="translate(3128.375 0)"/>
     <use xlink:href="#DejaVuSans-Bold-70" transform="translate(3232.574219 0)"/>
     <use xlink:href="#DejaVuSans-Bold-74" transform="translate(3304.15625 0)"/>
     <use xlink:href="#DejaVuSans-Bold-73" transform="translate(3351.958984 0)"/>
    </g>
   </g>
  </g>
 </g>
 <defs>
  <clipPath id="pb72e8599ec">
   <rect x="33.031647" y="22.318125" width="656.712664" height="256.531848"/>
  </clipPath>
 </defs>
</svg>
