<?xml version="1.0" encoding="utf-8" standalone="no"?>
<!DOCTYPE svg PUBLIC "-//W3C//DTD SVG 1.1//EN"
  "http://www.w3.org/Graphics/SVG/1.1/DTD/svg11.dtd">
<svg xmlns:xlink="http://www.w3.org/1999/xlink" width="645.038416pt" height="340.226562pt" viewBox="0 0 645.038416 340.226562" xmlns="http://www.w3.org/2000/svg" version="1.1">
 <metadata>
  <rdf:RDF xmlns:dc="http://purl.org/dc/elements/1.1/" xmlns:cc="http://creativecommons.org/ns#" xmlns:rdf="http://www.w3.org/1999/02/22-rdf-syntax-ns#">
   <cc:Work>
    <dc:type rdf:resource="http://purl.org/dc/dcmitype/StillImage"/>
    <dc:date>2026-06-21T01:03:41.377242</dc:date>
    <dc:format>image/svg+xml</dc:format>
    <dc:creator>
     <cc:Agent>
      <dc:title>Matplotlib v3.10.9, https://matplotlib.org/</dc:title>
     </cc:Agent>
    </dc:creator>
   </cc:Work>
  </rdf:RDF>
 </metadata>
 <defs>
  <style type="text/css">*{stroke-linejoin: round; stroke-linecap: butt}</style>
 </defs>
 <g id="figure_1">
  <g id="patch_1">
   <path d="M 0 340.226562
L 645.038416 340.226562
L 645.038416 0
L 0 0
z
" style="fill: #ffffff"/>
  </g>
  <g id="axes_1">
   <g id="patch_2">
    <path d="M 89.227812 303.638125
L 514.804955 303.638125
L 514.804955 22.318125
L 89.227812 22.318125
z
" style="fill: #ffffff"/>
   </g>
   <g id="patch_3">
    <path d="M 89.227812 290.850852
L 89.227812 290.850852
L 89.227812 237.009704
L 89.227812 237.009704
z
" clip-path="url(#pbd791626a4)" style="fill: #3f72c8"/>
   </g>
   <g id="patch_4">
    <path d="M 89.227812 223.549417
L 494.539377 223.549417
L 494.539377 169.708269
L 89.227812 169.708269
z
" clip-path="url(#pbd791626a4)" style="fill: #3f72c8"/>
   </g>
   <g id="patch_5">
    <path d="M 89.227812 156.247981
L 494.539377 156.247981
L 494.539377 102.406833
L 89.227812 102.406833
z
" clip-path="url(#pbd791626a4)" style="fill: #3f72c8"/>
   </g>
   <g id="patch_6">
    <path d="M 89.227812 88.946546
L 89.227812 88.946546
L 89.227812 35.105398
L 89.227812 35.105398
z
" clip-path="url(#pbd791626a4)" style="fill: #3f72c8"/>
   </g>
   <g id="matplotlib.axis_1">
    <g id="xtick_1">
     <g id="line2d_1">
      <defs>
       <path id="m79d4738570" d="M 0 0
L 0 3.5
" style="stroke: #000000; stroke-width: 0.8"/>
      </defs>
      <g>
       <use xlink:href="#m79d4738570" x="89.227812" y="303.638125" style="stroke: #000000; stroke-width: 0.8"/>
      </g>
     </g>
     <g id="text_1">
      <!-- 0 -->
      <g transform="translate(86.364688 317.476719) scale(0.09 -0.09)">
       <defs>
        <path id="DejaVuSans-30" d="M 2034 4250
Q 1547 4250 1301 3770
Q 1056 3291 1056 2328
Q 1056 1369 1301 889
Q 1547 409 2034 409
Q 2525 409 2770 889
Q 3016 1369 3016 2328
Q 3016 3291 2770 3770
Q 2525 4250 2034 4250
z
M 2034 4750
Q 2819 4750 3233 4129
Q 3647 3509 3647 2328
Q 3647 1150 3233 529
Q 2819 -91 2034 -91
Q 1250 -91 836 529
Q 422 1150 422 2328
Q 422 3509 836 4129
Q 1250 4750 2034 4750
z
" transform="scale(0.015625)"/>
       </defs>
       <use xlink:href="#DejaVuSans-30"/>
      </g>
     </g>
    </g>
    <g id="xtick_2">
     <g id="line2d_2">
      <g>
       <use xlink:href="#m79d4738570" x="156.77974" y="303.638125" style="stroke: #000000; stroke-width: 0.8"/>
      </g>
     </g>
     <g id="text_2">
      <!-- 2 -->
      <g transform="translate(153.916615 317.476719) scale(0.09 -0.09)">
       <defs>
        <path id="DejaVuSans-32" d="M 1228 531
L 3431 531
L 3431 0
L 469 0
L 469 531
Q 828 903 1448 1529
Q 2069 2156 2228 2338
Q 2531 2678 2651 2914
Q 2772 3150 2772 3378
Q 2772 3750 2511 3984
Q 2250 4219 1831 4219
Q 1534 4219 1204 4116
Q 875 4013 500 3803
L 500 4441
Q 881 4594 1212 4672
Q 1544 4750 1819 4750
Q 2544 4750 2975 4387
Q 3406 4025 3406 3419
Q 3406 3131 3298 2873
Q 3191 2616 2906 2266
Q 2828 2175 2409 1742
Q 1991 1309 1228 531
z
" transform="scale(0.015625)"/>
       </defs>
       <use xlink:href="#DejaVuSans-32"/>
      </g>
     </g>
    </g>
    <g id="xtick_3">
     <g id="line2d_3">
      <g>
       <use xlink:href="#m79d4738570" x="224.331667" y="303.638125" style="stroke: #000000; stroke-width: 0.8"/>
      </g>
     </g>
     <g id="text_3">
      <!-- 4 -->
      <g transform="translate(221.468542 317.476719) scale(0.09 -0.09)">
       <defs>
        <path id="DejaVuSans-34" d="M 2419 4116
L 825 1625
L 2419 1625
L 2419 4116
z
M 2253 4666
L 3047 4666
L 3047 1625
L 3713 1625
L 3713 1100
L 3047 1100
L 3047 0
L 2419 0
L 2419 1100
L 313 1100
L 313 1709
L 2253 4666
z
" transform="scale(0.015625)"/>
       </defs>
       <use xlink:href="#DejaVuSans-34"/>
      </g>
     </g>
    </g>
    <g id="xtick_4">
     <g id="line2d_4">
      <g>
       <use xlink:href="#m79d4738570" x="291.883595" y="303.638125" style="stroke: #000000; stroke-width: 0.8"/>
      </g>
     </g>
     <g id="text_4">
      <!-- 6 -->
      <g transform="translate(289.02047 317.476719) scale(0.09 -0.09)">
       <defs>
        <path id="DejaVuSans-36" d="M 2113 2584
Q 1688 2584 1439 2293
Q 1191 2003 1191 1497
Q 1191 994 1439 701
Q 1688 409 2113 409
Q 2538 409 2786 701
Q 3034 994 3034 1497
Q 3034 2003 2786 2293
Q 2538 2584 2113 2584
z
M 3366 4563
L 3366 3988
Q 3128 4100 2886 4159
Q 2644 4219 2406 4219
Q 1781 4219 1451 3797
Q 1122 3375 1075 2522
Q 1259 2794 1537 2939
Q 1816 3084 2150 3084
Q 2853 3084 3261 2657
Q 3669 2231 3669 1497
Q 3669 778 3244 343
Q 2819 -91 2113 -91
Q 1303 -91 875 529
Q 447 1150 447 2328
Q 447 3434 972 4092
Q 1497 4750 2381 4750
Q 2619 4750 2861 4703
Q 3103 4656 3366 4563
z
" transform="scale(0.015625)"/>
       </defs>
       <use xlink:href="#DejaVuSans-36"/>
      </g>
     </g>
    </g>
    <g id="xtick_5">
     <g id="line2d_5">
      <g>
       <use xlink:href="#m79d4738570" x="359.435522" y="303.638125" style="stroke: #000000; stroke-width: 0.8"/>
      </g>
     </g>
     <g id="text_5">
      <!-- 8 -->
      <g transform="translate(356.572397 317.476719) scale(0.09 -0.09)">
       <defs>
        <path id="DejaVuSans-38" d="M 2034 2216
Q 1584 2216 1326 1975
Q 1069 1734 1069 1313
Q 1069 891 1326 650
Q 1584 409 2034 409
Q 2484 409 2743 651
Q 3003 894 3003 1313
Q 3003 1734 2745 1975
Q 2488 2216 2034 2216
z
M 1403 2484
Q 997 2584 770 2862
Q 544 3141 544 3541
Q 544 4100 942 4425
Q 1341 4750 2034 4750
Q 2731 4750 3128 4425
Q 3525 4100 3525 3541
Q 3525 3141 3298 2862
Q 3072 2584 2669 2484
Q 3125 2378 3379 2068
Q 3634 1759 3634 1313
Q 3634 634 3220 271
Q 2806 -91 2034 -91
Q 1263 -91 848 271
Q 434 634 434 1313
Q 434 1759 690 2068
Q 947 2378 1403 2484
z
M 1172 3481
Q 1172 3119 1398 2916
Q 1625 2713 2034 2713
Q 2441 2713 2670 2916
Q 2900 3119 2900 3481
Q 2900 3844 2670 4047
Q 2441 4250 2034 4250
Q 1625 4250 1398 4047
Q 1172 3844 1172 3481
z
" transform="scale(0.015625)"/>
       </defs>
       <use xlink:href="#DejaVuSans-38"/>
      </g>
     </g>
    </g>
    <g id="xtick_6">
     <g id="line2d_6">
      <g>
       <use xlink:href="#m79d4738570" x="426.98745" y="303.638125" style="stroke: #000000; stroke-width: 0.8"/>
      </g>
     </g>
     <g id="text_6">
      <!-- 10 -->
      <g transform="translate(421.2612 317.476719) scale(0.09 -0.09)">
       <defs>
        <path id="DejaVuSans-31" d="M 794 531
L 1825 531
L 1825 4091
L 703 3866
L 703 4441
L 1819 4666
L 2450 4666
L 2450 531
L 3481 531
L 3481 0
L 794 0
L 794 531
z
" transform="scale(0.015625)"/>
       </defs>
       <use xlink:href="#DejaVuSans-31"/>
       <use xlink:href="#DejaVuSans-30" transform="translate(63.623047 0)"/>
      </g>
     </g>
    </g>
    <g id="xtick_7">
     <g id="line2d_7">
      <g>
       <use xlink:href="#m79d4738570" x="494.539377" y="303.638125" style="stroke: #000000; stroke-width: 0.8"/>
      </g>
     </g>
     <g id="text_7">
      <!-- 12 -->
      <g transform="translate(488.813127 317.476719) scale(0.09 -0.09)">
       <use xlink:href="#DejaVuSans-31"/>
       <use xlink:href="#DejaVuSans-32" transform="translate(63.623047 0)"/>
      </g>
     </g>
    </g>
    <g id="text_8">
     <!-- Observed switch events -->
     <g transform="translate(241.974196 330.946875) scale(0.1 -0.1)">
      <defs>
       <path id="DejaVuSans-4f" d="M 2522 4238
Q 1834 4238 1429 3725
Q 1025 3213 1025 2328
Q 1025 1447 1429 934
Q 1834 422 2522 422
Q 3209 422 3611 934
Q 4013 1447 4013 2328
Q 4013 3213 3611 3725
Q 3209 4238 2522 4238
z
M 2522 4750
Q 3503 4750 4090 4092
Q 4678 3434 4678 2328
Q 4678 1225 4090 567
Q 3503 -91 2522 -91
Q 1538 -91 948 565
Q 359 1222 359 2328
Q 359 3434 948 4092
Q 1538 4750 2522 4750
z
" transform="scale(0.015625)"/>
       <path id="DejaVuSans-62" d="M 3116 1747
Q 3116 2381 2855 2742
Q 2594 3103 2138 3103
Q 1681 3103 1420 2742
Q 1159 2381 1159 1747
Q 1159 1113 1420 752
Q 1681 391 2138 391
Q 2594 391 2855 752
Q 3116 1113 3116 1747
z
M 1159 2969
Q 1341 3281 1617 3432
Q 1894 3584 2278 3584
Q 2916 3584 3314 3078
Q 3713 2572 3713 1747
Q 3713 922 3314 415
Q 2916 -91 2278 -91
Q 1894 -91 1617 61
Q 1341 213 1159 525
L 1159 0
L 581 0
L 581 4863
L 1159 4863
L 1159 2969
z
" transform="scale(0.015625)"/>
       <path id="DejaVuSans-73" d="M 2834 3397
L 2834 2853
Q 2591 2978 2328 3040
Q 2066 3103 1784 3103
Q 1356 3103 1142 2972
Q 928 2841 928 2578
Q 928 2378 1081 2264
Q 1234 2150 1697 2047
L 1894 2003
Q 2506 1872 2764 1633
Q 3022 1394 3022 966
Q 3022 478 2636 193
Q 2250 -91 1575 -91
Q 1294 -91 989 -36
Q 684 19 347 128
L 347 722
Q 666 556 975 473
Q 1284 391 1588 391
Q 1994 391 2212 530
Q 2431 669 2431 922
Q 2431 1156 2273 1281
Q 2116 1406 1581 1522
L 1381 1569
Q 847 1681 609 1914
Q 372 2147 372 2553
Q 372 3047 722 3315
Q 1072 3584 1716 3584
Q 2034 3584 2315 3537
Q 2597 3491 2834 3397
z
" transform="scale(0.015625)"/>
       <path id="DejaVuSans-65" d="M 3597 1894
L 3597 1613
L 953 1613
Q 991 1019 1311 708
Q 1631 397 2203 397
Q 2534 397 2845 478
Q 3156 559 3463 722
L 3463 178
Q 3153 47 2828 -22
Q 2503 -91 2169 -91
Q 1331 -91 842 396
Q 353 884 353 1716
Q 353 2575 817 3079
Q 1281 3584 2069 3584
Q 2775 3584 3186 3129
Q 3597 2675 3597 1894
z
M 3022 2063
Q 3016 2534 2758 2815
Q 2500 3097 2075 3097
Q 1594 3097 1305 2825
Q 1016 2553 972 2059
L 3022 2063
z
" transform="scale(0.015625)"/>
       <path id="DejaVuSans-72" d="M 2631 2963
Q 2534 3019 2420 3045
Q 2306 3072 2169 3072
Q 1681 3072 1420 2755
Q 1159 2438 1159 1844
L 1159 0
L 581 0
L 581 3500
L 1159 3500
L 1159 2956
Q 1341 3275 1631 3429
Q 1922 3584 2338 3584
Q 2397 3584 2469 3576
Q 2541 3569 2628 3553
L 2631 2963
z
" transform="scale(0.015625)"/>
       <path id="DejaVuSans-76" d="M 191 3500
L 800 3500
L 1894 563
L 2988 3500
L 3597 3500
L 2284 0
L 1503 0
L 191 3500
z
" transform="scale(0.015625)"/>
       <path id="DejaVuSans-64" d="M 2906 2969
L 2906 4863
L 3481 4863
L 3481 0
L 2906 0
L 2906 525
Q 2725 213 2448 61
Q 2172 -91 1784 -91
Q 1150 -91 751 415
Q 353 922 353 1747
Q 353 2572 751 3078
Q 1150 3584 1784 3584
Q 2172 3584 2448 3432
Q 2725 3281 2906 2969
z
M 947 1747
Q 947 1113 1208 752
Q 1469 391 1925 391
Q 2381 391 2643 752
Q 2906 1113 2906 1747
Q 2906 2381 2643 2742
Q 2381 3103 1925 3103
Q 1469 3103 1208 2742
Q 947 2381 947 1747
z
" transform="scale(0.015625)"/>
       <path id="DejaVuSans-20" transform="scale(0.015625)"/>
       <path id="DejaVuSans-77" d="M 269 3500
L 844 3500
L 1563 769
L 2278 3500
L 2956 3500
L 3675 769
L 4391 3500
L 4966 3500
L 4050 0
L 3372 0
L 2619 2869
L 1863 0
L 1184 0
L 269 3500
z
" transform="scale(0.015625)"/>
       <path id="DejaVuSans-69" d="M 603 3500
L 1178 3500
L 1178 0
L 603 0
L 603 3500
z
M 603 4863
L 1178 4863
L 1178 4134
L 603 4134
L 603 4863
z
" transform="scale(0.015625)"/>
       <path id="DejaVuSans-74" d="M 1172 4494
L 1172 3500
L 2356 3500
L 2356 3053
L 1172 3053
L 1172 1153
Q 1172 725 1289 603
Q 1406 481 1766 481
L 2356 481
L 2356 0
L 1766 0
Q 1100 0 847 248
Q 594 497 594 1153
L 594 3053
L 172 3053
L 172 3500
L 594 3500
L 594 4494
L 1172 4494
z
" transform="scale(0.015625)"/>
       <path id="DejaVuSans-63" d="M 3122 3366
L 3122 2828
Q 2878 2963 2633 3030
Q 2388 3097 2138 3097
Q 1578 3097 1268 2742
Q 959 2388 959 1747
Q 959 1106 1268 751
Q 1578 397 2138 397
Q 2388 397 2633 464
Q 2878 531 3122 666
L 3122 134
Q 2881 22 2623 -34
Q 2366 -91 2075 -91
Q 1284 -91 818 406
Q 353 903 353 1747
Q 353 2603 823 3093
Q 1294 3584 2113 3584
Q 2378 3584 2631 3529
Q 2884 3475 3122 3366
z
" transform="scale(0.015625)"/>
       <path id="DejaVuSans-68" d="M 3513 2113
L 3513 0
L 2938 0
L 2938 2094
Q 2938 2591 2744 2837
Q 2550 3084 2163 3084
Q 1697 3084 1428 2787
Q 1159 2491 1159 1978
L 1159 0
L 581 0
L 581 4863
L 1159 4863
L 1159 2956
Q 1366 3272 1645 3428
Q 1925 3584 2291 3584
Q 2894 3584 3203 3211
Q 3513 2838 3513 2113
z
" transform="scale(0.015625)"/>
       <path id="DejaVuSans-6e" d="M 3513 2113
L 3513 0
L 2938 0
L 2938 2094
Q 2938 2591 2744 2837
Q 2550 3084 2163 3084
Q 1697 3084 1428 2787
Q 1159 2491 1159 1978
L 1159 0
L 581 0
L 581 3500
L 1159 3500
L 1159 2956
Q 1366 3272 1645 3428
Q 1925 3584 2291 3584
Q 2894 3584 3203 3211
Q 3513 2838 3513 2113
z
" transform="scale(0.015625)"/>
      </defs>
      <use xlink:href="#DejaVuSans-4f"/>
      <use xlink:href="#DejaVuSans-62" transform="translate(78.710938 0)"/>
      <use xlink:href="#DejaVuSans-73" transform="translate(142.1875 0)"/>
      <use xlink:href="#DejaVuSans-65" transform="translate(194.287109 0)"/>
      <use xlink:href="#DejaVuSans-72" transform="translate(255.810547 0)"/>
      <use xlink:href="#DejaVuSans-76" transform="translate(296.923828 0)"/>
      <use xlink:href="#DejaVuSans-65" transform="translate(356.103516 0)"/>
      <use xlink:href="#DejaVuSans-64" transform="translate(417.626953 0)"/>
      <use xlink:href="#DejaVuSans-20" transform="translate(481.103516 0)"/>
      <use xlink:href="#DejaVuSans-73" transform="translate(512.890625 0)"/>
      <use xlink:href="#DejaVuSans-77" transform="translate(564.990234 0)"/>
      <use xlink:href="#DejaVuSans-69" transform="translate(646.777344 0)"/>
      <use xlink:href="#DejaVuSans-74" transform="translate(674.560547 0)"/>
      <use xlink:href="#DejaVuSans-63" transform="translate(713.769531 0)"/>
      <use xlink:href="#DejaVuSans-68" transform="translate(768.75 0)"/>
      <use xlink:href="#DejaVuSans-20" transform="translate(832.128906 0)"/>
      <use xlink:href="#DejaVuSans-65" transform="translate(863.916016 0)"/>
      <use xlink:href="#DejaVuSans-76" transform="translate(925.439453 0)"/>
      <use xlink:href="#DejaVuSans-65" transform="translate(984.619141 0)"/>
      <use xlink:href="#DejaVuSans-6e" transform="translate(1046.142578 0)"/>
      <use xlink:href="#DejaVuSans-74" transform="translate(1109.521484 0)"/>
      <use xlink:href="#DejaVuSans-73" transform="translate(1148.730469 0)"/>
     </g>
    </g>
   </g>
   <g id="matplotlib.axis_2">
    <g id="ytick_1">
     <g id="line2d_8"/>
     <g id="text_9">
      <!-- Nexoral + Vexpro -->
      <g transform="translate(7.2 267.349575) scale(0.09 -0.09)">
       <defs>
        <path id="DejaVuSans-4e" d="M 628 4666
L 1478 4666
L 3547 763
L 3547 4666
L 4159 4666
L 4159 0
L 3309 0
L 1241 3903
L 1241 0
L 628 0
L 628 4666
z
" transform="scale(0.015625)"/>
        <path id="DejaVuSans-78" d="M 3513 3500
L 2247 1797
L 3578 0
L 2900 0
L 1881 1375
L 863 0
L 184 0
L 1544 1831
L 300 3500
L 978 3500
L 1906 2253
L 2834 3500
L 3513 3500
z
" transform="scale(0.015625)"/>
        <path id="DejaVuSans-6f" d="M 1959 3097
Q 1497 3097 1228 2736
Q 959 2375 959 1747
Q 959 1119 1226 758
Q 1494 397 1959 397
Q 2419 397 2687 759
Q 2956 1122 2956 1747
Q 2956 2369 2687 2733
Q 2419 3097 1959 3097
z
M 1959 3584
Q 2709 3584 3137 3096
Q 3566 2609 3566 1747
Q 3566 888 3137 398
Q 2709 -91 1959 -91
Q 1206 -91 779 398
Q 353 888 353 1747
Q 353 2609 779 3096
Q 1206 3584 1959 3584
z
" transform="scale(0.015625)"/>
        <path id="DejaVuSans-61" d="M 2194 1759
Q 1497 1759 1228 1600
Q 959 1441 959 1056
Q 959 750 1161 570
Q 1363 391 1709 391
Q 2188 391 2477 730
Q 2766 1069 2766 1631
L 2766 1759
L 2194 1759
z
M 3341 1997
L 3341 0
L 2766 0
L 2766 531
Q 2569 213 2275 61
Q 1981 -91 1556 -91
Q 1019 -91 701 211
Q 384 513 384 1019
Q 384 1609 779 1909
Q 1175 2209 1959 2209
L 2766 2209
L 2766 2266
Q 2766 2663 2505 2880
Q 2244 3097 1772 3097
Q 1472 3097 1187 3025
Q 903 2953 641 2809
L 641 3341
Q 956 3463 1253 3523
Q 1550 3584 1831 3584
Q 2591 3584 2966 3190
Q 3341 2797 3341 1997
z
" transform="scale(0.015625)"/>
        <path id="DejaVuSans-6c" d="M 603 4863
L 1178 4863
L 1178 0
L 603 0
L 603 4863
z
" transform="scale(0.015625)"/>
        <path id="DejaVuSans-2b" d="M 2944 4013
L 2944 2272
L 4684 2272
L 4684 1741
L 2944 1741
L 2944 0
L 2419 0
L 2419 1741
L 678 1741
L 678 2272
L 2419 2272
L 2419 4013
L 2944 4013
z
" transform="scale(0.015625)"/>
        <path id="DejaVuSans-56" d="M 1831 0
L 50 4666
L 709 4666
L 2188 738
L 3669 4666
L 4325 4666
L 2547 0
L 1831 0
z
" transform="scale(0.015625)"/>
        <path id="DejaVuSans-70" d="M 1159 525
L 1159 -1331
L 581 -1331
L 581 3500
L 1159 3500
L 1159 2969
Q 1341 3281 1617 3432
Q 1894 3584 2278 3584
Q 2916 3584 3314 3078
Q 3713 2572 3713 1747
Q 3713 922 3314 415
Q 2916 -91 2278 -91
Q 1894 -91 1617 61
Q 1341 213 1159 525
z
M 3116 1747
Q 3116 2381 2855 2742
Q 2594 3103 2138 3103
Q 1681 3103 1420 2742
Q 1159 2381 1159 1747
Q 1159 1113 1420 752
Q 1681 391 2138 391
Q 2594 391 2855 752
Q 3116 1113 3116 1747
z
" transform="scale(0.015625)"/>
       </defs>
       <use xlink:href="#DejaVuSans-4e"/>
       <use xlink:href="#DejaVuSans-65" transform="translate(74.804688 0)"/>
       <use xlink:href="#DejaVuSans-78" transform="translate(134.578125 0)"/>
       <use xlink:href="#DejaVuSans-6f" transform="translate(190.632812 0)"/>
       <use xlink:href="#DejaVuSans-72" transform="translate(251.814453 0)"/>
       <use xlink:href="#DejaVuSans-61" transform="translate(292.927734 0)"/>
       <use xlink:href="#DejaVuSans-6c" transform="translate(354.207031 0)"/>
       <use xlink:href="#DejaVuSans-20" transform="translate(381.990234 0)"/>
       <use xlink:href="#DejaVuSans-2b" transform="translate(413.777344 0)"/>
       <use xlink:href="#DejaVuSans-20" transform="translate(497.566406 0)"/>
       <use xlink:href="#DejaVuSans-56" transform="translate(529.353516 0)"/>
       <use xlink:href="#DejaVuSans-65" transform="translate(590.011719 0)"/>
       <use xlink:href="#DejaVuSans-78" transform="translate(649.785156 0)"/>
       <use xlink:href="#DejaVuSans-70" transform="translate(708.964844 0)"/>
       <use xlink:href="#DejaVuSans-72" transform="translate(772.441406 0)"/>
       <use xlink:href="#DejaVuSans-6f" transform="translate(811.304688 0)"/>
      </g>
     </g>
    </g>
    <g id="ytick_2">
     <g id="line2d_9"/>
     <g id="text_10">
      <!-- Nexoral -->
      <g transform="translate(51.346406 200.04814) scale(0.09 -0.09)">
       <use xlink:href="#DejaVuSans-4e"/>
       <use xlink:href="#DejaVuSans-65" transform="translate(74.804688 0)"/>
       <use xlink:href="#DejaVuSans-78" transform="translate(134.578125 0)"/>
       <use xlink:href="#DejaVuSans-6f" transform="translate(190.632812 0)"/>
       <use xlink:href="#DejaVuSans-72" transform="translate(251.814453 0)"/>
       <use xlink:href="#DejaVuSans-61" transform="translate(292.927734 0)"/>
       <use xlink:href="#DejaVuSans-6c" transform="translate(354.207031 0)"/>
      </g>
     </g>
    </g>
    <g id="ytick_3">
     <g id="line2d_10"/>
     <g id="text_11">
      <!-- Vexpro -->
      <g transform="translate(54.84375 132.746704) scale(0.09 -0.09)">
       <use xlink:href="#DejaVuSans-56"/>
       <use xlink:href="#DejaVuSans-65" transform="translate(60.658203 0)"/>
       <use xlink:href="#DejaVuSans-78" transform="translate(120.431641 0)"/>
       <use xlink:href="#DejaVuSans-70" transform="translate(179.611328 0)"/>
       <use xlink:href="#DejaVuSans-72" transform="translate(243.087891 0)"/>
       <use xlink:href="#DejaVuSans-6f" transform="translate(281.951172 0)"/>
      </g>
     </g>
    </g>
    <g id="ytick_4">
     <g id="line2d_11"/>
     <g id="text_12">
      <!-- Roventra -->
      <g transform="translate(45.060469 65.445269) scale(0.09 -0.09)">
       <defs>
        <path id="DejaVuSans-52" d="M 2841 2188
Q 3044 2119 3236 1894
Q 3428 1669 3622 1275
L 4263 0
L 3584 0
L 2988 1197
Q 2756 1666 2539 1819
Q 2322 1972 1947 1972
L 1259 1972
L 1259 0
L 628 0
L 628 4666
L 2053 4666
Q 2853 4666 3247 4331
Q 3641 3997 3641 3322
Q 3641 2881 3436 2590
Q 3231 2300 2841 2188
z
M 1259 4147
L 1259 2491
L 2053 2491
Q 2509 2491 2742 2702
Q 2975 2913 2975 3322
Q 2975 3731 2742 3939
Q 2509 4147 2053 4147
L 1259 4147
z
" transform="scale(0.015625)"/>
       </defs>
       <use xlink:href="#DejaVuSans-52"/>
       <use xlink:href="#DejaVuSans-6f" transform="translate(64.982422 0)"/>
       <use xlink:href="#DejaVuSans-76" transform="translate(126.164062 0)"/>
       <use xlink:href="#DejaVuSans-65" transform="translate(185.34375 0)"/>
       <use xlink:href="#DejaVuSans-6e" transform="translate(246.867188 0)"/>
       <use xlink:href="#DejaVuSans-74" transform="translate(310.246094 0)"/>
       <use xlink:href="#DejaVuSans-72" transform="translate(349.455078 0)"/>
       <use xlink:href="#DejaVuSans-61" transform="translate(390.568359 0)"/>
      </g>
     </g>
    </g>
   </g>
   <g id="patch_7">
    <path d="M 89.227812 303.638125
L 514.804955 303.638125
" style="fill: none; stroke: #000000; stroke-width: 0.8; stroke-linejoin: miter; stroke-linecap: square"/>
   </g>
   <g id="text_13">
    <!-- 0 switches; median not reached -->
    <g transform="translate(99.360602 266.137778) scale(0.08 -0.08)">
     <defs>
      <path id="DejaVuSans-3b" d="M 750 3309
L 1409 3309
L 1409 2516
L 750 2516
L 750 3309
z
M 750 794
L 1409 794
L 1409 256
L 897 -744
L 494 -744
L 750 256
L 750 794
z
" transform="scale(0.015625)"/>
      <path id="DejaVuSans-6d" d="M 3328 2828
Q 3544 3216 3844 3400
Q 4144 3584 4550 3584
Q 5097 3584 5394 3201
Q 5691 2819 5691 2113
L 5691 0
L 5113 0
L 5113 2094
Q 5113 2597 4934 2840
Q 4756 3084 4391 3084
Q 3944 3084 3684 2787
Q 3425 2491 3425 1978
L 3425 0
L 2847 0
L 2847 2094
Q 2847 2600 2669 2842
Q 2491 3084 2119 3084
Q 1678 3084 1418 2786
Q 1159 2488 1159 1978
L 1159 0
L 581 0
L 581 3500
L 1159 3500
L 1159 2956
Q 1356 3278 1631 3431
Q 1906 3584 2284 3584
Q 2666 3584 2933 3390
Q 3200 3197 3328 2828
z
" transform="scale(0.015625)"/>
     </defs>
     <use xlink:href="#DejaVuSans-30"/>
     <use xlink:href="#DejaVuSans-20" transform="translate(63.623047 0)"/>
     <use xlink:href="#DejaVuSans-73" transform="translate(95.410156 0)"/>
     <use xlink:href="#DejaVuSans-77" transform="translate(147.509766 0)"/>
     <use xlink:href="#DejaVuSans-69" transform="translate(229.296875 0)"/>
     <use xlink:href="#DejaVuSans-74" transform="translate(257.080078 0)"/>
     <use xlink:href="#DejaVuSans-63" transform="translate(296.289062 0)"/>
     <use xlink:href="#DejaVuSans-68" transform="translate(351.269531 0)"/>
     <use xlink:href="#DejaVuSans-65" transform="translate(414.648438 0)"/>
     <use xlink:href="#DejaVuSans-73" transform="translate(476.171875 0)"/>
     <use xlink:href="#DejaVuSans-3b" transform="translate(528.271484 0)"/>
     <use xlink:href="#DejaVuSans-20" transform="translate(561.962891 0)"/>
     <use xlink:href="#DejaVuSans-6d" transform="translate(593.75 0)"/>
     <use xlink:href="#DejaVuSans-65" transform="translate(691.162109 0)"/>
     <use xlink:href="#DejaVuSans-64" transform="translate(752.685547 0)"/>
     <use xlink:href="#DejaVuSans-69" transform="translate(816.162109 0)"/>
     <use xlink:href="#DejaVuSans-61" transform="translate(843.945312 0)"/>
     <use xlink:href="#DejaVuSans-6e" transform="translate(905.224609 0)"/>
     <use xlink:href="#DejaVuSans-20" transform="translate(968.603516 0)"/>
     <use xlink:href="#DejaVuSans-6e" transform="translate(1000.390625 0)"/>
     <use xlink:href="#DejaVuSans-6f" transform="translate(1063.769531 0)"/>
     <use xlink:href="#DejaVuSans-74" transform="translate(1124.951172 0)"/>
     <use xlink:href="#DejaVuSans-20" transform="translate(1164.160156 0)"/>
     <use xlink:href="#DejaVuSans-72" transform="translate(1195.947266 0)"/>
     <use xlink:href="#DejaVuSans-65" transform="translate(1234.810547 0)"/>
     <use xlink:href="#DejaVuSans-61" transform="translate(1296.333984 0)"/>
     <use xlink:href="#DejaVuSans-63" transform="translate(1357.613281 0)"/>
     <use xlink:href="#DejaVuSans-68" transform="translate(1412.59375 0)"/>
     <use xlink:href="#DejaVuSans-65" transform="translate(1475.972656 0)"/>
     <use xlink:href="#DejaVuSans-64" transform="translate(1537.496094 0)"/>
    </g>
   </g>
   <g id="text_14">
    <!-- 12 switches; median not reached -->
    <g transform="translate(504.672166 198.836343) scale(0.08 -0.08)">
     <use xlink:href="#DejaVuSans-31"/>
     <use xlink:href="#DejaVuSans-32" transform="translate(63.623047 0)"/>
     <use xlink:href="#DejaVuSans-20" transform="translate(127.246094 0)"/>
     <use xlink:href="#DejaVuSans-73" transform="translate(159.033203 0)"/>
     <use xlink:href="#DejaVuSans-77" transform="translate(211.132812 0)"/>
     <use xlink:href="#DejaVuSans-69" transform="translate(292.919922 0)"/>
     <use xlink:href="#DejaVuSans-74" transform="translate(320.703125 0)"/>
     <use xlink:href="#DejaVuSans-63" transform="translate(359.912109 0)"/>
     <use xlink:href="#DejaVuSans-68" transform="translate(414.892578 0)"/>
     <use xlink:href="#DejaVuSans-65" transform="translate(478.271484 0)"/>
     <use xlink:href="#DejaVuSans-73" transform="translate(539.794922 0)"/>
     <use xlink:href="#DejaVuSans-3b" transform="translate(591.894531 0)"/>
     <use xlink:href="#DejaVuSans-20" transform="translate(625.585938 0)"/>
     <use xlink:href="#DejaVuSans-6d" transform="translate(657.373047 0)"/>
     <use xlink:href="#DejaVuSans-65" transform="translate(754.785156 0)"/>
     <use xlink:href="#DejaVuSans-64" transform="translate(816.308594 0)"/>
     <use xlink:href="#DejaVuSans-69" transform="translate(879.785156 0)"/>
     <use xlink:href="#DejaVuSans-61" transform="translate(907.568359 0)"/>
     <use xlink:href="#DejaVuSans-6e" transform="translate(968.847656 0)"/>
     <use xlink:href="#DejaVuSans-20" transform="translate(1032.226562 0)"/>
     <use xlink:href="#DejaVuSans-6e" transform="translate(1064.013672 0)"/>
     <use xlink:href="#DejaVuSans-6f" transform="translate(1127.392578 0)"/>
     <use xlink:href="#DejaVuSans-74" transform="translate(1188.574219 0)"/>
     <use xlink:href="#DejaVuSans-20" transform="translate(1227.783203 0)"/>
     <use xlink:href="#DejaVuSans-72" transform="translate(1259.570312 0)"/>
     <use xlink:href="#DejaVuSans-65" transform="translate(1298.433594 0)"/>
     <use xlink:href="#DejaVuSans-61" transform="translate(1359.957031 0)"/>
     <use xlink:href="#DejaVuSans-63" transform="translate(1421.236328 0)"/>
     <use xlink:href="#DejaVuSans-68" transform="translate(1476.216797 0)"/>
     <use xlink:href="#DejaVuSans-65" transform="translate(1539.595703 0)"/>
     <use xlink:href="#DejaVuSans-64" transform="translate(1601.119141 0)"/>
    </g>
   </g>
   <g id="text_15">
    <!-- 12 switches; median not reached -->
    <g transform="translate(504.672166 131.534907) scale(0.08 -0.08)">
     <use xlink:href="#DejaVuSans-31"/>
     <use xlink:href="#DejaVuSans-32" transform="translate(63.623047 0)"/>
     <use xlink:href="#DejaVuSans-20" transform="translate(127.246094 0)"/>
     <use xlink:href="#DejaVuSans-73" transform="translate(159.033203 0)"/>
     <use xlink:href="#DejaVuSans-77" transform="translate(211.132812 0)"/>
     <use xlink:href="#DejaVuSans-69" transform="translate(292.919922 0)"/>
     <use xlink:href="#DejaVuSans-74" transform="translate(320.703125 0)"/>
     <use xlink:href="#DejaVuSans-63" transform="translate(359.912109 0)"/>
     <use xlink:href="#DejaVuSans-68" transform="translate(414.892578 0)"/>
     <use xlink:href="#DejaVuSans-65" transform="translate(478.271484 0)"/>
     <use xlink:href="#DejaVuSans-73" transform="translate(539.794922 0)"/>
     <use xlink:href="#DejaVuSans-3b" transform="translate(591.894531 0)"/>
     <use xlink:href="#DejaVuSans-20" transform="translate(625.585938 0)"/>
     <use xlink:href="#DejaVuSans-6d" transform="translate(657.373047 0)"/>
     <use xlink:href="#DejaVuSans-65" transform="translate(754.785156 0)"/>
     <use xlink:href="#DejaVuSans-64" transform="translate(816.308594 0)"/>
     <use xlink:href="#DejaVuSans-69" transform="translate(879.785156 0)"/>
     <use xlink:href="#DejaVuSans-61" transform="translate(907.568359 0)"/>
     <use xlink:href="#DejaVuSans-6e" transform="translate(968.847656 0)"/>
     <use xlink:href="#DejaVuSans-20" transform="translate(1032.226562 0)"/>
     <use xlink:href="#DejaVuSans-6e" transform="translate(1064.013672 0)"/>
     <use xlink:href="#DejaVuSans-6f" transform="translate(1127.392578 0)"/>
     <use xlink:href="#DejaVuSans-74" transform="translate(1188.574219 0)"/>
     <use xlink:href="#DejaVuSans-20" transform="translate(1227.783203 0)"/>
     <use xlink:href="#DejaVuSans-72" transform="translate(1259.570312 0)"/>
     <use xlink:href="#DejaVuSans-65" transform="translate(1298.433594 0)"/>
     <use xlink:href="#DejaVuSans-61" transform="translate(1359.957031 0)"/>
     <use xlink:href="#DejaVuSans-63" transform="translate(1421.236328 0)"/>
     <use xlink:href="#DejaVuSans-68" transform="translate(1476.216797 0)"/>
     <use xlink:href="#DejaVuSans-65" transform="translate(1539.595703 0)"/>
     <use xlink:href="#DejaVuSans-64" transform="translate(1601.119141 0)"/>
    </g>
   </g>
   <g id="text_16">
    <!-- 0 switches; median not reached -->
    <g transform="translate(99.360602 64.233472) scale(0.08 -0.08)">
     <use xlink:href="#DejaVuSans-30"/>
     <use xlink:href="#DejaVuSans-20" transform="translate(63.623047 0)"/>
     <use xlink:href="#DejaVuSans-73" transform="translate(95.410156 0)"/>
     <use xlink:href="#DejaVuSans-77" transform="translate(147.509766 0)"/>
     <use xlink:href="#DejaVuSans-69" transform="translate(229.296875 0)"/>
     <use xlink:href="#DejaVuSans-74" transform="translate(257.080078 0)"/>
     <use xlink:href="#DejaVuSans-63" transform="translate(296.289062 0)"/>
     <use xlink:href="#DejaVuSans-68" transform="translate(351.269531 0)"/>
     <use xlink:href="#DejaVuSans-65" transform="translate(414.648438 0)"/>
     <use xlink:href="#DejaVuSans-73" transform="translate(476.171875 0)"/>
     <use xlink:href="#DejaVuSans-3b" transform="translate(528.271484 0)"/>
     <use xlink:href="#DejaVuSans-20" transform="translate(561.962891 0)"/>
     <use xlink:href="#DejaVuSans-6d" transform="translate(593.75 0)"/>
     <use xlink:href="#DejaVuSans-65" transform="translate(691.162109 0)"/>
     <use xlink:href="#DejaVuSans-64" transform="translate(752.685547 0)"/>
     <use xlink:href="#DejaVuSans-69" transform="translate(816.162109 0)"/>
     <use xlink:href="#DejaVuSans-61" transform="translate(843.945312 0)"/>
     <use xlink:href="#DejaVuSans-6e" transform="translate(905.224609 0)"/>
     <use xlink:href="#DejaVuSans-20" transform="translate(968.603516 0)"/>
     <use xlink:href="#DejaVuSans-6e" transform="translate(1000.390625 0)"/>
     <use xlink:href="#DejaVuSans-6f" transform="translate(1063.769531 0)"/>
     <use xlink:href="#DejaVuSans-74" transform="translate(1124.951172 0)"/>
     <use xlink:href="#DejaVuSans-20" transform="translate(1164.160156 0)"/>
     <use xlink:href="#DejaVuSans-72" transform="translate(1195.947266 0)"/>
     <use xlink:href="#DejaVuSans-65" transform="translate(1234.810547 0)"/>
     <use xlink:href="#DejaVuSans-61" transform="translate(1296.333984 0)"/>
     <use xlink:href="#DejaVuSans-63" transform="translate(1357.613281 0)"/>
     <use xlink:href="#DejaVuSans-68" transform="translate(1412.59375 0)"/>
     <use xlink:href="#DejaVuSans-65" transform="translate(1475.972656 0)"/>
     <use xlink:href="#DejaVuSans-64" transform="translate(1537.496094 0)"/>
    </g>
   </g>
   <g id="text_17">
    <!-- The Cohort Does Not Support a Comparative Switch Median -->
    <g transform="translate(99.827634 16.318125) scale(0.12 -0.12)">
     <defs>
      <path id="DejaVuSans-Bold-54" d="M 31 4666
L 4331 4666
L 4331 3756
L 2784 3756
L 2784 0
L 1581 0
L 1581 3756
L 31 3756
L 31 4666
z
" transform="scale(0.015625)"/>
      <path id="DejaVuSans-Bold-68" d="M 4056 2131
L 4056 0
L 2931 0
L 2931 347
L 2931 1625
Q 2931 2084 2911 2256
Q 2891 2428 2841 2509
Q 2775 2619 2662 2680
Q 2550 2741 2406 2741
Q 2056 2741 1856 2470
Q 1656 2200 1656 1722
L 1656 0
L 538 0
L 538 4863
L 1656 4863
L 1656 2988
Q 1909 3294 2193 3439
Q 2478 3584 2822 3584
Q 3428 3584 3742 3212
Q 4056 2841 4056 2131
z
" transform="scale(0.015625)"/>
      <path id="DejaVuSans-Bold-65" d="M 4031 1759
L 4031 1441
L 1416 1441
Q 1456 1047 1700 850
Q 1944 653 2381 653
Q 2734 653 3104 758
Q 3475 863 3866 1075
L 3866 213
Q 3469 63 3072 -14
Q 2675 -91 2278 -91
Q 1328 -91 801 392
Q 275 875 275 1747
Q 275 2603 792 3093
Q 1309 3584 2216 3584
Q 3041 3584 3536 3087
Q 4031 2591 4031 1759
z
M 2881 2131
Q 2881 2450 2695 2645
Q 2509 2841 2209 2841
Q 1884 2841 1681 2658
Q 1478 2475 1428 2131
L 2881 2131
z
" transform="scale(0.015625)"/>
      <path id="DejaVuSans-Bold-20" transform="scale(0.015625)"/>
      <path id="DejaVuSans-Bold-43" d="M 4288 256
Q 3956 84 3597 -3
Q 3238 -91 2847 -91
Q 1681 -91 1000 561
Q 319 1213 319 2328
Q 319 3447 1000 4098
Q 1681 4750 2847 4750
Q 3238 4750 3597 4662
Q 3956 4575 4288 4403
L 4288 3438
Q 3953 3666 3628 3772
Q 3303 3878 2944 3878
Q 2300 3878 1931 3465
Q 1563 3053 1563 2328
Q 1563 1606 1931 1193
Q 2300 781 2944 781
Q 3303 781 3628 887
Q 3953 994 4288 1222
L 4288 256
z
" transform="scale(0.015625)"/>
      <path id="DejaVuSans-Bold-6f" d="M 2203 2784
Q 1831 2784 1636 2517
Q 1441 2250 1441 1747
Q 1441 1244 1636 976
Q 1831 709 2203 709
Q 2569 709 2762 976
Q 2956 1244 2956 1747
Q 2956 2250 2762 2517
Q 2569 2784 2203 2784
z
M 2203 3584
Q 3106 3584 3614 3096
Q 4122 2609 4122 1747
Q 4122 884 3614 396
Q 3106 -91 2203 -91
Q 1297 -91 786 396
Q 275 884 275 1747
Q 275 2609 786 3096
Q 1297 3584 2203 3584
z
" transform="scale(0.015625)"/>
      <path id="DejaVuSans-Bold-72" d="M 3138 2547
Q 2991 2616 2845 2648
Q 2700 2681 2553 2681
Q 2122 2681 1889 2404
Q 1656 2128 1656 1613
L 1656 0
L 538 0
L 538 3500
L 1656 3500
L 1656 2925
Q 1872 3269 2151 3426
Q 2431 3584 2822 3584
Q 2878 3584 2943 3579
Q 3009 3575 3134 3559
L 3138 2547
z
" transform="scale(0.015625)"/>
      <path id="DejaVuSans-Bold-74" d="M 1759 4494
L 1759 3500
L 2913 3500
L 2913 2700
L 1759 2700
L 1759 1216
Q 1759 972 1856 886
Q 1953 800 2241 800
L 2816 800
L 2816 0
L 1856 0
Q 1194 0 917 276
Q 641 553 641 1216
L 641 2700
L 84 2700
L 84 3500
L 641 3500
L 641 4494
L 1759 4494
z
" transform="scale(0.015625)"/>
      <path id="DejaVuSans-Bold-44" d="M 1791 3756
L 1791 909
L 2222 909
Q 2959 909 3348 1275
Q 3738 1641 3738 2338
Q 3738 3031 3350 3393
Q 2963 3756 2222 3756
L 1791 3756
z
M 588 4666
L 1856 4666
Q 2919 4666 3439 4514
Q 3959 4363 4331 4000
Q 4659 3684 4818 3271
Q 4978 2859 4978 2338
Q 4978 1809 4818 1395
Q 4659 981 4331 666
Q 3956 303 3431 151
Q 2906 0 1856 0
L 588 0
L 588 4666
z
" transform="scale(0.015625)"/>
      <path id="DejaVuSans-Bold-73" d="M 3272 3391
L 3272 2541
Q 2913 2691 2578 2766
Q 2244 2841 1947 2841
Q 1628 2841 1473 2761
Q 1319 2681 1319 2516
Q 1319 2381 1436 2309
Q 1553 2238 1856 2203
L 2053 2175
Q 2913 2066 3209 1816
Q 3506 1566 3506 1031
Q 3506 472 3093 190
Q 2681 -91 1863 -91
Q 1516 -91 1145 -36
Q 775 19 384 128
L 384 978
Q 719 816 1070 734
Q 1422 653 1784 653
Q 2113 653 2278 743
Q 2444 834 2444 1013
Q 2444 1163 2330 1236
Q 2216 1309 1875 1350
L 1678 1375
Q 931 1469 631 1722
Q 331 1975 331 2491
Q 331 3047 712 3315
Q 1094 3584 1881 3584
Q 2191 3584 2531 3537
Q 2872 3491 3272 3391
z
" transform="scale(0.015625)"/>
      <path id="DejaVuSans-Bold-4e" d="M 588 4666
L 1931 4666
L 3628 1466
L 3628 4666
L 4769 4666
L 4769 0
L 3425 0
L 1728 3200
L 1728 0
L 588 0
L 588 4666
z
" transform="scale(0.015625)"/>
      <path id="DejaVuSans-Bold-53" d="M 3834 4519
L 3834 3531
Q 3450 3703 3084 3790
Q 2719 3878 2394 3878
Q 1963 3878 1756 3759
Q 1550 3641 1550 3391
Q 1550 3203 1689 3098
Q 1828 2994 2194 2919
L 2706 2816
Q 3484 2659 3812 2340
Q 4141 2022 4141 1434
Q 4141 663 3683 286
Q 3225 -91 2284 -91
Q 1841 -91 1394 -6
Q 947 78 500 244
L 500 1259
Q 947 1022 1364 901
Q 1781 781 2169 781
Q 2563 781 2772 912
Q 2981 1044 2981 1288
Q 2981 1506 2839 1625
Q 2697 1744 2272 1838
L 1806 1941
Q 1106 2091 782 2419
Q 459 2747 459 3303
Q 459 4000 909 4375
Q 1359 4750 2203 4750
Q 2588 4750 2994 4692
Q 3400 4634 3834 4519
z
" transform="scale(0.015625)"/>
      <path id="DejaVuSans-Bold-75" d="M 500 1363
L 500 3500
L 1625 3500
L 1625 3150
Q 1625 2866 1622 2436
Q 1619 2006 1619 1863
Q 1619 1441 1641 1255
Q 1663 1069 1716 984
Q 1784 875 1895 815
Q 2006 756 2150 756
Q 2500 756 2700 1025
Q 2900 1294 2900 1772
L 2900 3500
L 4019 3500
L 4019 0
L 2900 0
L 2900 506
Q 2647 200 2364 54
Q 2081 -91 1741 -91
Q 1134 -91 817 281
Q 500 653 500 1363
z
" transform="scale(0.015625)"/>
      <path id="DejaVuSans-Bold-70" d="M 1656 506
L 1656 -1331
L 538 -1331
L 538 3500
L 1656 3500
L 1656 2988
Q 1888 3294 2169 3439
Q 2450 3584 2816 3584
Q 3463 3584 3878 3070
Q 4294 2556 4294 1747
Q 4294 938 3878 423
Q 3463 -91 2816 -91
Q 2450 -91 2169 54
Q 1888 200 1656 506
z
M 2400 2772
Q 2041 2772 1848 2508
Q 1656 2244 1656 1747
Q 1656 1250 1848 986
Q 2041 722 2400 722
Q 2759 722 2948 984
Q 3138 1247 3138 1747
Q 3138 2247 2948 2509
Q 2759 2772 2400 2772
z
" transform="scale(0.015625)"/>
      <path id="DejaVuSans-Bold-61" d="M 2106 1575
Q 1756 1575 1579 1456
Q 1403 1338 1403 1106
Q 1403 894 1545 773
Q 1688 653 1941 653
Q 2256 653 2472 879
Q 2688 1106 2688 1447
L 2688 1575
L 2106 1575
z
M 3816 1997
L 3816 0
L 2688 0
L 2688 519
Q 2463 200 2181 54
Q 1900 -91 1497 -91
Q 953 -91 614 226
Q 275 544 275 1050
Q 275 1666 698 1953
Q 1122 2241 2028 2241
L 2688 2241
L 2688 2328
Q 2688 2594 2478 2717
Q 2269 2841 1825 2841
Q 1466 2841 1156 2769
Q 847 2697 581 2553
L 581 3406
Q 941 3494 1303 3539
Q 1666 3584 2028 3584
Q 2975 3584 3395 3211
Q 3816 2838 3816 1997
z
" transform="scale(0.015625)"/>
      <path id="DejaVuSans-Bold-6d" d="M 3781 2919
Q 3994 3244 4286 3414
Q 4578 3584 4928 3584
Q 5531 3584 5847 3212
Q 6163 2841 6163 2131
L 6163 0
L 5038 0
L 5038 1825
Q 5041 1866 5042 1909
Q 5044 1953 5044 2034
Q 5044 2406 4934 2573
Q 4825 2741 4581 2741
Q 4263 2741 4089 2478
Q 3916 2216 3909 1719
L 3909 0
L 2784 0
L 2784 1825
Q 2784 2406 2684 2573
Q 2584 2741 2328 2741
Q 2006 2741 1831 2477
Q 1656 2213 1656 1722
L 1656 0
L 531 0
L 531 3500
L 1656 3500
L 1656 2988
Q 1863 3284 2130 3434
Q 2397 3584 2719 3584
Q 3081 3584 3359 3409
Q 3638 3234 3781 2919
z
" transform="scale(0.015625)"/>
      <path id="DejaVuSans-Bold-69" d="M 538 3500
L 1656 3500
L 1656 0
L 538 0
L 538 3500
z
M 538 4863
L 1656 4863
L 1656 3950
L 538 3950
L 538 4863
z
" transform="scale(0.015625)"/>
      <path id="DejaVuSans-Bold-76" d="M 97 3500
L 1216 3500
L 2088 1081
L 2956 3500
L 4078 3500
L 2700 0
L 1472 0
L 97 3500
z
" transform="scale(0.015625)"/>
      <path id="DejaVuSans-Bold-77" d="M 225 3500
L 1313 3500
L 1900 1088
L 2491 3500
L 3425 3500
L 4013 1113
L 4603 3500
L 5691 3500
L 4769 0
L 3547 0
L 2956 2406
L 2369 0
L 1147 0
L 225 3500
z
" transform="scale(0.015625)"/>
      <path id="DejaVuSans-Bold-63" d="M 3366 3391
L 3366 2478
Q 3138 2634 2908 2709
Q 2678 2784 2431 2784
Q 1963 2784 1702 2511
Q 1441 2238 1441 1747
Q 1441 1256 1702 982
Q 1963 709 2431 709
Q 2694 709 2930 787
Q 3166 866 3366 1019
L 3366 103
Q 3103 6 2833 -42
Q 2563 -91 2291 -91
Q 1344 -91 809 395
Q 275 881 275 1747
Q 275 2613 809 3098
Q 1344 3584 2291 3584
Q 2566 3584 2833 3536
Q 3100 3488 3366 3391
z
" transform="scale(0.015625)"/>
      <path id="DejaVuSans-Bold-4d" d="M 588 4666
L 2119 4666
L 3181 2169
L 4250 4666
L 5778 4666
L 5778 0
L 4641 0
L 4641 3413
L 3566 897
L 2803 897
L 1728 3413
L 1728 0
L 588 0
L 588 4666
z
" transform="scale(0.015625)"/>
      <path id="DejaVuSans-Bold-64" d="M 2919 2988
L 2919 4863
L 4044 4863
L 4044 0
L 2919 0
L 2919 506
Q 2688 197 2409 53
Q 2131 -91 1766 -91
Q 1119 -91 703 423
Q 288 938 288 1747
Q 288 2556 703 3070
Q 1119 3584 1766 3584
Q 2128 3584 2408 3439
Q 2688 3294 2919 2988
z
M 2181 722
Q 2541 722 2730 984
Q 2919 1247 2919 1747
Q 2919 2247 2730 2509
Q 2541 2772 2181 2772
Q 1825 2772 1636 2509
Q 1447 2247 1447 1747
Q 1447 1247 1636 984
Q 1825 722 2181 722
z
" transform="scale(0.015625)"/>
      <path id="DejaVuSans-Bold-6e" d="M 4056 2131
L 4056 0
L 2931 0
L 2931 347
L 2931 1631
Q 2931 2084 2911 2256
Q 2891 2428 2841 2509
Q 2775 2619 2662 2680
Q 2550 2741 2406 2741
Q 2056 2741 1856 2470
Q 1656 2200 1656 1722
L 1656 0
L 538 0
L 538 3500
L 1656 3500
L 1656 2988
Q 1909 3294 2193 3439
Q 2478 3584 2822 3584
Q 3428 3584 3742 3212
Q 4056 2841 4056 2131
z
" transform="scale(0.015625)"/>
     </defs>
     <use xlink:href="#DejaVuSans-Bold-54"/>
     <use xlink:href="#DejaVuSans-Bold-68" transform="translate(68.212891 0)"/>
     <use xlink:href="#DejaVuSans-Bold-65" transform="translate(139.404297 0)"/>
     <use xlink:href="#DejaVuSans-Bold-20" transform="translate(207.226562 0)"/>
     <use xlink:href="#DejaVuSans-Bold-43" transform="translate(242.041016 0)"/>
     <use xlink:href="#DejaVuSans-Bold-6f" transform="translate(315.429688 0)"/>
     <use xlink:href="#DejaVuSans-Bold-68" transform="translate(384.130859 0)"/>
     <use xlink:href="#DejaVuSans-Bold-6f" transform="translate(455.322266 0)"/>
     <use xlink:href="#DejaVuSans-Bold-72" transform="translate(524.023438 0)"/>
     <use xlink:href="#DejaVuSans-Bold-74" transform="translate(573.339844 0)"/>
     <use xlink:href="#DejaVuSans-Bold-20" transform="translate(621.142578 0)"/>
     <use xlink:href="#DejaVuSans-Bold-44" transform="translate(655.957031 0)"/>
     <use xlink:href="#DejaVuSans-Bold-6f" transform="translate(738.964844 0)"/>
     <use xlink:href="#DejaVuSans-Bold-65" transform="translate(807.666016 0)"/>
     <use xlink:href="#DejaVuSans-Bold-73" transform="translate(875.488281 0)"/>
     <use xlink:href="#DejaVuSans-Bold-20" transform="translate(935.009766 0)"/>
     <use xlink:href="#DejaVuSans-Bold-4e" transform="translate(969.824219 0)"/>
     <use xlink:href="#DejaVuSans-Bold-6f" transform="translate(1053.515625 0)"/>
     <use xlink:href="#DejaVuSans-Bold-74" transform="translate(1122.216797 0)"/>
     <use xlink:href="#DejaVuSans-Bold-20" transform="translate(1170.019531 0)"/>
     <use xlink:href="#DejaVuSans-Bold-53" transform="translate(1204.833984 0)"/>
     <use xlink:href="#DejaVuSans-Bold-75" transform="translate(1276.855469 0)"/>
     <use xlink:href="#DejaVuSans-Bold-70" transform="translate(1348.046875 0)"/>
     <use xlink:href="#DejaVuSans-Bold-70" transform="translate(1419.628906 0)"/>
     <use xlink:href="#DejaVuSans-Bold-6f" transform="translate(1491.210938 0)"/>
     <use xlink:href="#DejaVuSans-Bold-72" transform="translate(1559.912109 0)"/>
     <use xlink:href="#DejaVuSans-Bold-74" transform="translate(1609.228516 0)"/>
     <use xlink:href="#DejaVuSans-Bold-20" transform="translate(1657.03125 0)"/>
     <use xlink:href="#DejaVuSans-Bold-61" transform="translate(1691.845703 0)"/>
     <use xlink:href="#DejaVuSans-Bold-20" transform="translate(1759.326172 0)"/>
     <use xlink:href="#DejaVuSans-Bold-43" transform="translate(1794.140625 0)"/>
     <use xlink:href="#DejaVuSans-Bold-6f" transform="translate(1867.529297 0)"/>
     <use xlink:href="#DejaVuSans-Bold-6d" transform="translate(1936.230469 0)"/>
     <use xlink:href="#DejaVuSans-Bold-70" transform="translate(2040.429688 0)"/>
     <use xlink:href="#DejaVuSans-Bold-61" transform="translate(2112.011719 0)"/>
     <use xlink:href="#DejaVuSans-Bold-72" transform="translate(2179.492188 0)"/>
     <use xlink:href="#DejaVuSans-Bold-61" transform="translate(2228.808594 0)"/>
     <use xlink:href="#DejaVuSans-Bold-74" transform="translate(2296.289062 0)"/>
     <use xlink:href="#DejaVuSans-Bold-69" transform="translate(2344.091797 0)"/>
     <use xlink:href="#DejaVuSans-Bold-76" transform="translate(2378.369141 0)"/>
     <use xlink:href="#DejaVuSans-Bold-65" transform="translate(2443.554688 0)"/>
     <use xlink:href="#DejaVuSans-Bold-20" transform="translate(2511.376953 0)"/>
     <use xlink:href="#DejaVuSans-Bold-53" transform="translate(2546.191406 0)"/>
     <use xlink:href="#DejaVuSans-Bold-77" transform="translate(2618.212891 0)"/>
     <use xlink:href="#DejaVuSans-Bold-69" transform="translate(2710.595703 0)"/>
     <use xlink:href="#DejaVuSans-Bold-74" transform="translate(2744.873047 0)"/>
     <use xlink:href="#DejaVuSans-Bold-63" transform="translate(2792.675781 0)"/>
     <use xlink:href="#DejaVuSans-Bold-68" transform="translate(2851.953125 0)"/>
     <use xlink:href="#DejaVuSans-Bold-20" transform="translate(2923.144531 0)"/>
     <use xlink:href="#DejaVuSans-Bold-4d" transform="translate(2957.958984 0)"/>
     <use xlink:href="#DejaVuSans-Bold-65" transform="translate(3057.470703 0)"/>
     <use xlink:href="#DejaVuSans-Bold-64" transform="translate(3125.292969 0)"/>
     <use xlink:href="#DejaVuSans-Bold-69" transform="translate(3196.875 0)"/>
     <use xlink:href="#DejaVuSans-Bold-61" transform="translate(3231.152344 0)"/>
     <use xlink:href="#DejaVuSans-Bold-6e" transform="translate(3298.632812 0)"/>
    </g>
   </g>
  </g>
 </g>
 <defs>
  <clipPath id="pbd791626a4">
   <rect x="89.227812" y="22.318125" width="425.577143" height="281.32"/>
  </clipPath>
 </defs>
</svg>
