<?xml version="1.0" encoding="utf-8" standalone="no"?>
<!DOCTYPE svg PUBLIC "-//W3C//DTD SVG 1.1//EN"
  "http://www.w3.org/Graphics/SVG/1.1/DTD/svg11.dtd">
<svg xmlns:xlink="http://www.w3.org/1999/xlink" width="602.5725pt" height="392.322187pt" viewBox="0 0 602.5725 392.322187" xmlns="http://www.w3.org/2000/svg" version="1.1">
 <metadata>
  <rdf:RDF xmlns:dc="http://purl.org/dc/elements/1.1/" xmlns:cc="http://creativecommons.org/ns#" xmlns:rdf="http://www.w3.org/1999/02/22-rdf-syntax-ns#">
   <cc:Work>
    <dc:type rdf:resource="http://purl.org/dc/dcmitype/StillImage"/>
    <dc:format>image/svg+xml</dc:format>
    <dc:creator>
     <cc:Agent>
      <dc:title>Matplotlib v3.10.9, https://matplotlib.org/</dc:title>
     </cc:Agent>
    </dc:creator>
   </cc:Work>
  </rdf:RDF>
 </metadata>
 <defs>
  <style type="text/css">*{stroke-linejoin: round; stroke-linecap: butt}</style>
 </defs>
 <g id="figure_1">
  <g id="patch_1">
   <path d="M 0 392.322187
L 602.5725 392.322187
L 602.5725 0
L 0 0
z
" style="fill: #fcfcfd"/>
  </g>
  <g id="axes_1">
   <g id="patch_2">
    <path d="M 51.0725 353.798125
L 595.3725 353.798125
L 595.3725 22.318125
L 51.0725 22.318125
z
" style="fill: #ffffff"/>
   </g>
   <g id="matplotlib.axis_1">
    <g id="xtick_1">
     <g id="line2d_1">
      <path d="M 75.813409 353.798125
L 75.813409 22.318125
" clip-path="url(#p9101894c34)" style="fill: none; stroke: #e6e8f0; stroke-width: 0.6; stroke-linecap: square"/>
     </g>
     <g id="line2d_2">
      <defs>
       <path id="m862ab6a177" d="M 0 0
L 0 3.5
" style="stroke: #6f768a; stroke-width: 0.8"/>
      </defs>
      <g>
       <use xlink:href="#m862ab6a177" x="75.813409" y="353.798125" style="fill: #6f768a; stroke: #6f768a; stroke-width: 0.8"/>
      </g>
     </g>
     <g id="text_1">
      <!-- 0 -->
      <g style="fill: #6f768a" transform="translate(72.632159 368.396562) scale(0.1 -0.1)">
       <defs>
        <path id="DejaVuSans-30" d="M 2034 4250
Q 1547 4250 1301 3770
Q 1056 3291 1056 2328
Q 1056 1369 1301 889
Q 1547 409 2034 409
Q 2525 409 2770 889
Q 3016 1369 3016 2328
Q 3016 3291 2770 3770
Q 2525 4250 2034 4250
z
M 2034 4750
Q 2819 4750 3233 4129
Q 3647 3509 3647 2328
Q 3647 1150 3233 529
Q 2819 -91 2034 -91
Q 1250 -91 836 529
Q 422 1150 422 2328
Q 422 3509 836 4129
Q 1250 4750 2034 4750
z
" transform="scale(0.015625)"/>
       </defs>
       <use xlink:href="#DejaVuSans-30"/>
      </g>
     </g>
    </g>
    <g id="xtick_2">
     <g id="line2d_3">
      <path d="M 174.777045 353.798125
L 174.777045 22.318125
" clip-path="url(#p9101894c34)" style="fill: none; stroke: #e6e8f0; stroke-width: 0.6; stroke-linecap: square"/>
     </g>
     <g id="line2d_4">
      <g>
       <use xlink:href="#m862ab6a177" x="174.777045" y="353.798125" style="fill: #6f768a; stroke: #6f768a; stroke-width: 0.8"/>
      </g>
     </g>
     <g id="text_2">
      <!-- 1 -->
      <g style="fill: #6f768a" transform="translate(171.595795 368.396562) scale(0.1 -0.1)">
       <defs>
        <path id="DejaVuSans-31" d="M 794 531
L 1825 531
L 1825 4091
L 703 3866
L 703 4441
L 1819 4666
L 2450 4666
L 2450 531
L 3481 531
L 3481 0
L 794 0
L 794 531
z
" transform="scale(0.015625)"/>
       </defs>
       <use xlink:href="#DejaVuSans-31"/>
      </g>
     </g>
    </g>
    <g id="xtick_3">
     <g id="line2d_5">
      <path d="M 273.740682 353.798125
L 273.740682 22.318125
" clip-path="url(#p9101894c34)" style="fill: none; stroke: #e6e8f0; stroke-width: 0.6; stroke-linecap: square"/>
     </g>
     <g id="line2d_6">
      <g>
       <use xlink:href="#m862ab6a177" x="273.740682" y="353.798125" style="fill: #6f768a; stroke: #6f768a; stroke-width: 0.8"/>
      </g>
     </g>
     <g id="text_3">
      <!-- 2 -->
      <g style="fill: #6f768a" transform="translate(270.559432 368.396562) scale(0.1 -0.1)">
       <defs>
        <path id="DejaVuSans-32" d="M 1228 531
L 3431 531
L 3431 0
L 469 0
L 469 531
Q 828 903 1448 1529
Q 2069 2156 2228 2338
Q 2531 2678 2651 2914
Q 2772 3150 2772 3378
Q 2772 3750 2511 3984
Q 2250 4219 1831 4219
Q 1534 4219 1204 4116
Q 875 4013 500 3803
L 500 4441
Q 881 4594 1212 4672
Q 1544 4750 1819 4750
Q 2544 4750 2975 4387
Q 3406 4025 3406 3419
Q 3406 3131 3298 2873
Q 3191 2616 2906 2266
Q 2828 2175 2409 1742
Q 1991 1309 1228 531
z
" transform="scale(0.015625)"/>
       </defs>
       <use xlink:href="#DejaVuSans-32"/>
      </g>
     </g>
    </g>
    <g id="xtick_4">
     <g id="line2d_7">
      <path d="M 372.704318 353.798125
L 372.704318 22.318125
" clip-path="url(#p9101894c34)" style="fill: none; stroke: #e6e8f0; stroke-width: 0.6; stroke-linecap: square"/>
     </g>
     <g id="line2d_8">
      <g>
       <use xlink:href="#m862ab6a177" x="372.704318" y="353.798125" style="fill: #6f768a; stroke: #6f768a; stroke-width: 0.8"/>
      </g>
     </g>
     <g id="text_4">
      <!-- 3 -->
      <g style="fill: #6f768a" transform="translate(369.523068 368.396562) scale(0.1 -0.1)">
       <defs>
        <path id="DejaVuSans-33" d="M 2597 2516
Q 3050 2419 3304 2112
Q 3559 1806 3559 1356
Q 3559 666 3084 287
Q 2609 -91 1734 -91
Q 1441 -91 1130 -33
Q 819 25 488 141
L 488 750
Q 750 597 1062 519
Q 1375 441 1716 441
Q 2309 441 2620 675
Q 2931 909 2931 1356
Q 2931 1769 2642 2001
Q 2353 2234 1838 2234
L 1294 2234
L 1294 2753
L 1863 2753
Q 2328 2753 2575 2939
Q 2822 3125 2822 3475
Q 2822 3834 2567 4026
Q 2313 4219 1838 4219
Q 1578 4219 1281 4162
Q 984 4106 628 3988
L 628 4550
Q 988 4650 1302 4700
Q 1616 4750 1894 4750
Q 2613 4750 3031 4423
Q 3450 4097 3450 3541
Q 3450 3153 3228 2886
Q 3006 2619 2597 2516
z
" transform="scale(0.015625)"/>
       </defs>
       <use xlink:href="#DejaVuSans-33"/>
      </g>
     </g>
    </g>
    <g id="xtick_5">
     <g id="line2d_9">
      <path d="M 471.667955 353.798125
L 471.667955 22.318125
" clip-path="url(#p9101894c34)" style="fill: none; stroke: #e6e8f0; stroke-width: 0.6; stroke-linecap: square"/>
     </g>
     <g id="line2d_10">
      <g>
       <use xlink:href="#m862ab6a177" x="471.667955" y="353.798125" style="fill: #6f768a; stroke: #6f768a; stroke-width: 0.8"/>
      </g>
     </g>
     <g id="text_5">
      <!-- 4 -->
      <g style="fill: #6f768a" transform="translate(468.486705 368.396562) scale(0.1 -0.1)">
       <defs>
        <path id="DejaVuSans-34" d="M 2419 4116
L 825 1625
L 2419 1625
L 2419 4116
z
M 2253 4666
L 3047 4666
L 3047 1625
L 3713 1625
L 3713 1100
L 3047 1100
L 3047 0
L 2419 0
L 2419 1100
L 313 1100
L 313 1709
L 2253 4666
z
" transform="scale(0.015625)"/>
       </defs>
       <use xlink:href="#DejaVuSans-34"/>
      </g>
     </g>
    </g>
    <g id="xtick_6">
     <g id="line2d_11">
      <path d="M 570.631591 353.798125
L 570.631591 22.318125
" clip-path="url(#p9101894c34)" style="fill: none; stroke: #e6e8f0; stroke-width: 0.6; stroke-linecap: square"/>
     </g>
     <g id="line2d_12">
      <g>
       <use xlink:href="#m862ab6a177" x="570.631591" y="353.798125" style="fill: #6f768a; stroke: #6f768a; stroke-width: 0.8"/>
      </g>
     </g>
     <g id="text_6">
      <!-- 5+ -->
      <g style="fill: #6f768a" transform="translate(563.260497 368.396562) scale(0.1 -0.1)">
       <defs>
        <path id="DejaVuSans-35" d="M 691 4666
L 3169 4666
L 3169 4134
L 1269 4134
L 1269 2991
Q 1406 3038 1543 3061
Q 1681 3084 1819 3084
Q 2600 3084 3056 2656
Q 3513 2228 3513 1497
Q 3513 744 3044 326
Q 2575 -91 1722 -91
Q 1428 -91 1123 -41
Q 819 9 494 109
L 494 744
Q 775 591 1075 516
Q 1375 441 1709 441
Q 2250 441 2565 725
Q 2881 1009 2881 1497
Q 2881 1984 2565 2268
Q 2250 2553 1709 2553
Q 1456 2553 1204 2497
Q 953 2441 691 2322
L 691 4666
z
" transform="scale(0.015625)"/>
        <path id="DejaVuSans-2b" d="M 2944 4013
L 2944 2272
L 4684 2272
L 4684 1741
L 2944 1741
L 2944 0
L 2419 0
L 2419 1741
L 678 1741
L 678 2272
L 2419 2272
L 2419 4013
L 2944 4013
z
" transform="scale(0.015625)"/>
       </defs>
       <use xlink:href="#DejaVuSans-35"/>
       <use xlink:href="#DejaVuSans-2b" transform="translate(63.623047 0)"/>
      </g>
     </g>
    </g>
    <g id="text_7">
     <!-- Touches in the prior 30 days -->
     <g style="fill: #1f2430" transform="translate(245.520391 382.834531) scale(0.11 -0.11)">
      <defs>
       <path id="DejaVuSans-54" d="M -19 4666
L 3928 4666
L 3928 4134
L 2272 4134
L 2272 0
L 1638 0
L 1638 4134
L -19 4134
L -19 4666
z
" transform="scale(0.015625)"/>
       <path id="DejaVuSans-6f" d="M 1959 3097
Q 1497 3097 1228 2736
Q 959 2375 959 1747
Q 959 1119 1226 758
Q 1494 397 1959 397
Q 2419 397 2687 759
Q 2956 1122 2956 1747
Q 2956 2369 2687 2733
Q 2419 3097 1959 3097
z
M 1959 3584
Q 2709 3584 3137 3096
Q 3566 2609 3566 1747
Q 3566 888 3137 398
Q 2709 -91 1959 -91
Q 1206 -91 779 398
Q 353 888 353 1747
Q 353 2609 779 3096
Q 1206 3584 1959 3584
z
" transform="scale(0.015625)"/>
       <path id="DejaVuSans-75" d="M 544 1381
L 544 3500
L 1119 3500
L 1119 1403
Q 1119 906 1312 657
Q 1506 409 1894 409
Q 2359 409 2629 706
Q 2900 1003 2900 1516
L 2900 3500
L 3475 3500
L 3475 0
L 2900 0
L 2900 538
Q 2691 219 2414 64
Q 2138 -91 1772 -91
Q 1169 -91 856 284
Q 544 659 544 1381
z
M 1991 3584
L 1991 3584
z
" transform="scale(0.015625)"/>
       <path id="DejaVuSans-63" d="M 3122 3366
L 3122 2828
Q 2878 2963 2633 3030
Q 2388 3097 2138 3097
Q 1578 3097 1268 2742
Q 959 2388 959 1747
Q 959 1106 1268 751
Q 1578 397 2138 397
Q 2388 397 2633 464
Q 2878 531 3122 666
L 3122 134
Q 2881 22 2623 -34
Q 2366 -91 2075 -91
Q 1284 -91 818 406
Q 353 903 353 1747
Q 353 2603 823 3093
Q 1294 3584 2113 3584
Q 2378 3584 2631 3529
Q 2884 3475 3122 3366
z
" transform="scale(0.015625)"/>
       <path id="DejaVuSans-68" d="M 3513 2113
L 3513 0
L 2938 0
L 2938 2094
Q 2938 2591 2744 2837
Q 2550 3084 2163 3084
Q 1697 3084 1428 2787
Q 1159 2491 1159 1978
L 1159 0
L 581 0
L 581 4863
L 1159 4863
L 1159 2956
Q 1366 3272 1645 3428
Q 1925 3584 2291 3584
Q 2894 3584 3203 3211
Q 3513 2838 3513 2113
z
" transform="scale(0.015625)"/>
       <path id="DejaVuSans-65" d="M 3597 1894
L 3597 1613
L 953 1613
Q 991 1019 1311 708
Q 1631 397 2203 397
Q 2534 397 2845 478
Q 3156 559 3463 722
L 3463 178
Q 3153 47 2828 -22
Q 2503 -91 2169 -91
Q 1331 -91 842 396
Q 353 884 353 1716
Q 353 2575 817 3079
Q 1281 3584 2069 3584
Q 2775 3584 3186 3129
Q 3597 2675 3597 1894
z
M 3022 2063
Q 3016 2534 2758 2815
Q 2500 3097 2075 3097
Q 1594 3097 1305 2825
Q 1016 2553 972 2059
L 3022 2063
z
" transform="scale(0.015625)"/>
       <path id="DejaVuSans-73" d="M 2834 3397
L 2834 2853
Q 2591 2978 2328 3040
Q 2066 3103 1784 3103
Q 1356 3103 1142 2972
Q 928 2841 928 2578
Q 928 2378 1081 2264
Q 1234 2150 1697 2047
L 1894 2003
Q 2506 1872 2764 1633
Q 3022 1394 3022 966
Q 3022 478 2636 193
Q 2250 -91 1575 -91
Q 1294 -91 989 -36
Q 684 19 347 128
L 347 722
Q 666 556 975 473
Q 1284 391 1588 391
Q 1994 391 2212 530
Q 2431 669 2431 922
Q 2431 1156 2273 1281
Q 2116 1406 1581 1522
L 1381 1569
Q 847 1681 609 1914
Q 372 2147 372 2553
Q 372 3047 722 3315
Q 1072 3584 1716 3584
Q 2034 3584 2315 3537
Q 2597 3491 2834 3397
z
" transform="scale(0.015625)"/>
       <path id="DejaVuSans-20" transform="scale(0.015625)"/>
       <path id="DejaVuSans-69" d="M 603 3500
L 1178 3500
L 1178 0
L 603 0
L 603 3500
z
M 603 4863
L 1178 4863
L 1178 4134
L 603 4134
L 603 4863
z
" transform="scale(0.015625)"/>
       <path id="DejaVuSans-6e" d="M 3513 2113
L 3513 0
L 2938 0
L 2938 2094
Q 2938 2591 2744 2837
Q 2550 3084 2163 3084
Q 1697 3084 1428 2787
Q 1159 2491 1159 1978
L 1159 0
L 581 0
L 581 3500
L 1159 3500
L 1159 2956
Q 1366 3272 1645 3428
Q 1925 3584 2291 3584
Q 2894 3584 3203 3211
Q 3513 2838 3513 2113
z
" transform="scale(0.015625)"/>
       <path id="DejaVuSans-74" d="M 1172 4494
L 1172 3500
L 2356 3500
L 2356 3053
L 1172 3053
L 1172 1153
Q 1172 725 1289 603
Q 1406 481 1766 481
L 2356 481
L 2356 0
L 1766 0
Q 1100 0 847 248
Q 594 497 594 1153
L 594 3053
L 172 3053
L 172 3500
L 594 3500
L 594 4494
L 1172 4494
z
" transform="scale(0.015625)"/>
       <path id="DejaVuSans-70" d="M 1159 525
L 1159 -1331
L 581 -1331
L 581 3500
L 1159 3500
L 1159 2969
Q 1341 3281 1617 3432
Q 1894 3584 2278 3584
Q 2916 3584 3314 3078
Q 3713 2572 3713 1747
Q 3713 922 3314 415
Q 2916 -91 2278 -91
Q 1894 -91 1617 61
Q 1341 213 1159 525
z
M 3116 1747
Q 3116 2381 2855 2742
Q 2594 3103 2138 3103
Q 1681 3103 1420 2742
Q 1159 2381 1159 1747
Q 1159 1113 1420 752
Q 1681 391 2138 391
Q 2594 391 2855 752
Q 3116 1113 3116 1747
z
" transform="scale(0.015625)"/>
       <path id="DejaVuSans-72" d="M 2631 2963
Q 2534 3019 2420 3045
Q 2306 3072 2169 3072
Q 1681 3072 1420 2755
Q 1159 2438 1159 1844
L 1159 0
L 581 0
L 581 3500
L 1159 3500
L 1159 2956
Q 1341 3275 1631 3429
Q 1922 3584 2338 3584
Q 2397 3584 2469 3576
Q 2541 3569 2628 3553
L 2631 2963
z
" transform="scale(0.015625)"/>
       <path id="DejaVuSans-64" d="M 2906 2969
L 2906 4863
L 3481 4863
L 3481 0
L 2906 0
L 2906 525
Q 2725 213 2448 61
Q 2172 -91 1784 -91
Q 1150 -91 751 415
Q 353 922 353 1747
Q 353 2572 751 3078
Q 1150 3584 1784 3584
Q 2172 3584 2448 3432
Q 2725 3281 2906 2969
z
M 947 1747
Q 947 1113 1208 752
Q 1469 391 1925 391
Q 2381 391 2643 752
Q 2906 1113 2906 1747
Q 2906 2381 2643 2742
Q 2381 3103 1925 3103
Q 1469 3103 1208 2742
Q 947 2381 947 1747
z
" transform="scale(0.015625)"/>
       <path id="DejaVuSans-61" d="M 2194 1759
Q 1497 1759 1228 1600
Q 959 1441 959 1056
Q 959 750 1161 570
Q 1363 391 1709 391
Q 2188 391 2477 730
Q 2766 1069 2766 1631
L 2766 1759
L 2194 1759
z
M 3341 1997
L 3341 0
L 2766 0
L 2766 531
Q 2569 213 2275 61
Q 1981 -91 1556 -91
Q 1019 -91 701 211
Q 384 513 384 1019
Q 384 1609 779 1909
Q 1175 2209 1959 2209
L 2766 2209
L 2766 2266
Q 2766 2663 2505 2880
Q 2244 3097 1772 3097
Q 1472 3097 1187 3025
Q 903 2953 641 2809
L 641 3341
Q 956 3463 1253 3523
Q 1550 3584 1831 3584
Q 2591 3584 2966 3190
Q 3341 2797 3341 1997
z
" transform="scale(0.015625)"/>
       <path id="DejaVuSans-79" d="M 2059 -325
Q 1816 -950 1584 -1140
Q 1353 -1331 966 -1331
L 506 -1331
L 506 -850
L 844 -850
Q 1081 -850 1212 -737
Q 1344 -625 1503 -206
L 1606 56
L 191 3500
L 800 3500
L 1894 763
L 2988 3500
L 3597 3500
L 2059 -325
z
" transform="scale(0.015625)"/>
      </defs>
      <use xlink:href="#DejaVuSans-54"/>
      <use xlink:href="#DejaVuSans-6f" transform="translate(44.083984 0)"/>
      <use xlink:href="#DejaVuSans-75" transform="translate(105.265625 0)"/>
      <use xlink:href="#DejaVuSans-63" transform="translate(168.644531 0)"/>
      <use xlink:href="#DejaVuSans-68" transform="translate(223.625 0)"/>
      <use xlink:href="#DejaVuSans-65" transform="translate(287.003906 0)"/>
      <use xlink:href="#DejaVuSans-73" transform="translate(348.527344 0)"/>
      <use xlink:href="#DejaVuSans-20" transform="translate(400.626953 0)"/>
      <use xlink:href="#DejaVuSans-69" transform="translate(432.414062 0)"/>
      <use xlink:href="#DejaVuSans-6e" transform="translate(460.197266 0)"/>
      <use xlink:href="#DejaVuSans-20" transform="translate(523.576172 0)"/>
      <use xlink:href="#DejaVuSans-74" transform="translate(555.363281 0)"/>
      <use xlink:href="#DejaVuSans-68" transform="translate(594.572266 0)"/>
      <use xlink:href="#DejaVuSans-65" transform="translate(657.951172 0)"/>
      <use xlink:href="#DejaVuSans-20" transform="translate(719.474609 0)"/>
      <use xlink:href="#DejaVuSans-70" transform="translate(751.261719 0)"/>
      <use xlink:href="#DejaVuSans-72" transform="translate(814.738281 0)"/>
      <use xlink:href="#DejaVuSans-69" transform="translate(855.851562 0)"/>
      <use xlink:href="#DejaVuSans-6f" transform="translate(883.634766 0)"/>
      <use xlink:href="#DejaVuSans-72" transform="translate(944.816406 0)"/>
      <use xlink:href="#DejaVuSans-20" transform="translate(985.929688 0)"/>
      <use xlink:href="#DejaVuSans-33" transform="translate(1017.716797 0)"/>
      <use xlink:href="#DejaVuSans-30" transform="translate(1081.339844 0)"/>
      <use xlink:href="#DejaVuSans-20" transform="translate(1144.962891 0)"/>
      <use xlink:href="#DejaVuSans-64" transform="translate(1176.75 0)"/>
      <use xlink:href="#DejaVuSans-61" transform="translate(1240.226562 0)"/>
      <use xlink:href="#DejaVuSans-79" transform="translate(1301.505859 0)"/>
      <use xlink:href="#DejaVuSans-73" transform="translate(1360.685547 0)"/>
     </g>
    </g>
   </g>
   <g id="matplotlib.axis_2">
    <g id="ytick_1">
     <g id="line2d_13">
      <path d="M 51.0725 353.798125
L 595.3725 353.798125
" clip-path="url(#p9101894c34)" style="fill: none; stroke: #e6e8f0; stroke-width: 0.6; stroke-linecap: square"/>
     </g>
     <g id="line2d_14">
      <defs>
       <path id="m2f9838bedc" d="M 0 0
L -3.5 0
" style="stroke: #6f768a; stroke-width: 0.8"/>
      </defs>
      <g>
       <use xlink:href="#m2f9838bedc" x="51.0725" y="353.798125" style="fill: #6f768a; stroke: #6f768a; stroke-width: 0.8"/>
      </g>
     </g>
     <g id="text_8">
      <!-- 30% -->
      <g style="fill: #6f768a" transform="translate(21.845938 357.597344) scale(0.1 -0.1)">
       <defs>
        <path id="DejaVuSans-25" d="M 4653 2053
Q 4381 2053 4226 1822
Q 4072 1591 4072 1178
Q 4072 772 4226 539
Q 4381 306 4653 306
Q 4919 306 5073 539
Q 5228 772 5228 1178
Q 5228 1588 5073 1820
Q 4919 2053 4653 2053
z
M 4653 2450
Q 5147 2450 5437 2106
Q 5728 1763 5728 1178
Q 5728 594 5436 251
Q 5144 -91 4653 -91
Q 4153 -91 3862 251
Q 3572 594 3572 1178
Q 3572 1766 3864 2108
Q 4156 2450 4653 2450
z
M 1428 4353
Q 1159 4353 1004 4120
Q 850 3888 850 3481
Q 850 3069 1003 2837
Q 1156 2606 1428 2606
Q 1700 2606 1854 2837
Q 2009 3069 2009 3481
Q 2009 3884 1853 4118
Q 1697 4353 1428 4353
z
M 4250 4750
L 4750 4750
L 1831 -91
L 1331 -91
L 4250 4750
z
M 1428 4750
Q 1922 4750 2215 4408
Q 2509 4066 2509 3481
Q 2509 2891 2217 2550
Q 1925 2209 1428 2209
Q 931 2209 642 2551
Q 353 2894 353 3481
Q 353 4063 643 4406
Q 934 4750 1428 4750
z
" transform="scale(0.015625)"/>
       </defs>
       <use xlink:href="#DejaVuSans-33"/>
       <use xlink:href="#DejaVuSans-30" transform="translate(63.623047 0)"/>
       <use xlink:href="#DejaVuSans-25" transform="translate(127.246094 0)"/>
      </g>
     </g>
    </g>
    <g id="ytick_2">
     <g id="line2d_15">
      <path d="M 51.0725 294.605268
L 595.3725 294.605268
" clip-path="url(#p9101894c34)" style="fill: none; stroke: #e6e8f0; stroke-width: 0.6; stroke-linecap: square"/>
     </g>
     <g id="line2d_16">
      <g>
       <use xlink:href="#m2f9838bedc" x="51.0725" y="294.605268" style="fill: #6f768a; stroke: #6f768a; stroke-width: 0.8"/>
      </g>
     </g>
     <g id="text_9">
      <!-- 40% -->
      <g style="fill: #6f768a" transform="translate(21.845938 298.404487) scale(0.1 -0.1)">
       <use xlink:href="#DejaVuSans-34"/>
       <use xlink:href="#DejaVuSans-30" transform="translate(63.623047 0)"/>
       <use xlink:href="#DejaVuSans-25" transform="translate(127.246094 0)"/>
      </g>
     </g>
    </g>
    <g id="ytick_3">
     <g id="line2d_17">
      <path d="M 51.0725 235.412411
L 595.3725 235.412411
" clip-path="url(#p9101894c34)" style="fill: none; stroke: #e6e8f0; stroke-width: 0.6; stroke-linecap: square"/>
     </g>
     <g id="line2d_18">
      <g>
       <use xlink:href="#m2f9838bedc" x="51.0725" y="235.412411" style="fill: #6f768a; stroke: #6f768a; stroke-width: 0.8"/>
      </g>
     </g>
     <g id="text_10">
      <!-- 50% -->
      <g style="fill: #6f768a" transform="translate(21.845938 239.211629) scale(0.1 -0.1)">
       <use xlink:href="#DejaVuSans-35"/>
       <use xlink:href="#DejaVuSans-30" transform="translate(63.623047 0)"/>
       <use xlink:href="#DejaVuSans-25" transform="translate(127.246094 0)"/>
      </g>
     </g>
    </g>
    <g id="ytick_4">
     <g id="line2d_19">
      <path d="M 51.0725 176.219554
L 595.3725 176.219554
" clip-path="url(#p9101894c34)" style="fill: none; stroke: #e6e8f0; stroke-width: 0.6; stroke-linecap: square"/>
     </g>
     <g id="line2d_20">
      <g>
       <use xlink:href="#m2f9838bedc" x="51.0725" y="176.219554" style="fill: #6f768a; stroke: #6f768a; stroke-width: 0.8"/>
      </g>
     </g>
     <g id="text_11">
      <!-- 60% -->
      <g style="fill: #6f768a" transform="translate(21.845938 180.018772) scale(0.1 -0.1)">
       <defs>
        <path id="DejaVuSans-36" d="M 2113 2584
Q 1688 2584 1439 2293
Q 1191 2003 1191 1497
Q 1191 994 1439 701
Q 1688 409 2113 409
Q 2538 409 2786 701
Q 3034 994 3034 1497
Q 3034 2003 2786 2293
Q 2538 2584 2113 2584
z
M 3366 4563
L 3366 3988
Q 3128 4100 2886 4159
Q 2644 4219 2406 4219
Q 1781 4219 1451 3797
Q 1122 3375 1075 2522
Q 1259 2794 1537 2939
Q 1816 3084 2150 3084
Q 2853 3084 3261 2657
Q 3669 2231 3669 1497
Q 3669 778 3244 343
Q 2819 -91 2113 -91
Q 1303 -91 875 529
Q 447 1150 447 2328
Q 447 3434 972 4092
Q 1497 4750 2381 4750
Q 2619 4750 2861 4703
Q 3103 4656 3366 4563
z
" transform="scale(0.015625)"/>
       </defs>
       <use xlink:href="#DejaVuSans-36"/>
       <use xlink:href="#DejaVuSans-30" transform="translate(63.623047 0)"/>
       <use xlink:href="#DejaVuSans-25" transform="translate(127.246094 0)"/>
      </g>
     </g>
    </g>
    <g id="ytick_5">
     <g id="line2d_21">
      <path d="M 51.0725 117.026696
L 595.3725 117.026696
" clip-path="url(#p9101894c34)" style="fill: none; stroke: #e6e8f0; stroke-width: 0.6; stroke-linecap: square"/>
     </g>
     <g id="line2d_22">
      <g>
       <use xlink:href="#m2f9838bedc" x="51.0725" y="117.026696" style="fill: #6f768a; stroke: #6f768a; stroke-width: 0.8"/>
      </g>
     </g>
     <g id="text_12">
      <!-- 70% -->
      <g style="fill: #6f768a" transform="translate(21.845938 120.825915) scale(0.1 -0.1)">
       <defs>
        <path id="DejaVuSans-37" d="M 525 4666
L 3525 4666
L 3525 4397
L 1831 0
L 1172 0
L 2766 4134
L 525 4134
L 525 4666
z
" transform="scale(0.015625)"/>
       </defs>
       <use xlink:href="#DejaVuSans-37"/>
       <use xlink:href="#DejaVuSans-30" transform="translate(63.623047 0)"/>
       <use xlink:href="#DejaVuSans-25" transform="translate(127.246094 0)"/>
      </g>
     </g>
    </g>
    <g id="ytick_6">
     <g id="line2d_23">
      <path d="M 51.0725 57.833839
L 595.3725 57.833839
" clip-path="url(#p9101894c34)" style="fill: none; stroke: #e6e8f0; stroke-width: 0.6; stroke-linecap: square"/>
     </g>
     <g id="line2d_24">
      <g>
       <use xlink:href="#m2f9838bedc" x="51.0725" y="57.833839" style="fill: #6f768a; stroke: #6f768a; stroke-width: 0.8"/>
      </g>
     </g>
     <g id="text_13">
      <!-- 80% -->
      <g style="fill: #6f768a" transform="translate(21.845938 61.633058) scale(0.1 -0.1)">
       <defs>
        <path id="DejaVuSans-38" d="M 2034 2216
Q 1584 2216 1326 1975
Q 1069 1734 1069 1313
Q 1069 891 1326 650
Q 1584 409 2034 409
Q 2484 409 2743 651
Q 3003 894 3003 1313
Q 3003 1734 2745 1975
Q 2488 2216 2034 2216
z
M 1403 2484
Q 997 2584 770 2862
Q 544 3141 544 3541
Q 544 4100 942 4425
Q 1341 4750 2034 4750
Q 2731 4750 3128 4425
Q 3525 4100 3525 3541
Q 3525 3141 3298 2862
Q 3072 2584 2669 2484
Q 3125 2378 3379 2068
Q 3634 1759 3634 1313
Q 3634 634 3220 271
Q 2806 -91 2034 -91
Q 1263 -91 848 271
Q 434 634 434 1313
Q 434 1759 690 2068
Q 947 2378 1403 2484
z
M 1172 3481
Q 1172 3119 1398 2916
Q 1625 2713 2034 2713
Q 2441 2713 2670 2916
Q 2900 3119 2900 3481
Q 2900 3844 2670 4047
Q 2441 4250 2034 4250
Q 1625 4250 1398 4047
Q 1172 3844 1172 3481
z
" transform="scale(0.015625)"/>
       </defs>
       <use xlink:href="#DejaVuSans-38"/>
       <use xlink:href="#DejaVuSans-30" transform="translate(63.623047 0)"/>
       <use xlink:href="#DejaVuSans-25" transform="translate(127.246094 0)"/>
      </g>
     </g>
    </g>
    <g id="text_14">
     <!-- Response in the next 28 days -->
     <g style="fill: #1f2430" transform="translate(15.558281 269.419453) rotate(-90) scale(0.11 -0.11)">
      <defs>
       <path id="DejaVuSans-52" d="M 2841 2188
Q 3044 2119 3236 1894
Q 3428 1669 3622 1275
L 4263 0
L 3584 0
L 2988 1197
Q 2756 1666 2539 1819
Q 2322 1972 1947 1972
L 1259 1972
L 1259 0
L 628 0
L 628 4666
L 2053 4666
Q 2853 4666 3247 4331
Q 3641 3997 3641 3322
Q 3641 2881 3436 2590
Q 3231 2300 2841 2188
z
M 1259 4147
L 1259 2491
L 2053 2491
Q 2509 2491 2742 2702
Q 2975 2913 2975 3322
Q 2975 3731 2742 3939
Q 2509 4147 2053 4147
L 1259 4147
z
" transform="scale(0.015625)"/>
       <path id="DejaVuSans-78" d="M 3513 3500
L 2247 1797
L 3578 0
L 2900 0
L 1881 1375
L 863 0
L 184 0
L 1544 1831
L 300 3500
L 978 3500
L 1906 2253
L 2834 3500
L 3513 3500
z
" transform="scale(0.015625)"/>
      </defs>
      <use xlink:href="#DejaVuSans-52"/>
      <use xlink:href="#DejaVuSans-65" transform="translate(64.982422 0)"/>
      <use xlink:href="#DejaVuSans-73" transform="translate(126.505859 0)"/>
      <use xlink:href="#DejaVuSans-70" transform="translate(178.605469 0)"/>
      <use xlink:href="#DejaVuSans-6f" transform="translate(242.082031 0)"/>
      <use xlink:href="#DejaVuSans-6e" transform="translate(303.263672 0)"/>
      <use xlink:href="#DejaVuSans-73" transform="translate(366.642578 0)"/>
      <use xlink:href="#DejaVuSans-65" transform="translate(418.742188 0)"/>
      <use xlink:href="#DejaVuSans-20" transform="translate(480.265625 0)"/>
      <use xlink:href="#DejaVuSans-69" transform="translate(512.052734 0)"/>
      <use xlink:href="#DejaVuSans-6e" transform="translate(539.835938 0)"/>
      <use xlink:href="#DejaVuSans-20" transform="translate(603.214844 0)"/>
      <use xlink:href="#DejaVuSans-74" transform="translate(635.001953 0)"/>
      <use xlink:href="#DejaVuSans-68" transform="translate(674.210938 0)"/>
      <use xlink:href="#DejaVuSans-65" transform="translate(737.589844 0)"/>
      <use xlink:href="#DejaVuSans-20" transform="translate(799.113281 0)"/>
      <use xlink:href="#DejaVuSans-6e" transform="translate(830.900391 0)"/>
      <use xlink:href="#DejaVuSans-65" transform="translate(894.279297 0)"/>
      <use xlink:href="#DejaVuSans-78" transform="translate(954.052734 0)"/>
      <use xlink:href="#DejaVuSans-74" transform="translate(1013.232422 0)"/>
      <use xlink:href="#DejaVuSans-20" transform="translate(1052.441406 0)"/>
      <use xlink:href="#DejaVuSans-32" transform="translate(1084.228516 0)"/>
      <use xlink:href="#DejaVuSans-38" transform="translate(1147.851562 0)"/>
      <use xlink:href="#DejaVuSans-20" transform="translate(1211.474609 0)"/>
      <use xlink:href="#DejaVuSans-64" transform="translate(1243.261719 0)"/>
      <use xlink:href="#DejaVuSans-61" transform="translate(1306.738281 0)"/>
      <use xlink:href="#DejaVuSans-79" transform="translate(1368.017578 0)"/>
      <use xlink:href="#DejaVuSans-73" transform="translate(1427.197266 0)"/>
     </g>
    </g>
   </g>
   <g id="patch_3">
    <path d="M 51.0725 353.798125
L 51.0725 22.318125
" style="fill: none; stroke: #d7dbe7; stroke-width: 0.8; stroke-linejoin: miter; stroke-linecap: square"/>
   </g>
   <g id="patch_4">
    <path d="M 51.0725 353.798125
L 595.3725 353.798125
" style="fill: none; stroke: #d7dbe7; stroke-width: 0.8; stroke-linejoin: miter; stroke-linecap: square"/>
   </g>
   <g id="line2d_25">
    <path d="M 75.813409 308.75633
L 174.777045 181.414308
L 273.740682 140.703839
L 372.704318 142.395064
L 471.667955 117.739863
L 570.631591 126.372937
" clip-path="url(#p9101894c34)" style="fill: none; stroke: #464c55; stroke-width: 1.8; stroke-linecap: square"/>
    <defs>
     <path id="m2bf6510a6f" d="M 0 3.5
C 0.928211 3.5 1.81853 3.131218 2.474874 2.474874
C 3.131218 1.81853 3.5 0.928211 3.5 0
C 3.5 -0.928211 3.131218 -1.81853 2.474874 -2.474874
C 1.81853 -3.131218 0.928211 -3.5 0 -3.5
C -0.928211 -3.5 -1.81853 -3.131218 -2.474874 -2.474874
C -3.131218 -1.81853 -3.5 -0.928211 -3.5 0
C -3.5 0.928211 -3.131218 1.81853 -2.474874 2.474874
C -1.81853 3.131218 -0.928211 3.5 0 3.5
z
" style="stroke: #464c55"/>
    </defs>
    <g clip-path="url(#p9101894c34)">
     <use xlink:href="#m2bf6510a6f" x="75.813409" y="308.75633" style="fill: #c5cad3; stroke: #464c55"/>
     <use xlink:href="#m2bf6510a6f" x="174.777045" y="181.414308" style="fill: #c5cad3; stroke: #464c55"/>
     <use xlink:href="#m2bf6510a6f" x="273.740682" y="140.703839" style="fill: #c5cad3; stroke: #464c55"/>
     <use xlink:href="#m2bf6510a6f" x="372.704318" y="142.395064" style="fill: #c5cad3; stroke: #464c55"/>
     <use xlink:href="#m2bf6510a6f" x="471.667955" y="117.739863" style="fill: #c5cad3; stroke: #464c55"/>
     <use xlink:href="#m2bf6510a6f" x="570.631591" y="126.372937" style="fill: #c5cad3; stroke: #464c55"/>
    </g>
   </g>
   <g id="text_15">
    <!-- +7.7 pt -->
    <g style="fill: #2e4780" transform="translate(106.614602 222.745311) scale(0.09 -0.09)">
     <defs>
      <path id="DejaVuSans-Bold-2b" d="M 3053 4013
L 3053 2375
L 4684 2375
L 4684 1638
L 3053 1638
L 3053 0
L 2309 0
L 2309 1638
L 678 1638
L 678 2375
L 2309 2375
L 2309 4013
L 3053 4013
z
" transform="scale(0.015625)"/>
      <path id="DejaVuSans-Bold-37" d="M 428 4666
L 3944 4666
L 3944 3988
L 2125 0
L 953 0
L 2675 3781
L 428 3781
L 428 4666
z
" transform="scale(0.015625)"/>
      <path id="DejaVuSans-Bold-2e" d="M 653 1209
L 1778 1209
L 1778 0
L 653 0
L 653 1209
z
" transform="scale(0.015625)"/>
      <path id="DejaVuSans-Bold-20" transform="scale(0.015625)"/>
      <path id="DejaVuSans-Bold-70" d="M 1656 506
L 1656 -1331
L 538 -1331
L 538 3500
L 1656 3500
L 1656 2988
Q 1888 3294 2169 3439
Q 2450 3584 2816 3584
Q 3463 3584 3878 3070
Q 4294 2556 4294 1747
Q 4294 938 3878 423
Q 3463 -91 2816 -91
Q 2450 -91 2169 54
Q 1888 200 1656 506
z
M 2400 2772
Q 2041 2772 1848 2508
Q 1656 2244 1656 1747
Q 1656 1250 1848 986
Q 2041 722 2400 722
Q 2759 722 2948 984
Q 3138 1247 3138 1747
Q 3138 2247 2948 2509
Q 2759 2772 2400 2772
z
" transform="scale(0.015625)"/>
      <path id="DejaVuSans-Bold-74" d="M 1759 4494
L 1759 3500
L 2913 3500
L 2913 2700
L 1759 2700
L 1759 1216
Q 1759 972 1856 886
Q 1953 800 2241 800
L 2816 800
L 2816 0
L 1856 0
Q 1194 0 917 276
Q 641 553 641 1216
L 641 2700
L 84 2700
L 84 3500
L 641 3500
L 641 4494
L 1759 4494
z
" transform="scale(0.015625)"/>
     </defs>
     <use xlink:href="#DejaVuSans-Bold-2b"/>
     <use xlink:href="#DejaVuSans-Bold-37" transform="translate(83.789062 0)"/>
     <use xlink:href="#DejaVuSans-Bold-2e" transform="translate(153.369141 0)"/>
     <use xlink:href="#DejaVuSans-Bold-37" transform="translate(191.357422 0)"/>
     <use xlink:href="#DejaVuSans-Bold-20" transform="translate(260.9375 0)"/>
     <use xlink:href="#DejaVuSans-Bold-70" transform="translate(295.751953 0)"/>
     <use xlink:href="#DejaVuSans-Bold-74" transform="translate(367.333984 0)"/>
    </g>
   </g>
   <g id="text_16">
    <!-- +7.5 pt -->
    <g style="fill: #2e4780" transform="translate(205.578239 177.682917) scale(0.09 -0.09)">
     <defs>
      <path id="DejaVuSans-Bold-35" d="M 678 4666
L 3669 4666
L 3669 3781
L 1638 3781
L 1638 3059
Q 1775 3097 1914 3117
Q 2053 3138 2203 3138
Q 3056 3138 3531 2711
Q 4006 2284 4006 1522
Q 4006 766 3489 337
Q 2972 -91 2053 -91
Q 1656 -91 1267 -14
Q 878 63 494 219
L 494 1166
Q 875 947 1217 837
Q 1559 728 1863 728
Q 2300 728 2551 942
Q 2803 1156 2803 1522
Q 2803 1891 2551 2103
Q 2300 2316 1863 2316
Q 1603 2316 1309 2248
Q 1016 2181 678 2041
L 678 4666
z
" transform="scale(0.015625)"/>
     </defs>
     <use xlink:href="#DejaVuSans-Bold-2b"/>
     <use xlink:href="#DejaVuSans-Bold-37" transform="translate(83.789062 0)"/>
     <use xlink:href="#DejaVuSans-Bold-2e" transform="translate(153.369141 0)"/>
     <use xlink:href="#DejaVuSans-Bold-35" transform="translate(191.357422 0)"/>
     <use xlink:href="#DejaVuSans-Bold-20" transform="translate(260.9375 0)"/>
     <use xlink:href="#DejaVuSans-Bold-70" transform="translate(295.751953 0)"/>
     <use xlink:href="#DejaVuSans-Bold-74" transform="translate(367.333984 0)"/>
    </g>
   </g>
   <g id="text_17">
    <!-- +7.1 pt -->
    <g style="fill: #2e4780" transform="translate(304.541875 134.522578) scale(0.09 -0.09)">
     <defs>
      <path id="DejaVuSans-Bold-31" d="M 750 831
L 1813 831
L 1813 3847
L 722 3622
L 722 4441
L 1806 4666
L 2950 4666
L 2950 831
L 4013 831
L 4013 0
L 750 0
L 750 831
z
" transform="scale(0.015625)"/>
     </defs>
     <use xlink:href="#DejaVuSans-Bold-2b"/>
     <use xlink:href="#DejaVuSans-Bold-37" transform="translate(83.789062 0)"/>
     <use xlink:href="#DejaVuSans-Bold-2e" transform="translate(153.369141 0)"/>
     <use xlink:href="#DejaVuSans-Bold-31" transform="translate(191.357422 0)"/>
     <use xlink:href="#DejaVuSans-Bold-20" transform="translate(260.9375 0)"/>
     <use xlink:href="#DejaVuSans-Bold-70" transform="translate(295.751953 0)"/>
     <use xlink:href="#DejaVuSans-Bold-74" transform="translate(367.333984 0)"/>
    </g>
   </g>
   <g id="text_18">
    <!-- +6.3 pt -->
    <g style="fill: #2e4780" transform="translate(403.505511 94.934348) scale(0.09 -0.09)">
     <defs>
      <path id="DejaVuSans-Bold-36" d="M 2316 2303
Q 2000 2303 1842 2098
Q 1684 1894 1684 1484
Q 1684 1075 1842 870
Q 2000 666 2316 666
Q 2634 666 2792 870
Q 2950 1075 2950 1484
Q 2950 1894 2792 2098
Q 2634 2303 2316 2303
z
M 3803 4544
L 3803 3681
Q 3506 3822 3243 3889
Q 2981 3956 2731 3956
Q 2194 3956 1894 3657
Q 1594 3359 1544 2772
Q 1750 2925 1990 3001
Q 2231 3078 2516 3078
Q 3231 3078 3670 2659
Q 4109 2241 4109 1563
Q 4109 813 3618 361
Q 3128 -91 2303 -91
Q 1394 -91 895 523
Q 397 1138 397 2266
Q 397 3422 980 4083
Q 1563 4744 2578 4744
Q 2900 4744 3203 4694
Q 3506 4644 3803 4544
z
" transform="scale(0.015625)"/>
      <path id="DejaVuSans-Bold-33" d="M 2981 2516
Q 3453 2394 3698 2092
Q 3944 1791 3944 1325
Q 3944 631 3412 270
Q 2881 -91 1863 -91
Q 1503 -91 1142 -33
Q 781 25 428 141
L 428 1069
Q 766 900 1098 814
Q 1431 728 1753 728
Q 2231 728 2486 893
Q 2741 1059 2741 1369
Q 2741 1688 2480 1852
Q 2219 2016 1709 2016
L 1228 2016
L 1228 2791
L 1734 2791
Q 2188 2791 2409 2933
Q 2631 3075 2631 3366
Q 2631 3634 2415 3781
Q 2200 3928 1806 3928
Q 1516 3928 1219 3862
Q 922 3797 628 3669
L 628 4550
Q 984 4650 1334 4700
Q 1684 4750 2022 4750
Q 2931 4750 3382 4451
Q 3834 4153 3834 3553
Q 3834 3144 3618 2883
Q 3403 2622 2981 2516
z
" transform="scale(0.015625)"/>
     </defs>
     <use xlink:href="#DejaVuSans-Bold-2b"/>
     <use xlink:href="#DejaVuSans-Bold-36" transform="translate(83.789062 0)"/>
     <use xlink:href="#DejaVuSans-Bold-2e" transform="translate(153.369141 0)"/>
     <use xlink:href="#DejaVuSans-Bold-33" transform="translate(191.357422 0)"/>
     <use xlink:href="#DejaVuSans-Bold-20" transform="translate(260.9375 0)"/>
     <use xlink:href="#DejaVuSans-Bold-70" transform="translate(295.751953 0)"/>
     <use xlink:href="#DejaVuSans-Bold-74" transform="translate(367.333984 0)"/>
    </g>
   </g>
   <g id="text_19">
    <!-- +5.5 pt -->
    <g style="fill: #2e4780" transform="translate(502.469148 60.065477) scale(0.09 -0.09)">
     <use xlink:href="#DejaVuSans-Bold-2b"/>
     <use xlink:href="#DejaVuSans-Bold-35" transform="translate(83.789062 0)"/>
     <use xlink:href="#DejaVuSans-Bold-2e" transform="translate(153.369141 0)"/>
     <use xlink:href="#DejaVuSans-Bold-35" transform="translate(191.357422 0)"/>
     <use xlink:href="#DejaVuSans-Bold-20" transform="translate(260.9375 0)"/>
     <use xlink:href="#DejaVuSans-Bold-70" transform="translate(295.751953 0)"/>
     <use xlink:href="#DejaVuSans-Bold-74" transform="translate(367.333984 0)"/>
    </g>
   </g>
   <g id="text_20">
    <!-- The adjusted return on one more touch diminishes as contact rises -->
    <g transform="translate(96.069062 16.318125) scale(0.12 -0.12)">
     <defs>
      <path id="DejaVuSans-Bold-54" d="M 31 4666
L 4331 4666
L 4331 3756
L 2784 3756
L 2784 0
L 1581 0
L 1581 3756
L 31 3756
L 31 4666
z
" transform="scale(0.015625)"/>
      <path id="DejaVuSans-Bold-68" d="M 4056 2131
L 4056 0
L 2931 0
L 2931 347
L 2931 1625
Q 2931 2084 2911 2256
Q 2891 2428 2841 2509
Q 2775 2619 2662 2680
Q 2550 2741 2406 2741
Q 2056 2741 1856 2470
Q 1656 2200 1656 1722
L 1656 0
L 538 0
L 538 4863
L 1656 4863
L 1656 2988
Q 1909 3294 2193 3439
Q 2478 3584 2822 3584
Q 3428 3584 3742 3212
Q 4056 2841 4056 2131
z
" transform="scale(0.015625)"/>
      <path id="DejaVuSans-Bold-65" d="M 4031 1759
L 4031 1441
L 1416 1441
Q 1456 1047 1700 850
Q 1944 653 2381 653
Q 2734 653 3104 758
Q 3475 863 3866 1075
L 3866 213
Q 3469 63 3072 -14
Q 2675 -91 2278 -91
Q 1328 -91 801 392
Q 275 875 275 1747
Q 275 2603 792 3093
Q 1309 3584 2216 3584
Q 3041 3584 3536 3087
Q 4031 2591 4031 1759
z
M 2881 2131
Q 2881 2450 2695 2645
Q 2509 2841 2209 2841
Q 1884 2841 1681 2658
Q 1478 2475 1428 2131
L 2881 2131
z
" transform="scale(0.015625)"/>
      <path id="DejaVuSans-Bold-61" d="M 2106 1575
Q 1756 1575 1579 1456
Q 1403 1338 1403 1106
Q 1403 894 1545 773
Q 1688 653 1941 653
Q 2256 653 2472 879
Q 2688 1106 2688 1447
L 2688 1575
L 2106 1575
z
M 3816 1997
L 3816 0
L 2688 0
L 2688 519
Q 2463 200 2181 54
Q 1900 -91 1497 -91
Q 953 -91 614 226
Q 275 544 275 1050
Q 275 1666 698 1953
Q 1122 2241 2028 2241
L 2688 2241
L 2688 2328
Q 2688 2594 2478 2717
Q 2269 2841 1825 2841
Q 1466 2841 1156 2769
Q 847 2697 581 2553
L 581 3406
Q 941 3494 1303 3539
Q 1666 3584 2028 3584
Q 2975 3584 3395 3211
Q 3816 2838 3816 1997
z
" transform="scale(0.015625)"/>
      <path id="DejaVuSans-Bold-64" d="M 2919 2988
L 2919 4863
L 4044 4863
L 4044 0
L 2919 0
L 2919 506
Q 2688 197 2409 53
Q 2131 -91 1766 -91
Q 1119 -91 703 423
Q 288 938 288 1747
Q 288 2556 703 3070
Q 1119 3584 1766 3584
Q 2128 3584 2408 3439
Q 2688 3294 2919 2988
z
M 2181 722
Q 2541 722 2730 984
Q 2919 1247 2919 1747
Q 2919 2247 2730 2509
Q 2541 2772 2181 2772
Q 1825 2772 1636 2509
Q 1447 2247 1447 1747
Q 1447 1247 1636 984
Q 1825 722 2181 722
z
" transform="scale(0.015625)"/>
      <path id="DejaVuSans-Bold-6a" d="M 538 3500
L 1656 3500
L 1656 63
Q 1656 -641 1318 -1011
Q 981 -1381 341 -1381
L -213 -1381
L -213 -647
L -19 -647
Q 300 -647 419 -503
Q 538 -359 538 63
L 538 3500
z
M 538 4863
L 1656 4863
L 1656 3950
L 538 3950
L 538 4863
z
" transform="scale(0.015625)"/>
      <path id="DejaVuSans-Bold-75" d="M 500 1363
L 500 3500
L 1625 3500
L 1625 3150
Q 1625 2866 1622 2436
Q 1619 2006 1619 1863
Q 1619 1441 1641 1255
Q 1663 1069 1716 984
Q 1784 875 1895 815
Q 2006 756 2150 756
Q 2500 756 2700 1025
Q 2900 1294 2900 1772
L 2900 3500
L 4019 3500
L 4019 0
L 2900 0
L 2900 506
Q 2647 200 2364 54
Q 2081 -91 1741 -91
Q 1134 -91 817 281
Q 500 653 500 1363
z
" transform="scale(0.015625)"/>
      <path id="DejaVuSans-Bold-73" d="M 3272 3391
L 3272 2541
Q 2913 2691 2578 2766
Q 2244 2841 1947 2841
Q 1628 2841 1473 2761
Q 1319 2681 1319 2516
Q 1319 2381 1436 2309
Q 1553 2238 1856 2203
L 2053 2175
Q 2913 2066 3209 1816
Q 3506 1566 3506 1031
Q 3506 472 3093 190
Q 2681 -91 1863 -91
Q 1516 -91 1145 -36
Q 775 19 384 128
L 384 978
Q 719 816 1070 734
Q 1422 653 1784 653
Q 2113 653 2278 743
Q 2444 834 2444 1013
Q 2444 1163 2330 1236
Q 2216 1309 1875 1350
L 1678 1375
Q 931 1469 631 1722
Q 331 1975 331 2491
Q 331 3047 712 3315
Q 1094 3584 1881 3584
Q 2191 3584 2531 3537
Q 2872 3491 3272 3391
z
" transform="scale(0.015625)"/>
      <path id="DejaVuSans-Bold-72" d="M 3138 2547
Q 2991 2616 2845 2648
Q 2700 2681 2553 2681
Q 2122 2681 1889 2404
Q 1656 2128 1656 1613
L 1656 0
L 538 0
L 538 3500
L 1656 3500
L 1656 2925
Q 1872 3269 2151 3426
Q 2431 3584 2822 3584
Q 2878 3584 2943 3579
Q 3009 3575 3134 3559
L 3138 2547
z
" transform="scale(0.015625)"/>
      <path id="DejaVuSans-Bold-6e" d="M 4056 2131
L 4056 0
L 2931 0
L 2931 347
L 2931 1631
Q 2931 2084 2911 2256
Q 2891 2428 2841 2509
Q 2775 2619 2662 2680
Q 2550 2741 2406 2741
Q 2056 2741 1856 2470
Q 1656 2200 1656 1722
L 1656 0
L 538 0
L 538 3500
L 1656 3500
L 1656 2988
Q 1909 3294 2193 3439
Q 2478 3584 2822 3584
Q 3428 3584 3742 3212
Q 4056 2841 4056 2131
z
" transform="scale(0.015625)"/>
      <path id="DejaVuSans-Bold-6f" d="M 2203 2784
Q 1831 2784 1636 2517
Q 1441 2250 1441 1747
Q 1441 1244 1636 976
Q 1831 709 2203 709
Q 2569 709 2762 976
Q 2956 1244 2956 1747
Q 2956 2250 2762 2517
Q 2569 2784 2203 2784
z
M 2203 3584
Q 3106 3584 3614 3096
Q 4122 2609 4122 1747
Q 4122 884 3614 396
Q 3106 -91 2203 -91
Q 1297 -91 786 396
Q 275 884 275 1747
Q 275 2609 786 3096
Q 1297 3584 2203 3584
z
" transform="scale(0.015625)"/>
      <path id="DejaVuSans-Bold-6d" d="M 3781 2919
Q 3994 3244 4286 3414
Q 4578 3584 4928 3584
Q 5531 3584 5847 3212
Q 6163 2841 6163 2131
L 6163 0
L 5038 0
L 5038 1825
Q 5041 1866 5042 1909
Q 5044 1953 5044 2034
Q 5044 2406 4934 2573
Q 4825 2741 4581 2741
Q 4263 2741 4089 2478
Q 3916 2216 3909 1719
L 3909 0
L 2784 0
L 2784 1825
Q 2784 2406 2684 2573
Q 2584 2741 2328 2741
Q 2006 2741 1831 2477
Q 1656 2213 1656 1722
L 1656 0
L 531 0
L 531 3500
L 1656 3500
L 1656 2988
Q 1863 3284 2130 3434
Q 2397 3584 2719 3584
Q 3081 3584 3359 3409
Q 3638 3234 3781 2919
z
" transform="scale(0.015625)"/>
      <path id="DejaVuSans-Bold-63" d="M 3366 3391
L 3366 2478
Q 3138 2634 2908 2709
Q 2678 2784 2431 2784
Q 1963 2784 1702 2511
Q 1441 2238 1441 1747
Q 1441 1256 1702 982
Q 1963 709 2431 709
Q 2694 709 2930 787
Q 3166 866 3366 1019
L 3366 103
Q 3103 6 2833 -42
Q 2563 -91 2291 -91
Q 1344 -91 809 395
Q 275 881 275 1747
Q 275 2613 809 3098
Q 1344 3584 2291 3584
Q 2566 3584 2833 3536
Q 3100 3488 3366 3391
z
" transform="scale(0.015625)"/>
      <path id="DejaVuSans-Bold-69" d="M 538 3500
L 1656 3500
L 1656 0
L 538 0
L 538 3500
z
M 538 4863
L 1656 4863
L 1656 3950
L 538 3950
L 538 4863
z
" transform="scale(0.015625)"/>
     </defs>
     <use xlink:href="#DejaVuSans-Bold-54"/>
     <use xlink:href="#DejaVuSans-Bold-68" transform="translate(68.212891 0)"/>
     <use xlink:href="#DejaVuSans-Bold-65" transform="translate(139.404297 0)"/>
     <use xlink:href="#DejaVuSans-Bold-20" transform="translate(207.226562 0)"/>
     <use xlink:href="#DejaVuSans-Bold-61" transform="translate(242.041016 0)"/>
     <use xlink:href="#DejaVuSans-Bold-64" transform="translate(309.521484 0)"/>
     <use xlink:href="#DejaVuSans-Bold-6a" transform="translate(381.103516 0)"/>
     <use xlink:href="#DejaVuSans-Bold-75" transform="translate(415.380859 0)"/>
     <use xlink:href="#DejaVuSans-Bold-73" transform="translate(486.572266 0)"/>
     <use xlink:href="#DejaVuSans-Bold-74" transform="translate(546.09375 0)"/>
     <use xlink:href="#DejaVuSans-Bold-65" transform="translate(593.896484 0)"/>
     <use xlink:href="#DejaVuSans-Bold-64" transform="translate(661.71875 0)"/>
     <use xlink:href="#DejaVuSans-Bold-20" transform="translate(733.300781 0)"/>
     <use xlink:href="#DejaVuSans-Bold-72" transform="translate(768.115234 0)"/>
     <use xlink:href="#DejaVuSans-Bold-65" transform="translate(817.431641 0)"/>
     <use xlink:href="#DejaVuSans-Bold-74" transform="translate(885.253906 0)"/>
     <use xlink:href="#DejaVuSans-Bold-75" transform="translate(933.056641 0)"/>
     <use xlink:href="#DejaVuSans-Bold-72" transform="translate(1004.248047 0)"/>
     <use xlink:href="#DejaVuSans-Bold-6e" transform="translate(1053.564453 0)"/>
     <use xlink:href="#DejaVuSans-Bold-20" transform="translate(1124.755859 0)"/>
     <use xlink:href="#DejaVuSans-Bold-6f" transform="translate(1159.570312 0)"/>
     <use xlink:href="#DejaVuSans-Bold-6e" transform="translate(1228.271484 0)"/>
     <use xlink:href="#DejaVuSans-Bold-20" transform="translate(1299.462891 0)"/>
     <use xlink:href="#DejaVuSans-Bold-6f" transform="translate(1334.277344 0)"/>
     <use xlink:href="#DejaVuSans-Bold-6e" transform="translate(1402.978516 0)"/>
     <use xlink:href="#DejaVuSans-Bold-65" transform="translate(1474.169922 0)"/>
     <use xlink:href="#DejaVuSans-Bold-20" transform="translate(1541.992188 0)"/>
     <use xlink:href="#DejaVuSans-Bold-6d" transform="translate(1576.806641 0)"/>
     <use xlink:href="#DejaVuSans-Bold-6f" transform="translate(1681.005859 0)"/>
     <use xlink:href="#DejaVuSans-Bold-72" transform="translate(1749.707031 0)"/>
     <use xlink:href="#DejaVuSans-Bold-65" transform="translate(1799.023438 0)"/>
     <use xlink:href="#DejaVuSans-Bold-20" transform="translate(1866.845703 0)"/>
     <use xlink:href="#DejaVuSans-Bold-74" transform="translate(1901.660156 0)"/>
     <use xlink:href="#DejaVuSans-Bold-6f" transform="translate(1949.462891 0)"/>
     <use xlink:href="#DejaVuSans-Bold-75" transform="translate(2018.164062 0)"/>
     <use xlink:href="#DejaVuSans-Bold-63" transform="translate(2089.355469 0)"/>
     <use xlink:href="#DejaVuSans-Bold-68" transform="translate(2148.632812 0)"/>
     <use xlink:href="#DejaVuSans-Bold-20" transform="translate(2219.824219 0)"/>
     <use xlink:href="#DejaVuSans-Bold-64" transform="translate(2254.638672 0)"/>
     <use xlink:href="#DejaVuSans-Bold-69" transform="translate(2326.220703 0)"/>
     <use xlink:href="#DejaVuSans-Bold-6d" transform="translate(2360.498047 0)"/>
     <use xlink:href="#DejaVuSans-Bold-69" transform="translate(2464.697266 0)"/>
     <use xlink:href="#DejaVuSans-Bold-6e" transform="translate(2498.974609 0)"/>
     <use xlink:href="#DejaVuSans-Bold-69" transform="translate(2570.166016 0)"/>
     <use xlink:href="#DejaVuSans-Bold-73" transform="translate(2604.443359 0)"/>
     <use xlink:href="#DejaVuSans-Bold-68" transform="translate(2663.964844 0)"/>
     <use xlink:href="#DejaVuSans-Bold-65" transform="translate(2735.15625 0)"/>
     <use xlink:href="#DejaVuSans-Bold-73" transform="translate(2802.978516 0)"/>
     <use xlink:href="#DejaVuSans-Bold-20" transform="translate(2862.5 0)"/>
     <use xlink:href="#DejaVuSans-Bold-61" transform="translate(2897.314453 0)"/>
     <use xlink:href="#DejaVuSans-Bold-73" transform="translate(2964.794922 0)"/>
     <use xlink:href="#DejaVuSans-Bold-20" transform="translate(3024.316406 0)"/>
     <use xlink:href="#DejaVuSans-Bold-63" transform="translate(3059.130859 0)"/>
     <use xlink:href="#DejaVuSans-Bold-6f" transform="translate(3118.408203 0)"/>
     <use xlink:href="#DejaVuSans-Bold-6e" transform="translate(3187.109375 0)"/>
     <use xlink:href="#DejaVuSans-Bold-74" transform="translate(3258.300781 0)"/>
     <use xlink:href="#DejaVuSans-Bold-61" transform="translate(3306.103516 0)"/>
     <use xlink:href="#DejaVuSans-Bold-63" transform="translate(3373.583984 0)"/>
     <use xlink:href="#DejaVuSans-Bold-74" transform="translate(3432.861328 0)"/>
     <use xlink:href="#DejaVuSans-Bold-20" transform="translate(3480.664062 0)"/>
     <use xlink:href="#DejaVuSans-Bold-72" transform="translate(3515.478516 0)"/>
     <use xlink:href="#DejaVuSans-Bold-69" transform="translate(3564.794922 0)"/>
     <use xlink:href="#DejaVuSans-Bold-73" transform="translate(3599.072266 0)"/>
     <use xlink:href="#DejaVuSans-Bold-65" transform="translate(3658.59375 0)"/>
     <use xlink:href="#DejaVuSans-Bold-73" transform="translate(3726.416016 0)"/>
    </g>
   </g>
   <g id="line2d_26">
    <path d="M 75.813409 259.387258
L 174.777045 213.846801
L 273.740682 169.26247
L 372.704318 127.526124
L 471.667955 90.086009
L 570.631591 57.788382
" clip-path="url(#p9101894c34)" style="fill: none; stroke: #2e4780; stroke-width: 2; stroke-linecap: square"/>
    <defs>
     <path id="m63b1af3347" d="M -3.5 3.5
L 3.5 3.5
L 3.5 -3.5
L -3.5 -3.5
z
" style="stroke: #2e4780; stroke-linejoin: miter"/>
    </defs>
    <g clip-path="url(#p9101894c34)">
     <use xlink:href="#m63b1af3347" x="75.813409" y="259.387258" style="fill: #a3befa; stroke: #2e4780; stroke-linejoin: miter"/>
     <use xlink:href="#m63b1af3347" x="174.777045" y="213.846801" style="fill: #a3befa; stroke: #2e4780; stroke-linejoin: miter"/>
     <use xlink:href="#m63b1af3347" x="273.740682" y="169.26247" style="fill: #a3befa; stroke: #2e4780; stroke-linejoin: miter"/>
     <use xlink:href="#m63b1af3347" x="372.704318" y="127.526124" style="fill: #a3befa; stroke: #2e4780; stroke-linejoin: miter"/>
     <use xlink:href="#m63b1af3347" x="471.667955" y="90.086009" style="fill: #a3befa; stroke: #2e4780; stroke-linejoin: miter"/>
     <use xlink:href="#m63b1af3347" x="570.631591" y="57.788382" style="fill: #a3befa; stroke: #2e4780; stroke-linejoin: miter"/>
    </g>
   </g>
   <g id="legend_1">
    <g id="line2d_27">
     <path d="M 365.07875 324.540312
L 375.07875 324.540312
L 385.07875 324.540312
" style="fill: none; stroke: #464c55; stroke-width: 1.8; stroke-linecap: square"/>
     <g>
      <use xlink:href="#m2bf6510a6f" x="375.07875" y="324.540312" style="fill: #c5cad3; stroke: #464c55"/>
     </g>
    </g>
    <g id="text_21">
     <!-- Observed: raw response rate per band -->
     <g transform="translate(393.07875 328.040312) scale(0.1 -0.1)">
      <defs>
       <path id="DejaVuSans-4f" d="M 2522 4238
Q 1834 4238 1429 3725
Q 1025 3213 1025 2328
Q 1025 1447 1429 934
Q 1834 422 2522 422
Q 3209 422 3611 934
Q 4013 1447 4013 2328
Q 4013 3213 3611 3725
Q 3209 4238 2522 4238
z
M 2522 4750
Q 3503 4750 4090 4092
Q 4678 3434 4678 2328
Q 4678 1225 4090 567
Q 3503 -91 2522 -91
Q 1538 -91 948 565
Q 359 1222 359 2328
Q 359 3434 948 4092
Q 1538 4750 2522 4750
z
" transform="scale(0.015625)"/>
       <path id="DejaVuSans-62" d="M 3116 1747
Q 3116 2381 2855 2742
Q 2594 3103 2138 3103
Q 1681 3103 1420 2742
Q 1159 2381 1159 1747
Q 1159 1113 1420 752
Q 1681 391 2138 391
Q 2594 391 2855 752
Q 3116 1113 3116 1747
z
M 1159 2969
Q 1341 3281 1617 3432
Q 1894 3584 2278 3584
Q 2916 3584 3314 3078
Q 3713 2572 3713 1747
Q 3713 922 3314 415
Q 2916 -91 2278 -91
Q 1894 -91 1617 61
Q 1341 213 1159 525
L 1159 0
L 581 0
L 581 4863
L 1159 4863
L 1159 2969
z
" transform="scale(0.015625)"/>
       <path id="DejaVuSans-76" d="M 191 3500
L 800 3500
L 1894 563
L 2988 3500
L 3597 3500
L 2284 0
L 1503 0
L 191 3500
z
" transform="scale(0.015625)"/>
       <path id="DejaVuSans-3a" d="M 750 794
L 1409 794
L 1409 0
L 750 0
L 750 794
z
M 750 3309
L 1409 3309
L 1409 2516
L 750 2516
L 750 3309
z
" transform="scale(0.015625)"/>
       <path id="DejaVuSans-77" d="M 269 3500
L 844 3500
L 1563 769
L 2278 3500
L 2956 3500
L 3675 769
L 4391 3500
L 4966 3500
L 4050 0
L 3372 0
L 2619 2869
L 1863 0
L 1184 0
L 269 3500
z
" transform="scale(0.015625)"/>
      </defs>
      <use xlink:href="#DejaVuSans-4f"/>
      <use xlink:href="#DejaVuSans-62" transform="translate(78.710938 0)"/>
      <use xlink:href="#DejaVuSans-73" transform="translate(142.1875 0)"/>
      <use xlink:href="#DejaVuSans-65" transform="translate(194.287109 0)"/>
      <use xlink:href="#DejaVuSans-72" transform="translate(255.810547 0)"/>
      <use xlink:href="#DejaVuSans-76" transform="translate(296.923828 0)"/>
      <use xlink:href="#DejaVuSans-65" transform="translate(356.103516 0)"/>
      <use xlink:href="#DejaVuSans-64" transform="translate(417.626953 0)"/>
      <use xlink:href="#DejaVuSans-3a" transform="translate(481.103516 0)"/>
      <use xlink:href="#DejaVuSans-20" transform="translate(514.794922 0)"/>
      <use xlink:href="#DejaVuSans-72" transform="translate(546.582031 0)"/>
      <use xlink:href="#DejaVuSans-61" transform="translate(587.695312 0)"/>
      <use xlink:href="#DejaVuSans-77" transform="translate(648.974609 0)"/>
      <use xlink:href="#DejaVuSans-20" transform="translate(730.761719 0)"/>
      <use xlink:href="#DejaVuSans-72" transform="translate(762.548828 0)"/>
      <use xlink:href="#DejaVuSans-65" transform="translate(801.412109 0)"/>
      <use xlink:href="#DejaVuSans-73" transform="translate(862.935547 0)"/>
      <use xlink:href="#DejaVuSans-70" transform="translate(915.035156 0)"/>
      <use xlink:href="#DejaVuSans-6f" transform="translate(978.511719 0)"/>
      <use xlink:href="#DejaVuSans-6e" transform="translate(1039.693359 0)"/>
      <use xlink:href="#DejaVuSans-73" transform="translate(1103.072266 0)"/>
      <use xlink:href="#DejaVuSans-65" transform="translate(1155.171875 0)"/>
      <use xlink:href="#DejaVuSans-20" transform="translate(1216.695312 0)"/>
      <use xlink:href="#DejaVuSans-72" transform="translate(1248.482422 0)"/>
      <use xlink:href="#DejaVuSans-61" transform="translate(1289.595703 0)"/>
      <use xlink:href="#DejaVuSans-74" transform="translate(1350.875 0)"/>
      <use xlink:href="#DejaVuSans-65" transform="translate(1390.083984 0)"/>
      <use xlink:href="#DejaVuSans-20" transform="translate(1451.607422 0)"/>
      <use xlink:href="#DejaVuSans-70" transform="translate(1483.394531 0)"/>
      <use xlink:href="#DejaVuSans-65" transform="translate(1546.871094 0)"/>
      <use xlink:href="#DejaVuSans-72" transform="translate(1608.394531 0)"/>
      <use xlink:href="#DejaVuSans-20" transform="translate(1649.507812 0)"/>
      <use xlink:href="#DejaVuSans-62" transform="translate(1681.294922 0)"/>
      <use xlink:href="#DejaVuSans-61" transform="translate(1744.771484 0)"/>
      <use xlink:href="#DejaVuSans-6e" transform="translate(1806.050781 0)"/>
      <use xlink:href="#DejaVuSans-64" transform="translate(1869.429688 0)"/>
     </g>
    </g>
    <g id="line2d_28">
     <path d="M 365.07875 339.218437
L 375.07875 339.218437
L 385.07875 339.218437
" style="fill: none; stroke: #2e4780; stroke-width: 2; stroke-linecap: square"/>
     <g>
      <use xlink:href="#m63b1af3347" x="375.07875" y="339.218437" style="fill: #a3befa; stroke: #2e4780; stroke-linejoin: miter"/>
     </g>
    </g>
    <g id="text_22">
     <!-- Adjusted: same HCPs, contact varied -->
     <g transform="translate(393.07875 342.718437) scale(0.1 -0.1)">
      <defs>
       <path id="DejaVuSans-41" d="M 2188 4044
L 1331 1722
L 3047 1722
L 2188 4044
z
M 1831 4666
L 2547 4666
L 4325 0
L 3669 0
L 3244 1197
L 1141 1197
L 716 0
L 50 0
L 1831 4666
z
" transform="scale(0.015625)"/>
       <path id="DejaVuSans-6a" d="M 603 3500
L 1178 3500
L 1178 -63
Q 1178 -731 923 -1031
Q 669 -1331 103 -1331
L -116 -1331
L -116 -844
L 38 -844
Q 366 -844 484 -692
Q 603 -541 603 -63
L 603 3500
z
M 603 4863
L 1178 4863
L 1178 4134
L 603 4134
L 603 4863
z
" transform="scale(0.015625)"/>
       <path id="DejaVuSans-6d" d="M 3328 2828
Q 3544 3216 3844 3400
Q 4144 3584 4550 3584
Q 5097 3584 5394 3201
Q 5691 2819 5691 2113
L 5691 0
L 5113 0
L 5113 2094
Q 5113 2597 4934 2840
Q 4756 3084 4391 3084
Q 3944 3084 3684 2787
Q 3425 2491 3425 1978
L 3425 0
L 2847 0
L 2847 2094
Q 2847 2600 2669 2842
Q 2491 3084 2119 3084
Q 1678 3084 1418 2786
Q 1159 2488 1159 1978
L 1159 0
L 581 0
L 581 3500
L 1159 3500
L 1159 2956
Q 1356 3278 1631 3431
Q 1906 3584 2284 3584
Q 2666 3584 2933 3390
Q 3200 3197 3328 2828
z
" transform="scale(0.015625)"/>
       <path id="DejaVuSans-48" d="M 628 4666
L 1259 4666
L 1259 2753
L 3553 2753
L 3553 4666
L 4184 4666
L 4184 0
L 3553 0
L 3553 2222
L 1259 2222
L 1259 0
L 628 0
L 628 4666
z
" transform="scale(0.015625)"/>
       <path id="DejaVuSans-43" d="M 4122 4306
L 4122 3641
Q 3803 3938 3442 4084
Q 3081 4231 2675 4231
Q 1875 4231 1450 3742
Q 1025 3253 1025 2328
Q 1025 1406 1450 917
Q 1875 428 2675 428
Q 3081 428 3442 575
Q 3803 722 4122 1019
L 4122 359
Q 3791 134 3420 21
Q 3050 -91 2638 -91
Q 1578 -91 968 557
Q 359 1206 359 2328
Q 359 3453 968 4101
Q 1578 4750 2638 4750
Q 3056 4750 3426 4639
Q 3797 4528 4122 4306
z
" transform="scale(0.015625)"/>
       <path id="DejaVuSans-50" d="M 1259 4147
L 1259 2394
L 2053 2394
Q 2494 2394 2734 2622
Q 2975 2850 2975 3272
Q 2975 3691 2734 3919
Q 2494 4147 2053 4147
L 1259 4147
z
M 628 4666
L 2053 4666
Q 2838 4666 3239 4311
Q 3641 3956 3641 3272
Q 3641 2581 3239 2228
Q 2838 1875 2053 1875
L 1259 1875
L 1259 0
L 628 0
L 628 4666
z
" transform="scale(0.015625)"/>
       <path id="DejaVuSans-2c" d="M 750 794
L 1409 794
L 1409 256
L 897 -744
L 494 -744
L 750 256
L 750 794
z
" transform="scale(0.015625)"/>
      </defs>
      <use xlink:href="#DejaVuSans-41"/>
      <use xlink:href="#DejaVuSans-64" transform="translate(66.658203 0)"/>
      <use xlink:href="#DejaVuSans-6a" transform="translate(130.134766 0)"/>
      <use xlink:href="#DejaVuSans-75" transform="translate(157.917969 0)"/>
      <use xlink:href="#DejaVuSans-73" transform="translate(221.296875 0)"/>
      <use xlink:href="#DejaVuSans-74" transform="translate(273.396484 0)"/>
      <use xlink:href="#DejaVuSans-65" transform="translate(312.605469 0)"/>
      <use xlink:href="#DejaVuSans-64" transform="translate(374.128906 0)"/>
      <use xlink:href="#DejaVuSans-3a" transform="translate(437.605469 0)"/>
      <use xlink:href="#DejaVuSans-20" transform="translate(471.296875 0)"/>
      <use xlink:href="#DejaVuSans-73" transform="translate(503.083984 0)"/>
      <use xlink:href="#DejaVuSans-61" transform="translate(555.183594 0)"/>
      <use xlink:href="#DejaVuSans-6d" transform="translate(616.462891 0)"/>
      <use xlink:href="#DejaVuSans-65" transform="translate(713.875 0)"/>
      <use xlink:href="#DejaVuSans-20" transform="translate(775.398438 0)"/>
      <use xlink:href="#DejaVuSans-48" transform="translate(807.185547 0)"/>
      <use xlink:href="#DejaVuSans-43" transform="translate(882.380859 0)"/>
      <use xlink:href="#DejaVuSans-50" transform="translate(952.205078 0)"/>
      <use xlink:href="#DejaVuSans-73" transform="translate(1010.757812 0)"/>
      <use xlink:href="#DejaVuSans-2c" transform="translate(1062.857422 0)"/>
      <use xlink:href="#DejaVuSans-20" transform="translate(1094.644531 0)"/>
      <use xlink:href="#DejaVuSans-63" transform="translate(1126.431641 0)"/>
      <use xlink:href="#DejaVuSans-6f" transform="translate(1181.412109 0)"/>
      <use xlink:href="#DejaVuSans-6e" transform="translate(1242.59375 0)"/>
      <use xlink:href="#DejaVuSans-74" transform="translate(1305.972656 0)"/>
      <use xlink:href="#DejaVuSans-61" transform="translate(1345.181641 0)"/>
      <use xlink:href="#DejaVuSans-63" transform="translate(1406.460938 0)"/>
      <use xlink:href="#DejaVuSans-74" transform="translate(1461.441406 0)"/>
      <use xlink:href="#DejaVuSans-20" transform="translate(1500.650391 0)"/>
      <use xlink:href="#DejaVuSans-76" transform="translate(1532.4375 0)"/>
      <use xlink:href="#DejaVuSans-61" transform="translate(1591.617188 0)"/>
      <use xlink:href="#DejaVuSans-72" transform="translate(1652.896484 0)"/>
      <use xlink:href="#DejaVuSans-69" transform="translate(1694.009766 0)"/>
      <use xlink:href="#DejaVuSans-65" transform="translate(1721.792969 0)"/>
      <use xlink:href="#DejaVuSans-64" transform="translate(1783.316406 0)"/>
     </g>
    </g>
   </g>
  </g>
 </g>
 <defs>
  <clipPath id="p9101894c34">
   <rect x="51.0725" y="22.318125" width="544.3" height="331.48"/>
  </clipPath>
 </defs>
</svg>
