<?xml version="1.0" encoding="utf-8" standalone="no"?>
<!DOCTYPE svg PUBLIC "-//W3C//DTD SVG 1.1//EN"
  "http://www.w3.org/Graphics/SVG/1.1/DTD/svg11.dtd">
<svg xmlns:xlink="http://www.w3.org/1999/xlink" width="552.766562pt" height="435.234287pt" viewBox="0 0 552.766562 435.234287" xmlns="http://www.w3.org/2000/svg" version="1.1">
 <metadata>
  <rdf:RDF xmlns:dc="http://purl.org/dc/elements/1.1/" xmlns:cc="http://creativecommons.org/ns#" xmlns:rdf="http://www.w3.org/1999/02/22-rdf-syntax-ns#">
   <cc:Work>
    <dc:type rdf:resource="http://purl.org/dc/dcmitype/StillImage"/>
    <dc:date>2026-06-20T22:49:25.487722</dc:date>
    <dc:format>image/svg+xml</dc:format>
    <dc:creator>
     <cc:Agent>
      <dc:title>Matplotlib v3.10.9, https://matplotlib.org/</dc:title>
     </cc:Agent>
    </dc:creator>
   </cc:Work>
  </rdf:RDF>
 </metadata>
 <defs>
  <style type="text/css">*{stroke-linejoin: round; stroke-linecap: butt}</style>
 </defs>
 <g id="figure_1">
  <g id="patch_1">
   <path d="M 0 435.234287
L 552.766562 435.234287
L 552.766562 0
L 0 0
z
" style="fill: #ffffff"/>
  </g>
  <g id="axes_1">
   <g id="patch_2">
    <path d="M 447.631018 228.298047
Q 372.766313 214.341518 302.847556 227.375584
" clip-path="url(#p01f3c48981)" style="fill: none; stroke: #7ba6d0; stroke-width: 4.5; stroke-linecap: round"/>
    <path d="M 311.445113 229.84176
L 302.847556 227.375584
L 309.979031 221.977244
z
" clip-path="url(#p01f3c48981)" style="fill: #7ba6d0; stroke: #7ba6d0; stroke-width: 4.5; stroke-linecap: round"/>
   </g>
   <g id="patch_3">
    <path d="M 262.785375 215.587683
Q 219.002704 162.991311 161.990148 130.588184
" clip-path="url(#p01f3c48981)" style="fill: none; stroke: #7ba6d0; stroke-width: 2.555556; stroke-linecap: round"/>
    <path d="M 166.968814 138.018722
L 161.990148 130.588184
L 170.921777 131.063574
z
" clip-path="url(#p01f3c48981)" style="fill: #7ba6d0; stroke: #7ba6d0; stroke-width: 2.555556; stroke-linecap: round"/>
   </g>
   <g id="patch_4">
    <path d="M 256.957469 243.217714
Q 197.460685 277.032404 155.366701 327.599691
" clip-path="url(#p01f3c48981)" style="fill: none; stroke: #7ba6d0; stroke-width: 2.361111; stroke-linecap: round"/>
    <path d="M 163.559159 324.010313
L 155.366701 327.599691
L 157.410673 318.892098
z
" clip-path="url(#p01f3c48981)" style="fill: #7ba6d0; stroke: #7ba6d0; stroke-width: 2.361111; stroke-linecap: round"/>
   </g>
   <g id="patch_5">
    <path d="M 393.261943 129.175533
Q 333.765159 162.990223 293.201106 211.719611
" clip-path="url(#p01f3c48981)" style="fill: none; stroke: #7ba6d0; stroke-width: 4.5; stroke-linecap: round"/>
    <path d="M 301.393564 208.130233
L 293.201106 211.719611
L 295.245078 203.012018
z
" clip-path="url(#p01f3c48981)" style="fill: #7ba6d0; stroke: #7ba6d0; stroke-width: 4.5; stroke-linecap: round"/>
   </g>
   <g id="patch_6">
    <path d="M 271.903579 93.148534
Q 261.509085 152.247184 271.107928 206.818967
" clip-path="url(#p01f3c48981)" style="fill: none; stroke: #7ba6d0; stroke-width: 4.111111; stroke-linecap: round"/>
    <path d="M 273.661574 198.246984
L 271.107928 206.818967
L 265.78253 199.63286
z
" clip-path="url(#p01f3c48981)" style="fill: #7ba6d0; stroke: #7ba6d0; stroke-width: 4.111111; stroke-linecap: round"/>
   </g>
   <g id="patch_7">
    <path d="M 105.135545 237.472928
Q 180.000249 251.429457 252.056144 237.996992
" clip-path="url(#p01f3c48981)" style="fill: none; stroke: #7ba6d0; stroke-width: 2.555556; stroke-linecap: round"/>
    <path d="M 243.458588 235.530816
L 252.056144 237.996992
L 244.924669 243.395331
z
" clip-path="url(#p01f3c48981)" style="fill: #7ba6d0; stroke: #7ba6d0; stroke-width: 2.555556; stroke-linecap: round"/>
   </g>
   <g id="patch_8">
    <path d="M 280.862983 372.622441
Q 291.257478 313.523791 281.319691 257.025031
" clip-path="url(#p01f3c48981)" style="fill: none; stroke: #7ba6d0; stroke-width: 2.361111; stroke-linecap: round"/>
    <path d="M 278.766045 265.597014
L 281.319691 257.025031
L 286.645089 264.211138
z
" clip-path="url(#p01f3c48981)" style="fill: #7ba6d0; stroke: #7ba6d0; stroke-width: 2.361111; stroke-linecap: round"/>
   </g>
   <g id="patch_9">
    <path d="M 399.089849 329.629864
Q 355.307179 277.033493 297.727615 244.308107
" clip-path="url(#p01f3c48981)" style="fill: none; stroke: #7ba6d0; stroke-width: 1.972222; stroke-linecap: round"/>
    <path d="M 302.706282 251.738645
L 297.727615 244.308107
L 306.659245 244.783497
z
" clip-path="url(#p01f3c48981)" style="fill: #7ba6d0; stroke: #7ba6d0; stroke-width: 1.972222; stroke-linecap: round"/>
   </g>
   <g id="text_1">
    <g id="patch_10">
     <path d="M 359.220392 238.764784
L 368.764142 238.764784
Q 371.014142 238.764784 371.014142 236.514784
L 371.014142 229.256191
Q 371.014142 227.006191 368.764142 227.006191
L 359.220392 227.006191
Q 356.970392 227.006191 356.970392 229.256191
L 356.970392 236.514784
Q 356.970392 238.764784 359.220392 238.764784
z
" clip-path="url(#p01f3c48981)" style="fill: #ffffff; stroke: #ffffff; stroke-linejoin: miter"/>
    </g>
    <g clip-path="url(#p01f3c48981)">
     <!-- 18 -->
     <g transform="translate(359.220392 234.955019) scale(0.075 -0.075)">
      <defs>
       <path id="DejaVuSans-31" d="M 794 531
L 1825 531
L 1825 4091
L 703 3866
L 703 4441
L 1819 4666
L 2450 4666
L 2450 531
L 3481 531
L 3481 0
L 794 0
L 794 531
z
" transform="scale(0.015625)"/>
       <path id="DejaVuSans-38" d="M 2034 2216
Q 1584 2216 1326 1975
Q 1069 1734 1069 1313
Q 1069 891 1326 650
Q 1584 409 2034 409
Q 2484 409 2743 651
Q 3003 894 3003 1313
Q 3003 1734 2745 1975
Q 2488 2216 2034 2216
z
M 1403 2484
Q 997 2584 770 2862
Q 544 3141 544 3541
Q 544 4100 942 4425
Q 1341 4750 2034 4750
Q 2731 4750 3128 4425
Q 3525 4100 3525 3541
Q 3525 3141 3298 2862
Q 3072 2584 2669 2484
Q 3125 2378 3379 2068
Q 3634 1759 3634 1313
Q 3634 634 3220 271
Q 2806 -91 2034 -91
Q 1263 -91 848 271
Q 434 634 434 1313
Q 434 1759 690 2068
Q 947 2378 1403 2484
z
M 1172 3481
Q 1172 3119 1398 2916
Q 1625 2713 2034 2713
Q 2441 2713 2670 2916
Q 2900 3119 2900 3481
Q 2900 3844 2670 4047
Q 2441 4250 2034 4250
Q 1625 4250 1398 4047
Q 1172 3844 1172 3481
z
" transform="scale(0.015625)"/>
      </defs>
      <use xlink:href="#DejaVuSans-31"/>
      <use xlink:href="#DejaVuSans-38" transform="translate(63.623047 0)"/>
     </g>
    </g>
   </g>
   <g id="text_2">
    <g id="patch_11">
     <path d="M 196.477788 173.696484
L 200.137627 176.75857
Q 201.863288 178.202383 203.3071 176.476722
L 207.9649 170.909668
Q 209.408713 169.184008 207.683052 167.740195
L 204.023213 164.678109
Q 202.297552 163.234296 200.853739 164.959957
L 196.19594 170.527011
Q 194.752127 172.252672 196.477788 173.696484
z
" clip-path="url(#p01f3c48981)" style="fill: #ffffff; stroke: #ffffff; stroke-linejoin: miter"/>
    </g>
    <g clip-path="url(#p01f3c48981)">
     <!-- 8 -->
     <g transform="translate(198.922494 170.774545) rotate(-320.08171) scale(0.075 -0.075)">
      <use xlink:href="#DejaVuSans-38"/>
     </g>
    </g>
   </g>
   <g id="text_3">
    <g id="patch_12">
     <path d="M 204.023213 301.092866
L 207.683052 298.03078
Q 209.408713 296.586967 207.9649 294.861307
L 203.3071 289.294253
Q 201.863288 287.568592 200.137627 289.012405
L 196.477788 292.074491
Q 194.752127 293.518303 196.19594 295.243964
L 200.853739 300.811018
Q 202.297552 302.536679 204.023213 301.092866
z
" clip-path="url(#p01f3c48981)" style="fill: #ffffff; stroke: #ffffff; stroke-linejoin: miter"/>
    </g>
    <g clip-path="url(#p01f3c48981)">
     <!-- 7 -->
     <g transform="translate(201.578507 298.170927) rotate(-39.91829) scale(0.075 -0.075)">
      <defs>
       <path id="DejaVuSans-37" d="M 525 4666
L 3525 4666
L 3525 4397
L 1831 0
L 1172 0
L 2766 4134
L 525 4134
L 525 4666
z
" transform="scale(0.015625)"/>
      </defs>
      <use xlink:href="#DejaVuSans-37"/>
     </g>
    </g>
   </g>
   <g id="text_4">
    <g id="patch_13">
     <path d="M 338.497768 188.581727
L 345.817446 182.457555
Q 347.543106 181.013743 346.099294 179.288082
L 341.441494 173.721028
Q 339.997682 171.995368 338.272021 173.43918
L 330.952343 179.563352
Q 329.226682 181.007165 330.670495 182.732825
L 335.328294 188.299879
Q 336.772107 190.02554 338.497768 188.581727
z
" clip-path="url(#p01f3c48981)" style="fill: #ffffff; stroke: #ffffff; stroke-linejoin: miter"/>
    </g>
    <g clip-path="url(#p01f3c48981)">
     <!-- 18 -->
     <g transform="translate(336.053062 185.659788) rotate(-39.91829) scale(0.075 -0.075)">
      <use xlink:href="#DejaVuSans-31"/>
      <use xlink:href="#DejaVuSans-38" transform="translate(63.623047 0)"/>
     </g>
    </g>
   </g>
   <g id="text_5">
    <g id="patch_14">
     <path d="M 270.503984 154.671291
L 270.503984 164.215041
Q 270.503984 166.465041 272.753984 166.465041
L 280.012578 166.465041
Q 282.262578 166.465041 282.262578 164.215041
L 282.262578 154.671291
Q 282.262578 152.421291 280.012578 152.421291
L 272.753984 152.421291
Q 270.503984 152.421291 270.503984 154.671291
z
" clip-path="url(#p01f3c48981)" style="fill: #ffffff; stroke: #ffffff; stroke-linejoin: miter"/>
    </g>
    <g clip-path="url(#p01f3c48981)">
     <!-- 16 -->
     <g transform="translate(274.31375 154.671291) rotate(-270) scale(0.075 -0.075)">
      <defs>
       <path id="DejaVuSans-36" d="M 2113 2584
Q 1688 2584 1439 2293
Q 1191 2003 1191 1497
Q 1191 994 1439 701
Q 1688 409 2113 409
Q 2538 409 2786 701
Q 3034 994 3034 1497
Q 3034 2003 2786 2293
Q 2538 2584 2113 2584
z
M 3366 4563
L 3366 3988
Q 3128 4100 2886 4159
Q 2644 4219 2406 4219
Q 1781 4219 1451 3797
Q 1122 3375 1075 2522
Q 1259 2794 1537 2939
Q 1816 3084 2150 3084
Q 2853 3084 3261 2657
Q 3669 2231 3669 1497
Q 3669 778 3244 343
Q 2819 -91 2113 -91
Q 1303 -91 875 529
Q 447 1150 447 2328
Q 447 3434 972 4092
Q 1497 4750 2381 4750
Q 2619 4750 2861 4703
Q 3103 4656 3366 4563
z
" transform="scale(0.015625)"/>
      </defs>
      <use xlink:href="#DejaVuSans-31"/>
      <use xlink:href="#DejaVuSans-36" transform="translate(63.623047 0)"/>
     </g>
    </g>
   </g>
   <g id="text_6">
    <g id="patch_15">
     <path d="M 186.388358 238.764784
L 191.160233 238.764784
Q 193.410233 238.764784 193.410233 236.514784
L 193.410233 229.256191
Q 193.410233 227.006191 191.160233 227.006191
L 186.388358 227.006191
Q 184.138358 227.006191 184.138358 229.256191
L 184.138358 236.514784
Q 184.138358 238.764784 186.388358 238.764784
z
" clip-path="url(#p01f3c48981)" style="fill: #ffffff; stroke: #ffffff; stroke-linejoin: miter"/>
    </g>
    <g clip-path="url(#p01f3c48981)">
     <!-- 8 -->
     <g transform="translate(186.388358 234.955019) rotate(-360) scale(0.075 -0.075)">
      <use xlink:href="#DejaVuSans-38"/>
     </g>
    </g>
   </g>
   <g id="text_7">
    <g id="patch_16">
     <path d="M 282.262578 308.713746
L 282.262578 303.941871
Q 282.262578 301.691871 280.012578 301.691871
L 272.753984 301.691871
Q 270.503984 301.691871 270.503984 303.941871
L 270.503984 308.713746
Q 270.503984 310.963746 272.753984 310.963746
L 280.012578 310.963746
Q 282.262578 310.963746 282.262578 308.713746
z
" clip-path="url(#p01f3c48981)" style="fill: #ffffff; stroke: #ffffff; stroke-linejoin: miter"/>
    </g>
    <g clip-path="url(#p01f3c48981)">
     <!-- 7 -->
     <g transform="translate(278.452812 308.713746) rotate(-90) scale(0.075 -0.075)">
      <use xlink:href="#DejaVuSans-37"/>
     </g>
    </g>
   </g>
   <g id="text_8">
    <g id="patch_17">
     <path d="M 332.782262 287.738666
L 336.442101 290.800752
Q 338.167762 292.244564 339.611575 290.518904
L 344.269374 284.95185
Q 345.713187 283.226189 343.987526 281.782377
L 340.327687 278.720291
Q 338.602027 277.276478 337.158214 279.002139
L 332.500414 284.569193
Q 331.056602 286.294853 332.782262 287.738666
z
" clip-path="url(#p01f3c48981)" style="fill: #ffffff; stroke: #ffffff; stroke-linejoin: miter"/>
    </g>
    <g clip-path="url(#p01f3c48981)">
     <!-- 5 -->
     <g transform="translate(335.226968 284.816727) rotate(-320.08171) scale(0.075 -0.075)">
      <defs>
       <path id="DejaVuSans-35" d="M 691 4666
L 3169 4666
L 3169 4134
L 1269 4134
L 1269 2991
Q 1406 3038 1543 3061
Q 1681 3084 1819 3084
Q 2600 3084 3056 2656
Q 3513 2228 3513 1497
Q 3513 744 3044 326
Q 2575 -91 1722 -91
Q 1428 -91 1123 -41
Q 819 9 494 109
L 494 744
Q 775 591 1075 516
Q 1375 441 1709 441
Q 2250 441 2565 725
Q 2881 1009 2881 1497
Q 2881 1984 2565 2268
Q 2250 2553 1709 2553
Q 1456 2553 1204 2497
Q 953 2441 691 2322
L 691 4666
z
" transform="scale(0.015625)"/>
      </defs>
      <use xlink:href="#DejaVuSans-35"/>
     </g>
    </g>
   </g>
   <g id="PathCollection_1">
    <path d="M 469.146918 247.885487
C 473.124964 247.885487 476.940616 246.304993 479.753519 243.492089
C 482.566423 240.679186 484.146918 236.863534 484.146918 232.885487
C 484.146918 228.907441 482.566423 225.091789 479.753519 222.278886
C 476.940616 219.465982 473.124964 217.885487 469.146918 217.885487
C 465.168871 217.885487 461.35322 219.465982 458.540316 222.278886
C 455.727412 225.091789 454.146918 228.907441 454.146918 232.885487
C 454.146918 236.863534 455.727412 240.679186 458.540316 243.492089
C 461.35322 246.304993 465.168871 247.885487 469.146918 247.885487
z
" clip-path="url(#p01f3c48981)" style="fill: #e7f0f8; stroke: #2f3437; stroke-width: 1.2"/>
    <path d="M 276.383281 254.098691
C 282.009089 254.098691 287.405235 251.863534 291.383281 247.885487
C 295.361328 243.907441 297.596485 238.511295 297.596485 232.885487
C 297.596485 227.25968 295.361328 221.863534 291.383281 217.885487
C 287.405235 213.907441 282.009089 211.672284 276.383281 211.672284
C 270.757474 211.672284 265.361328 213.907441 261.383281 217.885487
C 257.405235 221.863534 255.170078 227.25968 255.170078 232.885487
C 255.170078 238.511295 257.405235 243.907441 261.383281 247.885487
C 265.361328 251.863534 270.757474 254.098691 276.383281 254.098691
z
" clip-path="url(#p01f3c48981)" style="fill: #e0b663; stroke: #2f3437; stroke-width: 1.2"/>
    <path d="M 412.687756 133.843306
C 416.665802 133.843306 420.481454 132.262811 423.294357 129.449908
C 426.107261 126.637004 427.687756 122.821352 427.687756 118.843306
C 427.687756 114.865259 426.107261 111.049608 423.294357 108.236704
C 420.481454 105.4238 416.665802 103.843306 412.687756 103.843306
C 408.709709 103.843306 404.894058 105.4238 402.081154 108.236704
C 399.26825 111.049608 397.687756 114.865259 397.687756 118.843306
C 397.687756 122.821352 399.26825 126.637004 402.081154 129.449908
C 404.894058 132.262811 408.709709 133.843306 412.687756 133.843306
z
" clip-path="url(#p01f3c48981)" style="fill: #e7f0f8; stroke: #2f3437; stroke-width: 1.2"/>
    <path d="M 276.383281 86.605487
C 280.361328 86.605487 284.176979 85.024993 286.989883 82.212089
C 289.802787 79.399186 291.383281 75.583534 291.383281 71.605487
C 291.383281 67.627441 289.802787 63.811789 286.989883 60.998886
C 284.176979 58.185982 280.361328 56.605487 276.383281 56.605487
C 272.405235 56.605487 268.589583 58.185982 265.77668 60.998886
C 262.963776 63.811789 261.383281 67.627441 261.383281 71.605487
C 261.383281 75.583534 262.963776 79.399186 265.77668 82.212089
C 268.589583 85.024993 272.405235 86.605487 276.383281 86.605487
z
" clip-path="url(#p01f3c48981)" style="fill: #e7f0f8; stroke: #2f3437; stroke-width: 1.2"/>
    <path d="M 140.078807 133.843306
C 144.056853 133.843306 147.872505 132.262811 150.685409 129.449908
C 153.498312 126.637004 155.078807 122.821352 155.078807 118.843306
C 155.078807 114.865259 153.498312 111.049608 150.685409 108.236704
C 147.872505 105.4238 144.056853 103.843306 140.078807 103.843306
C 136.10076 103.843306 132.285109 105.4238 129.472205 108.236704
C 126.659301 111.049608 125.078807 114.865259 125.078807 118.843306
C 125.078807 122.821352 126.659301 126.637004 129.472205 129.449908
C 132.285109 132.262811 136.10076 133.843306 140.078807 133.843306
z
" clip-path="url(#p01f3c48981)" style="fill: #e7f0f8; stroke: #2f3437; stroke-width: 1.2"/>
    <path d="M 83.619645 247.885487
C 87.597691 247.885487 91.413343 246.304993 94.226247 243.492089
C 97.03915 240.679186 98.619645 236.863534 98.619645 232.885487
C 98.619645 228.907441 97.03915 225.091789 94.226247 222.278886
C 91.413343 219.465982 87.597691 217.885487 83.619645 217.885487
C 79.641598 217.885487 75.825947 219.465982 73.013043 222.278886
C 70.20014 225.091789 68.619645 228.907441 68.619645 232.885487
C 68.619645 236.863534 70.20014 240.679186 73.013043 243.492089
C 75.825947 246.304993 79.641598 247.885487 83.619645 247.885487
z
" clip-path="url(#p01f3c48981)" style="fill: #e7f0f8; stroke: #2f3437; stroke-width: 1.2"/>
    <path d="M 140.078807 361.927669
C 144.056853 361.927669 147.872505 360.347175 150.685409 357.534271
C 153.498312 354.721367 155.078807 350.905716 155.078807 346.927669
C 155.078807 342.949623 153.498312 339.133971 150.685409 336.321067
C 147.872505 333.508164 144.056853 331.927669 140.078807 331.927669
C 136.10076 331.927669 132.285109 333.508164 129.472205 336.321067
C 126.659301 339.133971 125.078807 342.949623 125.078807 346.927669
C 125.078807 350.905716 126.659301 354.721367 129.472205 357.534271
C 132.285109 360.347175 136.10076 361.927669 140.078807 361.927669
z
" clip-path="url(#p01f3c48981)" style="fill: #e7f0f8; stroke: #2f3437; stroke-width: 1.2"/>
    <path d="M 276.383281 409.165487
C 280.361328 409.165487 284.176979 407.584993 286.989883 404.772089
C 289.802787 401.959186 291.383281 398.143534 291.383281 394.165487
C 291.383281 390.187441 289.802787 386.371789 286.989883 383.558886
C 284.176979 380.745982 280.361328 379.165487 276.383281 379.165487
C 272.405235 379.165487 268.589583 380.745982 265.77668 383.558886
C 262.963776 386.371789 261.383281 390.187441 261.383281 394.165487
C 261.383281 398.143534 262.963776 401.959186 265.77668 404.772089
C 268.589583 407.584993 272.405235 409.165487 276.383281 409.165487
z
" clip-path="url(#p01f3c48981)" style="fill: #e7f0f8; stroke: #2f3437; stroke-width: 1.2"/>
    <path d="M 412.687756 361.927669
C 416.665802 361.927669 420.481454 360.347175 423.294357 357.534271
C 426.107261 354.721367 427.687756 350.905716 427.687756 346.927669
C 427.687756 342.949623 426.107261 339.133971 423.294357 336.321067
C 420.481454 333.508164 416.665802 331.927669 412.687756 331.927669
C 408.709709 331.927669 404.894058 333.508164 402.081154 336.321067
C 399.26825 339.133971 397.687756 342.949623 397.687756 346.927669
C 397.687756 350.905716 399.26825 354.721367 402.081154 357.534271
C 404.894058 360.347175 408.709709 361.927669 412.687756 361.927669
z
" clip-path="url(#p01f3c48981)" style="fill: #e7f0f8; stroke: #2f3437; stroke-width: 1.2"/>
   </g>
   <g id="text_9">
    <g clip-path="url(#p01f3c48981)">
     <!-- 0470 -->
     <g style="fill: #2f3437" transform="translate(458.330668 235.230956) scale(0.085 -0.085)">
      <defs>
       <path id="DejaVuSans-30" d="M 2034 4250
Q 1547 4250 1301 3770
Q 1056 3291 1056 2328
Q 1056 1369 1301 889
Q 1547 409 2034 409
Q 2525 409 2770 889
Q 3016 1369 3016 2328
Q 3016 3291 2770 3770
Q 2525 4250 2034 4250
z
M 2034 4750
Q 2819 4750 3233 4129
Q 3647 3509 3647 2328
Q 3647 1150 3233 529
Q 2819 -91 2034 -91
Q 1250 -91 836 529
Q 422 1150 422 2328
Q 422 3509 836 4129
Q 1250 4750 2034 4750
z
" transform="scale(0.015625)"/>
       <path id="DejaVuSans-34" d="M 2419 4116
L 825 1625
L 2419 1625
L 2419 4116
z
M 2253 4666
L 3047 4666
L 3047 1625
L 3713 1625
L 3713 1100
L 3047 1100
L 3047 0
L 2419 0
L 2419 1100
L 313 1100
L 313 1709
L 2253 4666
z
" transform="scale(0.015625)"/>
      </defs>
      <use xlink:href="#DejaVuSans-30"/>
      <use xlink:href="#DejaVuSans-34" transform="translate(63.623047 0)"/>
      <use xlink:href="#DejaVuSans-37" transform="translate(127.246094 0)"/>
      <use xlink:href="#DejaVuSans-30" transform="translate(190.869141 0)"/>
     </g>
    </g>
   </g>
   <g id="text_10">
    <g clip-path="url(#p01f3c48981)">
     <!-- 0217 -->
     <g style="fill: #2f3437" transform="translate(265.567031 235.230956) scale(0.085 -0.085)">
      <defs>
       <path id="DejaVuSans-32" d="M 1228 531
L 3431 531
L 3431 0
L 469 0
L 469 531
Q 828 903 1448 1529
Q 2069 2156 2228 2338
Q 2531 2678 2651 2914
Q 2772 3150 2772 3378
Q 2772 3750 2511 3984
Q 2250 4219 1831 4219
Q 1534 4219 1204 4116
Q 875 4013 500 3803
L 500 4441
Q 881 4594 1212 4672
Q 1544 4750 1819 4750
Q 2544 4750 2975 4387
Q 3406 4025 3406 3419
Q 3406 3131 3298 2873
Q 3191 2616 2906 2266
Q 2828 2175 2409 1742
Q 1991 1309 1228 531
z
" transform="scale(0.015625)"/>
      </defs>
      <use xlink:href="#DejaVuSans-30"/>
      <use xlink:href="#DejaVuSans-32" transform="translate(63.623047 0)"/>
      <use xlink:href="#DejaVuSans-31" transform="translate(127.246094 0)"/>
      <use xlink:href="#DejaVuSans-37" transform="translate(190.869141 0)"/>
     </g>
    </g>
   </g>
   <g id="text_11">
    <g clip-path="url(#p01f3c48981)">
     <!-- 0565 -->
     <g style="fill: #2f3437" transform="translate(401.871506 121.188775) scale(0.085 -0.085)">
      <use xlink:href="#DejaVuSans-30"/>
      <use xlink:href="#DejaVuSans-35" transform="translate(63.623047 0)"/>
      <use xlink:href="#DejaVuSans-36" transform="translate(127.246094 0)"/>
      <use xlink:href="#DejaVuSans-35" transform="translate(190.869141 0)"/>
     </g>
    </g>
   </g>
   <g id="text_12">
    <g clip-path="url(#p01f3c48981)">
     <!-- 0451 -->
     <g style="fill: #2f3437" transform="translate(265.567031 73.950956) scale(0.085 -0.085)">
      <use xlink:href="#DejaVuSans-30"/>
      <use xlink:href="#DejaVuSans-34" transform="translate(63.623047 0)"/>
      <use xlink:href="#DejaVuSans-35" transform="translate(127.246094 0)"/>
      <use xlink:href="#DejaVuSans-31" transform="translate(190.869141 0)"/>
     </g>
    </g>
   </g>
   <g id="text_13">
    <g clip-path="url(#p01f3c48981)">
     <!-- 0660 -->
     <g style="fill: #2f3437" transform="translate(129.262557 121.188775) scale(0.085 -0.085)">
      <use xlink:href="#DejaVuSans-30"/>
      <use xlink:href="#DejaVuSans-36" transform="translate(63.623047 0)"/>
      <use xlink:href="#DejaVuSans-36" transform="translate(127.246094 0)"/>
      <use xlink:href="#DejaVuSans-30" transform="translate(190.869141 0)"/>
     </g>
    </g>
   </g>
   <g id="text_14">
    <g clip-path="url(#p01f3c48981)">
     <!-- 0596 -->
     <g style="fill: #2f3437" transform="translate(72.803395 235.230956) scale(0.085 -0.085)">
      <defs>
       <path id="DejaVuSans-39" d="M 703 97
L 703 672
Q 941 559 1184 500
Q 1428 441 1663 441
Q 2288 441 2617 861
Q 2947 1281 2994 2138
Q 2813 1869 2534 1725
Q 2256 1581 1919 1581
Q 1219 1581 811 2004
Q 403 2428 403 3163
Q 403 3881 828 4315
Q 1253 4750 1959 4750
Q 2769 4750 3195 4129
Q 3622 3509 3622 2328
Q 3622 1225 3098 567
Q 2575 -91 1691 -91
Q 1453 -91 1209 -44
Q 966 3 703 97
z
M 1959 2075
Q 2384 2075 2632 2365
Q 2881 2656 2881 3163
Q 2881 3666 2632 3958
Q 2384 4250 1959 4250
Q 1534 4250 1286 3958
Q 1038 3666 1038 3163
Q 1038 2656 1286 2365
Q 1534 2075 1959 2075
z
" transform="scale(0.015625)"/>
      </defs>
      <use xlink:href="#DejaVuSans-30"/>
      <use xlink:href="#DejaVuSans-35" transform="translate(63.623047 0)"/>
      <use xlink:href="#DejaVuSans-39" transform="translate(127.246094 0)"/>
      <use xlink:href="#DejaVuSans-36" transform="translate(190.869141 0)"/>
     </g>
    </g>
   </g>
   <g id="text_15">
    <g clip-path="url(#p01f3c48981)">
     <!-- 0372 -->
     <g style="fill: #2f3437" transform="translate(129.262557 349.273138) scale(0.085 -0.085)">
      <defs>
       <path id="DejaVuSans-33" d="M 2597 2516
Q 3050 2419 3304 2112
Q 3559 1806 3559 1356
Q 3559 666 3084 287
Q 2609 -91 1734 -91
Q 1441 -91 1130 -33
Q 819 25 488 141
L 488 750
Q 750 597 1062 519
Q 1375 441 1716 441
Q 2309 441 2620 675
Q 2931 909 2931 1356
Q 2931 1769 2642 2001
Q 2353 2234 1838 2234
L 1294 2234
L 1294 2753
L 1863 2753
Q 2328 2753 2575 2939
Q 2822 3125 2822 3475
Q 2822 3834 2567 4026
Q 2313 4219 1838 4219
Q 1578 4219 1281 4162
Q 984 4106 628 3988
L 628 4550
Q 988 4650 1302 4700
Q 1616 4750 1894 4750
Q 2613 4750 3031 4423
Q 3450 4097 3450 3541
Q 3450 3153 3228 2886
Q 3006 2619 2597 2516
z
" transform="scale(0.015625)"/>
      </defs>
      <use xlink:href="#DejaVuSans-30"/>
      <use xlink:href="#DejaVuSans-33" transform="translate(63.623047 0)"/>
      <use xlink:href="#DejaVuSans-37" transform="translate(127.246094 0)"/>
      <use xlink:href="#DejaVuSans-32" transform="translate(190.869141 0)"/>
     </g>
    </g>
   </g>
   <g id="text_16">
    <g clip-path="url(#p01f3c48981)">
     <!-- 0244 -->
     <g style="fill: #2f3437" transform="translate(265.567031 396.510956) scale(0.085 -0.085)">
      <use xlink:href="#DejaVuSans-30"/>
      <use xlink:href="#DejaVuSans-32" transform="translate(63.623047 0)"/>
      <use xlink:href="#DejaVuSans-34" transform="translate(127.246094 0)"/>
      <use xlink:href="#DejaVuSans-34" transform="translate(190.869141 0)"/>
     </g>
    </g>
   </g>
   <g id="text_17">
    <g clip-path="url(#p01f3c48981)">
     <!-- 0411 -->
     <g style="fill: #2f3437" transform="translate(401.871506 349.273138) scale(0.085 -0.085)">
      <use xlink:href="#DejaVuSans-30"/>
      <use xlink:href="#DejaVuSans-34" transform="translate(63.623047 0)"/>
      <use xlink:href="#DejaVuSans-31" transform="translate(127.246094 0)"/>
      <use xlink:href="#DejaVuSans-31" transform="translate(190.869141 0)"/>
     </g>
    </g>
   </g>
   <g id="text_18">
    <!-- Ego Referral Network — HCP 0217 (highest betweenness) -->
    <g transform="translate(64.938281 17.077969) scale(0.13 -0.13)">
     <defs>
      <path id="DejaVuSans-Bold-45" d="M 588 4666
L 3834 4666
L 3834 3756
L 1791 3756
L 1791 2888
L 3713 2888
L 3713 1978
L 1791 1978
L 1791 909
L 3903 909
L 3903 0
L 588 0
L 588 4666
z
" transform="scale(0.015625)"/>
      <path id="DejaVuSans-Bold-67" d="M 2919 594
Q 2688 288 2409 144
Q 2131 0 1766 0
Q 1125 0 706 504
Q 288 1009 288 1791
Q 288 2575 706 3076
Q 1125 3578 1766 3578
Q 2131 3578 2409 3434
Q 2688 3291 2919 2981
L 2919 3500
L 4044 3500
L 4044 353
Q 4044 -491 3511 -936
Q 2978 -1381 1966 -1381
Q 1638 -1381 1331 -1331
Q 1025 -1281 716 -1178
L 716 -306
Q 1009 -475 1290 -558
Q 1572 -641 1856 -641
Q 2406 -641 2662 -400
Q 2919 -159 2919 353
L 2919 594
z
M 2181 2772
Q 1834 2772 1640 2515
Q 1447 2259 1447 1791
Q 1447 1309 1634 1061
Q 1822 813 2181 813
Q 2531 813 2725 1069
Q 2919 1325 2919 1791
Q 2919 2259 2725 2515
Q 2531 2772 2181 2772
z
" transform="scale(0.015625)"/>
      <path id="DejaVuSans-Bold-6f" d="M 2203 2784
Q 1831 2784 1636 2517
Q 1441 2250 1441 1747
Q 1441 1244 1636 976
Q 1831 709 2203 709
Q 2569 709 2762 976
Q 2956 1244 2956 1747
Q 2956 2250 2762 2517
Q 2569 2784 2203 2784
z
M 2203 3584
Q 3106 3584 3614 3096
Q 4122 2609 4122 1747
Q 4122 884 3614 396
Q 3106 -91 2203 -91
Q 1297 -91 786 396
Q 275 884 275 1747
Q 275 2609 786 3096
Q 1297 3584 2203 3584
z
" transform="scale(0.015625)"/>
      <path id="DejaVuSans-Bold-20" transform="scale(0.015625)"/>
      <path id="DejaVuSans-Bold-52" d="M 2297 2597
Q 2675 2597 2839 2737
Q 3003 2878 3003 3200
Q 3003 3519 2839 3656
Q 2675 3794 2297 3794
L 1791 3794
L 1791 2597
L 2297 2597
z
M 1791 1766
L 1791 0
L 588 0
L 588 4666
L 2425 4666
Q 3347 4666 3776 4356
Q 4206 4047 4206 3378
Q 4206 2916 3982 2619
Q 3759 2322 3309 2181
Q 3556 2125 3751 1926
Q 3947 1728 4147 1325
L 4800 0
L 3519 0
L 2950 1159
Q 2778 1509 2601 1637
Q 2425 1766 2131 1766
L 1791 1766
z
" transform="scale(0.015625)"/>
      <path id="DejaVuSans-Bold-65" d="M 4031 1759
L 4031 1441
L 1416 1441
Q 1456 1047 1700 850
Q 1944 653 2381 653
Q 2734 653 3104 758
Q 3475 863 3866 1075
L 3866 213
Q 3469 63 3072 -14
Q 2675 -91 2278 -91
Q 1328 -91 801 392
Q 275 875 275 1747
Q 275 2603 792 3093
Q 1309 3584 2216 3584
Q 3041 3584 3536 3087
Q 4031 2591 4031 1759
z
M 2881 2131
Q 2881 2450 2695 2645
Q 2509 2841 2209 2841
Q 1884 2841 1681 2658
Q 1478 2475 1428 2131
L 2881 2131
z
" transform="scale(0.015625)"/>
      <path id="DejaVuSans-Bold-66" d="M 2841 4863
L 2841 4128
L 2222 4128
Q 1984 4128 1890 4042
Q 1797 3956 1797 3744
L 1797 3500
L 2753 3500
L 2753 2700
L 1797 2700
L 1797 0
L 678 0
L 678 2700
L 122 2700
L 122 3500
L 678 3500
L 678 3744
Q 678 4316 997 4589
Q 1316 4863 1984 4863
L 2841 4863
z
" transform="scale(0.015625)"/>
      <path id="DejaVuSans-Bold-72" d="M 3138 2547
Q 2991 2616 2845 2648
Q 2700 2681 2553 2681
Q 2122 2681 1889 2404
Q 1656 2128 1656 1613
L 1656 0
L 538 0
L 538 3500
L 1656 3500
L 1656 2925
Q 1872 3269 2151 3426
Q 2431 3584 2822 3584
Q 2878 3584 2943 3579
Q 3009 3575 3134 3559
L 3138 2547
z
" transform="scale(0.015625)"/>
      <path id="DejaVuSans-Bold-61" d="M 2106 1575
Q 1756 1575 1579 1456
Q 1403 1338 1403 1106
Q 1403 894 1545 773
Q 1688 653 1941 653
Q 2256 653 2472 879
Q 2688 1106 2688 1447
L 2688 1575
L 2106 1575
z
M 3816 1997
L 3816 0
L 2688 0
L 2688 519
Q 2463 200 2181 54
Q 1900 -91 1497 -91
Q 953 -91 614 226
Q 275 544 275 1050
Q 275 1666 698 1953
Q 1122 2241 2028 2241
L 2688 2241
L 2688 2328
Q 2688 2594 2478 2717
Q 2269 2841 1825 2841
Q 1466 2841 1156 2769
Q 847 2697 581 2553
L 581 3406
Q 941 3494 1303 3539
Q 1666 3584 2028 3584
Q 2975 3584 3395 3211
Q 3816 2838 3816 1997
z
" transform="scale(0.015625)"/>
      <path id="DejaVuSans-Bold-6c" d="M 538 4863
L 1656 4863
L 1656 0
L 538 0
L 538 4863
z
" transform="scale(0.015625)"/>
      <path id="DejaVuSans-Bold-4e" d="M 588 4666
L 1931 4666
L 3628 1466
L 3628 4666
L 4769 4666
L 4769 0
L 3425 0
L 1728 3200
L 1728 0
L 588 0
L 588 4666
z
" transform="scale(0.015625)"/>
      <path id="DejaVuSans-Bold-74" d="M 1759 4494
L 1759 3500
L 2913 3500
L 2913 2700
L 1759 2700
L 1759 1216
Q 1759 972 1856 886
Q 1953 800 2241 800
L 2816 800
L 2816 0
L 1856 0
Q 1194 0 917 276
Q 641 553 641 1216
L 641 2700
L 84 2700
L 84 3500
L 641 3500
L 641 4494
L 1759 4494
z
" transform="scale(0.015625)"/>
      <path id="DejaVuSans-Bold-77" d="M 225 3500
L 1313 3500
L 1900 1088
L 2491 3500
L 3425 3500
L 4013 1113
L 4603 3500
L 5691 3500
L 4769 0
L 3547 0
L 2956 2406
L 2369 0
L 1147 0
L 225 3500
z
" transform="scale(0.015625)"/>
      <path id="DejaVuSans-Bold-6b" d="M 538 4863
L 1656 4863
L 1656 2216
L 2944 3500
L 4244 3500
L 2534 1894
L 4378 0
L 3022 0
L 1656 1459
L 1656 0
L 538 0
L 538 4863
z
" transform="scale(0.015625)"/>
      <path id="DejaVuSans-Bold-2014" d="M 344 2156
L 6056 2156
L 6056 1350
L 344 1350
L 344 2156
z
" transform="scale(0.015625)"/>
      <path id="DejaVuSans-Bold-48" d="M 588 4666
L 1791 4666
L 1791 2888
L 3566 2888
L 3566 4666
L 4769 4666
L 4769 0
L 3566 0
L 3566 1978
L 1791 1978
L 1791 0
L 588 0
L 588 4666
z
" transform="scale(0.015625)"/>
      <path id="DejaVuSans-Bold-43" d="M 4288 256
Q 3956 84 3597 -3
Q 3238 -91 2847 -91
Q 1681 -91 1000 561
Q 319 1213 319 2328
Q 319 3447 1000 4098
Q 1681 4750 2847 4750
Q 3238 4750 3597 4662
Q 3956 4575 4288 4403
L 4288 3438
Q 3953 3666 3628 3772
Q 3303 3878 2944 3878
Q 2300 3878 1931 3465
Q 1563 3053 1563 2328
Q 1563 1606 1931 1193
Q 2300 781 2944 781
Q 3303 781 3628 887
Q 3953 994 4288 1222
L 4288 256
z
" transform="scale(0.015625)"/>
      <path id="DejaVuSans-Bold-50" d="M 588 4666
L 2584 4666
Q 3475 4666 3951 4270
Q 4428 3875 4428 3144
Q 4428 2409 3951 2014
Q 3475 1619 2584 1619
L 1791 1619
L 1791 0
L 588 0
L 588 4666
z
M 1791 3794
L 1791 2491
L 2456 2491
Q 2806 2491 2997 2661
Q 3188 2831 3188 3144
Q 3188 3456 2997 3625
Q 2806 3794 2456 3794
L 1791 3794
z
" transform="scale(0.015625)"/>
      <path id="DejaVuSans-Bold-30" d="M 2944 2338
Q 2944 3213 2780 3570
Q 2616 3928 2228 3928
Q 1841 3928 1675 3570
Q 1509 3213 1509 2338
Q 1509 1453 1675 1090
Q 1841 728 2228 728
Q 2613 728 2778 1090
Q 2944 1453 2944 2338
z
M 4147 2328
Q 4147 1169 3647 539
Q 3147 -91 2228 -91
Q 1306 -91 806 539
Q 306 1169 306 2328
Q 306 3491 806 4120
Q 1306 4750 2228 4750
Q 3147 4750 3647 4120
Q 4147 3491 4147 2328
z
" transform="scale(0.015625)"/>
      <path id="DejaVuSans-Bold-32" d="M 1844 884
L 3897 884
L 3897 0
L 506 0
L 506 884
L 2209 2388
Q 2438 2594 2547 2791
Q 2656 2988 2656 3200
Q 2656 3528 2436 3728
Q 2216 3928 1850 3928
Q 1569 3928 1234 3808
Q 900 3688 519 3450
L 519 4475
Q 925 4609 1322 4679
Q 1719 4750 2100 4750
Q 2938 4750 3402 4381
Q 3866 4013 3866 3353
Q 3866 2972 3669 2642
Q 3472 2313 2841 1759
L 1844 884
z
" transform="scale(0.015625)"/>
      <path id="DejaVuSans-Bold-31" d="M 750 831
L 1813 831
L 1813 3847
L 722 3622
L 722 4441
L 1806 4666
L 2950 4666
L 2950 831
L 4013 831
L 4013 0
L 750 0
L 750 831
z
" transform="scale(0.015625)"/>
      <path id="DejaVuSans-Bold-37" d="M 428 4666
L 3944 4666
L 3944 3988
L 2125 0
L 953 0
L 2675 3781
L 428 3781
L 428 4666
z
" transform="scale(0.015625)"/>
      <path id="DejaVuSans-Bold-28" d="M 2413 -844
L 1484 -844
Q 1006 -72 778 623
Q 550 1319 550 2003
Q 550 2688 779 3389
Q 1009 4091 1484 4856
L 2413 4856
Q 2013 4116 1813 3408
Q 1613 2700 1613 2009
Q 1613 1319 1811 609
Q 2009 -100 2413 -844
z
" transform="scale(0.015625)"/>
      <path id="DejaVuSans-Bold-68" d="M 4056 2131
L 4056 0
L 2931 0
L 2931 347
L 2931 1625
Q 2931 2084 2911 2256
Q 2891 2428 2841 2509
Q 2775 2619 2662 2680
Q 2550 2741 2406 2741
Q 2056 2741 1856 2470
Q 1656 2200 1656 1722
L 1656 0
L 538 0
L 538 4863
L 1656 4863
L 1656 2988
Q 1909 3294 2193 3439
Q 2478 3584 2822 3584
Q 3428 3584 3742 3212
Q 4056 2841 4056 2131
z
" transform="scale(0.015625)"/>
      <path id="DejaVuSans-Bold-69" d="M 538 3500
L 1656 3500
L 1656 0
L 538 0
L 538 3500
z
M 538 4863
L 1656 4863
L 1656 3950
L 538 3950
L 538 4863
z
" transform="scale(0.015625)"/>
      <path id="DejaVuSans-Bold-73" d="M 3272 3391
L 3272 2541
Q 2913 2691 2578 2766
Q 2244 2841 1947 2841
Q 1628 2841 1473 2761
Q 1319 2681 1319 2516
Q 1319 2381 1436 2309
Q 1553 2238 1856 2203
L 2053 2175
Q 2913 2066 3209 1816
Q 3506 1566 3506 1031
Q 3506 472 3093 190
Q 2681 -91 1863 -91
Q 1516 -91 1145 -36
Q 775 19 384 128
L 384 978
Q 719 816 1070 734
Q 1422 653 1784 653
Q 2113 653 2278 743
Q 2444 834 2444 1013
Q 2444 1163 2330 1236
Q 2216 1309 1875 1350
L 1678 1375
Q 931 1469 631 1722
Q 331 1975 331 2491
Q 331 3047 712 3315
Q 1094 3584 1881 3584
Q 2191 3584 2531 3537
Q 2872 3491 3272 3391
z
" transform="scale(0.015625)"/>
      <path id="DejaVuSans-Bold-62" d="M 2400 722
Q 2759 722 2948 984
Q 3138 1247 3138 1747
Q 3138 2247 2948 2509
Q 2759 2772 2400 2772
Q 2041 2772 1848 2508
Q 1656 2244 1656 1747
Q 1656 1250 1848 986
Q 2041 722 2400 722
z
M 1656 2988
Q 1888 3294 2169 3439
Q 2450 3584 2816 3584
Q 3463 3584 3878 3070
Q 4294 2556 4294 1747
Q 4294 938 3878 423
Q 3463 -91 2816 -91
Q 2450 -91 2169 54
Q 1888 200 1656 506
L 1656 0
L 538 0
L 538 4863
L 1656 4863
L 1656 2988
z
" transform="scale(0.015625)"/>
      <path id="DejaVuSans-Bold-6e" d="M 4056 2131
L 4056 0
L 2931 0
L 2931 347
L 2931 1631
Q 2931 2084 2911 2256
Q 2891 2428 2841 2509
Q 2775 2619 2662 2680
Q 2550 2741 2406 2741
Q 2056 2741 1856 2470
Q 1656 2200 1656 1722
L 1656 0
L 538 0
L 538 3500
L 1656 3500
L 1656 2988
Q 1909 3294 2193 3439
Q 2478 3584 2822 3584
Q 3428 3584 3742 3212
Q 4056 2841 4056 2131
z
" transform="scale(0.015625)"/>
      <path id="DejaVuSans-Bold-29" d="M 513 -844
Q 913 -100 1113 609
Q 1313 1319 1313 2009
Q 1313 2700 1113 3408
Q 913 4116 513 4856
L 1441 4856
Q 1916 4091 2145 3389
Q 2375 2688 2375 2003
Q 2375 1319 2147 623
Q 1919 -72 1441 -844
L 513 -844
z
" transform="scale(0.015625)"/>
     </defs>
     <use xlink:href="#DejaVuSans-Bold-45"/>
     <use xlink:href="#DejaVuSans-Bold-67" transform="translate(68.310547 0)"/>
     <use xlink:href="#DejaVuSans-Bold-6f" transform="translate(139.892578 0)"/>
     <use xlink:href="#DejaVuSans-Bold-20" transform="translate(208.59375 0)"/>
     <use xlink:href="#DejaVuSans-Bold-52" transform="translate(243.408203 0)"/>
     <use xlink:href="#DejaVuSans-Bold-65" transform="translate(320.410156 0)"/>
     <use xlink:href="#DejaVuSans-Bold-66" transform="translate(388.232422 0)"/>
     <use xlink:href="#DejaVuSans-Bold-65" transform="translate(431.738281 0)"/>
     <use xlink:href="#DejaVuSans-Bold-72" transform="translate(499.560547 0)"/>
     <use xlink:href="#DejaVuSans-Bold-72" transform="translate(548.876953 0)"/>
     <use xlink:href="#DejaVuSans-Bold-61" transform="translate(598.193359 0)"/>
     <use xlink:href="#DejaVuSans-Bold-6c" transform="translate(665.673828 0)"/>
     <use xlink:href="#DejaVuSans-Bold-20" transform="translate(699.951172 0)"/>
     <use xlink:href="#DejaVuSans-Bold-4e" transform="translate(734.765625 0)"/>
     <use xlink:href="#DejaVuSans-Bold-65" transform="translate(818.457031 0)"/>
     <use xlink:href="#DejaVuSans-Bold-74" transform="translate(886.279297 0)"/>
     <use xlink:href="#DejaVuSans-Bold-77" transform="translate(934.082031 0)"/>
     <use xlink:href="#DejaVuSans-Bold-6f" transform="translate(1026.464844 0)"/>
     <use xlink:href="#DejaVuSans-Bold-72" transform="translate(1095.166016 0)"/>
     <use xlink:href="#DejaVuSans-Bold-6b" transform="translate(1144.482422 0)"/>
     <use xlink:href="#DejaVuSans-Bold-20" transform="translate(1210.986328 0)"/>
     <use xlink:href="#DejaVuSans-Bold-2014" transform="translate(1245.800781 0)"/>
     <use xlink:href="#DejaVuSans-Bold-20" transform="translate(1345.800781 0)"/>
     <use xlink:href="#DejaVuSans-Bold-48" transform="translate(1380.615234 0)"/>
     <use xlink:href="#DejaVuSans-Bold-43" transform="translate(1464.306641 0)"/>
     <use xlink:href="#DejaVuSans-Bold-50" transform="translate(1537.695312 0)"/>
     <use xlink:href="#DejaVuSans-Bold-20" transform="translate(1610.986328 0)"/>
     <use xlink:href="#DejaVuSans-Bold-30" transform="translate(1645.800781 0)"/>
     <use xlink:href="#DejaVuSans-Bold-32" transform="translate(1715.380859 0)"/>
     <use xlink:href="#DejaVuSans-Bold-31" transform="translate(1784.960938 0)"/>
     <use xlink:href="#DejaVuSans-Bold-37" transform="translate(1854.541016 0)"/>
     <use xlink:href="#DejaVuSans-Bold-20" transform="translate(1924.121094 0)"/>
     <use xlink:href="#DejaVuSans-Bold-28" transform="translate(1958.935547 0)"/>
     <use xlink:href="#DejaVuSans-Bold-68" transform="translate(2004.638672 0)"/>
     <use xlink:href="#DejaVuSans-Bold-69" transform="translate(2075.830078 0)"/>
     <use xlink:href="#DejaVuSans-Bold-67" transform="translate(2110.107422 0)"/>
     <use xlink:href="#DejaVuSans-Bold-68" transform="translate(2181.689453 0)"/>
     <use xlink:href="#DejaVuSans-Bold-65" transform="translate(2252.880859 0)"/>
     <use xlink:href="#DejaVuSans-Bold-73" transform="translate(2320.703125 0)"/>
     <use xlink:href="#DejaVuSans-Bold-74" transform="translate(2380.224609 0)"/>
     <use xlink:href="#DejaVuSans-Bold-20" transform="translate(2428.027344 0)"/>
     <use xlink:href="#DejaVuSans-Bold-62" transform="translate(2462.841797 0)"/>
     <use xlink:href="#DejaVuSans-Bold-65" transform="translate(2534.423828 0)"/>
     <use xlink:href="#DejaVuSans-Bold-74" transform="translate(2602.246094 0)"/>
     <use xlink:href="#DejaVuSans-Bold-77" transform="translate(2650.048828 0)"/>
     <use xlink:href="#DejaVuSans-Bold-65" transform="translate(2742.431641 0)"/>
     <use xlink:href="#DejaVuSans-Bold-65" transform="translate(2810.253906 0)"/>
     <use xlink:href="#DejaVuSans-Bold-6e" transform="translate(2878.076172 0)"/>
     <use xlink:href="#DejaVuSans-Bold-6e" transform="translate(2949.267578 0)"/>
     <use xlink:href="#DejaVuSans-Bold-65" transform="translate(3020.458984 0)"/>
     <use xlink:href="#DejaVuSans-Bold-73" transform="translate(3088.28125 0)"/>
     <use xlink:href="#DejaVuSans-Bold-73" transform="translate(3147.802734 0)"/>
     <use xlink:href="#DejaVuSans-Bold-29" transform="translate(3207.324219 0)"/>
    </g>
    <!-- Node labels: last 4 digits of NPI   ·   Edge labels: unique referred patients -->
    <g transform="translate(7.2 31.736687) scale(0.13 -0.13)">
     <defs>
      <path id="DejaVuSans-Bold-64" d="M 2919 2988
L 2919 4863
L 4044 4863
L 4044 0
L 2919 0
L 2919 506
Q 2688 197 2409 53
Q 2131 -91 1766 -91
Q 1119 -91 703 423
Q 288 938 288 1747
Q 288 2556 703 3070
Q 1119 3584 1766 3584
Q 2128 3584 2408 3439
Q 2688 3294 2919 2988
z
M 2181 722
Q 2541 722 2730 984
Q 2919 1247 2919 1747
Q 2919 2247 2730 2509
Q 2541 2772 2181 2772
Q 1825 2772 1636 2509
Q 1447 2247 1447 1747
Q 1447 1247 1636 984
Q 1825 722 2181 722
z
" transform="scale(0.015625)"/>
      <path id="DejaVuSans-Bold-3a" d="M 716 3500
L 1844 3500
L 1844 2291
L 716 2291
L 716 3500
z
M 716 1209
L 1844 1209
L 1844 0
L 716 0
L 716 1209
z
" transform="scale(0.015625)"/>
      <path id="DejaVuSans-Bold-34" d="M 2356 3675
L 1038 1722
L 2356 1722
L 2356 3675
z
M 2156 4666
L 3494 4666
L 3494 1722
L 4159 1722
L 4159 850
L 3494 850
L 3494 0
L 2356 0
L 2356 850
L 288 850
L 288 1881
L 2156 4666
z
" transform="scale(0.015625)"/>
      <path id="DejaVuSans-Bold-49" d="M 588 4666
L 1791 4666
L 1791 0
L 588 0
L 588 4666
z
" transform="scale(0.015625)"/>
      <path id="DejaVuSans-Bold-b7" d="M 653 2828
L 1778 2828
L 1778 1619
L 653 1619
L 653 2828
z
" transform="scale(0.015625)"/>
      <path id="DejaVuSans-Bold-75" d="M 500 1363
L 500 3500
L 1625 3500
L 1625 3150
Q 1625 2866 1622 2436
Q 1619 2006 1619 1863
Q 1619 1441 1641 1255
Q 1663 1069 1716 984
Q 1784 875 1895 815
Q 2006 756 2150 756
Q 2500 756 2700 1025
Q 2900 1294 2900 1772
L 2900 3500
L 4019 3500
L 4019 0
L 2900 0
L 2900 506
Q 2647 200 2364 54
Q 2081 -91 1741 -91
Q 1134 -91 817 281
Q 500 653 500 1363
z
" transform="scale(0.015625)"/>
      <path id="DejaVuSans-Bold-71" d="M 2181 2772
Q 1825 2772 1636 2509
Q 1447 2247 1447 1747
Q 1447 1247 1636 984
Q 1825 722 2181 722
Q 2541 722 2730 984
Q 2919 1247 2919 1747
Q 2919 2247 2730 2509
Q 2541 2772 2181 2772
z
M 2919 506
Q 2688 197 2409 53
Q 2131 -91 1766 -91
Q 1119 -91 703 423
Q 288 938 288 1747
Q 288 2556 703 3067
Q 1119 3578 1766 3578
Q 2131 3578 2409 3434
Q 2688 3291 2919 2981
L 2919 3500
L 4044 3500
L 4044 -1331
L 2919 -1331
L 2919 506
z
" transform="scale(0.015625)"/>
      <path id="DejaVuSans-Bold-70" d="M 1656 506
L 1656 -1331
L 538 -1331
L 538 3500
L 1656 3500
L 1656 2988
Q 1888 3294 2169 3439
Q 2450 3584 2816 3584
Q 3463 3584 3878 3070
Q 4294 2556 4294 1747
Q 4294 938 3878 423
Q 3463 -91 2816 -91
Q 2450 -91 2169 54
Q 1888 200 1656 506
z
M 2400 2772
Q 2041 2772 1848 2508
Q 1656 2244 1656 1747
Q 1656 1250 1848 986
Q 2041 722 2400 722
Q 2759 722 2948 984
Q 3138 1247 3138 1747
Q 3138 2247 2948 2509
Q 2759 2772 2400 2772
z
" transform="scale(0.015625)"/>
     </defs>
     <use xlink:href="#DejaVuSans-Bold-4e"/>
     <use xlink:href="#DejaVuSans-Bold-6f" transform="translate(83.691406 0)"/>
     <use xlink:href="#DejaVuSans-Bold-64" transform="translate(152.392578 0)"/>
     <use xlink:href="#DejaVuSans-Bold-65" transform="translate(223.974609 0)"/>
     <use xlink:href="#DejaVuSans-Bold-20" transform="translate(291.796875 0)"/>
     <use xlink:href="#DejaVuSans-Bold-6c" transform="translate(326.611328 0)"/>
     <use xlink:href="#DejaVuSans-Bold-61" transform="translate(360.888672 0)"/>
     <use xlink:href="#DejaVuSans-Bold-62" transform="translate(428.369141 0)"/>
     <use xlink:href="#DejaVuSans-Bold-65" transform="translate(499.951172 0)"/>
     <use xlink:href="#DejaVuSans-Bold-6c" transform="translate(567.773438 0)"/>
     <use xlink:href="#DejaVuSans-Bold-73" transform="translate(602.050781 0)"/>
     <use xlink:href="#DejaVuSans-Bold-3a" transform="translate(661.572266 0)"/>
     <use xlink:href="#DejaVuSans-Bold-20" transform="translate(701.5625 0)"/>
     <use xlink:href="#DejaVuSans-Bold-6c" transform="translate(736.376953 0)"/>
     <use xlink:href="#DejaVuSans-Bold-61" transform="translate(770.654297 0)"/>
     <use xlink:href="#DejaVuSans-Bold-73" transform="translate(838.134766 0)"/>
     <use xlink:href="#DejaVuSans-Bold-74" transform="translate(897.65625 0)"/>
     <use xlink:href="#DejaVuSans-Bold-20" transform="translate(945.458984 0)"/>
     <use xlink:href="#DejaVuSans-Bold-34" transform="translate(980.273438 0)"/>
     <use xlink:href="#DejaVuSans-Bold-20" transform="translate(1049.853516 0)"/>
     <use xlink:href="#DejaVuSans-Bold-64" transform="translate(1084.667969 0)"/>
     <use xlink:href="#DejaVuSans-Bold-69" transform="translate(1156.25 0)"/>
     <use xlink:href="#DejaVuSans-Bold-67" transform="translate(1190.527344 0)"/>
     <use xlink:href="#DejaVuSans-Bold-69" transform="translate(1262.109375 0)"/>
     <use xlink:href="#DejaVuSans-Bold-74" transform="translate(1296.386719 0)"/>
     <use xlink:href="#DejaVuSans-Bold-73" transform="translate(1344.189453 0)"/>
     <use xlink:href="#DejaVuSans-Bold-20" transform="translate(1403.710938 0)"/>
     <use xlink:href="#DejaVuSans-Bold-6f" transform="translate(1438.525391 0)"/>
     <use xlink:href="#DejaVuSans-Bold-66" transform="translate(1507.226562 0)"/>
     <use xlink:href="#DejaVuSans-Bold-20" transform="translate(1550.732422 0)"/>
     <use xlink:href="#DejaVuSans-Bold-4e" transform="translate(1585.546875 0)"/>
     <use xlink:href="#DejaVuSans-Bold-50" transform="translate(1669.238281 0)"/>
     <use xlink:href="#DejaVuSans-Bold-49" transform="translate(1742.529297 0)"/>
     <use xlink:href="#DejaVuSans-Bold-20" transform="translate(1779.736328 0)"/>
     <use xlink:href="#DejaVuSans-Bold-20" transform="translate(1814.550781 0)"/>
     <use xlink:href="#DejaVuSans-Bold-20" transform="translate(1849.365234 0)"/>
     <use xlink:href="#DejaVuSans-Bold-b7" transform="translate(1884.179688 0)"/>
     <use xlink:href="#DejaVuSans-Bold-20" transform="translate(1922.167969 0)"/>
     <use xlink:href="#DejaVuSans-Bold-20" transform="translate(1956.982422 0)"/>
     <use xlink:href="#DejaVuSans-Bold-20" transform="translate(1991.796875 0)"/>
     <use xlink:href="#DejaVuSans-Bold-45" transform="translate(2026.611328 0)"/>
     <use xlink:href="#DejaVuSans-Bold-64" transform="translate(2094.921875 0)"/>
     <use xlink:href="#DejaVuSans-Bold-67" transform="translate(2166.503906 0)"/>
     <use xlink:href="#DejaVuSans-Bold-65" transform="translate(2238.085938 0)"/>
     <use xlink:href="#DejaVuSans-Bold-20" transform="translate(2305.908203 0)"/>
     <use xlink:href="#DejaVuSans-Bold-6c" transform="translate(2340.722656 0)"/>
     <use xlink:href="#DejaVuSans-Bold-61" transform="translate(2375 0)"/>
     <use xlink:href="#DejaVuSans-Bold-62" transform="translate(2442.480469 0)"/>
     <use xlink:href="#DejaVuSans-Bold-65" transform="translate(2514.0625 0)"/>
     <use xlink:href="#DejaVuSans-Bold-6c" transform="translate(2581.884766 0)"/>
     <use xlink:href="#DejaVuSans-Bold-73" transform="translate(2616.162109 0)"/>
     <use xlink:href="#DejaVuSans-Bold-3a" transform="translate(2675.683594 0)"/>
     <use xlink:href="#DejaVuSans-Bold-20" transform="translate(2715.673828 0)"/>
     <use xlink:href="#DejaVuSans-Bold-75" transform="translate(2750.488281 0)"/>
     <use xlink:href="#DejaVuSans-Bold-6e" transform="translate(2821.679688 0)"/>
     <use xlink:href="#DejaVuSans-Bold-69" transform="translate(2892.871094 0)"/>
     <use xlink:href="#DejaVuSans-Bold-71" transform="translate(2927.148438 0)"/>
     <use xlink:href="#DejaVuSans-Bold-75" transform="translate(2998.730469 0)"/>
     <use xlink:href="#DejaVuSans-Bold-65" transform="translate(3069.921875 0)"/>
     <use xlink:href="#DejaVuSans-Bold-20" transform="translate(3137.744141 0)"/>
     <use xlink:href="#DejaVuSans-Bold-72" transform="translate(3172.558594 0)"/>
     <use xlink:href="#DejaVuSans-Bold-65" transform="translate(3221.875 0)"/>
     <use xlink:href="#DejaVuSans-Bold-66" transform="translate(3289.697266 0)"/>
     <use xlink:href="#DejaVuSans-Bold-65" transform="translate(3333.203125 0)"/>
     <use xlink:href="#DejaVuSans-Bold-72" transform="translate(3401.025391 0)"/>
     <use xlink:href="#DejaVuSans-Bold-72" transform="translate(3450.341797 0)"/>
     <use xlink:href="#DejaVuSans-Bold-65" transform="translate(3499.658203 0)"/>
     <use xlink:href="#DejaVuSans-Bold-64" transform="translate(3567.480469 0)"/>
     <use xlink:href="#DejaVuSans-Bold-20" transform="translate(3639.0625 0)"/>
     <use xlink:href="#DejaVuSans-Bold-70" transform="translate(3673.876953 0)"/>
     <use xlink:href="#DejaVuSans-Bold-61" transform="translate(3745.458984 0)"/>
     <use xlink:href="#DejaVuSans-Bold-74" transform="translate(3812.939453 0)"/>
     <use xlink:href="#DejaVuSans-Bold-69" transform="translate(3860.742188 0)"/>
     <use xlink:href="#DejaVuSans-Bold-65" transform="translate(3895.019531 0)"/>
     <use xlink:href="#DejaVuSans-Bold-6e" transform="translate(3962.841797 0)"/>
     <use xlink:href="#DejaVuSans-Bold-74" transform="translate(4034.033203 0)"/>
     <use xlink:href="#DejaVuSans-Bold-73" transform="translate(4081.835938 0)"/>
    </g>
   </g>
  </g>
 </g>
 <defs>
  <clipPath id="p01f3c48981">
   <rect x="43.139281" y="37.736687" width="466.488" height="390.2976"/>
  </clipPath>
 </defs>
</svg>
