<?xml version="1.0" encoding="utf-8" standalone="no"?>
<!DOCTYPE svg PUBLIC "-//W3C//DTD SVG 1.1//EN"
  "http://www.w3.org/Graphics/SVG/1.1/DTD/svg11.dtd">
<svg xmlns:xlink="http://www.w3.org/1999/xlink" width="589.035247pt" height="311.502281pt" viewBox="0 0 589.035247 311.502281" xmlns="http://www.w3.org/2000/svg" version="1.1">
 <metadata>
  <rdf:RDF xmlns:dc="http://purl.org/dc/elements/1.1/" xmlns:cc="http://creativecommons.org/ns#" xmlns:rdf="http://www.w3.org/1999/02/22-rdf-syntax-ns#">
   <cc:Work>
    <dc:type rdf:resource="http://purl.org/dc/dcmitype/StillImage"/>
    <dc:date>2026-06-20T22:49:25.352790</dc:date>
    <dc:format>image/svg+xml</dc:format>
    <dc:creator>
     <cc:Agent>
      <dc:title>Matplotlib v3.10.9, https://matplotlib.org/</dc:title>
     </cc:Agent>
    </dc:creator>
   </cc:Work>
  </rdf:RDF>
 </metadata>
 <defs>
  <style type="text/css">*{stroke-linejoin: round; stroke-linecap: butt}</style>
 </defs>
 <g id="figure_1">
  <g id="patch_1">
   <path d="M 0 311.502281
L 589.035247 311.502281
L 589.035247 0
L 0 0
z
" style="fill: #ffffff"/>
  </g>
  <g id="axes_1">
   <g id="patch_2">
    <path d="M 169.6954 101.20663
Q 216.822428 130.315643 261.6341 150.185475
" clip-path="url(#pd556fd9fd0)" style="fill: none; stroke: #7ba6d0; stroke-width: 5.7; stroke-linecap: round"/>
    <path d="M 255.372991 142.596106
L 261.6341 150.185475
L 251.805939 150.640741
z
" clip-path="url(#pd556fd9fd0)" style="fill: #7ba6d0; stroke: #7ba6d0; stroke-width: 5.7; stroke-linecap: round"/>
   </g>
   <g id="patch_3">
    <path d="M 317.064317 158.813224
Q 364.449747 150.363801 405.866509 137.270529
" clip-path="url(#pd556fd9fd0)" style="fill: none; stroke: #7ba6d0; stroke-width: 4.2; stroke-linecap: round"/>
    <path d="M 396.149519 135.72777
L 405.866509 137.270529
L 398.802108 144.118466
z
" clip-path="url(#pd556fd9fd0)" style="fill: #7ba6d0; stroke: #7ba6d0; stroke-width: 4.2; stroke-linecap: round"/>
   </g>
   <g id="patch_4">
    <path d="M 316.042863 171.197511
Q 361.93693 185.706345 406.625683 193.675035
" clip-path="url(#pd556fd9fd0)" style="fill: none; stroke: #7ba6d0; stroke-width: 2.45; stroke-linecap: round"/>
    <path d="M 398.734741 187.798554
L 406.625683 193.675035
L 397.189933 196.4619
z
" clip-path="url(#pd556fd9fd0)" style="fill: #7ba6d0; stroke: #7ba6d0; stroke-width: 2.45; stroke-linecap: round"/>
   </g>
   <g id="patch_5">
    <path d="M 173.70858 165.053936
Q 219.595392 167.986558 261.074961 165.335615
" clip-path="url(#pd556fd9fd0)" style="fill: none; stroke: #7ba6d0; stroke-width: 3.95; stroke-linecap: round"/>
    <path d="M 252.012248 161.505833
L 261.074961 165.335615
L 252.573507 170.287916
z
" clip-path="url(#pd556fd9fd0)" style="fill: #7ba6d0; stroke: #7ba6d0; stroke-width: 3.95; stroke-linecap: round"/>
   </g>
   <g id="patch_6">
    <path d="M 171.726791 228.50559
Q 222.364386 206.052853 266.685482 178.677338
" clip-path="url(#pd556fd9fd0)" style="fill: none; stroke: #7ba6d0; stroke-width: 2.95; stroke-linecap: round"/>
    <path d="M 256.886302 179.55828
L 266.685482 178.677338
L 261.510727 187.045248
z
" clip-path="url(#pd556fd9fd0)" style="fill: #7ba6d0; stroke: #7ba6d0; stroke-width: 2.95; stroke-linecap: round"/>
   </g>
   <g id="text_1">
    <g id="patch_7">
     <path d="M 205.936864 124.044677
L 228.142741 135.756213
Q 229.557973 136.502616 230.304376 135.087384
L 233.916269 128.238988
Q 234.662672 126.823756 233.24744 126.077352
L 211.041564 114.365816
Q 209.626331 113.619413 208.879928 115.034645
L 205.268035 121.883042
Q 204.521632 123.298274 205.936864 124.044677
z
" clip-path="url(#pd556fd9fd0)" style="fill: #ffffff; opacity: 0.85; stroke: #000000; stroke-linejoin: miter"/>
    </g>
    <g clip-path="url(#pd556fd9fd0)">
     <!-- 18 pts -->
     <g transform="translate(207.45941 121.157825) rotate(-332.19252) scale(0.08 -0.08)">
      <defs>
       <path id="DejaVuSans-31" d="M 794 531
L 1825 531
L 1825 4091
L 703 3866
L 703 4441
L 1819 4666
L 2450 4666
L 2450 531
L 3481 531
L 3481 0
L 794 0
L 794 531
z
" transform="scale(0.015625)"/>
       <path id="DejaVuSans-38" d="M 2034 2216
Q 1584 2216 1326 1975
Q 1069 1734 1069 1313
Q 1069 891 1326 650
Q 1584 409 2034 409
Q 2484 409 2743 651
Q 3003 894 3003 1313
Q 3003 1734 2745 1975
Q 2488 2216 2034 2216
z
M 1403 2484
Q 997 2584 770 2862
Q 544 3141 544 3541
Q 544 4100 942 4425
Q 1341 4750 2034 4750
Q 2731 4750 3128 4425
Q 3525 4100 3525 3541
Q 3525 3141 3298 2862
Q 3072 2584 2669 2484
Q 3125 2378 3379 2068
Q 3634 1759 3634 1313
Q 3634 634 3220 271
Q 2806 -91 2034 -91
Q 1263 -91 848 271
Q 434 634 434 1313
Q 434 1759 690 2068
Q 947 2378 1403 2484
z
M 1172 3481
Q 1172 3119 1398 2916
Q 1625 2713 2034 2713
Q 2441 2713 2670 2916
Q 2900 3119 2900 3481
Q 2900 3844 2670 4047
Q 2441 4250 2034 4250
Q 1625 4250 1398 4047
Q 1172 3844 1172 3481
z
" transform="scale(0.015625)"/>
       <path id="DejaVuSans-20" transform="scale(0.015625)"/>
       <path id="DejaVuSans-70" d="M 1159 525
L 1159 -1331
L 581 -1331
L 581 3500
L 1159 3500
L 1159 2969
Q 1341 3281 1617 3432
Q 1894 3584 2278 3584
Q 2916 3584 3314 3078
Q 3713 2572 3713 1747
Q 3713 922 3314 415
Q 2916 -91 2278 -91
Q 1894 -91 1617 61
Q 1341 213 1159 525
z
M 3116 1747
Q 3116 2381 2855 2742
Q 2594 3103 2138 3103
Q 1681 3103 1420 2742
Q 1159 2381 1159 1747
Q 1159 1113 1420 752
Q 1681 391 2138 391
Q 2594 391 2855 752
Q 3116 1113 3116 1747
z
" transform="scale(0.015625)"/>
       <path id="DejaVuSans-74" d="M 1172 4494
L 1172 3500
L 2356 3500
L 2356 3053
L 1172 3053
L 1172 1153
Q 1172 725 1289 603
Q 1406 481 1766 481
L 2356 481
L 2356 0
L 1766 0
Q 1100 0 847 248
Q 594 497 594 1153
L 594 3053
L 172 3053
L 172 3500
L 594 3500
L 594 4494
L 1172 4494
z
" transform="scale(0.015625)"/>
       <path id="DejaVuSans-73" d="M 2834 3397
L 2834 2853
Q 2591 2978 2328 3040
Q 2066 3103 1784 3103
Q 1356 3103 1142 2972
Q 928 2841 928 2578
Q 928 2378 1081 2264
Q 1234 2150 1697 2047
L 1894 2003
Q 2506 1872 2764 1633
Q 3022 1394 3022 966
Q 3022 478 2636 193
Q 2250 -91 1575 -91
Q 1294 -91 989 -36
Q 684 19 347 128
L 347 722
Q 666 556 975 473
Q 1284 391 1588 391
Q 1994 391 2212 530
Q 2431 669 2431 922
Q 2431 1156 2273 1281
Q 2116 1406 1581 1522
L 1381 1569
Q 847 1681 609 1914
Q 372 2147 372 2553
Q 372 3047 722 3315
Q 1072 3584 1716 3584
Q 2034 3584 2315 3537
Q 2597 3491 2834 3397
z
" transform="scale(0.015625)"/>
      </defs>
      <use xlink:href="#DejaVuSans-31"/>
      <use xlink:href="#DejaVuSans-38" transform="translate(63.623047 0)"/>
      <use xlink:href="#DejaVuSans-20" transform="translate(127.246094 0)"/>
      <use xlink:href="#DejaVuSans-70" transform="translate(159.033203 0)"/>
      <use xlink:href="#DejaVuSans-74" transform="translate(222.509766 0)"/>
      <use xlink:href="#DejaVuSans-73" transform="translate(261.71875 0)"/>
     </g>
    </g>
   </g>
   <g id="text_2">
    <g id="patch_8">
     <path d="M 352.311803 153.571737
L 376.689304 147.571867
Q 378.242939 147.189481 377.860553 145.635846
L 376.010165 138.11771
Q 375.627779 136.564075 374.074144 136.946461
L 349.696643 142.946332
Q 348.143008 143.328717 348.525394 144.882352
L 350.375782 152.400488
Q 350.758168 153.954123 352.311803 153.571737
z
" clip-path="url(#pd556fd9fd0)" style="fill: #ffffff; opacity: 0.85; stroke: #000000; stroke-linejoin: miter"/>
    </g>
    <g clip-path="url(#pd556fd9fd0)">
     <!-- 12 pts -->
     <g transform="translate(351.531795 150.402565) rotate(-13.827) scale(0.08 -0.08)">
      <defs>
       <path id="DejaVuSans-32" d="M 1228 531
L 3431 531
L 3431 0
L 469 0
L 469 531
Q 828 903 1448 1529
Q 2069 2156 2228 2338
Q 2531 2678 2651 2914
Q 2772 3150 2772 3378
Q 2772 3750 2511 3984
Q 2250 4219 1831 4219
Q 1534 4219 1204 4116
Q 875 4013 500 3803
L 500 4441
Q 881 4594 1212 4672
Q 1544 4750 1819 4750
Q 2544 4750 2975 4387
Q 3406 4025 3406 3419
Q 3406 3131 3298 2873
Q 3191 2616 2906 2266
Q 2828 2175 2409 1742
Q 1991 1309 1228 531
z
" transform="scale(0.015625)"/>
      </defs>
      <use xlink:href="#DejaVuSans-31"/>
      <use xlink:href="#DejaVuSans-32" transform="translate(63.623047 0)"/>
      <use xlink:href="#DejaVuSans-20" transform="translate(127.246094 0)"/>
      <use xlink:href="#DejaVuSans-70" transform="translate(159.033203 0)"/>
      <use xlink:href="#DejaVuSans-74" transform="translate(222.509766 0)"/>
      <use xlink:href="#DejaVuSans-73" transform="translate(261.71875 0)"/>
     </g>
    </g>
   </g>
   <g id="text_3">
    <g id="patch_9">
     <path d="M 352.167893 183.522463
L 371.602894 188.305869
Q 373.156529 188.688255 373.538914 187.13462
L 375.389303 179.616484
Q 375.771688 178.062849 374.218054 177.680464
L 354.783053 172.897057
Q 353.229418 172.514672 352.847032 174.068306
L 350.996644 181.586442
Q 350.614258 183.140077 352.167893 183.522463
z
" clip-path="url(#pd556fd9fd0)" style="fill: #ffffff; opacity: 0.85; stroke: #000000; stroke-linejoin: miter"/>
    </g>
    <g clip-path="url(#pd556fd9fd0)">
     <!-- 5 pts -->
     <g transform="translate(352.9479 180.353291) rotate(-346.173) scale(0.08 -0.08)">
      <defs>
       <path id="DejaVuSans-35" d="M 691 4666
L 3169 4666
L 3169 4134
L 1269 4134
L 1269 2991
Q 1406 3038 1543 3061
Q 1681 3084 1819 3084
Q 2600 3084 3056 2656
Q 3513 2228 3513 1497
Q 3513 744 3044 326
Q 2575 -91 1722 -91
Q 1428 -91 1123 -41
Q 819 9 494 109
L 494 744
Q 775 591 1075 516
Q 1375 441 1709 441
Q 2250 441 2565 725
Q 2881 1009 2881 1497
Q 2881 1984 2565 2268
Q 2250 2553 1709 2553
Q 1456 2553 1204 2497
Q 953 2441 691 2322
L 691 4666
z
" transform="scale(0.015625)"/>
      </defs>
      <use xlink:href="#DejaVuSans-35"/>
      <use xlink:href="#DejaVuSans-20" transform="translate(63.623047 0)"/>
      <use xlink:href="#DejaVuSans-70" transform="translate(95.410156 0)"/>
      <use xlink:href="#DejaVuSans-74" transform="translate(158.886719 0)"/>
      <use xlink:href="#DejaVuSans-73" transform="translate(198.095703 0)"/>
     </g>
    </g>
   </g>
   <g id="text_4">
    <g id="patch_10">
     <path d="M 207.044932 168.401531
L 232.149932 168.401531
Q 233.749932 168.401531 233.749932 166.801531
L 233.749932 159.059031
Q 233.749932 157.459031 232.149932 157.459031
L 207.044932 157.459031
Q 205.444932 157.459031 205.444932 159.059031
L 205.444932 166.801531
Q 205.444932 168.401531 207.044932 168.401531
z
" clip-path="url(#pd556fd9fd0)" style="fill: #ffffff; opacity: 0.85; stroke: #000000; stroke-linejoin: miter"/>
    </g>
    <g clip-path="url(#pd556fd9fd0)">
     <!-- 11 pts -->
     <g transform="translate(207.044932 165.137781) scale(0.08 -0.08)">
      <use xlink:href="#DejaVuSans-31"/>
      <use xlink:href="#DejaVuSans-31" transform="translate(63.623047 0)"/>
      <use xlink:href="#DejaVuSans-20" transform="translate(127.246094 0)"/>
      <use xlink:href="#DejaVuSans-70" transform="translate(159.033203 0)"/>
      <use xlink:href="#DejaVuSans-74" transform="translate(222.509766 0)"/>
      <use xlink:href="#DejaVuSans-73" transform="translate(261.71875 0)"/>
     </g>
    </g>
   </g>
   <g id="text_5">
    <g id="patch_11">
     <path d="M 213.292667 210.307498
L 230.996336 200.970458
Q 232.411569 200.224055 231.665165 198.808823
L 228.053273 191.960426
Q 227.306869 190.545194 225.891637 191.291597
L 208.187968 200.628637
Q 206.772736 201.375041 207.519139 202.790273
L 211.131032 209.63867
Q 211.877435 211.053902 213.292667 210.307498
z
" clip-path="url(#pd556fd9fd0)" style="fill: #ffffff; opacity: 0.85; stroke: #000000; stroke-linejoin: miter"/>
    </g>
    <g clip-path="url(#pd556fd9fd0)">
     <!-- 7 pts -->
     <g transform="translate(211.770121 207.420646) rotate(-27.80748) scale(0.08 -0.08)">
      <defs>
       <path id="DejaVuSans-37" d="M 525 4666
L 3525 4666
L 3525 4397
L 1831 0
L 1172 0
L 2766 4134
L 525 4134
L 525 4666
z
" transform="scale(0.015625)"/>
      </defs>
      <use xlink:href="#DejaVuSans-37"/>
      <use xlink:href="#DejaVuSans-20" transform="translate(63.623047 0)"/>
      <use xlink:href="#DejaVuSans-70" transform="translate(95.410156 0)"/>
      <use xlink:href="#DejaVuSans-74" transform="translate(158.886719 0)"/>
      <use xlink:href="#DejaVuSans-73" transform="translate(198.095703 0)"/>
     </g>
    </g>
   </g>
   <g id="PathCollection_1">
    <path d="M 147.79612 106.560198
C 152.931756 106.560198 157.857741 104.519788 161.489184 100.888345
C 165.120627 97.256902 167.161036 92.330917 167.161036 87.195281
C 167.161036 82.059645 165.120627 77.13366 161.489184 73.502217
C 157.857741 69.870774 152.931756 67.830365 147.79612 67.830365
C 142.660484 67.830365 137.734499 69.870774 134.103056 73.502217
C 130.471613 77.13366 128.431203 82.059645 128.431203 87.195281
C 128.431203 92.330917 130.471613 97.256902 134.103056 100.888345
C 137.734499 104.519788 142.660484 106.560198 147.79612 106.560198
z
" clip-path="url(#pd556fd9fd0)" style="fill: #e7f0f8; stroke: #2f3437; stroke-width: 1.4"/>
    <path d="M 291.394883 185.84316
C 297.47145 185.84316 303.299954 183.428914 307.596735 179.132133
C 311.893516 174.835352 314.307762 169.006848 314.307762 162.930281
C 314.307762 156.853715 311.893516 151.025211 307.596735 146.72843
C 303.299954 142.431648 297.47145 140.017403 291.394883 140.017403
C 285.318317 140.017403 279.489813 142.431648 275.193032 146.72843
C 270.89625 151.025211 268.482005 156.853715 268.482005 162.930281
C 268.482005 169.006848 270.89625 174.835352 275.193032 179.132133
C 279.489813 183.428914 285.318317 185.84316 291.394883 185.84316
z
" clip-path="url(#pd556fd9fd0)" style="fill: #e0b663; stroke: #2f3437; stroke-width: 1.4"/>
    <path d="M 147.79612 182.295198
C 152.931756 182.295198 157.857741 180.254788 161.489184 176.623345
C 165.120627 172.991902 167.161036 168.065917 167.161036 162.930281
C 167.161036 157.794645 165.120627 152.86866 161.489184 149.237217
C 157.857741 145.605774 152.931756 143.565365 147.79612 143.565365
C 142.660484 143.565365 137.734499 145.605774 134.103056 149.237217
C 130.471613 152.86866 128.431203 157.794645 128.431203 162.930281
C 128.431203 168.065917 130.471613 172.991902 134.103056 176.623345
C 137.734499 180.254788 142.660484 182.295198 147.79612 182.295198
z
" clip-path="url(#pd556fd9fd0)" style="fill: #e7f0f8; stroke: #2f3437; stroke-width: 1.4"/>
    <path d="M 147.79612 258.030198
C 152.931756 258.030198 157.857741 255.989788 161.489184 252.358345
C 165.120627 248.726902 167.161036 243.800917 167.161036 238.665281
C 167.161036 233.529645 165.120627 228.60366 161.489184 224.972217
C 157.857741 221.340774 152.931756 219.300365 147.79612 219.300365
C 142.660484 219.300365 137.734499 221.340774 134.103056 224.972217
C 130.471613 228.60366 128.431203 233.529645 128.431203 238.665281
C 128.431203 243.800917 130.471613 248.726902 134.103056 252.358345
C 137.734499 255.989788 142.660484 258.030198 147.79612 258.030198
z
" clip-path="url(#pd556fd9fd0)" style="fill: #e7f0f8; stroke: #2f3437; stroke-width: 1.4"/>
    <path d="M 434.993647 146.952198
C 440.129283 146.952198 445.055268 144.911788 448.686711 141.280345
C 452.318154 137.648902 454.358564 132.722917 454.358564 127.587281
C 454.358564 122.451645 452.318154 117.52566 448.686711 113.894217
C 445.055268 110.262774 440.129283 108.222365 434.993647 108.222365
C 429.858011 108.222365 424.932026 110.262774 421.300583 113.894217
C 417.66914 117.52566 415.62873 122.451645 415.62873 127.587281
C 415.62873 132.722917 417.66914 137.648902 421.300583 141.280345
C 424.932026 144.911788 429.858011 146.952198 434.993647 146.952198
z
" clip-path="url(#pd556fd9fd0)" style="fill: #e3efe4; stroke: #2f3437; stroke-width: 1.4"/>
    <path d="M 434.993647 217.638198
C 440.129283 217.638198 445.055268 215.597788 448.686711 211.966345
C 452.318154 208.334902 454.358564 203.408917 454.358564 198.273281
C 454.358564 193.137645 452.318154 188.21166 448.686711 184.580217
C 445.055268 180.948774 440.129283 178.908365 434.993647 178.908365
C 429.858011 178.908365 424.932026 180.948774 421.300583 184.580217
C 417.66914 188.21166 415.62873 193.137645 415.62873 198.273281
C 415.62873 203.408917 417.66914 208.334902 421.300583 211.966345
C 424.932026 215.597788 429.858011 217.638198 434.993647 217.638198
z
" clip-path="url(#pd556fd9fd0)" style="fill: #e3efe4; stroke: #2f3437; stroke-width: 1.4"/>
   </g>
   <g id="text_6">
    <g clip-path="url(#pd556fd9fd0)">
     <!-- A -->
     <g style="fill: #2f3437" transform="translate(143.926588 89.954656) scale(0.1 -0.1)">
      <defs>
       <path id="DejaVuSans-Bold-41" d="M 3419 850
L 1538 850
L 1241 0
L 31 0
L 1759 4666
L 3194 4666
L 4922 0
L 3713 0
L 3419 850
z
M 1838 1716
L 3116 1716
L 2478 3572
L 1838 1716
z
" transform="scale(0.015625)"/>
      </defs>
      <use xlink:href="#DejaVuSans-Bold-41"/>
     </g>
    </g>
   </g>
   <g id="text_7">
    <g clip-path="url(#pd556fd9fd0)">
     <!-- D -->
     <g style="fill: #2f3437" transform="translate(287.244102 165.689656) scale(0.1 -0.1)">
      <defs>
       <path id="DejaVuSans-Bold-44" d="M 1791 3756
L 1791 909
L 2222 909
Q 2959 909 3348 1275
Q 3738 1641 3738 2338
Q 3738 3031 3350 3393
Q 2963 3756 2222 3756
L 1791 3756
z
M 588 4666
L 1856 4666
Q 2919 4666 3439 4514
Q 3959 4363 4331 4000
Q 4659 3684 4818 3271
Q 4978 2859 4978 2338
Q 4978 1809 4818 1395
Q 4659 981 4331 666
Q 3956 303 3431 151
Q 2906 0 1856 0
L 588 0
L 588 4666
z
" transform="scale(0.015625)"/>
      </defs>
      <use xlink:href="#DejaVuSans-Bold-44"/>
     </g>
    </g>
   </g>
   <g id="text_8">
    <g clip-path="url(#pd556fd9fd0)">
     <!-- B -->
     <g style="fill: #2f3437" transform="translate(143.985182 165.689656) scale(0.1 -0.1)">
      <defs>
       <path id="DejaVuSans-Bold-42" d="M 2456 2859
Q 2741 2859 2887 2984
Q 3034 3109 3034 3353
Q 3034 3594 2887 3720
Q 2741 3847 2456 3847
L 1791 3847
L 1791 2859
L 2456 2859
z
M 2497 819
Q 2859 819 3042 972
Q 3225 1125 3225 1434
Q 3225 1738 3044 1889
Q 2863 2041 2497 2041
L 1791 2041
L 1791 819
L 2497 819
z
M 3616 2497
Q 4003 2384 4215 2081
Q 4428 1778 4428 1338
Q 4428 663 3972 331
Q 3516 0 2584 0
L 588 0
L 588 4666
L 2394 4666
Q 3366 4666 3802 4372
Q 4238 4078 4238 3431
Q 4238 3091 4078 2852
Q 3919 2613 3616 2497
z
" transform="scale(0.015625)"/>
      </defs>
      <use xlink:href="#DejaVuSans-Bold-42"/>
     </g>
    </g>
   </g>
   <g id="text_9">
    <g clip-path="url(#pd556fd9fd0)">
     <!-- C -->
     <g style="fill: #2f3437" transform="translate(144.126588 241.424656) scale(0.1 -0.1)">
      <defs>
       <path id="DejaVuSans-Bold-43" d="M 4288 256
Q 3956 84 3597 -3
Q 3238 -91 2847 -91
Q 1681 -91 1000 561
Q 319 1213 319 2328
Q 319 3447 1000 4098
Q 1681 4750 2847 4750
Q 3238 4750 3597 4662
Q 3956 4575 4288 4403
L 4288 3438
Q 3953 3666 3628 3772
Q 3303 3878 2944 3878
Q 2300 3878 1931 3465
Q 1563 3053 1563 2328
Q 1563 1606 1931 1193
Q 2300 781 2944 781
Q 3303 781 3628 887
Q 3953 994 4288 1222
L 4288 256
z
" transform="scale(0.015625)"/>
      </defs>
      <use xlink:href="#DejaVuSans-Bold-43"/>
     </g>
    </g>
   </g>
   <g id="text_10">
    <g clip-path="url(#pd556fd9fd0)">
     <!-- E -->
     <g style="fill: #2f3437" transform="translate(431.578022 130.346656) scale(0.1 -0.1)">
      <defs>
       <path id="DejaVuSans-Bold-45" d="M 588 4666
L 3834 4666
L 3834 3756
L 1791 3756
L 1791 2888
L 3713 2888
L 3713 1978
L 1791 1978
L 1791 909
L 3903 909
L 3903 0
L 588 0
L 588 4666
z
" transform="scale(0.015625)"/>
      </defs>
      <use xlink:href="#DejaVuSans-Bold-45"/>
     </g>
    </g>
   </g>
   <g id="text_11">
    <g clip-path="url(#pd556fd9fd0)">
     <!-- F -->
     <g style="fill: #2f3437" transform="translate(431.578022 201.032656) scale(0.1 -0.1)">
      <defs>
       <path id="DejaVuSans-Bold-46" d="M 588 4666
L 3834 4666
L 3834 3756
L 1791 3756
L 1791 2888
L 3713 2888
L 3713 1978
L 1791 1978
L 1791 0
L 588 0
L 588 4666
z
" transform="scale(0.015625)"/>
      </defs>
      <use xlink:href="#DejaVuSans-Bold-46"/>
     </g>
    </g>
   </g>
   <g id="text_12">
    <!-- Primary Care -->
    <g style="fill: #9a9a9a" transform="translate(123.432253 116.119509) scale(0.075 -0.075)">
     <defs>
      <path id="DejaVuSans-50" d="M 1259 4147
L 1259 2394
L 2053 2394
Q 2494 2394 2734 2622
Q 2975 2850 2975 3272
Q 2975 3691 2734 3919
Q 2494 4147 2053 4147
L 1259 4147
z
M 628 4666
L 2053 4666
Q 2838 4666 3239 4311
Q 3641 3956 3641 3272
Q 3641 2581 3239 2228
Q 2838 1875 2053 1875
L 1259 1875
L 1259 0
L 628 0
L 628 4666
z
" transform="scale(0.015625)"/>
      <path id="DejaVuSans-72" d="M 2631 2963
Q 2534 3019 2420 3045
Q 2306 3072 2169 3072
Q 1681 3072 1420 2755
Q 1159 2438 1159 1844
L 1159 0
L 581 0
L 581 3500
L 1159 3500
L 1159 2956
Q 1341 3275 1631 3429
Q 1922 3584 2338 3584
Q 2397 3584 2469 3576
Q 2541 3569 2628 3553
L 2631 2963
z
" transform="scale(0.015625)"/>
      <path id="DejaVuSans-69" d="M 603 3500
L 1178 3500
L 1178 0
L 603 0
L 603 3500
z
M 603 4863
L 1178 4863
L 1178 4134
L 603 4134
L 603 4863
z
" transform="scale(0.015625)"/>
      <path id="DejaVuSans-6d" d="M 3328 2828
Q 3544 3216 3844 3400
Q 4144 3584 4550 3584
Q 5097 3584 5394 3201
Q 5691 2819 5691 2113
L 5691 0
L 5113 0
L 5113 2094
Q 5113 2597 4934 2840
Q 4756 3084 4391 3084
Q 3944 3084 3684 2787
Q 3425 2491 3425 1978
L 3425 0
L 2847 0
L 2847 2094
Q 2847 2600 2669 2842
Q 2491 3084 2119 3084
Q 1678 3084 1418 2786
Q 1159 2488 1159 1978
L 1159 0
L 581 0
L 581 3500
L 1159 3500
L 1159 2956
Q 1356 3278 1631 3431
Q 1906 3584 2284 3584
Q 2666 3584 2933 3390
Q 3200 3197 3328 2828
z
" transform="scale(0.015625)"/>
      <path id="DejaVuSans-61" d="M 2194 1759
Q 1497 1759 1228 1600
Q 959 1441 959 1056
Q 959 750 1161 570
Q 1363 391 1709 391
Q 2188 391 2477 730
Q 2766 1069 2766 1631
L 2766 1759
L 2194 1759
z
M 3341 1997
L 3341 0
L 2766 0
L 2766 531
Q 2569 213 2275 61
Q 1981 -91 1556 -91
Q 1019 -91 701 211
Q 384 513 384 1019
Q 384 1609 779 1909
Q 1175 2209 1959 2209
L 2766 2209
L 2766 2266
Q 2766 2663 2505 2880
Q 2244 3097 1772 3097
Q 1472 3097 1187 3025
Q 903 2953 641 2809
L 641 3341
Q 956 3463 1253 3523
Q 1550 3584 1831 3584
Q 2591 3584 2966 3190
Q 3341 2797 3341 1997
z
" transform="scale(0.015625)"/>
      <path id="DejaVuSans-79" d="M 2059 -325
Q 1816 -950 1584 -1140
Q 1353 -1331 966 -1331
L 506 -1331
L 506 -850
L 844 -850
Q 1081 -850 1212 -737
Q 1344 -625 1503 -206
L 1606 56
L 191 3500
L 800 3500
L 1894 763
L 2988 3500
L 3597 3500
L 2059 -325
z
" transform="scale(0.015625)"/>
      <path id="DejaVuSans-43" d="M 4122 4306
L 4122 3641
Q 3803 3938 3442 4084
Q 3081 4231 2675 4231
Q 1875 4231 1450 3742
Q 1025 3253 1025 2328
Q 1025 1406 1450 917
Q 1875 428 2675 428
Q 3081 428 3442 575
Q 3803 722 4122 1019
L 4122 359
Q 3791 134 3420 21
Q 3050 -91 2638 -91
Q 1578 -91 968 557
Q 359 1206 359 2328
Q 359 3453 968 4101
Q 1578 4750 2638 4750
Q 3056 4750 3426 4639
Q 3797 4528 4122 4306
z
" transform="scale(0.015625)"/>
      <path id="DejaVuSans-65" d="M 3597 1894
L 3597 1613
L 953 1613
Q 991 1019 1311 708
Q 1631 397 2203 397
Q 2534 397 2845 478
Q 3156 559 3463 722
L 3463 178
Q 3153 47 2828 -22
Q 2503 -91 2169 -91
Q 1331 -91 842 396
Q 353 884 353 1716
Q 353 2575 817 3079
Q 1281 3584 2069 3584
Q 2775 3584 3186 3129
Q 3597 2675 3597 1894
z
M 3022 2063
Q 3016 2534 2758 2815
Q 2500 3097 2075 3097
Q 1594 3097 1305 2825
Q 1016 2553 972 2059
L 3022 2063
z
" transform="scale(0.015625)"/>
     </defs>
     <use xlink:href="#DejaVuSans-50"/>
     <use xlink:href="#DejaVuSans-72" transform="translate(58.552734 0)"/>
     <use xlink:href="#DejaVuSans-69" transform="translate(99.666016 0)"/>
     <use xlink:href="#DejaVuSans-6d" transform="translate(127.449219 0)"/>
     <use xlink:href="#DejaVuSans-61" transform="translate(224.861328 0)"/>
     <use xlink:href="#DejaVuSans-72" transform="translate(286.140625 0)"/>
     <use xlink:href="#DejaVuSans-79" transform="translate(327.253906 0)"/>
     <use xlink:href="#DejaVuSans-20" transform="translate(386.433594 0)"/>
     <use xlink:href="#DejaVuSans-43" transform="translate(418.220703 0)"/>
     <use xlink:href="#DejaVuSans-61" transform="translate(488.044922 0)"/>
     <use xlink:href="#DejaVuSans-72" transform="translate(549.324219 0)"/>
     <use xlink:href="#DejaVuSans-65" transform="translate(588.1875 0)"/>
    </g>
   </g>
   <g id="text_13">
    <!-- Primary Care -->
    <g style="fill: #9a9a9a" transform="translate(123.432253 191.854509) scale(0.075 -0.075)">
     <use xlink:href="#DejaVuSans-50"/>
     <use xlink:href="#DejaVuSans-72" transform="translate(58.552734 0)"/>
     <use xlink:href="#DejaVuSans-69" transform="translate(99.666016 0)"/>
     <use xlink:href="#DejaVuSans-6d" transform="translate(127.449219 0)"/>
     <use xlink:href="#DejaVuSans-61" transform="translate(224.861328 0)"/>
     <use xlink:href="#DejaVuSans-72" transform="translate(286.140625 0)"/>
     <use xlink:href="#DejaVuSans-79" transform="translate(327.253906 0)"/>
     <use xlink:href="#DejaVuSans-20" transform="translate(386.433594 0)"/>
     <use xlink:href="#DejaVuSans-43" transform="translate(418.220703 0)"/>
     <use xlink:href="#DejaVuSans-61" transform="translate(488.044922 0)"/>
     <use xlink:href="#DejaVuSans-72" transform="translate(549.324219 0)"/>
     <use xlink:href="#DejaVuSans-65" transform="translate(588.1875 0)"/>
    </g>
   </g>
   <g id="text_14">
    <!-- Primary Care -->
    <g style="fill: #9a9a9a" transform="translate(123.432253 267.589509) scale(0.075 -0.075)">
     <use xlink:href="#DejaVuSans-50"/>
     <use xlink:href="#DejaVuSans-72" transform="translate(58.552734 0)"/>
     <use xlink:href="#DejaVuSans-69" transform="translate(99.666016 0)"/>
     <use xlink:href="#DejaVuSans-6d" transform="translate(127.449219 0)"/>
     <use xlink:href="#DejaVuSans-61" transform="translate(224.861328 0)"/>
     <use xlink:href="#DejaVuSans-72" transform="translate(286.140625 0)"/>
     <use xlink:href="#DejaVuSans-79" transform="translate(327.253906 0)"/>
     <use xlink:href="#DejaVuSans-20" transform="translate(386.433594 0)"/>
     <use xlink:href="#DejaVuSans-43" transform="translate(418.220703 0)"/>
     <use xlink:href="#DejaVuSans-61" transform="translate(488.044922 0)"/>
     <use xlink:href="#DejaVuSans-72" transform="translate(549.324219 0)"/>
     <use xlink:href="#DejaVuSans-65" transform="translate(588.1875 0)"/>
    </g>
   </g>
   <g id="text_15">
    <!-- Endocrinology -->
    <g style="fill: #9a9a9a" transform="translate(264.720665 191.854509) scale(0.075 -0.075)">
     <defs>
      <path id="DejaVuSans-45" d="M 628 4666
L 3578 4666
L 3578 4134
L 1259 4134
L 1259 2753
L 3481 2753
L 3481 2222
L 1259 2222
L 1259 531
L 3634 531
L 3634 0
L 628 0
L 628 4666
z
" transform="scale(0.015625)"/>
      <path id="DejaVuSans-6e" d="M 3513 2113
L 3513 0
L 2938 0
L 2938 2094
Q 2938 2591 2744 2837
Q 2550 3084 2163 3084
Q 1697 3084 1428 2787
Q 1159 2491 1159 1978
L 1159 0
L 581 0
L 581 3500
L 1159 3500
L 1159 2956
Q 1366 3272 1645 3428
Q 1925 3584 2291 3584
Q 2894 3584 3203 3211
Q 3513 2838 3513 2113
z
" transform="scale(0.015625)"/>
      <path id="DejaVuSans-64" d="M 2906 2969
L 2906 4863
L 3481 4863
L 3481 0
L 2906 0
L 2906 525
Q 2725 213 2448 61
Q 2172 -91 1784 -91
Q 1150 -91 751 415
Q 353 922 353 1747
Q 353 2572 751 3078
Q 1150 3584 1784 3584
Q 2172 3584 2448 3432
Q 2725 3281 2906 2969
z
M 947 1747
Q 947 1113 1208 752
Q 1469 391 1925 391
Q 2381 391 2643 752
Q 2906 1113 2906 1747
Q 2906 2381 2643 2742
Q 2381 3103 1925 3103
Q 1469 3103 1208 2742
Q 947 2381 947 1747
z
" transform="scale(0.015625)"/>
      <path id="DejaVuSans-6f" d="M 1959 3097
Q 1497 3097 1228 2736
Q 959 2375 959 1747
Q 959 1119 1226 758
Q 1494 397 1959 397
Q 2419 397 2687 759
Q 2956 1122 2956 1747
Q 2956 2369 2687 2733
Q 2419 3097 1959 3097
z
M 1959 3584
Q 2709 3584 3137 3096
Q 3566 2609 3566 1747
Q 3566 888 3137 398
Q 2709 -91 1959 -91
Q 1206 -91 779 398
Q 353 888 353 1747
Q 353 2609 779 3096
Q 1206 3584 1959 3584
z
" transform="scale(0.015625)"/>
      <path id="DejaVuSans-63" d="M 3122 3366
L 3122 2828
Q 2878 2963 2633 3030
Q 2388 3097 2138 3097
Q 1578 3097 1268 2742
Q 959 2388 959 1747
Q 959 1106 1268 751
Q 1578 397 2138 397
Q 2388 397 2633 464
Q 2878 531 3122 666
L 3122 134
Q 2881 22 2623 -34
Q 2366 -91 2075 -91
Q 1284 -91 818 406
Q 353 903 353 1747
Q 353 2603 823 3093
Q 1294 3584 2113 3584
Q 2378 3584 2631 3529
Q 2884 3475 3122 3366
z
" transform="scale(0.015625)"/>
      <path id="DejaVuSans-6c" d="M 603 4863
L 1178 4863
L 1178 0
L 603 0
L 603 4863
z
" transform="scale(0.015625)"/>
      <path id="DejaVuSans-67" d="M 2906 1791
Q 2906 2416 2648 2759
Q 2391 3103 1925 3103
Q 1463 3103 1205 2759
Q 947 2416 947 1791
Q 947 1169 1205 825
Q 1463 481 1925 481
Q 2391 481 2648 825
Q 2906 1169 2906 1791
z
M 3481 434
Q 3481 -459 3084 -895
Q 2688 -1331 1869 -1331
Q 1566 -1331 1297 -1286
Q 1028 -1241 775 -1147
L 775 -588
Q 1028 -725 1275 -790
Q 1522 -856 1778 -856
Q 2344 -856 2625 -561
Q 2906 -266 2906 331
L 2906 616
Q 2728 306 2450 153
Q 2172 0 1784 0
Q 1141 0 747 490
Q 353 981 353 1791
Q 353 2603 747 3093
Q 1141 3584 1784 3584
Q 2172 3584 2450 3431
Q 2728 3278 2906 2969
L 2906 3500
L 3481 3500
L 3481 434
z
" transform="scale(0.015625)"/>
     </defs>
     <use xlink:href="#DejaVuSans-45"/>
     <use xlink:href="#DejaVuSans-6e" transform="translate(63.183594 0)"/>
     <use xlink:href="#DejaVuSans-64" transform="translate(126.5625 0)"/>
     <use xlink:href="#DejaVuSans-6f" transform="translate(190.039062 0)"/>
     <use xlink:href="#DejaVuSans-63" transform="translate(251.220703 0)"/>
     <use xlink:href="#DejaVuSans-72" transform="translate(306.201172 0)"/>
     <use xlink:href="#DejaVuSans-69" transform="translate(347.314453 0)"/>
     <use xlink:href="#DejaVuSans-6e" transform="translate(375.097656 0)"/>
     <use xlink:href="#DejaVuSans-6f" transform="translate(438.476562 0)"/>
     <use xlink:href="#DejaVuSans-6c" transform="translate(499.658203 0)"/>
     <use xlink:href="#DejaVuSans-6f" transform="translate(527.441406 0)"/>
     <use xlink:href="#DejaVuSans-67" transform="translate(588.623047 0)"/>
     <use xlink:href="#DejaVuSans-79" transform="translate(652.099609 0)"/>
    </g>
   </g>
   <g id="text_16">
    <!-- Cardiology -->
    <g style="fill: #9a9a9a" transform="translate(414.947553 156.511509) scale(0.075 -0.075)">
     <use xlink:href="#DejaVuSans-43"/>
     <use xlink:href="#DejaVuSans-61" transform="translate(69.824219 0)"/>
     <use xlink:href="#DejaVuSans-72" transform="translate(131.103516 0)"/>
     <use xlink:href="#DejaVuSans-64" transform="translate(170.466797 0)"/>
     <use xlink:href="#DejaVuSans-69" transform="translate(233.943359 0)"/>
     <use xlink:href="#DejaVuSans-6f" transform="translate(261.726562 0)"/>
     <use xlink:href="#DejaVuSans-6c" transform="translate(322.908203 0)"/>
     <use xlink:href="#DejaVuSans-6f" transform="translate(350.691406 0)"/>
     <use xlink:href="#DejaVuSans-67" transform="translate(411.873047 0)"/>
     <use xlink:href="#DejaVuSans-79" transform="translate(475.349609 0)"/>
    </g>
   </g>
   <g id="text_17">
    <!-- Cardiology -->
    <g style="fill: #9a9a9a" transform="translate(414.947553 227.197509) scale(0.075 -0.075)">
     <use xlink:href="#DejaVuSans-43"/>
     <use xlink:href="#DejaVuSans-61" transform="translate(69.824219 0)"/>
     <use xlink:href="#DejaVuSans-72" transform="translate(131.103516 0)"/>
     <use xlink:href="#DejaVuSans-64" transform="translate(170.466797 0)"/>
     <use xlink:href="#DejaVuSans-69" transform="translate(233.943359 0)"/>
     <use xlink:href="#DejaVuSans-6f" transform="translate(261.726562 0)"/>
     <use xlink:href="#DejaVuSans-6c" transform="translate(322.908203 0)"/>
     <use xlink:href="#DejaVuSans-6f" transform="translate(350.691406 0)"/>
     <use xlink:href="#DejaVuSans-67" transform="translate(411.873047 0)"/>
     <use xlink:href="#DejaVuSans-79" transform="translate(475.349609 0)"/>
    </g>
   </g>
   <g id="patch_12">
    <path d="M 85.020953 108.640095
Q 106.000288 101.473281 125.81582 94.704038
" style="fill: none; stroke: #9a9a9a; stroke-width: 1.1; stroke-linecap: round"/>
    <path d="M 122.048817 94.194437
L 125.81582 94.704038
L 123.147938 97.411879
" style="fill: none; stroke: #9a9a9a; stroke-width: 1.1; stroke-linecap: round"/>
   </g>
   <g id="text_18">
    <!-- Source HCP -->
    <g style="fill: #2f3437" transform="translate(25.681523 118.069141) scale(0.085 -0.085)">
     <defs>
      <path id="DejaVuSans-53" d="M 3425 4513
L 3425 3897
Q 3066 4069 2747 4153
Q 2428 4238 2131 4238
Q 1616 4238 1336 4038
Q 1056 3838 1056 3469
Q 1056 3159 1242 3001
Q 1428 2844 1947 2747
L 2328 2669
Q 3034 2534 3370 2195
Q 3706 1856 3706 1288
Q 3706 609 3251 259
Q 2797 -91 1919 -91
Q 1588 -91 1214 -16
Q 841 59 441 206
L 441 856
Q 825 641 1194 531
Q 1563 422 1919 422
Q 2459 422 2753 634
Q 3047 847 3047 1241
Q 3047 1584 2836 1778
Q 2625 1972 2144 2069
L 1759 2144
Q 1053 2284 737 2584
Q 422 2884 422 3419
Q 422 4038 858 4394
Q 1294 4750 2059 4750
Q 2388 4750 2728 4690
Q 3069 4631 3425 4513
z
" transform="scale(0.015625)"/>
      <path id="DejaVuSans-75" d="M 544 1381
L 544 3500
L 1119 3500
L 1119 1403
Q 1119 906 1312 657
Q 1506 409 1894 409
Q 2359 409 2629 706
Q 2900 1003 2900 1516
L 2900 3500
L 3475 3500
L 3475 0
L 2900 0
L 2900 538
Q 2691 219 2414 64
Q 2138 -91 1772 -91
Q 1169 -91 856 284
Q 544 659 544 1381
z
M 1991 3584
L 1991 3584
z
" transform="scale(0.015625)"/>
      <path id="DejaVuSans-48" d="M 628 4666
L 1259 4666
L 1259 2753
L 3553 2753
L 3553 4666
L 4184 4666
L 4184 0
L 3553 0
L 3553 2222
L 1259 2222
L 1259 0
L 628 0
L 628 4666
z
" transform="scale(0.015625)"/>
     </defs>
     <use xlink:href="#DejaVuSans-53"/>
     <use xlink:href="#DejaVuSans-6f" transform="translate(63.476562 0)"/>
     <use xlink:href="#DejaVuSans-75" transform="translate(124.658203 0)"/>
     <use xlink:href="#DejaVuSans-72" transform="translate(188.037109 0)"/>
     <use xlink:href="#DejaVuSans-63" transform="translate(226.900391 0)"/>
     <use xlink:href="#DejaVuSans-65" transform="translate(281.880859 0)"/>
     <use xlink:href="#DejaVuSans-20" transform="translate(343.404297 0)"/>
     <use xlink:href="#DejaVuSans-48" transform="translate(375.191406 0)"/>
     <use xlink:href="#DejaVuSans-43" transform="translate(450.386719 0)"/>
     <use xlink:href="#DejaVuSans-50" transform="translate(520.210938 0)"/>
    </g>
    <!-- (referring physician) -->
    <g style="fill: #2f3437" transform="translate(7.2 127.587281) scale(0.085 -0.085)">
     <defs>
      <path id="DejaVuSans-28" d="M 1984 4856
Q 1566 4138 1362 3434
Q 1159 2731 1159 2009
Q 1159 1288 1364 580
Q 1569 -128 1984 -844
L 1484 -844
Q 1016 -109 783 600
Q 550 1309 550 2009
Q 550 2706 781 3412
Q 1013 4119 1484 4856
L 1984 4856
z
" transform="scale(0.015625)"/>
      <path id="DejaVuSans-66" d="M 2375 4863
L 2375 4384
L 1825 4384
Q 1516 4384 1395 4259
Q 1275 4134 1275 3809
L 1275 3500
L 2222 3500
L 2222 3053
L 1275 3053
L 1275 0
L 697 0
L 697 3053
L 147 3053
L 147 3500
L 697 3500
L 697 3744
Q 697 4328 969 4595
Q 1241 4863 1831 4863
L 2375 4863
z
" transform="scale(0.015625)"/>
      <path id="DejaVuSans-68" d="M 3513 2113
L 3513 0
L 2938 0
L 2938 2094
Q 2938 2591 2744 2837
Q 2550 3084 2163 3084
Q 1697 3084 1428 2787
Q 1159 2491 1159 1978
L 1159 0
L 581 0
L 581 4863
L 1159 4863
L 1159 2956
Q 1366 3272 1645 3428
Q 1925 3584 2291 3584
Q 2894 3584 3203 3211
Q 3513 2838 3513 2113
z
" transform="scale(0.015625)"/>
      <path id="DejaVuSans-29" d="M 513 4856
L 1013 4856
Q 1481 4119 1714 3412
Q 1947 2706 1947 2009
Q 1947 1309 1714 600
Q 1481 -109 1013 -844
L 513 -844
Q 928 -128 1133 580
Q 1338 1288 1338 2009
Q 1338 2731 1133 3434
Q 928 4138 513 4856
z
" transform="scale(0.015625)"/>
     </defs>
     <use xlink:href="#DejaVuSans-28"/>
     <use xlink:href="#DejaVuSans-72" transform="translate(39.013672 0)"/>
     <use xlink:href="#DejaVuSans-65" transform="translate(77.876953 0)"/>
     <use xlink:href="#DejaVuSans-66" transform="translate(139.400391 0)"/>
     <use xlink:href="#DejaVuSans-65" transform="translate(174.605469 0)"/>
     <use xlink:href="#DejaVuSans-72" transform="translate(236.128906 0)"/>
     <use xlink:href="#DejaVuSans-72" transform="translate(275.492188 0)"/>
     <use xlink:href="#DejaVuSans-69" transform="translate(316.605469 0)"/>
     <use xlink:href="#DejaVuSans-6e" transform="translate(344.388672 0)"/>
     <use xlink:href="#DejaVuSans-67" transform="translate(407.767578 0)"/>
     <use xlink:href="#DejaVuSans-20" transform="translate(471.244141 0)"/>
     <use xlink:href="#DejaVuSans-70" transform="translate(503.03125 0)"/>
     <use xlink:href="#DejaVuSans-68" transform="translate(566.507812 0)"/>
     <use xlink:href="#DejaVuSans-79" transform="translate(629.886719 0)"/>
     <use xlink:href="#DejaVuSans-73" transform="translate(689.066406 0)"/>
     <use xlink:href="#DejaVuSans-69" transform="translate(741.166016 0)"/>
     <use xlink:href="#DejaVuSans-63" transform="translate(768.949219 0)"/>
     <use xlink:href="#DejaVuSans-69" transform="translate(823.929688 0)"/>
     <use xlink:href="#DejaVuSans-61" transform="translate(851.712891 0)"/>
     <use xlink:href="#DejaVuSans-6e" transform="translate(912.992188 0)"/>
     <use xlink:href="#DejaVuSans-29" transform="translate(976.371094 0)"/>
    </g>
   </g>
   <g id="patch_13">
    <path d="M 325.306921 81.341349
Q 326.73056 115.593785 328.103127 148.617445
" style="fill: none; stroke: #9a9a9a; stroke-width: 1.1; stroke-linecap: round"/>
    <path d="M 329.660468 145.149782
L 328.103127 148.617445
L 326.263401 145.290975
" style="fill: none; stroke: #9a9a9a; stroke-width: 1.1; stroke-linecap: round"/>
   </g>
   <g id="text_19">
    <!-- Directed edge -->
    <g style="fill: #2f3437" transform="translate(294.717342 65.054641) scale(0.085 -0.085)">
     <defs>
      <path id="DejaVuSans-44" d="M 1259 4147
L 1259 519
L 2022 519
Q 2988 519 3436 956
Q 3884 1394 3884 2338
Q 3884 3275 3436 3711
Q 2988 4147 2022 4147
L 1259 4147
z
M 628 4666
L 1925 4666
Q 3281 4666 3915 4102
Q 4550 3538 4550 2338
Q 4550 1131 3912 565
Q 3275 0 1925 0
L 628 0
L 628 4666
z
" transform="scale(0.015625)"/>
     </defs>
     <use xlink:href="#DejaVuSans-44"/>
     <use xlink:href="#DejaVuSans-69" transform="translate(77.001953 0)"/>
     <use xlink:href="#DejaVuSans-72" transform="translate(104.785156 0)"/>
     <use xlink:href="#DejaVuSans-65" transform="translate(143.648438 0)"/>
     <use xlink:href="#DejaVuSans-63" transform="translate(205.171875 0)"/>
     <use xlink:href="#DejaVuSans-74" transform="translate(260.152344 0)"/>
     <use xlink:href="#DejaVuSans-65" transform="translate(299.361328 0)"/>
     <use xlink:href="#DejaVuSans-64" transform="translate(360.884766 0)"/>
     <use xlink:href="#DejaVuSans-20" transform="translate(424.361328 0)"/>
     <use xlink:href="#DejaVuSans-65" transform="translate(456.148438 0)"/>
     <use xlink:href="#DejaVuSans-64" transform="translate(517.671875 0)"/>
     <use xlink:href="#DejaVuSans-67" transform="translate(581.148438 0)"/>
     <use xlink:href="#DejaVuSans-65" transform="translate(644.625 0)"/>
    </g>
    <!-- (arrows show patient flow) -->
    <g style="fill: #2f3437" transform="translate(268.282342 74.572781) scale(0.085 -0.085)">
     <defs>
      <path id="DejaVuSans-77" d="M 269 3500
L 844 3500
L 1563 769
L 2278 3500
L 2956 3500
L 3675 769
L 4391 3500
L 4966 3500
L 4050 0
L 3372 0
L 2619 2869
L 1863 0
L 1184 0
L 269 3500
z
" transform="scale(0.015625)"/>
     </defs>
     <use xlink:href="#DejaVuSans-28"/>
     <use xlink:href="#DejaVuSans-61" transform="translate(39.013672 0)"/>
     <use xlink:href="#DejaVuSans-72" transform="translate(100.292969 0)"/>
     <use xlink:href="#DejaVuSans-72" transform="translate(139.65625 0)"/>
     <use xlink:href="#DejaVuSans-6f" transform="translate(178.519531 0)"/>
     <use xlink:href="#DejaVuSans-77" transform="translate(239.701172 0)"/>
     <use xlink:href="#DejaVuSans-73" transform="translate(321.488281 0)"/>
     <use xlink:href="#DejaVuSans-20" transform="translate(373.587891 0)"/>
     <use xlink:href="#DejaVuSans-73" transform="translate(405.375 0)"/>
     <use xlink:href="#DejaVuSans-68" transform="translate(457.474609 0)"/>
     <use xlink:href="#DejaVuSans-6f" transform="translate(520.853516 0)"/>
     <use xlink:href="#DejaVuSans-77" transform="translate(582.035156 0)"/>
     <use xlink:href="#DejaVuSans-20" transform="translate(663.822266 0)"/>
     <use xlink:href="#DejaVuSans-70" transform="translate(695.609375 0)"/>
     <use xlink:href="#DejaVuSans-61" transform="translate(759.085938 0)"/>
     <use xlink:href="#DejaVuSans-74" transform="translate(820.365234 0)"/>
     <use xlink:href="#DejaVuSans-69" transform="translate(859.574219 0)"/>
     <use xlink:href="#DejaVuSans-65" transform="translate(887.357422 0)"/>
     <use xlink:href="#DejaVuSans-6e" transform="translate(948.880859 0)"/>
     <use xlink:href="#DejaVuSans-74" transform="translate(1012.259766 0)"/>
     <use xlink:href="#DejaVuSans-20" transform="translate(1051.46875 0)"/>
     <use xlink:href="#DejaVuSans-66" transform="translate(1083.255859 0)"/>
     <use xlink:href="#DejaVuSans-6c" transform="translate(1118.460938 0)"/>
     <use xlink:href="#DejaVuSans-6f" transform="translate(1146.244141 0)"/>
     <use xlink:href="#DejaVuSans-77" transform="translate(1207.425781 0)"/>
     <use xlink:href="#DejaVuSans-29" transform="translate(1289.212891 0)"/>
    </g>
   </g>
   <g id="patch_14">
    <path d="M 205.796475 56.09078
Q 203.861799 83.531656 202.013616 109.74574
" style="fill: none; stroke: #9a9a9a; stroke-width: 1.1; stroke-linecap: round"/>
    <path d="M 203.948525 106.473718
L 202.013616 109.74574
L 200.556944 106.234599
" style="fill: none; stroke: #9a9a9a; stroke-width: 1.1; stroke-linecap: round"/>
   </g>
   <g id="text_20">
    <!-- Edge width ∝ -->
    <g style="fill: #2f3437" transform="translate(178.625902 39.809641) scale(0.085 -0.085)">
     <defs>
      <path id="DejaVuSans-221d" d="M 1647 1134
Q 2163 1134 2472 1884
Q 2075 2703 1647 2703
Q 1334 2703 1175 2478
Q 1006 2238 1006 1919
Q 1006 1569 1175 1353
Q 1350 1134 1647 1134
z
M 3884 1128
L 3884 716
L 3644 716
Q 3416 716 3247 809
Q 3078 894 2916 1091
Q 2819 1203 2666 1466
Q 2456 1091 2272 925
Q 2044 725 1681 725
Q 1259 725 981 1041
Q 688 1372 688 1919
Q 688 2444 981 2800
Q 1241 3116 1688 3116
Q 1916 3116 2084 3022
Q 2281 2919 2416 2741
Q 2541 2581 2666 2366
Q 2875 2741 3059 2906
Q 3288 3106 3650 3106
L 3884 3106
L 3884 2697
L 3684 2697
Q 3222 2697 2859 1947
Q 3256 1128 3684 1128
L 3884 1128
z
" transform="scale(0.015625)"/>
     </defs>
     <use xlink:href="#DejaVuSans-45"/>
     <use xlink:href="#DejaVuSans-64" transform="translate(63.183594 0)"/>
     <use xlink:href="#DejaVuSans-67" transform="translate(126.660156 0)"/>
     <use xlink:href="#DejaVuSans-65" transform="translate(190.136719 0)"/>
     <use xlink:href="#DejaVuSans-20" transform="translate(251.660156 0)"/>
     <use xlink:href="#DejaVuSans-77" transform="translate(283.447266 0)"/>
     <use xlink:href="#DejaVuSans-69" transform="translate(365.234375 0)"/>
     <use xlink:href="#DejaVuSans-64" transform="translate(393.017578 0)"/>
     <use xlink:href="#DejaVuSans-74" transform="translate(456.494141 0)"/>
     <use xlink:href="#DejaVuSans-68" transform="translate(495.703125 0)"/>
     <use xlink:href="#DejaVuSans-20" transform="translate(559.082031 0)"/>
     <use xlink:href="#DejaVuSans-221d" transform="translate(590.869141 0)"/>
    </g>
    <!-- unique patients referred -->
    <g style="fill: #2f3437" transform="translate(155.145316 49.327781) scale(0.085 -0.085)">
     <defs>
      <path id="DejaVuSans-71" d="M 947 1747
Q 947 1113 1208 752
Q 1469 391 1925 391
Q 2381 391 2643 752
Q 2906 1113 2906 1747
Q 2906 2381 2643 2742
Q 2381 3103 1925 3103
Q 1469 3103 1208 2742
Q 947 2381 947 1747
z
M 2906 525
Q 2725 213 2448 61
Q 2172 -91 1784 -91
Q 1150 -91 751 415
Q 353 922 353 1747
Q 353 2572 751 3078
Q 1150 3584 1784 3584
Q 2172 3584 2448 3432
Q 2725 3281 2906 2969
L 2906 3500
L 3481 3500
L 3481 -1331
L 2906 -1331
L 2906 525
z
" transform="scale(0.015625)"/>
     </defs>
     <use xlink:href="#DejaVuSans-75"/>
     <use xlink:href="#DejaVuSans-6e" transform="translate(63.378906 0)"/>
     <use xlink:href="#DejaVuSans-69" transform="translate(126.757812 0)"/>
     <use xlink:href="#DejaVuSans-71" transform="translate(154.541016 0)"/>
     <use xlink:href="#DejaVuSans-75" transform="translate(218.017578 0)"/>
     <use xlink:href="#DejaVuSans-65" transform="translate(281.396484 0)"/>
     <use xlink:href="#DejaVuSans-20" transform="translate(342.919922 0)"/>
     <use xlink:href="#DejaVuSans-70" transform="translate(374.707031 0)"/>
     <use xlink:href="#DejaVuSans-61" transform="translate(438.183594 0)"/>
     <use xlink:href="#DejaVuSans-74" transform="translate(499.462891 0)"/>
     <use xlink:href="#DejaVuSans-69" transform="translate(538.671875 0)"/>
     <use xlink:href="#DejaVuSans-65" transform="translate(566.455078 0)"/>
     <use xlink:href="#DejaVuSans-6e" transform="translate(627.978516 0)"/>
     <use xlink:href="#DejaVuSans-74" transform="translate(691.357422 0)"/>
     <use xlink:href="#DejaVuSans-73" transform="translate(730.566406 0)"/>
     <use xlink:href="#DejaVuSans-20" transform="translate(782.666016 0)"/>
     <use xlink:href="#DejaVuSans-72" transform="translate(814.453125 0)"/>
     <use xlink:href="#DejaVuSans-65" transform="translate(853.316406 0)"/>
     <use xlink:href="#DejaVuSans-66" transform="translate(914.839844 0)"/>
     <use xlink:href="#DejaVuSans-65" transform="translate(950.044922 0)"/>
     <use xlink:href="#DejaVuSans-72" transform="translate(1011.568359 0)"/>
     <use xlink:href="#DejaVuSans-72" transform="translate(1050.931641 0)"/>
     <use xlink:href="#DejaVuSans-65" transform="translate(1089.794922 0)"/>
     <use xlink:href="#DejaVuSans-64" transform="translate(1151.318359 0)"/>
    </g>
   </g>
   <g id="patch_15">
    <path d="M 305.433277 210.842629
Q 299.260703 203.353527 296.21149 195.774528
" style="fill: none; stroke: #9a9a9a; stroke-width: 1.1; stroke-linecap: round"/>
    <path d="M 295.903392 199.563337
L 296.21149 195.774528
L 299.057679 198.294292
" style="fill: none; stroke: #9a9a9a; stroke-width: 1.1; stroke-linecap: round"/>
   </g>
   <g id="text_21">
    <!-- High betweenness centrality: -->
    <g style="fill: #2f3437" transform="translate(257.687252 221.573641) scale(0.085 -0.085)">
     <defs>
      <path id="DejaVuSans-62" d="M 3116 1747
Q 3116 2381 2855 2742
Q 2594 3103 2138 3103
Q 1681 3103 1420 2742
Q 1159 2381 1159 1747
Q 1159 1113 1420 752
Q 1681 391 2138 391
Q 2594 391 2855 752
Q 3116 1113 3116 1747
z
M 1159 2969
Q 1341 3281 1617 3432
Q 1894 3584 2278 3584
Q 2916 3584 3314 3078
Q 3713 2572 3713 1747
Q 3713 922 3314 415
Q 2916 -91 2278 -91
Q 1894 -91 1617 61
Q 1341 213 1159 525
L 1159 0
L 581 0
L 581 4863
L 1159 4863
L 1159 2969
z
" transform="scale(0.015625)"/>
      <path id="DejaVuSans-3a" d="M 750 794
L 1409 794
L 1409 0
L 750 0
L 750 794
z
M 750 3309
L 1409 3309
L 1409 2516
L 750 2516
L 750 3309
z
" transform="scale(0.015625)"/>
     </defs>
     <use xlink:href="#DejaVuSans-48"/>
     <use xlink:href="#DejaVuSans-69" transform="translate(75.195312 0)"/>
     <use xlink:href="#DejaVuSans-67" transform="translate(102.978516 0)"/>
     <use xlink:href="#DejaVuSans-68" transform="translate(166.455078 0)"/>
     <use xlink:href="#DejaVuSans-20" transform="translate(229.833984 0)"/>
     <use xlink:href="#DejaVuSans-62" transform="translate(261.621094 0)"/>
     <use xlink:href="#DejaVuSans-65" transform="translate(325.097656 0)"/>
     <use xlink:href="#DejaVuSans-74" transform="translate(386.621094 0)"/>
     <use xlink:href="#DejaVuSans-77" transform="translate(425.830078 0)"/>
     <use xlink:href="#DejaVuSans-65" transform="translate(507.617188 0)"/>
     <use xlink:href="#DejaVuSans-65" transform="translate(569.140625 0)"/>
     <use xlink:href="#DejaVuSans-6e" transform="translate(630.664062 0)"/>
     <use xlink:href="#DejaVuSans-6e" transform="translate(694.042969 0)"/>
     <use xlink:href="#DejaVuSans-65" transform="translate(757.421875 0)"/>
     <use xlink:href="#DejaVuSans-73" transform="translate(818.945312 0)"/>
     <use xlink:href="#DejaVuSans-73" transform="translate(871.044922 0)"/>
     <use xlink:href="#DejaVuSans-20" transform="translate(923.144531 0)"/>
     <use xlink:href="#DejaVuSans-63" transform="translate(954.931641 0)"/>
     <use xlink:href="#DejaVuSans-65" transform="translate(1009.912109 0)"/>
     <use xlink:href="#DejaVuSans-6e" transform="translate(1071.435547 0)"/>
     <use xlink:href="#DejaVuSans-74" transform="translate(1134.814453 0)"/>
     <use xlink:href="#DejaVuSans-72" transform="translate(1174.023438 0)"/>
     <use xlink:href="#DejaVuSans-61" transform="translate(1215.136719 0)"/>
     <use xlink:href="#DejaVuSans-6c" transform="translate(1276.416016 0)"/>
     <use xlink:href="#DejaVuSans-69" transform="translate(1304.199219 0)"/>
     <use xlink:href="#DejaVuSans-74" transform="translate(1331.982422 0)"/>
     <use xlink:href="#DejaVuSans-79" transform="translate(1371.191406 0)"/>
     <use xlink:href="#DejaVuSans-3a" transform="translate(1423.121094 0)"/>
    </g>
    <!-- bridges multiple source pathways -->
    <g style="fill: #2f3437" transform="translate(247.760846 231.091781) scale(0.085 -0.085)">
     <use xlink:href="#DejaVuSans-62"/>
     <use xlink:href="#DejaVuSans-72" transform="translate(63.476562 0)"/>
     <use xlink:href="#DejaVuSans-69" transform="translate(104.589844 0)"/>
     <use xlink:href="#DejaVuSans-64" transform="translate(132.373047 0)"/>
     <use xlink:href="#DejaVuSans-67" transform="translate(195.849609 0)"/>
     <use xlink:href="#DejaVuSans-65" transform="translate(259.326172 0)"/>
     <use xlink:href="#DejaVuSans-73" transform="translate(320.849609 0)"/>
     <use xlink:href="#DejaVuSans-20" transform="translate(372.949219 0)"/>
     <use xlink:href="#DejaVuSans-6d" transform="translate(404.736328 0)"/>
     <use xlink:href="#DejaVuSans-75" transform="translate(502.148438 0)"/>
     <use xlink:href="#DejaVuSans-6c" transform="translate(565.527344 0)"/>
     <use xlink:href="#DejaVuSans-74" transform="translate(593.310547 0)"/>
     <use xlink:href="#DejaVuSans-69" transform="translate(632.519531 0)"/>
     <use xlink:href="#DejaVuSans-70" transform="translate(660.302734 0)"/>
     <use xlink:href="#DejaVuSans-6c" transform="translate(723.779297 0)"/>
     <use xlink:href="#DejaVuSans-65" transform="translate(751.5625 0)"/>
     <use xlink:href="#DejaVuSans-20" transform="translate(813.085938 0)"/>
     <use xlink:href="#DejaVuSans-73" transform="translate(844.873047 0)"/>
     <use xlink:href="#DejaVuSans-6f" transform="translate(896.972656 0)"/>
     <use xlink:href="#DejaVuSans-75" transform="translate(958.154297 0)"/>
     <use xlink:href="#DejaVuSans-72" transform="translate(1021.533203 0)"/>
     <use xlink:href="#DejaVuSans-63" transform="translate(1060.396484 0)"/>
     <use xlink:href="#DejaVuSans-65" transform="translate(1115.376953 0)"/>
     <use xlink:href="#DejaVuSans-20" transform="translate(1176.900391 0)"/>
     <use xlink:href="#DejaVuSans-70" transform="translate(1208.6875 0)"/>
     <use xlink:href="#DejaVuSans-61" transform="translate(1272.164062 0)"/>
     <use xlink:href="#DejaVuSans-74" transform="translate(1333.443359 0)"/>
     <use xlink:href="#DejaVuSans-68" transform="translate(1372.652344 0)"/>
     <use xlink:href="#DejaVuSans-77" transform="translate(1436.03125 0)"/>
     <use xlink:href="#DejaVuSans-61" transform="translate(1517.818359 0)"/>
     <use xlink:href="#DejaVuSans-79" transform="translate(1579.097656 0)"/>
     <use xlink:href="#DejaVuSans-73" transform="translate(1638.277344 0)"/>
    </g>
   </g>
   <g id="patch_16">
    <path d="M 515.585782 82.333872
Q 484.880444 99.575272 455.247455 116.214535
" style="fill: none; stroke: #9a9a9a; stroke-width: 1.1; stroke-linecap: round"/>
    <path d="M 459.044394 116.032178
L 455.247455 116.214535
L 457.379733 113.06757
" style="fill: none; stroke: #9a9a9a; stroke-width: 1.1; stroke-linecap: round"/>
   </g>
   <g id="text_22">
    <!-- Destination HCP -->
    <g style="fill: #2f3437" transform="translate(503.100013 67.579141) scale(0.085 -0.085)">
     <use xlink:href="#DejaVuSans-44"/>
     <use xlink:href="#DejaVuSans-65" transform="translate(77.001953 0)"/>
     <use xlink:href="#DejaVuSans-73" transform="translate(138.525391 0)"/>
     <use xlink:href="#DejaVuSans-74" transform="translate(190.625 0)"/>
     <use xlink:href="#DejaVuSans-69" transform="translate(229.833984 0)"/>
     <use xlink:href="#DejaVuSans-6e" transform="translate(257.617188 0)"/>
     <use xlink:href="#DejaVuSans-61" transform="translate(320.996094 0)"/>
     <use xlink:href="#DejaVuSans-74" transform="translate(382.275391 0)"/>
     <use xlink:href="#DejaVuSans-69" transform="translate(421.484375 0)"/>
     <use xlink:href="#DejaVuSans-6f" transform="translate(449.267578 0)"/>
     <use xlink:href="#DejaVuSans-6e" transform="translate(510.449219 0)"/>
     <use xlink:href="#DejaVuSans-20" transform="translate(573.828125 0)"/>
     <use xlink:href="#DejaVuSans-48" transform="translate(605.615234 0)"/>
     <use xlink:href="#DejaVuSans-43" transform="translate(680.810547 0)"/>
     <use xlink:href="#DejaVuSans-50" transform="translate(750.634766 0)"/>
    </g>
    <!-- (receiving physician) -->
    <g style="fill: #2f3437" transform="translate(493.293138 77.097281) scale(0.085 -0.085)">
     <defs>
      <path id="DejaVuSans-76" d="M 191 3500
L 800 3500
L 1894 563
L 2988 3500
L 3597 3500
L 2284 0
L 1503 0
L 191 3500
z
" transform="scale(0.015625)"/>
     </defs>
     <use xlink:href="#DejaVuSans-28"/>
     <use xlink:href="#DejaVuSans-72" transform="translate(39.013672 0)"/>
     <use xlink:href="#DejaVuSans-65" transform="translate(77.876953 0)"/>
     <use xlink:href="#DejaVuSans-63" transform="translate(139.400391 0)"/>
     <use xlink:href="#DejaVuSans-65" transform="translate(194.380859 0)"/>
     <use xlink:href="#DejaVuSans-69" transform="translate(255.904297 0)"/>
     <use xlink:href="#DejaVuSans-76" transform="translate(283.6875 0)"/>
     <use xlink:href="#DejaVuSans-69" transform="translate(342.867188 0)"/>
     <use xlink:href="#DejaVuSans-6e" transform="translate(370.650391 0)"/>
     <use xlink:href="#DejaVuSans-67" transform="translate(434.029297 0)"/>
     <use xlink:href="#DejaVuSans-20" transform="translate(497.505859 0)"/>
     <use xlink:href="#DejaVuSans-70" transform="translate(529.292969 0)"/>
     <use xlink:href="#DejaVuSans-68" transform="translate(592.769531 0)"/>
     <use xlink:href="#DejaVuSans-79" transform="translate(656.148438 0)"/>
     <use xlink:href="#DejaVuSans-73" transform="translate(715.328125 0)"/>
     <use xlink:href="#DejaVuSans-69" transform="translate(767.427734 0)"/>
     <use xlink:href="#DejaVuSans-63" transform="translate(795.210938 0)"/>
     <use xlink:href="#DejaVuSans-69" transform="translate(850.191406 0)"/>
     <use xlink:href="#DejaVuSans-61" transform="translate(877.974609 0)"/>
     <use xlink:href="#DejaVuSans-6e" transform="translate(939.253906 0)"/>
     <use xlink:href="#DejaVuSans-29" transform="translate(1002.632812 0)"/>
    </g>
   </g>
   <g id="text_23">
    <!-- Referral Graph Concepts: Directed Edge, Patient Count, Betweenness Centrality -->
    <g transform="translate(42.843008 15.558281) scale(0.11 -0.11)">
     <defs>
      <path id="DejaVuSans-Bold-52" d="M 2297 2597
Q 2675 2597 2839 2737
Q 3003 2878 3003 3200
Q 3003 3519 2839 3656
Q 2675 3794 2297 3794
L 1791 3794
L 1791 2597
L 2297 2597
z
M 1791 1766
L 1791 0
L 588 0
L 588 4666
L 2425 4666
Q 3347 4666 3776 4356
Q 4206 4047 4206 3378
Q 4206 2916 3982 2619
Q 3759 2322 3309 2181
Q 3556 2125 3751 1926
Q 3947 1728 4147 1325
L 4800 0
L 3519 0
L 2950 1159
Q 2778 1509 2601 1637
Q 2425 1766 2131 1766
L 1791 1766
z
" transform="scale(0.015625)"/>
      <path id="DejaVuSans-Bold-65" d="M 4031 1759
L 4031 1441
L 1416 1441
Q 1456 1047 1700 850
Q 1944 653 2381 653
Q 2734 653 3104 758
Q 3475 863 3866 1075
L 3866 213
Q 3469 63 3072 -14
Q 2675 -91 2278 -91
Q 1328 -91 801 392
Q 275 875 275 1747
Q 275 2603 792 3093
Q 1309 3584 2216 3584
Q 3041 3584 3536 3087
Q 4031 2591 4031 1759
z
M 2881 2131
Q 2881 2450 2695 2645
Q 2509 2841 2209 2841
Q 1884 2841 1681 2658
Q 1478 2475 1428 2131
L 2881 2131
z
" transform="scale(0.015625)"/>
      <path id="DejaVuSans-Bold-66" d="M 2841 4863
L 2841 4128
L 2222 4128
Q 1984 4128 1890 4042
Q 1797 3956 1797 3744
L 1797 3500
L 2753 3500
L 2753 2700
L 1797 2700
L 1797 0
L 678 0
L 678 2700
L 122 2700
L 122 3500
L 678 3500
L 678 3744
Q 678 4316 997 4589
Q 1316 4863 1984 4863
L 2841 4863
z
" transform="scale(0.015625)"/>
      <path id="DejaVuSans-Bold-72" d="M 3138 2547
Q 2991 2616 2845 2648
Q 2700 2681 2553 2681
Q 2122 2681 1889 2404
Q 1656 2128 1656 1613
L 1656 0
L 538 0
L 538 3500
L 1656 3500
L 1656 2925
Q 1872 3269 2151 3426
Q 2431 3584 2822 3584
Q 2878 3584 2943 3579
Q 3009 3575 3134 3559
L 3138 2547
z
" transform="scale(0.015625)"/>
      <path id="DejaVuSans-Bold-61" d="M 2106 1575
Q 1756 1575 1579 1456
Q 1403 1338 1403 1106
Q 1403 894 1545 773
Q 1688 653 1941 653
Q 2256 653 2472 879
Q 2688 1106 2688 1447
L 2688 1575
L 2106 1575
z
M 3816 1997
L 3816 0
L 2688 0
L 2688 519
Q 2463 200 2181 54
Q 1900 -91 1497 -91
Q 953 -91 614 226
Q 275 544 275 1050
Q 275 1666 698 1953
Q 1122 2241 2028 2241
L 2688 2241
L 2688 2328
Q 2688 2594 2478 2717
Q 2269 2841 1825 2841
Q 1466 2841 1156 2769
Q 847 2697 581 2553
L 581 3406
Q 941 3494 1303 3539
Q 1666 3584 2028 3584
Q 2975 3584 3395 3211
Q 3816 2838 3816 1997
z
" transform="scale(0.015625)"/>
      <path id="DejaVuSans-Bold-6c" d="M 538 4863
L 1656 4863
L 1656 0
L 538 0
L 538 4863
z
" transform="scale(0.015625)"/>
      <path id="DejaVuSans-Bold-20" transform="scale(0.015625)"/>
      <path id="DejaVuSans-Bold-47" d="M 4781 347
Q 4331 128 3847 18
Q 3363 -91 2847 -91
Q 1681 -91 1000 561
Q 319 1213 319 2328
Q 319 3456 1012 4103
Q 1706 4750 2913 4750
Q 3378 4750 3804 4662
Q 4231 4575 4609 4403
L 4609 3438
Q 4219 3659 3833 3768
Q 3447 3878 3059 3878
Q 2341 3878 1952 3476
Q 1563 3075 1563 2328
Q 1563 1588 1938 1184
Q 2313 781 3003 781
Q 3191 781 3352 804
Q 3513 828 3641 878
L 3641 1784
L 2906 1784
L 2906 2591
L 4781 2591
L 4781 347
z
" transform="scale(0.015625)"/>
      <path id="DejaVuSans-Bold-70" d="M 1656 506
L 1656 -1331
L 538 -1331
L 538 3500
L 1656 3500
L 1656 2988
Q 1888 3294 2169 3439
Q 2450 3584 2816 3584
Q 3463 3584 3878 3070
Q 4294 2556 4294 1747
Q 4294 938 3878 423
Q 3463 -91 2816 -91
Q 2450 -91 2169 54
Q 1888 200 1656 506
z
M 2400 2772
Q 2041 2772 1848 2508
Q 1656 2244 1656 1747
Q 1656 1250 1848 986
Q 2041 722 2400 722
Q 2759 722 2948 984
Q 3138 1247 3138 1747
Q 3138 2247 2948 2509
Q 2759 2772 2400 2772
z
" transform="scale(0.015625)"/>
      <path id="DejaVuSans-Bold-68" d="M 4056 2131
L 4056 0
L 2931 0
L 2931 347
L 2931 1625
Q 2931 2084 2911 2256
Q 2891 2428 2841 2509
Q 2775 2619 2662 2680
Q 2550 2741 2406 2741
Q 2056 2741 1856 2470
Q 1656 2200 1656 1722
L 1656 0
L 538 0
L 538 4863
L 1656 4863
L 1656 2988
Q 1909 3294 2193 3439
Q 2478 3584 2822 3584
Q 3428 3584 3742 3212
Q 4056 2841 4056 2131
z
" transform="scale(0.015625)"/>
      <path id="DejaVuSans-Bold-6f" d="M 2203 2784
Q 1831 2784 1636 2517
Q 1441 2250 1441 1747
Q 1441 1244 1636 976
Q 1831 709 2203 709
Q 2569 709 2762 976
Q 2956 1244 2956 1747
Q 2956 2250 2762 2517
Q 2569 2784 2203 2784
z
M 2203 3584
Q 3106 3584 3614 3096
Q 4122 2609 4122 1747
Q 4122 884 3614 396
Q 3106 -91 2203 -91
Q 1297 -91 786 396
Q 275 884 275 1747
Q 275 2609 786 3096
Q 1297 3584 2203 3584
z
" transform="scale(0.015625)"/>
      <path id="DejaVuSans-Bold-6e" d="M 4056 2131
L 4056 0
L 2931 0
L 2931 347
L 2931 1631
Q 2931 2084 2911 2256
Q 2891 2428 2841 2509
Q 2775 2619 2662 2680
Q 2550 2741 2406 2741
Q 2056 2741 1856 2470
Q 1656 2200 1656 1722
L 1656 0
L 538 0
L 538 3500
L 1656 3500
L 1656 2988
Q 1909 3294 2193 3439
Q 2478 3584 2822 3584
Q 3428 3584 3742 3212
Q 4056 2841 4056 2131
z
" transform="scale(0.015625)"/>
      <path id="DejaVuSans-Bold-63" d="M 3366 3391
L 3366 2478
Q 3138 2634 2908 2709
Q 2678 2784 2431 2784
Q 1963 2784 1702 2511
Q 1441 2238 1441 1747
Q 1441 1256 1702 982
Q 1963 709 2431 709
Q 2694 709 2930 787
Q 3166 866 3366 1019
L 3366 103
Q 3103 6 2833 -42
Q 2563 -91 2291 -91
Q 1344 -91 809 395
Q 275 881 275 1747
Q 275 2613 809 3098
Q 1344 3584 2291 3584
Q 2566 3584 2833 3536
Q 3100 3488 3366 3391
z
" transform="scale(0.015625)"/>
      <path id="DejaVuSans-Bold-74" d="M 1759 4494
L 1759 3500
L 2913 3500
L 2913 2700
L 1759 2700
L 1759 1216
Q 1759 972 1856 886
Q 1953 800 2241 800
L 2816 800
L 2816 0
L 1856 0
Q 1194 0 917 276
Q 641 553 641 1216
L 641 2700
L 84 2700
L 84 3500
L 641 3500
L 641 4494
L 1759 4494
z
" transform="scale(0.015625)"/>
      <path id="DejaVuSans-Bold-73" d="M 3272 3391
L 3272 2541
Q 2913 2691 2578 2766
Q 2244 2841 1947 2841
Q 1628 2841 1473 2761
Q 1319 2681 1319 2516
Q 1319 2381 1436 2309
Q 1553 2238 1856 2203
L 2053 2175
Q 2913 2066 3209 1816
Q 3506 1566 3506 1031
Q 3506 472 3093 190
Q 2681 -91 1863 -91
Q 1516 -91 1145 -36
Q 775 19 384 128
L 384 978
Q 719 816 1070 734
Q 1422 653 1784 653
Q 2113 653 2278 743
Q 2444 834 2444 1013
Q 2444 1163 2330 1236
Q 2216 1309 1875 1350
L 1678 1375
Q 931 1469 631 1722
Q 331 1975 331 2491
Q 331 3047 712 3315
Q 1094 3584 1881 3584
Q 2191 3584 2531 3537
Q 2872 3491 3272 3391
z
" transform="scale(0.015625)"/>
      <path id="DejaVuSans-Bold-3a" d="M 716 3500
L 1844 3500
L 1844 2291
L 716 2291
L 716 3500
z
M 716 1209
L 1844 1209
L 1844 0
L 716 0
L 716 1209
z
" transform="scale(0.015625)"/>
      <path id="DejaVuSans-Bold-69" d="M 538 3500
L 1656 3500
L 1656 0
L 538 0
L 538 3500
z
M 538 4863
L 1656 4863
L 1656 3950
L 538 3950
L 538 4863
z
" transform="scale(0.015625)"/>
      <path id="DejaVuSans-Bold-64" d="M 2919 2988
L 2919 4863
L 4044 4863
L 4044 0
L 2919 0
L 2919 506
Q 2688 197 2409 53
Q 2131 -91 1766 -91
Q 1119 -91 703 423
Q 288 938 288 1747
Q 288 2556 703 3070
Q 1119 3584 1766 3584
Q 2128 3584 2408 3439
Q 2688 3294 2919 2988
z
M 2181 722
Q 2541 722 2730 984
Q 2919 1247 2919 1747
Q 2919 2247 2730 2509
Q 2541 2772 2181 2772
Q 1825 2772 1636 2509
Q 1447 2247 1447 1747
Q 1447 1247 1636 984
Q 1825 722 2181 722
z
" transform="scale(0.015625)"/>
      <path id="DejaVuSans-Bold-67" d="M 2919 594
Q 2688 288 2409 144
Q 2131 0 1766 0
Q 1125 0 706 504
Q 288 1009 288 1791
Q 288 2575 706 3076
Q 1125 3578 1766 3578
Q 2131 3578 2409 3434
Q 2688 3291 2919 2981
L 2919 3500
L 4044 3500
L 4044 353
Q 4044 -491 3511 -936
Q 2978 -1381 1966 -1381
Q 1638 -1381 1331 -1331
Q 1025 -1281 716 -1178
L 716 -306
Q 1009 -475 1290 -558
Q 1572 -641 1856 -641
Q 2406 -641 2662 -400
Q 2919 -159 2919 353
L 2919 594
z
M 2181 2772
Q 1834 2772 1640 2515
Q 1447 2259 1447 1791
Q 1447 1309 1634 1061
Q 1822 813 2181 813
Q 2531 813 2725 1069
Q 2919 1325 2919 1791
Q 2919 2259 2725 2515
Q 2531 2772 2181 2772
z
" transform="scale(0.015625)"/>
      <path id="DejaVuSans-Bold-2c" d="M 653 1209
L 1778 1209
L 1778 256
L 1006 -909
L 341 -909
L 653 256
L 653 1209
z
" transform="scale(0.015625)"/>
      <path id="DejaVuSans-Bold-50" d="M 588 4666
L 2584 4666
Q 3475 4666 3951 4270
Q 4428 3875 4428 3144
Q 4428 2409 3951 2014
Q 3475 1619 2584 1619
L 1791 1619
L 1791 0
L 588 0
L 588 4666
z
M 1791 3794
L 1791 2491
L 2456 2491
Q 2806 2491 2997 2661
Q 3188 2831 3188 3144
Q 3188 3456 2997 3625
Q 2806 3794 2456 3794
L 1791 3794
z
" transform="scale(0.015625)"/>
      <path id="DejaVuSans-Bold-75" d="M 500 1363
L 500 3500
L 1625 3500
L 1625 3150
Q 1625 2866 1622 2436
Q 1619 2006 1619 1863
Q 1619 1441 1641 1255
Q 1663 1069 1716 984
Q 1784 875 1895 815
Q 2006 756 2150 756
Q 2500 756 2700 1025
Q 2900 1294 2900 1772
L 2900 3500
L 4019 3500
L 4019 0
L 2900 0
L 2900 506
Q 2647 200 2364 54
Q 2081 -91 1741 -91
Q 1134 -91 817 281
Q 500 653 500 1363
z
" transform="scale(0.015625)"/>
      <path id="DejaVuSans-Bold-77" d="M 225 3500
L 1313 3500
L 1900 1088
L 2491 3500
L 3425 3500
L 4013 1113
L 4603 3500
L 5691 3500
L 4769 0
L 3547 0
L 2956 2406
L 2369 0
L 1147 0
L 225 3500
z
" transform="scale(0.015625)"/>
      <path id="DejaVuSans-Bold-79" d="M 78 3500
L 1197 3500
L 2138 1125
L 2938 3500
L 4056 3500
L 2584 -331
Q 2363 -916 2067 -1148
Q 1772 -1381 1288 -1381
L 641 -1381
L 641 -647
L 991 -647
Q 1275 -647 1404 -556
Q 1534 -466 1606 -231
L 1638 -134
L 78 3500
z
" transform="scale(0.015625)"/>
     </defs>
     <use xlink:href="#DejaVuSans-Bold-52"/>
     <use xlink:href="#DejaVuSans-Bold-65" transform="translate(77.001953 0)"/>
     <use xlink:href="#DejaVuSans-Bold-66" transform="translate(144.824219 0)"/>
     <use xlink:href="#DejaVuSans-Bold-65" transform="translate(188.330078 0)"/>
     <use xlink:href="#DejaVuSans-Bold-72" transform="translate(256.152344 0)"/>
     <use xlink:href="#DejaVuSans-Bold-72" transform="translate(305.46875 0)"/>
     <use xlink:href="#DejaVuSans-Bold-61" transform="translate(354.785156 0)"/>
     <use xlink:href="#DejaVuSans-Bold-6c" transform="translate(422.265625 0)"/>
     <use xlink:href="#DejaVuSans-Bold-20" transform="translate(456.542969 0)"/>
     <use xlink:href="#DejaVuSans-Bold-47" transform="translate(491.357422 0)"/>
     <use xlink:href="#DejaVuSans-Bold-72" transform="translate(573.4375 0)"/>
     <use xlink:href="#DejaVuSans-Bold-61" transform="translate(622.753906 0)"/>
     <use xlink:href="#DejaVuSans-Bold-70" transform="translate(690.234375 0)"/>
     <use xlink:href="#DejaVuSans-Bold-68" transform="translate(761.816406 0)"/>
     <use xlink:href="#DejaVuSans-Bold-20" transform="translate(833.007812 0)"/>
     <use xlink:href="#DejaVuSans-Bold-43" transform="translate(867.822266 0)"/>
     <use xlink:href="#DejaVuSans-Bold-6f" transform="translate(941.210938 0)"/>
     <use xlink:href="#DejaVuSans-Bold-6e" transform="translate(1009.912109 0)"/>
     <use xlink:href="#DejaVuSans-Bold-63" transform="translate(1081.103516 0)"/>
     <use xlink:href="#DejaVuSans-Bold-65" transform="translate(1140.380859 0)"/>
     <use xlink:href="#DejaVuSans-Bold-70" transform="translate(1208.203125 0)"/>
     <use xlink:href="#DejaVuSans-Bold-74" transform="translate(1279.785156 0)"/>
     <use xlink:href="#DejaVuSans-Bold-73" transform="translate(1327.587891 0)"/>
     <use xlink:href="#DejaVuSans-Bold-3a" transform="translate(1387.109375 0)"/>
     <use xlink:href="#DejaVuSans-Bold-20" transform="translate(1427.099609 0)"/>
     <use xlink:href="#DejaVuSans-Bold-44" transform="translate(1461.914062 0)"/>
     <use xlink:href="#DejaVuSans-Bold-69" transform="translate(1544.921875 0)"/>
     <use xlink:href="#DejaVuSans-Bold-72" transform="translate(1579.199219 0)"/>
     <use xlink:href="#DejaVuSans-Bold-65" transform="translate(1628.515625 0)"/>
     <use xlink:href="#DejaVuSans-Bold-63" transform="translate(1696.337891 0)"/>
     <use xlink:href="#DejaVuSans-Bold-74" transform="translate(1755.615234 0)"/>
     <use xlink:href="#DejaVuSans-Bold-65" transform="translate(1803.417969 0)"/>
     <use xlink:href="#DejaVuSans-Bold-64" transform="translate(1871.240234 0)"/>
     <use xlink:href="#DejaVuSans-Bold-20" transform="translate(1942.822266 0)"/>
     <use xlink:href="#DejaVuSans-Bold-45" transform="translate(1977.636719 0)"/>
     <use xlink:href="#DejaVuSans-Bold-64" transform="translate(2045.947266 0)"/>
     <use xlink:href="#DejaVuSans-Bold-67" transform="translate(2117.529297 0)"/>
     <use xlink:href="#DejaVuSans-Bold-65" transform="translate(2189.111328 0)"/>
     <use xlink:href="#DejaVuSans-Bold-2c" transform="translate(2256.933594 0)"/>
     <use xlink:href="#DejaVuSans-Bold-20" transform="translate(2294.921875 0)"/>
     <use xlink:href="#DejaVuSans-Bold-50" transform="translate(2329.736328 0)"/>
     <use xlink:href="#DejaVuSans-Bold-61" transform="translate(2400.402344 0)"/>
     <use xlink:href="#DejaVuSans-Bold-74" transform="translate(2467.882812 0)"/>
     <use xlink:href="#DejaVuSans-Bold-69" transform="translate(2515.685547 0)"/>
     <use xlink:href="#DejaVuSans-Bold-65" transform="translate(2549.962891 0)"/>
     <use xlink:href="#DejaVuSans-Bold-6e" transform="translate(2617.785156 0)"/>
     <use xlink:href="#DejaVuSans-Bold-74" transform="translate(2688.976562 0)"/>
     <use xlink:href="#DejaVuSans-Bold-20" transform="translate(2736.779297 0)"/>
     <use xlink:href="#DejaVuSans-Bold-43" transform="translate(2771.59375 0)"/>
     <use xlink:href="#DejaVuSans-Bold-6f" transform="translate(2844.982422 0)"/>
     <use xlink:href="#DejaVuSans-Bold-75" transform="translate(2913.683594 0)"/>
     <use xlink:href="#DejaVuSans-Bold-6e" transform="translate(2984.875 0)"/>
     <use xlink:href="#DejaVuSans-Bold-74" transform="translate(3056.066406 0)"/>
     <use xlink:href="#DejaVuSans-Bold-2c" transform="translate(3103.869141 0)"/>
     <use xlink:href="#DejaVuSans-Bold-20" transform="translate(3141.857422 0)"/>
     <use xlink:href="#DejaVuSans-Bold-42" transform="translate(3176.671875 0)"/>
     <use xlink:href="#DejaVuSans-Bold-65" transform="translate(3252.892578 0)"/>
     <use xlink:href="#DejaVuSans-Bold-74" transform="translate(3320.714844 0)"/>
     <use xlink:href="#DejaVuSans-Bold-77" transform="translate(3368.517578 0)"/>
     <use xlink:href="#DejaVuSans-Bold-65" transform="translate(3460.900391 0)"/>
     <use xlink:href="#DejaVuSans-Bold-65" transform="translate(3528.722656 0)"/>
     <use xlink:href="#DejaVuSans-Bold-6e" transform="translate(3596.544922 0)"/>
     <use xlink:href="#DejaVuSans-Bold-6e" transform="translate(3667.736328 0)"/>
     <use xlink:href="#DejaVuSans-Bold-65" transform="translate(3738.927734 0)"/>
     <use xlink:href="#DejaVuSans-Bold-73" transform="translate(3806.75 0)"/>
     <use xlink:href="#DejaVuSans-Bold-73" transform="translate(3866.271484 0)"/>
     <use xlink:href="#DejaVuSans-Bold-20" transform="translate(3925.792969 0)"/>
     <use xlink:href="#DejaVuSans-Bold-43" transform="translate(3960.607422 0)"/>
     <use xlink:href="#DejaVuSans-Bold-65" transform="translate(4033.996094 0)"/>
     <use xlink:href="#DejaVuSans-Bold-6e" transform="translate(4101.818359 0)"/>
     <use xlink:href="#DejaVuSans-Bold-74" transform="translate(4173.009766 0)"/>
     <use xlink:href="#DejaVuSans-Bold-72" transform="translate(4220.8125 0)"/>
     <use xlink:href="#DejaVuSans-Bold-61" transform="translate(4270.128906 0)"/>
     <use xlink:href="#DejaVuSans-Bold-6c" transform="translate(4337.609375 0)"/>
     <use xlink:href="#DejaVuSans-Bold-69" transform="translate(4371.886719 0)"/>
     <use xlink:href="#DejaVuSans-Bold-74" transform="translate(4406.164062 0)"/>
     <use xlink:href="#DejaVuSans-Bold-79" transform="translate(4453.966797 0)"/>
    </g>
   </g>
  </g>
 </g>
 <defs>
  <clipPath id="pd556fd9fd0">
   <rect x="9.325883" y="21.558281" width="564.138" height="282.744"/>
  </clipPath>
 </defs>
</svg>
