<?xml version="1.0" encoding="utf-8" standalone="no"?>
<!DOCTYPE svg PUBLIC "-//W3C//DTD SVG 1.1//EN"
  "http://www.w3.org/Graphics/SVG/1.1/DTD/svg11.dtd">
<svg xmlns:xlink="http://www.w3.org/1999/xlink" width="678.802547pt" height="313.027206pt" viewBox="0 0 678.802547 313.027206" xmlns="http://www.w3.org/2000/svg" version="1.1">
 <metadata>
  <rdf:RDF xmlns:dc="http://purl.org/dc/elements/1.1/" xmlns:cc="http://creativecommons.org/ns#" xmlns:rdf="http://www.w3.org/1999/02/22-rdf-syntax-ns#">
   <cc:Work>
    <dc:type rdf:resource="http://purl.org/dc/dcmitype/StillImage"/>
    <dc:date>2026-06-20T19:25:29.121136</dc:date>
    <dc:format>image/svg+xml</dc:format>
    <dc:creator>
     <cc:Agent>
      <dc:title>Matplotlib v3.10.9, https://matplotlib.org/</dc:title>
     </cc:Agent>
    </dc:creator>
   </cc:Work>
  </rdf:RDF>
 </metadata>
 <defs>
  <style type="text/css">*{stroke-linejoin: round; stroke-linecap: butt}</style>
 </defs>
 <g id="figure_1">
  <g id="patch_1">
   <path d="M 0 313.027206
L 678.802547 313.027206
L 678.802547 0
L 0 0
z
" style="fill: #ffffff"/>
  </g>
  <g id="axes_1">
   <g id="patch_2">
    <path d="M 156.010547 276.438769
L 671.602547 276.438769
L 671.602547 23.077969
L 156.010547 23.077969
z
" style="fill: #ffffff"/>
   </g>
   <g id="patch_3">
    <path d="M 156.010547 264.922369
L 156.010547 264.922369
L 156.010547 226.534369
L 156.010547 226.534369
z
" clip-path="url(#pdace769f27)" style="fill: #9a9a9a; stroke: #ffffff; stroke-width: 0.5; stroke-linejoin: miter"/>
   </g>
   <g id="patch_4">
    <path d="M 156.010547 216.937369
L 156.010547 216.937369
L 156.010547 178.549369
L 156.010547 178.549369
z
" clip-path="url(#pdace769f27)" style="fill: #9a9a9a; stroke: #ffffff; stroke-width: 0.5; stroke-linejoin: miter"/>
   </g>
   <g id="patch_5">
    <path d="M 156.010547 168.952369
L 164.938547 168.952369
L 164.938547 130.564369
L 156.010547 130.564369
z
" clip-path="url(#pdace769f27)" style="fill: #9a9a9a; stroke: #ffffff; stroke-width: 0.5; stroke-linejoin: miter"/>
   </g>
   <g id="patch_6">
    <path d="M 156.010547 120.967369
L 156.010547 120.967369
L 156.010547 82.579369
L 156.010547 82.579369
z
" clip-path="url(#pdace769f27)" style="fill: #9a9a9a; stroke: #ffffff; stroke-width: 0.5; stroke-linejoin: miter"/>
   </g>
   <g id="patch_7">
    <path d="M 156.010547 72.982369
L 156.010547 72.982369
L 156.010547 34.594369
L 156.010547 34.594369
z
" clip-path="url(#pdace769f27)" style="fill: #9a9a9a; stroke: #ffffff; stroke-width: 0.5; stroke-linejoin: miter"/>
   </g>
   <g id="patch_8">
    <path d="M 156.010547 264.922369
L 272.074547 264.922369
L 272.074547 226.534369
L 156.010547 226.534369
z
" clip-path="url(#pdace769f27)" style="fill: #7ba6d0; stroke: #ffffff; stroke-width: 0.5; stroke-linejoin: miter"/>
   </g>
   <g id="patch_9">
    <path d="M 156.010547 216.937369
L 272.074547 216.937369
L 272.074547 178.549369
L 156.010547 178.549369
z
" clip-path="url(#pdace769f27)" style="fill: #7ba6d0; stroke: #ffffff; stroke-width: 0.5; stroke-linejoin: miter"/>
   </g>
   <g id="patch_10">
    <path d="M 164.938547 168.952369
L 316.714547 168.952369
L 316.714547 130.564369
L 164.938547 130.564369
z
" clip-path="url(#pdace769f27)" style="fill: #7ba6d0; stroke: #ffffff; stroke-width: 0.5; stroke-linejoin: miter"/>
   </g>
   <g id="patch_11">
    <path d="M 156.010547 120.967369
L 593.482547 120.967369
L 593.482547 82.579369
L 156.010547 82.579369
z
" clip-path="url(#pdace769f27)" style="fill: #7ba6d0; stroke: #ffffff; stroke-width: 0.5; stroke-linejoin: miter"/>
   </g>
   <g id="patch_12">
    <path d="M 156.010547 72.982369
L 236.362547 72.982369
L 236.362547 34.594369
L 156.010547 34.594369
z
" clip-path="url(#pdace769f27)" style="fill: #7ba6d0; stroke: #ffffff; stroke-width: 0.5; stroke-linejoin: miter"/>
   </g>
   <g id="patch_13">
    <path d="M 272.074547 264.922369
L 281.002547 264.922369
L 281.002547 226.534369
L 272.074547 226.534369
z
" clip-path="url(#pdace769f27)" style="fill: #7fb685; stroke: #ffffff; stroke-width: 0.5; stroke-linejoin: miter"/>
   </g>
   <g id="patch_14">
    <path d="M 272.074547 216.937369
L 272.074547 216.937369
L 272.074547 178.549369
L 272.074547 178.549369
z
" clip-path="url(#pdace769f27)" style="fill: #7fb685; stroke: #ffffff; stroke-width: 0.5; stroke-linejoin: miter"/>
   </g>
   <g id="patch_15">
    <path d="M 316.714547 168.952369
L 325.642547 168.952369
L 325.642547 130.564369
L 316.714547 130.564369
z
" clip-path="url(#pdace769f27)" style="fill: #7fb685; stroke: #ffffff; stroke-width: 0.5; stroke-linejoin: miter"/>
   </g>
   <g id="patch_16">
    <path d="M 593.482547 120.967369
L 647.050547 120.967369
L 647.050547 82.579369
L 593.482547 82.579369
z
" clip-path="url(#pdace769f27)" style="fill: #7fb685; stroke: #ffffff; stroke-width: 0.5; stroke-linejoin: miter"/>
   </g>
   <g id="patch_17">
    <path d="M 236.362547 72.982369
L 254.218547 72.982369
L 254.218547 34.594369
L 236.362547 34.594369
z
" clip-path="url(#pdace769f27)" style="fill: #7fb685; stroke: #ffffff; stroke-width: 0.5; stroke-linejoin: miter"/>
   </g>
   <g id="matplotlib.axis_1">
    <g id="xtick_1">
     <g id="line2d_1">
      <defs>
       <path id="mcfd6c33593" d="M 0 0
L 0 3.5
" style="stroke: #000000; stroke-width: 0.8"/>
      </defs>
      <g>
       <use xlink:href="#mcfd6c33593" x="156.010547" y="276.438769" style="stroke: #000000; stroke-width: 0.8"/>
      </g>
     </g>
     <g id="text_1">
      <!-- 0 -->
      <g transform="translate(152.988359 290.657284) scale(0.095 -0.095)">
       <defs>
        <path id="DejaVuSans-30" d="M 2034 4250
Q 1547 4250 1301 3770
Q 1056 3291 1056 2328
Q 1056 1369 1301 889
Q 1547 409 2034 409
Q 2525 409 2770 889
Q 3016 1369 3016 2328
Q 3016 3291 2770 3770
Q 2525 4250 2034 4250
z
M 2034 4750
Q 2819 4750 3233 4129
Q 3647 3509 3647 2328
Q 3647 1150 3233 529
Q 2819 -91 2034 -91
Q 1250 -91 836 529
Q 422 1150 422 2328
Q 422 3509 836 4129
Q 1250 4750 2034 4750
z
" transform="scale(0.015625)"/>
       </defs>
       <use xlink:href="#DejaVuSans-30"/>
      </g>
     </g>
    </g>
    <g id="xtick_2">
     <g id="line2d_2">
      <g>
       <use xlink:href="#mcfd6c33593" x="245.290547" y="276.438769" style="stroke: #000000; stroke-width: 0.8"/>
      </g>
     </g>
     <g id="text_2">
      <!-- 10 -->
      <g transform="translate(239.246172 290.657284) scale(0.095 -0.095)">
       <defs>
        <path id="DejaVuSans-31" d="M 794 531
L 1825 531
L 1825 4091
L 703 3866
L 703 4441
L 1819 4666
L 2450 4666
L 2450 531
L 3481 531
L 3481 0
L 794 0
L 794 531
z
" transform="scale(0.015625)"/>
       </defs>
       <use xlink:href="#DejaVuSans-31"/>
       <use xlink:href="#DejaVuSans-30" transform="translate(63.623047 0)"/>
      </g>
     </g>
    </g>
    <g id="xtick_3">
     <g id="line2d_3">
      <g>
       <use xlink:href="#mcfd6c33593" x="334.570547" y="276.438769" style="stroke: #000000; stroke-width: 0.8"/>
      </g>
     </g>
     <g id="text_3">
      <!-- 20 -->
      <g transform="translate(328.526172 290.657284) scale(0.095 -0.095)">
       <defs>
        <path id="DejaVuSans-32" d="M 1228 531
L 3431 531
L 3431 0
L 469 0
L 469 531
Q 828 903 1448 1529
Q 2069 2156 2228 2338
Q 2531 2678 2651 2914
Q 2772 3150 2772 3378
Q 2772 3750 2511 3984
Q 2250 4219 1831 4219
Q 1534 4219 1204 4116
Q 875 4013 500 3803
L 500 4441
Q 881 4594 1212 4672
Q 1544 4750 1819 4750
Q 2544 4750 2975 4387
Q 3406 4025 3406 3419
Q 3406 3131 3298 2873
Q 3191 2616 2906 2266
Q 2828 2175 2409 1742
Q 1991 1309 1228 531
z
" transform="scale(0.015625)"/>
       </defs>
       <use xlink:href="#DejaVuSans-32"/>
       <use xlink:href="#DejaVuSans-30" transform="translate(63.623047 0)"/>
      </g>
     </g>
    </g>
    <g id="xtick_4">
     <g id="line2d_4">
      <g>
       <use xlink:href="#mcfd6c33593" x="423.850547" y="276.438769" style="stroke: #000000; stroke-width: 0.8"/>
      </g>
     </g>
     <g id="text_4">
      <!-- 30 -->
      <g transform="translate(417.806172 290.657284) scale(0.095 -0.095)">
       <defs>
        <path id="DejaVuSans-33" d="M 2597 2516
Q 3050 2419 3304 2112
Q 3559 1806 3559 1356
Q 3559 666 3084 287
Q 2609 -91 1734 -91
Q 1441 -91 1130 -33
Q 819 25 488 141
L 488 750
Q 750 597 1062 519
Q 1375 441 1716 441
Q 2309 441 2620 675
Q 2931 909 2931 1356
Q 2931 1769 2642 2001
Q 2353 2234 1838 2234
L 1294 2234
L 1294 2753
L 1863 2753
Q 2328 2753 2575 2939
Q 2822 3125 2822 3475
Q 2822 3834 2567 4026
Q 2313 4219 1838 4219
Q 1578 4219 1281 4162
Q 984 4106 628 3988
L 628 4550
Q 988 4650 1302 4700
Q 1616 4750 1894 4750
Q 2613 4750 3031 4423
Q 3450 4097 3450 3541
Q 3450 3153 3228 2886
Q 3006 2619 2597 2516
z
" transform="scale(0.015625)"/>
       </defs>
       <use xlink:href="#DejaVuSans-33"/>
       <use xlink:href="#DejaVuSans-30" transform="translate(63.623047 0)"/>
      </g>
     </g>
    </g>
    <g id="xtick_5">
     <g id="line2d_5">
      <g>
       <use xlink:href="#mcfd6c33593" x="513.130547" y="276.438769" style="stroke: #000000; stroke-width: 0.8"/>
      </g>
     </g>
     <g id="text_5">
      <!-- 40 -->
      <g transform="translate(507.086172 290.657284) scale(0.095 -0.095)">
       <defs>
        <path id="DejaVuSans-34" d="M 2419 4116
L 825 1625
L 2419 1625
L 2419 4116
z
M 2253 4666
L 3047 4666
L 3047 1625
L 3713 1625
L 3713 1100
L 3047 1100
L 3047 0
L 2419 0
L 2419 1100
L 313 1100
L 313 1709
L 2253 4666
z
" transform="scale(0.015625)"/>
       </defs>
       <use xlink:href="#DejaVuSans-34"/>
       <use xlink:href="#DejaVuSans-30" transform="translate(63.623047 0)"/>
      </g>
     </g>
    </g>
    <g id="xtick_6">
     <g id="line2d_6">
      <g>
       <use xlink:href="#mcfd6c33593" x="602.410547" y="276.438769" style="stroke: #000000; stroke-width: 0.8"/>
      </g>
     </g>
     <g id="text_6">
      <!-- 50 -->
      <g transform="translate(596.366172 290.657284) scale(0.095 -0.095)">
       <defs>
        <path id="DejaVuSans-35" d="M 691 4666
L 3169 4666
L 3169 4134
L 1269 4134
L 1269 2991
Q 1406 3038 1543 3061
Q 1681 3084 1819 3084
Q 2600 3084 3056 2656
Q 3513 2228 3513 1497
Q 3513 744 3044 326
Q 2575 -91 1722 -91
Q 1428 -91 1123 -41
Q 819 9 494 109
L 494 744
Q 775 591 1075 516
Q 1375 441 1709 441
Q 2250 441 2565 725
Q 2881 1009 2881 1497
Q 2881 1984 2565 2268
Q 2250 2553 1709 2553
Q 1456 2553 1204 2497
Q 953 2441 691 2322
L 691 4666
z
" transform="scale(0.015625)"/>
       </defs>
       <use xlink:href="#DejaVuSans-35"/>
       <use xlink:href="#DejaVuSans-30" transform="translate(63.623047 0)"/>
      </g>
     </g>
    </g>
    <g id="text_7">
     <!-- HCP count -->
     <g transform="translate(389.142914 303.851503) scale(0.095 -0.095)">
      <defs>
       <path id="DejaVuSans-48" d="M 628 4666
L 1259 4666
L 1259 2753
L 3553 2753
L 3553 4666
L 4184 4666
L 4184 0
L 3553 0
L 3553 2222
L 1259 2222
L 1259 0
L 628 0
L 628 4666
z
" transform="scale(0.015625)"/>
       <path id="DejaVuSans-43" d="M 4122 4306
L 4122 3641
Q 3803 3938 3442 4084
Q 3081 4231 2675 4231
Q 1875 4231 1450 3742
Q 1025 3253 1025 2328
Q 1025 1406 1450 917
Q 1875 428 2675 428
Q 3081 428 3442 575
Q 3803 722 4122 1019
L 4122 359
Q 3791 134 3420 21
Q 3050 -91 2638 -91
Q 1578 -91 968 557
Q 359 1206 359 2328
Q 359 3453 968 4101
Q 1578 4750 2638 4750
Q 3056 4750 3426 4639
Q 3797 4528 4122 4306
z
" transform="scale(0.015625)"/>
       <path id="DejaVuSans-50" d="M 1259 4147
L 1259 2394
L 2053 2394
Q 2494 2394 2734 2622
Q 2975 2850 2975 3272
Q 2975 3691 2734 3919
Q 2494 4147 2053 4147
L 1259 4147
z
M 628 4666
L 2053 4666
Q 2838 4666 3239 4311
Q 3641 3956 3641 3272
Q 3641 2581 3239 2228
Q 2838 1875 2053 1875
L 1259 1875
L 1259 0
L 628 0
L 628 4666
z
" transform="scale(0.015625)"/>
       <path id="DejaVuSans-20" transform="scale(0.015625)"/>
       <path id="DejaVuSans-63" d="M 3122 3366
L 3122 2828
Q 2878 2963 2633 3030
Q 2388 3097 2138 3097
Q 1578 3097 1268 2742
Q 959 2388 959 1747
Q 959 1106 1268 751
Q 1578 397 2138 397
Q 2388 397 2633 464
Q 2878 531 3122 666
L 3122 134
Q 2881 22 2623 -34
Q 2366 -91 2075 -91
Q 1284 -91 818 406
Q 353 903 353 1747
Q 353 2603 823 3093
Q 1294 3584 2113 3584
Q 2378 3584 2631 3529
Q 2884 3475 3122 3366
z
" transform="scale(0.015625)"/>
       <path id="DejaVuSans-6f" d="M 1959 3097
Q 1497 3097 1228 2736
Q 959 2375 959 1747
Q 959 1119 1226 758
Q 1494 397 1959 397
Q 2419 397 2687 759
Q 2956 1122 2956 1747
Q 2956 2369 2687 2733
Q 2419 3097 1959 3097
z
M 1959 3584
Q 2709 3584 3137 3096
Q 3566 2609 3566 1747
Q 3566 888 3137 398
Q 2709 -91 1959 -91
Q 1206 -91 779 398
Q 353 888 353 1747
Q 353 2609 779 3096
Q 1206 3584 1959 3584
z
" transform="scale(0.015625)"/>
       <path id="DejaVuSans-75" d="M 544 1381
L 544 3500
L 1119 3500
L 1119 1403
Q 1119 906 1312 657
Q 1506 409 1894 409
Q 2359 409 2629 706
Q 2900 1003 2900 1516
L 2900 3500
L 3475 3500
L 3475 0
L 2900 0
L 2900 538
Q 2691 219 2414 64
Q 2138 -91 1772 -91
Q 1169 -91 856 284
Q 544 659 544 1381
z
M 1991 3584
L 1991 3584
z
" transform="scale(0.015625)"/>
       <path id="DejaVuSans-6e" d="M 3513 2113
L 3513 0
L 2938 0
L 2938 2094
Q 2938 2591 2744 2837
Q 2550 3084 2163 3084
Q 1697 3084 1428 2787
Q 1159 2491 1159 1978
L 1159 0
L 581 0
L 581 3500
L 1159 3500
L 1159 2956
Q 1366 3272 1645 3428
Q 1925 3584 2291 3584
Q 2894 3584 3203 3211
Q 3513 2838 3513 2113
z
" transform="scale(0.015625)"/>
       <path id="DejaVuSans-74" d="M 1172 4494
L 1172 3500
L 2356 3500
L 2356 3053
L 1172 3053
L 1172 1153
Q 1172 725 1289 603
Q 1406 481 1766 481
L 2356 481
L 2356 0
L 1766 0
Q 1100 0 847 248
Q 594 497 594 1153
L 594 3053
L 172 3053
L 172 3500
L 594 3500
L 594 4494
L 1172 4494
z
" transform="scale(0.015625)"/>
      </defs>
      <use xlink:href="#DejaVuSans-48"/>
      <use xlink:href="#DejaVuSans-43" transform="translate(75.195312 0)"/>
      <use xlink:href="#DejaVuSans-50" transform="translate(145.019531 0)"/>
      <use xlink:href="#DejaVuSans-20" transform="translate(205.322266 0)"/>
      <use xlink:href="#DejaVuSans-63" transform="translate(237.109375 0)"/>
      <use xlink:href="#DejaVuSans-6f" transform="translate(292.089844 0)"/>
      <use xlink:href="#DejaVuSans-75" transform="translate(353.271484 0)"/>
      <use xlink:href="#DejaVuSans-6e" transform="translate(416.650391 0)"/>
      <use xlink:href="#DejaVuSans-74" transform="translate(480.029297 0)"/>
     </g>
    </g>
   </g>
   <g id="matplotlib.axis_2">
    <g id="ytick_1">
     <g id="line2d_7">
      <defs>
       <path id="mf99da167c8" d="M 0 0
L -3.5 0
" style="stroke: #000000; stroke-width: 0.8"/>
      </defs>
      <g>
       <use xlink:href="#mf99da167c8" x="156.010547" y="245.728369" style="stroke: #000000; stroke-width: 0.8"/>
      </g>
     </g>
     <g id="text_8">
      <!-- Evidence-generation collaborator -->
      <g transform="translate(7.2 248.957705) scale(0.085 -0.085)">
       <defs>
        <path id="DejaVuSans-45" d="M 628 4666
L 3578 4666
L 3578 4134
L 1259 4134
L 1259 2753
L 3481 2753
L 3481 2222
L 1259 2222
L 1259 531
L 3634 531
L 3634 0
L 628 0
L 628 4666
z
" transform="scale(0.015625)"/>
        <path id="DejaVuSans-76" d="M 191 3500
L 800 3500
L 1894 563
L 2988 3500
L 3597 3500
L 2284 0
L 1503 0
L 191 3500
z
" transform="scale(0.015625)"/>
        <path id="DejaVuSans-69" d="M 603 3500
L 1178 3500
L 1178 0
L 603 0
L 603 3500
z
M 603 4863
L 1178 4863
L 1178 4134
L 603 4134
L 603 4863
z
" transform="scale(0.015625)"/>
        <path id="DejaVuSans-64" d="M 2906 2969
L 2906 4863
L 3481 4863
L 3481 0
L 2906 0
L 2906 525
Q 2725 213 2448 61
Q 2172 -91 1784 -91
Q 1150 -91 751 415
Q 353 922 353 1747
Q 353 2572 751 3078
Q 1150 3584 1784 3584
Q 2172 3584 2448 3432
Q 2725 3281 2906 2969
z
M 947 1747
Q 947 1113 1208 752
Q 1469 391 1925 391
Q 2381 391 2643 752
Q 2906 1113 2906 1747
Q 2906 2381 2643 2742
Q 2381 3103 1925 3103
Q 1469 3103 1208 2742
Q 947 2381 947 1747
z
" transform="scale(0.015625)"/>
        <path id="DejaVuSans-65" d="M 3597 1894
L 3597 1613
L 953 1613
Q 991 1019 1311 708
Q 1631 397 2203 397
Q 2534 397 2845 478
Q 3156 559 3463 722
L 3463 178
Q 3153 47 2828 -22
Q 2503 -91 2169 -91
Q 1331 -91 842 396
Q 353 884 353 1716
Q 353 2575 817 3079
Q 1281 3584 2069 3584
Q 2775 3584 3186 3129
Q 3597 2675 3597 1894
z
M 3022 2063
Q 3016 2534 2758 2815
Q 2500 3097 2075 3097
Q 1594 3097 1305 2825
Q 1016 2553 972 2059
L 3022 2063
z
" transform="scale(0.015625)"/>
        <path id="DejaVuSans-2d" d="M 313 2009
L 1997 2009
L 1997 1497
L 313 1497
L 313 2009
z
" transform="scale(0.015625)"/>
        <path id="DejaVuSans-67" d="M 2906 1791
Q 2906 2416 2648 2759
Q 2391 3103 1925 3103
Q 1463 3103 1205 2759
Q 947 2416 947 1791
Q 947 1169 1205 825
Q 1463 481 1925 481
Q 2391 481 2648 825
Q 2906 1169 2906 1791
z
M 3481 434
Q 3481 -459 3084 -895
Q 2688 -1331 1869 -1331
Q 1566 -1331 1297 -1286
Q 1028 -1241 775 -1147
L 775 -588
Q 1028 -725 1275 -790
Q 1522 -856 1778 -856
Q 2344 -856 2625 -561
Q 2906 -266 2906 331
L 2906 616
Q 2728 306 2450 153
Q 2172 0 1784 0
Q 1141 0 747 490
Q 353 981 353 1791
Q 353 2603 747 3093
Q 1141 3584 1784 3584
Q 2172 3584 2450 3431
Q 2728 3278 2906 2969
L 2906 3500
L 3481 3500
L 3481 434
z
" transform="scale(0.015625)"/>
        <path id="DejaVuSans-72" d="M 2631 2963
Q 2534 3019 2420 3045
Q 2306 3072 2169 3072
Q 1681 3072 1420 2755
Q 1159 2438 1159 1844
L 1159 0
L 581 0
L 581 3500
L 1159 3500
L 1159 2956
Q 1341 3275 1631 3429
Q 1922 3584 2338 3584
Q 2397 3584 2469 3576
Q 2541 3569 2628 3553
L 2631 2963
z
" transform="scale(0.015625)"/>
        <path id="DejaVuSans-61" d="M 2194 1759
Q 1497 1759 1228 1600
Q 959 1441 959 1056
Q 959 750 1161 570
Q 1363 391 1709 391
Q 2188 391 2477 730
Q 2766 1069 2766 1631
L 2766 1759
L 2194 1759
z
M 3341 1997
L 3341 0
L 2766 0
L 2766 531
Q 2569 213 2275 61
Q 1981 -91 1556 -91
Q 1019 -91 701 211
Q 384 513 384 1019
Q 384 1609 779 1909
Q 1175 2209 1959 2209
L 2766 2209
L 2766 2266
Q 2766 2663 2505 2880
Q 2244 3097 1772 3097
Q 1472 3097 1187 3025
Q 903 2953 641 2809
L 641 3341
Q 956 3463 1253 3523
Q 1550 3584 1831 3584
Q 2591 3584 2966 3190
Q 3341 2797 3341 1997
z
" transform="scale(0.015625)"/>
        <path id="DejaVuSans-6c" d="M 603 4863
L 1178 4863
L 1178 0
L 603 0
L 603 4863
z
" transform="scale(0.015625)"/>
        <path id="DejaVuSans-62" d="M 3116 1747
Q 3116 2381 2855 2742
Q 2594 3103 2138 3103
Q 1681 3103 1420 2742
Q 1159 2381 1159 1747
Q 1159 1113 1420 752
Q 1681 391 2138 391
Q 2594 391 2855 752
Q 3116 1113 3116 1747
z
M 1159 2969
Q 1341 3281 1617 3432
Q 1894 3584 2278 3584
Q 2916 3584 3314 3078
Q 3713 2572 3713 1747
Q 3713 922 3314 415
Q 2916 -91 2278 -91
Q 1894 -91 1617 61
Q 1341 213 1159 525
L 1159 0
L 581 0
L 581 4863
L 1159 4863
L 1159 2969
z
" transform="scale(0.015625)"/>
       </defs>
       <use xlink:href="#DejaVuSans-45"/>
       <use xlink:href="#DejaVuSans-76" transform="translate(63.183594 0)"/>
       <use xlink:href="#DejaVuSans-69" transform="translate(122.363281 0)"/>
       <use xlink:href="#DejaVuSans-64" transform="translate(150.146484 0)"/>
       <use xlink:href="#DejaVuSans-65" transform="translate(213.623047 0)"/>
       <use xlink:href="#DejaVuSans-6e" transform="translate(275.146484 0)"/>
       <use xlink:href="#DejaVuSans-63" transform="translate(338.525391 0)"/>
       <use xlink:href="#DejaVuSans-65" transform="translate(393.505859 0)"/>
       <use xlink:href="#DejaVuSans-2d" transform="translate(455.029297 0)"/>
       <use xlink:href="#DejaVuSans-67" transform="translate(491.113281 0)"/>
       <use xlink:href="#DejaVuSans-65" transform="translate(554.589844 0)"/>
       <use xlink:href="#DejaVuSans-6e" transform="translate(616.113281 0)"/>
       <use xlink:href="#DejaVuSans-65" transform="translate(679.492188 0)"/>
       <use xlink:href="#DejaVuSans-72" transform="translate(741.015625 0)"/>
       <use xlink:href="#DejaVuSans-61" transform="translate(782.128906 0)"/>
       <use xlink:href="#DejaVuSans-74" transform="translate(843.408203 0)"/>
       <use xlink:href="#DejaVuSans-69" transform="translate(882.617188 0)"/>
       <use xlink:href="#DejaVuSans-6f" transform="translate(910.400391 0)"/>
       <use xlink:href="#DejaVuSans-6e" transform="translate(971.582031 0)"/>
       <use xlink:href="#DejaVuSans-20" transform="translate(1034.960938 0)"/>
       <use xlink:href="#DejaVuSans-63" transform="translate(1066.748047 0)"/>
       <use xlink:href="#DejaVuSans-6f" transform="translate(1121.728516 0)"/>
       <use xlink:href="#DejaVuSans-6c" transform="translate(1182.910156 0)"/>
       <use xlink:href="#DejaVuSans-6c" transform="translate(1210.693359 0)"/>
       <use xlink:href="#DejaVuSans-61" transform="translate(1238.476562 0)"/>
       <use xlink:href="#DejaVuSans-62" transform="translate(1299.755859 0)"/>
       <use xlink:href="#DejaVuSans-6f" transform="translate(1363.232422 0)"/>
       <use xlink:href="#DejaVuSans-72" transform="translate(1424.414062 0)"/>
       <use xlink:href="#DejaVuSans-61" transform="translate(1465.527344 0)"/>
       <use xlink:href="#DejaVuSans-74" transform="translate(1526.806641 0)"/>
       <use xlink:href="#DejaVuSans-6f" transform="translate(1566.015625 0)"/>
       <use xlink:href="#DejaVuSans-72" transform="translate(1627.197266 0)"/>
      </g>
     </g>
    </g>
    <g id="ytick_2">
     <g id="line2d_8">
      <g>
       <use xlink:href="#mf99da167c8" x="156.010547" y="197.743369" style="stroke: #000000; stroke-width: 0.8"/>
      </g>
     </g>
     <g id="text_9">
      <!-- Local practice expert -->
      <g transform="translate(59.639687 200.972705) scale(0.085 -0.085)">
       <defs>
        <path id="DejaVuSans-4c" d="M 628 4666
L 1259 4666
L 1259 531
L 3531 531
L 3531 0
L 628 0
L 628 4666
z
" transform="scale(0.015625)"/>
        <path id="DejaVuSans-70" d="M 1159 525
L 1159 -1331
L 581 -1331
L 581 3500
L 1159 3500
L 1159 2969
Q 1341 3281 1617 3432
Q 1894 3584 2278 3584
Q 2916 3584 3314 3078
Q 3713 2572 3713 1747
Q 3713 922 3314 415
Q 2916 -91 2278 -91
Q 1894 -91 1617 61
Q 1341 213 1159 525
z
M 3116 1747
Q 3116 2381 2855 2742
Q 2594 3103 2138 3103
Q 1681 3103 1420 2742
Q 1159 2381 1159 1747
Q 1159 1113 1420 752
Q 1681 391 2138 391
Q 2594 391 2855 752
Q 3116 1113 3116 1747
z
" transform="scale(0.015625)"/>
        <path id="DejaVuSans-78" d="M 3513 3500
L 2247 1797
L 3578 0
L 2900 0
L 1881 1375
L 863 0
L 184 0
L 1544 1831
L 300 3500
L 978 3500
L 1906 2253
L 2834 3500
L 3513 3500
z
" transform="scale(0.015625)"/>
       </defs>
       <use xlink:href="#DejaVuSans-4c"/>
       <use xlink:href="#DejaVuSans-6f" transform="translate(53.962891 0)"/>
       <use xlink:href="#DejaVuSans-63" transform="translate(115.144531 0)"/>
       <use xlink:href="#DejaVuSans-61" transform="translate(170.125 0)"/>
       <use xlink:href="#DejaVuSans-6c" transform="translate(231.404297 0)"/>
       <use xlink:href="#DejaVuSans-20" transform="translate(259.1875 0)"/>
       <use xlink:href="#DejaVuSans-70" transform="translate(290.974609 0)"/>
       <use xlink:href="#DejaVuSans-72" transform="translate(354.451172 0)"/>
       <use xlink:href="#DejaVuSans-61" transform="translate(395.564453 0)"/>
       <use xlink:href="#DejaVuSans-63" transform="translate(456.84375 0)"/>
       <use xlink:href="#DejaVuSans-74" transform="translate(511.824219 0)"/>
       <use xlink:href="#DejaVuSans-69" transform="translate(551.033203 0)"/>
       <use xlink:href="#DejaVuSans-63" transform="translate(578.816406 0)"/>
       <use xlink:href="#DejaVuSans-65" transform="translate(633.796875 0)"/>
       <use xlink:href="#DejaVuSans-20" transform="translate(695.320312 0)"/>
       <use xlink:href="#DejaVuSans-65" transform="translate(727.107422 0)"/>
       <use xlink:href="#DejaVuSans-78" transform="translate(786.880859 0)"/>
       <use xlink:href="#DejaVuSans-70" transform="translate(846.060547 0)"/>
       <use xlink:href="#DejaVuSans-65" transform="translate(909.537109 0)"/>
       <use xlink:href="#DejaVuSans-72" transform="translate(971.060547 0)"/>
       <use xlink:href="#DejaVuSans-74" transform="translate(1012.173828 0)"/>
      </g>
     </g>
    </g>
    <g id="ytick_3">
     <g id="line2d_9">
      <g>
       <use xlink:href="#mf99da167c8" x="156.010547" y="149.758369" style="stroke: #000000; stroke-width: 0.8"/>
      </g>
     </g>
     <g id="text_10">
      <!-- National scientific leader -->
      <g transform="translate(43.465781 152.987705) scale(0.085 -0.085)">
       <defs>
        <path id="DejaVuSans-4e" d="M 628 4666
L 1478 4666
L 3547 763
L 3547 4666
L 4159 4666
L 4159 0
L 3309 0
L 1241 3903
L 1241 0
L 628 0
L 628 4666
z
" transform="scale(0.015625)"/>
        <path id="DejaVuSans-73" d="M 2834 3397
L 2834 2853
Q 2591 2978 2328 3040
Q 2066 3103 1784 3103
Q 1356 3103 1142 2972
Q 928 2841 928 2578
Q 928 2378 1081 2264
Q 1234 2150 1697 2047
L 1894 2003
Q 2506 1872 2764 1633
Q 3022 1394 3022 966
Q 3022 478 2636 193
Q 2250 -91 1575 -91
Q 1294 -91 989 -36
Q 684 19 347 128
L 347 722
Q 666 556 975 473
Q 1284 391 1588 391
Q 1994 391 2212 530
Q 2431 669 2431 922
Q 2431 1156 2273 1281
Q 2116 1406 1581 1522
L 1381 1569
Q 847 1681 609 1914
Q 372 2147 372 2553
Q 372 3047 722 3315
Q 1072 3584 1716 3584
Q 2034 3584 2315 3537
Q 2597 3491 2834 3397
z
" transform="scale(0.015625)"/>
        <path id="DejaVuSans-66" d="M 2375 4863
L 2375 4384
L 1825 4384
Q 1516 4384 1395 4259
Q 1275 4134 1275 3809
L 1275 3500
L 2222 3500
L 2222 3053
L 1275 3053
L 1275 0
L 697 0
L 697 3053
L 147 3053
L 147 3500
L 697 3500
L 697 3744
Q 697 4328 969 4595
Q 1241 4863 1831 4863
L 2375 4863
z
" transform="scale(0.015625)"/>
       </defs>
       <use xlink:href="#DejaVuSans-4e"/>
       <use xlink:href="#DejaVuSans-61" transform="translate(74.804688 0)"/>
       <use xlink:href="#DejaVuSans-74" transform="translate(136.083984 0)"/>
       <use xlink:href="#DejaVuSans-69" transform="translate(175.292969 0)"/>
       <use xlink:href="#DejaVuSans-6f" transform="translate(203.076172 0)"/>
       <use xlink:href="#DejaVuSans-6e" transform="translate(264.257812 0)"/>
       <use xlink:href="#DejaVuSans-61" transform="translate(327.636719 0)"/>
       <use xlink:href="#DejaVuSans-6c" transform="translate(388.916016 0)"/>
       <use xlink:href="#DejaVuSans-20" transform="translate(416.699219 0)"/>
       <use xlink:href="#DejaVuSans-73" transform="translate(448.486328 0)"/>
       <use xlink:href="#DejaVuSans-63" transform="translate(500.585938 0)"/>
       <use xlink:href="#DejaVuSans-69" transform="translate(555.566406 0)"/>
       <use xlink:href="#DejaVuSans-65" transform="translate(583.349609 0)"/>
       <use xlink:href="#DejaVuSans-6e" transform="translate(644.873047 0)"/>
       <use xlink:href="#DejaVuSans-74" transform="translate(708.251953 0)"/>
       <use xlink:href="#DejaVuSans-69" transform="translate(747.460938 0)"/>
       <use xlink:href="#DejaVuSans-66" transform="translate(775.244141 0)"/>
       <use xlink:href="#DejaVuSans-69" transform="translate(810.449219 0)"/>
       <use xlink:href="#DejaVuSans-63" transform="translate(838.232422 0)"/>
       <use xlink:href="#DejaVuSans-20" transform="translate(893.212891 0)"/>
       <use xlink:href="#DejaVuSans-6c" transform="translate(925 0)"/>
       <use xlink:href="#DejaVuSans-65" transform="translate(952.783203 0)"/>
       <use xlink:href="#DejaVuSans-61" transform="translate(1014.306641 0)"/>
       <use xlink:href="#DejaVuSans-64" transform="translate(1075.585938 0)"/>
       <use xlink:href="#DejaVuSans-65" transform="translate(1139.0625 0)"/>
       <use xlink:href="#DejaVuSans-72" transform="translate(1200.585938 0)"/>
      </g>
     </g>
    </g>
    <g id="ytick_4">
     <g id="line2d_10">
      <g>
       <use xlink:href="#mf99da167c8" x="156.010547" y="101.773369" style="stroke: #000000; stroke-width: 0.8"/>
      </g>
     </g>
     <g id="text_11">
      <!-- No role proposed -->
      <g transform="translate(76.400625 105.002705) scale(0.085 -0.085)">
       <use xlink:href="#DejaVuSans-4e"/>
       <use xlink:href="#DejaVuSans-6f" transform="translate(74.804688 0)"/>
       <use xlink:href="#DejaVuSans-20" transform="translate(135.986328 0)"/>
       <use xlink:href="#DejaVuSans-72" transform="translate(167.773438 0)"/>
       <use xlink:href="#DejaVuSans-6f" transform="translate(206.636719 0)"/>
       <use xlink:href="#DejaVuSans-6c" transform="translate(267.818359 0)"/>
       <use xlink:href="#DejaVuSans-65" transform="translate(295.601562 0)"/>
       <use xlink:href="#DejaVuSans-20" transform="translate(357.125 0)"/>
       <use xlink:href="#DejaVuSans-70" transform="translate(388.912109 0)"/>
       <use xlink:href="#DejaVuSans-72" transform="translate(452.388672 0)"/>
       <use xlink:href="#DejaVuSans-6f" transform="translate(491.251953 0)"/>
       <use xlink:href="#DejaVuSans-70" transform="translate(552.433594 0)"/>
       <use xlink:href="#DejaVuSans-6f" transform="translate(615.910156 0)"/>
       <use xlink:href="#DejaVuSans-73" transform="translate(677.091797 0)"/>
       <use xlink:href="#DejaVuSans-65" transform="translate(729.191406 0)"/>
       <use xlink:href="#DejaVuSans-64" transform="translate(790.714844 0)"/>
      </g>
     </g>
    </g>
    <g id="ytick_5">
     <g id="line2d_11">
      <g>
       <use xlink:href="#mf99da167c8" x="156.010547" y="53.788369" style="stroke: #000000; stroke-width: 0.8"/>
      </g>
     </g>
     <g id="text_12">
      <!-- Regional scientific educator -->
      <g transform="translate(31.213828 57.017705) scale(0.085 -0.085)">
       <defs>
        <path id="DejaVuSans-52" d="M 2841 2188
Q 3044 2119 3236 1894
Q 3428 1669 3622 1275
L 4263 0
L 3584 0
L 2988 1197
Q 2756 1666 2539 1819
Q 2322 1972 1947 1972
L 1259 1972
L 1259 0
L 628 0
L 628 4666
L 2053 4666
Q 2853 4666 3247 4331
Q 3641 3997 3641 3322
Q 3641 2881 3436 2590
Q 3231 2300 2841 2188
z
M 1259 4147
L 1259 2491
L 2053 2491
Q 2509 2491 2742 2702
Q 2975 2913 2975 3322
Q 2975 3731 2742 3939
Q 2509 4147 2053 4147
L 1259 4147
z
" transform="scale(0.015625)"/>
       </defs>
       <use xlink:href="#DejaVuSans-52"/>
       <use xlink:href="#DejaVuSans-65" transform="translate(64.982422 0)"/>
       <use xlink:href="#DejaVuSans-67" transform="translate(126.505859 0)"/>
       <use xlink:href="#DejaVuSans-69" transform="translate(189.982422 0)"/>
       <use xlink:href="#DejaVuSans-6f" transform="translate(217.765625 0)"/>
       <use xlink:href="#DejaVuSans-6e" transform="translate(278.947266 0)"/>
       <use xlink:href="#DejaVuSans-61" transform="translate(342.326172 0)"/>
       <use xlink:href="#DejaVuSans-6c" transform="translate(403.605469 0)"/>
       <use xlink:href="#DejaVuSans-20" transform="translate(431.388672 0)"/>
       <use xlink:href="#DejaVuSans-73" transform="translate(463.175781 0)"/>
       <use xlink:href="#DejaVuSans-63" transform="translate(515.275391 0)"/>
       <use xlink:href="#DejaVuSans-69" transform="translate(570.255859 0)"/>
       <use xlink:href="#DejaVuSans-65" transform="translate(598.039062 0)"/>
       <use xlink:href="#DejaVuSans-6e" transform="translate(659.5625 0)"/>
       <use xlink:href="#DejaVuSans-74" transform="translate(722.941406 0)"/>
       <use xlink:href="#DejaVuSans-69" transform="translate(762.150391 0)"/>
       <use xlink:href="#DejaVuSans-66" transform="translate(789.933594 0)"/>
       <use xlink:href="#DejaVuSans-69" transform="translate(825.138672 0)"/>
       <use xlink:href="#DejaVuSans-63" transform="translate(852.921875 0)"/>
       <use xlink:href="#DejaVuSans-20" transform="translate(907.902344 0)"/>
       <use xlink:href="#DejaVuSans-65" transform="translate(939.689453 0)"/>
       <use xlink:href="#DejaVuSans-64" transform="translate(1001.212891 0)"/>
       <use xlink:href="#DejaVuSans-75" transform="translate(1064.689453 0)"/>
       <use xlink:href="#DejaVuSans-63" transform="translate(1128.068359 0)"/>
       <use xlink:href="#DejaVuSans-61" transform="translate(1183.048828 0)"/>
       <use xlink:href="#DejaVuSans-74" transform="translate(1244.328125 0)"/>
       <use xlink:href="#DejaVuSans-6f" transform="translate(1283.537109 0)"/>
       <use xlink:href="#DejaVuSans-72" transform="translate(1344.71875 0)"/>
      </g>
     </g>
    </g>
   </g>
   <g id="patch_18">
    <path d="M 156.010547 276.438769
L 156.010547 23.077969
" style="fill: none; stroke: #e3e6e8; stroke-width: 0.8; stroke-linejoin: miter; stroke-linecap: square"/>
   </g>
   <g id="patch_19">
    <path d="M 156.010547 276.438769
L 671.602547 276.438769
" style="fill: none; stroke: #e3e6e8; stroke-width: 0.8; stroke-linejoin: miter; stroke-linecap: square"/>
   </g>
   <g id="text_13">
    <!-- 1 -->
    <g style="fill: #2f3437" transform="translate(157.343531 152.241806) scale(0.09 -0.09)">
     <defs>
      <path id="DejaVuSans-Bold-31" d="M 750 831
L 1813 831
L 1813 3847
L 722 3622
L 722 4441
L 1806 4666
L 2950 4666
L 2950 831
L 4013 831
L 4013 0
L 750 0
L 750 831
z
" transform="scale(0.015625)"/>
     </defs>
     <use xlink:href="#DejaVuSans-Bold-31"/>
    </g>
   </g>
   <g id="text_14">
    <!-- 13 -->
    <g style="fill: #2f3437" transform="translate(207.780516 248.211806) scale(0.09 -0.09)">
     <defs>
      <path id="DejaVuSans-Bold-33" d="M 2981 2516
Q 3453 2394 3698 2092
Q 3944 1791 3944 1325
Q 3944 631 3412 270
Q 2881 -91 1863 -91
Q 1503 -91 1142 -33
Q 781 25 428 141
L 428 1069
Q 766 900 1098 814
Q 1431 728 1753 728
Q 2231 728 2486 893
Q 2741 1059 2741 1369
Q 2741 1688 2480 1852
Q 2219 2016 1709 2016
L 1228 2016
L 1228 2791
L 1734 2791
Q 2188 2791 2409 2933
Q 2631 3075 2631 3366
Q 2631 3634 2415 3781
Q 2200 3928 1806 3928
Q 1516 3928 1219 3862
Q 922 3797 628 3669
L 628 4550
Q 984 4650 1334 4700
Q 1684 4750 2022 4750
Q 2931 4750 3382 4451
Q 3834 4153 3834 3553
Q 3834 3144 3618 2883
Q 3403 2622 2981 2516
z
" transform="scale(0.015625)"/>
     </defs>
     <use xlink:href="#DejaVuSans-Bold-31"/>
     <use xlink:href="#DejaVuSans-Bold-33" transform="translate(69.580078 0)"/>
    </g>
   </g>
   <g id="text_15">
    <!-- 13 -->
    <g style="fill: #2f3437" transform="translate(207.780516 200.226806) scale(0.09 -0.09)">
     <use xlink:href="#DejaVuSans-Bold-31"/>
     <use xlink:href="#DejaVuSans-Bold-33" transform="translate(69.580078 0)"/>
    </g>
   </g>
   <g id="text_16">
    <!-- 17 -->
    <g style="fill: #2f3437" transform="translate(234.564516 152.241806) scale(0.09 -0.09)">
     <defs>
      <path id="DejaVuSans-Bold-37" d="M 428 4666
L 3944 4666
L 3944 3988
L 2125 0
L 953 0
L 2675 3781
L 428 3781
L 428 4666
z
" transform="scale(0.015625)"/>
     </defs>
     <use xlink:href="#DejaVuSans-Bold-31"/>
     <use xlink:href="#DejaVuSans-Bold-37" transform="translate(69.580078 0)"/>
    </g>
   </g>
   <g id="text_17">
    <!-- 49 -->
    <g style="fill: #2f3437" transform="translate(368.484516 104.256806) scale(0.09 -0.09)">
     <defs>
      <path id="DejaVuSans-Bold-34" d="M 2356 3675
L 1038 1722
L 2356 1722
L 2356 3675
z
M 2156 4666
L 3494 4666
L 3494 1722
L 4159 1722
L 4159 850
L 3494 850
L 3494 0
L 2356 0
L 2356 850
L 288 850
L 288 1881
L 2156 4666
z
" transform="scale(0.015625)"/>
      <path id="DejaVuSans-Bold-39" d="M 641 103
L 641 966
Q 928 831 1190 764
Q 1453 697 1709 697
Q 2247 697 2547 995
Q 2847 1294 2900 1881
Q 2688 1725 2447 1647
Q 2206 1569 1925 1569
Q 1209 1569 770 1986
Q 331 2403 331 3084
Q 331 3838 820 4291
Q 1309 4744 2131 4744
Q 3044 4744 3544 4128
Q 4044 3513 4044 2388
Q 4044 1231 3459 570
Q 2875 -91 1856 -91
Q 1528 -91 1228 -42
Q 928 6 641 103
z
M 2125 2350
Q 2441 2350 2600 2554
Q 2759 2759 2759 3169
Q 2759 3575 2600 3781
Q 2441 3988 2125 3988
Q 1809 3988 1650 3781
Q 1491 3575 1491 3169
Q 1491 2759 1650 2554
Q 1809 2350 2125 2350
z
" transform="scale(0.015625)"/>
     </defs>
     <use xlink:href="#DejaVuSans-Bold-34"/>
     <use xlink:href="#DejaVuSans-Bold-39" transform="translate(69.580078 0)"/>
    </g>
   </g>
   <g id="text_18">
    <!-- 9 -->
    <g style="fill: #2f3437" transform="translate(193.055531 56.271806) scale(0.09 -0.09)">
     <use xlink:href="#DejaVuSans-Bold-39"/>
    </g>
   </g>
   <g id="text_19">
    <!-- 1 -->
    <g style="fill: #2f3437" transform="translate(273.407531 248.211806) scale(0.09 -0.09)">
     <use xlink:href="#DejaVuSans-Bold-31"/>
    </g>
   </g>
   <g id="text_20">
    <!-- 1 -->
    <g style="fill: #2f3437" transform="translate(318.047531 152.241806) scale(0.09 -0.09)">
     <use xlink:href="#DejaVuSans-Bold-31"/>
    </g>
   </g>
   <g id="text_21">
    <!-- 6 -->
    <g style="fill: #2f3437" transform="translate(617.135531 104.256806) scale(0.09 -0.09)">
     <defs>
      <path id="DejaVuSans-Bold-36" d="M 2316 2303
Q 2000 2303 1842 2098
Q 1684 1894 1684 1484
Q 1684 1075 1842 870
Q 2000 666 2316 666
Q 2634 666 2792 870
Q 2950 1075 2950 1484
Q 2950 1894 2792 2098
Q 2634 2303 2316 2303
z
M 3803 4544
L 3803 3681
Q 3506 3822 3243 3889
Q 2981 3956 2731 3956
Q 2194 3956 1894 3657
Q 1594 3359 1544 2772
Q 1750 2925 1990 3001
Q 2231 3078 2516 3078
Q 3231 3078 3670 2659
Q 4109 2241 4109 1563
Q 4109 813 3618 361
Q 3128 -91 2303 -91
Q 1394 -91 895 523
Q 397 1138 397 2266
Q 397 3422 980 4083
Q 1563 4744 2578 4744
Q 2900 4744 3203 4694
Q 3506 4644 3803 4544
z
" transform="scale(0.015625)"/>
     </defs>
     <use xlink:href="#DejaVuSans-Bold-36"/>
    </g>
   </g>
   <g id="text_22">
    <!-- 2 -->
    <g style="fill: #2f3437" transform="translate(242.159531 56.271806) scale(0.09 -0.09)">
     <defs>
      <path id="DejaVuSans-Bold-32" d="M 1844 884
L 3897 884
L 3897 0
L 506 0
L 506 884
L 2209 2388
Q 2438 2594 2547 2791
Q 2656 2988 2656 3200
Q 2656 3528 2436 3728
Q 2216 3928 1850 3928
Q 1569 3928 1234 3808
Q 900 3688 519 3450
L 519 4475
Q 925 4609 1322 4679
Q 1719 4750 2100 4750
Q 2938 4750 3402 4381
Q 3866 4013 3866 3353
Q 3866 2972 3669 2642
Q 3472 2313 2841 1759
L 1844 884
z
" transform="scale(0.015625)"/>
     </defs>
     <use xlink:href="#DejaVuSans-Bold-32"/>
    </g>
   </g>
   <g id="text_23">
    <!-- Scientific Role and Commercial Action Remain Separate -->
    <g transform="translate(209.342953 17.077969) scale(0.13 -0.13)">
     <defs>
      <path id="DejaVuSans-Bold-53" d="M 3834 4519
L 3834 3531
Q 3450 3703 3084 3790
Q 2719 3878 2394 3878
Q 1963 3878 1756 3759
Q 1550 3641 1550 3391
Q 1550 3203 1689 3098
Q 1828 2994 2194 2919
L 2706 2816
Q 3484 2659 3812 2340
Q 4141 2022 4141 1434
Q 4141 663 3683 286
Q 3225 -91 2284 -91
Q 1841 -91 1394 -6
Q 947 78 500 244
L 500 1259
Q 947 1022 1364 901
Q 1781 781 2169 781
Q 2563 781 2772 912
Q 2981 1044 2981 1288
Q 2981 1506 2839 1625
Q 2697 1744 2272 1838
L 1806 1941
Q 1106 2091 782 2419
Q 459 2747 459 3303
Q 459 4000 909 4375
Q 1359 4750 2203 4750
Q 2588 4750 2994 4692
Q 3400 4634 3834 4519
z
" transform="scale(0.015625)"/>
      <path id="DejaVuSans-Bold-63" d="M 3366 3391
L 3366 2478
Q 3138 2634 2908 2709
Q 2678 2784 2431 2784
Q 1963 2784 1702 2511
Q 1441 2238 1441 1747
Q 1441 1256 1702 982
Q 1963 709 2431 709
Q 2694 709 2930 787
Q 3166 866 3366 1019
L 3366 103
Q 3103 6 2833 -42
Q 2563 -91 2291 -91
Q 1344 -91 809 395
Q 275 881 275 1747
Q 275 2613 809 3098
Q 1344 3584 2291 3584
Q 2566 3584 2833 3536
Q 3100 3488 3366 3391
z
" transform="scale(0.015625)"/>
      <path id="DejaVuSans-Bold-69" d="M 538 3500
L 1656 3500
L 1656 0
L 538 0
L 538 3500
z
M 538 4863
L 1656 4863
L 1656 3950
L 538 3950
L 538 4863
z
" transform="scale(0.015625)"/>
      <path id="DejaVuSans-Bold-65" d="M 4031 1759
L 4031 1441
L 1416 1441
Q 1456 1047 1700 850
Q 1944 653 2381 653
Q 2734 653 3104 758
Q 3475 863 3866 1075
L 3866 213
Q 3469 63 3072 -14
Q 2675 -91 2278 -91
Q 1328 -91 801 392
Q 275 875 275 1747
Q 275 2603 792 3093
Q 1309 3584 2216 3584
Q 3041 3584 3536 3087
Q 4031 2591 4031 1759
z
M 2881 2131
Q 2881 2450 2695 2645
Q 2509 2841 2209 2841
Q 1884 2841 1681 2658
Q 1478 2475 1428 2131
L 2881 2131
z
" transform="scale(0.015625)"/>
      <path id="DejaVuSans-Bold-6e" d="M 4056 2131
L 4056 0
L 2931 0
L 2931 347
L 2931 1631
Q 2931 2084 2911 2256
Q 2891 2428 2841 2509
Q 2775 2619 2662 2680
Q 2550 2741 2406 2741
Q 2056 2741 1856 2470
Q 1656 2200 1656 1722
L 1656 0
L 538 0
L 538 3500
L 1656 3500
L 1656 2988
Q 1909 3294 2193 3439
Q 2478 3584 2822 3584
Q 3428 3584 3742 3212
Q 4056 2841 4056 2131
z
" transform="scale(0.015625)"/>
      <path id="DejaVuSans-Bold-74" d="M 1759 4494
L 1759 3500
L 2913 3500
L 2913 2700
L 1759 2700
L 1759 1216
Q 1759 972 1856 886
Q 1953 800 2241 800
L 2816 800
L 2816 0
L 1856 0
Q 1194 0 917 276
Q 641 553 641 1216
L 641 2700
L 84 2700
L 84 3500
L 641 3500
L 641 4494
L 1759 4494
z
" transform="scale(0.015625)"/>
      <path id="DejaVuSans-Bold-66" d="M 2841 4863
L 2841 4128
L 2222 4128
Q 1984 4128 1890 4042
Q 1797 3956 1797 3744
L 1797 3500
L 2753 3500
L 2753 2700
L 1797 2700
L 1797 0
L 678 0
L 678 2700
L 122 2700
L 122 3500
L 678 3500
L 678 3744
Q 678 4316 997 4589
Q 1316 4863 1984 4863
L 2841 4863
z
" transform="scale(0.015625)"/>
      <path id="DejaVuSans-Bold-20" transform="scale(0.015625)"/>
      <path id="DejaVuSans-Bold-52" d="M 2297 2597
Q 2675 2597 2839 2737
Q 3003 2878 3003 3200
Q 3003 3519 2839 3656
Q 2675 3794 2297 3794
L 1791 3794
L 1791 2597
L 2297 2597
z
M 1791 1766
L 1791 0
L 588 0
L 588 4666
L 2425 4666
Q 3347 4666 3776 4356
Q 4206 4047 4206 3378
Q 4206 2916 3982 2619
Q 3759 2322 3309 2181
Q 3556 2125 3751 1926
Q 3947 1728 4147 1325
L 4800 0
L 3519 0
L 2950 1159
Q 2778 1509 2601 1637
Q 2425 1766 2131 1766
L 1791 1766
z
" transform="scale(0.015625)"/>
      <path id="DejaVuSans-Bold-6f" d="M 2203 2784
Q 1831 2784 1636 2517
Q 1441 2250 1441 1747
Q 1441 1244 1636 976
Q 1831 709 2203 709
Q 2569 709 2762 976
Q 2956 1244 2956 1747
Q 2956 2250 2762 2517
Q 2569 2784 2203 2784
z
M 2203 3584
Q 3106 3584 3614 3096
Q 4122 2609 4122 1747
Q 4122 884 3614 396
Q 3106 -91 2203 -91
Q 1297 -91 786 396
Q 275 884 275 1747
Q 275 2609 786 3096
Q 1297 3584 2203 3584
z
" transform="scale(0.015625)"/>
      <path id="DejaVuSans-Bold-6c" d="M 538 4863
L 1656 4863
L 1656 0
L 538 0
L 538 4863
z
" transform="scale(0.015625)"/>
      <path id="DejaVuSans-Bold-61" d="M 2106 1575
Q 1756 1575 1579 1456
Q 1403 1338 1403 1106
Q 1403 894 1545 773
Q 1688 653 1941 653
Q 2256 653 2472 879
Q 2688 1106 2688 1447
L 2688 1575
L 2106 1575
z
M 3816 1997
L 3816 0
L 2688 0
L 2688 519
Q 2463 200 2181 54
Q 1900 -91 1497 -91
Q 953 -91 614 226
Q 275 544 275 1050
Q 275 1666 698 1953
Q 1122 2241 2028 2241
L 2688 2241
L 2688 2328
Q 2688 2594 2478 2717
Q 2269 2841 1825 2841
Q 1466 2841 1156 2769
Q 847 2697 581 2553
L 581 3406
Q 941 3494 1303 3539
Q 1666 3584 2028 3584
Q 2975 3584 3395 3211
Q 3816 2838 3816 1997
z
" transform="scale(0.015625)"/>
      <path id="DejaVuSans-Bold-64" d="M 2919 2988
L 2919 4863
L 4044 4863
L 4044 0
L 2919 0
L 2919 506
Q 2688 197 2409 53
Q 2131 -91 1766 -91
Q 1119 -91 703 423
Q 288 938 288 1747
Q 288 2556 703 3070
Q 1119 3584 1766 3584
Q 2128 3584 2408 3439
Q 2688 3294 2919 2988
z
M 2181 722
Q 2541 722 2730 984
Q 2919 1247 2919 1747
Q 2919 2247 2730 2509
Q 2541 2772 2181 2772
Q 1825 2772 1636 2509
Q 1447 2247 1447 1747
Q 1447 1247 1636 984
Q 1825 722 2181 722
z
" transform="scale(0.015625)"/>
      <path id="DejaVuSans-Bold-43" d="M 4288 256
Q 3956 84 3597 -3
Q 3238 -91 2847 -91
Q 1681 -91 1000 561
Q 319 1213 319 2328
Q 319 3447 1000 4098
Q 1681 4750 2847 4750
Q 3238 4750 3597 4662
Q 3956 4575 4288 4403
L 4288 3438
Q 3953 3666 3628 3772
Q 3303 3878 2944 3878
Q 2300 3878 1931 3465
Q 1563 3053 1563 2328
Q 1563 1606 1931 1193
Q 2300 781 2944 781
Q 3303 781 3628 887
Q 3953 994 4288 1222
L 4288 256
z
" transform="scale(0.015625)"/>
      <path id="DejaVuSans-Bold-6d" d="M 3781 2919
Q 3994 3244 4286 3414
Q 4578 3584 4928 3584
Q 5531 3584 5847 3212
Q 6163 2841 6163 2131
L 6163 0
L 5038 0
L 5038 1825
Q 5041 1866 5042 1909
Q 5044 1953 5044 2034
Q 5044 2406 4934 2573
Q 4825 2741 4581 2741
Q 4263 2741 4089 2478
Q 3916 2216 3909 1719
L 3909 0
L 2784 0
L 2784 1825
Q 2784 2406 2684 2573
Q 2584 2741 2328 2741
Q 2006 2741 1831 2477
Q 1656 2213 1656 1722
L 1656 0
L 531 0
L 531 3500
L 1656 3500
L 1656 2988
Q 1863 3284 2130 3434
Q 2397 3584 2719 3584
Q 3081 3584 3359 3409
Q 3638 3234 3781 2919
z
" transform="scale(0.015625)"/>
      <path id="DejaVuSans-Bold-72" d="M 3138 2547
Q 2991 2616 2845 2648
Q 2700 2681 2553 2681
Q 2122 2681 1889 2404
Q 1656 2128 1656 1613
L 1656 0
L 538 0
L 538 3500
L 1656 3500
L 1656 2925
Q 1872 3269 2151 3426
Q 2431 3584 2822 3584
Q 2878 3584 2943 3579
Q 3009 3575 3134 3559
L 3138 2547
z
" transform="scale(0.015625)"/>
      <path id="DejaVuSans-Bold-41" d="M 3419 850
L 1538 850
L 1241 0
L 31 0
L 1759 4666
L 3194 4666
L 4922 0
L 3713 0
L 3419 850
z
M 1838 1716
L 3116 1716
L 2478 3572
L 1838 1716
z
" transform="scale(0.015625)"/>
      <path id="DejaVuSans-Bold-70" d="M 1656 506
L 1656 -1331
L 538 -1331
L 538 3500
L 1656 3500
L 1656 2988
Q 1888 3294 2169 3439
Q 2450 3584 2816 3584
Q 3463 3584 3878 3070
Q 4294 2556 4294 1747
Q 4294 938 3878 423
Q 3463 -91 2816 -91
Q 2450 -91 2169 54
Q 1888 200 1656 506
z
M 2400 2772
Q 2041 2772 1848 2508
Q 1656 2244 1656 1747
Q 1656 1250 1848 986
Q 2041 722 2400 722
Q 2759 722 2948 984
Q 3138 1247 3138 1747
Q 3138 2247 2948 2509
Q 2759 2772 2400 2772
z
" transform="scale(0.015625)"/>
     </defs>
     <use xlink:href="#DejaVuSans-Bold-53"/>
     <use xlink:href="#DejaVuSans-Bold-63" transform="translate(72.021484 0)"/>
     <use xlink:href="#DejaVuSans-Bold-69" transform="translate(131.298828 0)"/>
     <use xlink:href="#DejaVuSans-Bold-65" transform="translate(165.576172 0)"/>
     <use xlink:href="#DejaVuSans-Bold-6e" transform="translate(233.398438 0)"/>
     <use xlink:href="#DejaVuSans-Bold-74" transform="translate(304.589844 0)"/>
     <use xlink:href="#DejaVuSans-Bold-69" transform="translate(352.392578 0)"/>
     <use xlink:href="#DejaVuSans-Bold-66" transform="translate(386.669922 0)"/>
     <use xlink:href="#DejaVuSans-Bold-69" transform="translate(430.175781 0)"/>
     <use xlink:href="#DejaVuSans-Bold-63" transform="translate(464.453125 0)"/>
     <use xlink:href="#DejaVuSans-Bold-20" transform="translate(523.730469 0)"/>
     <use xlink:href="#DejaVuSans-Bold-52" transform="translate(558.544922 0)"/>
     <use xlink:href="#DejaVuSans-Bold-6f" transform="translate(635.546875 0)"/>
     <use xlink:href="#DejaVuSans-Bold-6c" transform="translate(704.248047 0)"/>
     <use xlink:href="#DejaVuSans-Bold-65" transform="translate(738.525391 0)"/>
     <use xlink:href="#DejaVuSans-Bold-20" transform="translate(806.347656 0)"/>
     <use xlink:href="#DejaVuSans-Bold-61" transform="translate(841.162109 0)"/>
     <use xlink:href="#DejaVuSans-Bold-6e" transform="translate(908.642578 0)"/>
     <use xlink:href="#DejaVuSans-Bold-64" transform="translate(979.833984 0)"/>
     <use xlink:href="#DejaVuSans-Bold-20" transform="translate(1051.416016 0)"/>
     <use xlink:href="#DejaVuSans-Bold-43" transform="translate(1086.230469 0)"/>
     <use xlink:href="#DejaVuSans-Bold-6f" transform="translate(1159.619141 0)"/>
     <use xlink:href="#DejaVuSans-Bold-6d" transform="translate(1228.320312 0)"/>
     <use xlink:href="#DejaVuSans-Bold-6d" transform="translate(1332.519531 0)"/>
     <use xlink:href="#DejaVuSans-Bold-65" transform="translate(1436.71875 0)"/>
     <use xlink:href="#DejaVuSans-Bold-72" transform="translate(1504.541016 0)"/>
     <use xlink:href="#DejaVuSans-Bold-63" transform="translate(1553.857422 0)"/>
     <use xlink:href="#DejaVuSans-Bold-69" transform="translate(1613.134766 0)"/>
     <use xlink:href="#DejaVuSans-Bold-61" transform="translate(1647.412109 0)"/>
     <use xlink:href="#DejaVuSans-Bold-6c" transform="translate(1714.892578 0)"/>
     <use xlink:href="#DejaVuSans-Bold-20" transform="translate(1749.169922 0)"/>
     <use xlink:href="#DejaVuSans-Bold-41" transform="translate(1783.984375 0)"/>
     <use xlink:href="#DejaVuSans-Bold-63" transform="translate(1861.376953 0)"/>
     <use xlink:href="#DejaVuSans-Bold-74" transform="translate(1920.654297 0)"/>
     <use xlink:href="#DejaVuSans-Bold-69" transform="translate(1968.457031 0)"/>
     <use xlink:href="#DejaVuSans-Bold-6f" transform="translate(2002.734375 0)"/>
     <use xlink:href="#DejaVuSans-Bold-6e" transform="translate(2071.435547 0)"/>
     <use xlink:href="#DejaVuSans-Bold-20" transform="translate(2142.626953 0)"/>
     <use xlink:href="#DejaVuSans-Bold-52" transform="translate(2177.441406 0)"/>
     <use xlink:href="#DejaVuSans-Bold-65" transform="translate(2254.443359 0)"/>
     <use xlink:href="#DejaVuSans-Bold-6d" transform="translate(2322.265625 0)"/>
     <use xlink:href="#DejaVuSans-Bold-61" transform="translate(2426.464844 0)"/>
     <use xlink:href="#DejaVuSans-Bold-69" transform="translate(2493.945312 0)"/>
     <use xlink:href="#DejaVuSans-Bold-6e" transform="translate(2528.222656 0)"/>
     <use xlink:href="#DejaVuSans-Bold-20" transform="translate(2599.414062 0)"/>
     <use xlink:href="#DejaVuSans-Bold-53" transform="translate(2634.228516 0)"/>
     <use xlink:href="#DejaVuSans-Bold-65" transform="translate(2706.25 0)"/>
     <use xlink:href="#DejaVuSans-Bold-70" transform="translate(2774.072266 0)"/>
     <use xlink:href="#DejaVuSans-Bold-61" transform="translate(2845.654297 0)"/>
     <use xlink:href="#DejaVuSans-Bold-72" transform="translate(2913.134766 0)"/>
     <use xlink:href="#DejaVuSans-Bold-61" transform="translate(2962.451172 0)"/>
     <use xlink:href="#DejaVuSans-Bold-74" transform="translate(3029.931641 0)"/>
     <use xlink:href="#DejaVuSans-Bold-65" transform="translate(3077.734375 0)"/>
    </g>
   </g>
   <g id="legend_1">
    <g id="patch_20">
     <path d="M 602.878719 242.068222
L 619.878719 242.068222
L 619.878719 236.118222
L 602.878719 236.118222
z
" style="fill: #9a9a9a; stroke: #ffffff; stroke-width: 0.5; stroke-linejoin: miter"/>
    </g>
    <g id="text_24">
     <!-- Maintain -->
     <g transform="translate(626.678719 242.068222) scale(0.085 -0.085)">
      <defs>
       <path id="DejaVuSans-4d" d="M 628 4666
L 1569 4666
L 2759 1491
L 3956 4666
L 4897 4666
L 4897 0
L 4281 0
L 4281 4097
L 3078 897
L 2444 897
L 1241 4097
L 1241 0
L 628 0
L 628 4666
z
" transform="scale(0.015625)"/>
      </defs>
      <use xlink:href="#DejaVuSans-4d"/>
      <use xlink:href="#DejaVuSans-61" transform="translate(86.279297 0)"/>
      <use xlink:href="#DejaVuSans-69" transform="translate(147.558594 0)"/>
      <use xlink:href="#DejaVuSans-6e" transform="translate(175.341797 0)"/>
      <use xlink:href="#DejaVuSans-74" transform="translate(238.720703 0)"/>
      <use xlink:href="#DejaVuSans-61" transform="translate(277.929688 0)"/>
      <use xlink:href="#DejaVuSans-69" transform="translate(339.208984 0)"/>
      <use xlink:href="#DejaVuSans-6e" transform="translate(366.992188 0)"/>
     </g>
    </g>
    <g id="patch_21">
     <path d="M 602.878719 254.544628
L 619.878719 254.544628
L 619.878719 248.594628
L 602.878719 248.594628
z
" style="fill: #7ba6d0; stroke: #ffffff; stroke-width: 0.5; stroke-linejoin: miter"/>
    </g>
    <g id="text_25">
     <!-- Monitor -->
     <g transform="translate(626.678719 254.544628) scale(0.085 -0.085)">
      <use xlink:href="#DejaVuSans-4d"/>
      <use xlink:href="#DejaVuSans-6f" transform="translate(86.279297 0)"/>
      <use xlink:href="#DejaVuSans-6e" transform="translate(147.460938 0)"/>
      <use xlink:href="#DejaVuSans-69" transform="translate(210.839844 0)"/>
      <use xlink:href="#DejaVuSans-74" transform="translate(238.623047 0)"/>
      <use xlink:href="#DejaVuSans-6f" transform="translate(277.832031 0)"/>
      <use xlink:href="#DejaVuSans-72" transform="translate(339.013672 0)"/>
     </g>
    </g>
    <g id="patch_22">
     <path d="M 602.878719 267.021034
L 619.878719 267.021034
L 619.878719 261.071034
L 602.878719 261.071034
z
" style="fill: #7fb685; stroke: #ffffff; stroke-width: 0.5; stroke-linejoin: miter"/>
    </g>
    <g id="text_26">
     <!-- Prioritize -->
     <g transform="translate(626.678719 267.021034) scale(0.085 -0.085)">
      <defs>
       <path id="DejaVuSans-7a" d="M 353 3500
L 3084 3500
L 3084 2975
L 922 459
L 3084 459
L 3084 0
L 275 0
L 275 525
L 2438 3041
L 353 3041
L 353 3500
z
" transform="scale(0.015625)"/>
      </defs>
      <use xlink:href="#DejaVuSans-50"/>
      <use xlink:href="#DejaVuSans-72" transform="translate(58.552734 0)"/>
      <use xlink:href="#DejaVuSans-69" transform="translate(99.666016 0)"/>
      <use xlink:href="#DejaVuSans-6f" transform="translate(127.449219 0)"/>
      <use xlink:href="#DejaVuSans-72" transform="translate(188.630859 0)"/>
      <use xlink:href="#DejaVuSans-69" transform="translate(229.744141 0)"/>
      <use xlink:href="#DejaVuSans-74" transform="translate(257.527344 0)"/>
      <use xlink:href="#DejaVuSans-69" transform="translate(296.736328 0)"/>
      <use xlink:href="#DejaVuSans-7a" transform="translate(324.519531 0)"/>
      <use xlink:href="#DejaVuSans-65" transform="translate(377.009766 0)"/>
     </g>
    </g>
   </g>
  </g>
 </g>
 <defs>
  <clipPath id="pdace769f27">
   <rect x="156.010547" y="23.077969" width="515.592" height="253.3608"/>
  </clipPath>
 </defs>
</svg>
