<?xml version="1.0" encoding="utf-8" standalone="no"?>
<!DOCTYPE svg PUBLIC "-//W3C//DTD SVG 1.1//EN"
  "http://www.w3.org/Graphics/SVG/1.1/DTD/svg11.dtd">
<svg xmlns:xlink="http://www.w3.org/1999/xlink" width="629.877031pt" height="551.836087pt" viewBox="0 0 629.877031 551.836087" xmlns="http://www.w3.org/2000/svg" version="1.1">
 <metadata>
  <rdf:RDF xmlns:dc="http://purl.org/dc/elements/1.1/" xmlns:cc="http://creativecommons.org/ns#" xmlns:rdf="http://www.w3.org/1999/02/22-rdf-syntax-ns#">
   <cc:Work>
    <dc:type rdf:resource="http://purl.org/dc/dcmitype/StillImage"/>
    <dc:date>2026-06-19T22:27:17.255973</dc:date>
    <dc:format>image/svg+xml</dc:format>
    <dc:creator>
     <cc:Agent>
      <dc:title>Matplotlib v3.10.9, https://matplotlib.org/</dc:title>
     </cc:Agent>
    </dc:creator>
   </cc:Work>
  </rdf:RDF>
 </metadata>
 <defs>
  <style type="text/css">*{stroke-linejoin: round; stroke-linecap: butt}</style>
 </defs>
 <g id="figure_1">
  <g id="patch_1">
   <path d="M 0 551.836087
L 629.877031 551.836087
L 629.877031 0
L 0 0
z
" style="fill: #ffffff"/>
  </g>
  <g id="axes_1">
   <g id="patch_2">
    <path d="M 68.277031 511.3764
L 622.677031 511.3764
L 622.677031 69.1164
L 68.277031 69.1164
z
" style="fill: #ffffff"/>
   </g>
   <g id="matplotlib.axis_1">
    <g id="xtick_1">
     <g id="line2d_1">
      <path d="M 68.277031 511.3764
L 68.277031 69.1164
" clip-path="url(#p80dc3fb6ad)" style="fill: none; stroke: #e6e8f0; stroke-opacity: 0.9; stroke-width: 0.8; stroke-linecap: square"/>
     </g>
     <g id="line2d_2">
      <defs>
       <path id="m3c118865db" d="M 0 0
L 0 3.5
" style="stroke: #6f768a; stroke-width: 0.8"/>
      </defs>
      <g>
       <use xlink:href="#m3c118865db" x="68.277031" y="511.3764" style="fill: #6f768a; stroke: #6f768a; stroke-width: 0.8"/>
      </g>
     </g>
     <g id="text_1">
      <!-- 0 -->
      <g style="fill: #6f768a" transform="translate(64.777656 526.734681) scale(0.11 -0.11)">
       <defs>
        <path id="DejaVuSans-30" d="M 2034 4250
Q 1547 4250 1301 3770
Q 1056 3291 1056 2328
Q 1056 1369 1301 889
Q 1547 409 2034 409
Q 2525 409 2770 889
Q 3016 1369 3016 2328
Q 3016 3291 2770 3770
Q 2525 4250 2034 4250
z
M 2034 4750
Q 2819 4750 3233 4129
Q 3647 3509 3647 2328
Q 3647 1150 3233 529
Q 2819 -91 2034 -91
Q 1250 -91 836 529
Q 422 1150 422 2328
Q 422 3509 836 4129
Q 1250 4750 2034 4750
z
" transform="scale(0.015625)"/>
       </defs>
       <use xlink:href="#DejaVuSans-30"/>
      </g>
     </g>
    </g>
    <g id="xtick_2">
     <g id="line2d_3">
      <path d="M 141.610365 511.3764
L 141.610365 69.1164
" clip-path="url(#p80dc3fb6ad)" style="fill: none; stroke: #e6e8f0; stroke-opacity: 0.9; stroke-width: 0.8; stroke-linecap: square"/>
     </g>
     <g id="line2d_4">
      <g>
       <use xlink:href="#m3c118865db" x="141.610365" y="511.3764" style="fill: #6f768a; stroke: #6f768a; stroke-width: 0.8"/>
      </g>
     </g>
     <g id="text_2">
      <!-- 5 -->
      <g style="fill: #6f768a" transform="translate(138.11099 526.734681) scale(0.11 -0.11)">
       <defs>
        <path id="DejaVuSans-35" d="M 691 4666
L 3169 4666
L 3169 4134
L 1269 4134
L 1269 2991
Q 1406 3038 1543 3061
Q 1681 3084 1819 3084
Q 2600 3084 3056 2656
Q 3513 2228 3513 1497
Q 3513 744 3044 326
Q 2575 -91 1722 -91
Q 1428 -91 1123 -41
Q 819 9 494 109
L 494 744
Q 775 591 1075 516
Q 1375 441 1709 441
Q 2250 441 2565 725
Q 2881 1009 2881 1497
Q 2881 1984 2565 2268
Q 2250 2553 1709 2553
Q 1456 2553 1204 2497
Q 953 2441 691 2322
L 691 4666
z
" transform="scale(0.015625)"/>
       </defs>
       <use xlink:href="#DejaVuSans-35"/>
      </g>
     </g>
    </g>
    <g id="xtick_3">
     <g id="line2d_5">
      <path d="M 214.943698 511.3764
L 214.943698 69.1164
" clip-path="url(#p80dc3fb6ad)" style="fill: none; stroke: #e6e8f0; stroke-opacity: 0.9; stroke-width: 0.8; stroke-linecap: square"/>
     </g>
     <g id="line2d_6">
      <g>
       <use xlink:href="#m3c118865db" x="214.943698" y="511.3764" style="fill: #6f768a; stroke: #6f768a; stroke-width: 0.8"/>
      </g>
     </g>
     <g id="text_3">
      <!-- 10 -->
      <g style="fill: #6f768a" transform="translate(207.944948 526.734681) scale(0.11 -0.11)">
       <defs>
        <path id="DejaVuSans-31" d="M 794 531
L 1825 531
L 1825 4091
L 703 3866
L 703 4441
L 1819 4666
L 2450 4666
L 2450 531
L 3481 531
L 3481 0
L 794 0
L 794 531
z
" transform="scale(0.015625)"/>
       </defs>
       <use xlink:href="#DejaVuSans-31"/>
       <use xlink:href="#DejaVuSans-30" transform="translate(63.623047 0)"/>
      </g>
     </g>
    </g>
    <g id="xtick_4">
     <g id="line2d_7">
      <path d="M 288.277031 511.3764
L 288.277031 69.1164
" clip-path="url(#p80dc3fb6ad)" style="fill: none; stroke: #e6e8f0; stroke-opacity: 0.9; stroke-width: 0.8; stroke-linecap: square"/>
     </g>
     <g id="line2d_8">
      <g>
       <use xlink:href="#m3c118865db" x="288.277031" y="511.3764" style="fill: #6f768a; stroke: #6f768a; stroke-width: 0.8"/>
      </g>
     </g>
     <g id="text_4">
      <!-- 15 -->
      <g style="fill: #6f768a" transform="translate(281.278281 526.734681) scale(0.11 -0.11)">
       <use xlink:href="#DejaVuSans-31"/>
       <use xlink:href="#DejaVuSans-35" transform="translate(63.623047 0)"/>
      </g>
     </g>
    </g>
    <g id="xtick_5">
     <g id="line2d_9">
      <path d="M 361.610365 511.3764
L 361.610365 69.1164
" clip-path="url(#p80dc3fb6ad)" style="fill: none; stroke: #e6e8f0; stroke-opacity: 0.9; stroke-width: 0.8; stroke-linecap: square"/>
     </g>
     <g id="line2d_10">
      <g>
       <use xlink:href="#m3c118865db" x="361.610365" y="511.3764" style="fill: #6f768a; stroke: #6f768a; stroke-width: 0.8"/>
      </g>
     </g>
     <g id="text_5">
      <!-- 20 -->
      <g style="fill: #6f768a" transform="translate(354.611615 526.734681) scale(0.11 -0.11)">
       <defs>
        <path id="DejaVuSans-32" d="M 1228 531
L 3431 531
L 3431 0
L 469 0
L 469 531
Q 828 903 1448 1529
Q 2069 2156 2228 2338
Q 2531 2678 2651 2914
Q 2772 3150 2772 3378
Q 2772 3750 2511 3984
Q 2250 4219 1831 4219
Q 1534 4219 1204 4116
Q 875 4013 500 3803
L 500 4441
Q 881 4594 1212 4672
Q 1544 4750 1819 4750
Q 2544 4750 2975 4387
Q 3406 4025 3406 3419
Q 3406 3131 3298 2873
Q 3191 2616 2906 2266
Q 2828 2175 2409 1742
Q 1991 1309 1228 531
z
" transform="scale(0.015625)"/>
       </defs>
       <use xlink:href="#DejaVuSans-32"/>
       <use xlink:href="#DejaVuSans-30" transform="translate(63.623047 0)"/>
      </g>
     </g>
    </g>
    <g id="xtick_6">
     <g id="line2d_11">
      <path d="M 434.943698 511.3764
L 434.943698 69.1164
" clip-path="url(#p80dc3fb6ad)" style="fill: none; stroke: #e6e8f0; stroke-opacity: 0.9; stroke-width: 0.8; stroke-linecap: square"/>
     </g>
     <g id="line2d_12">
      <g>
       <use xlink:href="#m3c118865db" x="434.943698" y="511.3764" style="fill: #6f768a; stroke: #6f768a; stroke-width: 0.8"/>
      </g>
     </g>
     <g id="text_6">
      <!-- 25 -->
      <g style="fill: #6f768a" transform="translate(427.944948 526.734681) scale(0.11 -0.11)">
       <use xlink:href="#DejaVuSans-32"/>
       <use xlink:href="#DejaVuSans-35" transform="translate(63.623047 0)"/>
      </g>
     </g>
    </g>
    <g id="xtick_7">
     <g id="line2d_13">
      <path d="M 508.277031 511.3764
L 508.277031 69.1164
" clip-path="url(#p80dc3fb6ad)" style="fill: none; stroke: #e6e8f0; stroke-opacity: 0.9; stroke-width: 0.8; stroke-linecap: square"/>
     </g>
     <g id="line2d_14">
      <g>
       <use xlink:href="#m3c118865db" x="508.277031" y="511.3764" style="fill: #6f768a; stroke: #6f768a; stroke-width: 0.8"/>
      </g>
     </g>
     <g id="text_7">
      <!-- 30 -->
      <g style="fill: #6f768a" transform="translate(501.278281 526.734681) scale(0.11 -0.11)">
       <defs>
        <path id="DejaVuSans-33" d="M 2597 2516
Q 3050 2419 3304 2112
Q 3559 1806 3559 1356
Q 3559 666 3084 287
Q 2609 -91 1734 -91
Q 1441 -91 1130 -33
Q 819 25 488 141
L 488 750
Q 750 597 1062 519
Q 1375 441 1716 441
Q 2309 441 2620 675
Q 2931 909 2931 1356
Q 2931 1769 2642 2001
Q 2353 2234 1838 2234
L 1294 2234
L 1294 2753
L 1863 2753
Q 2328 2753 2575 2939
Q 2822 3125 2822 3475
Q 2822 3834 2567 4026
Q 2313 4219 1838 4219
Q 1578 4219 1281 4162
Q 984 4106 628 3988
L 628 4550
Q 988 4650 1302 4700
Q 1616 4750 1894 4750
Q 2613 4750 3031 4423
Q 3450 4097 3450 3541
Q 3450 3153 3228 2886
Q 3006 2619 2597 2516
z
" transform="scale(0.015625)"/>
       </defs>
       <use xlink:href="#DejaVuSans-33"/>
       <use xlink:href="#DejaVuSans-30" transform="translate(63.623047 0)"/>
      </g>
     </g>
    </g>
    <g id="xtick_8">
     <g id="line2d_15">
      <path d="M 581.610365 511.3764
L 581.610365 69.1164
" clip-path="url(#p80dc3fb6ad)" style="fill: none; stroke: #e6e8f0; stroke-opacity: 0.9; stroke-width: 0.8; stroke-linecap: square"/>
     </g>
     <g id="line2d_16">
      <g>
       <use xlink:href="#m3c118865db" x="581.610365" y="511.3764" style="fill: #6f768a; stroke: #6f768a; stroke-width: 0.8"/>
      </g>
     </g>
     <g id="text_8">
      <!-- 35 -->
      <g style="fill: #6f768a" transform="translate(574.611615 526.734681) scale(0.11 -0.11)">
       <use xlink:href="#DejaVuSans-33"/>
       <use xlink:href="#DejaVuSans-35" transform="translate(63.623047 0)"/>
      </g>
     </g>
    </g>
    <g id="text_9">
     <!-- Patients -->
     <g style="fill: #1f2430" transform="translate(321.461094 542.140462) scale(0.12 -0.12)">
      <defs>
       <path id="DejaVuSans-50" d="M 1259 4147
L 1259 2394
L 2053 2394
Q 2494 2394 2734 2622
Q 2975 2850 2975 3272
Q 2975 3691 2734 3919
Q 2494 4147 2053 4147
L 1259 4147
z
M 628 4666
L 2053 4666
Q 2838 4666 3239 4311
Q 3641 3956 3641 3272
Q 3641 2581 3239 2228
Q 2838 1875 2053 1875
L 1259 1875
L 1259 0
L 628 0
L 628 4666
z
" transform="scale(0.015625)"/>
       <path id="DejaVuSans-61" d="M 2194 1759
Q 1497 1759 1228 1600
Q 959 1441 959 1056
Q 959 750 1161 570
Q 1363 391 1709 391
Q 2188 391 2477 730
Q 2766 1069 2766 1631
L 2766 1759
L 2194 1759
z
M 3341 1997
L 3341 0
L 2766 0
L 2766 531
Q 2569 213 2275 61
Q 1981 -91 1556 -91
Q 1019 -91 701 211
Q 384 513 384 1019
Q 384 1609 779 1909
Q 1175 2209 1959 2209
L 2766 2209
L 2766 2266
Q 2766 2663 2505 2880
Q 2244 3097 1772 3097
Q 1472 3097 1187 3025
Q 903 2953 641 2809
L 641 3341
Q 956 3463 1253 3523
Q 1550 3584 1831 3584
Q 2591 3584 2966 3190
Q 3341 2797 3341 1997
z
" transform="scale(0.015625)"/>
       <path id="DejaVuSans-74" d="M 1172 4494
L 1172 3500
L 2356 3500
L 2356 3053
L 1172 3053
L 1172 1153
Q 1172 725 1289 603
Q 1406 481 1766 481
L 2356 481
L 2356 0
L 1766 0
Q 1100 0 847 248
Q 594 497 594 1153
L 594 3053
L 172 3053
L 172 3500
L 594 3500
L 594 4494
L 1172 4494
z
" transform="scale(0.015625)"/>
       <path id="DejaVuSans-69" d="M 603 3500
L 1178 3500
L 1178 0
L 603 0
L 603 3500
z
M 603 4863
L 1178 4863
L 1178 4134
L 603 4134
L 603 4863
z
" transform="scale(0.015625)"/>
       <path id="DejaVuSans-65" d="M 3597 1894
L 3597 1613
L 953 1613
Q 991 1019 1311 708
Q 1631 397 2203 397
Q 2534 397 2845 478
Q 3156 559 3463 722
L 3463 178
Q 3153 47 2828 -22
Q 2503 -91 2169 -91
Q 1331 -91 842 396
Q 353 884 353 1716
Q 353 2575 817 3079
Q 1281 3584 2069 3584
Q 2775 3584 3186 3129
Q 3597 2675 3597 1894
z
M 3022 2063
Q 3016 2534 2758 2815
Q 2500 3097 2075 3097
Q 1594 3097 1305 2825
Q 1016 2553 972 2059
L 3022 2063
z
" transform="scale(0.015625)"/>
       <path id="DejaVuSans-6e" d="M 3513 2113
L 3513 0
L 2938 0
L 2938 2094
Q 2938 2591 2744 2837
Q 2550 3084 2163 3084
Q 1697 3084 1428 2787
Q 1159 2491 1159 1978
L 1159 0
L 581 0
L 581 3500
L 1159 3500
L 1159 2956
Q 1366 3272 1645 3428
Q 1925 3584 2291 3584
Q 2894 3584 3203 3211
Q 3513 2838 3513 2113
z
" transform="scale(0.015625)"/>
       <path id="DejaVuSans-73" d="M 2834 3397
L 2834 2853
Q 2591 2978 2328 3040
Q 2066 3103 1784 3103
Q 1356 3103 1142 2972
Q 928 2841 928 2578
Q 928 2378 1081 2264
Q 1234 2150 1697 2047
L 1894 2003
Q 2506 1872 2764 1633
Q 3022 1394 3022 966
Q 3022 478 2636 193
Q 2250 -91 1575 -91
Q 1294 -91 989 -36
Q 684 19 347 128
L 347 722
Q 666 556 975 473
Q 1284 391 1588 391
Q 1994 391 2212 530
Q 2431 669 2431 922
Q 2431 1156 2273 1281
Q 2116 1406 1581 1522
L 1381 1569
Q 847 1681 609 1914
Q 372 2147 372 2553
Q 372 3047 722 3315
Q 1072 3584 1716 3584
Q 2034 3584 2315 3537
Q 2597 3491 2834 3397
z
" transform="scale(0.015625)"/>
      </defs>
      <use xlink:href="#DejaVuSans-50"/>
      <use xlink:href="#DejaVuSans-61" transform="translate(55.802734 0)"/>
      <use xlink:href="#DejaVuSans-74" transform="translate(117.082031 0)"/>
      <use xlink:href="#DejaVuSans-69" transform="translate(156.291016 0)"/>
      <use xlink:href="#DejaVuSans-65" transform="translate(184.074219 0)"/>
      <use xlink:href="#DejaVuSans-6e" transform="translate(245.597656 0)"/>
      <use xlink:href="#DejaVuSans-74" transform="translate(308.976562 0)"/>
      <use xlink:href="#DejaVuSans-73" transform="translate(348.185547 0)"/>
     </g>
    </g>
   </g>
   <g id="matplotlib.axis_2">
    <g id="ytick_1">
     <g id="line2d_17">
      <defs>
       <path id="m38c7da016b" d="M 0 0
L -3.5 0
" style="stroke: #6f768a; stroke-width: 0.8"/>
      </defs>
      <g>
       <use xlink:href="#m38c7da016b" x="68.277031" y="480.407334" style="fill: #6f768a; stroke: #6f768a; stroke-width: 0.8"/>
      </g>
     </g>
     <g id="text_10">
      <!-- HCP 0343 -->
      <g style="fill: #6f768a" transform="translate(7.2 484.586474) scale(0.11 -0.11)">
       <defs>
        <path id="DejaVuSans-48" d="M 628 4666
L 1259 4666
L 1259 2753
L 3553 2753
L 3553 4666
L 4184 4666
L 4184 0
L 3553 0
L 3553 2222
L 1259 2222
L 1259 0
L 628 0
L 628 4666
z
" transform="scale(0.015625)"/>
        <path id="DejaVuSans-43" d="M 4122 4306
L 4122 3641
Q 3803 3938 3442 4084
Q 3081 4231 2675 4231
Q 1875 4231 1450 3742
Q 1025 3253 1025 2328
Q 1025 1406 1450 917
Q 1875 428 2675 428
Q 3081 428 3442 575
Q 3803 722 4122 1019
L 4122 359
Q 3791 134 3420 21
Q 3050 -91 2638 -91
Q 1578 -91 968 557
Q 359 1206 359 2328
Q 359 3453 968 4101
Q 1578 4750 2638 4750
Q 3056 4750 3426 4639
Q 3797 4528 4122 4306
z
" transform="scale(0.015625)"/>
        <path id="DejaVuSans-20" transform="scale(0.015625)"/>
        <path id="DejaVuSans-34" d="M 2419 4116
L 825 1625
L 2419 1625
L 2419 4116
z
M 2253 4666
L 3047 4666
L 3047 1625
L 3713 1625
L 3713 1100
L 3047 1100
L 3047 0
L 2419 0
L 2419 1100
L 313 1100
L 313 1709
L 2253 4666
z
" transform="scale(0.015625)"/>
       </defs>
       <use xlink:href="#DejaVuSans-48"/>
       <use xlink:href="#DejaVuSans-43" transform="translate(75.195312 0)"/>
       <use xlink:href="#DejaVuSans-50" transform="translate(145.019531 0)"/>
       <use xlink:href="#DejaVuSans-20" transform="translate(205.322266 0)"/>
       <use xlink:href="#DejaVuSans-30" transform="translate(237.109375 0)"/>
       <use xlink:href="#DejaVuSans-33" transform="translate(300.732422 0)"/>
       <use xlink:href="#DejaVuSans-34" transform="translate(364.355469 0)"/>
       <use xlink:href="#DejaVuSans-33" transform="translate(427.978516 0)"/>
      </g>
     </g>
    </g>
    <g id="ytick_2">
     <g id="line2d_18">
      <g>
       <use xlink:href="#m38c7da016b" x="68.277031" y="453.241486" style="fill: #6f768a; stroke: #6f768a; stroke-width: 0.8"/>
      </g>
     </g>
     <g id="text_11">
      <!-- HCP 0506 -->
      <g style="fill: #6f768a" transform="translate(7.2 457.420627) scale(0.11 -0.11)">
       <defs>
        <path id="DejaVuSans-36" d="M 2113 2584
Q 1688 2584 1439 2293
Q 1191 2003 1191 1497
Q 1191 994 1439 701
Q 1688 409 2113 409
Q 2538 409 2786 701
Q 3034 994 3034 1497
Q 3034 2003 2786 2293
Q 2538 2584 2113 2584
z
M 3366 4563
L 3366 3988
Q 3128 4100 2886 4159
Q 2644 4219 2406 4219
Q 1781 4219 1451 3797
Q 1122 3375 1075 2522
Q 1259 2794 1537 2939
Q 1816 3084 2150 3084
Q 2853 3084 3261 2657
Q 3669 2231 3669 1497
Q 3669 778 3244 343
Q 2819 -91 2113 -91
Q 1303 -91 875 529
Q 447 1150 447 2328
Q 447 3434 972 4092
Q 1497 4750 2381 4750
Q 2619 4750 2861 4703
Q 3103 4656 3366 4563
z
" transform="scale(0.015625)"/>
       </defs>
       <use xlink:href="#DejaVuSans-48"/>
       <use xlink:href="#DejaVuSans-43" transform="translate(75.195312 0)"/>
       <use xlink:href="#DejaVuSans-50" transform="translate(145.019531 0)"/>
       <use xlink:href="#DejaVuSans-20" transform="translate(205.322266 0)"/>
       <use xlink:href="#DejaVuSans-30" transform="translate(237.109375 0)"/>
       <use xlink:href="#DejaVuSans-35" transform="translate(300.732422 0)"/>
       <use xlink:href="#DejaVuSans-30" transform="translate(364.355469 0)"/>
       <use xlink:href="#DejaVuSans-36" transform="translate(427.978516 0)"/>
      </g>
     </g>
    </g>
    <g id="ytick_3">
     <g id="line2d_19">
      <g>
       <use xlink:href="#m38c7da016b" x="68.277031" y="426.075638" style="fill: #6f768a; stroke: #6f768a; stroke-width: 0.8"/>
      </g>
     </g>
     <g id="text_12">
      <!-- HCP 0460 -->
      <g style="fill: #6f768a" transform="translate(7.2 430.254779) scale(0.11 -0.11)">
       <use xlink:href="#DejaVuSans-48"/>
       <use xlink:href="#DejaVuSans-43" transform="translate(75.195312 0)"/>
       <use xlink:href="#DejaVuSans-50" transform="translate(145.019531 0)"/>
       <use xlink:href="#DejaVuSans-20" transform="translate(205.322266 0)"/>
       <use xlink:href="#DejaVuSans-30" transform="translate(237.109375 0)"/>
       <use xlink:href="#DejaVuSans-34" transform="translate(300.732422 0)"/>
       <use xlink:href="#DejaVuSans-36" transform="translate(364.355469 0)"/>
       <use xlink:href="#DejaVuSans-30" transform="translate(427.978516 0)"/>
      </g>
     </g>
    </g>
    <g id="ytick_4">
     <g id="line2d_20">
      <g>
       <use xlink:href="#m38c7da016b" x="68.277031" y="398.909791" style="fill: #6f768a; stroke: #6f768a; stroke-width: 0.8"/>
      </g>
     </g>
     <g id="text_13">
      <!-- HCP 0516 -->
      <g style="fill: #6f768a" transform="translate(7.2 403.088931) scale(0.11 -0.11)">
       <use xlink:href="#DejaVuSans-48"/>
       <use xlink:href="#DejaVuSans-43" transform="translate(75.195312 0)"/>
       <use xlink:href="#DejaVuSans-50" transform="translate(145.019531 0)"/>
       <use xlink:href="#DejaVuSans-20" transform="translate(205.322266 0)"/>
       <use xlink:href="#DejaVuSans-30" transform="translate(237.109375 0)"/>
       <use xlink:href="#DejaVuSans-35" transform="translate(300.732422 0)"/>
       <use xlink:href="#DejaVuSans-31" transform="translate(364.355469 0)"/>
       <use xlink:href="#DejaVuSans-36" transform="translate(427.978516 0)"/>
      </g>
     </g>
    </g>
    <g id="ytick_5">
     <g id="line2d_21">
      <g>
       <use xlink:href="#m38c7da016b" x="68.277031" y="371.743943" style="fill: #6f768a; stroke: #6f768a; stroke-width: 0.8"/>
      </g>
     </g>
     <g id="text_14">
      <!-- HCP 0217 -->
      <g style="fill: #6f768a" transform="translate(7.2 375.923084) scale(0.11 -0.11)">
       <defs>
        <path id="DejaVuSans-37" d="M 525 4666
L 3525 4666
L 3525 4397
L 1831 0
L 1172 0
L 2766 4134
L 525 4134
L 525 4666
z
" transform="scale(0.015625)"/>
       </defs>
       <use xlink:href="#DejaVuSans-48"/>
       <use xlink:href="#DejaVuSans-43" transform="translate(75.195312 0)"/>
       <use xlink:href="#DejaVuSans-50" transform="translate(145.019531 0)"/>
       <use xlink:href="#DejaVuSans-20" transform="translate(205.322266 0)"/>
       <use xlink:href="#DejaVuSans-30" transform="translate(237.109375 0)"/>
       <use xlink:href="#DejaVuSans-32" transform="translate(300.732422 0)"/>
       <use xlink:href="#DejaVuSans-31" transform="translate(364.355469 0)"/>
       <use xlink:href="#DejaVuSans-37" transform="translate(427.978516 0)"/>
      </g>
     </g>
    </g>
    <g id="ytick_6">
     <g id="line2d_22">
      <g>
       <use xlink:href="#m38c7da016b" x="68.277031" y="344.578095" style="fill: #6f768a; stroke: #6f768a; stroke-width: 0.8"/>
      </g>
     </g>
     <g id="text_15">
      <!-- HCP 0537 -->
      <g style="fill: #6f768a" transform="translate(7.2 348.757236) scale(0.11 -0.11)">
       <use xlink:href="#DejaVuSans-48"/>
       <use xlink:href="#DejaVuSans-43" transform="translate(75.195312 0)"/>
       <use xlink:href="#DejaVuSans-50" transform="translate(145.019531 0)"/>
       <use xlink:href="#DejaVuSans-20" transform="translate(205.322266 0)"/>
       <use xlink:href="#DejaVuSans-30" transform="translate(237.109375 0)"/>
       <use xlink:href="#DejaVuSans-35" transform="translate(300.732422 0)"/>
       <use xlink:href="#DejaVuSans-33" transform="translate(364.355469 0)"/>
       <use xlink:href="#DejaVuSans-37" transform="translate(427.978516 0)"/>
      </g>
     </g>
    </g>
    <g id="ytick_7">
     <g id="line2d_23">
      <g>
       <use xlink:href="#m38c7da016b" x="68.277031" y="317.412248" style="fill: #6f768a; stroke: #6f768a; stroke-width: 0.8"/>
      </g>
     </g>
     <g id="text_16">
      <!-- HCP 0331 -->
      <g style="fill: #6f768a" transform="translate(7.2 321.591388) scale(0.11 -0.11)">
       <use xlink:href="#DejaVuSans-48"/>
       <use xlink:href="#DejaVuSans-43" transform="translate(75.195312 0)"/>
       <use xlink:href="#DejaVuSans-50" transform="translate(145.019531 0)"/>
       <use xlink:href="#DejaVuSans-20" transform="translate(205.322266 0)"/>
       <use xlink:href="#DejaVuSans-30" transform="translate(237.109375 0)"/>
       <use xlink:href="#DejaVuSans-33" transform="translate(300.732422 0)"/>
       <use xlink:href="#DejaVuSans-33" transform="translate(364.355469 0)"/>
       <use xlink:href="#DejaVuSans-31" transform="translate(427.978516 0)"/>
      </g>
     </g>
    </g>
    <g id="ytick_8">
     <g id="line2d_24">
      <g>
       <use xlink:href="#m38c7da016b" x="68.277031" y="290.2464" style="fill: #6f768a; stroke: #6f768a; stroke-width: 0.8"/>
      </g>
     </g>
     <g id="text_17">
      <!-- HCP 0026 -->
      <g style="fill: #6f768a" transform="translate(7.2 294.425541) scale(0.11 -0.11)">
       <use xlink:href="#DejaVuSans-48"/>
       <use xlink:href="#DejaVuSans-43" transform="translate(75.195312 0)"/>
       <use xlink:href="#DejaVuSans-50" transform="translate(145.019531 0)"/>
       <use xlink:href="#DejaVuSans-20" transform="translate(205.322266 0)"/>
       <use xlink:href="#DejaVuSans-30" transform="translate(237.109375 0)"/>
       <use xlink:href="#DejaVuSans-30" transform="translate(300.732422 0)"/>
       <use xlink:href="#DejaVuSans-32" transform="translate(364.355469 0)"/>
       <use xlink:href="#DejaVuSans-36" transform="translate(427.978516 0)"/>
      </g>
     </g>
    </g>
    <g id="ytick_9">
     <g id="line2d_25">
      <g>
       <use xlink:href="#m38c7da016b" x="68.277031" y="263.080552" style="fill: #6f768a; stroke: #6f768a; stroke-width: 0.8"/>
      </g>
     </g>
     <g id="text_18">
      <!-- HCP 0249 -->
      <g style="fill: #6f768a" transform="translate(7.2 267.259693) scale(0.11 -0.11)">
       <defs>
        <path id="DejaVuSans-39" d="M 703 97
L 703 672
Q 941 559 1184 500
Q 1428 441 1663 441
Q 2288 441 2617 861
Q 2947 1281 2994 2138
Q 2813 1869 2534 1725
Q 2256 1581 1919 1581
Q 1219 1581 811 2004
Q 403 2428 403 3163
Q 403 3881 828 4315
Q 1253 4750 1959 4750
Q 2769 4750 3195 4129
Q 3622 3509 3622 2328
Q 3622 1225 3098 567
Q 2575 -91 1691 -91
Q 1453 -91 1209 -44
Q 966 3 703 97
z
M 1959 2075
Q 2384 2075 2632 2365
Q 2881 2656 2881 3163
Q 2881 3666 2632 3958
Q 2384 4250 1959 4250
Q 1534 4250 1286 3958
Q 1038 3666 1038 3163
Q 1038 2656 1286 2365
Q 1534 2075 1959 2075
z
" transform="scale(0.015625)"/>
       </defs>
       <use xlink:href="#DejaVuSans-48"/>
       <use xlink:href="#DejaVuSans-43" transform="translate(75.195312 0)"/>
       <use xlink:href="#DejaVuSans-50" transform="translate(145.019531 0)"/>
       <use xlink:href="#DejaVuSans-20" transform="translate(205.322266 0)"/>
       <use xlink:href="#DejaVuSans-30" transform="translate(237.109375 0)"/>
       <use xlink:href="#DejaVuSans-32" transform="translate(300.732422 0)"/>
       <use xlink:href="#DejaVuSans-34" transform="translate(364.355469 0)"/>
       <use xlink:href="#DejaVuSans-39" transform="translate(427.978516 0)"/>
      </g>
     </g>
    </g>
    <g id="ytick_10">
     <g id="line2d_26">
      <g>
       <use xlink:href="#m38c7da016b" x="68.277031" y="235.914705" style="fill: #6f768a; stroke: #6f768a; stroke-width: 0.8"/>
      </g>
     </g>
     <g id="text_19">
      <!-- HCP 0349 -->
      <g style="fill: #6f768a" transform="translate(7.2 240.093845) scale(0.11 -0.11)">
       <use xlink:href="#DejaVuSans-48"/>
       <use xlink:href="#DejaVuSans-43" transform="translate(75.195312 0)"/>
       <use xlink:href="#DejaVuSans-50" transform="translate(145.019531 0)"/>
       <use xlink:href="#DejaVuSans-20" transform="translate(205.322266 0)"/>
       <use xlink:href="#DejaVuSans-30" transform="translate(237.109375 0)"/>
       <use xlink:href="#DejaVuSans-33" transform="translate(300.732422 0)"/>
       <use xlink:href="#DejaVuSans-34" transform="translate(364.355469 0)"/>
       <use xlink:href="#DejaVuSans-39" transform="translate(427.978516 0)"/>
      </g>
     </g>
    </g>
    <g id="ytick_11">
     <g id="line2d_27">
      <g>
       <use xlink:href="#m38c7da016b" x="68.277031" y="208.748857" style="fill: #6f768a; stroke: #6f768a; stroke-width: 0.8"/>
      </g>
     </g>
     <g id="text_20">
      <!-- HCP 0447 -->
      <g style="fill: #6f768a" transform="translate(7.2 212.927998) scale(0.11 -0.11)">
       <use xlink:href="#DejaVuSans-48"/>
       <use xlink:href="#DejaVuSans-43" transform="translate(75.195312 0)"/>
       <use xlink:href="#DejaVuSans-50" transform="translate(145.019531 0)"/>
       <use xlink:href="#DejaVuSans-20" transform="translate(205.322266 0)"/>
       <use xlink:href="#DejaVuSans-30" transform="translate(237.109375 0)"/>
       <use xlink:href="#DejaVuSans-34" transform="translate(300.732422 0)"/>
       <use xlink:href="#DejaVuSans-34" transform="translate(364.355469 0)"/>
       <use xlink:href="#DejaVuSans-37" transform="translate(427.978516 0)"/>
      </g>
     </g>
    </g>
    <g id="ytick_12">
     <g id="line2d_28">
      <g>
       <use xlink:href="#m38c7da016b" x="68.277031" y="181.583009" style="fill: #6f768a; stroke: #6f768a; stroke-width: 0.8"/>
      </g>
     </g>
     <g id="text_21">
      <!-- HCP 0162 -->
      <g style="fill: #6f768a" transform="translate(7.2 185.76215) scale(0.11 -0.11)">
       <use xlink:href="#DejaVuSans-48"/>
       <use xlink:href="#DejaVuSans-43" transform="translate(75.195312 0)"/>
       <use xlink:href="#DejaVuSans-50" transform="translate(145.019531 0)"/>
       <use xlink:href="#DejaVuSans-20" transform="translate(205.322266 0)"/>
       <use xlink:href="#DejaVuSans-30" transform="translate(237.109375 0)"/>
       <use xlink:href="#DejaVuSans-31" transform="translate(300.732422 0)"/>
       <use xlink:href="#DejaVuSans-36" transform="translate(364.355469 0)"/>
       <use xlink:href="#DejaVuSans-32" transform="translate(427.978516 0)"/>
      </g>
     </g>
    </g>
    <g id="ytick_13">
     <g id="line2d_29">
      <g>
       <use xlink:href="#m38c7da016b" x="68.277031" y="154.417162" style="fill: #6f768a; stroke: #6f768a; stroke-width: 0.8"/>
      </g>
     </g>
     <g id="text_22">
      <!-- HCP 0469 -->
      <g style="fill: #6f768a" transform="translate(7.2 158.596302) scale(0.11 -0.11)">
       <use xlink:href="#DejaVuSans-48"/>
       <use xlink:href="#DejaVuSans-43" transform="translate(75.195312 0)"/>
       <use xlink:href="#DejaVuSans-50" transform="translate(145.019531 0)"/>
       <use xlink:href="#DejaVuSans-20" transform="translate(205.322266 0)"/>
       <use xlink:href="#DejaVuSans-30" transform="translate(237.109375 0)"/>
       <use xlink:href="#DejaVuSans-34" transform="translate(300.732422 0)"/>
       <use xlink:href="#DejaVuSans-36" transform="translate(364.355469 0)"/>
       <use xlink:href="#DejaVuSans-39" transform="translate(427.978516 0)"/>
      </g>
     </g>
    </g>
    <g id="ytick_14">
     <g id="line2d_30">
      <g>
       <use xlink:href="#m38c7da016b" x="68.277031" y="127.251314" style="fill: #6f768a; stroke: #6f768a; stroke-width: 0.8"/>
      </g>
     </g>
     <g id="text_23">
      <!-- HCP 0555 -->
      <g style="fill: #6f768a" transform="translate(7.2 131.430455) scale(0.11 -0.11)">
       <use xlink:href="#DejaVuSans-48"/>
       <use xlink:href="#DejaVuSans-43" transform="translate(75.195312 0)"/>
       <use xlink:href="#DejaVuSans-50" transform="translate(145.019531 0)"/>
       <use xlink:href="#DejaVuSans-20" transform="translate(205.322266 0)"/>
       <use xlink:href="#DejaVuSans-30" transform="translate(237.109375 0)"/>
       <use xlink:href="#DejaVuSans-35" transform="translate(300.732422 0)"/>
       <use xlink:href="#DejaVuSans-35" transform="translate(364.355469 0)"/>
       <use xlink:href="#DejaVuSans-35" transform="translate(427.978516 0)"/>
      </g>
     </g>
    </g>
    <g id="ytick_15">
     <g id="line2d_31">
      <g>
       <use xlink:href="#m38c7da016b" x="68.277031" y="100.085466" style="fill: #6f768a; stroke: #6f768a; stroke-width: 0.8"/>
      </g>
     </g>
     <g id="text_24">
      <!-- HCP 0430 -->
      <g style="fill: #6f768a" transform="translate(7.2 104.264607) scale(0.11 -0.11)">
       <use xlink:href="#DejaVuSans-48"/>
       <use xlink:href="#DejaVuSans-43" transform="translate(75.195312 0)"/>
       <use xlink:href="#DejaVuSans-50" transform="translate(145.019531 0)"/>
       <use xlink:href="#DejaVuSans-20" transform="translate(205.322266 0)"/>
       <use xlink:href="#DejaVuSans-30" transform="translate(237.109375 0)"/>
       <use xlink:href="#DejaVuSans-34" transform="translate(300.732422 0)"/>
       <use xlink:href="#DejaVuSans-33" transform="translate(364.355469 0)"/>
       <use xlink:href="#DejaVuSans-30" transform="translate(427.978516 0)"/>
      </g>
     </g>
    </g>
   </g>
   <g id="patch_3">
    <path d="M 68.277031 491.273673
L 434.943698 491.273673
L 434.943698 469.540995
L 68.277031 469.540995
z
" clip-path="url(#p80dc3fb6ad)" style="fill: #cedffe; stroke: #5477c4; stroke-linejoin: miter"/>
   </g>
   <g id="patch_4">
    <path d="M 68.277031 464.107825
L 449.610365 464.107825
L 449.610365 442.375147
L 68.277031 442.375147
z
" clip-path="url(#p80dc3fb6ad)" style="fill: #cedffe; stroke: #5477c4; stroke-linejoin: miter"/>
   </g>
   <g id="patch_5">
    <path d="M 68.277031 436.941977
L 449.610365 436.941977
L 449.610365 415.209299
L 68.277031 415.209299
z
" clip-path="url(#p80dc3fb6ad)" style="fill: #cedffe; stroke: #5477c4; stroke-linejoin: miter"/>
   </g>
   <g id="patch_6">
    <path d="M 68.277031 409.77613
L 464.277031 409.77613
L 464.277031 388.043452
L 68.277031 388.043452
z
" clip-path="url(#p80dc3fb6ad)" style="fill: #cedffe; stroke: #5477c4; stroke-linejoin: miter"/>
   </g>
   <g id="patch_7">
    <path d="M 68.277031 382.610282
L 464.277031 382.610282
L 464.277031 360.877604
L 68.277031 360.877604
z
" clip-path="url(#p80dc3fb6ad)" style="fill: #cedffe; stroke: #5477c4; stroke-linejoin: miter"/>
   </g>
   <g id="patch_8">
    <path d="M 68.277031 355.444434
L 478.943698 355.444434
L 478.943698 333.711756
L 68.277031 333.711756
z
" clip-path="url(#p80dc3fb6ad)" style="fill: #cedffe; stroke: #5477c4; stroke-linejoin: miter"/>
   </g>
   <g id="patch_9">
    <path d="M 68.277031 328.278587
L 478.943698 328.278587
L 478.943698 306.545909
L 68.277031 306.545909
z
" clip-path="url(#p80dc3fb6ad)" style="fill: #cedffe; stroke: #5477c4; stroke-linejoin: miter"/>
   </g>
   <g id="patch_10">
    <path d="M 68.277031 301.112739
L 478.943698 301.112739
L 478.943698 279.380061
L 68.277031 279.380061
z
" clip-path="url(#p80dc3fb6ad)" style="fill: #cedffe; stroke: #5477c4; stroke-linejoin: miter"/>
   </g>
   <g id="patch_11">
    <path d="M 68.277031 273.946891
L 493.610365 273.946891
L 493.610365 252.214213
L 68.277031 252.214213
z
" clip-path="url(#p80dc3fb6ad)" style="fill: #cedffe; stroke: #5477c4; stroke-linejoin: miter"/>
   </g>
   <g id="patch_12">
    <path d="M 68.277031 246.781044
L 493.610365 246.781044
L 493.610365 225.048366
L 68.277031 225.048366
z
" clip-path="url(#p80dc3fb6ad)" style="fill: #cedffe; stroke: #5477c4; stroke-linejoin: miter"/>
   </g>
   <g id="patch_13">
    <path d="M 68.277031 219.615196
L 537.610365 219.615196
L 537.610365 197.882518
L 68.277031 197.882518
z
" clip-path="url(#p80dc3fb6ad)" style="fill: #cedffe; stroke: #5477c4; stroke-linejoin: miter"/>
   </g>
   <g id="patch_14">
    <path d="M 68.277031 192.449348
L 552.277031 192.449348
L 552.277031 170.71667
L 68.277031 170.71667
z
" clip-path="url(#p80dc3fb6ad)" style="fill: #cedffe; stroke: #5477c4; stroke-linejoin: miter"/>
   </g>
   <g id="patch_15">
    <path d="M 68.277031 165.283501
L 566.943698 165.283501
L 566.943698 143.550823
L 68.277031 143.550823
z
" clip-path="url(#p80dc3fb6ad)" style="fill: #cedffe; stroke: #5477c4; stroke-linejoin: miter"/>
   </g>
   <g id="patch_16">
    <path d="M 68.277031 138.117653
L 596.277031 138.117653
L 596.277031 116.384975
L 68.277031 116.384975
z
" clip-path="url(#p80dc3fb6ad)" style="fill: #cedffe; stroke: #5477c4; stroke-linejoin: miter"/>
   </g>
   <g id="patch_17">
    <path d="M 68.277031 110.951805
L 596.277031 110.951805
L 596.277031 89.219127
L 68.277031 89.219127
z
" clip-path="url(#p80dc3fb6ad)" style="fill: #cedffe; stroke: #5477c4; stroke-linejoin: miter"/>
   </g>
   <g id="patch_18">
    <path d="M 68.277031 491.273673
L 258.943698 491.273673
L 258.943698 469.540995
L 68.277031 469.540995
z
" clip-path="url(#p80dc3fb6ad)" style="fill: #ffea8f; stroke: #b8a037; stroke-linejoin: miter"/>
   </g>
   <g id="patch_19">
    <path d="M 68.277031 464.107825
L 244.277031 464.107825
L 244.277031 442.375147
L 68.277031 442.375147
z
" clip-path="url(#p80dc3fb6ad)" style="fill: #ffea8f; stroke: #b8a037; stroke-linejoin: miter"/>
   </g>
   <g id="patch_20">
    <path d="M 68.277031 436.941977
L 229.610365 436.941977
L 229.610365 415.209299
L 68.277031 415.209299
z
" clip-path="url(#p80dc3fb6ad)" style="fill: #ffea8f; stroke: #b8a037; stroke-linejoin: miter"/>
   </g>
   <g id="patch_21">
    <path d="M 68.277031 409.77613
L 258.943698 409.77613
L 258.943698 388.043452
L 68.277031 388.043452
z
" clip-path="url(#p80dc3fb6ad)" style="fill: #ffea8f; stroke: #b8a037; stroke-linejoin: miter"/>
   </g>
   <g id="patch_22">
    <path d="M 68.277031 382.610282
L 288.277031 382.610282
L 288.277031 360.877604
L 68.277031 360.877604
z
" clip-path="url(#p80dc3fb6ad)" style="fill: #ffea8f; stroke: #b8a037; stroke-linejoin: miter"/>
   </g>
   <g id="patch_23">
    <path d="M 68.277031 355.444434
L 302.943698 355.444434
L 302.943698 333.711756
L 68.277031 333.711756
z
" clip-path="url(#p80dc3fb6ad)" style="fill: #ffea8f; stroke: #b8a037; stroke-linejoin: miter"/>
   </g>
   <g id="patch_24">
    <path d="M 68.277031 328.278587
L 302.943698 328.278587
L 302.943698 306.545909
L 68.277031 306.545909
z
" clip-path="url(#p80dc3fb6ad)" style="fill: #ffea8f; stroke: #b8a037; stroke-linejoin: miter"/>
   </g>
   <g id="patch_25">
    <path d="M 68.277031 301.112739
L 214.943698 301.112739
L 214.943698 279.380061
L 68.277031 279.380061
z
" clip-path="url(#p80dc3fb6ad)" style="fill: #ffea8f; stroke: #b8a037; stroke-linejoin: miter"/>
   </g>
   <g id="patch_26">
    <path d="M 68.277031 273.946891
L 258.943698 273.946891
L 258.943698 252.214213
L 68.277031 252.214213
z
" clip-path="url(#p80dc3fb6ad)" style="fill: #ffea8f; stroke: #b8a037; stroke-linejoin: miter"/>
   </g>
   <g id="patch_27">
    <path d="M 68.277031 246.781044
L 229.610365 246.781044
L 229.610365 225.048366
L 68.277031 225.048366
z
" clip-path="url(#p80dc3fb6ad)" style="fill: #ffea8f; stroke: #b8a037; stroke-linejoin: miter"/>
   </g>
   <g id="patch_28">
    <path d="M 68.277031 219.615196
L 317.610365 219.615196
L 317.610365 197.882518
L 68.277031 197.882518
z
" clip-path="url(#p80dc3fb6ad)" style="fill: #ffea8f; stroke: #b8a037; stroke-linejoin: miter"/>
   </g>
   <g id="patch_29">
    <path d="M 68.277031 192.449348
L 258.943698 192.449348
L 258.943698 170.71667
L 68.277031 170.71667
z
" clip-path="url(#p80dc3fb6ad)" style="fill: #ffea8f; stroke: #b8a037; stroke-linejoin: miter"/>
   </g>
   <g id="patch_30">
    <path d="M 68.277031 165.283501
L 361.610365 165.283501
L 361.610365 143.550823
L 68.277031 143.550823
z
" clip-path="url(#p80dc3fb6ad)" style="fill: #ffea8f; stroke: #b8a037; stroke-linejoin: miter"/>
   </g>
   <g id="patch_31">
    <path d="M 68.277031 138.117653
L 376.277031 138.117653
L 376.277031 116.384975
L 68.277031 116.384975
z
" clip-path="url(#p80dc3fb6ad)" style="fill: #ffea8f; stroke: #b8a037; stroke-linejoin: miter"/>
   </g>
   <g id="patch_32">
    <path d="M 68.277031 110.951805
L 361.610365 110.951805
L 361.610365 89.219127
L 68.277031 89.219127
z
" clip-path="url(#p80dc3fb6ad)" style="fill: #ffea8f; stroke: #b8a037; stroke-linejoin: miter"/>
   </g>
   <g id="patch_33">
    <path d="M 68.277031 511.3764
L 68.277031 69.1164
" style="fill: none; stroke: #d7dbe7; stroke-width: 0.8; stroke-linejoin: miter; stroke-linecap: square"/>
   </g>
   <g id="patch_34">
    <path d="M 68.277031 511.3764
L 622.677031 511.3764
" style="fill: none; stroke: #d7dbe7; stroke-width: 0.8; stroke-linejoin: miter; stroke-linecap: square"/>
   </g>
   <g id="PathCollection_1">
    <defs>
     <path id="m819970503e" d="M -2.436699 4.873397
L 0 2.436699
L 2.436699 4.873397
L 4.873397 2.436699
L 2.436699 0
L 4.873397 -2.436699
L 2.436699 -4.873397
L 0 -2.436699
L -2.436699 -4.873397
L -4.873397 -2.436699
L -2.436699 0
L -4.873397 2.436699
z
" style="stroke: #ffffff; stroke-width: 0.7"/>
    </defs>
    <g clip-path="url(#p80dc3fb6ad)">
     <use xlink:href="#m819970503e" x="446.677031" y="480.407334" style="fill: #cc6f47; stroke: #ffffff; stroke-width: 0.7"/>
     <use xlink:href="#m819970503e" x="490.677031" y="344.578095" style="fill: #cc6f47; stroke: #ffffff; stroke-width: 0.7"/>
     <use xlink:href="#m819970503e" x="549.343698" y="208.748857" style="fill: #cc6f47; stroke: #ffffff; stroke-width: 0.7"/>
     <use xlink:href="#m819970503e" x="564.010365" y="181.583009" style="fill: #cc6f47; stroke: #ffffff; stroke-width: 0.7"/>
     <use xlink:href="#m819970503e" x="578.677031" y="154.417162" style="fill: #cc6f47; stroke: #ffffff; stroke-width: 0.7"/>
    </g>
   </g>
   <g id="legend_1">
    <g id="PathCollection_2">
     <g>
      <use xlink:href="#m819970503e" x="469.885625" y="466.162416" style="fill: #cc6f47; stroke: #ffffff; stroke-width: 0.7"/>
     </g>
    </g>
    <g id="text_25">
     <!-- Latest consent: Opt-out -->
     <g style="fill: #1f2430" transform="translate(488.785625 468.918666) scale(0.105 -0.105)">
      <defs>
       <path id="DejaVuSans-4c" d="M 628 4666
L 1259 4666
L 1259 531
L 3531 531
L 3531 0
L 628 0
L 628 4666
z
" transform="scale(0.015625)"/>
       <path id="DejaVuSans-63" d="M 3122 3366
L 3122 2828
Q 2878 2963 2633 3030
Q 2388 3097 2138 3097
Q 1578 3097 1268 2742
Q 959 2388 959 1747
Q 959 1106 1268 751
Q 1578 397 2138 397
Q 2388 397 2633 464
Q 2878 531 3122 666
L 3122 134
Q 2881 22 2623 -34
Q 2366 -91 2075 -91
Q 1284 -91 818 406
Q 353 903 353 1747
Q 353 2603 823 3093
Q 1294 3584 2113 3584
Q 2378 3584 2631 3529
Q 2884 3475 3122 3366
z
" transform="scale(0.015625)"/>
       <path id="DejaVuSans-6f" d="M 1959 3097
Q 1497 3097 1228 2736
Q 959 2375 959 1747
Q 959 1119 1226 758
Q 1494 397 1959 397
Q 2419 397 2687 759
Q 2956 1122 2956 1747
Q 2956 2369 2687 2733
Q 2419 3097 1959 3097
z
M 1959 3584
Q 2709 3584 3137 3096
Q 3566 2609 3566 1747
Q 3566 888 3137 398
Q 2709 -91 1959 -91
Q 1206 -91 779 398
Q 353 888 353 1747
Q 353 2609 779 3096
Q 1206 3584 1959 3584
z
" transform="scale(0.015625)"/>
       <path id="DejaVuSans-3a" d="M 750 794
L 1409 794
L 1409 0
L 750 0
L 750 794
z
M 750 3309
L 1409 3309
L 1409 2516
L 750 2516
L 750 3309
z
" transform="scale(0.015625)"/>
       <path id="DejaVuSans-4f" d="M 2522 4238
Q 1834 4238 1429 3725
Q 1025 3213 1025 2328
Q 1025 1447 1429 934
Q 1834 422 2522 422
Q 3209 422 3611 934
Q 4013 1447 4013 2328
Q 4013 3213 3611 3725
Q 3209 4238 2522 4238
z
M 2522 4750
Q 3503 4750 4090 4092
Q 4678 3434 4678 2328
Q 4678 1225 4090 567
Q 3503 -91 2522 -91
Q 1538 -91 948 565
Q 359 1222 359 2328
Q 359 3434 948 4092
Q 1538 4750 2522 4750
z
" transform="scale(0.015625)"/>
       <path id="DejaVuSans-70" d="M 1159 525
L 1159 -1331
L 581 -1331
L 581 3500
L 1159 3500
L 1159 2969
Q 1341 3281 1617 3432
Q 1894 3584 2278 3584
Q 2916 3584 3314 3078
Q 3713 2572 3713 1747
Q 3713 922 3314 415
Q 2916 -91 2278 -91
Q 1894 -91 1617 61
Q 1341 213 1159 525
z
M 3116 1747
Q 3116 2381 2855 2742
Q 2594 3103 2138 3103
Q 1681 3103 1420 2742
Q 1159 2381 1159 1747
Q 1159 1113 1420 752
Q 1681 391 2138 391
Q 2594 391 2855 752
Q 3116 1113 3116 1747
z
" transform="scale(0.015625)"/>
       <path id="DejaVuSans-2d" d="M 313 2009
L 1997 2009
L 1997 1497
L 313 1497
L 313 2009
z
" transform="scale(0.015625)"/>
       <path id="DejaVuSans-75" d="M 544 1381
L 544 3500
L 1119 3500
L 1119 1403
Q 1119 906 1312 657
Q 1506 409 1894 409
Q 2359 409 2629 706
Q 2900 1003 2900 1516
L 2900 3500
L 3475 3500
L 3475 0
L 2900 0
L 2900 538
Q 2691 219 2414 64
Q 2138 -91 1772 -91
Q 1169 -91 856 284
Q 544 659 544 1381
z
M 1991 3584
L 1991 3584
z
" transform="scale(0.015625)"/>
      </defs>
      <use xlink:href="#DejaVuSans-4c"/>
      <use xlink:href="#DejaVuSans-61" transform="translate(55.712891 0)"/>
      <use xlink:href="#DejaVuSans-74" transform="translate(116.992188 0)"/>
      <use xlink:href="#DejaVuSans-65" transform="translate(156.201172 0)"/>
      <use xlink:href="#DejaVuSans-73" transform="translate(217.724609 0)"/>
      <use xlink:href="#DejaVuSans-74" transform="translate(269.824219 0)"/>
      <use xlink:href="#DejaVuSans-20" transform="translate(309.033203 0)"/>
      <use xlink:href="#DejaVuSans-63" transform="translate(340.820312 0)"/>
      <use xlink:href="#DejaVuSans-6f" transform="translate(395.800781 0)"/>
      <use xlink:href="#DejaVuSans-6e" transform="translate(456.982422 0)"/>
      <use xlink:href="#DejaVuSans-73" transform="translate(520.361328 0)"/>
      <use xlink:href="#DejaVuSans-65" transform="translate(572.460938 0)"/>
      <use xlink:href="#DejaVuSans-6e" transform="translate(633.984375 0)"/>
      <use xlink:href="#DejaVuSans-74" transform="translate(697.363281 0)"/>
      <use xlink:href="#DejaVuSans-3a" transform="translate(736.572266 0)"/>
      <use xlink:href="#DejaVuSans-20" transform="translate(770.263672 0)"/>
      <use xlink:href="#DejaVuSans-4f" transform="translate(802.050781 0)"/>
      <use xlink:href="#DejaVuSans-70" transform="translate(880.761719 0)"/>
      <use xlink:href="#DejaVuSans-74" transform="translate(944.238281 0)"/>
      <use xlink:href="#DejaVuSans-2d" transform="translate(983.447266 0)"/>
      <use xlink:href="#DejaVuSans-6f" transform="translate(1021.40625 0)"/>
      <use xlink:href="#DejaVuSans-75" transform="translate(1082.587891 0)"/>
      <use xlink:href="#DejaVuSans-74" transform="translate(1145.966797 0)"/>
     </g>
    </g>
    <g id="patch_35">
     <path d="M 459.385625 484.330697
L 480.385625 484.330697
L 480.385625 476.980697
L 459.385625 476.980697
z
" style="fill: #cedffe; stroke: #5477c4; stroke-linejoin: miter"/>
    </g>
    <g id="text_26">
     <!-- Cohort patients -->
     <g style="fill: #1f2430" transform="translate(488.785625 484.330697) scale(0.105 -0.105)">
      <defs>
       <path id="DejaVuSans-68" d="M 3513 2113
L 3513 0
L 2938 0
L 2938 2094
Q 2938 2591 2744 2837
Q 2550 3084 2163 3084
Q 1697 3084 1428 2787
Q 1159 2491 1159 1978
L 1159 0
L 581 0
L 581 4863
L 1159 4863
L 1159 2956
Q 1366 3272 1645 3428
Q 1925 3584 2291 3584
Q 2894 3584 3203 3211
Q 3513 2838 3513 2113
z
" transform="scale(0.015625)"/>
       <path id="DejaVuSans-72" d="M 2631 2963
Q 2534 3019 2420 3045
Q 2306 3072 2169 3072
Q 1681 3072 1420 2755
Q 1159 2438 1159 1844
L 1159 0
L 581 0
L 581 3500
L 1159 3500
L 1159 2956
Q 1341 3275 1631 3429
Q 1922 3584 2338 3584
Q 2397 3584 2469 3576
Q 2541 3569 2628 3553
L 2631 2963
z
" transform="scale(0.015625)"/>
      </defs>
      <use xlink:href="#DejaVuSans-43"/>
      <use xlink:href="#DejaVuSans-6f" transform="translate(69.824219 0)"/>
      <use xlink:href="#DejaVuSans-68" transform="translate(131.005859 0)"/>
      <use xlink:href="#DejaVuSans-6f" transform="translate(194.384766 0)"/>
      <use xlink:href="#DejaVuSans-72" transform="translate(255.566406 0)"/>
      <use xlink:href="#DejaVuSans-74" transform="translate(296.679688 0)"/>
      <use xlink:href="#DejaVuSans-20" transform="translate(335.888672 0)"/>
      <use xlink:href="#DejaVuSans-70" transform="translate(367.675781 0)"/>
      <use xlink:href="#DejaVuSans-61" transform="translate(431.152344 0)"/>
      <use xlink:href="#DejaVuSans-74" transform="translate(492.431641 0)"/>
      <use xlink:href="#DejaVuSans-69" transform="translate(531.640625 0)"/>
      <use xlink:href="#DejaVuSans-65" transform="translate(559.423828 0)"/>
      <use xlink:href="#DejaVuSans-6e" transform="translate(620.947266 0)"/>
      <use xlink:href="#DejaVuSans-74" transform="translate(684.326172 0)"/>
      <use xlink:href="#DejaVuSans-73" transform="translate(723.535156 0)"/>
     </g>
    </g>
    <g id="patch_36">
     <path d="M 459.385625 499.742728
L 480.385625 499.742728
L 480.385625 492.392728
L 459.385625 492.392728
z
" style="fill: #ffea8f; stroke: #b8a037; stroke-linejoin: miter"/>
    </g>
    <g id="text_27">
     <!-- Opportunity patients -->
     <g style="fill: #1f2430" transform="translate(488.785625 499.742728) scale(0.105 -0.105)">
      <defs>
       <path id="DejaVuSans-79" d="M 2059 -325
Q 1816 -950 1584 -1140
Q 1353 -1331 966 -1331
L 506 -1331
L 506 -850
L 844 -850
Q 1081 -850 1212 -737
Q 1344 -625 1503 -206
L 1606 56
L 191 3500
L 800 3500
L 1894 763
L 2988 3500
L 3597 3500
L 2059 -325
z
" transform="scale(0.015625)"/>
      </defs>
      <use xlink:href="#DejaVuSans-4f"/>
      <use xlink:href="#DejaVuSans-70" transform="translate(78.710938 0)"/>
      <use xlink:href="#DejaVuSans-70" transform="translate(142.1875 0)"/>
      <use xlink:href="#DejaVuSans-6f" transform="translate(205.664062 0)"/>
      <use xlink:href="#DejaVuSans-72" transform="translate(266.845703 0)"/>
      <use xlink:href="#DejaVuSans-74" transform="translate(307.958984 0)"/>
      <use xlink:href="#DejaVuSans-75" transform="translate(347.167969 0)"/>
      <use xlink:href="#DejaVuSans-6e" transform="translate(410.546875 0)"/>
      <use xlink:href="#DejaVuSans-69" transform="translate(473.925781 0)"/>
      <use xlink:href="#DejaVuSans-74" transform="translate(501.708984 0)"/>
      <use xlink:href="#DejaVuSans-79" transform="translate(540.917969 0)"/>
      <use xlink:href="#DejaVuSans-20" transform="translate(600.097656 0)"/>
      <use xlink:href="#DejaVuSans-70" transform="translate(631.884766 0)"/>
      <use xlink:href="#DejaVuSans-61" transform="translate(695.361328 0)"/>
      <use xlink:href="#DejaVuSans-74" transform="translate(756.640625 0)"/>
      <use xlink:href="#DejaVuSans-69" transform="translate(795.849609 0)"/>
      <use xlink:href="#DejaVuSans-65" transform="translate(823.632812 0)"/>
      <use xlink:href="#DejaVuSans-6e" transform="translate(885.15625 0)"/>
      <use xlink:href="#DejaVuSans-74" transform="translate(948.535156 0)"/>
      <use xlink:href="#DejaVuSans-73" transform="translate(987.744141 0)"/>
     </g>
    </g>
   </g>
  </g>
  <g id="text_28">
   <!-- Top 15 HCPs by attributed patient volume -->
   <g style="fill: #1f2430" transform="translate(93.101563 20.877187) scale(0.18 -0.18)">
    <defs>
     <path id="DejaVuSans-Bold-54" d="M 31 4666
L 4331 4666
L 4331 3756
L 2784 3756
L 2784 0
L 1581 0
L 1581 3756
L 31 3756
L 31 4666
z
" transform="scale(0.015625)"/>
     <path id="DejaVuSans-Bold-6f" d="M 2203 2784
Q 1831 2784 1636 2517
Q 1441 2250 1441 1747
Q 1441 1244 1636 976
Q 1831 709 2203 709
Q 2569 709 2762 976
Q 2956 1244 2956 1747
Q 2956 2250 2762 2517
Q 2569 2784 2203 2784
z
M 2203 3584
Q 3106 3584 3614 3096
Q 4122 2609 4122 1747
Q 4122 884 3614 396
Q 3106 -91 2203 -91
Q 1297 -91 786 396
Q 275 884 275 1747
Q 275 2609 786 3096
Q 1297 3584 2203 3584
z
" transform="scale(0.015625)"/>
     <path id="DejaVuSans-Bold-70" d="M 1656 506
L 1656 -1331
L 538 -1331
L 538 3500
L 1656 3500
L 1656 2988
Q 1888 3294 2169 3439
Q 2450 3584 2816 3584
Q 3463 3584 3878 3070
Q 4294 2556 4294 1747
Q 4294 938 3878 423
Q 3463 -91 2816 -91
Q 2450 -91 2169 54
Q 1888 200 1656 506
z
M 2400 2772
Q 2041 2772 1848 2508
Q 1656 2244 1656 1747
Q 1656 1250 1848 986
Q 2041 722 2400 722
Q 2759 722 2948 984
Q 3138 1247 3138 1747
Q 3138 2247 2948 2509
Q 2759 2772 2400 2772
z
" transform="scale(0.015625)"/>
     <path id="DejaVuSans-Bold-20" transform="scale(0.015625)"/>
     <path id="DejaVuSans-Bold-31" d="M 750 831
L 1813 831
L 1813 3847
L 722 3622
L 722 4441
L 1806 4666
L 2950 4666
L 2950 831
L 4013 831
L 4013 0
L 750 0
L 750 831
z
" transform="scale(0.015625)"/>
     <path id="DejaVuSans-Bold-35" d="M 678 4666
L 3669 4666
L 3669 3781
L 1638 3781
L 1638 3059
Q 1775 3097 1914 3117
Q 2053 3138 2203 3138
Q 3056 3138 3531 2711
Q 4006 2284 4006 1522
Q 4006 766 3489 337
Q 2972 -91 2053 -91
Q 1656 -91 1267 -14
Q 878 63 494 219
L 494 1166
Q 875 947 1217 837
Q 1559 728 1863 728
Q 2300 728 2551 942
Q 2803 1156 2803 1522
Q 2803 1891 2551 2103
Q 2300 2316 1863 2316
Q 1603 2316 1309 2248
Q 1016 2181 678 2041
L 678 4666
z
" transform="scale(0.015625)"/>
     <path id="DejaVuSans-Bold-48" d="M 588 4666
L 1791 4666
L 1791 2888
L 3566 2888
L 3566 4666
L 4769 4666
L 4769 0
L 3566 0
L 3566 1978
L 1791 1978
L 1791 0
L 588 0
L 588 4666
z
" transform="scale(0.015625)"/>
     <path id="DejaVuSans-Bold-43" d="M 4288 256
Q 3956 84 3597 -3
Q 3238 -91 2847 -91
Q 1681 -91 1000 561
Q 319 1213 319 2328
Q 319 3447 1000 4098
Q 1681 4750 2847 4750
Q 3238 4750 3597 4662
Q 3956 4575 4288 4403
L 4288 3438
Q 3953 3666 3628 3772
Q 3303 3878 2944 3878
Q 2300 3878 1931 3465
Q 1563 3053 1563 2328
Q 1563 1606 1931 1193
Q 2300 781 2944 781
Q 3303 781 3628 887
Q 3953 994 4288 1222
L 4288 256
z
" transform="scale(0.015625)"/>
     <path id="DejaVuSans-Bold-50" d="M 588 4666
L 2584 4666
Q 3475 4666 3951 4270
Q 4428 3875 4428 3144
Q 4428 2409 3951 2014
Q 3475 1619 2584 1619
L 1791 1619
L 1791 0
L 588 0
L 588 4666
z
M 1791 3794
L 1791 2491
L 2456 2491
Q 2806 2491 2997 2661
Q 3188 2831 3188 3144
Q 3188 3456 2997 3625
Q 2806 3794 2456 3794
L 1791 3794
z
" transform="scale(0.015625)"/>
     <path id="DejaVuSans-Bold-73" d="M 3272 3391
L 3272 2541
Q 2913 2691 2578 2766
Q 2244 2841 1947 2841
Q 1628 2841 1473 2761
Q 1319 2681 1319 2516
Q 1319 2381 1436 2309
Q 1553 2238 1856 2203
L 2053 2175
Q 2913 2066 3209 1816
Q 3506 1566 3506 1031
Q 3506 472 3093 190
Q 2681 -91 1863 -91
Q 1516 -91 1145 -36
Q 775 19 384 128
L 384 978
Q 719 816 1070 734
Q 1422 653 1784 653
Q 2113 653 2278 743
Q 2444 834 2444 1013
Q 2444 1163 2330 1236
Q 2216 1309 1875 1350
L 1678 1375
Q 931 1469 631 1722
Q 331 1975 331 2491
Q 331 3047 712 3315
Q 1094 3584 1881 3584
Q 2191 3584 2531 3537
Q 2872 3491 3272 3391
z
" transform="scale(0.015625)"/>
     <path id="DejaVuSans-Bold-62" d="M 2400 722
Q 2759 722 2948 984
Q 3138 1247 3138 1747
Q 3138 2247 2948 2509
Q 2759 2772 2400 2772
Q 2041 2772 1848 2508
Q 1656 2244 1656 1747
Q 1656 1250 1848 986
Q 2041 722 2400 722
z
M 1656 2988
Q 1888 3294 2169 3439
Q 2450 3584 2816 3584
Q 3463 3584 3878 3070
Q 4294 2556 4294 1747
Q 4294 938 3878 423
Q 3463 -91 2816 -91
Q 2450 -91 2169 54
Q 1888 200 1656 506
L 1656 0
L 538 0
L 538 4863
L 1656 4863
L 1656 2988
z
" transform="scale(0.015625)"/>
     <path id="DejaVuSans-Bold-79" d="M 78 3500
L 1197 3500
L 2138 1125
L 2938 3500
L 4056 3500
L 2584 -331
Q 2363 -916 2067 -1148
Q 1772 -1381 1288 -1381
L 641 -1381
L 641 -647
L 991 -647
Q 1275 -647 1404 -556
Q 1534 -466 1606 -231
L 1638 -134
L 78 3500
z
" transform="scale(0.015625)"/>
     <path id="DejaVuSans-Bold-61" d="M 2106 1575
Q 1756 1575 1579 1456
Q 1403 1338 1403 1106
Q 1403 894 1545 773
Q 1688 653 1941 653
Q 2256 653 2472 879
Q 2688 1106 2688 1447
L 2688 1575
L 2106 1575
z
M 3816 1997
L 3816 0
L 2688 0
L 2688 519
Q 2463 200 2181 54
Q 1900 -91 1497 -91
Q 953 -91 614 226
Q 275 544 275 1050
Q 275 1666 698 1953
Q 1122 2241 2028 2241
L 2688 2241
L 2688 2328
Q 2688 2594 2478 2717
Q 2269 2841 1825 2841
Q 1466 2841 1156 2769
Q 847 2697 581 2553
L 581 3406
Q 941 3494 1303 3539
Q 1666 3584 2028 3584
Q 2975 3584 3395 3211
Q 3816 2838 3816 1997
z
" transform="scale(0.015625)"/>
     <path id="DejaVuSans-Bold-74" d="M 1759 4494
L 1759 3500
L 2913 3500
L 2913 2700
L 1759 2700
L 1759 1216
Q 1759 972 1856 886
Q 1953 800 2241 800
L 2816 800
L 2816 0
L 1856 0
Q 1194 0 917 276
Q 641 553 641 1216
L 641 2700
L 84 2700
L 84 3500
L 641 3500
L 641 4494
L 1759 4494
z
" transform="scale(0.015625)"/>
     <path id="DejaVuSans-Bold-72" d="M 3138 2547
Q 2991 2616 2845 2648
Q 2700 2681 2553 2681
Q 2122 2681 1889 2404
Q 1656 2128 1656 1613
L 1656 0
L 538 0
L 538 3500
L 1656 3500
L 1656 2925
Q 1872 3269 2151 3426
Q 2431 3584 2822 3584
Q 2878 3584 2943 3579
Q 3009 3575 3134 3559
L 3138 2547
z
" transform="scale(0.015625)"/>
     <path id="DejaVuSans-Bold-69" d="M 538 3500
L 1656 3500
L 1656 0
L 538 0
L 538 3500
z
M 538 4863
L 1656 4863
L 1656 3950
L 538 3950
L 538 4863
z
" transform="scale(0.015625)"/>
     <path id="DejaVuSans-Bold-75" d="M 500 1363
L 500 3500
L 1625 3500
L 1625 3150
Q 1625 2866 1622 2436
Q 1619 2006 1619 1863
Q 1619 1441 1641 1255
Q 1663 1069 1716 984
Q 1784 875 1895 815
Q 2006 756 2150 756
Q 2500 756 2700 1025
Q 2900 1294 2900 1772
L 2900 3500
L 4019 3500
L 4019 0
L 2900 0
L 2900 506
Q 2647 200 2364 54
Q 2081 -91 1741 -91
Q 1134 -91 817 281
Q 500 653 500 1363
z
" transform="scale(0.015625)"/>
     <path id="DejaVuSans-Bold-65" d="M 4031 1759
L 4031 1441
L 1416 1441
Q 1456 1047 1700 850
Q 1944 653 2381 653
Q 2734 653 3104 758
Q 3475 863 3866 1075
L 3866 213
Q 3469 63 3072 -14
Q 2675 -91 2278 -91
Q 1328 -91 801 392
Q 275 875 275 1747
Q 275 2603 792 3093
Q 1309 3584 2216 3584
Q 3041 3584 3536 3087
Q 4031 2591 4031 1759
z
M 2881 2131
Q 2881 2450 2695 2645
Q 2509 2841 2209 2841
Q 1884 2841 1681 2658
Q 1478 2475 1428 2131
L 2881 2131
z
" transform="scale(0.015625)"/>
     <path id="DejaVuSans-Bold-64" d="M 2919 2988
L 2919 4863
L 4044 4863
L 4044 0
L 2919 0
L 2919 506
Q 2688 197 2409 53
Q 2131 -91 1766 -91
Q 1119 -91 703 423
Q 288 938 288 1747
Q 288 2556 703 3070
Q 1119 3584 1766 3584
Q 2128 3584 2408 3439
Q 2688 3294 2919 2988
z
M 2181 722
Q 2541 722 2730 984
Q 2919 1247 2919 1747
Q 2919 2247 2730 2509
Q 2541 2772 2181 2772
Q 1825 2772 1636 2509
Q 1447 2247 1447 1747
Q 1447 1247 1636 984
Q 1825 722 2181 722
z
" transform="scale(0.015625)"/>
     <path id="DejaVuSans-Bold-6e" d="M 4056 2131
L 4056 0
L 2931 0
L 2931 347
L 2931 1631
Q 2931 2084 2911 2256
Q 2891 2428 2841 2509
Q 2775 2619 2662 2680
Q 2550 2741 2406 2741
Q 2056 2741 1856 2470
Q 1656 2200 1656 1722
L 1656 0
L 538 0
L 538 3500
L 1656 3500
L 1656 2988
Q 1909 3294 2193 3439
Q 2478 3584 2822 3584
Q 3428 3584 3742 3212
Q 4056 2841 4056 2131
z
" transform="scale(0.015625)"/>
     <path id="DejaVuSans-Bold-76" d="M 97 3500
L 1216 3500
L 2088 1081
L 2956 3500
L 4078 3500
L 2700 0
L 1472 0
L 97 3500
z
" transform="scale(0.015625)"/>
     <path id="DejaVuSans-Bold-6c" d="M 538 4863
L 1656 4863
L 1656 0
L 538 0
L 538 4863
z
" transform="scale(0.015625)"/>
     <path id="DejaVuSans-Bold-6d" d="M 3781 2919
Q 3994 3244 4286 3414
Q 4578 3584 4928 3584
Q 5531 3584 5847 3212
Q 6163 2841 6163 2131
L 6163 0
L 5038 0
L 5038 1825
Q 5041 1866 5042 1909
Q 5044 1953 5044 2034
Q 5044 2406 4934 2573
Q 4825 2741 4581 2741
Q 4263 2741 4089 2478
Q 3916 2216 3909 1719
L 3909 0
L 2784 0
L 2784 1825
Q 2784 2406 2684 2573
Q 2584 2741 2328 2741
Q 2006 2741 1831 2477
Q 1656 2213 1656 1722
L 1656 0
L 531 0
L 531 3500
L 1656 3500
L 1656 2988
Q 1863 3284 2130 3434
Q 2397 3584 2719 3584
Q 3081 3584 3359 3409
Q 3638 3234 3781 2919
z
" transform="scale(0.015625)"/>
    </defs>
    <use xlink:href="#DejaVuSans-Bold-54"/>
    <use xlink:href="#DejaVuSans-Bold-6f" transform="translate(54.962891 0)"/>
    <use xlink:href="#DejaVuSans-Bold-70" transform="translate(123.664062 0)"/>
    <use xlink:href="#DejaVuSans-Bold-20" transform="translate(195.246094 0)"/>
    <use xlink:href="#DejaVuSans-Bold-31" transform="translate(230.060547 0)"/>
    <use xlink:href="#DejaVuSans-Bold-35" transform="translate(299.640625 0)"/>
    <use xlink:href="#DejaVuSans-Bold-20" transform="translate(369.220703 0)"/>
    <use xlink:href="#DejaVuSans-Bold-48" transform="translate(404.035156 0)"/>
    <use xlink:href="#DejaVuSans-Bold-43" transform="translate(487.726562 0)"/>
    <use xlink:href="#DejaVuSans-Bold-50" transform="translate(561.115234 0)"/>
    <use xlink:href="#DejaVuSans-Bold-73" transform="translate(632.65625 0)"/>
    <use xlink:href="#DejaVuSans-Bold-20" transform="translate(692.177734 0)"/>
    <use xlink:href="#DejaVuSans-Bold-62" transform="translate(726.992188 0)"/>
    <use xlink:href="#DejaVuSans-Bold-79" transform="translate(798.574219 0)"/>
    <use xlink:href="#DejaVuSans-Bold-20" transform="translate(863.759766 0)"/>
    <use xlink:href="#DejaVuSans-Bold-61" transform="translate(898.574219 0)"/>
    <use xlink:href="#DejaVuSans-Bold-74" transform="translate(966.054688 0)"/>
    <use xlink:href="#DejaVuSans-Bold-74" transform="translate(1013.857422 0)"/>
    <use xlink:href="#DejaVuSans-Bold-72" transform="translate(1061.660156 0)"/>
    <use xlink:href="#DejaVuSans-Bold-69" transform="translate(1110.976562 0)"/>
    <use xlink:href="#DejaVuSans-Bold-62" transform="translate(1145.253906 0)"/>
    <use xlink:href="#DejaVuSans-Bold-75" transform="translate(1216.835938 0)"/>
    <use xlink:href="#DejaVuSans-Bold-74" transform="translate(1288.027344 0)"/>
    <use xlink:href="#DejaVuSans-Bold-65" transform="translate(1335.830078 0)"/>
    <use xlink:href="#DejaVuSans-Bold-64" transform="translate(1403.652344 0)"/>
    <use xlink:href="#DejaVuSans-Bold-20" transform="translate(1475.234375 0)"/>
    <use xlink:href="#DejaVuSans-Bold-70" transform="translate(1510.048828 0)"/>
    <use xlink:href="#DejaVuSans-Bold-61" transform="translate(1581.630859 0)"/>
    <use xlink:href="#DejaVuSans-Bold-74" transform="translate(1649.111328 0)"/>
    <use xlink:href="#DejaVuSans-Bold-69" transform="translate(1696.914062 0)"/>
    <use xlink:href="#DejaVuSans-Bold-65" transform="translate(1731.191406 0)"/>
    <use xlink:href="#DejaVuSans-Bold-6e" transform="translate(1799.013672 0)"/>
    <use xlink:href="#DejaVuSans-Bold-74" transform="translate(1870.205078 0)"/>
    <use xlink:href="#DejaVuSans-Bold-20" transform="translate(1918.007812 0)"/>
    <use xlink:href="#DejaVuSans-Bold-76" transform="translate(1952.822266 0)"/>
    <use xlink:href="#DejaVuSans-Bold-6f" transform="translate(2018.007812 0)"/>
    <use xlink:href="#DejaVuSans-Bold-6c" transform="translate(2086.708984 0)"/>
    <use xlink:href="#DejaVuSans-Bold-75" transform="translate(2120.986328 0)"/>
    <use xlink:href="#DejaVuSans-Bold-6d" transform="translate(2192.177734 0)"/>
    <use xlink:href="#DejaVuSans-Bold-65" transform="translate(2296.376953 0)"/>
   </g>
  </g>
 </g>
 <defs>
  <clipPath id="p80dc3fb6ad">
   <rect x="68.277031" y="69.1164" width="554.4" height="442.26"/>
  </clipPath>
 </defs>
</svg>
