<?xml version="1.0" encoding="utf-8" standalone="no"?>
<!DOCTYPE svg PUBLIC "-//W3C//DTD SVG 1.1//EN"
  "http://www.w3.org/Graphics/SVG/1.1/DTD/svg11.dtd">
<svg xmlns:xlink="http://www.w3.org/1999/xlink" width="543.767344pt" height="376.783206pt" viewBox="0 0 543.767344 376.783206" xmlns="http://www.w3.org/2000/svg" version="1.1">
 <metadata>
  <rdf:RDF xmlns:dc="http://purl.org/dc/elements/1.1/" xmlns:cc="http://creativecommons.org/ns#" xmlns:rdf="http://www.w3.org/1999/02/22-rdf-syntax-ns#">
   <cc:Work>
    <dc:type rdf:resource="http://purl.org/dc/dcmitype/StillImage"/>
    <dc:date>2026-06-20T22:49:26.178221</dc:date>
    <dc:format>image/svg+xml</dc:format>
    <dc:creator>
     <cc:Agent>
      <dc:title>Matplotlib v3.10.9, https://matplotlib.org/</dc:title>
     </cc:Agent>
    </dc:creator>
   </cc:Work>
  </rdf:RDF>
 </metadata>
 <defs>
  <style type="text/css">*{stroke-linejoin: round; stroke-linecap: butt}</style>
 </defs>
 <g id="figure_1">
  <g id="patch_1">
   <path d="M 0 376.783206
L 543.767344 376.783206
L 543.767344 0
L 0 0
z
" style="fill: #ffffff"/>
  </g>
  <g id="axes_1">
   <g id="patch_2">
    <path d="M 45.527344 340.194769
L 536.567344 340.194769
L 536.567344 23.077969
L 45.527344 23.077969
z
" style="fill: #ffffff"/>
   </g>
   <g id="FillBetweenPolyCollection_1">
    <defs>
     <path id="m11ef035004" d="M 514.247344 -51.002838
L 106.330102 -51.002838
L 106.330102 -238.390038
L 514.247344 -238.390038
L 514.247344 -238.390038
L 514.247344 -51.002838
z
" style="stroke: #e3efe4; stroke-opacity: 0.28"/>
    </defs>
    <g clip-path="url(#p0f288a87c8)">
     <use xlink:href="#m11ef035004" x="0" y="376.783206" style="fill: #e3efe4; fill-opacity: 0.28; stroke: #e3efe4; stroke-opacity: 0.28"/>
    </g>
   </g>
   <g id="matplotlib.axis_1">
    <g id="xtick_1">
     <g id="line2d_1">
      <defs>
       <path id="m779d348370" d="M 0 0
L 0 3.5
" style="stroke: #000000; stroke-width: 0.8"/>
      </defs>
      <g>
       <use xlink:href="#m779d348370" x="106.330102" y="340.194769" style="stroke: #000000; stroke-width: 0.8"/>
      </g>
     </g>
     <g id="text_1">
      <!-- 5 -->
      <g transform="translate(103.307915 354.413284) scale(0.095 -0.095)">
       <defs>
        <path id="DejaVuSans-35" d="M 691 4666
L 3169 4666
L 3169 4134
L 1269 4134
L 1269 2991
Q 1406 3038 1543 3061
Q 1681 3084 1819 3084
Q 2600 3084 3056 2656
Q 3513 2228 3513 1497
Q 3513 744 3044 326
Q 2575 -91 1722 -91
Q 1428 -91 1123 -41
Q 819 9 494 109
L 494 744
Q 775 591 1075 516
Q 1375 441 1709 441
Q 2250 441 2565 725
Q 2881 1009 2881 1497
Q 2881 1984 2565 2268
Q 2250 2553 1709 2553
Q 1456 2553 1204 2497
Q 953 2441 691 2322
L 691 4666
z
" transform="scale(0.015625)"/>
       </defs>
       <use xlink:href="#DejaVuSans-35"/>
      </g>
     </g>
    </g>
    <g id="xtick_2">
     <g id="line2d_2">
      <g>
       <use xlink:href="#m779d348370" x="170.468033" y="340.194769" style="stroke: #000000; stroke-width: 0.8"/>
      </g>
     </g>
     <g id="text_2">
      <!-- 10 -->
      <g transform="translate(164.423658 354.413284) scale(0.095 -0.095)">
       <defs>
        <path id="DejaVuSans-31" d="M 794 531
L 1825 531
L 1825 4091
L 703 3866
L 703 4441
L 1819 4666
L 2450 4666
L 2450 531
L 3481 531
L 3481 0
L 794 0
L 794 531
z
" transform="scale(0.015625)"/>
        <path id="DejaVuSans-30" d="M 2034 4250
Q 1547 4250 1301 3770
Q 1056 3291 1056 2328
Q 1056 1369 1301 889
Q 1547 409 2034 409
Q 2525 409 2770 889
Q 3016 1369 3016 2328
Q 3016 3291 2770 3770
Q 2525 4250 2034 4250
z
M 2034 4750
Q 2819 4750 3233 4129
Q 3647 3509 3647 2328
Q 3647 1150 3233 529
Q 2819 -91 2034 -91
Q 1250 -91 836 529
Q 422 1150 422 2328
Q 422 3509 836 4129
Q 1250 4750 2034 4750
z
" transform="scale(0.015625)"/>
       </defs>
       <use xlink:href="#DejaVuSans-31"/>
       <use xlink:href="#DejaVuSans-30" transform="translate(63.623047 0)"/>
      </g>
     </g>
    </g>
    <g id="xtick_3">
     <g id="line2d_3">
      <g>
       <use xlink:href="#m779d348370" x="234.605964" y="340.194769" style="stroke: #000000; stroke-width: 0.8"/>
      </g>
     </g>
     <g id="text_3">
      <!-- 15 -->
      <g transform="translate(228.561589 354.413284) scale(0.095 -0.095)">
       <use xlink:href="#DejaVuSans-31"/>
       <use xlink:href="#DejaVuSans-35" transform="translate(63.623047 0)"/>
      </g>
     </g>
    </g>
    <g id="xtick_4">
     <g id="line2d_4">
      <g>
       <use xlink:href="#m779d348370" x="298.743895" y="340.194769" style="stroke: #000000; stroke-width: 0.8"/>
      </g>
     </g>
     <g id="text_4">
      <!-- 20 -->
      <g transform="translate(292.69952 354.413284) scale(0.095 -0.095)">
       <defs>
        <path id="DejaVuSans-32" d="M 1228 531
L 3431 531
L 3431 0
L 469 0
L 469 531
Q 828 903 1448 1529
Q 2069 2156 2228 2338
Q 2531 2678 2651 2914
Q 2772 3150 2772 3378
Q 2772 3750 2511 3984
Q 2250 4219 1831 4219
Q 1534 4219 1204 4116
Q 875 4013 500 3803
L 500 4441
Q 881 4594 1212 4672
Q 1544 4750 1819 4750
Q 2544 4750 2975 4387
Q 3406 4025 3406 3419
Q 3406 3131 3298 2873
Q 3191 2616 2906 2266
Q 2828 2175 2409 1742
Q 1991 1309 1228 531
z
" transform="scale(0.015625)"/>
       </defs>
       <use xlink:href="#DejaVuSans-32"/>
       <use xlink:href="#DejaVuSans-30" transform="translate(63.623047 0)"/>
      </g>
     </g>
    </g>
    <g id="xtick_5">
     <g id="line2d_5">
      <g>
       <use xlink:href="#m779d348370" x="362.881827" y="340.194769" style="stroke: #000000; stroke-width: 0.8"/>
      </g>
     </g>
     <g id="text_5">
      <!-- 25 -->
      <g transform="translate(356.837452 354.413284) scale(0.095 -0.095)">
       <use xlink:href="#DejaVuSans-32"/>
       <use xlink:href="#DejaVuSans-35" transform="translate(63.623047 0)"/>
      </g>
     </g>
    </g>
    <g id="xtick_6">
     <g id="line2d_6">
      <g>
       <use xlink:href="#m779d348370" x="427.019758" y="340.194769" style="stroke: #000000; stroke-width: 0.8"/>
      </g>
     </g>
     <g id="text_6">
      <!-- 30 -->
      <g transform="translate(420.975383 354.413284) scale(0.095 -0.095)">
       <defs>
        <path id="DejaVuSans-33" d="M 2597 2516
Q 3050 2419 3304 2112
Q 3559 1806 3559 1356
Q 3559 666 3084 287
Q 2609 -91 1734 -91
Q 1441 -91 1130 -33
Q 819 25 488 141
L 488 750
Q 750 597 1062 519
Q 1375 441 1716 441
Q 2309 441 2620 675
Q 2931 909 2931 1356
Q 2931 1769 2642 2001
Q 2353 2234 1838 2234
L 1294 2234
L 1294 2753
L 1863 2753
Q 2328 2753 2575 2939
Q 2822 3125 2822 3475
Q 2822 3834 2567 4026
Q 2313 4219 1838 4219
Q 1578 4219 1281 4162
Q 984 4106 628 3988
L 628 4550
Q 988 4650 1302 4700
Q 1616 4750 1894 4750
Q 2613 4750 3031 4423
Q 3450 4097 3450 3541
Q 3450 3153 3228 2886
Q 3006 2619 2597 2516
z
" transform="scale(0.015625)"/>
       </defs>
       <use xlink:href="#DejaVuSans-33"/>
       <use xlink:href="#DejaVuSans-30" transform="translate(63.623047 0)"/>
      </g>
     </g>
    </g>
    <g id="xtick_7">
     <g id="line2d_7">
      <g>
       <use xlink:href="#m779d348370" x="491.157689" y="340.194769" style="stroke: #000000; stroke-width: 0.8"/>
      </g>
     </g>
     <g id="text_7">
      <!-- 35 -->
      <g transform="translate(485.113314 354.413284) scale(0.095 -0.095)">
       <use xlink:href="#DejaVuSans-33"/>
       <use xlink:href="#DejaVuSans-35" transform="translate(63.623047 0)"/>
      </g>
     </g>
    </g>
    <g id="text_8">
     <!-- Mature review-opportunity patients -->
     <g transform="translate(206.817969 367.607503) scale(0.095 -0.095)">
      <defs>
       <path id="DejaVuSans-4d" d="M 628 4666
L 1569 4666
L 2759 1491
L 3956 4666
L 4897 4666
L 4897 0
L 4281 0
L 4281 4097
L 3078 897
L 2444 897
L 1241 4097
L 1241 0
L 628 0
L 628 4666
z
" transform="scale(0.015625)"/>
       <path id="DejaVuSans-61" d="M 2194 1759
Q 1497 1759 1228 1600
Q 959 1441 959 1056
Q 959 750 1161 570
Q 1363 391 1709 391
Q 2188 391 2477 730
Q 2766 1069 2766 1631
L 2766 1759
L 2194 1759
z
M 3341 1997
L 3341 0
L 2766 0
L 2766 531
Q 2569 213 2275 61
Q 1981 -91 1556 -91
Q 1019 -91 701 211
Q 384 513 384 1019
Q 384 1609 779 1909
Q 1175 2209 1959 2209
L 2766 2209
L 2766 2266
Q 2766 2663 2505 2880
Q 2244 3097 1772 3097
Q 1472 3097 1187 3025
Q 903 2953 641 2809
L 641 3341
Q 956 3463 1253 3523
Q 1550 3584 1831 3584
Q 2591 3584 2966 3190
Q 3341 2797 3341 1997
z
" transform="scale(0.015625)"/>
       <path id="DejaVuSans-74" d="M 1172 4494
L 1172 3500
L 2356 3500
L 2356 3053
L 1172 3053
L 1172 1153
Q 1172 725 1289 603
Q 1406 481 1766 481
L 2356 481
L 2356 0
L 1766 0
Q 1100 0 847 248
Q 594 497 594 1153
L 594 3053
L 172 3053
L 172 3500
L 594 3500
L 594 4494
L 1172 4494
z
" transform="scale(0.015625)"/>
       <path id="DejaVuSans-75" d="M 544 1381
L 544 3500
L 1119 3500
L 1119 1403
Q 1119 906 1312 657
Q 1506 409 1894 409
Q 2359 409 2629 706
Q 2900 1003 2900 1516
L 2900 3500
L 3475 3500
L 3475 0
L 2900 0
L 2900 538
Q 2691 219 2414 64
Q 2138 -91 1772 -91
Q 1169 -91 856 284
Q 544 659 544 1381
z
M 1991 3584
L 1991 3584
z
" transform="scale(0.015625)"/>
       <path id="DejaVuSans-72" d="M 2631 2963
Q 2534 3019 2420 3045
Q 2306 3072 2169 3072
Q 1681 3072 1420 2755
Q 1159 2438 1159 1844
L 1159 0
L 581 0
L 581 3500
L 1159 3500
L 1159 2956
Q 1341 3275 1631 3429
Q 1922 3584 2338 3584
Q 2397 3584 2469 3576
Q 2541 3569 2628 3553
L 2631 2963
z
" transform="scale(0.015625)"/>
       <path id="DejaVuSans-65" d="M 3597 1894
L 3597 1613
L 953 1613
Q 991 1019 1311 708
Q 1631 397 2203 397
Q 2534 397 2845 478
Q 3156 559 3463 722
L 3463 178
Q 3153 47 2828 -22
Q 2503 -91 2169 -91
Q 1331 -91 842 396
Q 353 884 353 1716
Q 353 2575 817 3079
Q 1281 3584 2069 3584
Q 2775 3584 3186 3129
Q 3597 2675 3597 1894
z
M 3022 2063
Q 3016 2534 2758 2815
Q 2500 3097 2075 3097
Q 1594 3097 1305 2825
Q 1016 2553 972 2059
L 3022 2063
z
" transform="scale(0.015625)"/>
       <path id="DejaVuSans-20" transform="scale(0.015625)"/>
       <path id="DejaVuSans-76" d="M 191 3500
L 800 3500
L 1894 563
L 2988 3500
L 3597 3500
L 2284 0
L 1503 0
L 191 3500
z
" transform="scale(0.015625)"/>
       <path id="DejaVuSans-69" d="M 603 3500
L 1178 3500
L 1178 0
L 603 0
L 603 3500
z
M 603 4863
L 1178 4863
L 1178 4134
L 603 4134
L 603 4863
z
" transform="scale(0.015625)"/>
       <path id="DejaVuSans-77" d="M 269 3500
L 844 3500
L 1563 769
L 2278 3500
L 2956 3500
L 3675 769
L 4391 3500
L 4966 3500
L 4050 0
L 3372 0
L 2619 2869
L 1863 0
L 1184 0
L 269 3500
z
" transform="scale(0.015625)"/>
       <path id="DejaVuSans-2d" d="M 313 2009
L 1997 2009
L 1997 1497
L 313 1497
L 313 2009
z
" transform="scale(0.015625)"/>
       <path id="DejaVuSans-6f" d="M 1959 3097
Q 1497 3097 1228 2736
Q 959 2375 959 1747
Q 959 1119 1226 758
Q 1494 397 1959 397
Q 2419 397 2687 759
Q 2956 1122 2956 1747
Q 2956 2369 2687 2733
Q 2419 3097 1959 3097
z
M 1959 3584
Q 2709 3584 3137 3096
Q 3566 2609 3566 1747
Q 3566 888 3137 398
Q 2709 -91 1959 -91
Q 1206 -91 779 398
Q 353 888 353 1747
Q 353 2609 779 3096
Q 1206 3584 1959 3584
z
" transform="scale(0.015625)"/>
       <path id="DejaVuSans-70" d="M 1159 525
L 1159 -1331
L 581 -1331
L 581 3500
L 1159 3500
L 1159 2969
Q 1341 3281 1617 3432
Q 1894 3584 2278 3584
Q 2916 3584 3314 3078
Q 3713 2572 3713 1747
Q 3713 922 3314 415
Q 2916 -91 2278 -91
Q 1894 -91 1617 61
Q 1341 213 1159 525
z
M 3116 1747
Q 3116 2381 2855 2742
Q 2594 3103 2138 3103
Q 1681 3103 1420 2742
Q 1159 2381 1159 1747
Q 1159 1113 1420 752
Q 1681 391 2138 391
Q 2594 391 2855 752
Q 3116 1113 3116 1747
z
" transform="scale(0.015625)"/>
       <path id="DejaVuSans-6e" d="M 3513 2113
L 3513 0
L 2938 0
L 2938 2094
Q 2938 2591 2744 2837
Q 2550 3084 2163 3084
Q 1697 3084 1428 2787
Q 1159 2491 1159 1978
L 1159 0
L 581 0
L 581 3500
L 1159 3500
L 1159 2956
Q 1366 3272 1645 3428
Q 1925 3584 2291 3584
Q 2894 3584 3203 3211
Q 3513 2838 3513 2113
z
" transform="scale(0.015625)"/>
       <path id="DejaVuSans-79" d="M 2059 -325
Q 1816 -950 1584 -1140
Q 1353 -1331 966 -1331
L 506 -1331
L 506 -850
L 844 -850
Q 1081 -850 1212 -737
Q 1344 -625 1503 -206
L 1606 56
L 191 3500
L 800 3500
L 1894 763
L 2988 3500
L 3597 3500
L 2059 -325
z
" transform="scale(0.015625)"/>
       <path id="DejaVuSans-73" d="M 2834 3397
L 2834 2853
Q 2591 2978 2328 3040
Q 2066 3103 1784 3103
Q 1356 3103 1142 2972
Q 928 2841 928 2578
Q 928 2378 1081 2264
Q 1234 2150 1697 2047
L 1894 2003
Q 2506 1872 2764 1633
Q 3022 1394 3022 966
Q 3022 478 2636 193
Q 2250 -91 1575 -91
Q 1294 -91 989 -36
Q 684 19 347 128
L 347 722
Q 666 556 975 473
Q 1284 391 1588 391
Q 1994 391 2212 530
Q 2431 669 2431 922
Q 2431 1156 2273 1281
Q 2116 1406 1581 1522
L 1381 1569
Q 847 1681 609 1914
Q 372 2147 372 2553
Q 372 3047 722 3315
Q 1072 3584 1716 3584
Q 2034 3584 2315 3537
Q 2597 3491 2834 3397
z
" transform="scale(0.015625)"/>
      </defs>
      <use xlink:href="#DejaVuSans-4d"/>
      <use xlink:href="#DejaVuSans-61" transform="translate(86.279297 0)"/>
      <use xlink:href="#DejaVuSans-74" transform="translate(147.558594 0)"/>
      <use xlink:href="#DejaVuSans-75" transform="translate(186.767578 0)"/>
      <use xlink:href="#DejaVuSans-72" transform="translate(250.146484 0)"/>
      <use xlink:href="#DejaVuSans-65" transform="translate(289.009766 0)"/>
      <use xlink:href="#DejaVuSans-20" transform="translate(350.533203 0)"/>
      <use xlink:href="#DejaVuSans-72" transform="translate(382.320312 0)"/>
      <use xlink:href="#DejaVuSans-65" transform="translate(421.183594 0)"/>
      <use xlink:href="#DejaVuSans-76" transform="translate(482.707031 0)"/>
      <use xlink:href="#DejaVuSans-69" transform="translate(541.886719 0)"/>
      <use xlink:href="#DejaVuSans-65" transform="translate(569.669922 0)"/>
      <use xlink:href="#DejaVuSans-77" transform="translate(631.193359 0)"/>
      <use xlink:href="#DejaVuSans-2d" transform="translate(712.980469 0)"/>
      <use xlink:href="#DejaVuSans-6f" transform="translate(750.939453 0)"/>
      <use xlink:href="#DejaVuSans-70" transform="translate(812.121094 0)"/>
      <use xlink:href="#DejaVuSans-70" transform="translate(875.597656 0)"/>
      <use xlink:href="#DejaVuSans-6f" transform="translate(939.074219 0)"/>
      <use xlink:href="#DejaVuSans-72" transform="translate(1000.255859 0)"/>
      <use xlink:href="#DejaVuSans-74" transform="translate(1041.369141 0)"/>
      <use xlink:href="#DejaVuSans-75" transform="translate(1080.578125 0)"/>
      <use xlink:href="#DejaVuSans-6e" transform="translate(1143.957031 0)"/>
      <use xlink:href="#DejaVuSans-69" transform="translate(1207.335938 0)"/>
      <use xlink:href="#DejaVuSans-74" transform="translate(1235.119141 0)"/>
      <use xlink:href="#DejaVuSans-79" transform="translate(1274.328125 0)"/>
      <use xlink:href="#DejaVuSans-20" transform="translate(1333.507812 0)"/>
      <use xlink:href="#DejaVuSans-70" transform="translate(1365.294922 0)"/>
      <use xlink:href="#DejaVuSans-61" transform="translate(1428.771484 0)"/>
      <use xlink:href="#DejaVuSans-74" transform="translate(1490.050781 0)"/>
      <use xlink:href="#DejaVuSans-69" transform="translate(1529.259766 0)"/>
      <use xlink:href="#DejaVuSans-65" transform="translate(1557.042969 0)"/>
      <use xlink:href="#DejaVuSans-6e" transform="translate(1618.566406 0)"/>
      <use xlink:href="#DejaVuSans-74" transform="translate(1681.945312 0)"/>
      <use xlink:href="#DejaVuSans-73" transform="translate(1721.154297 0)"/>
     </g>
    </g>
   </g>
   <g id="matplotlib.axis_2">
    <g id="ytick_1">
     <g id="line2d_8">
      <defs>
       <path id="mee097c679f" d="M 0 0
L -3.5 0
" style="stroke: #000000; stroke-width: 0.8"/>
      </defs>
      <g>
       <use xlink:href="#mee097c679f" x="45.527344" y="325.780369" style="stroke: #000000; stroke-width: 0.8"/>
      </g>
     </g>
     <g id="text_9">
      <!-- 0 -->
      <g transform="translate(32.482969 329.389627) scale(0.095 -0.095)">
       <use xlink:href="#DejaVuSans-30"/>
      </g>
     </g>
    </g>
    <g id="ytick_2">
     <g id="line2d_9">
      <g>
       <use xlink:href="#mee097c679f" x="45.527344" y="268.122769" style="stroke: #000000; stroke-width: 0.8"/>
      </g>
     </g>
     <g id="text_10">
      <!-- 20 -->
      <g transform="translate(26.438594 271.732027) scale(0.095 -0.095)">
       <use xlink:href="#DejaVuSans-32"/>
       <use xlink:href="#DejaVuSans-30" transform="translate(63.623047 0)"/>
      </g>
     </g>
    </g>
    <g id="ytick_3">
     <g id="line2d_10">
      <g>
       <use xlink:href="#mee097c679f" x="45.527344" y="210.465169" style="stroke: #000000; stroke-width: 0.8"/>
      </g>
     </g>
     <g id="text_11">
      <!-- 40 -->
      <g transform="translate(26.438594 214.074427) scale(0.095 -0.095)">
       <defs>
        <path id="DejaVuSans-34" d="M 2419 4116
L 825 1625
L 2419 1625
L 2419 4116
z
M 2253 4666
L 3047 4666
L 3047 1625
L 3713 1625
L 3713 1100
L 3047 1100
L 3047 0
L 2419 0
L 2419 1100
L 313 1100
L 313 1709
L 2253 4666
z
" transform="scale(0.015625)"/>
       </defs>
       <use xlink:href="#DejaVuSans-34"/>
       <use xlink:href="#DejaVuSans-30" transform="translate(63.623047 0)"/>
      </g>
     </g>
    </g>
    <g id="ytick_4">
     <g id="line2d_11">
      <g>
       <use xlink:href="#mee097c679f" x="45.527344" y="152.807569" style="stroke: #000000; stroke-width: 0.8"/>
      </g>
     </g>
     <g id="text_12">
      <!-- 60 -->
      <g transform="translate(26.438594 156.416827) scale(0.095 -0.095)">
       <defs>
        <path id="DejaVuSans-36" d="M 2113 2584
Q 1688 2584 1439 2293
Q 1191 2003 1191 1497
Q 1191 994 1439 701
Q 1688 409 2113 409
Q 2538 409 2786 701
Q 3034 994 3034 1497
Q 3034 2003 2786 2293
Q 2538 2584 2113 2584
z
M 3366 4563
L 3366 3988
Q 3128 4100 2886 4159
Q 2644 4219 2406 4219
Q 1781 4219 1451 3797
Q 1122 3375 1075 2522
Q 1259 2794 1537 2939
Q 1816 3084 2150 3084
Q 2853 3084 3261 2657
Q 3669 2231 3669 1497
Q 3669 778 3244 343
Q 2819 -91 2113 -91
Q 1303 -91 875 529
Q 447 1150 447 2328
Q 447 3434 972 4092
Q 1497 4750 2381 4750
Q 2619 4750 2861 4703
Q 3103 4656 3366 4563
z
" transform="scale(0.015625)"/>
       </defs>
       <use xlink:href="#DejaVuSans-36"/>
       <use xlink:href="#DejaVuSans-30" transform="translate(63.623047 0)"/>
      </g>
     </g>
    </g>
    <g id="ytick_5">
     <g id="line2d_12">
      <g>
       <use xlink:href="#mee097c679f" x="45.527344" y="95.149969" style="stroke: #000000; stroke-width: 0.8"/>
      </g>
     </g>
     <g id="text_13">
      <!-- 80 -->
      <g transform="translate(26.438594 98.759227) scale(0.095 -0.095)">
       <defs>
        <path id="DejaVuSans-38" d="M 2034 2216
Q 1584 2216 1326 1975
Q 1069 1734 1069 1313
Q 1069 891 1326 650
Q 1584 409 2034 409
Q 2484 409 2743 651
Q 3003 894 3003 1313
Q 3003 1734 2745 1975
Q 2488 2216 2034 2216
z
M 1403 2484
Q 997 2584 770 2862
Q 544 3141 544 3541
Q 544 4100 942 4425
Q 1341 4750 2034 4750
Q 2731 4750 3128 4425
Q 3525 4100 3525 3541
Q 3525 3141 3298 2862
Q 3072 2584 2669 2484
Q 3125 2378 3379 2068
Q 3634 1759 3634 1313
Q 3634 634 3220 271
Q 2806 -91 2034 -91
Q 1263 -91 848 271
Q 434 634 434 1313
Q 434 1759 690 2068
Q 947 2378 1403 2484
z
M 1172 3481
Q 1172 3119 1398 2916
Q 1625 2713 2034 2713
Q 2441 2713 2670 2916
Q 2900 3119 2900 3481
Q 2900 3844 2670 4047
Q 2441 4250 2034 4250
Q 1625 4250 1398 4047
Q 1172 3844 1172 3481
z
" transform="scale(0.015625)"/>
       </defs>
       <use xlink:href="#DejaVuSans-38"/>
       <use xlink:href="#DejaVuSans-30" transform="translate(63.623047 0)"/>
      </g>
     </g>
    </g>
    <g id="ytick_6">
     <g id="line2d_13">
      <g>
       <use xlink:href="#mee097c679f" x="45.527344" y="37.492369" style="stroke: #000000; stroke-width: 0.8"/>
      </g>
     </g>
     <g id="text_14">
      <!-- 100 -->
      <g transform="translate(20.394219 41.101627) scale(0.095 -0.095)">
       <use xlink:href="#DejaVuSans-31"/>
       <use xlink:href="#DejaVuSans-30" transform="translate(63.623047 0)"/>
       <use xlink:href="#DejaVuSans-30" transform="translate(127.246094 0)"/>
      </g>
     </g>
    </g>
    <g id="text_15">
     <!-- Roventra share among treated patients (%) -->
     <g transform="translate(14.418516 285.221252) rotate(-90) scale(0.095 -0.095)">
      <defs>
       <path id="DejaVuSans-52" d="M 2841 2188
Q 3044 2119 3236 1894
Q 3428 1669 3622 1275
L 4263 0
L 3584 0
L 2988 1197
Q 2756 1666 2539 1819
Q 2322 1972 1947 1972
L 1259 1972
L 1259 0
L 628 0
L 628 4666
L 2053 4666
Q 2853 4666 3247 4331
Q 3641 3997 3641 3322
Q 3641 2881 3436 2590
Q 3231 2300 2841 2188
z
M 1259 4147
L 1259 2491
L 2053 2491
Q 2509 2491 2742 2702
Q 2975 2913 2975 3322
Q 2975 3731 2742 3939
Q 2509 4147 2053 4147
L 1259 4147
z
" transform="scale(0.015625)"/>
       <path id="DejaVuSans-68" d="M 3513 2113
L 3513 0
L 2938 0
L 2938 2094
Q 2938 2591 2744 2837
Q 2550 3084 2163 3084
Q 1697 3084 1428 2787
Q 1159 2491 1159 1978
L 1159 0
L 581 0
L 581 4863
L 1159 4863
L 1159 2956
Q 1366 3272 1645 3428
Q 1925 3584 2291 3584
Q 2894 3584 3203 3211
Q 3513 2838 3513 2113
z
" transform="scale(0.015625)"/>
       <path id="DejaVuSans-6d" d="M 3328 2828
Q 3544 3216 3844 3400
Q 4144 3584 4550 3584
Q 5097 3584 5394 3201
Q 5691 2819 5691 2113
L 5691 0
L 5113 0
L 5113 2094
Q 5113 2597 4934 2840
Q 4756 3084 4391 3084
Q 3944 3084 3684 2787
Q 3425 2491 3425 1978
L 3425 0
L 2847 0
L 2847 2094
Q 2847 2600 2669 2842
Q 2491 3084 2119 3084
Q 1678 3084 1418 2786
Q 1159 2488 1159 1978
L 1159 0
L 581 0
L 581 3500
L 1159 3500
L 1159 2956
Q 1356 3278 1631 3431
Q 1906 3584 2284 3584
Q 2666 3584 2933 3390
Q 3200 3197 3328 2828
z
" transform="scale(0.015625)"/>
       <path id="DejaVuSans-67" d="M 2906 1791
Q 2906 2416 2648 2759
Q 2391 3103 1925 3103
Q 1463 3103 1205 2759
Q 947 2416 947 1791
Q 947 1169 1205 825
Q 1463 481 1925 481
Q 2391 481 2648 825
Q 2906 1169 2906 1791
z
M 3481 434
Q 3481 -459 3084 -895
Q 2688 -1331 1869 -1331
Q 1566 -1331 1297 -1286
Q 1028 -1241 775 -1147
L 775 -588
Q 1028 -725 1275 -790
Q 1522 -856 1778 -856
Q 2344 -856 2625 -561
Q 2906 -266 2906 331
L 2906 616
Q 2728 306 2450 153
Q 2172 0 1784 0
Q 1141 0 747 490
Q 353 981 353 1791
Q 353 2603 747 3093
Q 1141 3584 1784 3584
Q 2172 3584 2450 3431
Q 2728 3278 2906 2969
L 2906 3500
L 3481 3500
L 3481 434
z
" transform="scale(0.015625)"/>
       <path id="DejaVuSans-64" d="M 2906 2969
L 2906 4863
L 3481 4863
L 3481 0
L 2906 0
L 2906 525
Q 2725 213 2448 61
Q 2172 -91 1784 -91
Q 1150 -91 751 415
Q 353 922 353 1747
Q 353 2572 751 3078
Q 1150 3584 1784 3584
Q 2172 3584 2448 3432
Q 2725 3281 2906 2969
z
M 947 1747
Q 947 1113 1208 752
Q 1469 391 1925 391
Q 2381 391 2643 752
Q 2906 1113 2906 1747
Q 2906 2381 2643 2742
Q 2381 3103 1925 3103
Q 1469 3103 1208 2742
Q 947 2381 947 1747
z
" transform="scale(0.015625)"/>
       <path id="DejaVuSans-28" d="M 1984 4856
Q 1566 4138 1362 3434
Q 1159 2731 1159 2009
Q 1159 1288 1364 580
Q 1569 -128 1984 -844
L 1484 -844
Q 1016 -109 783 600
Q 550 1309 550 2009
Q 550 2706 781 3412
Q 1013 4119 1484 4856
L 1984 4856
z
" transform="scale(0.015625)"/>
       <path id="DejaVuSans-25" d="M 4653 2053
Q 4381 2053 4226 1822
Q 4072 1591 4072 1178
Q 4072 772 4226 539
Q 4381 306 4653 306
Q 4919 306 5073 539
Q 5228 772 5228 1178
Q 5228 1588 5073 1820
Q 4919 2053 4653 2053
z
M 4653 2450
Q 5147 2450 5437 2106
Q 5728 1763 5728 1178
Q 5728 594 5436 251
Q 5144 -91 4653 -91
Q 4153 -91 3862 251
Q 3572 594 3572 1178
Q 3572 1766 3864 2108
Q 4156 2450 4653 2450
z
M 1428 4353
Q 1159 4353 1004 4120
Q 850 3888 850 3481
Q 850 3069 1003 2837
Q 1156 2606 1428 2606
Q 1700 2606 1854 2837
Q 2009 3069 2009 3481
Q 2009 3884 1853 4118
Q 1697 4353 1428 4353
z
M 4250 4750
L 4750 4750
L 1831 -91
L 1331 -91
L 4250 4750
z
M 1428 4750
Q 1922 4750 2215 4408
Q 2509 4066 2509 3481
Q 2509 2891 2217 2550
Q 1925 2209 1428 2209
Q 931 2209 642 2551
Q 353 2894 353 3481
Q 353 4063 643 4406
Q 934 4750 1428 4750
z
" transform="scale(0.015625)"/>
       <path id="DejaVuSans-29" d="M 513 4856
L 1013 4856
Q 1481 4119 1714 3412
Q 1947 2706 1947 2009
Q 1947 1309 1714 600
Q 1481 -109 1013 -844
L 513 -844
Q 928 -128 1133 580
Q 1338 1288 1338 2009
Q 1338 2731 1133 3434
Q 928 4138 513 4856
z
" transform="scale(0.015625)"/>
      </defs>
      <use xlink:href="#DejaVuSans-52"/>
      <use xlink:href="#DejaVuSans-6f" transform="translate(64.982422 0)"/>
      <use xlink:href="#DejaVuSans-76" transform="translate(126.164062 0)"/>
      <use xlink:href="#DejaVuSans-65" transform="translate(185.34375 0)"/>
      <use xlink:href="#DejaVuSans-6e" transform="translate(246.867188 0)"/>
      <use xlink:href="#DejaVuSans-74" transform="translate(310.246094 0)"/>
      <use xlink:href="#DejaVuSans-72" transform="translate(349.455078 0)"/>
      <use xlink:href="#DejaVuSans-61" transform="translate(390.568359 0)"/>
      <use xlink:href="#DejaVuSans-20" transform="translate(451.847656 0)"/>
      <use xlink:href="#DejaVuSans-73" transform="translate(483.634766 0)"/>
      <use xlink:href="#DejaVuSans-68" transform="translate(535.734375 0)"/>
      <use xlink:href="#DejaVuSans-61" transform="translate(599.113281 0)"/>
      <use xlink:href="#DejaVuSans-72" transform="translate(660.392578 0)"/>
      <use xlink:href="#DejaVuSans-65" transform="translate(699.255859 0)"/>
      <use xlink:href="#DejaVuSans-20" transform="translate(760.779297 0)"/>
      <use xlink:href="#DejaVuSans-61" transform="translate(792.566406 0)"/>
      <use xlink:href="#DejaVuSans-6d" transform="translate(853.845703 0)"/>
      <use xlink:href="#DejaVuSans-6f" transform="translate(951.257812 0)"/>
      <use xlink:href="#DejaVuSans-6e" transform="translate(1012.439453 0)"/>
      <use xlink:href="#DejaVuSans-67" transform="translate(1075.818359 0)"/>
      <use xlink:href="#DejaVuSans-20" transform="translate(1139.294922 0)"/>
      <use xlink:href="#DejaVuSans-74" transform="translate(1171.082031 0)"/>
      <use xlink:href="#DejaVuSans-72" transform="translate(1210.291016 0)"/>
      <use xlink:href="#DejaVuSans-65" transform="translate(1249.154297 0)"/>
      <use xlink:href="#DejaVuSans-61" transform="translate(1310.677734 0)"/>
      <use xlink:href="#DejaVuSans-74" transform="translate(1371.957031 0)"/>
      <use xlink:href="#DejaVuSans-65" transform="translate(1411.166016 0)"/>
      <use xlink:href="#DejaVuSans-64" transform="translate(1472.689453 0)"/>
      <use xlink:href="#DejaVuSans-20" transform="translate(1536.166016 0)"/>
      <use xlink:href="#DejaVuSans-70" transform="translate(1567.953125 0)"/>
      <use xlink:href="#DejaVuSans-61" transform="translate(1631.429688 0)"/>
      <use xlink:href="#DejaVuSans-74" transform="translate(1692.708984 0)"/>
      <use xlink:href="#DejaVuSans-69" transform="translate(1731.917969 0)"/>
      <use xlink:href="#DejaVuSans-65" transform="translate(1759.701172 0)"/>
      <use xlink:href="#DejaVuSans-6e" transform="translate(1821.224609 0)"/>
      <use xlink:href="#DejaVuSans-74" transform="translate(1884.603516 0)"/>
      <use xlink:href="#DejaVuSans-73" transform="translate(1923.8125 0)"/>
      <use xlink:href="#DejaVuSans-20" transform="translate(1975.912109 0)"/>
      <use xlink:href="#DejaVuSans-28" transform="translate(2007.699219 0)"/>
      <use xlink:href="#DejaVuSans-25" transform="translate(2046.712891 0)"/>
      <use xlink:href="#DejaVuSans-29" transform="translate(2141.732422 0)"/>
     </g>
    </g>
   </g>
   <g id="line2d_14">
    <path d="M 106.330102 340.194769
L 106.330102 23.077969
" clip-path="url(#p0f288a87c8)" style="fill: none; stroke-dasharray: 4.81,2.08; stroke-dashoffset: 0; stroke: #e3e6e8; stroke-width: 1.3"/>
   </g>
   <g id="line2d_15">
    <path d="M 45.527344 138.393169
L 536.567344 138.393169
" clip-path="url(#p0f288a87c8)" style="fill: none; stroke-dasharray: 4.81,2.08; stroke-dashoffset: 0; stroke: #e3e6e8; stroke-width: 1.3"/>
   </g>
   <g id="patch_3">
    <path d="M 45.527344 340.194769
L 45.527344 23.077969
" style="fill: none; stroke: #e3e6e8; stroke-width: 0.8; stroke-linejoin: miter; stroke-linecap: square"/>
   </g>
   <g id="patch_4">
    <path d="M 45.527344 340.194769
L 536.567344 340.194769
" style="fill: none; stroke: #e3e6e8; stroke-width: 0.8; stroke-linejoin: miter; stroke-linecap: square"/>
   </g>
   <g id="text_16">
    <!-- Priority zone -->
    <g style="fill: #7fb685" transform="translate(358.245326 302.717329) scale(0.085 -0.085)">
     <defs>
      <path id="DejaVuSans-Oblique-50" d="M 1081 4666
L 2541 4666
Q 3178 4666 3512 4369
Q 3847 4072 3847 3500
Q 3847 2731 3353 2303
Q 2859 1875 1966 1875
L 1172 1875
L 806 0
L 172 0
L 1081 4666
z
M 1613 4147
L 1275 2394
L 2069 2394
Q 2606 2394 2893 2669
Q 3181 2944 3181 3456
Q 3181 3784 2986 3965
Q 2791 4147 2438 4147
L 1613 4147
z
" transform="scale(0.015625)"/>
      <path id="DejaVuSans-Oblique-72" d="M 2853 2969
Q 2766 3016 2653 3041
Q 2541 3066 2413 3066
Q 1953 3066 1609 2717
Q 1266 2369 1153 1784
L 800 0
L 225 0
L 909 3500
L 1484 3500
L 1375 2956
Q 1603 3259 1920 3421
Q 2238 3584 2597 3584
Q 2691 3584 2781 3573
Q 2872 3563 2963 3538
L 2853 2969
z
" transform="scale(0.015625)"/>
      <path id="DejaVuSans-Oblique-69" d="M 1172 4863
L 1747 4863
L 1606 4134
L 1031 4134
L 1172 4863
z
M 909 3500
L 1484 3500
L 800 0
L 225 0
L 909 3500
z
" transform="scale(0.015625)"/>
      <path id="DejaVuSans-Oblique-6f" d="M 1625 -91
Q 1009 -91 651 289
Q 294 669 294 1325
Q 294 1706 417 2101
Q 541 2497 738 2766
Q 1047 3184 1428 3384
Q 1809 3584 2291 3584
Q 2888 3584 3255 3212
Q 3622 2841 3622 2241
Q 3622 1825 3500 1412
Q 3378 1000 3181 728
Q 2875 309 2494 109
Q 2113 -91 1625 -91
z
M 891 1344
Q 891 869 1089 633
Q 1288 397 1691 397
Q 2269 397 2648 901
Q 3028 1406 3028 2181
Q 3028 2634 2825 2865
Q 2622 3097 2228 3097
Q 1903 3097 1650 2945
Q 1397 2794 1197 2484
Q 1050 2253 970 1956
Q 891 1659 891 1344
z
" transform="scale(0.015625)"/>
      <path id="DejaVuSans-Oblique-74" d="M 2706 3500
L 2619 3053
L 1472 3053
L 1100 1153
Q 1081 1047 1072 975
Q 1063 903 1063 863
Q 1063 663 1183 572
Q 1303 481 1569 481
L 2150 481
L 2053 0
L 1503 0
Q 991 0 739 200
Q 488 400 488 806
Q 488 878 497 964
Q 506 1050 525 1153
L 897 3053
L 409 3053
L 500 3500
L 978 3500
L 1172 4494
L 1747 4494
L 1556 3500
L 2706 3500
z
" transform="scale(0.015625)"/>
      <path id="DejaVuSans-Oblique-79" d="M 1588 -325
Q 1188 -997 936 -1164
Q 684 -1331 294 -1331
L -159 -1331
L -63 -850
L 269 -850
Q 509 -850 678 -719
Q 847 -588 1056 -206
L 1234 128
L 459 3500
L 1069 3500
L 1650 819
L 3256 3500
L 3859 3500
L 1588 -325
z
" transform="scale(0.015625)"/>
      <path id="DejaVuSans-Oblique-20" transform="scale(0.015625)"/>
      <path id="DejaVuSans-Oblique-7a" d="M 744 3500
L 3475 3500
L 3372 2975
L 738 459
L 2913 459
L 2822 0
L -19 0
L 84 525
L 2719 3041
L 653 3041
L 744 3500
z
" transform="scale(0.015625)"/>
      <path id="DejaVuSans-Oblique-6e" d="M 3566 2113
L 3156 0
L 2578 0
L 2988 2091
Q 3016 2238 3031 2350
Q 3047 2463 3047 2528
Q 3047 2791 2881 2937
Q 2716 3084 2419 3084
Q 1956 3084 1622 2776
Q 1288 2469 1184 1941
L 800 0
L 225 0
L 903 3500
L 1478 3500
L 1363 2950
Q 1603 3253 1940 3418
Q 2278 3584 2650 3584
Q 3113 3584 3367 3334
Q 3622 3084 3622 2631
Q 3622 2519 3608 2391
Q 3594 2263 3566 2113
z
" transform="scale(0.015625)"/>
      <path id="DejaVuSans-Oblique-65" d="M 3078 2063
Q 3088 2113 3092 2166
Q 3097 2219 3097 2272
Q 3097 2653 2873 2875
Q 2650 3097 2266 3097
Q 1838 3097 1509 2826
Q 1181 2556 1013 2059
L 3078 2063
z
M 3578 1613
L 903 1613
Q 884 1494 878 1425
Q 872 1356 872 1306
Q 872 872 1139 634
Q 1406 397 1894 397
Q 2269 397 2603 481
Q 2938 566 3225 728
L 3116 159
Q 2806 34 2476 -28
Q 2147 -91 1806 -91
Q 1078 -91 686 257
Q 294 606 294 1247
Q 294 1794 489 2264
Q 684 2734 1063 3103
Q 1306 3334 1642 3459
Q 1978 3584 2356 3584
Q 2950 3584 3301 3228
Q 3653 2872 3653 2272
Q 3653 2128 3634 1964
Q 3616 1800 3578 1613
z
" transform="scale(0.015625)"/>
     </defs>
     <use xlink:href="#DejaVuSans-Oblique-50"/>
     <use xlink:href="#DejaVuSans-Oblique-72" transform="translate(60.302734 0)"/>
     <use xlink:href="#DejaVuSans-Oblique-69" transform="translate(101.416016 0)"/>
     <use xlink:href="#DejaVuSans-Oblique-6f" transform="translate(129.199219 0)"/>
     <use xlink:href="#DejaVuSans-Oblique-72" transform="translate(190.380859 0)"/>
     <use xlink:href="#DejaVuSans-Oblique-69" transform="translate(231.494141 0)"/>
     <use xlink:href="#DejaVuSans-Oblique-74" transform="translate(259.277344 0)"/>
     <use xlink:href="#DejaVuSans-Oblique-79" transform="translate(298.486328 0)"/>
     <use xlink:href="#DejaVuSans-Oblique-20" transform="translate(357.666016 0)"/>
     <use xlink:href="#DejaVuSans-Oblique-7a" transform="translate(389.453125 0)"/>
     <use xlink:href="#DejaVuSans-Oblique-6f" transform="translate(441.943359 0)"/>
     <use xlink:href="#DejaVuSans-Oblique-6e" transform="translate(503.125 0)"/>
     <use xlink:href="#DejaVuSans-Oblique-65" transform="translate(566.503906 0)"/>
    </g>
   </g>
   <g id="PathCollection_1">
    <path d="M 183.29562 183.981577
C 183.917576 183.981577 184.514142 183.734471 184.953932 183.294681
C 185.393722 182.854892 185.640827 182.258325 185.640827 181.636369
C 185.640827 181.014412 185.393722 180.417846 184.953932 179.978056
C 184.514142 179.538267 183.917576 179.291161 183.29562 179.291161
C 182.673663 179.291161 182.077097 179.538267 181.637307 179.978056
C 181.197518 180.417846 180.950412 181.014412 180.950412 181.636369
C 180.950412 182.258325 181.197518 182.854892 181.637307 183.294681
C 182.077097 183.734471 182.673663 183.981577 183.29562 183.981577
z
" clip-path="url(#p0f288a87c8)" style="fill: #e0b663; fill-opacity: 0.45"/>
   </g>
   <g id="PathCollection_2">
    <defs>
     <path id="C0_0_053521fae6" d="M 0 2.345208
C 0.621956 2.345208 1.218523 2.098102 1.658312 1.658312
C 2.098102 1.218523 2.345208 0.621956 2.345208 -0
C 2.345208 -0.621956 2.098102 -1.218523 1.658312 -1.658312
C 1.218523 -2.098102 0.621956 -2.345208 0 -2.345208
C -0.621956 -2.345208 -1.218523 -2.098102 -1.658312 -1.658312
C -2.098102 -1.218523 -2.345208 -0.621956 -2.345208 0
C -2.345208 0.621956 -2.098102 1.218523 -1.658312 1.658312
C -1.218523 2.098102 -0.621956 2.345208 0 2.345208
z
"/>
    </defs>
    <g clip-path="url(#p0f288a87c8)">
     <use xlink:href="#C0_0_053521fae6" x="350.05424" y="148.372369" style="fill: #f0a06b; fill-opacity: 0.45"/>
    </g>
    <g clip-path="url(#p0f288a87c8)">
     <use xlink:href="#C0_0_053521fae6" x="350.05424" y="205.660369" style="fill: #f0a06b; fill-opacity: 0.45"/>
    </g>
    <g clip-path="url(#p0f288a87c8)">
     <use xlink:href="#C0_0_053521fae6" x="324.399068" y="66.321169" style="fill: #f0a06b; fill-opacity: 0.45"/>
    </g>
    <g clip-path="url(#p0f288a87c8)">
     <use xlink:href="#C0_0_053521fae6" x="324.399068" y="229.684369" style="fill: #f0a06b; fill-opacity: 0.45"/>
    </g>
    <g clip-path="url(#p0f288a87c8)">
     <use xlink:href="#C0_0_053521fae6" x="285.916309" y="217.672369" style="fill: #f0a06b; fill-opacity: 0.45"/>
    </g>
    <g clip-path="url(#p0f288a87c8)">
     <use xlink:href="#C0_0_053521fae6" x="221.778378" y="181.636369" style="fill: #f0a06b; fill-opacity: 0.45"/>
    </g>
    <g clip-path="url(#p0f288a87c8)">
     <use xlink:href="#C0_0_053521fae6" x="196.123206" y="133.588369" style="fill: #f0a06b; fill-opacity: 0.45"/>
    </g>
    <g clip-path="url(#p0f288a87c8)">
     <use xlink:href="#C0_0_053521fae6" x="196.123206" y="181.636369" style="fill: #f0a06b; fill-opacity: 0.45"/>
    </g>
    <g clip-path="url(#p0f288a87c8)">
     <use xlink:href="#C0_0_053521fae6" x="183.29562" y="133.588369" style="fill: #f0a06b; fill-opacity: 0.45"/>
    </g>
    <g clip-path="url(#p0f288a87c8)">
     <use xlink:href="#C0_0_053521fae6" x="183.29562" y="325.780369" style="fill: #f0a06b; fill-opacity: 0.45"/>
    </g>
    <g clip-path="url(#p0f288a87c8)">
     <use xlink:href="#C0_0_053521fae6" x="157.640447" y="210.465169" style="fill: #f0a06b; fill-opacity: 0.45"/>
    </g>
    <g clip-path="url(#p0f288a87c8)">
     <use xlink:href="#C0_0_053521fae6" x="131.985275" y="37.492369" style="fill: #f0a06b; fill-opacity: 0.45"/>
    </g>
   </g>
   <g id="PathCollection_3">
    <defs>
     <path id="C1_0_6977678fd3" d="M 0 2.345208
C 0.621956 2.345208 1.218523 2.098102 1.658312 1.658312
C 2.098102 1.218523 2.345208 0.621956 2.345208 -0
C 2.345208 -0.621956 2.098102 -1.218523 1.658312 -1.658312
C 1.218523 -2.098102 0.621956 -2.345208 0 -2.345208
C -0.621956 -2.345208 -1.218523 -2.098102 -1.658312 -1.658312
C -2.098102 -1.218523 -2.345208 -0.621956 -2.345208 0
C -2.345208 0.621956 -2.098102 1.218523 -1.658312 1.658312
C -1.218523 2.098102 -0.621956 2.345208 0 2.345208
z
"/>
    </defs>
    <g clip-path="url(#p0f288a87c8)">
     <use xlink:href="#C1_0_6977678fd3" x="350.05424" y="123.978769" style="fill: #7ba6d0; fill-opacity: 0.45"/>
    </g>
    <g clip-path="url(#p0f288a87c8)">
     <use xlink:href="#C1_0_6977678fd3" x="311.571482" y="133.588369" style="fill: #7ba6d0; fill-opacity: 0.45"/>
    </g>
    <g clip-path="url(#p0f288a87c8)">
     <use xlink:href="#C1_0_6977678fd3" x="273.088723" y="116.116369" style="fill: #7ba6d0; fill-opacity: 0.45"/>
    </g>
    <g clip-path="url(#p0f288a87c8)">
     <use xlink:href="#C1_0_6977678fd3" x="273.088723" y="123.978769" style="fill: #7ba6d0; fill-opacity: 0.45"/>
    </g>
    <g clip-path="url(#p0f288a87c8)">
     <use xlink:href="#C1_0_6977678fd3" x="260.261137" y="181.636369" style="fill: #7ba6d0; fill-opacity: 0.45"/>
    </g>
    <g clip-path="url(#p0f288a87c8)">
     <use xlink:href="#C1_0_6977678fd3" x="208.950792" y="133.588369" style="fill: #7ba6d0; fill-opacity: 0.45"/>
    </g>
   </g>
   <g id="PathCollection_4">
    <defs>
     <path id="C2_0_2acdcd0e54" d="M 0 2.345208
C 0.621956 2.345208 1.218523 2.098102 1.658312 1.658312
C 2.098102 1.218523 2.345208 0.621956 2.345208 -0
C 2.345208 -0.621956 2.098102 -1.218523 1.658312 -1.658312
C 1.218523 -2.098102 0.621956 -2.345208 0 -2.345208
C -0.621956 -2.345208 -1.218523 -2.098102 -1.658312 -1.658312
C -2.098102 -1.218523 -2.345208 -0.621956 -2.345208 0
C -2.345208 0.621956 -2.098102 1.218523 -1.658312 1.658312
C -1.218523 2.098102 -0.621956 2.345208 0 2.345208
z
"/>
    </defs>
    <g clip-path="url(#p0f288a87c8)">
     <use xlink:href="#C2_0_2acdcd0e54" x="298.743895" y="119.860369" style="fill: #9a9a9a; fill-opacity: 0.45"/>
    </g>
    <g clip-path="url(#p0f288a87c8)">
     <use xlink:href="#C2_0_2acdcd0e54" x="285.916309" y="78.676369" style="fill: #9a9a9a; fill-opacity: 0.45"/>
    </g>
    <g clip-path="url(#p0f288a87c8)">
     <use xlink:href="#C2_0_2acdcd0e54" x="273.088723" y="133.588369" style="fill: #9a9a9a; fill-opacity: 0.45"/>
    </g>
    <g clip-path="url(#p0f288a87c8)">
     <use xlink:href="#C2_0_2acdcd0e54" x="273.088723" y="284.596369" style="fill: #9a9a9a; fill-opacity: 0.45"/>
    </g>
    <g clip-path="url(#p0f288a87c8)">
     <use xlink:href="#C2_0_2acdcd0e54" x="273.088723" y="243.412369" style="fill: #9a9a9a; fill-opacity: 0.45"/>
    </g>
    <g clip-path="url(#p0f288a87c8)">
     <use xlink:href="#C2_0_2acdcd0e54" x="273.088723" y="210.465169" style="fill: #9a9a9a; fill-opacity: 0.45"/>
    </g>
    <g clip-path="url(#p0f288a87c8)">
     <use xlink:href="#C2_0_2acdcd0e54" x="247.433551" y="210.465169" style="fill: #9a9a9a; fill-opacity: 0.45"/>
    </g>
    <g clip-path="url(#p0f288a87c8)">
     <use xlink:href="#C2_0_2acdcd0e54" x="247.433551" y="325.780369" style="fill: #9a9a9a; fill-opacity: 0.45"/>
    </g>
    <g clip-path="url(#p0f288a87c8)">
     <use xlink:href="#C2_0_2acdcd0e54" x="234.605964" y="133.588369" style="fill: #9a9a9a; fill-opacity: 0.45"/>
    </g>
    <g clip-path="url(#p0f288a87c8)">
     <use xlink:href="#C2_0_2acdcd0e54" x="234.605964" y="109.564369" style="fill: #9a9a9a; fill-opacity: 0.45"/>
    </g>
    <g clip-path="url(#p0f288a87c8)">
     <use xlink:href="#C2_0_2acdcd0e54" x="234.605964" y="277.732369" style="fill: #9a9a9a; fill-opacity: 0.45"/>
    </g>
    <g clip-path="url(#p0f288a87c8)">
     <use xlink:href="#C2_0_2acdcd0e54" x="221.778378" y="243.412369" style="fill: #9a9a9a; fill-opacity: 0.45"/>
    </g>
    <g clip-path="url(#p0f288a87c8)">
     <use xlink:href="#C2_0_2acdcd0e54" x="208.950792" y="161.044369" style="fill: #9a9a9a; fill-opacity: 0.45"/>
    </g>
    <g clip-path="url(#p0f288a87c8)">
     <use xlink:href="#C2_0_2acdcd0e54" x="196.123206" y="109.564369" style="fill: #9a9a9a; fill-opacity: 0.45"/>
    </g>
    <g clip-path="url(#p0f288a87c8)">
     <use xlink:href="#C2_0_2acdcd0e54" x="196.123206" y="202.228369" style="fill: #9a9a9a; fill-opacity: 0.45"/>
    </g>
    <g clip-path="url(#p0f288a87c8)">
     <use xlink:href="#C2_0_2acdcd0e54" x="183.29562" y="229.684369" style="fill: #9a9a9a; fill-opacity: 0.45"/>
    </g>
    <g clip-path="url(#p0f288a87c8)">
     <use xlink:href="#C2_0_2acdcd0e54" x="183.29562" y="210.465169" style="fill: #9a9a9a; fill-opacity: 0.45"/>
    </g>
    <g clip-path="url(#p0f288a87c8)">
     <use xlink:href="#C2_0_2acdcd0e54" x="183.29562" y="181.636369" style="fill: #9a9a9a; fill-opacity: 0.45"/>
    </g>
    <g clip-path="url(#p0f288a87c8)">
     <use xlink:href="#C2_0_2acdcd0e54" x="183.29562" y="133.588369" style="fill: #9a9a9a; fill-opacity: 0.45"/>
    </g>
    <g clip-path="url(#p0f288a87c8)">
     <use xlink:href="#C2_0_2acdcd0e54" x="183.29562" y="181.636369" style="fill: #9a9a9a; fill-opacity: 0.45"/>
    </g>
    <g clip-path="url(#p0f288a87c8)">
     <use xlink:href="#C2_0_2acdcd0e54" x="183.29562" y="253.708369" style="fill: #9a9a9a; fill-opacity: 0.45"/>
    </g>
    <g clip-path="url(#p0f288a87c8)">
     <use xlink:href="#C2_0_2acdcd0e54" x="170.468033" y="133.588369" style="fill: #9a9a9a; fill-opacity: 0.45"/>
    </g>
    <g clip-path="url(#p0f288a87c8)">
     <use xlink:href="#C2_0_2acdcd0e54" x="170.468033" y="119.860369" style="fill: #9a9a9a; fill-opacity: 0.45"/>
    </g>
    <g clip-path="url(#p0f288a87c8)">
     <use xlink:href="#C2_0_2acdcd0e54" x="170.468033" y="229.684369" style="fill: #9a9a9a; fill-opacity: 0.45"/>
    </g>
    <g clip-path="url(#p0f288a87c8)">
     <use xlink:href="#C2_0_2acdcd0e54" x="170.468033" y="229.684369" style="fill: #9a9a9a; fill-opacity: 0.45"/>
    </g>
    <g clip-path="url(#p0f288a87c8)">
     <use xlink:href="#C2_0_2acdcd0e54" x="170.468033" y="253.708369" style="fill: #9a9a9a; fill-opacity: 0.45"/>
    </g>
    <g clip-path="url(#p0f288a87c8)">
     <use xlink:href="#C2_0_2acdcd0e54" x="170.468033" y="325.780369" style="fill: #9a9a9a; fill-opacity: 0.45"/>
    </g>
    <g clip-path="url(#p0f288a87c8)">
     <use xlink:href="#C2_0_2acdcd0e54" x="157.640447" y="37.492369" style="fill: #9a9a9a; fill-opacity: 0.45"/>
    </g>
    <g clip-path="url(#p0f288a87c8)">
     <use xlink:href="#C2_0_2acdcd0e54" x="157.640447" y="95.149969" style="fill: #9a9a9a; fill-opacity: 0.45"/>
    </g>
    <g clip-path="url(#p0f288a87c8)">
     <use xlink:href="#C2_0_2acdcd0e54" x="157.640447" y="109.564369" style="fill: #9a9a9a; fill-opacity: 0.45"/>
    </g>
    <g clip-path="url(#p0f288a87c8)">
     <use xlink:href="#C2_0_2acdcd0e54" x="157.640447" y="229.684369" style="fill: #9a9a9a; fill-opacity: 0.45"/>
    </g>
    <g clip-path="url(#p0f288a87c8)">
     <use xlink:href="#C2_0_2acdcd0e54" x="157.640447" y="181.636369" style="fill: #9a9a9a; fill-opacity: 0.45"/>
    </g>
    <g clip-path="url(#p0f288a87c8)">
     <use xlink:href="#C2_0_2acdcd0e54" x="157.640447" y="133.588369" style="fill: #9a9a9a; fill-opacity: 0.45"/>
    </g>
    <g clip-path="url(#p0f288a87c8)">
     <use xlink:href="#C2_0_2acdcd0e54" x="157.640447" y="133.588369" style="fill: #9a9a9a; fill-opacity: 0.45"/>
    </g>
    <g clip-path="url(#p0f288a87c8)">
     <use xlink:href="#C2_0_2acdcd0e54" x="157.640447" y="229.684369" style="fill: #9a9a9a; fill-opacity: 0.45"/>
    </g>
    <g clip-path="url(#p0f288a87c8)">
     <use xlink:href="#C2_0_2acdcd0e54" x="144.812861" y="37.492369" style="fill: #9a9a9a; fill-opacity: 0.45"/>
    </g>
    <g clip-path="url(#p0f288a87c8)">
     <use xlink:href="#C2_0_2acdcd0e54" x="144.812861" y="152.807569" style="fill: #9a9a9a; fill-opacity: 0.45"/>
    </g>
    <g clip-path="url(#p0f288a87c8)">
     <use xlink:href="#C2_0_2acdcd0e54" x="144.812861" y="181.636369" style="fill: #9a9a9a; fill-opacity: 0.45"/>
    </g>
    <g clip-path="url(#p0f288a87c8)">
     <use xlink:href="#C2_0_2acdcd0e54" x="144.812861" y="109.564369" style="fill: #9a9a9a; fill-opacity: 0.45"/>
    </g>
    <g clip-path="url(#p0f288a87c8)">
     <use xlink:href="#C2_0_2acdcd0e54" x="144.812861" y="325.780369" style="fill: #9a9a9a; fill-opacity: 0.45"/>
    </g>
    <g clip-path="url(#p0f288a87c8)">
     <use xlink:href="#C2_0_2acdcd0e54" x="131.985275" y="37.492369" style="fill: #9a9a9a; fill-opacity: 0.45"/>
    </g>
    <g clip-path="url(#p0f288a87c8)">
     <use xlink:href="#C2_0_2acdcd0e54" x="131.985275" y="95.149969" style="fill: #9a9a9a; fill-opacity: 0.45"/>
    </g>
    <g clip-path="url(#p0f288a87c8)">
     <use xlink:href="#C2_0_2acdcd0e54" x="131.985275" y="133.588369" style="fill: #9a9a9a; fill-opacity: 0.45"/>
    </g>
    <g clip-path="url(#p0f288a87c8)">
     <use xlink:href="#C2_0_2acdcd0e54" x="131.985275" y="133.588369" style="fill: #9a9a9a; fill-opacity: 0.45"/>
    </g>
    <g clip-path="url(#p0f288a87c8)">
     <use xlink:href="#C2_0_2acdcd0e54" x="131.985275" y="181.636369" style="fill: #9a9a9a; fill-opacity: 0.45"/>
    </g>
    <g clip-path="url(#p0f288a87c8)">
     <use xlink:href="#C2_0_2acdcd0e54" x="131.985275" y="325.780369" style="fill: #9a9a9a; fill-opacity: 0.45"/>
    </g>
    <g clip-path="url(#p0f288a87c8)">
     <use xlink:href="#C2_0_2acdcd0e54" x="119.157689" y="133.588369" style="fill: #9a9a9a; fill-opacity: 0.45"/>
    </g>
    <g clip-path="url(#p0f288a87c8)">
     <use xlink:href="#C2_0_2acdcd0e54" x="119.157689" y="37.492369" style="fill: #9a9a9a; fill-opacity: 0.45"/>
    </g>
    <g clip-path="url(#p0f288a87c8)">
     <use xlink:href="#C2_0_2acdcd0e54" x="119.157689" y="181.636369" style="fill: #9a9a9a; fill-opacity: 0.45"/>
    </g>
    <g clip-path="url(#p0f288a87c8)">
     <use xlink:href="#C2_0_2acdcd0e54" x="119.157689" y="133.588369" style="fill: #9a9a9a; fill-opacity: 0.45"/>
    </g>
    <g clip-path="url(#p0f288a87c8)">
     <use xlink:href="#C2_0_2acdcd0e54" x="119.157689" y="210.465169" style="fill: #9a9a9a; fill-opacity: 0.45"/>
    </g>
    <g clip-path="url(#p0f288a87c8)">
     <use xlink:href="#C2_0_2acdcd0e54" x="119.157689" y="37.492369" style="fill: #9a9a9a; fill-opacity: 0.45"/>
    </g>
    <g clip-path="url(#p0f288a87c8)">
     <use xlink:href="#C2_0_2acdcd0e54" x="119.157689" y="229.684369" style="fill: #9a9a9a; fill-opacity: 0.45"/>
    </g>
    <g clip-path="url(#p0f288a87c8)">
     <use xlink:href="#C2_0_2acdcd0e54" x="119.157689" y="37.492369" style="fill: #9a9a9a; fill-opacity: 0.45"/>
    </g>
    <g clip-path="url(#p0f288a87c8)">
     <use xlink:href="#C2_0_2acdcd0e54" x="119.157689" y="325.780369" style="fill: #9a9a9a; fill-opacity: 0.45"/>
    </g>
    <g clip-path="url(#p0f288a87c8)">
     <use xlink:href="#C2_0_2acdcd0e54" x="119.157689" y="325.780369" style="fill: #9a9a9a; fill-opacity: 0.45"/>
    </g>
    <g clip-path="url(#p0f288a87c8)">
     <use xlink:href="#C2_0_2acdcd0e54" x="119.157689" y="325.780369" style="fill: #9a9a9a; fill-opacity: 0.45"/>
    </g>
    <g clip-path="url(#p0f288a87c8)">
     <use xlink:href="#C2_0_2acdcd0e54" x="119.157689" y="325.780369" style="fill: #9a9a9a; fill-opacity: 0.45"/>
    </g>
    <g clip-path="url(#p0f288a87c8)">
     <use xlink:href="#C2_0_2acdcd0e54" x="106.330102" y="210.465169" style="fill: #9a9a9a; fill-opacity: 0.45"/>
    </g>
    <g clip-path="url(#p0f288a87c8)">
     <use xlink:href="#C2_0_2acdcd0e54" x="106.330102" y="181.636369" style="fill: #9a9a9a; fill-opacity: 0.45"/>
    </g>
    <g clip-path="url(#p0f288a87c8)">
     <use xlink:href="#C2_0_2acdcd0e54" x="106.330102" y="325.780369" style="fill: #9a9a9a; fill-opacity: 0.45"/>
    </g>
    <g clip-path="url(#p0f288a87c8)">
     <use xlink:href="#C2_0_2acdcd0e54" x="106.330102" y="37.492369" style="fill: #9a9a9a; fill-opacity: 0.45"/>
    </g>
    <g clip-path="url(#p0f288a87c8)">
     <use xlink:href="#C2_0_2acdcd0e54" x="93.502516" y="37.492369" style="fill: #9a9a9a; fill-opacity: 0.45"/>
    </g>
    <g clip-path="url(#p0f288a87c8)">
     <use xlink:href="#C2_0_2acdcd0e54" x="93.502516" y="37.492369" style="fill: #9a9a9a; fill-opacity: 0.45"/>
    </g>
    <g clip-path="url(#p0f288a87c8)">
     <use xlink:href="#C2_0_2acdcd0e54" x="93.502516" y="37.492369" style="fill: #9a9a9a; fill-opacity: 0.45"/>
    </g>
    <g clip-path="url(#p0f288a87c8)">
     <use xlink:href="#C2_0_2acdcd0e54" x="93.502516" y="133.588369" style="fill: #9a9a9a; fill-opacity: 0.45"/>
    </g>
    <g clip-path="url(#p0f288a87c8)">
     <use xlink:href="#C2_0_2acdcd0e54" x="93.502516" y="37.492369" style="fill: #9a9a9a; fill-opacity: 0.45"/>
    </g>
    <g clip-path="url(#p0f288a87c8)">
     <use xlink:href="#C2_0_2acdcd0e54" x="93.502516" y="37.492369" style="fill: #9a9a9a; fill-opacity: 0.45"/>
    </g>
    <g clip-path="url(#p0f288a87c8)">
     <use xlink:href="#C2_0_2acdcd0e54" x="93.502516" y="37.492369" style="fill: #9a9a9a; fill-opacity: 0.45"/>
    </g>
    <g clip-path="url(#p0f288a87c8)">
     <use xlink:href="#C2_0_2acdcd0e54" x="93.502516" y="133.588369" style="fill: #9a9a9a; fill-opacity: 0.45"/>
    </g>
    <g clip-path="url(#p0f288a87c8)">
     <use xlink:href="#C2_0_2acdcd0e54" x="93.502516" y="181.636369" style="fill: #9a9a9a; fill-opacity: 0.45"/>
    </g>
    <g clip-path="url(#p0f288a87c8)">
     <use xlink:href="#C2_0_2acdcd0e54" x="93.502516" y="181.636369" style="fill: #9a9a9a; fill-opacity: 0.45"/>
    </g>
    <g clip-path="url(#p0f288a87c8)">
     <use xlink:href="#C2_0_2acdcd0e54" x="93.502516" y="181.636369" style="fill: #9a9a9a; fill-opacity: 0.45"/>
    </g>
    <g clip-path="url(#p0f288a87c8)">
     <use xlink:href="#C2_0_2acdcd0e54" x="93.502516" y="229.684369" style="fill: #9a9a9a; fill-opacity: 0.45"/>
    </g>
    <g clip-path="url(#p0f288a87c8)">
     <use xlink:href="#C2_0_2acdcd0e54" x="93.502516" y="181.636369" style="fill: #9a9a9a; fill-opacity: 0.45"/>
    </g>
    <g clip-path="url(#p0f288a87c8)">
     <use xlink:href="#C2_0_2acdcd0e54" x="93.502516" y="325.780369" style="fill: #9a9a9a; fill-opacity: 0.45"/>
    </g>
    <g clip-path="url(#p0f288a87c8)">
     <use xlink:href="#C2_0_2acdcd0e54" x="80.67493" y="37.492369" style="fill: #9a9a9a; fill-opacity: 0.45"/>
    </g>
    <g clip-path="url(#p0f288a87c8)">
     <use xlink:href="#C2_0_2acdcd0e54" x="80.67493" y="37.492369" style="fill: #9a9a9a; fill-opacity: 0.45"/>
    </g>
    <g clip-path="url(#p0f288a87c8)">
     <use xlink:href="#C2_0_2acdcd0e54" x="80.67493" y="37.492369" style="fill: #9a9a9a; fill-opacity: 0.45"/>
    </g>
    <g clip-path="url(#p0f288a87c8)">
     <use xlink:href="#C2_0_2acdcd0e54" x="80.67493" y="37.492369" style="fill: #9a9a9a; fill-opacity: 0.45"/>
    </g>
    <g clip-path="url(#p0f288a87c8)">
     <use xlink:href="#C2_0_2acdcd0e54" x="80.67493" y="325.780369" style="fill: #9a9a9a; fill-opacity: 0.45"/>
    </g>
    <g clip-path="url(#p0f288a87c8)">
     <use xlink:href="#C2_0_2acdcd0e54" x="80.67493" y="325.780369" style="fill: #9a9a9a; fill-opacity: 0.45"/>
    </g>
    <g clip-path="url(#p0f288a87c8)">
     <use xlink:href="#C2_0_2acdcd0e54" x="67.847344" y="133.588369" style="fill: #9a9a9a; fill-opacity: 0.45"/>
    </g>
    <g clip-path="url(#p0f288a87c8)">
     <use xlink:href="#C2_0_2acdcd0e54" x="67.847344" y="37.492369" style="fill: #9a9a9a; fill-opacity: 0.45"/>
    </g>
   </g>
   <g id="text_17">
    <!-- ACC189 -->
    <g style="fill: #2f3437" transform="translate(457.67493 256.156603) scale(0.075 -0.075)">
     <defs>
      <path id="DejaVuSans-41" d="M 2188 4044
L 1331 1722
L 3047 1722
L 2188 4044
z
M 1831 4666
L 2547 4666
L 4325 0
L 3669 0
L 3244 1197
L 1141 1197
L 716 0
L 50 0
L 1831 4666
z
" transform="scale(0.015625)"/>
      <path id="DejaVuSans-43" d="M 4122 4306
L 4122 3641
Q 3803 3938 3442 4084
Q 3081 4231 2675 4231
Q 1875 4231 1450 3742
Q 1025 3253 1025 2328
Q 1025 1406 1450 917
Q 1875 428 2675 428
Q 3081 428 3442 575
Q 3803 722 4122 1019
L 4122 359
Q 3791 134 3420 21
Q 3050 -91 2638 -91
Q 1578 -91 968 557
Q 359 1206 359 2328
Q 359 3453 968 4101
Q 1578 4750 2638 4750
Q 3056 4750 3426 4639
Q 3797 4528 4122 4306
z
" transform="scale(0.015625)"/>
      <path id="DejaVuSans-39" d="M 703 97
L 703 672
Q 941 559 1184 500
Q 1428 441 1663 441
Q 2288 441 2617 861
Q 2947 1281 2994 2138
Q 2813 1869 2534 1725
Q 2256 1581 1919 1581
Q 1219 1581 811 2004
Q 403 2428 403 3163
Q 403 3881 828 4315
Q 1253 4750 1959 4750
Q 2769 4750 3195 4129
Q 3622 3509 3622 2328
Q 3622 1225 3098 567
Q 2575 -91 1691 -91
Q 1453 -91 1209 -44
Q 966 3 703 97
z
M 1959 2075
Q 2384 2075 2632 2365
Q 2881 2656 2881 3163
Q 2881 3666 2632 3958
Q 2384 4250 1959 4250
Q 1534 4250 1286 3958
Q 1038 3666 1038 3163
Q 1038 2656 1286 2365
Q 1534 2075 1959 2075
z
" transform="scale(0.015625)"/>
     </defs>
     <use xlink:href="#DejaVuSans-41"/>
     <use xlink:href="#DejaVuSans-43" transform="translate(66.658203 0)"/>
     <use xlink:href="#DejaVuSans-43" transform="translate(136.482422 0)"/>
     <use xlink:href="#DejaVuSans-31" transform="translate(206.306641 0)"/>
     <use xlink:href="#DejaVuSans-38" transform="translate(269.929688 0)"/>
     <use xlink:href="#DejaVuSans-39" transform="translate(333.552734 0)"/>
    </g>
   </g>
   <g id="text_18">
    <!-- ACC155 -->
    <g style="fill: #2f3437" transform="translate(444.847344 204.905403) scale(0.075 -0.075)">
     <use xlink:href="#DejaVuSans-41"/>
     <use xlink:href="#DejaVuSans-43" transform="translate(66.658203 0)"/>
     <use xlink:href="#DejaVuSans-43" transform="translate(136.482422 0)"/>
     <use xlink:href="#DejaVuSans-31" transform="translate(206.306641 0)"/>
     <use xlink:href="#DejaVuSans-35" transform="translate(269.929688 0)"/>
     <use xlink:href="#DejaVuSans-35" transform="translate(333.552734 0)"/>
    </g>
   </g>
   <g id="text_19">
    <!-- ACC056 -->
    <g style="fill: #2f3437" transform="translate(329.399068 204.905403) scale(0.075 -0.075)">
     <use xlink:href="#DejaVuSans-41"/>
     <use xlink:href="#DejaVuSans-43" transform="translate(66.658203 0)"/>
     <use xlink:href="#DejaVuSans-43" transform="translate(136.482422 0)"/>
     <use xlink:href="#DejaVuSans-30" transform="translate(206.306641 0)"/>
     <use xlink:href="#DejaVuSans-35" transform="translate(269.929688 0)"/>
     <use xlink:href="#DejaVuSans-36" transform="translate(333.552734 0)"/>
    </g>
   </g>
   <g id="text_20">
    <!-- ACC224 -->
    <g style="fill: #2f3437" transform="translate(303.743895 176.076603) scale(0.075 -0.075)">
     <use xlink:href="#DejaVuSans-41"/>
     <use xlink:href="#DejaVuSans-43" transform="translate(66.658203 0)"/>
     <use xlink:href="#DejaVuSans-43" transform="translate(136.482422 0)"/>
     <use xlink:href="#DejaVuSans-32" transform="translate(206.306641 0)"/>
     <use xlink:href="#DejaVuSans-32" transform="translate(269.929688 0)"/>
     <use xlink:href="#DejaVuSans-34" transform="translate(333.552734 0)"/>
    </g>
   </g>
   <g id="text_21">
    <!-- ACC005 -->
    <g style="fill: #2f3437" transform="translate(290.916309 237.852603) scale(0.075 -0.075)">
     <use xlink:href="#DejaVuSans-41"/>
     <use xlink:href="#DejaVuSans-43" transform="translate(66.658203 0)"/>
     <use xlink:href="#DejaVuSans-43" transform="translate(136.482422 0)"/>
     <use xlink:href="#DejaVuSans-30" transform="translate(206.306641 0)"/>
     <use xlink:href="#DejaVuSans-30" transform="translate(269.929688 0)"/>
     <use xlink:href="#DejaVuSans-35" transform="translate(333.552734 0)"/>
    </g>
   </g>
   <g id="text_22">
    <!-- ACC190 -->
    <g style="fill: #2f3437" transform="translate(252.433551 176.076603) scale(0.075 -0.075)">
     <use xlink:href="#DejaVuSans-41"/>
     <use xlink:href="#DejaVuSans-43" transform="translate(66.658203 0)"/>
     <use xlink:href="#DejaVuSans-43" transform="translate(136.482422 0)"/>
     <use xlink:href="#DejaVuSans-31" transform="translate(206.306641 0)"/>
     <use xlink:href="#DejaVuSans-39" transform="translate(269.929688 0)"/>
     <use xlink:href="#DejaVuSans-30" transform="translate(333.552734 0)"/>
    </g>
   </g>
   <g id="text_23">
    <!-- ACC109 -->
    <g style="fill: #2f3437" transform="translate(213.950792 176.076603) scale(0.075 -0.075)">
     <use xlink:href="#DejaVuSans-41"/>
     <use xlink:href="#DejaVuSans-43" transform="translate(66.658203 0)"/>
     <use xlink:href="#DejaVuSans-43" transform="translate(136.482422 0)"/>
     <use xlink:href="#DejaVuSans-31" transform="translate(206.306641 0)"/>
     <use xlink:href="#DejaVuSans-30" transform="translate(269.929688 0)"/>
     <use xlink:href="#DejaVuSans-39" transform="translate(333.552734 0)"/>
    </g>
   </g>
   <g id="text_24">
    <!-- ACC124 -->
    <g style="fill: #2f3437" transform="translate(201.123206 176.076603) scale(0.075 -0.075)">
     <use xlink:href="#DejaVuSans-41"/>
     <use xlink:href="#DejaVuSans-43" transform="translate(66.658203 0)"/>
     <use xlink:href="#DejaVuSans-43" transform="translate(136.482422 0)"/>
     <use xlink:href="#DejaVuSans-31" transform="translate(206.306641 0)"/>
     <use xlink:href="#DejaVuSans-32" transform="translate(269.929688 0)"/>
     <use xlink:href="#DejaVuSans-34" transform="translate(333.552734 0)"/>
    </g>
   </g>
   <g id="text_25">
    <!-- ACC034 -->
    <g style="fill: #2f3437" transform="translate(188.29562 147.247803) scale(0.075 -0.075)">
     <use xlink:href="#DejaVuSans-41"/>
     <use xlink:href="#DejaVuSans-43" transform="translate(66.658203 0)"/>
     <use xlink:href="#DejaVuSans-43" transform="translate(136.482422 0)"/>
     <use xlink:href="#DejaVuSans-30" transform="translate(206.306641 0)"/>
     <use xlink:href="#DejaVuSans-33" transform="translate(269.929688 0)"/>
     <use xlink:href="#DejaVuSans-34" transform="translate(333.552734 0)"/>
    </g>
   </g>
   <g id="text_26">
    <!-- Account Actions After Evidence and Operational Gates -->
    <g transform="translate(91.297266 17.077969) scale(0.13 -0.13)">
     <defs>
      <path id="DejaVuSans-Bold-41" d="M 3419 850
L 1538 850
L 1241 0
L 31 0
L 1759 4666
L 3194 4666
L 4922 0
L 3713 0
L 3419 850
z
M 1838 1716
L 3116 1716
L 2478 3572
L 1838 1716
z
" transform="scale(0.015625)"/>
      <path id="DejaVuSans-Bold-63" d="M 3366 3391
L 3366 2478
Q 3138 2634 2908 2709
Q 2678 2784 2431 2784
Q 1963 2784 1702 2511
Q 1441 2238 1441 1747
Q 1441 1256 1702 982
Q 1963 709 2431 709
Q 2694 709 2930 787
Q 3166 866 3366 1019
L 3366 103
Q 3103 6 2833 -42
Q 2563 -91 2291 -91
Q 1344 -91 809 395
Q 275 881 275 1747
Q 275 2613 809 3098
Q 1344 3584 2291 3584
Q 2566 3584 2833 3536
Q 3100 3488 3366 3391
z
" transform="scale(0.015625)"/>
      <path id="DejaVuSans-Bold-6f" d="M 2203 2784
Q 1831 2784 1636 2517
Q 1441 2250 1441 1747
Q 1441 1244 1636 976
Q 1831 709 2203 709
Q 2569 709 2762 976
Q 2956 1244 2956 1747
Q 2956 2250 2762 2517
Q 2569 2784 2203 2784
z
M 2203 3584
Q 3106 3584 3614 3096
Q 4122 2609 4122 1747
Q 4122 884 3614 396
Q 3106 -91 2203 -91
Q 1297 -91 786 396
Q 275 884 275 1747
Q 275 2609 786 3096
Q 1297 3584 2203 3584
z
" transform="scale(0.015625)"/>
      <path id="DejaVuSans-Bold-75" d="M 500 1363
L 500 3500
L 1625 3500
L 1625 3150
Q 1625 2866 1622 2436
Q 1619 2006 1619 1863
Q 1619 1441 1641 1255
Q 1663 1069 1716 984
Q 1784 875 1895 815
Q 2006 756 2150 756
Q 2500 756 2700 1025
Q 2900 1294 2900 1772
L 2900 3500
L 4019 3500
L 4019 0
L 2900 0
L 2900 506
Q 2647 200 2364 54
Q 2081 -91 1741 -91
Q 1134 -91 817 281
Q 500 653 500 1363
z
" transform="scale(0.015625)"/>
      <path id="DejaVuSans-Bold-6e" d="M 4056 2131
L 4056 0
L 2931 0
L 2931 347
L 2931 1631
Q 2931 2084 2911 2256
Q 2891 2428 2841 2509
Q 2775 2619 2662 2680
Q 2550 2741 2406 2741
Q 2056 2741 1856 2470
Q 1656 2200 1656 1722
L 1656 0
L 538 0
L 538 3500
L 1656 3500
L 1656 2988
Q 1909 3294 2193 3439
Q 2478 3584 2822 3584
Q 3428 3584 3742 3212
Q 4056 2841 4056 2131
z
" transform="scale(0.015625)"/>
      <path id="DejaVuSans-Bold-74" d="M 1759 4494
L 1759 3500
L 2913 3500
L 2913 2700
L 1759 2700
L 1759 1216
Q 1759 972 1856 886
Q 1953 800 2241 800
L 2816 800
L 2816 0
L 1856 0
Q 1194 0 917 276
Q 641 553 641 1216
L 641 2700
L 84 2700
L 84 3500
L 641 3500
L 641 4494
L 1759 4494
z
" transform="scale(0.015625)"/>
      <path id="DejaVuSans-Bold-20" transform="scale(0.015625)"/>
      <path id="DejaVuSans-Bold-69" d="M 538 3500
L 1656 3500
L 1656 0
L 538 0
L 538 3500
z
M 538 4863
L 1656 4863
L 1656 3950
L 538 3950
L 538 4863
z
" transform="scale(0.015625)"/>
      <path id="DejaVuSans-Bold-73" d="M 3272 3391
L 3272 2541
Q 2913 2691 2578 2766
Q 2244 2841 1947 2841
Q 1628 2841 1473 2761
Q 1319 2681 1319 2516
Q 1319 2381 1436 2309
Q 1553 2238 1856 2203
L 2053 2175
Q 2913 2066 3209 1816
Q 3506 1566 3506 1031
Q 3506 472 3093 190
Q 2681 -91 1863 -91
Q 1516 -91 1145 -36
Q 775 19 384 128
L 384 978
Q 719 816 1070 734
Q 1422 653 1784 653
Q 2113 653 2278 743
Q 2444 834 2444 1013
Q 2444 1163 2330 1236
Q 2216 1309 1875 1350
L 1678 1375
Q 931 1469 631 1722
Q 331 1975 331 2491
Q 331 3047 712 3315
Q 1094 3584 1881 3584
Q 2191 3584 2531 3537
Q 2872 3491 3272 3391
z
" transform="scale(0.015625)"/>
      <path id="DejaVuSans-Bold-66" d="M 2841 4863
L 2841 4128
L 2222 4128
Q 1984 4128 1890 4042
Q 1797 3956 1797 3744
L 1797 3500
L 2753 3500
L 2753 2700
L 1797 2700
L 1797 0
L 678 0
L 678 2700
L 122 2700
L 122 3500
L 678 3500
L 678 3744
Q 678 4316 997 4589
Q 1316 4863 1984 4863
L 2841 4863
z
" transform="scale(0.015625)"/>
      <path id="DejaVuSans-Bold-65" d="M 4031 1759
L 4031 1441
L 1416 1441
Q 1456 1047 1700 850
Q 1944 653 2381 653
Q 2734 653 3104 758
Q 3475 863 3866 1075
L 3866 213
Q 3469 63 3072 -14
Q 2675 -91 2278 -91
Q 1328 -91 801 392
Q 275 875 275 1747
Q 275 2603 792 3093
Q 1309 3584 2216 3584
Q 3041 3584 3536 3087
Q 4031 2591 4031 1759
z
M 2881 2131
Q 2881 2450 2695 2645
Q 2509 2841 2209 2841
Q 1884 2841 1681 2658
Q 1478 2475 1428 2131
L 2881 2131
z
" transform="scale(0.015625)"/>
      <path id="DejaVuSans-Bold-72" d="M 3138 2547
Q 2991 2616 2845 2648
Q 2700 2681 2553 2681
Q 2122 2681 1889 2404
Q 1656 2128 1656 1613
L 1656 0
L 538 0
L 538 3500
L 1656 3500
L 1656 2925
Q 1872 3269 2151 3426
Q 2431 3584 2822 3584
Q 2878 3584 2943 3579
Q 3009 3575 3134 3559
L 3138 2547
z
" transform="scale(0.015625)"/>
      <path id="DejaVuSans-Bold-45" d="M 588 4666
L 3834 4666
L 3834 3756
L 1791 3756
L 1791 2888
L 3713 2888
L 3713 1978
L 1791 1978
L 1791 909
L 3903 909
L 3903 0
L 588 0
L 588 4666
z
" transform="scale(0.015625)"/>
      <path id="DejaVuSans-Bold-76" d="M 97 3500
L 1216 3500
L 2088 1081
L 2956 3500
L 4078 3500
L 2700 0
L 1472 0
L 97 3500
z
" transform="scale(0.015625)"/>
      <path id="DejaVuSans-Bold-64" d="M 2919 2988
L 2919 4863
L 4044 4863
L 4044 0
L 2919 0
L 2919 506
Q 2688 197 2409 53
Q 2131 -91 1766 -91
Q 1119 -91 703 423
Q 288 938 288 1747
Q 288 2556 703 3070
Q 1119 3584 1766 3584
Q 2128 3584 2408 3439
Q 2688 3294 2919 2988
z
M 2181 722
Q 2541 722 2730 984
Q 2919 1247 2919 1747
Q 2919 2247 2730 2509
Q 2541 2772 2181 2772
Q 1825 2772 1636 2509
Q 1447 2247 1447 1747
Q 1447 1247 1636 984
Q 1825 722 2181 722
z
" transform="scale(0.015625)"/>
      <path id="DejaVuSans-Bold-61" d="M 2106 1575
Q 1756 1575 1579 1456
Q 1403 1338 1403 1106
Q 1403 894 1545 773
Q 1688 653 1941 653
Q 2256 653 2472 879
Q 2688 1106 2688 1447
L 2688 1575
L 2106 1575
z
M 3816 1997
L 3816 0
L 2688 0
L 2688 519
Q 2463 200 2181 54
Q 1900 -91 1497 -91
Q 953 -91 614 226
Q 275 544 275 1050
Q 275 1666 698 1953
Q 1122 2241 2028 2241
L 2688 2241
L 2688 2328
Q 2688 2594 2478 2717
Q 2269 2841 1825 2841
Q 1466 2841 1156 2769
Q 847 2697 581 2553
L 581 3406
Q 941 3494 1303 3539
Q 1666 3584 2028 3584
Q 2975 3584 3395 3211
Q 3816 2838 3816 1997
z
" transform="scale(0.015625)"/>
      <path id="DejaVuSans-Bold-4f" d="M 2719 3878
Q 2169 3878 1866 3472
Q 1563 3066 1563 2328
Q 1563 1594 1866 1187
Q 2169 781 2719 781
Q 3272 781 3575 1187
Q 3878 1594 3878 2328
Q 3878 3066 3575 3472
Q 3272 3878 2719 3878
z
M 2719 4750
Q 3844 4750 4481 4106
Q 5119 3463 5119 2328
Q 5119 1197 4481 553
Q 3844 -91 2719 -91
Q 1597 -91 958 553
Q 319 1197 319 2328
Q 319 3463 958 4106
Q 1597 4750 2719 4750
z
" transform="scale(0.015625)"/>
      <path id="DejaVuSans-Bold-70" d="M 1656 506
L 1656 -1331
L 538 -1331
L 538 3500
L 1656 3500
L 1656 2988
Q 1888 3294 2169 3439
Q 2450 3584 2816 3584
Q 3463 3584 3878 3070
Q 4294 2556 4294 1747
Q 4294 938 3878 423
Q 3463 -91 2816 -91
Q 2450 -91 2169 54
Q 1888 200 1656 506
z
M 2400 2772
Q 2041 2772 1848 2508
Q 1656 2244 1656 1747
Q 1656 1250 1848 986
Q 2041 722 2400 722
Q 2759 722 2948 984
Q 3138 1247 3138 1747
Q 3138 2247 2948 2509
Q 2759 2772 2400 2772
z
" transform="scale(0.015625)"/>
      <path id="DejaVuSans-Bold-6c" d="M 538 4863
L 1656 4863
L 1656 0
L 538 0
L 538 4863
z
" transform="scale(0.015625)"/>
      <path id="DejaVuSans-Bold-47" d="M 4781 347
Q 4331 128 3847 18
Q 3363 -91 2847 -91
Q 1681 -91 1000 561
Q 319 1213 319 2328
Q 319 3456 1012 4103
Q 1706 4750 2913 4750
Q 3378 4750 3804 4662
Q 4231 4575 4609 4403
L 4609 3438
Q 4219 3659 3833 3768
Q 3447 3878 3059 3878
Q 2341 3878 1952 3476
Q 1563 3075 1563 2328
Q 1563 1588 1938 1184
Q 2313 781 3003 781
Q 3191 781 3352 804
Q 3513 828 3641 878
L 3641 1784
L 2906 1784
L 2906 2591
L 4781 2591
L 4781 347
z
" transform="scale(0.015625)"/>
     </defs>
     <use xlink:href="#DejaVuSans-Bold-41"/>
     <use xlink:href="#DejaVuSans-Bold-63" transform="translate(77.392578 0)"/>
     <use xlink:href="#DejaVuSans-Bold-63" transform="translate(136.669922 0)"/>
     <use xlink:href="#DejaVuSans-Bold-6f" transform="translate(195.947266 0)"/>
     <use xlink:href="#DejaVuSans-Bold-75" transform="translate(264.648438 0)"/>
     <use xlink:href="#DejaVuSans-Bold-6e" transform="translate(335.839844 0)"/>
     <use xlink:href="#DejaVuSans-Bold-74" transform="translate(407.03125 0)"/>
     <use xlink:href="#DejaVuSans-Bold-20" transform="translate(454.833984 0)"/>
     <use xlink:href="#DejaVuSans-Bold-41" transform="translate(489.648438 0)"/>
     <use xlink:href="#DejaVuSans-Bold-63" transform="translate(567.041016 0)"/>
     <use xlink:href="#DejaVuSans-Bold-74" transform="translate(626.318359 0)"/>
     <use xlink:href="#DejaVuSans-Bold-69" transform="translate(674.121094 0)"/>
     <use xlink:href="#DejaVuSans-Bold-6f" transform="translate(708.398438 0)"/>
     <use xlink:href="#DejaVuSans-Bold-6e" transform="translate(777.099609 0)"/>
     <use xlink:href="#DejaVuSans-Bold-73" transform="translate(848.291016 0)"/>
     <use xlink:href="#DejaVuSans-Bold-20" transform="translate(907.8125 0)"/>
     <use xlink:href="#DejaVuSans-Bold-41" transform="translate(942.626953 0)"/>
     <use xlink:href="#DejaVuSans-Bold-66" transform="translate(1020.019531 0)"/>
     <use xlink:href="#DejaVuSans-Bold-74" transform="translate(1063.525391 0)"/>
     <use xlink:href="#DejaVuSans-Bold-65" transform="translate(1111.328125 0)"/>
     <use xlink:href="#DejaVuSans-Bold-72" transform="translate(1179.150391 0)"/>
     <use xlink:href="#DejaVuSans-Bold-20" transform="translate(1228.466797 0)"/>
     <use xlink:href="#DejaVuSans-Bold-45" transform="translate(1263.28125 0)"/>
     <use xlink:href="#DejaVuSans-Bold-76" transform="translate(1331.591797 0)"/>
     <use xlink:href="#DejaVuSans-Bold-69" transform="translate(1396.777344 0)"/>
     <use xlink:href="#DejaVuSans-Bold-64" transform="translate(1431.054688 0)"/>
     <use xlink:href="#DejaVuSans-Bold-65" transform="translate(1502.636719 0)"/>
     <use xlink:href="#DejaVuSans-Bold-6e" transform="translate(1570.458984 0)"/>
     <use xlink:href="#DejaVuSans-Bold-63" transform="translate(1641.650391 0)"/>
     <use xlink:href="#DejaVuSans-Bold-65" transform="translate(1700.927734 0)"/>
     <use xlink:href="#DejaVuSans-Bold-20" transform="translate(1768.75 0)"/>
     <use xlink:href="#DejaVuSans-Bold-61" transform="translate(1803.564453 0)"/>
     <use xlink:href="#DejaVuSans-Bold-6e" transform="translate(1871.044922 0)"/>
     <use xlink:href="#DejaVuSans-Bold-64" transform="translate(1942.236328 0)"/>
     <use xlink:href="#DejaVuSans-Bold-20" transform="translate(2013.818359 0)"/>
     <use xlink:href="#DejaVuSans-Bold-4f" transform="translate(2048.632812 0)"/>
     <use xlink:href="#DejaVuSans-Bold-70" transform="translate(2133.642578 0)"/>
     <use xlink:href="#DejaVuSans-Bold-65" transform="translate(2205.224609 0)"/>
     <use xlink:href="#DejaVuSans-Bold-72" transform="translate(2273.046875 0)"/>
     <use xlink:href="#DejaVuSans-Bold-61" transform="translate(2322.363281 0)"/>
     <use xlink:href="#DejaVuSans-Bold-74" transform="translate(2389.84375 0)"/>
     <use xlink:href="#DejaVuSans-Bold-69" transform="translate(2437.646484 0)"/>
     <use xlink:href="#DejaVuSans-Bold-6f" transform="translate(2471.923828 0)"/>
     <use xlink:href="#DejaVuSans-Bold-6e" transform="translate(2540.625 0)"/>
     <use xlink:href="#DejaVuSans-Bold-61" transform="translate(2611.816406 0)"/>
     <use xlink:href="#DejaVuSans-Bold-6c" transform="translate(2679.296875 0)"/>
     <use xlink:href="#DejaVuSans-Bold-20" transform="translate(2713.574219 0)"/>
     <use xlink:href="#DejaVuSans-Bold-47" transform="translate(2748.388672 0)"/>
     <use xlink:href="#DejaVuSans-Bold-61" transform="translate(2830.46875 0)"/>
     <use xlink:href="#DejaVuSans-Bold-74" transform="translate(2897.949219 0)"/>
     <use xlink:href="#DejaVuSans-Bold-65" transform="translate(2945.751953 0)"/>
     <use xlink:href="#DejaVuSans-Bold-73" transform="translate(3013.574219 0)"/>
    </g>
   </g>
   <g id="PathCollection_5">
    <path d="M 452.67493 272.132702
C 455.437374 272.132702 458.087047 271.035171 460.04039 269.081829
C 461.993733 267.128486 463.091263 264.478813 463.091263 261.716369
C 463.091263 258.953925 461.993733 256.304252 460.04039 254.350909
C 458.087047 252.397566 455.437374 251.300035 452.67493 251.300035
C 449.912486 251.300035 447.262813 252.397566 445.30947 254.350909
C 443.356127 256.304252 442.258597 258.953925 442.258597 261.716369
C 442.258597 264.478813 443.356127 267.128486 445.30947 269.081829
C 447.262813 271.035171 449.912486 272.132702 452.67493 272.132702
z
" clip-path="url(#p0f288a87c8)" style="fill: #7fb685; fill-opacity: 0.92; stroke: #2f3437; stroke-opacity: 0.92; stroke-width: 0.8"/>
    <path d="M 439.847344 221.095315
C 442.666491 221.095315 445.370554 219.975255 447.363992 217.981817
C 449.35743 215.988379 450.47749 213.284316 450.47749 210.465169
C 450.47749 207.646021 449.35743 204.941959 447.363992 202.948521
C 445.370554 200.955082 442.666491 199.835023 439.847344 199.835023
C 437.028196 199.835023 434.324134 200.955082 432.330696 202.948521
C 430.337257 204.941959 429.217198 207.646021 429.217198 210.465169
C 429.217198 213.284316 430.337257 215.988379 432.330696 217.981817
C 434.324134 219.975255 437.028196 221.095315 439.847344 221.095315
z
" clip-path="url(#p0f288a87c8)" style="fill: #7fb685; fill-opacity: 0.92; stroke: #2f3437; stroke-opacity: 0.92; stroke-width: 0.8"/>
    <path d="M 324.399068 219.738787
C 326.85846 219.738787 329.217453 218.76166 330.956506 217.022607
C 332.695559 215.283554 333.672686 212.924561 333.672686 210.465169
C 333.672686 208.005776 332.695559 205.646783 330.956506 203.90773
C 329.217453 202.168677 326.85846 201.19155 324.399068 201.19155
C 321.939676 201.19155 319.580682 202.168677 317.841629 203.90773
C 316.102576 205.646783 315.125449 208.005776 315.125449 210.465169
C 315.125449 212.924561 316.102576 215.283554 317.841629 217.022607
C 319.580682 218.76166 321.939676 219.738787 324.399068 219.738787
z
" clip-path="url(#p0f288a87c8)" style="fill: #7fb685; fill-opacity: 0.92; stroke: #2f3437; stroke-opacity: 0.92; stroke-width: 0.8"/>
    <path d="M 298.743895 191.030516
C 301.235252 191.030516 303.624905 190.040689 305.386561 188.279034
C 307.148216 186.517378 308.138043 184.127726 308.138043 181.636369
C 308.138043 179.145012 307.148216 176.755359 305.386561 174.993704
C 303.624905 173.232048 301.235252 172.242222 298.743895 172.242222
C 296.252539 172.242222 293.862886 173.232048 292.10123 174.993704
C 290.339575 176.755359 289.349748 179.145012 289.349748 181.636369
C 289.349748 184.127726 290.339575 186.517378 292.10123 188.279034
C 293.862886 190.040689 296.252539 191.030516 298.743895 191.030516
z
" clip-path="url(#p0f288a87c8)" style="fill: #7fb685; fill-opacity: 0.92; stroke: #2f3437; stroke-opacity: 0.92; stroke-width: 0.8"/>
    <path d="M 285.916309 252.440104
C 288.310493 252.440104 290.606939 251.488885 292.299882 249.795941
C 293.992825 248.102998 294.944044 245.806552 294.944044 243.412369
C 294.944044 241.018185 293.992825 238.721739 292.299882 237.028796
C 290.606939 235.335853 288.310493 234.384634 285.916309 234.384634
C 283.522126 234.384634 281.22568 235.335853 279.532737 237.028796
C 277.839793 238.721739 276.888574 241.018185 276.888574 243.412369
C 276.888574 245.806552 277.839793 248.102998 279.532737 249.795941
C 281.22568 251.488885 283.522126 252.440104 285.916309 252.440104
z
" clip-path="url(#p0f288a87c8)" style="fill: #7fb685; fill-opacity: 0.92; stroke: #2f3437; stroke-opacity: 0.92; stroke-width: 0.8"/>
    <path d="M 247.433551 190.538616
C 249.794454 190.538616 252.058979 189.600619 253.72839 187.931208
C 255.397801 186.261797 256.335798 183.997272 256.335798 181.636369
C 256.335798 179.275465 255.397801 177.01094 253.72839 175.34153
C 252.058979 173.672119 249.794454 172.734122 247.433551 172.734122
C 245.072647 172.734122 242.808122 173.672119 241.138711 175.34153
C 239.469301 177.01094 238.531304 179.275465 238.531304 181.636369
C 238.531304 183.997272 239.469301 186.261797 241.138711 187.931208
C 242.808122 189.600619 245.072647 190.538616 247.433551 190.538616
z
" clip-path="url(#p0f288a87c8)" style="fill: #7fb685; fill-opacity: 0.92; stroke: #2f3437; stroke-opacity: 0.92; stroke-width: 0.8"/>
    <path d="M 208.950792 190.151062
C 211.208915 190.151062 213.374855 189.2539 214.971589 187.657166
C 216.568323 186.060432 217.465485 183.894492 217.465485 181.636369
C 217.465485 179.378246 216.568323 177.212306 214.971589 175.615571
C 213.374855 174.018837 211.208915 173.121676 208.950792 173.121676
C 206.692669 173.121676 204.526729 174.018837 202.929995 175.615571
C 201.333261 177.212306 200.436099 179.378246 200.436099 181.636369
C 200.436099 183.894492 201.333261 186.060432 202.929995 187.657166
C 204.526729 189.2539 206.692669 190.151062 208.950792 190.151062
z
" clip-path="url(#p0f288a87c8)" style="fill: #7fb685; fill-opacity: 0.92; stroke: #2f3437; stroke-opacity: 0.92; stroke-width: 0.8"/>
    <path d="M 196.123206 189.745006
C 198.273642 189.745006 200.336291 188.890629 201.856878 187.370041
C 203.377466 185.849454 204.231843 183.786805 204.231843 181.636369
C 204.231843 179.485933 203.377466 177.423284 201.856878 175.902696
C 200.336291 174.382109 198.273642 173.527731 196.123206 173.527731
C 193.97277 173.527731 191.910121 174.382109 190.389533 175.902696
C 188.868946 177.423284 188.014568 179.485933 188.014568 181.636369
C 188.014568 183.786805 188.868946 185.849454 190.389533 187.370041
C 191.910121 188.890629 193.97277 189.745006 196.123206 189.745006
z
" clip-path="url(#p0f288a87c8)" style="fill: #7fb685; fill-opacity: 0.92; stroke: #2f3437; stroke-opacity: 0.92; stroke-width: 0.8"/>
    <path d="M 183.29562 160.916206
C 185.446055 160.916206 187.508704 160.061829 189.029292 158.541241
C 190.54988 157.020654 191.404257 154.958005 191.404257 152.807569
C 191.404257 150.657133 190.54988 148.594484 189.029292 147.073896
C 187.508704 145.553309 185.446055 144.698931 183.29562 144.698931
C 181.145184 144.698931 179.082535 145.553309 177.561947 147.073896
C 176.041359 148.594484 175.186982 150.657133 175.186982 152.807569
C 175.186982 154.958005 176.041359 157.020654 177.561947 158.541241
C 179.082535 160.061829 181.145184 160.916206 183.29562 160.916206
z
" clip-path="url(#p0f288a87c8)" style="fill: #7fb685; fill-opacity: 0.92; stroke: #2f3437; stroke-opacity: 0.92; stroke-width: 0.8"/>
   </g>
   <g id="legend_1">
    <g id="PathCollection_6">
     <defs>
      <path id="m1f3478fe00" d="M 0 18.90767
C 5.014373 18.90767 9.824045 16.915439 13.369742 13.369742
C 16.915439 9.824045 18.90767 5.014373 18.90767 0
C 18.90767 -5.014373 16.915439 -9.824045 13.369742 -13.369742
C 9.824045 -16.915439 5.014373 -18.90767 0 -18.90767
C -5.014373 -18.90767 -9.824045 -16.915439 -13.369742 -13.369742
C -16.915439 -9.824045 -18.90767 -5.014373 -18.90767 0
C -18.90767 5.014373 -16.915439 9.824045 -13.369742 13.369742
C -9.824045 16.915439 -5.014373 18.90767 0 18.90767
z
" style="stroke: #2f3437; stroke-opacity: 0.92; stroke-width: 0.8"/>
     </defs>
     <g>
      <use xlink:href="#m1f3478fe00" x="444.275938" y="34.955391" style="fill: #7fb685; fill-opacity: 0.92; stroke: #2f3437; stroke-opacity: 0.92; stroke-width: 0.8"/>
     </g>
    </g>
    <g id="text_27">
     <!-- Increase priority -->
     <g transform="translate(459.575938 37.186641) scale(0.085 -0.085)">
      <defs>
       <path id="DejaVuSans-49" d="M 628 4666
L 1259 4666
L 1259 0
L 628 0
L 628 4666
z
" transform="scale(0.015625)"/>
       <path id="DejaVuSans-63" d="M 3122 3366
L 3122 2828
Q 2878 2963 2633 3030
Q 2388 3097 2138 3097
Q 1578 3097 1268 2742
Q 959 2388 959 1747
Q 959 1106 1268 751
Q 1578 397 2138 397
Q 2388 397 2633 464
Q 2878 531 3122 666
L 3122 134
Q 2881 22 2623 -34
Q 2366 -91 2075 -91
Q 1284 -91 818 406
Q 353 903 353 1747
Q 353 2603 823 3093
Q 1294 3584 2113 3584
Q 2378 3584 2631 3529
Q 2884 3475 3122 3366
z
" transform="scale(0.015625)"/>
      </defs>
      <use xlink:href="#DejaVuSans-49"/>
      <use xlink:href="#DejaVuSans-6e" transform="translate(29.492188 0)"/>
      <use xlink:href="#DejaVuSans-63" transform="translate(92.871094 0)"/>
      <use xlink:href="#DejaVuSans-72" transform="translate(147.851562 0)"/>
      <use xlink:href="#DejaVuSans-65" transform="translate(186.714844 0)"/>
      <use xlink:href="#DejaVuSans-61" transform="translate(248.238281 0)"/>
      <use xlink:href="#DejaVuSans-73" transform="translate(309.517578 0)"/>
      <use xlink:href="#DejaVuSans-65" transform="translate(361.617188 0)"/>
      <use xlink:href="#DejaVuSans-20" transform="translate(423.140625 0)"/>
      <use xlink:href="#DejaVuSans-70" transform="translate(454.927734 0)"/>
      <use xlink:href="#DejaVuSans-72" transform="translate(518.404297 0)"/>
      <use xlink:href="#DejaVuSans-69" transform="translate(559.517578 0)"/>
      <use xlink:href="#DejaVuSans-6f" transform="translate(587.300781 0)"/>
      <use xlink:href="#DejaVuSans-72" transform="translate(648.482422 0)"/>
      <use xlink:href="#DejaVuSans-69" transform="translate(689.595703 0)"/>
      <use xlink:href="#DejaVuSans-74" transform="translate(717.378906 0)"/>
      <use xlink:href="#DejaVuSans-79" transform="translate(756.587891 0)"/>
     </g>
    </g>
    <g id="PathCollection_7">
     <path d="M 444.275938 52.122213
C 445.51985 52.122213 446.712983 51.628001 447.592562 50.748422
C 448.472141 49.868842 448.966353 48.67571 448.966353 47.431797
C 448.966353 46.187884 448.472141 44.994751 447.592562 44.115172
C 446.712983 43.235593 445.51985 42.741381 444.275938 42.741381
C 443.032025 42.741381 441.838892 43.235593 440.959313 44.115172
C 440.079734 44.994751 439.585522 46.187884 439.585522 47.431797
C 439.585522 48.67571 440.079734 49.868842 440.959313 50.748422
C 441.838892 51.628001 443.032025 52.122213 444.275938 52.122213
z
" style="fill: #e0b663; fill-opacity: 0.45"/>
    </g>
    <g id="text_28">
     <!-- Access review -->
     <g transform="translate(459.575938 49.663047) scale(0.085 -0.085)">
      <use xlink:href="#DejaVuSans-41"/>
      <use xlink:href="#DejaVuSans-63" transform="translate(66.658203 0)"/>
      <use xlink:href="#DejaVuSans-63" transform="translate(121.638672 0)"/>
      <use xlink:href="#DejaVuSans-65" transform="translate(176.619141 0)"/>
      <use xlink:href="#DejaVuSans-73" transform="translate(238.142578 0)"/>
      <use xlink:href="#DejaVuSans-73" transform="translate(290.242188 0)"/>
      <use xlink:href="#DejaVuSans-20" transform="translate(342.341797 0)"/>
      <use xlink:href="#DejaVuSans-72" transform="translate(374.128906 0)"/>
      <use xlink:href="#DejaVuSans-65" transform="translate(412.992188 0)"/>
      <use xlink:href="#DejaVuSans-76" transform="translate(474.515625 0)"/>
      <use xlink:href="#DejaVuSans-69" transform="translate(533.695312 0)"/>
      <use xlink:href="#DejaVuSans-65" transform="translate(561.478516 0)"/>
      <use xlink:href="#DejaVuSans-77" transform="translate(623.001953 0)"/>
     </g>
    </g>
    <g id="PathCollection_8">
     <path d="M 444.275938 64.598619
C 445.51985 64.598619 446.712983 64.104407 447.592562 63.224828
C 448.472141 62.345249 448.966353 61.152116 448.966353 59.908203
C 448.966353 58.66429 448.472141 57.471158 447.592562 56.591578
C 446.712983 55.711999 445.51985 55.217787 444.275938 55.217787
C 443.032025 55.217787 441.838892 55.711999 440.959313 56.591578
C 440.079734 57.471158 439.585522 58.66429 439.585522 59.908203
C 439.585522 61.152116 440.079734 62.345249 440.959313 63.224828
C 441.838892 64.104407 443.032025 64.598619 444.275938 64.598619
z
" style="fill: #f0a06b; fill-opacity: 0.45"/>
    </g>
    <g id="text_29">
     <!-- Hold contact -->
     <g transform="translate(459.575938 62.139453) scale(0.085 -0.085)">
      <defs>
       <path id="DejaVuSans-48" d="M 628 4666
L 1259 4666
L 1259 2753
L 3553 2753
L 3553 4666
L 4184 4666
L 4184 0
L 3553 0
L 3553 2222
L 1259 2222
L 1259 0
L 628 0
L 628 4666
z
" transform="scale(0.015625)"/>
       <path id="DejaVuSans-6c" d="M 603 4863
L 1178 4863
L 1178 0
L 603 0
L 603 4863
z
" transform="scale(0.015625)"/>
      </defs>
      <use xlink:href="#DejaVuSans-48"/>
      <use xlink:href="#DejaVuSans-6f" transform="translate(75.195312 0)"/>
      <use xlink:href="#DejaVuSans-6c" transform="translate(136.376953 0)"/>
      <use xlink:href="#DejaVuSans-64" transform="translate(164.160156 0)"/>
      <use xlink:href="#DejaVuSans-20" transform="translate(227.636719 0)"/>
      <use xlink:href="#DejaVuSans-63" transform="translate(259.423828 0)"/>
      <use xlink:href="#DejaVuSans-6f" transform="translate(314.404297 0)"/>
      <use xlink:href="#DejaVuSans-6e" transform="translate(375.585938 0)"/>
      <use xlink:href="#DejaVuSans-74" transform="translate(438.964844 0)"/>
      <use xlink:href="#DejaVuSans-61" transform="translate(478.173828 0)"/>
      <use xlink:href="#DejaVuSans-63" transform="translate(539.453125 0)"/>
      <use xlink:href="#DejaVuSans-74" transform="translate(594.433594 0)"/>
     </g>
    </g>
    <g id="PathCollection_9">
     <path d="M 444.275938 77.075025
C 445.51985 77.075025 446.712983 76.580813 447.592562 75.701234
C 448.472141 74.821655 448.966353 73.628522 448.966353 72.384609
C 448.966353 71.140697 448.472141 69.947564 447.592562 69.067985
C 446.712983 68.188405 445.51985 67.694194 444.275938 67.694194
C 443.032025 67.694194 441.838892 68.188405 440.959313 69.067985
C 440.079734 69.947564 439.585522 71.140697 439.585522 72.384609
C 439.585522 73.628522 440.079734 74.821655 440.959313 75.701234
C 441.838892 76.580813 443.032025 77.075025 444.275938 77.075025
z
" style="fill: #7ba6d0; fill-opacity: 0.45"/>
    </g>
    <g id="text_30">
     <!-- Maintain -->
     <g transform="translate(459.575938 74.615859) scale(0.085 -0.085)">
      <use xlink:href="#DejaVuSans-4d"/>
      <use xlink:href="#DejaVuSans-61" transform="translate(86.279297 0)"/>
      <use xlink:href="#DejaVuSans-69" transform="translate(147.558594 0)"/>
      <use xlink:href="#DejaVuSans-6e" transform="translate(175.341797 0)"/>
      <use xlink:href="#DejaVuSans-74" transform="translate(238.720703 0)"/>
      <use xlink:href="#DejaVuSans-61" transform="translate(277.929688 0)"/>
      <use xlink:href="#DejaVuSans-69" transform="translate(339.208984 0)"/>
      <use xlink:href="#DejaVuSans-6e" transform="translate(366.992188 0)"/>
     </g>
    </g>
    <g id="PathCollection_10">
     <path d="M 444.275938 89.551431
C 445.51985 89.551431 446.712983 89.05722 447.592562 88.17764
C 448.472141 87.298061 448.966353 86.104928 448.966353 84.861016
C 448.966353 83.617103 448.472141 82.42397 447.592562 81.544391
C 446.712983 80.664812 445.51985 80.1706 444.275938 80.1706
C 443.032025 80.1706 441.838892 80.664812 440.959313 81.544391
C 440.079734 82.42397 439.585522 83.617103 439.585522 84.861016
C 439.585522 86.104928 440.079734 87.298061 440.959313 88.17764
C 441.838892 89.05722 443.032025 89.551431 444.275938 89.551431
z
" style="fill: #9a9a9a; fill-opacity: 0.45"/>
    </g>
    <g id="text_31">
     <!-- Monitor -->
     <g transform="translate(459.575938 87.092266) scale(0.085 -0.085)">
      <use xlink:href="#DejaVuSans-4d"/>
      <use xlink:href="#DejaVuSans-6f" transform="translate(86.279297 0)"/>
      <use xlink:href="#DejaVuSans-6e" transform="translate(147.460938 0)"/>
      <use xlink:href="#DejaVuSans-69" transform="translate(210.839844 0)"/>
      <use xlink:href="#DejaVuSans-74" transform="translate(238.623047 0)"/>
      <use xlink:href="#DejaVuSans-6f" transform="translate(277.832031 0)"/>
      <use xlink:href="#DejaVuSans-72" transform="translate(339.013672 0)"/>
     </g>
    </g>
   </g>
  </g>
 </g>
 <defs>
  <clipPath id="p0f288a87c8">
   <rect x="45.527344" y="23.077969" width="491.04" height="317.1168"/>
  </clipPath>
 </defs>
</svg>
