<?xml version="1.0" encoding="utf-8" standalone="no"?>
<!DOCTYPE svg PUBLIC "-//W3C//DTD SVG 1.1//EN"
  "http://www.w3.org/Graphics/SVG/1.1/DTD/svg11.dtd">
<svg xmlns:xlink="http://www.w3.org/1999/xlink" width="552.766562pt" height="435.234287pt" viewBox="0 0 552.766562 435.234287" xmlns="http://www.w3.org/2000/svg" version="1.1">
 <metadata>
  <rdf:RDF xmlns:dc="http://purl.org/dc/elements/1.1/" xmlns:cc="http://creativecommons.org/ns#" xmlns:rdf="http://www.w3.org/1999/02/22-rdf-syntax-ns#">
   <cc:Work>
    <dc:type rdf:resource="http://purl.org/dc/dcmitype/StillImage"/>
    <dc:date>2026-06-20T19:25:28.715747</dc:date>
    <dc:format>image/svg+xml</dc:format>
    <dc:creator>
     <cc:Agent>
      <dc:title>Matplotlib v3.10.9, https://matplotlib.org/</dc:title>
     </cc:Agent>
    </dc:creator>
   </cc:Work>
  </rdf:RDF>
 </metadata>
 <defs>
  <style type="text/css">*{stroke-linejoin: round; stroke-linecap: butt}</style>
 </defs>
 <g id="figure_1">
  <g id="patch_1">
   <path d="M 0 435.234287
L 552.766562 435.234287
L 552.766562 0
L 0 0
z
" style="fill: #ffffff"/>
  </g>
  <g id="axes_1">
   <g id="patch_2">
    <path d="M 447.635342 228.28148
Q 369.770028 213.638961 296.849208 227.351123
" clip-path="url(#p3a569dca70)" style="fill: none; stroke: #7ba6d0; stroke-width: 4.5; stroke-linecap: round"/>
    <path d="M 305.450625 229.803803
L 296.849208 227.351123
L 303.972202 221.941598
z
" clip-path="url(#p3a569dca70)" style="fill: #7ba6d0; stroke: #7ba6d0; stroke-width: 4.5; stroke-linecap: round"/>
   </g>
   <g id="patch_3">
    <path d="M 261.74138 212.658076
Q 234.01586 152.645446 189.567048 108.567991
" clip-path="url(#p3a569dca70)" style="fill: none; stroke: #7ba6d0; stroke-width: 3.138889; stroke-linecap: round"/>
    <path d="M 192.431045 117.041333
L 189.567048 108.567991
L 198.064119 111.360799
z
" clip-path="url(#p3a569dca70)" style="fill: #7ba6d0; stroke: #7ba6d0; stroke-width: 3.138889; stroke-linecap: round"/>
   </g>
   <g id="patch_4">
    <path d="M 248.462892 234.66553
Q 171.604603 242.878957 105.836159 276.806455
" clip-path="url(#p3a569dca70)" style="fill: none; stroke: #7ba6d0; stroke-width: 2.944444; stroke-linecap: round"/>
    <path d="M 114.779719 276.693675
L 105.836159 276.806455
L 111.11207 269.583938
z
" clip-path="url(#p3a569dca70)" style="fill: #7ba6d0; stroke: #7ba6d0; stroke-width: 2.944444; stroke-linecap: round"/>
   </g>
   <g id="patch_5">
    <path d="M 402.350101 136.101238
Q 336.481527 165.735142 288.739346 213.637981
" clip-path="url(#p3a569dca70)" style="fill: none; stroke: #7ba6d0; stroke-width: 4.111111; stroke-linecap: round"/>
    <path d="M 297.219864 210.795305
L 288.739346 213.637981
L 291.553516 205.147961
z
" clip-path="url(#p3a569dca70)" style="fill: #7ba6d0; stroke: #7ba6d0; stroke-width: 4.111111; stroke-linecap: round"/>
   </g>
   <g id="patch_6">
    <path d="M 296.003272 91.7234
Q 272.687365 149.044241 270.641649 206.945365
" clip-path="url(#p3a569dca70)" style="fill: none; stroke: #7ba6d0; stroke-width: 3.527778; stroke-linecap: round"/>
    <path d="M 274.921628 199.09159
L 270.641649 206.945365
L 266.926617 198.809116
z
" clip-path="url(#p3a569dca70)" style="fill: #7ba6d0; stroke: #7ba6d0; stroke-width: 3.527778; stroke-linecap: round"/>
   </g>
   <g id="patch_7">
    <path d="M 102.907617 187.453794
Q 171.601536 222.891098 245.186305 230.755269
" clip-path="url(#p3a569dca70)" style="fill: none; stroke: #7ba6d0; stroke-width: 2.944444; stroke-linecap: round"/>
    <path d="M 237.656672 225.927782
L 245.186305 230.755269
L 236.806535 233.882483
z
" clip-path="url(#p3a569dca70)" style="fill: #7ba6d0; stroke: #7ba6d0; stroke-width: 2.944444; stroke-linecap: round"/>
   </g>
   <g id="patch_8">
    <path d="M 187.071071 359.678108
Q 234.012615 313.13016 260.631801 255.514516
" clip-path="url(#p3a569dca70)" style="fill: none; stroke: #7ba6d0; stroke-width: 2.361111; stroke-linecap: round"/>
    <path d="M 253.645313 261.099225
L 260.631801 255.514516
L 260.907676 264.454532
z
" clip-path="url(#p3a569dca70)" style="fill: #7ba6d0; stroke: #7ba6d0; stroke-width: 2.361111; stroke-linecap: round"/>
   </g>
   <g id="patch_9">
    <path d="M 304.791438 372.166916
Q 302.606428 310.324082 280.039395 254.844378
" clip-path="url(#p3a569dca70)" style="fill: none; stroke: #7ba6d0; stroke-width: 1.777778; stroke-linecap: round"/>
    <path d="M 279.348463 263.761923
L 280.039395 254.844378
L 286.758872 260.747651
z
" clip-path="url(#p3a569dca70)" style="fill: #7ba6d0; stroke: #7ba6d0; stroke-width: 1.777778; stroke-linecap: round"/>
   </g>
   <g id="patch_10">
    <path d="M 407.54147 322.161092
Q 356.554561 271.002785 292.498536 242.184473
" clip-path="url(#p3a569dca70)" style="fill: none; stroke: #7ba6d0; stroke-width: 1.777778; stroke-linecap: round"/>
    <path d="M 298.15307 249.11457
L 292.498536 242.184473
L 301.435334 241.818904
z
" clip-path="url(#p3a569dca70)" style="fill: #7ba6d0; stroke: #7ba6d0; stroke-width: 1.777778; stroke-linecap: round"/>
   </g>
   <g id="text_1">
    <g id="patch_11">
     <path d="M 355.924551 238.764784
L 365.468301 238.764784
Q 367.718301 238.764784 367.718301 236.514784
L 367.718301 229.256191
Q 367.718301 227.006191 365.468301 227.006191
L 355.924551 227.006191
Q 353.674551 227.006191 353.674551 229.256191
L 353.674551 236.514784
Q 353.674551 238.764784 355.924551 238.764784
z
" clip-path="url(#p3a569dca70)" style="fill: #ffffff; stroke: #ffffff; stroke-linejoin: miter"/>
    </g>
    <g clip-path="url(#p3a569dca70)">
     <!-- 18 -->
     <g transform="translate(355.924551 234.955019) scale(0.075 -0.075)">
      <defs>
       <path id="DejaVuSans-31" d="M 794 531
L 1825 531
L 1825 4091
L 703 3866
L 703 4441
L 1819 4666
L 2450 4666
L 2450 531
L 3481 531
L 3481 0
L 794 0
L 794 531
z
" transform="scale(0.015625)"/>
       <path id="DejaVuSans-38" d="M 2034 2216
Q 1584 2216 1326 1975
Q 1069 1734 1069 1313
Q 1069 891 1326 650
Q 1584 409 2034 409
Q 2484 409 2743 651
Q 3003 894 3003 1313
Q 3003 1734 2745 1975
Q 2488 2216 2034 2216
z
M 1403 2484
Q 997 2584 770 2862
Q 544 3141 544 3541
Q 544 4100 942 4425
Q 1341 4750 2034 4750
Q 2731 4750 3128 4425
Q 3525 4100 3525 3541
Q 3525 3141 3298 2862
Q 3072 2584 2669 2484
Q 3125 2378 3379 2068
Q 3634 1759 3634 1313
Q 3634 634 3220 271
Q 2806 -91 2034 -91
Q 1263 -91 848 271
Q 434 634 434 1313
Q 434 1759 690 2068
Q 947 2378 1403 2484
z
M 1172 3481
Q 1172 3119 1398 2916
Q 1625 2713 2034 2713
Q 2441 2713 2670 2916
Q 2900 3119 2900 3481
Q 2900 3844 2670 4047
Q 2441 4250 2034 4250
Q 1625 4250 1398 4047
Q 1172 3844 1172 3481
z
" transform="scale(0.015625)"/>
      </defs>
      <use xlink:href="#DejaVuSans-31"/>
      <use xlink:href="#DejaVuSans-38" transform="translate(63.623047 0)"/>
     </g>
    </g>
   </g>
   <g id="text_2">
    <g id="patch_12">
     <path d="M 208.675171 155.054964
L 214.151827 162.870935
Q 215.442984 164.7136 217.285649 163.422444
L 223.230163 159.257119
Q 225.072828 157.965962 223.781672 156.123297
L 218.305016 148.307326
Q 217.013859 146.464661 215.171194 147.755817
L 209.22668 151.921142
Q 207.384015 153.212299 208.675171 155.054964
z
" clip-path="url(#p3a569dca70)" style="fill: #ffffff; stroke: #ffffff; stroke-linejoin: miter"/>
    </g>
    <g clip-path="url(#p3a569dca70)">
     <!-- 11 -->
     <g transform="translate(211.795225 152.86874) rotate(-305.018953) scale(0.075 -0.075)">
      <use xlink:href="#DejaVuSans-31"/>
      <use xlink:href="#DejaVuSans-31" transform="translate(63.623047 0)"/>
     </g>
    </g>
   </g>
   <g id="text_3">
    <g id="patch_13">
     <path d="M 165.615068 270.445221
L 174.75658 267.703705
Q 176.91175 267.057375 176.26542 264.902205
L 174.180333 257.949537
Q 173.534003 255.794367 171.378833 256.440697
L 162.237321 259.182213
Q 160.082151 259.828543 160.72848 261.983713
L 162.813568 268.936381
Q 163.459898 271.091551 165.615068 270.445221
z
" clip-path="url(#p3a569dca70)" style="fill: #ffffff; stroke: #ffffff; stroke-linejoin: miter"/>
    </g>
    <g clip-path="url(#p3a569dca70)">
     <!-- 10 -->
     <g transform="translate(164.520683 266.796024) rotate(-16.693852) scale(0.075 -0.075)">
      <defs>
       <path id="DejaVuSans-30" d="M 2034 4250
Q 1547 4250 1301 3770
Q 1056 3291 1056 2328
Q 1056 1369 1301 889
Q 1547 409 2034 409
Q 2525 409 2770 889
Q 3016 1369 3016 2328
Q 3016 3291 2770 3770
Q 2525 4250 2034 4250
z
M 2034 4750
Q 2819 4750 3233 4129
Q 3647 3509 3647 2328
Q 3647 1150 3233 529
Q 2819 -91 2034 -91
Q 1250 -91 836 529
Q 422 1150 422 2328
Q 422 3509 836 4129
Q 1250 4750 2034 4750
z
" transform="scale(0.015625)"/>
      </defs>
      <use xlink:href="#DejaVuSans-31"/>
      <use xlink:href="#DejaVuSans-30" transform="translate(63.623047 0)"/>
     </g>
    </g>
   </g>
   <g id="text_4">
    <g id="patch_14">
     <path d="M 339.035788 192.572464
L 346.88597 187.14496
Q 348.736701 185.865391 347.457132 184.014661
L 343.32919 178.044126
Q 342.049621 176.193396 340.198891 177.472964
L 332.348708 182.900468
Q 330.497978 184.180037 331.777546 186.030768
L 335.905488 192.001302
Q 337.185057 193.852033 339.035788 192.572464
z
" clip-path="url(#p3a569dca70)" style="fill: #ffffff; stroke: #ffffff; stroke-linejoin: miter"/>
    </g>
    <g clip-path="url(#p3a569dca70)">
     <!-- 16 -->
     <g transform="translate(336.869185 189.438753) rotate(-34.659428) scale(0.075 -0.075)">
      <defs>
       <path id="DejaVuSans-36" d="M 2113 2584
Q 1688 2584 1439 2293
Q 1191 2003 1191 1497
Q 1191 994 1439 701
Q 1688 409 2113 409
Q 2538 409 2786 701
Q 3034 994 3034 1497
Q 3034 2003 2786 2293
Q 2538 2584 2113 2584
z
M 3366 4563
L 3366 3988
Q 3128 4100 2886 4159
Q 2644 4219 2406 4219
Q 1781 4219 1451 3797
Q 1122 3375 1075 2522
Q 1259 2794 1537 2939
Q 1816 3084 2150 3084
Q 2853 3084 3261 2657
Q 3669 2231 3669 1497
Q 3669 778 3244 343
Q 2819 -91 2113 -91
Q 1303 -91 875 529
Q 447 1150 447 2328
Q 447 3434 972 4092
Q 1497 4750 2381 4750
Q 2619 4750 2861 4703
Q 3103 4656 3366 4563
z
" transform="scale(0.015625)"/>
      </defs>
      <use xlink:href="#DejaVuSans-31"/>
      <use xlink:href="#DejaVuSans-36" transform="translate(63.623047 0)"/>
     </g>
    </g>
   </g>
   <g id="text_5">
    <g id="patch_15">
     <path d="M 290.85254 165.361371
L 292.849675 156.028921
Q 293.320513 153.828737 291.120328 153.357899
L 284.022441 151.838958
Q 281.822256 151.36812 281.351419 153.568305
L 279.354283 162.900754
Q 278.883446 165.100939 281.08363 165.571776
L 288.181517 167.090718
Q 290.381702 167.561555 290.85254 165.361371
z
" clip-path="url(#p3a569dca70)" style="fill: #ffffff; stroke: #ffffff; stroke-linejoin: miter"/>
    </g>
    <g clip-path="url(#p3a569dca70)">
     <!-- 13 -->
     <g transform="translate(287.127123 164.564135) rotate(-77.920946) scale(0.075 -0.075)">
      <defs>
       <path id="DejaVuSans-33" d="M 2597 2516
Q 3050 2419 3304 2112
Q 3559 1806 3559 1356
Q 3559 666 3084 287
Q 2609 -91 1734 -91
Q 1441 -91 1130 -33
Q 819 25 488 141
L 488 750
Q 750 597 1062 519
Q 1375 441 1716 441
Q 2309 441 2620 675
Q 2931 909 2931 1356
Q 2931 1769 2642 2001
Q 2353 2234 1838 2234
L 1294 2234
L 1294 2753
L 1863 2753
Q 2328 2753 2575 2939
Q 2822 3125 2822 3475
Q 2822 3834 2567 4026
Q 2313 4219 1838 4219
Q 1578 4219 1281 4162
Q 984 4106 628 3988
L 628 4550
Q 988 4650 1302 4700
Q 1616 4750 1894 4750
Q 2613 4750 3031 4423
Q 3450 4097 3450 3541
Q 3450 3153 3228 2886
Q 3006 2619 2597 2516
z
" transform="scale(0.015625)"/>
      </defs>
      <use xlink:href="#DejaVuSans-31"/>
      <use xlink:href="#DejaVuSans-33" transform="translate(63.623047 0)"/>
     </g>
    </g>
   </g>
   <g id="text_6">
    <g id="patch_16">
     <path d="M 179.253092 211.691748
L 188.394605 214.433265
Q 190.549775 215.079594 191.196105 212.924424
L 193.281192 205.971756
Q 193.927522 203.816586 191.772352 203.170256
L 182.630839 200.42874
Q 180.475669 199.78241 179.829339 201.93758
L 177.744252 208.890249
Q 177.097922 211.045419 179.253092 211.691748
z
" clip-path="url(#p3a569dca70)" style="fill: #ffffff; stroke: #ffffff; stroke-linejoin: miter"/>
    </g>
    <g clip-path="url(#p3a569dca70)">
     <!-- 10 -->
     <g transform="translate(180.347477 208.042552) rotate(-343.306148) scale(0.075 -0.075)">
      <use xlink:href="#DejaVuSans-31"/>
      <use xlink:href="#DejaVuSans-30" transform="translate(63.623047 0)"/>
     </g>
    </g>
   </g>
   <g id="text_7">
    <g id="patch_17">
     <path d="M 228.618947 302.744194
L 231.357275 298.836208
Q 232.648432 296.993543 230.805767 295.702387
L 224.861252 291.537062
Q 223.018587 290.245905 221.727431 292.08857
L 218.989103 295.996556
Q 217.697946 297.839221 219.540611 299.130378
L 225.485126 303.295703
Q 227.327791 304.586859 228.618947 302.744194
z
" clip-path="url(#p3a569dca70)" style="fill: #ffffff; stroke: #ffffff; stroke-linejoin: miter"/>
    </g>
    <g clip-path="url(#p3a569dca70)">
     <!-- 7 -->
     <g transform="translate(225.498893 300.55797) rotate(-54.981047) scale(0.075 -0.075)">
      <defs>
       <path id="DejaVuSans-37" d="M 525 4666
L 3525 4666
L 3525 4397
L 1831 0
L 1172 0
L 2766 4134
L 525 4134
L 525 4666
z
" transform="scale(0.015625)"/>
      </defs>
      <use xlink:href="#DejaVuSans-37"/>
     </g>
    </g>
   </g>
   <g id="text_8">
    <g id="patch_18">
     <path d="M 279.853567 305.203333
L 280.852135 309.869558
Q 281.322973 312.069742 283.523157 311.598905
L 290.621044 310.079964
Q 292.821229 309.609126 292.350391 307.408942
L 291.351823 302.742717
Q 290.880986 300.542532 288.680801 301.01337
L 281.582914 302.532311
Q 279.38273 303.003149 279.853567 305.203333
z
" clip-path="url(#p3a569dca70)" style="fill: #ffffff; stroke: #ffffff; stroke-linejoin: miter"/>
    </g>
    <g clip-path="url(#p3a569dca70)">
     <!-- 4 -->
     <g transform="translate(283.578984 304.406097) rotate(-282.079054) scale(0.075 -0.075)">
      <defs>
       <path id="DejaVuSans-34" d="M 2419 4116
L 825 1625
L 2419 1625
L 2419 4116
z
M 2253 4666
L 3047 4666
L 3047 1625
L 3713 1625
L 3713 1100
L 3047 1100
L 3047 0
L 2419 0
L 2419 1100
L 313 1100
L 313 1709
L 2253 4666
z
" transform="scale(0.015625)"/>
      </defs>
      <use xlink:href="#DejaVuSans-34"/>
     </g>
    </g>
   </g>
   <g id="text_9">
    <g id="patch_19">
     <path d="M 334.311254 284.227383
L 338.236345 286.941135
Q 340.087076 288.220703 341.366645 286.369973
L 345.494587 280.399438
Q 346.774155 278.548708 344.923425 277.269139
L 340.998333 274.555387
Q 339.147603 273.275818 337.868034 275.126549
L 333.740092 281.097083
Q 332.460523 282.947814 334.311254 284.227383
z
" clip-path="url(#p3a569dca70)" style="fill: #ffffff; stroke: #ffffff; stroke-linejoin: miter"/>
    </g>
    <g clip-path="url(#p3a569dca70)">
     <!-- 4 -->
     <g transform="translate(336.477857 281.093672) rotate(-325.340572) scale(0.075 -0.075)">
      <use xlink:href="#DejaVuSans-34"/>
     </g>
    </g>
   </g>
   <g id="PathCollection_1">
    <path d="M 469.146918 247.885487
C 473.124964 247.885487 476.940616 246.304993 479.753519 243.492089
C 482.566423 240.679186 484.146918 236.863534 484.146918 232.885487
C 484.146918 228.907441 482.566423 225.091789 479.753519 222.278886
C 476.940616 219.465982 473.124964 217.885487 469.146918 217.885487
C 465.168871 217.885487 461.35322 219.465982 458.540316 222.278886
C 455.727412 225.091789 454.146918 228.907441 454.146918 232.885487
C 454.146918 236.863534 455.727412 240.679186 458.540316 243.492089
C 461.35322 246.304993 465.168871 247.885487 469.146918 247.885487
z
" clip-path="url(#p3a569dca70)" style="fill: #e7f0f8; stroke: #2f3437; stroke-width: 1.2"/>
    <path d="M 270.390028 254.098691
C 276.015835 254.098691 281.411981 251.863534 285.390028 247.885487
C 289.368074 243.907441 291.603231 238.511295 291.603231 232.885487
C 291.603231 227.25968 289.368074 221.863534 285.390028 217.885487
C 281.411981 213.907441 276.015835 211.672284 270.390028 211.672284
C 264.76422 211.672284 259.368074 213.907441 255.390028 217.885487
C 251.411981 221.863534 249.176824 227.25968 249.176824 232.885487
C 249.176824 238.511295 251.411981 243.907441 255.390028 247.885487
C 259.368074 251.863534 264.76422 254.098691 270.390028 254.098691
z
" clip-path="url(#p3a569dca70)" style="fill: #e0b663; stroke: #2f3437; stroke-width: 1.2"/>
    <path d="M 422.646639 142.617444
C 426.624685 142.617444 430.440337 141.036949 433.25324 138.224045
C 436.066144 135.411142 437.646639 131.59549 437.646639 127.617444
C 437.646639 123.639397 436.066144 119.823746 433.25324 117.010842
C 430.440337 114.197938 426.624685 112.617444 422.646639 112.617444
C 418.668592 112.617444 414.852941 114.197938 412.040037 117.010842
C 409.227133 119.823746 407.646639 123.639397 407.646639 127.617444
C 407.646639 131.59549 409.227133 135.411142 412.040037 138.224045
C 414.852941 141.036949 418.668592 142.617444 422.646639 142.617444
z
" clip-path="url(#p3a569dca70)" style="fill: #e7f0f8; stroke: #2f3437; stroke-width: 1.2"/>
    <path d="M 304.903799 86.605487
C 308.881846 86.605487 312.697497 85.024993 315.510401 82.212089
C 318.323305 79.399186 319.903799 75.583534 319.903799 71.605487
C 319.903799 67.627441 318.323305 63.811789 315.510401 60.998886
C 312.697497 58.185982 308.881846 56.605487 304.903799 56.605487
C 300.925753 56.605487 297.110101 58.185982 294.297198 60.998886
C 291.484294 63.811789 289.903799 67.627441 289.903799 71.605487
C 289.903799 75.583534 291.484294 79.399186 294.297198 82.212089
C 297.110101 85.024993 300.925753 86.605487 304.903799 86.605487
z
" clip-path="url(#p3a569dca70)" style="fill: #e7f0f8; stroke: #2f3437; stroke-width: 1.2"/>
    <path d="M 171.011583 106.058236
C 174.989629 106.058236 178.805281 104.477741 181.618184 101.664837
C 184.431088 98.851934 186.011583 95.036282 186.011583 91.058236
C 186.011583 87.080189 184.431088 83.264538 181.618184 80.451634
C 178.805281 77.63873 174.989629 76.058236 171.011583 76.058236
C 167.033536 76.058236 163.217885 77.63873 160.404981 80.451634
C 157.592077 83.264538 156.011583 87.080189 156.011583 91.058236
C 156.011583 95.036282 157.592077 98.851934 160.404981 101.664837
C 163.217885 104.477741 167.033536 106.058236 171.011583 106.058236
z
" clip-path="url(#p3a569dca70)" style="fill: #e7f0f8; stroke: #2f3437; stroke-width: 1.2"/>
    <path d="M 83.619645 191.873531
C 87.597691 191.873531 91.413343 190.293037 94.226247 187.480133
C 97.03915 184.667229 98.619645 180.851578 98.619645 176.873531
C 98.619645 172.895485 97.03915 169.079833 94.226247 166.26693
C 91.413343 163.454026 87.597691 161.873531 83.619645 161.873531
C 79.641598 161.873531 75.825947 163.454026 73.013043 166.26693
C 70.20014 169.079833 68.619645 172.895485 68.619645 176.873531
C 68.619645 180.851578 70.20014 184.667229 73.013043 187.480133
C 75.825947 190.293037 79.641598 191.873531 83.619645 191.873531
z
" clip-path="url(#p3a569dca70)" style="fill: #e7f0f8; stroke: #2f3437; stroke-width: 1.2"/>
    <path d="M 83.619645 303.897444
C 87.597691 303.897444 91.413343 302.316949 94.226247 299.504045
C 97.03915 296.691142 98.619645 292.87549 98.619645 288.897444
C 98.619645 284.919397 97.03915 281.103746 94.226247 278.290842
C 91.413343 275.477938 87.597691 273.897444 83.619645 273.897444
C 79.641598 273.897444 75.825947 275.477938 73.013043 278.290842
C 70.20014 281.103746 68.619645 284.919397 68.619645 288.897444
C 68.619645 292.87549 70.20014 296.691142 73.013043 299.504045
C 75.825947 302.316949 79.641598 303.897444 83.619645 303.897444
z
" clip-path="url(#p3a569dca70)" style="fill: #e7f0f8; stroke: #2f3437; stroke-width: 1.2"/>
    <path d="M 171.011583 389.712739
C 174.989629 389.712739 178.805281 388.132245 181.618184 385.319341
C 184.431088 382.506437 186.011583 378.690786 186.011583 374.712739
C 186.011583 370.734693 184.431088 366.919041 181.618184 364.106138
C 178.805281 361.293234 174.989629 359.712739 171.011583 359.712739
C 167.033536 359.712739 163.217885 361.293234 160.404981 364.106138
C 157.592077 366.919041 156.011583 370.734693 156.011583 374.712739
C 156.011583 378.690786 157.592077 382.506437 160.404981 385.319341
C 163.217885 388.132245 167.033536 389.712739 171.011583 389.712739
z
" clip-path="url(#p3a569dca70)" style="fill: #e7f0f8; stroke: #2f3437; stroke-width: 1.2"/>
    <path d="M 304.903799 409.165487
C 308.881846 409.165487 312.697497 407.584993 315.510401 404.772089
C 318.323305 401.959186 319.903799 398.143534 319.903799 394.165487
C 319.903799 390.187441 318.323305 386.371789 315.510401 383.558886
C 312.697497 380.745982 308.881846 379.165487 304.903799 379.165487
C 300.925753 379.165487 297.110101 380.745982 294.297198 383.558886
C 291.484294 386.371789 289.903799 390.187441 289.903799 394.165487
C 289.903799 398.143534 291.484294 401.959186 294.297198 404.772089
C 297.110101 407.584993 300.925753 409.165487 304.903799 409.165487
z
" clip-path="url(#p3a569dca70)" style="fill: #e7f0f8; stroke: #2f3437; stroke-width: 1.2"/>
    <path d="M 422.646639 353.153531
C 426.624685 353.153531 430.440337 351.573037 433.25324 348.760133
C 436.066144 345.947229 437.646639 342.131578 437.646639 338.153531
C 437.646639 334.175485 436.066144 330.359833 433.25324 327.54693
C 430.440337 324.734026 426.624685 323.153531 422.646639 323.153531
C 418.668592 323.153531 414.852941 324.734026 412.040037 327.54693
C 409.227133 330.359833 407.646639 334.175485 407.646639 338.153531
C 407.646639 342.131578 409.227133 345.947229 412.040037 348.760133
C 414.852941 351.573037 418.668592 353.153531 422.646639 353.153531
z
" clip-path="url(#p3a569dca70)" style="fill: #e7f0f8; stroke: #2f3437; stroke-width: 1.2"/>
   </g>
   <g id="text_10">
    <g clip-path="url(#p3a569dca70)">
     <!-- 0602 -->
     <g style="fill: #2f3437" transform="translate(458.330668 235.230956) scale(0.085 -0.085)">
      <defs>
       <path id="DejaVuSans-32" d="M 1228 531
L 3431 531
L 3431 0
L 469 0
L 469 531
Q 828 903 1448 1529
Q 2069 2156 2228 2338
Q 2531 2678 2651 2914
Q 2772 3150 2772 3378
Q 2772 3750 2511 3984
Q 2250 4219 1831 4219
Q 1534 4219 1204 4116
Q 875 4013 500 3803
L 500 4441
Q 881 4594 1212 4672
Q 1544 4750 1819 4750
Q 2544 4750 2975 4387
Q 3406 4025 3406 3419
Q 3406 3131 3298 2873
Q 3191 2616 2906 2266
Q 2828 2175 2409 1742
Q 1991 1309 1228 531
z
" transform="scale(0.015625)"/>
      </defs>
      <use xlink:href="#DejaVuSans-30"/>
      <use xlink:href="#DejaVuSans-36" transform="translate(63.623047 0)"/>
      <use xlink:href="#DejaVuSans-30" transform="translate(127.246094 0)"/>
      <use xlink:href="#DejaVuSans-32" transform="translate(190.869141 0)"/>
     </g>
    </g>
   </g>
   <g id="text_11">
    <g clip-path="url(#p3a569dca70)">
     <!-- 0631 -->
     <g style="fill: #2f3437" transform="translate(259.573778 235.230956) scale(0.085 -0.085)">
      <use xlink:href="#DejaVuSans-30"/>
      <use xlink:href="#DejaVuSans-36" transform="translate(63.623047 0)"/>
      <use xlink:href="#DejaVuSans-33" transform="translate(127.246094 0)"/>
      <use xlink:href="#DejaVuSans-31" transform="translate(190.869141 0)"/>
     </g>
    </g>
   </g>
   <g id="text_12">
    <g clip-path="url(#p3a569dca70)">
     <!-- 0470 -->
     <g style="fill: #2f3437" transform="translate(411.830389 129.962912) scale(0.085 -0.085)">
      <use xlink:href="#DejaVuSans-30"/>
      <use xlink:href="#DejaVuSans-34" transform="translate(63.623047 0)"/>
      <use xlink:href="#DejaVuSans-37" transform="translate(127.246094 0)"/>
      <use xlink:href="#DejaVuSans-30" transform="translate(190.869141 0)"/>
     </g>
    </g>
   </g>
   <g id="text_13">
    <g clip-path="url(#p3a569dca70)">
     <!-- 0451 -->
     <g style="fill: #2f3437" transform="translate(294.087549 73.950956) scale(0.085 -0.085)">
      <defs>
       <path id="DejaVuSans-35" d="M 691 4666
L 3169 4666
L 3169 4134
L 1269 4134
L 1269 2991
Q 1406 3038 1543 3061
Q 1681 3084 1819 3084
Q 2600 3084 3056 2656
Q 3513 2228 3513 1497
Q 3513 744 3044 326
Q 2575 -91 1722 -91
Q 1428 -91 1123 -41
Q 819 9 494 109
L 494 744
Q 775 591 1075 516
Q 1375 441 1709 441
Q 2250 441 2565 725
Q 2881 1009 2881 1497
Q 2881 1984 2565 2268
Q 2250 2553 1709 2553
Q 1456 2553 1204 2497
Q 953 2441 691 2322
L 691 4666
z
" transform="scale(0.015625)"/>
      </defs>
      <use xlink:href="#DejaVuSans-30"/>
      <use xlink:href="#DejaVuSans-34" transform="translate(63.623047 0)"/>
      <use xlink:href="#DejaVuSans-35" transform="translate(127.246094 0)"/>
      <use xlink:href="#DejaVuSans-31" transform="translate(190.869141 0)"/>
     </g>
    </g>
   </g>
   <g id="text_14">
    <g clip-path="url(#p3a569dca70)">
     <!-- 0430 -->
     <g style="fill: #2f3437" transform="translate(160.195333 93.403704) scale(0.085 -0.085)">
      <use xlink:href="#DejaVuSans-30"/>
      <use xlink:href="#DejaVuSans-34" transform="translate(63.623047 0)"/>
      <use xlink:href="#DejaVuSans-33" transform="translate(127.246094 0)"/>
      <use xlink:href="#DejaVuSans-30" transform="translate(190.869141 0)"/>
     </g>
    </g>
   </g>
   <g id="text_15">
    <g clip-path="url(#p3a569dca70)">
     <!-- 0244 -->
     <g style="fill: #2f3437" transform="translate(72.803395 179.219) scale(0.085 -0.085)">
      <use xlink:href="#DejaVuSans-30"/>
      <use xlink:href="#DejaVuSans-32" transform="translate(63.623047 0)"/>
      <use xlink:href="#DejaVuSans-34" transform="translate(127.246094 0)"/>
      <use xlink:href="#DejaVuSans-34" transform="translate(190.869141 0)"/>
     </g>
    </g>
   </g>
   <g id="text_16">
    <g clip-path="url(#p3a569dca70)">
     <!-- 0522 -->
     <g style="fill: #2f3437" transform="translate(72.803395 291.242912) scale(0.085 -0.085)">
      <use xlink:href="#DejaVuSans-30"/>
      <use xlink:href="#DejaVuSans-35" transform="translate(63.623047 0)"/>
      <use xlink:href="#DejaVuSans-32" transform="translate(127.246094 0)"/>
      <use xlink:href="#DejaVuSans-32" transform="translate(190.869141 0)"/>
     </g>
    </g>
   </g>
   <g id="text_17">
    <g clip-path="url(#p3a569dca70)">
     <!-- 0020 -->
     <g style="fill: #2f3437" transform="translate(160.195333 377.058208) scale(0.085 -0.085)">
      <use xlink:href="#DejaVuSans-30"/>
      <use xlink:href="#DejaVuSans-30" transform="translate(63.623047 0)"/>
      <use xlink:href="#DejaVuSans-32" transform="translate(127.246094 0)"/>
      <use xlink:href="#DejaVuSans-30" transform="translate(190.869141 0)"/>
     </g>
    </g>
   </g>
   <g id="text_18">
    <g clip-path="url(#p3a569dca70)">
     <!-- 0147 -->
     <g style="fill: #2f3437" transform="translate(294.087549 396.510956) scale(0.085 -0.085)">
      <use xlink:href="#DejaVuSans-30"/>
      <use xlink:href="#DejaVuSans-31" transform="translate(63.623047 0)"/>
      <use xlink:href="#DejaVuSans-34" transform="translate(127.246094 0)"/>
      <use xlink:href="#DejaVuSans-37" transform="translate(190.869141 0)"/>
     </g>
    </g>
   </g>
   <g id="text_19">
    <g clip-path="url(#p3a569dca70)">
     <!-- 0565 -->
     <g style="fill: #2f3437" transform="translate(411.830389 340.499) scale(0.085 -0.085)">
      <use xlink:href="#DejaVuSans-30"/>
      <use xlink:href="#DejaVuSans-35" transform="translate(63.623047 0)"/>
      <use xlink:href="#DejaVuSans-36" transform="translate(127.246094 0)"/>
      <use xlink:href="#DejaVuSans-35" transform="translate(190.869141 0)"/>
     </g>
    </g>
   </g>
   <g id="text_20">
    <!-- Ego Referral Network — HCP 0631 (highest betweenness) -->
    <g transform="translate(64.938281 17.077969) scale(0.13 -0.13)">
     <defs>
      <path id="DejaVuSans-Bold-45" d="M 588 4666
L 3834 4666
L 3834 3756
L 1791 3756
L 1791 2888
L 3713 2888
L 3713 1978
L 1791 1978
L 1791 909
L 3903 909
L 3903 0
L 588 0
L 588 4666
z
" transform="scale(0.015625)"/>
      <path id="DejaVuSans-Bold-67" d="M 2919 594
Q 2688 288 2409 144
Q 2131 0 1766 0
Q 1125 0 706 504
Q 288 1009 288 1791
Q 288 2575 706 3076
Q 1125 3578 1766 3578
Q 2131 3578 2409 3434
Q 2688 3291 2919 2981
L 2919 3500
L 4044 3500
L 4044 353
Q 4044 -491 3511 -936
Q 2978 -1381 1966 -1381
Q 1638 -1381 1331 -1331
Q 1025 -1281 716 -1178
L 716 -306
Q 1009 -475 1290 -558
Q 1572 -641 1856 -641
Q 2406 -641 2662 -400
Q 2919 -159 2919 353
L 2919 594
z
M 2181 2772
Q 1834 2772 1640 2515
Q 1447 2259 1447 1791
Q 1447 1309 1634 1061
Q 1822 813 2181 813
Q 2531 813 2725 1069
Q 2919 1325 2919 1791
Q 2919 2259 2725 2515
Q 2531 2772 2181 2772
z
" transform="scale(0.015625)"/>
      <path id="DejaVuSans-Bold-6f" d="M 2203 2784
Q 1831 2784 1636 2517
Q 1441 2250 1441 1747
Q 1441 1244 1636 976
Q 1831 709 2203 709
Q 2569 709 2762 976
Q 2956 1244 2956 1747
Q 2956 2250 2762 2517
Q 2569 2784 2203 2784
z
M 2203 3584
Q 3106 3584 3614 3096
Q 4122 2609 4122 1747
Q 4122 884 3614 396
Q 3106 -91 2203 -91
Q 1297 -91 786 396
Q 275 884 275 1747
Q 275 2609 786 3096
Q 1297 3584 2203 3584
z
" transform="scale(0.015625)"/>
      <path id="DejaVuSans-Bold-20" transform="scale(0.015625)"/>
      <path id="DejaVuSans-Bold-52" d="M 2297 2597
Q 2675 2597 2839 2737
Q 3003 2878 3003 3200
Q 3003 3519 2839 3656
Q 2675 3794 2297 3794
L 1791 3794
L 1791 2597
L 2297 2597
z
M 1791 1766
L 1791 0
L 588 0
L 588 4666
L 2425 4666
Q 3347 4666 3776 4356
Q 4206 4047 4206 3378
Q 4206 2916 3982 2619
Q 3759 2322 3309 2181
Q 3556 2125 3751 1926
Q 3947 1728 4147 1325
L 4800 0
L 3519 0
L 2950 1159
Q 2778 1509 2601 1637
Q 2425 1766 2131 1766
L 1791 1766
z
" transform="scale(0.015625)"/>
      <path id="DejaVuSans-Bold-65" d="M 4031 1759
L 4031 1441
L 1416 1441
Q 1456 1047 1700 850
Q 1944 653 2381 653
Q 2734 653 3104 758
Q 3475 863 3866 1075
L 3866 213
Q 3469 63 3072 -14
Q 2675 -91 2278 -91
Q 1328 -91 801 392
Q 275 875 275 1747
Q 275 2603 792 3093
Q 1309 3584 2216 3584
Q 3041 3584 3536 3087
Q 4031 2591 4031 1759
z
M 2881 2131
Q 2881 2450 2695 2645
Q 2509 2841 2209 2841
Q 1884 2841 1681 2658
Q 1478 2475 1428 2131
L 2881 2131
z
" transform="scale(0.015625)"/>
      <path id="DejaVuSans-Bold-66" d="M 2841 4863
L 2841 4128
L 2222 4128
Q 1984 4128 1890 4042
Q 1797 3956 1797 3744
L 1797 3500
L 2753 3500
L 2753 2700
L 1797 2700
L 1797 0
L 678 0
L 678 2700
L 122 2700
L 122 3500
L 678 3500
L 678 3744
Q 678 4316 997 4589
Q 1316 4863 1984 4863
L 2841 4863
z
" transform="scale(0.015625)"/>
      <path id="DejaVuSans-Bold-72" d="M 3138 2547
Q 2991 2616 2845 2648
Q 2700 2681 2553 2681
Q 2122 2681 1889 2404
Q 1656 2128 1656 1613
L 1656 0
L 538 0
L 538 3500
L 1656 3500
L 1656 2925
Q 1872 3269 2151 3426
Q 2431 3584 2822 3584
Q 2878 3584 2943 3579
Q 3009 3575 3134 3559
L 3138 2547
z
" transform="scale(0.015625)"/>
      <path id="DejaVuSans-Bold-61" d="M 2106 1575
Q 1756 1575 1579 1456
Q 1403 1338 1403 1106
Q 1403 894 1545 773
Q 1688 653 1941 653
Q 2256 653 2472 879
Q 2688 1106 2688 1447
L 2688 1575
L 2106 1575
z
M 3816 1997
L 3816 0
L 2688 0
L 2688 519
Q 2463 200 2181 54
Q 1900 -91 1497 -91
Q 953 -91 614 226
Q 275 544 275 1050
Q 275 1666 698 1953
Q 1122 2241 2028 2241
L 2688 2241
L 2688 2328
Q 2688 2594 2478 2717
Q 2269 2841 1825 2841
Q 1466 2841 1156 2769
Q 847 2697 581 2553
L 581 3406
Q 941 3494 1303 3539
Q 1666 3584 2028 3584
Q 2975 3584 3395 3211
Q 3816 2838 3816 1997
z
" transform="scale(0.015625)"/>
      <path id="DejaVuSans-Bold-6c" d="M 538 4863
L 1656 4863
L 1656 0
L 538 0
L 538 4863
z
" transform="scale(0.015625)"/>
      <path id="DejaVuSans-Bold-4e" d="M 588 4666
L 1931 4666
L 3628 1466
L 3628 4666
L 4769 4666
L 4769 0
L 3425 0
L 1728 3200
L 1728 0
L 588 0
L 588 4666
z
" transform="scale(0.015625)"/>
      <path id="DejaVuSans-Bold-74" d="M 1759 4494
L 1759 3500
L 2913 3500
L 2913 2700
L 1759 2700
L 1759 1216
Q 1759 972 1856 886
Q 1953 800 2241 800
L 2816 800
L 2816 0
L 1856 0
Q 1194 0 917 276
Q 641 553 641 1216
L 641 2700
L 84 2700
L 84 3500
L 641 3500
L 641 4494
L 1759 4494
z
" transform="scale(0.015625)"/>
      <path id="DejaVuSans-Bold-77" d="M 225 3500
L 1313 3500
L 1900 1088
L 2491 3500
L 3425 3500
L 4013 1113
L 4603 3500
L 5691 3500
L 4769 0
L 3547 0
L 2956 2406
L 2369 0
L 1147 0
L 225 3500
z
" transform="scale(0.015625)"/>
      <path id="DejaVuSans-Bold-6b" d="M 538 4863
L 1656 4863
L 1656 2216
L 2944 3500
L 4244 3500
L 2534 1894
L 4378 0
L 3022 0
L 1656 1459
L 1656 0
L 538 0
L 538 4863
z
" transform="scale(0.015625)"/>
      <path id="DejaVuSans-Bold-2014" d="M 344 2156
L 6056 2156
L 6056 1350
L 344 1350
L 344 2156
z
" transform="scale(0.015625)"/>
      <path id="DejaVuSans-Bold-48" d="M 588 4666
L 1791 4666
L 1791 2888
L 3566 2888
L 3566 4666
L 4769 4666
L 4769 0
L 3566 0
L 3566 1978
L 1791 1978
L 1791 0
L 588 0
L 588 4666
z
" transform="scale(0.015625)"/>
      <path id="DejaVuSans-Bold-43" d="M 4288 256
Q 3956 84 3597 -3
Q 3238 -91 2847 -91
Q 1681 -91 1000 561
Q 319 1213 319 2328
Q 319 3447 1000 4098
Q 1681 4750 2847 4750
Q 3238 4750 3597 4662
Q 3956 4575 4288 4403
L 4288 3438
Q 3953 3666 3628 3772
Q 3303 3878 2944 3878
Q 2300 3878 1931 3465
Q 1563 3053 1563 2328
Q 1563 1606 1931 1193
Q 2300 781 2944 781
Q 3303 781 3628 887
Q 3953 994 4288 1222
L 4288 256
z
" transform="scale(0.015625)"/>
      <path id="DejaVuSans-Bold-50" d="M 588 4666
L 2584 4666
Q 3475 4666 3951 4270
Q 4428 3875 4428 3144
Q 4428 2409 3951 2014
Q 3475 1619 2584 1619
L 1791 1619
L 1791 0
L 588 0
L 588 4666
z
M 1791 3794
L 1791 2491
L 2456 2491
Q 2806 2491 2997 2661
Q 3188 2831 3188 3144
Q 3188 3456 2997 3625
Q 2806 3794 2456 3794
L 1791 3794
z
" transform="scale(0.015625)"/>
      <path id="DejaVuSans-Bold-30" d="M 2944 2338
Q 2944 3213 2780 3570
Q 2616 3928 2228 3928
Q 1841 3928 1675 3570
Q 1509 3213 1509 2338
Q 1509 1453 1675 1090
Q 1841 728 2228 728
Q 2613 728 2778 1090
Q 2944 1453 2944 2338
z
M 4147 2328
Q 4147 1169 3647 539
Q 3147 -91 2228 -91
Q 1306 -91 806 539
Q 306 1169 306 2328
Q 306 3491 806 4120
Q 1306 4750 2228 4750
Q 3147 4750 3647 4120
Q 4147 3491 4147 2328
z
" transform="scale(0.015625)"/>
      <path id="DejaVuSans-Bold-36" d="M 2316 2303
Q 2000 2303 1842 2098
Q 1684 1894 1684 1484
Q 1684 1075 1842 870
Q 2000 666 2316 666
Q 2634 666 2792 870
Q 2950 1075 2950 1484
Q 2950 1894 2792 2098
Q 2634 2303 2316 2303
z
M 3803 4544
L 3803 3681
Q 3506 3822 3243 3889
Q 2981 3956 2731 3956
Q 2194 3956 1894 3657
Q 1594 3359 1544 2772
Q 1750 2925 1990 3001
Q 2231 3078 2516 3078
Q 3231 3078 3670 2659
Q 4109 2241 4109 1563
Q 4109 813 3618 361
Q 3128 -91 2303 -91
Q 1394 -91 895 523
Q 397 1138 397 2266
Q 397 3422 980 4083
Q 1563 4744 2578 4744
Q 2900 4744 3203 4694
Q 3506 4644 3803 4544
z
" transform="scale(0.015625)"/>
      <path id="DejaVuSans-Bold-33" d="M 2981 2516
Q 3453 2394 3698 2092
Q 3944 1791 3944 1325
Q 3944 631 3412 270
Q 2881 -91 1863 -91
Q 1503 -91 1142 -33
Q 781 25 428 141
L 428 1069
Q 766 900 1098 814
Q 1431 728 1753 728
Q 2231 728 2486 893
Q 2741 1059 2741 1369
Q 2741 1688 2480 1852
Q 2219 2016 1709 2016
L 1228 2016
L 1228 2791
L 1734 2791
Q 2188 2791 2409 2933
Q 2631 3075 2631 3366
Q 2631 3634 2415 3781
Q 2200 3928 1806 3928
Q 1516 3928 1219 3862
Q 922 3797 628 3669
L 628 4550
Q 984 4650 1334 4700
Q 1684 4750 2022 4750
Q 2931 4750 3382 4451
Q 3834 4153 3834 3553
Q 3834 3144 3618 2883
Q 3403 2622 2981 2516
z
" transform="scale(0.015625)"/>
      <path id="DejaVuSans-Bold-31" d="M 750 831
L 1813 831
L 1813 3847
L 722 3622
L 722 4441
L 1806 4666
L 2950 4666
L 2950 831
L 4013 831
L 4013 0
L 750 0
L 750 831
z
" transform="scale(0.015625)"/>
      <path id="DejaVuSans-Bold-28" d="M 2413 -844
L 1484 -844
Q 1006 -72 778 623
Q 550 1319 550 2003
Q 550 2688 779 3389
Q 1009 4091 1484 4856
L 2413 4856
Q 2013 4116 1813 3408
Q 1613 2700 1613 2009
Q 1613 1319 1811 609
Q 2009 -100 2413 -844
z
" transform="scale(0.015625)"/>
      <path id="DejaVuSans-Bold-68" d="M 4056 2131
L 4056 0
L 2931 0
L 2931 347
L 2931 1625
Q 2931 2084 2911 2256
Q 2891 2428 2841 2509
Q 2775 2619 2662 2680
Q 2550 2741 2406 2741
Q 2056 2741 1856 2470
Q 1656 2200 1656 1722
L 1656 0
L 538 0
L 538 4863
L 1656 4863
L 1656 2988
Q 1909 3294 2193 3439
Q 2478 3584 2822 3584
Q 3428 3584 3742 3212
Q 4056 2841 4056 2131
z
" transform="scale(0.015625)"/>
      <path id="DejaVuSans-Bold-69" d="M 538 3500
L 1656 3500
L 1656 0
L 538 0
L 538 3500
z
M 538 4863
L 1656 4863
L 1656 3950
L 538 3950
L 538 4863
z
" transform="scale(0.015625)"/>
      <path id="DejaVuSans-Bold-73" d="M 3272 3391
L 3272 2541
Q 2913 2691 2578 2766
Q 2244 2841 1947 2841
Q 1628 2841 1473 2761
Q 1319 2681 1319 2516
Q 1319 2381 1436 2309
Q 1553 2238 1856 2203
L 2053 2175
Q 2913 2066 3209 1816
Q 3506 1566 3506 1031
Q 3506 472 3093 190
Q 2681 -91 1863 -91
Q 1516 -91 1145 -36
Q 775 19 384 128
L 384 978
Q 719 816 1070 734
Q 1422 653 1784 653
Q 2113 653 2278 743
Q 2444 834 2444 1013
Q 2444 1163 2330 1236
Q 2216 1309 1875 1350
L 1678 1375
Q 931 1469 631 1722
Q 331 1975 331 2491
Q 331 3047 712 3315
Q 1094 3584 1881 3584
Q 2191 3584 2531 3537
Q 2872 3491 3272 3391
z
" transform="scale(0.015625)"/>
      <path id="DejaVuSans-Bold-62" d="M 2400 722
Q 2759 722 2948 984
Q 3138 1247 3138 1747
Q 3138 2247 2948 2509
Q 2759 2772 2400 2772
Q 2041 2772 1848 2508
Q 1656 2244 1656 1747
Q 1656 1250 1848 986
Q 2041 722 2400 722
z
M 1656 2988
Q 1888 3294 2169 3439
Q 2450 3584 2816 3584
Q 3463 3584 3878 3070
Q 4294 2556 4294 1747
Q 4294 938 3878 423
Q 3463 -91 2816 -91
Q 2450 -91 2169 54
Q 1888 200 1656 506
L 1656 0
L 538 0
L 538 4863
L 1656 4863
L 1656 2988
z
" transform="scale(0.015625)"/>
      <path id="DejaVuSans-Bold-6e" d="M 4056 2131
L 4056 0
L 2931 0
L 2931 347
L 2931 1631
Q 2931 2084 2911 2256
Q 2891 2428 2841 2509
Q 2775 2619 2662 2680
Q 2550 2741 2406 2741
Q 2056 2741 1856 2470
Q 1656 2200 1656 1722
L 1656 0
L 538 0
L 538 3500
L 1656 3500
L 1656 2988
Q 1909 3294 2193 3439
Q 2478 3584 2822 3584
Q 3428 3584 3742 3212
Q 4056 2841 4056 2131
z
" transform="scale(0.015625)"/>
      <path id="DejaVuSans-Bold-29" d="M 513 -844
Q 913 -100 1113 609
Q 1313 1319 1313 2009
Q 1313 2700 1113 3408
Q 913 4116 513 4856
L 1441 4856
Q 1916 4091 2145 3389
Q 2375 2688 2375 2003
Q 2375 1319 2147 623
Q 1919 -72 1441 -844
L 513 -844
z
" transform="scale(0.015625)"/>
     </defs>
     <use xlink:href="#DejaVuSans-Bold-45"/>
     <use xlink:href="#DejaVuSans-Bold-67" transform="translate(68.310547 0)"/>
     <use xlink:href="#DejaVuSans-Bold-6f" transform="translate(139.892578 0)"/>
     <use xlink:href="#DejaVuSans-Bold-20" transform="translate(208.59375 0)"/>
     <use xlink:href="#DejaVuSans-Bold-52" transform="translate(243.408203 0)"/>
     <use xlink:href="#DejaVuSans-Bold-65" transform="translate(320.410156 0)"/>
     <use xlink:href="#DejaVuSans-Bold-66" transform="translate(388.232422 0)"/>
     <use xlink:href="#DejaVuSans-Bold-65" transform="translate(431.738281 0)"/>
     <use xlink:href="#DejaVuSans-Bold-72" transform="translate(499.560547 0)"/>
     <use xlink:href="#DejaVuSans-Bold-72" transform="translate(548.876953 0)"/>
     <use xlink:href="#DejaVuSans-Bold-61" transform="translate(598.193359 0)"/>
     <use xlink:href="#DejaVuSans-Bold-6c" transform="translate(665.673828 0)"/>
     <use xlink:href="#DejaVuSans-Bold-20" transform="translate(699.951172 0)"/>
     <use xlink:href="#DejaVuSans-Bold-4e" transform="translate(734.765625 0)"/>
     <use xlink:href="#DejaVuSans-Bold-65" transform="translate(818.457031 0)"/>
     <use xlink:href="#DejaVuSans-Bold-74" transform="translate(886.279297 0)"/>
     <use xlink:href="#DejaVuSans-Bold-77" transform="translate(934.082031 0)"/>
     <use xlink:href="#DejaVuSans-Bold-6f" transform="translate(1026.464844 0)"/>
     <use xlink:href="#DejaVuSans-Bold-72" transform="translate(1095.166016 0)"/>
     <use xlink:href="#DejaVuSans-Bold-6b" transform="translate(1144.482422 0)"/>
     <use xlink:href="#DejaVuSans-Bold-20" transform="translate(1210.986328 0)"/>
     <use xlink:href="#DejaVuSans-Bold-2014" transform="translate(1245.800781 0)"/>
     <use xlink:href="#DejaVuSans-Bold-20" transform="translate(1345.800781 0)"/>
     <use xlink:href="#DejaVuSans-Bold-48" transform="translate(1380.615234 0)"/>
     <use xlink:href="#DejaVuSans-Bold-43" transform="translate(1464.306641 0)"/>
     <use xlink:href="#DejaVuSans-Bold-50" transform="translate(1537.695312 0)"/>
     <use xlink:href="#DejaVuSans-Bold-20" transform="translate(1610.986328 0)"/>
     <use xlink:href="#DejaVuSans-Bold-30" transform="translate(1645.800781 0)"/>
     <use xlink:href="#DejaVuSans-Bold-36" transform="translate(1715.380859 0)"/>
     <use xlink:href="#DejaVuSans-Bold-33" transform="translate(1784.960938 0)"/>
     <use xlink:href="#DejaVuSans-Bold-31" transform="translate(1854.541016 0)"/>
     <use xlink:href="#DejaVuSans-Bold-20" transform="translate(1924.121094 0)"/>
     <use xlink:href="#DejaVuSans-Bold-28" transform="translate(1958.935547 0)"/>
     <use xlink:href="#DejaVuSans-Bold-68" transform="translate(2004.638672 0)"/>
     <use xlink:href="#DejaVuSans-Bold-69" transform="translate(2075.830078 0)"/>
     <use xlink:href="#DejaVuSans-Bold-67" transform="translate(2110.107422 0)"/>
     <use xlink:href="#DejaVuSans-Bold-68" transform="translate(2181.689453 0)"/>
     <use xlink:href="#DejaVuSans-Bold-65" transform="translate(2252.880859 0)"/>
     <use xlink:href="#DejaVuSans-Bold-73" transform="translate(2320.703125 0)"/>
     <use xlink:href="#DejaVuSans-Bold-74" transform="translate(2380.224609 0)"/>
     <use xlink:href="#DejaVuSans-Bold-20" transform="translate(2428.027344 0)"/>
     <use xlink:href="#DejaVuSans-Bold-62" transform="translate(2462.841797 0)"/>
     <use xlink:href="#DejaVuSans-Bold-65" transform="translate(2534.423828 0)"/>
     <use xlink:href="#DejaVuSans-Bold-74" transform="translate(2602.246094 0)"/>
     <use xlink:href="#DejaVuSans-Bold-77" transform="translate(2650.048828 0)"/>
     <use xlink:href="#DejaVuSans-Bold-65" transform="translate(2742.431641 0)"/>
     <use xlink:href="#DejaVuSans-Bold-65" transform="translate(2810.253906 0)"/>
     <use xlink:href="#DejaVuSans-Bold-6e" transform="translate(2878.076172 0)"/>
     <use xlink:href="#DejaVuSans-Bold-6e" transform="translate(2949.267578 0)"/>
     <use xlink:href="#DejaVuSans-Bold-65" transform="translate(3020.458984 0)"/>
     <use xlink:href="#DejaVuSans-Bold-73" transform="translate(3088.28125 0)"/>
     <use xlink:href="#DejaVuSans-Bold-73" transform="translate(3147.802734 0)"/>
     <use xlink:href="#DejaVuSans-Bold-29" transform="translate(3207.324219 0)"/>
    </g>
    <!-- Node labels: last 4 digits of NPI   ·   Edge labels: unique referred patients -->
    <g transform="translate(7.2 31.736687) scale(0.13 -0.13)">
     <defs>
      <path id="DejaVuSans-Bold-64" d="M 2919 2988
L 2919 4863
L 4044 4863
L 4044 0
L 2919 0
L 2919 506
Q 2688 197 2409 53
Q 2131 -91 1766 -91
Q 1119 -91 703 423
Q 288 938 288 1747
Q 288 2556 703 3070
Q 1119 3584 1766 3584
Q 2128 3584 2408 3439
Q 2688 3294 2919 2988
z
M 2181 722
Q 2541 722 2730 984
Q 2919 1247 2919 1747
Q 2919 2247 2730 2509
Q 2541 2772 2181 2772
Q 1825 2772 1636 2509
Q 1447 2247 1447 1747
Q 1447 1247 1636 984
Q 1825 722 2181 722
z
" transform="scale(0.015625)"/>
      <path id="DejaVuSans-Bold-3a" d="M 716 3500
L 1844 3500
L 1844 2291
L 716 2291
L 716 3500
z
M 716 1209
L 1844 1209
L 1844 0
L 716 0
L 716 1209
z
" transform="scale(0.015625)"/>
      <path id="DejaVuSans-Bold-34" d="M 2356 3675
L 1038 1722
L 2356 1722
L 2356 3675
z
M 2156 4666
L 3494 4666
L 3494 1722
L 4159 1722
L 4159 850
L 3494 850
L 3494 0
L 2356 0
L 2356 850
L 288 850
L 288 1881
L 2156 4666
z
" transform="scale(0.015625)"/>
      <path id="DejaVuSans-Bold-49" d="M 588 4666
L 1791 4666
L 1791 0
L 588 0
L 588 4666
z
" transform="scale(0.015625)"/>
      <path id="DejaVuSans-Bold-b7" d="M 653 2828
L 1778 2828
L 1778 1619
L 653 1619
L 653 2828
z
" transform="scale(0.015625)"/>
      <path id="DejaVuSans-Bold-75" d="M 500 1363
L 500 3500
L 1625 3500
L 1625 3150
Q 1625 2866 1622 2436
Q 1619 2006 1619 1863
Q 1619 1441 1641 1255
Q 1663 1069 1716 984
Q 1784 875 1895 815
Q 2006 756 2150 756
Q 2500 756 2700 1025
Q 2900 1294 2900 1772
L 2900 3500
L 4019 3500
L 4019 0
L 2900 0
L 2900 506
Q 2647 200 2364 54
Q 2081 -91 1741 -91
Q 1134 -91 817 281
Q 500 653 500 1363
z
" transform="scale(0.015625)"/>
      <path id="DejaVuSans-Bold-71" d="M 2181 2772
Q 1825 2772 1636 2509
Q 1447 2247 1447 1747
Q 1447 1247 1636 984
Q 1825 722 2181 722
Q 2541 722 2730 984
Q 2919 1247 2919 1747
Q 2919 2247 2730 2509
Q 2541 2772 2181 2772
z
M 2919 506
Q 2688 197 2409 53
Q 2131 -91 1766 -91
Q 1119 -91 703 423
Q 288 938 288 1747
Q 288 2556 703 3067
Q 1119 3578 1766 3578
Q 2131 3578 2409 3434
Q 2688 3291 2919 2981
L 2919 3500
L 4044 3500
L 4044 -1331
L 2919 -1331
L 2919 506
z
" transform="scale(0.015625)"/>
      <path id="DejaVuSans-Bold-70" d="M 1656 506
L 1656 -1331
L 538 -1331
L 538 3500
L 1656 3500
L 1656 2988
Q 1888 3294 2169 3439
Q 2450 3584 2816 3584
Q 3463 3584 3878 3070
Q 4294 2556 4294 1747
Q 4294 938 3878 423
Q 3463 -91 2816 -91
Q 2450 -91 2169 54
Q 1888 200 1656 506
z
M 2400 2772
Q 2041 2772 1848 2508
Q 1656 2244 1656 1747
Q 1656 1250 1848 986
Q 2041 722 2400 722
Q 2759 722 2948 984
Q 3138 1247 3138 1747
Q 3138 2247 2948 2509
Q 2759 2772 2400 2772
z
" transform="scale(0.015625)"/>
     </defs>
     <use xlink:href="#DejaVuSans-Bold-4e"/>
     <use xlink:href="#DejaVuSans-Bold-6f" transform="translate(83.691406 0)"/>
     <use xlink:href="#DejaVuSans-Bold-64" transform="translate(152.392578 0)"/>
     <use xlink:href="#DejaVuSans-Bold-65" transform="translate(223.974609 0)"/>
     <use xlink:href="#DejaVuSans-Bold-20" transform="translate(291.796875 0)"/>
     <use xlink:href="#DejaVuSans-Bold-6c" transform="translate(326.611328 0)"/>
     <use xlink:href="#DejaVuSans-Bold-61" transform="translate(360.888672 0)"/>
     <use xlink:href="#DejaVuSans-Bold-62" transform="translate(428.369141 0)"/>
     <use xlink:href="#DejaVuSans-Bold-65" transform="translate(499.951172 0)"/>
     <use xlink:href="#DejaVuSans-Bold-6c" transform="translate(567.773438 0)"/>
     <use xlink:href="#DejaVuSans-Bold-73" transform="translate(602.050781 0)"/>
     <use xlink:href="#DejaVuSans-Bold-3a" transform="translate(661.572266 0)"/>
     <use xlink:href="#DejaVuSans-Bold-20" transform="translate(701.5625 0)"/>
     <use xlink:href="#DejaVuSans-Bold-6c" transform="translate(736.376953 0)"/>
     <use xlink:href="#DejaVuSans-Bold-61" transform="translate(770.654297 0)"/>
     <use xlink:href="#DejaVuSans-Bold-73" transform="translate(838.134766 0)"/>
     <use xlink:href="#DejaVuSans-Bold-74" transform="translate(897.65625 0)"/>
     <use xlink:href="#DejaVuSans-Bold-20" transform="translate(945.458984 0)"/>
     <use xlink:href="#DejaVuSans-Bold-34" transform="translate(980.273438 0)"/>
     <use xlink:href="#DejaVuSans-Bold-20" transform="translate(1049.853516 0)"/>
     <use xlink:href="#DejaVuSans-Bold-64" transform="translate(1084.667969 0)"/>
     <use xlink:href="#DejaVuSans-Bold-69" transform="translate(1156.25 0)"/>
     <use xlink:href="#DejaVuSans-Bold-67" transform="translate(1190.527344 0)"/>
     <use xlink:href="#DejaVuSans-Bold-69" transform="translate(1262.109375 0)"/>
     <use xlink:href="#DejaVuSans-Bold-74" transform="translate(1296.386719 0)"/>
     <use xlink:href="#DejaVuSans-Bold-73" transform="translate(1344.189453 0)"/>
     <use xlink:href="#DejaVuSans-Bold-20" transform="translate(1403.710938 0)"/>
     <use xlink:href="#DejaVuSans-Bold-6f" transform="translate(1438.525391 0)"/>
     <use xlink:href="#DejaVuSans-Bold-66" transform="translate(1507.226562 0)"/>
     <use xlink:href="#DejaVuSans-Bold-20" transform="translate(1550.732422 0)"/>
     <use xlink:href="#DejaVuSans-Bold-4e" transform="translate(1585.546875 0)"/>
     <use xlink:href="#DejaVuSans-Bold-50" transform="translate(1669.238281 0)"/>
     <use xlink:href="#DejaVuSans-Bold-49" transform="translate(1742.529297 0)"/>
     <use xlink:href="#DejaVuSans-Bold-20" transform="translate(1779.736328 0)"/>
     <use xlink:href="#DejaVuSans-Bold-20" transform="translate(1814.550781 0)"/>
     <use xlink:href="#DejaVuSans-Bold-20" transform="translate(1849.365234 0)"/>
     <use xlink:href="#DejaVuSans-Bold-b7" transform="translate(1884.179688 0)"/>
     <use xlink:href="#DejaVuSans-Bold-20" transform="translate(1922.167969 0)"/>
     <use xlink:href="#DejaVuSans-Bold-20" transform="translate(1956.982422 0)"/>
     <use xlink:href="#DejaVuSans-Bold-20" transform="translate(1991.796875 0)"/>
     <use xlink:href="#DejaVuSans-Bold-45" transform="translate(2026.611328 0)"/>
     <use xlink:href="#DejaVuSans-Bold-64" transform="translate(2094.921875 0)"/>
     <use xlink:href="#DejaVuSans-Bold-67" transform="translate(2166.503906 0)"/>
     <use xlink:href="#DejaVuSans-Bold-65" transform="translate(2238.085938 0)"/>
     <use xlink:href="#DejaVuSans-Bold-20" transform="translate(2305.908203 0)"/>
     <use xlink:href="#DejaVuSans-Bold-6c" transform="translate(2340.722656 0)"/>
     <use xlink:href="#DejaVuSans-Bold-61" transform="translate(2375 0)"/>
     <use xlink:href="#DejaVuSans-Bold-62" transform="translate(2442.480469 0)"/>
     <use xlink:href="#DejaVuSans-Bold-65" transform="translate(2514.0625 0)"/>
     <use xlink:href="#DejaVuSans-Bold-6c" transform="translate(2581.884766 0)"/>
     <use xlink:href="#DejaVuSans-Bold-73" transform="translate(2616.162109 0)"/>
     <use xlink:href="#DejaVuSans-Bold-3a" transform="translate(2675.683594 0)"/>
     <use xlink:href="#DejaVuSans-Bold-20" transform="translate(2715.673828 0)"/>
     <use xlink:href="#DejaVuSans-Bold-75" transform="translate(2750.488281 0)"/>
     <use xlink:href="#DejaVuSans-Bold-6e" transform="translate(2821.679688 0)"/>
     <use xlink:href="#DejaVuSans-Bold-69" transform="translate(2892.871094 0)"/>
     <use xlink:href="#DejaVuSans-Bold-71" transform="translate(2927.148438 0)"/>
     <use xlink:href="#DejaVuSans-Bold-75" transform="translate(2998.730469 0)"/>
     <use xlink:href="#DejaVuSans-Bold-65" transform="translate(3069.921875 0)"/>
     <use xlink:href="#DejaVuSans-Bold-20" transform="translate(3137.744141 0)"/>
     <use xlink:href="#DejaVuSans-Bold-72" transform="translate(3172.558594 0)"/>
     <use xlink:href="#DejaVuSans-Bold-65" transform="translate(3221.875 0)"/>
     <use xlink:href="#DejaVuSans-Bold-66" transform="translate(3289.697266 0)"/>
     <use xlink:href="#DejaVuSans-Bold-65" transform="translate(3333.203125 0)"/>
     <use xlink:href="#DejaVuSans-Bold-72" transform="translate(3401.025391 0)"/>
     <use xlink:href="#DejaVuSans-Bold-72" transform="translate(3450.341797 0)"/>
     <use xlink:href="#DejaVuSans-Bold-65" transform="translate(3499.658203 0)"/>
     <use xlink:href="#DejaVuSans-Bold-64" transform="translate(3567.480469 0)"/>
     <use xlink:href="#DejaVuSans-Bold-20" transform="translate(3639.0625 0)"/>
     <use xlink:href="#DejaVuSans-Bold-70" transform="translate(3673.876953 0)"/>
     <use xlink:href="#DejaVuSans-Bold-61" transform="translate(3745.458984 0)"/>
     <use xlink:href="#DejaVuSans-Bold-74" transform="translate(3812.939453 0)"/>
     <use xlink:href="#DejaVuSans-Bold-69" transform="translate(3860.742188 0)"/>
     <use xlink:href="#DejaVuSans-Bold-65" transform="translate(3895.019531 0)"/>
     <use xlink:href="#DejaVuSans-Bold-6e" transform="translate(3962.841797 0)"/>
     <use xlink:href="#DejaVuSans-Bold-74" transform="translate(4034.033203 0)"/>
     <use xlink:href="#DejaVuSans-Bold-73" transform="translate(4081.835938 0)"/>
    </g>
   </g>
  </g>
 </g>
 <defs>
  <clipPath id="p3a569dca70">
   <rect x="43.139281" y="37.736687" width="466.488" height="390.2976"/>
  </clipPath>
 </defs>
</svg>
